#N canvas 15 50 1475 910 10;
#X obj 154 222 i;
#X obj 360 644 i;
#X obj 466 148 stripnote;
#X obj 146 455 + 60;
#X obj 392 390 + 60;
#X obj 538 393 + 60;
#X obj 466 180 t b f;
#X obj 635 191 i;
#X obj 508 298 unpack 0 0 0 0;
#X obj 667 395 + 60;
#N canvas 81 95 1063 707 chords 0;
#X msg 239 276 0 4 7;
#X msg 239 300 0 3 7;
#X msg 239 324 0 5 7;
#X obj 375 219 i;
#X msg 239 376 0 4 7 11;
#X msg 239 349 0 4 8;
#X msg 238 401 0 4 7 10;
#X msg 239 423 0 3 7 10;
#X msg 239 450 0 3 6 10;
#X msg 240 479 0 3 6 9;
#X msg 239 577 0 12 24;
#X obj 375 247 route 0 1 2 3 4 5 6 7 8 9 10 11;
#X obj 329 94 inlet;
#X obj 463 109 inlet;
#X text 261 98 get it!;
#X obj 421 657 outlet;
#X msg 238 551 0 7;
#X msg 239 506 0 4;
#X msg 239 530 0 3;
#X msg 596 528 read chord-list.txt;
#X obj 596 497 loadbang;
#X obj 779 279 text get croll-\$1-txt;
#X obj 596 556 text define croll-\$1-txt;
#X obj 779 353 s croll-\$1-chord-label;
#X obj 329 116 b;
#X connect 0 0 15 0;
#X connect 1 0 15 0;
#X connect 2 0 15 0;
#X connect 3 0 11 0;
#X connect 4 0 15 0;
#X connect 5 0 15 0;
#X connect 6 0 15 0;
#X connect 7 0 15 0;
#X connect 8 0 15 0;
#X connect 9 0 15 0;
#X connect 10 0 15 0;
#X connect 11 0 0 0;
#X connect 11 1 1 0;
#X connect 11 2 2 0;
#X connect 11 3 5 0;
#X connect 11 4 4 0;
#X connect 11 5 6 0;
#X connect 11 6 7 0;
#X connect 11 7 8 0;
#X connect 11 8 9 0;
#X connect 11 9 17 0;
#X connect 11 10 18 0;
#X connect 11 11 16 0;
#X connect 11 12 10 0;
#X connect 12 0 24 0;
#X connect 13 0 21 0;
#X connect 13 0 3 1;
#X connect 16 0 15 0;
#X connect 17 0 15 0;
#X connect 18 0 15 0;
#X connect 19 0 22 0;
#X connect 20 0 19 0;
#X connect 21 0 23 0;
#X connect 24 0 3 0;
#X restore 508 271 pd chords;
#X obj 341 480 f;
#X obj 370 418 t b f;
#X obj 341 452 delay;
#X obj 504 476 f;
#X obj 523 416 t b f;
#X obj 504 448 delay;
#X obj 640 493 f;
#X obj 663 423 t b f;
#X obj 640 465 delay;
#X obj 321 153 * 200;
#X obj 321 101 t f f;
#X obj 321 123 *;
#X obj 146 490 pack 0 100;
#X obj 343 503 pack 0 100;
#X obj 504 501 pack 0 100;
#X obj 642 521 pack 0 100;
#X obj 321 283 * 1;
#X obj 365 282 * 2;
#X obj 411 286 * 3;
#X text 813 154 and then the chord is 'rolled' at a selectable speed
(knob3);
#X text 597 270 get the chord;
#X text 255 324 roll the chord using delays;
#X obj 361 622 + 10;
#X text 695 338 add the root;
#X text 834 131 A note is converted into a selected chord (knob2);
#X obj 146 708 makenote 100 100, f 22;
#X obj 466 24 r croll-\$1-notes-in;
#X obj 526 173 s \$0-velocity;
#X obj 385 478 r \$0-velocity;
#X obj 186 468 r \$0-velocity;
#X obj 535 474 r \$0-velocity;
#X obj 705 494 r \$0-velocity;
#X obj 146 581 unpack 0 0, f 11;
#X obj 146 730 pack 0 0, f 22;
#X obj 146 862 s croll-\$1-notes-out;
#X msg 360 693 Note Length: \$1 ms;
#X obj 360 720 s croll-\$1-length-label;
#X obj 361 570 r croll-\$1-length;
#X obj 635 128 r croll-\$1-chord;
#X text 863 97 Chord Roll Module;
#X msg 154 271 Roll Speed \$1 ms;
#X obj 321 77 r croll-\$1-speed;
#X obj 154 298 s croll-\$1-speed-label;
#X obj 171 385 r croll-\$1-root;
#X obj 434 370 r croll-\$1-root;
#X obj 568 358 r croll-\$1-root;
#X obj 691 361 r croll-\$1-root;
#X obj 498 206 s croll-\$1-root;
#X text 978 303 Speed for Roll \, Chord Select \, Note out Length;
#X obj 713 770 s led;
#X msg 713 747 0;
#X obj 681 693 sel 0 1, f 16;
#X obj 681 715 t b b;
#X obj 681 667 tgl 15 0 empty empty empty 17 7 0 10 -262144 -1 -1 0
1;
#X obj 731 638 r mseq-\$1-kill-switch;
#X obj 681 616 r croll-\$1-switch;
#X obj 681 793 s croll-\$1-disable;
#X obj 735 720 s croll-\$1-enable;
#X obj 146 832 spigot;
#X obj 185 755 r croll-\$1-disable;
#X msg 185 777 0;
#X msg 221 801 1;
#X obj 221 779 r croll-\$1-enable;
#X obj 466 122 spigot;
#X obj 505 45 r croll-\$1-disable;
#X msg 505 67 0;
#X msg 541 91 1;
#X obj 541 69 r croll-\$1-enable;
#X obj 404 165 bag;
#X msg 404 115 flush;
#X msg 900 769 x;
#X obj 900 791 s croll-\$1-knob5-label;
#X obj 361 600 * 1000;
#X obj 635 169 * 12;
#X obj 900 745 r croll-\$1-enable;
#X connect 0 0 51 0;
#X connect 1 0 46 0;
#X connect 1 0 36 2;
#X connect 2 0 6 0;
#X connect 2 1 38 0;
#X connect 3 0 23 0;
#X connect 4 0 12 0;
#X connect 5 0 15 0;
#X connect 6 0 10 0;
#X connect 6 1 58 0;
#X connect 7 0 10 1;
#X connect 8 0 3 0;
#X connect 8 1 4 0;
#X connect 8 2 5 0;
#X connect 8 3 9 0;
#X connect 9 0 18 0;
#X connect 10 0 8 0;
#X connect 11 0 24 0;
#X connect 12 0 13 0;
#X connect 12 1 11 1;
#X connect 13 0 11 0;
#X connect 14 0 25 0;
#X connect 15 0 16 0;
#X connect 15 1 14 1;
#X connect 16 0 14 0;
#X connect 17 0 26 0;
#X connect 18 0 19 0;
#X connect 18 1 17 1;
#X connect 19 0 17 0;
#X connect 20 0 27 0;
#X connect 20 0 28 0;
#X connect 20 0 29 0;
#X connect 20 0 0 0;
#X connect 21 0 22 0;
#X connect 21 1 22 1;
#X connect 22 0 20 0;
#X connect 23 0 43 0;
#X connect 24 0 43 0;
#X connect 25 0 43 0;
#X connect 26 0 43 0;
#X connect 27 0 13 1;
#X connect 28 0 16 1;
#X connect 29 0 19 1;
#X connect 33 0 1 0;
#X connect 36 0 44 0;
#X connect 36 1 44 1;
#X connect 37 0 74 0;
#X connect 37 0 79 0;
#X connect 39 0 24 1;
#X connect 40 0 23 1;
#X connect 41 0 25 1;
#X connect 42 0 26 1;
#X connect 43 0 36 0;
#X connect 43 1 36 1;
#X connect 44 0 69 0;
#X connect 46 0 47 0;
#X connect 48 0 83 0;
#X connect 49 0 84 0;
#X connect 51 0 53 0;
#X connect 52 0 21 0;
#X connect 54 0 3 1;
#X connect 55 0 4 1;
#X connect 56 0 5 1;
#X connect 57 0 9 1;
#X connect 61 0 60 0;
#X connect 62 0 63 0;
#X connect 62 1 68 0;
#X connect 63 0 67 0;
#X connect 63 1 61 0;
#X connect 64 0 62 0;
#X connect 65 0 64 0;
#X connect 66 0 64 0;
#X connect 69 0 45 0;
#X connect 70 0 71 0;
#X connect 71 0 69 1;
#X connect 72 0 69 1;
#X connect 73 0 72 0;
#X connect 74 0 2 0;
#X connect 75 0 76 0;
#X connect 75 0 80 0;
#X connect 76 0 74 1;
#X connect 77 0 74 1;
#X connect 78 0 77 0;
#X connect 79 0 2 0;
#X connect 80 0 79 0;
#X connect 81 0 82 0;
#X connect 83 0 33 0;
#X connect 84 0 7 0;
#X connect 85 0 81 0;
