#N canvas 127 50 821 700 10;
#X text 16 102 A Note Repeater Module.;
#X text 302 220 Number of Repeats on release;
#X obj 300 310 i;
#X obj 552 273 i;
#X obj 300 264 * 32;
#X text 538 194 relative length of note out;
#X obj 300 240 r nr-\$1-number;
#X obj 552 209 r nr-\$1-length;
#X obj 552 325 s nr-\$1-length-label;
#X obj 300 358 s nr-\$1-number-label;
#X obj 80 168 r nr-\$1-notes-in;
#X obj 80 408 s nr-\$1-notes-out;
#X obj 334 302 s nr-\$1-number-local;
#X obj 659 304 s nr-\$1-length-local;
#X obj 328 571 s led;
#X msg 328 548 0;
#X obj 296 494 sel 0 1, f 16;
#X obj 296 516 t b b;
#X obj 296 468 tgl 15 0 empty empty empty 17 7 0 10 -262144 -1 -1 1
1;
#X obj 346 439 r mseq-\$1-kill-switch;
#X obj 296 417 r nr-\$1-switch;
#X obj 350 521 s nr-\$1-enable;
#X obj 296 594 s nr-\$1-disable;
#X obj 80 356 spigot;
#X msg 119 211 0;
#X msg 155 235 1;
#X obj 119 189 r nr-\$1-disable;
#X obj 155 213 r nr-\$1-enable;
#X msg 622 439 x;
#X obj 622 461 s nr-\$1-knob5-label;
#X obj 622 415 b;
#X msg 85 568 x;
#X obj 85 516 r nr-\$1-enable;
#N canvas 4 50 783 600 speed-knob 0;
#X text 277 71 Rate of repeat;
#X obj 277 160 i;
#X obj 277 140 + 1;
#X obj 277 90 r nr-\$1-speed;
#X obj 431 394 s nr-\$1-speed-label;
#X obj 205 483 s nr-\$1-speed-local;
#X text 136 106 note divisions;
#N canvas 245 324 450 300 triplets 0;
#X obj 58 168 outlet;
#X obj 76 86 sel 0 8 16;
#X obj 227 28 r master-ticks;
#X obj 227 50 spigot 0;
#X obj 280 -13 inlet;
#X connect 1 0 0 0;
#X connect 1 1 0 0;
#X connect 1 2 0 0;
#X connect 2 0 3 0;
#X connect 3 0 1 0;
#X connect 4 0 3 1;
#X restore 235 368 pd triplets;
#N canvas 605 152 450 300 sixteenths 0;
#X obj 76 158 outlet;
#X obj 76 86 sel 0 6 12 18;
#X obj 68 32 r master-ticks;
#X obj 68 54 spigot 0;
#X obj 121 -9 inlet;
#X connect 1 0 0 0;
#X connect 1 1 0 0;
#X connect 1 2 0 0;
#X connect 1 3 0 0;
#X connect 2 0 3 0;
#X connect 3 0 1 0;
#X connect 4 0 3 1;
#X restore 248 391 pd sixteenths;
#N canvas 240 382 450 300 quarters 0;
#X obj 73 115 sel 0;
#X obj 73 151 outlet;
#X obj 73 61 r master-ticks;
#X obj 72 88 spigot 0;
#X obj 126 20 inlet;
#X connect 0 0 1 0;
#X connect 2 0 3 0;
#X connect 3 0 0 0;
#X connect 4 0 3 1;
#X restore 205 320 pd quarters;
#N canvas 672 196 450 300 eighths 0;
#X obj 75 120 outlet;
#X obj 77 87 sel 0 12;
#X obj 70 24 r master-ticks;
#X obj 70 46 spigot 0;
#X obj 123 -17 inlet;
#X connect 1 0 0 0;
#X connect 1 1 0 0;
#X connect 2 0 3 0;
#X connect 3 0 1 0;
#X connect 4 0 3 1;
#X restore 221 344 pd eighths;
#N canvas 604 155 450 300 thirtyseconds 0;
#X obj 74 152 outlet;
#X obj 76 86 sel 0 3 6 9 12 15 18 21;
#X obj 171 27 r master-ticks;
#X obj 171 49 spigot 0;
#X obj 224 -14 inlet;
#X connect 1 0 0 0;
#X connect 1 1 0 0;
#X connect 1 2 0 0;
#X connect 1 3 0 0;
#X connect 1 4 0 0;
#X connect 1 5 0 0;
#X connect 1 6 0 0;
#X connect 1 7 0 0;
#X connect 2 0 3 0;
#X connect 3 0 1 0;
#X connect 4 0 3 1;
#X restore 263 416 pd thirtyseconds;
#N canvas 605 152 450 300 explosion 0;
#X obj 73 121 outlet;
#X obj 73 61 r master-ticks;
#X obj 73 83 spigot 0;
#X obj 126 20 inlet;
#X connect 1 0 2 0;
#X connect 2 0 0 0;
#X connect 3 0 2 1;
#X restore 279 441 pd explosion;
#X msg 226 239 0;
#X obj 277 258 route 1 2 3 4 5 6, f 50;
#X obj 277 205 t a b;
#X obj 277 183 pack 0 1;
#X obj 277 114 * 5;
#X msg 291 303 Note: Quarters;
#X msg 336 326 Note: Eighths;
#X msg 378 347 Note: Triplets;
#X msg 423 303 Note: Sixteenths;
#X msg 443 326 Note: ThirtySeconds;
#X msg 490 345 Note: SixtyFourths;
#X connect 1 0 16 0;
#X connect 2 0 1 0;
#X connect 3 0 17 0;
#X connect 7 0 5 0;
#X connect 8 0 5 0;
#X connect 9 0 5 0;
#X connect 10 0 5 0;
#X connect 11 0 5 0;
#X connect 12 0 5 0;
#X connect 13 0 9 0;
#X connect 13 0 10 0;
#X connect 13 0 7 0;
#X connect 13 0 8 0;
#X connect 13 0 11 0;
#X connect 13 0 12 0;
#X connect 14 0 9 0;
#X connect 14 0 18 0;
#X connect 14 1 10 0;
#X connect 14 1 19 0;
#X connect 14 2 7 0;
#X connect 14 2 20 0;
#X connect 14 3 8 0;
#X connect 14 3 21 0;
#X connect 14 4 11 0;
#X connect 14 4 22 0;
#X connect 14 5 12 0;
#X connect 14 5 23 0;
#X connect 15 0 14 0;
#X connect 15 1 13 0;
#X connect 16 0 15 0;
#X connect 17 0 2 0;
#X connect 18 0 4 0;
#X connect 19 0 4 0;
#X connect 20 0 4 0;
#X connect 21 0 4 0;
#X connect 22 0 4 0;
#X connect 23 0 4 0;
#X restore 293 187 pd speed-knob;
#N canvas 509 281 733 562 poly-thing 0;
#X obj 7 207 pack 0 0 0, f 11;
#X obj 7 233 route 1 2 3 4 5 6 7 8 9 10, f 59;
#X obj 7 377 unpack 0 0;
#X obj 7 474 makenote 100 100, f 19;
#X obj 7 496 pack 0 0;
#X obj 137 445 i;
#X obj 7 180 poly 10, f 11;
#X obj 137 391 r nr-\$1-length-local;
#X obj 7 593 spigot;
#X msg 46 538 0;
#X msg 82 562 1;
#X obj 46 516 r nr-\$1-disable;
#X obj 82 540 r nr-\$1-enable;
#X obj 8 133 inlet;
#X obj 7 620 outlet;
#X floatatom 180 432 5 0 0 0 - - -, f 5;
#X obj 7 255 nr-voice \$1;
#X obj 42 279 nr-voice \$1;
#X obj 87 255 nr-voice \$1;
#X obj 132 279 nr-voice \$1;
#X obj 212 279 nr-voice \$1;
#X obj 384 279 nr-voice \$1;
#X obj 167 255 nr-voice \$1;
#X obj 248 255 nr-voice \$1;
#X obj 302 279 nr-voice \$1;
#X obj 339 255 nr-voice \$1;
#X connect 0 0 1 0;
#X connect 1 0 16 0;
#X connect 1 1 17 0;
#X connect 1 2 18 0;
#X connect 1 3 19 0;
#X connect 1 4 22 0;
#X connect 1 5 20 0;
#X connect 1 6 23 0;
#X connect 1 7 24 0;
#X connect 1 8 25 0;
#X connect 1 9 21 0;
#X connect 2 0 3 0;
#X connect 2 1 3 1;
#X connect 3 0 4 0;
#X connect 3 1 4 1;
#X connect 4 0 8 0;
#X connect 5 0 3 2;
#X connect 6 0 0 0;
#X connect 6 1 0 1;
#X connect 6 2 0 2;
#X connect 7 0 5 0;
#X connect 7 0 15 0;
#X connect 8 0 14 0;
#X connect 9 0 8 1;
#X connect 10 0 8 1;
#X connect 11 0 9 0;
#X connect 12 0 10 0;
#X connect 13 0 6 0;
#X connect 16 0 2 0;
#X connect 17 0 2 0;
#X connect 18 0 2 0;
#X connect 19 0 2 0;
#X connect 20 0 2 0;
#X connect 21 0 2 0;
#X connect 22 0 2 0;
#X connect 23 0 2 0;
#X connect 24 0 2 0;
#X connect 25 0 2 0;
#X restore 80 382 pd poly-thing;
#X obj 622 394 r nr-\$1-enable;
#X msg 552 303 Length: \$1 ms;
#X msg 300 336 Decay: \$1x;
#X obj 17 289 bag;
#X msg 17 259 flush;
#X obj 17 311 pack 0 0;
#X obj 85 590 s r nr-\$1-knob5-label;
#X obj 552 251 + 1;
#X obj 552 231 * 999;
#X obj 531 532 s nr-\$1-superkill;
#X obj 531 508 r nr-\$1-disable;
#X connect 2 0 37 0;
#X connect 2 0 12 0;
#X connect 3 0 36 0;
#X connect 3 0 13 0;
#X connect 4 0 2 0;
#X connect 6 0 4 0;
#X connect 7 0 43 0;
#X connect 10 0 38 0;
#X connect 10 0 23 0;
#X connect 15 0 14 0;
#X connect 16 0 17 0;
#X connect 16 1 21 0;
#X connect 17 0 22 0;
#X connect 17 1 15 0;
#X connect 18 0 16 0;
#X connect 19 0 18 0;
#X connect 20 0 18 0;
#X connect 23 0 34 0;
#X connect 24 0 23 1;
#X connect 25 0 23 1;
#X connect 26 0 24 0;
#X connect 26 0 39 0;
#X connect 27 0 25 0;
#X connect 28 0 29 0;
#X connect 30 0 28 0;
#X connect 31 0 41 0;
#X connect 32 0 31 0;
#X connect 34 0 11 0;
#X connect 35 0 30 0;
#X connect 36 0 8 0;
#X connect 37 0 9 0;
#X connect 38 0 40 0;
#X connect 39 0 38 0;
#X connect 40 0 23 0;
#X connect 42 0 3 0;
#X connect 43 0 42 0;
#X connect 45 0 44 0;
