#N canvas 285 204 719 624 10;
#X obj 63 522 s led;
#X msg 63 499 0;
#X obj 31 445 sel 0 1, f 16;
#X obj 31 467 t b b;
#X obj 31 419 tgl 15 0 empty empty empty 17 7 0 10 -262144 -1 -1 0
1;
#X obj 81 390 r mseq-\$1-kill-switch;
#X obj 20 274 spigot;
#X msg 59 219 0;
#X msg 95 243 1;
#X obj 20 102 r passSeq-\$1-notes-in;
#X obj 20 315 s passSeq-\$1-notes-out;
#X obj 59 197 r passSeq-\$1-disable;
#X obj 95 220 r passSeq-\$1-enable;
#X obj 31 368 r passSeq-\$1-switch;
#X obj 85 472 s passSeq-\$1-enable;
#X obj 31 543 s passSeq-\$1-disable;
#X msg 287 523 x;
#X msg 455 521 x;
#X obj 287 500 r passSeq-\$1-x1;
#X obj 456 499 r passSeq-\$1-x2;
#X obj 287 545 s passSeq-\$1-x1-label;
#X obj 455 543 s passSeq-\$1-x2-label;
#X msg 282 101 x;
#X obj 282 71 del 100;
#X obj 282 49 r passSeq-\$1-enable;
#X obj 282 124 s passSeq-\$1-knob5-label;
#X msg 284 375 x;
#X obj 284 352 r passSeq-\$1-x3;
#X obj 284 397 s passSeq-\$1-x3-label;
#X connect 1 0 0 0;
#X connect 2 0 3 0;
#X connect 2 1 14 0;
#X connect 3 0 15 0;
#X connect 3 1 1 0;
#X connect 4 0 2 0;
#X connect 5 0 4 0;
#X connect 6 0 10 0;
#X connect 7 0 6 1;
#X connect 8 0 6 1;
#X connect 9 0 6 0;
#X connect 11 0 7 0;
#X connect 12 0 8 0;
#X connect 13 0 4 0;
#X connect 16 0 20 0;
#X connect 17 0 21 0;
#X connect 18 0 16 0;
#X connect 19 0 17 0;
#X connect 22 0 25 0;
#X connect 23 0 22 0;
#X connect 24 0 23 0;
#X connect 26 0 28 0;
#X connect 27 0 26 0;
