#N canvas 715 89 619 713 10;
#N canvas 759 224 450 300 sixteenths 0;
#X obj 249 138 outlet;
#X obj 252 60 r beat-clock;
#X obj 252 105 sel 0;
#X obj 252 81 % 90;
#X connect 1 0 3 0;
#X connect 2 0 0 0;
#X connect 3 0 2 0;
#X restore 18 335 pd sixteenths;
#X obj 20 68 stripnote;
#X obj 20 137 % 24;
#X obj 20 113 abs;
#X text 71 181 second argument (key number);
#X obj 20 90 expr if ($f1 > 59 \, $f1 - 60 \, $f1 - 12);
#X msg 130 143 0;
#X obj 18 424 spigot;
#X obj 62 439 sel 1;
#X obj 104 226 i;
#X obj 104 248 sel 1;
#X obj 130 121 r ppb-\$2-cancel-local;
#X obj 18 556 counter-up 16;
#X obj 104 270 s ppb-\$2-i-am-playing;
#X obj 104 205 r ppb-\$2-r-u-playing;
#X obj 94 519 i;
#X obj 93 585 f \$1;
#X obj 93 711 pack 0 0, f 16;
#X obj 93 743 s ppb-\$2-notes-out;
#X obj 20 159 + 1;
#X obj 20 21 r ppb-\$2-notes-in;
#X obj 168 550 f;
#X obj 62 461 t b b b b, f 27;
#X obj 133 488 r ppb-\$2-div-local;
#X obj 20 184 sel \$1;
#X obj 183 526 r ppb-\$2-vel-local;
#X obj 271 555 r ppb-\$2-note-len-local;
#X obj 93 607 + 59;
#X msg 343 77 0;
#X msg 270 54 1;
#X obj 315 55 t b b b;
#X obj 270 33 sel ppb;
#X obj 20 42 spigot 0;
#X obj 270 12 r mseq-\$2-Fxs;
#X obj 63 359 r ppb-\$2-pause-local;
#X obj 49 228 + 1;
#X obj 20 247 % 2;
#X obj 20 291 t f f b, f 24;
#X obj 166 318 s ppb-\$2-touched;
#X obj 20 226 f 1;
#X obj 18 388 spigot 1;
#X obj 240 629 del;
#X msg 212 561 stop;
#X obj 54 595 bng 15 250 50 0 empty empty empty 17 7 0 10 -262144 -1
-1;
#X obj 239 708 pack 0 0;
#X obj 239 661 f \$1;
#X obj 239 683 + 59;
#X obj 93 628 t a b b b, f 13;
#X connect 0 0 40 0;
#X connect 1 0 5 0;
#X connect 2 0 19 0;
#X connect 3 0 2 0;
#X connect 5 0 3 0;
#X connect 6 0 39 0;
#X connect 7 0 12 0;
#X connect 8 0 22 0;
#X connect 9 0 10 0;
#X connect 10 0 13 0;
#X connect 11 0 6 0;
#X connect 12 1 16 0;
#X connect 12 1 43 0;
#X connect 14 0 9 0;
#X connect 15 0 12 2;
#X connect 16 0 27 0;
#X connect 17 0 18 0;
#X connect 19 0 24 0;
#X connect 20 0 32 0;
#X connect 21 0 17 1;
#X connect 22 0 12 1;
#X connect 22 1 15 0;
#X connect 22 2 21 0;
#X connect 23 0 15 1;
#X connect 24 0 39 0;
#X connect 25 0 21 1;
#X connect 26 0 41 1;
#X connect 27 0 47 0;
#X connect 28 0 32 1;
#X connect 29 0 32 1;
#X connect 30 1 28 0;
#X connect 31 0 29 0;
#X connect 31 1 30 0;
#X connect 32 0 1 0;
#X connect 33 0 31 0;
#X connect 34 0 40 1;
#X connect 35 0 39 1;
#X connect 36 0 9 1;
#X connect 36 0 37 0;
#X connect 37 0 7 1;
#X connect 37 1 8 0;
#X connect 37 2 38 0;
#X connect 39 0 35 0;
#X connect 39 0 36 0;
#X connect 40 0 7 0;
#X connect 41 0 45 0;
#X connect 42 0 41 0;
#X connect 44 0 18 0;
#X connect 45 0 46 0;
#X connect 46 0 44 0;
#X connect 47 0 17 0;
#X connect 47 1 41 0;
#X connect 47 2 45 0;
#X connect 47 3 42 0;
