#N canvas 607 79 947 801 10;
#N canvas 759 224 450 300 sixteenths 0;
#X obj 112 42 r master-ticks;
#X obj 112 117 outlet;
#N canvas 1096 214 450 300 sixteenths 0;
#X obj 73 61 inlet;
#X obj 73 124 outlet;
#X text 130 63 master-ticks in;
#X obj 73 90 sel 0 6 12 18;
#X connect 0 0 3 0;
#X connect 3 0 1 0;
#X connect 3 1 1 0;
#X connect 3 2 1 0;
#X connect 3 3 1 0;
#X restore 112 78 pd sixteenths;
#X connect 0 0 2 0;
#X connect 2 0 1 0;
#X restore 18 390 pd sixteenths;
#X obj 20 48 stripnote;
#X obj 20 164 sel \$2;
#X obj 20 117 % 24;
#X obj 20 93 abs;
#X text 70 165 second argument (key number);
#X obj 20 70 expr if ($f1 > 59 \, $f1 - 60 \, $f1 - 12);
#X msg 88 214 0;
#X obj 20 255 tgl 15 0 empty empty empty 17 7 0 10 -262144 -1 -1 0
1;
#X obj 20 362 t f f, f 9;
#X obj 18 414 spigot;
#X obj 62 459 sel 1;
#X obj 44 286 i;
#X obj 44 308 sel 1;
#X obj 88 192 r ppb-\$2-cancel-local;
#X obj 62 481 t b b;
#X obj 18 546 counter-up 16;
#X obj 112 480 r ppb-\$2-num-sixteenths;
#X obj 44 330 s ppb-\$2-i-am-playing;
#X obj 44 255 r ppb-\$2-r-u-playing;
#X obj 94 509 i;
#X obj 106 585 f \$1;
#X obj 106 607 + 60;
#X obj 106 629 makenote 100 200;
#X obj 106 651 pack 0 0, f 16;
#X obj 106 673 s ppb-\$2-notes-out;
#X obj 20 139 + 1;
#X obj 20 21 r ppb-\$2-notes-in;
#X connect 0 0 10 0;
#X connect 1 0 6 0;
#X connect 2 0 8 0;
#X connect 3 0 26 0;
#X connect 4 0 3 0;
#X connect 6 0 4 0;
#X connect 7 0 8 0;
#X connect 8 0 12 1;
#X connect 8 0 9 0;
#X connect 9 0 10 1;
#X connect 9 1 11 0;
#X connect 10 0 16 0;
#X connect 11 0 15 0;
#X connect 12 0 13 0;
#X connect 13 0 18 0;
#X connect 14 0 7 0;
#X connect 15 0 16 1;
#X connect 15 1 20 0;
#X connect 16 1 21 0;
#X connect 17 0 20 1;
#X connect 19 0 12 0;
#X connect 20 0 16 2;
#X connect 21 0 22 0;
#X connect 22 0 23 0;
#X connect 23 0 24 0;
#X connect 23 1 24 1;
#X connect 24 0 25 0;
#X connect 26 0 2 0;
#X connect 27 0 1 0;
