#N canvas 233 162 1075 625 10;
#X obj 29 285 ppb-voice 1 \$1;
#X obj 29 305 ppb-voice 2 \$1;
#X obj 29 325 ppb-voice 3 \$1;
#X obj 29 345 ppb-voice 4 \$1;
#X obj 29 365 ppb-voice 5 \$1;
#X obj 29 385 ppb-voice 6 \$1;
#X obj 29 405 ppb-voice 7 \$1;
#X obj 29 425 ppb-voice 8 \$1;
#X obj 29 445 ppb-voice 9 \$1;
#X obj 29 465 ppb-voice 10 \$1;
#X obj 29 485 ppb-voice 11 \$1;
#X obj 29 505 ppb-voice 12 \$1;
#X obj 159 285 ppb-voice 13 \$1;
#X obj 159 305 ppb-voice 14 \$1;
#X obj 159 325 ppb-voice 15 \$1;
#X obj 159 345 ppb-voice 16 \$1;
#X obj 159 365 ppb-voice 17 \$1;
#X obj 159 385 ppb-voice 18 \$1;
#X obj 159 405 ppb-voice 19 \$1;
#X obj 159 425 ppb-voice 20 \$1;
#X obj 159 445 ppb-voice 21 \$1;
#X obj 159 465 ppb-voice 22 \$1;
#X obj 159 485 ppb-voice 23 \$1;
#X obj 159 505 ppb-voice 24 \$1;
#X obj 679 26 r ppb-\$1-switch;
#X obj 347 68 r ppb-\$1-div;
#X obj 347 110 i;
#X obj 347 89 * 31;
#X obj 347 131 + 1;
#X obj 379 182 s ppb-\$1-div-label;
#X obj 347 226 s ppb-\$1-div-local;
#X msg 379 159 Beat Div.: \$1;
#X obj 349 328 i;
#X obj 349 349 + 1;
#X obj 349 307 * 126;
#X obj 349 256 r ppb-\$1-vel;
#X obj 381 408 s ppb-\$1-vel-label;
#X obj 349 445 s ppb-\$1-vel-local;
#X obj 521 442 i;
#X obj 521 463 + 10;
#X obj 553 522 s ppb-\$1-note-len-label;
#X obj 521 559 s ppb-\$1-note-len-local;
#X obj 521 370 r ppb-\$1-note-len;
#X msg 553 491 Length: \$1ms;
#X obj 398 329 i;
#X obj 398 350 + 1;
#X obj 398 308 * 99;
#X msg 381 377 Velocity: \$1%;
#X obj 529 19 r ppb-\$1-aux-in;
#X obj 529 173 spigot 0;
#X obj 574 61 r mseq-\$1-Fxs;
#X msg 679 131 0;
#X msg 574 103 1;
#X obj 592 223 s ppb-\$1-cancel-local;
#X obj 819 212 r ppb-\$1-knob5;
#X msg 784 438 Beats: Stopped;
#X msg 833 409 Beats: Playing;
#X obj 784 478 s ppb-\$1-knob5-label;
#X obj 819 337 f;
#X obj 850 558 s led;
#X msg 889 519 3;
#X obj 613 105 t b b b, f 29;
#X msg 726 160 0;
#X obj 726 181 s led;
#X obj 574 82 sel ppb;
#X obj 867 343 print wtf;
#X obj 163 -12 r ppb-\$1-i-am-playing;
#X obj 90 245 s ppb-\$1-r-u-playing;
#X obj 56 -3 r beat-clock;
#X obj 56 98 sel 0;
#X obj 130 174 f;
#X obj 56 119 t b b b, f 12;
#N canvas 4 50 498 420 aux-hold 0;
#X obj 33 19 inlet;
#X obj 104 168 del 500;
#X obj 33 91 t b b b;
#X msg 104 134 stop;
#X obj 33 44 sel 1 0, f 19;
#X obj 88 66 t b b b;
#X msg 33 170 1;
#X obj 38 264 f;
#X obj 104 189 t b b;
#X msg 131 213 0;
#X obj 38 285 sel 1;
#X obj 38 306 outlet short-hold;
#X obj 104 255 outlet long-hold;
#X connect 0 0 4 0;
#X connect 1 0 8 0;
#X connect 2 0 6 0;
#X connect 2 1 1 0;
#X connect 2 2 3 0;
#X connect 3 0 1 0;
#X connect 4 0 2 0;
#X connect 4 1 5 0;
#X connect 5 1 7 0;
#X connect 5 2 3 0;
#X connect 6 0 7 1;
#X connect 7 0 10 0;
#X connect 8 0 12 0;
#X connect 8 1 9 0;
#X connect 9 0 7 1;
#X connect 10 0 11 0;
#X restore 529 198 pd aux-hold;
#X obj 529 340 s ppb-\$1-pause-local;
#X msg 613 132 0;
#X obj 561 297 + 1;
#X obj 529 317 % 2;
#X obj 819 372 sel 0 1 2;
#X msg 929 517 1;
#X msg 850 518 0;
#X msg 910 438 Beats: Paused;
#X obj 204 12 r ppb-\$1-pause-local;
#X msg 125 141 0;
#X obj 189 95 f;
#X obj 885 45 r ppb-\$1-pause-local;
#X obj 852 117 spigot;
#X obj 852 138 t b b;
#X msg 915 120 0;
#X obj 852 20 r ppb-\$1-touched;
#X obj 852 180 s ppb-\$1-pause-local;
#X obj 56 73 % 90;
#X obj 204 33 sel 0 1;
#X obj 529 296 f 0;
#X msg 204 54 2;
#X msg 233 55 1;
#X msg 852 159 1;
#X obj 885 66 sel 0;
#X msg 885 87 1;
#X obj 56 18 spigot 0;
#X obj 122 19 r mseq-\$1-Fxs;
#X msg 122 61 1;
#X obj 122 40 sel ppb;
#X obj 158 63 t b;
#X msg 158 84 0;
#X obj 521 421 * 990;
#X obj 521 391 pow 2;
#X connect 25 0 27 0;
#X connect 26 0 28 0;
#X connect 27 0 26 0;
#X connect 28 0 30 0;
#X connect 28 0 31 0;
#X connect 31 0 29 0;
#X connect 32 0 33 0;
#X connect 33 0 37 0;
#X connect 34 0 32 0;
#X connect 35 0 34 0;
#X connect 35 0 46 0;
#X connect 38 0 39 0;
#X connect 39 0 43 0;
#X connect 39 0 41 0;
#X connect 42 0 105 0;
#X connect 43 0 40 0;
#X connect 44 0 45 0;
#X connect 45 0 47 0;
#X connect 46 0 44 0;
#X connect 47 0 36 0;
#X connect 48 0 49 0;
#X connect 49 0 72 0;
#X connect 50 0 64 0;
#X connect 51 0 49 1;
#X connect 52 0 49 1;
#X connect 52 0 92 0;
#X connect 54 0 58 0;
#X connect 55 0 57 0;
#X connect 56 0 57 0;
#X connect 58 0 77 0;
#X connect 60 0 59 0;
#X connect 61 0 74 0;
#X connect 61 1 51 0;
#X connect 61 2 62 0;
#X connect 61 2 55 0;
#X connect 62 0 63 0;
#X connect 64 0 52 0;
#X connect 64 1 61 0;
#X connect 66 0 83 0;
#X connect 68 0 98 0;
#X connect 69 0 71 0;
#X connect 70 0 58 0;
#X connect 71 0 70 0;
#X connect 71 1 67 0;
#X connect 71 2 82 0;
#X connect 72 0 92 0;
#X connect 72 1 53 0;
#X connect 74 0 92 0;
#X connect 75 0 92 1;
#X connect 76 0 73 0;
#X connect 77 0 55 0;
#X connect 77 0 79 0;
#X connect 77 1 56 0;
#X connect 77 1 60 0;
#X connect 77 2 80 0;
#X connect 77 2 78 0;
#X connect 78 0 59 0;
#X connect 79 0 59 0;
#X connect 80 0 57 0;
#X connect 81 0 91 0;
#X connect 82 0 70 1;
#X connect 83 0 70 1;
#X connect 84 0 96 0;
#X connect 85 0 86 0;
#X connect 86 0 95 0;
#X connect 86 1 87 0;
#X connect 87 0 85 1;
#X connect 88 0 85 0;
#X connect 90 0 69 0;
#X connect 91 0 93 0;
#X connect 91 1 94 0;
#X connect 92 0 75 0;
#X connect 92 0 76 0;
#X connect 93 0 83 1;
#X connect 94 0 83 1;
#X connect 95 0 89 0;
#X connect 96 0 97 0;
#X connect 97 0 85 1;
#X connect 98 0 90 0;
#X connect 99 0 101 0;
#X connect 100 0 98 1;
#X connect 101 0 100 0;
#X connect 101 1 102 0;
#X connect 102 0 103 0;
#X connect 103 0 98 1;
#X connect 104 0 38 0;
#X connect 105 0 104 0;
