#N canvas 210 50 1475 882 10;
#X obj 139 338 outlet;
#X obj 65 181 t b;
#X msg 65 203 2;
#X obj 298 186 t b;
#X msg 298 208 3;
#X obj 170 130 sel 0;
#X obj 202 154 t b;
#X msg 202 176 1;
#X obj 33 148 sel 0;
#X obj 266 159 sel 0;
#X obj 227 494 sel 1, f 12;
#X obj 308 527 t b, f 4;
#X obj 498 553 t b, f 4;
#X obj 417 529 sel 2 3, f 12;
#X obj 774 564 t b, f 4;
#X msg 774 609 Latch:Off;
#X msg 693 609 Latch:On;
#X text 431 479 print to the shortcut menu;
#X obj 352 216 f 0;
#X obj 130 60 r midi-start;
#X msg 130 82 4;
#X obj 352 190 r midi-stop;
#X obj 507 185 t b;
#X obj 475 158 sel 0;
#X msg 507 207 5;
#X obj 965 544 t b, f 4;
#X obj 884 520 sel 5, f 12;
#X obj 227 573 f;
#X msg 227 603 \$1Seq:Stop;
#X obj 308 572 f;
#X msg 308 602 \$1Seq:Play;
#X msg 417 599 \$1Rec:Armd;
#X msg 498 597 \$1Rec:On;
#X msg 569 598 \$1Rec:Off;
#X obj 417 574 f;
#X obj 492 573 f;
#X obj 559 570 f;
#X obj 965 566 f;
#X obj 884 572 f;
#X msg 884 619 \$1Dub:On;
#X obj 111 529 t b f f;
#X obj 111 509 + 1;
#X obj 578 499 + 1;
#X obj 1013 519 + 1;
#X obj 559 136 sel 1;
#X obj 559 234 t b b;
#X msg 640 212 0;
#X obj 559 212 spigot 0;
#X msg 612 189 1;
#X msg 559 256 1;
#X obj 693 540 sel 4, f 12;
#X obj 358 113 t b;
#X obj 326 86 sel 0;
#X msg 358 135 6;
#X obj 1152 595 f;
#X obj 1322 488 + 1;
#X obj 612 164 sel 3, f 12;
#X msg 965 619 \$1Dub:Off;
#X obj 1152 488 sel 6, f 10;
#X obj 1219 513 t b;
#X obj 1152 692 spigot 1;
#X obj 1239 689 spigot 0;
#X obj 1292 554 sel 3;
#X obj 1242 660 ==;
#X obj 1292 611 f;
#X msg 1292 580 1;
#X msg 1252 579 0;
#X msg 1239 714 \$1:Undo;
#X msg 1152 717 \$1:Undid;
#X obj 1152 510 t b b;
#X obj 559 112 r cgSc-\$1-aux;
#X obj 475 131 r cgSc-\$1-3;
#X obj 326 62 r cgSc-\$1-4;
#X obj 267 132 r cgSc-\$1-5;
#X obj 171 108 r cgSc-\$1-1;
#X obj 33 126 r cgSc-\$1-2;
#X obj 111 486 r cgSc-\$1-slots;
#X obj 227 472 r seq3-\$1-actions;
#X obj 578 451 r cgSc-\$1-slots;
#X obj 693 519 r seq3-\$1-actions;
#X obj 1322 464 r cgSc-\$1-slots;
#X obj 1292 532 r seq3-\$1-actions;
#X obj 1152 460 r seq3-\$1-actions;
#X obj 1013 495 r cgSc-\$1-slots;
#X obj 884 500 r seq3-\$1-actions;
#X obj 76 639 s seq3-\$1-actions;
#X obj 76 615 v seq3-\$1-state;
#X text 932 166 ARG 1: match seq3 and Shortcut number;
#X obj 693 781 s cgSc-\$1-5label;
#X obj 693 652 spigot 1;
#X obj 419 780 s cgSc-\$1-2label;
#X obj 419 640 spigot 1;
#X obj 227 785 s cgSc-\$1-1label;
#X obj 227 646 spigot 1;
#X obj 884 792 s cgSc-\$1-3label;
#X obj 884 662 spigot 1;
#X obj 1152 831 s cgSc-\$1-4label;
#X obj 1152 750 spigot 1;
#X obj 709 394 r init-\$1-slot;
#X obj 709 423 s cgSc-\$1-slots;
#X obj 417 508 r seq3-\$1-actions;
#X obj 612 140 r seq3-\$1-actions;
#X text 681 50 Standard Control code for seq3;
#X obj 28 244 loadbang;
#X msg 28 266 0;
#X connect 1 0 2 0;
#X connect 2 0 0 0;
#X connect 3 0 4 0;
#X connect 4 0 0 0;
#X connect 5 1 6 0;
#X connect 6 0 7 0;
#X connect 7 0 0 0;
#X connect 8 1 1 0;
#X connect 9 1 3 0;
#X connect 10 0 27 0;
#X connect 10 1 11 0;
#X connect 11 0 29 0;
#X connect 12 0 36 0;
#X connect 13 0 34 0;
#X connect 13 1 35 0;
#X connect 13 2 12 0;
#X connect 14 0 15 0;
#X connect 15 0 89 0;
#X connect 16 0 89 0;
#X connect 18 0 0 0;
#X connect 19 0 20 0;
#X connect 20 0 0 0;
#X connect 21 0 18 0;
#X connect 22 0 24 0;
#X connect 23 1 22 0;
#X connect 24 0 0 0;
#X connect 25 0 37 0;
#X connect 26 0 38 0;
#X connect 26 1 25 0;
#X connect 27 0 28 0;
#X connect 28 0 93 0;
#X connect 29 0 30 0;
#X connect 30 0 93 0;
#X connect 31 0 91 0;
#X connect 32 0 91 0;
#X connect 33 0 91 0;
#X connect 34 0 31 0;
#X connect 35 0 32 0;
#X connect 36 0 33 0;
#X connect 37 0 57 0;
#X connect 38 0 39 0;
#X connect 39 0 95 0;
#X connect 40 0 86 0;
#X connect 40 1 27 1;
#X connect 40 2 29 1;
#X connect 41 0 40 0;
#X connect 42 0 36 1;
#X connect 42 0 35 1;
#X connect 42 0 34 1;
#X connect 43 0 37 1;
#X connect 43 0 38 1;
#X connect 44 0 47 0;
#X connect 45 0 49 0;
#X connect 45 1 46 0;
#X connect 46 0 47 1;
#X connect 47 0 45 0;
#X connect 48 0 47 1;
#X connect 49 0 0 0;
#X connect 50 0 16 0;
#X connect 50 1 14 0;
#X connect 51 0 53 0;
#X connect 52 1 51 0;
#X connect 53 0 0 0;
#X connect 54 0 60 0;
#X connect 54 0 61 0;
#X connect 55 0 54 1;
#X connect 56 0 48 0;
#X connect 57 0 95 0;
#X connect 58 0 69 0;
#X connect 58 1 59 0;
#X connect 59 0 54 0;
#X connect 60 0 68 0;
#X connect 61 0 67 0;
#X connect 62 0 65 0;
#X connect 63 0 60 1;
#X connect 64 0 63 0;
#X connect 64 0 61 1;
#X connect 65 0 64 0;
#X connect 66 0 64 0;
#X connect 67 0 97 0;
#X connect 68 0 97 0;
#X connect 69 0 54 0;
#X connect 69 1 66 0;
#X connect 70 0 44 0;
#X connect 71 0 23 0;
#X connect 72 0 52 0;
#X connect 73 0 9 0;
#X connect 74 0 5 0;
#X connect 75 0 8 0;
#X connect 76 0 41 0;
#X connect 77 0 10 0;
#X connect 78 0 42 0;
#X connect 79 0 50 0;
#X connect 80 0 55 0;
#X connect 81 0 62 0;
#X connect 82 0 58 0;
#X connect 83 0 43 0;
#X connect 84 0 26 0;
#X connect 86 0 85 0;
#X connect 89 0 88 0;
#X connect 91 0 90 0;
#X connect 93 0 92 0;
#X connect 95 0 94 0;
#X connect 97 0 96 0;
#X connect 98 0 99 0;
#X connect 100 0 13 0;
#X connect 101 0 56 0;
#X connect 103 0 104 0;
#X connect 104 0 0 0;
