#N canvas 451 248 569 484 10;
#X obj 38 136 spigot;
#X msg 77 107 1;
#X msg 114 107 0;
#X text 209 7 arg1: instance number;
#X text 209 27 arg2: knob number;
#X text 209 47 arg3: module shortcut name;
#X text 209 67 arg4: module shortcut parameter;
#X obj 38 206 s \$3-\$1-\$4;
#X obj 37 288 r \$3-\$1-\$4-label;
#X obj 57 55 sel \$3, f 10;
#X obj 57 77 t b b;
#X obj 38 5 r ms-\$1-knob\$2-local;
#X obj 57 28 r ms-\$1-Fxs;
#X obj 37 373 s ms-\$1-knob\$2-label;
#X text 98 160 ms module in;
#X text 118 205 to specific module in ms;
#X text 163 289 From specific module in ms;
#X obj 38 177 f;
#X text 212 94 arg5: save slot #(start at 0);
#X obj 223 172 tabwrite \$1-save-the-knobz;
#X obj 240 129 t a b;
#X obj 306 140 f \$5;
#X obj 318 242 tabread \$1-save-the-knobz;
#X obj 319 216 f \$5;
#X obj 316 194 r \$1-read-the-knobz;
#X obj 238 325 r cgSc-1-mute-print;
#X obj 37 310 spigot 1;
#X obj 238 347 ==;
#X floatatom 254 382 5 0 0 0 - - -, f 5;
#X connect 0 0 17 0;
#X connect 0 0 20 0;
#X connect 1 0 0 1;
#X connect 2 0 0 1;
#X connect 8 0 26 0;
#X connect 9 0 10 0;
#X connect 9 1 2 0;
#X connect 10 0 17 0;
#X connect 10 1 1 0;
#X connect 11 0 0 0;
#X connect 12 0 9 0;
#X connect 17 0 7 0;
#X connect 20 0 19 0;
#X connect 20 1 21 0;
#X connect 21 0 19 1;
#X connect 22 0 17 0;
#X connect 23 0 22 0;
#X connect 24 0 23 0;
#X connect 25 0 27 0;
#X connect 26 0 13 0;
#X connect 27 0 26 1;
#X connect 27 0 28 0;
