#N canvas 957 276 622 451 10;
#X declare -path Sounds/s24-sounds;
#N canvas 14 50 608 463 array 0;
#X obj 60 225 soundfiler;
#N canvas 0 50 450 250 (subpatch) 0;
#X array wavs-array 88200 float 2;
#X coords 0 1 88200 -1 200 140 1 0 0;
#X restore 356 46 graph;
#X obj 60 89 loadbang;
#X msg 60 319 \; wavs-array normalize;
#X obj 89 297 s wavs-filesize;
#X obj 60 267 t b f;
#X msg 60 203 read -resize Sounds/WaveScanner-sound/wave-wavs.wav wavs-array
, f 63;
#X connect 0 0 5 0;
#X connect 2 0 6 0;
#X connect 5 0 3 0;
#X connect 5 1 4 0;
#X connect 6 0 0 0;
#X restore 14 19 pd array;
#N canvas 7 50 787 588 arrays 0;
#N canvas 0 50 450 300 (subpatch) 0;
#X array druma 44104 float 0;
#X coords 0 1.02 44103 -1.02 200 130 1 0 0;
#X restore 77 66 graph;
#N canvas 0 50 450 300 (subpatch) 0;
#X array drumb 44104 float 0;
#X coords 0 1.02 44103 -1.02 200 130 1 0 0;
#X restore 79 223 graph;
#N canvas 0 50 450 300 (subpatch) 0;
#X array drumc 44104 float 0;
#X coords 0 1.02 44103 -1.02 200 130 1 0 0;
#X restore 303 62 graph;
#N canvas 0 50 450 300 (subpatch) 0;
#X array drumd 44104 float 0;
#X coords 0 1.02 44103 -1.02 200 130 1 0 0;
#X restore 305 232 graph;
#X obj 107 382 loadbang;
#X obj 252 523 soundfiler;
#X msg 58 467 read ./a.wav druma;
#X msg 204 462 read ./b.wav drumb;
#X msg 373 461 read ./c.wav drumc;
#X msg 538 465 read ./d.wav drumd;
#X obj 107 403 t b b b b, f 66;
#X connect 4 0 10 0;
#X connect 6 0 5 0;
#X connect 7 0 5 0;
#X connect 8 0 5 0;
#X connect 9 0 5 0;
#X connect 10 0 6 0;
#X connect 10 1 7 0;
#X connect 10 2 8 0;
#X connect 10 3 9 0;
#X restore 22 82 pd arrays;
#X text 78 19 wave-wavs for wave scan;
#X text 96 78 4 arrays for tuned delay;
#N canvas 32 50 984 695 array 0;
#X obj 150 78 loadbang;
#X obj 150 227 soundfiler;
#N canvas 0 50 450 300 (subpatch) 0;
#X array bsamp-newsample 81791 float 0;
#X coords 0 1.02 81790 -1.02 200 130 1 0 0;
#X restore 382 297 graph;
#X text 111 45 load .wav into the table below;
#X obj 150 249 t b f;
#X msg 149 190 read -resize Sounds/BasicSampler-sound/wave-bsamp.wav
bsamp-newsample;
#X obj 182 276 s bsamp-dur;
#X msg 132 310 \; bsamp-newsample normalize 1;
#X connect 0 0 5 0;
#X connect 1 0 4 0;
#X connect 4 0 7 0;
#X connect 4 1 6 0;
#X connect 5 0 1 0;
#X restore 24 165 pd array;
#X text 91 158 array for basic sampler;
#X text 135 212 24 arrays for samplerStyle;
#N canvas 1126 428 412 316 load-sounds 0;
#X obj 158 6 declare -path Sounds/s24-sounds;
#X obj 38 51 load-24 1 s24;
#X obj 38 71 load-24 2 s24;
#X obj 38 91 load-24 3 s24;
#X obj 38 111 load-24 4 s24;
#X obj 38 131 load-24 5 s24;
#X obj 38 151 load-24 6 s24;
#X obj 39 171 load-24 7 s24;
#X obj 38 191 load-24 8 s24;
#X obj 38 211 load-24 9 s24;
#X obj 38 231 load-24 10 s24;
#X obj 38 251 load-24 11 s24;
#X obj 38 271 load-24 12 s24;
#X obj 201 273 load-24 24 s24;
#X obj 201 253 load-24 23 s24;
#X obj 200 233 load-24 22 s24;
#X obj 200 212 load-24 21 s24;
#X obj 200 193 load-24 20 s24;
#X obj 200 173 load-24 19 s24;
#X obj 198 151 load-24 18 s24;
#X obj 198 131 load-24 17 s24;
#X obj 198 111 load-24 16 s24;
#X obj 198 91 load-24 15 s24;
#X obj 198 71 load-24 14 s24;
#X obj 198 51 load-24 13 s24;
#X restore 32 221 pd load-sounds;
