#N canvas 83 50 1478 944 10;
#N canvas 670 69 450 300 press-n-hold 0;
#X obj 135 147 f;
#X obj 135 94 sel 1;
#X obj 120 54 t f f;
#X obj 135 173 sel 1;
#X obj 135 119 del 500;
#X obj 108 7 inlet;
#X obj 131 225 outlet;
#X text 184 17 aux button in;
#X text 200 213 bang if held for 1/2 second;
#X connect 0 0 3 0;
#X connect 1 0 4 0;
#X connect 2 0 1 0;
#X connect 2 1 0 1;
#X connect 3 0 6 0;
#X connect 4 0 0 0;
#X connect 5 0 2 0;
#X restore 954 161 pd press-n-hold;
#X text 126 519 check every quater note how many sounding;
#X msg 97 605 0;
#X obj 171 665 + 1;
#X obj 51 709 i, f 4;
#X obj 171 637 i 0;
#X obj 51 519 t b b b;
#X obj 991 765 delay 100;
#X obj 825 640 delay 100;
#X obj 906 632 sel 0 1 2 3;
#X obj 906 585 counter-up 4;
#X obj 781 718 delay 300;
#X obj 906 666 b;
#X obj 991 684 b;
#X obj 51 731 s pb-\$1-number-playing-local;
#X obj 74 550 s pb-\$1-are-you-playing, f 21;
#X obj 171 590 r pb-\$1-i-am-playing;
#X obj 954 214 s pb-\$1-cancel;
#X msg 813 693 1;
#X msg 781 742 0;
#X msg 825 663 0;
#X msg 882 727 6;
#X msg 991 788 0;
#X msg 1025 728 7;
#X obj 906 442 r master-ticks;
#X obj 781 535 r pb-\$1-cancel;
#X obj 906 552 sel 0;
#X obj 542 112 r pb-\$1-div;
#X obj 690 139 r pb-\$1-note-len;
#X obj 728 226 s pb-\$1-note-len-local;
#X obj 690 227 i;
#X obj 690 290 s pb-\$1-note-len-label;
#X obj 542 192 i;
#X msg 542 225 Division \$1;
#X obj 542 257 s pb-\$1-div-label;
#X obj 524 284 s pb-\$1-div-local;
#X msg 825 590 stop;
#X obj 906 466 spigot 0;
#X obj 944 297 r pb-\$1-notes-in;
#X obj 944 319 stripnote;
#X msg 944 367 1;
#X obj 781 566 t b b b, f 13;
#X msg 869 589 0;
#X obj 542 168 + 1;
#X obj 275 64 pb-notes 16 \$1;
#X obj 1120 105 r pb-\$1-vel;
#X obj 1120 131 * 127;
#X obj 1147 217 s pb-\$1-vel-local;
#X obj 1120 271 s pb-\$1-vel-label;
#X obj 1120 158 i;
#X msg 1120 238 Note Velocity \$1;
#X obj 690 193 + 10;
#X obj 911 389 tgl 15 0 empty empty empty 17 7 0 10 -262144 -1 -1 0
1;
#X obj 911 273 sel 1;
#N canvas 12 50 604 357 swing-sixteenths 0;
#X obj 162 54 inlet;
#X obj 161 128 sel 0 12;
#X obj 207 318 outlet;
#X obj 269 189 timer;
#X obj 338 40 t b f;
#X obj 438 175 * 100;
#X obj 457 98 / 4;
#X obj 412 103 f;
#X obj 356 200 sel 6 18;
#X obj 365 246 delay 0;
#X obj 465 41 inlet;
#X connect 0 0 1 0;
#X connect 0 0 8 0;
#X connect 1 0 2 0;
#X connect 1 0 3 0;
#X connect 1 1 2 0;
#X connect 1 1 3 1;
#X connect 3 0 4 0;
#X connect 4 0 7 0;
#X connect 4 1 6 0;
#X connect 5 0 9 1;
#X connect 6 0 5 1;
#X connect 7 0 5 0;
#X connect 8 0 9 0;
#X connect 8 1 9 0;
#X connect 9 0 2 0;
#X connect 10 0 7 1;
#X restore 446 557 pd swing-sixteenths;
#X obj 615 499 i;
#X obj 615 427 r pb-\$1-swing;
#X obj 615 552 s pb-\$1-swing-label;
#X obj 446 586 s pb-\$1-ticks;
#X msg 615 528 Swing \$1 %;
#X msg 23 765 [ \$1 ] Notes Latched;
#X obj 467 828 s led;
#X msg 467 805 0;
#X obj 435 751 sel 0 1, f 16;
#X obj 435 773 t b b;
#X obj 435 725 tgl 15 0 empty empty empty 17 7 0 10 -262144 -1 -1 1
1;
#X obj 485 696 r mseq-\$1-kill-switch;
#X obj 435 674 r pb-\$1-switch;
#X obj 489 778 s pb-\$1-enable;
#X obj 435 851 s pb-\$1-disable;
#X obj 615 470 * 100;
#X obj 781 590 t b b;
#X obj 51 496 spigot;
#X msg 109 468 0;
#X msg 90 373 1;
#X obj 109 448 t b b;
#X obj 109 426 r pb-\$1-disable;
#X obj 90 351 r pb-\$1-enable;
#X obj 90 395 t f f;
#X obj 911 34 r pb-\$1-aux-in;
#X obj 911 135 spigot;
#X msg 950 100 0;
#X msg 1064 80 1;
#X obj 950 80 t b b;
#X obj 950 58 r pb-\$1-disable;
#X obj 1064 58 r pb-\$1-enable;
#X obj 278 91 pb-notes 17 \$1;
#X obj 276 249 pb-notes 23 \$1;
#X obj 51 65 pb-notes 0 \$1;
#X obj 52 92 pb-notes 1 \$1;
#X obj 52 119 pb-notes 2 \$1;
#X obj 53 146 pb-notes 3 \$1;
#X obj 52 172 pb-notes 4 \$1;
#X obj 53 201 pb-notes 5 \$1;
#X obj 50 224 pb-notes 6 \$1;
#X obj 51 251 pb-notes 7 \$1;
#X obj 160 252 pb-notes 15 \$1;
#X obj 158 225 pb-notes 14 \$1;
#X obj 162 202 pb-notes 13 \$1;
#X obj 160 173 pb-notes 12 \$1;
#X obj 161 147 pb-notes 11 \$1;
#X obj 160 120 pb-notes 10 \$1;
#X obj 160 93 pb-notes 9 \$1;
#X obj 159 66 pb-notes 8 \$1;
#X obj 277 118 pb-notes 18 \$1;
#X obj 278 145 pb-notes 19 \$1;
#X obj 277 171 pb-notes 20 \$1;
#X obj 278 200 pb-notes 21 \$1;
#X obj 275 223 pb-notes 22 \$1;
#X obj 976 367 s pb-\$1-check-it;
#X obj 51 321 r pb-\$1-check-it;
#X obj 944 344 t b b;
#X obj 933 240 s pb-\$1-check-it;
#X obj 542 144 * 31;
#X obj 236 344 r page-ready;
#X obj 236 368 s pb-\$1-check-it;
#X text 333 344 when page changes print;
#X msg 939 886 0;
#X msg 1053 866 1;
#X obj 939 866 t b b;
#X obj 939 844 r pb-\$1-disable;
#X obj 1053 844 r pb-\$1-enable;
#X obj 880 943 s led;
#X obj 880 917 spigot 1;
#X obj 759 349 r pb-\$1-disable;
#X msg 759 371 0;
#X msg 690 256 Note Length \$1 ms;
#X obj 690 163 * 990;
#X obj 23 791 s pb-\$1-knob5-label;
#X obj 198 301 r pb-\$1-enable;
#X obj 198 323 del 100;
#X connect 0 0 17 0;
#X connect 0 0 112 0;
#X connect 2 0 5 1;
#X connect 2 0 4 1;
#X connect 3 0 5 1;
#X connect 3 0 4 1;
#X connect 4 0 14 0;
#X connect 4 0 60 0;
#X connect 5 0 3 0;
#X connect 6 0 4 0;
#X connect 6 1 15 0;
#X connect 6 2 2 0;
#X connect 7 0 22 0;
#X connect 8 0 20 0;
#X connect 9 0 12 0;
#X connect 9 1 13 0;
#X connect 9 2 13 0;
#X connect 9 3 13 0;
#X connect 10 0 9 0;
#X connect 11 0 19 0;
#X connect 12 0 8 0;
#X connect 12 0 21 0;
#X connect 13 0 7 0;
#X connect 13 0 23 0;
#X connect 16 0 5 0;
#X connect 18 0 123 0;
#X connect 19 0 123 0;
#X connect 20 0 123 0;
#X connect 21 0 123 0;
#X connect 22 0 123 0;
#X connect 23 0 123 0;
#X connect 24 0 37 0;
#X connect 25 0 41 0;
#X connect 26 0 10 0;
#X connect 27 0 113 0;
#X connect 28 0 127 0;
#X connect 30 0 126 0;
#X connect 32 0 33 0;
#X connect 32 0 35 0;
#X connect 33 0 34 0;
#X connect 36 0 8 0;
#X connect 36 0 7 0;
#X connect 37 0 26 0;
#X connect 37 0 54 0;
#X connect 38 0 39 0;
#X connect 39 0 111 0;
#X connect 40 0 52 0;
#X connect 41 0 71 0;
#X connect 41 1 36 0;
#X connect 41 2 42 0;
#X connect 42 0 37 1;
#X connect 43 0 32 0;
#X connect 45 0 46 0;
#X connect 46 0 49 0;
#X connect 49 0 50 0;
#X connect 49 0 47 0;
#X connect 50 0 48 0;
#X connect 51 0 30 0;
#X connect 51 0 29 0;
#X connect 52 0 37 1;
#X connect 53 0 52 0;
#X connect 54 0 58 0;
#X connect 55 0 59 0;
#X connect 56 0 54 1;
#X connect 56 0 70 0;
#X connect 59 0 57 0;
#X connect 60 0 128 0;
#X connect 62 0 61 0;
#X connect 63 0 64 0;
#X connect 63 1 68 0;
#X connect 64 0 69 0;
#X connect 64 1 62 0;
#X connect 65 0 63 0;
#X connect 66 0 65 0;
#X connect 67 0 65 0;
#X connect 70 0 55 0;
#X connect 71 0 11 0;
#X connect 71 1 18 0;
#X connect 72 0 6 0;
#X connect 73 0 72 1;
#X connect 74 0 78 0;
#X connect 75 0 73 0;
#X connect 76 0 75 0;
#X connect 77 0 74 0;
#X connect 78 0 72 1;
#X connect 79 0 80 0;
#X connect 80 0 53 0;
#X connect 80 0 0 0;
#X connect 81 0 80 1;
#X connect 82 0 80 1;
#X connect 83 0 81 0;
#X connect 84 0 83 0;
#X connect 85 0 82 0;
#X connect 110 0 72 0;
#X connect 111 0 40 0;
#X connect 111 1 109 0;
#X connect 113 0 43 0;
#X connect 114 0 115 0;
#X connect 117 0 123 1;
#X connect 118 0 123 1;
#X connect 119 0 117 0;
#X connect 120 0 119 0;
#X connect 121 0 118 0;
#X connect 123 0 122 0;
#X connect 124 0 125 0;
#X connect 125 0 52 0;
#X connect 126 0 31 0;
#X connect 127 0 51 0;
#X connect 129 0 130 0;
#X connect 130 0 115 0;
