#N canvas 356 106 1319 857 10;
#N canvas 670 133 1184 787 knobs 0;
#X restore 28 134 pd knobs;
#X obj 562 194 tgl 15 0 empty empty empty 17 7 0 10 -262144 -1 -1 1
1;
#X obj 523 415 spigot;
#X obj 594 318 bag;
#X obj 594 275 sel 0;
#X msg 594 295 flush;
#X obj 562 251 t f f;
#X obj 594 340 list append 0;
#X obj 594 362 route list;
#X obj 578 163 r ms-\$1-noteskill-switch;
#X obj 523 105 r ms-\$1-notes-in;
#X obj 562 130 r trans-\$1-notesswitch;
#X text 240 57 Global Transpose dummy;
#X obj 256 512 s trans-\$1-local;
#X obj 256 291 spigot 0;
#X obj 256 414 f;
#X obj 358 290 sel 1;
#X obj 728 207 r trans-\$1-switch;
#X obj 523 436 stripnote;
#X obj 216 253 r trans-\$1-transpose;
#X connect 1 0 6 0;
#X connect 1 0 14 1;
#X connect 1 0 16 0;
#X connect 2 0 18 0;
#X connect 3 0 7 0;
#X connect 4 0 5 0;
#X connect 5 0 3 0;
#X connect 6 0 2 1;
#X connect 6 1 4 0;
#X connect 7 0 8 0;
#X connect 8 0 2 0;
#X connect 9 0 1 0;
#X connect 10 0 2 0;
#X connect 10 0 3 0;
#X connect 11 0 1 0;
#X connect 14 0 15 0;
#X connect 15 0 13 0;
#X connect 16 0 15 0;
#X connect 19 0 15 0;
