#N canvas 85 50 1464 959 10;
#X obj 403 8 r notes;
#X obj 403 35 stripnote;
#X obj 403 109 % 24;
#X obj 403 86 abs;
#X obj 403 65 expr if ($f1 > 59 \, $f1 - 60 \, $f1 - 12);
#X obj 400 322 r sixteenths;
#X obj 420 536 counter-up 16, f 18;
#X obj 492 446 sel 1;
#X obj 313 90 r cancel;
#X msg 313 126 0;
#X obj 275 346 sel 1;
#X obj 275 375 s start-metro;
#X obj 583 380 i, f 11;
#X obj 583 401 sel 1;
#X obj 583 424 s i-am-playing;
#X obj 583 330 r are-you-playing, f 15;
#X obj 543 989 + 60;
#X obj 543 1015 noteout 1, f 19;
#X obj 743 446 s ppb-tracker;
#X obj 439 348 r pause;
#X obj 400 372 spigot;
#X obj 673 976 r midiCh;
#X obj 403 133 sel \$1;
#X obj 403 284 t f f f f, f 49;
#X obj 543 561 t b;
#X obj 543 587 f \$1;
#X obj 543 963 unpack 0 0;
#X text 975 884 ««« sample player is here;
#X obj 743 419 list prepend \$1;
#X obj 743 332 f;
#X obj 767 296 r segpow-reprint-voice;
#X obj 743 354 sel 0, f 8;
#X msg 743 376 0;
#X obj 796 374 t b;
#X obj 796 396 f, f 9;
#X obj 856 373 r \$0-velocity-local;
#X obj 548 189 r segpow-vel;
#X obj 502 213 f, f 7;
#X obj 502 245 s \$0-velocity-local;
#X obj 682 758 r segpow-length;
#X obj 458 708 r \$0-velocity-local;
#X obj 917 600 s ppb-saver;
#X obj 558 -22 r ppb-recall;
#X obj 558 1 route \$1;
#X obj 998 507 r \$0-velocity-local;
#X obj 971 484 r \$0-num-local;
#X obj 917 418 r saveState;
#X obj 917 440 \$1;
#X obj 246 277 s \$0-onOff-local;
#X obj 944 457 r \$0-onOff-local;
#X obj 727 189 r num-sixteenths;
#X obj 681 215 f, f 7;
#X obj 681 244 s \$0-num-local;
#X obj 403 238 t f f;
#X obj 502 133 sel 1, f 27;
#X obj 433 181 + 1;
#X obj 403 181 f 0;
#X obj 403 203 % 2;
#X obj 543 489 r \$0-num-local;
#X obj 558 23 unpack 0 0 0 0, f 28;
#X obj 917 573 pack 0 0 0 0 0;
#X obj 901 159 r master-count;
#X obj 870 202 f;
#X obj 502 155 t b b b, f 53;
#X obj 870 236 s \$0-count-local;
#X obj 1012 543 r \$0-count-local;
#X obj 162 440 r master-count;
#X obj 162 532 sel, f 15;
#X obj 162 586 t b b;
#X msg 240 572 0;
#X obj 162 564 spigot 1;
#X obj 162 492 spigot 0;
#X obj 516 327 t f f;
#X obj 278 461 f;
#X obj 492 490 t b b;
#X msg 512 511 1;
#X obj 278 486 sel 0;
#X obj 492 468 spigot 0;
#X msg 278 532 1;
#X obj 543 908 t a a, f 8;
#X obj 596 937 s segmenti-notes;
#X obj 529 739 r \$0-onOff-local;
#X obj 609 842 \$1;
#X obj 609 864 pack 0 0;
#X text 804 647 if already playing send out off note;
#X obj 529 761 sel 0;
#X obj 650 783 del 5;
#X obj 405 735 pack 0 0;
#X obj 609 812 t b b;
#X msg 649 836 0;
#X msg 685 647 stop;
#X obj 757 647 spigot;
#X obj 763 722 f;
#X obj 543 609 t f b b b b, f 31;
#X msg 596 633 1;
#X obj 420 448 spigot 0;
#X connect 0 0 1 0;
#X connect 1 0 4 0;
#X connect 2 0 22 0;
#X connect 3 0 2 0;
#X connect 4 0 3 0;
#X connect 5 0 20 0;
#X connect 6 1 24 0;
#X connect 7 0 77 0;
#X connect 8 0 9 0;
#X connect 9 0 56 0;
#X connect 10 0 11 0;
#X connect 12 0 13 0;
#X connect 13 0 14 0;
#X connect 15 0 12 0;
#X connect 16 0 17 0;
#X connect 19 0 20 1;
#X connect 20 0 95 0;
#X connect 21 0 17 2;
#X connect 22 0 56 0;
#X connect 23 0 10 0;
#X connect 23 1 72 0;
#X connect 23 2 12 1;
#X connect 23 3 29 0;
#X connect 24 0 25 0;
#X connect 25 0 93 0;
#X connect 26 0 16 0;
#X connect 26 1 17 1;
#X connect 28 0 18 0;
#X connect 29 0 31 0;
#X connect 30 0 29 0;
#X connect 31 0 32 0;
#X connect 31 1 33 0;
#X connect 32 0 28 0;
#X connect 33 0 34 0;
#X connect 34 0 28 0;
#X connect 35 0 34 1;
#X connect 36 0 37 1;
#X connect 37 0 38 0;
#X connect 39 0 86 1;
#X connect 40 0 87 1;
#X connect 42 0 43 0;
#X connect 43 0 59 0;
#X connect 44 0 60 3;
#X connect 45 0 60 2;
#X connect 46 0 47 0;
#X connect 47 0 60 0;
#X connect 49 0 60 1;
#X connect 50 0 51 1;
#X connect 51 0 52 0;
#X connect 53 0 23 0;
#X connect 53 1 54 0;
#X connect 54 0 63 0;
#X connect 55 0 56 1;
#X connect 56 0 55 0;
#X connect 56 0 57 0;
#X connect 57 0 48 0;
#X connect 57 0 53 0;
#X connect 58 0 6 2;
#X connect 59 0 56 0;
#X connect 59 0 73 0;
#X connect 59 1 51 1;
#X connect 59 2 37 1;
#X connect 59 3 67 1;
#X connect 60 0 41 0;
#X connect 61 0 62 1;
#X connect 62 0 64 0;
#X connect 63 0 37 0;
#X connect 63 1 51 0;
#X connect 63 2 62 0;
#X connect 65 0 60 4;
#X connect 66 0 71 0;
#X connect 67 0 70 0;
#X connect 68 0 6 1;
#X connect 68 1 69 0;
#X connect 69 0 70 1;
#X connect 69 0 71 1;
#X connect 70 0 68 0;
#X connect 71 0 67 0;
#X connect 72 0 95 1;
#X connect 72 1 7 0;
#X connect 73 0 71 1;
#X connect 73 0 76 0;
#X connect 74 0 6 1;
#X connect 74 1 75 0;
#X connect 75 0 77 1;
#X connect 76 0 78 0;
#X connect 77 0 74 0;
#X connect 78 0 77 1;
#X connect 79 0 26 0;
#X connect 79 1 80 0;
#X connect 81 0 85 0;
#X connect 82 0 83 0;
#X connect 83 0 79 0;
#X connect 85 0 88 0;
#X connect 86 0 88 0;
#X connect 87 0 79 0;
#X connect 88 0 82 0;
#X connect 88 1 89 0;
#X connect 89 0 92 0;
#X connect 90 0 86 0;
#X connect 91 0 88 0;
#X connect 92 0 91 1;
#X connect 93 0 87 0;
#X connect 93 1 94 0;
#X connect 93 2 86 0;
#X connect 93 3 90 0;
#X connect 93 4 91 0;
#X connect 94 0 92 0;
#X connect 95 0 6 0;
