#N canvas 256 120 701 492 10;
#X obj 127 184 moses 0.4, f 12;
#X obj 205 220 moses 0.6;
#X obj 127 276 * 1.25;
#X obj 265 294 * 1.25;
#X obj 205 271 bang;
#X msg 205 293 0.5;
#X obj 271 39 loadbang;
#X obj 211 115 * -1;
#X obj 211 137 + 0.5;
#X obj 341 130 + 0.5;
#X obj 127 422 outlet, f 7;
#X obj 127 93 inlet;
#X obj 271 71 f \$1;
#X floatatom 370 265 5 0 0 0 - - -, f 5;
#X obj 358 204 expr 1 / (1 - ($f1 * 2));
#X floatatom 367 169 5 0 0 0 - - -, f 5;
#X floatatom 258 149 5 0 0 0 - - -, f 5;
#X obj 265 256 - 0.6;
#X obj 257 336 + 0.5;
#X obj 201 419 outlet, f 7;
#X obj 292 422 outlet, f 7;
#X text 427 64 'lock' the knob in the center;
#X connect 0 0 2 0;
#X connect 0 1 1 0;
#X connect 1 0 4 0;
#X connect 1 1 17 0;
#X connect 2 0 10 0;
#X connect 3 0 18 0;
#X connect 4 0 5 0;
#X connect 5 0 19 0;
#X connect 6 0 12 0;
#X connect 7 0 8 0;
#X connect 8 0 0 1;
#X connect 9 0 1 1;
#X connect 9 0 15 0;
#X connect 9 0 17 1;
#X connect 11 0 0 0;
#X connect 12 0 7 0;
#X connect 12 0 9 0;
#X connect 12 0 14 0;
#X connect 12 0 16 0;
#X connect 14 0 3 1;
#X connect 14 0 2 1;
#X connect 14 0 13 0;
#X connect 17 0 3 0;
#X connect 18 0 20 0;
