#N canvas 45 153 1026 891 10;
#X obj 262 88 stripnote;
#X obj 262 88 stripnote;
#X obj 208 630 hip~ 5;
#X obj 207 567 line~;
#X msg 230 490 0;
#X obj 206 707 *~ 0.25;
#X obj 262 118 mtof;
#X obj 206 677 *~;
#X obj 207 737 *~ 1;
#X text 338 54 get yer notes;
#X obj 262 88 stripnote;
#X text 444 232 scale playback speed;
#X obj 262 56 inlet;
#X obj 205 771 outlet~;
#X obj 239 244 / 261.626;
#X obj 239 266 / 2;
#X obj 107 290 bng 15 250 50 0 empty empty empty 17 7 0 10 -262144
-1 -1;
#X obj 173 459 /;
#X obj 148 492 pack 0 0;
#X obj 244 362 * 1;
#X obj 147 431 / 44.1;
#X obj 145 330 f 88200;
#X obj 214 187 t b f b;
#X obj 111 389 t f f b b;
#X floatatom 414 386 5 0 0 0 - - -, f 5;
#X obj 373 629 vline~;
#X msg 366 511 0 2;
#X obj 153 239 delay 3;
#X msg 120 51 60;
#X obj 526 386 / 44.1;
#X floatatom 526 408 5 0 0 0 - - -, f 5;
#X floatatom 487 494 5 0 0 0 - - -, f 5;
#X obj 482 471 /;
#X obj 464 411 t b f;
#X obj 470 444 f;
#X obj 352 663 *~;
#N canvas 10 50 902 744 note-shape 0;
#X floatatom 394 295 5 0 0 0 - - -, f 5;
#X obj 378 262 * 1;
#X floatatom 431 370 5 0 0 0 - - -, f 5;
#X obj 381 316 t f f;
#X floatatom 411 435 5 0 0 0 - - -, f 5;
#X msg 277 535 \$1 \$2 \, 0 \$3 \$2;
#X obj 282 498 pack 1 0 0;
#X obj 405 404 -;
#X obj 426 340 * 0.5;
#X obj 339 130 inlet;
#X obj 207 79 inlet;
#X text 191 46 bang to go;
#X text 439 141 duration of max ( 0 - 1);
#X obj 644 187 inlet;
#X obj 467 161 inlet;
#X text 343 107 max duration in ms;
#X obj 426 210 f;
#X obj 566 243 f;
#X obj 340 190 f;
#X obj 219 120 t b b b b;
#X text 645 168 shape ( 0 - 1 );
#X text 287 46 comment;
#X obj 279 578 outlet;
#X text 339 575 to vline~;
#X obj 341 452 + 1;
#X obj 415 463 + 10;
#X connect 0 0 3 0;
#X connect 1 0 0 0;
#X connect 2 0 7 1;
#X connect 2 0 24 0;
#X connect 3 0 7 0;
#X connect 3 1 8 0;
#X connect 4 0 25 0;
#X connect 5 0 22 0;
#X connect 6 0 5 0;
#X connect 7 0 4 0;
#X connect 8 0 2 0;
#X connect 9 0 18 0;
#X connect 10 0 19 0;
#X connect 13 0 17 0;
#X connect 14 0 16 0;
#X connect 16 0 1 1;
#X connect 17 0 8 1;
#X connect 18 0 1 0;
#X connect 19 0 6 0;
#X connect 19 1 18 0;
#X connect 19 2 16 0;
#X connect 19 3 17 0;
#X connect 24 0 6 1;
#X connect 25 0 6 2;
#X restore 439 582 pd note-shape;
#X obj 396 243 / 100;
#X obj 396 265 mtof;
#X obj 396 287 / 8.1785;
#X obj 395 215 * 2400;
#X obj 541 510 r bs-\$1-env;
#X obj 562 538 r bs-\$1-dur;
#X obj 528 364 r bs-\$1-slen;
#X obj 396 193 r bs-\$1-detent-speed;
#X obj 207 602 tabread4~ bs-\$1-sample;
#X obj 146 287 r bs-\$1-slen;
#X connect 2 0 7 0;
#X connect 3 0 45 0;
#X connect 4 0 3 0;
#X connect 5 0 8 0;
#X connect 6 0 22 0;
#X connect 7 0 5 0;
#X connect 8 0 13 0;
#X connect 10 0 6 0;
#X connect 12 0 10 0;
#X connect 14 0 15 0;
#X connect 15 0 19 0;
#X connect 16 0 21 0;
#X connect 17 0 18 1;
#X connect 18 0 3 0;
#X connect 19 0 17 1;
#X connect 19 0 24 0;
#X connect 20 0 17 0;
#X connect 21 0 23 0;
#X connect 22 0 27 0;
#X connect 22 1 14 0;
#X connect 22 2 26 0;
#X connect 23 0 18 0;
#X connect 23 1 20 0;
#X connect 23 2 4 0;
#X connect 23 3 36 0;
#X connect 24 0 33 0;
#X connect 25 0 35 1;
#X connect 25 0 35 0;
#X connect 26 0 25 0;
#X connect 27 0 16 0;
#X connect 28 0 6 0;
#X connect 29 0 30 0;
#X connect 30 0 34 1;
#X connect 31 0 36 1;
#X connect 32 0 31 0;
#X connect 33 0 34 0;
#X connect 33 1 32 1;
#X connect 34 0 32 0;
#X connect 35 0 7 1;
#X connect 36 0 25 0;
#X connect 37 0 38 0;
#X connect 38 0 39 0;
#X connect 39 0 19 1;
#X connect 40 0 37 0;
#X connect 41 0 36 2;
#X connect 42 0 36 3;
#X connect 43 0 29 0;
#X connect 44 0 40 0;
#X connect 45 0 2 0;
#X connect 46 0 21 1;
