#N canvas 314 65 1447 902 10;
#X declare -path ./rj;
#X obj 1125 431 loadbang;
#X obj 875 200 master-metronome;
#X obj 875 165 tgl 15 0 empty empty empty 17 7 0 10 -262144 -1 -1 1
1;
#X obj 875 98 loadbang;
#X msg 875 130 1;
#X obj 984 136 * 250;
#X obj 984 164 + 10;
#X obj 1095 279 i;
#X obj 1095 301 change -1;
#X obj 830 244 i;
#X obj 830 266 change -1;
#X obj 77 229 s base-harmonic-freq;
#X obj 561 226 s decay;
#N canvas 7 50 703 371 24-pulses-to-phasor 0;
#X floatatom 160 65 5 0 0 0 - - -, f 5;
#X obj 127 173 timer;
#X obj 160 90 sel 0;
#X obj 160 118 t b b b;
#X msg 260 199 0;
#X floatatom 120 225 5 0 0 0 - - -, f 5;
#X obj 120 203 expr 1/($f1 / 1000);
#X obj 166 29 inlet;
#X obj 143 293 phasor~;
#X obj 143 333 outlet~;
#X obj 266 319 outlet;
#X obj 330 321 outlet;
#X text 300 112 input 24 pulses per quarter note count (0-23) \, output
a phasor \, frequency \, rollover.;
#X connect 0 0 2 0;
#X connect 1 0 6 0;
#X connect 2 0 3 0;
#X connect 3 0 1 0;
#X connect 3 1 1 1;
#X connect 3 2 4 0;
#X connect 4 0 8 1;
#X connect 4 0 11 0;
#X connect 5 0 8 0;
#X connect 5 0 10 0;
#X connect 6 0 5 0;
#X connect 7 0 0 0;
#X connect 8 0 9 0;
#X restore 1216 292 pd 24-pulses-to-phasor;
#X obj 1114 236 s~ base-rhythm-phasor;
#X obj 795 793 s rhythmicon-notes;
#X obj 43 56 r knob1;
#X obj 77 188 mtof;
#X obj 985 101 r knob2;
#X obj 562 89 r knob4;
#X obj 562 115 t f f;
#X obj 562 137 *;
#X obj 448 793 throw~ outL;
#X obj 335 785 throw~ outR;
#X obj 1115 202 phasor~;
#X obj 1114 51 r bpm;
#X floatatom 1114 74 5 0 0 0 - - -, f 5;
#X floatatom 1114 121 5 0 0 0 - - -, f 5;
#X obj 1114 96 / 240;
#X obj 873 406 r notes;
#X obj 873 428 unpack;
#X obj 851 459 moses 72;
#X obj 946 518 f;
#X obj 906 488 t f b;
#X obj 907 546 pack;
#X obj 857 490 t f b;
#X obj 865 543 pack;
#X obj 934 583 stripnote;
#X obj 934 612 s transpose;
#X obj 134 68 r transpose;
#X obj 75 133 f;
#X obj 120 109 t b f;
#X obj 75 157 +;
#X obj 115 136 - 72;
#X obj 431 734 e_circlepan;
#X obj 520 701 abs~;
#X obj 520 679 -~ 0.5;
#X text 524 739 circle them around constantly;
#X obj 876 576 r aux;
#X obj 876 598 sel 1;
#X obj 795 628 latch-notes2;
#X obj 320 734 e_circlepan;
#X obj 913 23 declare -path ./rj;
#X text 1059 23 include rjdj circular panner;
#X obj 44 583 catch~ voice-out-0;
#X obj 222 583 catch~ voice-out-1;
#X obj 409 590 r bpm;
#X obj 408 618 / 480;
#X text 470 613 keeps fundamental in center;
#X obj 561 165 * 2000;
#X obj 409 640 phasor~;
#X obj 180 652 *~ 0.2;
#X obj 280 651 *~ 0.2;
#X obj 395 156 sig~;
#X obj 395 178 lop~ 5;
#X obj 320 164 i;
#X obj 320 186 change -1;
#X obj 397 130 abs;
#X obj 396 241 s~ rolloff;
#X obj 397 108 - 1;
#X obj 375 80 r knob3;
#X obj 319 136 * 101;
#X msg 318 262 \; screenLine3 3: Brightness \$1 % \;;
#X msg 830 290 \; screenLine2 2: Tempo \$1 BPM MIDI \;;
#X msg 1095 325 \; screenLine2 2: Tempo \$1 BPM \;;
#X text 1232 273 cool but not used;
#X obj 622 193 i;
#X obj 622 215 change -1;
#X msg 622 237 \; screenLine4 4: Decay \$1 ms \;;
#X text 1015 56 tempo stuff;
#X text 818 378 notes \, split keyboard;
#X msg 831 663 \; led 3;
#X msg 881 663 \; led 0;
#X msg 1125 462 \; screenLine1 1: Base Freq \; screenLine2 2: Tempo
\; screenLine3 3: Brigtness \; screenLine4 4: Decay \; screenLine5
Aux: Release Latch \;;
#X text 506 20 Rhythmicon with transpose and panning;
#X obj 19 231 i;
#X obj 19 253 change -1;
#X obj 43 100 + 24;
#X msg 18 279 \; screenLine1 1: Base Freq \$1 Hz \;;
#X obj 43 78 * 24;
#N canvas 4 50 450 300 once 0;
#X obj 179 28 inlet;
#X msg 138 64 0;
#X obj 38 21 inlet;
#X obj 59 142 i 0;
#X obj 117 142 + 1;
#X obj 46 68 bang;
#X obj 58 184 sel 0;
#X obj 52 254 outlet;
#X connect 0 0 1 0;
#X connect 1 0 3 1;
#X connect 2 0 5 0;
#X connect 3 0 4 0;
#X connect 3 0 6 0;
#X connect 4 0 3 1;
#X connect 5 0 3 0;
#X connect 6 0 7 0;
#X restore 853 714 pd once;
#X obj 801 672 bng 15 250 50 0 empty empty empty 17 7 0 10 -262144
-1 -1;
#X obj 962 671 bng 15 250 50 0 empty empty empty 17 7 0 10 -262144
-1 -1;
#X obj 876 747 bng 15 250 50 0 empty empty empty 17 7 0 10 -262144
-1 -1;
#X obj 876 770 s reset-phase;
#X msg 1213 144 0;
#X obj 1182 76 r reset-phase;
#X obj 53 378 rhythmicon-voice 1 60;
#X msg 1323 128 0, f 2;
#X obj 1114 140 f;
#X obj 1114 168 spigot;
#X obj 930 719 s stop-phasor;
#X msg 1181 135 1;
#X obj 1286 77 r stop-phasor;
#X obj 1291 104 t b b;
#X msg 1291 129 0, f 2;
#X obj 1182 104 t b b b;
#X obj 215 380 rhythmicon-voice 7 66;
#X obj 51 431 rhythmicon-voice 3 62;
#X obj 561 508 rhythmicon-voice 24 83;
#X obj 51 510 rhythmicon-voice 6 65;
#X obj 52 403 rhythmicon-voice 2 61;
#X obj 50 456 rhythmicon-voice 4 63;
#X obj 52 485 rhythmicon-voice 5 64;
#X obj 214 405 rhythmicon-voice 8 67;
#X obj 213 433 rhythmicon-voice 9 68;
#X obj 212 458 rhythmicon-voice 10 69;
#X obj 214 487 rhythmicon-voice 11 70;
#X obj 213 512 rhythmicon-voice 12 71;
#X obj 380 377 rhythmicon-voice 13 72;
#X obj 379 402 rhythmicon-voice 14 73;
#X obj 378 430 rhythmicon-voice 15 74;
#X obj 377 455 rhythmicon-voice 16 75;
#X obj 379 484 rhythmicon-voice 17 76;
#X obj 378 509 rhythmicon-voice 18 77;
#X obj 563 376 rhythmicon-voice 19 78;
#X obj 562 401 rhythmicon-voice 20 79;
#X obj 561 429 rhythmicon-voice 21 80;
#X obj 560 454 rhythmicon-voice 22 81;
#X obj 562 483 rhythmicon-voice 23 82;
#X obj 1212 719 s midiOutGate;
#X obj 1212 661 loadbang;
#X msg 1212 690 0;
#X text 1260 688 don't send key presses;
#X obj 1071 617 r~ base-rhythm-phasor;
#X obj 1071 642 phasebang 4;
#X obj 1071 666 bng 15 250 50 0 empty empty empty 17 7 0 10 -262144
-1 -1;
#X obj 1092 709 bng 15 250 50 0 empty empty empty 17 7 0 10 -262144
-1 -1;
#X msg 1126 748 \; led 7;
#X msg 1050 777 \; led 0;
#X obj 1050 754 delay 100;
#X connect 0 0 83 0;
#X connect 1 0 9 0;
#X connect 1 1 7 0;
#X connect 2 0 1 0;
#X connect 3 0 4 0;
#X connect 4 0 2 0;
#X connect 5 0 6 0;
#X connect 6 0 1 1;
#X connect 7 0 8 0;
#X connect 8 0 74 0;
#X connect 9 0 10 0;
#X connect 10 0 73 0;
#X connect 16 0 89 0;
#X connect 17 0 11 0;
#X connect 17 0 85 0;
#X connect 18 0 5 0;
#X connect 19 0 20 0;
#X connect 20 0 21 0;
#X connect 20 1 21 1;
#X connect 21 0 59 0;
#X connect 24 0 14 0;
#X connect 25 0 26 0;
#X connect 26 0 28 0;
#X connect 27 0 99 0;
#X connect 28 0 27 0;
#X connect 29 0 30 0;
#X connect 30 0 31 0;
#X connect 30 1 32 1;
#X connect 31 0 35 0;
#X connect 31 1 33 0;
#X connect 32 0 34 1;
#X connect 32 0 36 1;
#X connect 33 0 34 0;
#X connect 33 1 32 0;
#X connect 34 0 37 0;
#X connect 35 0 36 0;
#X connect 35 1 32 0;
#X connect 36 0 50 0;
#X connect 37 0 38 0;
#X connect 39 0 41 0;
#X connect 40 0 42 0;
#X connect 41 0 40 0;
#X connect 41 1 43 0;
#X connect 42 0 17 0;
#X connect 43 0 42 1;
#X connect 44 0 23 0;
#X connect 44 1 22 0;
#X connect 45 0 44 1;
#X connect 46 0 45 0;
#X connect 48 0 49 0;
#X connect 49 0 50 1;
#X connect 50 0 15 0;
#X connect 50 1 91 0;
#X connect 50 2 82 0;
#X connect 50 2 92 0;
#X connect 51 0 23 0;
#X connect 51 1 22 0;
#X connect 54 0 61 0;
#X connect 55 0 62 0;
#X connect 56 0 57 0;
#X connect 57 0 60 0;
#X connect 59 0 76 0;
#X connect 59 0 12 0;
#X connect 60 0 51 1;
#X connect 60 0 46 0;
#X connect 61 0 51 0;
#X connect 62 0 44 0;
#X connect 63 0 64 0;
#X connect 64 0 68 0;
#X connect 65 0 66 0;
#X connect 66 0 72 0;
#X connect 67 0 63 0;
#X connect 69 0 67 0;
#X connect 70 0 69 0;
#X connect 70 0 71 0;
#X connect 71 0 65 0;
#X connect 76 0 77 0;
#X connect 77 0 78 0;
#X connect 85 0 86 0;
#X connect 86 0 88 0;
#X connect 87 0 40 0;
#X connect 89 0 87 0;
#X connect 90 0 93 0;
#X connect 91 0 90 0;
#X connect 92 0 90 1;
#X connect 92 0 101 0;
#X connect 93 0 94 0;
#X connect 95 0 24 1;
#X connect 96 0 106 0;
#X connect 98 0 100 1;
#X connect 99 0 100 0;
#X connect 100 0 24 0;
#X connect 102 0 100 1;
#X connect 103 0 104 0;
#X connect 104 0 105 0;
#X connect 104 1 98 0;
#X connect 105 0 24 0;
#X connect 106 0 99 0;
#X connect 106 1 102 0;
#X connect 106 2 95 0;
#X connect 131 0 132 0;
#X connect 132 0 130 0;
#X connect 134 0 135 0;
#X connect 135 0 136 0;
#X connect 136 0 137 0;
#X connect 137 0 138 0;
#X connect 137 0 140 0;
#X connect 140 0 139 0;
