#N canvas 4 50 1358 682 10;
#X declare -path cg-pd-library-local/sampling;
#X declare -path cg-pd-library-local/sequencer;
#X declare -path cg-pd-library-local/externals;
#X declare -path cg-pd-library-local/metronome;
#X obj 33 682 throw~ outL;
#X obj 53 661 throw~ outR;
#X obj 766 395 i;
#X obj 911 358 i;
#X obj 1078 442 i;
#X obj 535 178 r knob1;
#X obj 563 478 s screenLine1;
#X obj 713 162 r knob2;
#X obj 766 477 s screenLine2;
#X obj 876 124 r knob3;
#X obj 911 433 s screenLine3;
#X obj 1078 514 s screenLine4;
#X obj 1045 209 r knob4;
#X obj 53 617 *~ 1;
#X obj 563 400 i;
#X obj 226 365 s led;
#X obj 226 342 r seq3-1-led;
#X obj 563 422 shortcut-mute-f 1;
#X obj 766 420 shortcut-mute-f 1;
#X obj 911 379 shortcut-mute-f 1;
#X obj 1078 463 shortcut-mute-f 1;
#N canvas 787 330 860 595 slot-saver-1 0;
#X obj 167 38 r cgSc-1-slots;
#X obj 30 68 loadbang;
#X msg 30 140 0;
#X obj 30 161 tabread \$0-slot;
#X obj 199 225 array define \$0-slot;
#X obj 30 110 t b b;
#X msg 199 138 read slot.txt;
#X msg 243 186 write slot.txt;
#X obj 243 160 r saveState;
#X obj 167 58 t a b;
#X msg 220 84 0;
#X obj 167 107 tabwrite \$0-slot;
#X obj 30 185 s cgSc-1-slots;
#X connect 0 0 9 0;
#X connect 1 0 5 0;
#X connect 2 0 3 0;
#X connect 3 0 12 0;
#X connect 5 0 2 0;
#X connect 5 1 6 0;
#X connect 6 0 4 0;
#X connect 7 0 4 0;
#X connect 8 0 7 0;
#X connect 9 0 11 0;
#X connect 9 1 10 0;
#X connect 10 0 11 1;
#X restore 225 308 pd slot-saver-1;
#N canvas 652 50 1057 799 metro-here 0;
#X obj 622 370 r seq3-1-actions;
#X obj 565 548 f;
#X msg 660 453 0;
#X obj 692 453 t b b;
#X msg 698 483 1;
#X obj 660 425 sel 1;
#X obj 565 495 del 1;
#X obj 307 506 s beat-clock;
#X obj 374 243 loadbang;
#X msg 306 324 1;
#X obj 456 556 list, f 7;
#X obj 456 578 route 69;
#X obj 456 484 t b a;
#X msg 456 526 69;
#X msg 374 265 120;
#X obj 430 424 pack, f 10;
#X obj 465 392 t b a;
#X obj 307 354 metronome360 0, f 18;
#X obj 572 340 s seq3-1-quan;
#X obj 653 541 f;
#X obj 456 600 spigot 1;
#X obj 565 570 spigot 1, f 14;
#X obj 549 675 r cgSc-1-slots;
#X obj 549 701 + 1;
#X obj 456 755 print-line5 1, f 16;
#X obj 572 311 r metro-state;
#X obj 739 549 loadbang;
#X obj 549 722 f;
#X obj 739 591 t b b;
#X obj 565 631 f;
#X obj 739 570 del 1;
#X obj 660 402 r cgSc-1-mute-print;
#X connect 0 0 1 0;
#X connect 1 0 21 0;
#X connect 2 0 19 0;
#X connect 3 0 6 0;
#X connect 3 1 4 0;
#X connect 4 0 19 0;
#X connect 5 0 2 0;
#X connect 5 1 3 0;
#X connect 6 0 1 0;
#X connect 6 0 13 0;
#X connect 8 0 14 0;
#X connect 8 0 9 0;
#X connect 9 0 17 0;
#X connect 10 0 11 0;
#X connect 11 0 20 0;
#X connect 12 0 13 0;
#X connect 12 1 10 1;
#X connect 13 0 10 0;
#X connect 14 0 17 1;
#X connect 15 0 12 0;
#X connect 16 0 15 0;
#X connect 16 1 15 1;
#X connect 17 0 7 0;
#X connect 17 1 16 0;
#X connect 17 2 15 0;
#X connect 19 0 20 1;
#X connect 19 0 21 1;
#X connect 20 0 24 0;
#X connect 21 0 29 0;
#X connect 22 0 23 0;
#X connect 23 0 27 0;
#X connect 25 0 18 0;
#X connect 26 0 30 0;
#X connect 27 0 24 2;
#X connect 28 0 29 0;
#X connect 28 1 27 0;
#X connect 29 0 24 1;
#X connect 30 0 28 0;
#X connect 31 0 5 0;
#X restore 224 268 pd metro-here;
#X obj 54 582 strings, f 199;
#X obj 535 266 t f f;
#X obj 535 292 *, f 5;
#X obj 535 331 * 3000;
#X msg 563 452 1: Attack \$1 ms;
#X obj 700 282 t f f;
#X obj 699 320 *;
#X obj 699 347 * 3000;
#X obj 1061 283 t f f;
#X obj 1060 321 *;
#X obj 1060 348 * 3000;
#X msg 910 408 3: Sustain \$1 dB;
#N canvas 13 50 450 300 cg-pd-library-local 0;
#X obj 502 35 r cgSc-1-slots;
#X obj 60 68 declare -path cg-pd-library-local/sampling;
#X obj 60 98 declare -path cg-pd-library-local/sequencer;
#X obj 58 130 declare -path cg-pd-library-local/externals;
#X obj 59 165 declare -path cg-pd-library-local/metronome;
#X restore 225 206 pd cg-pd-library-local;
#X obj 28 19 r aux;
#X obj 94 169 r cgSc-1-slots;
#X obj 145 19 r \$0-reprint-port;
#X obj 127 193 r beat-clock;
#N canvas 100 50 1124 682 seq3-5option-control 0;
#X obj 139 278 outlet;
#X obj 65 121 t b;
#X msg 65 143 2;
#X obj 802 106 t b;
#X text 437 5 when aux is pressed after recording starts immediatley
end the rec and play the loop;
#X obj 170 70 sel 0;
#X obj 202 94 t b;
#X msg 202 116 1;
#X obj 33 66 r cgSc-1-2;
#X obj 171 48 r cgSc-1-1;
#X obj 33 88 sel 0;
#X obj 775 85 sel 0;
#X obj 317 272 r seq3-1-actions;
#X obj 317 294 sel 1, f 12;
#X obj 398 327 t b, f 4;
#X obj 317 445 s cgSc-1-1label;
#X obj 507 308 r seq3-1-actions;
#X obj 588 353 t b, f 4;
#X obj 507 329 sel 2 3, f 12;
#X obj 978 320 t b, f 4;
#X msg 978 355 Latch:Off;
#X msg 896 355 Latch:On;
#X obj 507 441 s cgSc-1-2label;
#X text 521 279 print to the shortcut menu;
#X obj 378 141 f 0;
#X obj 130 0 r midi-start;
#X msg 130 22 4;
#X obj 373 105 r midi-stop;
#X obj 507 125 t b;
#X obj 475 98 sel 0;
#X msg 507 147 5;
#X obj 192 487 r seq3-1-actions;
#X obj 273 532 t b, f 4;
#X obj 192 508 sel 5, f 12;
#X obj 317 373 f;
#X msg 317 403 \$1Seq:Stop;
#X obj 398 372 f;
#X msg 398 402 \$1Seq:Play;
#X msg 507 399 \$1Rec:Armd;
#X msg 588 397 \$1Rec:On;
#X msg 659 398 \$1Rec:Off;
#X obj 507 374 f;
#X obj 582 373 f;
#X obj 649 370 f;
#X obj 273 554 f;
#X obj 192 560 f;
#X msg 192 607 \$1Dub:On;
#X obj 201 286 r cgSc-1-slots;
#X obj 201 329 t b f f;
#X obj 166 439 s seq3-1-actions;
#X obj 166 415 v seq3-1-state;
#X obj 201 309 + 1;
#X obj 668 299 + 1;
#X obj 668 251 r cgSc-1-slots;
#X obj 321 507 + 1;
#X obj 321 483 r cgSc-1-slots;
#X obj 559 76 sel 1;
#X obj 612 80 r seq3-1-actions;
#X obj 559 174 t b b;
#X msg 640 152 0;
#X obj 559 152 spigot 0;
#X msg 612 129 1;
#X msg 559 196 1;
#X obj 192 650 s cgSc-1-3label;
#X obj 475 71 r cgSc-1-3;
#X obj 559 52 r cgSc-1-aux;
#X obj 896 398 s cgSc-1-5label;
#X obj 776 58 r cgSc-1-5;
#X obj 358 53 t b;
#X obj 326 26 sel 0;
#X obj 326 2 r cgSc-1-4;
#X msg 358 75 6;
#X obj 465 480 r seq3-1-actions;
#X obj 507 558 f;
#X obj 584 501 + 1;
#X obj 584 477 r cgSc-1-slots;
#X obj 465 643 s cgSc-1-4label;
#X obj 612 104 sel 3, f 12;
#X msg 273 607 \$1Dub:Off;
#X obj 465 501 sel 6, f 10;
#X obj 532 526 t b;
#X obj 465 585 spigot 1;
#X obj 552 582 spigot 0;
#X obj 675 510 r seq3-1-actions;
#X obj 675 532 sel 3;
#X obj 591 537 ==;
#X obj 637 564 f;
#X msg 637 533 1;
#X msg 708 615 0;
#X msg 552 607 \$1:Undo;
#X msg 465 610 \$1:Undid;
#X obj 465 523 t b b;
#X obj 31 189 loadbang;
#X msg 70 229 0;
#X obj 23 341 r init-1-slot;
#X obj 23 363 s cgSc-1-slots;
#X obj 896 255 r seq3-1-togLatch;
#X obj 896 296 sel 1, f 12;
#X obj 104 167 r kill-seq;
#X msg 802 193 3 \$1;
#X obj 844 157 + 1;
#X obj 844 178 == 1;
#X obj 802 157 f 1;
#X obj 855 114 r seq3-latch-control;
#X obj 1045 290 loadbang;
#X connect 1 0 2 0;
#X connect 2 0 0 0;
#X connect 3 0 102 0;
#X connect 5 1 6 0;
#X connect 6 0 7 0;
#X connect 7 0 0 0;
#X connect 8 0 10 0;
#X connect 9 0 5 0;
#X connect 10 1 1 0;
#X connect 11 1 3 0;
#X connect 12 0 13 0;
#X connect 13 0 34 0;
#X connect 13 1 14 0;
#X connect 14 0 36 0;
#X connect 16 0 18 0;
#X connect 17 0 43 0;
#X connect 18 0 41 0;
#X connect 18 1 42 0;
#X connect 18 2 17 0;
#X connect 19 0 20 0;
#X connect 20 0 66 0;
#X connect 21 0 66 0;
#X connect 24 0 0 0;
#X connect 25 0 26 0;
#X connect 26 0 0 0;
#X connect 27 0 24 0;
#X connect 28 0 30 0;
#X connect 29 1 28 0;
#X connect 30 0 0 0;
#X connect 31 0 33 0;
#X connect 32 0 44 0;
#X connect 33 0 45 0;
#X connect 33 1 32 0;
#X connect 34 0 35 0;
#X connect 35 0 15 0;
#X connect 36 0 37 0;
#X connect 37 0 15 0;
#X connect 38 0 22 0;
#X connect 39 0 22 0;
#X connect 40 0 22 0;
#X connect 41 0 38 0;
#X connect 42 0 39 0;
#X connect 43 0 40 0;
#X connect 44 0 78 0;
#X connect 45 0 46 0;
#X connect 46 0 63 0;
#X connect 47 0 51 0;
#X connect 48 0 50 0;
#X connect 48 1 34 1;
#X connect 48 2 36 1;
#X connect 50 0 49 0;
#X connect 51 0 48 0;
#X connect 52 0 43 1;
#X connect 52 0 42 1;
#X connect 52 0 41 1;
#X connect 53 0 52 0;
#X connect 54 0 44 1;
#X connect 54 0 45 1;
#X connect 55 0 54 0;
#X connect 56 0 60 0;
#X connect 57 0 77 0;
#X connect 58 0 62 0;
#X connect 58 1 59 0;
#X connect 59 0 60 1;
#X connect 60 0 58 0;
#X connect 61 0 60 1;
#X connect 62 0 0 0;
#X connect 64 0 29 0;
#X connect 65 0 56 0;
#X connect 67 0 11 0;
#X connect 68 0 71 0;
#X connect 69 1 68 0;
#X connect 70 0 69 0;
#X connect 71 0 0 0;
#X connect 72 0 79 0;
#X connect 73 0 81 0;
#X connect 73 0 82 0;
#X connect 74 0 73 1;
#X connect 75 0 74 0;
#X connect 77 0 61 0;
#X connect 78 0 63 0;
#X connect 79 0 91 0;
#X connect 79 1 80 0;
#X connect 80 0 73 0;
#X connect 81 0 90 0;
#X connect 82 0 89 0;
#X connect 83 0 84 0;
#X connect 84 0 87 0;
#X connect 85 0 81 1;
#X connect 86 0 85 0;
#X connect 86 0 82 1;
#X connect 87 0 86 0;
#X connect 88 0 86 0;
#X connect 89 0 76 0;
#X connect 90 0 76 0;
#X connect 91 0 73 0;
#X connect 91 1 88 0;
#X connect 92 0 93 0;
#X connect 93 0 0 0;
#X connect 94 0 95 0;
#X connect 96 0 97 0;
#X connect 97 0 21 0;
#X connect 97 1 19 0;
#X connect 98 0 93 0;
#X connect 99 0 0 0;
#X connect 100 0 101 0;
#X connect 101 0 102 1;
#X connect 102 0 100 0;
#X connect 102 0 99 0;
#X connect 103 0 102 0;
#X connect 104 0 20 0;
#X restore 61 148 pd seq3-5option-control;
#X obj 28 218 seq3 1 0 ../../sequences 1 0 1, f 17;
#X obj 28 49 cg-shortcut 1 1, f 20;
#N canvas 4 50 1495 708 the-knobs 0;
#X obj 280 211 r knob1;
#X obj 414 205 r knob2;
#X obj 532 208 r knob3;
#X obj 673 208 r knob4;
#X obj 503 439 outlet;
#X obj 221 295 seq-format-event knob1;
#X obj 401 293 seq-format-event knob2;
#X obj 566 292 seq-format-event knob3;
#X obj 747 289 seq-format-event knob4;
#X connect 0 0 5 0;
#X connect 1 0 6 0;
#X connect 2 0 7 0;
#X connect 3 0 8 0;
#X connect 5 0 4 0;
#X connect 6 0 4 0;
#X connect 7 0 4 0;
#X connect 8 0 4 0;
#X restore 46 124 pd the-knobs;
#X obj 28 78 list prepend notes;
#X obj 28 99 list trim;
#N canvas 10 50 1276 866 auto-knobs-notes-through 0;
#X obj 438 185 inlet;
#X obj 852 503 outlet;
#X obj 562 398 s seq3-k3;
#X obj 537 440 s seq3-k2;
#X obj 435 470 s seq3-k1;
#X obj 663 357 s seq3-k4;
#X obj 435 295 route knob1 knob2 knob3 knob4 notes, f 64;
#X connect 0 0 6 0;
#X connect 6 0 4 0;
#X connect 6 1 3 0;
#X connect 6 2 2 0;
#X connect 6 3 5 0;
#X connect 6 4 1 0;
#X restore 28 268 pd auto-knobs-notes-through;
#X obj 558 205 r seq3-k1;
#X obj 733 193 r seq3-k2;
#X obj 895 154 r seq3-k3;
#X obj 1069 241 r seq3-k4;
#N canvas 4 50 1560 733 shortcuts 0;
#X obj 198 130 sel 0;
#X obj 225 152 t b;
#X obj 288 126 sel 0;
#X obj 315 148 t b;
#X obj 359 361 s transpose;
#X obj 339 242 + 1;
#X obj 225 216 t b a, f 22;
#X msg 225 177 -1;
#X msg 315 168 1;
#X obj 339 263 clip -4 4;
#X obj 225 240 f 0, f 11;
#X msg 417 444 +\$1;
#X obj 417 470 symbol;
#X msg 485 550 OctUp: \$1;
#X msg 379 549 OctDwn: \$1;
#X obj 379 510 t a a;
#X obj 339 397 moses 0;
#X obj 378 418 moses 1;
#X obj 359 338 * 12;
#X obj 339 284 t a a;
#X obj 198 109 r cgSc-1-6;
#X obj 288 105 r cgSc-1-7;
#X obj 380 584 s cgSc-1-6label;
#X obj 485 580 s cgSc-1-7label;
#X obj 668 134 r saveState;
#X obj 641 417 text define waves-txt;
#X obj 640 83 r load-text-files;
#X obj 902 347 text set waves-txt;
#X obj 907 186 r transpose;
#X obj 892 208 f;
#X obj 396 109 r recall-params;
#X obj 396 160 text get waves-txt;
#X obj 892 230 / 12;
#X obj 902 266 i;
#X obj 396 130 f 0;
#X obj 668 163 t b b, f 38;
#X obj 900 293 pack 0 0;
#X obj 902 323 unpack;
#X msg 640 108 read trnsp.txt;
#X msg 668 376 write trnsp.txt;
#X connect 0 1 1 0;
#X connect 1 0 7 0;
#X connect 2 1 3 0;
#X connect 3 0 8 0;
#X connect 5 0 9 0;
#X connect 6 0 10 0;
#X connect 6 1 5 1;
#X connect 7 0 6 0;
#X connect 8 0 6 0;
#X connect 9 0 10 1;
#X connect 9 0 19 0;
#X connect 10 0 5 0;
#X connect 11 0 12 0;
#X connect 12 0 15 0;
#X connect 13 0 23 0;
#X connect 14 0 22 0;
#X connect 15 0 14 0;
#X connect 15 1 13 0;
#X connect 16 0 15 0;
#X connect 16 1 17 0;
#X connect 17 0 15 0;
#X connect 17 1 11 0;
#X connect 18 0 4 0;
#X connect 19 0 16 0;
#X connect 19 1 18 0;
#X connect 20 0 0 0;
#X connect 21 0 2 0;
#X connect 24 0 35 0;
#X connect 26 0 38 0;
#X connect 28 0 29 1;
#X connect 29 0 32 0;
#X connect 30 0 34 0;
#X connect 31 0 6 0;
#X connect 32 0 33 0;
#X connect 33 0 36 0;
#X connect 34 0 31 0;
#X connect 35 0 39 0;
#X connect 35 1 29 0;
#X connect 36 0 37 0;
#X connect 37 0 27 0;
#X connect 37 1 27 1;
#X connect 38 0 25 0;
#X connect 39 0 25 0;
#X restore 355 117 pd shortcuts;
#N canvas 4 50 450 300 init 0;
#X obj 53 23 loadbang;
#X obj 53 44 t b b b;
#X obj 104 128 s recall-params;
#X obj 103 91 s load-text-files;
#X connect 0 0 1 0;
#X connect 1 1 2 0;
#X connect 1 2 3 0;
#X restore 340 43 pd init;
#X obj 876 205 swap 1;
#X obj 876 226 -;
#X obj 876 247 * 24;
#X obj 876 268 * -1;
#X obj 876 289 t a a;
#X obj 699 368 t a a;
#X obj 535 352 t a a;
#X obj 1060 369 t a a;
#X obj 1259 526 r transpose;
#X msg 766 452 2: Decay \$1 ms;
#X msg 1078 490 4: Release \$1 ms;
#X connect 2 0 18 0;
#X connect 3 0 19 0;
#X connect 4 0 20 0;
#X connect 5 0 24 0;
#X connect 7 0 28 0;
#X connect 9 0 53 0;
#X connect 12 0 31 0;
#X connect 13 0 1 0;
#X connect 13 0 0 0;
#X connect 14 0 17 0;
#X connect 16 0 15 0;
#X connect 17 0 27 0;
#X connect 18 0 62 0;
#X connect 19 0 34 0;
#X connect 20 0 63 0;
#X connect 23 0 13 0;
#X connect 24 0 25 0;
#X connect 24 1 25 1;
#X connect 25 0 26 0;
#X connect 26 0 59 0;
#X connect 27 0 6 0;
#X connect 28 0 29 0;
#X connect 28 1 29 1;
#X connect 29 0 30 0;
#X connect 30 0 58 0;
#X connect 31 0 32 0;
#X connect 31 1 32 1;
#X connect 32 0 33 0;
#X connect 33 0 60 0;
#X connect 34 0 10 0;
#X connect 36 0 42 0;
#X connect 37 0 41 2;
#X connect 38 0 42 1;
#X connect 39 0 41 3;
#X connect 40 0 41 1;
#X connect 41 0 46 0;
#X connect 42 0 44 0;
#X connect 43 0 41 0;
#X connect 44 0 45 0;
#X connect 45 0 41 0;
#X connect 46 0 23 0;
#X connect 47 0 24 0;
#X connect 48 0 28 0;
#X connect 49 0 53 0;
#X connect 50 0 31 0;
#X connect 53 0 54 0;
#X connect 53 1 54 1;
#X connect 54 0 55 0;
#X connect 55 0 56 0;
#X connect 56 0 57 0;
#X connect 57 0 23 3;
#X connect 57 1 3 0;
#X connect 58 0 23 2;
#X connect 58 1 2 0;
#X connect 59 0 23 1;
#X connect 59 1 14 0;
#X connect 60 0 23 4;
#X connect 60 1 4 0;
#X connect 61 0 23 5;
#X connect 62 0 8 0;
#X connect 63 0 11 0;
