#N canvas 279 50 1427 889 10;
#X obj 285 461 r~ inL;
#X obj 397 461 r~ inR;
#X obj 860 716 throw~ outL;
#X obj 967 719 throw~ outR;
#X obj 37 312 s screenLine1;
#X obj 39 197 FX-13 1;
#X obj 1127 594 r~ fx13-1-outR;
#X obj 1020 594 r~ fx13-1-outL;
#X obj 37 258 r fx13-1-knob1-label;
#X obj 38 347 r fx13-1-knob2-label;
#X obj 38 444 r fx13-1-knob3-label;
#X obj 38 539 r fx13-1-knob4-label;
#X obj 38 399 s screenLine2;
#X obj 38 495 s screenLine3;
#X obj 38 593 s screenLine4;
#X obj 37 285 list prepend 1:;
#X obj 38 372 list prepend 2:;
#X obj 38 466 list prepend 3:;
#X obj 38 566 list prepend 4:;
#X obj 449 98 loadbang;
#X text 514 129 load instructions on screen 1st;
#X obj 284 520 hip~ 4;
#X obj 398 517 hip~ 4;
#X obj 285 631 s~ fx13-1-inL;
#X obj 397 630 s~ fx13-1-inR;
#X obj 497 630 s~ pass-inMONO;
#N canvas 250 50 788 781 text-file-stuff 0;
#X msg 42 493 write key-save.txt;
#X msg 81 542 read key-save.txt;
#X obj 81 519 loadbang;
#X obj 42 466 r saveState;
#X obj 42 583 text define key-save;
#X obj 227 104 loadbang;
#X obj 189 51 r saveState;
#X msg 189 78 write mono.txt;
#X msg 227 127 read mono.txt;
#X obj 46 168 s fx13-monoSwitch;
#X obj 46 89 loadbang;
#X msg 46 111 0;
#X obj 189 169 text define mono;
#X obj 46 141 text get mono;
#X obj 394 145 text set mono;
#X obj 347 51 r saveState;
#X obj 347 73 t b b;
#X msg 423 116 0;
#X obj 400 71 r fx13-monoSwitch;
#X obj 347 119 f, f 8;
#X obj 227 324 loadbang;
#X obj 189 231 r saveState;
#X obj 347 231 r saveState;
#X obj 347 253 t b b;
#X msg 423 296 0;
#X obj 347 299 f, f 8;
#X obj 400 251 r \$0-preset-num;
#X obj 189 389 text define preset;
#X obj 394 325 text set preset;
#X msg 189 298 write preset.txt;
#X msg 227 347 read preset.txt;
#X text 12 263 text for saving preset;
#X text 472 18 text for saving mono/stereo state;
#X text 236 505 text for saving the four knobs to the 24 slots;
#X connect 0 0 4 0;
#X connect 1 0 4 0;
#X connect 2 0 1 0;
#X connect 3 0 0 0;
#X connect 5 0 8 0;
#X connect 6 0 7 0;
#X connect 7 0 12 0;
#X connect 8 0 12 0;
#X connect 10 0 11 0;
#X connect 11 0 13 0;
#X connect 13 0 9 0;
#X connect 15 0 16 0;
#X connect 16 0 19 0;
#X connect 16 1 17 0;
#X connect 17 0 14 1;
#X connect 18 0 19 1;
#X connect 19 0 14 0;
#X connect 20 0 30 0;
#X connect 21 0 29 0;
#X connect 22 0 23 0;
#X connect 23 0 25 0;
#X connect 23 1 24 0;
#X connect 24 0 28 1;
#X connect 25 0 28 0;
#X connect 26 0 25 1;
#X connect 29 0 27 0;
#X connect 30 0 27 0;
#X restore 399 375 pd text-file-stuff;
#X obj 285 493 lop~ 20000;
#X obj 397 493 lop~ 20000;
#X text 106 195 fx-module;
#X text 53 234 knob printing;
#X text 300 423 Audio In and Out;
#N canvas 14 50 1440 768 notes+knobs 0;
#X obj 306 444 r knob1;
#X obj 424 444 r knob2;
#X obj 519 442 r knob3;
#X obj 600 444 r knob4;
#X obj 656 667 s fx13-1-knob4;
#X obj 539 637 s fx13-1-knob3;
#X obj 423 637 s fx13-1-knob2;
#X obj 306 649 s fx13-1-knob1;
#X obj 1100 583 text set key-save;
#X obj 365 588 pack 0 0 0 0 0, f 33;
#X obj 306 516 t a a;
#X obj 424 516 t a a;
#X obj 512 516 t a a;
#X obj 600 516 t a a;
#X obj 982 256 r aux;
#X obj 1014 499 s \$0-pack;
#X obj 1138 557 f;
#X obj 365 610 s \$0-2-textSet;
#X obj 365 536 r \$0-pack;
#X obj 1100 532 r \$0-2-textSet;
#X obj 328 36 r notes;
#X obj 328 64 stripnote;
#X obj 360 337 s screenLine5;
#X obj 328 389 unpack 0 0 0 0 0, f 19;
#X obj 328 361 text get key-save;
#X obj 360 283 + 1;
#X obj 328 238 t f f f, f 11;
#X obj 402 276 s \$0-preset-num;
#X obj 1156 497 r \$0-preset-num;
#X obj 982 391 f;
#X obj 982 338 sel 1;
#X obj 982 298 t f f, f 11;
#X obj 982 417 sel 1;
#X obj 982 639 f;
#X obj 1000 613 r \$0-preset-num;
#X obj 982 722 s screenLine5;
#X msg 982 697 Preset: \$1 Saved!;
#X obj 982 661 + 1;
#X msg 360 312 Keyboard: Preset \$1;
#X obj 1290 667 s led;
#X msg 1290 644 1;
#X obj 1329 613 del 500;
#X msg 1329 635 0;
#X obj 1306 549 t b b b;
#X msg 1352 586 stop;
#X obj 1014 467 t b b b, f 36;
#X msg 365 558 69;
#X obj 798 381 s fx13-monoSwitch;
#X obj 851 129 r aux;
#X obj 851 151 sel 1;
#X msg 851 173 1;
#X obj 798 81 r notes;
#X obj 798 103 stripnote;
#X obj 798 125 - 60;
#X obj 883 176 t b;
#X msg 883 198 0;
#X obj 798 250 sel 0 1, f 15;
#X msg 798 342 1;
#X msg 841 341 2;
#X obj 425 110 r aux;
#X obj 425 132 sel 1;
#X obj 457 160 t b;
#X msg 425 154 0;
#X msg 457 182 1;
#X obj 982 363 del 1000;
#X obj 982 439 t b b b, f 9;
#X msg 1062 424 0;
#X obj 865 286 t b;
#X msg 865 308 0;
#X msg 691 411 \; screenLine5 Stereo Mode!!!!!;
#X msg 755 461 \; screenLine5 Mono Mode!!!!!!;
#X obj 328 204 spigot 1;
#X obj 798 220 spigot 0;
#X obj 198 73 loadbang;
#X msg 198 125 0;
#X obj 198 155 text get preset;
#X obj 198 97 del 100;
#X obj 709 631 s \$0-bang-knobs;
#X obj 709 537 t b;
#X obj 76 164 r \$0-bang-knobs;
#X obj 709 581 t b b;
#X msg 741 604 0;
#X obj 818 548 loadbang;
#X obj 818 570 del 200;
#X msg 818 592 1;
#X obj 709 559 spigot 0;
#X obj 328 152 % 24;
#X obj 328 126 abs;
#X obj 328 87 expr if ($f1 > 59 \, $f1 - 60 \, $f1 - 12);
#X text 941 146 <--hold aux to open these features;
#X connect 0 0 10 0;
#X connect 0 0 78 0;
#X connect 1 0 11 0;
#X connect 1 0 78 0;
#X connect 2 0 12 0;
#X connect 2 0 78 0;
#X connect 3 0 13 0;
#X connect 3 0 78 0;
#X connect 9 0 17 0;
#X connect 10 0 7 0;
#X connect 10 1 9 1;
#X connect 11 0 6 0;
#X connect 11 1 9 2;
#X connect 12 0 5 0;
#X connect 12 1 9 3;
#X connect 13 0 4 0;
#X connect 13 1 9 4;
#X connect 14 0 31 0;
#X connect 16 0 8 1;
#X connect 18 0 46 0;
#X connect 19 0 8 0;
#X connect 20 0 21 0;
#X connect 21 0 88 0;
#X connect 23 1 10 0;
#X connect 23 2 11 0;
#X connect 23 3 12 0;
#X connect 23 4 13 0;
#X connect 24 0 23 0;
#X connect 25 0 38 0;
#X connect 26 0 24 0;
#X connect 26 1 25 0;
#X connect 26 2 27 0;
#X connect 28 0 16 1;
#X connect 29 0 32 0;
#X connect 30 0 64 0;
#X connect 31 0 30 0;
#X connect 31 1 29 1;
#X connect 32 0 65 0;
#X connect 33 0 37 0;
#X connect 34 0 33 1;
#X connect 36 0 35 0;
#X connect 37 0 36 0;
#X connect 38 0 22 0;
#X connect 40 0 39 0;
#X connect 41 0 42 0;
#X connect 42 0 39 0;
#X connect 43 0 40 0;
#X connect 43 1 41 0;
#X connect 43 2 44 0;
#X connect 44 0 41 0;
#X connect 45 0 15 0;
#X connect 45 1 16 0;
#X connect 45 2 43 0;
#X connect 46 0 9 0;
#X connect 48 0 49 0;
#X connect 49 0 50 0;
#X connect 49 1 54 0;
#X connect 50 0 72 1;
#X connect 51 0 52 0;
#X connect 52 0 53 0;
#X connect 53 0 72 0;
#X connect 54 0 55 0;
#X connect 55 0 72 1;
#X connect 56 0 57 0;
#X connect 56 0 70 0;
#X connect 56 0 67 0;
#X connect 56 1 58 0;
#X connect 56 1 69 0;
#X connect 56 1 67 0;
#X connect 57 0 47 0;
#X connect 58 0 47 0;
#X connect 59 0 60 0;
#X connect 60 0 62 0;
#X connect 60 1 61 0;
#X connect 61 0 63 0;
#X connect 62 0 71 1;
#X connect 63 0 71 1;
#X connect 64 0 29 0;
#X connect 65 0 33 0;
#X connect 65 1 45 0;
#X connect 65 2 66 0;
#X connect 66 0 72 1;
#X connect 67 0 68 0;
#X connect 68 0 31 0;
#X connect 71 0 26 0;
#X connect 72 0 56 0;
#X connect 73 0 76 0;
#X connect 74 0 75 0;
#X connect 75 0 26 0;
#X connect 76 0 74 0;
#X connect 78 0 85 0;
#X connect 79 0 26 0;
#X connect 80 0 77 0;
#X connect 80 1 81 0;
#X connect 81 0 85 1;
#X connect 82 0 83 0;
#X connect 83 0 84 0;
#X connect 84 0 85 1;
#X connect 85 0 80 0;
#X connect 86 0 71 0;
#X connect 87 0 86 0;
#X connect 88 0 87 0;
#X restore 403 314 pd notes+knobs;
#X obj 449 130 del 100;
#X msg 449 166 \; screenLine1 Keys are Presets \; screenLine2 Press
a Key to change \; screenLine3 Hold Aux to Save New \; screenLine4
_ \;;
#X text 94 33 the fx-13 module as a stand alone patch with preset saving
on the keyboard. Hold aux to save a new preset in current slot.;
#X text 9 100 *** Hold aux and press button one for mono and button
two for stereo;
#X obj 1139 340 r fs;
#X obj 1173 390 + 1;
#X obj 1139 362 sel 1;
#X obj 1139 411 % 2;
#X obj 939 472 r~ pass-inMONO;
#X obj 734 389 r~ fx13-1-inL;
#X obj 844 428 r~ fx13-1-inR;
#X obj 873 303 r fx13-monoSwitch;
#X obj 873 325 - 1;
#X obj 734 451 *~;
#X obj 844 450 *~;
#X obj 939 494 *~;
#X obj 861 391 lop~ 5;
#X obj 956 367 ==;
#X obj 956 389 lop~ 5;
#X obj 487 583 *~ 0.707;
#X obj 563 574 *~ 0.707;
#X text 659 577 DRY SIGNAL;
#X text 1177 614 WET FX SIGNAL;
#X obj 1020 616 *~;
#X obj 1127 616 *~;
#X obj 843 583 *~, f 12;
#X obj 735 582 *~, f 8;
#X obj 1053 495 ==;
#X obj 1178 462 sel 0 1, f 13;
#X obj 1139 390 f 1;
#X msg 1178 550 \; screenLine5 Bipass;
#X msg 1222 510 \; screenLine5 Effect On;
#X obj 995 520 lop~ 2;
#X obj 1111 554 lop~ 2;
#X obj 1046 318 loadbang;
#X msg 1046 340 1;
#X text 1174 338 foot switch does Bipass;
#X connect 0 0 27 0;
#X connect 1 0 28 0;
#X connect 6 0 57 0;
#X connect 7 0 56 0;
#X connect 8 0 15 0;
#X connect 9 0 16 0;
#X connect 10 0 17 0;
#X connect 11 0 18 0;
#X connect 15 0 4 0;
#X connect 16 0 12 0;
#X connect 17 0 13 0;
#X connect 18 0 14 0;
#X connect 19 0 33 0;
#X connect 21 0 23 0;
#X connect 21 0 52 0;
#X connect 22 0 24 0;
#X connect 22 0 53 0;
#X connect 27 0 21 0;
#X connect 28 0 22 0;
#X connect 33 0 34 0;
#X connect 37 0 39 0;
#X connect 38 0 62 1;
#X connect 39 0 62 0;
#X connect 40 0 60 0;
#X connect 40 0 61 0;
#X connect 40 0 66 0;
#X connect 41 0 48 0;
#X connect 42 0 46 0;
#X connect 43 0 47 0;
#X connect 44 0 45 0;
#X connect 45 0 49 0;
#X connect 45 0 50 0;
#X connect 46 0 59 0;
#X connect 47 0 58 0;
#X connect 48 0 58 0;
#X connect 48 0 59 0;
#X connect 49 0 46 1;
#X connect 49 0 47 1;
#X connect 50 0 51 0;
#X connect 51 0 48 1;
#X connect 52 0 25 0;
#X connect 53 0 25 0;
#X connect 56 0 2 0;
#X connect 57 0 3 0;
#X connect 58 0 3 0;
#X connect 59 0 2 0;
#X connect 60 0 65 0;
#X connect 61 0 63 0;
#X connect 61 1 64 0;
#X connect 62 0 38 0;
#X connect 62 0 40 0;
#X connect 65 0 59 1;
#X connect 65 0 58 1;
#X connect 66 0 56 1;
#X connect 66 0 57 1;
#X connect 67 0 68 0;
#X connect 68 0 62 0;
