#N canvas 100 50 1667 865 10;
#X declare -path CG-Pd-Library-Local/sequencer;
#X declare -path CG-Pd-Library-Local/externals;
#X declare -path CG-Pd-Library-Local/metronome;
#X declare -path /sdcard/CG-Pd-Library/sequencer;
#X declare -path /sdcard/CG-Pd-Library/externals;
#X declare -path /sdcard/CG-Pd-Library/metronome;
#X obj 198 302 unpack 0 0;
#X obj 198 362 pack 0 0 0;
#X obj 198 427 unpack, f 26;
#X obj 216 600 s reorder;
#N canvas 133 50 826 891 array-sort 0;
#X obj 263 111 until;
#X obj 263 153 f;
#X obj 296 154 + 1, f 4;
#X msg 321 91 0, f 2;
#X obj 296 21 bng 15 250 50 0 empty empty empty 17 7 0 10 -262144 -1
-1;
#X obj 312 267 f;
#X obj 264 232 t f b;
#X obj 262 182 t f f;
#X obj 249 452 f;
#X floatatom 240 515 5 0 0 0 - - -;
#X obj 306 399 sel 1;
#X obj 214 485 f;
#X obj 173 537 f;
#X obj 213 553 t b b;
#X obj 323 560 t b f;
#X obj 250 580 f;
#X obj 343 -90 until;
#X obj 344 -46 f;
#X obj 376 -47 + 1, f 4;
#X msg 401 -110 0, f 2;
#X obj 345 -139 t b b;
#X obj 329 -11 t b f;
#X obj 214 -206 r reorder;
#X obj 252 48 t b b b b;
#X msg 314 585 0, f 2;
#X msg 357 89 0;
#X obj 217 333 expr if ($f1 > $f2 \, $f1 \, $f2) \; if ($f1 > $f2 \,
1 \, 0);
#X msg 344 -115 8, f 2;
#X msg 263 83 8, f 2;
#X obj 170 -206 bng 15 250 50 0 empty empty empty 17 7 0 10 -262144
-1 -1;
#X obj 264 210 tabread notes-squashed;
#X obj 314 621 tabwrite notes-squashed;
#X obj 139 648 tabwrite notes-decreasing;
#X text 419 137 sort array a into b. a gets clobbered in the process
probably a much better way to do this ...;
#X obj 204 -173 t b b b;
#X connect 0 0 1 0;
#X connect 1 0 2 0;
#X connect 1 0 7 0;
#X connect 2 0 1 1;
#X connect 3 0 1 1;
#X connect 4 0 23 0;
#X connect 5 0 26 1;
#X connect 6 0 26 0;
#X connect 6 1 5 0;
#X connect 7 0 30 0;
#X connect 7 1 8 1;
#X connect 8 0 11 1;
#X connect 9 0 14 0;
#X connect 10 0 8 0;
#X connect 11 0 9 0;
#X connect 11 0 13 0;
#X connect 12 0 32 0;
#X connect 13 0 12 0;
#X connect 13 1 15 0;
#X connect 14 0 24 0;
#X connect 14 1 31 1;
#X connect 15 0 32 1;
#X connect 16 0 17 0;
#X connect 17 0 18 0;
#X connect 17 0 21 0;
#X connect 18 0 17 1;
#X connect 19 0 17 1;
#X connect 20 0 27 0;
#X connect 20 1 19 0;
#X connect 21 0 4 0;
#X connect 21 1 15 1;
#X connect 22 0 34 0;
#X connect 23 0 11 0;
#X connect 23 1 28 0;
#X connect 23 2 3 0;
#X connect 23 3 25 0;
#X connect 24 0 31 0;
#X connect 25 0 5 1;
#X connect 26 0 5 1;
#X connect 26 0 12 1;
#X connect 26 1 10 0;
#X connect 27 0 16 0;
#X connect 28 0 0 0;
#X connect 29 0 34 0;
#X connect 30 0 6 0;
#X connect 34 2 20 0;
#X restore 462 526 pd array-sort;
#X text 797 169 array1 is raw data from poly (notes with 0 velocity
are given 0 pitch), f 15;
#X text 792 543 here are the notes sorted..., f 11;
#X floatatom 72 103 5 0 0 0 - - -;
#N canvas 168 50 726 731 increasing 0;
#X obj 156 260 until;
#X obj 157 304 f;
#X obj 189 303 + 1, f 4;
#X msg 214 240 0, f 2;
#X obj 155 236 f 0;
#X obj 156 357 - 0;
#X obj 157 408 abs;
#X obj 157 326 t f f;
#X obj 266 471 f;
#X obj 156 469 t f b;
#X obj 320 197 r num-down;
#X obj 156 379 + 1;
#X obj 416 331 until;
#X obj 416 373 f;
#X obj 449 374 + 1, f 4;
#X msg 474 311 0, f 2;
#X obj 416 276 t b b;
#X obj 424 398 t b f;
#X msg 415 423 0, f 2;
#X msg 416 303 8, f 2;
#X obj 155 197 t b b b;
#X obj 156 437 tabread notes-decreasing;
#X obj 152 508 tabwrite notes-increasing;
#X obj 413 448 tabwrite notes-increasing;
#X obj 153 67 inlet;
#X connect 0 0 1 0;
#X connect 1 0 2 0;
#X connect 1 0 7 0;
#X connect 2 0 1 1;
#X connect 3 0 1 1;
#X connect 4 0 0 0;
#X connect 5 0 11 0;
#X connect 6 0 21 0;
#X connect 7 0 5 0;
#X connect 7 1 8 1;
#X connect 8 0 22 1;
#X connect 9 0 22 0;
#X connect 9 1 8 0;
#X connect 10 0 4 1;
#X connect 10 0 5 1;
#X connect 11 0 6 0;
#X connect 12 0 13 0;
#X connect 13 0 14 0;
#X connect 13 0 17 0;
#X connect 14 0 13 1;
#X connect 15 0 13 1;
#X connect 16 0 19 0;
#X connect 16 1 15 0;
#X connect 17 0 18 0;
#X connect 17 1 23 1;
#X connect 18 0 23 0;
#X connect 19 0 12 0;
#X connect 20 0 4 0;
#X connect 20 1 3 0;
#X connect 20 2 16 0;
#X connect 21 0 9 0;
#X connect 24 0 20 0;
#X restore 464 733 pd increasing;
#X obj 72 122 s num-down;
#X obj 198 327 poly 8 1, f 10;
#X obj 198 630 s others;
#N canvas 4 77 588 574 format_for_array 0;
#X obj 111 44 inlet;
#X obj 102 128 f;
#X obj 144 151 sel 0;
#X msg 121 188 0;
#X obj 167 181 t b b;
#X obj 137 126 f;
#X obj 79 268 t f b;
#X obj 75 336 pack 0 0;
#X obj 85 75 unpack 0 0 0;
#X obj 41 132 t b f;
#X obj 117 304 f;
#X obj 78 389 outlet;
#X obj 133 274 - 1;
#X text 169 280 array index starts at 0 \, poly index starts at 1;
#X text 223 150 if the velocity is > 0 \, outputs note number. If =
0 \, it outputs 0 for note number;
#X connect 0 0 8 0;
#X connect 1 0 6 0;
#X connect 2 0 3 0;
#X connect 2 1 4 0;
#X connect 3 0 6 0;
#X connect 4 0 1 0;
#X connect 5 0 2 0;
#X connect 6 0 7 0;
#X connect 6 1 10 0;
#X connect 7 0 11 0;
#X connect 8 0 9 0;
#X connect 8 1 1 1;
#X connect 8 2 5 1;
#X connect 9 0 5 0;
#X connect 9 1 12 0;
#X connect 10 0 7 1;
#X connect 12 0 10 1;
#X restore 198 390 pd format_for_array;
#N canvas 7 50 1000 647 array-copy 0;
#X obj 228 194 until;
#X obj 228 236 f;
#X obj 261 237 + 1, f 4;
#X msg 286 174 0, f 2;
#X obj 227 98 bng 15 250 50 0 empty empty empty 17 7 0 10 -262144 -1
-1;
#X obj 406 272 until;
#X obj 406 314 f;
#X obj 439 315 + 1, f 4;
#X msg 464 252 0, f 2;
#X obj 406 217 t b b;
#X obj 414 339 t b f;
#X msg 405 364 0, f 2;
#X obj 227 121 t b b b;
#X msg 228 166 8, f 2;
#X msg 406 244 8, f 2;
#X text 324 97 this removes 0 elements (or actually just moves the
following elements over 1 place);
#X text 508 296 first zero out the destination array;
#X obj 228 258 t f f;
#X obj 227 75 r copy;
#X obj 408 385 tabwrite notes-squashed;
#X obj 229 297 tabread notes-from-poly;
#X obj 247 410 tabwrite notes-squashed;
#X connect 0 0 1 0;
#X connect 1 0 2 0;
#X connect 1 0 17 0;
#X connect 2 0 1 1;
#X connect 3 0 1 1;
#X connect 4 0 12 0;
#X connect 5 0 6 0;
#X connect 6 0 7 0;
#X connect 6 0 10 0;
#X connect 7 0 6 1;
#X connect 8 0 6 1;
#X connect 9 0 14 0;
#X connect 9 1 8 0;
#X connect 10 0 11 0;
#X connect 10 1 19 1;
#X connect 11 0 19 0;
#X connect 12 0 13 0;
#X connect 12 1 3 0;
#X connect 12 2 9 0;
#X connect 13 0 0 0;
#X connect 14 0 5 0;
#X connect 17 0 20 0;
#X connect 17 1 21 1;
#X connect 18 0 4 0;
#X connect 20 0 21 0;
#X restore 459 350 pd array-copy;
#X obj 235 576 s copy;
#X text 789 736 then increasing;
#X text 282 360 first put up to 8 notes into array, f 17;
#X obj 272 501 tabwrite notes-from-poly, f 16;
#N canvas 275 50 1491 861 arp 0;
#X obj 482 110 expr 1000/($f1/60);
#X obj 482 182 s step;
#X obj 804 775 makenote 100 100;
#X obj 913 753 r step;
#X obj 804 751 r arp-notes;
#X obj 482 25 r bpm;
#X obj 482 133 / 4;
#X obj 482 72 int;
#X obj 932 796 r midiCh;
#X obj 804 826 noteout, f 19;
#N canvas 20 50 1242 820 double-double 0;
#X obj 410 225 r num-down;
#X obj 307 345 bng 15 250 50 0 empty empty empty 17 7 0 10 -262144
-1 -1;
#X floatatom 422 282 5 0 0 0 - - -;
#X obj 420 255 r num-down;
#X floatatom 484 494 5 0 0 0 - - -;
#X obj 306 623 + 0;
#X obj 485 513 * 12;
#X obj 298 304 spigot;
#X obj 234 516 tabread notes-increasing;
#X obj 306 659 - 12;
#X obj 378 338 sel 0;
#X obj 396 437 bng 15 250 50 0 empty empty empty 17 7 0 10 -262144
-1 -1;
#X obj 422 301 t f f;
#X msg 506 462 0;
#X obj 247 467 % 1;
#X obj 255 394 counter-up 0;
#X obj 480 427 counter-up 2;
#X obj 782 179 r num-down;
#X obj 679 299 bng 15 250 50 0 empty empty empty 17 7 0 10 -262144
-1 -1;
#X floatatom 599 447 5 0 0 0 - - -;
#X floatatom 794 236 5 0 0 0 - - -;
#X obj 792 209 r num-down;
#X floatatom 856 448 5 0 0 0 - - -;
#X obj 678 577 + 0;
#X obj 857 467 * 12;
#X obj 670 258 spigot;
#X obj 606 470 tabread notes-increasing;
#X obj 671 636 - 12;
#X obj 750 292 sel 0;
#X obj 768 391 bng 15 250 50 0 empty empty empty 17 7 0 10 -262144
-1 -1;
#X obj 794 255 t f f;
#X msg 878 416 0;
#X obj 619 421 % 1;
#X obj 627 348 counter-up 0;
#X obj 852 385 counter-up 2;
#X obj 487 756 outlet;
#X obj 327 176 spigot 0;
#X obj 592 158 spigot 0;
#X obj 459 91 inlet;
#X obj 268 79 r arp-tick;
#X obj 624 67 r arp-tick;
#X connect 0 0 7 1;
#X connect 1 0 15 0;
#X connect 2 0 12 0;
#X connect 3 0 2 0;
#X connect 4 0 6 0;
#X connect 5 0 9 0;
#X connect 6 0 5 1;
#X connect 7 0 1 0;
#X connect 8 0 5 0;
#X connect 9 0 35 0;
#X connect 10 0 13 0;
#X connect 10 0 15 1;
#X connect 10 0 16 1;
#X connect 11 0 16 0;
#X connect 12 0 10 0;
#X connect 12 0 14 1;
#X connect 12 1 15 2;
#X connect 13 0 4 0;
#X connect 14 0 8 0;
#X connect 15 0 14 0;
#X connect 15 1 11 0;
#X connect 16 0 4 0;
#X connect 17 0 25 1;
#X connect 18 0 33 0;
#X connect 19 0 26 0;
#X connect 20 0 30 0;
#X connect 21 0 20 0;
#X connect 22 0 24 0;
#X connect 23 0 27 0;
#X connect 24 0 23 1;
#X connect 25 0 18 0;
#X connect 26 0 23 0;
#X connect 27 0 35 0;
#X connect 28 0 31 0;
#X connect 28 0 33 1;
#X connect 28 0 34 1;
#X connect 29 0 34 0;
#X connect 30 0 28 0;
#X connect 30 0 32 1;
#X connect 30 1 33 2;
#X connect 31 0 22 0;
#X connect 32 0 19 0;
#X connect 33 0 32 0;
#X connect 33 1 29 0;
#X connect 34 0 22 0;
#X connect 36 0 7 0;
#X connect 37 0 25 0;
#X connect 38 0 36 1;
#X connect 38 0 37 1;
#X connect 39 0 36 0;
#X connect 40 0 37 0;
#X restore 907 679 pd double-double;
#X obj 73 326 sel 0 1 2 3 4 5 6 7, f 69;
#X obj 73 287 t f b, f 14;
#X msg 607 617 0;
#X msg 70 358 1;
#X msg 141 356 1;
#X msg 203 355 1;
#X msg 261 353 1;
#N canvas 24 50 1242 820 double-randoms 0;
#X obj 410 225 r num-down;
#X obj 307 345 bng 15 250 50 0 empty empty empty 17 7 0 10 -262144
-1 -1;
#X floatatom 422 282 5 0 0 0 - - -;
#X obj 420 255 r num-down;
#X floatatom 484 494 5 0 0 0 - - -;
#X obj 306 623 + 0;
#X obj 485 513 * 12;
#X obj 298 304 spigot;
#X obj 234 516 tabread notes-increasing;
#X obj 306 659 - 12;
#X obj 378 338 sel 0;
#X obj 396 437 bng 15 250 50 0 empty empty empty 17 7 0 10 -262144
-1 -1;
#X obj 422 301 t f f;
#X msg 506 462 0;
#X obj 247 467 % 1;
#X obj 782 179 r num-down;
#X obj 679 299 bng 15 250 50 0 empty empty empty 17 7 0 10 -262144
-1 -1;
#X floatatom 599 447 5 0 0 0 - - -;
#X floatatom 794 236 5 0 0 0 - - -;
#X obj 792 209 r num-down;
#X floatatom 856 448 5 0 0 0 - - -;
#X obj 678 577 + 0;
#X obj 857 467 * 12;
#X obj 670 258 spigot;
#X obj 606 470 tabread notes-increasing;
#X obj 671 636 - 12;
#X obj 750 292 sel 0;
#X obj 768 391 bng 15 250 50 0 empty empty empty 17 7 0 10 -262144
-1 -1;
#X obj 794 255 t f f;
#X msg 878 416 0;
#X obj 619 421 % 1;
#X obj 627 348 counter-up 0;
#X obj 852 385 counter-up 2;
#X obj 487 756 outlet;
#X obj 327 176 spigot 0;
#X obj 592 158 spigot 0;
#X obj 459 91 inlet;
#X obj 451 425 random 3;
#X obj 255 394 random;
#X obj 268 78 r arp-tick;
#X connect 0 0 7 1;
#X connect 1 0 38 0;
#X connect 1 0 11 0;
#X connect 2 0 12 0;
#X connect 3 0 2 0;
#X connect 3 0 38 1;
#X connect 4 0 6 0;
#X connect 5 0 9 0;
#X connect 6 0 5 1;
#X connect 7 0 1 0;
#X connect 8 0 5 0;
#X connect 9 0 33 0;
#X connect 10 0 13 0;
#X connect 11 0 37 0;
#X connect 12 0 10 0;
#X connect 12 0 14 1;
#X connect 13 0 4 0;
#X connect 14 0 8 0;
#X connect 15 0 23 1;
#X connect 16 0 31 0;
#X connect 17 0 24 0;
#X connect 18 0 28 0;
#X connect 19 0 18 0;
#X connect 20 0 22 0;
#X connect 21 0 25 0;
#X connect 22 0 21 1;
#X connect 23 0 16 0;
#X connect 24 0 21 0;
#X connect 25 0 33 0;
#X connect 26 0 29 0;
#X connect 26 0 31 1;
#X connect 26 0 32 1;
#X connect 27 0 32 0;
#X connect 28 0 26 0;
#X connect 28 0 30 1;
#X connect 28 1 31 2;
#X connect 29 0 20 0;
#X connect 30 0 17 0;
#X connect 31 0 30 0;
#X connect 31 1 27 0;
#X connect 32 0 20 0;
#X connect 34 0 7 0;
#X connect 35 0 23 0;
#X connect 36 0 34 1;
#X connect 36 0 35 1;
#X connect 37 0 4 0;
#X connect 38 0 14 0;
#X connect 39 0 34 0;
#X connect 39 0 35 0;
#X restore 776 681 pd double-randoms;
#X obj 73 209 i;
#N canvas 22 50 1242 820 singleup4 0;
#X obj 410 225 r num-down;
#X obj 307 345 bng 15 250 50 0 empty empty empty 17 7 0 10 -262144
-1 -1;
#X floatatom 422 282 5 0 0 0 - - -;
#X obj 420 255 r num-down;
#X floatatom 484 494 5 0 0 0 - - -;
#X obj 306 623 + 0;
#X obj 485 513 * 12;
#X obj 298 304 spigot;
#X obj 234 516 tabread notes-increasing;
#X obj 378 338 sel 0;
#X obj 396 437 bng 15 250 50 0 empty empty empty 17 7 0 10 -262144
-1 -1;
#X obj 422 301 t f f;
#X msg 506 462 0;
#X obj 247 467 % 1;
#X obj 255 394 counter-up 0;
#X obj 487 756 outlet;
#X obj 327 176 spigot 0;
#X obj 459 91 inlet;
#X obj 480 427 counter-up 4;
#X obj 307 659 - 24;
#X obj 268 79 r arp-tick;
#X connect 0 0 7 1;
#X connect 1 0 14 0;
#X connect 2 0 11 0;
#X connect 3 0 2 0;
#X connect 4 0 6 0;
#X connect 5 0 19 0;
#X connect 6 0 5 1;
#X connect 7 0 1 0;
#X connect 8 0 5 0;
#X connect 9 0 12 0;
#X connect 9 0 14 1;
#X connect 9 0 18 1;
#X connect 10 0 18 0;
#X connect 11 0 9 0;
#X connect 11 0 13 1;
#X connect 11 1 14 2;
#X connect 12 0 4 0;
#X connect 13 0 8 0;
#X connect 14 0 13 0;
#X connect 14 1 10 0;
#X connect 16 0 7 0;
#X connect 17 0 16 1;
#X connect 18 0 4 0;
#X connect 19 0 15 0;
#X connect 20 0 16 0;
#X restore 560 683 pd singleup4;
#N canvas 18 50 1242 820 singledown4 0;
#X obj 410 225 r num-down;
#X obj 307 345 bng 15 250 50 0 empty empty empty 17 7 0 10 -262144
-1 -1;
#X floatatom 422 282 5 0 0 0 - - -;
#X obj 420 255 r num-down;
#X floatatom 484 494 5 0 0 0 - - -;
#X obj 306 623 + 0;
#X obj 485 513 * 12;
#X obj 298 304 spigot;
#X obj 234 516 tabread notes-increasing;
#X obj 378 338 sel 0;
#X obj 396 437 bng 15 250 50 0 empty empty empty 17 7 0 10 -262144
-1 -1;
#X obj 422 301 t f f;
#X msg 506 462 0;
#X obj 247 467 % 1;
#X obj 624 67 r eighths;
#X obj 487 756 outlet;
#X obj 327 176 spigot 0;
#X obj 459 91 inlet;
#X obj 307 659 - 24;
#X obj 255 394 counter-down 0;
#X obj 480 427 counter-down 4;
#X obj 268 79 r arp-tick;
#X connect 0 0 7 1;
#X connect 1 0 19 0;
#X connect 2 0 11 0;
#X connect 3 0 2 0;
#X connect 4 0 6 0;
#X connect 5 0 18 0;
#X connect 6 0 5 1;
#X connect 7 0 1 0;
#X connect 8 0 5 0;
#X connect 9 0 12 0;
#X connect 9 0 19 1;
#X connect 9 0 20 1;
#X connect 10 0 20 0;
#X connect 11 0 9 0;
#X connect 11 0 13 1;
#X connect 11 1 19 2;
#X connect 12 0 4 0;
#X connect 13 0 8 0;
#X connect 16 0 7 0;
#X connect 17 0 16 1;
#X connect 18 0 15 0;
#X connect 19 0 13 0;
#X connect 19 1 10 0;
#X connect 20 0 4 0;
#X connect 21 0 16 0;
#X restore 663 681 pd singledown4;
#X msg 343 355 1;
#X msg 401 355 1;
#X msg 449 355 1;
#X msg 504 355 1;
#N canvas 30 50 1242 820 singleup2 0;
#X obj 410 225 r num-down;
#X obj 307 345 bng 15 250 50 0 empty empty empty 17 7 0 10 -262144
-1 -1;
#X floatatom 422 282 5 0 0 0 - - -;
#X obj 420 255 r num-down;
#X floatatom 484 494 5 0 0 0 - - -;
#X obj 306 623 + 0;
#X obj 485 513 * 12;
#X obj 298 304 spigot;
#X obj 234 516 tabread notes-increasing;
#X obj 378 338 sel 0;
#X obj 396 437 bng 15 250 50 0 empty empty empty 17 7 0 10 -262144
-1 -1;
#X obj 422 301 t f f;
#X msg 506 462 0;
#X obj 247 467 % 1;
#X obj 255 394 counter-up 0;
#X obj 487 756 outlet;
#X obj 327 176 spigot 0;
#X obj 459 91 inlet;
#X obj 307 659 - 24;
#X obj 480 427 counter-up 2;
#X obj 268 79 r arp-tick;
#X connect 0 0 7 1;
#X connect 1 0 14 0;
#X connect 2 0 11 0;
#X connect 3 0 2 0;
#X connect 4 0 6 0;
#X connect 5 0 18 0;
#X connect 6 0 5 1;
#X connect 7 0 1 0;
#X connect 8 0 5 0;
#X connect 9 0 12 0;
#X connect 9 0 14 1;
#X connect 9 0 19 1;
#X connect 10 0 19 0;
#X connect 11 0 9 0;
#X connect 11 0 13 1;
#X connect 11 1 14 2;
#X connect 12 0 4 0;
#X connect 13 0 8 0;
#X connect 14 0 13 0;
#X connect 14 1 10 0;
#X connect 16 0 7 0;
#X connect 17 0 16 1;
#X connect 18 0 15 0;
#X connect 19 0 4 0;
#X connect 20 0 16 0;
#X restore 342 682 pd singleup2;
#N canvas 22 50 1242 820 singledown2 0;
#X obj 410 225 r num-down;
#X obj 271 348 bng 15 250 50 0 empty empty empty 17 7 0 10 -262144
-1 -1;
#X floatatom 422 282 5 0 0 0 - - -;
#X obj 420 255 r num-down;
#X floatatom 484 494 5 0 0 0 - - -;
#X obj 306 623 + 0;
#X obj 485 513 * 12;
#X obj 298 304 spigot;
#X obj 234 516 tabread notes-increasing;
#X obj 378 338 sel 0;
#X obj 396 437 bng 15 250 50 0 empty empty empty 17 7 0 10 -262144
-1 -1;
#X obj 422 301 t f f;
#X msg 506 462 0;
#X obj 247 467 % 1;
#X obj 624 67 r eighths;
#X obj 487 756 outlet;
#X obj 327 176 spigot 0;
#X obj 459 91 inlet;
#X obj 307 659 - 24;
#X obj 255 394 counter-down 0;
#X obj 480 427 counter-down 2;
#X obj 268 79 r arp-tick;
#X connect 0 0 7 1;
#X connect 1 0 19 0;
#X connect 2 0 11 0;
#X connect 3 0 2 0;
#X connect 4 0 6 0;
#X connect 5 0 18 0;
#X connect 6 0 5 1;
#X connect 7 0 1 0;
#X connect 8 0 5 0;
#X connect 9 0 12 0;
#X connect 9 0 19 1;
#X connect 9 0 20 1;
#X connect 10 0 20 0;
#X connect 11 0 9 0;
#X connect 11 0 13 1;
#X connect 11 1 19 2;
#X connect 12 0 4 0;
#X connect 13 0 8 0;
#X connect 16 0 7 0;
#X connect 17 0 16 1;
#X connect 18 0 15 0;
#X connect 19 0 13 0;
#X connect 19 1 10 0;
#X connect 20 0 4 0;
#X connect 21 0 16 0;
#X restore 444 681 pd singledown2;
#N canvas 31 50 1242 820 updown2 0;
#X obj 338 565 outlet;
#N canvas 32 50 1242 820 singleup2 0;
#X obj 410 225 r num-down;
#X obj 307 345 bng 15 250 50 0 empty empty empty 17 7 0 10 -262144
-1 -1;
#X floatatom 422 282 5 0 0 0 - - -;
#X obj 420 255 r num-down;
#X floatatom 484 494 5 0 0 0 - - -;
#X obj 306 623 + 0;
#X obj 485 513 * 12;
#X obj 298 304 spigot;
#X obj 234 516 tabread notes-increasing;
#X obj 378 338 sel 0;
#X obj 396 437 bng 15 250 50 0 empty empty empty 17 7 0 10 -262144
-1 -1;
#X obj 422 301 t f f;
#X msg 506 462 0;
#X obj 247 467 % 1;
#X obj 255 394 counter-up 0;
#X obj 487 756 outlet;
#X obj 307 659 - 24;
#X obj 480 427 counter-up 2;
#X obj 631 661 outlet;
#X obj 225 164 inlet;
#X connect 0 0 7 1;
#X connect 1 0 14 0;
#X connect 2 0 11 0;
#X connect 3 0 2 0;
#X connect 4 0 6 0;
#X connect 5 0 16 0;
#X connect 6 0 5 1;
#X connect 7 0 1 0;
#X connect 8 0 5 0;
#X connect 9 0 12 0;
#X connect 9 0 14 1;
#X connect 9 0 17 1;
#X connect 10 0 17 0;
#X connect 11 0 9 0;
#X connect 11 0 13 1;
#X connect 11 1 14 2;
#X connect 12 0 4 0;
#X connect 13 0 8 0;
#X connect 14 0 13 0;
#X connect 14 1 10 0;
#X connect 16 0 15 0;
#X connect 17 0 4 0;
#X connect 17 1 18 0;
#X connect 19 0 7 0;
#X restore 276 400 pd singleup2;
#X obj 301 151 spigot 0;
#X obj 433 66 inlet;
#N canvas 24 50 1242 820 singledown2 0;
#X obj 410 225 r num-down;
#X obj 271 348 bng 15 250 50 0 empty empty empty 17 7 0 10 -262144
-1 -1;
#X floatatom 422 282 5 0 0 0 - - -;
#X obj 420 255 r num-down;
#X floatatom 484 494 5 0 0 0 - - -;
#X obj 306 623 + 0;
#X obj 485 513 * 12;
#X obj 298 304 spigot;
#X obj 234 516 tabread notes-increasing;
#X obj 378 338 sel 0;
#X obj 396 437 bng 15 250 50 0 empty empty empty 17 7 0 10 -262144
-1 -1;
#X obj 422 301 t f f;
#X msg 506 462 0;
#X obj 247 467 % 1;
#X obj 487 756 outlet;
#X obj 307 659 - 24;
#X obj 255 394 counter-down 0;
#X obj 480 427 counter-down 2;
#X obj 678 572 outlet;
#X obj 327 176 inlet;
#X connect 0 0 7 1;
#X connect 1 0 16 0;
#X connect 2 0 11 0;
#X connect 3 0 2 0;
#X connect 4 0 6 0;
#X connect 5 0 15 0;
#X connect 6 0 5 1;
#X connect 7 0 1 0;
#X connect 8 0 5 0;
#X connect 9 0 12 0;
#X connect 9 0 16 1;
#X connect 9 0 17 1;
#X connect 10 0 17 0;
#X connect 11 0 9 0;
#X connect 11 0 13 1;
#X connect 11 1 16 2;
#X connect 12 0 4 0;
#X connect 13 0 8 0;
#X connect 15 0 14 0;
#X connect 16 0 13 0;
#X connect 16 1 10 0;
#X connect 17 0 4 0;
#X connect 17 1 18 0;
#X connect 19 0 7 0;
#X restore 411 403 pd singledown2;
#X obj 462 194 tgl 15 0 empty empty empty 17 7 0 10 -262144 -1 -1 0
1;
#X obj 463 133 tgl 15 0 empty empty empty 17 7 0 10 -262144 -1 -1 1
1;
#X obj 463 153 ==;
#X obj 314 243 spigot 0;
#X obj 230 240 spigot 1;
#X obj 544 71 r num-down;
#X obj 544 93 sel 0;
#X msg 544 115 1;
#X obj 242 54 r arp-tick;
#X connect 1 0 0 0;
#X connect 1 1 6 0;
#X connect 2 0 9 0;
#X connect 2 0 8 0;
#X connect 3 0 2 1;
#X connect 4 0 0 0;
#X connect 4 1 6 0;
#X connect 5 0 8 1;
#X connect 6 0 7 0;
#X connect 6 0 9 1;
#X connect 7 0 5 0;
#X connect 8 0 4 0;
#X connect 9 0 1 0;
#X connect 10 0 11 0;
#X connect 11 0 12 0;
#X connect 12 0 6 0;
#X connect 13 0 2 0;
#X restore 1032 679 pd updown2;
#X msg 83 585 \; screenLine2 2: Up 2 Octave \;;
#X msg 121 493 \; screenLine2 2: Down 2 Octave \;;
#X msg 168 541 \; screenLine2 2: Up 4 Octave \;;
#X msg 324 438 \; screenLine2 2: Down 4 Octave \;;
#X msg 348 480 \; screenLine2 2: Double Randoms \;;
#X msg 370 520 \; screenLine2 2: Double Double \;;
#X msg 587 476 \; screenLine2 2: All \;;
#X msg 562 430 \; screenLine2 2: Up Down \;;
#X text 88 104 Sets the Pattern;
#X obj 74 187 * 7;
#X obj 97 125 r knob2;
#X obj 73 80 r seq3-1-k2;
#X obj 73 246 shortcut-mute-f 1;
#X obj 73 165 f;
#X obj 577 756 s arp-notes;
#X floatatom 511 154 5 0 0 0 - - -;
#X connect 0 0 6 0;
#X connect 2 0 9 0;
#X connect 2 1 9 1;
#X connect 3 0 2 2;
#X connect 4 0 2 0;
#X connect 5 0 7 0;
#X connect 6 0 1 0;
#X connect 6 0 44 0;
#X connect 7 0 0 0;
#X connect 8 0 9 2;
#X connect 10 0 43 0;
#X connect 11 0 14 0;
#X connect 11 0 29 0;
#X connect 11 1 15 0;
#X connect 11 1 30 0;
#X connect 11 2 16 0;
#X connect 11 2 31 0;
#X connect 11 3 17 0;
#X connect 11 3 32 0;
#X connect 11 4 22 0;
#X connect 11 4 33 0;
#X connect 11 5 23 0;
#X connect 11 5 34 0;
#X connect 11 6 24 0;
#X connect 11 6 36 0;
#X connect 11 7 25 0;
#X connect 11 7 35 0;
#X connect 12 0 11 0;
#X connect 12 1 13 0;
#X connect 13 0 20 0;
#X connect 13 0 21 0;
#X connect 13 0 18 0;
#X connect 13 0 10 0;
#X connect 13 0 26 0;
#X connect 13 0 27 0;
#X connect 13 0 28 0;
#X connect 14 0 26 0;
#X connect 15 0 27 0;
#X connect 16 0 20 0;
#X connect 17 0 21 0;
#X connect 18 0 43 0;
#X connect 19 0 41 0;
#X connect 20 0 43 0;
#X connect 21 0 43 0;
#X connect 22 0 18 0;
#X connect 23 0 10 0;
#X connect 24 0 28 0;
#X connect 25 0 26 0;
#X connect 25 0 27 0;
#X connect 25 0 21 0;
#X connect 25 0 28 0;
#X connect 25 0 18 0;
#X connect 26 0 43 0;
#X connect 27 0 43 0;
#X connect 28 0 43 0;
#X connect 38 0 19 0;
#X connect 39 0 42 0;
#X connect 40 0 42 0;
#X connect 41 0 12 0;
#X connect 42 0 38 0;
#X restore 1021 578 pd arp;
#X text 793 343 array squash pulls out 0 notes. this array gets clobbered
by the sorting function so it always looks blank, f 22;
#X obj 198 470 t b b b b f;
#N canvas 1215 109 533 527 countnotes 0;
#X obj 104 289 > 0;
#X obj 104 316 sel 1;
#X obj 158 352 + 1, f 4;
#X obj 110 353 f 0;
#X obj 141 130 until;
#X obj 142 174 f;
#X obj 174 173 + 1, f 4;
#X msg 276 125 0, f 2;
#X msg 142 105 8, f 2;
#X obj 143 35 r countem;
#X obj 89 395 f 0;
#X obj 86 423 outlet;
#X obj 83 200 t f f;
#X obj 36 244 sel 7;
#X obj 91 62 bng 15 250 50 0 empty empty empty 17 7 0 10 -262144 -1
-1;
#X obj 201 422 print;
#X obj 106 234 tabread notes-from-poly;
#X obj 143 81 t b b;
#X connect 0 0 1 0;
#X connect 1 0 3 0;
#X connect 2 0 3 1;
#X connect 2 0 10 1;
#X connect 3 0 2 0;
#X connect 4 0 5 0;
#X connect 5 0 6 0;
#X connect 5 0 12 0;
#X connect 6 0 5 1;
#X connect 7 0 5 1;
#X connect 7 0 3 1;
#X connect 7 0 10 1;
#X connect 8 0 4 0;
#X connect 9 0 17 0;
#X connect 10 0 11 0;
#X connect 12 0 13 0;
#X connect 12 1 16 0;
#X connect 13 0 10 0;
#X connect 14 0 5 0;
#X connect 16 0 0 0;
#X connect 17 0 8 0;
#X connect 17 1 7 0;
#X restore 72 75 pd countnotes;
#X obj 464 702 r others;
#X obj 253 549 s countem;
#X text 52 53 number notes currently held down;
#X text 61 4 notes are put into an array and then sorted in increasing
/ decreasing order. the 'arp' subpatch then counts through the arrays
in various patterns;
#N canvas 498 601 226 443 sampler 0;
#X obj 12 61 sample-voice 1.wav 0;
#X obj 11 89 sample-voice 2.wav 1;
#X obj 12 256 sample-voice 8.wav 7;
#X obj 14 282 sample-voice 9.wav 8;
#X obj 10 308 sample-voice 10.wav 9;
#X obj 12 337 sample-voice 11.wav 10;
#X obj 14 362 sample-voice 12.wav 11;
#X obj 10 229 sample-voice 7.wav 6;
#X obj 13 199 sample-voice 6.wav 5;
#X obj 14 172 sample-voice 5.wav 4;
#X obj 13 145 sample-voice 4.wav 3;
#X obj 8 117 sample-voice 3.wav 2;
#X restore 1020 621 pd sampler;
#X text 1013 559 run the arp;
#N canvas 12 67 903 548 output 0;
#X obj 411 223 *~ 1;
#X obj 276 309 throw~ outL;
#X obj 174 309 throw~ outR;
#X obj 370 178 rev3~ 100 90 3000 20;
#X obj 143 121 lop~ 5;
#X obj 241 150 -~ 1;
#X obj 191 269 *~;
#X obj 302 235 *~;
#X obj 241 172 abs~;
#X obj 383 59 catch~ samp_voice_out;
#X obj 397 94 *~ 1;
#X text 376 19 get the output from voices and feed it into rev3~ \,
a fun reverb included with Pd;
#X obj 142 68 r knob3;
#X obj 211 44 r seq3-1-k3;
#X connect 0 0 6 1;
#X connect 3 0 0 0;
#X connect 3 1 0 0;
#X connect 3 2 0 0;
#X connect 3 3 0 0;
#X connect 4 0 5 0;
#X connect 4 0 6 0;
#X connect 5 0 8 0;
#X connect 6 0 1 0;
#X connect 6 0 2 0;
#X connect 7 0 1 0;
#X connect 7 0 2 0;
#X connect 8 0 7 0;
#X connect 9 0 10 0;
#X connect 10 0 3 0;
#X connect 10 0 3 1;
#X connect 10 0 7 1;
#X connect 12 0 4 0;
#X connect 13 0 4 0;
#X restore 1020 702 pd output and reverb;
#N canvas 651 315 746 456 crown 0;
#X obj 46 105 table crown 22050;
#X msg 51 53 \; crown read window.txt;
#X obj 50 30 loadbang;
#N canvas 470 221 1354 823 thing 0;
#X floatatom 815 625 5 0 0 0 - - -;
#X floatatom 984 643 5 0 0 0 - - -;
#X obj 1019 611 + 1;
#X obj 984 525 t b b;
#X obj 815 583 *;
#X obj 984 458 until;
#X obj 984 612 f;
#X obj 815 561 f;
#X msg 928 459 0;
#X obj 800 367 t b b;
#X obj 800 300 until;
#X msg 800 389 1;
#X obj 881 695 tabwrite crown;
#X obj 815 605 *;
#X msg 993 426 500;
#X msg 809 268 21050;
#X obj 852 559 + 0.002003;
#X connect 0 0 12 0;
#X connect 1 0 12 1;
#X connect 2 0 6 1;
#X connect 3 0 7 0;
#X connect 3 1 6 0;
#X connect 4 0 13 0;
#X connect 4 0 13 1;
#X connect 5 0 3 0;
#X connect 6 0 2 0;
#X connect 6 0 1 0;
#X connect 7 0 4 0;
#X connect 7 0 4 1;
#X connect 7 0 16 0;
#X connect 8 0 7 0;
#X connect 8 0 6 0;
#X connect 9 0 11 0;
#X connect 9 1 6 0;
#X connect 10 0 9 0;
#X connect 11 0 12 0;
#X connect 13 0 0 0;
#X connect 14 0 5 0;
#X connect 15 0 10 0;
#X connect 16 0 7 1;
#X restore 68 147 pd thing;
#X text 128 19 a window for clickless looping;
#X connect 2 0 1 0;
#X restore 1021 673 pd crown window;
#X text 1028 646 clickless looping;
#X obj 1037 226 s ramp-time;
#X obj 990 416 i;
#X obj 995 224 i;
#X obj 990 391 * 100;
#X text 1015 604 PlAY THE SAMPLES!;
#X obj 995 189 * 100;
#N canvas 13 50 450 300 CG-PdLibrary-Local 0;
#X obj 502 35 r cgSc-1-slots;
#X obj 60 98 declare -path CG-Pd-Library-Local/sequencer;
#X obj 58 130 declare -path CG-Pd-Library-Local/externals;
#X obj 59 165 declare -path CG-Pd-Library-Local/metronome;
#X restore 702 17 pd CG-PdLibrary-Local;
#N canvas 12 50 450 300 CG-PdLibrary-SDcard 0;
#X obj 60 98 declare -path /sdcard/CG-Pd-Library/sequencer;
#X obj 58 130 declare -path /sdcard/CG-Pd-Library/externals;
#X obj 59 165 declare -path /sdcard/CG-Pd-Library/metronome;
#X obj 502 35 r cgSc-1-slots;
#X restore 702 46 pd CG-PdLibrary-SDcard;
#X obj 574 179 array define notes-from-poly 8;
#X obj 572 375 array define notes-squashed 8;
#X obj 561 555 array define notes-decreasing 8;
#X obj 576 685 array define notes-increasing 8;
#X obj 995 120 r knob1;
#X msg 995 300 \; screenLine1 1: Ramp \$1 ms;
#X obj 990 343 r knob3;
#X msg 990 472 \; screenLine3 3: Reverb \$1 %;
#X obj 990 441 shortcut-mute-f 1;
#X obj 995 269 shortcut-mute-f 1;
#X obj 198 101 r aux;
#X obj 378 226 r cgSc-1-slots;
#X obj 335 100 r \$0-reprint-port;
#X obj 198 132 shortcut 1 1, f 20;
#N canvas 988 77 776 618 beat-clock 0;
#X obj 541 145 r cgSc-1-6;
#X obj 541 167 sel 0;
#X obj 573 191 t b;
#X obj 573 215 tgl 15 0 empty empty empty 17 7 0 10 -262144 -1 -1 0
1;
#X obj 573 235 sel 0 1;
#X obj 579 303 s cgSc-1-6label;
#X msg 596 257 Div:16th;
#X msg 573 278 Div:8th;
#X obj 622 159 loadbang;
#X msg 622 181 1;
#X obj 216 65 r beat-clock;
#X obj 470 414 outlet;
#X obj 189 307 spigot;
#X obj 338 289 spigot;
#X obj 472 208 t f f;
#X obj 504 237 == 0;
#X obj 189 194 t f f f, f 36;
#X obj 189 239 sel 0 90 180 270;
#X obj 313 240 sel 0 180;
#X obj 239 539 s arp-tick;
#X obj 239 489 t b b;
#X obj 369 540 outlet;
#X connect 0 0 1 0;
#X connect 1 1 2 0;
#X connect 2 0 3 0;
#X connect 3 0 4 0;
#X connect 3 0 14 0;
#X connect 4 0 7 0;
#X connect 4 1 6 0;
#X connect 6 0 5 0;
#X connect 7 0 5 0;
#X connect 8 0 9 0;
#X connect 9 0 3 0;
#X connect 10 0 16 0;
#X connect 12 0 20 0;
#X connect 13 0 20 0;
#X connect 14 0 12 1;
#X connect 14 1 15 0;
#X connect 15 0 13 1;
#X connect 16 0 17 0;
#X connect 16 1 18 0;
#X connect 16 2 11 0;
#X connect 17 0 12 0;
#X connect 17 1 12 0;
#X connect 17 2 12 0;
#X connect 17 3 12 0;
#X connect 18 0 13 0;
#X connect 18 1 13 0;
#X connect 20 0 19 0;
#X connect 20 1 21 0;
#X restore 380 139 pd beat-clock;
#X obj 497 114 r seq3-1-actions;
#X obj 496 139 sel 2;
#N canvas 12 50 650 644 clock-out 0;
#X obj 252 410 midiout;
#X msg 198 286 250;
#X msg 329 288 252;
#X text 227 237 clock through and out;
#X obj 389 215 t b;
#X obj 131 205 spigot 0;
#X obj 131 237 t b b;
#X msg 201 225 0;
#X msg 327 207 1;
#X obj 327 185 sel 1 4 6;
#X obj 327 164 r seq3-1-actions;
#X obj 131 177 r seq3-1-playing;
#X connect 1 0 0 0;
#X connect 2 0 0 0;
#X connect 4 0 2 0;
#X connect 5 0 6 0;
#X connect 6 0 1 0;
#X connect 6 1 7 0;
#X connect 7 0 5 1;
#X connect 8 0 5 1;
#X connect 9 0 8 0;
#X connect 9 3 4 0;
#X connect 10 0 9 0;
#X connect 11 0 5 0;
#X restore 902 21 pd clock-out messages;
#N canvas 47 93 885 702 wait-for-first-sixteenth 0;
#X obj 53 53 inlet;
#X text 68 26 notes;
#X obj 249 52 inlet;
#X text 305 51 sixteenth notes;
#X obj 429 48 inlet;
#X text 485 47 arm;
#X obj 248 248 spigot 0;
#X msg 92 454 1;
#X msg 334 475 0;
#X obj 155 637 outlet;
#X msg 486 377 0;
#X obj 419 106 t b b b, f 15;
#X msg 441 139 1;
#X msg 351 294 0;
#N canvas 506 258 450 300 once 0;
#X obj 102 42 inlet;
#X obj 211 67 inlet;
#X obj 118 215 outlet;
#X obj 114 137 == 1;
#X obj 114 115 i 0;
#X obj 114 162 sel 1;
#X obj 114 184 t b b;
#X msg 166 152 0;
#X msg 203 92 1;
#X text 260 68 reset;
#X obj 100 79 bang;
#X connect 0 0 10 0;
#X connect 1 0 8 0;
#X connect 3 0 5 0;
#X connect 4 0 3 0;
#X connect 5 0 6 0;
#X connect 6 0 2 0;
#X connect 6 1 7 0;
#X connect 7 0 4 1;
#X connect 8 0 4 1;
#X connect 10 0 4 0;
#X restore 301 143 pd once;
#X msg 301 193 1;
#X text 394 247 upon arming the sequencer \, we wait for the first
arp tick (sixteenth note) to start the recording. after that \, notes
pass through normally.;
#X obj 141 154 stripnote;
#X obj 53 89 t a a a, f 13;
#X obj 141 176 t b;
#X obj 162 464 bag;
#X obj 162 486 pack 0 100;
#X obj 172 340 t b b b b, f 18;
#X msg 200 399 flush;
#X obj 53 519 spigot 1;
#X obj 182 526 spigot 0, f 31;
#X connect 0 0 18 0;
#X connect 2 0 6 0;
#X connect 4 0 11 0;
#X connect 6 0 22 0;
#X connect 7 0 24 1;
#X connect 8 0 25 1;
#X connect 10 0 24 1;
#X connect 11 0 14 1;
#X connect 11 1 12 0;
#X connect 11 2 10 0;
#X connect 12 0 25 1;
#X connect 13 0 6 1;
#X connect 14 0 15 0;
#X connect 15 0 6 1;
#X connect 17 0 19 0;
#X connect 18 0 24 0;
#X connect 18 1 20 0;
#X connect 18 2 17 0;
#X connect 19 0 14 0;
#X connect 20 0 21 0;
#X connect 21 0 25 0;
#X connect 22 0 7 0;
#X connect 22 1 8 0;
#X connect 22 2 23 0;
#X connect 22 3 13 0;
#X connect 23 0 20 0;
#X connect 24 0 9 0;
#X connect 25 0 9 0;
#X restore 198 172 pd wait-for-first-sixteenth - - - - - - - -;
#X obj 1292 144 f;
#X obj 1292 211 i;
#X obj 1292 279 shortcut-mute-f 1;
#X obj 1292 167 * 240;
#X obj 1292 189 + 20;
#X msg 1292 311 4: Internal BPM: \$1;
#X obj 1292 339 s screenLine4;
#X obj 1292 88 r knob4;
#X obj 1303 113 r seq3-1-k4;
#X obj 1008 143 r seq3-1-k1;
#X obj 1002 366 r seq3-1-k3;
#X obj 1034 764 r seq3-1-led;
#X obj 1034 786 s led;
#N canvas 19 51 625 625 metro-here 0;
#X obj 369 147 r seq3-1-actions, f 19;
#X obj 312 345 f;
#X msg 407 250 0;
#X obj 439 250 t b b;
#X msg 445 280 1;
#X obj 312 292 del 1;
#X obj 54 303 s beat-clock;
#X obj 28 68 loadbang;
#X msg 53 121 1;
#X obj 203 353 list, f 7;
#X obj 203 375 route 69;
#X obj 203 281 t b a;
#X msg 203 323 69;
#X obj 177 221 pack, f 10;
#X obj 212 189 t b a;
#X obj 319 117 s seq3-1-quan;
#X obj 400 338 f;
#X obj 203 397 spigot 1;
#X obj 312 367 spigot 1, f 14;
#X obj 296 472 r cgSc-1-slots;
#X obj 296 498 + 1;
#X obj 203 552 print-line5 1, f 16;
#X obj 319 88 r metro-state;
#X obj 486 346 loadbang;
#X obj 296 519 f;
#X obj 486 388 t b b;
#X obj 312 428 f;
#X obj 486 367 del 1;
#X obj 407 179 r cgSc-1-mute-print;
#X obj 407 202 sel 1;
#X obj 68 14 inlet;
#X obj 207 81 s bpm;
#X obj 55 151 metronome360 1, f 18;
#X connect 0 0 1 0;
#X connect 1 0 18 0;
#X connect 2 0 16 0;
#X connect 3 0 5 0;
#X connect 3 1 4 0;
#X connect 4 0 16 0;
#X connect 5 0 1 0;
#X connect 5 0 12 0;
#X connect 7 0 8 0;
#X connect 8 0 32 0;
#X connect 9 0 10 0;
#X connect 10 0 17 0;
#X connect 11 0 12 0;
#X connect 11 1 9 1;
#X connect 12 0 9 0;
#X connect 13 0 11 0;
#X connect 14 0 13 0;
#X connect 14 1 13 1;
#X connect 16 0 17 1;
#X connect 16 0 18 1;
#X connect 17 0 21 0;
#X connect 18 0 26 0;
#X connect 19 0 20 0;
#X connect 20 0 24 0;
#X connect 22 0 15 0;
#X connect 23 0 27 0;
#X connect 24 0 21 2;
#X connect 25 0 26 0;
#X connect 25 1 24 0;
#X connect 26 0 21 1;
#X connect 27 0 25 0;
#X connect 28 0 29 0;
#X connect 29 0 2 0;
#X connect 29 1 3 0;
#X connect 30 0 31 0;
#X connect 30 0 32 1;
#X connect 32 0 6 0;
#X connect 32 1 14 0;
#X connect 32 2 13 0;
#X restore 1336 247 pd metro-here;
#N canvas 787 330 860 595 slot-saver-1 0;
#X obj 167 38 r cgSc-1-slots;
#X obj 30 68 loadbang;
#X msg 30 140 0;
#X obj 30 161 tabread \$0-slot;
#X obj 199 225 array define \$0-slot;
#X obj 30 110 t b b;
#X msg 199 138 read slot.txt;
#X msg 243 186 write slot.txt;
#X obj 243 160 r saveState;
#X obj 167 58 t a b;
#X msg 220 84 0;
#X obj 167 107 tabwrite \$0-slot;
#X obj 30 185 s cgSc-1-slots;
#X connect 0 0 9 0;
#X connect 1 0 5 0;
#X connect 2 0 3 0;
#X connect 3 0 12 0;
#X connect 5 0 2 0;
#X connect 5 1 6 0;
#X connect 6 0 4 0;
#X connect 7 0 4 0;
#X connect 8 0 7 0;
#X connect 9 0 11 0;
#X connect 9 1 10 0;
#X connect 10 0 11 1;
#X restore 1332 199 pd slot-saver-1;
#N canvas 594 50 1124 789 seq3-5option-control 0;
#X obj 139 278 outlet;
#X obj 65 121 t b;
#X msg 65 143 2;
#X obj 298 126 t b;
#X msg 298 148 3;
#X text 437 5 when aux is pressed after recording starts immediatley
end the rec and play the loop;
#X obj 170 70 sel 0;
#X obj 202 94 t b;
#X msg 202 116 1;
#X obj 33 66 r cgSc-1-2;
#X obj 171 48 r cgSc-1-1;
#X obj 33 88 sel 0;
#X obj 266 99 sel 0;
#X obj 317 272 r seq3-1-actions;
#X obj 317 294 sel 1, f 12;
#X obj 398 327 t b, f 4;
#X obj 317 445 s cgSc-1-1label;
#X obj 507 308 r seq3-1-actions;
#X obj 588 353 t b, f 4;
#X obj 507 329 sel 2 3, f 12;
#X obj 978 320 t b, f 4;
#X msg 978 355 Latch:Off;
#X msg 896 355 Latch:On;
#X obj 507 441 s cgSc-1-2label;
#X text 521 279 print to the shortcut menu;
#X obj 378 141 f 0;
#X obj 130 0 r midi-start;
#X msg 130 22 4;
#X obj 373 105 r midi-stop;
#X obj 507 125 t b;
#X obj 475 98 sel 0;
#X msg 507 147 5;
#X obj 192 487 r seq3-1-actions;
#X obj 273 532 t b, f 4;
#X obj 192 508 sel 5, f 12;
#X obj 317 373 f;
#X msg 317 403 \$1Seq:Stop;
#X obj 398 372 f;
#X msg 398 402 \$1Seq:Play;
#X msg 507 399 \$1Rec:Armd;
#X msg 588 397 \$1Rec:On;
#X msg 659 398 \$1Rec:Off;
#X obj 507 374 f;
#X obj 582 373 f;
#X obj 649 370 f;
#X obj 273 554 f;
#X obj 192 560 f;
#X msg 192 607 \$1Dub:On;
#X obj 201 286 r cgSc-1-slots;
#X obj 201 329 t b f f;
#X obj 166 439 s seq3-1-actions;
#X obj 166 415 v seq3-1-state;
#X obj 201 309 + 1;
#X obj 668 299 + 1;
#X obj 668 251 r cgSc-1-slots;
#X obj 321 507 + 1;
#X obj 321 483 r cgSc-1-slots;
#X obj 559 76 sel 1;
#X obj 612 80 r seq3-1-actions;
#X obj 559 174 t b b;
#X msg 640 152 0;
#X obj 559 152 spigot 0;
#X msg 612 129 1;
#X msg 559 196 1;
#X obj 192 650 s cgSc-1-3label;
#X obj 475 71 r cgSc-1-3;
#X obj 559 52 r cgSc-1-aux;
#X obj 896 398 s cgSc-1-5label;
#X obj 267 72 r cgSc-1-5;
#X obj 358 53 t b;
#X obj 326 26 sel 0;
#X obj 326 2 r cgSc-1-4;
#X msg 358 75 6;
#X obj 465 480 r seq3-1-actions;
#X obj 507 558 f;
#X obj 584 501 + 1;
#X obj 584 477 r cgSc-1-slots;
#X obj 465 643 s cgSc-1-4label;
#X obj 612 104 sel 3, f 12;
#X msg 273 607 \$1Dub:Off;
#X obj 465 501 sel 6, f 10;
#X obj 532 526 t b;
#X obj 465 585 spigot 1;
#X obj 552 582 spigot 0;
#X obj 675 510 r seq3-1-actions;
#X obj 675 532 sel 3;
#X obj 591 537 ==;
#X obj 637 564 f;
#X msg 637 533 1;
#X msg 708 615 0;
#X msg 552 607 \$1:Undo;
#X msg 465 610 \$1:Undid;
#X obj 465 523 t b b;
#X obj 31 189 loadbang;
#X msg 31 211 0;
#X obj 23 341 r init-1-slot;
#X obj 23 363 s cgSc-1-slots;
#X obj 896 255 r seq3-1-togLatch;
#X obj 896 296 sel 1, f 12;
#X connect 1 0 2 0;
#X connect 2 0 0 0;
#X connect 3 0 4 0;
#X connect 4 0 0 0;
#X connect 6 1 7 0;
#X connect 7 0 8 0;
#X connect 8 0 0 0;
#X connect 9 0 11 0;
#X connect 10 0 6 0;
#X connect 11 1 1 0;
#X connect 12 1 3 0;
#X connect 13 0 14 0;
#X connect 14 0 35 0;
#X connect 14 1 15 0;
#X connect 15 0 37 0;
#X connect 17 0 19 0;
#X connect 18 0 44 0;
#X connect 19 0 42 0;
#X connect 19 1 43 0;
#X connect 19 2 18 0;
#X connect 20 0 21 0;
#X connect 21 0 67 0;
#X connect 22 0 67 0;
#X connect 25 0 0 0;
#X connect 26 0 27 0;
#X connect 27 0 0 0;
#X connect 28 0 25 0;
#X connect 29 0 31 0;
#X connect 30 1 29 0;
#X connect 31 0 0 0;
#X connect 32 0 34 0;
#X connect 33 0 45 0;
#X connect 34 0 46 0;
#X connect 34 1 33 0;
#X connect 35 0 36 0;
#X connect 36 0 16 0;
#X connect 37 0 38 0;
#X connect 38 0 16 0;
#X connect 39 0 23 0;
#X connect 40 0 23 0;
#X connect 41 0 23 0;
#X connect 42 0 39 0;
#X connect 43 0 40 0;
#X connect 44 0 41 0;
#X connect 45 0 79 0;
#X connect 46 0 47 0;
#X connect 47 0 64 0;
#X connect 48 0 52 0;
#X connect 49 0 51 0;
#X connect 49 1 35 1;
#X connect 49 2 37 1;
#X connect 51 0 50 0;
#X connect 52 0 49 0;
#X connect 53 0 44 1;
#X connect 53 0 43 1;
#X connect 53 0 42 1;
#X connect 54 0 53 0;
#X connect 55 0 45 1;
#X connect 55 0 46 1;
#X connect 56 0 55 0;
#X connect 57 0 61 0;
#X connect 58 0 78 0;
#X connect 59 0 63 0;
#X connect 59 1 60 0;
#X connect 60 0 61 1;
#X connect 61 0 59 0;
#X connect 62 0 61 1;
#X connect 63 0 0 0;
#X connect 65 0 30 0;
#X connect 66 0 57 0;
#X connect 68 0 12 0;
#X connect 69 0 72 0;
#X connect 70 1 69 0;
#X connect 71 0 70 0;
#X connect 72 0 0 0;
#X connect 73 0 80 0;
#X connect 74 0 82 0;
#X connect 74 0 83 0;
#X connect 75 0 74 1;
#X connect 76 0 75 0;
#X connect 78 0 62 0;
#X connect 79 0 64 0;
#X connect 80 0 92 0;
#X connect 80 1 81 0;
#X connect 81 0 74 0;
#X connect 82 0 91 0;
#X connect 83 0 90 0;
#X connect 84 0 85 0;
#X connect 85 0 88 0;
#X connect 86 0 82 1;
#X connect 87 0 86 0;
#X connect 87 0 83 1;
#X connect 88 0 87 0;
#X connect 89 0 87 0;
#X connect 90 0 77 0;
#X connect 91 0 77 0;
#X connect 92 0 74 0;
#X connect 92 1 89 0;
#X connect 93 0 94 0;
#X connect 94 0 0 0;
#X connect 95 0 96 0;
#X connect 97 0 98 0;
#X connect 98 0 22 0;
#X connect 98 1 20 0;
#X restore 278 202 pd seq3-5option-control;
#X obj 197 274 seq3 1 1 ../../sequences 1 0 1, f 39;
#X connect 0 0 10 0;
#X connect 0 1 10 1;
#X connect 1 0 12 0;
#X connect 2 0 20 0;
#X connect 2 1 17 1;
#X connect 7 0 9 0;
#X connect 10 0 1 0;
#X connect 10 1 1 1;
#X connect 10 2 1 2;
#X connect 12 0 2 0;
#X connect 20 0 11 0;
#X connect 20 1 3 0;
#X connect 20 2 14 0;
#X connect 20 3 23 0;
#X connect 20 4 17 0;
#X connect 21 0 7 0;
#X connect 22 0 8 0;
#X connect 32 0 47 0;
#X connect 33 0 48 0;
#X connect 34 0 32 0;
#X connect 36 0 33 0;
#X connect 36 0 31 0;
#X connect 43 0 36 0;
#X connect 45 0 34 0;
#X connect 47 0 46 0;
#X connect 48 0 44 0;
#X connect 49 0 52 0;
#X connect 50 0 74 2;
#X connect 51 0 52 1;
#X connect 52 0 57 0;
#X connect 53 0 57 1;
#X connect 53 1 74 3;
#X connect 54 0 55 0;
#X connect 55 0 57 2;
#X connect 57 0 74 0;
#X connect 58 0 61 0;
#X connect 59 0 60 0;
#X connect 59 0 71 0;
#X connect 60 0 63 0;
#X connect 61 0 62 0;
#X connect 62 0 59 0;
#X connect 63 0 64 0;
#X connect 65 0 58 0;
#X connect 66 0 58 0;
#X connect 67 0 36 0;
#X connect 68 0 34 0;
#X connect 69 0 70 0;
#X connect 73 0 74 1;
#X connect 74 0 0 0;
