#N canvas 86 63 1667 858 10;
#X obj 148 156 r notes;
#X obj 148 272 unpack 0 0;
#X obj 148 332 pack 0 0 0;
#N canvas 0 50 450 278 (subpatch) 0;
#X array notes-from-poly 8 float 2;
#X coords 0 127 8 0 200 140 1 0 0;
#X restore 526 76 graph;
#X obj 143 411 unpack;
#N canvas 0 50 450 278 (subpatch) 0;
#X array notes-squashed 8 float 3;
#A 0 0 0 0 0 0 0 0 0;
#X coords 0 127 8 0 200 140 1 0 0;
#X restore 525 258 graph;
#N canvas 0 50 450 278 (subpatch) 0;
#X array notes-increasing 8 float 3;
#A 0 72 76 79 0 0 0 0 0;
#X coords 0 127 8 0 200 140 1 0 0;
#X restore 528 634 graph;
#X obj 102 550 s reorder;
#N canvas 133 50 826 891 array-sort 0;
#X obj 263 111 until;
#X obj 263 153 f;
#X obj 296 154 + 1, f 4;
#X msg 321 91 0, f 2;
#X obj 296 21 bng 15 250 50 0 empty empty empty 17 7 0 10 -262144 -1
-1;
#X obj 312 267 f;
#X obj 264 232 t f b;
#X obj 262 182 t f f;
#X obj 249 452 f;
#X floatatom 240 515 5 0 0 0 - - -, f 5;
#X obj 306 399 sel 1;
#X obj 214 485 f;
#X obj 173 537 f;
#X obj 213 553 t b b;
#X obj 323 560 t b f;
#X obj 250 580 f;
#X obj 343 -90 until;
#X obj 344 -46 f;
#X obj 376 -47 + 1, f 4;
#X msg 401 -110 0, f 2;
#X obj 345 -139 t b b;
#X obj 329 -11 t b f;
#X obj 214 -206 r reorder;
#X obj 252 48 t b b b b;
#X msg 314 585 0, f 2;
#X msg 357 89 0;
#X obj 217 333 expr if ($f1 > $f2 \, $f1 \, $f2) \; if ($f1 > $f2 \,
1 \, 0);
#X msg 344 -115 8, f 2;
#X msg 263 83 8, f 2;
#X obj 170 -206 bng 15 250 50 0 empty empty empty 17 7 0 10 -262144
-1 -1;
#X obj 264 210 tabread notes-squashed;
#X obj 314 621 tabwrite notes-squashed;
#X obj 139 648 tabwrite notes-decreasing;
#X text 419 137 sort array a into b. a gets clobbered in the process
probably a much better way to do this ...;
#X obj 204 -173 t b b b;
#X connect 0 0 1 0;
#X connect 1 0 2 0;
#X connect 1 0 7 0;
#X connect 2 0 1 1;
#X connect 3 0 1 1;
#X connect 4 0 23 0;
#X connect 5 0 26 1;
#X connect 6 0 26 0;
#X connect 6 1 5 0;
#X connect 7 0 30 0;
#X connect 7 1 8 1;
#X connect 8 0 11 1;
#X connect 9 0 14 0;
#X connect 10 0 8 0;
#X connect 11 0 9 0;
#X connect 11 0 13 0;
#X connect 12 0 32 0;
#X connect 13 0 12 0;
#X connect 13 1 15 0;
#X connect 14 0 24 0;
#X connect 14 1 31 1;
#X connect 15 0 32 1;
#X connect 16 0 17 0;
#X connect 17 0 18 0;
#X connect 17 0 21 0;
#X connect 18 0 17 1;
#X connect 19 0 17 1;
#X connect 20 0 27 0;
#X connect 20 1 19 0;
#X connect 21 0 4 0;
#X connect 21 1 15 1;
#X connect 22 0 34 0;
#X connect 23 0 11 0;
#X connect 23 1 28 0;
#X connect 23 2 3 0;
#X connect 23 3 25 0;
#X connect 24 0 31 0;
#X connect 25 0 5 1;
#X connect 26 0 5 1;
#X connect 26 0 12 1;
#X connect 26 1 10 0;
#X connect 27 0 16 0;
#X connect 28 0 0 0;
#X connect 29 0 34 0;
#X connect 30 0 6 0;
#X connect 34 2 20 0;
#X restore 412 496 pd array-sort;
#X text 747 139 array1 is raw data from poly (notes with 0 velocity
are given 0 pitch), f 15;
#X text 742 513 here are the notes sorted..., f 11;
#X floatatom -28 143 5 0 0 0 - - -, f 5;
#N canvas 0 50 450 278 (subpatch) 0;
#X array notes-decreasing 8 float 2;
#X coords 0 127 8 0 200 140 1 0 0;
#X restore 526 451 graph;
#N canvas 167 50 726 731 increasing 0;
#X obj 156 260 until;
#X obj 157 304 f;
#X obj 189 303 + 1, f 4;
#X msg 214 240 0, f 2;
#X obj 155 236 f 0;
#X obj 156 357 - 0;
#X obj 157 408 abs;
#X obj 157 326 t f f;
#X obj 266 471 f;
#X obj 156 469 t f b;
#X obj 320 197 r num-down;
#X obj 156 379 + 1;
#X obj 416 331 until;
#X obj 416 373 f;
#X obj 449 374 + 1, f 4;
#X msg 474 311 0, f 2;
#X obj 416 276 t b b;
#X obj 424 398 t b f;
#X msg 415 423 0, f 2;
#X msg 416 303 8, f 2;
#X obj 155 197 t b b b;
#X obj 156 437 tabread notes-decreasing;
#X obj 152 508 tabwrite notes-increasing;
#X obj 413 448 tabwrite notes-increasing;
#X obj 153 67 inlet;
#X connect 0 0 1 0;
#X connect 1 0 2 0;
#X connect 1 0 7 0;
#X connect 2 0 1 1;
#X connect 3 0 1 1;
#X connect 4 0 0 0;
#X connect 5 0 11 0;
#X connect 6 0 21 0;
#X connect 7 0 5 0;
#X connect 7 1 8 1;
#X connect 8 0 22 1;
#X connect 9 0 22 0;
#X connect 9 1 8 0;
#X connect 10 0 4 1;
#X connect 10 0 5 1;
#X connect 11 0 6 0;
#X connect 12 0 13 0;
#X connect 13 0 14 0;
#X connect 13 0 17 0;
#X connect 14 0 13 1;
#X connect 15 0 13 1;
#X connect 16 0 19 0;
#X connect 16 1 15 0;
#X connect 17 0 18 0;
#X connect 17 1 23 1;
#X connect 18 0 23 0;
#X connect 19 0 12 0;
#X connect 20 0 4 0;
#X connect 20 1 3 0;
#X connect 20 2 16 0;
#X connect 21 0 9 0;
#X connect 24 0 20 0;
#X restore 414 703 pd increasing;
#X obj -28 162 s num-down;
#X obj 148 297 poly 8 1, f 10;
#X obj 42 500 s others;
#N canvas 4 77 588 574 format_for_array 0;
#X obj 111 44 inlet;
#X obj 102 128 f;
#X obj 144 151 sel 0;
#X msg 121 188 0;
#X obj 167 181 t b b;
#X obj 137 126 f;
#X obj 79 268 t f b;
#X obj 75 336 pack 0 0;
#X obj 85 75 unpack 0 0 0;
#X obj 41 132 t b f;
#X obj 117 304 f;
#X obj 78 389 outlet;
#X obj 133 274 - 1;
#X text 169 280 array index starts at 0 \, poly index starts at 1;
#X text 223 150 if the velocity is > 0 \, outputs note number. If =
0 \, it outputs 0 for note number;
#X connect 0 0 8 0;
#X connect 1 0 6 0;
#X connect 2 0 3 0;
#X connect 2 1 4 0;
#X connect 3 0 6 0;
#X connect 4 0 1 0;
#X connect 5 0 2 0;
#X connect 6 0 7 0;
#X connect 6 1 10 0;
#X connect 7 0 11 0;
#X connect 8 0 9 0;
#X connect 8 1 1 1;
#X connect 8 2 5 1;
#X connect 9 0 5 0;
#X connect 9 1 12 0;
#X connect 10 0 7 1;
#X connect 12 0 10 1;
#X restore 148 360 pd format_for_array;
#N canvas 7 50 1000 647 array-copy 0;
#X obj 228 194 until;
#X obj 228 236 f;
#X obj 261 237 + 1, f 4;
#X msg 286 174 0, f 2;
#X obj 227 98 bng 15 250 50 0 empty empty empty 17 7 0 10 -262144 -1
-1;
#X obj 406 272 until;
#X obj 406 314 f;
#X obj 439 315 + 1, f 4;
#X msg 464 252 0, f 2;
#X obj 406 217 t b b;
#X obj 414 339 t b f;
#X msg 405 364 0, f 2;
#X obj 227 121 t b b b;
#X msg 228 166 8, f 2;
#X msg 406 244 8, f 2;
#X text 324 97 this removes 0 elements (or actually just moves the
following elements over 1 place);
#X text 508 296 first zero out the destination array;
#X obj 228 258 t f f;
#X obj 227 75 r copy;
#X obj 408 385 tabwrite notes-squashed;
#X obj 229 297 tabread notes-from-poly;
#X obj 247 410 tabwrite notes-squashed;
#X connect 0 0 1 0;
#X connect 1 0 2 0;
#X connect 1 0 17 0;
#X connect 2 0 1 1;
#X connect 3 0 1 1;
#X connect 4 0 12 0;
#X connect 5 0 6 0;
#X connect 6 0 7 0;
#X connect 6 0 10 0;
#X connect 7 0 6 1;
#X connect 8 0 6 1;
#X connect 9 0 14 0;
#X connect 9 1 8 0;
#X connect 10 0 11 0;
#X connect 10 1 19 1;
#X connect 11 0 19 0;
#X connect 12 0 13 0;
#X connect 12 1 3 0;
#X connect 12 2 9 0;
#X connect 13 0 0 0;
#X connect 14 0 5 0;
#X connect 17 0 20 0;
#X connect 17 1 21 1;
#X connect 18 0 4 0;
#X connect 20 0 21 0;
#X restore 409 320 pd array-copy;
#X obj 153 516 s copy;
#X text 739 706 then increasing;
#X text 232 330 first put up to 8 notes into array, f 17;
#X obj 201 471 tabwrite notes-from-poly;
#N canvas 261 74 1491 860 arp 1;
#X obj 36 170 master-metronome;
#X obj 36 135 tgl 15 0 empty empty empty 17 7 0 10 -262144 -1 -1 1
1;
#X obj 36 68 loadbang;
#X msg 36 100 1;
#X obj 145 84 r knob1;
#X obj 145 132 + 10;
#X floatatom 713 261 5 0 0 0 - - -, f 5;
#N canvas 40 124 1242 820 double-double 0;
#X obj 410 225 r num-down;
#X obj 307 345 bng 15 250 50 0 empty empty empty 17 7 0 10 -262144
-1 -1;
#X floatatom 422 282 5 0 0 0 - - -, f 5;
#X obj 420 255 r num-down;
#X floatatom 484 494 5 0 0 0 - - -, f 5;
#X obj 306 623 + 0;
#X obj 485 513 * 12;
#X obj 298 304 spigot;
#X obj 268 79 r sixteenths;
#X obj 234 516 tabread notes-increasing;
#X obj 306 659 - 12;
#X obj 378 338 sel 0;
#X obj 396 437 bng 15 250 50 0 empty empty empty 17 7 0 10 -262144
-1 -1;
#X obj 422 301 t f f;
#X msg 506 462 0;
#X obj 247 467 % 1;
#X obj 255 394 counter-up 0;
#X obj 480 427 counter-up 2;
#X obj 782 179 r num-down;
#X obj 679 299 bng 15 250 50 0 empty empty empty 17 7 0 10 -262144
-1 -1;
#X floatatom 599 447 5 0 0 0 - - -, f 5;
#X floatatom 794 236 5 0 0 0 - - -, f 5;
#X obj 792 209 r num-down;
#X floatatom 856 448 5 0 0 0 - - -, f 5;
#X obj 678 577 + 0;
#X obj 857 467 * 12;
#X obj 670 258 spigot;
#X obj 606 470 tabread notes-increasing;
#X obj 671 636 - 12;
#X obj 750 292 sel 0;
#X obj 768 391 bng 15 250 50 0 empty empty empty 17 7 0 10 -262144
-1 -1;
#X obj 794 255 t f f;
#X msg 878 416 0;
#X obj 619 421 % 1;
#X obj 627 348 counter-up 0;
#X obj 852 385 counter-up 2;
#X obj 624 67 r eighths;
#X obj 487 756 outlet;
#X obj 327 176 spigot 0;
#X obj 592 158 spigot 0;
#X obj 459 91 inlet;
#X connect 0 0 7 1;
#X connect 1 0 16 0;
#X connect 2 0 13 0;
#X connect 3 0 2 0;
#X connect 4 0 6 0;
#X connect 5 0 10 0;
#X connect 6 0 5 1;
#X connect 7 0 1 0;
#X connect 8 0 38 0;
#X connect 9 0 5 0;
#X connect 10 0 37 0;
#X connect 11 0 14 0;
#X connect 11 0 16 1;
#X connect 11 0 17 1;
#X connect 12 0 17 0;
#X connect 13 0 11 0;
#X connect 13 0 15 1;
#X connect 13 1 16 2;
#X connect 14 0 4 0;
#X connect 15 0 9 0;
#X connect 16 0 15 0;
#X connect 16 1 12 0;
#X connect 17 0 4 0;
#X connect 18 0 26 1;
#X connect 19 0 34 0;
#X connect 20 0 27 0;
#X connect 21 0 31 0;
#X connect 22 0 21 0;
#X connect 23 0 25 0;
#X connect 24 0 28 0;
#X connect 25 0 24 1;
#X connect 26 0 19 0;
#X connect 27 0 24 0;
#X connect 28 0 37 0;
#X connect 29 0 32 0;
#X connect 29 0 34 1;
#X connect 29 0 35 1;
#X connect 30 0 35 0;
#X connect 31 0 29 0;
#X connect 31 0 33 1;
#X connect 31 1 34 2;
#X connect 32 0 23 0;
#X connect 33 0 20 0;
#X connect 34 0 33 0;
#X connect 34 1 30 0;
#X connect 35 0 23 0;
#X connect 36 0 39 0;
#X connect 38 0 7 0;
#X connect 39 0 26 0;
#X connect 40 0 38 1;
#X connect 40 0 39 1;
#X restore 990 652 pd double-double;
#X obj 713 240 hradio 15 1 0 9 empty empty empty 0 -8 0 10 -262144
-1 -1 7;
#X obj 713 281 t f b;
#X msg 744 585 0;
#X msg 624 356 1;
#X msg 695 354 1;
#X msg 757 353 1;
#X msg 815 351 1;
#N canvas 22 141 1242 729 double-randoms 0;
#X obj 410 225 r num-down;
#X obj 307 345 bng 15 250 50 0 empty empty empty 17 7 0 10 -262144
-1 -1;
#X floatatom 422 282 5 0 0 0 - - -, f 5;
#X obj 420 255 r num-down;
#X floatatom 484 494 5 0 0 0 - - -, f 5;
#X obj 306 623 + 0;
#X obj 485 513 * 12;
#X obj 298 304 spigot;
#X obj 268 79 r sixteenths;
#X obj 234 516 tabread notes-increasing;
#X obj 306 659 - 12;
#X obj 378 338 sel 0;
#X obj 396 437 bng 15 250 50 0 empty empty empty 17 7 0 10 -262144
-1 -1;
#X obj 422 301 t f f;
#X msg 506 462 0;
#X obj 247 467 % 1;
#X obj 782 179 r num-down;
#X obj 679 299 bng 15 250 50 0 empty empty empty 17 7 0 10 -262144
-1 -1;
#X floatatom 599 447 5 0 0 0 - - -, f 5;
#X floatatom 794 236 5 0 0 0 - - -, f 5;
#X obj 792 209 r num-down;
#X floatatom 856 448 5 0 0 0 - - -, f 5;
#X obj 678 577 + 0;
#X obj 857 467 * 12;
#X obj 670 258 spigot;
#X obj 606 470 tabread notes-increasing;
#X obj 671 636 - 12;
#X obj 750 292 sel 0;
#X obj 768 391 bng 15 250 50 0 empty empty empty 17 7 0 10 -262144
-1 -1;
#X obj 794 255 t f f;
#X msg 878 416 0;
#X obj 619 421 % 1;
#X obj 627 348 counter-up 0;
#X obj 852 385 counter-up 2;
#X obj 624 67 r eighths;
#X obj 487 756 outlet;
#X obj 327 176 spigot 0;
#X obj 592 158 spigot 0;
#X obj 459 91 inlet;
#X obj 451 425 random 3;
#X obj 255 394 random;
#X connect 0 0 7 1;
#X connect 1 0 40 0;
#X connect 1 0 12 0;
#X connect 2 0 13 0;
#X connect 3 0 2 0;
#X connect 3 0 40 1;
#X connect 4 0 6 0;
#X connect 5 0 10 0;
#X connect 6 0 5 1;
#X connect 7 0 1 0;
#X connect 8 0 36 0;
#X connect 9 0 5 0;
#X connect 10 0 35 0;
#X connect 11 0 14 0;
#X connect 12 0 39 0;
#X connect 13 0 11 0;
#X connect 13 0 15 1;
#X connect 14 0 4 0;
#X connect 15 0 9 0;
#X connect 16 0 24 1;
#X connect 17 0 32 0;
#X connect 18 0 25 0;
#X connect 19 0 29 0;
#X connect 20 0 19 0;
#X connect 21 0 23 0;
#X connect 22 0 26 0;
#X connect 23 0 22 1;
#X connect 24 0 17 0;
#X connect 25 0 22 0;
#X connect 26 0 35 0;
#X connect 27 0 30 0;
#X connect 27 0 32 1;
#X connect 27 0 33 1;
#X connect 28 0 33 0;
#X connect 29 0 27 0;
#X connect 29 0 31 1;
#X connect 29 1 32 2;
#X connect 30 0 21 0;
#X connect 31 0 18 0;
#X connect 32 0 31 0;
#X connect 32 1 28 0;
#X connect 33 0 21 0;
#X connect 34 0 37 0;
#X connect 36 0 7 0;
#X connect 37 0 24 0;
#X connect 38 0 36 1;
#X connect 38 0 37 1;
#X connect 39 0 4 0;
#X connect 40 0 15 0;
#X restore 861 650 pd double-randoms;
#X obj 713 131 r knob2;
#X obj 713 175 i;
#X floatatom 713 219 5 0 0 0 - - -, f 5;
#N canvas 23 83 1242 820 singleup4 0;
#X obj 410 225 r num-down;
#X obj 307 345 bng 15 250 50 0 empty empty empty 17 7 0 10 -262144
-1 -1;
#X floatatom 422 282 5 0 0 0 - - -, f 5;
#X obj 420 255 r num-down;
#X floatatom 484 494 5 0 0 0 - - -, f 5;
#X obj 306 623 + 0;
#X obj 485 513 * 12;
#X obj 298 304 spigot;
#X obj 268 79 r sixteenths;
#X obj 234 516 tabread notes-increasing;
#X obj 378 338 sel 0;
#X obj 396 437 bng 15 250 50 0 empty empty empty 17 7 0 10 -262144
-1 -1;
#X obj 422 301 t f f;
#X msg 506 462 0;
#X obj 247 467 % 1;
#X obj 255 394 counter-up 0;
#X obj 487 756 outlet;
#X obj 327 176 spigot 0;
#X obj 459 91 inlet;
#X obj 480 427 counter-up 4;
#X obj 307 659 - 24;
#X connect 0 0 7 1;
#X connect 1 0 15 0;
#X connect 2 0 12 0;
#X connect 3 0 2 0;
#X connect 4 0 6 0;
#X connect 5 0 20 0;
#X connect 6 0 5 1;
#X connect 7 0 1 0;
#X connect 8 0 17 0;
#X connect 9 0 5 0;
#X connect 10 0 13 0;
#X connect 10 0 15 1;
#X connect 10 0 19 1;
#X connect 11 0 19 0;
#X connect 12 0 10 0;
#X connect 12 0 14 1;
#X connect 12 1 15 2;
#X connect 13 0 4 0;
#X connect 14 0 9 0;
#X connect 15 0 14 0;
#X connect 15 1 11 0;
#X connect 17 0 7 0;
#X connect 18 0 17 1;
#X connect 19 0 4 0;
#X connect 20 0 16 0;
#X restore 645 652 pd singleup4;
#N canvas 17 50 1242 820 singledown4 0;
#X obj 410 225 r num-down;
#X obj 307 345 bng 15 250 50 0 empty empty empty 17 7 0 10 -262144
-1 -1;
#X floatatom 422 282 5 0 0 0 - - -, f 5;
#X obj 420 255 r num-down;
#X floatatom 484 494 5 0 0 0 - - -, f 5;
#X obj 306 623 + 0;
#X obj 485 513 * 12;
#X obj 298 304 spigot;
#X obj 268 79 r sixteenths;
#X obj 234 516 tabread notes-increasing;
#X obj 378 338 sel 0;
#X obj 396 437 bng 15 250 50 0 empty empty empty 17 7 0 10 -262144
-1 -1;
#X obj 422 301 t f f;
#X msg 506 462 0;
#X obj 247 467 % 1;
#X obj 624 67 r eighths;
#X obj 487 756 outlet;
#X obj 327 176 spigot 0;
#X obj 459 91 inlet;
#X obj 307 659 - 24;
#X obj 255 394 counter-down 0;
#X obj 480 427 counter-down 4;
#X connect 0 0 7 1;
#X connect 1 0 20 0;
#X connect 2 0 12 0;
#X connect 3 0 2 0;
#X connect 4 0 6 0;
#X connect 5 0 19 0;
#X connect 6 0 5 1;
#X connect 7 0 1 0;
#X connect 8 0 17 0;
#X connect 9 0 5 0;
#X connect 10 0 13 0;
#X connect 10 0 20 1;
#X connect 10 0 21 1;
#X connect 11 0 21 0;
#X connect 12 0 10 0;
#X connect 12 0 14 1;
#X connect 12 1 20 2;
#X connect 13 0 4 0;
#X connect 14 0 9 0;
#X connect 17 0 7 0;
#X connect 18 0 17 1;
#X connect 19 0 16 0;
#X connect 20 0 14 0;
#X connect 20 1 11 0;
#X connect 21 0 4 0;
#X restore 748 650 pd singledown4;
#X msg 897 353 1;
#X msg 955 353 1;
#X msg 1003 353 1;
#X msg 1058 353 1;
#N canvas 45 253 850 791 singleup2 0;
#X obj 410 225 r num-down;
#X obj 307 345 bng 15 250 50 0 empty empty empty 17 7 0 10 -262144
-1 -1;
#X floatatom 422 282 5 0 0 0 - - -, f 5;
#X obj 420 255 r num-down;
#X floatatom 484 494 5 0 0 0 - - -, f 5;
#X obj 306 623 + 0;
#X obj 485 513 * 12;
#X obj 298 304 spigot;
#X obj 268 79 r sixteenths;
#X obj 234 516 tabread notes-increasing;
#X obj 378 338 sel 0;
#X obj 396 437 bng 15 250 50 0 empty empty empty 17 7 0 10 -262144
-1 -1;
#X obj 422 301 t f f;
#X msg 506 462 0;
#X obj 247 467 % 1;
#X obj 255 394 counter-up 0;
#X obj 487 756 outlet;
#X obj 327 176 spigot 0;
#X obj 380 131 inlet;
#X obj 307 659 - 24;
#X obj 480 427 counter-up 2;
#X connect 0 0 7 1;
#X connect 1 0 15 0;
#X connect 2 0 12 0;
#X connect 3 0 2 0;
#X connect 4 0 6 0;
#X connect 5 0 19 0;
#X connect 6 0 5 1;
#X connect 7 0 1 0;
#X connect 8 0 17 0;
#X connect 9 0 5 0;
#X connect 10 0 13 0;
#X connect 10 0 15 1;
#X connect 10 0 20 1;
#X connect 11 0 20 0;
#X connect 12 0 10 0;
#X connect 12 0 14 1;
#X connect 12 1 15 2;
#X connect 13 0 4 0;
#X connect 14 0 9 0;
#X connect 15 0 14 0;
#X connect 15 1 11 0;
#X connect 17 0 7 0;
#X connect 18 0 17 1;
#X connect 19 0 16 0;
#X connect 20 0 4 0;
#X restore 427 650 pd singleup2;
#N canvas 877 183 595 797 singledown2 0;
#X obj 410 225 r num-down;
#X obj 271 348 bng 15 250 50 0 empty empty empty 17 7 0 10 -262144
-1 -1;
#X floatatom 422 282 5 0 0 0 - - -, f 5;
#X obj 420 255 r num-down;
#X floatatom 484 494 5 0 0 0 - - -, f 5;
#X obj 306 623 + 0;
#X obj 485 513 * 12;
#X obj 298 304 spigot;
#X obj 268 79 r sixteenths;
#X obj 234 516 tabread notes-increasing;
#X obj 378 338 sel 0;
#X obj 396 437 bng 15 250 50 0 empty empty empty 17 7 0 10 -262144
-1 -1;
#X obj 422 301 t f f;
#X msg 506 462 0;
#X obj 247 467 % 1;
#X obj 624 67 r eighths;
#X obj 487 756 outlet;
#X obj 327 176 spigot 0;
#X obj 459 91 inlet;
#X obj 307 659 - 24;
#X obj 255 394 counter-down 0;
#X obj 480 427 counter-down 2;
#X connect 0 0 7 1;
#X connect 1 0 20 0;
#X connect 2 0 12 0;
#X connect 3 0 2 0;
#X connect 4 0 6 0;
#X connect 5 0 19 0;
#X connect 6 0 5 1;
#X connect 7 0 1 0;
#X connect 8 0 17 0;
#X connect 9 0 5 0;
#X connect 10 0 13 0;
#X connect 10 0 20 1;
#X connect 10 0 21 1;
#X connect 11 0 21 0;
#X connect 12 0 10 0;
#X connect 12 0 14 1;
#X connect 12 1 20 2;
#X connect 13 0 4 0;
#X connect 14 0 9 0;
#X connect 17 0 7 0;
#X connect 18 0 17 1;
#X connect 19 0 16 0;
#X connect 20 0 14 0;
#X connect 20 1 11 0;
#X connect 21 0 4 0;
#X restore 529 650 pd singledown2;
#N canvas 25 64 1242 820 updown2 0;
#X obj 338 565 outlet;
#N canvas 32 50 1242 820 singleup2 0;
#X obj 410 225 r num-down;
#X obj 307 345 bng 15 250 50 0 empty empty empty 17 7 0 10 -262144
-1 -1;
#X floatatom 422 282 5 0 0 0 - - -, f 5;
#X obj 420 255 r num-down;
#X floatatom 484 494 5 0 0 0 - - -, f 5;
#X obj 306 623 + 0;
#X obj 485 513 * 12;
#X obj 298 304 spigot;
#X obj 234 516 tabread notes-increasing;
#X obj 378 338 sel 0;
#X obj 396 437 bng 15 250 50 0 empty empty empty 17 7 0 10 -262144
-1 -1;
#X obj 422 301 t f f;
#X msg 506 462 0;
#X obj 247 467 % 1;
#X obj 255 394 counter-up 0;
#X obj 487 756 outlet;
#X obj 307 659 - 24;
#X obj 480 427 counter-up 2;
#X obj 631 661 outlet;
#X obj 225 164 inlet;
#X connect 0 0 7 1;
#X connect 1 0 14 0;
#X connect 2 0 11 0;
#X connect 3 0 2 0;
#X connect 4 0 6 0;
#X connect 5 0 16 0;
#X connect 6 0 5 1;
#X connect 7 0 1 0;
#X connect 8 0 5 0;
#X connect 9 0 12 0;
#X connect 9 0 14 1;
#X connect 9 0 17 1;
#X connect 10 0 17 0;
#X connect 11 0 9 0;
#X connect 11 0 13 1;
#X connect 11 1 14 2;
#X connect 12 0 4 0;
#X connect 13 0 8 0;
#X connect 14 0 13 0;
#X connect 14 1 10 0;
#X connect 16 0 15 0;
#X connect 17 0 4 0;
#X connect 17 1 18 0;
#X connect 19 0 7 0;
#X restore 276 400 pd singleup2;
#X obj 242 54 r sixteenths;
#X obj 301 151 spigot 0;
#X obj 433 66 inlet;
#N canvas 24 50 1242 820 singledown2 0;
#X obj 410 225 r num-down;
#X obj 271 348 bng 15 250 50 0 empty empty empty 17 7 0 10 -262144
-1 -1;
#X floatatom 422 282 5 0 0 0 - - -, f 5;
#X obj 420 255 r num-down;
#X floatatom 484 494 5 0 0 0 - - -, f 5;
#X obj 306 623 + 0;
#X obj 485 513 * 12;
#X obj 298 304 spigot;
#X obj 234 516 tabread notes-increasing;
#X obj 378 338 sel 0;
#X obj 396 437 bng 15 250 50 0 empty empty empty 17 7 0 10 -262144
-1 -1;
#X obj 422 301 t f f;
#X msg 506 462 0;
#X obj 247 467 % 1;
#X obj 487 756 outlet;
#X obj 307 659 - 24;
#X obj 255 394 counter-down 0;
#X obj 480 427 counter-down 2;
#X obj 678 572 outlet;
#X obj 327 176 inlet;
#X connect 0 0 7 1;
#X connect 1 0 16 0;
#X connect 2 0 11 0;
#X connect 3 0 2 0;
#X connect 4 0 6 0;
#X connect 5 0 15 0;
#X connect 6 0 5 1;
#X connect 7 0 1 0;
#X connect 8 0 5 0;
#X connect 9 0 12 0;
#X connect 9 0 16 1;
#X connect 9 0 17 1;
#X connect 10 0 17 0;
#X connect 11 0 9 0;
#X connect 11 0 13 1;
#X connect 11 1 16 2;
#X connect 12 0 4 0;
#X connect 13 0 8 0;
#X connect 15 0 14 0;
#X connect 16 0 13 0;
#X connect 16 1 10 0;
#X connect 17 0 4 0;
#X connect 17 1 18 0;
#X connect 19 0 7 0;
#X restore 411 403 pd singledown2;
#X obj 462 194 tgl 15 0 empty empty empty 17 7 0 10 -262144 -1 -1 0
1;
#X obj 463 133 tgl 15 0 empty empty empty 17 7 0 10 -262144 -1 -1 0
1;
#X obj 463 153 ==;
#X obj 314 243 spigot 0;
#X obj 230 240 spigot 1;
#X obj 544 71 r num-down;
#X obj 544 93 sel 0;
#X msg 544 115 1;
#X connect 1 0 0 0;
#X connect 1 1 7 0;
#X connect 2 0 3 0;
#X connect 3 0 10 0;
#X connect 3 0 9 0;
#X connect 4 0 3 1;
#X connect 5 0 0 0;
#X connect 5 1 7 0;
#X connect 6 0 9 1;
#X connect 7 0 8 0;
#X connect 7 0 10 1;
#X connect 8 0 6 0;
#X connect 9 0 5 0;
#X connect 10 0 1 0;
#X connect 11 0 12 0;
#X connect 12 0 13 0;
#X connect 13 0 7 0;
#X restore 1110 646 pd updown2;
#X msg 427 395 \; screenLine2 2: Up 2 Octave \;;
#X msg 464 445 \; screenLine2 2: Down 2 Octave \;;
#X msg 511 493 \; screenLine2 2: Up 4 Octave \;;
#X msg 736 414 \; screenLine2 2: Down 4 Octave \;;
#X msg 760 456 \; screenLine2 2: Double Randoms \;;
#X msg 782 496 \; screenLine2 2: Double Double \;;
#X msg 1072 463 \; screenLine2 2: All \;;
#X obj 713 197 change -1;
#X msg 1047 417 \; screenLine2 2: Up Down \;;
#X text 672 103 Sets the pattern;
#X obj 294 232 i;
#X obj 294 254 change -1;
#X obj 36 232 i;
#X obj 36 254 change -1;
#X msg 294 278 \; screenLine1 1: Tempo \$1 BPM \;;
#X msg 36 278 \; screenLine1 1: Tempo \$1 BPM MIDI \;;
#X text 1126 761 send arp notes out ch 2;
#X obj 448 140 expr 1000/($f1/60);
#X floatatom 448 189 5 0 0 0 - - -, f 5;
#X obj 448 212 s step;
#X msg 1111 504 \; screenLine2 2: None \;;
#N canvas 175 156 613 803 none 0;
#X obj 410 225 r num-down;
#X obj 298 335 bng 15 250 50 0 empty empty empty 17 7 0 10 -262144
-1 -1;
#X floatatom 422 282 5 0 0 0 - - -, f 5;
#X obj 420 255 r num-down;
#X obj 298 304 spigot;
#X obj 296 469 tabread notes-increasing;
#X obj 378 338 sel 0;
#X obj 422 301 t f f;
#X obj 296 420 % 1;
#X obj 296 382 counter-up 0;
#X obj 487 756 outlet;
#X obj 298 196 spigot 0;
#X obj 430 111 inlet;
#X obj 239 99 r sixteenths;
#X floatatom 301 585 5 0 0 0 - - -, f 5;
#X obj 296 520 - 12;
#X connect 0 0 4 1;
#X connect 1 0 9 0;
#X connect 2 0 7 0;
#X connect 3 0 2 0;
#X connect 4 0 1 0;
#X connect 5 0 15 0;
#X connect 6 0 9 1;
#X connect 7 0 6 0;
#X connect 7 0 8 1;
#X connect 7 1 9 2;
#X connect 8 0 5 0;
#X connect 9 0 8 0;
#X connect 11 0 4 0;
#X connect 12 0 11 1;
#X connect 13 0 11 0;
#X connect 15 0 10 0;
#X connect 15 0 14 0;
#X restore 1202 650 pd none;
#X obj 627 324 sel 0 1 2 3 4 5 6 7 8, f 69;
#X obj 713 153 * 9;
#X msg 1093 357 1;
#X obj 1090 781 noteout 2;
#X obj 1090 730 makenote 100 100;
#X obj 1199 708 r step;
#X floatatom 1215 732 5 0 0 0 - - -, f 5;
#X obj 621 740 s arp-notes;
#X obj 1090 706 r arp-notes;
#X text 1202 554 this is screwy;
#X obj 482 25 r bpm;
#X floatatom 482 47 5 0 0 0 - - -, f 5;
#X obj 449 163 / 4;
#X obj 483 72 int;
#X floatatom 483 94 5 0 0 0 - - -, f 5;
#X obj 145 106 * 250;
#X obj 155 374 i;
#X obj 155 396 change -1;
#X msg 155 420 \; screenLine1 1: Tempo \$1 BPM LINK \;;
#X connect 0 0 40 0;
#X connect 0 1 38 0;
#X connect 0 2 66 0;
#X connect 1 0 0 0;
#X connect 2 0 3 0;
#X connect 3 0 1 0;
#X connect 4 0 65 0;
#X connect 5 0 0 1;
#X connect 6 0 9 0;
#X connect 7 0 57 0;
#X connect 8 0 6 0;
#X connect 9 0 50 0;
#X connect 9 1 10 0;
#X connect 10 0 19 0;
#X connect 10 0 20 0;
#X connect 10 0 15 0;
#X connect 10 0 7 0;
#X connect 10 0 25 0;
#X connect 10 0 26 0;
#X connect 10 0 27 0;
#X connect 10 0 49 0;
#X connect 11 0 25 0;
#X connect 12 0 26 0;
#X connect 13 0 19 0;
#X connect 14 0 20 0;
#X connect 15 0 57 0;
#X connect 16 0 51 0;
#X connect 17 0 35 0;
#X connect 18 0 8 0;
#X connect 19 0 57 0;
#X connect 20 0 57 0;
#X connect 21 0 15 0;
#X connect 22 0 7 0;
#X connect 23 0 27 0;
#X connect 24 0 25 0;
#X connect 24 0 26 0;
#X connect 24 0 20 0;
#X connect 24 0 27 0;
#X connect 24 0 15 0;
#X connect 25 0 57 0;
#X connect 26 0 57 0;
#X connect 27 0 57 0;
#X connect 28 0 25 0;
#X connect 35 0 18 0;
#X connect 38 0 39 0;
#X connect 39 0 42 0;
#X connect 40 0 41 0;
#X connect 41 0 43 0;
#X connect 45 0 62 0;
#X connect 46 0 47 0;
#X connect 49 0 57 0;
#X connect 50 0 11 0;
#X connect 50 0 28 0;
#X connect 50 1 12 0;
#X connect 50 1 29 0;
#X connect 50 2 13 0;
#X connect 50 2 30 0;
#X connect 50 3 14 0;
#X connect 50 3 31 0;
#X connect 50 4 21 0;
#X connect 50 4 32 0;
#X connect 50 5 22 0;
#X connect 50 5 33 0;
#X connect 50 6 23 0;
#X connect 50 6 36 0;
#X connect 50 7 24 0;
#X connect 50 7 34 0;
#X connect 50 8 52 0;
#X connect 50 8 48 0;
#X connect 51 0 17 0;
#X connect 52 0 49 0;
#X connect 54 0 53 0;
#X connect 54 1 53 1;
#X connect 55 0 54 2;
#X connect 55 0 56 0;
#X connect 58 0 54 0;
#X connect 60 0 61 0;
#X connect 61 0 63 0;
#X connect 62 0 46 0;
#X connect 63 0 45 0;
#X connect 63 0 64 0;
#X connect 65 0 5 0;
#X connect 66 0 67 0;
#X connect 67 0 68 0;
#X restore 978 549 pd arp;
#X text 743 313 array squash pulls out 0 notes. this array gets clobbered
by the sorting function so it always looks blank, f 22;
#X obj 108 440 t b b b b f;
#N canvas 1215 109 533 527 countnotes 0;
#X obj 104 289 > 0;
#X obj 104 316 sel 1;
#X obj 158 352 + 1, f 4;
#X obj 110 353 f 0;
#X obj 141 130 until;
#X obj 142 174 f;
#X obj 174 173 + 1, f 4;
#X msg 276 125 0, f 2;
#X msg 142 105 8, f 2;
#X obj 143 35 r countem;
#X obj 89 395 f 0;
#X obj 86 423 outlet;
#X obj 83 200 t f f;
#X obj 36 244 sel 7;
#X obj 91 62 bng 15 250 50 0 empty empty empty 17 7 0 10 -262144 -1
-1;
#X obj 201 422 print;
#X obj 106 234 tabread notes-from-poly;
#X obj 143 81 t b b;
#X connect 0 0 1 0;
#X connect 1 0 3 0;
#X connect 2 0 3 1;
#X connect 2 0 10 1;
#X connect 3 0 2 0;
#X connect 4 0 5 0;
#X connect 5 0 6 0;
#X connect 5 0 12 0;
#X connect 6 0 5 1;
#X connect 7 0 5 1;
#X connect 7 0 3 1;
#X connect 7 0 10 1;
#X connect 8 0 4 0;
#X connect 9 0 17 0;
#X connect 10 0 11 0;
#X connect 12 0 13 0;
#X connect 12 1 16 0;
#X connect 13 0 10 0;
#X connect 14 0 5 0;
#X connect 16 0 0 0;
#X connect 17 0 8 0;
#X connect 17 1 7 0;
#X restore -28 115 pd countnotes;
#X obj 414 672 r others;
#X obj 230 525 s countem;
#X obj 218 183 sel 1;
#N canvas 428 70 927 682 latch 0;
#X obj 43 371 latch-notes;
#X obj 263 200 bng 15 250 50 0 empty empty empty 17 7 0 10 -262144
-1 -1;
#X obj 263 232 tgl 15 0 empty empty empty 17 7 0 10 -262144 -1 -1 0
1;
#X obj 173 298 spigot 1;
#X obj 43 298 spigot 0;
#X obj 263 258 == 0;
#X obj 309 312 bng 15 250 50 0 empty empty empty 17 7 0 10 -262144
-1 -1;
#X obj 263 160 t b b, f 7;
#X obj 263 366 sel 0 1;
#X obj 263 134 inlet;
#X obj 43 626 outlet;
#X obj 43 106 inlet;
#X text 311 135 bang enable / disables latch;
#X text 44 53 incoming notes get sent through latch if enabled \, or
directly to output if disabled;
#X obj 193 458 s led;
#X msg 193 431 3;
#X msg 224 431 0;
#X msg 263 466 \; screenLine5 Aux: Latch On \;;
#X msg 286 423 \; screenLine5 Aux: Latch Off \;;
#X obj 373 280 s latch-state;
#X connect 0 0 10 0;
#X connect 1 0 2 0;
#X connect 2 0 5 0;
#X connect 2 0 4 1;
#X connect 2 0 19 0;
#X connect 3 0 10 0;
#X connect 4 0 0 0;
#X connect 5 0 3 1;
#X connect 5 0 8 0;
#X connect 6 0 0 1;
#X connect 7 0 1 0;
#X connect 7 1 6 0;
#X connect 8 0 17 0;
#X connect 8 0 15 0;
#X connect 8 1 18 0;
#X connect 8 1 16 0;
#X connect 9 0 7 0;
#X connect 11 0 4 0;
#X connect 11 0 3 0;
#X connect 15 0 14 0;
#X connect 16 0 14 0;
#X restore 148 223 pd latch;
#X text -48 83 number notes currently held down;
#X text 11 4 notes are put into an array and then sorted in increasing
/ decreasing order. the 'arp' subpatch then counts through the arrays
in various patterns;
#X obj 948 14 loadbang;
#N canvas 488 603 226 441 sampler 0;
#X obj 12 256 sample-voice 8.wav 7;
#X obj 14 282 sample-voice 9.wav 8;
#X obj 10 308 sample-voice 10.wav 9;
#X obj 12 337 sample-voice 11.wav 10;
#X obj 14 362 sample-voice 12.wav 11;
#X obj 10 229 sample-voice 7.wav 6;
#X obj 13 199 sample-voice 6.wav 5;
#X obj 14 172 sample-voice 5.wav 4;
#X obj 13 145 sample-voice 4.wav 3;
#X obj 8 117 sample-voice 3.wav 2;
#X obj 11 89 sample-voice 2.wav 1;
#X obj 12 61 sample-voice 1.wav 0;
#X restore 979 592 pd sampler;
#X text 970 530 run the arp;
#N canvas 11 70 903 548 output 0;
#X obj 411 223 *~ 1;
#X obj 276 309 throw~ outL;
#X obj 174 309 throw~ outR;
#X obj 370 178 rev3~ 100 90 3000 20;
#X obj 143 99 sig~;
#X obj 143 121 lop~ 5;
#X obj 241 150 -~ 1;
#X obj 191 269 *~;
#X obj 302 235 *~;
#X obj 241 172 abs~;
#X obj 43 120 * 100;
#X obj 43 142 i;
#X obj 383 59 catch~ samp_voice_out;
#X obj 397 94 *~ 1;
#X text 376 19 get the output from voices and feed it into rev3~ \,
a fun reverb included with Pd;
#X obj 43 164 change -1;
#X obj 142 68 r knob4;
#X connect 0 0 7 1;
#X connect 3 0 0 0;
#X connect 3 1 0 0;
#X connect 3 2 0 0;
#X connect 3 3 0 0;
#X connect 4 0 5 0;
#X connect 5 0 6 0;
#X connect 5 0 7 0;
#X connect 6 0 9 0;
#X connect 7 0 1 0;
#X connect 7 0 2 0;
#X connect 8 0 1 0;
#X connect 8 0 2 0;
#X connect 9 0 8 0;
#X connect 10 0 11 0;
#X connect 11 0 15 0;
#X connect 12 0 13 0;
#X connect 13 0 3 0;
#X connect 13 0 3 1;
#X connect 13 0 8 1;
#X connect 16 0 4 0;
#X connect 16 0 10 0;
#X restore 980 673 pd output and reverb;
#N canvas 651 315 746 456 crown 0;
#X obj 46 105 table crown 22050;
#X msg 51 53 \; crown read window.txt;
#X obj 50 30 loadbang;
#N canvas 470 221 1354 823 thing 0;
#X floatatom 815 625 5 0 0 0 - - -, f 5;
#X floatatom 984 643 5 0 0 0 - - -, f 5;
#X obj 1019 611 + 1;
#X obj 984 525 t b b;
#X obj 815 583 *;
#X obj 984 458 until;
#X obj 984 612 f;
#X obj 815 561 f;
#X msg 928 459 0;
#X obj 800 367 t b b;
#X obj 800 300 until;
#X msg 800 389 1;
#X obj 881 695 tabwrite crown;
#X obj 815 605 *;
#X msg 993 426 500;
#X msg 809 268 21050;
#X obj 852 559 + 0.002003;
#X connect 0 0 12 0;
#X connect 1 0 12 1;
#X connect 2 0 6 1;
#X connect 3 0 7 0;
#X connect 3 1 6 0;
#X connect 4 0 13 0;
#X connect 4 0 13 1;
#X connect 5 0 3 0;
#X connect 6 0 2 0;
#X connect 6 0 1 0;
#X connect 7 0 4 0;
#X connect 7 0 4 1;
#X connect 7 0 16 0;
#X connect 8 0 7 0;
#X connect 8 0 6 0;
#X connect 9 0 11 0;
#X connect 9 1 6 0;
#X connect 10 0 9 0;
#X connect 11 0 12 0;
#X connect 13 0 0 0;
#X connect 14 0 5 0;
#X connect 15 0 10 0;
#X connect 16 0 7 1;
#X restore 68 147 pd thing;
#X text 128 19 a window for clickless looping;
#X connect 2 0 1 0;
#X restore 981 644 pd crown window;
#X text 988 617 clickless looping;
#X obj 1025 213 s ramp-time;
#X msg 1029 161 20;
#X obj 1093 162 loadbang;
#X floatatom 1026 189 5 0 0 0 - - -, f 5;
#X obj 950 356 i;
#X obj 950 381 change -1;
#X obj 946 184 i;
#X obj 946 219 change -1;
#X msg 946 250 \; screenLine3 3: Ramp \$1 ms;
#X obj 946 130 r knob3;
#X obj 950 293 r knob4;
#X msg 950 412 \; screenLine4 4: Reverb \$1 %;
#X obj 950 321 * 100;
#X obj 218 138 r aux;
#X text 263 141 aux to enable / disable latch, f 11;
#X text 974 575 PlAY THE SAMPLES!;
#X obj -3 783 s midiInGate;
#X obj -2 734 loadbang;
#X msg -2 759 0;
#X text 65 733 so external keyboards dont play notes, f 14;
#X obj 945 159 * 100;
#X msg 948 41 \; screenLine1 1: Tempo \; screenLine2 2: Pattern \;
screenLine3 3: Duration \; screenLine4 4: Envelope \; screenLine5 Aux:
Latch Off \;;
#X obj 1255 408 r quarters;
#X obj 1318 711 s led;
#X obj 1325 516 delay 100;
#X msg 1278 654 7;
#X msg 1318 653 0;
#X obj 1437 434 r latch-state;
#X obj 1326 557 f 0;
#X obj 1318 589 sel 0 1;
#X msg 1360 649 3;
#X obj 1221 611 sel 0 1;
#X obj 1206 504 r num-down;
#X obj 1207 533 > 0;
#X obj 1187 561 f 0;
#X obj 1205 458 t b b;
#X connect 0 0 30 0;
#X connect 1 0 15 0;
#X connect 1 1 15 1;
#X connect 2 0 17 0;
#X connect 4 0 25 0;
#X connect 4 1 22 1;
#X connect 11 0 14 0;
#X connect 15 0 2 0;
#X connect 15 1 2 1;
#X connect 15 2 2 2;
#X connect 17 0 4 0;
#X connect 25 0 16 0;
#X connect 25 1 7 0;
#X connect 25 2 19 0;
#X connect 25 3 28 0;
#X connect 25 4 22 0;
#X connect 26 0 11 0;
#X connect 27 0 13 0;
#X connect 29 0 30 1;
#X connect 30 0 1 0;
#X connect 33 0 60 0;
#X connect 40 0 42 0;
#X connect 41 0 40 0;
#X connect 42 0 39 0;
#X connect 43 0 44 0;
#X connect 44 0 50 0;
#X connect 45 0 46 0;
#X connect 46 0 47 0;
#X connect 48 0 59 0;
#X connect 49 0 51 0;
#X connect 51 0 43 0;
#X connect 52 0 29 0;
#X connect 56 0 57 0;
#X connect 57 0 55 0;
#X connect 59 0 45 0;
#X connect 59 0 42 0;
#X connect 61 0 63 0;
#X connect 61 0 74 0;
#X connect 63 0 67 0;
#X connect 64 0 62 0;
#X connect 65 0 62 0;
#X connect 66 0 67 1;
#X connect 67 0 68 0;
#X connect 68 0 65 0;
#X connect 68 1 69 0;
#X connect 69 0 62 0;
#X connect 70 1 64 0;
#X connect 71 0 72 0;
#X connect 72 0 73 1;
#X connect 73 0 70 0;
#X connect 74 0 73 0;
