#N canvas 410 167 1044 750 10;
#X obj 407 162 * 1000;
#X obj 267 289 f, f 6;
#X obj 391 378 noise~;
#X obj 516 157 t f f;
#X obj 431 478 *~;
#X obj 318 644 *~;
#X obj 270 320 pack 0 0;
#X obj 653 364 f;
#X obj 221 92 inlet;
#X obj 482 300 f;
#X obj 516 179 *;
#X obj 518 103 inlet;
#X text 562 103 noise lev;
#X obj 673 98 inlet;
#X text 734 96 decay;
#X obj 403 92 inlet;
#X obj 305 97 inlet;
#X text 294 77 start freq;
#X text 452 84 ramp time;
#X obj 318 713 outlet~;
#X obj 262 164 t b b;
#X obj 245 193 delay 2;
#X msg 578 319 0 2;
#X obj 645 467 vline~;
#X obj 48 317 r~ lfo;
#X obj 407 118 t f f;
#X obj 407 140 *;
#X obj 913 104 inlet vel;
#X obj 653 385 pack;
#X obj 913 125 / 127;
#X obj 913 146 sqrt;
#X msg 653 419 \$2 2 \, 0 \$1 2;
#X obj 645 488 *~;
#X obj 357 573 *~ 0.707;
#X obj 232 611 *~ 0.9;
#X obj 459 408 vline~;
#X obj 248 382 vline~;
#X obj 248 454 *~ 4000;
#X obj 318 665 *~, f 27;
#X obj 318 686 hip~ 5;
#X obj 43 584 -~, f 15;
#X obj 43 563 sig~ 1;
#X obj 43 629 sqrt~;
#X obj 131 548 /~ 4000;
#X obj 43 605 sqrt~;
#X obj 233 583 cos~;
#X obj 233 548 +~;
#X obj 247 516 phasor~;
#X obj 248 403 pow~ 2;
#X obj 139 382 vline~;
#X obj 140 409 pow~ 4;
#X obj 108 444 *~;
#X obj 246 220 t b b b b;
#X obj 102 164 r eparam2;
#X text 116 137 HFO;
#X obj 102 190 * 1;
#X obj 102 211 sqrt 4;
#X obj 181 297 f;
#X msg 254 346 \$1 2 \, 0 \$2 2;
#X obj 248 475 +~, f 12;
#X obj 323 434 lop~ 5;
#X obj 345 340 * 50;
#X obj 345 361 mtof;
#X msg 171 321 \$1 2 \, 0 112 2;
#X obj 475 467 pow~ 2;
#X msg 466 336 \$1 \, 0 45;
#X obj 673 162 * 980;
#X obj 673 185 + 20;
#X connect 0 0 6 1;
#X connect 1 0 6 0;
#X connect 2 0 4 0;
#X connect 3 0 10 0;
#X connect 3 1 10 1;
#X connect 4 0 33 0;
#X connect 5 0 38 0;
#X connect 6 0 58 0;
#X connect 7 0 28 0;
#X connect 8 0 20 0;
#X connect 9 0 65 0;
#X connect 10 0 9 1;
#X connect 11 0 3 0;
#X connect 13 0 66 0;
#X connect 15 0 25 0;
#X connect 16 0 1 1;
#X connect 16 0 61 0;
#X connect 20 0 21 0;
#X connect 20 1 22 0;
#X connect 21 0 52 0;
#X connect 22 0 23 0;
#X connect 23 0 32 0;
#X connect 23 0 32 1;
#X connect 24 0 51 0;
#X connect 25 0 26 0;
#X connect 25 1 26 1;
#X connect 26 0 0 0;
#X connect 27 0 29 0;
#X connect 28 0 31 0;
#X connect 29 0 30 0;
#X connect 30 0 28 1;
#X connect 31 0 23 0;
#X connect 32 0 5 1;
#X connect 33 0 5 0;
#X connect 34 0 5 0;
#X connect 35 0 64 0;
#X connect 36 0 48 0;
#X connect 37 0 59 0;
#X connect 38 0 39 0;
#X connect 39 0 19 0;
#X connect 40 0 44 0;
#X connect 41 0 40 0;
#X connect 42 0 38 1;
#X connect 43 0 40 1;
#X connect 44 0 42 0;
#X connect 45 0 34 0;
#X connect 46 0 45 0;
#X connect 47 0 46 1;
#X connect 48 0 37 0;
#X connect 49 0 50 0;
#X connect 50 0 51 1;
#X connect 51 0 46 0;
#X connect 52 0 7 0;
#X connect 52 1 1 0;
#X connect 52 2 9 0;
#X connect 52 3 57 0;
#X connect 53 0 55 0;
#X connect 55 0 56 0;
#X connect 56 0 57 1;
#X connect 57 0 63 0;
#X connect 58 0 36 0;
#X connect 59 0 47 0;
#X connect 59 0 43 0;
#X connect 60 0 59 1;
#X connect 61 0 62 0;
#X connect 62 0 60 0;
#X connect 63 0 49 0;
#X connect 64 0 4 1;
#X connect 65 0 35 0;
#X connect 66 0 67 0;
#X connect 67 0 7 1;
