#N canvas 345 69 1010 708 10;
#X declare -path CG-Pd-Library-Local/sequencer;
#X declare -path CG-Pd-Library-Local/externals;
#X declare -path CG-Pd-Library-Local/metronome;
#X declare -path /sdcard/CG-Pd-Library/sequencer;
#X declare -path /sdcard/CG-Pd-Library/externals;
#X declare -path /sdcard/CG-Pd-Library/metronome;
#X obj 156 528 throw~ outR;
#X obj 199 496 throw~ outL;
#N canvas 0 50 450 250 (subpatch) 0;
#X array param1 24 float 3;
#A 0 0.0782014 0.190616 0.252199 0.342131 0.40176 0.464321 0.525904 0.584555 0.627566 0.658847 0.69306 0.748778 0.828934 0.849462 0.914956 0.914956 0.987292 0.987292 0.8348 0.71652 0.57478 0.378299 0.442815 0.273705;
#X coords 0 1 24 0 100 100 1 0 0;
#X restore 582 50 graph;
#N canvas 4 50 450 250 (subpatch) 0;
#X array param2 24 float 3;
#A 0 0.256109 0.256109 0.256109 0.256109 0.256109 0.256109 0.256109 0.256109 0.256109 0.256109 0.256109 0.256109 0.256109 0.256109 0.256109 0.256109 0.256109 0.302053 0.302053 0.302053 0.302053 0.302053 0.302053 0.302053;
#X coords 0 1 24 0 100 100 1 0 0;
#X restore 583 172 graph;
#N canvas 0 50 450 250 (subpatch) 0;
#X array param3 24 float 3;
#A 0 0.939394 0.939394 0.939394 0.939394 0.939394 0.939394 0.939394 0.939394 0.939394 0.939394 0.939394 0.939394 0.939394 0.939394 0.939394 0.939394 0.939394 0.939394 0.939394 0.939394 0.939394 0.939394 0.939394 0.939394;
#X coords 0 1 24 0 100 100 1 0 0;
#X restore 583 297 graph;
#N canvas 0 0 450 250 (subpatch) 0;
#X array param4 24 float 3;
#A 0 0 0 0 0 0 0 0 0 0 0 0 0 0 0 0 0 0 0.318671 0.318671 0.318671 0.318671 0.318671 0.318671 0.318671;
#X coords 0 1 24 0 100 100 1 0 0;
#X restore 584 422 graph;
#X obj 155 330 catch~ voice-out;
#X obj 383 563 s~ lfo;
#X obj 382 486 osc~;
#X obj 382 319 r eparam1;
#X obj 382 343 t f f;
#X obj 382 365 *;
#N canvas 301 195 1425 647 param-editor 0;
#X obj 153 113 r edit-note;
#X obj 36 61 r knob1;
#X obj 51 116 spigot 0;
#X obj 53 167 tabwrite param1;
#X obj 151 137 - 60;
#X obj 357 112 r edit-note;
#X obj 255 115 spigot 0;
#X obj 355 136 - 60;
#X obj 145 306 r edit-note;
#X obj 43 309 spigot 0;
#X obj 143 330 - 60;
#X obj 349 305 r edit-note;
#X obj 247 308 spigot 0;
#X obj 347 329 - 60;
#X obj 257 166 tabwrite param2;
#X obj 45 360 tabwrite param3;
#X obj 249 355 tabwrite param4;
#X obj 50 88 f;
#X obj 254 85 f;
#X obj 240 58 r knob2;
#X obj 47 276 f;
#X obj 248 274 f;
#X obj 33 249 r knob3;
#X obj 234 247 r knob4;
#X obj 807 33 r notesRaw;
#X obj 994 219 stripnote;
#X obj 670 234 s edit-note;
#N canvas 4 50 450 300 lock-knobs 0;
#X obj 160 78 s knob1Override;
#X obj 171 101 s knob2Override;
#X obj 188 124 s knob3Override;
#X obj 201 148 s knob4Override;
#X obj 234 17 inlet;
#X connect 4 0 0 0;
#X connect 4 0 1 0;
#X connect 4 0 2 0;
#X connect 4 0 3 0;
#X restore 1052 279 pd lock-knobs;
#X obj 960 391 bag;
#X msg 960 357 flush;
#X text 418 61 <-- output them;
#X msg 900 193 clear;
#X obj 960 329 bang;
#X obj 867 536 tabwrite param1;
#X obj 987 283 t f b f;
#X obj 868 505 tabread param1;
#X obj 986 536 tabwrite param2;
#X obj 1101 533 tabwrite param3;
#X obj 1215 533 tabwrite param4;
#X obj 1220 502 tabread param4;
#X obj 1098 506 tabread param3;
#X obj 985 507 tabread param2;
#X obj 1118 409 - 60;
#X obj 960 416 - 60;
#X text 1001 148 copy params from one key to another;
#X obj 670 208 stripnote;
#X obj 807 70 t a a;
#X obj 839 114 spigot 0;
#X obj 839 145 t a a b a;
#X obj 786 273 s key-just-copied;
#X obj 354 -29 r state;
#X obj 354 -8 sel 2;
#X obj 383 15 t b;
#X msg 354 13 1;
#X msg 383 36 0;
#X obj 354 56 f;
#X obj 884 0 r state;
#X obj 884 21 sel 2;
#X obj 913 44 t b;
#X msg 884 42 1;
#X msg 913 65 0;
#X obj 884 85 f;
#X connect 0 0 4 0;
#X connect 1 0 17 0;
#X connect 2 0 3 0;
#X connect 4 0 3 1;
#X connect 5 0 7 0;
#X connect 6 0 14 0;
#X connect 7 0 14 1;
#X connect 8 0 10 0;
#X connect 9 0 15 0;
#X connect 10 0 15 1;
#X connect 11 0 13 0;
#X connect 12 0 16 0;
#X connect 13 0 16 1;
#X connect 17 0 2 0;
#X connect 18 0 6 0;
#X connect 19 0 18 0;
#X connect 20 0 9 0;
#X connect 21 0 12 0;
#X connect 22 0 20 0;
#X connect 23 0 21 0;
#X connect 24 0 46 0;
#X connect 25 0 34 0;
#X connect 25 1 27 0;
#X connect 28 0 43 0;
#X connect 29 0 28 0;
#X connect 31 0 28 0;
#X connect 32 0 29 0;
#X connect 34 1 32 0;
#X connect 34 2 42 0;
#X connect 35 0 33 0;
#X connect 39 0 38 0;
#X connect 40 0 37 0;
#X connect 41 0 36 0;
#X connect 42 0 38 1;
#X connect 42 0 37 1;
#X connect 42 0 36 1;
#X connect 42 0 33 1;
#X connect 43 0 35 0;
#X connect 43 0 41 0;
#X connect 43 0 40 0;
#X connect 43 0 39 0;
#X connect 45 0 26 0;
#X connect 46 0 45 0;
#X connect 46 1 47 0;
#X connect 47 0 48 0;
#X connect 48 0 49 0;
#X connect 48 1 28 0;
#X connect 48 2 31 0;
#X connect 48 3 25 0;
#X connect 50 0 51 0;
#X connect 51 0 53 0;
#X connect 51 1 52 0;
#X connect 52 0 54 0;
#X connect 53 0 55 0;
#X connect 54 0 55 0;
#X connect 55 0 12 1;
#X connect 55 0 9 1;
#X connect 55 0 2 1;
#X connect 55 0 6 1;
#X connect 56 0 57 0;
#X connect 57 0 59 0;
#X connect 57 1 58 0;
#X connect 58 0 60 0;
#X connect 59 0 61 0;
#X connect 60 0 61 0;
#X connect 61 0 47 1;
#X restore 731 114 pd param-editor;
#N canvas 18 51 1160 285 knob-to-fx 0;
#X obj 68 62 r knob1;
#X obj 72 115 spigot 1;
#X obj 124 90 ==;
#X obj 121 247 s eparam1;
#X obj 344 123 spigot 1;
#X obj 396 98 ==;
#X obj 570 114 spigot 1, f 9;
#X obj 622 89 ==;
#X obj 782 118 spigot 1;
#X obj 834 93 ==;
#X obj 340 70 r knob2;
#X obj 566 61 r knob3;
#X obj 778 65 r knob4;
#X obj 357 244 s eparam2;
#X obj 569 246 s eparam3;
#X obj 874 233 s eparam4;
#X text 261 17 if not in key edit state \, send effect params;
#X obj 55 31 r seq3-1-k1;
#X obj 314 41 r seq3-1-k2;
#X obj 544 34 r seq3-1-k3;
#X obj 803 44 r seq3-1-k4;
#X obj 887 109 r state;
#X obj 914 155 t b;
#X msg 902 193 0;
#X obj 872 194 f;
#X obj 642 120 r state;
#X obj 669 166 t b;
#X msg 657 204 0;
#X obj 627 205 f;
#X obj 416 120 r state;
#X obj 443 166 t b;
#X msg 431 204 0;
#X obj 401 205 f;
#X obj 134 122 r state;
#X obj 161 168 t b;
#X msg 149 206 0;
#X obj 119 207 f;
#X obj 684 -82 r state;
#X obj 684 -61 sel 2;
#X obj 713 -38 t b;
#X msg 684 -40 1;
#X msg 713 -17 0;
#X obj 684 3 f;
#X obj 134 143 sel 2;
#X obj 416 141 sel 2;
#X obj 642 141 sel 2;
#X obj 887 130 sel 2;
#X connect 0 0 1 0;
#X connect 1 0 36 0;
#X connect 2 0 1 1;
#X connect 4 0 32 0;
#X connect 5 0 4 1;
#X connect 6 0 28 0;
#X connect 7 0 6 1;
#X connect 8 0 24 0;
#X connect 9 0 8 1;
#X connect 10 0 4 0;
#X connect 11 0 6 0;
#X connect 12 0 8 0;
#X connect 17 0 1 0;
#X connect 18 0 4 0;
#X connect 19 0 6 0;
#X connect 20 0 8 0;
#X connect 21 0 46 0;
#X connect 22 0 24 0;
#X connect 23 0 15 0;
#X connect 24 0 15 0;
#X connect 25 0 45 0;
#X connect 26 0 28 0;
#X connect 27 0 14 0;
#X connect 28 0 14 0;
#X connect 29 0 44 0;
#X connect 30 0 32 0;
#X connect 31 0 13 0;
#X connect 32 0 13 0;
#X connect 33 0 43 0;
#X connect 34 0 36 0;
#X connect 35 0 3 0;
#X connect 36 0 3 0;
#X connect 37 0 38 0;
#X connect 38 0 40 0;
#X connect 38 1 39 0;
#X connect 39 0 41 0;
#X connect 40 0 42 0;
#X connect 41 0 42 0;
#X connect 42 0 9 0;
#X connect 42 0 2 0;
#X connect 42 0 5 0;
#X connect 42 0 7 0;
#X connect 43 0 35 0;
#X connect 43 1 34 0;
#X connect 44 0 31 0;
#X connect 44 1 30 0;
#X connect 45 0 27 0;
#X connect 45 1 26 0;
#X connect 46 0 23 0;
#X connect 46 1 22 0;
#X restore 731 140 pd knob-to-fx;
#N canvas 73 50 1523 917 states-and-leds 0;
#N canvas 212 213 1430 760 led-screen 0;
#X obj 661 32 r state;
#X obj 314 502 r edit-note;
#X obj 314 640 spigot 0;
#X msg 314 669 \; screenLine5 Editing Key \$1 \; led 7 \;;
#N canvas 17 50 1899 820 param-disp 0;
#X obj 97 217 tabread param1;
#X floatatom 96 243 5 0 0 0 - - - 0;
#X obj 100 114 r edit-note;
#X obj 104 185 f;
#X obj 125 343 spigot 0;
#X obj 35 216 r knob1;
#X obj 320 65 r state;
#X obj 347 172 bang;
#X msg 311 223 0;
#X msg 211 215 1;
#X obj 294 142 t b b;
#X obj 109 148 - 60;
#X text 371 114 state 4 key edit;
#X obj 195 525 outlet;
#X obj 137 425 * 4000;
#X obj 143 448 i;
#X obj 126 380 t f f;
#X obj 126 402 *;
#X obj 315 101 sel 2;
#X obj 555 19 r reprint-edit;
#X obj 491 132 r edit-note;
#X obj 495 203 f;
#X obj 711 83 r state;
#X obj 738 190 bang;
#X msg 702 241 0;
#X msg 602 233 1;
#X obj 685 160 t b b;
#X obj 500 166 - 60;
#X text 762 132 state 4 key edit;
#X obj 539 535 outlet;
#X obj 433 241 r knob2;
#X obj 488 235 tabread param2;
#X obj 529 464 i;
#X obj 522 440 * 1000;
#X obj 533 392 t f f;
#X obj 533 414 *;
#X obj 706 119 sel 2;
#X obj 906 180 r edit-note;
#X obj 910 251 f;
#X obj 908 358 spigot 0;
#X obj 1126 131 r state;
#X obj 1153 238 bang;
#X msg 1117 289 0;
#X msg 1017 281 1;
#X obj 1100 208 t b b;
#X obj 915 214 - 60;
#X text 1177 180 state 4 key edit;
#X obj 1004 542 outlet;
#X obj 841 282 r knob3;
#X obj 903 283 tabread param3;
#X obj 952 465 i;
#X obj 947 442 * 100;
#X obj 1121 167 sel 2;
#X obj 1339 168 r edit-note;
#X obj 1343 239 f;
#X obj 1341 346 spigot 0;
#X obj 1559 119 r state;
#X obj 1586 226 bang;
#X msg 1550 277 0;
#X msg 1450 269 1;
#X obj 1533 196 t b b;
#X obj 1348 202 - 60;
#X text 1610 168 state 4 key edit;
#X obj 1426 550 outlet;
#X obj 1274 270 r knob4;
#X obj 1336 271 tabread param4;
#X obj 1379 480 i;
#X obj 1554 155 sel 2;
#X obj 114 297 f;
#X obj 1295 318 f;
#X obj 873 326 f;
#X obj 545 60 t b b b b, f 115;
#X obj 453 279 f;
#X obj 615 90 bng 15 250 50 0 empty empty empty 17 7 0 10 #fcfcfc #000000 #000000;
#X obj 555 40 del 1;
#X obj 496 317 spigot 0;
#X obj 1379 453 + 20;
#X obj 1379 430 * 980;
#X connect 0 0 1 0;
#X connect 1 0 68 0;
#X connect 2 0 11 0;
#X connect 3 0 0 0;
#X connect 4 0 16 0;
#X connect 5 0 68 0;
#X connect 6 0 18 0;
#X connect 7 0 8 0;
#X connect 8 0 4 1;
#X connect 9 0 4 1;
#X connect 10 0 3 0;
#X connect 10 1 9 0;
#X connect 11 0 3 0;
#X connect 14 0 15 0;
#X connect 15 0 13 0;
#X connect 16 0 17 0;
#X connect 16 1 17 1;
#X connect 17 0 14 0;
#X connect 18 0 10 0;
#X connect 18 1 7 0;
#X connect 19 0 74 0;
#X connect 20 0 27 0;
#X connect 21 0 31 0;
#X connect 22 0 36 0;
#X connect 23 0 24 0;
#X connect 24 0 75 1;
#X connect 25 0 75 1;
#X connect 26 0 21 0;
#X connect 26 1 25 0;
#X connect 27 0 21 0;
#X connect 30 0 72 0;
#X connect 31 0 72 0;
#X connect 32 0 29 0;
#X connect 33 0 32 0;
#X connect 34 0 35 0;
#X connect 34 1 35 1;
#X connect 35 0 33 0;
#X connect 36 0 26 0;
#X connect 36 1 23 0;
#X connect 37 0 45 0;
#X connect 38 0 49 0;
#X connect 39 0 51 0;
#X connect 40 0 52 0;
#X connect 41 0 42 0;
#X connect 42 0 39 1;
#X connect 43 0 39 1;
#X connect 44 0 38 0;
#X connect 44 1 43 0;
#X connect 45 0 38 0;
#X connect 48 0 70 0;
#X connect 49 0 70 0;
#X connect 50 0 47 0;
#X connect 51 0 50 0;
#X connect 52 0 44 0;
#X connect 52 1 41 0;
#X connect 53 0 61 0;
#X connect 54 0 65 0;
#X connect 55 0 77 0;
#X connect 56 0 67 0;
#X connect 57 0 58 0;
#X connect 58 0 55 1;
#X connect 59 0 55 1;
#X connect 60 0 54 0;
#X connect 60 1 59 0;
#X connect 61 0 54 0;
#X connect 64 0 69 0;
#X connect 65 0 69 0;
#X connect 66 0 63 0;
#X connect 67 0 60 0;
#X connect 67 1 57 0;
#X connect 68 0 4 0;
#X connect 69 0 55 0;
#X connect 70 0 39 0;
#X connect 71 0 68 0;
#X connect 71 0 73 0;
#X connect 71 1 72 0;
#X connect 71 2 70 0;
#X connect 71 3 69 0;
#X connect 72 0 75 0;
#X connect 74 0 71 0;
#X connect 75 0 34 0;
#X connect 76 0 66 0;
#X connect 77 0 76 0;
#X restore 549 615 pd param-disp;
#X f 111;
#X text 805 589 display edit params in key edit mode;
#X msg 780 649 \; screenLine2 2: Ramp \$1 ms \;;
#X msg 549 650 \; screenLine1 1: Start Freq \$1 Hz \;;
#X msg 1208 646 \; screenLine4 4: Decay \$1 ms \;;
#X msg 1005 647 \; screenLine3 3: Noise \$1 % \;;
#N canvas 123 241 1064 547 e-param-disp 0;
#X obj 296 10 r eparam1;
#X obj 290 497 outlet;
#X obj 368 497 outlet;
#X obj 495 513 outlet;
#X obj 652 513 outlet;
#X obj 380 8 r eparam2;
#X obj 458 11 r eparam3;
#X obj 538 11 r eparam4;
#X obj 290 389 * 1000;
#X obj 290 411 i;
#X obj 368 414 i;
#X obj 581 442 i;
#X obj 368 392 * 100;
#X obj 685 5 r state;
#X obj 685 100 t b b;
#X msg 811 106 0;
#X msg 447 158 1;
#X text 689 189 allow screen messages only in states 0 1 2 3;
#X obj 290 236 spigot 1;
#X obj 368 243 spigot 1;
#X obj 465 249 spigot 1;
#X obj 542 245 spigot 1;
#X obj 495 404 t f f;
#X obj 495 425 *;
#X obj 495 446 * 2000;
#X obj 495 467 i;
#X obj 581 409 * 99;
#X obj 685 38 sel 0 1 2 3 4, f 33;
#X obj 542 348 f;
#X obj 465 345 f;
#X obj 368 340 f;
#X obj 290 331 f;
#X obj 782 215 r reprint-hfo;
#X obj 782 264 t b b b b;
#X obj 782 236 del 1;
#X obj 700 374 r cgSc-1-mute-print;
#X obj 700 395 ==;
#X obj 290 432 spigot 1;
#X obj 368 466 spigot 1;
#X obj 495 489 spigot 1;
#X obj 651 490 spigot 1;
#X obj 290 257 pow 2;
#X connect 0 0 18 0;
#X connect 5 0 19 0;
#X connect 6 0 20 0;
#X connect 7 0 21 0;
#X connect 8 0 9 0;
#X connect 9 0 37 0;
#X connect 10 0 38 0;
#X connect 11 0 40 0;
#X connect 12 0 10 0;
#X connect 13 0 27 0;
#X connect 14 0 33 0;
#X connect 14 1 16 0;
#X connect 15 0 18 1;
#X connect 15 0 19 1;
#X connect 15 0 20 1;
#X connect 15 0 21 1;
#X connect 16 0 18 1;
#X connect 16 0 19 1;
#X connect 16 0 20 1;
#X connect 16 0 21 1;
#X connect 18 0 41 0;
#X connect 19 0 30 0;
#X connect 20 0 29 0;
#X connect 21 0 28 0;
#X connect 22 0 23 0;
#X connect 22 1 23 1;
#X connect 23 0 24 0;
#X connect 24 0 25 0;
#X connect 25 0 39 0;
#X connect 26 0 11 0;
#X connect 27 0 14 0;
#X connect 27 1 14 0;
#X connect 27 2 15 0;
#X connect 27 3 15 0;
#X connect 27 4 15 0;
#X connect 28 0 26 0;
#X connect 29 0 22 0;
#X connect 30 0 12 0;
#X connect 31 0 8 0;
#X connect 32 0 34 0;
#X connect 33 0 31 0;
#X connect 33 1 30 0;
#X connect 33 2 29 0;
#X connect 33 3 28 0;
#X connect 34 0 33 0;
#X connect 35 0 36 0;
#X connect 36 0 37 1;
#X connect 36 0 38 1;
#X connect 36 0 39 1;
#X connect 36 0 40 1;
#X connect 37 0 1 0;
#X connect 38 0 2 0;
#X connect 39 0 3 0;
#X connect 40 0 4 0;
#X connect 41 0 31 0;
#X restore 309 322 pd e-param-disp;
#X f 118;
#X msg 309 396 \; screenLine1 1: HFO Freq: \$1 Hz \;;
#X msg 544 396 \; screenLine2 2: HFO Depth: \$1% \;;
#X obj 399 486 r state;
#X obj 399 507 sel 2;
#X obj 426 528 t b;
#X msg 369 555 1;
#X msg 426 549 0;
#X obj 399 611 f;
#X msg 779 396 \; screenLine3 3: Delay Time: \$1ms \;;
#X msg 1014 397 \; screenLine4 4: Delay FB: \$1% \;;
#X obj 661 54 sel 0 1 2 3 4, f 37;
#X msg 887 121 \; screenLine5 Press a Key to Edit;
#X msg 776 143 \; led 7 \;;
#X obj 1143 92 r edit-note;
#X obj 1124 226 spigot 0;
#X msg 1198 243 0;
#X obj 1126 247 t b f b;
#X msg 1126 288 2;
#X obj 1126 309 s state;
#X msg 853 151 1;
#X obj 836 92 t b b b b;
#X obj 114 70 r state;
#X msg 207 276 \; screenLine5 Press a Key to Edit;
#X obj 99 94 f;
#X obj 99 130 route 0 1 2 3 4;
#X obj 99 28 r cgSc-1-mute-print;
#X obj 99 49 sel 0;
#X msg 95 371 \; screenLine5 Editing Key \$1;
#X obj 95 343 f;
#X obj 110 316 r edit-note;
#X obj 314 563 f;
#X obj 356 532 t b b;
#X obj 1188 120 r cgSc-1-aux;
#X obj 1188 141 ==;
#X obj 1143 169 spigot 0;
#X obj 51 238 s reprint-hfo;
#X obj 95 192 s reprint-edit;
#X obj 106 288 del 1;
#X obj 200 238 del 1;
#X msg 640 215 \; led 0 \;;
#X obj 632 155 spigot 0;
#X msg 706 172 0;
#X obj 634 176 t b f b;
#X connect 0 0 21 0;
#X connect 1 0 41 0;
#X connect 2 0 3 0;
#X connect 4 0 7 0;
#X connect 4 1 6 0;
#X connect 4 2 9 0;
#X connect 4 3 8 0;
#X connect 10 0 11 0;
#X connect 10 1 12 0;
#X connect 10 2 19 0;
#X connect 10 3 20 0;
#X connect 13 0 14 0;
#X connect 14 0 42 0;
#X connect 14 1 15 0;
#X connect 15 0 17 0;
#X connect 16 0 18 0;
#X connect 17 0 18 0;
#X connect 18 0 2 1;
#X connect 21 0 51 0;
#X connect 21 1 51 0;
#X connect 21 2 51 0;
#X connect 21 3 51 0;
#X connect 21 4 31 0;
#X connect 24 0 45 0;
#X connect 25 0 27 0;
#X connect 26 0 25 1;
#X connect 27 0 28 0;
#X connect 27 2 26 0;
#X connect 28 0 29 0;
#X connect 30 0 25 1;
#X connect 30 0 51 1;
#X connect 31 0 23 0;
#X connect 31 1 30 0;
#X connect 31 3 22 0;
#X connect 32 0 34 1;
#X connect 34 0 35 0;
#X connect 35 0 46 0;
#X connect 35 1 46 0;
#X connect 35 2 47 0;
#X connect 35 2 48 0;
#X connect 35 4 49 0;
#X connect 36 0 37 0;
#X connect 37 0 34 0;
#X connect 39 0 38 0;
#X connect 40 0 39 1;
#X connect 41 0 2 0;
#X connect 42 0 41 0;
#X connect 42 1 16 0;
#X connect 43 0 44 0;
#X connect 44 0 45 1;
#X connect 45 0 25 0;
#X connect 48 0 39 0;
#X connect 49 0 33 0;
#X connect 51 0 53 0;
#X connect 52 0 51 1;
#X connect 53 0 50 0;
#X connect 53 2 52 0;
#X restore 959 32 pd led-screen;
#X obj 860 25 r state;
#X obj 860 47 v state;
#N canvas 5 50 450 300 lock-knobs 0;
#X obj 160 78 s knob1Override;
#X obj 171 101 s knob2Override;
#X obj 188 124 s knob3Override;
#X obj 201 148 s knob4Override;
#X obj 234 17 inlet;
#X connect 4 0 0 0;
#X connect 4 0 1 0;
#X connect 4 0 2 0;
#X connect 4 0 3 0;
#X restore 1026 515 pd lock-knobs;
#X obj 1055 487 s seq-stop;
#X obj 74 279 s state;
#X text 369 100 state changing events;
#X obj 959 506 s state;
#X text 376 30 states: 0 stopped \, 1 playing \, 2 rec enabled \, 3 recording \, 4 key edit \, 5 info screen;
#X obj 853 167 r cgSc-1-6;
#X obj 910 256 + 1;
#X obj 880 289 % 2;
#X obj 880 310 sel 0 1, f 27;
#X obj 816 568 s cgSc-1-6label;
#X msg 840 510 Edit:On;
#X msg 816 479 Edit:Off;
#X obj 404 554 r seq3-1-actions;
#X obj 853 188 sel 0;
#X obj 880 230 t b;
#X msg 880 661 0;
#X obj 880 683 s state;
#X obj 404 624 f 1;
#X text 539 349 1: sequencer3 doing something;
#X text 545 330 0: seq3 nothing and edit mode off;
#X text 535 379 2: sequencer3 off edit mode on;
#X obj 785 393 loadbang;
#X obj 404 645 s state;
#X text 1161 146 0: seq3 off and not editing;
#X text 1161 166 1: seq3 on;
#X text 1161 190 2: edit on;
#X text 1164 213 3: start-up text;
#X obj 1026 467 t b b;
#X obj 404 575 sel 1 2 3 4 5 0, f 20;
#X msg 959 484 4;
#X obj 959 424 t b b b;
#X obj 76 225 loadbang;
#X msg 74 257 0;
#X obj 880 258 f 1;
#X msg 1018 619 \; led 0;
#X connect 1 0 2 0;
#X connect 9 0 17 0;
#X connect 10 0 37 1;
#X connect 11 0 12 0;
#X connect 12 0 15 0;
#X connect 12 0 19 0;
#X connect 12 0 38 0;
#X connect 12 1 14 0;
#X connect 12 1 34 0;
#X connect 14 0 13 0;
#X connect 15 0 13 0;
#X connect 16 0 32 0;
#X connect 17 1 18 0;
#X connect 18 0 37 0;
#X connect 19 0 20 0;
#X connect 21 0 26 0;
#X connect 25 0 15 0;
#X connect 31 0 3 0;
#X connect 31 1 4 0;
#X connect 32 0 21 0;
#X connect 32 1 21 0;
#X connect 32 2 21 0;
#X connect 32 3 21 0;
#X connect 32 4 21 0;
#X connect 33 0 7 0;
#X connect 34 0 33 0;
#X connect 34 1 19 0;
#X connect 34 2 31 0;
#X connect 35 0 36 0;
#X connect 36 0 5 0;
#X connect 37 0 10 0;
#X connect 37 0 11 0;
#X restore 730 196 pd states-and-leds;
#X obj 215 167 voice 12;
#X obj 60 170 voice 0;
#X obj 60 193 voice 1;
#X obj 60 216 voice 2;
#X obj 60 239 voice 3;
#X obj 60 262 voice 4;
#X obj 61 285 voice 5;
#X obj 139 168 voice 6;
#X obj 139 191 voice 7;
#X obj 139 214 voice 8;
#X obj 139 237 voice 9;
#X obj 139 260 voice 10;
#X obj 140 283 voice 11;
#X obj 215 191 voice 13;
#X obj 215 214 voice 14;
#X obj 215 237 voice 15;
#X obj 215 260 voice 16;
#X obj 216 283 voice 17;
#X obj 294 166 voice 18;
#X obj 294 189 voice 19;
#X obj 294 212 voice 20;
#X obj 294 235 voice 21;
#X obj 294 258 voice 22;
#X obj 295 281 voice 23;
#N canvas 4 50 695 287 save-params 0;
#X obj 122 105 sel 0;
#X obj 122 74 change;
#X obj 455 42 loadbang;
#X msg 455 92 \; param1 read param1.txt \; param2 read param2.txt \; param3 read param3.txt \; param4 read param4.txt \;;
#X msg 122 140 \; param1 write /tmp/state/param1.txt \; param2 write /tmp/state/param2.txt \; param3 write /tmp/state/param3.txt \; param4 write /tmp/state/param4.txt \;;
#X obj 122 32 r state;
#X connect 0 0 4 0;
#X connect 1 0 0 0;
#X connect 2 0 3 0;
#X connect 5 0 1 0;
#X restore 730 222 pd save-params;
#X obj 715 335 r aux;
#X obj 789 410 r cgSc-1-slots;
#X obj 832 335 r \$0-reprint-port;
#X obj 826 432 r beat-clock;
#X obj 723 583 r seq3-1-led;
#X obj 723 605 s led;
#N canvas 787 330 860 595 slot-saver-1 0;
#X obj 167 38 r cgSc-1-slots;
#X obj 30 68 loadbang;
#X msg 30 140 0;
#X obj 30 161 tabread \$0-slot;
#X obj 199 225 array define \$0-slot;
#X obj 30 110 t b b;
#X msg 199 138 read slot.txt;
#X msg 243 186 write slot.txt;
#X obj 243 160 r saveState;
#X obj 167 58 t a b;
#X msg 220 84 0;
#X obj 167 107 tabwrite \$0-slot;
#X obj 30 185 s cgSc-1-slots;
#X connect 0 0 9 0;
#X connect 1 0 5 0;
#X connect 2 0 3 0;
#X connect 3 0 12 0;
#X connect 5 0 2 0;
#X connect 5 1 6 0;
#X connect 6 0 4 0;
#X connect 7 0 4 0;
#X connect 8 0 7 0;
#X connect 9 0 11 0;
#X connect 9 1 10 0;
#X connect 10 0 11 1;
#X restore 722 558 pd slot-saver-1;
#N canvas 19 51 1178 831 metro-here 0;
#X obj 846 349 r seq3-1-actions;
#X obj 565 638 f;
#X msg 650 453 0;
#X obj 682 453 t b b;
#X msg 688 483 1;
#X obj 650 425 sel 1;
#X obj 565 495 del 1;
#X obj 257 436 s beat-clock;
#X obj 297 179 loadbang;
#X obj 517 376 r rec-state;
#X obj 517 398 sel 0;
#X msg 257 254 1;
#X obj 456 556 list, f 7;
#X obj 456 578 route 69;
#X obj 456 484 t b a;
#X msg 456 526 69;
#X msg 362 248 120;
#X obj 362 348 pack, f 10;
#X obj 397 316 t b a;
#X obj 257 284 metronome360 0, f 18;
#X obj 396 113 s seq3-1-quan;
#X obj 651 591 f;
#X obj 703 624 r cgSc-1-slots;
#X obj 703 650 + 1;
#X obj 456 755 print-line5 1, f 56;
#X obj 396 84 r metro-state;
#X obj 703 671 f;
#X obj 565 721 f;
#X obj 651 382 r cgSc-1-mute-print;
#X obj 975 581 r state;
#X obj 1020 664 t b;
#X msg 1020 685 1;
#X msg 975 653 0;
#X obj 975 602 sel 2 3 4;
#X obj 864 378 r state;
#X obj 864 399 sel 0 1;
#X msg 861 432 1;
#X msg 903 437 0;
#X obj 848 466 spigot 0;
#X obj 565 670 spigot 1, f 14;
#X obj 456 710 spigot 1;
#X connect 0 0 38 0;
#X connect 1 0 39 0;
#X connect 2 0 21 0;
#X connect 3 0 6 0;
#X connect 3 1 4 0;
#X connect 4 0 21 0;
#X connect 5 0 2 0;
#X connect 5 1 3 0;
#X connect 6 0 1 0;
#X connect 6 0 15 0;
#X connect 8 0 16 0;
#X connect 8 0 11 0;
#X connect 9 0 10 0;
#X connect 10 0 1 0;
#X connect 10 0 15 0;
#X connect 11 0 19 0;
#X connect 12 0 13 0;
#X connect 13 0 40 0;
#X connect 14 0 15 0;
#X connect 14 1 12 1;
#X connect 15 0 12 0;
#X connect 16 0 19 1;
#X connect 17 0 14 0;
#X connect 18 0 17 0;
#X connect 18 1 17 1;
#X connect 19 0 7 0;
#X connect 19 1 18 0;
#X connect 19 2 17 0;
#X connect 21 0 39 1;
#X connect 21 0 40 1;
#X connect 22 0 23 0;
#X connect 23 0 26 0;
#X connect 25 0 20 0;
#X connect 26 0 24 2;
#X connect 27 0 24 1;
#X connect 28 0 5 0;
#X connect 29 0 33 0;
#X connect 30 0 31 0;
#X connect 31 0 24 3;
#X connect 32 0 24 3;
#X connect 33 0 32 0;
#X connect 33 1 32 0;
#X connect 33 2 32 0;
#X connect 33 3 30 0;
#X connect 34 0 35 0;
#X connect 35 0 36 0;
#X connect 35 1 36 0;
#X connect 35 2 37 0;
#X connect 36 0 38 1;
#X connect 37 0 38 1;
#X connect 38 0 1 0;
#X connect 39 0 27 0;
#X connect 40 0 24 0;
#X restore 722 534 pd metro-here;
#N canvas 13 50 450 300 CG-PdLibrary-Local 0;
#X obj 502 35 r cgSc-1-slots;
#X obj 60 98 declare -path CG-Pd-Library-Local/sequencer;
#X obj 58 130 declare -path CG-Pd-Library-Local/externals;
#X obj 59 165 declare -path CG-Pd-Library-Local/metronome;
#X restore 759 24 pd CG-PdLibrary-Local;
#N canvas 12 50 450 300 CG-PdLibrary-SDcard 0;
#X obj 60 98 declare -path /sdcard/CG-Pd-Library/sequencer;
#X obj 58 130 declare -path /sdcard/CG-Pd-Library/externals;
#X obj 59 165 declare -path /sdcard/CG-Pd-Library/metronome;
#X obj 502 35 r cgSc-1-slots;
#X restore 759 53 pd CG-PdLibrary-SDcard;
#X obj 715 496 s local-notes;
#X obj 154 395 *~ 0.9;
#N canvas 5 50 825 527 delay 0;
#X obj 251 20 r eparam3;
#X obj 95 44 inlet~;
#X obj 104 417 outlet~;
#X obj 185 419 outlet~;
#X obj 395 31 r eparam4;
#X obj 199 220 + 1;
#X obj 241 171 * 2000;
#X obj 455 105 t f b;
#X obj 294 67 t f b;
#X obj 485 303 change -1;
#X msg 318 91 1;
#X msg 251 62 0;
#X msg 506 140 1;
#X msg 389 101 0;
#X obj 485 324 lop~ 8;
#X obj 188 273 *~;
#X obj 188 252 delay3sec 8;
#X obj 485 345 /~ 1.5;
#X obj 251 41 moses 0.01;
#X obj 395 72 moses 0.01;
#X obj 250 111 t f f;
#X obj 250 132 *;
#X obj 305 192 * 0.99;
#X obj 169 152 hip~ 100;
#X connect 0 0 18 0;
#X connect 1 0 2 0;
#X connect 1 0 3 0;
#X connect 1 0 23 0;
#X connect 4 0 19 0;
#X connect 5 0 16 1;
#X connect 6 0 5 0;
#X connect 7 0 22 0;
#X connect 7 1 12 0;
#X connect 8 0 20 0;
#X connect 8 1 10 0;
#X connect 9 0 14 0;
#X connect 10 0 9 0;
#X connect 11 0 9 0;
#X connect 12 0 9 0;
#X connect 13 0 9 0;
#X connect 14 0 17 0;
#X connect 15 0 2 0;
#X connect 15 0 3 0;
#X connect 16 0 15 0;
#X connect 17 0 15 1;
#X connect 18 0 11 0;
#X connect 18 1 8 0;
#X connect 19 0 13 0;
#X connect 19 1 7 0;
#X connect 20 0 21 0;
#X connect 20 1 21 1;
#X connect 21 0 6 0;
#X connect 22 0 16 2;
#X connect 23 0 16 0;
#X restore 155 466 pd delay;
#X obj 382 390 * 1000;
#X obj 382 411 lop~ 5;
#N canvas 594 50 1124 789 seq3-5option-control 0;
#X obj 139 278 outlet;
#X obj 65 121 t b;
#X msg 65 143 2;
#X obj 298 126 t b;
#X msg 298 148 3;
#X text 437 5 when aux is pressed after recording starts immediatley end the rec and play the loop;
#X obj 170 70 sel 0;
#X obj 202 94 t b;
#X msg 202 116 1;
#X obj 33 66 r cgSc-1-2;
#X obj 171 48 r cgSc-1-1;
#X obj 33 88 sel 0;
#X obj 266 99 sel 0;
#X obj 317 272 r seq3-1-actions;
#X obj 317 294 sel 1, f 12;
#X obj 398 327 t b, f 4;
#X obj 317 445 s cgSc-1-1label;
#X obj 507 308 r seq3-1-actions;
#X obj 588 353 t b, f 4;
#X obj 507 329 sel 2 3, f 12;
#X obj 978 320 t b, f 4;
#X msg 978 355 Latch:Off;
#X msg 896 355 Latch:On;
#X obj 507 441 s cgSc-1-2label;
#X text 521 279 print to the shortcut menu;
#X obj 378 141 f 0;
#X obj 130 0 r midi-start;
#X msg 130 22 4;
#X obj 373 105 r midi-stop;
#X obj 507 125 t b;
#X obj 475 98 sel 0;
#X msg 507 147 5;
#X obj 192 487 r seq3-1-actions;
#X obj 273 532 t b, f 4;
#X obj 192 508 sel 5, f 12;
#X obj 317 373 f;
#X msg 317 403 \$1Seq:Stop;
#X obj 398 372 f;
#X msg 398 402 \$1Seq:Play;
#X msg 507 399 \$1Rec:Armd;
#X msg 588 397 \$1Rec:On;
#X msg 659 398 \$1Rec:Off;
#X obj 507 374 f;
#X obj 582 373 f;
#X obj 649 370 f;
#X obj 273 554 f;
#X obj 192 560 f;
#X msg 192 607 \$1Dub:On;
#X obj 201 286 r cgSc-1-slots;
#X obj 201 329 t b f f;
#X obj 166 439 s seq3-1-actions;
#X obj 166 415 v seq3-1-state;
#X obj 201 309 + 1;
#X obj 668 299 + 1;
#X obj 668 251 r cgSc-1-slots;
#X obj 321 507 + 1;
#X obj 321 483 r cgSc-1-slots;
#X obj 559 76 sel 1;
#X obj 612 80 r seq3-1-actions;
#X obj 559 174 t b b;
#X msg 640 152 0;
#X obj 559 152 spigot 0;
#X msg 612 129 1;
#X msg 559 196 1;
#X obj 192 650 s cgSc-1-3label;
#X obj 475 71 r cgSc-1-3;
#X obj 559 52 r cgSc-1-aux;
#X obj 896 398 s cgSc-1-5label;
#X obj 267 72 r cgSc-1-5;
#X obj 358 53 t b;
#X obj 326 26 sel 0;
#X obj 326 2 r cgSc-1-4;
#X msg 358 75 6;
#X obj 465 480 r seq3-1-actions;
#X obj 507 558 f;
#X obj 584 501 + 1;
#X obj 584 477 r cgSc-1-slots;
#X obj 465 643 s cgSc-1-4label;
#X obj 612 104 sel 3, f 12;
#X msg 273 607 \$1Dub:Off;
#X obj 465 501 sel 6, f 10;
#X obj 532 526 t b;
#X obj 465 585 spigot 1;
#X obj 552 582 spigot 0;
#X obj 675 510 r seq3-1-actions;
#X obj 675 532 sel 3;
#X obj 591 537 ==;
#X obj 637 564 f;
#X msg 637 533 1;
#X msg 708 615 0;
#X msg 552 607 \$1:Undo;
#X msg 465 610 \$1:Undid;
#X obj 465 523 t b b;
#X obj 31 189 loadbang;
#X msg 31 211 0;
#X obj 23 341 r init-1-slot;
#X obj 23 363 s cgSc-1-slots;
#X obj 896 255 r seq3-1-togLatch;
#X obj 896 296 sel 1, f 12;
#X connect 1 0 2 0;
#X connect 2 0 0 0;
#X connect 3 0 4 0;
#X connect 4 0 0 0;
#X connect 6 1 7 0;
#X connect 7 0 8 0;
#X connect 8 0 0 0;
#X connect 9 0 11 0;
#X connect 10 0 6 0;
#X connect 11 1 1 0;
#X connect 12 1 3 0;
#X connect 13 0 14 0;
#X connect 14 0 35 0;
#X connect 14 1 15 0;
#X connect 15 0 37 0;
#X connect 17 0 19 0;
#X connect 18 0 44 0;
#X connect 19 0 42 0;
#X connect 19 1 43 0;
#X connect 19 2 18 0;
#X connect 20 0 21 0;
#X connect 21 0 67 0;
#X connect 22 0 67 0;
#X connect 25 0 0 0;
#X connect 26 0 27 0;
#X connect 27 0 0 0;
#X connect 28 0 25 0;
#X connect 29 0 31 0;
#X connect 30 1 29 0;
#X connect 31 0 0 0;
#X connect 32 0 34 0;
#X connect 33 0 45 0;
#X connect 34 0 46 0;
#X connect 34 1 33 0;
#X connect 35 0 36 0;
#X connect 36 0 16 0;
#X connect 37 0 38 0;
#X connect 38 0 16 0;
#X connect 39 0 23 0;
#X connect 40 0 23 0;
#X connect 41 0 23 0;
#X connect 42 0 39 0;
#X connect 43 0 40 0;
#X connect 44 0 41 0;
#X connect 45 0 79 0;
#X connect 46 0 47 0;
#X connect 47 0 64 0;
#X connect 48 0 52 0;
#X connect 49 0 51 0;
#X connect 49 1 35 1;
#X connect 49 2 37 1;
#X connect 51 0 50 0;
#X connect 52 0 49 0;
#X connect 53 0 44 1;
#X connect 53 0 43 1;
#X connect 53 0 42 1;
#X connect 54 0 53 0;
#X connect 55 0 45 1;
#X connect 55 0 46 1;
#X connect 56 0 55 0;
#X connect 57 0 61 0;
#X connect 58 0 78 0;
#X connect 59 0 63 0;
#X connect 59 1 60 0;
#X connect 60 0 61 1;
#X connect 61 0 59 0;
#X connect 62 0 61 1;
#X connect 63 0 0 0;
#X connect 65 0 30 0;
#X connect 66 0 57 0;
#X connect 68 0 12 0;
#X connect 69 0 72 0;
#X connect 70 1 69 0;
#X connect 71 0 70 0;
#X connect 72 0 0 0;
#X connect 73 0 80 0;
#X connect 74 0 82 0;
#X connect 74 0 83 0;
#X connect 75 0 74 1;
#X connect 76 0 75 0;
#X connect 78 0 62 0;
#X connect 79 0 64 0;
#X connect 80 0 92 0;
#X connect 80 1 81 0;
#X connect 81 0 74 0;
#X connect 82 0 91 0;
#X connect 83 0 90 0;
#X connect 84 0 85 0;
#X connect 85 0 88 0;
#X connect 86 0 82 1;
#X connect 87 0 86 0;
#X connect 87 0 83 1;
#X connect 88 0 87 0;
#X connect 89 0 87 0;
#X connect 90 0 77 0;
#X connect 91 0 77 0;
#X connect 92 0 74 0;
#X connect 92 1 89 0;
#X connect 93 0 94 0;
#X connect 94 0 0 0;
#X connect 95 0 96 0;
#X connect 97 0 98 0;
#X connect 98 0 22 0;
#X connect 98 1 20 0;
#X restore 752 388 pd seq3-5option-control;
#X obj 715 459 seq3 1 0 ../../sequences 1 0, f 19;
#X obj 715 366 shortcut 1 1, f 20;
#X connect 6 0 51 0;
#X connect 8 0 7 0;
#X connect 9 0 10 0;
#X connect 10 0 11 0;
#X connect 10 1 11 1;
#X connect 11 0 53 0;
#X connect 40 0 57 0;
#X connect 41 0 56 2;
#X connect 42 0 57 1;
#X connect 43 0 56 3;
#X connect 44 0 45 0;
#X connect 51 0 52 0;
#X connect 52 0 0 0;
#X connect 52 1 1 0;
#X connect 53 0 54 0;
#X connect 54 0 8 0;
#X connect 55 0 56 1;
#X connect 56 0 50 0;
#X connect 57 0 56 0;
