#N canvas 83 50 922 704 10;
#X obj 144 109 stripnote;
#X obj 144 180 % 24;
#X text 507 131 allow all midi notes to trigger samples...;
#X obj 215 354 t b f;
#N canvas 4 50 693 312 get-params 0;
#X obj 82 140 tabread param1;
#X floatatom 81 166 5 0 0 0 - - - 0;
#X floatatom 187 172 5 0 0 0 - - - 0;
#X floatatom 296 164 5 0 0 0 - - - 0;
#X floatatom 404 162 5 0 0 0 - - - 0;
#X obj 189 140 tabread param2;
#X obj 297 138 tabread param3;
#X obj 406 135 tabread param4;
#X obj 83 99 inlet;
#X obj 82 186 outlet;
#X obj 187 198 outlet;
#X obj 285 194 outlet;
#X obj 398 187 outlet;
#X connect 0 0 1 0;
#X connect 1 0 9 0;
#X connect 2 0 10 0;
#X connect 3 0 11 0;
#X connect 4 0 12 0;
#X connect 5 0 2 0;
#X connect 6 0 3 0;
#X connect 7 0 4 0;
#X connect 8 0 0 0;
#X connect 8 0 5 0;
#X connect 8 0 6 0;
#X connect 8 0 7 0;
#X restore 248 400 pd get-params;
#X obj 215 491 drum1, f 28;
#X text 189 253 argument (key number);
#X obj 144 252 sel \$1;
#X obj 215 296 f;
#X obj 144 204 t f f;
#X obj 215 521 throw~ voice-out;
#X obj 196 58 r key-just-copied;
#X obj 100 35 r local-notes;
#X obj 144 156 abs;
#X floatatom 78 194 5 0 0 0 - - - 0;
#X obj 144 131 expr if ($f1 >= 60 && $f1 <= 83 \, $f1 - 60 \, ($f1 % 24 - 12));
#X connect 0 0 15 0;
#X connect 0 1 5 5;
#X connect 1 0 9 0;
#X connect 3 0 5 0;
#X connect 3 1 4 0;
#X connect 4 0 5 1;
#X connect 4 1 5 2;
#X connect 4 2 5 3;
#X connect 4 3 5 4;
#X connect 5 0 10 0;
#X connect 7 0 8 0;
#X connect 8 0 3 0;
#X connect 9 0 7 0;
#X connect 9 1 8 1;
#X connect 11 0 0 0;
#X connect 12 0 0 0;
#X connect 13 0 1 0;
#X connect 15 0 13 0;
#X connect 15 0 14 0;
