#N canvas 363 106 569 648 10;
#X obj 191 449 hip~ 5;
#X obj 192 339 -~ 0.5;
#X obj 192 388 clip~ -0.5 0.5;
#X obj 192 411 cos~;
#X obj 192 364 *~ 3;
#X obj 192 310 phasor~ 220;
#X obj 190 189 sig~;
#X obj 163 253 *~;
#X obj 122 224 r~ tune;
#X obj 202 32 inlet, f 7;
#X obj 192 568 outlet~;
#X obj 207 526 *~;
#X obj 317 459 line~;
#X obj 315 498 *~;
#X obj 208 57 unpack;
#X obj 378 138 sel 0;
#X obj 434 163 t b;
#X obj 182 163 mtof;
#X obj 197 112 - 36;
#X obj 191 225 lop~ 50;
#X obj 192 477 *~ 0.2;
#X msg 462 186 1 50;
#X msg 416 192 0 100;
#X connect 0 0 20 0;
#X connect 1 0 4 0;
#X connect 2 0 3 0;
#X connect 3 0 0 0;
#X connect 4 0 2 0;
#X connect 5 0 1 0;
#X connect 6 0 19 0;
#X connect 7 0 5 0;
#X connect 8 0 7 0;
#X connect 9 0 14 0;
#X connect 11 0 10 0;
#X connect 12 0 13 1;
#X connect 12 0 13 0;
#X connect 13 0 11 1;
#X connect 14 0 18 0;
#X connect 14 1 15 0;
#X connect 15 0 22 0;
#X connect 15 1 16 0;
#X connect 16 0 21 0;
#X connect 17 0 6 0;
#X connect 18 0 17 0;
#X connect 19 0 7 1;
#X connect 20 0 11 0;
#X connect 21 0 12 0;
#X connect 22 0 12 0;
