#N canvas 364 94 981 621 10;
#X declare -path CG-Pd-Library-Local/externals;
#X declare -path CG-Pd-Library-Local/metronome;
#X declare -path CG-Pd-Library-Local/sampling;
#X declare -path CG-Pd-Library-Local/sequencer;
#N canvas 44 61 1275 769 arp 0;
#X obj 476 78 expr 1000/($f1/60);
#X obj 476 18 r bpm;
#X obj 476 171 / 4;
#X obj 476 40 int;
#N canvas 20 50 1242 820 double-double 0;
#X obj 362 125 r num-down;
#X obj 329 153 spigot;
#X obj 627 348 counter-up 0;
#X obj 328 657 outlet;
#X obj 329 104 spigot 0;
#X obj 374 74 inlet;
#X obj 329 44 r arp-tick;
#X obj 328 494 text get note-list;
#X obj 627 449 text get note-list;
#X msg 528 469 0;
#X obj 329 174 t b b;
#X obj 427 46 r \$0-allll;
#X obj 757 422 random 7;
#X obj 757 443 - 3;
#X obj 595 199 r num-down;
#X obj 634 276 sel 0;
#X obj 329 342 counter-up 0;
#X obj 411 371 random 7;
#X obj 411 392 - 3;
#X obj 327 566 list append;
#X obj 327 587 list trim;
#X obj 627 569 list append;
#X obj 627 590 list trim;
#X obj 595 220 t f f f f;
#X obj 627 405 random 2;
#X obj 627 369 t b;
#X connect 0 0 1 1;
#X connect 1 0 10 0;
#X connect 2 0 25 0;
#X connect 2 1 12 0;
#X connect 4 0 1 0;
#X connect 5 0 4 1;
#X connect 6 0 4 0;
#X connect 7 0 19 0;
#X connect 8 0 21 0;
#X connect 9 0 19 1;
#X connect 9 0 21 1;
#X connect 10 0 16 0;
#X connect 10 1 2 0;
#X connect 11 0 4 1;
#X connect 12 0 13 0;
#X connect 13 0 21 1;
#X connect 14 0 23 0;
#X connect 15 0 9 0;
#X connect 15 0 2 1;
#X connect 15 0 16 1;
#X connect 16 0 7 0;
#X connect 16 1 17 0;
#X connect 17 0 18 0;
#X connect 18 0 19 1;
#X connect 19 0 20 0;
#X connect 20 0 3 0;
#X connect 21 0 22 0;
#X connect 22 0 3 0;
#X connect 23 0 16 2;
#X connect 23 1 2 2;
#X connect 23 2 15 0;
#X connect 23 3 24 1;
#X connect 24 0 8 0;
#X connect 25 0 24 0;
#X restore 1036 513 pd double-double;
#X msg 742 291 0;
#X msg 70 318 1;
#X msg 141 316 1;
#X msg 203 315 1;
#X msg 261 313 1;
#N canvas 66 80 1242 820 double-randoms 0;
#X obj 362 125 r num-down;
#X obj 362 230 r num-down;
#X obj 329 153 spigot;
#X obj 329 321 % 1, f 10;
#X obj 655 239 r num-down;
#X obj 655 280 t f f;
#X obj 627 397 % 1;
#X obj 627 348 counter-up 0;
#X obj 329 667 outlet;
#X obj 329 104 spigot 0;
#X obj 374 74 inlet;
#X obj 329 281 random;
#X obj 329 44 r arp-tick;
#X obj 467 411 random 5;
#X obj 467 432 - 2;
#X obj 362 251 t f f f;
#X obj 401 280 sel 0;
#X obj 329 504 text get note-list;
#X obj 627 449 text get note-list;
#X obj 329 342 t a b;
#X msg 401 301 0;
#X obj 758 410 counter-up 4;
#X obj 329 174 t b b;
#X obj 427 46 r \$0-allll;
#X obj 329 555 list append;
#X obj 329 576 list trim;
#X obj 627 519 list append;
#X obj 627 540 list trim;
#X connect 0 0 2 1;
#X connect 1 0 15 0;
#X connect 2 0 22 0;
#X connect 3 0 19 0;
#X connect 4 0 5 0;
#X connect 5 0 6 1;
#X connect 5 1 7 2;
#X connect 6 0 18 0;
#X connect 7 0 6 0;
#X connect 7 1 21 0;
#X connect 9 0 2 0;
#X connect 10 0 9 1;
#X connect 11 0 3 0;
#X connect 12 0 9 0;
#X connect 13 0 14 0;
#X connect 14 0 24 1;
#X connect 15 0 11 1;
#X connect 15 1 3 1;
#X connect 15 2 16 0;
#X connect 16 0 20 0;
#X connect 16 0 7 1;
#X connect 16 0 21 1;
#X connect 17 0 24 0;
#X connect 18 0 26 0;
#X connect 19 0 17 0;
#X connect 19 1 13 0;
#X connect 20 0 24 1;
#X connect 20 0 26 1;
#X connect 21 0 26 1;
#X connect 22 0 11 0;
#X connect 22 1 7 0;
#X connect 23 0 9 1;
#X connect 24 0 25 0;
#X connect 25 0 8 0;
#X connect 26 0 27 0;
#X connect 27 0 8 0;
#X restore 917 512 pd double-randoms;
#X obj 73 119 i;
#N canvas 4 50 615 662 singleup4 0;
#X obj 228 220 r num-down;
#X obj 364 312 sel 0;
#X obj 228 248 t f f;
#X obj 182 340 counter-up 0;
#X obj 182 570 outlet;
#X obj 182 447 text get note-list;
#X obj 330 366 t b;
#X obj 215 193 r num-down;
#X obj 182 225 spigot;
#X obj 182 139 spigot 0;
#X obj 227 108 inlet;
#X obj 182 62 r arp-tick;
#X obj 182 247 t b;
#X obj 304 49 r \$0-allll;
#X obj 330 441 counter-up 4;
#X obj 182 394 % 1;
#X obj 182 510 list append;
#X obj 182 531 list trim;
#X connect 0 0 2 0;
#X connect 1 0 3 1;
#X connect 1 0 14 1;
#X connect 2 0 1 0;
#X connect 2 0 15 1;
#X connect 2 1 3 2;
#X connect 3 0 15 0;
#X connect 3 1 6 0;
#X connect 5 0 16 0;
#X connect 6 0 14 0;
#X connect 7 0 8 1;
#X connect 8 0 12 0;
#X connect 9 0 8 0;
#X connect 10 0 9 1;
#X connect 11 0 9 0;
#X connect 12 0 3 0;
#X connect 13 0 9 1;
#X connect 14 0 16 1;
#X connect 15 0 5 0;
#X connect 16 0 17 0;
#X connect 17 0 4 0;
#X restore 550 513 pd singleup4;
#N canvas 260 67 1009 708 singledown4 0;
#X obj 352 216 r num-down;
#X obj 488 308 sel 0;
#X obj 352 244 t f f;
#X obj 306 396 % 1;
#X obj 306 336 counter-up 0;
#X obj 306 536 outlet;
#X obj 306 443 text get note-list;
#X obj 454 362 t b;
#X obj 339 189 r num-down;
#X obj 306 221 spigot;
#X obj 306 135 spigot 0;
#X obj 351 104 inlet;
#X obj 306 58 r arp-tick;
#X obj 306 243 t b;
#X msg 454 432 0;
#X msg 485 432 -1;
#X obj 454 387 counter-up 4;
#X obj 454 408 sel 0 1 2 3, f 21;
#X msg 519 432 -2;
#X msg 550 432 -3;
#X obj 391 54 r \$0-allll;
#X obj 306 475 list append;
#X obj 306 496 list trim;
#X obj 454 458 f, f 21;
#X connect 0 0 2 0;
#X connect 1 0 4 1;
#X connect 1 0 16 1;
#X connect 2 0 1 0;
#X connect 2 0 3 1;
#X connect 2 1 4 2;
#X connect 3 0 6 0;
#X connect 4 0 3 0;
#X connect 4 1 7 0;
#X connect 6 0 21 0;
#X connect 7 0 16 0;
#X connect 8 0 9 1;
#X connect 9 0 13 0;
#X connect 10 0 9 0;
#X connect 11 0 10 1;
#X connect 12 0 10 0;
#X connect 13 0 4 0;
#X connect 14 0 23 0;
#X connect 15 0 23 0;
#X connect 16 0 17 0;
#X connect 17 0 14 0;
#X connect 17 1 15 0;
#X connect 17 2 18 0;
#X connect 17 3 19 0;
#X connect 18 0 23 0;
#X connect 19 0 23 0;
#X connect 20 0 10 1;
#X connect 21 0 22 0;
#X connect 22 0 5 0;
#X connect 23 0 21 1;
#X restore 653 511 pd singledown4;
#X msg 343 315 1;
#X msg 401 315 1;
#X msg 449 315 1;
#N canvas 107 113 1009 708 singleup2 0;
#X obj 301 274 r num-down;
#X obj 437 366 sel 0;
#X obj 301 302 t f f;
#X obj 255 454 % 1;
#X obj 255 394 counter-up 0;
#X obj 255 594 outlet;
#X obj 255 501 text get note-list;
#X obj 403 420 t b;
#X obj 288 247 r num-down;
#X obj 255 279 spigot;
#X obj 255 193 spigot 0;
#X obj 300 162 inlet;
#X obj 255 116 r arp-tick;
#X obj 255 301 t b;
#X obj 391 54 r \$0-allll;
#X obj 403 445 counter-up 3;
#X obj 255 522 list append;
#X obj 255 543 list trim;
#X connect 0 0 2 0;
#X connect 1 0 4 1;
#X connect 1 0 15 1;
#X connect 2 0 1 0;
#X connect 2 0 3 1;
#X connect 2 1 4 2;
#X connect 3 0 6 0;
#X connect 4 0 3 0;
#X connect 4 1 7 0;
#X connect 6 0 16 0;
#X connect 7 0 15 0;
#X connect 8 0 9 1;
#X connect 9 0 13 0;
#X connect 10 0 9 0;
#X connect 11 0 10 1;
#X connect 12 0 10 0;
#X connect 13 0 4 0;
#X connect 14 0 10 1;
#X connect 15 0 16 1;
#X connect 16 0 17 0;
#X connect 17 0 5 0;
#X restore 332 512 pd singleup2;
#N canvas 7 50 1009 708 singledown2 0;
#X obj 348 243 r num-down;
#X obj 484 335 sel 0;
#X obj 348 271 t f f;
#X obj 302 423 % 1;
#X obj 302 363 counter-up 0;
#X obj 302 563 outlet;
#X obj 302 470 text get note-list;
#X obj 450 389 t b;
#X obj 335 216 r num-down;
#X obj 302 248 spigot;
#X obj 302 162 spigot 0;
#X obj 347 131 inlet;
#X obj 302 85 r arp-tick;
#X obj 302 270 t b;
#X msg 450 455 0;
#X msg 481 459 -1;
#X obj 391 54 r \$0-allll;
#X obj 450 414 counter-up 3;
#X obj 450 435 sel 0 1 2;
#X msg 508 459 -2;
#X obj 450 485 f;
#X obj 302 512 list append, f 19;
#X obj 302 533 list trim;
#X connect 0 0 2 0;
#X connect 1 0 4 1;
#X connect 1 0 17 1;
#X connect 2 0 1 0;
#X connect 2 0 3 1;
#X connect 2 1 4 2;
#X connect 3 0 6 0;
#X connect 4 0 3 0;
#X connect 4 1 7 0;
#X connect 6 0 21 0;
#X connect 7 0 17 0;
#X connect 8 0 9 1;
#X connect 9 0 13 0;
#X connect 10 0 9 0;
#X connect 11 0 10 1;
#X connect 12 0 10 0;
#X connect 13 0 4 0;
#X connect 14 0 20 0;
#X connect 15 0 20 0;
#X connect 16 0 10 1;
#X connect 17 0 18 0;
#X connect 18 0 14 0;
#X connect 18 1 15 0;
#X connect 18 2 19 0;
#X connect 19 0 20 0;
#X connect 20 0 21 1;
#X connect 21 0 22 0;
#X connect 22 0 5 0;
#X restore 434 511 pd singledown2;
#N canvas 4 50 1009 708 updown2 0;
#X obj 320 510 outlet;
#X obj 242 121 spigot 0;
#X obj 287 85 inlet;
#X obj 242 187 spigot 1;
#X obj 242 54 r arp-tick;
#X obj 242 247 counter-up;
#X obj 299 214 r num-down;
#X obj 471 183 r num-down;
#X obj 471 221 sel 0;
#X obj 287 158 r num-down;
#X obj 405 288 counter-up 4;
#X obj 405 309 sel 0 1 2 3, f 18;
#X msg 405 330 0;
#X msg 465 330 0;
#X msg 435 330 1;
#X msg 495 330 -1;
#X obj 405 370 f;
#X obj 180 315 text get note-list;
#X msg 555 330 0;
#X obj 385 57 r \$0-allll;
#X obj 320 449 list append;
#X obj 320 479 list trim;
#X connect 1 0 3 0;
#X connect 2 0 1 1;
#X connect 3 0 5 0;
#X connect 4 0 1 0;
#X connect 5 0 17 0;
#X connect 5 1 10 0;
#X connect 6 0 5 2;
#X connect 7 0 8 0;
#X connect 8 0 10 1;
#X connect 8 0 18 0;
#X connect 9 0 3 1;
#X connect 10 0 11 0;
#X connect 11 0 12 0;
#X connect 11 1 14 0;
#X connect 11 2 13 0;
#X connect 11 3 15 0;
#X connect 12 0 16 0;
#X connect 13 0 16 0;
#X connect 14 0 16 0;
#X connect 15 0 16 0;
#X connect 16 0 20 1;
#X connect 17 0 20 0;
#X connect 18 0 20 1;
#X connect 19 0 1 1;
#X connect 20 0 21 0;
#X connect 21 0 0 0;
#X restore 763 512 pd updown2;
#X text 157 9 Sets the Pattern;
#X obj 73 10 r seq3-1-k2;
#X obj 73 75 f;
#X obj 97 35 r pattern-k2;
#X obj 73 257 t f b, f 112;
#N canvas 4 50 1009 708 singleup2 0;
#X obj 410 225 r num-down;
#X obj 307 345 bng 15 250 50 0 empty empty empty 17 7 0 10 -262144
-1 -1;
#X floatatom 422 282 5 0 0 0 - - -;
#X obj 420 255 r num-down;
#X floatatom 484 494 5 0 0 0 - - -;
#X obj 306 623 + 0;
#X obj 485 513 * 12;
#X obj 298 304 spigot;
#X obj 234 516 tabread notes-increasing;
#X obj 378 338 sel 0;
#X obj 396 437 bng 15 250 50 0 empty empty empty 17 7 0 10 -262144
-1 -1;
#X obj 422 301 t f f;
#X msg 506 462 0;
#X obj 247 467 % 1;
#X obj 255 394 counter-up 0;
#X obj 487 756 outlet;
#X obj 327 176 spigot 0;
#X obj 459 91 inlet;
#X obj 307 659 - 24;
#X obj 480 427 counter-up 2;
#X obj 268 79 r arp-tick;
#X connect 0 0 7 1;
#X connect 1 0 14 0;
#X connect 2 0 11 0;
#X connect 3 0 2 0;
#X connect 4 0 6 0;
#X connect 5 0 18 0;
#X connect 6 0 5 1;
#X connect 7 0 1 0;
#X connect 8 0 5 0;
#X connect 9 0 12 0;
#X connect 9 0 14 1;
#X connect 9 0 19 1;
#X connect 10 0 19 0;
#X connect 11 0 9 0;
#X connect 11 0 13 1;
#X connect 11 1 14 2;
#X connect 12 0 4 0;
#X connect 13 0 8 0;
#X connect 14 0 13 0;
#X connect 14 1 10 0;
#X connect 16 0 7 0;
#X connect 17 0 16 1;
#X connect 18 0 15 0;
#X connect 19 0 4 0;
#X connect 20 0 16 0;
#X restore -89 770 pd singleup2;
#N canvas 13 50 892 628 none 0;
#X obj 331 210 r num-down;
#X obj 453 123 r num-down;
#X obj 298 242 spigot;
#X obj 453 209 sel 0, f 9;
#X obj 453 175 t f f, f 20;
#X obj 298 444 % 1;
#X obj 298 323 counter-up 0, f 42;
#X obj 298 579 outlet;
#X obj 298 156 spigot 0;
#X obj 343 125 inlet;
#X obj 298 79 r arp-tick;
#X obj 298 264 t b;
#X obj 298 473 text get note-list;
#X obj 391 54 r \$0-allll;
#X obj 298 494 list append 0;
#X obj 298 515 list trim;
#X connect 0 0 2 1;
#X connect 1 0 4 0;
#X connect 2 0 11 0;
#X connect 3 0 6 1;
#X connect 4 0 3 0;
#X connect 4 0 5 1;
#X connect 4 1 6 2;
#X connect 5 0 12 0;
#X connect 6 0 5 0;
#X connect 8 0 2 0;
#X connect 9 0 8 1;
#X connect 10 0 8 0;
#X connect 11 0 6 0;
#X connect 12 0 14 0;
#X connect 13 0 8 1;
#X connect 14 0 15 0;
#X connect 15 0 7 0;
#X restore 272 510 pd none;
#X msg 516 322 1;
#X obj 476 230 s step;
#X obj 476 193 - 20;
#X obj 584 108 t b a;
#X obj 542 -8 r divide-that-beat;
#X obj 542 19 sel 0 1 2 3 4 5, f 29;
#X msg 542 41 4;
#X msg 573 42 3;
#X msg 608 45 2;
#X msg 642 43 1;
#X msg 677 47 0.5;
#X msg 709 46 0.25;
#X obj 577 705 s arp-notes;
#X obj 550 680 t a a;
#N canvas 4 50 871 645 midi-notes-out 0;
#X obj 62 23 inlet;
#X obj 419 450 r midiCh;
#X obj 62 476 noteout, f 60;
#X obj 62 54 unpack 0 0, f 38;
#X obj 62 251 % 24;
#X obj 62 117 t a a, f 12;
#X obj 131 217 i;
#X obj 131 239 - 2;
#X obj 131 169 / 24;
#X obj 131 191 + 0.49999;
#X obj 131 144 + 1;
#X obj 131 260 * 12;
#X obj 131 281 i;
#X obj 62 332 +, f 12;
#X obj 62 353 + 60;
#X obj 62 404 +, f 6;
#X obj 95 374 r global-pitch;
#X connect 0 0 3 0;
#X connect 1 0 2 2;
#X connect 3 0 5 0;
#X connect 3 1 2 1;
#X connect 4 0 13 0;
#X connect 5 0 4 0;
#X connect 5 1 10 0;
#X connect 6 0 7 0;
#X connect 7 0 11 0;
#X connect 8 0 9 0;
#X connect 9 0 6 0;
#X connect 10 0 8 0;
#X connect 11 0 12 0;
#X connect 12 0 13 1;
#X connect 13 0 14 0;
#X connect 14 0 15 0;
#X connect 15 0 2 0;
#X connect 16 0 15 1;
#X restore 550 725 pd midi-notes-out;
#X obj 156 181 s pattern-k2-label;
#X obj 742 320 s \$0-allll;
#X obj 107 228 s volume-adjustment;
#N canvas 379 124 879 662 custom-makenote 0;
#X obj 430 275 del, f 6;
#X obj 463 249 r step;
#X obj 413 331 f;
#X msg 430 230 stop;
#X obj 379 206 t a b b b;
#X obj 379 251 t a a;
#X obj 236 39 inlet;
#X obj 236 139 route 1 2 3 4, f 55;
#X obj 379 376 t a;
#X obj 710 276 del, f 6;
#X obj 743 250 r step;
#X obj 693 332 f;
#X msg 710 231 stop;
#X obj 659 207 t a b b b;
#X obj 659 252 t a a;
#X obj 659 377 t a;
#X obj 574 270 del, f 6;
#X obj 607 244 r step;
#X obj 557 326 f;
#X msg 574 225 stop;
#X obj 523 201 t a b b b;
#X obj 523 246 t a a;
#X obj 523 371 t a;
#X obj 287 267 del, f 6;
#X obj 320 241 r step;
#X obj 270 323 f;
#X msg 287 222 stop;
#X obj 236 198 t a b b b;
#X obj 236 243 t a a;
#X obj 236 368 t a;
#X obj 236 540 outlet;
#X obj 236 60 list split 2;
#X obj 236 118 pack 0 0 0 0, f 14;
#X obj 285 298 unpack 0 0 0;
#X obj 270 344 pack 0 0 0;
#X obj 428 306 unpack 0 0 0;
#X obj 572 301 unpack 0 0 0;
#X obj 708 307 unpack 0 0 0;
#X obj 413 352 pack 0 0 0;
#X obj 557 347 pack 0 0 0;
#X obj 694 353 pack 0 0 0;
#X obj 237 97 poly 4 1, f 10;
#X connect 0 0 2 0;
#X connect 1 0 0 1;
#X connect 2 0 38 0;
#X connect 3 0 0 0;
#X connect 4 0 5 0;
#X connect 4 1 0 0;
#X connect 4 2 2 0;
#X connect 4 3 3 0;
#X connect 5 0 8 0;
#X connect 5 1 35 0;
#X connect 6 0 31 0;
#X connect 7 0 27 0;
#X connect 7 1 4 0;
#X connect 7 2 20 0;
#X connect 7 3 13 0;
#X connect 8 0 30 0;
#X connect 9 0 11 0;
#X connect 10 0 9 1;
#X connect 11 0 40 0;
#X connect 12 0 9 0;
#X connect 13 0 14 0;
#X connect 13 1 9 0;
#X connect 13 2 11 0;
#X connect 13 3 12 0;
#X connect 14 0 15 0;
#X connect 14 1 37 0;
#X connect 15 0 30 0;
#X connect 16 0 18 0;
#X connect 17 0 16 1;
#X connect 18 0 39 0;
#X connect 19 0 16 0;
#X connect 20 0 21 0;
#X connect 20 1 16 0;
#X connect 20 2 18 0;
#X connect 20 3 19 0;
#X connect 21 0 22 0;
#X connect 21 1 36 0;
#X connect 22 0 30 0;
#X connect 23 0 25 0;
#X connect 24 0 23 1;
#X connect 25 0 34 0;
#X connect 26 0 23 0;
#X connect 27 0 28 0;
#X connect 27 1 23 0;
#X connect 27 2 25 0;
#X connect 27 3 26 0;
#X connect 28 0 29 0;
#X connect 28 1 33 0;
#X connect 29 0 30 0;
#X connect 31 0 41 0;
#X connect 31 1 32 3;
#X connect 32 0 7 0;
#X connect 33 0 25 1;
#X connect 34 0 29 0;
#X connect 35 0 2 1;
#X connect 36 0 18 1;
#X connect 37 0 11 1;
#X connect 38 0 8 0;
#X connect 39 0 22 0;
#X connect 40 0 15 0;
#X connect 41 0 32 0;
#X connect 41 1 32 1;
#X connect 41 2 32 2;
#X restore 550 654 pd custom-makenote;
#X obj 74 97 * 9;
#X obj 668 342 s \$0-allll;
#X msg 668 313 1;
#N canvas 4 50 1009 708 updown4 0;
#X obj 320 510 outlet;
#X obj 242 121 spigot 0;
#X obj 287 85 inlet;
#X obj 242 187 spigot 1;
#X obj 242 54 r arp-tick;
#X obj 242 247 counter-up;
#X obj 299 214 r num-down;
#X obj 471 183 r num-down;
#X obj 471 221 sel 0;
#X obj 287 158 r num-down;
#X msg 405 330 0;
#X msg 435 330 1;
#X obj 487 381 f;
#X obj 180 315 text get note-list;
#X msg 679 337 0;
#X obj 385 57 r \$0-allll;
#X obj 320 449 list append;
#X obj 320 479 list trim;
#X obj 405 288 counter-up 8;
#X msg 465 330 2;
#X msg 527 330 0;
#X msg 617 330 -1;
#X msg 495 330 1;
#X msg 557 330 -1;
#X msg 587 330 -2;
#X obj 405 309 sel 0 1 2 3 4 5 6 7, f 40;
#X connect 1 0 3 0;
#X connect 2 0 1 1;
#X connect 3 0 5 0;
#X connect 4 0 1 0;
#X connect 5 0 13 0;
#X connect 5 1 18 0;
#X connect 6 0 5 2;
#X connect 7 0 8 0;
#X connect 8 0 14 0;
#X connect 8 0 18 1;
#X connect 9 0 3 1;
#X connect 10 0 12 0;
#X connect 11 0 12 0;
#X connect 12 0 16 1;
#X connect 13 0 16 0;
#X connect 14 0 16 1;
#X connect 15 0 1 1;
#X connect 16 0 17 0;
#X connect 17 0 0 0;
#X connect 18 0 25 0;
#X connect 19 0 12 0;
#X connect 20 0 12 0;
#X connect 21 0 12 0;
#X connect 22 0 12 0;
#X connect 23 0 12 0;
#X connect 24 0 12 0;
#X connect 25 0 10 0;
#X connect 25 1 11 0;
#X connect 25 2 19 0;
#X connect 25 3 22 0;
#X connect 25 4 20 0;
#X connect 25 5 23 0;
#X connect 25 6 24 0;
#X connect 25 7 21 0;
#X restore 841 512 pd updown4;
#X obj 73 285 sel 0 1 2 3 4 5 6 7 8 9, f 108;
#X msg 606 324 1;
#X obj 780 131 text define -k patt-labels;
#A set None \; Up2 \; Down2 \; Up3 \; Down3 \; Up-Down2 \; Up-Down3
\; Double-Randoms \; Double-Double \; All \;;
#X obj 814 47 loadbang;
#X msg 814 68 read patt-labels.txt;
#X obj 156 131 text get patt-labels;
#X msg 819 100 write patt-labels.txt;
#X msg 156 152 Arp: \$1;
#X connect 0 0 2 0;
#X connect 1 0 3 0;
#X connect 2 0 29 0;
#X connect 3 0 0 0;
#X connect 4 0 45 0;
#X connect 5 0 43 0;
#X connect 6 0 26 0;
#X connect 7 0 17 0;
#X connect 8 0 18 0;
#X connect 9 0 12 0;
#X connect 10 0 45 0;
#X connect 11 0 24 0;
#X connect 11 0 44 0;
#X connect 11 0 55 0;
#X connect 12 0 45 0;
#X connect 13 0 45 0;
#X connect 14 0 13 0;
#X connect 15 0 19 0;
#X connect 16 0 49 0;
#X connect 17 0 45 0;
#X connect 18 0 45 0;
#X connect 19 0 45 0;
#X connect 21 0 22 0;
#X connect 22 0 46 0;
#X connect 23 0 22 0;
#X connect 24 0 50 0;
#X connect 24 1 5 0;
#X connect 26 0 45 0;
#X connect 27 0 10 0;
#X connect 29 0 28 0;
#X connect 30 0 2 0;
#X connect 30 1 2 1;
#X connect 31 0 32 0;
#X connect 32 0 33 0;
#X connect 32 1 34 0;
#X connect 32 2 35 0;
#X connect 32 3 36 0;
#X connect 32 4 37 0;
#X connect 32 5 38 0;
#X connect 33 0 30 0;
#X connect 34 0 30 0;
#X connect 35 0 30 0;
#X connect 36 0 30 0;
#X connect 37 0 30 0;
#X connect 38 0 30 0;
#X connect 40 0 41 0;
#X connect 40 1 39 0;
#X connect 45 0 40 0;
#X connect 46 0 11 0;
#X connect 48 0 47 0;
#X connect 49 0 45 0;
#X connect 50 0 6 0;
#X connect 50 1 7 0;
#X connect 50 2 8 0;
#X connect 50 3 9 0;
#X connect 50 4 14 0;
#X connect 50 5 15 0;
#X connect 50 6 16 0;
#X connect 50 7 27 0;
#X connect 50 8 51 0;
#X connect 50 9 48 0;
#X connect 51 0 4 0;
#X connect 53 0 54 0;
#X connect 54 0 52 0;
#X connect 55 0 57 0;
#X connect 57 0 42 0;
#X restore 17 140 pd arp;
#N canvas 4 50 1009 590 sampler 0;
#X obj 324 79 r arp-notes;
#X obj 324 104 spigot 0;
#X obj 324 156 t a a;
#X obj 458 231 bag;
#X msg 476 155 flush;
#X obj 458 253 pack 0 0;
#X obj 476 88 r change-page;
#X obj 476 112 sel 2, f 17;
#X obj 476 134 t b b, f 9;
#X msg 575 196 1;
#X msg 527 189 0;
#X obj 425 437 synth-voice;
#X obj 324 500 synth-voice;
#X obj 357 480 synth-voice;
#X obj 391 459 synth-voice;
#X obj 575 138 t b;
#X obj 527 250 f;
#X obj 324 408 route 1 2 3 4 5 6 7 8, f 48;
#X obj 561 440 synth-voice;
#X obj 460 503 synth-voice;
#X obj 493 483 synth-voice;
#X obj 527 462 synth-voice;
#X obj 324 310 list split 2;
#X obj 324 386 pack 0 0 0 0, f 17;
#X obj 351 180 list split 2;
#X obj 324 331 list trim;
#X obj 351 201 list trim;
#X obj 324 364 poly 8 0, f 10;
#X connect 0 0 1 0;
#X connect 1 0 2 0;
#X connect 2 0 22 0;
#X connect 2 1 24 0;
#X connect 3 0 5 0;
#X connect 4 0 3 0;
#X connect 5 0 27 0;
#X connect 6 0 7 0;
#X connect 7 0 8 0;
#X connect 7 1 15 0;
#X connect 8 0 4 0;
#X connect 8 1 10 0;
#X connect 9 0 16 0;
#X connect 10 0 16 0;
#X connect 15 0 9 0;
#X connect 16 0 1 1;
#X connect 17 0 12 0;
#X connect 17 1 13 0;
#X connect 17 2 14 0;
#X connect 17 3 11 0;
#X connect 17 4 19 0;
#X connect 17 5 20 0;
#X connect 17 6 21 0;
#X connect 17 7 18 0;
#X connect 22 0 25 0;
#X connect 22 1 23 3;
#X connect 23 0 17 0;
#X connect 24 0 26 0;
#X connect 25 0 27 0;
#X connect 26 0 3 0;
#X connect 27 0 23 0;
#X connect 27 1 23 1;
#X connect 27 2 23 2;
#X restore 17 193 pd sampler;
#X text 9 121 run the arp;
#X text 12 176 PlAY THE SAMPLES!;
#N canvas 486 174 450 300 CG-PdLibrary-Local 0;
#X obj 502 35 r cgSc-1-slots;
#X obj 60 98 declare -path CG-Pd-Library-Local/externals;
#X obj 60 128 declare -path CG-Pd-Library-Local/metronome;
#X obj 60 158 declare -path CG-Pd-Library-Local/sampling;
#X obj 60 188 declare -path CG-Pd-Library-Local/sequencer;
#X restore 9 14 pd CG-PdLibrary-Local;
#N canvas 405 111 597 395 multi-page-shorcut 0;
#N canvas 67 137 1350 644 mapping 0;
#X obj 119 336 loadbang;
#X obj 119 357 t b b;
#X obj 24 389 r saveState;
#X obj 119 430 s init-map-knob;
#X msg 149 403 read map-knob-save.txt;
#X msg 24 500 write map-knob-save.txt;
#X obj 149 542 array define map-knob-save 10;
#X obj 24 410 t b b;
#X obj 18 45 map-knob 1 2 pattern-k2 1 1;
#X obj 27 89 map-knob 1 4 bpm-k4 1 3;
#X obj 21 167 map-knob 3 2 progress 1 5;
#X obj 21 188 map-knob 3 3 division-note 1 6;
#X obj 30 211 map-knob 3 4 max-length 1 7;
#X obj 850 207 s glob-sync-lock;
#X obj 850 31 r progress;
#X obj 850 53 moses 0.5, f 11;
#X obj 850 75 t b;
#X obj 913 78 t b;
#X obj 1034 199 s progress-label;
#X obj 1016 100 sel 0 1;
#X msg 1035 125 Playback: Reset;
#X msg 1016 160 Playback: Progress;
#X obj 413 256 r max-length;
#X obj 413 300 i;
#X msg 413 344 100;
#X msg 427 369 250;
#X msg 468 349 500;
#X obj 413 322 sel 0 1 2, f 14;
#X obj 413 404 t f f;
#X obj 505 347 - 2;
#X obj 505 369 * 1000;
#X obj 413 278 * 12;
#X obj 440 453 s max-length-label;
#X msg 440 431 Max Rec: \$1 ms;
#N canvas 5 50 703 507 divisions-note 0;
#X obj 116 28 r division-note;
#X obj 116 76 i;
#X obj 328 284 s division-note-label;
#X obj 116 54 * 5;
#X msg 132 159 Sixteenths;
#X msg 377 163 Quarters;
#X msg 402 139 Half;
#X msg 479 143 Whole;
#X obj 116 98 sel 0 1 2 3 4 5, f 49;
#X obj 49 290 s divide-that-beat;
#X msg 218 173 Triplets;
#X msg 300 165 Eighths;
#X connect 0 0 3 0;
#X connect 1 0 8 0;
#X connect 1 0 9 0;
#X connect 3 0 1 0;
#X connect 4 0 2 0;
#X connect 5 0 2 0;
#X connect 6 0 2 0;
#X connect 7 0 2 0;
#X connect 8 0 4 0;
#X connect 8 1 10 0;
#X connect 8 2 11 0;
#X connect 8 3 5 0;
#X connect 8 4 6 0;
#X connect 8 5 7 0;
#X connect 10 0 2 0;
#X connect 11 0 2 0;
#X restore 355 131 pd divisions-note;
#X msg 850 99 1;
#X msg 913 100 0;
#X obj 413 477 s samp-max-rec;
#X obj 211 25 map-knob-no-update 2 1 in-volumep2;
#X obj 23 146 map-knob-no-update 3 1 in-volumep1;
#X obj 18 25 map-knob 1 1 ramp-k1 1 0;
#X obj 18 66 map-knob 1 3 pitch-k3 1 2;
#X obj 119 378 del 100;
#X obj 800 365 s ramp-time;
#X obj 587 388 i;
#X obj 758 363 i;
#X obj 922 312 f;
#X obj 922 379 i;
#X obj 922 335 * 240;
#X obj 922 357 + 20;
#X obj 933 281 r seq3-1-k4;
#X obj 771 282 r seq3-1-k1;
#X obj 599 278 r seq3-1-k3;
#N canvas 22 50 625 625 metro-here 0;
#X obj 369 147 r seq3-1-actions, f 19;
#X obj 312 345 f;
#X msg 407 250 0;
#X obj 439 250 t b b;
#X msg 445 280 1;
#X obj 312 292 del 1;
#X obj 54 303 s beat-clock;
#X obj 28 68 loadbang;
#X msg 53 121 1;
#X obj 203 353 list, f 7;
#X obj 203 375 route 69;
#X obj 203 281 t b a;
#X msg 203 323 69;
#X obj 177 221 pack, f 10;
#X obj 212 189 t b a;
#X obj 319 117 s seq3-1-quan;
#X obj 400 338 f;
#X obj 203 397 spigot 1;
#X obj 312 367 spigot 1, f 14;
#X obj 296 472 r cgSc-1-slots;
#X obj 296 498 + 1;
#X obj 203 552 print-line5 1, f 16;
#X obj 319 88 r metro-state;
#X obj 486 346 loadbang;
#X obj 296 519 f;
#X obj 486 388 t b b;
#X obj 312 428 f;
#X obj 486 367 del 1;
#X obj 407 179 r cgSc-1-mute-print;
#X obj 407 202 sel 1;
#X obj 68 14 inlet;
#X obj 207 81 s bpm;
#X obj 55 151 metronome360 1, f 18;
#X connect 0 0 1 0;
#X connect 1 0 18 0;
#X connect 2 0 16 0;
#X connect 3 0 5 0;
#X connect 3 1 4 0;
#X connect 4 0 16 0;
#X connect 5 0 1 0;
#X connect 5 0 12 0;
#X connect 7 0 8 0;
#X connect 8 0 32 0;
#X connect 9 0 10 0;
#X connect 10 0 17 0;
#X connect 11 0 12 0;
#X connect 11 1 9 1;
#X connect 12 0 9 0;
#X connect 13 0 11 0;
#X connect 14 0 13 0;
#X connect 14 1 13 1;
#X connect 16 0 17 1;
#X connect 16 0 18 1;
#X connect 17 0 21 0;
#X connect 18 0 26 0;
#X connect 19 0 20 0;
#X connect 20 0 24 0;
#X connect 22 0 15 0;
#X connect 23 0 27 0;
#X connect 24 0 21 2;
#X connect 25 0 26 0;
#X connect 25 1 24 0;
#X connect 26 0 21 1;
#X connect 27 0 25 0;
#X connect 28 0 29 0;
#X connect 29 0 2 0;
#X connect 29 1 3 0;
#X connect 30 0 31 0;
#X connect 30 0 32 1;
#X connect 32 0 6 0;
#X connect 32 1 14 0;
#X connect 32 2 13 0;
#X restore 966 415 pd metro-here;
#N canvas 543 298 860 595 slot-saver-1 0;
#X obj 167 38 r cgSc-1-slots;
#X obj 30 68 loadbang;
#X msg 30 140 0;
#X obj 30 161 tabread \$0-slot;
#X obj 199 225 array define \$0-slot;
#X obj 30 110 t b b;
#X msg 199 138 read slot.txt;
#X msg 243 186 write slot.txt;
#X obj 243 160 r saveState;
#X obj 167 58 t a b;
#X msg 220 84 0;
#X obj 167 107 tabwrite \$0-slot;
#X obj 30 185 s cgSc-1-slots;
#X connect 0 0 9 0;
#X connect 1 0 5 0;
#X connect 2 0 3 0;
#X connect 3 0 12 0;
#X connect 5 0 2 0;
#X connect 5 1 6 0;
#X connect 6 0 4 0;
#X connect 7 0 4 0;
#X connect 8 0 7 0;
#X connect 9 0 11 0;
#X connect 9 1 10 0;
#X connect 10 0 11 1;
#X restore 354 106 pd slot-saver-1;
#X obj 758 259 r ramp-k1;
#X obj 922 256 r bpm-k4;
#X obj 600 417 s global-pitch;
#X obj 587 317 f;
#X obj 587 457 moses 1;
#X obj 587 343 * 48;
#X obj 587 364 - 24;
#X obj 758 328 * 500;
#X obj 758 425 s ramp-k1-label;
#X msg 758 390 Ramp \$1 ms;
#X msg 587 486 Tune \$1 Note;
#X msg 684 488 Tune +\$1 Note;
#X obj 587 255 r pitch-k3;
#X obj 587 537 s pitch-k3-label;
#X msg 922 508 Internal BPM: \$1;
#X obj 922 537 s bpm-k4-label;
#X obj 51 461 s save-bang-map-knob;
#X obj 851 159 f;
#X connect 0 0 1 0;
#X connect 1 0 42 0;
#X connect 1 1 4 0;
#X connect 2 0 7 0;
#X connect 4 0 6 0;
#X connect 5 0 6 0;
#X connect 7 0 5 0;
#X connect 7 1 71 0;
#X connect 14 0 15 0;
#X connect 15 0 16 0;
#X connect 15 1 17 0;
#X connect 16 0 35 0;
#X connect 17 0 36 0;
#X connect 19 0 21 0;
#X connect 19 1 20 0;
#X connect 20 0 18 0;
#X connect 21 0 18 0;
#X connect 22 0 31 0;
#X connect 23 0 27 0;
#X connect 24 0 28 0;
#X connect 25 0 28 0;
#X connect 26 0 28 0;
#X connect 27 0 24 0;
#X connect 27 1 25 0;
#X connect 27 2 26 0;
#X connect 27 3 29 0;
#X connect 28 0 37 0;
#X connect 28 1 33 0;
#X connect 29 0 30 0;
#X connect 30 0 28 0;
#X connect 31 0 23 0;
#X connect 33 0 32 0;
#X connect 35 0 72 0;
#X connect 36 0 72 0;
#X connect 42 0 3 0;
#X connect 44 0 57 0;
#X connect 44 0 59 0;
#X connect 45 0 64 0;
#X connect 46 0 48 0;
#X connect 47 0 53 0;
#X connect 47 0 69 0;
#X connect 48 0 49 0;
#X connect 49 0 47 0;
#X connect 50 0 46 0;
#X connect 51 0 62 0;
#X connect 52 0 58 0;
#X connect 55 0 62 0;
#X connect 56 0 46 0;
#X connect 58 0 60 0;
#X connect 59 0 65 0;
#X connect 59 1 66 0;
#X connect 60 0 61 0;
#X connect 61 0 44 0;
#X connect 62 0 45 0;
#X connect 62 0 43 0;
#X connect 64 0 63 0;
#X connect 65 0 68 0;
#X connect 66 0 68 0;
#X connect 67 0 58 0;
#X connect 69 0 70 0;
#X connect 72 0 13 0;
#X connect 72 0 19 0;
#X restore 31 93 pd mapping;
#N canvas 11 103 1009 629 shortcut-page-labels 0;
#X obj 66 13 r change-page;
#X obj 66 218 s cgSc-1-6label;
#X obj 216 218 s cgSc-1-7label;
#X obj 66 95 sel 1;
#X obj 226 95 sel 2;
#X obj 209 126 t b b;
#X msg 209 148 1;
#X obj 258 123 t b b;
#X msg 299 147 0;
#X obj 123 121 t b b;
#X obj 66 117 t b b;
#X msg 66 139 1;
#X msg 154 148 0;
#X obj 66 35 t f f f f f, f 88;
#X msg 274 196 RecMode:_;
#X msg 216 171 RecMode:X;
#X msg 66 171 PlayMode:X;
#X msg 107 191 PlayMode:_;
#X obj 390 117 t b b;
#X msg 390 139 1;
#X obj 439 114 t b b;
#X msg 480 138 0;
#X obj 407 86 sel 3;
#X msg 455 187 Options:_;
#X msg 420 163 Options:X;
#X obj 401 224 s cgSc-1-8label;
#X connect 0 0 13 0;
#X connect 3 0 10 0;
#X connect 3 1 9 0;
#X connect 4 0 5 0;
#X connect 4 1 7 0;
#X connect 5 0 6 0;
#X connect 5 1 15 0;
#X connect 7 0 14 0;
#X connect 7 1 8 0;
#X connect 9 0 17 0;
#X connect 9 1 12 0;
#X connect 10 0 11 0;
#X connect 10 1 16 0;
#X connect 13 0 3 0;
#X connect 13 1 4 0;
#X connect 13 2 22 0;
#X connect 14 0 2 0;
#X connect 15 0 2 0;
#X connect 16 0 1 0;
#X connect 17 0 1 0;
#X connect 18 0 19 0;
#X connect 18 1 24 0;
#X connect 20 0 23 0;
#X connect 20 1 21 0;
#X connect 22 0 18 0;
#X connect 22 1 20 0;
#X connect 23 0 25 0;
#X connect 24 0 25 0;
#X restore 28 158 pd shortcut-page-labels;
#N canvas 37 50 853 660 page-changer-linked-to-shortcuts 0;
#X obj 207 110 r cgSc-1-6;
#X msg 207 132 1;
#X obj 248 132 r cgSc-1-7;
#X obj 329 37 r cgSc-1-9;
#X msg 247 154 2;
#X msg 328 59 4;
#X obj 207 575 s change-page;
#X obj 450 577 array define change-page 1;
#X obj 412 476 tabwrite change-page;
#X obj 419 72 loadbang;
#X msg 419 237 0;
#X msg 658 493 read change-page.txt;
#X msg 380 500 write change-page.txt;
#X obj 380 452 t b f;
#X obj 419 94 t b b b, f 30;
#X obj 548 226 tabread change-page;
#X msg 548 200 0;
#X obj 241 538 s ms-1-reload;
#X obj 241 452 sel 1 2 3 4;
#X obj 259 512 s ms-2-reload;
#X msg 336 109 5;
#X obj 338 85 r cgSc-1-10;
#X obj 207 416 t f b f f;
#X obj 274 489 s ms-3-reload;
#X obj 263 181 r cgSc-1-8;
#X msg 262 203 3;
#X obj 207 394 f;
#X obj 520 142 del 200;
#X obj 520 163 t b b;
#X obj 493 268 s cgSc-1-mute-print;
#X msg 486 227 0;
#X connect 0 0 1 0;
#X connect 1 0 26 0;
#X connect 2 0 4 0;
#X connect 3 0 5 0;
#X connect 4 0 26 0;
#X connect 9 0 14 0;
#X connect 10 0 8 1;
#X connect 11 0 7 0;
#X connect 12 0 7 0;
#X connect 13 0 12 0;
#X connect 13 1 8 0;
#X connect 14 0 10 0;
#X connect 14 1 27 0;
#X connect 14 2 11 0;
#X connect 15 0 26 0;
#X connect 16 0 15 0;
#X connect 18 0 17 0;
#X connect 18 1 19 0;
#X connect 18 2 23 0;
#X connect 21 0 20 0;
#X connect 22 0 6 0;
#X connect 22 2 18 0;
#X connect 22 3 13 0;
#X connect 24 0 25 0;
#X connect 25 0 26 0;
#X connect 26 0 22 0;
#X connect 27 0 28 0;
#X connect 28 0 30 0;
#X connect 28 1 16 0;
#X connect 30 0 29 0;
#X restore 28 129 pd page-changer-linked-to-shortcuts;
#N canvas 18 50 650 644 clock-out 0;
#X obj 252 410 midiout;
#X msg 198 286 250;
#X msg 329 288 252;
#X text 227 237 clock through and out;
#X obj 389 215 t b;
#X obj 131 205 spigot 0;
#X obj 131 237 t b b;
#X msg 201 225 0;
#X msg 327 207 1;
#X obj 327 185 sel 1 4 6;
#X obj 327 164 r seq3-1-actions;
#X obj 131 177 r seq3-1-playing;
#X connect 1 0 0 0;
#X connect 2 0 0 0;
#X connect 4 0 2 0;
#X connect 5 0 6 0;
#X connect 6 0 1 0;
#X connect 6 1 7 0;
#X connect 7 0 5 1;
#X connect 8 0 5 1;
#X connect 9 0 8 0;
#X connect 9 3 4 0;
#X connect 10 0 9 0;
#X connect 11 0 5 0;
#X restore 315 142 pd clock-out messages;
#X restore 19 380 pd multi-page-shorcut;
#N canvas 42 87 1104 478 notes-in-order 0;
#X obj 98 11 r aux;
#X obj 251 219 r cgSc-1-slots;
#X obj 235 50 r \$0-reprint-port;
#X obj 98 82 shortcut 1 1, f 20;
#N canvas 244 50 776 618 beat-clock 0;
#X obj 189 85 r beat-clock;
#X obj 470 454 outlet;
#X obj 189 234 t f f f, f 45;
#X obj 239 579 s arp-tick;
#X obj 239 529 t b b;
#X obj 369 580 outlet;
#X obj 431 68 r divide-that-beat;
#X obj 189 440 spigot 0, f 19;
#X obj 189 406 sel 0;
#X obj 189 384 % 90;
#X msg 216 306 90;
#X msg 247 307 120;
#X msg 282 310 180;
#X msg 316 307 360;
#X obj 431 90 moses 4, f 9;
#X obj 217 284 sel 0 1 2 3, f 19;
#X obj 373 318 sel 0;
#X obj 373 340 f;
#X obj 408 341 + 1;
#X obj 286 360 i;
#X obj 560 162 sel 4 5;
#X obj 373 362 % 2;
#X obj 373 384 sel 0;
#X msg 553 201 2;
#X msg 584 200 4;
#X obj 373 406 spigot 0, f 25;
#X obj 431 112 t a b;
#X obj 490 112 t a b;
#X msg 427 143 1;
#X msg 473 142 0;
#X msg 532 135 1;
#X msg 578 134 0;
#X text 193 13 Turns the 0-259 clock tick into beat divided pulses
;
#X connect 0 0 2 0;
#X connect 2 0 9 0;
#X connect 2 1 16 0;
#X connect 2 2 1 0;
#X connect 4 0 3 0;
#X connect 4 1 5 0;
#X connect 6 0 14 0;
#X connect 7 0 4 0;
#X connect 8 0 7 0;
#X connect 9 0 8 0;
#X connect 10 0 19 0;
#X connect 11 0 19 0;
#X connect 12 0 19 0;
#X connect 13 0 19 0;
#X connect 14 0 26 0;
#X connect 14 1 27 0;
#X connect 15 0 10 0;
#X connect 15 1 11 0;
#X connect 15 2 12 0;
#X connect 15 3 13 0;
#X connect 16 0 17 0;
#X connect 17 0 18 0;
#X connect 17 0 21 0;
#X connect 18 0 17 1;
#X connect 19 0 9 1;
#X connect 20 0 23 0;
#X connect 20 1 24 0;
#X connect 21 0 22 0;
#X connect 22 0 25 0;
#X connect 23 0 21 1;
#X connect 24 0 21 1;
#X connect 25 0 4 0;
#X connect 26 0 15 0;
#X connect 26 1 28 0;
#X connect 26 1 29 0;
#X connect 27 0 20 0;
#X connect 27 1 30 0;
#X connect 27 1 31 0;
#X connect 28 0 7 1;
#X connect 29 0 25 1;
#X connect 30 0 25 1;
#X connect 31 0 7 1;
#X restore 254 101 pd beat-clock;
#X obj 355 75 r seq3-1-actions;
#X obj 354 100 sel 2;
#N canvas 47 93 885 702 wait-for-first-sixteenth 0;
#X obj 53 53 inlet;
#X text 68 26 notes;
#X obj 249 52 inlet;
#X text 305 51 sixteenth notes;
#X obj 429 48 inlet;
#X text 485 47 arm;
#X obj 248 248 spigot 0;
#X msg 92 454 1;
#X msg 334 475 0;
#X obj 155 637 outlet;
#X msg 486 377 0;
#X obj 419 106 t b b b, f 15;
#X msg 441 139 1;
#X msg 351 294 0;
#N canvas 506 258 450 300 once 0;
#X obj 102 42 inlet;
#X obj 211 67 inlet;
#X obj 118 215 outlet;
#X obj 114 137 == 1;
#X obj 114 115 i 0;
#X obj 114 162 sel 1;
#X obj 114 184 t b b;
#X msg 166 152 0;
#X msg 203 92 1;
#X text 260 68 reset;
#X obj 100 79 bang;
#X connect 0 0 10 0;
#X connect 1 0 8 0;
#X connect 3 0 5 0;
#X connect 4 0 3 0;
#X connect 5 0 6 0;
#X connect 6 0 2 0;
#X connect 6 1 7 0;
#X connect 7 0 4 1;
#X connect 8 0 4 1;
#X connect 10 0 4 0;
#X restore 301 143 pd once;
#X msg 301 193 1;
#X text 394 247 upon arming the sequencer \, we wait for the first
arp tick (sixteenth note) to start the recording. after that \, notes
pass through normally.;
#X obj 141 154 stripnote;
#X obj 53 89 t a a a, f 13;
#X obj 141 176 t b;
#X obj 162 464 bag;
#X obj 162 486 pack 0 100;
#X obj 172 340 t b b b b, f 18;
#X msg 200 399 flush;
#X obj 53 519 spigot 1;
#X obj 182 526 spigot 0, f 31;
#X connect 0 0 18 0;
#X connect 2 0 6 0;
#X connect 4 0 11 0;
#X connect 6 0 22 0;
#X connect 7 0 24 1;
#X connect 8 0 25 1;
#X connect 10 0 24 1;
#X connect 11 0 14 1;
#X connect 11 1 12 0;
#X connect 11 2 10 0;
#X connect 12 0 25 1;
#X connect 13 0 6 1;
#X connect 14 0 15 0;
#X connect 15 0 6 1;
#X connect 17 0 19 0;
#X connect 18 0 24 0;
#X connect 18 1 20 0;
#X connect 18 2 17 0;
#X connect 19 0 14 0;
#X connect 20 0 21 0;
#X connect 21 0 25 0;
#X connect 22 0 7 0;
#X connect 22 1 8 0;
#X connect 22 2 23 0;
#X connect 22 3 13 0;
#X connect 23 0 20 0;
#X connect 24 0 9 0;
#X connect 25 0 9 0;
#X restore 98 142 pd wait-for-first-sixteenth - - - - - - - -;
#N canvas 145 67 1235 664 seq3-5option-control 0;
#X obj 139 278 outlet;
#X obj 65 121 t b;
#X msg 65 143 2;
#X obj 298 126 t b;
#X msg 298 148 3;
#X text 437 5 when aux is pressed after recording starts immediatley
end the rec and play the loop;
#X obj 170 70 sel 0;
#X obj 202 94 t b;
#X msg 202 116 1;
#X obj 33 66 r cgSc-1-2;
#X obj 171 48 r cgSc-1-1;
#X obj 33 88 sel 0;
#X obj 266 99 sel 0;
#X obj 317 272 r seq3-1-actions;
#X obj 317 294 sel 1, f 12;
#X obj 398 327 t b, f 4;
#X obj 317 445 s cgSc-1-1label;
#X obj 507 308 r seq3-1-actions;
#X obj 588 353 t b, f 4;
#X obj 507 329 sel 2 3, f 12;
#X obj 978 320 t b, f 4;
#X msg 978 355 Latch:Off;
#X msg 896 355 Latch:On;
#X obj 507 441 s cgSc-1-2label;
#X text 521 279 print to the shortcut menu;
#X obj 378 141 f 0;
#X obj 130 0 r midi-start;
#X msg 130 22 4;
#X obj 373 105 r midi-stop;
#X obj 507 125 t b;
#X obj 475 98 sel 0;
#X msg 507 147 5;
#X obj 192 487 r seq3-1-actions;
#X obj 273 532 t b, f 4;
#X obj 192 508 sel 5, f 12;
#X obj 317 373 f;
#X msg 317 403 \$1Seq:Stop;
#X obj 398 372 f;
#X msg 398 402 \$1Seq:Play;
#X msg 507 399 \$1Rec:Armd;
#X msg 588 397 \$1Rec:On;
#X msg 659 398 \$1Rec:Off;
#X obj 507 374 f;
#X obj 582 373 f;
#X obj 649 370 f;
#X obj 273 554 f;
#X obj 192 560 f;
#X msg 192 607 \$1Dub:On;
#X obj 201 286 r cgSc-1-slots;
#X obj 201 329 t b f f;
#X obj 166 439 s seq3-1-actions;
#X obj 166 415 v seq3-1-state;
#X obj 201 309 + 1;
#X obj 668 299 + 1;
#X obj 668 251 r cgSc-1-slots;
#X obj 321 507 + 1;
#X obj 321 483 r cgSc-1-slots;
#X obj 559 76 sel 1;
#X obj 612 80 r seq3-1-actions;
#X obj 559 174 t b b;
#X msg 640 152 0;
#X obj 559 152 spigot 0;
#X msg 612 129 1;
#X msg 559 196 1;
#X obj 192 650 s cgSc-1-3label;
#X obj 475 71 r cgSc-1-3;
#X obj 559 52 r cgSc-1-aux;
#X obj 896 398 s cgSc-1-5label;
#X obj 267 72 r cgSc-1-5;
#X obj 358 53 t b;
#X obj 326 26 sel 0;
#X obj 326 2 r cgSc-1-4;
#X msg 358 75 6;
#X obj 465 480 r seq3-1-actions;
#X obj 507 558 f;
#X obj 584 501 + 1;
#X obj 584 477 r cgSc-1-slots;
#X obj 465 643 s cgSc-1-4label;
#X obj 612 104 sel 3, f 12;
#X msg 273 607 \$1Dub:Off;
#X obj 465 501 sel 6, f 10;
#X obj 532 526 t b;
#X obj 465 585 spigot 1;
#X obj 552 582 spigot 0;
#X obj 675 510 r seq3-1-actions;
#X obj 675 532 sel 3;
#X obj 591 537 ==;
#X obj 637 564 f;
#X msg 637 533 1;
#X msg 708 615 0;
#X msg 552 607 \$1:Undo;
#X msg 465 610 \$1:Undid;
#X obj 465 523 t b b;
#X obj 31 189 loadbang;
#X msg 31 211 0;
#X obj 23 341 r init-1-slot;
#X obj 23 363 s cgSc-1-slots;
#X obj 896 255 r seq3-1-togLatch;
#X obj 896 296 sel 1, f 12;
#X obj 737 21 r change-page;
#X obj 737 43 sel 2, f 11;
#X msg 737 125 _;
#X obj 749 227 s cgSc-1-3label;
#X obj 942 173 s cgSc-1-5label;
#X obj 901 213 s cgSc-1-4label;
#X obj 737 65 del 5;
#X obj 817 91 t b b;
#X obj 737 87 t b b;
#X msg 880 40 RecordArm;
#X obj 905 78 s cgSc-1-2label;
#X obj 773 204 s cgSc-1-1label;
#X obj 894 477 r fs;
#X obj 894 542 spigot 0;
#X obj 939 445 r change-page;
#X obj 939 466 sel 1 3;
#X msg 939 487 1;
#X msg 989 539 0;
#X obj 979 492 t b;
#X msg 894 563 3;
#X obj 894 498 sel 1;
#X obj 1064 82 r seq3-1-actions;
#X obj 1049 110 f;
#X obj 1049 131 s seq3-1-actions;
#X connect 1 0 2 0;
#X connect 2 0 0 0;
#X connect 3 0 4 0;
#X connect 4 0 0 0;
#X connect 6 1 7 0;
#X connect 7 0 8 0;
#X connect 8 0 0 0;
#X connect 9 0 11 0;
#X connect 10 0 6 0;
#X connect 11 1 1 0;
#X connect 12 1 3 0;
#X connect 13 0 14 0;
#X connect 14 0 35 0;
#X connect 14 1 15 0;
#X connect 15 0 37 0;
#X connect 17 0 19 0;
#X connect 18 0 44 0;
#X connect 19 0 42 0;
#X connect 19 1 43 0;
#X connect 19 2 18 0;
#X connect 20 0 21 0;
#X connect 21 0 67 0;
#X connect 22 0 67 0;
#X connect 25 0 0 0;
#X connect 26 0 27 0;
#X connect 27 0 0 0;
#X connect 28 0 25 0;
#X connect 29 0 31 0;
#X connect 30 1 29 0;
#X connect 31 0 0 0;
#X connect 32 0 34 0;
#X connect 33 0 45 0;
#X connect 34 0 46 0;
#X connect 34 1 33 0;
#X connect 35 0 36 0;
#X connect 36 0 16 0;
#X connect 37 0 38 0;
#X connect 38 0 16 0;
#X connect 39 0 23 0;
#X connect 40 0 23 0;
#X connect 41 0 23 0;
#X connect 42 0 39 0;
#X connect 43 0 40 0;
#X connect 44 0 41 0;
#X connect 45 0 79 0;
#X connect 46 0 47 0;
#X connect 47 0 64 0;
#X connect 48 0 52 0;
#X connect 49 0 51 0;
#X connect 49 1 35 1;
#X connect 49 2 37 1;
#X connect 51 0 50 0;
#X connect 52 0 49 0;
#X connect 53 0 44 1;
#X connect 53 0 43 1;
#X connect 53 0 42 1;
#X connect 54 0 53 0;
#X connect 55 0 45 1;
#X connect 55 0 46 1;
#X connect 56 0 55 0;
#X connect 57 0 61 0;
#X connect 58 0 78 0;
#X connect 59 0 63 0;
#X connect 59 1 60 0;
#X connect 60 0 61 1;
#X connect 61 0 59 0;
#X connect 62 0 61 1;
#X connect 63 0 0 0;
#X connect 65 0 30 0;
#X connect 66 0 57 0;
#X connect 68 0 12 0;
#X connect 69 0 72 0;
#X connect 70 1 69 0;
#X connect 71 0 70 0;
#X connect 72 0 0 0;
#X connect 73 0 80 0;
#X connect 74 0 82 0;
#X connect 74 0 83 0;
#X connect 75 0 74 1;
#X connect 76 0 75 0;
#X connect 78 0 62 0;
#X connect 79 0 64 0;
#X connect 80 0 92 0;
#X connect 80 1 81 0;
#X connect 81 0 74 0;
#X connect 82 0 91 0;
#X connect 83 0 90 0;
#X connect 84 0 85 0;
#X connect 85 0 88 0;
#X connect 86 0 82 1;
#X connect 87 0 86 0;
#X connect 87 0 83 1;
#X connect 88 0 87 0;
#X connect 89 0 87 0;
#X connect 90 0 77 0;
#X connect 91 0 77 0;
#X connect 92 0 74 0;
#X connect 92 1 89 0;
#X connect 93 0 94 0;
#X connect 94 0 0 0;
#X connect 95 0 96 0;
#X connect 97 0 98 0;
#X connect 98 0 22 0;
#X connect 98 1 20 0;
#X connect 99 0 100 0;
#X connect 100 0 105 0;
#X connect 100 1 106 0;
#X connect 101 0 102 0;
#X connect 101 0 104 0;
#X connect 101 0 103 0;
#X connect 101 0 110 0;
#X connect 105 0 107 0;
#X connect 106 0 121 0;
#X connect 106 1 21 0;
#X connect 107 0 101 0;
#X connect 107 1 108 0;
#X connect 108 0 109 0;
#X connect 111 0 119 0;
#X connect 112 0 118 0;
#X connect 113 0 114 0;
#X connect 114 0 115 0;
#X connect 114 1 115 0;
#X connect 114 2 117 0;
#X connect 115 0 112 1;
#X connect 116 0 112 1;
#X connect 117 0 116 0;
#X connect 118 0 0 0;
#X connect 119 0 112 0;
#X connect 120 0 121 1;
#X connect 121 0 122 0;
#X restore 141 172 pd seq3-5option-control;
#X obj 97 244 seq3 1 1 ../../sequences 1 0 1, f 39;
#X obj 125 123 s rec-notes;
#X obj 534 25 r change-page;
#X obj 534 47 sel 2, f 11;
#X obj 141 194 spigot 1, f 43;
#X msg 597 100 1;
#X msg 534 71 0;
#X obj 597 74 t b;
#X obj 98 103 t a a;
#X obj 534 92 t f f;
#X obj 351 246 r seq3-1-led;
#X obj 351 268 s led;
#N canvas 37 50 580 648 fill-the-text-note-list 0;
#X obj 40 13 inlet;
#X obj 67 70 unpack 0 0;
#X obj 124 95 sel 0, f 9;
#X obj 175 124 t b b;
#X obj 124 125 t b b;
#X msg 169 156 -1;
#X msg 202 156 1;
#X obj 169 326 sel 0;
#X obj 169 281 t a a;
#X obj 196 307 s num-down;
#X obj 169 383 text define note-list;
#X obj 67 582 text set note-list;
#X obj 40 317 unpack 0 0;
#X obj 40 361 sel 0;
#X msg 169 349 clear;
#X obj 102 552 r num-down;
#X obj 67 439 list, f 6;
#X msg 67 418 69;
#X obj 67 460 route 69;
#X obj 40 269 t a a, f 14;
#X obj 67 380 t b;
#X obj 124 533 text delete note-list;
#X obj 124 511 text search note-list;
#X obj 124 468 f;
#X obj 40 338 swap, f 17;
#X obj 40 37 t a a;
#X obj 169 218 max 0;
#X obj 169 197 + 1;
#X obj 124 197 f 0;
#X obj 169 260 t a a;
#X obj 169 239 min 8;
#X connect 0 0 25 0;
#X connect 1 1 2 0;
#X connect 2 0 4 0;
#X connect 2 1 3 0;
#X connect 3 0 28 0;
#X connect 3 1 6 0;
#X connect 4 0 28 0;
#X connect 4 1 5 0;
#X connect 5 0 27 1;
#X connect 6 0 27 1;
#X connect 7 0 14 0;
#X connect 8 0 7 0;
#X connect 8 1 9 0;
#X connect 12 0 24 0;
#X connect 12 1 24 1;
#X connect 13 0 23 0;
#X connect 13 1 20 0;
#X connect 14 0 10 0;
#X connect 15 0 11 1;
#X connect 16 0 18 0;
#X connect 17 0 16 0;
#X connect 18 0 11 0;
#X connect 19 0 12 0;
#X connect 19 1 16 1;
#X connect 20 0 17 0;
#X connect 22 0 21 0;
#X connect 23 0 22 0;
#X connect 24 0 13 0;
#X connect 24 1 23 1;
#X connect 25 0 19 0;
#X connect 25 1 1 0;
#X connect 26 0 30 0;
#X connect 27 0 26 0;
#X connect 28 0 27 0;
#X connect 29 0 8 0;
#X connect 29 1 28 1;
#X connect 30 0 29 0;
#X restore 97 284 pd fill-the-text-note-list;
#X connect 0 0 3 0;
#X connect 1 0 9 2;
#X connect 2 0 3 1;
#X connect 3 0 17 0;
#X connect 4 0 7 1;
#X connect 4 1 9 3;
#X connect 5 0 6 0;
#X connect 6 0 7 2;
#X connect 7 0 9 0;
#X connect 8 0 13 0;
#X connect 9 0 21 0;
#X connect 11 0 12 0;
#X connect 12 0 15 0;
#X connect 12 1 16 0;
#X connect 13 0 9 1;
#X connect 14 0 13 1;
#X connect 15 0 18 0;
#X connect 16 0 14 0;
#X connect 17 0 7 0;
#X connect 17 1 10 0;
#X connect 18 0 13 1;
#X connect 18 1 9 1;
#X connect 19 0 20 0;
#X restore 13 71 pd notes-in-order;
#X obj 387 52 r~ inL;
#X obj 458 52 r~ inR;
#X obj 458 73 *~ 0.707;
#X obj 387 74 *~ 0.707;
#X obj 388 454 throw~ outL;
#X obj 398 424 throw~ outR;
#X obj 519 343 lop~ 5;
#X obj 388 393 *~;
#X obj 654 256 * 100;
#X obj 654 298 i;
#X obj 654 63 loadbang;
#X obj 387 225 hip~ 5;
#X text 528 217 muted on start-up;
#X obj 24 420 newrec-stuff;
#N canvas 428 128 869 643 load-the-samples 0;
#X obj 15 19 load-rec-sample samp 1 10000 Sounds;
#X obj 14 61 load-rec-sample samp 2 10000 Sounds;
#X obj 12 92 load-rec-sample samp 3 10000 Sounds;
#X obj 8 132 load-rec-sample samp 4 10000 Sounds;
#X obj 7 165 load-rec-sample samp 5 10000 Sounds;
#X obj 3 208 load-rec-sample samp 6 10000 Sounds;
#X obj 1 239 load-rec-sample samp 7 10000 Sounds;
#X obj -4 281 load-rec-sample samp 8 10000 Sounds;
#X obj 13 308 load-rec-sample samp 9 10000 Sounds;
#X obj 7 351 load-rec-sample samp 10 10000 Sounds;
#X obj 6 379 load-rec-sample samp 11 10000 Sounds;
#X obj -1 424 load-rec-sample samp 12 10000 Sounds;
#X obj -1 454 load-rec-sample samp 13 10000 Sounds;
#X obj -6 496 load-rec-sample samp 14 10000 Sounds;
#X obj -7 527 load-rec-sample samp 15 10000 Sounds;
#X obj -12 570 load-rec-sample samp 16 10000 Sounds;
#X obj 286 405 load-rec-sample samp 24 10000 Sounds;
#X obj 275 375 load-rec-sample samp 23 10000 Sounds;
#X obj 281 334 load-rec-sample samp 22 10000 Sounds;
#X obj 282 300 load-rec-sample samp 21 10000 Sounds;
#X obj 286 259 load-rec-sample samp 20 10000 Sounds;
#X obj 287 231 load-rec-sample samp 19 10000 Sounds;
#X obj 291 187 load-rec-sample samp 18 10000 Sounds;
#X obj 293 155 load-rec-sample samp 17 10000 Sounds;
#X restore 16 503 pd load-the-samples;
#N canvas 17 52 903 548 output 0;
#X obj 276 309 throw~ outL;
#X obj 174 309 throw~ outR;
#X obj 304 149 catch~ samp_voice_out;
#X text 376 19 get the output from voices and feed it into rev3~ \,
a fun reverb included with Pd;
#X obj 302 235 *~ 0.9;
#X obj 304 171 lop~ 17000;
#X obj 304 193 hip~ 8;
#X connect 2 0 5 0;
#X connect 4 0 0 0;
#X connect 4 0 1 0;
#X connect 5 0 6 0;
#X connect 6 0 4 0;
#X restore 20 283 pd output;
#X msg 654 210 0;
#X obj 519 131 r in-volumep1;
#X obj 552 151 r in-volumep2;
#X obj 519 202 spigot 0, f 19;
#X obj 654 84 t b b;
#X obj 681 109 del 300;
#X msg 681 130 1;
#X obj 654 372 s in-volumep1-label;
#X obj 676 348 s in-volumep2-label;
#X obj 274 316 s~ samp-sound-in;
#X obj 341 287 s~ samp-sound-in-control;
#X obj 545 505 s samp-trig-percent;
#X obj 545 455 loadbang;
#X obj 519 276 pow 2;
#X msg 545 476 0.05;
#N canvas 4 50 450 300 playhead-points 0;
#X obj 39 200 array define pointz 24;
#X obj 44 92 loadbang;
#X msg 44 144 \; pointz const 0;
#X text 39 71 this keeps track of the progress playback mode;
#X connect 1 0 2 0;
#X restore 16 548 pd playhead-points;
#X text 384 32 organelle sound in stereo to mono;
#X text 89 283 sound output;
#X msg 654 320 Monitor Vol: \$1%;
#X connect 7 0 10 0;
#X connect 8 0 9 0;
#X connect 9 0 18 0;
#X connect 10 0 18 0;
#X connect 13 0 14 1;
#X connect 14 0 11 0;
#X connect 14 0 12 0;
#X connect 15 0 16 0;
#X connect 16 0 41 0;
#X connect 17 0 27 0;
#X connect 18 0 14 0;
#X connect 18 0 33 0;
#X connect 18 0 32 0;
#X connect 23 0 15 0;
#X connect 23 0 36 0;
#X connect 24 0 26 0;
#X connect 25 0 26 0;
#X connect 26 0 15 0;
#X connect 26 0 36 0;
#X connect 27 0 23 0;
#X connect 27 1 28 0;
#X connect 28 0 29 0;
#X connect 29 0 26 1;
#X connect 35 0 37 0;
#X connect 36 0 13 0;
#X connect 37 0 34 0;
#X connect 41 0 30 0;
#X connect 41 0 31 0;
