#N canvas 605 106 603 565 10;
#X obj 68 296 r \$3-label;
#X obj 68 339 list prepend \$2:;
#X obj 148 149 spigot 0;
#X obj 193 50 r change-page;
#X obj 193 72 sel \$1;
#X obj 226 95 t b;
#X msg 226 117 0;
#X msg 193 114 1;
#X text 318 370 arg1: page number;
#X text 318 388 arg2: knob number;
#X obj 148 7 r knob\$2;
#X obj 67 36 r seq3-\$1-k\$2;
#X text 318 405 arg3: send name;
#X obj 68 501 s screenLine\$2;
#X obj 148 286 s \$3;
#X obj 148 236 f;
#X obj 68 451 spigot 0;
#X obj 211 341 r change-page;
#X obj 211 363 sel \$1;
#X obj 250 386 t b;
#X msg 250 408 0;
#X msg 239 431 1;
#X obj 148 258 t f f;
#X obj 216 314 ==;
#X obj 68 473 spigot 0;
#X obj 10 146 spigot \$4;
#X obj 10 124 sel 0;
#X text 319 421 arg4: save knob and shortcut refresh? 0/1;
#X obj 304 173 spigot \$4;
#X obj 304 224 t a b;
#X text 322 437 arg5: ... if yes slot number;
#X obj 381 240 \$5;
#X obj 345 31 spigot \$4;
#X obj 345 58 \$5;
#X obj 304 271 tabwrite map-knob-save;
#X obj 345 78 tabread map-knob-save;
#X obj 345 3 r init-map-knob;
#X obj 27 177 spigot 0;
#X obj 10 103 r cgSc-1-mute-print;
#X obj 216 292 r cgSc-1-mute-print;
#X obj 289 199 f;
#X obj 211 384 t b b;
#X obj 68 363 t b a;
#X msg 68 384 69;
#X obj 68 405 list, f 5;
#X obj 68 426 route 69;
#X obj 27 198 del 1;
#X obj 176 409 del 22;
#X obj 289 137 r save-bang-map-knob;
#X connect 0 0 1 0;
#X connect 1 0 42 0;
#X connect 2 0 15 0;
#X connect 3 0 4 0;
#X connect 4 0 7 0;
#X connect 4 1 5 0;
#X connect 5 0 6 0;
#X connect 6 0 2 1;
#X connect 6 0 37 1;
#X connect 7 0 2 1;
#X connect 7 0 37 1;
#X connect 10 0 2 0;
#X connect 11 0 15 0;
#X connect 15 0 22 0;
#X connect 16 0 24 0;
#X connect 17 0 18 0;
#X connect 18 0 41 0;
#X connect 18 1 19 0;
#X connect 19 0 20 0;
#X connect 20 0 16 1;
#X connect 21 0 16 1;
#X connect 22 0 14 0;
#X connect 22 1 28 0;
#X connect 23 0 24 1;
#X connect 24 0 13 0;
#X connect 25 0 37 0;
#X connect 26 0 25 0;
#X connect 28 0 40 1;
#X connect 29 0 34 0;
#X connect 29 1 31 0;
#X connect 31 0 34 1;
#X connect 32 0 33 0;
#X connect 33 0 35 0;
#X connect 35 0 15 0;
#X connect 36 0 32 0;
#X connect 37 0 46 0;
#X connect 38 0 26 0;
#X connect 39 0 23 0;
#X connect 40 0 29 0;
#X connect 41 0 47 0;
#X connect 41 1 21 0;
#X connect 42 0 43 0;
#X connect 42 1 44 1;
#X connect 43 0 44 0;
#X connect 44 0 45 0;
#X connect 45 0 16 0;
#X connect 46 0 15 0;
#X connect 47 0 43 0;
#X connect 48 0 40 0;
