#N canvas 328 145 801 586 10;
#X obj 257 21 r change-page;
#X obj 257 113 sel 2, f 13;
#X msg 332 159 0;
#X msg 257 134 1;
#X obj 257 206 f;
#X obj 332 133 t b;
#N canvas 10 50 938 636 play-selected-note 0;
#X obj 79 330 phasor~, f 10;
#X obj 81 619 throw~ samp_voice_out;
#X obj 79 270 f;
#X obj 81 543 *~, f 41;
#X obj 323 482 vline~;
#X obj 122 50 t b a, f 29;
#X msg 122 82 0;
#X obj 26 -130 inlet;
#X obj 136 367 r \$0-duration-s;
#X obj 79 419 *~, f 10;
#X obj 82 590 hip~ 5;
#X obj 26 -84 swap, f 6;
#X obj 26 118 sel 0, f 8;
#X obj 80 478 tabread4~;
#X msg 268 371 set samp-\$1;
#X obj 307 156 f;
#X obj 307 231 /;
#X msg 307 209 1000 \$1;
#X msg 137 291 0;
#X obj 122 29 t f f, f 13;
#X obj 26 -106 unpack;
#X obj 82 568 *~ 0.9;
#X obj 79 441 +~ 1;
#X obj 136 389 - 2;
#X obj 79 235 t b f b b, f 13;
#X obj 324 505 pow~ 2;
#X msg 323 421 \$1 3;
#X obj 122 105 text get, f 29;
#X msg 293 78 symbol samp-\$1-length;
#X obj 307 178 / 1;
#X obj 137 136 s \$0-duration-s;
#X obj 122 188 s \$0-duration;
#X obj 122 165 / 44.1;
#X msg 26 256 0 10;
#X obj 79 153 t b;
#X msg 79 174 0.88;
#X obj 122 -19 % 24;
#X obj 122 -45 abs;
#X obj 122 -66 expr if ($f1 > 59 \, $f1 - 60 \, $f1 - 12);
#X obj 122 3 + 1;
#X connect 0 0 9 0;
#X connect 2 0 0 0;
#X connect 3 0 21 0;
#X connect 4 0 25 0;
#X connect 5 0 6 0;
#X connect 5 1 28 0;
#X connect 6 0 27 0;
#X connect 7 0 20 0;
#X connect 8 0 23 0;
#X connect 9 0 22 0;
#X connect 10 0 1 0;
#X connect 11 0 12 0;
#X connect 11 1 38 0;
#X connect 12 0 33 0;
#X connect 12 1 34 0;
#X connect 13 0 3 0;
#X connect 14 0 13 0;
#X connect 15 0 29 0;
#X connect 16 0 2 1;
#X connect 17 0 16 0;
#X connect 18 0 0 1;
#X connect 19 0 5 0;
#X connect 19 1 14 0;
#X connect 20 0 11 0;
#X connect 20 1 11 1;
#X connect 21 0 10 0;
#X connect 22 0 13 0;
#X connect 23 0 9 1;
#X connect 24 0 2 0;
#X connect 24 1 26 0;
#X connect 24 2 18 0;
#X connect 25 0 3 1;
#X connect 26 0 4 0;
#X connect 27 0 30 0;
#X connect 27 0 32 0;
#X connect 28 0 27 3;
#X connect 29 0 17 0;
#X connect 32 0 31 0;
#X connect 32 0 15 0;
#X connect 33 0 4 0;
#X connect 34 0 35 0;
#X connect 35 0 24 0;
#X connect 36 0 39 0;
#X connect 37 0 36 0;
#X connect 38 0 37 0;
#X connect 39 0 19 0;
#X restore 212 295 pd play-selected-note;
#X obj 77 68 r rec-notes;
#X obj 212 261 spigot 1;
#X obj 77 257 spigot 1;
#N canvas 189 103 1140 700 choose-trig-rec 1;
#X obj 77 40 inlet;
#X obj 77 77 stripnote;
#X obj 77 162 % 24;
#X obj 77 136 abs;
#X obj 77 105 expr if ($f1 > 59 \, $f1 - 60 \, $f1 - 12);
#X obj 77 184 + 1;
#X obj 683 73 r cgSc-1-mute-print;
#X obj 683 260 spigot 0;
#X obj 683 282 sel 0;
#X obj 683 348 del 24;
#X obj 619 638 cg-print-kb 36;
#X obj 711 110 r change-page;
#X obj 711 132 sel 2, f 13;
#X msg 786 178 0;
#X msg 728 178 1;
#X obj 786 199 t f f f f;
#X obj 728 199 t f f f;
#X obj 803 263 s mute-\$0;
#N canvas 546 193 631 489 print-line-1 0;
#X obj 303 371 r change-page;
#X obj 303 393 sel 2, f 13;
#X msg 378 439 0;
#X msg 315 437 1;
#X obj 303 414 t b b;
#X obj 378 413 t b b;
#X obj 174 426 spigot 0;
#X obj 58 77 inlet;
#X obj 58 152 sel -1;
#X msg 58 245 Select a Key;
#X obj 333 12 r samp-states;
#X obj 522 222 s led;
#X msg 478 198 1;
#X msg 507 191 6;
#X msg 507 157 0;
#X obj 7 329 r cgSc-1-mute-print;
#X obj 174 447 spigot 0;
#X obj 7 350 ==;
#X obj 439 5 r cgSc-1-mute-print;
#X obj 439 29 sel 0;
#X obj 344 466 f;
#X obj 439 50 spigot 0;
#X obj 333 33 unpack;
#X obj 333 54 swap, f 6;
#X obj 333 75 pack, f 6;
#X obj 333 108 route 1 2 0, f 26;
#X obj 174 377 list;
#X obj 174 398 route 69;
#X msg 174 356 69;
#X obj 176 334 t b a;
#X obj 91 353 sel 1;
#X obj 91 374 del 24;
#X obj 174 481 s screenLine2;
#X msg 332 275 Waiting for Sound;
#X msg 307 218 Done!;
#X msg 504 270 Recording;
#X msg 176 241 Key \$1: Ready;
#X text 169 208 Ready to Record;
#X obj 356 156 t b b b;
#X msg 395 183 stop;
#X obj 375 210 delay 1000;
#X obj 176 189 f, f 6;
#X connect 0 0 1 0;
#X connect 1 0 4 0;
#X connect 1 1 5 0;
#X connect 2 0 20 0;
#X connect 3 0 20 0;
#X connect 4 1 3 0;
#X connect 5 0 2 0;
#X connect 6 0 16 0;
#X connect 7 0 8 0;
#X connect 8 0 9 0;
#X connect 8 1 41 0;
#X connect 9 0 29 0;
#X connect 10 0 22 0;
#X connect 12 0 11 0;
#X connect 13 0 11 0;
#X connect 14 0 11 0;
#X connect 15 0 17 0;
#X connect 16 0 32 0;
#X connect 17 0 16 1;
#X connect 17 0 30 0;
#X connect 18 0 19 0;
#X connect 19 0 21 0;
#X connect 20 0 6 1;
#X connect 22 0 23 0;
#X connect 22 1 23 1;
#X connect 23 0 24 0;
#X connect 23 1 24 1;
#X connect 24 0 25 0;
#X connect 25 0 13 0;
#X connect 25 0 33 0;
#X connect 25 1 12 0;
#X connect 25 1 35 0;
#X connect 25 2 14 0;
#X connect 25 2 38 0;
#X connect 26 0 27 0;
#X connect 27 0 6 0;
#X connect 28 0 26 0;
#X connect 29 0 28 0;
#X connect 29 1 26 1;
#X connect 30 0 31 0;
#X connect 31 0 28 0;
#X connect 33 0 29 0;
#X connect 34 0 29 0;
#X connect 35 0 29 0;
#X connect 36 0 29 0;
#X connect 38 0 34 0;
#X connect 38 1 40 0;
#X connect 38 2 39 0;
#X connect 39 0 40 0;
#X connect 40 0 41 0;
#X connect 41 0 36 0;
#X restore 77 593 pd print-line-1;
#X text 190 172 any new event kills previous rec;
#X obj 569 499 pack 0 100;
#X obj 520 405 t f f b, f 17;
#X obj 619 450 f 0;
#X obj 619 472 pack 0 0;
#X obj 867 228 s samp-global-kill;
#X obj 786 152 t b b;
#X msg 774 319 Select a Key...;
#X obj 711 153 t b b b;
#X obj 683 303 t b b;
#X obj 619 592 list, f 8;
#X obj 619 545 t b a, f 8;
#X msg 619 566 69;
#X obj 619 613 route 69;
#X obj 683 421 t b b b;
#X obj 77 561 f;
#X obj 361 420 r change-page;
#X obj 361 441 t b;
#X msg 361 462 -1;
#X obj 77 287 t f f, f 21;
#X obj 116 231 s samp-global-kill;
#X obj 423 172 spigot 0;
#X obj 547 14 r change-page;
#X obj 547 41 sel 2, f 13;
#X msg 547 82 1;
#X msg 622 83 0;
#X obj 77 206 t f f b;
#X obj 423 276 f, f 11;
#X msg 456 333 \; samp-\$1-arm bang;
#X obj 431 20 r cgSc-1-2;
#X obj 618 149 f;
#X obj 553 161 r aux;
#X obj 553 182 spigot 0;
#X obj 553 207 sel 1;
#X obj 553 231 s samp-global-kill;
#X obj 722 487 spigot;
#X obj 750 439 r cgSc-1-mute-print;
#X obj 750 460 ==;
#X obj 774 351 spigot, f 24;
#X obj 915 297 r cgSc-1-mute-print;
#X obj 915 323 ==;
#X obj 566 261 r change-page;
#X obj 566 282 t b;
#X obj 774 376 s screenLine2;
#X obj 366 25 r fs;
#X obj 440 250 s samp-global-kill;
#X obj 622 63 t b;
#X obj 872 31 r samp-states;
#X obj 872 52 unpack;
#X obj 905 79 v \$0-the-states;
#X obj 423 193 v \$0-the-states;
#X obj 423 214 sel 0 1 2 3;
#X obj 423 297 sel -1;
#X msg 566 303 -1;
#X obj 366 46 sel 0;
#N canvas 847 373 450 300 fast-on-but-release 0;
#X obj 28 21 inlet;
#X obj 28 42 sel 0, f 13;
#X obj 103 66 t b;
#X obj 149 25 r cgSc-1-mute-print;
#X obj 103 87 spigot;
#X obj 28 88 spigot;
#X obj 149 66 ==;
#X obj 28 175 outlet;
#X connect 0 0 1 0;
#X connect 1 0 5 0;
#X connect 1 1 2 0;
#X connect 2 0 4 0;
#X connect 3 0 5 1;
#X connect 3 0 6 0;
#X connect 4 0 7 0;
#X connect 5 0 7 0;
#X connect 6 0 4 1;
#X restore 431 116 pd fast-on-but-release;
#X connect 0 0 1 0;
#X connect 1 0 4 0;
#X connect 2 0 5 0;
#X connect 3 0 2 0;
#X connect 4 0 3 0;
#X connect 5 0 45 0;
#X connect 6 0 7 0;
#X connect 7 0 8 0;
#X connect 8 0 28 0;
#X connect 9 0 33 0;
#X connect 11 0 12 0;
#X connect 12 0 27 0;
#X connect 12 1 25 0;
#X connect 13 0 15 0;
#X connect 14 0 16 0;
#X connect 15 0 7 1;
#X connect 15 1 17 0;
#X connect 16 0 7 1;
#X connect 16 1 17 0;
#X connect 20 0 30 0;
#X connect 21 0 22 1;
#X connect 21 1 20 0;
#X connect 21 2 22 0;
#X connect 22 0 23 0;
#X connect 23 0 30 0;
#X connect 25 0 13 0;
#X connect 25 1 24 0;
#X connect 26 0 57 0;
#X connect 27 0 26 0;
#X connect 27 1 14 0;
#X connect 27 1 24 0;
#X connect 27 2 9 0;
#X connect 28 0 9 0;
#X connect 29 0 32 0;
#X connect 30 0 31 0;
#X connect 30 1 29 1;
#X connect 31 0 29 0;
#X connect 32 0 10 0;
#X connect 33 1 31 0;
#X connect 33 2 54 0;
#X connect 34 0 18 0;
#X connect 35 0 36 0;
#X connect 36 0 37 0;
#X connect 37 0 29 1;
#X connect 37 0 34 0;
#X connect 38 0 34 0;
#X connect 38 1 21 0;
#X connect 40 0 69 0;
#X connect 41 0 42 0;
#X connect 42 0 43 0;
#X connect 42 1 65 0;
#X connect 43 0 49 0;
#X connect 44 0 49 0;
#X connect 45 0 38 0;
#X connect 45 1 46 1;
#X connect 45 2 39 0;
#X connect 46 0 71 0;
#X connect 48 0 74 0;
#X connect 49 0 40 1;
#X connect 49 0 51 1;
#X connect 50 0 51 0;
#X connect 51 0 52 0;
#X connect 52 0 53 0;
#X connect 54 0 10 1;
#X connect 55 0 56 0;
#X connect 56 0 54 1;
#X connect 57 0 62 0;
#X connect 58 0 59 0;
#X connect 59 0 57 1;
#X connect 60 0 61 0;
#X connect 61 0 72 0;
#X connect 63 0 73 0;
#X connect 65 0 44 0;
#X connect 66 0 67 0;
#X connect 67 1 68 0;
#X connect 69 0 70 0;
#X connect 70 0 46 0;
#X connect 70 1 64 0;
#X connect 70 2 64 0;
#X connect 70 3 64 0;
#X connect 71 1 47 0;
#X connect 72 0 46 1;
#X connect 73 0 40 0;
#X connect 74 0 40 0;
#X restore 77 298 pd choose-trig-rec;
#X obj 257 42 t a b;
#X obj 284 72 s samp-kill-global;
#X obj 77 91 t a a, f 23;
#X connect 0 0 11 0;
#X connect 1 0 3 0;
#X connect 1 1 5 0;
#X connect 2 0 4 0;
#X connect 3 0 4 0;
#X connect 4 0 8 1;
#X connect 4 0 9 1;
#X connect 5 0 2 0;
#X connect 7 0 13 0;
#X connect 8 0 6 0;
#X connect 9 0 10 0;
#X connect 11 0 1 0;
#X connect 11 1 12 0;
#X connect 13 0 8 0;
#X connect 13 1 9 0;
