#N canvas 446 50 1008 737 10;
#X obj 82 390 phasor~;
#X obj 84 679 throw~ samp_voice_out;
#X obj 83 270 f;
#X obj 84 603 *~, f 41;
#X obj 326 531 vline~;
#X obj 136 292 r ramp-time;
#X obj 83 318 pack 0 0;
#X obj 83 345 vline~;
#X obj 147 59 t b a, f 15;
#X msg 147 81 0;
#X obj 26 -130 inlet;
#X obj 139 427 r \$0-duration-s;
#X obj 82 469 *~, f 10;
#X obj 85 650 hip~ 5;
#X obj 26 -84 swap, f 6;
#X obj 26 -10 sel 0, f 10;
#X obj 83 187 / 127;
#X obj 83 538 tabread4~;
#X msg 349 132 set samp-\$1;
#X obj 667 262 / 261.626;
#X obj 667 284 / 2;
#X obj 564 368 /;
#X obj 667 239 mtof;
#X obj 564 346 f;
#X obj 667 303 t b a;
#X obj 564 194 r \$0-duration;
#X obj 564 421 /;
#X msg 564 399 1000 \$1;
#X obj 667 121 f, f 15;
#X obj 147 9 + 1;
#X obj 147 -35 - 12;
#X obj 147 -13 % 24;
#X obj 82 491 +~ 1;
#X obj 139 449 - 2;
#X obj 684 157 r global-pitch;
#X obj 667 213 +;
#X obj 684 179 t b a;
#X obj 83 235 t b f b b, f 29;
#X msg 254 269 0 0;
#X obj 83 292 sqrt 2;
#X obj 83 367 pow~ 2;
#X obj 83 209 sqrt;
#X msg 326 466 \$1 3;
#X msg 26 256 0 20;
#X obj 147 104 text get, f 15;
#X msg 234 82 symbol samp-\$1-length;
#X obj 147 165 / 44.1;
#X obj 147 188 s \$0-duration;
#X obj 172 139 s \$0-duration-s;
#X obj 230 371 snapshot~;
#X obj 230 399 tabwrite pointz;
#X obj 26 66 t b b;
#X obj 317 365 - 1;
#X obj 636 -9 r \$0-pitch;
#X obj 349 162 s \$0-2-tabread;
#X obj 130 504 r \$0-2-tabread;
#X obj 147 38 t f f f f, f 68;
#N canvas 558 307 450 300 phase-sync 0;
#X obj 65 16 inlet;
#X obj 92 247 outlet;
#X msg 65 88 0;
#X obj 182 36 r glob-sync-lock;
#X obj 65 118 spigot;
#X obj 65 38 t b b;
#X obj 143 119 spigot;
#X obj 182 90 ==;
#X obj 135 25 inlet;
#X obj 135 47 - 1;
#X obj 107 85 f;
#X obj 150 193 tabread pointz;
#X connect 0 0 5 0;
#X connect 2 0 4 0;
#X connect 3 0 7 0;
#X connect 3 0 4 1;
#X connect 4 0 1 0;
#X connect 5 0 2 0;
#X connect 5 1 10 0;
#X connect 6 0 11 0;
#X connect 7 0 6 1;
#X connect 8 0 9 0;
#X connect 9 0 10 1;
#X connect 10 0 6 0;
#X connect 11 0 1 0;
#X restore 197 328 pd phase-sync - - - - - - - - - - - - - - - - -
;
#X obj 84 564 *~;
#X obj 93 410 s~ \$0-phazzee;
#X obj 391 375 r~ \$0-phazzee;
#X obj 390 400 -~ 0.5;
#X obj 390 421 *~ 0.5;
#X obj 390 493 clip~ 0 1;
#X obj 390 472 *~ 100;
#X obj 390 443 cos~;
#X msg 900 67 96;
#X msg 771 65 60;
#X msg 816 66 72;
#X msg 858 66 84;
#X msg 724 65 48;
#X msg 680 66 36;
#X msg 636 66 24;
#X obj 26 -106 unpack 0 0 0;
#X obj 95 -82 s \$0-pitch;
#X floatatom 285 -57 5 0 0 0 - - -;
#X msg 937 68 108;
#X obj 636 37 sel -4 -3 -2 -1 0 1 2 3, f 58;
#X obj 85 628 *~ 0.7;
#X connect 0 0 12 0;
#X connect 0 0 49 0;
#X connect 0 0 59 0;
#X connect 2 0 39 0;
#X connect 3 0 78 0;
#X connect 4 0 3 1;
#X connect 5 0 6 1;
#X connect 6 0 7 0;
#X connect 7 0 40 0;
#X connect 8 0 9 0;
#X connect 8 1 45 0;
#X connect 9 0 44 0;
#X connect 10 0 73 0;
#X connect 11 0 33 0;
#X connect 12 0 32 0;
#X connect 13 0 1 0;
#X connect 14 0 15 0;
#X connect 14 1 30 0;
#X connect 15 0 51 0;
#X connect 15 1 16 0;
#X connect 16 0 41 0;
#X connect 17 0 58 0;
#X connect 18 0 54 0;
#X connect 19 0 20 0;
#X connect 20 0 24 0;
#X connect 21 0 27 0;
#X connect 22 0 19 0;
#X connect 23 0 21 0;
#X connect 24 0 23 0;
#X connect 24 1 21 1;
#X connect 25 0 23 0;
#X connect 26 0 2 1;
#X connect 27 0 26 0;
#X connect 28 0 35 0;
#X connect 29 0 56 0;
#X connect 30 0 31 0;
#X connect 31 0 29 0;
#X connect 32 0 17 0;
#X connect 33 0 12 1;
#X connect 34 0 36 0;
#X connect 35 0 22 0;
#X connect 36 0 35 0;
#X connect 36 1 35 1;
#X connect 37 0 2 0;
#X connect 37 1 42 0;
#X connect 37 2 57 0;
#X connect 37 3 38 0;
#X connect 38 0 7 0;
#X connect 39 0 6 0;
#X connect 40 0 0 0;
#X connect 41 0 37 0;
#X connect 42 0 4 0;
#X connect 43 0 4 0;
#X connect 44 0 46 0;
#X connect 44 0 48 0;
#X connect 45 0 44 3;
#X connect 46 0 47 0;
#X connect 49 0 50 0;
#X connect 51 0 43 0;
#X connect 51 1 49 0;
#X connect 52 0 50 1;
#X connect 53 0 75 0;
#X connect 53 0 77 0;
#X connect 55 0 17 0;
#X connect 56 0 8 0;
#X connect 56 1 18 0;
#X connect 56 2 52 0;
#X connect 56 3 57 1;
#X connect 57 0 0 1;
#X connect 58 0 3 0;
#X connect 60 0 61 0;
#X connect 61 0 62 0;
#X connect 62 0 65 0;
#X connect 63 0 58 1;
#X connect 64 0 63 0;
#X connect 65 0 64 0;
#X connect 66 0 28 0;
#X connect 67 0 28 0;
#X connect 68 0 28 0;
#X connect 69 0 28 0;
#X connect 70 0 28 0;
#X connect 71 0 28 0;
#X connect 72 0 28 0;
#X connect 73 0 14 0;
#X connect 73 1 14 1;
#X connect 73 2 74 0;
#X connect 76 0 28 0;
#X connect 77 0 72 0;
#X connect 77 1 71 0;
#X connect 77 2 70 0;
#X connect 77 3 67 0;
#X connect 77 4 68 0;
#X connect 77 5 69 0;
#X connect 77 6 66 0;
#X connect 77 7 76 0;
#X connect 78 0 13 0;
