#N canvas 4 186 932 657 10;
#X obj 12 10 inlet;
#X obj 12 31 unpack 0 0;
#X obj 69 56 sel 0, f 12;
#X obj 136 456 fmMod, f 19;
#X obj 246 409 vline~;
#X obj 169 176 s \$0-on;
#X obj 169 153 sqrt;
#X obj 169 131 / 127;
#X obj 70 194 s \$0-off;
#X obj 579 151 r \$0-on;
#X obj 299 333 r \$0-off;
#X obj 12 223 s~ \$0-pitch;
#X obj 12 52 sig~;
#X obj 12 73 +~;
#X obj 12 94 mtof~;
#X obj 157 378 r~ \$0-pitch;
#X obj 245 266 vline~;
#X obj 245 167 r \$0-on;
#X obj 298 190 r \$0-off;
#X obj 470 445 fmMod, f 19;
#X obj 580 398 vline~;
#X obj 653 409 r \$0-off;
#X obj 274 117 switch~;
#X msg 274 81 1;
#X obj 70 78 t b b b;
#X msg 114 102 stop;
#X msg 89 159 0;
#X obj 110 4 r trans;
#X obj 110 28 lop~ 100;
#X obj 278 634 outlet~;
#X obj 278 544 hip~ 5;
#X obj 278 605 *~ 0.8;
#X obj 136 477 *~ 0.7;
#X obj 579 233 + 0.005;
#X obj 579 212 * 0.995;
#X obj 391 266 r \$0-on;
#X obj 579 254 t a a;
#X obj 579 315 pack;
#X obj 391 287 * 0.75;
#X obj 391 307 + 0.25;
#X text 386 17 FM Bass Patch;
#X obj 607 284 * 0.85;
#X obj 245 188 t b;
#X obj 174 209 r~ \$0-pitch;
#X obj 136 313 tx-wave-7, f 28;
#X msg 298 211 0 10;
#X obj 366 402 vline~;
#X obj 157 399 +~;
#X obj 170 58 t f b b, f 12;
#X obj 452 306 r \$0-on;
#X obj 463 351 + 0.5;
#X obj 463 330 * 0.5;
#X obj 183 422 sig~ 1;
#X obj 470 466 *~ 0.8;
#X obj 367 444 *~ 800;
#X obj 174 230 /~ 3;
#X obj 197 284 sig~ 1;
#X obj 501 391 r~ \$0-pitch;
#X obj 245 287 pow~ 8;
#X obj 366 423 pow~ 8;
#X msg 245 233 1 10 \, 0 45 10;
#X msg 299 354 0 150;
#X msg 247 376 \$1 24 \, 0 240 24;
#X obj 517 411 sig~ 1;
#X obj 247 430 pow~ 4;
#X obj 580 419 pow~ 4;
#X msg 653 430 0 300;
#X obj 300 274 sig~ 0.6;
#X obj 175 249 +~ 111;
#X obj 135 334 *~ 0.5;
#X msg 581 365 \$1 90 \, \$2 300 90;
#X msg 367 358 \$1 4 \, 0.1 90 4 \, 0 200 94;
#X obj 89 138 del 310;
#X connect 0 0 1 0;
#X connect 1 0 12 0;
#X connect 1 1 2 0;
#X connect 2 0 24 0;
#X connect 2 1 48 0;
#X connect 3 0 32 0;
#X connect 4 0 64 0;
#X connect 6 0 5 0;
#X connect 7 0 6 0;
#X connect 9 0 34 0;
#X connect 10 0 61 0;
#X connect 12 0 13 0;
#X connect 13 0 14 0;
#X connect 14 0 11 0;
#X connect 15 0 47 0;
#X connect 16 0 58 0;
#X connect 17 0 42 0;
#X connect 18 0 45 0;
#X connect 19 0 53 0;
#X connect 20 0 65 0;
#X connect 21 0 66 0;
#X connect 23 0 22 0;
#X connect 24 0 8 0;
#X connect 24 1 72 0;
#X connect 24 2 25 0;
#X connect 25 0 72 0;
#X connect 26 0 22 0;
#X connect 27 0 28 0;
#X connect 28 0 13 1;
#X connect 30 0 31 0;
#X connect 31 0 29 0;
#X connect 32 0 30 0;
#X connect 33 0 36 0;
#X connect 34 0 33 0;
#X connect 35 0 38 0;
#X connect 36 0 37 0;
#X connect 36 1 41 0;
#X connect 37 0 70 0;
#X connect 38 0 39 0;
#X connect 39 0 62 0;
#X connect 41 0 37 1;
#X connect 42 0 60 0;
#X connect 43 0 55 0;
#X connect 44 0 69 0;
#X connect 45 0 16 0;
#X connect 46 0 59 0;
#X connect 47 0 3 1;
#X connect 48 0 7 0;
#X connect 48 1 23 0;
#X connect 48 2 25 0;
#X connect 49 0 51 0;
#X connect 50 0 71 0;
#X connect 51 0 50 0;
#X connect 52 0 3 2;
#X connect 53 0 30 0;
#X connect 54 0 47 1;
#X connect 55 0 68 0;
#X connect 56 0 44 2;
#X connect 57 0 19 1;
#X connect 58 0 44 3;
#X connect 59 0 54 0;
#X connect 60 0 16 0;
#X connect 61 0 4 0;
#X connect 62 0 4 0;
#X connect 63 0 19 2;
#X connect 64 0 3 3;
#X connect 65 0 19 3;
#X connect 66 0 20 0;
#X connect 67 0 44 4;
#X connect 68 0 44 1;
#X connect 69 0 3 0;
#X connect 70 0 20 0;
#X connect 71 0 46 0;
#X connect 72 0 26 0;
