#N canvas 200 50 1439 894 10;
#X obj 12 10 inlet;
#X obj 12 31 unpack 0 0;
#X obj 69 56 sel 0, f 65;
#X obj 423 146 s \$0-on;
#X obj 617 144 r \$0-on;
#X obj 12 223 s~ \$0-pitch;
#X obj 12 52 sig~;
#X obj 12 94 mtof~;
#X obj 385 329 vline~;
#X obj 363 205 r \$0-on;
#X obj 276 489 fmMod, f 19;
#X obj 617 365 vline~;
#X obj 89 247 switch~;
#X msg 479 159 1;
#X obj 70 78 t b b b;
#X msg 247 127 stop;
#X msg 89 199 0;
#X obj 110 4 r trans;
#X obj 110 28 lop~ 100;
#X obj 278 764 outlet~;
#X obj 278 735 *~ 0.8;
#X text 386 17 FM Bass Patch;
#X obj 260 270 r~ \$0-pitch;
#X obj 276 376 tx-wave-7, f 28;
#X obj 307 435 r~ \$0-pitch;
#X obj 12 73 +~;
#X obj 277 509 *~ 0.7;
#X obj 456 82 t f b b b, f 12;
#X obj 326 460 sig~ 1;
#X obj 662 261 r local-decay;
#X obj 617 288 pack 0 0;
#X obj 274 398 *~ 0.135;
#X obj 617 165 * 0.75;
#X obj 617 186 + 0.25;
#X obj 323 317 sig~ 3;
#X obj 442 341 sig~ 0.25;
#X obj 487 506 fmMod, f 19;
#X obj 525 452 r~ \$0-pitch;
#X obj 561 476 sig~ 5;
#X obj 488 526 *~ 0.01;
#X obj 762 142 r \$0-on;
#X obj 807 259 r local-decay;
#X obj 762 306 pack 0 0;
#X obj 762 163 * 0.75;
#X obj 762 184 + 0.25;
#X obj 807 280 / 2;
#X obj 762 370 vline~;
#X obj 762 391 pow~ 4;
#X obj 423 120 / 127;
#X obj 762 205 pow 0.25;
#X obj 617 217 pow 0.25;
#X obj 617 386 pow~ 4;
#X obj 376 243 pow 0.25;
#X obj 385 350 pow~ 4;
#X msg 762 342 \$1 6 \, 0 \$2 6;
#X msg 362 278 \$1 5 \, 0 67 15;
#X obj 693 18 inlet kill;
#X obj 278 663 *~, f 33;
#X obj 472 632 vline~;
#X obj 693 109 s \$0-kill;
#X obj 472 581 r \$0-kill;
#X obj 525 148 s \$0-kill;
#X msg 693 80 0 8;
#X obj 89 178 del 200;
#X obj 66 114 s \$0-off;
#X obj 474 244 r \$0-off;
#X msg 474 265 0 50;
#X obj 545 289 r \$0-off;
#X msg 545 310 0 200;
#X obj 869 295 r \$0-off;
#X msg 869 316 0 100;
#X msg 525 121 1 5;
#X msg 618 325 \$1 8 \, 0.75 \$2 8;
#X msg 202 187 0;
#X obj 202 165 del 8;
#X obj 693 39 t b b;
#N canvas 4 50 450 300 on/off 0;
#X obj 36 18 inlet;
#X msg 73 86 stop;
#X obj 37 120 del 82;
#X obj 36 39 t b b b;
#X msg 125 105 1;
#X obj 37 141 0;
#X obj 77 204 outlet;
#X connect 0 0 3 0;
#X connect 1 0 2 0;
#X connect 2 0 5 0;
#X connect 3 0 2 0;
#X connect 3 1 1 0;
#X connect 3 2 4 0;
#X connect 4 0 6 0;
#X connect 5 0 6 0;
#X restore 452 320 pd on/off;
#X connect 0 0 1 0;
#X connect 1 0 6 0;
#X connect 1 1 2 0;
#X connect 2 0 14 0;
#X connect 2 1 27 0;
#X connect 4 0 32 0;
#X connect 6 0 25 0;
#X connect 7 0 5 0;
#X connect 8 0 53 0;
#X connect 9 0 52 0;
#X connect 10 0 26 0;
#X connect 11 0 51 0;
#X connect 13 0 12 0;
#X connect 14 0 64 0;
#X connect 14 1 63 0;
#X connect 14 2 15 0;
#X connect 15 0 63 0;
#X connect 15 0 74 0;
#X connect 16 0 12 0;
#X connect 17 0 18 0;
#X connect 18 0 25 1;
#X connect 20 0 19 0;
#X connect 22 0 23 1;
#X connect 23 0 31 0;
#X connect 24 0 10 1;
#X connect 25 0 7 0;
#X connect 26 0 57 0;
#X connect 27 0 48 0;
#X connect 27 1 13 0;
#X connect 27 2 15 0;
#X connect 27 3 71 0;
#X connect 28 0 10 2;
#X connect 29 0 30 1;
#X connect 30 0 72 0;
#X connect 31 0 10 0;
#X connect 31 0 36 0;
#X connect 32 0 33 0;
#X connect 33 0 50 0;
#X connect 34 0 23 2;
#X connect 35 0 23 4;
#X connect 36 0 39 0;
#X connect 37 0 36 1;
#X connect 38 0 36 2;
#X connect 39 0 10 0;
#X connect 39 0 57 0;
#X connect 40 0 43 0;
#X connect 41 0 45 0;
#X connect 42 0 54 0;
#X connect 43 0 44 0;
#X connect 44 0 49 0;
#X connect 45 0 42 1;
#X connect 46 0 47 0;
#X connect 47 0 36 3;
#X connect 48 0 3 0;
#X connect 49 0 42 0;
#X connect 50 0 30 0;
#X connect 51 0 10 3;
#X connect 52 0 55 0;
#X connect 52 0 76 0;
#X connect 53 0 23 3;
#X connect 54 0 46 0;
#X connect 55 0 8 0;
#X connect 56 0 75 0;
#X connect 57 0 20 0;
#X connect 58 0 57 1;
#X connect 60 0 58 0;
#X connect 62 0 59 0;
#X connect 63 0 16 0;
#X connect 65 0 66 0;
#X connect 66 0 8 0;
#X connect 67 0 68 0;
#X connect 68 0 11 0;
#X connect 69 0 70 0;
#X connect 70 0 46 0;
#X connect 71 0 61 0;
#X connect 72 0 11 0;
#X connect 73 0 12 0;
#X connect 74 0 73 0;
#X connect 75 0 62 0;
#X connect 75 1 74 0;
#X connect 76 0 23 5;
