#N canvas 4 50 1002 604 10;
#N canvas 0 0 450 300 (subpatch) 0;
#X array \$0-signal 882 float 0;
#X coords 0 5 882 -5 200 130 1 0 0;
#X restore 342 76 graph;
#N canvas 0 0 450 300 (subpatch) 0;
#X array \$0-spectrum 128 float 0;
#X coords 0 4300 127 -40 257 130 1 0 0;
#X restore 297 261 graph;
#X text 206 35 <-- click to graph;
#N canvas 45 83 558 569 fft 0;
#X obj 19 62 inlet~;
#X obj 85 214 inlet;
#X obj 19 92 rfft~;
#X obj 19 125 *~;
#X obj 50 125 *~;
#X obj 19 155 sqrt~;
#X obj 332 109 block~ 4096 1;
#X obj 19 181 biquad~ 0 0 0 0 1;
#X text 83 93 Fourier series;
#X text 88 146 magnitude;
#X text 86 131 calculate;
#X text 21 3 This subpatch computes the spectrum of the incoming signal
with a (rectangular windowed) FFT. FFTs aren't properly introduced
until much later.;
#X text 83 62 signal to analyze;
#X text 182 166 delay two samples;
#X text 181 182 for better graphing;
#X obj 90 425 samplerate~;
#X obj 90 402 bng 18 250 50 0 empty empty empty 0 -6 0 8 -262144 -1
-1;
#X floatatom 90 472 5 0 0 0 - - -;
#X obj 90 448 / 256;
#X obj 90 378 loadbang;
#X floatatom 90 541 5 0 0 0 - - -;
#X obj 98 494 s fundamental;
#X obj 90 517 ftom;
#X text 146 540 <-just out of curiosity \, here's the pitch;
#X text 14 319 At load time \, calculate a good choice of fundamental
frequency for showing spectra: the 16th bin in a 4096-point spectrum
\, so SR*16/4096 or SR/256.;
#X text 135 216 "bang" into this inlet to graph it;
#X obj 85 248 tabwrite~ \$0-spectrum;
#X connect 0 0 2 0;
#X connect 1 0 26 0;
#X connect 2 0 3 0;
#X connect 2 0 3 1;
#X connect 2 1 4 0;
#X connect 2 1 4 1;
#X connect 3 0 5 0;
#X connect 4 0 5 0;
#X connect 5 0 7 0;
#X connect 7 0 26 0;
#X connect 15 0 18 0;
#X connect 16 0 15 0;
#X connect 17 0 21 0;
#X connect 17 0 22 0;
#X connect 18 0 17 0;
#X connect 19 0 16 0;
#X connect 22 0 20 0;
#X restore 40 279 pd fft;
#X text 342 208 ---- 0.02 seconds ----;
#X text 327 394 1;
#X text 361 394 2;
#X text 393 394 3;
#X text 425 394 4;
#X text 458 394 5;
#X text 488 394 6;
#X text 708 359 7;
#X text 295 394 0;
#X text 331 413 -- partial number --;
#X text 415 58 WAVEFORM;
#X text 389 239 SPECTRUM;
#X obj 40 62 *~ 1;
#X text 80 61 sum;
#X obj 167 16 inlet bang;
#X obj 39 16 inlet~;
#X obj 100 279 tabwrite~ \$0-signal;
#X obj 167 37 t b b;
#X connect 16 0 3 0;
#X connect 16 0 20 0;
#X connect 18 0 21 0;
#X connect 19 0 16 0;
#X connect 21 0 3 1;
#X connect 21 1 20 0;
