#N canvas 356 120 684 647 10;
#X declare -path CG-Pd-Library-Local/sequencer;
#X declare -path CG-Pd-Library-Local/externals;
#X declare -path CG-Pd-Library-Local/metronome;
#X obj 42 526 throw~ outL;
#X obj 24 551 throw~ outR;
#X obj 23 457 catch~ \$0-synth;
#N canvas 13 50 450 300 CG-PdLibrary-Local 0;
#X obj 502 35 r cgSc-1-slots;
#X obj 60 98 declare -path CG-Pd-Library-Local/sequencer;
#X obj 58 130 declare -path CG-Pd-Library-Local/externals;
#X obj 59 165 declare -path CG-Pd-Library-Local/metronome;
#X restore 333 39 pd CG-PdLibrary-Local;
#N canvas 615 160 725 615 SYNTH 0;
#X obj 73 137 fm-Lbass-voice;
#X obj 98 159 fm-Lbass-voice;
#X obj 173 137 fm-Lbass-voice;
#X obj 198 159 fm-Lbass-voice;
#X obj 73 41 inlet notes;
#X obj 73 62 poly 4 1, f 10;
#X obj 73 83 pack 0 0 0;
#X obj 73 104 route 1 2 3 4, f 29;
#X obj 74 237 outlet~;
#X connect 0 0 8 0;
#X connect 1 0 8 0;
#X connect 2 0 8 0;
#X connect 3 0 8 0;
#X connect 4 0 5 0;
#X connect 5 0 6 0;
#X connect 5 1 6 1;
#X connect 5 2 6 2;
#X connect 6 0 7 0;
#X connect 7 0 0 0;
#X connect 7 1 1 0;
#X connect 7 2 2 0;
#X connect 7 3 3 0;
#X restore 18 214 pd SYNTH;
#X obj 21 306 r notes;
#X obj 18 253 throw~ \$0-synth;
#N canvas 57 105 1353 710 xy-visual-grid 0;
#X obj 417 584 s oscOut;
#X obj 538 384 list;
#X msg 538 358 69;
#X obj 538 406 route 69;
#X obj 397 305 t b a a b, f 24;
#X msg 311 379 /oled/gFlip 3;
#X obj 420 462 t a a;
#X obj 538 428 t a a;
#X obj 397 195 * 16;
#X obj 460 211 * 16;
#X obj 397 140 moses 8;
#X obj 397 73 r x-count;
#X obj 159 590 s oscOut;
#X obj 199 389 list;
#X msg 199 363 69;
#X obj 199 411 route 69;
#X obj 139 311 t b a a b;
#X msg 53 385 /oled/gFlip 3;
#X obj 162 468 t a a;
#X obj 199 433 t a a;
#X obj 139 201 * 16;
#X obj 202 217 * 16;
#X obj 139 146 moses 8;
#X obj 184 67 inlet;
#X obj 139 100 spigot 0;
#X msg 538 456 /oled/gBox 3 \$1 \$2 15 15 0;
#X msg 447 498 /oled/gBox 3 \$1 \$2 15 15 1;
#X obj 397 216 + 0;
#X obj 460 232 + 0;
#X msg 460 255 \$1 33;
#X obj 460 191 - 8;
#X obj 607 24 r live-mode;
#X obj 626 121 t b b;
#X msg 397 259 \$1 13;
#X msg 201 466 /oled/gCircle 3 \$1 \$2 7 0;
#X msg 161 554 /oled/gCircle 3 \$1 \$2 7 1;
#X obj 139 222 + 7;
#X obj 202 238 + 7;
#X msg 139 265 \$1 20;
#X msg 202 264 \$1 40;
#X msg 414 546 /oled/gCircle 3 \$1 \$2 7 0;
#N canvas 515 272 450 300 simple-conversion 0;
#X obj 40 15 inlet;
#X obj 40 36 unpack 0 0, f 54;
#X obj 40 57 + 7;
#X obj 355 61 + 7;
#X obj 43 154 pack, f 31;
#X obj 43 175 outlet;
#X connect 0 0 1 0;
#X connect 1 0 2 0;
#X connect 1 1 3 0;
#X connect 2 0 4 0;
#X connect 3 0 4 1;
#X connect 4 0 5 0;
#X restore 414 520 pd simple-conversion;
#X obj 202 197 - 8;
#X obj 238 319 loadbang;
#X msg 238 340 0 0;
#X obj 603 323 loadbang;
#X msg 603 344 0 0;
#N canvas 276 78 450 300 place 0;
#X obj 34 13 inlet;
#X obj 119 201 unpack 0 0;
#X obj 119 222 outlet;
#X obj 179 222 outlet;
#X obj 119 103 * 16;
#X obj 182 119 * 16;
#X obj 119 48 moses 8;
#X obj 182 99 - 8;
#X obj 119 124 + 2;
#X obj 182 140 + 2;
#X msg 119 167 \$1 17;
#X msg 182 166 \$1 37;
#X connect 0 0 6 0;
#X connect 1 0 2 0;
#X connect 1 1 3 0;
#X connect 4 0 8 0;
#X connect 5 0 9 0;
#X connect 6 0 4 0;
#X connect 6 1 7 0;
#X connect 7 0 5 0;
#X connect 8 0 10 0;
#X connect 9 0 11 0;
#X connect 10 0 1 0;
#X connect 11 0 1 0;
#X restore 1246 317 pd place;
#X obj 1076 79 r notes;
#X msg 1121 574 /oled/gPrintln 3 \$2 \$3 8 1 \$1;
#X obj 1121 358 pack 0 0 0, f 22;
#X obj 1094 503 pack 0 0 0, f 22;
#X msg 1094 413 0;
#X obj 1094 611 s oscOut;
#X obj 1121 379 t a b;
#X msg 1094 536 /oled/gFillArea 3 \$2 \$3 11 8 \$1;
#X obj 1000 190 stripnote;
#X msg 900 497 /oled/gFlip 3;
#X obj 1045 217 r x-count;
#X obj 926 138 r print-a-delete;
#X obj 1000 246 pack 0 0;
#X obj 1000 271 t b a a, f 32;
#X obj 1189 294 unpack 0 0;
#X obj 1094 296 unpack 0 0;
#X obj 1094 330 sel 0;
#X obj 926 159 t b;
#X msg 926 180 0;
#X obj 660 218 t b a;
#X msg 660 259 69;
#X obj 660 280 list, f 7;
#X obj 715 227 r return-line-5;
#X obj 660 437 s oscOut;
#X msg 686 366 /oled/gFillArea 3 0 53 66 11 0;
#X obj 660 341 t a b;
#X obj 660 301 route 69;
#X obj 607 95 sel 0 1 2;
#X obj 727 72 t b b;
#X obj 1136 11 r live-mode;
#X obj 1136 32 sel 2;
#X obj 1163 57 t b;
#X msg 1163 78 1;
#X msg 1136 53 0;
#X obj 1076 100 spigot 1;
#X msg 727 96 /oled/gPrintln 3 0 56 8 1 Jam On Top!;
#X msg 660 191 /oled/gPrintln 3 0 56 8 1 Live Mode;
#X obj 540 17 r knob1;
#X obj 540 38 * 17;
#X obj 540 59 i;
#X obj 540 80 moses 16;
#X obj 540 101 + 1;
#X msg 607 156 /oled/gPrintln 3 0 56 8 1 Step: \$1;
#X obj 1094 465 % 100;
#X text 903 468 keeps note numbers to 2 digits;
#X obj 139 9 r print-count;
#X connect 1 0 3 0;
#X connect 2 0 1 0;
#X connect 3 0 7 0;
#X connect 4 0 5 0;
#X connect 4 1 6 0;
#X connect 4 2 1 1;
#X connect 4 3 2 0;
#X connect 5 0 0 0;
#X connect 6 0 41 0;
#X connect 6 1 26 0;
#X connect 7 0 25 0;
#X connect 8 0 27 0;
#X connect 9 0 28 0;
#X connect 10 0 8 0;
#X connect 10 1 30 0;
#X connect 11 0 10 0;
#X connect 13 0 15 0;
#X connect 14 0 13 0;
#X connect 15 0 19 0;
#X connect 16 0 17 0;
#X connect 16 1 18 0;
#X connect 16 2 13 1;
#X connect 16 3 14 0;
#X connect 17 0 12 0;
#X connect 18 0 35 0;
#X connect 19 0 34 0;
#X connect 20 0 36 0;
#X connect 21 0 37 0;
#X connect 22 0 20 0;
#X connect 22 1 42 0;
#X connect 23 0 24 1;
#X connect 24 0 22 0;
#X connect 25 0 0 0;
#X connect 26 0 0 0;
#X connect 27 0 33 0;
#X connect 28 0 29 0;
#X connect 29 0 4 0;
#X connect 30 0 9 0;
#X connect 31 0 75 0;
#X connect 32 0 84 0;
#X connect 32 1 2 0;
#X connect 33 0 4 0;
#X connect 34 0 12 0;
#X connect 35 0 12 0;
#X connect 36 0 38 0;
#X connect 37 0 39 0;
#X connect 38 0 16 0;
#X connect 39 0 16 0;
#X connect 40 0 0 0;
#X connect 41 0 40 0;
#X connect 42 0 21 0;
#X connect 43 0 44 0;
#X connect 44 0 13 1;
#X connect 45 0 46 0;
#X connect 46 0 1 1;
#X connect 47 0 50 1;
#X connect 47 0 51 1;
#X connect 47 1 50 2;
#X connect 47 1 51 2;
#X connect 48 0 82 0;
#X connect 49 0 53 0;
#X connect 50 0 54 0;
#X connect 51 0 55 0;
#X connect 52 0 91 0;
#X connect 54 0 49 0;
#X connect 54 1 52 0;
#X connect 55 0 53 0;
#X connect 56 0 60 0;
#X connect 57 0 53 0;
#X connect 58 0 60 1;
#X connect 59 0 65 0;
#X connect 60 0 61 0;
#X connect 61 0 57 0;
#X connect 61 1 63 0;
#X connect 61 2 62 0;
#X connect 62 1 47 0;
#X connect 63 0 64 0;
#X connect 64 0 52 0;
#X connect 64 1 50 0;
#X connect 65 0 66 0;
#X connect 66 0 60 0;
#X connect 67 0 68 0;
#X connect 67 1 69 1;
#X connect 68 0 69 0;
#X connect 69 0 74 0;
#X connect 70 0 68 0;
#X connect 72 0 71 0;
#X connect 73 0 71 0;
#X connect 73 1 72 0;
#X connect 74 0 73 0;
#X connect 75 1 32 0;
#X connect 75 2 76 0;
#X connect 76 0 83 0;
#X connect 76 1 2 0;
#X connect 77 0 78 0;
#X connect 78 0 81 0;
#X connect 78 1 79 0;
#X connect 79 0 80 0;
#X connect 80 0 82 1;
#X connect 81 0 82 1;
#X connect 82 0 56 0;
#X connect 83 0 67 0;
#X connect 84 0 67 0;
#X connect 85 0 86 0;
#X connect 86 0 87 0;
#X connect 87 0 88 0;
#X connect 88 0 89 0;
#X connect 89 0 90 0;
#X connect 90 0 67 0;
#X connect 91 0 51 0;
#X connect 93 0 24 0;
#X restore 20 417 pd xy-visual-grid;
#N canvas 806 262 676 470 play-the-array 0;
#X obj 22 5 r master-count;
#X obj 22 147 t f f, f 17;
#X obj 49 324 outlet;
#X obj 22 216 tabread note-list;
#X obj 121 171 tabread vel-list;
#X obj 49 264 pack, f 17;
#X obj 121 192 sel 0;
#X obj 22 237 sel 0;
#X obj 67 27 inlet;
#X obj 22 116 spigot 0;
#X obj 172 387 noteout, f 20;
#X obj 49 285 t a a, f 21;
#X obj 172 313 unpack 0 0;
#X obj 289 368 r midiOutCh;
#X obj 172 337 makenote 69 100 500;
#X obj 297 31 r beat-clock;
#X obj 297 173 sel 0;
#X obj 297 265 f;
#X obj 329 265 + 1;
#X obj 297 307 s master-count;
#X obj 297 286 % 16;
#X obj 297 152 % 90;
#X obj 67 88 t a a;
#X msg 312 234 0;
#X text 412 58 if link is on start next whole note;
#X obj 297 58 t a a, f 10;
#X obj 354 166 sel 0;
#X obj 151 4 r link-session-present;
#X obj 354 142 spigot 0;
#X msg 441 156 0;
#X obj 117 34 ==;
#X obj 161 64 spigot;
#X msg 161 106 1;
#X obj 67 65 spigot 1;
#X obj 354 187 t b b b;
#X msg 393 216 1;
#X floatatom 227 63 5 0 0 0 - - -;
#X obj 94 115 sel 1;
#X obj 161 85 sel 1 0, f 16;
#X msg 204 109 0;
#X obj 183 257 s print-count;
#X connect 0 0 9 0;
#X connect 1 0 3 0;
#X connect 1 1 4 0;
#X connect 3 0 7 0;
#X connect 4 0 6 0;
#X connect 5 0 11 0;
#X connect 6 1 5 1;
#X connect 7 1 5 0;
#X connect 8 0 31 0;
#X connect 8 0 33 0;
#X connect 9 0 1 0;
#X connect 9 0 40 0;
#X connect 11 0 2 0;
#X connect 11 1 12 0;
#X connect 12 0 14 0;
#X connect 12 1 14 1;
#X connect 13 0 10 2;
#X connect 14 0 10 0;
#X connect 14 1 10 1;
#X connect 15 0 25 0;
#X connect 16 0 17 0;
#X connect 17 0 18 0;
#X connect 17 0 20 0;
#X connect 18 0 17 1;
#X connect 20 0 19 0;
#X connect 21 0 16 0;
#X connect 22 0 9 1;
#X connect 22 1 37 0;
#X connect 23 0 17 1;
#X connect 25 0 21 0;
#X connect 25 1 28 0;
#X connect 26 0 34 0;
#X connect 27 0 30 0;
#X connect 27 0 31 1;
#X connect 27 0 36 0;
#X connect 28 0 26 0;
#X connect 29 0 28 1;
#X connect 30 0 33 1;
#X connect 31 0 38 0;
#X connect 32 0 28 1;
#X connect 33 0 22 0;
#X connect 34 0 23 0;
#X connect 34 1 29 0;
#X connect 34 2 35 0;
#X connect 35 0 9 1;
#X connect 37 0 23 0;
#X connect 38 0 32 0;
#X connect 38 1 39 0;
#X connect 39 0 9 1;
#X restore 18 100 pd play-the-array;
#X obj 47 123 r notes;
#N canvas 647 157 577 649 fill-the-text-note-list 0;
#X obj 40 13 inlet;
#X obj 40 270 sel 0, f 27;
#X obj 40 220 swap, f 10;
#X obj 199 297 t b a, f 10;
#X obj 199 318 f, f 4;
#X obj 199 339 pack 0 0, f 10;
#N canvas 214 206 584 481 note-on 0;
#X obj 32 33 inlet;
#X obj 125 166 tabwrite vel-list, f 29;
#X obj 32 205 tabwrite note-list;
#X text 329 15 If note is on;
#X obj 239 79 f;
#X obj 32 54 t a b, f 35;
#X obj 32 135 unpack, f 16;
#X obj 254 50 r x-count;
#X obj 239 100 t f f, f 11;
#X connect 0 0 5 0;
#X connect 4 0 8 0;
#X connect 5 0 6 0;
#X connect 5 1 4 0;
#X connect 6 0 2 0;
#X connect 6 1 1 0;
#X connect 7 0 4 1;
#X connect 8 0 2 1;
#X connect 8 1 1 1;
#X restore 199 373 pd note-on;
#X obj 40 198 unpack 0 0;
#N canvas 4 50 450 492 hold-note 0;
#X obj 54 12 inlet;
#X obj 265 184 outlet;
#X obj 54 61 unpack;
#X obj 87 87 sel 0;
#X msg 153 170 stop;
#X obj 133 196 del 500;
#X obj 54 33 t a a, f 37;
#X msg 265 95 69;
#X obj 265 138 route 69;
#X obj 265 117 list append;
#X obj 61 190 t b b;
#X msg 87 249 1;
#X msg 133 227 0;
#X obj 87 289 sel 0 1;
#X obj 325 186 outlet;
#X obj 328 72 stripnote;
#X obj 328 93 pack 0 0;
#X obj 114 109 t b b b b;
#X msg 165 133 1;
#X obj 61 212 spigot 0;
#X connect 0 0 6 0;
#X connect 2 1 3 0;
#X connect 3 0 10 0;
#X connect 3 1 17 0;
#X connect 4 0 5 0;
#X connect 5 0 12 0;
#X connect 6 0 2 0;
#X connect 6 1 15 0;
#X connect 7 0 9 0;
#X connect 8 0 1 0;
#X connect 9 0 8 0;
#X connect 10 0 19 0;
#X connect 10 1 4 0;
#X connect 11 0 13 0;
#X connect 12 0 13 0;
#X connect 12 0 19 1;
#X connect 13 0 14 0;
#X connect 13 1 7 0;
#X connect 15 0 16 0;
#X connect 15 1 16 1;
#X connect 16 0 9 1;
#X connect 17 1 5 0;
#X connect 17 2 4 0;
#X connect 17 3 18 0;
#X connect 18 0 19 1;
#X connect 19 0 11 0;
#X restore 40 128 pd hold-note;
#N canvas 214 206 584 481 erase-note 0;
#X obj 32 13 inlet;
#X obj 228 166 tabwrite vel-list, f 29;
#X obj 135 205 tabwrite note-list;
#X obj 342 79 f;
#X obj 357 50 r x-count;
#X obj 342 100 t f f, f 10;
#X msg 135 75 0;
#X obj 135 96 t a a;
#X obj 32 34 t b b b, f 35;
#X obj 32 243 s print-a-delete;
#X connect 0 0 8 0;
#X connect 3 0 5 0;
#X connect 4 0 3 1;
#X connect 5 0 2 1;
#X connect 5 1 1 1;
#X connect 6 0 7 0;
#X connect 7 0 2 0;
#X connect 7 1 1 0;
#X connect 8 0 9 0;
#X connect 8 1 6 0;
#X connect 8 2 3 0;
#X restore 109 168 pd erase-note;
#X obj 423 521 array define note-list 16;
#X obj 396 545 array define vel-list 16;
#X obj 306 275 r master-vel;
#X obj 40 54 spigot 1;
#X obj 191 45 r live-mode;
#X obj 191 66 sel 2;
#X obj 218 91 t b;
#X msg 218 112 1;
#X msg 191 87 0;
#X obj 369 375 r clear-all;
#X msg 396 451 const 0;
#X obj 396 474 t a a;
#X obj 369 394 t b b;
#N canvas 4 50 966 728 clear-screen 0;
#N canvas 276 78 450 300 place 0;
#X obj 34 13 inlet;
#X obj 119 201 unpack 0 0;
#X obj 119 222 outlet;
#X obj 179 222 outlet;
#X obj 119 103 * 16;
#X obj 182 119 * 16;
#X obj 119 48 moses 8;
#X obj 182 99 - 8;
#X obj 119 124 + 2;
#X obj 182 140 + 2;
#X msg 119 167 \$1 17;
#X msg 182 166 \$1 37;
#X connect 0 0 6 0;
#X connect 1 0 2 0;
#X connect 1 1 3 0;
#X connect 4 0 8 0;
#X connect 5 0 9 0;
#X connect 6 0 4 0;
#X connect 6 1 7 0;
#X connect 7 0 5 0;
#X connect 8 0 10 0;
#X connect 9 0 11 0;
#X connect 10 0 1 0;
#X connect 11 0 1 0;
#X restore 382 411 pd place;
#X obj 382 558 s oscOut;
#X msg 231 489 /oled/gFlip 3;
#X obj 129 24 inlet;
#X obj 382 386 f;
#X obj 413 386 + 1;
#X obj 382 359 until;
#X obj 382 324 t a b;
#X msg 430 354 0;
#X msg 382 300 16;
#X msg 382 483 /oled/gFillArea 3 \$1 \$2 11 8 0;
#X obj 382 441 pack 0 0;
#X obj 327 244 t b b;
#X connect 0 0 11 0;
#X connect 0 1 11 1;
#X connect 2 0 1 0;
#X connect 3 0 12 0;
#X connect 4 0 5 0;
#X connect 4 0 0 0;
#X connect 5 0 4 1;
#X connect 6 0 4 0;
#X connect 7 0 6 0;
#X connect 7 1 8 0;
#X connect 8 0 4 1;
#X connect 9 0 7 0;
#X connect 10 0 1 0;
#X connect 11 0 10 0;
#X connect 12 0 2 0;
#X connect 12 1 9 0;
#X restore 348 428 pd clear-screen;
#X obj 278 58 r saveState;
#X obj 278 79 t b b;
#X msg 305 105 \; note-list write pattern-note.txt;
#X msg 278 144 \; vel-list write pattern-vel.txt;
#X obj 58 490 loadbang;
#X msg 97 536 \; note-list read pattern-note.txt;
#X msg 77 571 \; vel-list read pattern-vel.txt;
#X obj 58 511 t b b b;
#N canvas 4 50 966 728 fill-screen 0;
#N canvas 276 78 450 300 place 0;
#X obj 34 13 inlet;
#X obj 119 201 unpack 0 0;
#X obj 119 222 outlet;
#X obj 179 222 outlet;
#X obj 119 103 * 16;
#X obj 182 119 * 16;
#X obj 119 48 moses 8;
#X obj 182 99 - 8;
#X obj 119 124 + 2;
#X obj 182 140 + 2;
#X msg 119 167 \$1 17;
#X msg 182 166 \$1 37;
#X connect 0 0 6 0;
#X connect 1 0 2 0;
#X connect 1 1 3 0;
#X connect 4 0 8 0;
#X connect 5 0 9 0;
#X connect 6 0 4 0;
#X connect 6 1 7 0;
#X connect 7 0 5 0;
#X connect 8 0 10 0;
#X connect 9 0 11 0;
#X connect 10 0 1 0;
#X connect 11 0 1 0;
#X restore 382 411 pd place;
#X obj 382 618 s oscOut;
#X msg 231 489 /oled/gFlip 3;
#X obj 231 105 inlet;
#X obj 382 296 f;
#X obj 413 296 + 1;
#X obj 382 264 until;
#X obj 382 234 t a b;
#X msg 430 264 0;
#X msg 382 210 16;
#X msg 409 551 /oled/gFillArea 3 \$1 \$2 11 8 0;
#X obj 231 173 t b b;
#X obj 382 317 t a a, f 21;
#X obj 505 346 tabread note-list;
#X obj 382 522 t a a;
#X obj 382 481 pack 0 0 0, f 16;
#X msg 382 579 /oled/gPrintln 3 \$1 \$2 8 1 \$3;
#X obj 505 367 sel 0, f 12;
#X obj 505 388 t b;
#X obj 574 390 t a b;
#X obj 382 338 spigot 0;
#X msg 505 409 0;
#X msg 603 413 1;
#X connect 0 0 15 0;
#X connect 0 1 15 1;
#X connect 2 0 1 0;
#X connect 3 0 11 0;
#X connect 4 0 5 0;
#X connect 4 0 12 0;
#X connect 5 0 4 1;
#X connect 6 0 4 0;
#X connect 7 0 6 0;
#X connect 7 1 8 0;
#X connect 8 0 4 1;
#X connect 9 0 7 0;
#X connect 10 0 1 0;
#X connect 11 0 2 0;
#X connect 11 1 9 0;
#X connect 12 0 20 0;
#X connect 12 1 13 0;
#X connect 13 0 17 0;
#X connect 14 0 16 0;
#X connect 14 1 10 0;
#X connect 15 0 14 0;
#X connect 16 0 1 0;
#X connect 17 0 18 0;
#X connect 17 1 19 0;
#X connect 18 0 21 0;
#X connect 19 0 15 2;
#X connect 19 1 22 0;
#X connect 20 0 0 0;
#X connect 21 0 20 1;
#X connect 22 0 20 1;
#X restore 48 608 pd fill-screen;
#X connect 0 0 13 0;
#X connect 1 1 3 0;
#X connect 2 0 1 0;
#X connect 2 1 4 1;
#X connect 3 0 4 0;
#X connect 4 0 5 0;
#X connect 5 0 6 0;
#X connect 7 0 2 0;
#X connect 7 1 2 1;
#X connect 8 0 7 0;
#X connect 8 1 9 0;
#X connect 12 0 5 1;
#X connect 13 0 8 0;
#X connect 14 0 15 0;
#X connect 15 0 18 0;
#X connect 15 1 16 0;
#X connect 16 0 17 0;
#X connect 17 0 13 1;
#X connect 18 0 13 1;
#X connect 19 0 22 0;
#X connect 20 0 21 0;
#X connect 21 0 11 0;
#X connect 21 1 10 0;
#X connect 22 0 23 0;
#X connect 22 1 20 0;
#X connect 24 0 25 0;
#X connect 25 0 27 0;
#X connect 25 1 26 0;
#X connect 28 0 31 0;
#X connect 31 0 32 0;
#X connect 31 1 30 0;
#X connect 31 2 29 0;
#X restore 21 337 pd fill-the-text-note-list;
#X obj 358 135 r aux;
#X obj 399 136 r fs;
#X obj 358 243 t b;
#X obj 389 270 + 1;
#X obj 358 290 % 2;
#X obj 358 269 f 1;
#X obj 432 388 s led;
#X obj 405 326 sel 1;
#X msg 405 347 4;
#N canvas 147 241 1224 399 knobzz 0;
#X obj 148 4 r knob1;
#X obj 148 70 i;
#X obj 148 336 s x-count;
#X msg 200 167 1;
#X msg 167 166 0;
#X obj 167 221 s live-mode;
#X obj 148 91 moses 16;
#X obj 167 197 change -1;
#X obj 266 256 r master-count;
#X obj 148 306 spigot 0;
#X obj 266 304 spigot 0;
#X obj 208 119 t b b;
#X msg 304 177 1;
#X msg 271 176 0;
#X obj 271 207 change -1;
#X obj 193 275 ==;
#X obj 148 125 t a b b;
#X obj 807 145 i;
#X obj 807 123 - 24;
#X obj 807 103 * 24;
#X obj 807 166 - 12;
#X obj 807 206 s trans;
#X obj 461 135 * 126;
#X obj 461 156 + 1;
#X obj 461 177 i;
#X obj 461 198 s master-vel;
#X obj 461 85 r knob2;
#X obj 807 22 r knob3;
#N canvas 4 50 738 572 metro 0;
#X obj 356 1 inlet;
#X obj 356 85 * 300;
#X obj 356 107 + 20;
#X obj 356 129 i;
#X obj 356 65 f;
#X obj 277 162 metronome360 1;
#X obj 277 46 loadbang;
#X msg 277 88 1;
#X obj 277 224 s beat-clock;
#X obj 271 525 s oscOut;
#X obj 211 366 t b b a b;
#X msg 231 456 /oled/gInvertArea 3 94 55 28 9;
#X obj 401 107 r page-ready;
#X obj 401 128 sel 1;
#X obj 401 149 del 5;
#X obj 277 67 del 100;
#N canvas 352 198 762 480 print-BPM 0;
#X obj 73 8 inlet;
#X obj 26 8 inlet;
#X obj 59 123 pack 0 0;
#X obj 77 96 t b a;
#X obj 59 144 route 1 2 3 4, f 28;
#X obj 207 14 inlet re-print;
#X obj 57 351 t b a, f 9;
#X obj 57 397 list, f 8;
#X msg 57 372 69;
#X obj 57 418 route 69;
#X obj 57 439 outlet;
#X obj 207 35 t b;
#X obj 223 197 pack 0 s;
#X obj 65 232 pack 0 s;
#X obj 110 197 symbol BPM;
#X obj 139 263 pack 0 s;
#X obj 184 228 symbol LNK;
#X obj 268 162 symbol MID;
#X obj 250 94 bng 15 250 50 0 empty empty empty 17 7 0 10 -262144 -1
-1;
#X obj 268 141 t b;
#X obj 315 99 loadbang;
#X connect 0 0 2 0;
#X connect 1 0 3 0;
#X connect 2 0 4 0;
#X connect 3 0 2 0;
#X connect 3 1 2 1;
#X connect 4 0 13 0;
#X connect 4 1 12 0;
#X connect 4 2 15 0;
#X connect 4 3 13 0;
#X connect 5 0 11 0;
#X connect 6 0 8 0;
#X connect 6 1 7 1;
#X connect 7 0 9 0;
#X connect 8 0 7 0;
#X connect 9 0 10 0;
#X connect 11 0 8 0;
#X connect 12 0 6 0;
#X connect 13 0 6 0;
#X connect 14 0 13 1;
#X connect 15 0 6 0;
#X connect 16 0 15 1;
#X connect 17 0 12 1;
#X connect 18 0 19 0;
#X connect 19 0 14 0;
#X connect 19 0 16 0;
#X connect 19 0 17 0;
#X connect 20 0 19 0;
#X restore 317 192 pd print-BPM;
#X msg 251 429 /oled/gPrintln 3 66 56 8 1 \$2: \$1;
#X msg 272 401 /oled/gFillArea 3 60 55 68 10 0;
#X obj 437 239 s master-bpm;
#X connect 0 0 4 0;
#X connect 1 0 2 0;
#X connect 2 0 3 0;
#X connect 3 0 5 1;
#X connect 4 0 1 0;
#X connect 5 0 8 0;
#X connect 5 1 16 0;
#X connect 5 1 19 0;
#X connect 5 2 16 1;
#X connect 6 0 15 0;
#X connect 7 0 5 0;
#X connect 10 1 11 0;
#X connect 10 2 17 0;
#X connect 10 3 18 0;
#X connect 11 0 9 0;
#X connect 12 0 13 0;
#X connect 13 0 14 0;
#X connect 14 0 16 2;
#X connect 15 0 7 0;
#X connect 16 0 10 0;
#X connect 17 0 9 0;
#X connect 18 0 9 0;
#X restore 929 189 pd metro;
#X obj 929 157 r knob4;
#X obj 426 366 s oscOut;
#X msg 452 345 /oled/gFillArea 3 0 53 66 11 0;
#X msg 426 323 /oled/gPrintln 3 0 56 8 1 Vel: \$1;
#X obj 426 220 t a b b b, f 16;
#X msg 519 251 stop;
#X obj 491 279 del 1000;
#X obj 491 300 s return-line-5;
#X obj 720 388 s oscOut;
#X msg 746 367 /oled/gFillArea 3 0 53 66 11 0;
#X obj 720 242 t a b b b, f 16;
#X msg 813 273 stop;
#X obj 785 301 del 1000;
#X obj 785 322 s return-line-5;
#X msg 720 345 /oled/gPrintln 3 0 56 8 1 Trans: \$1;
#X obj 208 98 route 16 17, f 20;
#X msg 289 124 2;
#X obj 148 48 * 17;
#X obj 289 145 t f b;
#X msg 336 180 0;
#X obj 807 42 m_speedlimit 45;
#X obj 462 108 m_speedlimit 45;
#X obj 148 27 m_speedlimit 60;
#X connect 0 0 51 0;
#X connect 1 0 6 0;
#X connect 3 0 7 0;
#X connect 4 0 7 0;
#X connect 6 0 16 0;
#X connect 6 1 44 0;
#X connect 7 0 5 0;
#X connect 8 0 10 0;
#X connect 9 0 2 0;
#X connect 10 0 2 0;
#X connect 11 0 3 0;
#X connect 11 1 12 0;
#X connect 12 0 14 0;
#X connect 13 0 14 0;
#X connect 14 0 15 0;
#X connect 14 0 10 1;
#X connect 15 0 9 1;
#X connect 16 0 9 0;
#X connect 16 1 4 0;
#X connect 16 2 13 0;
#X connect 17 0 20 0;
#X connect 18 0 17 0;
#X connect 19 0 18 0;
#X connect 20 0 21 0;
#X connect 20 0 39 0;
#X connect 22 0 23 0;
#X connect 23 0 24 0;
#X connect 24 0 25 0;
#X connect 24 0 33 0;
#X connect 26 0 50 0;
#X connect 27 0 49 0;
#X connect 29 0 28 0;
#X connect 31 0 30 0;
#X connect 32 0 30 0;
#X connect 33 0 32 0;
#X connect 33 1 31 0;
#X connect 33 2 35 0;
#X connect 33 3 34 0;
#X connect 34 0 35 0;
#X connect 35 0 36 0;
#X connect 38 0 37 0;
#X connect 39 0 43 0;
#X connect 39 1 38 0;
#X connect 39 2 41 0;
#X connect 39 3 40 0;
#X connect 40 0 41 0;
#X connect 41 0 42 0;
#X connect 43 0 37 0;
#X connect 44 0 11 0;
#X connect 44 1 45 0;
#X connect 45 0 47 0;
#X connect 46 0 1 0;
#X connect 47 0 7 0;
#X connect 47 1 48 0;
#X connect 48 0 14 0;
#X connect 49 0 19 0;
#X connect 50 0 22 0;
#X connect 51 0 46 0;
#X restore 18 27 pd knobzz;
#N canvas 4 50 450 492 hold-note 0;
#X obj 54 12 inlet;
#X obj 265 184 outlet;
#X obj 54 61 unpack;
#X obj 87 87 sel 0;
#X msg 153 170 stop;
#X obj 133 196 del 500;
#X obj 54 33 t a a, f 37;
#X msg 265 95 69;
#X obj 265 138 route 69;
#X obj 265 117 list append;
#X obj 61 190 t b b;
#X msg 87 249 1;
#X msg 133 227 0;
#X obj 87 289 sel 0 1;
#X obj 325 186 outlet;
#X obj 328 72 stripnote;
#X obj 328 93 pack 0 0;
#X obj 114 109 t b b b b;
#X msg 165 133 1;
#X obj 61 212 spigot 0;
#X connect 0 0 6 0;
#X connect 2 1 3 0;
#X connect 3 0 10 0;
#X connect 3 1 17 0;
#X connect 4 0 5 0;
#X connect 5 0 12 0;
#X connect 6 0 2 0;
#X connect 6 1 15 0;
#X connect 7 0 9 0;
#X connect 8 0 1 0;
#X connect 9 0 8 0;
#X connect 10 0 19 0;
#X connect 10 1 4 0;
#X connect 11 0 13 0;
#X connect 12 0 13 0;
#X connect 12 0 19 1;
#X connect 13 0 14 0;
#X connect 13 1 7 0;
#X connect 15 0 16 0;
#X connect 15 1 16 1;
#X connect 16 0 9 1;
#X connect 17 1 5 0;
#X connect 17 2 4 0;
#X connect 17 3 18 0;
#X connect 18 0 19 1;
#X connect 19 0 11 0;
#X restore 358 198 pd hold-note;
#X msg 358 176 1 \$1;
#X obj 427 224 s clear-all;
#N canvas 4 50 450 300 note-vel-conversion 0;
#X obj 75 13 inlet;
#X obj 75 34 unpack;
#X obj 75 55 swap;
#X obj 75 106 route 0, f 24;
#X obj 75 76 pack;
#X msg 75 127 \$1 0;
#X obj 216 135 unpack;
#X obj 216 156 swap, f 6;
#X obj 216 207 pack 0 0;
#X obj 288 103 r knob2;
#X obj 288 124 * 126;
#X obj 288 145 + 1;
#X obj 288 166 i;
#X obj 216 228 outlet;
#X connect 0 0 1 0;
#X connect 1 0 2 0;
#X connect 1 1 2 1;
#X connect 2 0 4 0;
#X connect 2 1 4 1;
#X connect 3 0 5 0;
#X connect 3 1 6 0;
#X connect 4 0 3 0;
#X connect 5 0 13 0;
#X connect 6 0 7 0;
#X connect 6 1 7 1;
#X connect 7 0 8 0;
#X connect 8 0 13 0;
#X connect 9 0 10 0;
#X connect 10 0 11 0;
#X connect 11 0 12 0;
#X connect 12 0 8 1;
#X restore 47 147 pd note-vel-conversion;
#X obj 358 395 s on-off;
#X obj 20 381 r on-off;
#X obj 18 71 r on-off;
#X obj 24 493 *~ 0.95;
#X text 84 27 Knob Management;
#X text 140 109 Play the notes;
#X text 79 216 THe 4-voice synth;
#X text 82 306 the arrays and note management;
#X text 73 381 the printing to the screen;
#X text 81 489 Sound out;
#X text 327 17 Library Management;
#X text 436 136 Turn on the sequencer;
#X text 442 198 Hold for clear;
#N canvas 645 268 450 300 make-the-note 0;
#X obj 52 15 inlet;
#X obj 52 67 makenote 60 100 100;
#X obj 52 36 unpack 0 0;
#X obj 52 88 pack 0 0, f 20;
#X obj 206 36 r master-bpm;
#X obj 206 83 /;
#X obj 52 109 outlet;
#X msg 206 62 30000 \$1;
#X connect 0 0 2 0;
#X connect 1 0 3 0;
#X connect 1 1 3 1;
#X connect 2 0 1 0;
#X connect 2 1 1 1;
#X connect 3 0 6 0;
#X connect 4 0 7 0;
#X connect 5 0 1 2;
#X connect 7 0 5 0;
#X restore 18 186 pd make-the-note;
#X connect 2 0 28 0;
#X connect 4 0 6 0;
#X connect 5 0 10 0;
#X connect 8 0 38 0;
#X connect 9 0 24 0;
#X connect 11 0 22 0;
#X connect 12 0 22 0;
#X connect 13 0 16 0;
#X connect 14 0 16 1;
#X connect 15 0 18 0;
#X connect 15 0 25 0;
#X connect 16 0 14 0;
#X connect 16 0 15 0;
#X connect 18 0 19 0;
#X connect 18 1 17 0;
#X connect 19 0 17 0;
#X connect 21 0 13 0;
#X connect 21 1 23 0;
#X connect 22 0 21 0;
#X connect 24 0 4 0;
#X connect 26 0 7 0;
#X connect 27 0 8 0;
#X connect 28 0 0 0;
#X connect 28 0 1 0;
#X connect 38 0 4 0;
