#N canvas 657 256 644 694 10;
#X declare -path cg-pd-library-local/sampling;
#X declare -path cg-pd-library-local/sequencer;
#X declare -path cg-pd-library-local/externals;
#X declare -path cg-pd-library-local/metronome;
#X obj 30 596 throw~ outL;
#X obj 49 574 throw~ outR;
#X obj 346 356 pack 0 0 0, f 11;
#N canvas 4 50 1912 998 knobs 0;
#X obj 782 218 t a a, f 13;
#X obj 335 241 t a a;
#X obj 857 265 i;
#X obj 55 85 r knob1;
#X obj 107 472 s screenLine1;
#X obj 29 64 r seq3-k1;
#X obj 107 433 cg-knob-mute-sc;
#X obj 194 404 r cgSc-1-mute-print;
#X obj 857 376 cg-knob-mute-sc;
#X obj 944 347 r cgSc-1-mute-print;
#X obj 55 203 t a a, f 10;
#X obj 117 283 * 100;
#X obj 117 304 i;
#X obj 117 325 change -1;
#X obj 857 244 * 100;
#X obj 857 286 change -1;
#X obj 782 239 pow 2;
#X obj 55 224 pow 2;
#X obj 55 514 s phz-depth-1;
#X obj 782 438 s phz-depth-2;
#X obj 103 716 s release-time;
#X obj 362 269 s phz-rate-1;
#X obj 102 668 loadbang;
#X obj 1115 78 r seq3-k4;
#X obj 1130 98 r knob4;
#X obj 335 126 pow 4;
#X obj 1127 123 pow 4;
#X obj 335 325 i;
#X obj 335 510 cg-knob-mute-sc;
#X obj 422 481 r cgSc-1-mute-print;
#X obj 322 350 * 0.001;
#X obj 335 304 * 1000;
#X obj 1115 232 t a a;
#X obj 1115 316 i;
#X obj 1115 501 cg-knob-mute-sc;
#X obj 1202 472 r cgSc-1-mute-print;
#X obj 1115 338 * 0.001;
#X obj 1115 295 * 1000;
#X obj 1142 260 s phz-rate-2;
#X obj 1115 569 s screenLine4;
#X msg 103 374 1: 1-Depth: \$1%;
#X obj 323 39 r seq3-k2;
#X obj 337 59 r knob2;
#X obj 335 578 s screenLine2;
#X msg 335 451 2: 1-Rate: x\$1;
#X obj 764 101 r seq3-k3;
#X obj 782 121 r knob3;
#X obj 857 409 s screenLine3;
#X msg 857 323 3: 2-Depth: \$1%;
#X msg 1115 442 4: 2-Rate: x\$1;
#X msg 105 689 200;
#X obj 55 269 * 1;
#X obj 781 268 * 1;
#X obj 1115 181 cg-knob-scale 0 1 0.0001;
#X obj 335 205 cg-knob-scale 0 1 0.0001;
#X connect 0 0 16 0;
#X connect 0 1 14 0;
#X connect 1 0 31 0;
#X connect 1 1 21 0;
#X connect 2 0 15 0;
#X connect 3 0 10 0;
#X connect 5 0 10 0;
#X connect 6 0 4 0;
#X connect 7 0 6 1;
#X connect 8 0 47 0;
#X connect 9 0 8 1;
#X connect 10 0 17 0;
#X connect 10 1 11 0;
#X connect 11 0 12 0;
#X connect 12 0 13 0;
#X connect 13 0 40 0;
#X connect 14 0 2 0;
#X connect 15 0 48 0;
#X connect 16 0 52 0;
#X connect 17 0 51 0;
#X connect 22 0 50 0;
#X connect 23 0 26 0;
#X connect 24 0 26 0;
#X connect 25 0 54 0;
#X connect 26 0 53 0;
#X connect 27 0 30 0;
#X connect 28 0 43 0;
#X connect 29 0 28 1;
#X connect 30 0 44 0;
#X connect 31 0 27 0;
#X connect 32 0 37 0;
#X connect 32 1 38 0;
#X connect 33 0 36 0;
#X connect 34 0 39 0;
#X connect 35 0 34 1;
#X connect 36 0 49 0;
#X connect 37 0 33 0;
#X connect 40 0 6 0;
#X connect 41 0 25 0;
#X connect 42 0 25 0;
#X connect 44 0 28 0;
#X connect 45 0 0 0;
#X connect 46 0 0 0;
#X connect 48 0 8 0;
#X connect 49 0 34 0;
#X connect 50 0 20 0;
#X connect 51 0 18 0;
#X connect 52 0 19 0;
#X connect 53 0 32 0;
#X connect 54 0 1 0;
#X restore 30 126 pd knobs;
#X obj 346 336 - 1;
#X obj 31 538 catch~ voice-out;
#N canvas 4 50 901 452 load 0;
#X obj 67 34 loadbang;
#X obj 67 55 t b b b b b b;
#X obj 148 99 s load-text-files;
#X obj 133 137 s recall-params;
#X obj 82 280 s seq3-init;
#X obj 97 217 s phasor-init;
#X obj 113 170 s load-waveforms;
#X obj 67 336 outlet;
#X connect 0 0 1 0;
#X connect 1 0 7 0;
#X connect 1 1 4 0;
#X connect 1 2 5 0;
#X connect 1 3 6 0;
#X connect 1 4 3 0;
#X connect 1 5 2 0;
#X restore 32 47 pd load;
#X obj 29 282 s notes-post-sc;
#X text 151 540 Sound out;
#X text 81 47 init sequence;
#X text 174 96 critter library of abstractions;
#X obj 346 256 r notes-post-sc;
#N canvas 8 50 1726 759 shortcuts 0;
#X obj 97 1 r recall-params;
#X obj 22 37 r cgSc-1-6;
#X obj 22 58 sel 0;
#X obj 49 80 t b;
#X obj 76 495 s cgSc-1-6label;
#X obj 375 67 sel 0;
#X obj 402 89 t b;
#X obj 661 68 sel 0;
#X obj 688 90 t b;
#X obj 751 64 sel 0;
#X obj 778 86 t b;
#X obj 97 82 text get waves-txt;
#X obj 97 52 f 0;
#X obj 375 46 r cgSc-1-7;
#X obj 842 662 s cgSc-1-8label;
#X obj 661 47 r cgSc-1-8;
#X obj 948 657 s cgSc-1-9label;
#X obj 751 43 r cgSc-1-9;
#X obj 49 298 t f f;
#X msg 76 349 Sine;
#X msg 116 349 Sqr;
#X msg 152 349 Saw;
#X msg 190 351 Tri;
#X obj 821 446 s transpose;
#X obj 802 320 + 1;
#X obj 688 294 t b a, f 22;
#X msg 688 115 -1;
#X msg 778 106 1;
#X obj 802 341 clip -4 4;
#X obj 688 318 f 0, f 11;
#X msg 880 522 +\$1;
#X obj 880 548 symbol;
#X msg 948 628 OctUp: \$1;
#X msg 842 627 OctDwn: \$1;
#X obj 842 588 t a a;
#X obj 802 475 moses 0;
#X obj 841 496 moses 1;
#X obj 757 192 r recall-params;
#X obj 757 243 text get waves-txt;
#X obj 757 213 f 2;
#X obj 97 22 t b b;
#X obj 236 55 f 1;
#X obj 83 202 + 1;
#X obj 121 245 t b;
#X obj 121 266 f 1;
#X obj 49 203 f 1;
#X obj 76 473 list prepend Wav1:;
#X obj 76 328 sel 1 2 3 4, f 26;
#X obj 402 305 t f f;
#X obj 436 219 + 1;
#X obj 474 262 t b;
#X obj 474 283 f 1;
#X obj 402 220 f 1;
#X obj 429 500 list prepend Wav2:;
#X obj 429 527 s cgSc-1-7label;
#X obj 236 81 text get waves-txt;
#X obj 821 422 * 12;
#X obj 802 362 t a a a;
#X obj 841 393 s trans-save;
#X obj 49 537 s wave-sel-1;
#X obj 402 562 s wave-sel-2;
#X obj 229 361 sel 5 6 7 8, f 26;
#X msg 229 382 Sin1;
#X msg 269 382 Sin2;
#X msg 305 382 Sin3;
#X msg 343 384 Sin4;
#X msg 429 350 Sine;
#X msg 469 350 Sqr;
#X msg 505 350 Saw;
#X msg 543 352 Tri;
#X obj 429 329 sel 1 2 3 4, f 26;
#X obj 582 362 sel 5 6 7 8, f 26;
#X msg 582 383 Sin1;
#X msg 622 383 Sin2;
#X msg 658 383 Sin3;
#X msg 696 385 Sin4;
#X obj 82 222 moses 9;
#X obj 435 239 moses 9;
#X obj 1219 192 sel 0;
#X obj 1219 163 r cgSc-1-10;
#X obj 1246 246 t b;
#X obj 1280 275 + 1;
#X obj 1318 318 t b;
#X obj 1246 276 f 0;
#X obj 1318 339 f 0;
#X obj 1273 401 s vel-scale-save;
#X obj 1326 169 r recall-params;
#X obj 1326 220 text get waves-txt;
#X obj 1326 190 f 3;
#X obj 1402 626 s cgSc-1-10label;
#N canvas 4 50 891 764 save-shortcuts 0;
#X obj 169 192 r saveState;
#X msg 141 166 read waves.txt;
#X msg 169 434 write waves.txt;
#X obj 142 475 text define waves-txt;
#X obj 141 141 r load-text-files;
#X obj 359 469 text set waves-txt;
#X obj 445 319 f;
#X obj 315 317 f;
#X obj 359 428 unpack 0 0;
#X obj 573 319 f;
#X obj 573 340 pack 0 0;
#X obj 445 340 pack 0 1;
#X obj 315 338 pack 0 2;
#X obj 330 289 r trans-save;
#X obj 460 294 r wave-sel-2;
#X obj 589 294 r wave-sel-1;
#X obj 185 220 t b b b b b, f 38;
#X obj 568 248 f;
#X obj 568 269 pack 0 3;
#X obj 584 223 r vel-scale-save;
#X connect 0 0 16 0;
#X connect 1 0 3 0;
#X connect 2 0 3 0;
#X connect 4 0 1 0;
#X connect 6 0 11 0;
#X connect 7 0 12 0;
#X connect 8 0 5 0;
#X connect 8 1 5 1;
#X connect 9 0 10 0;
#X connect 10 0 8 0;
#X connect 11 0 8 0;
#X connect 12 0 8 0;
#X connect 13 0 7 1;
#X connect 14 0 6 1;
#X connect 15 0 9 1;
#X connect 16 0 2 0;
#X connect 16 1 7 0;
#X connect 16 2 6 0;
#X connect 16 3 9 0;
#X connect 16 4 17 0;
#X connect 17 0 18 0;
#X connect 18 0 8 0;
#X connect 19 0 17 1;
#X restore 1316 85 pd save-shortcuts;
#X obj 1246 437 sel 0 1 2 3 4 5, f 50;
#X obj 1246 458 f 0;
#X obj 1246 603 s glob-attack;
#X obj 1297 458 f 50;
#X obj 1345 458 f 100;
#X obj 1394 458 f 250;
#X obj 1446 458 f 500;
#X obj 1495 458 f 1000;
#X obj 1246 537 t f, f 9;
#X obj 1246 367 t f f;
#X msg 1402 597 Att: \$1;
#X obj 1402 559 r glob-attack;
#X obj 1279 295 moses 6;
#X connect 0 0 40 0;
#X connect 1 0 2 0;
#X connect 2 1 3 0;
#X connect 3 0 45 0;
#X connect 5 1 6 0;
#X connect 6 0 52 0;
#X connect 7 1 8 0;
#X connect 8 0 26 0;
#X connect 9 1 10 0;
#X connect 10 0 27 0;
#X connect 11 0 45 0;
#X connect 12 0 11 0;
#X connect 13 0 5 0;
#X connect 15 0 7 0;
#X connect 17 0 9 0;
#X connect 18 0 59 0;
#X connect 18 1 47 0;
#X connect 19 0 46 0;
#X connect 20 0 46 0;
#X connect 21 0 46 0;
#X connect 22 0 46 0;
#X connect 24 0 28 0;
#X connect 25 0 29 0;
#X connect 25 1 24 1;
#X connect 26 0 25 0;
#X connect 27 0 25 0;
#X connect 28 0 29 1;
#X connect 28 0 57 0;
#X connect 29 0 24 0;
#X connect 30 0 31 0;
#X connect 31 0 34 0;
#X connect 32 0 16 0;
#X connect 33 0 14 0;
#X connect 34 0 33 0;
#X connect 34 1 32 0;
#X connect 35 0 34 0;
#X connect 35 1 36 0;
#X connect 36 0 34 0;
#X connect 36 1 30 0;
#X connect 37 0 39 0;
#X connect 38 0 25 0;
#X connect 39 0 38 0;
#X connect 40 0 12 0;
#X connect 40 1 41 0;
#X connect 41 0 55 0;
#X connect 42 0 76 0;
#X connect 43 0 44 0;
#X connect 44 0 45 1;
#X connect 45 0 42 0;
#X connect 45 0 18 0;
#X connect 46 0 4 0;
#X connect 47 0 19 0;
#X connect 47 1 20 0;
#X connect 47 2 21 0;
#X connect 47 3 22 0;
#X connect 47 4 61 0;
#X connect 48 0 60 0;
#X connect 48 1 70 0;
#X connect 49 0 77 0;
#X connect 50 0 51 0;
#X connect 51 0 52 1;
#X connect 52 0 49 0;
#X connect 52 0 48 0;
#X connect 53 0 54 0;
#X connect 55 0 52 0;
#X connect 56 0 23 0;
#X connect 57 0 35 0;
#X connect 57 1 56 0;
#X connect 57 2 58 0;
#X connect 61 0 62 0;
#X connect 61 1 63 0;
#X connect 61 2 64 0;
#X connect 61 3 65 0;
#X connect 62 0 46 0;
#X connect 63 0 46 0;
#X connect 64 0 46 0;
#X connect 65 0 46 0;
#X connect 66 0 53 0;
#X connect 67 0 53 0;
#X connect 68 0 53 0;
#X connect 69 0 53 0;
#X connect 70 0 66 0;
#X connect 70 1 67 0;
#X connect 70 2 68 0;
#X connect 70 3 69 0;
#X connect 70 4 71 0;
#X connect 71 0 72 0;
#X connect 71 1 73 0;
#X connect 71 2 74 0;
#X connect 71 3 75 0;
#X connect 72 0 53 0;
#X connect 73 0 53 0;
#X connect 74 0 53 0;
#X connect 75 0 53 0;
#X connect 76 0 45 1;
#X connect 76 1 43 0;
#X connect 77 0 52 1;
#X connect 77 1 50 0;
#X connect 78 1 80 0;
#X connect 79 0 78 0;
#X connect 80 0 83 0;
#X connect 81 0 103 0;
#X connect 82 0 84 0;
#X connect 83 0 81 0;
#X connect 83 0 100 0;
#X connect 84 0 83 1;
#X connect 86 0 88 0;
#X connect 87 0 83 0;
#X connect 88 0 87 0;
#X connect 91 0 92 0;
#X connect 91 1 94 0;
#X connect 91 2 95 0;
#X connect 91 3 96 0;
#X connect 91 4 97 0;
#X connect 91 5 98 0;
#X connect 92 0 99 0;
#X connect 94 0 99 0;
#X connect 95 0 99 0;
#X connect 96 0 99 0;
#X connect 97 0 99 0;
#X connect 98 0 99 0;
#X connect 99 0 93 0;
#X connect 100 0 91 0;
#X connect 100 1 85 0;
#X connect 101 0 89 0;
#X connect 102 0 101 0;
#X connect 103 0 83 1;
#X connect 103 1 82 0;
#X restore 29 166 pd shortcuts;
#X obj 346 401 clone voice 4;
#X obj 346 315 poly 4 1, f 11;
#N canvas 13 50 450 300 cg-pd-library-local 0;
#X obj 502 35 r cgSc-1-slots;
#X obj 60 68 declare -path cg-pd-library-local/sampling;
#X obj 60 98 declare -path cg-pd-library-local/sequencer;
#X obj 58 130 declare -path cg-pd-library-local/externals;
#X obj 59 165 declare -path cg-pd-library-local/metronome;
#X restore 28 96 pd cg-pd-library-local;
#N canvas 4 50 1117 852 standard-seq3-pack 0;
#X obj 411 159 r aux;
#X obj 510 149 r \$0-reprint-port;
#X obj 510 523 r beat-clock;
#N canvas 4 50 1495 708 the-knobs 0;
#X obj 280 211 r knob1;
#X obj 414 205 r knob2;
#X obj 532 208 r knob3;
#X obj 673 208 r knob4;
#X obj 503 439 outlet;
#X obj 221 295 seq-format-event knob1;
#X obj 401 293 seq-format-event knob2;
#X obj 566 292 seq-format-event knob3;
#X obj 747 289 seq-format-event knob4;
#X connect 0 0 5 0;
#X connect 1 0 6 0;
#X connect 2 0 7 0;
#X connect 3 0 8 0;
#X connect 5 0 4 0;
#X connect 6 0 4 0;
#X connect 7 0 4 0;
#X connect 8 0 4 0;
#X restore 429 294 pd the-knobs;
#X obj 411 248 list prepend notes;
#X obj 411 269 list trim;
#N canvas 10 50 1276 866 auto-knobs-notes-through 0;
#X obj 438 185 inlet;
#X obj 796 547 outlet;
#X obj 562 398 s seq3-k3;
#X obj 537 440 s seq3-k2;
#X obj 435 470 s seq3-k1;
#X obj 663 357 s seq3-k4;
#X obj 435 295 route knob1 knob2 knob3 knob4 notes, f 64;
#X obj 796 384 t a a;
#X obj 823 433 spigot 0;
#X obj 823 484 noteout, f 11;
#X obj 823 454 unpack;
#X obj 886 456 r midiOutCh;
#X obj 868 365 r seq3-midi-out?;
#X connect 0 0 6 0;
#X connect 6 0 4 0;
#X connect 6 1 3 0;
#X connect 6 2 2 0;
#X connect 6 3 5 0;
#X connect 6 4 7 0;
#X connect 7 0 1 0;
#X connect 7 1 8 0;
#X connect 8 0 10 0;
#X connect 10 0 9 0;
#X connect 10 1 9 1;
#X connect 11 0 9 2;
#X connect 12 0 8 1;
#X restore 411 598 pd auto-knobs-notes-through;
#N canvas 19 51 625 625 metro-here 0;
#X obj 369 147 r seq3-1-actions, f 19;
#X obj 312 345 f;
#X msg 407 250 0;
#X obj 439 250 t b b;
#X msg 445 280 1;
#X obj 312 292 del 1;
#X obj 54 303 s beat-clock;
#X obj 176 83 loadbang;
#X msg 53 121 1;
#X obj 203 353 list, f 7;
#X obj 203 375 route 69;
#X obj 203 281 t b a;
#X msg 203 323 69;
#X msg 176 105 120;
#X obj 177 221 pack, f 10;
#X obj 212 189 t b a;
#X obj 54 151 metronome360 0, f 18;
#X obj 319 117 s seq3-1-quan;
#X obj 400 338 f;
#X obj 203 397 spigot 1;
#X obj 312 367 spigot 1, f 14;
#X obj 296 472 r cgSc-1-slots;
#X obj 296 498 + 1;
#X obj 203 552 print-line5 1, f 16;
#X obj 319 88 r metro-state;
#X obj 486 346 loadbang;
#X obj 296 519 f;
#X obj 486 388 t b b;
#X obj 312 428 f;
#X obj 486 367 del 1;
#X obj 407 179 r cgSc-1-mute-print;
#X obj 407 202 sel 1;
#X connect 0 0 1 0;
#X connect 1 0 20 0;
#X connect 2 0 18 0;
#X connect 3 0 5 0;
#X connect 3 1 4 0;
#X connect 4 0 18 0;
#X connect 5 0 1 0;
#X connect 5 0 12 0;
#X connect 7 0 13 0;
#X connect 7 0 8 0;
#X connect 8 0 16 0;
#X connect 9 0 10 0;
#X connect 10 0 19 0;
#X connect 11 0 12 0;
#X connect 11 1 9 1;
#X connect 12 0 9 0;
#X connect 13 0 16 1;
#X connect 14 0 11 0;
#X connect 15 0 14 0;
#X connect 15 1 14 1;
#X connect 16 0 6 0;
#X connect 16 1 15 0;
#X connect 16 2 14 0;
#X connect 18 0 19 1;
#X connect 18 0 20 1;
#X connect 19 0 23 0;
#X connect 20 0 28 0;
#X connect 21 0 22 0;
#X connect 22 0 26 0;
#X connect 24 0 17 0;
#X connect 25 0 29 0;
#X connect 26 0 23 2;
#X connect 27 0 28 0;
#X connect 27 1 26 0;
#X connect 28 0 23 1;
#X connect 29 0 27 0;
#X connect 30 0 31 0;
#X connect 31 0 2 0;
#X connect 31 1 3 0;
#X restore 709 206 pd metro-here;
#N canvas 787 330 860 595 slot-saver-1 0;
#X obj 167 38 r cgSc-1-slots;
#X obj 30 68 loadbang;
#X msg 30 140 0;
#X obj 30 161 tabread \$0-slot;
#X obj 199 225 array define \$0-slot;
#X obj 30 110 t b b;
#X msg 199 138 read slot.txt;
#X msg 243 186 write slot.txt;
#X obj 243 160 r saveState;
#X obj 167 58 t a b;
#X msg 220 84 0;
#X obj 167 107 tabwrite \$0-slot;
#X obj 30 185 s cgSc-1-slots;
#X connect 0 0 9 0;
#X connect 1 0 5 0;
#X connect 2 0 3 0;
#X connect 3 0 12 0;
#X connect 5 0 2 0;
#X connect 5 1 6 0;
#X connect 6 0 4 0;
#X connect 7 0 4 0;
#X connect 8 0 7 0;
#X connect 9 0 11 0;
#X connect 9 1 10 0;
#X connect 10 0 11 1;
#X restore 709 170 pd slot-saver-1;
#X obj 724 311 r seq3-1-led;
#X obj 724 332 s led;
#X obj 576 369 list prepend slot;
#X obj 576 390 list trim;
#X msg 493 371 init;
#X obj 493 347 r seq3-init;
#X obj 460 316 cg-standard-sc-seq3-control 1;
#X obj 576 347 r cgSc-1-slots;
#X obj 722 279 cg-standard-sc-seq3-print 1 1;
#X obj 317 429 r saveState;
#X msg 317 450 save;
#X obj 411 189 cg-shortcut 1, f 17;
#X obj 291 180 spigot 0;
#X obj 336 123 r seq3-midi-in?;
#X obj 411 619 outlet;
#N canvas 4 50 450 300 midi-notes-in 0;
#X obj 63 195 outlet;
#X obj 71 93 notein;
#N canvas 6 50 1280 956 chsel 0;
#X obj 187 417 pack;
#X obj 207 372 f;
#X obj 168 372 f;
#X obj 237 123 f;
#X obj 152 87 t b f;
#X obj 237 145 sel 1;
#X obj 237 325 t b b;
#X obj 342 33 r midiCh;
#X obj 117 35 inlet;
#X obj 199 37 inlet;
#X obj 274 39 inlet;
#X obj 186 444 outlet;
#X obj 325 173 spigot;
#X obj 364 129 == 0;
#X obj 302 246 bng 15 250 50 0 empty empty empty 17 7 0 10 -262144
-1 -1;
#X connect 0 0 11 0;
#X connect 1 0 0 1;
#X connect 2 0 0 0;
#X connect 3 0 5 0;
#X connect 4 0 3 0;
#X connect 4 1 2 1;
#X connect 5 0 6 0;
#X connect 5 1 12 0;
#X connect 6 0 2 0;
#X connect 6 1 1 0;
#X connect 7 0 5 1;
#X connect 7 0 13 0;
#X connect 8 0 4 0;
#X connect 9 0 1 1;
#X connect 10 0 3 1;
#X connect 12 0 14 0;
#X connect 13 0 12 1;
#X connect 14 0 6 0;
#X restore 64 165 pd chsel;
#X connect 1 0 2 0;
#X connect 1 1 2 1;
#X connect 1 2 2 2;
#X connect 2 0 0 0;
#X restore 291 89 pd midi-notes-in;
#X obj 411 548 seq3 1 0 ../../sequences 1, f 17;
#X connect 0 0 20 0;
#X connect 1 0 20 1;
#X connect 2 0 25 2;
#X connect 3 0 25 0;
#X connect 4 0 5 0;
#X connect 5 0 25 0;
#X connect 6 0 23 0;
#X connect 9 0 10 0;
#X connect 11 0 12 0;
#X connect 12 0 25 1;
#X connect 13 0 25 1;
#X connect 14 0 13 0;
#X connect 15 0 25 1;
#X connect 16 0 11 0;
#X connect 18 0 19 0;
#X connect 19 0 25 1;
#X connect 20 0 4 0;
#X connect 21 0 4 0;
#X connect 22 0 21 1;
#X connect 24 0 21 0;
#X connect 25 0 6 0;
#X restore 29 232 pd standard-seq3-pack;
#X obj 32 70 cg-seq3-midi-options 1 1 1 1;
#X connect 2 0 13 0;
#X connect 4 0 2 0;
#X connect 5 0 0 0;
#X connect 5 0 1 0;
#X connect 6 0 17 0;
#X connect 11 0 14 0;
#X connect 14 0 4 0;
#X connect 14 1 2 1;
#X connect 14 2 2 2;
#X connect 16 0 7 0;
