#N canvas 353 50 1563 994 10;
#X text 361 43 note messages;
#X obj 115 870 *~, f 148;
#X text 382 98 selects note off messages so we can set decay time later
;
#X obj 313 44 inlet;
#X text 21 533 change waveform;
#X text 35 10 synth voice with waveform change;
#X obj 115 946 throw~ voice-out;
#X obj 793 709 pow~ 2;
#X obj 793 687 vline~;
#X obj 117 446 r~ \$0-midi;
#X obj 271 354 s~ \$0-midi;
#X obj 115 922 hip~ 5;
#X msg 688 366 stop;
#X obj 651 449 f 0;
#X obj 857 376 f 1;
#X obj 840 456 sqrt;
#X obj 313 98 unpack;
#X obj 271 275 lop~ 200;
#X obj 651 167 sel 0, f 32;
#X obj 962 338 s \$0-phase-sync;
#X obj 116 484 mtof~;
#X obj 1138 386 r release-time;
#X obj 1028 636 * 0.8;
#X obj 1001 594 t a a;
#X obj 714 406 r release-time;
#X obj 1111 445 t b a, f 8;
#X obj 1111 466 pack 0 0;
#X obj 651 519 switch~;
#X obj 331 138 r transpose;
#X obj 313 202 +, f 8;
#X obj 331 168 t b a;
#X obj 311 450 r phz-depth-1;
#X text 803 73 feedback;
#X text 688 67 shift;
#X text 557 67 depth;
#X obj 657 691 r \$0-phase-sync;
#X obj 529 729 r phz-depth-2;
#X obj 529 771 *~;
#X obj 311 492 *~;
#X msg 657 712 sync 0;
#X obj 497 498 r \$0-phase-sync;
#X msg 497 519 sync 0;
#X msg 442 466 init;
#X obj 254 416 r phz-rate-1;
#X obj 489 691 r phz-rate-2;
#X obj 442 444 r phasor-init;
#X obj 857 282 del 3;
#X msg 891 249 stop;
#X obj 840 204 t a b b b;
#X obj 857 307 t b b, f 18;
#X obj 651 200 t b b b b, f 19;
#X obj 311 471 lop~ 23;
#X obj 529 750 lop~ 23;
#X obj 1001 775 pow~ 2;
#X obj 1001 753 vline~;
#X obj 115 891 *~ 0.9;
#X obj 116 811 +~;
#X obj 240 558 *~;
#X obj 456 763 *~;
#X obj 1111 418 f 500;
#X obj 651 428 del 500, f 11;
#X obj 116 714 *~ 0.7;
#X obj 386 832 *~ 0.7;
#X obj 1111 487 t a a;
#X obj 840 435 / 127;
#X obj 117 542 cg-wave-bank;
#X obj 386 660 cg-wave-bank;
#X obj 158 475 r wave-sel-1;
#X msg 158 496 wave-sel \$1;
#X msg 420 595 wave-sel \$1;
#X obj 420 574 r wave-sel-2;
#X obj 840 479 t a a;
#X obj 840 500 * 0.5;
#X obj 840 521 + 0.5;
#X obj 845 574 * 0.8;
#X obj 818 552 t a a;
#X obj 818 597 pack 0 0;
#X obj 116 632 cg-phaser-mono 12 ap-voice~, f 36;
#X obj 386 812 cg-phaser-mono 12 ap-voice~, f 36;
#X msg 793 660 0 0 \, 1 100 0 \, \$2 1000 103;
#X obj 1110 584 r glob-attack;
#X obj 1110 605 max 8;
#X obj 1110 626 t a a;
#X obj 1002 689 pack 0 0 0 0, f 23;
#X obj 1137 656 + 3;
#X msg 1001 724 0 3 \, \$1 \$3 3 \, \$2 500 \$4;
#X obj 651 141 cg-scale-vel 75;
#X connect 1 0 55 0;
#X connect 3 0 16 0;
#X connect 7 0 37 1;
#X connect 7 0 38 1;
#X connect 8 0 7 0;
#X connect 9 0 20 0;
#X connect 11 0 6 0;
#X connect 12 0 60 0;
#X connect 13 0 27 0;
#X connect 14 0 27 0;
#X connect 15 0 71 0;
#X connect 16 0 29 0;
#X connect 16 1 86 0;
#X connect 17 0 10 0;
#X connect 18 0 50 0;
#X connect 18 1 48 0;
#X connect 20 0 57 0;
#X connect 20 0 58 0;
#X connect 20 0 65 0;
#X connect 20 0 66 0;
#X connect 21 0 59 1;
#X connect 22 0 83 1;
#X connect 23 0 83 0;
#X connect 23 1 22 0;
#X connect 24 0 60 1;
#X connect 25 0 26 0;
#X connect 25 1 26 1;
#X connect 26 0 63 0;
#X connect 28 0 30 0;
#X connect 29 0 17 0;
#X connect 30 0 29 0;
#X connect 30 1 29 1;
#X connect 31 0 51 0;
#X connect 35 0 39 0;
#X connect 36 0 52 0;
#X connect 37 0 78 2;
#X connect 38 0 77 2;
#X connect 39 0 78 3;
#X connect 40 0 41 0;
#X connect 41 0 77 3;
#X connect 42 0 77 3;
#X connect 42 0 78 3;
#X connect 43 0 57 1;
#X connect 44 0 58 1;
#X connect 45 0 42 0;
#X connect 46 0 49 0;
#X connect 47 0 46 0;
#X connect 48 0 64 0;
#X connect 48 1 46 0;
#X connect 48 2 12 0;
#X connect 48 3 47 0;
#X connect 49 0 14 0;
#X connect 49 1 19 0;
#X connect 50 0 60 0;
#X connect 50 1 12 0;
#X connect 50 2 59 0;
#X connect 50 3 47 0;
#X connect 51 0 38 0;
#X connect 52 0 37 0;
#X connect 53 0 1 1;
#X connect 54 0 53 0;
#X connect 55 0 11 0;
#X connect 56 0 1 0;
#X connect 57 0 77 1;
#X connect 58 0 78 1;
#X connect 59 0 25 0;
#X connect 60 0 13 0;
#X connect 61 0 56 0;
#X connect 62 0 56 1;
#X connect 63 0 8 0;
#X connect 63 1 54 0;
#X connect 64 0 15 0;
#X connect 65 0 77 0;
#X connect 66 0 78 0;
#X connect 67 0 68 0;
#X connect 68 0 65 1;
#X connect 69 0 66 1;
#X connect 70 0 69 0;
#X connect 71 0 72 0;
#X connect 71 1 23 0;
#X connect 72 0 73 0;
#X connect 73 0 75 0;
#X connect 74 0 76 1;
#X connect 75 0 76 0;
#X connect 75 1 74 0;
#X connect 76 0 79 0;
#X connect 77 0 61 0;
#X connect 78 0 62 0;
#X connect 79 0 8 0;
#X connect 80 0 81 0;
#X connect 81 0 82 0;
#X connect 82 0 83 2;
#X connect 82 1 84 0;
#X connect 83 0 85 0;
#X connect 84 0 83 3;
#X connect 85 0 54 0;
#X connect 86 0 18 0;
