#N canvas 164 92 1110 698 10;
#X obj 224 29 loadbang;
#N canvas 72 276 1075 515 test-aux-press 0;
#X obj 177 31 inlet;
#X msg 182 166 1;
#X obj 107 223 spigot 0;
#X obj 107 196 r aux;
#X obj 107 299 sel 1;
#X obj 107 332 t b b;
#X msg 235 255 0;
#X obj 107 376 outlet;
#X obj 177 58 delay 100;
#X msg 491 441 \; screenLine1 \$1 \;;
#X obj 508 53 r knob1;
#X obj 632 52 r knob2;
#X obj 751 53 r knob3;
#X obj 870 51 r knob4;
#X msg 597 355 \; screenLine2 \$1 \;;
#X msg 728 401 \; screenLine3 \$1 \;;
#X msg 860 347 \; screenLine4 \$1 \;;
#X obj 519 115 * 1024;
#X obj 519 137 i;
#X obj 641 115 * 1024;
#X obj 641 137 i;
#X obj 761 117 * 1024;
#X obj 761 139 i;
#X obj 882 115 * 1024;
#X obj 882 137 i;
#X msg 227 147 \; screenLine5 Press Aux \;;
#X obj 189 392 s clear-oled;
#X obj 491 320 spigot 1;
#X obj 597 320 spigot 1;
#X obj 728 327 spigot 1;
#X obj 860 310 spigot 1;
#X obj 177 90 t b b;
#X connect 0 0 8 0;
#X connect 1 0 2 1;
#X connect 1 0 27 1;
#X connect 1 0 28 1;
#X connect 1 0 29 1;
#X connect 1 0 30 1;
#X connect 2 0 4 0;
#X connect 3 0 2 0;
#X connect 4 0 5 0;
#X connect 5 0 7 0;
#X connect 5 1 6 0;
#X connect 5 1 26 0;
#X connect 6 0 2 1;
#X connect 6 0 27 1;
#X connect 6 0 28 1;
#X connect 6 0 29 1;
#X connect 6 0 30 1;
#X connect 8 0 31 0;
#X connect 10 0 17 0;
#X connect 11 0 19 0;
#X connect 12 0 21 0;
#X connect 13 0 23 0;
#X connect 17 0 18 0;
#X connect 18 0 27 0;
#X connect 19 0 20 0;
#X connect 20 0 28 0;
#X connect 21 0 22 0;
#X connect 22 0 29 0;
#X connect 23 0 24 0;
#X connect 24 0 30 0;
#X connect 27 0 9 0;
#X connect 28 0 14 0;
#X connect 29 0 15 0;
#X connect 30 0 16 0;
#X connect 31 0 1 0;
#X connect 31 1 25 0;
#X restore 271 78 pd test-aux-press;
#N canvas 18 50 624 546 test-aux-release 0;
#X obj 177 40 inlet;
#X msg 177 188 1;
#X obj 132 216 spigot 0;
#X obj 132 189 r aux;
#X obj 177 90 t b b;
#X obj 132 319 t b b;
#X msg 252 253 0;
#X obj 132 346 outlet;
#X obj 132 292 sel 0;
#X msg 204 138 \; screenLine1 Release Aux \;;
#X obj 177 65 delay 100;
#X connect 0 0 10 0;
#X connect 1 0 2 1;
#X connect 2 0 8 0;
#X connect 3 0 2 0;
#X connect 4 0 1 0;
#X connect 4 1 9 0;
#X connect 5 0 7 0;
#X connect 5 1 6 0;
#X connect 6 0 2 1;
#X connect 8 0 5 0;
#X connect 10 0 4 0;
#X restore 271 104 pd test-aux-release;
#N canvas 22 50 1076 803 test-led 0;
#X obj 148 34 inlet, f 7;
#X msg 148 168 1;
#X obj 95 201 spigot 0;
#X obj 95 166 r aux;
#X obj 148 85 t b b;
#X obj 708 598 t b b;
#X msg 915 307 0;
#X obj 708 691 outlet;
#X obj 95 233 sel 1;
#X obj 50 367 t b b;
#X msg 108 393 \; screenLine1 Red? \;;
#X msg 50 393 \; led 1 \;;
#X obj 94 260 f 0;
#X obj 144 256 + 1;
#X obj 88 438 t b b;
#X msg 145 467 \; screenLine1 Yellow? \;;
#X msg 88 462 \; led 2 \;;
#X obj 161 525 t b b;
#X obj 292 357 t b b;
#X obj 359 430 t b b;
#X obj 403 515 t b b;
#X msg 220 553 \; screenLine1 Green? \;;
#X msg 349 385 \; screenLine1 Teal? \;;
#X msg 416 461 \; screenLine1 Blue? \;;
#X msg 461 545 \; screenLine1 Purple? \;;
#X obj 481 360 t b b;
#X msg 544 383 \; screenLine1 White? \;;
#X msg 161 548 \; led 3 \;;
#X msg 292 382 \; led 4 \;;
#X msg 359 456 \; led 5 \;;
#X msg 403 539 \; led 6 \;;
#X msg 481 384 \; led 7 \;;
#X obj 94 293 sel 0 1 2 3 4 5 6 7, f 87;
#X msg 175 116 \; screenLine1 Press Aux to test LED \;;
#X msg 735 648 \; led 0 \;;
#X obj 148 60 delay 100;
#X connect 0 0 35 0;
#X connect 1 0 2 1;
#X connect 2 0 8 0;
#X connect 3 0 2 0;
#X connect 4 0 1 0;
#X connect 4 1 33 0;
#X connect 5 0 7 0;
#X connect 5 1 6 0;
#X connect 5 1 34 0;
#X connect 6 0 2 1;
#X connect 8 0 12 0;
#X connect 9 0 11 0;
#X connect 9 1 10 0;
#X connect 12 0 13 0;
#X connect 12 0 32 0;
#X connect 13 0 12 1;
#X connect 14 0 16 0;
#X connect 14 1 15 0;
#X connect 17 0 27 0;
#X connect 17 1 21 0;
#X connect 18 0 28 0;
#X connect 18 1 22 0;
#X connect 19 0 29 0;
#X connect 19 1 23 0;
#X connect 20 0 30 0;
#X connect 20 1 24 0;
#X connect 25 0 31 0;
#X connect 25 1 26 0;
#X connect 32 0 9 0;
#X connect 32 1 14 0;
#X connect 32 2 17 0;
#X connect 32 3 18 0;
#X connect 32 4 19 0;
#X connect 32 5 20 0;
#X connect 32 6 25 0;
#X connect 32 7 5 0;
#X connect 35 0 4 0;
#X restore 271 132 pd test-led;
#N canvas 389 50 554 810 test-keys 0;
#X obj 118 18 inlet;
#X obj 294 752 outlet;
#X obj 118 83 test-key-press 1;
#X obj 294 115 test-key-release 13;
#X obj 118 53 delay 100;
#X obj 118 110 test-key-release 1;
#X obj 118 167 test-key-release 2;
#X obj 117 220 test-key-release 3;
#X obj 117 272 test-key-release 4;
#X obj 118 328 test-key-release 5;
#X obj 119 382 test-key-release 6;
#X obj 118 437 test-key-release 7;
#X obj 118 494 test-key-release 8;
#X obj 117 546 test-key-release 9;
#X obj 118 601 test-key-release 10;
#X obj 118 708 test-key-release 12;
#X obj 294 172 test-key-release 14;
#X obj 293 225 test-key-release 15;
#X obj 293 277 test-key-release 16;
#X obj 294 333 test-key-release 17;
#X obj 295 387 test-key-release 18;
#X obj 294 442 test-key-release 19;
#X obj 294 499 test-key-release 20;
#X obj 293 551 test-key-release 21;
#X obj 294 606 test-key-release 22;
#X obj 295 658 test-key-release 23;
#X obj 294 713 test-key-release 24;
#X obj 119 653 test-key-release 11;
#X obj 118 140 test-key-press 2;
#X obj 117 193 test-key-press 3;
#X obj 117 245 test-key-press 4;
#X obj 118 301 test-key-press 5;
#X obj 119 355 test-key-press 6;
#X obj 118 410 test-key-press 7;
#X obj 118 467 test-key-press 8;
#X obj 117 519 test-key-press 9;
#X obj 118 575 test-key-press 10;
#X obj 118 682 test-key-press 12;
#X obj 294 88 test-key-press 13;
#X obj 294 145 test-key-press 14;
#X obj 293 198 test-key-press 15;
#X obj 293 250 test-key-press 16;
#X obj 294 306 test-key-press 17;
#X obj 295 360 test-key-press 18;
#X obj 294 415 test-key-press 19;
#X obj 294 472 test-key-press 20;
#X obj 293 524 test-key-press 21;
#X obj 294 580 test-key-press 22;
#X obj 295 632 test-key-press 23;
#X obj 294 687 test-key-press 24;
#X obj 119 627 test-key-press 11;
#X connect 0 0 4 0;
#X connect 2 0 5 0;
#X connect 3 0 39 0;
#X connect 4 0 2 0;
#X connect 5 0 28 0;
#X connect 6 0 29 0;
#X connect 7 0 30 0;
#X connect 8 0 31 0;
#X connect 9 0 32 0;
#X connect 10 0 33 0;
#X connect 11 0 34 0;
#X connect 12 0 35 0;
#X connect 13 0 36 0;
#X connect 14 0 50 0;
#X connect 15 0 38 0;
#X connect 16 0 40 0;
#X connect 17 0 41 0;
#X connect 18 0 42 0;
#X connect 19 0 43 0;
#X connect 20 0 44 0;
#X connect 21 0 45 0;
#X connect 22 0 46 0;
#X connect 23 0 47 0;
#X connect 24 0 48 0;
#X connect 25 0 49 0;
#X connect 26 0 1 0;
#X connect 27 0 37 0;
#X connect 28 0 6 0;
#X connect 29 0 7 0;
#X connect 30 0 8 0;
#X connect 31 0 9 0;
#X connect 32 0 10 0;
#X connect 33 0 11 0;
#X connect 34 0 12 0;
#X connect 35 0 13 0;
#X connect 36 0 14 0;
#X connect 37 0 15 0;
#X connect 38 0 3 0;
#X connect 39 0 16 0;
#X connect 40 0 17 0;
#X connect 41 0 18 0;
#X connect 42 0 19 0;
#X connect 43 0 20 0;
#X connect 44 0 21 0;
#X connect 45 0 22 0;
#X connect 46 0 23 0;
#X connect 47 0 24 0;
#X connect 48 0 25 0;
#X connect 49 0 26 0;
#X connect 50 0 27 0;
#X restore 271 162 pd test-keys;
#N canvas 197 80 991 841 test-knobs-down 0;
#X obj 176 21 inlet;
#X msg 152 207 1;
#X obj 99 245 spigot 0;
#X obj 177 90 t b b;
#X obj 178 630 t b b;
#X msg 750 390 0;
#X obj 178 674 outlet;
#X text 256 51 bang starts test;
#X obj 370 296 spigot 0;
#X obj 370 268 r knob1;
#X obj 445 295 spigot 0;
#X obj 515 294 spigot 0;
#X obj 590 293 spigot 0;
#X obj 445 267 r knob2;
#X obj 515 266 r knob3;
#X obj 590 265 r knob4;
#X obj 78 192 r aux;
#X obj 94 286 sel 1;
#X floatatom 359 356 5 0 0 0 - - -, f 5;
#X floatatom 430 358 5 0 0 0 - - -, f 5;
#X floatatom 496 356 5 0 0 0 - - -, f 5;
#X floatatom 561 357 5 0 0 0 - - -, f 5;
#X obj 668 291 spigot 0;
#X floatatom 639 355 5 0 0 0 - - -, f 5;
#X obj 668 263 r vol;
#X floatatom 349 447 5 0 0 0 - - -, f 5;
#X floatatom 433 454 5 0 0 0 - - -, f 5;
#X floatatom 496 456 5 0 0 0 - - -, f 5;
#X floatatom 554 450 5 0 0 0 - - -, f 5;
#X floatatom 627 450 5 0 0 0 - - -, f 5;
#X floatatom 267 537 5 0 0 0 - - -, f 5;
#X obj 94 315 t b b b b b;
#X obj 246 575 sel 1;
#X obj 135 663 bng 15 250 50 0 empty empty empty 17 7 0 10 -262144
-1 -1;
#X obj 146 492 expr if ($f1 == 1 && $f2 == 1 && $f3 == 1 && $f4 ==
1 && $f5 == 1 \, 1 \, 0);
#X obj 83 725 s led;
#X msg 83 698 1;
#X obj 137 781 s led;
#X obj 196 782 delay 100;
#X msg 138 754 0;
#X obj 142 726 delay 500;
#X obj 357 387 f 1;
#X obj 421 384 f 1;
#X obj 486 392 f 1;
#X obj 558 385 f 1;
#X obj 637 387 f 1;
#X obj 336 413 < 0.01;
#X obj 492 422 < 0.01;
#X obj 558 421 < 0.01;
#X obj 633 415 < 0.01;
#X obj 424 425 < 0.01;
#X obj 176 56 delay 100;
#X obj 55 84 s clear-oled;
#X msg 209 137 \; screenLine1 Turn knobs left \; screenLine2 and press
Aux button \;;
#X connect 0 0 51 0;
#X connect 0 0 52 0;
#X connect 1 0 2 1;
#X connect 1 0 8 1;
#X connect 1 0 10 1;
#X connect 1 0 11 1;
#X connect 1 0 12 1;
#X connect 1 0 22 1;
#X connect 2 0 17 0;
#X connect 3 0 1 0;
#X connect 3 1 53 0;
#X connect 4 0 6 0;
#X connect 4 0 33 0;
#X connect 4 1 5 0;
#X connect 5 0 2 1;
#X connect 5 0 12 1;
#X connect 5 0 11 1;
#X connect 5 0 22 1;
#X connect 5 0 8 1;
#X connect 5 0 10 1;
#X connect 8 0 18 0;
#X connect 9 0 8 0;
#X connect 10 0 19 0;
#X connect 11 0 20 0;
#X connect 12 0 21 0;
#X connect 13 0 10 0;
#X connect 14 0 11 0;
#X connect 15 0 12 0;
#X connect 16 0 2 0;
#X connect 17 0 31 0;
#X connect 18 0 41 1;
#X connect 19 0 42 1;
#X connect 20 0 43 1;
#X connect 21 0 44 1;
#X connect 22 0 23 0;
#X connect 23 0 45 1;
#X connect 24 0 22 0;
#X connect 25 0 34 0;
#X connect 26 0 34 1;
#X connect 27 0 34 2;
#X connect 28 0 34 3;
#X connect 29 0 34 4;
#X connect 30 0 32 0;
#X connect 31 0 41 0;
#X connect 31 1 42 0;
#X connect 31 2 43 0;
#X connect 31 3 44 0;
#X connect 31 4 45 0;
#X connect 32 0 4 0;
#X connect 33 0 36 0;
#X connect 33 0 40 0;
#X connect 34 0 30 0;
#X connect 36 0 35 0;
#X connect 39 0 37 0;
#X connect 40 0 39 0;
#X connect 41 0 46 0;
#X connect 42 0 50 0;
#X connect 43 0 47 0;
#X connect 44 0 48 0;
#X connect 45 0 49 0;
#X connect 46 0 25 0;
#X connect 47 0 27 0;
#X connect 48 0 28 0;
#X connect 49 0 29 0;
#X connect 50 0 26 0;
#X connect 51 0 3 0;
#X restore 271 296 pd test-knobs-down;
#N canvas 207 50 991 841 test-knob-sweep 0;
#X obj 176 19 inlet;
#X msg 152 207 1;
#X obj 99 245 spigot 0;
#X obj 177 90 t b b;
#X obj 178 630 t b b;
#X obj 178 674 outlet;
#X text 566 143 test instruction;
#X text 256 51 bang starts test;
#X text 261 195 open signals needed for test;
#X text 261 640 bang when complete;
#X obj 78 192 r aux;
#X obj 135 663 bng 15 250 50 0 empty empty empty 17 7 0 10 -262144
-1 -1;
#X obj 83 725 s led;
#X msg 83 698 1;
#X obj 137 781 s led;
#X obj 196 782 delay 100;
#X msg 138 754 0;
#X obj 142 726 delay 500;
#X obj 217 257 spigot 0;
#X obj 189 413 osc~ 440;
#X obj 86 502 sel 1;
#X msg 492 404 0;
#X obj 210 319 lop~ 5;
#X obj 208 344 +~ 1;
#X obj 208 366 *~ 220;
#X obj 200 452 *~ 0;
#X obj 214 223 r knob3;
#X obj 210 297 sig~ 1;
#X obj 273 498 throw~ outR;
#X obj 175 54 delay 100;
#X obj 45 87 s clear-oled;
#X msg 220 116 \; screenLine1 Turn knob 3 down \; screenLine2 Listen
Right! \; screenLine3 then press Aux button \;;
#X connect 0 0 29 0;
#X connect 0 0 30 0;
#X connect 1 0 2 1;
#X connect 1 0 18 1;
#X connect 1 0 25 1;
#X connect 2 0 20 0;
#X connect 3 0 1 0;
#X connect 3 1 31 0;
#X connect 4 0 5 0;
#X connect 4 0 11 0;
#X connect 4 1 21 0;
#X connect 10 0 2 0;
#X connect 11 0 13 0;
#X connect 11 0 17 0;
#X connect 13 0 12 0;
#X connect 16 0 14 0;
#X connect 17 0 16 0;
#X connect 18 0 27 0;
#X connect 19 0 25 0;
#X connect 20 0 4 0;
#X connect 21 0 18 1;
#X connect 21 0 2 1;
#X connect 21 0 25 1;
#X connect 22 0 23 0;
#X connect 23 0 24 0;
#X connect 24 0 19 0;
#X connect 25 0 28 0;
#X connect 26 0 18 0;
#X connect 27 0 22 0;
#X connect 29 0 3 0;
#X restore 271 378 pd test-knob-sweep;
#N canvas 209 50 991 841 test-knob-sweep 0;
#X obj 175 27 inlet;
#X msg 152 207 1;
#X obj 99 245 spigot 0;
#X obj 177 90 t b b;
#X obj 178 630 t b b;
#X obj 178 674 outlet;
#X text 566 143 test instruction;
#X text 256 51 bang starts test;
#X text 261 195 open signals needed for test;
#X text 261 640 bang when complete;
#X obj 78 192 r aux;
#X obj 135 663 bng 15 250 50 0 empty empty empty 17 7 0 10 -262144
-1 -1;
#X obj 83 725 s led;
#X msg 83 698 1;
#X obj 137 781 s led;
#X obj 196 782 delay 100;
#X msg 138 754 0;
#X obj 142 726 delay 500;
#X obj 217 257 spigot 0;
#X obj 189 413 osc~ 440;
#X obj 86 502 sel 1;
#X msg 492 404 0;
#X obj 210 319 lop~ 5;
#X obj 208 344 +~ 1;
#X obj 208 366 *~ 220;
#X obj 200 452 *~ 0;
#X obj 214 223 r knob2;
#X obj 210 297 sig~ 1;
#X obj 174 501 throw~ outL;
#X obj 174 62 delay 100;
#X obj 45 87 s clear-oled;
#X msg 210 117 \; screenLine1 Turn knob 2 down \; screenLine2 Listen
Left! \; screenLine3 then press Aux button \;;
#X connect 0 0 29 0;
#X connect 0 0 30 0;
#X connect 1 0 2 1;
#X connect 1 0 18 1;
#X connect 1 0 25 1;
#X connect 2 0 20 0;
#X connect 3 0 1 0;
#X connect 3 1 31 0;
#X connect 4 0 5 0;
#X connect 4 0 11 0;
#X connect 4 1 21 0;
#X connect 10 0 2 0;
#X connect 11 0 13 0;
#X connect 11 0 17 0;
#X connect 13 0 12 0;
#X connect 16 0 14 0;
#X connect 17 0 16 0;
#X connect 18 0 27 0;
#X connect 19 0 25 0;
#X connect 20 0 4 0;
#X connect 21 0 18 1;
#X connect 21 0 2 1;
#X connect 21 0 25 1;
#X connect 22 0 23 0;
#X connect 23 0 24 0;
#X connect 24 0 19 0;
#X connect 25 0 28 0;
#X connect 26 0 18 0;
#X connect 27 0 22 0;
#X connect 29 0 3 0;
#X restore 271 410 pd test-knob-sweep;
#N canvas 198 77 991 841 test-knobs-up 0;
#X obj 182 21 inlet;
#X msg 152 207 1;
#X obj 99 245 spigot 0;
#X obj 177 90 t b b;
#X obj 178 630 t b b;
#X msg 750 390 0;
#X obj 178 674 outlet;
#X text 264 120 test instruction;
#X text 256 51 bang starts test;
#X text 452 234 open signals needed for test;
#X text 261 640 bang when complete;
#X obj 370 296 spigot 0;
#X obj 370 268 r knob1;
#X obj 445 295 spigot 0;
#X obj 515 294 spigot 0;
#X obj 590 293 spigot 0;
#X obj 445 267 r knob2;
#X obj 515 266 r knob3;
#X obj 590 265 r knob4;
#X obj 78 192 r aux;
#X obj 94 286 sel 1;
#X floatatom 359 356 5 0 0 0 - - -, f 5;
#X floatatom 430 358 5 0 0 0 - - -, f 5;
#X floatatom 496 356 5 0 0 0 - - -, f 5;
#X floatatom 561 357 5 0 0 0 - - -, f 5;
#X obj 668 291 spigot 0;
#X floatatom 639 355 5 0 0 0 - - -, f 5;
#X obj 668 263 r vol;
#X floatatom 349 447 5 0 0 0 - - -, f 5;
#X floatatom 433 454 5 0 0 0 - - -, f 5;
#X floatatom 496 456 5 0 0 0 - - -, f 5;
#X floatatom 554 450 5 0 0 0 - - -, f 5;
#X floatatom 627 450 5 0 0 0 - - -, f 5;
#X floatatom 267 537 5 0 0 0 - - -, f 5;
#X obj 94 315 t b b b b b;
#X obj 246 575 sel 1;
#X obj 135 663 bng 15 250 50 0 empty empty empty 17 7 0 10 -262144
-1 -1;
#X obj 146 492 expr if ($f1 == 1 && $f2 == 1 && $f3 == 1 && $f4 ==
1 && $f5 == 1 \, 1 \, 0);
#X obj 83 725 s led;
#X msg 83 698 1;
#X obj 137 781 s led;
#X obj 196 782 delay 100;
#X msg 138 754 0;
#X obj 142 726 delay 500;
#X obj 349 415 > 0.99;
#X obj 424 425 > 0.99;
#X obj 633 415 > 0.99;
#X obj 558 421 > 0.99;
#X obj 492 422 > 0.99;
#X obj 357 387 f 0;
#X obj 421 384 f 0;
#X obj 486 392 f 0;
#X obj 558 385 f 0;
#X obj 637 387 f 0;
#X obj 178 59 delay 100;
#X obj 54 107 s clear-oled;
#X msg 218 140 \; screenLine1 Turn knobs right \; screenLine2 then
press Aux button \;;
#X connect 0 0 54 0;
#X connect 0 0 55 0;
#X connect 1 0 2 1;
#X connect 1 0 11 1;
#X connect 1 0 13 1;
#X connect 1 0 14 1;
#X connect 1 0 15 1;
#X connect 1 0 25 1;
#X connect 2 0 20 0;
#X connect 3 0 1 0;
#X connect 3 1 56 0;
#X connect 4 0 6 0;
#X connect 4 0 36 0;
#X connect 4 1 5 0;
#X connect 5 0 2 1;
#X connect 5 0 15 1;
#X connect 5 0 14 1;
#X connect 5 0 25 1;
#X connect 5 0 11 1;
#X connect 5 0 13 1;
#X connect 11 0 21 0;
#X connect 12 0 11 0;
#X connect 13 0 22 0;
#X connect 14 0 23 0;
#X connect 15 0 24 0;
#X connect 16 0 13 0;
#X connect 17 0 14 0;
#X connect 18 0 15 0;
#X connect 19 0 2 0;
#X connect 20 0 34 0;
#X connect 21 0 49 1;
#X connect 22 0 50 1;
#X connect 23 0 51 1;
#X connect 24 0 52 1;
#X connect 25 0 26 0;
#X connect 26 0 53 1;
#X connect 27 0 25 0;
#X connect 28 0 37 0;
#X connect 29 0 37 1;
#X connect 30 0 37 2;
#X connect 31 0 37 3;
#X connect 32 0 37 4;
#X connect 33 0 35 0;
#X connect 34 0 49 0;
#X connect 34 1 50 0;
#X connect 34 2 51 0;
#X connect 34 3 52 0;
#X connect 34 4 53 0;
#X connect 35 0 4 0;
#X connect 36 0 39 0;
#X connect 36 0 43 0;
#X connect 37 0 33 0;
#X connect 39 0 38 0;
#X connect 42 0 40 0;
#X connect 43 0 42 0;
#X connect 44 0 28 0;
#X connect 45 0 29 0;
#X connect 46 0 32 0;
#X connect 47 0 31 0;
#X connect 48 0 30 0;
#X connect 49 0 44 0;
#X connect 50 0 45 0;
#X connect 51 0 48 0;
#X connect 52 0 47 0;
#X connect 53 0 46 0;
#X connect 54 0 3 0;
#X restore 271 322 pd test-knobs-up;
#N canvas 23 50 874 825 test-complete 0;
#X obj 154 51 inlet;
#X text 261 195 open signals needed for test;
#X msg 235 218 \; screenLine1 --Congratulations!-- \; screenLine2 (that
is a long word) \; screenLine4 ___\$1 seconds______;
#X connect 0 0 2 0;
#X restore 226 664 pd test-complete;
#N canvas 62 306 624 546 test-fs-press 0;
#X obj 173 28 inlet;
#X msg 160 190 1;
#X obj 107 223 spigot 0;
#X obj 177 90 t b b;
#X obj 107 299 sel 1;
#X obj 111 393 t b b;
#X msg 235 255 0;
#X obj 111 437 outlet;
#X floatatom 11 301 5 0 0 0 - - -, f 5;
#X obj 85 175 r fs;
#X msg 208 137 \; screenLine1 Press Foot \;;
#X obj 67 401 bng 15 250 50 0 empty empty empty 17 7 0 10 -262144 -1
-1;
#X obj 15 463 s led;
#X msg 15 436 1;
#X obj 69 519 s led;
#X msg 70 492 0;
#X obj 74 464 delay 500;
#X obj 179 65 delay 100;
#X obj 45 87 s clear-oled;
#X connect 0 0 17 0;
#X connect 0 0 18 0;
#X connect 1 0 2 1;
#X connect 2 0 4 0;
#X connect 2 0 8 0;
#X connect 3 0 1 0;
#X connect 3 1 10 0;
#X connect 4 0 5 0;
#X connect 5 0 7 0;
#X connect 5 0 11 0;
#X connect 5 1 6 0;
#X connect 6 0 2 1;
#X connect 9 0 2 0;
#X connect 11 0 13 0;
#X connect 11 0 16 0;
#X connect 13 0 12 0;
#X connect 15 0 14 0;
#X connect 16 0 15 0;
#X connect 17 0 3 0;
#X restore 271 513 pd test-fs-press;
#N canvas 17 50 624 546 test-fs-release 0;
#X obj 169 26 inlet;
#X msg 160 190 1;
#X obj 107 223 spigot 0;
#X obj 177 90 t b b;
#X obj 111 393 t b b;
#X msg 235 255 0;
#X obj 111 437 outlet;
#X obj 107 299 sel 0;
#X obj 85 175 r fs;
#X msg 208 137 \; screenLine1 Release Foot \;;
#X obj 80 411 bng 15 250 50 0 empty empty empty 17 7 0 10 -262144 -1
-1;
#X obj 28 473 s led;
#X msg 28 446 1;
#X obj 82 529 s led;
#X msg 83 502 0;
#X obj 87 474 delay 500;
#X obj 177 58 delay 100;
#X connect 0 0 16 0;
#X connect 1 0 2 1;
#X connect 2 0 7 0;
#X connect 3 0 1 0;
#X connect 3 1 9 0;
#X connect 4 0 6 0;
#X connect 4 0 10 0;
#X connect 4 1 5 0;
#X connect 5 0 2 1;
#X connect 7 0 4 0;
#X connect 8 0 2 0;
#X connect 10 0 12 0;
#X connect 10 0 15 0;
#X connect 12 0 11 0;
#X connect 14 0 13 0;
#X connect 15 0 14 0;
#X connect 16 0 3 0;
#X restore 271 539 pd test-fs-release;
#X obj 226 615 timer;
#X obj 226 639 / 1000;
#X obj 553 387 little-synth;
#N canvas 33 50 874 825 test-MIDI-out 0;
#X obj 176 23 inlet;
#X msg 160 190 1;
#X obj 108 224 spigot 0;
#X obj 177 90 t b b;
#X obj 101 580 t b b;
#X msg 652 432 0;
#X obj 101 624 outlet;
#X text 451 168 test instruction;
#X text 256 51 bang starts test;
#X text 442 262 open signals needed for test;
#X text 283 410 test goes here;
#X text 184 590 bang when complete;
#X obj 51 111 r aux;
#X obj 101 262 sel 1;
#X obj 180 60 delay 100;
#X obj 45 87 s clear-oled;
#X msg 209 140 \; screenLine1 Test MIDI OUT \; screenLine2 Play and
listen \; screenLine3 to external synth \; screenLine4 Press Aux when
done \;;
#X connect 0 0 14 0;
#X connect 0 0 15 0;
#X connect 1 0 2 1;
#X connect 2 0 13 0;
#X connect 3 0 1 0;
#X connect 3 1 16 0;
#X connect 4 0 6 0;
#X connect 4 1 5 0;
#X connect 5 0 2 1;
#X connect 12 0 2 0;
#X connect 13 0 4 0;
#X connect 14 0 3 0;
#X restore 271 461 pd test-MIDI-out;
#N canvas 34 50 874 825 test-MIDI-in 0;
#X obj 176 32 inlet;
#X msg 160 190 1;
#X obj 108 224 spigot 0;
#X obj 177 90 t b b;
#X obj 101 580 t b b;
#X msg 652 432 0;
#X obj 101 624 outlet;
#X text 311 124 test instruction;
#X text 256 51 bang starts test;
#X text 442 262 open signals needed for test;
#X text 283 410 test goes here;
#X text 184 590 bang when complete;
#X obj 51 111 r aux;
#X obj 101 262 sel 1;
#X obj 177 63 delay 100;
#X obj 45 87 s clear-oled;
#X msg 211 144 \; screenLine1 Test MIDI In \; screenLine2 Play ext.
controller \; screenLine3 listen to OG response \; screenLine4 Press
Aux when done \;;
#X connect 0 0 14 0;
#X connect 0 0 15 0;
#X connect 1 0 2 1;
#X connect 2 0 13 0;
#X connect 3 0 1 0;
#X connect 3 1 16 0;
#X connect 4 0 6 0;
#X connect 4 1 5 0;
#X connect 5 0 2 1;
#X connect 12 0 2 0;
#X connect 13 0 4 0;
#X connect 14 0 3 0;
#X restore 271 484 pd test-MIDI-in;
#X text 648 387 always running so we can hear OG;
#X text 654 423 basic test template. copy me!;
#N canvas 18 50 874 825 test-empty 0;
#X obj 175 13 inlet;
#X msg 160 190 1;
#X obj 108 224 spigot 0;
#X obj 177 90 t b b;
#X obj 178 630 t b b;
#X msg 652 432 0;
#X obj 178 674 outlet;
#X obj 86 175 r notes;
#X msg 209 137 \; screenLine1 Do Something \;;
#X text 449 140 test instruction;
#X text 250 91 bang starts test;
#X text 261 195 open signals needed for test;
#X text 95 395 test goes here;
#X text 261 640 bang when complete;
#X obj 174 50 delay 100;
#X connect 0 0 14 0;
#X connect 1 0 2 1;
#X connect 3 0 1 0;
#X connect 3 1 8 0;
#X connect 4 0 6 0;
#X connect 4 1 5 0;
#X connect 5 0 2 1;
#X connect 7 0 2 0;
#X connect 14 0 3 0;
#X restore 551 423 pd test-empty;
#N canvas 70 282 624 546 test-aux-press 0;
#X obj 176 27 inlet;
#X msg 160 190 1;
#X obj 107 223 spigot 0;
#X obj 85 175 r aux;
#X obj 177 90 t b b;
#X obj 107 299 sel 1;
#X obj 111 393 t b b;
#X msg 235 255 0;
#X obj 111 437 outlet;
#X floatatom 11 301 5 0 0 0 - - -, f 5;
#X obj 177 59 delay 100;
#X msg 208 138 \; screenLine1 Press Aux to Continue \;;
#X connect 0 0 10 0;
#X connect 1 0 2 1;
#X connect 2 0 5 0;
#X connect 2 0 9 0;
#X connect 3 0 2 0;
#X connect 4 0 1 0;
#X connect 4 1 11 0;
#X connect 5 0 6 0;
#X connect 6 0 8 0;
#X connect 6 1 7 0;
#X connect 7 0 2 1;
#X connect 10 0 4 0;
#X restore 271 191 pd test-aux-press;
#N canvas 210 50 991 841 test-knob-sweep 0;
#X obj 176 19 inlet;
#X msg 152 207 1;
#X obj 99 245 spigot 0;
#X obj 177 90 t b b;
#X obj 178 630 t b b;
#X obj 178 674 outlet;
#X text 566 143 test instruction;
#X text 256 51 bang starts test;
#X text 261 195 open signals needed for test;
#X text 261 640 bang when complete;
#X obj 78 192 r aux;
#X obj 135 663 bng 15 250 50 0 empty empty empty 17 7 0 10 -262144
-1 -1;
#X obj 83 725 s led;
#X msg 83 698 1;
#X obj 137 781 s led;
#X obj 196 782 delay 100;
#X msg 138 754 0;
#X obj 142 726 delay 500;
#X obj 217 257 spigot 0;
#X obj 189 413 osc~ 440;
#X obj 86 502 sel 1;
#X msg 492 404 0;
#X obj 210 319 lop~ 5;
#X obj 208 344 +~ 1;
#X obj 208 366 *~ 220;
#X obj 200 452 *~ 0;
#X obj 210 297 sig~ 1;
#X obj 273 498 throw~ outR;
#X obj 175 54 delay 100;
#X obj 214 223 r knob4;
#X obj 57 72 s clear-oled;
#X msg 212 117 \; screenLine1 Turn knob 4 down \; screenLine2 Listen
Right! \; screenLine3 then press Aux button \;;
#X connect 0 0 28 0;
#X connect 0 0 30 0;
#X connect 1 0 2 1;
#X connect 1 0 18 1;
#X connect 1 0 25 1;
#X connect 2 0 20 0;
#X connect 3 0 1 0;
#X connect 3 1 31 0;
#X connect 4 0 5 0;
#X connect 4 0 11 0;
#X connect 4 1 21 0;
#X connect 10 0 2 0;
#X connect 11 0 13 0;
#X connect 11 0 17 0;
#X connect 13 0 12 0;
#X connect 16 0 14 0;
#X connect 17 0 16 0;
#X connect 18 0 26 0;
#X connect 19 0 25 0;
#X connect 20 0 4 0;
#X connect 21 0 18 1;
#X connect 21 0 2 1;
#X connect 21 0 25 1;
#X connect 22 0 23 0;
#X connect 23 0 24 0;
#X connect 24 0 19 0;
#X connect 25 0 27 0;
#X connect 26 0 22 0;
#X connect 28 0 3 0;
#X connect 29 0 18 0;
#X restore 271 351 pd test-knob-sweep;
#N canvas 207 50 991 841 test-knob-sweep 0;
#X obj 183 18 inlet;
#X msg 152 207 1;
#X obj 99 245 spigot 0;
#X obj 177 90 t b b;
#X obj 178 630 t b b;
#X obj 178 674 outlet;
#X text 566 143 test instruction;
#X text 256 51 bang starts test;
#X text 261 195 open signals needed for test;
#X text 261 640 bang when complete;
#X obj 78 192 r aux;
#X obj 135 663 bng 15 250 50 0 empty empty empty 17 7 0 10 -262144
-1 -1;
#X obj 83 725 s led;
#X msg 83 698 1;
#X obj 137 781 s led;
#X obj 196 782 delay 100;
#X msg 138 754 0;
#X obj 142 726 delay 500;
#X obj 217 257 spigot 0;
#X obj 189 413 osc~ 440;
#X obj 86 502 sel 1;
#X msg 492 404 0;
#X obj 210 319 lop~ 5;
#X obj 208 344 +~ 1;
#X obj 208 366 *~ 220;
#X obj 200 452 *~ 0;
#X obj 214 223 r knob1;
#X obj 210 297 sig~ 1;
#X obj 174 501 throw~ outL;
#X obj 183 48 delay 100;
#X obj 45 87 s clear-oled;
#X msg 210 117 \; screenLine1 Turn knob 1 down \; screenLine2 Listen
left! \; screenLine3 then press Aux button \;;
#X connect 0 0 29 0;
#X connect 0 0 30 0;
#X connect 1 0 2 1;
#X connect 1 0 18 1;
#X connect 1 0 25 1;
#X connect 2 0 20 0;
#X connect 3 0 1 0;
#X connect 3 1 31 0;
#X connect 4 0 5 0;
#X connect 4 0 11 0;
#X connect 4 1 21 0;
#X connect 10 0 2 0;
#X connect 11 0 13 0;
#X connect 11 0 17 0;
#X connect 13 0 12 0;
#X connect 16 0 14 0;
#X connect 17 0 16 0;
#X connect 18 0 27 0;
#X connect 19 0 25 0;
#X connect 20 0 4 0;
#X connect 21 0 18 1;
#X connect 21 0 2 1;
#X connect 21 0 25 1;
#X connect 22 0 23 0;
#X connect 23 0 24 0;
#X connect 24 0 19 0;
#X connect 25 0 28 0;
#X connect 26 0 18 0;
#X connect 27 0 22 0;
#X connect 29 0 3 0;
#X restore 271 436 pd test-knob-sweep;
#N canvas 41 50 874 825 test-audio-in 0;
#X obj 177 23 inlet;
#X msg 178 188 1;
#X obj 108 224 spigot 0;
#X obj 177 90 t b b;
#X obj 178 630 t b b;
#X msg 507 397 0;
#X obj 178 674 outlet;
#X text 276 112 test instruction;
#X text 256 51 bang starts test;
#X text 261 195 open signals needed for test;
#X text 45 632 bang when complete;
#X obj 207 325 r~ inL;
#X obj 208 505 throw~ outL;
#X obj 108 166 r aux;
#X obj 108 193 sel 1;
#X obj 205 352 *~ 1;
#X obj 207 473 *~ 0;
#X obj 208 382 delwrite~ leftdelay 500;
#X obj 207 437 delread~ leftdelay 500;
#X obj 177 58 delay 100;
#X msg 210 137 \; screenLine1 Put Headphones on!!! \; screenLine2 Check
Left Input \; screenLine3 Press Aux when done \;;
#X connect 0 0 19 0;
#X connect 1 0 2 1;
#X connect 1 0 16 1;
#X connect 2 0 4 0;
#X connect 3 0 1 0;
#X connect 3 1 20 0;
#X connect 4 0 6 0;
#X connect 4 1 5 0;
#X connect 5 0 2 1;
#X connect 5 0 16 1;
#X connect 11 0 15 0;
#X connect 13 0 14 0;
#X connect 14 0 2 0;
#X connect 15 0 17 0;
#X connect 16 0 12 0;
#X connect 18 0 16 0;
#X connect 19 0 3 0;
#X restore 271 216 pd test-audio-in;
#N canvas 204 50 874 825 test-audio-in 0;
#X obj 177 24 inlet;
#X msg 178 188 1;
#X obj 108 224 spigot 0;
#X obj 177 90 t b b;
#X obj 178 630 t b b;
#X msg 266 467 0;
#X obj 178 674 outlet;
#X text 271 114 test instruction;
#X text 256 51 bang starts test;
#X text 213 233 open signals needed for test;
#X text 45 632 bang when complete;
#X obj 108 164 r aux;
#X obj 108 193 sel 1;
#X obj 469 471 *~ 1;
#X obj 382 595 *~ 0;
#X obj 471 444 r~ inR;
#X obj 380 627 throw~ outR;
#X obj 471 501 delwrite~ rightdelay 500;
#X obj 382 559 delread~ rightdelay 500;
#X obj 177 58 delay 100;
#X obj 73 82 s clear-oled;
#X msg 213 166 \; screenLine1 Put Headphones on!!! \; screenLine2 Check
Right Input \; screenLine3 Press Aux when done \;;
#X connect 0 0 19 0;
#X connect 0 0 20 0;
#X connect 1 0 2 1;
#X connect 1 0 14 1;
#X connect 2 0 4 0;
#X connect 3 0 1 0;
#X connect 3 1 21 0;
#X connect 4 0 6 0;
#X connect 4 1 5 0;
#X connect 5 0 2 1;
#X connect 5 0 14 1;
#X connect 11 0 12 0;
#X connect 12 0 2 0;
#X connect 13 0 17 0;
#X connect 14 0 16 0;
#X connect 15 0 13 0;
#X connect 18 0 14 0;
#X connect 19 0 3 0;
#X restore 271 244 pd test-audio-in;
#N canvas 251 50 874 825 test-remove-headphones 0;
#X obj 178 22 inlet;
#X msg 160 190 1;
#X obj 108 224 spigot 0;
#X obj 177 90 t b b;
#X obj 178 630 t b b;
#X msg 652 432 0;
#X obj 178 674 outlet;
#X text 265 89 test instruction;
#X text 256 51 bang starts test;
#X text 302 236 open signals needed for test;
#X text 95 395 test goes here;
#X text 261 640 bang when complete;
#X obj 88 186 r aux;
#X obj 94 279 sel 1;
#X obj 177 54 delay 100;
#X obj 59 101 s clear-oled;
#X msg 209 137 \; screenLine1 REMOVE HEADPHONES \; screenLine2 Press
AUX When Done \;;
#X connect 0 0 14 0;
#X connect 0 0 15 0;
#X connect 1 0 2 1;
#X connect 2 0 13 0;
#X connect 3 0 1 0;
#X connect 3 1 16 0;
#X connect 4 0 6 0;
#X connect 4 1 5 0;
#X connect 5 0 2 1;
#X connect 12 0 2 0;
#X connect 13 0 4 0;
#X connect 14 0 3 0;
#X restore 271 269 pd test-remove-headphones;
#N canvas 6 50 450 300 clear-oled 0;
#X msg 91 123 \; oscOut send /oled/line/1 \; oscOut send /oled/line/2
\; oscOut send /oled/line/3 \; oscOut send /oled/line/4 \; oscOut send
/oled/line/5 \;;
#X obj 91 47 r clear-oled;
#X obj 91 83 bng 15 250 50 0 empty empty empty 17 7 0 10 -262144 -1
-1;
#X connect 1 0 2 0;
#X connect 2 0 0 0;
#X restore 555 459 pd clear-oled;
#X text 450 16 Hardware test patch;
#X connect 0 0 12 0;
#X connect 0 0 1 0;
#X connect 1 0 2 0;
#X connect 2 0 3 0;
#X connect 3 0 4 0;
#X connect 4 0 20 0;
#X connect 5 0 8 0;
#X connect 6 0 7 0;
#X connect 7 0 22 0;
#X connect 8 0 21 0;
#X connect 10 0 11 0;
#X connect 11 0 12 1;
#X connect 12 0 13 0;
#X connect 13 0 9 0;
#X connect 15 0 16 0;
#X connect 16 0 10 0;
#X connect 20 0 23 0;
#X connect 21 0 6 0;
#X connect 22 0 15 0;
#X connect 23 0 24 0;
#X connect 24 0 25 0;
#X connect 25 0 5 0;
