#N canvas 6 50 622 687 10;
#X obj 177 23 inlet;
#X msg 160 190 1;
#X obj 107 234 spigot 0;
#X obj 177 90 t b b;
#X obj 107 457 t b b;
#X msg 241 331 0, f 4;
#X obj 107 501 outlet;
#X obj 85 175 r notes;
#X obj 107 413 sel 100;
#X obj 107 268 unpack;
#X obj 107 306 - 59;
#X obj 107 336 pack 0 0;
#X obj 107 368 route \$1;
#X msg 240 174 \; screenLine1 Press Key \$1 \;;
#X obj 225 127 f \$1;
#X obj 177 57 delay 50;
#X connect 0 0 15 0;
#X connect 1 0 2 1;
#X connect 2 0 9 0;
#X connect 3 0 1 0;
#X connect 3 1 14 0;
#X connect 4 0 6 0;
#X connect 4 1 5 0;
#X connect 5 0 2 1;
#X connect 7 0 2 0;
#X connect 8 0 4 0;
#X connect 9 0 10 0;
#X connect 9 1 11 1;
#X connect 10 0 11 0;
#X connect 11 0 12 0;
#X connect 12 0 8 0;
#X connect 14 0 13 0;
#X connect 15 0 3 0;
