#N canvas 9 50 622 687 10;
#X obj 177 22 inlet;
#X msg 160 190 1;
#X obj 107 223 spigot 0;
#X obj 177 90 t b b;
#X obj 107 407 t b b;
#X msg 249 317 0;
#X obj 107 443 outlet;
#X obj 85 175 r notes;
#X obj 107 253 unpack;
#X obj 107 285 - 59;
#X obj 107 319 pack 0 0;
#X obj 107 349 route \$1;
#X obj 225 127 f \$1;
#X obj 107 378 sel 0;
#X msg 240 174 \; screenLine1 Release Key \$1 \;;
#X obj 177 53 delay 50;
#X connect 0 0 15 0;
#X connect 1 0 2 1;
#X connect 2 0 8 0;
#X connect 3 0 1 0;
#X connect 3 1 12 0;
#X connect 4 0 6 0;
#X connect 4 1 5 0;
#X connect 5 0 2 1;
#X connect 7 0 2 0;
#X connect 8 0 9 0;
#X connect 8 1 10 1;
#X connect 9 0 10 0;
#X connect 10 0 11 0;
#X connect 11 0 13 0;
#X connect 12 0 14 0;
#X connect 13 0 4 0;
#X connect 15 0 3 0;
