#N canvas 131 119 1141 674 10;
#X obj 130 212 + 10;
#X obj 130 186 * 300;
#X text 6 13 always running. mute incoming BPM to turn off in other
Modules;
#X obj 130 134 r mm-bpmDial;
#X obj 130 424 s mm-bpmDial-label;
#X text 425 8 Master Metro Module. Only use one for each Modular Patch.
Sends 24 ticks per Beat (master-ticks). Sends a Beat count relative
to set time signature (master-beats). master-timeSig sends how many
beats in a measure to use in other modules;
#X obj 523 133 * 6;
#X obj 523 155 i;
#X obj 523 177 - 3;
#X obj 523 242 * 12;
#X obj 429 315 s as-\$1-trans;
#X obj 523 111 r mm-transpose;
#X obj 450 339 s bp-\$1-trans;
#X obj 459 364 s czz-\$1-trans;
#X obj 480 388 s rampsyn-\$1-trans;
#X obj 499 415 s rhodey-\$1-trans;
#X obj 520 439 s tunedel-\$1-trans;
#X obj 529 464 s wavs-\$1-trans;
#X obj 550 488 s bsamp-\$1-trans;
#X obj 563 510 s s24-\$1-trans;
#X obj 580 245 s mm-transpose-label;
#X msg 580 216 Transpose: \$1 Oct.;
#X obj 835 335 r mm-x1;
#X msg 835 357 x;
#X obj 835 379 s mm-x1-label;
#X msg 823 517 x;
#X obj 823 495 r mm-x2;
#X obj 823 539 s mm-x2-label;
#N canvas 19 51 829 625 metro-here 0;
#X obj 369 147 r seq3-1-actions, f 19;
#X obj 312 345 f;
#X msg 407 250 0;
#X obj 439 250 t b b;
#X msg 445 280 1;
#X obj 312 292 del 1;
#X obj 54 303 s beat-clock;
#X msg 53 121 1;
#X obj 203 353 list, f 7;
#X obj 203 375 route 69;
#X obj 203 281 t b a;
#X msg 203 323 69;
#X obj 177 221 pack, f 10;
#X obj 212 189 t b a;
#X obj 54 151 metronome360 0, f 18;
#X obj 319 117 s seq3-1-quan;
#X obj 400 338 f;
#X obj 203 397 spigot 1;
#X obj 312 367 spigot 1, f 14;
#X obj 544 429 r cgSc-1-slots;
#X obj 544 455 + 1;
#X obj 319 88 r metro-state;
#X obj 486 346 loadbang;
#X obj 544 476 f;
#X obj 486 388 t b b;
#X obj 312 428 f;
#X obj 486 367 del 1;
#X obj 407 179 r cgSc-1-mute-print;
#X obj 407 202 sel 1;
#X obj 539 218 r page-ready;
#X obj 539 279 change -1;
#X obj 539 239 sel 0;
#X obj 539 300 t b;
#X obj 176 84 inlet;
#X obj 118 67 loadbang;
#X obj 203 552 outlet, f 16;
#X connect 0 0 1 0;
#X connect 1 0 18 0;
#X connect 2 0 16 0;
#X connect 3 0 5 0;
#X connect 3 1 4 0;
#X connect 4 0 16 0;
#X connect 5 0 1 0;
#X connect 5 0 11 0;
#X connect 7 0 14 0;
#X connect 8 0 9 0;
#X connect 9 0 17 0;
#X connect 10 0 11 0;
#X connect 10 1 8 1;
#X connect 11 0 8 0;
#X connect 12 0 10 0;
#X connect 13 0 12 0;
#X connect 13 1 12 1;
#X connect 14 0 6 0;
#X connect 14 1 13 0;
#X connect 14 2 12 0;
#X connect 16 0 17 1;
#X connect 16 0 18 1;
#X connect 17 0 35 0;
#X connect 18 0 25 0;
#X connect 19 0 20 0;
#X connect 20 0 23 0;
#X connect 21 0 15 0;
#X connect 22 0 26 0;
#X connect 24 0 25 0;
#X connect 24 1 23 0;
#X connect 26 0 24 0;
#X connect 27 0 28 0;
#X connect 28 0 2 0;
#X connect 28 1 3 0;
#X connect 29 0 31 0;
#X connect 30 0 32 0;
#X connect 31 1 30 0;
#X connect 32 0 5 0;
#X connect 33 0 14 1;
#X connect 34 0 7 0;
#X restore 130 240 pd metro-here;
#N canvas 787 330 860 595 slot-saver-1 0;
#X obj 167 38 r cgSc-1-slots;
#X obj 30 68 loadbang;
#X msg 30 140 0;
#X obj 30 161 tabread \$0-slot;
#X obj 199 225 array define \$0-slot;
#X obj 30 110 t b b;
#X msg 199 138 read slot.txt;
#X msg 243 186 write slot.txt;
#X obj 243 160 r saveState;
#X obj 167 58 t a b;
#X msg 220 84 0;
#X obj 167 107 tabwrite \$0-slot;
#X obj 30 185 s cgSc-1-slots;
#X connect 0 0 9 0;
#X connect 1 0 5 0;
#X connect 2 0 3 0;
#X connect 3 0 12 0;
#X connect 5 0 2 0;
#X connect 5 1 6 0;
#X connect 6 0 4 0;
#X connect 7 0 4 0;
#X connect 8 0 7 0;
#X connect 9 0 11 0;
#X connect 9 1 10 0;
#X connect 10 0 11 1;
#X restore 258 441 pd slot-saver-1;
#X obj 130 282 sel 0 1 2 3 4, f 37;
#X text 254 95 1 = internal bpm(set by og knob);
#X text 254 155 4 = Hidden default bpm(off);
#X text 254 115 2 = MIDI BPM;
#X text 254 135 3 = LINK BPM;
#X obj 130 261 unpack 0 0;
#X obj 130 356 symbol;
#X msg 191 329 MIDI;
#X msg 266 329 LINK;
#X msg 130 329 Int;
#X obj 130 377 pack s 0;
#X msg 130 398 \$1 BPM: \$2;
#X obj 245 234 s mm-bpm-local;
#X obj 808 216 spigot 0;
#X obj 808 143 r cgSc-1-mute-print;
#X obj 808 164 sel 0;
#X obj 808 185 del 10;
#X obj 985 198 r mseq-\$1-Fxs;
#X obj 985 219 sel seq3;
#X msg 985 240 1;
#X obj 1032 243 t b;
#X msg 1032 264 0;
#X obj 808 237 spigot 0, f 14;
#X msg 966 112 1;
#X obj 1013 115 t b;
#X msg 1013 136 0;
#X obj 966 70 r page-ready;
#X obj 966 91 sel 4;
#X connect 0 0 28 0;
#X connect 1 0 0 0;
#X connect 3 0 1 0;
#X connect 6 0 7 0;
#X connect 7 0 8 0;
#X connect 8 0 9 0;
#X connect 8 0 21 0;
#X connect 9 0 10 0;
#X connect 9 0 12 0;
#X connect 9 0 13 0;
#X connect 9 0 14 0;
#X connect 9 0 15 0;
#X connect 9 0 16 0;
#X connect 9 0 17 0;
#X connect 9 0 18 0;
#X connect 9 0 19 0;
#X connect 11 0 6 0;
#X connect 21 0 20 0;
#X connect 22 0 23 0;
#X connect 23 0 24 0;
#X connect 25 0 27 0;
#X connect 26 0 25 0;
#X connect 28 0 35 0;
#X connect 30 0 39 0;
#X connect 30 1 37 0;
#X connect 30 2 38 0;
#X connect 30 3 39 0;
#X connect 30 4 39 0;
#X connect 35 0 30 0;
#X connect 35 1 40 1;
#X connect 35 1 42 0;
#X connect 36 0 40 0;
#X connect 37 0 36 0;
#X connect 38 0 36 0;
#X connect 39 0 36 0;
#X connect 40 0 41 0;
#X connect 41 0 4 0;
#X connect 43 0 52 0;
#X connect 44 0 45 0;
#X connect 45 0 46 0;
#X connect 46 0 43 0;
#X connect 47 0 48 0;
#X connect 48 0 49 0;
#X connect 48 1 50 0;
#X connect 49 0 43 1;
#X connect 50 0 51 0;
#X connect 51 0 43 1;
#X connect 52 0 7 0;
#X connect 52 0 23 0;
#X connect 52 0 25 0;
#X connect 53 0 52 1;
#X connect 54 0 55 0;
#X connect 55 0 52 1;
#X connect 56 0 57 0;
#X connect 57 0 53 0;
#X connect 57 1 54 0;
