#N canvas 420 50 1336 799 10;
#X obj 309 225 mtof;
#X obj 309 261 sig~;
#X text 254 74 note messages;
#X obj 580 515 bng 15 250 50 0 empty empty empty 17 7 0 10 -262144
-1 -1;
#X obj 308 696 *~;
#X obj 277 98 inlet;
#X obj 308 748 outlet~;
#X obj 309 722 *~ 0.5;
#X obj 309 595 s_buzz;
#X obj 591 659 *~;
#X obj 349 379 -~ 1;
#X obj 349 401 abs~;
#X obj 348 445 *~;
#X obj 347 533 *~;
#X obj 349 324 /~ 5000;
#X obj 348 349 clip~ 0 5000;
#X text 412 312 sorta arbitrary scale of harmonic content amount to
avoid aliasing... assumes 44.1k sampling rate .....;
#X obj 308 285 *~ 1;
#X text 23 16 Synth Voice;
#X obj 277 128 unpack;
#X obj 375 155 sel 0;
#X obj 592 596 line~;
#X msg 529 545 0 500;
#X msg 590 550 1 5;
#X obj 291 180 - 12;
#X obj 425 433 sig~ 0.5;
#X connect 0 0 1 0;
#X connect 1 0 17 0;
#X connect 3 0 23 0;
#X connect 4 0 7 0;
#X connect 5 0 19 0;
#X connect 7 0 6 0;
#X connect 8 0 4 0;
#X connect 9 0 4 1;
#X connect 10 0 11 0;
#X connect 11 0 12 1;
#X connect 11 0 12 0;
#X connect 12 0 13 0;
#X connect 13 0 8 1;
#X connect 14 0 15 0;
#X connect 15 0 10 0;
#X connect 17 0 8 0;
#X connect 17 0 14 0;
#X connect 19 0 24 0;
#X connect 19 1 20 0;
#X connect 20 0 22 0;
#X connect 20 1 3 0;
#X connect 21 0 9 1;
#X connect 21 0 9 0;
#X connect 22 0 21 0;
#X connect 23 0 21 0;
#X connect 24 0 0 0;
#X connect 25 0 13 1;
