#N canvas 428 79 701 866 10;
#X obj 189 71 inlet;
#X obj 189 106 unpack f f;
#X obj 189 217 mtof;
#X obj 193 567 *~;
#X obj 225 765 outlet~;
#X obj 189 262 sig~;
#X obj 164 383 blsaw;
#X obj 349 317 sel 0;
#X obj 384 448 vline~;
#X obj 225 669 moog~;
#X msg 139 622 reset;
#X text 450 620 Q (1-4);
#X obj 225 716 *~ 1;
#X obj 439 365 bng 15 250 50 0 empty empty empty 17 7 0 10 -262144
-1 -1;
#X obj 337 621 r~ resonance;
#X obj 261 572 r~ cutoff;
#X obj 102 398 blsaw;
#X obj 347 494 *~;
#X obj 178 318 *~ 1;
#X obj 95 369 *~ 1.01;
#X msg 330 398 0 \$1;
#X obj 328 365 f 500;
#X obj 420 191 r decay;
#X msg 421 401 1 5;
#X connect 0 0 1 0;
#X connect 1 0 2 0;
#X connect 1 1 7 0;
#X connect 2 0 5 0;
#X connect 3 0 9 0;
#X connect 5 0 18 0;
#X connect 6 0 3 0;
#X connect 7 0 21 0;
#X connect 7 1 13 0;
#X connect 8 0 17 1;
#X connect 8 0 17 0;
#X connect 9 0 12 0;
#X connect 10 0 9 0;
#X connect 12 0 4 0;
#X connect 13 0 23 0;
#X connect 14 0 9 2;
#X connect 15 0 9 1;
#X connect 16 0 3 0;
#X connect 17 0 3 1;
#X connect 18 0 6 0;
#X connect 18 0 19 0;
#X connect 19 0 16 0;
#X connect 20 0 8 0;
#X connect 21 0 20 0;
#X connect 22 0 21 1;
#X connect 23 0 8 0;
