#N canvas 408 105 1433 868 10;
#X obj 31 14 inlet;
#X obj 31 64 s \$0-metro;
#X obj 159 110 s \$0-rule;
#X obj 288 125 s \$0-size;
#X obj 1113 377 array define \$0-rules;
#X obj 66 780 pack f f f, f 29;
#X obj 66 450 until;
#X obj 66 474 f;
#X obj 100 473 + 1;
#X obj 66 421 f, f 8;
#X obj 119 388 r \$0-size;
#X obj 66 835 tabwrite \$0-row_2, f 24;
#X obj 66 669 tabread \$0-row_1;
#X obj 166 697 tabread \$0-row_1;
#X obj 235 665 tabread \$0-row_1;
#X obj 417 86 s \$0-loop;
#N canvas 750 292 908 656 rules 1;
#X obj 315 198 mod 128;
#X msg 265 193 \$1 0;
#X obj 375 223 mod 64;
#X msg 315 250 \$1 1;
#X obj 425 249 mod 32;
#X msg 375 276 \$1 2;
#X obj 486 274 mod 16;
#X msg 426 301 \$1 3;
#X obj 546 299 mod 8;
#X msg 486 326 \$1 4;
#X obj 605 323 mod 4;
#X msg 545 350 \$1 5;
#X obj 664 350 mod 2;
#X msg 604 377 \$1 6;
#X msg 664 401 \$1 7;
#X obj 265 169 div 128;
#X obj 315 224 div 64;
#X obj 375 250 div 32;
#X obj 426 275 div 16;
#X obj 486 300 div 8;
#X obj 545 324 div 4;
#X obj 604 351 div 2;
#X obj 664 375 div 1;
#X obj 218 240 s \$0-set_0;
#X obj 263 284 s \$0-set_1;
#X obj 326 307 s \$0-set_2;
#X obj 373 330 s \$0-set_3;
#X obj 428 361 s \$0-set_4;
#X obj 486 385 s \$0-set_5;
#X obj 547 411 s \$0-set_6;
#X obj 613 433 s \$0-set_7;
#X obj 265 462 tabwrite \$0-rules;
#X obj 265 141 r \$0-rule;
#X text 118 42 This code contains elements from the patch shared by
the user ‘booth’ here: https://forum.pdpatchrepo.info/topic/6942/1d-cellular-automata-to-midi-patch
, f 89;
#X connect 0 0 2 0;
#X connect 0 0 16 0;
#X connect 1 0 31 0;
#X connect 2 0 4 0;
#X connect 2 0 17 0;
#X connect 3 0 31 0;
#X connect 4 0 6 0;
#X connect 4 0 18 0;
#X connect 5 0 31 0;
#X connect 6 0 8 0;
#X connect 6 0 19 0;
#X connect 7 0 31 0;
#X connect 8 0 10 0;
#X connect 8 0 20 0;
#X connect 9 0 31 0;
#X connect 10 0 12 0;
#X connect 10 0 21 0;
#X connect 11 0 31 0;
#X connect 12 0 22 0;
#X connect 13 0 31 0;
#X connect 14 0 31 0;
#X connect 15 0 1 0;
#X connect 15 0 23 0;
#X connect 16 0 3 0;
#X connect 16 0 24 0;
#X connect 17 0 5 0;
#X connect 17 0 25 0;
#X connect 18 0 7 0;
#X connect 18 0 26 0;
#X connect 19 0 9 0;
#X connect 19 0 27 0;
#X connect 20 0 11 0;
#X connect 20 0 28 0;
#X connect 21 0 13 0;
#X connect 21 0 29 0;
#X connect 22 0 14 0;
#X connect 22 0 30 0;
#X connect 32 0 15 0;
#X connect 32 0 0 0;
#X restore 982 245 pd rules;
#X obj 417 64 i;
#X obj 277 468 outlet the list;
#X obj 719 137 tgl 20 0 \$0-rule_0 \$0-set_0 empty 17 7 0 10 -262144
-1 -1 0 1;
#X obj 803 138 tgl 20 0 \$0-rule_1 \$0-set_1 empty 17 7 0 10 -262144
-1 -1 0 1;
#X obj 886 139 tgl 20 0 \$0-rule_2 \$0-set_2 empty 17 7 0 10 -262144
-1 -1 0 1;
#X obj 968 138 tgl 20 0 \$0-rule_3 \$0-set_3 empty 17 7 0 10 -262144
-1 -1 0 1;
#X obj 1049 138 tgl 20 0 \$0-rule_4 \$0-set_4 empty 17 7 0 10 -262144
-1 -1 0 1;
#X obj 1132 139 tgl 20 0 \$0-rule_5 \$0-set_5 empty 17 7 0 10 -262144
-1 -1 0 1;
#X obj 1216 137 tgl 20 0 \$0-rule_6 \$0-set_6 empty 17 7 0 10 -262144
-1 -1 0 1;
#X obj 1296 137 tgl 20 0 \$0-rule_7 \$0-set_7 empty 17 7 0 10 -262144
-1 -1 0 1;
#X text 726 114 1 1 1;
#X text 812 115 1 1 0;
#X text 896 116 1 0 1;
#X text 978 115 1 0 0;
#X text 1059 115 0 1 1;
#X text 1139 115 0 1 0;
#X text 1221 113 0 0 1;
#X text 1301 114 0 0 0;
#X obj 719 170 s \$0-1-4;
#X obj 803 170 s \$0-2-4;
#X obj 886 170 s \$0-3-4;
#X obj 968 170 s \$0-4-4;
#X obj 1049 170 s \$0-5-4;
#X obj 1132 170 s \$0-6-4;
#X obj 1216 170 s \$0-7-4;
#X obj 1296 170 s \$0-8-4;
#X obj 338 415 r \$0-size;
#X obj 288 60 i;
#X obj 66 527 t f f f f, f 20;
#X obj 175 496 r \$0-size;
#X obj 125 210 r \$0-metro;
#X obj 314 364 outlet the sum;
#X obj 375 316 r \$0-size;
#X msg 314 311 0;
#X obj 410 121 array size \$0-row_1;
#X obj 391 145 array size \$0-row_2;
#X obj 288 82 t f f f, f 12;
#X msg 84 368 0;
#X obj 157 550 + 1;
#X obj 66 549 - 1;
#X obj 66 571 %;
#X obj 157 572 %, f 5;
#N canvas 0 50 450 250 (subpatch) 0;
#X array \$0-row_1 15 float 3;
#A 0 0 0 0 0 0 0 0 0 0 0 0 0 0 0 0;
#X coords 0 1 15 -1 200 140 1 0 0;
#X restore 1098 469 graph;
#N canvas 0 50 450 250 (subpatch) 0;
#X array \$0-row_2 15 float 3;
#A 0 0 0 0 0 0 0 0 0 0 0 0 0 0 0 0;
#X coords 0 1 15 -1 200 140 1 0 0;
#X restore 1098 629 graph;
#X obj 66 496 +, f 13;
#X obj 111 570 %;
#X obj 398 582 t b b b;
#X msg 398 660 1;
#X obj 474 350 f;
#X obj 505 350 + 1;
#X obj 474 403 % 20;
#X obj 499 380 r \$0-loop;
#X obj 474 430 sel 0;
#X obj 506 500 array get \$0-row_2;
#X obj 506 561 array set \$0-row_1;
#X obj 398 714 array set \$0-row_1;
#X obj 459 584 r \$0-size;
#X obj 459 606 / 2;
#X obj 459 628 i;
#X obj 516 618 f \$0;
#X obj 459 656 f 8;
#X msg 516 646 \; \$1-row_1 const 0;
#X msg 554 538 0;
#X obj 66 340 t b b;
#X obj 206 280 t b b b b, f 31;
#X obj 31 36 route metro rule size loop switch, f 92;
#X obj 543 65 s \$0-switch;
#X obj 206 163 r \$0-switch;
#X obj 206 185 t f f, f 25;
#X msg 410 230 0;
#X obj 378 207 sel 1;
#X obj 206 259 spigot;
#X obj 314 342 array sum \$0-row_1;
#X obj 277 446 array get \$0-row_1;
#X obj 506 453 b;
#X msg 506 475 0;
#X obj 506 522 t l b;
#X obj 806 482 loadbang;
#X obj 806 504 \$0;
#X msg 806 526 \; \$1-row_1 const 0 \; \$1-row_2 const 0 \;;
#N canvas 4 50 1045 640 new-rule-filter 0;
#X obj 326 156 symbol;
#X obj 326 238 route 1-1-1 1-1-0 1-0-1 1-0-0 0-1-1 0-1-0 0-0-1 0-0-0
, f 70;
#X msg 326 134 \$1-\$2-\$3;
#X obj 326 178 pack s 1;
#X obj 326 200 route list;
#X obj 355 264 r \$0-1-4;
#X obj 326 291 f;
#X obj 326 264 b;
#X obj 385 312 f;
#X obj 385 285 b;
#X obj 445 341 f;
#X obj 445 314 b;
#X obj 504 362 f;
#X obj 504 335 b;
#X obj 546 391 f;
#X obj 546 364 b;
#X obj 605 412 f;
#X obj 605 385 b;
#X obj 665 441 f;
#X obj 665 414 b;
#X obj 724 462 f;
#X obj 724 435 b;
#X obj 326 343 s \$0-output;
#X obj 446 393 s \$0-output;
#X obj 546 443 s \$0-output;
#X obj 665 493 s \$0-output;
#X obj 336 478 r \$0-output;
#X obj 414 285 r \$0-2-4;
#X obj 474 315 r \$0-3-4;
#X obj 531 335 r \$0-4-4;
#X obj 575 364 r \$0-5-4;
#X obj 634 385 r \$0-6-4;
#X obj 694 414 r \$0-7-4;
#X obj 754 435 r \$0-8-4;
#X obj 336 500 outlet;
#X obj 341 81 inlet;
#X connect 0 0 3 0;
#X connect 1 0 7 0;
#X connect 1 1 9 0;
#X connect 1 2 11 0;
#X connect 1 3 13 0;
#X connect 1 4 15 0;
#X connect 1 5 17 0;
#X connect 1 6 19 0;
#X connect 1 7 21 0;
#X connect 2 0 0 0;
#X connect 3 0 4 0;
#X connect 4 0 1 0;
#X connect 5 0 6 1;
#X connect 6 0 22 0;
#X connect 7 0 6 0;
#X connect 8 0 22 0;
#X connect 9 0 8 0;
#X connect 10 0 23 0;
#X connect 11 0 10 0;
#X connect 12 0 23 0;
#X connect 13 0 12 0;
#X connect 14 0 24 0;
#X connect 15 0 14 0;
#X connect 16 0 24 0;
#X connect 17 0 16 0;
#X connect 18 0 25 0;
#X connect 19 0 18 0;
#X connect 20 0 25 0;
#X connect 21 0 20 0;
#X connect 26 0 34 0;
#X connect 27 0 8 1;
#X connect 28 0 10 1;
#X connect 29 0 12 1;
#X connect 30 0 14 1;
#X connect 31 0 16 1;
#X connect 32 0 18 1;
#X connect 33 0 20 1;
#X connect 35 0 2 0;
#X restore 66 807 pd new-rule-filter;
#X obj 214 570 %;
#X text 796 203 This code contains elements from the patch shared by
the user ‘booth’ here: https://forum.pdpatchrepo.info/topic/6942/1d-cellular-automata-to-midi-patch
, f 89;
#X connect 0 0 82 0;
#X connect 5 0 97 0;
#X connect 6 0 7 0;
#X connect 7 0 8 0;
#X connect 7 0 61 0;
#X connect 8 0 7 1;
#X connect 9 0 6 0;
#X connect 10 0 9 1;
#X connect 10 0 61 1;
#X connect 12 0 5 0;
#X connect 13 0 5 1;
#X connect 14 0 5 2;
#X connect 17 0 15 0;
#X connect 19 0 35 0;
#X connect 20 0 36 0;
#X connect 21 0 37 0;
#X connect 22 0 38 0;
#X connect 23 0 39 0;
#X connect 24 0 40 0;
#X connect 25 0 41 0;
#X connect 26 0 42 0;
#X connect 43 0 90 1;
#X connect 44 0 53 0;
#X connect 45 0 56 0;
#X connect 45 1 62 0;
#X connect 45 2 55 0;
#X connect 45 3 98 0;
#X connect 46 0 57 1;
#X connect 46 0 58 1;
#X connect 46 0 62 1;
#X connect 46 0 98 1;
#X connect 47 0 88 0;
#X connect 49 0 89 1;
#X connect 50 0 89 0;
#X connect 53 0 3 0;
#X connect 53 1 52 0;
#X connect 53 2 51 0;
#X connect 54 0 7 1;
#X connect 55 0 58 0;
#X connect 56 0 57 0;
#X connect 57 0 12 0;
#X connect 58 0 14 0;
#X connect 61 0 45 0;
#X connect 62 0 13 0;
#X connect 63 0 64 0;
#X connect 63 1 77 0;
#X connect 63 2 76 0;
#X connect 64 0 72 0;
#X connect 65 0 66 0;
#X connect 65 0 67 0;
#X connect 66 0 65 1;
#X connect 67 0 69 0;
#X connect 68 0 67 1;
#X connect 69 0 63 0;
#X connect 69 1 91 0;
#X connect 70 0 93 0;
#X connect 73 0 74 0;
#X connect 74 0 75 0;
#X connect 75 0 77 0;
#X connect 76 0 78 0;
#X connect 77 0 72 1;
#X connect 79 0 71 1;
#X connect 80 0 9 0;
#X connect 80 1 54 0;
#X connect 81 0 80 0;
#X connect 81 1 90 0;
#X connect 81 2 50 0;
#X connect 81 3 65 0;
#X connect 82 0 1 0;
#X connect 82 1 2 0;
#X connect 82 2 44 0;
#X connect 82 3 17 0;
#X connect 82 4 83 0;
#X connect 84 0 85 0;
#X connect 85 0 88 1;
#X connect 85 1 87 0;
#X connect 86 0 65 1;
#X connect 87 1 86 0;
#X connect 88 0 81 0;
#X connect 89 0 48 0;
#X connect 90 0 18 0;
#X connect 91 0 92 0;
#X connect 92 0 70 0;
#X connect 93 0 71 0;
#X connect 93 1 79 0;
#X connect 94 0 95 0;
#X connect 95 0 96 0;
#X connect 97 0 11 0;
#X connect 98 0 11 1;
