#N canvas 203 106 1643 907 10;
#X text 74 70 Sampler Manager;
#X obj 469 384 throw~ outL;
#X obj 367 384 throw~ outR;
#X obj 368 314 catch~ samp_voice_out;
#X obj 1478 416 i;
#X obj 1478 387 * 100;
#X obj 1567 385 change;
#X obj 651 576 + 1;
#X obj 650 603 i;
#X obj 746 668 s num-sixteenths;
#X obj 651 667 change -1;
#X obj 755 16 r aux;
#X obj 755 83 sel 1;
#X msg 644 113 0;
#X text 871 13 loop samples \, 1 per key \, at a specified multiple
of beat. leads to interesting polyrythms.;
#X obj 65 563 s are-you-playing;
#X obj 229 533 r i-am-playing;
#X text 127 488 check every quater note how many sounding;
#X msg 191 535 0;
#X obj 228 608 + 1;
#X obj 166 647 i, f 4;
#X obj 228 580 i 0;
#X obj 42 525 t b b b;
#X obj 42 501 metro 300;
#X obj 42 478 loadbang;
#X obj 1229 329 bang;
#X obj 1424 392 - 0.5;
#X obj 1394 459 i;
#X obj 1145 379 i;
#X obj 1146 401 abs;
#X obj 1145 251 detent 0.075, f 36;
#X obj 367 351 *~ 1;
#X obj 949 493 bng 15 250 50 0 empty empty empty 17 7 0 10 -262144
-1 -1;
#X obj 854 455 unpack 0 0;
#X obj 854 477 + 1;
#X obj 854 499 pack 0 0;
#X obj 992 441 loadbang;
#X obj 992 463 del 20;
#X obj 854 429 r ppb-tracker;
#X obj 166 692 s pb2-voice-sum;
#X msg 1229 351 ORIG;
#X msg 1394 481 symbol \$1%;
#X obj 1286 610 pack s s;
#X msg 1478 480 symbol \$1%;
#X msg 1286 636 Speed: \$1 | D: \$2;
#X obj 1567 407 bang;
#X msg 1146 425 symbol -\$1%;
#X obj 1478 530 t b s;
#X msg 1567 429 Off;
#X obj 1567 449 symbol;
#X obj 1478 360 moses 0.95;
#X obj 854 526 cg-print-kb 47;
#X obj 166 669 + 1;
#X text 804 39 aux tap pauses/plays the jam;
#X text 801 59 aux hold kills the jam;
#N canvas 669 72 450 300 press-n-hold 0;
#X obj 135 147 f;
#X obj 135 94 sel 1;
#X obj 120 54 t f f;
#X obj 135 173 sel 1;
#X obj 135 119 del 500;
#X obj 108 7 inlet;
#X obj 131 225 outlet;
#X text 184 17 aux button in;
#X text 200 213 bang if held for 1/2 second;
#X connect 0 0 3 0;
#X connect 1 0 4 0;
#X connect 2 0 1 0;
#X connect 2 1 0 1;
#X connect 3 0 6 0;
#X connect 4 0 0 0;
#X connect 5 0 2 0;
#X restore 621 64 pd press-n-hold;
#X obj 621 143 s cancel;
#X obj 755 327 s pause;
#X obj 755 286 tgl 15 0 empty empty empty 17 7 0 10 -262144 -1 -1 1
1;
#X obj 621 89 t b b b;
#X obj 786 217 t b b, f 9;
#X msg 786 239 1;
#X msg 850 239 0;
#X msg 885 165 1;
#X obj 786 195 spigot 1;
#X obj 895 83 r notes;
#X obj 895 105 stripnote;
#X obj 800 306 sel 0;
#X obj 651 554 * 15;
#X obj 780 121 r pb2-voice-sum;
#X obj 780 143 - 1;
#X obj 741 164 spigot;
#N canvas 6 50 1083 614 metronome 0;
#X obj 274 29 inlet;
#X obj 180 180 master-metronome;
#X obj 289 69 * 250;
#X obj 289 95 + 10;
#X obj 299 371 i;
#X obj 299 393 change -1;
#X obj 180 474 i;
#X obj 180 496 change -1;
#X obj 402 259 i;
#X obj 402 281 change -1;
#X obj 180 132 loadbang;
#X msg 180 155 1;
#X msg 180 520 \; screenLine3 4: Tempo \$1 BPM MIDI \;;
#X msg 299 417 \; screenLine3 4: Tempo \$1 BPM \;;
#X msg 401 308 \; screenLine3 4: Tempo \$1 BPM LINK \;;
#X connect 0 0 2 0;
#X connect 1 0 6 0;
#X connect 1 1 4 0;
#X connect 1 2 8 0;
#X connect 2 0 3 0;
#X connect 3 0 1 1;
#X connect 4 0 5 0;
#X connect 5 0 13 0;
#X connect 6 0 7 0;
#X connect 7 0 12 0;
#X connect 8 0 9 0;
#X connect 9 0 14 0;
#X connect 10 0 11 0;
#X connect 11 0 1 0;
#X restore 512 577 pd metronome;
#N canvas 4 50 1279 802 led-flasher 0;
#X obj 707 340 r quarters;
#X obj 747 366 r reset-metronome;
#X msg 837 551 \; led 7;
#X obj 743 511 delay 100;
#X msg 707 660 \; led 0;
#X obj 707 635 delay 100;
#X msg 739 599 \; led 6;
#X obj 707 451 sel 0 1 2 3, f 21;
#X text 802 402 flash led on quarter and half notes;
#X obj 788 423 s halfnotes;
#X obj 707 397 counter-up 4;
#X obj 927 482 r pause;
#X obj 927 504 ==;
#X obj 838 529 spigot;
#X obj 888 529 spigot;
#X msg 743 538 \; led 0;
#X obj 743 482 t b b, f 14;
#X msg 887 551 \; led 1;
#X obj 707 573 t b b;
#X connect 0 0 10 0;
#X connect 1 0 10 1;
#X connect 3 0 15 0;
#X connect 5 0 4 0;
#X connect 7 0 18 0;
#X connect 7 1 16 0;
#X connect 7 2 16 0;
#X connect 7 3 16 0;
#X connect 10 0 7 0;
#X connect 10 1 9 0;
#X connect 11 0 12 0;
#X connect 11 0 13 1;
#X connect 12 0 14 1;
#X connect 13 0 2 0;
#X connect 14 0 17 0;
#X connect 16 0 3 0;
#X connect 16 1 13 0;
#X connect 16 1 14 0;
#X connect 18 0 5 0;
#X connect 18 1 6 0;
#X restore 496 475 pd led-flasher;
#X obj 512 553 r knob4;
#X obj 651 532 r knob1;
#X msg 651 695 \; screenLine1 1: Div \$1 Sixteenths \;;
#X obj 1286 658 s screenLine2;
#X obj 1145 218 r knob2;
#X obj 1283 325 s knob2-detent;
#X obj 1478 337 r knob3;
#X obj 19 104 sampler-voice 1.wav 0;
#X obj 1394 431 * 200;
#X obj 1145 330 * 200;
#X obj 1145 355 - 200;
#X obj 186 106 sampler-voice 9.wav 8;
#X obj 358 272 sampler-voice 24.wav 23;
#X obj 182 270 sampler-voice 16.wav 15;
#X obj 360 104 sampler-voice 17.wav 16;
#X obj 358 200 sampler-voice 21.wav 20;
#X obj 19 222 sampler-voice 6.wav 5;
#X obj 19 175 sampler-voice 4.wav 3;
#X obj 19 128 sampler-voice 2.wav 1;
#X obj 19 151 sampler-voice 3.wav 2;
#X obj 19 199 sampler-voice 5.wav 4;
#X obj 19 245 sampler-voice 7.wav 6;
#X obj 18 268 sampler-voice 8.wav 7;
#X obj 185 128 sampler-voice 10.wav 9;
#X obj 185 151 sampler-voice 11.wav 10;
#X obj 184 174 sampler-voice 12.wav 11;
#X obj 184 197 sampler-voice 13.wav 12;
#X obj 183 221 sampler-voice 14.wav 13;
#X obj 182 246 sampler-voice 15.wav 14;
#X obj 359 128 sampler-voice 18.wav 17;
#X obj 359 152 sampler-voice 19.wav 18;
#X obj 359 176 sampler-voice 20.wav 19;
#X obj 358 224 sampler-voice 22.wav 21;
#X obj 358 248 sampler-voice 23.wav 22;
#X connect 3 0 31 0;
#X connect 4 0 43 0;
#X connect 5 0 4 0;
#X connect 6 0 45 0;
#X connect 7 0 8 0;
#X connect 8 0 10 0;
#X connect 8 0 9 0;
#X connect 10 0 76 0;
#X connect 11 0 12 0;
#X connect 11 0 55 0;
#X connect 12 0 71 0;
#X connect 13 0 58 0;
#X connect 16 0 21 0;
#X connect 18 0 21 1;
#X connect 18 0 20 1;
#X connect 19 0 21 1;
#X connect 19 0 20 1;
#X connect 20 0 52 0;
#X connect 21 0 19 0;
#X connect 22 0 20 0;
#X connect 22 1 15 0;
#X connect 22 2 18 0;
#X connect 23 0 22 0;
#X connect 24 0 23 0;
#X connect 25 0 40 0;
#X connect 27 0 41 0;
#X connect 28 0 29 0;
#X connect 29 0 46 0;
#X connect 30 0 79 0;
#X connect 30 0 83 0;
#X connect 30 1 25 0;
#X connect 30 1 79 0;
#X connect 30 2 26 0;
#X connect 30 2 79 0;
#X connect 30 2 82 0;
#X connect 31 0 1 0;
#X connect 31 0 2 0;
#X connect 32 0 51 1;
#X connect 33 0 34 0;
#X connect 33 1 35 1;
#X connect 34 0 35 0;
#X connect 35 0 51 0;
#X connect 36 0 37 0;
#X connect 37 0 51 1;
#X connect 38 0 33 0;
#X connect 40 0 42 0;
#X connect 41 0 42 0;
#X connect 42 0 44 0;
#X connect 43 0 47 0;
#X connect 44 0 77 0;
#X connect 45 0 48 0;
#X connect 46 0 42 0;
#X connect 47 0 42 0;
#X connect 47 1 42 1;
#X connect 48 0 49 0;
#X connect 49 0 47 0;
#X connect 50 0 5 0;
#X connect 50 1 6 0;
#X connect 52 0 39 0;
#X connect 55 0 59 0;
#X connect 58 0 57 0;
#X connect 58 0 67 0;
#X connect 59 0 56 0;
#X connect 59 1 13 0;
#X connect 60 0 61 0;
#X connect 60 1 62 0;
#X connect 61 0 58 0;
#X connect 62 0 64 1;
#X connect 63 0 64 1;
#X connect 64 0 60 0;
#X connect 65 0 66 0;
#X connect 66 0 64 0;
#X connect 67 0 63 0;
#X connect 68 0 7 0;
#X connect 69 0 70 0;
#X connect 70 0 71 1;
#X connect 71 0 58 0;
#X connect 74 0 72 0;
#X connect 75 0 68 0;
#X connect 78 0 30 0;
#X connect 80 0 50 0;
#X connect 82 0 27 0;
#X connect 83 0 84 0;
#X connect 84 0 28 0;
