#N canvas 275 163 990 559 10;
#X floatatom 504 172 5 0 0 0 - - -, f 5;
#N canvas 18 64 450 300 getNumSounds 0;
#X obj 121 100 folder_list;
#X msg 120 58 symbol ./Sounds/*.wav;
#X obj 121 149 i 0;
#X obj 122 171 + 1;
#X obj 119 127 bang;
#X obj 124 -1 loadbang;
#X obj 124 21 t b b;
#X msg 183 132 0;
#X obj 121 208 outlet;
#X connect 0 0 4 0;
#X connect 1 0 0 0;
#X connect 2 0 3 0;
#X connect 3 0 2 1;
#X connect 3 0 8 0;
#X connect 4 0 2 0;
#X connect 5 0 6 0;
#X connect 6 0 1 0;
#X connect 6 1 7 0;
#X connect 7 0 2 1;
#X restore 504 150 pd getNumSounds;
#N canvas 22 50 1066 883 recorder-player 0;
#X obj 263 478 tgl 50 0 empty empty empty 17 7 0 100 -262144 -1 -1
0 1;
#X floatatom 330 559 5 0 0 0 - - -, f 5;
#X obj 464 586 player 0;
#X floatatom 536 562 5 0 0 0 - - -, f 5;
#X obj 466 486 tgl 50 0 empty empty empty 17 7 0 100 -262144 -1 -1
0 1;
#X obj 316 245 tgl 50 0 empty empty empty 17 7 0 100 -262144 -1 -1
0 1;
#X obj 391 465 + 1, f 4;
#X msg 270 438 1;
#X obj 304 325 sel 1 0;
#X msg 309 438 0;
#X msg 509 446 0;
#X msg 473 446 1;
#X obj 333 372 t b b b b;
#X obj 337 132 r aux;
#X obj 325 203 sel 1;
#X obj 350 160 r fs, f 5;
#X obj 490 394 t b b f;
#X obj 405 31 r notes;
#X obj 448 352 toggle-keys;
#X obj 422 58 stripnote;
#X obj 421 84 moses 60;
#X obj 456 115 moses 84;
#X obj 404 618 sel 0 1;
#X obj 205 597 sel 1;
#X msg 195 656 \; led 1;
#X msg 444 650 \; led 3;
#X msg 390 649 \; led 0;
#X obj 393 118 t b b;
#X obj 351 460 i 1;
#X obj 498 214 abs;
#X obj 366 433 t b f;
#X obj 394 542 ==;
#X obj 263 582 recorder 1;
#X obj 396 588 spigot 1;
#X obj 297 611 r looped;
#X obj 254 684 delay 100;
#X msg 237 628 stop;
#X msg 326 676 \; led 7;
#X obj 321 645 spigot 1;
#X msg 496 672 \; screenLine5 Playing \$1.wav \;;
#X obj 491 648 f;
#X obj 162 678 f;
#X msg 165 709 \; screenLine5 Recording \$1.wav \;;
#X msg 383 709 \; screenLine5 Stopped \;;
#X msg 409 147 60;
#X obj 280 388 t b b;
#X msg 695 474 \; screenLine5 Stopped \;;
#X obj 695 446 loadbang;
#X obj 367 411 r numSoundsAtStartup;
#X obj 312 507 s currentNumSounds;
#X obj 554 233 r currentNumSounds;
#X obj 510 258 i;
#X obj 500 235 t b f;
#X obj 511 280 -;
#X obj 495 181 - 60;
#X obj 476 302 moses 1;
#X msg 600 368 \; screenLine5 No more recordings! \;;
#X obj 62 690 s timerReset;
#X obj 30 714 s timerStart;
#X obj 30 662 t b b;
#X obj 361 791 s timerReset;
#X obj 329 763 t b b;
#X obj 329 815 s timerStop;
#X obj 507 784 s timerReset;
#X obj 475 808 s timerStart;
#X obj 475 756 t b b;
#X connect 0 0 23 0;
#X connect 0 0 31 0;
#X connect 0 0 32 0;
#X connect 1 0 32 1;
#X connect 1 0 41 1;
#X connect 3 0 2 1;
#X connect 3 0 40 1;
#X connect 4 0 2 0;
#X connect 4 0 33 0;
#X connect 5 0 8 0;
#X connect 6 0 1 0;
#X connect 6 0 28 1;
#X connect 7 0 0 0;
#X connect 8 0 45 0;
#X connect 8 1 12 0;
#X connect 9 0 0 0;
#X connect 10 0 4 0;
#X connect 11 0 4 0;
#X connect 12 0 27 0;
#X connect 12 1 28 0;
#X connect 12 2 10 0;
#X connect 12 3 9 0;
#X connect 13 0 14 0;
#X connect 14 0 5 0;
#X connect 15 0 14 0;
#X connect 16 0 11 0;
#X connect 16 1 10 0;
#X connect 16 2 3 0;
#X connect 17 0 19 0;
#X connect 18 0 10 0;
#X connect 18 1 16 0;
#X connect 19 0 20 0;
#X connect 20 1 21 0;
#X connect 21 0 54 0;
#X connect 22 0 26 0;
#X connect 22 0 43 0;
#X connect 22 0 61 0;
#X connect 22 1 25 0;
#X connect 22 1 40 0;
#X connect 22 1 65 0;
#X connect 23 0 24 0;
#X connect 23 0 36 0;
#X connect 23 0 41 0;
#X connect 23 0 59 0;
#X connect 27 0 44 0;
#X connect 27 1 18 1;
#X connect 28 0 6 0;
#X connect 28 0 49 0;
#X connect 29 0 52 0;
#X connect 30 0 28 0;
#X connect 30 1 28 1;
#X connect 31 0 33 1;
#X connect 31 0 38 1;
#X connect 33 0 22 0;
#X connect 34 0 38 0;
#X connect 35 0 25 0;
#X connect 36 0 35 0;
#X connect 38 0 37 0;
#X connect 38 0 35 0;
#X connect 38 0 65 0;
#X connect 40 0 39 0;
#X connect 41 0 42 0;
#X connect 44 0 54 0;
#X connect 45 0 7 0;
#X connect 45 1 10 0;
#X connect 47 0 46 0;
#X connect 48 0 30 0;
#X connect 50 0 51 1;
#X connect 51 0 53 0;
#X connect 52 0 51 0;
#X connect 52 1 53 1;
#X connect 53 0 55 0;
#X connect 54 0 29 0;
#X connect 55 0 56 0;
#X connect 55 1 18 0;
#X connect 59 0 58 0;
#X connect 59 1 57 0;
#X connect 61 0 62 0;
#X connect 61 1 60 0;
#X connect 65 0 64 0;
#X connect 65 1 63 0;
#X restore 504 126 pd recorder-player;
#X text 375 38 Recorder;
#X obj 502 314 loadbang;
#X obj 504 193 s numSoundsAtStartup;
#X obj 504 222 r currentNumSounds;
#X floatatom 504 251 5 0 0 0 - - -, f 5;
#X obj 406 291 sig~;
#X obj 396 339 *~;
#X obj 406 268 r knob1;
#X obj 405 313 lop~ 20;
#X obj 141 342 r~ inL;
#X obj 154 395 *~;
#N canvas 1037 117 594 672 timer 0;
#X floatatom 257 486 5 0 0 0 - - -, f 5;
#X obj 182 465 % 60;
#X floatatom 182 489 5 0 0 0 - - -, f 5;
#X obj 107 468 % 24;
#X floatatom 107 495 5 0 0 0 - - -, f 5;
#X obj 101 550 pack 0 0 0;
#X obj 174 403 t f f f;
#X obj 211 358 i;
#X obj 124 98 bng 15 250 50 0 empty empty empty 17 7 0 10 -262144 -1
-1;
#X obj 431 124 bng 15 250 50 0 empty empty empty 17 7 0 10 -262144
-1 -1;
#X obj 250 359 + 1;
#X obj 285 77 bng 15 250 50 0 empty empty empty 17 7 0 10 -262144 -1
-1;
#X obj 124 69 r timerStart;
#X obj 445 85 r timerStop;
#X obj 290 40 r timerReset;
#X obj 131 240 tgl 15 0 empty empty empty 17 7 0 10 -262144 -1 -1 0
1;
#X obj 137 281 metro 1000;
#X obj 256 454 % 60;
#X obj 182 443 / 60;
#X obj 107 446 / 3600;
#X msg 111 176 1;
#X msg 398 182 0;
#X obj 269 110 t b b b;
#X msg 305 275 0;
#X msg 257 278 0;
#X msg 124 591 \; screenLine4 Time \$1 : \$2 : \$3 \;;
#X connect 0 0 5 2;
#X connect 1 0 2 0;
#X connect 2 0 5 1;
#X connect 3 0 4 0;
#X connect 4 0 5 0;
#X connect 6 0 19 0;
#X connect 6 1 18 0;
#X connect 6 2 17 0;
#X connect 7 0 10 0;
#X connect 7 0 6 0;
#X connect 8 0 20 0;
#X connect 9 0 21 0;
#X connect 10 0 7 1;
#X connect 11 0 22 0;
#X connect 12 0 8 0;
#X connect 13 0 9 0;
#X connect 14 0 11 0;
#X connect 15 0 16 0;
#X connect 16 0 7 0;
#X connect 17 0 0 0;
#X connect 18 0 1 0;
#X connect 19 0 3 0;
#X connect 20 0 15 0;
#X connect 21 0 15 0;
#X connect 22 0 24 0;
#X connect 22 1 23 0;
#X connect 22 2 21 0;
#X connect 23 0 7 1;
#X connect 24 0 6 0;
#X restore 502 281 pd timer;
#X obj 725 192 r knob1;
#X obj 725 214 * 101;
#X obj 725 236 i;
#X obj 725 258 change -1;
#X msg 726 286 \; screenLine1 1: Monitor \$1 %;
#X msg 502 338 \; screenLine1 1: Monitor \; screenLine2 2: x \; screenLine3
3: x \; screenLine4 4: x \;;
#X obj 126 98 r~ inL;
#X obj 252 96 r~ inR;
#X obj 90 299 catch~ playeroutL;
#X obj 125 131 s~ recorderinL;
#X obj 251 124 s~ recorderinR;
#X obj 120 478 throw~ outL;
#X obj 316 387 *~;
#X obj 303 334 r~ inR;
#X obj 252 291 catch~ playeroutR;
#X obj 282 470 throw~ outR;
#X connect 0 0 5 0;
#X connect 1 0 0 0;
#X connect 4 0 20 0;
#X connect 6 0 7 0;
#X connect 8 0 11 0;
#X connect 9 0 13 1;
#X connect 9 0 27 1;
#X connect 10 0 8 0;
#X connect 11 0 9 0;
#X connect 11 0 9 1;
#X connect 12 0 13 0;
#X connect 13 0 26 0;
#X connect 15 0 16 0;
#X connect 16 0 17 0;
#X connect 17 0 18 0;
#X connect 18 0 19 0;
#X connect 21 0 24 0;
#X connect 22 0 25 0;
#X connect 23 0 26 0;
#X connect 27 0 30 0;
#X connect 28 0 27 0;
#X connect 29 0 30 0;
