#N canvas 4 66 1722 964 10;
#X obj 541 816 bng 15 250 50 0 empty empty empty 17 7 0 10 -262144
-1 -1;
#X obj 570 912 qlist;
#X msg 410 720 rewind;
#X obj 638 913 bng 15 250 50 0 empty empty empty 17 7 0 10 -262144
-1 -1;
#X obj 747 373 r notes;
#X obj 686 630 timer;
#X obj 726 504 unpack;
#X obj 663 753 pack s 0 s 0 0;
#X msg 648 680 add;
#X obj 663 792 route list;
#X msg 732 664 symbol notes_seq;
#X obj 686 548 t b b b b f;
#X obj 748 460 spigot 0;
#X obj 841 352 tgl 15 0 empty empty empty 17 7 0 10 -262144 -1 -1 0
1;
#X msg 774 860 clear;
#X obj 901 504 bng 15 250 50 0 empty empty empty 17 7 0 10 -262144
-1 -1;
#X obj 644 279 bng 15 250 50 0 empty empty empty 17 7 0 10 -262144
-1 -1;
#X msg 644 304 0 0;
#X obj 88 434 loadbang;
#X obj 609 164 bng 15 250 50 0 empty empty empty 17 7 0 10 -262144
-1 -1;
#X text 606 213 rec stop;
#X obj 897 539 bang;
#X obj 889 413 sel 1;
#X obj 605 242 t b b b;
#X msg 687 266 0;
#X obj 786 548 t f;
#X msg 916 217 1;
#X obj 89 460 f \$1;
#X obj 89 488 makefilename ./layer%d.txt;
#X msg 156 547 read \$1;
#X msg 516 435 write \$1;
#X obj 468 299 f \$1;
#X obj 466 351 makefilename ./layer%d.txt;
#X obj 948 157 bng 15 250 50 0 empty empty empty 17 7 0 10 -262144
-1 -1;
#X obj 641 -169 spigot 0;
#X obj 639 -200 r seq-looped;
#X obj 772 -240 tgl 15 0 empty empty empty 17 7 0 10 -262144 -1 -1
0 1;
#X obj 726 -57 f 0;
#X obj 801 -59 + 1;
#X obj 785 -152 sel 1;
#X msg 789 -97 0;
#X obj 772 -203 t f f;
#X obj 711 28 bng 15 250 50 0 empty empty empty 17 7 0 10 -262144 -1
-1;
#X obj 782 29 bng 15 250 50 0 empty empty empty 17 7 0 10 -262144 -1
-1;
#X obj 720 -7 sel 0 1;
#X obj 722 70 t b b;
#X obj 285 395 r stop;
#X text 813 -265 start reco on next loop;
#X obj 767 -309 inlet;
#X obj 460 628 r start;
#X obj 68 643 r seq-clear-layers;
#X msg 169 716 clear;
#X obj 68 683 t b b b;
#X msg 123 751 add 1000 blah empty layer;
#X obj 953 730 r blah;
#X text 960 709 so qlist doesn't complain;
#X msg 765 -271 1;
#X msg 1436 718 4: Feedback \$1 %;
#X obj 1435 741 s screenLine4;
#X msg 985 268 \; screenLine5 Recording Layer \$1;
#X obj 970 205 f \$1;
#X msg 1092 214 \; led 1;
#X obj 1039 182 delay 110;
#X msg 935 -53 \; led 2;
#X obj 888 -43 f \$1;
#X msg 888 -11 \; screenLine5 Layer \$1 comin up;
#X msg 181 307 \; screenLine5 Playing;
#X msg 957 -172 0;
#X obj 428 -275 r stop;
#X obj 1011 420 s layer-rec-stat;
#X obj 841 381 t f f f;
#X msg 542 -194 0;
#X msg 1040 151 stop;
#X text 1149 179 delay so it turns red after flashing;
#X obj 428 -253 t b b b;
#X msg 1357 317 1;
#X obj 838 -131 t b b b;
#X text 1139 425 this gets set to one wether rec enabled or recording
;
#X text 1163 450 used to prevent other layers getting enabled at same
time;
#X connect 0 0 1 0;
#X connect 1 1 3 0;
#X connect 2 0 1 0;
#X connect 3 0 0 0;
#X connect 4 0 12 0;
#X connect 5 0 7 1;
#X connect 6 0 11 0;
#X connect 6 1 25 0;
#X connect 7 0 9 0;
#X connect 8 0 7 0;
#X connect 9 0 1 0;
#X connect 10 0 7 2;
#X connect 11 0 5 0;
#X connect 11 1 8 0;
#X connect 11 2 5 1;
#X connect 11 3 10 0;
#X connect 11 4 7 3;
#X connect 12 0 6 0;
#X connect 13 0 70 0;
#X connect 14 0 1 0;
#X connect 15 0 21 0;
#X connect 16 0 17 0;
#X connect 17 0 6 0;
#X connect 18 0 27 0;
#X connect 19 0 23 0;
#X connect 19 0 31 0;
#X connect 19 0 66 0;
#X connect 21 0 5 0;
#X connect 21 0 14 0;
#X connect 22 0 15 0;
#X connect 23 1 16 0;
#X connect 23 2 24 0;
#X connect 24 0 13 0;
#X connect 25 0 7 4;
#X connect 26 0 13 0;
#X connect 27 0 28 0;
#X connect 28 0 29 0;
#X connect 29 0 1 0;
#X connect 30 0 1 0;
#X connect 31 0 32 0;
#X connect 32 0 30 0;
#X connect 33 0 26 0;
#X connect 33 0 60 0;
#X connect 33 0 62 0;
#X connect 34 0 37 0;
#X connect 35 0 34 0;
#X connect 36 0 41 0;
#X connect 37 0 38 0;
#X connect 37 0 44 0;
#X connect 38 0 37 1;
#X connect 39 0 76 0;
#X connect 40 0 37 1;
#X connect 41 0 34 1;
#X connect 41 1 39 0;
#X connect 42 0 33 0;
#X connect 43 0 45 0;
#X connect 43 0 67 0;
#X connect 44 0 42 0;
#X connect 44 1 43 0;
#X connect 45 0 0 0;
#X connect 45 1 19 0;
#X connect 46 0 2 0;
#X connect 48 0 56 0;
#X connect 49 0 0 0;
#X connect 50 0 52 0;
#X connect 51 0 1 0;
#X connect 52 0 31 0;
#X connect 52 1 53 0;
#X connect 52 2 51 0;
#X connect 53 0 1 0;
#X connect 56 0 36 0;
#X connect 57 0 58 0;
#X connect 60 0 59 0;
#X connect 62 0 61 0;
#X connect 64 0 65 0;
#X connect 67 0 36 0;
#X connect 68 0 74 0;
#X connect 70 0 12 1;
#X connect 70 1 22 0;
#X connect 70 2 69 0;
#X connect 71 0 36 0;
#X connect 72 0 62 0;
#X connect 74 0 72 0;
#X connect 74 1 71 0;
#X connect 74 2 34 0;
#X connect 75 0 69 0;
#X connect 76 0 40 0;
#X connect 76 1 63 0;
#X connect 76 1 64 0;
#X connect 76 2 75 0;
