#N canvas 856 99 874 721 10;
#X obj 109 31 inlet;
#X text 283 43 arg 1: waveform name;
#X obj 219 238 f 0;
#X obj 219 267 i;
#X obj 219 189 until;
#X msg 219 163 128;
#X msg 293 183 0;
#X obj 219 327 * 0.5;
#X obj 219 349 + 0.5;
#X obj 219 398 * 64;
#X obj 219 421 i;
#X obj 139 623 s oscOut;
#X obj 544 500 t l;
#X obj 145 531 list append;
#X obj 145 577 list trim;
#X obj 441 499 list prepend;
#X obj 250 238 + 34;
#X obj 219 298 tabread \$1;
#X obj 352 185 array size \$1;
#X obj 352 207 / 128;
#X obj 202 30 bng 15 250 50 0 empty empty empty 17 7 0 10 -262144 -1
-1;
#X msg 589 565 /oled/gClear 0 1;
#X msg 145 480 sendtyped /oled/gWaveform ib 0;
#X obj 219 371 * -1;
#X msg 32 503 /oled/gFlip 3;
#X obj 115 86 t b b;
#X obj 147 117 t b b b b b b b b, f 56;
#X msg 621 525 /oled/gShowInfoBar 0 0;
#X obj 589 494 t b b;
#X obj 574 48 inlet;
#X obj 596 104 symbol;
#X msg 597 153 set \$1;
#X obj 574 70 t b a;
#X connect 0 0 25 0;
#X connect 2 0 3 0;
#X connect 2 0 16 0;
#X connect 3 0 17 0;
#X connect 4 0 2 0;
#X connect 5 0 4 0;
#X connect 6 0 2 1;
#X connect 7 0 8 0;
#X connect 8 0 23 0;
#X connect 9 0 10 0;
#X connect 10 0 15 0;
#X connect 12 0 15 1;
#X connect 13 0 14 0;
#X connect 14 0 11 0;
#X connect 15 0 13 1;
#X connect 15 0 12 0;
#X connect 16 0 2 1;
#X connect 17 0 7 0;
#X connect 18 0 19 0;
#X connect 19 0 16 1;
#X connect 20 0 25 0;
#X connect 21 0 11 0;
#X connect 22 0 13 0;
#X connect 23 0 9 0;
#X connect 24 0 11 0;
#X connect 25 0 24 0;
#X connect 25 1 26 0;
#X connect 26 1 22 0;
#X connect 26 2 5 0;
#X connect 26 3 6 0;
#X connect 26 4 18 0;
#X connect 26 5 15 0;
#X connect 26 6 15 1;
#X connect 26 7 28 0;
#X connect 27 0 11 0;
#X connect 28 0 21 0;
#X connect 28 1 27 0;
#X connect 29 0 32 0;
#X connect 30 0 18 1;
#X connect 30 0 31 0;
#X connect 31 0 17 0;
#X connect 32 0 25 0;
#X connect 32 1 30 0;
