#N canvas 260 50 878 757 10;
#X obj 221 550 throw~ outL;
#X obj 307 548 throw~ outR;
#N canvas 24 50 718 582 arrays 0;
#X obj 378 216 cg-load-array dj-1;
#X obj 97 210 folder_list;
#X obj 97 261 f;
#X obj 130 261 + 1;
#X obj 97 138 t b b, f 9;
#X msg 157 162 0;
#X msg 97 185 symbol sounds/*.*;
#X msg 97 334 \; dj-\$1-repoint \$2;
#X obj 97 233 t b a, f 13;
#X obj 97 283 + 1;
#X obj 97 112 loadbang;
#X obj 185 270 strippath;
#X obj 97 310 pack 0 s;
#X obj 55 83 bng 15 250 50 0 empty empty empty 17 7 0 10 -262144 -1
-1;
#X text 78 85 manually reload samples;
#X text 220 138 get contents of sounds folder and load the first 10
to the arrays. samples are loaded alphabetically accroding to the OG's
operating system;
#X obj 376 441 cg-load-array dj-9;
#X obj 377 271 cg-load-array dj-3;
#X obj 377 301 cg-load-array dj-4;
#X obj 377 329 cg-load-array dj-5;
#X obj 376 359 cg-load-array dj-6;
#X obj 376 389 cg-load-array dj-7;
#X obj 376 416 cg-load-array dj-8;
#X obj 376 469 cg-load-array dj-10;
#X obj 378 241 cg-load-array dj-2;
#X connect 1 0 8 0;
#X connect 2 0 3 0;
#X connect 2 0 9 0;
#X connect 3 0 2 1;
#X connect 4 0 6 0;
#X connect 4 1 5 0;
#X connect 5 0 2 1;
#X connect 6 0 1 0;
#X connect 8 0 2 0;
#X connect 8 1 11 0;
#X connect 9 0 12 0;
#X connect 10 0 4 0;
#X connect 11 0 12 1;
#X connect 12 0 7 0;
#X connect 13 0 4 0;
#X restore 226 115 pd arrays;
#X obj 225 265 r aux;
#X obj 275 265 r fs;
#X obj 225 287 sel 1;
#X obj 275 287 sel 1;
#X obj 225 318 tgl 15 0 empty empty empty 17 7 0 10 -262144 -1 -1 0
1;
#X obj 225 438 s \$0-on-off;
#X obj 248 414 s led;
#X obj 248 344 sel 0 1;
#X msg 288 378 3;
#X msg 248 378 0;
#X text 370 378 led lights;
#X text 300 116 load the samples into arrays to be read by the dualing
loopers;
#X obj 221 508 catch~ dj-main;
#N canvas 36 50 1533 821 the 0;
#N canvas 843 91 1060 804 deck2 0;
#X msg 399 532 0;
#X msg 209 304 read \$1;
#X msg 290 392 speed \$1;
#X obj 310 336 t b a;
#X obj 290 369 *;
#X obj 290 288 r \$0-deck1-speed;
#X msg 537 432 length 1;
#X obj 60 165 inlet on/off;
#X obj 537 407 loadbang;
#X obj 607 110 inlet repoint;
#X obj 512 111 inlet speed;
#X obj 300 41 inlet read, f 23;
#X obj 473 354 list prepend repoint;
#X obj 473 376 route list;
#X msg 58 317 switch \$1;
#X obj 60 190 sel 0 1;
#X obj 89 254 t f b;
#X msg 60 212 0;
#X msg 90 212 1, f 4;
#X obj 398 619 outlet~;
#X obj 113 35 inlet~ table 1 position;
#X obj 332 117 snapshot~;
#X obj 300 84 t f b;
#X obj 300 147 +;
#X obj 300 171 wrap;
#X obj 190 184 f, f 4;
#X msg 121 278 0;
#X obj 190 153 t b a;
#X obj 190 206 +, f 6;
#X obj 300 208 t f b b, f 14;
#X obj 290 675 *~;
#X obj 309 645 vline~;
#X obj 257 248 pipe 5.5;
#X obj 347 246 del 5.6;
#X msg 309 619 0 5 \, 1 5 6;
#X obj 290 705 outlet~;
#X obj 290 553 cg-looper dj-1, f 16;
#X connect 0 0 36 1;
#X connect 1 0 36 0;
#X connect 2 0 36 0;
#X connect 3 0 4 0;
#X connect 3 1 4 1;
#X connect 4 0 2 0;
#X connect 5 0 4 0;
#X connect 6 0 36 0;
#X connect 7 0 15 0;
#X connect 8 0 6 0;
#X connect 9 0 12 0;
#X connect 10 0 3 0;
#X connect 11 0 22 0;
#X connect 11 0 25 1;
#X connect 12 0 13 0;
#X connect 13 0 36 0;
#X connect 14 0 36 0;
#X connect 15 0 17 0;
#X connect 15 1 18 0;
#X connect 16 0 14 0;
#X connect 16 1 26 0;
#X connect 17 0 14 0;
#X connect 18 0 16 0;
#X connect 20 0 21 0;
#X connect 21 0 23 1;
#X connect 22 0 23 0;
#X connect 22 1 21 0;
#X connect 23 0 24 0;
#X connect 24 0 29 0;
#X connect 25 0 28 0;
#X connect 26 0 27 0;
#X connect 27 0 25 0;
#X connect 27 1 28 1;
#X connect 28 0 24 0;
#X connect 29 0 32 0;
#X connect 29 1 33 0;
#X connect 29 2 34 0;
#X connect 30 0 35 0;
#X connect 31 0 30 1;
#X connect 32 0 1 0;
#X connect 33 0 0 0;
#X connect 34 0 31 0;
#X connect 36 0 30 0;
#X connect 36 1 19 0;
#X restore 774 533 pd deck2;
#X obj 1116 275 r knob4;
#X obj 1116 339 int;
#X obj 788 288 r notes;
#N canvas 697 50 1061 805 deck1 0;
#X msg 385 532 0;
#X msg 209 304 read \$1;
#X msg 287 388 speed \$1;
#X msg 126 407 switch \$1;
#X msg 537 432 length 1;
#X obj 59 159 inlet on/off;
#X obj 537 407 loadbang;
#X obj 525 115 inlet repoint;
#X obj 430 116 inlet speed;
#X obj 290 625 outlet~;
#X obj 218 136 inlet read, f 23;
#X obj 292 326 t a a;
#X obj 323 356 s \$0-deck1-speed;
#X obj 487 617 outlet~, f 17;
#X obj 473 354 list prepend repoint;
#X obj 473 376 route list;
#X obj 128 280 sel 0 1;
#X obj 157 344 t f b;
#X msg 128 302 0;
#X msg 158 302 1, f 4;
#X obj 290 553 cg-looper dj-1, f 18;
#X connect 0 0 20 1;
#X connect 1 0 20 0;
#X connect 2 0 20 0;
#X connect 3 0 20 0;
#X connect 4 0 20 0;
#X connect 5 0 16 0;
#X connect 6 0 4 0;
#X connect 7 0 14 0;
#X connect 8 0 11 0;
#X connect 10 0 1 0;
#X connect 11 0 2 0;
#X connect 11 1 12 0;
#X connect 14 0 15 0;
#X connect 15 0 20 0;
#X connect 16 0 18 0;
#X connect 16 1 19 0;
#X connect 17 0 3 0;
#X connect 17 1 0 0;
#X connect 18 0 3 0;
#X connect 19 0 17 0;
#X connect 20 0 9 0;
#X connect 20 1 13 0;
#X restore 203 439 pd deck1;
#X obj 872 419 r \$0-sample-sel;
#X obj 282 371 r \$0-sample-sel;
#X obj 197 306 loadbang;
#X msg 197 328 0;
#X obj 580 329 r \$0-on-off;
#N canvas 131 80 1204 812 print-things 0;
#X obj 462 154 bng 15 250 50 0 empty empty empty 17 7 0 10 -262144
-1 -1;
#X obj 286 246 * 126;
#X obj 286 268 i;
#X obj 465 583 s oscOut;
#X obj 494 418 list;
#X obj 465 550 t a a, f 18;
#X obj 494 440 route list;
#X msg 519 391 0;
#X text 516 568 previous area to invert(erase);
#X text 553 392 erase old session list;
#X msg 358 523 /oled/gFlip 3;
#X obj 448 386 t a b, f 7;
#X obj 433 425 t b a;
#X obj 462 174 t b b;
#X obj 462 204 array-waveform-print dj-5;
#X msg 634 146 dj-\$1;
#X obj 634 37 r knob1;
#X obj 634 81 i;
#X obj 634 168 t a a b, f 12;
#X obj 674 197 s \$0-sample-sel;
#X obj 634 103 + 1;
#X obj 634 59 * 9;
#X text 696 94 select 1 - 10 samples;
#X obj 734 217 s \$0-erase-playhead;
#X obj 494 234 s \$0-erase-playhead;
#X obj 519 361 r \$0-erase-playhead;
#X obj 634 125 change -1;
#X obj 286 71 inlet;
#X msg 465 523 /oled/gInvertArea 3 \$1 14 3 40;
#X msg 671 274 \; \$1-get-name bang;
#X obj 1292 256 r return-name;
#X obj 671 251 symbol;
#X obj 1292 437 route list;
#X obj 1292 462 t b a, f 17;
#X obj 899 620 s oscOut;
#X msg 1292 487 /oled/gFlip 3;
#X obj 1292 277 t a b;
#X msg 1324 375 /oled/gFillArea 3 0 0 127 8 0;
#X obj 1292 406 list prepend /oled/gPrintln 3 0 0 8 1;
#X obj 1342 297 t b b;
#X msg 1374 323 stop;
#X obj 1342 348 del 1000;
#X msg 700 40 1;
#X obj 1131 131 inlet;
#X obj 762 439 t a a b, f 10;
#X obj 1131 153 * 100;
#X obj 1131 175 i;
#X obj 815 468 list, f 5;
#X obj 815 490 route list;
#X obj 761 390 pack 0 0;
#X obj 761 363 - 4;
#X obj 286 290 t f f, f 11;
#X msg 816 541 /oled/gPrintln 3 \$1 5 8 0 \$2%;
#X msg 762 518 /oled/gPrintln 3 \$1 5 8 1 \$2%;
#X connect 0 0 13 0;
#X connect 1 0 2 0;
#X connect 2 0 51 0;
#X connect 4 0 6 0;
#X connect 5 0 3 0;
#X connect 5 1 4 1;
#X connect 6 0 3 0;
#X connect 7 0 4 1;
#X connect 10 0 3 0;
#X connect 11 0 12 0;
#X connect 11 1 4 0;
#X connect 12 0 10 0;
#X connect 12 1 28 0;
#X connect 13 0 14 0;
#X connect 13 1 24 0;
#X connect 15 0 18 0;
#X connect 16 0 21 0;
#X connect 17 0 20 0;
#X connect 18 0 14 1;
#X connect 18 0 31 0;
#X connect 18 1 19 0;
#X connect 18 2 23 0;
#X connect 20 0 26 0;
#X connect 21 0 17 0;
#X connect 25 0 7 0;
#X connect 26 0 15 0;
#X connect 27 0 1 0;
#X connect 28 0 5 0;
#X connect 30 0 36 0;
#X connect 31 0 29 0;
#X connect 32 0 33 0;
#X connect 33 0 35 0;
#X connect 33 1 34 0;
#X connect 35 0 34 0;
#X connect 36 0 38 0;
#X connect 36 1 37 0;
#X connect 36 1 39 0;
#X connect 37 0 34 0;
#X connect 38 0 32 0;
#X connect 39 0 41 0;
#X connect 39 1 40 0;
#X connect 40 0 41 0;
#X connect 41 0 37 0;
#X connect 42 0 21 0;
#X connect 43 0 45 0;
#X connect 44 0 53 0;
#X connect 44 1 47 1;
#X connect 44 2 47 0;
#X connect 45 0 46 0;
#X connect 46 0 49 1;
#X connect 47 0 48 0;
#X connect 48 0 52 0;
#X connect 49 0 44 0;
#X connect 50 0 49 0;
#X connect 51 0 11 0;
#X connect 51 1 50 0;
#X connect 52 0 34 0;
#X connect 53 0 34 0;
#X restore 481 669 pd print-things and knob1;
#X obj 955 109 r knob2;
#X obj 984 140 * 100;
#X obj 984 162 i;
#X msg 984 184 Xfade:;
#X obj 203 651 *~;
#X obj 774 763 *~;
#X obj 275 536 *~;
#X obj 275 558 *~;
#X obj 221 587 sig~ 1;
#X obj 221 609 -~, f 8;
#X obj 844 673 *~;
#X obj 844 695 *~;
#X msg 844 601 1 \$1;
#X obj 844 623 -;
#X obj 791 714 sig~ 1;
#X obj 791 736 -~, f 8;
#X obj 773 799 throw~ dj-main;
#X obj 202 678 throw~ dj-main;
#X obj 844 717 *~;
#X obj 275 580 *~;
#N canvas 627 148 1140 768 print-deck2 0;
#X obj 286 236 * 126;
#X obj 294 258 i;
#X obj 571 722 s oscOut;
#X obj 514 502 list;
#X obj 456 610 t a a, f 18;
#X obj 514 524 route list;
#X msg 663 113 0;
#X text 465 626 previous area to invert(erase);
#X text 697 114 erase old session list;
#X obj 663 55 r \$0-erase-playhead;
#X obj 468 469 t a b, f 7;
#X obj 915 136 inlet;
#X obj 845 471 t a a b, f 10;
#X obj 416 389 t b a a a, f 44;
#X obj 286 280 change -1;
#X obj 915 158 * 100;
#X obj 915 180 i;
#X obj 898 500 list, f 5;
#X obj 898 522 route list;
#X obj 844 422 pack 0 0;
#X obj 286 101 inlet;
#X msg 456 583 /oled/gInvertArea 3 \$1 14 1 40;
#X msg 845 550 /oled/gPrintln 3 \$1 56 8 1 \$2%;
#X msg 899 573 /oled/gPrintln 3 \$1 56 8 0 \$2%;
#X obj 849 395 - 4;
#X obj 827 186 r \$0-on-off;
#X obj 827 208 sel 0 1;
#X msg 858 230 0;
#X msg 827 230 1;
#X obj 740 264 spigot;
#X obj 384 248 b;
#X connect 0 0 1 0;
#X connect 1 0 14 0;
#X connect 1 0 30 0;
#X connect 3 0 5 0;
#X connect 4 0 2 0;
#X connect 4 1 3 1;
#X connect 5 0 2 0;
#X connect 6 0 3 1;
#X connect 6 0 17 1;
#X connect 9 0 6 0;
#X connect 10 0 21 0;
#X connect 10 1 3 0;
#X connect 11 0 15 0;
#X connect 12 0 22 0;
#X connect 12 1 17 1;
#X connect 12 2 17 0;
#X connect 13 1 10 0;
#X connect 13 3 24 0;
#X connect 14 0 13 0;
#X connect 15 0 16 0;
#X connect 16 0 19 1;
#X connect 17 0 18 0;
#X connect 18 0 23 0;
#X connect 19 0 12 0;
#X connect 20 0 0 0;
#X connect 21 0 4 0;
#X connect 22 0 2 0;
#X connect 23 0 2 0;
#X connect 24 0 19 0;
#X connect 25 0 26 0;
#X connect 26 0 28 0;
#X connect 26 1 27 0;
#X connect 27 0 29 1;
#X connect 28 0 29 1;
#X connect 29 0 19 0;
#X connect 30 0 29 0;
#X restore 576 632 pd print-deck2;
#X obj 291 133 r knob3;
#X obj 873 488 t f f;
#X obj 576 604 snapshot~;
#X obj 481 553 metro 100;
#X obj 481 505 loadbang;
#X msg 481 527 1;
#X obj 517 527 s \$0-erase-playhead;
#X obj 481 575 t b b, f 14;
#X obj 481 603 snapshot~;
#N canvas 7 50 873 630 notes-in 0;
#X obj 268 105 stripnote;
#X obj 268 198 - 72;
#X obj 268 150 % 24;
#X obj 268 174 + 60;
#X obj 268 127 - 12;
#X obj 268 222 * 0.0625;
#X obj 268 82 inlet;
#X obj 268 336 outlet;
#X text 337 221 splits the keyboard into 1/16 steps;
#X text 326 144 wraps midi in to 60-83;
#X connect 0 0 4 0;
#X connect 1 0 5 0;
#X connect 2 0 3 0;
#X connect 3 0 1 0;
#X connect 4 0 2 0;
#X connect 5 0 7 0;
#X connect 6 0 0 0;
#X restore 788 314 pd notes-in;
#X obj 955 232 s \$0-xfade-control;
#X obj 841 576 r \$0-xfade-control;
#X obj 273 491 r \$0-xfade-control;
#X obj 1116 361 * 0.0625;
#X obj 1116 297 * 64;
#X obj 1116 319 - 32;
#X obj 275 514 lop~ 200;
#X obj 844 652 lop~ 200;
#X obj 580 351 t f f;
#X obj 846 347 xtra-saver notes;
#X obj 955 309 loadbang;
#X obj 284 223 int;
#X obj 284 245 * 0.0625;
#X obj 284 181 * 64;
#X obj 284 203 - 32;
#X obj 284 267 t f f;
#X msg 693 176 -0.0945;
#X connect 0 0 16 0;
#X connect 0 1 34 0;
#X connect 1 0 46 0;
#X connect 2 0 45 0;
#X connect 3 0 41 0;
#X connect 4 0 15 0;
#X connect 4 1 40 0;
#X connect 4 1 0 1;
#X connect 5 0 0 4;
#X connect 6 0 4 3;
#X connect 7 0 8 0;
#X connect 8 0 4 1;
#X connect 9 0 50 0;
#X connect 11 0 12 0;
#X connect 11 0 42 0;
#X connect 12 0 13 0;
#X connect 13 0 14 0;
#X connect 15 0 28 0;
#X connect 16 0 27 0;
#X connect 17 0 18 0;
#X connect 17 0 18 1;
#X connect 18 0 30 0;
#X connect 18 0 30 1;
#X connect 19 0 20 0;
#X connect 20 0 15 1;
#X connect 21 0 22 0;
#X connect 21 0 22 1;
#X connect 22 0 29 0;
#X connect 22 0 29 1;
#X connect 23 0 24 0;
#X connect 24 0 49 0;
#X connect 25 0 26 0;
#X connect 26 0 16 1;
#X connect 29 0 26 1;
#X connect 30 0 20 1;
#X connect 32 0 55 0;
#X connect 33 0 0 3;
#X connect 33 1 31 1;
#X connect 34 0 31 0;
#X connect 35 0 39 0;
#X connect 36 0 37 0;
#X connect 36 0 38 0;
#X connect 37 0 35 0;
#X connect 39 0 40 0;
#X connect 39 1 34 0;
#X connect 40 0 10 0;
#X connect 41 0 51 0;
#X connect 41 0 0 2;
#X connect 43 0 23 0;
#X connect 44 0 48 0;
#X connect 45 0 33 0;
#X connect 46 0 47 0;
#X connect 47 0 2 0;
#X connect 48 0 17 0;
#X connect 48 0 17 1;
#X connect 49 0 21 0;
#X connect 49 0 21 1;
#X connect 50 0 4 0;
#X connect 50 1 0 0;
#X connect 51 0 0 2;
#X connect 52 0 51 1;
#X connect 53 0 54 0;
#X connect 54 0 57 0;
#X connect 55 0 56 0;
#X connect 56 0 53 0;
#X connect 57 0 4 2;
#X connect 57 1 10 1;
#X connect 58 0 0 2;
#X connect 58 0 51 0;
#X restore 222 204 pd the two 'decks';
#X text 228 10 The Dj-Patch;
#X text 229 35 a 'beat juggling' patch. two looper play together with
different speeds and play positions;
#X text 335 510 catch the signal send out;
#X text 376 203 the guts of this patch;
#X connect 3 0 5 0;
#X connect 4 0 6 0;
#X connect 5 0 7 0;
#X connect 6 0 7 0;
#X connect 7 0 8 0;
#X connect 7 0 10 0;
#X connect 10 0 12 0;
#X connect 10 1 11 0;
#X connect 11 0 9 0;
#X connect 12 0 9 0;
#X connect 15 0 0 0;
#X connect 15 0 1 0;
