#N canvas 274 153 772 517 10;
#X obj 156 49 inlet;
#X obj 179 372 s oscOut;
#X msg 96 223 /oled/gFlip 3;
#X obj 156 182 t b a b;
#X obj 202 208 f \$1;
#X msg 156 71 \$1%;
#X obj 396 49 inlet;
#X obj 419 372 s oscOut;
#X msg 336 223 /oled/gFlip 3, f 11;
#X obj 396 182 t b a b;
#X obj 442 208 f \$1;
#X msg 396 71 \$1%;
#X msg 179 332 /oled/gPrintln 3 0 \$1 8 1 \$2 \$3, f 16;
#X obj 179 279 list prepend \$1 \$2;
#X obj 419 279 list prepend \$1 \$3;
#X msg 202 236 /oled/gFillArea 3 0 \$1 64 8 0, f 17;
#X msg 419 332 /oled/gPrintln 3 65 \$1 8 1 \$2 \$3, f 16;
#X msg 442 236 /oled/gFillArea 3 65 \$1 63 8 0, f 17;
#X connect 0 0 5 0;
#X connect 2 0 1 0;
#X connect 3 0 2 0;
#X connect 3 1 13 0;
#X connect 3 2 4 0;
#X connect 4 0 15 0;
#X connect 5 0 3 0;
#X connect 6 0 11 0;
#X connect 8 0 7 0;
#X connect 9 0 8 0;
#X connect 9 1 14 0;
#X connect 9 2 10 0;
#X connect 10 0 17 0;
#X connect 11 0 9 0;
#X connect 12 0 1 0;
#X connect 13 0 12 0;
#X connect 14 0 16 0;
#X connect 15 0 1 0;
#X connect 16 0 7 0;
#X connect 17 0 7 0;
