#N canvas 10 50 1507 1020 10;
#X obj 291 -92 r notes;
#X obj 291 -61 stripnote;
#X obj 291 6 % 24;
#X obj 291 -16 abs;
#X obj 291 -39 expr if ($f1 > 59 \, $f1 - 60 \, $f1 - 12);
#X obj 608 653 r knob4;
#X obj 526 752 hip~ 5;
#X text 589 756 cut DC;
#X obj 193 105 r sixteenths;
#X obj 291 127 tgl 15 0 empty empty empty 17 7 0 10 -262144 -1 -1 0
1;
#X obj 193 325 spigot, f 13;
#X obj 193 378 counter-up 16, f 35;
#X obj 355 276 sel 1;
#X obj 323 242 t f f;
#X obj 314 306 t b b, f 10;
#X obj 453 308 r num-sixteenths;
#X obj 435 338 i;
#X obj 435 410 bng 15 250 50 0 empty empty empty 17 7 0 10 -262144
-1 -1;
#X obj 352 64 r cancel;
#X msg 352 87 0;
#X obj 71 337 sel 1;
#X obj 71 378 s start-metro;
#X obj 291 154 t f f;
#X text 476 175 loop the sound the presc;
#X text 576 -39 allow all midi notes to trigger;
#X obj 505 235 i;
#X obj 505 258 sel 1;
#X obj 505 281 s i-am-playing;
#X obj 505 196 r are-you-playing;
#X obj 274 530 makenote 100 200;
#X obj 274 499 + 60;
#X obj 274 564 noteout 1;
#X text 453 407 trigger;
#X obj 528 576 r~ inL;
#X text 579 574 signal;
#X obj 528 618 *~, f 16;
#X obj 638 533 vline~;
#X msg 638 492 1 5;
#X msg 677 492 0 5;
#X obj 677 450 del 25;
#X floatatom 728 449 5 0 0 0 - - -, f 5;
#X obj 291 29 sel \$1;
#X text 334 29 (key number);
#X obj 274 470 f \$1;
#X obj 527 681 delay2sec \$1;
#X obj 526 797 throw~ delay_voice_out;
#X obj 716 383 * \$1;
#X obj 716 334 *;
#X obj 716 302 r knob3;
#X obj 716 356 * 100;
#X obj 716 405 + 2;
#X obj 527 716 *~ 0.7;
#X connect 0 0 1 0;
#X connect 1 0 4 0;
#X connect 2 0 41 0;
#X connect 3 0 2 0;
#X connect 4 0 3 0;
#X connect 5 0 44 2;
#X connect 6 0 45 0;
#X connect 8 0 10 0;
#X connect 9 0 22 0;
#X connect 9 0 25 1;
#X connect 10 0 11 0;
#X connect 11 1 17 0;
#X connect 12 0 14 0;
#X connect 13 0 10 1;
#X connect 13 1 12 0;
#X connect 14 0 11 1;
#X connect 14 1 16 0;
#X connect 15 0 16 1;
#X connect 16 0 11 2;
#X connect 17 0 37 0;
#X connect 17 0 39 0;
#X connect 17 0 43 0;
#X connect 18 0 19 0;
#X connect 19 0 9 0;
#X connect 20 0 21 0;
#X connect 22 0 20 0;
#X connect 22 1 13 0;
#X connect 25 0 26 0;
#X connect 26 0 27 0;
#X connect 28 0 25 0;
#X connect 29 0 31 0;
#X connect 29 1 31 1;
#X connect 30 0 29 0;
#X connect 33 0 35 0;
#X connect 35 0 44 0;
#X connect 36 0 35 1;
#X connect 37 0 36 0;
#X connect 38 0 36 0;
#X connect 39 0 38 0;
#X connect 41 0 9 0;
#X connect 43 0 30 0;
#X connect 44 0 51 0;
#X connect 46 0 50 0;
#X connect 47 0 49 0;
#X connect 48 0 47 0;
#X connect 48 0 47 1;
#X connect 49 0 46 0;
#X connect 50 0 39 1;
#X connect 50 0 44 1;
#X connect 50 0 40 0;
#X connect 51 0 6 0;
