#N canvas 1041 341 539 678 10;
#X obj 164 130 inlet~;
#X obj 162 496 outlet~;
#X text 217 129 signal;
#X obj 164 385 clip~ -0.5 0.5;
#X obj 274 130 inlet;
#X obj 164 291 *~;
#X floatatom 329 300 5 0 0 0 - - -, f 5;
#X obj 274 226 * 200;
#X obj 274 185 *;
#X obj 163 443 *~ 0.15;
#X connect 0 0 5 0;
#X connect 3 0 9 0;
#X connect 4 0 8 1;
#X connect 4 0 8 0;
#X connect 5 0 3 0;
#X connect 7 0 5 1;
#X connect 7 0 6 0;
#X connect 8 0 7 0;
#X connect 9 0 1 0;
