#N canvas 495 192 1162 779 10;
#X obj 449 20 inlet;
#X obj 449 41 unpack 0 0 0 0, f 60;
#X text 576 17 winSize \, att \, rest \, wait(in windows);
#X msg 449 62 winSize \$1;
#X obj 449 83 s \$0-all;
#X obj 568 84 s \$0-all;
#X msg 568 63 att \$1;
#X obj 687 85 s \$0-all;
#X msg 687 64 rest \$1;
#X obj 806 86 s \$0-all;
#X msg 806 65 wait \$1;
#X obj 267 125 r messages-2-locks;
#X obj 251 316 unpack 0 0;
#X obj 167 667 f;
#X msg 324 373 sampLength \$1;
#X obj 432 222 unpack 0 0;
#X obj 451 300 v;
#X obj 432 252 t a b a;
#X obj 432 371 pack 0 0;
#X obj 324 491 cg-chopper \$1 \$2 \$3 \$4;
#X msg 471 275 symbol loop-\$1-AB;
#X obj 267 146 route analyze stop;
#X msg 561 523 stop;
#X obj 267 190 t a a b, f 28;
#X msg 620 421 init bang;
#X msg 432 410 rePoint \$1 \$2;
#X obj 205 624 t b a;
#X obj 167 688 pack 0 0;
#X msg 167 729 \; loop-\$1-update \$2;
#X msg 218 573 symbol loop-\$1-position;
#X obj 205 601 v;
#X obj 324 552 spigot 1;
#X msg 324 630 \; loop-\$1-update 0;
#X obj 137 504 t a a a b, f 19;
#X obj 273 474 1;
#X obj 324 593 f 0;
#X obj 414 572 0;
#X obj 542 490 t b b b;
#X connect 0 0 1 0;
#X connect 1 0 3 0;
#X connect 1 1 6 0;
#X connect 1 2 8 0;
#X connect 1 3 10 0;
#X connect 3 0 4 0;
#X connect 6 0 5 0;
#X connect 8 0 7 0;
#X connect 10 0 9 0;
#X connect 11 0 21 0;
#X connect 12 0 33 0;
#X connect 12 1 14 0;
#X connect 13 0 27 0;
#X connect 14 0 19 0;
#X connect 15 0 17 0;
#X connect 16 0 18 1;
#X connect 17 0 18 0;
#X connect 17 1 16 0;
#X connect 17 2 20 0;
#X connect 18 0 25 0;
#X connect 19 0 31 0;
#X connect 20 0 16 1;
#X connect 21 0 23 0;
#X connect 21 1 37 0;
#X connect 22 0 19 0;
#X connect 23 0 12 0;
#X connect 23 1 15 0;
#X connect 23 2 24 0;
#X connect 24 0 19 0;
#X connect 25 0 19 0;
#X connect 26 0 13 0;
#X connect 26 1 27 1;
#X connect 29 0 30 1;
#X connect 30 0 26 0;
#X connect 31 0 35 0;
#X connect 33 0 13 1;
#X connect 33 1 29 0;
#X connect 33 2 35 1;
#X connect 33 3 34 0;
#X connect 34 0 31 1;
#X connect 36 0 31 1;
#X connect 37 0 30 0;
#X connect 37 1 22 0;
#X connect 37 2 36 0;
