#N canvas 4 50 450 300 10;
#X obj 45 17 inlet;
#X obj 141 121 s loop-pos-live-switch;
#X obj 56 222 spigot 0;
#X obj 101 173 f 1;
#X text 89 13 1-4 \, 0 off;
#X obj 45 44 sel 0, f 12;
#X obj 45 95 f 0;
#X obj 56 149 r loop-position-live;
#X obj 114 97 t b a;
#X obj 56 243 outlet;
#X obj 190 15 r stop-live-position;
#X obj 190 36 t b;
#X connect 0 0 5 0;
#X connect 2 0 9 0;
#X connect 3 0 2 1;
#X connect 5 0 6 0;
#X connect 5 1 8 0;
#X connect 6 0 2 1;
#X connect 7 0 2 0;
#X connect 8 0 3 0;
#X connect 8 1 1 0;
#X connect 10 0 11 0;
#X connect 11 0 6 0;
