#N canvas 4 54 1664 778 10;
#X obj 557 453 s oscOut;
#X obj 330 706 s oscOut;
#X obj 103 20 r glob-play-status;
#X obj 103 248 f;
#X obj 206 86 r cgSc-1-mute-print;
#X obj 275 196 == 0;
#X obj 206 111 t a a, f 12;
#X obj 206 165 del 1, f 6;
#X obj 206 141 sel 0;
#X obj 103 271 spigot 1;
#X obj 103 53 route \$1;
#X text 481 29 Arg1: track num;
#X text 498 85 arg2: x;
#X text 498 107 arg3: y;
#X obj 557 370 f \$2;
#X obj 784 383 f \$2;
#X obj 557 397 pack 0 \$3 \$1;
#X msg 557 428 /oled/gPrintln 3 \$1 \$2 8 1 \$3:;
#X obj 330 553 f \$2;
#X obj 330 528 t b b, f 15;
#X obj 417 554 f \$3;
#X obj 330 621 pack 0 0;
#X obj 330 578 + 16;
#X obj 784 360 t b b;
#X obj 829 383 f \$3;
#X obj 784 431 pack 0 0;
#X obj 829 404 - 1;
#X obj 784 404 - 1;
#X msg 330 665 /oled/gFilledCircle 3 \$1 \$2 3 1;
#X obj 417 579 + 3;
#X obj 104 709 s oscOut;
#X msg 104 680 /oled/gFlip 3 1;
#N canvas 4 50 995 728 play-stop-mute-clear 0;
#X obj 276 357 cg-draw-play-arrow;
#X obj 276 261 f \$2;
#X obj 276 282 + 13;
#X obj 153 229 f \$2;
#X obj 153 250 + 13;
#X obj 153 271 pack 0 \$3;
#X msg 153 395 /oled/gBox 3 \$1 \$2 8 8 1;
#X obj 654 325 f \$2;
#X obj 654 346 + 13;
#X obj 654 367 pack 0 \$3;
#X msg 654 409 /oled/gPrintln 3 \$1 \$2 8 1 X;
#X obj 311 688 s oscOut;
#X obj 410 293 f \$2;
#X obj 410 314 + 13;
#X obj 410 335 pack 0 \$3;
#X msg 410 403 /oled/gPrintln 3 \$1 \$2 8 1 M;
#X obj 304 86 inlet;
#X obj 276 224 t b b;
#X obj 276 305 pack 0 0;
#X obj 321 251 f \$3;
#X msg 276 331 \$1 \$2 9 8;
#X obj 321 273 - 1;
#X obj 153 188 sel 0 1 4 3, f 62;
#X connect 1 0 2 0;
#X connect 2 0 18 0;
#X connect 3 0 4 0;
#X connect 4 0 5 0;
#X connect 5 0 6 0;
#X connect 6 0 11 0;
#X connect 7 0 8 0;
#X connect 8 0 9 0;
#X connect 9 0 10 0;
#X connect 10 0 11 0;
#X connect 12 0 13 0;
#X connect 13 0 14 0;
#X connect 14 0 15 0;
#X connect 15 0 11 0;
#X connect 16 0 22 0;
#X connect 17 0 1 0;
#X connect 17 1 19 0;
#X connect 18 0 20 0;
#X connect 19 0 21 0;
#X connect 20 0 0 0;
#X connect 21 0 18 1;
#X connect 22 0 3 0;
#X connect 22 1 17 0;
#X connect 22 2 12 0;
#X connect 22 3 7 0;
#X restore 357 487 pd play-stop-mute-clear;
#X obj 330 457 sel 2;
#X text 427 469 0 \, 1 \, 3 \, 4;
#X text 655 185 if mute is on only print mute to avoid confusion;
#X obj 330 359 t b f, f 15;
#N canvas 4 50 851 536 check-rec 0;
#X obj 61 158 v;
#X msg 88 130 symbol loop-\$1-rec-status;
#X obj 61 68 t b b;
#X obj 88 99 f \$1;
#X obj 61 179 sel 1, f 15;
#X obj 61 39 inlet;
#X obj 61 200 2;
#X obj 61 221 outlet;
#X obj 150 207 t b;
#X obj 150 228 outlet;
#X connect 0 0 4 0;
#X connect 1 0 0 1;
#X connect 2 0 0 0;
#X connect 2 1 3 0;
#X connect 3 0 1 0;
#X connect 4 0 6 0;
#X connect 4 1 8 0;
#X connect 5 0 2 0;
#X connect 6 0 7 0;
#X connect 8 0 9 0;
#X restore 330 386 pd check-rec;
#X obj 399 410 f;
#X obj 103 319 t b f b b, f 114;
#X msg 784 456 /oled/gFillArea 3 \$1 \$2 24 10 0;
#X obj 103 74 t b a, f 10;
#X obj 103 123 list store;
#X obj 103 95 del \$2;
#X connect 2 0 10 0;
#X connect 3 0 9 0;
#X connect 4 0 6 0;
#X connect 5 0 9 1;
#X connect 6 0 8 0;
#X connect 6 1 5 0;
#X connect 7 0 3 0;
#X connect 8 0 7 0;
#X connect 9 0 39 0;
#X connect 10 0 41 0;
#X connect 14 0 16 0;
#X connect 15 0 27 0;
#X connect 16 0 17 0;
#X connect 17 0 0 0;
#X connect 18 0 22 0;
#X connect 19 0 18 0;
#X connect 19 1 20 0;
#X connect 20 0 29 0;
#X connect 21 0 28 0;
#X connect 22 0 21 0;
#X connect 23 0 15 0;
#X connect 23 1 24 0;
#X connect 24 0 26 0;
#X connect 25 0 40 0;
#X connect 26 0 25 1;
#X connect 27 0 25 0;
#X connect 28 0 1 0;
#X connect 29 0 21 1;
#X connect 31 0 30 0;
#X connect 33 0 19 0;
#X connect 33 1 32 0;
#X connect 36 0 37 0;
#X connect 36 1 38 1;
#X connect 37 0 33 0;
#X connect 37 1 38 0;
#X connect 38 0 33 0;
#X connect 39 1 36 0;
#X connect 39 2 14 0;
#X connect 39 3 23 0;
#X connect 40 0 1 0;
#X connect 41 0 43 0;
#X connect 41 1 42 1;
#X connect 42 0 3 0;
#X connect 43 0 42 0;
