#N canvas 327 145 789 587 10;
#X declare -path cg-pd-library-local/sampling;
#X declare -path cg-pd-library-local/sequencer;
#X declare -path cg-pd-library-local/externals;
#X declare -path cg-pd-library-local/metronome;
#N canvas 4 50 552 392 load 0;
#X obj 67 34 loadbang;
#X obj 127 148 s resize-arrays;
#X obj 142 118 s load-text-files;
#X obj 82 238 s recall-params;
#X obj 112 176 s load-arrays;
#X obj 97 205 s init-analyze;
#X obj 60 267 s load-line5;
#X obj 149 15 bng 15 250 50 0 empty empty empty 17 7 0 10 -262144 -1
-1;
#X obj 157 312 s cgSc-1-mute-print;
#X obj 154 278 0;
#X obj 67 55 t b b b b b b;
#X connect 0 0 10 0;
#X connect 7 0 10 0;
#X connect 9 0 8 0;
#X connect 10 0 6 0;
#X connect 10 0 9 0;
#X connect 10 1 3 0;
#X connect 10 2 5 0;
#X connect 10 3 4 0;
#X connect 10 4 1 0;
#X connect 10 5 2 0;
#X restore 53 77 pd load;
#N canvas 748 183 625 625 metro-here 0;
#X obj 54 303 s beat-clock;
#X obj 54 32 loadbang;
#X obj 187 33 inlet;
#X text 225 34 bpm;
#X msg 54 53 1;
#X obj 321 183 sel 1 2 3 4, f 26;
#X msg 321 222 BPM;
#X msg 397 222 LINK;
#X msg 358 222 MIDI;
#X msg 454 221 OFF;
#X obj 54 81 metronome360 1, f 45;
#X obj 297 345 pack 0 s;
#X obj 347 269 symbol;
#X obj 187 286 s bpm;
#X msg 297 465 k4: Tempo: \$1 \$2;
#X obj 297 496 s tempo-print-line;
#X obj 187 224 t a a;
#X obj 297 374 t a a, f 9;
#X obj 297 425 spigot;
#X obj 348 426 spigot;
#X obj 400 382 == 0;
#X obj 371 308 r k-4-loop-fix;
#X msg 422 464 k4: Tempo: \$1 \$2!;
#X obj 373 348 t b a a;
#X obj 321 15 r global-bpm-reSync;
#X obj 446 15 r global-bpm-reStart;
#X msg 321 36 sync bang;
#X msg 446 36 reStart bang;
#X connect 1 0 4 0;
#X connect 2 0 10 1;
#X connect 4 0 10 0;
#X connect 5 0 6 0;
#X connect 5 1 8 0;
#X connect 5 2 7 0;
#X connect 5 3 9 0;
#X connect 6 0 12 0;
#X connect 7 0 12 0;
#X connect 8 0 12 0;
#X connect 9 0 12 0;
#X connect 10 0 0 0;
#X connect 10 1 16 0;
#X connect 10 2 5 0;
#X connect 11 0 17 0;
#X connect 12 0 11 1;
#X connect 14 0 15 0;
#X connect 16 0 13 0;
#X connect 16 1 11 0;
#X connect 17 0 18 0;
#X connect 17 1 19 0;
#X connect 18 0 14 0;
#X connect 19 0 22 0;
#X connect 20 0 19 1;
#X connect 21 0 23 0;
#X connect 22 0 15 0;
#X connect 23 0 11 0;
#X connect 23 1 18 1;
#X connect 23 2 20 0;
#X connect 24 0 26 0;
#X connect 25 0 27 0;
#X connect 26 0 10 2;
#X connect 27 0 10 2;
#X restore 527 190 pd metro-here;
#X text 102 77 init sequence;
#X text 194 108 critter library of abstractions;
#N canvas 85 358 1415 642 shortcuts 0;
#X obj 1337 62 r cgSc-1-1;
#X obj 1337 83 sel 0;
#X obj 1364 106 t b;
#X obj 239 567 s cgSc-1-1label;
#X obj 197 330 r recall-params;
#X obj 239 367 r rec-start;
#X obj 239 459 sel 0 1, f 25;
#X msg 314 520 Recording;
#X obj 538 53 r cgSc-1-6;
#X obj 538 74 sel 0;
#X obj 565 97 t b;
#X obj 565 118 f 1;
#X obj 597 119 + 1;
#X obj 597 140 == 1;
#X obj 565 169 t f f, f 12;
#X obj 565 220 sel 0 1, f 14;
#X obj 634 192 s metro-flash;
#X msg 565 281 Flash: Off;
#X msg 605 252 Flash: On;
#X obj 788 83 sel 0;
#X obj 815 106 t b;
#X obj 815 127 f 1;
#X obj 847 128 + 1;
#X obj 847 149 == 1;
#X obj 815 178 t f f, f 12;
#X obj 815 229 sel 0 1, f 14;
#X obj 788 62 r cgSc-1-7;
#X obj 884 202 s metro-sound;
#X msg 855 261 Tick: On;
#X msg 815 290 Tick: Off;
#X obj 565 309 s cgSc-1-6label;
#X obj 815 318 s cgSc-1-7label;
#X obj 1017 48 sel 0;
#X obj 1044 71 t b;
#X obj 1044 92 f 1;
#X obj 1076 93 + 1;
#X obj 1076 114 == 1;
#X obj 1044 143 t f f, f 12;
#X obj 1044 194 sel 0 1, f 14;
#X obj 1044 283 s cgSc-1-8label;
#X obj 1017 27 r cgSc-1-8;
#X obj 1113 167 s monitor;
#X obj 481 25 r load-text-files;
#X obj 757 37 r load-text-files;
#X obj 967 4 r load-text-files;
#X msg 1084 226 Montr: On;
#X msg 1044 255 Montr: Off;
#X obj 102 271 t b;
#N canvas 723 162 759 601 shortcut-9 0;
#X obj 55 57 sel 0;
#X obj 55 36 r cgSc-1-9;
#X obj 99 211 s bounce-the-tracks!;
#X obj 445 113 r load-text-files;
#X obj 445 169 s cgSc-1-9label;
#X obj 82 83 spigot 1;
#X obj 215 117 0;
#X obj 82 110 t b b b b;
#X obj 82 258 del 5000;
#X obj 116 166 s cgSc-1-9label;
#X obj 82 279 t b b, f 14;
#X obj 82 350 s cgSc-1-9label;
#X obj 379 105 1;
#X msg 116 145 Stems: X;
#X msg 82 320 Stems: _;
#X msg 445 139 Stems: _;
#X connect 0 1 5 0;
#X connect 1 0 0 0;
#X connect 3 0 15 0;
#X connect 5 0 7 0;
#X connect 6 0 5 1;
#X connect 7 0 8 0;
#X connect 7 1 2 0;
#X connect 7 2 13 0;
#X connect 7 3 6 0;
#X connect 8 0 10 0;
#X connect 10 0 14 0;
#X connect 10 1 12 0;
#X connect 12 0 5 1;
#X connect 13 0 9 0;
#X connect 14 0 11 0;
#X connect 15 0 4 0;
#X restore 855 429 pd shortcut-9;
#X obj 45 192 r loop-set-record;
#X obj 45 213 unpack 0 0;
#X obj 102 240 sel 0;
#X obj 1397 192 r sc-page-change;
#X obj 1364 238 spigot;
#X obj 1397 213 == 0;
#N canvas 723 162 895 545 shortcut-10 0;
#X obj 68 4 sel 0;
#X obj 68 -17 r cgSc-1-10;
#X obj 98 333 s cgSc-1-10label;
#X obj 95 57 t b;
#X obj 216 256 r load-text-files;
#X obj 95 86 s record-a-mixdown;
#X obj 147 157 r recordinG-a-mixdown;
#X obj 147 178 sel 0 2 1;
#X obj 174 254 t b;
#X msg 98 301 MixDn: On;
#X msg 174 301 MixDn: Off;
#X connect 0 1 3 0;
#X connect 1 0 0 0;
#X connect 3 0 5 0;
#X connect 4 0 10 0;
#X connect 6 0 7 0;
#X connect 7 0 8 0;
#X connect 7 1 8 0;
#X connect 7 2 9 0;
#X connect 8 0 10 0;
#X connect 9 0 2 0;
#X connect 10 0 2 0;
#X restore 884 518 pd shortcut-10;
#N canvas 723 162 526 545 shortcut-5 0;
#X obj 145 77 sel 0;
#X obj 172 130 t b;
#X obj 172 191 f 1;
#X obj 204 193 + 1;
#X obj 204 214 == 1;
#X obj 245 332 s sc-page-change;
#X obj 199 364 sel 0 1;
#X obj 234 105 r load-text-files;
#X obj 234 126 0;
#X msg 199 419 Page: Loop;
#X msg 277 420 Page: Vol;
#X obj 199 451 s cgSc-1-5label;
#X obj 145 56 r cgSc-1-5;
#X obj 253 284 s clear-line-5;
#X obj 99 361 sel 0 1;
#X msg 49 417 Loop Page;
#X msg 126 418 Vol Page;
#X obj 49 472 s tempo-print-line;
#X obj 172 252 t a a a b, f 14;
#X connect 0 1 1 0;
#X connect 1 0 2 0;
#X connect 2 0 3 0;
#X connect 2 0 18 0;
#X connect 3 0 4 0;
#X connect 4 0 2 1;
#X connect 6 0 9 0;
#X connect 6 1 10 0;
#X connect 7 0 8 0;
#X connect 8 0 2 0;
#X connect 9 0 11 0;
#X connect 10 0 11 0;
#X connect 12 0 0 0;
#X connect 14 0 15 0;
#X connect 14 1 16 0;
#X connect 15 0 17 0;
#X connect 16 0 17 0;
#X connect 18 0 14 0;
#X connect 18 1 6 0;
#X connect 18 2 5 0;
#X connect 18 3 13 0;
#X restore 771 517 pd shortcut-5;
#X obj 239 388 1;
#X obj 276 405 r rec-over;
#X obj 276 426 0;
#X obj 316 87 r rec-start;
#X obj 316 108 1;
#X obj 333 135 r rec-over;
#X obj 333 156 0;
#X obj 316 200 v glob-rec-statuS;
#X obj 1364 262 v glob-rec-statuS;
#X obj 1364 283 sel 0;
#X obj 392 320 r recall-params;
#X obj 434 449 sel 0 1, f 25;
#X msg 509 510 Recording;
#X obj 434 378 1;
#X obj 471 395 r rec-over;
#X obj 471 416 0;
#X obj 434 557 s cgSc-1-2label;
#X obj 437 353 r rec-start-all;
#X obj 1506 76 sel 0;
#X obj 1533 99 t b;
#X obj 1566 185 r sc-page-change;
#X obj 1533 231 spigot;
#X obj 1566 206 == 0;
#X obj 1533 255 v glob-rec-statuS;
#X obj 1533 276 sel 0;
#X obj 1506 55 r cgSc-1-2;
#X msg 239 520 Rec.Serial;
#X obj 1364 432 s rec-serial;
#X obj 1407 287 r rec-over;
#X obj 1407 308 1;
#X obj 1364 334 spigot 1;
#X obj 1436 308 r start-rec;
#X obj 1436 329 0;
#X obj 1576 292 r rec-over;
#X obj 1576 313 1;
#X obj 1533 339 spigot 1;
#X obj 1605 313 r start-rec;
#X obj 1605 334 0;
#X obj 1364 355 t b b;
#X obj 1533 360 t b b;
#X obj 1388 393 s start-rec;
#X obj 1573 392 s start-rec;
#X obj 1533 437 s rec-paralell;
#X msg 435 510 Rec.Parall;
#X connect 0 0 1 0;
#X connect 1 1 2 0;
#X connect 2 0 53 0;
#X connect 4 0 83 0;
#X connect 5 0 57 0;
#X connect 6 0 83 0;
#X connect 6 1 7 0;
#X connect 7 0 3 0;
#X connect 8 0 9 0;
#X connect 9 1 10 0;
#X connect 10 0 11 0;
#X connect 11 0 12 0;
#X connect 11 0 14 0;
#X connect 12 0 13 0;
#X connect 13 0 11 1;
#X connect 14 0 15 0;
#X connect 14 1 16 0;
#X connect 15 0 17 0;
#X connect 15 1 18 0;
#X connect 17 0 30 0;
#X connect 18 0 30 0;
#X connect 19 1 20 0;
#X connect 20 0 21 0;
#X connect 21 0 22 0;
#X connect 21 0 24 0;
#X connect 22 0 23 0;
#X connect 23 0 21 1;
#X connect 24 0 25 0;
#X connect 24 1 27 0;
#X connect 25 0 29 0;
#X connect 25 1 28 0;
#X connect 26 0 19 0;
#X connect 28 0 31 0;
#X connect 29 0 31 0;
#X connect 32 1 33 0;
#X connect 33 0 34 0;
#X connect 34 0 35 0;
#X connect 34 0 37 0;
#X connect 35 0 36 0;
#X connect 36 0 34 1;
#X connect 37 0 38 0;
#X connect 37 1 41 0;
#X connect 38 0 46 0;
#X connect 38 1 45 0;
#X connect 40 0 32 0;
#X connect 42 0 17 0;
#X connect 43 0 29 0;
#X connect 44 0 46 0;
#X connect 45 0 39 0;
#X connect 46 0 39 0;
#X connect 47 0 83 0;
#X connect 49 0 50 0;
#X connect 50 1 51 0;
#X connect 51 0 47 0;
#X connect 52 0 54 0;
#X connect 53 0 65 0;
#X connect 54 0 53 1;
#X connect 57 0 6 0;
#X connect 58 0 59 0;
#X connect 59 0 6 0;
#X connect 60 0 61 0;
#X connect 61 0 64 0;
#X connect 62 0 63 0;
#X connect 63 0 64 0;
#X connect 65 0 66 0;
#X connect 66 0 87 0;
#X connect 67 0 100 0;
#X connect 68 0 100 0;
#X connect 68 1 69 0;
#X connect 69 0 73 0;
#X connect 70 0 68 0;
#X connect 71 0 72 0;
#X connect 72 0 68 0;
#X connect 74 0 70 0;
#X connect 75 1 76 0;
#X connect 76 0 78 0;
#X connect 77 0 79 0;
#X connect 78 0 80 0;
#X connect 79 0 78 1;
#X connect 80 0 81 0;
#X connect 81 0 92 0;
#X connect 82 0 75 0;
#X connect 83 0 3 0;
#X connect 85 0 86 0;
#X connect 86 0 87 1;
#X connect 87 0 95 0;
#X connect 88 0 89 0;
#X connect 89 0 87 1;
#X connect 90 0 91 0;
#X connect 91 0 92 1;
#X connect 92 0 96 0;
#X connect 93 0 94 0;
#X connect 94 0 92 1;
#X connect 95 0 84 0;
#X connect 95 1 97 0;
#X connect 96 0 99 0;
#X connect 96 1 98 0;
#X connect 100 0 73 0;
#X restore 53 177 pd shortcuts;
#X obj 531 278 r aux;
#X obj 648 281 r \$0-reprint-port;
#X obj 527 65 r knob4-bpm;
#N canvas 141 110 1454 843 kb-commands 0;
#X obj 22 72 stripnote;
#X obj 22 18 r post-sc-notes;
#X obj 22 39 t a a, f 68;
#X obj 427 459 cg-short-long-b 2000;
#X obj 549 390 cg-short-long-b 2000;
#X obj 672 323 cg-short-long-b 2000;
#X obj 794 251 cg-short-long-b 2000;
#X obj 1039 162 cg-short-long-b 2000;
#X obj 427 494 s loop-1-mute;
#X obj 549 417 s loop-2-mute;
#X obj 672 350 s loop-3-mute;
#X obj 794 276 s loop-4-mute;
#X obj 95 276 s global-stop;
#X obj 544 496 s loop-1-clear;
#X obj 666 415 s loop-2-clear;
#X obj 789 350 s loop-3-clear;
#X obj 911 278 s loop-4-clear;
#X obj 1156 193 s global-clear;
#X obj 122 247 r midi-stop;
#X obj 98 379 v reset-bpm?;
#X obj 98 354 2;
#X obj 269 298 v reset-bpm?;
#X obj 269 269 0;
#X obj 71 326 t b b;
#X obj 212 238 t f b, f 10;
#X obj 22 136 1;
#X obj 117 141 2;
#X obj 212 143 3;
#X obj 259 143 4;
#X msg 212 326 \; loop-\$1-play tog;
#X obj 427 73 route 72 74 76 77 63 66, f 123;
#N canvas 756 278 1007 549 set-da-knobs 0;
#X obj 23 8 inlet;
#X obj 33 83 route 73 75 78 80, f 70;
#X obj 33 107 sel 0;
#X obj 60 131 t b;
#X obj 60 152 1;
#X obj 135 110 sel 0;
#X obj 162 134 t b;
#X obj 239 110 sel 0;
#X obj 266 134 t b;
#X obj 345 105 sel 0;
#X obj 372 129 t b;
#X obj 33 152 0;
#X obj 135 155 0;
#X obj 239 155 0;
#X obj 345 150 0;
#X obj 162 155 1;
#X obj 266 155 1;
#X obj 373 150 1;
#X obj 15 189 r knob1-rec-length;
#X obj 15 210 spigot 0;
#X obj 15 354 s loop-lengths!;
#X obj 15 231 list prepend 1;
#X obj 15 252 list trim;
#X obj 15 273 t a b;
#X obj 138 187 r knob1-rec-length;
#X obj 138 208 spigot 0;
#X obj 138 352 s loop-lengths!;
#X obj 138 250 list trim;
#X obj 138 271 t a b;
#X obj 138 229 list prepend 2;
#X obj 254 191 r knob1-rec-length;
#X obj 254 212 spigot 0;
#X obj 254 356 s loop-lengths!;
#X obj 254 254 list trim;
#X obj 254 275 t a b;
#X obj 254 233 list prepend 3;
#X obj 405 191 r knob1-rec-length;
#X obj 405 212 spigot 0;
#X obj 405 356 s loop-lengths!;
#X obj 405 254 list trim;
#X obj 405 275 t a b;
#X obj 405 233 list prepend 4;
#X connect 0 0 1 0;
#X connect 1 0 2 0;
#X connect 1 1 5 0;
#X connect 1 2 7 0;
#X connect 1 3 9 0;
#X connect 2 0 11 0;
#X connect 2 1 3 0;
#X connect 3 0 4 0;
#X connect 4 0 19 1;
#X connect 5 0 12 0;
#X connect 5 1 6 0;
#X connect 6 0 15 0;
#X connect 7 0 13 0;
#X connect 7 1 8 0;
#X connect 8 0 16 0;
#X connect 9 0 14 0;
#X connect 9 1 10 0;
#X connect 10 0 17 0;
#X connect 11 0 19 1;
#X connect 12 0 25 1;
#X connect 13 0 31 1;
#X connect 14 0 37 1;
#X connect 15 0 25 1;
#X connect 16 0 31 1;
#X connect 17 0 37 1;
#X connect 18 0 19 0;
#X connect 19 0 21 0;
#X connect 21 0 22 0;
#X connect 22 0 23 0;
#X connect 23 0 20 0;
#X connect 24 0 25 0;
#X connect 25 0 29 0;
#X connect 27 0 28 0;
#X connect 28 0 26 0;
#X connect 29 0 27 0;
#X connect 30 0 31 0;
#X connect 31 0 35 0;
#X connect 33 0 34 0;
#X connect 34 0 32 0;
#X connect 35 0 33 0;
#X connect 36 0 37 0;
#X connect 37 0 41 0;
#X connect 39 0 40 0;
#X connect 40 0 38 0;
#X connect 41 0 39 0;
#X restore 1162 109 pd set-da-knobs;
#X obj 71 416 cg-speedlim 20;
#X obj 22 115 sel 60 61 62 63 64 65 66, f 58;
#X obj 71 584 s send-play-modes;
#X obj 170 533 r knob2-play-mode;
#X obj 71 558 f, f 17;
#X obj 182 393 r rec-over;
#X obj 208 415 r start-rec;
#X obj 109 491 r re-trigger-play;
#X obj 182 414 1;
#X obj 207 436 0;
#X obj 70 463 spigot 1, f 19;
#X connect 0 0 33 0;
#X connect 1 0 2 0;
#X connect 2 0 0 0;
#X connect 2 1 30 0;
#X connect 3 0 8 0;
#X connect 3 1 13 0;
#X connect 4 0 9 0;
#X connect 4 1 14 0;
#X connect 5 0 10 0;
#X connect 5 1 15 0;
#X connect 6 0 11 0;
#X connect 6 1 16 0;
#X connect 7 1 17 0;
#X connect 18 0 12 0;
#X connect 20 0 19 0;
#X connect 22 0 21 0;
#X connect 23 0 32 0;
#X connect 23 1 20 0;
#X connect 24 0 29 0;
#X connect 24 1 22 0;
#X connect 25 0 24 0;
#X connect 26 0 24 0;
#X connect 27 0 24 0;
#X connect 28 0 24 0;
#X connect 30 0 3 0;
#X connect 30 1 4 0;
#X connect 30 2 5 0;
#X connect 30 3 6 0;
#X connect 30 5 7 0;
#X connect 30 6 31 0;
#X connect 32 0 42 0;
#X connect 33 0 25 0;
#X connect 33 1 23 0;
#X connect 33 2 26 0;
#X connect 33 3 12 0;
#X connect 33 4 27 0;
#X connect 33 5 28 0;
#X connect 35 0 36 1;
#X connect 36 0 34 0;
#X connect 37 0 40 0;
#X connect 38 0 41 0;
#X connect 39 0 36 0;
#X connect 40 0 42 1;
#X connect 41 0 42 1;
#X connect 42 0 36 0;
#X restore 52 154 pd kb-commands;
#X obj 531 339 s post-sc-notes;
#N canvas 4 50 1358 682 knobs 0;
#X obj 1054 278 s knob4-bpm;
#X obj 1054 207 * 340;
#X obj 1054 228 + 20;
#X obj 1054 249 i;
#X obj 141 404 s knob1-rec-length;
#X obj 90 276 i;
#X obj 90 255 * 63;
#X obj 90 297 + 1;
#X obj 391 765 s screenLine5;
#X obj 414 684 list store;
#X obj 391 630 t a a;
#X obj 451 590 r cgSc-1-mute-print;
#X obj 451 611 t a a, f 12;
#X obj 520 653 ==;
#X obj 451 653 del 1;
#X obj 451 632 sel 0;
#X obj 391 557 r tempo-print-line;
#X obj 391 727 spigot 1, f 19;
#X obj 708 180 i;
#X obj 735 356 s knob3-fs-rec;
#X obj 141 357 t f f;
#X obj 168 379 v knob1-rec-length;
#X obj 358 90 spigot 1;
#X obj 403 48 r lock-bpm!;
#X obj 403 69 ==;
#X obj 90 148 spigot 1;
#X obj 136 101 r lock-bpm!;
#X obj 136 122 ==;
#X obj 708 160 + 0.49999;
#X obj 939 33 r knob1;
#X obj 1039 36 r knob2;
#X obj 1139 25 r knob3;
#X obj 1239 35 r knob4;
#X obj 939 75 assign-knob 1;
#X obj 1039 75 assign-knob 2;
#X obj 1139 72 assign-knob 3;
#X obj 1239 72 assign-knob 4;
#X obj 91 55 r knob-1-loop;
#X obj 358 18 r knob-2-loop;
#X obj 708 100 r knob-3-loop;
#X obj 1054 171 r knob-4-loop;
#X obj 162 436 r k-1-loop-fix;
#X obj 90 472 t a a, f 9;
#X obj 90 523 spigot;
#X obj 141 524 spigot;
#X obj 162 457 t a a;
#X obj 189 480 == 0;
#X obj 90 649 t a;
#X obj 358 377 t a a, f 9;
#X obj 358 428 spigot;
#X obj 409 429 spigot;
#X obj 457 425 == 0;
#X obj 434 371 r k-2-loop-fix;
#X obj 708 494 t a a, f 9;
#X obj 708 535 spigot;
#X obj 759 536 spigot;
#X obj 792 513 == 0;
#X obj 876 231 r k-3-loop-fix;
#X obj 595 789 s oscOut;
#X msg 595 764 /oled/gFillArea 3 0 54 128 10 0;
#X obj 579 639 r clear-line-5;
#X obj 579 660 t b b;
#X obj 595 705 spigot 0;
#X obj 90 675 s tempo-print-line;
#X obj 708 681 s tempo-print-line;
#X obj 1093 332 r knob-1-vol;
#X obj 1093 353 * 100;
#X obj 1093 374 i;
#X obj 1093 398 t a a, f 9;
#X obj 1093 449 spigot;
#X obj 1144 450 spigot;
#X obj 1165 423 t a a;
#X obj 1192 446 == 0;
#X msg 1093 510 Loop 1 Vol: \$1%;
#X msg 1144 479 Loop 1 Vol: \$1%!;
#X obj 1093 552 s tempo-print-line;
#X obj 1291 355 * 100;
#X obj 1291 376 i;
#X obj 1291 400 t a a, f 9;
#X obj 1291 451 spigot;
#X obj 1342 452 spigot;
#X obj 1363 425 t a a;
#X obj 1390 448 == 0;
#X obj 1291 554 s tempo-print-line;
#X obj 1292 334 r knob-2-vol;
#X msg 1291 512 Loop 2 Vol: \$1%;
#X msg 1342 480 Loop 2 Vol: \$1%!;
#X obj 1098 610 * 100;
#X obj 1098 631 i;
#X obj 1098 655 t a a, f 9;
#X obj 1098 706 spigot;
#X obj 1149 707 spigot;
#X obj 1170 680 t a a;
#X obj 1197 703 == 0;
#X obj 1098 809 s tempo-print-line;
#X obj 1296 612 * 100;
#X obj 1296 633 i;
#X obj 1296 657 t a a, f 9;
#X obj 1296 708 spigot;
#X obj 1347 709 spigot;
#X obj 1368 682 t a a;
#X obj 1395 705 == 0;
#X obj 1296 811 s tempo-print-line;
#X obj 1098 589 r knob-3-vol;
#X obj 1297 590 r knob-4-vol;
#X obj 1166 401 r k-1-vol-fix;
#X obj 1363 401 r k-2-vol-fix;
#X obj 1368 660 r k-4-vol-fix;
#X obj 1170 658 r k-3-vol-fix;
#X msg 1098 768 Loop 3 Vol: \$1%;
#X msg 1149 736 Loop 3 Vol: \$1%!;
#X msg 1347 737 Loop 4 Vol: \$1%!;
#X msg 1296 769 Loop 4 Vol: \$1%;
#X obj 357 526 s tempo-print-line;
#X obj 708 261 i;
#X obj 876 253 t a a a;
#X obj 781 281 sel 1;
#X obj 435 393 t a a a;
#X obj 708 241 cg-speedlim 100;
#X obj 90 318 t a a, f 9;
#X obj 90 339 / 4;
#X msg 141 589 k1: Set Length: \$1;
#X msg 90 616 k1: Set Length: \$1;
#X obj 708 303 t a a;
#X obj 358 140 + 0.49999;
#X obj 358 181 i;
#X obj 529 231 s knob2-play-mode;
#X obj 358 273 sel 0 1 2, f 19;
#X obj 358 327 symbol;
#X obj 358 119 * 1;
#X msg 809 618 k3: FS Rec: \$1!;
#X msg 708 619 k3: FS Rec: \$1;
#X obj 708 384 sel 0 1, f 16;
#X obj 708 451 symbol;
#X msg 358 306 Serial;
#X msg 419 305 Parallel;
#X msg 708 410 Serial;
#X msg 769 410 Parallel;
#X obj 708 139 * 1;
#X obj 358 348 pack s s, f 15;
#X msg 575 410 k2: \$2 \$1;
#X msg 585 387 k2: \$2 \$1;
#X obj 358 202 t a a a, f 29;
#N canvas 635 278 614 488 compare 0;
#X obj 283 238 f;
#X obj 263 295 ==;
#X obj 263 158 t a b;
#X obj 263 316 sel 1;
#X obj 290 339 t b;
#X obj 146 58 inlet;
#X obj 290 371 symbol NxtPlay:;
#X obj 263 404 symbol Playing:;
#X obj 263 425 outlet;
#X obj 263 179 + 1;
#X obj 380 176 r the-modes-of-play;
#X connect 0 0 1 1;
#X connect 1 0 3 0;
#X connect 2 0 9 0;
#X connect 2 1 0 0;
#X connect 3 0 7 0;
#X connect 3 1 4 0;
#X connect 4 0 6 0;
#X connect 5 0 2 0;
#X connect 6 0 8 0;
#X connect 7 0 8 0;
#X connect 9 0 1 0;
#X connect 10 0 0 1;
#X restore 517 272 pd compare;
#X msg 358 482 k2: \$2 \$1;
#X msg 494 483 k2: \$2 \$1!;
#X obj 510 86 t b;
#X obj 510 111 del 5;
#X obj 510 57 r the-modes-of-play;
#X connect 1 0 2 0;
#X connect 2 0 3 0;
#X connect 3 0 0 0;
#X connect 5 0 7 0;
#X connect 6 0 5 0;
#X connect 7 0 119 0;
#X connect 9 0 17 0;
#X connect 10 0 17 0;
#X connect 10 1 9 1;
#X connect 11 0 12 0;
#X connect 12 0 15 0;
#X connect 12 1 13 0;
#X connect 13 0 17 1;
#X connect 13 0 62 1;
#X connect 14 0 9 0;
#X connect 15 0 14 0;
#X connect 16 0 10 0;
#X connect 17 0 8 0;
#X connect 18 0 118 0;
#X connect 20 0 4 0;
#X connect 20 1 21 0;
#X connect 22 0 129 0;
#X connect 23 0 24 0;
#X connect 24 0 22 1;
#X connect 25 0 6 0;
#X connect 26 0 27 0;
#X connect 27 0 25 1;
#X connect 28 0 18 0;
#X connect 29 0 33 0;
#X connect 30 0 34 0;
#X connect 31 0 35 0;
#X connect 32 0 36 0;
#X connect 37 0 25 0;
#X connect 38 0 22 0;
#X connect 39 0 138 0;
#X connect 40 0 1 0;
#X connect 41 0 45 0;
#X connect 42 0 43 0;
#X connect 42 1 44 0;
#X connect 43 0 122 0;
#X connect 44 0 121 0;
#X connect 45 0 43 1;
#X connect 45 1 46 0;
#X connect 46 0 44 1;
#X connect 47 0 63 0;
#X connect 48 0 49 0;
#X connect 48 1 50 0;
#X connect 49 0 144 0;
#X connect 50 0 145 0;
#X connect 51 0 50 1;
#X connect 52 0 117 0;
#X connect 53 0 54 0;
#X connect 53 1 55 0;
#X connect 54 0 131 0;
#X connect 55 0 130 0;
#X connect 56 0 55 1;
#X connect 57 0 115 0;
#X connect 59 0 58 0;
#X connect 60 0 61 0;
#X connect 61 0 9 1;
#X connect 61 1 62 0;
#X connect 62 0 59 0;
#X connect 65 0 66 0;
#X connect 66 0 67 0;
#X connect 67 0 68 0;
#X connect 68 0 69 0;
#X connect 68 1 70 0;
#X connect 69 0 73 0;
#X connect 70 0 74 0;
#X connect 71 0 69 1;
#X connect 71 1 72 0;
#X connect 72 0 70 1;
#X connect 73 0 75 0;
#X connect 74 0 75 0;
#X connect 76 0 77 0;
#X connect 77 0 78 0;
#X connect 78 0 79 0;
#X connect 78 1 80 0;
#X connect 79 0 85 0;
#X connect 80 0 86 0;
#X connect 81 0 79 1;
#X connect 81 1 82 0;
#X connect 82 0 80 1;
#X connect 84 0 76 0;
#X connect 85 0 83 0;
#X connect 86 0 83 0;
#X connect 87 0 88 0;
#X connect 88 0 89 0;
#X connect 89 0 90 0;
#X connect 89 1 91 0;
#X connect 90 0 109 0;
#X connect 91 0 110 0;
#X connect 92 0 90 1;
#X connect 92 1 93 0;
#X connect 93 0 91 1;
#X connect 95 0 96 0;
#X connect 96 0 97 0;
#X connect 97 0 98 0;
#X connect 97 1 99 0;
#X connect 98 0 112 0;
#X connect 99 0 111 0;
#X connect 100 0 98 1;
#X connect 100 1 101 0;
#X connect 101 0 99 1;
#X connect 103 0 87 0;
#X connect 104 0 95 0;
#X connect 105 0 71 0;
#X connect 106 0 81 0;
#X connect 107 0 100 0;
#X connect 108 0 92 0;
#X connect 109 0 94 0;
#X connect 110 0 94 0;
#X connect 111 0 102 0;
#X connect 112 0 102 0;
#X connect 114 0 123 0;
#X connect 115 0 116 0;
#X connect 115 1 54 1;
#X connect 115 2 56 0;
#X connect 116 0 114 0;
#X connect 117 1 49 1;
#X connect 117 2 51 0;
#X connect 118 0 114 0;
#X connect 119 0 120 0;
#X connect 119 1 20 0;
#X connect 120 0 42 0;
#X connect 121 0 47 0;
#X connect 122 0 47 0;
#X connect 123 0 132 0;
#X connect 123 1 19 0;
#X connect 124 0 125 0;
#X connect 125 0 142 0;
#X connect 127 0 134 0;
#X connect 127 1 135 0;
#X connect 128 0 139 0;
#X connect 129 0 124 0;
#X connect 130 0 64 0;
#X connect 131 0 64 0;
#X connect 132 0 136 0;
#X connect 132 1 137 0;
#X connect 133 0 53 0;
#X connect 134 0 128 0;
#X connect 135 0 128 0;
#X connect 136 0 133 0;
#X connect 137 0 133 0;
#X connect 138 0 28 0;
#X connect 139 0 48 0;
#X connect 142 0 127 0;
#X connect 142 1 143 0;
#X connect 142 2 126 0;
#X connect 143 0 139 1;
#X connect 144 0 113 0;
#X connect 145 0 113 0;
#X connect 146 0 147 0;
#X connect 147 0 125 0;
#X connect 148 0 146 0;
#X restore 52 229 pd knobs;
#N canvas 13 50 450 300 cg-pd-library-local 0;
#X obj 502 35 r cgSc-1-slots;
#X obj 60 68 declare -path cg-pd-library-local/sampling;
#X obj 60 98 declare -path cg-pd-library-local/sequencer;
#X obj 58 130 declare -path cg-pd-library-local/externals;
#X obj 59 165 declare -path cg-pd-library-local/metronome;
#X restore 53 107 pd cg-pd-library-local;
#N canvas 4 50 1358 702 4-arrays 0;
#X obj 398 157 r saveState;
#X obj 399 574 soundfiler;
#X obj 399 384 text get locked-loop-info;
#X obj 399 264 t a b;
#X obj 399 324 f;
#X obj 455 325 + 1;
#X msg 455 295 0;
#X obj 564 387 + 1;
#X obj 399 414 *;
#X obj 399 436 * 44.1;
#X obj 36 207 r load-arrays;
#X obj 36 257 t a b;
#X obj 36 345 f;
#X obj 90 350 + 1;
#X obj 36 506 soundfiler;
#X msg 96 301 1;
#X obj 36 228 f 4;
#X obj 399 234 f 4;
#X obj 544 286 array define save-the-status 4;
#X obj 816 230 s save-status-bang;
#X msg 544 261 write loop-stati.txt;
#X obj 664 57 r load-arrays;
#X msg 664 109 read loop-stati.txt;
#X obj 1073 246 r load-arrays;
#X msg 1073 303 read vol-kobs.txt;
#X msg 906 279 write vol-kobs.txt;
#X obj 787 334 r recall-params;
#X obj 785 568 tabread vol-knobs;
#X obj 787 385 t a b;
#X obj 786 457 f;
#X obj 818 458 + 1;
#X obj 829 436 0;
#X obj 786 588 pack 0 0;
#X obj 786 515 t a a;
#X obj 838 539 + 1;
#X obj 787 357 4;
#X obj 786 436 until;
#X obj 36 287 until;
#X obj 399 294 until;
#X obj 906 375 array define vol-knobs 4;
#X obj 941 586 pack 0 0;
#X obj 941 526 t a a;
#X obj 993 537 + 1;
#X obj 786 478 t a a, f 24;
#X obj 1182 440 array define loop-knobs 4;
#X msg 1182 403 read loop-kobs.txt;
#X msg 1075 347 write loop-kobs.txt;
#X obj 940 566 tabread loop-knobs;
#N canvas 187 81 1005 623 arrays 0;
#X text 96 194 resize to max time;
#X obj 80 136 * 1000;
#X obj 80 166 * 44.1;
#X text 116 104 seconds;
#X text 124 133 miliseconds;
#X text 136 164 samples;
#X obj 80 58 r resize-arrays;
#X obj 474 40 array define locked-loop-1-0;
#X obj 474 70 array define locked-loop-2-0;
#X obj 474 99 array define locked-loop-3-0;
#X obj 473 130 array define locked-loop-4-0;
#X obj 664 40 array define locked-loop-1-1;
#X obj 664 71 array define locked-loop-2-1;
#X obj 664 99 array define locked-loop-3-1;
#X obj 663 130 array define locked-loop-4-1;
#X obj 314 245 v loop-1-AB;
#X obj 314 275 v loop-2-AB;
#X obj 314 305 v loop-3-AB;
#X obj 314 336 v loop-4-AB;
#X obj 476 213 r saveState;
#X obj 707 181 r load-arrays;
#X obj 476 556 array define save-start-points 4;
#X obj 476 234 t b b;
#X obj 707 262 t a b;
#X obj 707 326 f, f 7;
#X obj 772 327 + 1;
#X obj 707 233 f 4;
#X obj 707 292 until;
#X obj 707 447 v;
#X obj 707 367 tabread save-start-points;
#X msg 754 292 0;
#X obj 707 347 t a a;
#X obj 722 394 + 1;
#X obj 707 202 t b b, f 28;
#X obj 503 286 t a b;
#X obj 503 350 f, f 7;
#X obj 568 351 + 1;
#X obj 503 257 f 4;
#X obj 503 316 until;
#X obj 503 449 v;
#X msg 550 316 0;
#X obj 530 398 + 1;
#X obj 503 477 tabwrite save-start-points;
#X obj 503 371 t b a a;
#X msg 476 519 write save-points.txt;
#X msg 703 518 read save-points.txt;
#X obj 312 378 v loop-1-startP;
#X obj 312 407 v loop-2-startP;
#X obj 312 438 v loop-3-startP;
#X obj 313 469 v loop-4-startP;
#X msg 80 211 \; locked-loop-1-0 resize \$1 \; locked-loop-2-0 resize
\$1 \; locked-loop-3-0 resize \$1 \; locked-loop-4-0 resize \$1 \;
locked-loop-1-1 resize \$1 \; locked-loop-2-1 resize \$1 \; locked-loop-3-1
resize \$1 \; locked-loop-4-1 resize \$1;
#X msg 722 424 symbol loop-\$1-startP;
#X msg 530 427 symbol loop-\$1-startP;
#X obj 80 106 f 192;
#X text 171 94 at 20 BPM \, one bar is 12 seconds.;
#X text 171 110 16 bars at 12 seconds each is 192 seconds;
#X connect 1 0 2 0;
#X connect 2 0 50 0;
#X connect 6 0 53 0;
#X connect 19 0 22 0;
#X connect 20 0 33 0;
#X connect 22 0 44 0;
#X connect 22 1 37 0;
#X connect 23 0 27 0;
#X connect 23 1 30 0;
#X connect 24 0 25 0;
#X connect 24 0 31 0;
#X connect 25 0 24 1;
#X connect 26 0 23 0;
#X connect 27 0 24 0;
#X connect 29 0 28 0;
#X connect 30 0 24 1;
#X connect 31 0 29 0;
#X connect 31 1 32 0;
#X connect 32 0 51 0;
#X connect 33 0 26 0;
#X connect 33 1 45 0;
#X connect 34 0 38 0;
#X connect 34 1 40 0;
#X connect 35 0 36 0;
#X connect 35 0 43 0;
#X connect 36 0 35 1;
#X connect 37 0 34 0;
#X connect 38 0 35 0;
#X connect 39 0 42 0;
#X connect 40 0 35 1;
#X connect 41 0 52 0;
#X connect 43 0 39 0;
#X connect 43 1 41 0;
#X connect 43 2 42 1;
#X connect 44 0 21 0;
#X connect 45 0 21 0;
#X connect 51 0 28 1;
#X connect 52 0 39 1;
#X connect 53 0 1 0;
#X restore 37 108 pd arrays;
#X obj 399 354 t a a, f 28;
#X obj 588 464 v;
#X msg 603 441 symbol loop-\$1-AB;
#X obj 564 408 t a b a;
#X obj 399 494 pack 0 0 0, f 27;
#X msg 399 525 write -wave -nframes \$1 loops/\$2.wav locked-loop-\$2-\$3
;
#X msg 36 474 read loops/\$1.wav locked-loop-\$1-0;
#X msg 786 615 \; knob-\$2-vol-recall \$1;
#X msg 940 613 \; knob-\$2-loop-recall \$1;
#X obj 1103 171 array define set-loop-lengthS;
#X obj 1287 46 r load-arrays;
#X msg 1326 118 read loop-lEngths.txt;
#X obj 398 203 t b b b b b b, f 70;
#X msg 1103 110 write loop-lEngths.txt;
#X obj 1107 26 t b b;
#N canvas 4 50 644 471 fill-array 0;
#X obj 49 9 inlet;
#X obj 49 121 until;
#X obj 49 88 max 1;
#X obj 49 67 t a b;
#X obj 106 95 0;
#X obj 49 142 f, f 10;
#X obj 132 143 + 1;
#X obj 49 30 4;
#X obj 61 320 v;
#X msg 76 294 symbol loop-\$1-length!;
#X obj 49 163 t a a, f 16;
#X obj 49 184 + 1;
#X obj 49 267 t b a;
#X obj 61 341 tabwrite set-loop-lengthS;
#X connect 0 0 7 0;
#X connect 1 0 5 0;
#X connect 2 0 1 0;
#X connect 3 0 2 0;
#X connect 3 1 4 0;
#X connect 4 0 5 1;
#X connect 5 0 6 0;
#X connect 5 0 10 0;
#X connect 6 0 5 1;
#X connect 7 0 3 0;
#X connect 8 0 13 0;
#X connect 9 0 8 1;
#X connect 10 0 11 0;
#X connect 10 1 13 1;
#X connect 11 0 12 0;
#X connect 12 0 8 0;
#X connect 12 1 9 0;
#X restore 1135 55 pd fill-array;
#X obj 1287 67 t b b;
#N canvas 4 50 644 471 init 0;
#X obj 49 9 inlet;
#X obj 49 121 until;
#X obj 49 88 max 1;
#X obj 49 67 t a b;
#X obj 106 95 0;
#X obj 49 142 f, f 10;
#X obj 132 143 + 1;
#X obj 49 30 4;
#X obj 238 348 v;
#X msg 257 311 symbol loop-\$1-length!;
#X obj 49 163 t a a, f 16;
#X obj 230 240 + 1;
#X obj 49 216 tabread set-loop-lengthS;
#X obj 230 261 t a a;
#X obj 49 237 t a a;
#X obj 57 389 s loop-lengths!;
#X obj 57 337 list prepend;
#X obj 57 358 list trim;
#X connect 0 0 7 0;
#X connect 1 0 5 0;
#X connect 2 0 1 0;
#X connect 3 0 2 0;
#X connect 3 1 4 0;
#X connect 4 0 5 1;
#X connect 5 0 6 0;
#X connect 5 0 10 0;
#X connect 6 0 5 1;
#X connect 7 0 3 0;
#X connect 9 0 8 1;
#X connect 10 0 12 0;
#X connect 10 1 11 0;
#X connect 11 0 13 0;
#X connect 12 0 14 0;
#X connect 13 0 16 1;
#X connect 13 1 9 0;
#X connect 14 0 16 0;
#X connect 14 1 8 0;
#X connect 16 0 17 0;
#X connect 17 0 15 0;
#X restore 1291 147 pd init;
#X text 39 57 maximum track record time: 16 bars at 20bpm;
#X connect 0 0 61 0;
#X connect 2 0 8 0;
#X connect 3 0 38 0;
#X connect 3 1 6 0;
#X connect 4 0 5 0;
#X connect 4 0 49 0;
#X connect 5 0 4 1;
#X connect 6 0 4 1;
#X connect 7 0 52 0;
#X connect 8 0 9 0;
#X connect 9 0 53 0;
#X connect 10 0 16 0;
#X connect 11 0 37 0;
#X connect 11 1 15 0;
#X connect 12 0 13 0;
#X connect 12 0 55 0;
#X connect 13 0 12 1;
#X connect 15 0 12 1;
#X connect 16 0 11 0;
#X connect 17 0 3 0;
#X connect 20 0 18 0;
#X connect 21 0 22 0;
#X connect 22 0 18 0;
#X connect 23 0 24 0;
#X connect 23 0 45 0;
#X connect 24 0 39 0;
#X connect 25 0 39 0;
#X connect 26 0 35 0;
#X connect 27 0 32 0;
#X connect 28 0 36 0;
#X connect 28 1 31 0;
#X connect 29 0 30 0;
#X connect 29 0 43 0;
#X connect 30 0 29 1;
#X connect 31 0 29 1;
#X connect 32 0 56 0;
#X connect 33 0 27 0;
#X connect 33 1 34 0;
#X connect 34 0 32 1;
#X connect 35 0 28 0;
#X connect 36 0 29 0;
#X connect 37 0 12 0;
#X connect 38 0 4 0;
#X connect 40 0 57 0;
#X connect 41 0 47 0;
#X connect 41 1 42 0;
#X connect 42 0 40 1;
#X connect 43 0 33 0;
#X connect 43 1 41 0;
#X connect 45 0 44 0;
#X connect 46 0 44 0;
#X connect 47 0 40 0;
#X connect 49 0 2 0;
#X connect 49 1 7 0;
#X connect 50 0 53 2;
#X connect 51 0 50 1;
#X connect 52 0 53 1;
#X connect 52 1 50 0;
#X connect 52 2 51 0;
#X connect 53 0 54 0;
#X connect 54 0 1 0;
#X connect 55 0 14 0;
#X connect 59 0 65 0;
#X connect 60 0 58 0;
#X connect 61 0 17 0;
#X connect 61 1 20 0;
#X connect 61 2 25 0;
#X connect 61 3 46 0;
#X connect 61 4 63 0;
#X connect 61 5 19 0;
#X connect 62 0 58 0;
#X connect 63 0 62 0;
#X connect 63 1 64 0;
#X connect 65 0 66 0;
#X connect 65 1 60 0;
#X restore 304 318 pd 4-arrays;
#X obj 572 89 r lock-bpm!;
#N canvas 826 178 527 570 analyze-arrays 0;
#X obj 261 96 r load-text-files;
#X obj 137 85 r saveState;
#X obj 137 168 text define locked-loop-info;
#X msg 137 121 write l-l-info.txt;
#X msg 261 122 read l-l-info.txt;
#X obj 145 309 clone -s 1 4 texts-4-chunks;
#X obj 145 223 r saveState;
#X msg 145 259 all write;
#X obj 239 221 r init-analyze;
#X msg 239 258 all read;
#X obj 150 361 analyze-arrays 60 40 100 64;
#X connect 0 0 4 0;
#X connect 1 0 3 0;
#X connect 3 0 2 0;
#X connect 4 0 2 0;
#X connect 6 0 7 0;
#X connect 7 0 5 0;
#X connect 8 0 9 0;
#X connect 9 0 5 0;
#X restore 303 341 pd analyze-arrays;
#X obj 572 110 == 0;
#X obj 527 137 spigot 1;
#N canvas 720 179 1026 865 print-bars 0;
#X obj 131 412 s oscOut;
#X msg 131 382 /oled/gFlip 3 1;
#X obj 131 159 metro 100;
#X obj 131 240 t b b b b b, f 106;
#X obj 305 376 v loop-1-position;
#X obj 480 390 v loop-2-position;
#X obj 642 396 v loop-3-position;
#X obj 797 396 v loop-4-position;
#X obj 140 549 t f f f f, f 88;
#X obj 140 524 f 1;
#X obj 242 445 r cgSc-1-mute-print;
#X obj 242 466 sel 0;
#X obj 242 487 del 1;
#X obj 131 72 r load-line5;
#X obj 131 95 f 1;
#X obj 247 35 r cgSc-1-mute-print;
#X obj 247 106 sel 1;
#X obj 274 180 s \$0-reprint-bar-play;
#X obj 842 504 r \$0-reprint-bar-play;
#X obj 247 127 del 12;
#X obj 243 713 v loop-1-status;
#X obj 243 735 sel 2;
#X obj 497 723 sel 2;
#X obj 497 697 v loop-2-status;
#X obj 702 671 sel 2;
#X obj 883 572 sel 2;
#X obj 702 650 v loop-3-status;
#X obj 883 551 v loop-4-status;
#X obj 267 633 r \$0-reprint-bar-play;
#X obj 347 107 s \$0-bar-on-off;
#X obj 62 464 r \$0-bar-on-off;
#X obj 247 80 t a a a;
#X obj 247 148 t b b;
#X obj 140 483 r recall-params;
#X obj 247 57 == 0;
#X floatatom 812 747 5 0 0 0 - - -;
#X obj 812 726 + 12;
#X msg 812 703 46;
#X obj 728 783 cg-draw-status-bar 60 42 64 9 4;
#X obj 528 786 cg-draw-status-bar 60 31 64 9 3;
#X obj 333 781 cg-draw-status-bar 60 20 64 9 2;
#X obj 141 785 cg-draw-status-bar 60 9 64 9 1;
#X connect 1 0 0 0;
#X connect 2 0 3 0;
#X connect 3 0 1 0;
#X connect 3 1 4 0;
#X connect 3 2 5 0;
#X connect 3 3 6 0;
#X connect 3 4 7 0;
#X connect 4 0 41 1;
#X connect 5 0 40 1;
#X connect 6 0 39 1;
#X connect 7 0 38 1;
#X connect 8 0 41 0;
#X connect 8 1 40 0;
#X connect 8 2 39 0;
#X connect 8 3 38 0;
#X connect 9 0 8 0;
#X connect 10 0 11 0;
#X connect 11 0 12 0;
#X connect 12 0 9 0;
#X connect 13 0 14 0;
#X connect 14 0 2 0;
#X connect 15 0 34 0;
#X connect 16 0 19 0;
#X connect 18 0 27 0;
#X connect 18 0 26 0;
#X connect 19 0 32 0;
#X connect 20 0 21 0;
#X connect 21 0 41 1;
#X connect 22 0 40 1;
#X connect 23 0 22 0;
#X connect 24 0 39 1;
#X connect 25 0 38 1;
#X connect 26 0 24 0;
#X connect 27 0 25 0;
#X connect 28 0 20 0;
#X connect 28 0 23 0;
#X connect 30 0 8 0;
#X connect 31 0 16 0;
#X connect 31 1 2 0;
#X connect 31 2 29 0;
#X connect 32 0 3 0;
#X connect 32 1 17 0;
#X connect 33 0 9 0;
#X connect 34 0 31 0;
#X connect 36 0 35 0;
#X connect 37 0 36 0;
#X restore 55 360 pd print-bars;
#N canvas 255 180 496 621 footswitch 0;
#X obj 109 156 r knob3-fs-rec;
#X obj 94 42 r fs;
#X obj 94 133 sel 1;
#X obj 94 187 f;
#X obj 139 42 r sc-page-change;
#X obj 139 63 == 0;
#X obj 94 90 spigot 1;
#X obj 50 414 s rec-serial;
#X obj 93 269 r rec-over;
#X obj 93 290 1;
#X obj 50 316 spigot 1;
#X obj 122 290 r start-rec;
#X obj 122 311 0;
#X obj 262 274 r rec-over;
#X obj 262 295 1;
#X obj 219 321 spigot 1;
#X obj 291 295 r start-rec;
#X obj 291 316 0;
#X obj 50 337 t b b;
#X obj 219 342 t b b;
#X obj 74 375 s start-rec;
#X obj 259 374 s start-rec;
#X obj 219 419 s rec-paralell;
#X obj 94 208 sel 0 1, f 32;
#X connect 0 0 3 1;
#X connect 1 0 6 0;
#X connect 2 0 3 0;
#X connect 3 0 23 0;
#X connect 4 0 5 0;
#X connect 5 0 6 1;
#X connect 6 0 2 0;
#X connect 8 0 9 0;
#X connect 9 0 10 1;
#X connect 10 0 18 0;
#X connect 11 0 12 0;
#X connect 12 0 10 1;
#X connect 13 0 14 0;
#X connect 14 0 15 1;
#X connect 15 0 19 0;
#X connect 16 0 17 0;
#X connect 17 0 15 1;
#X connect 18 0 7 0;
#X connect 18 1 20 0;
#X connect 19 0 22 0;
#X connect 19 1 21 0;
#X connect 23 0 10 0;
#X connect 23 1 15 0;
#X restore 52 203 pd footswitch;
#N canvas 4 50 984 803 led-stuff 0;
#X obj 305 158 r beat-clock;
#X obj 482 258 sel 0;
#X obj 482 473 s led;
#X msg 641 364 stop;
#X obj 482 312 t b b b, f 27;
#X obj 561 361 s led;
#X obj 482 403 del 67;
#X obj 482 232 spigot 0;
#X msg 561 340 5;
#X obj 242 487 throw~ voice-out;
#X obj 242 439 *~;
#X obj 305 375 vline~;
#X obj 305 396 pow~ 2;
#X msg 305 348 1 8 \, 0 45 8;
#X obj 305 257 spigot 0;
#X obj 241 332 osc~ 445;
#X obj 482 427 v led-state;
#X obj 305 278 sel 0;
#X obj 527 205 r metro-flash;
#X obj 350 225 r metro-sound;
#X obj 305 179 t a a, f 30;
#X obj 68 94 v led-status;
#X obj 68 22 r load-text-files;
#X obj 68 43 f 0;
#X obj 241 353 *~ 0.1;
#X connect 0 0 20 0;
#X connect 1 0 4 0;
#X connect 3 0 6 0;
#X connect 4 0 6 0;
#X connect 4 1 8 0;
#X connect 4 2 3 0;
#X connect 6 0 16 0;
#X connect 7 0 1 0;
#X connect 8 0 5 0;
#X connect 10 0 9 0;
#X connect 11 0 12 0;
#X connect 12 0 10 1;
#X connect 13 0 11 0;
#X connect 14 0 17 0;
#X connect 15 0 24 0;
#X connect 16 0 2 0;
#X connect 17 0 13 0;
#X connect 18 0 7 1;
#X connect 19 0 14 1;
#X connect 20 0 14 0;
#X connect 20 1 7 0;
#X connect 22 0 23 0;
#X connect 23 0 21 0;
#X connect 24 0 10 0;
#X restore 51 269 pd led-stuff;
#N canvas 65 147 1769 817 playheads-graphics 0;
#X obj 285 71 r load-line5;
#X obj 285 255 s oscOut;
#X msg 285 226 /oled/gFlip 3 1;
#X obj 285 92 del 1;
#X obj 12 60 line5-track-status 1 2 10;
#X obj 8 110 line5-track-status 2 2 21;
#X obj 10 150 line5-track-status 3 2 32;
#X obj 8 189 line5-track-status 4 2 43;
#X obj 504 514 s oscOut;
#X obj 437 29 r knob3-cntrl-loop;
#X msg 516 418 /oled/gBox 3 \$1 \$2 26 12 0;
#X msg 482 442 /oled/gBox 3 \$1 \$2 26 12 1;
#X obj 516 386 list store -10 -10;
#X obj 437 130 sel 1 2 3 4 0, f 22;
#X msg 443 184 0 8;
#X msg 483 183 0 19;
#X msg 526 182 0 30;
#X msg 568 182 0 41;
#X msg 608 182 -10 -10;
#X obj 437 50 change -1;
#X obj 563 7 r cgSc-1-mute-print;
#X obj 563 28 sel 0;
#X obj 437 101 f;
#X obj 563 49 del 1;
#X msg 351 441 /oled/gFlip 3 1;
#X obj 465 334 t b a a b;
#X obj 986 7 r loop-lengths!;
#X obj 988 463 pack 0 0 0, f 16;
#X obj 988 761 s oscOut;
#X msg 988 736 /oled/gPrintln 3 \$1 \$2 8 1 \$3;
#X obj 1015 689 s oscOut;
#X obj 983 113 / 4;
#X obj 988 406 + 26;
#X obj 1118 232 list fromsymbol;
#X obj 1118 260 list length;
#X msg 1118 197 symbol \$1*;
#X obj 988 427 +, f 26;
#X obj 1118 281 / 3;
#X obj 1118 302 i;
#X obj 1118 323 sel 0 1 2, f 20;
#X obj 1207 378 0;
#X obj 1236 346 t b;
#X obj 1144 381 8;
#X obj 1175 386 4;
#X obj 988 484 t b a;
#X obj 988 556 t a b;
#X obj 1015 591 f \$2, f 19;
#X obj 1015 612 + 26;
#X obj 1015 633 pack 0 \$3;
#X msg 1015 664 /oled/gFillArea 3 \$1 \$2 30 10 0;
#X obj 855 9 r report-real-length;
#X obj 1393 55 r cgSc-1-mute-print;
#X obj 1396 126 del 1, f 6;
#X obj 1396 82 sel 0;
#X obj 988 168 unpack 0 0 0;
#X obj 988 136 list prepend 2 10;
#X obj 1063 250 t a a;
#X obj 988 334 t a a;
#X obj 1031 339 t a a;
#X obj 983 75 route 1 2 3 4, f 40;
#X obj 1039 92 / 4;
#X obj 1044 115 list prepend 2 21;
#X obj 1159 117 / 4;
#X obj 1215 96 / 4;
#X obj 1164 140 list prepend 2 32;
#X obj 1220 119 list prepend 2 43;
#X obj 1396 155 t b b b b;
#X obj 988 520 list store -10 -10 -10;
#X obj 1416 196 del 5;
#X obj 1458 216 del 10;
#X obj 1464 180 del 15;
#X obj 1088 22 r cgSc-1-mute-print;
#X obj 1088 43 == 0;
#X obj 984 51 spigot 1;
#X connect 0 0 3 0;
#X connect 2 0 1 0;
#X connect 3 0 2 0;
#X connect 9 0 19 0;
#X connect 10 0 8 0;
#X connect 11 0 8 0;
#X connect 12 0 10 0;
#X connect 13 0 14 0;
#X connect 13 1 15 0;
#X connect 13 2 16 0;
#X connect 13 3 17 0;
#X connect 13 4 18 0;
#X connect 14 0 25 0;
#X connect 15 0 25 0;
#X connect 16 0 25 0;
#X connect 17 0 25 0;
#X connect 18 0 25 0;
#X connect 19 0 22 0;
#X connect 20 0 21 0;
#X connect 21 0 23 0;
#X connect 22 0 13 0;
#X connect 23 0 22 0;
#X connect 24 0 8 0;
#X connect 25 0 24 0;
#X connect 25 1 11 0;
#X connect 25 2 12 1;
#X connect 25 3 12 0;
#X connect 26 0 73 0;
#X connect 27 0 44 0;
#X connect 29 0 28 0;
#X connect 31 0 55 0;
#X connect 32 0 36 0;
#X connect 33 0 34 0;
#X connect 34 0 37 0;
#X connect 35 0 33 0;
#X connect 36 0 27 0;
#X connect 37 0 38 0;
#X connect 38 0 39 0;
#X connect 39 0 42 0;
#X connect 39 1 43 0;
#X connect 39 2 40 0;
#X connect 39 3 41 0;
#X connect 40 0 36 1;
#X connect 41 0 40 0;
#X connect 42 0 36 1;
#X connect 43 0 36 1;
#X connect 44 0 67 0;
#X connect 44 1 67 1;
#X connect 45 0 29 0;
#X connect 45 1 46 0;
#X connect 46 0 47 0;
#X connect 47 0 48 0;
#X connect 48 0 49 0;
#X connect 49 0 30 0;
#X connect 50 0 73 0;
#X connect 51 0 53 0;
#X connect 52 0 66 0;
#X connect 53 0 52 0;
#X connect 54 0 57 0;
#X connect 54 1 58 0;
#X connect 54 2 56 0;
#X connect 55 0 54 0;
#X connect 56 0 27 2;
#X connect 56 1 35 0;
#X connect 57 0 32 0;
#X connect 57 1 46 1;
#X connect 58 0 27 1;
#X connect 58 1 48 1;
#X connect 59 0 31 0;
#X connect 59 1 60 0;
#X connect 59 2 62 0;
#X connect 59 3 63 0;
#X connect 60 0 61 0;
#X connect 61 0 54 0;
#X connect 62 0 64 0;
#X connect 63 0 65 0;
#X connect 64 0 54 0;
#X connect 65 0 54 0;
#X connect 66 0 31 0;
#X connect 66 1 68 0;
#X connect 66 2 69 0;
#X connect 66 3 70 0;
#X connect 67 0 45 0;
#X connect 68 0 60 0;
#X connect 69 0 62 0;
#X connect 70 0 63 0;
#X connect 71 0 72 0;
#X connect 72 0 73 1;
#X connect 73 0 59 0;
#X restore 54 335 pd playheads-graphics;
#N canvas 4 50 450 300 midi-events-out 0;
#X msg 44 67 250;
#X msg 179 140 252;
#X text 73 18 clock through and out;
#X obj 44 45 r global-start;
#X obj 179 49 r global-stop;
#X obj 218 93 r global-clear;
#X obj 130 246 midiout;
#X obj 75 98 r start-midi-out;
#X obj 291 211 v reset-bpm?;
#X obj 291 137 r midi-start;
#X obj 291 163 t b;
#X obj 291 184 1;
#X connect 0 0 6 0;
#X connect 1 0 6 0;
#X connect 3 0 0 0;
#X connect 4 0 1 0;
#X connect 5 0 1 0;
#X connect 7 0 0 0;
#X connect 9 0 10 0;
#X connect 10 0 11 0;
#X connect 11 0 8 0;
#X restore 54 438 pd midi-events-out;
#N canvas 136 50 1226 682 record-mixdown 0;
#X msg 344 266 start;
#X msg 254 268 stop;
#X obj 179 423 cg-time-count;
#X msg 395 267 num \$1;
#X obj 179 347 unpack 0 0;
#X obj 179 475 pack 0 0 0;
#X obj 179 444 unpack;
#X obj 734 308 shell, f 38;
#X obj 734 353 list fromsymbol;
#X obj 734 330 symbol;
#X obj 860 538 list tosymbol;
#X obj 733 644 f 0, f 43;
#X obj 995 522 0;
#X obj 733 665 + 1;
#X obj 959 366 t b;
#X obj 734 76 t b;
#X obj 995 543 t f f;
#N canvas 4 50 450 300 get-the-biggest 0;
#X obj 37 37 inlet;
#X obj 23 175 f;
#X obj 23 148 sel 1;
#X obj 23 124 >;
#X obj 38 86 t a a a;
#X obj 23 196 outlet;
#X obj 191 43 inlet;
#X text 229 45 reset;
#X connect 0 0 4 0;
#X connect 1 0 5 0;
#X connect 2 0 1 0;
#X connect 3 0 2 0;
#X connect 4 0 3 1;
#X connect 4 1 3 0;
#X connect 4 2 1 1;
#X connect 6 0 3 1;
#X restore 860 580 pd get-the-biggest;
#X obj 734 35 r record-a-mixdown;
#X obj 733 686 s \$0-new-num-rec;
#X obj 344 211 r \$0-new-num-rec;
#X obj 497 267 1;
#X obj 497 288 s recordinG-a-mixdown;
#X obj 815 66 r recordinG-a-mixdown;
#X obj 734 97 f, f 14;
#X obj 734 118 sel 0 1;
#X obj 753 179 s \$0-end-rec;
#X obj 255 18 r \$0-end-rec;
#X obj 290 148 s recordinG-a-mixdown;
#X obj 377 97 2;
#X obj 290 88 del 5000;
#X obj 290 108 0;
#X obj 473 399 s oscOut;
#X msg 446 425 /oled/gFillArea 3 0 0 128 10 0;
#X obj 446 450 s oscOut;
#N canvas 101 153 867 636 print-line0 0;
#X obj 125 420 s oscOut;
#X obj 125 327 list prepend /oled/gPrintln 3 0 0 8 1;
#X obj 125 388 list trim;
#X obj 188 123 list, f 7;
#X obj 188 102 1;
#X obj 125 12 inlet;
#X obj 125 46 t a a b, f 11;
#X obj 245 265 list prepend /oled/gPrintln 3 0 0 8 0;
#X obj 188 174 route 1;
#X obj 188 195 route bang;
#X msg 125 301 Rec.Mix \$3.wav \$1:\$2;
#X msg 245 240 Rec.Mix \$3.wav \$1:\$2;
#X connect 1 0 2 0;
#X connect 2 0 0 0;
#X connect 3 0 8 0;
#X connect 4 0 3 0;
#X connect 5 0 6 0;
#X connect 6 0 10 0;
#X connect 6 1 3 1;
#X connect 6 2 4 0;
#X connect 7 0 2 0;
#X connect 8 0 9 0;
#X connect 9 1 11 0;
#X connect 10 0 1 0;
#X connect 11 0 7 0;
#X restore 179 539 pd print-line0;
#X obj 344 233 t b a b b, f 26;
#X obj 446 338 t b b;
#X msg 473 374 /oled/gShowInfoBar 3 0;
#X obj 105 199 s oscOut;
#X msg 105 173 /oled/gShowInfoBar 3 1;
#X obj 734 477 list split 1;
#X obj 860 559 f;
#X obj 734 381 t a a, f 17;
#X obj 833 413 list length;
#X obj 833 434 - 4;
#X obj 96 279 r~ internal-monitor;
#X msg 579 160 stop;
#X obj 555 129 t b b;
#X obj 256 39 t b b b b b;
#X obj 555 211 s \$0-end-rec;
#X obj 734 261 t a b b, f 44;
#X msg 734 220 ls mixdowns;
#X obj 179 326 cg-writeSf~ ../../mixdowns;
#X obj 555 190 del 300000;
#X text 623 191 300000ms = 5 min;
#X connect 0 0 53 1;
#X connect 1 0 53 1;
#X connect 2 0 6 0;
#X connect 3 0 53 1;
#X connect 4 0 2 0;
#X connect 4 1 5 2;
#X connect 5 0 35 0;
#X connect 6 0 5 0;
#X connect 6 1 5 1;
#X connect 7 0 9 0;
#X connect 7 1 14 0;
#X connect 8 0 43 0;
#X connect 9 0 8 0;
#X connect 10 0 42 0;
#X connect 11 0 13 0;
#X connect 12 0 16 0;
#X connect 13 0 19 0;
#X connect 14 0 11 0;
#X connect 15 0 24 0;
#X connect 16 0 17 1;
#X connect 16 1 11 1;
#X connect 17 0 11 1;
#X connect 18 0 15 0;
#X connect 20 0 36 0;
#X connect 21 0 22 0;
#X connect 23 0 24 1;
#X connect 24 0 25 0;
#X connect 25 0 52 0;
#X connect 25 1 26 0;
#X connect 27 0 49 0;
#X connect 29 0 28 0;
#X connect 30 0 31 0;
#X connect 31 0 28 0;
#X connect 33 0 34 0;
#X connect 36 0 0 0;
#X connect 36 1 3 0;
#X connect 36 2 37 0;
#X connect 36 3 21 0;
#X connect 37 0 33 0;
#X connect 37 1 38 0;
#X connect 38 0 32 0;
#X connect 40 0 39 0;
#X connect 41 0 10 0;
#X connect 42 0 17 0;
#X connect 43 0 41 0;
#X connect 43 1 44 0;
#X connect 44 0 45 0;
#X connect 45 0 41 1;
#X connect 46 0 53 0;
#X connect 47 0 54 0;
#X connect 48 0 54 0;
#X connect 48 1 47 0;
#X connect 49 0 40 0;
#X connect 49 1 1 0;
#X connect 49 2 30 0;
#X connect 49 3 29 0;
#X connect 49 4 47 0;
#X connect 51 0 7 0;
#X connect 51 1 12 0;
#X connect 51 2 48 0;
#X connect 52 0 51 0;
#X connect 53 0 4 0;
#X connect 54 0 50 0;
#X restore 54 470 pd record-mixdown;
#N canvas 498 57 864 675 bounce-the-tracks-4-stems 0;
#X obj 118 22 r bounce-the-tracks!;
#X obj 118 185 shell, f 26;
#X obj 118 230 list fromsymbol;
#X obj 118 207 symbol;
#X obj 270 335 list tosymbol;
#X obj 118 251 list split 6;
#X obj 270 312 list;
#X obj 117 451 f 0, f 43;
#X obj 270 356 f;
#X obj 440 320 0;
#X obj 117 472 + 1;
#X obj 271 272 t b;
#X obj 117 575 shell, f 26;
#X obj 118 138 t a b, f 42;
#N canvas 331 50 1031 682 soundfiler 0;
#X obj 312 499 soundfiler;
#X obj 312 289 text get locked-loop-info;
#X obj 312 129 t a b;
#X obj 312 189 f;
#X obj 368 190 + 1;
#X msg 368 160 0;
#X obj 312 259 t a a, f 32;
#X obj 501 289 + 1;
#X obj 312 319 *;
#X obj 312 341 * 44.1;
#X obj 312 99 f 4;
#X text 693 348 bounce folder number;
#X obj 681 131 inlet;
#X obj 312 35 inlet;
#X obj 312 159 until;
#X obj 525 372 v;
#X msg 540 349 symbol loop-\$1-AB;
#X msg 312 459 write -wave -nframes \$1 stems/stems-\$4/\$2.wav locked-loop-\$2-\$3
;
#X obj 312 429 pack 0 0 0 0, f 62;
#X obj 501 310 t a b a;
#X connect 1 0 8 0;
#X connect 2 0 14 0;
#X connect 2 1 5 0;
#X connect 3 0 4 0;
#X connect 3 0 6 0;
#X connect 4 0 3 1;
#X connect 5 0 3 1;
#X connect 6 0 1 0;
#X connect 6 1 7 0;
#X connect 7 0 19 0;
#X connect 8 0 9 0;
#X connect 9 0 18 0;
#X connect 10 0 2 0;
#X connect 12 0 18 3;
#X connect 13 0 10 0;
#X connect 14 0 3 0;
#X connect 15 0 18 2;
#X connect 16 0 15 1;
#X connect 17 0 0 0;
#X connect 18 0 17 0;
#X connect 19 0 18 1;
#X connect 19 1 15 0;
#X connect 19 2 16 0;
#X restore 270 634 pd soundfiler;
#X obj 270 601 t b;
#X obj 117 493 t a a, f 35;
#X obj 118 43 t b;
#X obj 440 341 t f f;
#N canvas 4 50 450 300 get-the-biggest 0;
#X obj 37 37 inlet;
#X obj 22 172 f;
#X obj 22 145 sel 1;
#X obj 23 124 >;
#X obj 38 86 t a a a;
#X obj 22 193 outlet;
#X obj 191 43 inlet;
#X text 229 45 reset;
#X connect 0 0 4 0;
#X connect 1 0 5 0;
#X connect 2 0 1 0;
#X connect 3 0 2 0;
#X connect 4 0 3 1;
#X connect 4 1 3 0;
#X connect 4 2 1 1;
#X connect 6 0 3 1;
#X restore 270 377 pd get-the-biggest;
#X msg 117 530 mkdir stems/stems-\$1;
#X msg 118 97 ls stems;
#X connect 0 0 17 0;
#X connect 1 0 3 0;
#X connect 1 1 11 0;
#X connect 2 0 5 0;
#X connect 3 0 2 0;
#X connect 4 0 8 0;
#X connect 5 1 6 0;
#X connect 6 0 4 0;
#X connect 7 0 10 0;
#X connect 8 0 19 0;
#X connect 9 0 18 0;
#X connect 10 0 16 0;
#X connect 11 0 7 0;
#X connect 12 1 15 0;
#X connect 13 0 1 0;
#X connect 13 1 9 0;
#X connect 15 0 14 0;
#X connect 16 0 20 0;
#X connect 16 1 14 1;
#X connect 17 0 21 0;
#X connect 18 0 19 1;
#X connect 18 1 7 1;
#X connect 19 0 7 1;
#X connect 20 0 12 0;
#X connect 21 0 13 0;
#X restore 54 410 pd bounce-the-tracks-4-stems;
#N canvas 4 50 574 490 audio-out 0;
#X obj 148 353 throw~ outL;
#X obj 167 331 throw~ outR;
#X text 269 257 Sound out;
#X obj 195 117 r~ inL;
#X obj 241 117 r~ inR;
#X obj 149 255 *~ 1;
#X obj 149 65 catch~ voice-out;
#X obj 195 197 *~, f 20;
#X obj 313 150 lop~ 20;
#X obj 313 118 r monitor;
#X obj 182 308 s~ internal-monitor;
#X connect 3 0 7 0;
#X connect 4 0 7 0;
#X connect 5 0 0 0;
#X connect 5 0 1 0;
#X connect 5 0 10 0;
#X connect 6 0 5 0;
#X connect 7 0 5 0;
#X connect 8 0 7 1;
#X connect 9 0 8 0;
#X restore 304 390 pd audio-out;
#X obj 531 311 cg-shortcut 1 0 0, f 20;
#X obj 530 398 loop-voice 1;
#X obj 530 428 loop-voice 2;
#X obj 530 458 loop-voice 3;
#X obj 530 488 loop-voice 4;
#N canvas 462 194 900 538 record 0;
#X obj 166 28 r rec-start;
#X obj 16 366 clone -s 1 4 record-countdown-and-free;
#X obj 205 74 s global-stop;
#N canvas 482 192 1195 610 ends-reported 0;
#X obj 74 61 inlet;
#X obj 74 260 s \$0-rec-feedB;
#X obj 74 220 2;
#X obj 101 220 3;
#X obj 129 221 4;
#X obj 157 220 s rec-over;
#X obj 74 189 sel 1 2 3 4, f 19;
#X obj 74 133 spigot;
#X obj 309 201 spigot;
#X obj 141 13 inlet;
#X obj 141 59 == 0;
#X obj 309 284 f;
#X obj 342 286 + 1;
#X obj 342 330 f;
#X obj 420 370 s rec-over;
#X obj 141 36 t a a a, f 91;
#X obj 412 136 == 1;
#X obj 74 102 t a a a, f 79;
#X obj 684 115 == 2;
#X obj 545 496 s \$0-rec-feedB;
#X obj 545 456 2;
#X obj 545 189 sel 1 2 3 4, f 56;
#X obj 545 413 t b b;
#X msg 572 456 \; loop-1-play stop;
#X obj 628 426 s \$0-rec-feedB;
#X obj 628 333 t b b;
#X obj 628 386 3;
#X msg 655 386 \; loop-2-play stop;
#X obj 711 359 s \$0-rec-feedB;
#X obj 711 272 t b b;
#X obj 711 332 4;
#X obj 545 154 spigot 0;
#X obj 813 273 s rec-over;
#X msg 833 237 \; loop-4-play stop;
#X obj 794 210 t b b b;
#X msg 738 320 \; loop-3-play stop;
#X obj 794 296 s re-trigger-play;
#X obj 381 331 t b b b;
#X obj 400 396 s re-trigger-play;
#X msg 336 248 \; loop-\$1-play stop;
#X obj 309 220 t b a;
#X obj 389 179 r start-rec;
#X obj 389 200 0;
#X obj 342 309 moses 4;
#X connect 0 0 17 0;
#X connect 2 0 1 0;
#X connect 3 0 1 0;
#X connect 4 0 1 0;
#X connect 6 0 2 0;
#X connect 6 1 3 0;
#X connect 6 2 4 0;
#X connect 6 3 5 0;
#X connect 7 0 6 0;
#X connect 8 0 40 0;
#X connect 9 0 15 0;
#X connect 10 0 7 1;
#X connect 11 0 12 0;
#X connect 12 0 43 0;
#X connect 13 0 11 1;
#X connect 15 0 10 0;
#X connect 15 1 16 0;
#X connect 15 2 18 0;
#X connect 16 0 8 1;
#X connect 17 0 7 0;
#X connect 17 1 8 0;
#X connect 17 2 31 0;
#X connect 18 0 31 1;
#X connect 20 0 19 0;
#X connect 21 0 22 0;
#X connect 21 1 25 0;
#X connect 21 2 29 0;
#X connect 21 3 34 0;
#X connect 22 0 20 0;
#X connect 22 1 23 0;
#X connect 25 0 26 0;
#X connect 25 1 27 0;
#X connect 26 0 24 0;
#X connect 29 0 30 0;
#X connect 29 1 35 0;
#X connect 30 0 28 0;
#X connect 31 0 21 0;
#X connect 34 0 36 0;
#X connect 34 1 32 0;
#X connect 34 2 33 0;
#X connect 37 1 38 0;
#X connect 37 2 14 0;
#X connect 40 0 11 0;
#X connect 40 1 39 0;
#X connect 41 0 42 0;
#X connect 42 0 11 1;
#X connect 43 0 13 0;
#X connect 43 1 37 0;
#X restore 16 430 pd ends-reported;
#X obj 166 49 t b b b;
#X obj 185 108 0;
#X obj 331 102 1;
#X obj 312 53 t b b b;
#X obj 537 40 r rec-serial;
#X obj 537 64 t b b b, f 14;
#X obj 577 107 2;
#X msg 166 197 1 start;
#X msg 585 407 1 start;
#X obj 585 428 s \$0-2-clone-rec;
#X obj 16 183 r \$0-2-clone-rec;
#X obj 166 218 s \$0-2-clone-rec;
#X obj 185 139 s \$0-end-mOdes;
#X obj 109 403 r \$0-end-mOdes;
#X obj 604 156 s \$0-end-mOdes;
#X obj 618 103 s global-stop;
#X obj 351 81 s global-stop;
#X obj 331 145 s \$0-end-mOdes;
#N canvas 4 50 1299 872 countdown 0;
#X obj 196 379 r beat-clock;
#X obj 196 505 spigot 0, f 23;
#X obj 331 432 f 1;
#N canvas 490 116 742 795 countdown 0;
#X obj 37 37 inlet;
#X obj 161 38 inlet;
#X text 207 36 reset;
#X obj 37 239 f;
#X obj 74 241 + 1;
#X obj 52 214 f 0;
#X obj 37 260 t a b;
#X obj 125 359 s led;
#X msg 125 337 6;
#X obj 64 410 del 100;
#X obj 64 286 t b b b, f 21;
#X msg 277 335 stop;
#X obj 64 452 s led;
#X obj 37 669 outlet;
#X obj 93 567 sel 1;
#X msg 256 495 stop;
#X obj 64 431 v led-state;
#X obj 125 318 del 1;
#X obj 37 640 t b b;
#X obj 91 543 == 3;
#X obj 37 79 sel 0;
#X obj 161 59 t b b b;
#X obj 154 137 0;
#X obj 143 186 359;
#X obj 47 511 t a a;
#X obj 47 532 == 4;
#X obj 47 553 sel 1;
#X connect 0 0 20 0;
#X connect 1 0 21 0;
#X connect 3 0 4 0;
#X connect 3 0 6 0;
#X connect 4 0 3 1;
#X connect 5 0 3 1;
#X connect 6 0 24 0;
#X connect 6 1 10 0;
#X connect 8 0 7 0;
#X connect 9 0 16 0;
#X connect 10 0 9 0;
#X connect 10 1 17 0;
#X connect 10 2 11 0;
#X connect 11 0 9 0;
#X connect 14 0 23 0;
#X connect 15 0 9 0;
#X connect 16 0 12 0;
#X connect 17 0 8 0;
#X connect 18 0 13 0;
#X connect 18 1 15 0;
#X connect 19 0 14 0;
#X connect 20 0 3 0;
#X connect 21 0 5 0;
#X connect 21 1 11 0;
#X connect 21 2 22 0;
#X connect 22 0 20 1;
#X connect 23 0 20 1;
#X connect 24 0 25 0;
#X connect 24 1 19 0;
#X connect 25 0 26 0;
#X connect 26 0 18 0;
#X restore 196 617 pd countdown;
#X obj 211 436 f 0;
#X obj 635 509 f 0;
#X obj 635 429 any-key-cancels, f 17;
#X obj 940 409 s \$0-cancel-cd;
#X obj 265 586 r \$0-cancel-cd;
#X obj 721 515 s \$0-cancel-cd;
#X text 959 393 reset count;
#X obj 635 611 s led;
#X obj 654 586 v led-state;
#X obj 674 558 s record-state;
#X obj 635 531 t a a a;
#X obj 211 413 r \$0-close-s;
#X obj 890 494 s \$0-close-s;
#X obj 571 745 s \$0-close-s;
#X obj 196 700 t b b b, f 63;
#X obj 331 34 inlet;
#X obj 331 371 t b b b, f 102;
#X obj 196 791 outlet;
#X obj 806 599 s rec-over;
#X obj 635 470 t b b b b, f 43;
#X connect 0 0 1 0;
#X connect 1 0 3 0;
#X connect 2 0 1 1;
#X connect 3 0 18 0;
#X connect 4 0 1 1;
#X connect 5 0 14 0;
#X connect 6 0 23 0;
#X connect 8 0 3 1;
#X connect 14 0 11 0;
#X connect 14 1 12 0;
#X connect 14 2 13 0;
#X connect 15 0 4 0;
#X connect 18 0 21 0;
#X connect 18 1 6 1;
#X connect 18 2 17 0;
#X connect 19 0 20 0;
#X connect 20 0 2 0;
#X connect 20 1 6 0;
#X connect 20 2 7 0;
#X connect 23 0 5 0;
#X connect 23 1 9 0;
#X connect 23 2 22 0;
#X connect 23 3 16 0;
#X restore 312 174 pd countdown;
#X obj 446 370 any-key-cancels, f 16;
#X obj 312 325 t b b;
#X obj 540 344 r rec-over;
#X msg 466 437 all stop;
#X obj 312 430 s \$0-2-clone-rec;
#X msg 312 379 all start;
#X obj 46 212 r \$0-rec-feedB;
#X msg 46 333 \$1 start;
#X obj 312 195 list prepend, f 32;
#X obj 312 216 list trim;
#X obj 312 267 route 1 2, f 78;
#X obj 331 123 t a a;
#X obj 577 128 t a a;
#X obj 585 291 t b b;
#X obj 466 458 s \$0-2-clone-rec;
#X obj 46 303 spigot 0;
#X obj 91 241 r rec-over;
#X obj 91 262 0;
#X obj 117 263 r start-rec;
#X obj 117 284 1;
#X obj 447 483 s re-trigger-play;
#X obj 486 413 s rec-over;
#X obj 447 391 t b b b;
#X obj 312 32 r rec-paralell;
#X connect 0 0 4 0;
#X connect 1 0 3 0;
#X connect 4 0 11 0;
#X connect 4 1 5 0;
#X connect 4 2 2 0;
#X connect 5 0 16 0;
#X connect 6 0 34 0;
#X connect 7 0 22 0;
#X connect 7 1 6 0;
#X connect 7 2 20 0;
#X connect 8 0 9 0;
#X connect 9 0 22 0;
#X connect 9 1 10 0;
#X connect 9 2 19 0;
#X connect 10 0 35 0;
#X connect 11 0 15 0;
#X connect 12 0 13 0;
#X connect 14 0 1 0;
#X connect 17 0 3 1;
#X connect 22 0 31 0;
#X connect 23 0 45 0;
#X connect 24 0 28 0;
#X connect 24 1 23 0;
#X connect 25 0 23 1;
#X connect 26 0 37 0;
#X connect 28 0 27 0;
#X connect 29 0 38 0;
#X connect 30 0 1 0;
#X connect 31 0 32 0;
#X connect 32 0 33 0;
#X connect 33 0 24 0;
#X connect 33 1 36 0;
#X connect 34 0 21 0;
#X connect 34 1 31 1;
#X connect 35 0 31 1;
#X connect 35 1 18 0;
#X connect 36 0 12 0;
#X connect 36 1 23 0;
#X connect 38 0 30 0;
#X connect 39 0 40 0;
#X connect 40 0 38 1;
#X connect 41 0 42 0;
#X connect 42 0 38 1;
#X connect 45 0 43 0;
#X connect 45 1 26 0;
#X connect 45 2 44 0;
#X connect 46 0 7 0;
#X restore 309 230 pd record;
#N canvas 517 203 1076 701 play-modes 0;
#X obj 345 227 s global-start;
#X obj 96 57 r send-play-modes;
#X obj 96 147 sel 0 1 2, f 125;
#X text 373 208 Parallel;
#X text 113 179 Serial;
#X obj 96 520 cg-loop 4 1;
#X obj 188 430 spigot 0;
#X obj 188 334 r loop-reporter;
#X obj 188 451 sel, f 7;
#X obj 96 315 t b b b b, f 10;
#X obj 153 342 0;
#X obj 115 343 1;
#X obj 113 263 s global-stop;
#X msg 96 680 \; loop-\$1-play start;
#X msg 235 655 \; loop-\$1-play stop;
#X obj 235 616 f;
#X obj 96 561 t a a a;
#X obj 188 472 t b b;
#X msg 116 382 setNo 0;
#X obj 96 541 + 1;
#N canvas 4 52 453 298 any-stop/play-cancels 0;
#X obj 44 62 r global-stop;
#X obj 270 181 t b;
#X obj 270 225 0;
#X obj 270 266 outlet;
#X obj 183 28 r loop-1-play;
#X obj 246 51 r loop-2-play;
#X obj 309 80 r loop-3-play;
#X obj 343 127 r loop-4-play;
#X obj 183 50 route tog;
#X obj 247 72 route tog;
#X obj 309 101 route tog;
#X obj 343 149 route tog;
#X connect 0 0 1 0;
#X connect 1 0 2 0;
#X connect 2 0 3 0;
#X connect 4 0 8 0;
#X connect 5 0 9 0;
#X connect 6 0 10 0;
#X connect 7 0 11 0;
#X connect 8 0 1 0;
#X connect 9 0 1 0;
#X connect 10 0 1 0;
#X connect 11 0 1 0;
#X restore 233 369 pd any-stop/play-cancels;
#X obj 106 200 r continue-serial-play;
#X obj 123 640 v reset-bpm?;
#X obj 96 588 t a b;
#X obj 123 615 1;
#X obj 410 339 0;
#X obj 96 223 t b b b, f 12;
#X obj 345 183 t b b b;
#X obj 267 260 2;
#X obj 284 434 0;
#X obj 224 265 1;
#X obj 224 297 s the-modes-of-play;
#X obj 284 456 s the-modes-of-play;
#X obj 233 391 t a b;
#X connect 1 0 2 0;
#X connect 2 0 26 0;
#X connect 2 1 27 0;
#X connect 5 0 19 0;
#X connect 6 0 8 0;
#X connect 7 0 6 0;
#X connect 8 0 17 0;
#X connect 9 0 5 0;
#X connect 9 1 11 0;
#X connect 9 2 18 0;
#X connect 9 3 10 0;
#X connect 10 0 6 1;
#X connect 11 0 6 1;
#X connect 15 0 14 0;
#X connect 16 0 23 0;
#X connect 16 1 15 1;
#X connect 16 2 8 1;
#X connect 17 0 5 0;
#X connect 17 1 15 0;
#X connect 18 0 5 1;
#X connect 19 0 16 0;
#X connect 20 0 33 0;
#X connect 21 0 26 0;
#X connect 23 0 13 0;
#X connect 23 1 24 0;
#X connect 24 0 22 0;
#X connect 25 0 6 1;
#X connect 26 0 9 0;
#X connect 26 1 30 0;
#X connect 26 2 12 0;
#X connect 27 0 0 0;
#X connect 27 1 25 0;
#X connect 27 2 28 0;
#X connect 28 0 31 0;
#X connect 29 0 32 0;
#X connect 30 0 31 0;
#X connect 33 0 6 1;
#X connect 33 1 29 0;
#X restore 309 192 pd play-modes;
#X text 320 156 play modes should be buttons;
#X text 225 26 BRENO - this version for Organelle M;
#X connect 5 0 25 0;
#X connect 6 0 25 1;
#X connect 7 0 16 0;
#X connect 13 0 15 0;
#X connect 15 0 16 1;
#X connect 16 0 1 0;
#X connect 25 0 9 0;
