#N canvas 35 78 1667 852 10;
#X obj 346 108 m_speedlimit 60;
#X obj 117 107 m_speedlimit 60;
#X obj 117 45 inlet;
#X obj 346 45 inlet;
#X obj 650 202 s oscOut;
#X text 167 22 0-1 target;
#X text 720 57 bang print outline;
#X obj 650 55 inlet;
#X obj 650 130 \$1;
#X obj 650 107 t b;
#X msg 650 179 /oled/gBox 3 1 \$1 124 10 1;
#X obj 650 152 - 1;
#X obj 331 835 s oscOut;
#X msg 388 692 1;
#X obj 388 737 route 1;
#X obj 388 714 list append;
#X obj 331 647 t a a b, f 24;
#X obj 505 698 loadbang;
#X obj 331 621 pack 0 0 \$1;
#X msg 388 763 /oled/gFillArea 3 \$1 \$3 \$2 8 0;
#X msg 331 797 /oled/gFillArea 3 \$1 \$3 \$2 8 1;
#X obj 149 210 + 0.499999;
#X obj 378 204 + 0.499999;
#X obj 378 152 * 118;
#X obj 179 282 v \$0-point;
#X obj 408 276 v \$0-width;
#X obj 149 262 t b a;
#X obj 378 256 t b a;
#X obj 378 308 s \$0-width-bang;
#X obj 149 314 s \$0-point-bang;
#X obj 331 520 v \$0-point;
#X obj 491 336 r \$0-width-bang;
#X obj 605 466 v \$0-point;
#X obj 605 488 +, f 11;
#X obj 683 466 v \$0-width;
#X obj 378 226 i;
#X obj 149 232 i;
#X obj 518 467 v \$0-width;
#X obj 605 536 max 0;
#X obj 518 561 -;
#X text 690 485 far right x point;
#X text 649 512 amount over the max x point;
#X text 651 538 filter out negative numbers;
#X text 585 566 subtract from width;
#X obj 331 358 r \$0-point-bang;
#X obj 523 396 t b b b, f 18;
#X obj 491 358 t b b;
#X obj 331 380 t b b;
#X obj 331 542 max 2;
#X obj 331 564 min 124;
#X obj 149 158 * 120;
#X obj 149 180 + 1;
#X obj 378 174 + 4;
#X obj 605 510 - 124;
#X obj 938 72 inlet;
#X text 993 66 print bar;
#X obj 296 168 s \$0-bar;
#X obj 69 191 s \$0-bar;
#X obj 982 280 pack 0 \$1;
#X obj 982 248 i;
#X obj 905 123 r \$0-bar;
#X obj 987 179 f;
#X obj 987 201 + 0.499999;
#X obj 998 128 * 122;
#X obj 998 150 - 2;
#X obj 1247 343 pack 0 \$1;
#X obj 1255 306 i;
#X obj 1255 269 + 0.499999;
#X obj 1247 603 s oscOut;
#X msg 1304 460 1;
#X obj 1304 505 route 1;
#X obj 1304 482 list append;
#X obj 1247 385 t a a b, f 24;
#X obj 1386 438 loadbang;
#X obj 1255 169 spigot 0;
#X obj 117 129 t b a b;
#X obj 346 130 t b a b;
#X text 394 21 0-1 width;
#X obj 482 194 s \$0-valve;
#X obj 1404 51 r \$0-valve;
#X msg 1458 108 stop;
#X msg 1423 110 0;
#X msg 1412 161 1;
#X obj 925 386 s oscOut;
#X msg 925 348 /oled/gBox 3 \$1 \$2 2 8 0;
#X obj 1255 78 inlet;
#X text 1310 72 print LFO;
#X obj 1255 137 m_speedlimit 80;
#X obj 1404 73 t b b b b;
#X obj 1255 243 + 3;
#X obj 1255 221 * 117;
#X msg 1304 531 /oled/gInvertArea 3 \$1 \$2 2 8 1;
#X msg 1247 565 /oled/gInvertArea 3 \$1 \$2 2 8 1;
#X msg 504 726 0 0;
#X msg 1387 459 -1 -5;
#X obj 1412 139 del 60;
#X obj 1559 60 inlet mute;
#X obj 1559 82 s \$0-muter;
#X obj 1255 100 spigot 1;
#X obj 938 94 spigot 1;
#X obj 650 77 spigot 1;
#X obj 346 67 spigot 1;
#X obj 117 67 spigot 1;
#X obj 1291 45 r \$0-muter;
#X obj 983 44 r \$0-muter;
#X obj 696 29 r \$0-muter;
#X obj 399 41 r \$0-muter;
#X obj 170 42 r \$0-muter;
#X connect 0 0 76 0;
#X connect 1 0 75 0;
#X connect 2 0 102 0;
#X connect 3 0 101 0;
#X connect 7 0 100 0;
#X connect 8 0 11 0;
#X connect 9 0 8 0;
#X connect 10 0 4 0;
#X connect 11 0 10 0;
#X connect 13 0 15 0;
#X connect 14 0 19 0;
#X connect 15 0 14 0;
#X connect 16 0 20 0;
#X connect 16 1 15 1;
#X connect 16 2 13 0;
#X connect 17 0 93 0;
#X connect 18 0 16 0;
#X connect 19 0 12 0;
#X connect 20 0 12 0;
#X connect 21 0 36 0;
#X connect 22 0 35 0;
#X connect 23 0 52 0;
#X connect 26 0 29 0;
#X connect 26 1 24 0;
#X connect 27 0 28 0;
#X connect 27 1 25 0;
#X connect 30 0 48 0;
#X connect 31 0 46 0;
#X connect 32 0 33 0;
#X connect 33 0 53 0;
#X connect 34 0 33 1;
#X connect 35 0 27 0;
#X connect 36 0 26 0;
#X connect 37 0 39 0;
#X connect 38 0 39 1;
#X connect 39 0 18 1;
#X connect 44 0 47 0;
#X connect 45 0 37 0;
#X connect 45 1 32 0;
#X connect 45 2 34 0;
#X connect 46 0 30 0;
#X connect 46 1 45 0;
#X connect 47 0 30 0;
#X connect 47 1 45 0;
#X connect 48 0 49 0;
#X connect 49 0 18 0;
#X connect 50 0 51 0;
#X connect 51 0 21 0;
#X connect 52 0 22 0;
#X connect 53 0 38 0;
#X connect 54 0 99 0;
#X connect 58 0 84 0;
#X connect 59 0 58 0;
#X connect 61 0 62 0;
#X connect 62 0 59 0;
#X connect 63 0 64 0;
#X connect 64 0 61 1;
#X connect 65 0 72 0;
#X connect 66 0 65 0;
#X connect 67 0 66 0;
#X connect 69 0 71 0;
#X connect 70 0 91 0;
#X connect 71 0 70 0;
#X connect 72 0 92 0;
#X connect 72 1 71 1;
#X connect 72 2 69 0;
#X connect 73 0 94 0;
#X connect 74 0 90 0;
#X connect 75 0 57 0;
#X connect 75 1 50 0;
#X connect 75 2 78 0;
#X connect 76 0 56 0;
#X connect 76 1 23 0;
#X connect 76 2 78 0;
#X connect 79 0 88 0;
#X connect 80 0 95 0;
#X connect 81 0 74 1;
#X connect 82 0 74 1;
#X connect 84 0 83 0;
#X connect 85 0 98 0;
#X connect 87 0 74 0;
#X connect 88 0 94 0;
#X connect 88 1 95 0;
#X connect 88 2 81 0;
#X connect 88 3 80 0;
#X connect 89 0 67 0;
#X connect 90 0 89 0;
#X connect 91 0 68 0;
#X connect 92 0 68 0;
#X connect 93 0 15 1;
#X connect 94 0 71 1;
#X connect 95 0 82 0;
#X connect 96 0 97 0;
#X connect 98 0 87 0;
#X connect 99 0 63 0;
#X connect 100 0 9 0;
#X connect 101 0 0 0;
#X connect 102 0 1 0;
#X connect 103 0 98 1;
#X connect 104 0 99 1;
#X connect 105 0 100 1;
#X connect 106 0 101 1;
#X connect 107 0 102 1;
