#N canvas 82 50 905 902 10;
#X obj 179 71 inlet;
#X obj 179 106 unpack f f, f 33;
#X obj 179 217 mtof;
#X obj 178 318 *~;
#X obj 197 287 receive~ f;
#X obj 178 805 outlet~;
#X obj 179 262 sig~;
#X obj 177 364 blsaw;
#X obj 407 147 sel 0, f 13;
#X obj 282 475 vline~;
#X obj 178 669 moog~, f 27;
#X obj 50 342 receive~ offset;
#X obj 33 389 *~;
#X obj 33 418 blsaw;
#X obj 265 529 *~;
#X obj 365 634 lop~ 5;
#X msg 282 385 0 \$1;
#X text 593 171 attack;
#X text 305 327 release;
#X text 432 507 cutoff;
#X obj 178 716 *~;
#X obj 495 173 / 127;
#X obj 549 172 r att;
#X obj 370 323 r rel;
#X obj 282 349 f, f 13;
#X obj 495 195 sqrt;
#X text 430 628 rez;
#X obj 33 462 +~, f 15;
#X obj 178 737 *~ 1.9;
#X msg 495 259 \$1 \$2 \, 0.78 300 \$2;
#X obj 495 225 pack 0 0, f 13;
#X obj 417 480 r~ cut;
#X obj 365 601 r~ rez;
#X obj 177 386 *~ 0.707;
#X obj 34 441 *~ 0.707;
#X obj 325 571 +~, f 9;
#X obj 323 531 /~ 2;
#X obj 325 593 *~;
#X obj 353 495 *~ 0.5;
#X obj 353 517 +~ 0.5;
#X connect 0 0 1 0;
#X connect 1 0 2 0;
#X connect 1 1 8 0;
#X connect 2 0 6 0;
#X connect 3 0 7 0;
#X connect 3 0 12 0;
#X connect 3 0 36 0;
#X connect 4 0 3 1;
#X connect 6 0 3 0;
#X connect 7 0 33 0;
#X connect 8 0 24 0;
#X connect 8 1 21 0;
#X connect 9 0 14 1;
#X connect 9 0 14 0;
#X connect 9 0 38 0;
#X connect 10 0 20 0;
#X connect 11 0 12 1;
#X connect 12 0 13 0;
#X connect 13 0 34 0;
#X connect 14 0 20 1;
#X connect 15 0 10 2;
#X connect 16 0 9 0;
#X connect 20 0 28 0;
#X connect 21 0 25 0;
#X connect 22 0 30 1;
#X connect 23 0 24 1;
#X connect 24 0 16 0;
#X connect 25 0 30 0;
#X connect 27 0 10 0;
#X connect 28 0 5 0;
#X connect 29 0 9 0;
#X connect 30 0 29 0;
#X connect 31 0 35 1;
#X connect 32 0 15 0;
#X connect 33 0 27 1;
#X connect 34 0 27 0;
#X connect 35 0 37 0;
#X connect 36 0 35 0;
#X connect 37 0 10 1;
#X connect 38 0 39 0;
#X connect 39 0 37 1;
