#N canvas 90 287 999 717 10;
#X obj 228 288 * 4;
#X obj 228 227 t a b;
#X obj 228 186 moses 0.25, f 19;
#X obj 339 214 moses 0.5, f 28;
#X obj 339 255 - 0.25;
#X obj 339 339 * 4;
#X obj 339 235 t a b, f 10;
#X obj 504 365 * 4;
#X obj 504 261 t a b, f 10;
#X obj 504 239 moses 0.75, f 34;
#X obj 504 281 - 0.5;
#X obj 705 376 * 4;
#X obj 705 272 t a b, f 10;
#X obj 705 292 - 0.75;
#X text 357 49 Arg1: which knob 1-4;
#X obj 39 96 r knob\$1;
#X obj 99 95 r seq3-1-k\$1;
#X obj 392 637 s~ wave-\$1-index;
#X obj 228 629 s~ wave-\$1-vol;
#X obj 39 137 t b a, f 32;
#X obj 39 220 s print-waveform;
#X msg 255 262 1;
#X msg 396 261 2;
#X msg 562 287 3;
#X msg 762 298 4;
#X obj 392 487 t a a;
#X obj 392 578 change -1;
#X obj 392 607 lop~ 20;
#X obj 270 521 pack 0 0;
#X obj 228 447 t a a;
#X obj 228 598 lop~ 20;
#X obj 270 542 list prepend \$1;
#X obj 270 563 s 4-wave-knob-print;
#X obj 290 448 * 100;
#X obj 290 469 i;
#X obj 412 529 i;
#X connect 0 0 29 0;
#X connect 1 0 0 0;
#X connect 1 1 21 0;
#X connect 2 0 1 0;
#X connect 2 1 3 0;
#X connect 3 0 6 0;
#X connect 3 1 9 0;
#X connect 4 0 5 0;
#X connect 5 0 29 0;
#X connect 6 0 4 0;
#X connect 6 1 22 0;
#X connect 7 0 29 0;
#X connect 8 0 10 0;
#X connect 8 1 23 0;
#X connect 9 0 8 0;
#X connect 9 1 12 0;
#X connect 10 0 7 0;
#X connect 11 0 29 0;
#X connect 12 0 13 0;
#X connect 12 1 24 0;
#X connect 13 0 11 0;
#X connect 15 0 19 0;
#X connect 16 0 19 0;
#X connect 19 0 20 0;
#X connect 19 1 2 0;
#X connect 21 0 25 0;
#X connect 22 0 25 0;
#X connect 23 0 25 0;
#X connect 24 0 25 0;
#X connect 25 0 26 0;
#X connect 25 1 35 0;
#X connect 26 0 27 0;
#X connect 27 0 17 0;
#X connect 28 0 31 0;
#X connect 29 0 30 0;
#X connect 29 1 33 0;
#X connect 30 0 18 0;
#X connect 31 0 32 0;
#X connect 33 0 34 0;
#X connect 34 0 28 0;
#X connect 35 0 28 1;
