#N canvas 430 121 1486 818 10;
#X obj 48 41 inlet note;
#X obj 371 665 vline~;
#X obj 240 578 sqrt;
#X obj 81 296 unpack 0 0;
#X obj 81 317 swap, f 10;
#X obj 81 478 sel 0, f 27;
#X obj 240 556 / 127;
#X obj 138 425 s~ \$0-freq;
#X obj 138 384 mtof;
#X obj 492 343 *~;
#X obj 821 643 clip~ -1 1;
#X obj 679 355 *~;
#X obj 856 364 *~;
#X obj 1066 357 *~;
#X obj 821 706 hip~ 4;
#X obj 821 727 outlet~;
#X obj 493 45 r~ \$0-freq;
#X obj 138 354 +, f 8;
#X obj 156 303 r transpose;
#X obj 138 405 lop~ 100;
#X obj 156 326 t b a;
#X obj 195 730 switch~;
#X msg 221 690 1;
#X obj 81 519 t b b b;
#X msg 120 572 stop;
#X msg 100 634 0;
#X obj 81 426 t a a;
#X obj 108 450 s \$0-vel;
#X obj 371 716 s~ \$0-line;
#X obj 1067 294 *~;
#X obj 1083 221 r~ \$0-line;
#X obj 901 222 r~ \$0-line;
#X obj 856 293 *~, f 8;
#X obj 240 521 t a b b b;
#X obj 48 62 t a a, f 47;
#X obj 81 251 list, f 47;
#X msg 81 231 69;
#X obj 81 272 route 69;
#X obj 48 84 unpack;
#X obj 81 109 sel 0;
#X obj 108 135 t b b b, f 26;
#X msg 184 158 stop;
#X obj 508 313 r~ wave-1-vol;
#X obj 509 66 r~ wave-1-index;
#X obj 493 96 *~;
#X obj 679 35 r~ \$0-freq;
#X obj 679 86 *~;
#X obj 858 39 r~ \$0-freq;
#X obj 858 90 *~;
#X obj 1066 25 r~ \$0-freq;
#X obj 1066 76 *~;
#X obj 725 204 r~ \$0-line;
#X obj 680 275 *~, f 8;
#X obj 537 207 r~ \$0-line;
#X obj 493 282 *~, f 8;
#X obj 695 56 r~ wave-2-index;
#X obj 695 324 r~ wave-2-vol;
#X obj 872 330 r~ wave-3-vol;
#X obj 874 60 r~ wave-3-index;
#X obj 1082 46 r~ wave-4-index;
#X obj 1082 321 r~ wave-4-vol;
#X obj 821 664 *~ 0.8;
#X obj 108 192 del 3;
#X msg 371 453 0 3;
#X obj 492 384 s~ \$0-wave1-mod;
#X obj 678 389 s~ \$0-wave2-mod;
#X obj 856 395 s~ \$0-wave3-mod;
#X obj 1066 395 s~ \$0-wave4-mod;
#X obj 492 173 phase-mod wave-1;
#X obj 679 161 phase-mod wave-1;
#X obj 537 228 pow~ 2;
#X msg 240 601 \$1 8 \, 0.8 1000 8;
#X obj 725 225 pow~ 2;
#X obj 901 243 pow~ 2;
#X obj 1083 242 pow~ 2;
#X obj 821 591 4-algo \$0 5;
#N canvas 4 50 945 362 4-algo-OP1 0;
#X obj 11 183 outlet~;
#X obj 12 117 *~;
#X obj 26 92 lop~ 10;
#X obj 124 117 *~;
#X obj 138 92 lop~ 10;
#X obj 232 117 *~;
#X obj 246 92 lop~ 10;
#X obj 449 184 outlet;
#X obj 27 64 r 4algo-1-2;
#X obj 138 65 r 4algo-1-3;
#X obj 246 65 r 4algo-1-4;
#X obj 449 78 r 4algo-1-1;
#X obj 12 16 r~ \$0-wave2-mod;
#X obj 124 16 r~ \$0-wave3-mod;
#X obj 232 16 r~ \$0-wave4-mod;
#X connect 1 0 0 0;
#X connect 2 0 1 1;
#X connect 3 0 0 0;
#X connect 4 0 3 1;
#X connect 5 0 0 0;
#X connect 6 0 5 1;
#X connect 8 0 2 0;
#X connect 9 0 4 0;
#X connect 10 0 6 0;
#X connect 11 0 7 0;
#X connect 12 0 1 0;
#X connect 13 0 3 0;
#X connect 14 0 5 0;
#X restore 536 95 pd 4-algo-OP1;
#N canvas 4 50 945 362 4-algo-OP2 0;
#X obj 11 183 outlet~;
#X obj 12 117 *~;
#X obj 26 92 lop~ 10;
#X obj 124 117 *~;
#X obj 138 92 lop~ 10;
#X obj 232 117 *~;
#X obj 246 92 lop~ 10;
#X obj 449 184 outlet;
#X obj 12 16 r~ \$0-wave1-mod;
#X obj 124 16 r~ \$0-wave3-mod;
#X obj 233 15 r~ \$0-wave4-mod;
#X obj 27 64 r 4algo-2-1;
#X obj 138 65 r 4algo-2-3;
#X obj 246 65 r 4algo-2-4;
#X obj 449 78 r 4algo-2-2;
#X connect 1 0 0 0;
#X connect 2 0 1 1;
#X connect 3 0 0 0;
#X connect 4 0 3 1;
#X connect 5 0 0 0;
#X connect 6 0 5 1;
#X connect 8 0 1 0;
#X connect 9 0 3 0;
#X connect 10 0 5 0;
#X connect 11 0 2 0;
#X connect 12 0 4 0;
#X connect 13 0 6 0;
#X connect 14 0 7 0;
#X restore 703 118 pd 4-algo-OP2;
#N canvas 4 50 945 362 4-algo-OP4 0;
#X obj 11 183 outlet~;
#X obj 12 117 *~;
#X obj 26 92 lop~ 10;
#X obj 124 117 *~;
#X obj 138 92 lop~ 10;
#X obj 232 117 *~;
#X obj 246 92 lop~ 10;
#X obj 449 184 outlet;
#X obj 26 64 r 4algo-4-1;
#X obj 12 16 r~ \$0-wave1-mod;
#X obj 124 15 r~ \$0-wave2-mod;
#X obj 138 65 r 4algo-4-2;
#X obj 246 65 r 4algo-4-3;
#X obj 451 78 r 4algo-4-4;
#X obj 232 16 r~ \$0-wave3-mod;
#X connect 1 0 0 0;
#X connect 2 0 1 1;
#X connect 3 0 0 0;
#X connect 4 0 3 1;
#X connect 5 0 0 0;
#X connect 6 0 5 1;
#X connect 8 0 2 0;
#X connect 9 0 1 0;
#X connect 10 0 3 0;
#X connect 11 0 4 0;
#X connect 12 0 6 0;
#X connect 13 0 7 0;
#X connect 14 0 5 0;
#X restore 1116 108 pd 4-algo-OP4;
#N canvas 4 50 945 362 4-algo-OP3 0;
#X obj 11 183 outlet~;
#X obj 12 117 *~;
#X obj 26 92 lop~ 10;
#X obj 124 117 *~;
#X obj 138 92 lop~ 10;
#X obj 232 117 *~;
#X obj 246 92 lop~ 10;
#X obj 449 184 outlet;
#X obj 449 78 r 4algo-3-3;
#X obj 232 16 r~ \$0-wave4-mod;
#X obj 124 16 r~ \$0-wave2-mod;
#X obj 12 16 r~ \$0-wave1-mod;
#X obj 26 64 r 4algo-3-1;
#X obj 139 63 r 4algo-3-2;
#X obj 246 65 r 4algo-3-4;
#X connect 1 0 0 0;
#X connect 2 0 1 1;
#X connect 3 0 0 0;
#X connect 4 0 3 1;
#X connect 5 0 0 0;
#X connect 6 0 5 1;
#X connect 8 0 7 0;
#X connect 9 0 5 0;
#X connect 10 0 3 0;
#X connect 11 0 1 0;
#X connect 12 0 2 0;
#X connect 13 0 4 0;
#X connect 14 0 6 0;
#X restore 875 126 pd 4-algo-OP3;
#X obj 100 613 del 245;
#X msg 82 677 0 245;
#X obj 857 180 phase-mod wave-2;
#X obj 1066 154 phase-mod wave-3;
#X connect 0 0 34 0;
#X connect 1 0 28 0;
#X connect 2 0 71 0;
#X connect 3 0 4 0;
#X connect 3 1 4 1;
#X connect 4 0 26 0;
#X connect 4 1 17 0;
#X connect 5 0 23 0;
#X connect 5 1 33 0;
#X connect 6 0 2 0;
#X connect 8 0 19 0;
#X connect 9 0 64 0;
#X connect 10 0 61 0;
#X connect 11 0 65 0;
#X connect 12 0 66 0;
#X connect 13 0 67 0;
#X connect 14 0 15 0;
#X connect 16 0 44 0;
#X connect 17 0 8 0;
#X connect 18 0 20 0;
#X connect 19 0 7 0;
#X connect 20 0 17 0;
#X connect 20 1 17 1;
#X connect 22 0 21 0;
#X connect 23 0 81 0;
#X connect 23 1 80 0;
#X connect 23 2 24 0;
#X connect 24 0 80 0;
#X connect 25 0 21 0;
#X connect 26 0 5 0;
#X connect 26 1 27 0;
#X connect 29 0 13 0;
#X connect 30 0 74 0;
#X connect 31 0 73 0;
#X connect 32 0 12 0;
#X connect 33 0 6 0;
#X connect 33 1 22 0;
#X connect 33 2 24 0;
#X connect 34 0 38 0;
#X connect 34 1 35 1;
#X connect 35 0 37 0;
#X connect 36 0 35 0;
#X connect 37 0 3 0;
#X connect 38 1 39 0;
#X connect 39 0 36 0;
#X connect 39 1 40 0;
#X connect 40 0 62 0;
#X connect 40 1 41 0;
#X connect 40 2 63 0;
#X connect 41 0 62 0;
#X connect 42 0 9 1;
#X connect 43 0 44 1;
#X connect 44 0 68 0;
#X connect 45 0 46 0;
#X connect 46 0 69 0;
#X connect 47 0 48 0;
#X connect 48 0 82 0;
#X connect 49 0 50 0;
#X connect 50 0 83 0;
#X connect 51 0 72 0;
#X connect 52 0 11 0;
#X connect 53 0 70 0;
#X connect 54 0 9 0;
#X connect 55 0 46 1;
#X connect 56 0 11 1;
#X connect 57 0 12 1;
#X connect 58 0 48 1;
#X connect 59 0 50 1;
#X connect 60 0 13 1;
#X connect 61 0 14 0;
#X connect 62 0 36 0;
#X connect 63 0 1 0;
#X connect 68 0 54 0;
#X connect 69 0 52 0;
#X connect 70 0 54 1;
#X connect 71 0 1 0;
#X connect 72 0 52 1;
#X connect 73 0 32 1;
#X connect 74 0 29 1;
#X connect 75 0 10 0;
#X connect 76 0 68 1;
#X connect 77 0 69 1;
#X connect 78 0 83 1;
#X connect 79 0 82 1;
#X connect 80 0 25 0;
#X connect 81 0 1 0;
#X connect 82 0 32 0;
#X connect 83 0 29 0;
