#N canvas 361 247 1047 668 10;
#X obj 253 449 *~ 0.5;
#X obj 253 470 +~ 0.5;
#X obj 253 428 osc~ 0.5, f 16;
#X obj 207 322 vline~;
#X obj 207 343 pow~ 2;
#X obj 237 530 *~;
#X obj 44 58 sel 0, f 16;
#X msg 164 116 stop;
#X msg 137 175 1;
#X obj 137 89 t b b;
#X msg 44 79 0;
#X obj 44 100 t a b;
#X obj 137 201 t a b b, f 24;
#X obj 237 551 outlet~ to a -~ object;
#X text 756 243 Arg 1: Delay time in ms;
#X text 760 346 Arg4: slope time ms;
#X obj 137 152 del \$1;
#X obj 44 330 lop~ 5;
#X text 761 275 Arg2: start lfo hz;
#X text 767 309 Arg3: end lfo hz;
#X obj 346 391 f \$5;
#X obj 207 256 f \$4;
#X obj 44 31 inlet trigger(velocity);
#X obj 308 32 inlet delay time;
#X obj 451 79 lop~ 10;
#X obj 451 28 inlet start lfo;
#X obj 571 28 inlet end lfo;
#X obj 451 49 sig~ \$2;
#X obj 207 363 *~, f 12;
#X obj 572 81 lop~ 10;
#X obj 572 51 sig~ \$3;
#X obj 206 385 +~, f 16;
#X obj 717 24 inlet slope time;
#X text 755 376 Arg5: start phase 0-1 float;
#X obj 849 21 inlet start phase;
#X msg 207 290 1 0 \, 0 \$1 0;
#X connect 0 0 1 0;
#X connect 1 0 5 1;
#X connect 2 0 0 0;
#X connect 3 0 4 0;
#X connect 4 0 28 0;
#X connect 5 0 13 0;
#X connect 6 0 10 0;
#X connect 6 1 9 0;
#X connect 7 0 16 0;
#X connect 8 0 12 0;
#X connect 9 0 16 0;
#X connect 9 1 7 0;
#X connect 10 0 11 0;
#X connect 11 0 17 0;
#X connect 11 1 7 0;
#X connect 12 0 17 0;
#X connect 12 1 21 0;
#X connect 12 2 20 0;
#X connect 16 0 8 0;
#X connect 17 0 5 0;
#X connect 20 0 2 1;
#X connect 21 0 35 0;
#X connect 22 0 6 0;
#X connect 23 0 16 1;
#X connect 24 0 28 1;
#X connect 25 0 27 0;
#X connect 26 0 30 0;
#X connect 27 0 24 0;
#X connect 28 0 31 0;
#X connect 29 0 31 1;
#X connect 30 0 29 0;
#X connect 31 0 2 0;
#X connect 32 0 21 1;
#X connect 34 0 20 1;
#X connect 35 0 3 0;
