#N canvas 383 56 1120 804 10;
#X obj 824 725 outlet;
#X obj 201 59 inlet;
#X text 118 54 beat clock;
#X obj 480 240 spigot;
#X obj 481 50 inlet;
#X obj 443 722 text set \$1, f 27;
#X msg 561 184 1;
#X text 682 347 start recording with next event;
#X text 525 51 events;
#X obj 258 146 t b b b, f 21;
#X msg 402 181 0;
#X obj 722 30 inlet;
#N canvas 8 50 662 454 log-event 0;
#X msg 216 292 1e+06;
#X obj 184 261 t a b;
#X obj 163 156 f;
#X obj 184 218 list append;
#X obj 238 76 t b a;
#X obj 216 320 outlet;
#X obj 139 323 outlet;
#X obj 122 38 inlet;
#X text 124 14 seq clock;
#X obj 245 36 inlet;
#X text 291 316 output event and line number for text set;
#X text 288 340 very large line number ensures event added to end of
text file... i guess this would be a problem for more than 1 million
events..;
#X text 247 12 event to log;
#X connect 0 0 5 0;
#X connect 1 0 6 0;
#X connect 1 1 0 0;
#X connect 2 0 3 0;
#X connect 3 0 1 0;
#X connect 4 0 2 0;
#X connect 4 1 3 1;
#X connect 7 0 2 1;
#X connect 9 0 4 0;
#X restore 399 574 pd log-event;
#X text 907 732 use to clear text file;
#N canvas 6 50 634 296 write-dummy-length 0;
#X obj 129 85 t a b;
#X msg 171 127 0;
#X msg 129 47 list 0 length 1;
#X obj 129 18 inlet;
#X obj 120 193 outlet;
#X obj 185 192 outlet;
#X text 246 119 set first entry;
#X text 242 146 gets replaced with length when sequence recording stopped
, f 31;
#X connect 0 0 4 0;
#X connect 0 1 1 0;
#X connect 1 0 5 0;
#X connect 2 0 0 0;
#X connect 3 0 2 0;
#X restore 698 519 pd write-dummy-length;
#N canvas 11 50 526 364 write-length 0;
#X obj 202 259 t a b;
#X msg 235 293 0;
#X msg 202 228 list 0 length \$1;
#X obj 249 328 outlet;
#X obj 183 324 outlet;
#X obj 172 115 f;
#X obj 172 143 spigot;
#X msg 248 112 1, f 4;
#X msg 126 157 0;
#X obj 306 59 inlet;
#X obj 201 60 inlet;
#X obj 99 56 inlet;
#X text 47 34 bang to report, f 18;
#X text 204 34 clock;
#X text 314 31 enable;
#X text 294 141 when stopped write length to sequence \, but only if
recording., f 26;
#X obj 173 179 t b f f;
#X obj 89 325 outlet;
#X connect 0 0 4 0;
#X connect 0 1 1 0;
#X connect 1 0 3 0;
#X connect 2 0 0 0;
#X connect 5 0 6 0;
#X connect 6 0 16 0;
#X connect 7 0 6 1;
#X connect 8 0 6 1;
#X connect 9 0 7 0;
#X connect 10 0 5 1;
#X connect 11 0 5 0;
#X connect 16 0 8 0;
#X connect 16 1 17 0;
#X connect 16 2 2 0;
#X restore 258 575 pd write-length;
#X text 409 145 close gate \, stop clock \, report length;
#X msg 594 515 0;
#X msg 512 447 start;
#X msg 330 219 stop;
#X obj 309 422 clocker;
#X obj 81 242 loadbang;
#X msg 81 264 length 1e+06;
#X obj 722 67 route stop arm;
#X text 766 27 controls;
#X text 52 219 set max length;
#X text 829 138 set trigger \, open gate;
#X obj 769 132 t b b;
#X text 907 714 bang on start recording;
#X text 699 383 bang on start \, write dummy length \, set init time
0 \, start clock \, enable length writing;
#X obj 309 373 r \$0clock-control;
#X obj 330 248 s \$0clock-control;
#X obj 512 475 s \$0clock-control;
#X obj 691 443 s \$0recording;
#X obj 824 691 r \$0recording;
#X obj 512 383 t b b b b, f 26;
#X obj 360 523 r \$0recording;
#X obj 81 289 s \$0clock-control;
#X obj 258 703 outlet;
#X text 315 704 report length;
#X text 796 234 only note ons trigger record;
#N canvas 8 50 450 300 filter-on-notes 0;
#X obj 81 11 inlet;
#X obj 81 33 route note, f 15;
#X obj 81 55 stripnote;
#X obj 81 157 outlet;
#X text 203 30 pass knobs and other messages;
#X obj 81 117 t b;
#X connect 0 0 1 0;
#X connect 1 0 2 0;
#X connect 1 1 5 0;
#X connect 2 0 5 0;
#X connect 5 0 3 0;
#X restore 512 294 pd filter-on-notes;
#X obj 480 268 t a a;
#N canvas 509 249 450 300 once 0;
#X obj 114 61 inlet;
#X obj 203 37 inlet;
#X obj 114 215 outlet;
#X obj 114 137 == 1;
#X obj 114 115 i 0;
#X obj 114 162 sel 1;
#X obj 114 184 t b b;
#X msg 206 152 0;
#X msg 203 62 1;
#X text 252 38 reset;
#X connect 0 0 4 0;
#X connect 1 0 8 0;
#X connect 3 0 5 0;
#X connect 4 0 3 0;
#X connect 5 0 6 0;
#X connect 6 0 2 0;
#X connect 6 1 7 0;
#X connect 7 0 4 1;
#X connect 8 0 4 1;
#X restore 512 347 pd once - - - - - - - -;
#X text 652 293 <-- jeremy added this;
#X connect 1 0 20 0;
#X connect 3 0 42 0;
#X connect 4 0 3 0;
#X connect 6 0 3 1;
#X connect 9 0 15 0;
#X connect 9 1 19 0;
#X connect 9 2 10 0;
#X connect 10 0 3 1;
#X connect 11 0 23 0;
#X connect 12 0 5 0;
#X connect 12 1 5 1;
#X connect 14 0 5 0;
#X connect 14 1 5 1;
#X connect 15 0 38 0;
#X connect 15 1 5 0;
#X connect 15 2 5 1;
#X connect 17 0 12 0;
#X connect 18 0 32 0;
#X connect 19 0 31 0;
#X connect 20 0 12 0;
#X connect 20 0 15 1;
#X connect 21 0 22 0;
#X connect 22 0 37 0;
#X connect 23 0 9 0;
#X connect 23 1 27 0;
#X connect 27 0 6 0;
#X connect 27 1 43 1;
#X connect 30 0 20 0;
#X connect 34 0 0 0;
#X connect 35 0 18 0;
#X connect 35 1 17 0;
#X connect 35 2 14 0;
#X connect 35 3 33 0;
#X connect 36 0 15 2;
#X connect 41 0 43 0;
#X connect 42 0 12 1;
#X connect 42 1 41 0;
#X connect 43 0 35 0;
