#N canvas 519 308 677 437 10;
#X declare -path patchmenu;
#X obj 75 49 declare -path patchmenu;
#X obj 75 230 patchmenu;
#X obj 107 143 s enableSubMenu;
#X obj 75 71 loadbang;
#X msg 75 143 0;
#X obj 75 120 t b b;
#X obj 41 50 bng 15 250 50 0 empty empty empty 17 7 0 10 -262144 -1
-1;
#N canvas 477 88 1301 783 mapping 0;
#X obj 400 569 throw~ outL;
#X obj 522 570 throw~ outR;
#X text 374 36 MIDI (keys) Routing;
#X text 385 8 control routing;
#X obj 414 264 s~ fx13-1-in;
#X text 49 217 Page 2 - FX13-2;
#X text 45 82 Page 1 - FX-13-1;
#X obj 737 108 r aux;
#X obj 437 113 s seq2-1-notes-in;
#X obj 736 141 s seq2-1-aux;
#X obj 543 76 r seq2-1-notes-out;
#X obj 768 186 r seq2-1-aux-label;
#X obj 939 41 r seq2-1-led;
#X obj 45 116 map-knob 1 1 rampsyn-1-rampa;
#X obj 47 144 map-knob 1 2 rampsyn-1-rampd;
#X obj 46 166 map-knob 1 3 rampsyn-1-rampamt;
#X obj 45 190 map-knob 1 4 rampsyn-1-decay;
#X obj 361 147 s rampsyn-1-notes-in;
#X obj 407 519 r~ fx13-1-outL;
#X obj 528 520 r~ fx13-1-outR;
#X obj 48 247 map-knob 2 1 fx13-1-knob1;
#X obj 47 272 map-knob 2 2 fx13-1-knob2;
#X obj 47 297 map-knob 2 3 fx13-1-knob3;
#X obj 47 323 map-knob 2 4 fx13-1-knob4;
#X obj 415 234 r~ rampsyn-1-outL;
#X text 60 363 Page 3 -;
#X text 54 500 Page 4 -;
#X obj 416 64 r notes;
#X obj 917 174 s led;
#X obj 790 234 s screenLine5;
#X connect 7 0 9 0;
#X connect 10 0 17 0;
#X connect 11 0 29 0;
#X connect 12 0 28 0;
#X connect 18 0 0 0;
#X connect 19 0 1 0;
#X connect 24 0 4 0;
#X connect 27 0 17 0;
#X connect 27 0 8 0;
#X restore 415 296 pd mapping;
#X msg 33 201 1;
#X obj 33 169 delay 3000;
#X text 381 22 delcare and load modules;
#X text 416 268 routing;
#X obj 75 95 versioncheck 2;
#X msg 75 258 \; screenLine1 Ramp Synth \; screenLine2 Effects \; screenLine3
<-- HOME \; screenLine4 \; screenLine5 \;;
#X obj 354 87 ./FX-13/FX-13 1;
#X obj 377 116 ./Sequencer2/Sequencer2 1;
#X obj 371 146 ./RampSynth/RampSynth 1;
#X connect 1 0 13 0;
#X connect 3 0 12 0;
#X connect 4 0 1 0;
#X connect 5 0 4 0;
#X connect 5 0 9 0;
#X connect 5 1 2 0;
#X connect 6 0 5 0;
#X connect 9 0 8 0;
#X connect 12 0 5 0;
