#N canvas 613 183 991 684 10;
#N canvas 16 50 526 600 switcher 0;
#X obj 113 261 t b b;
#X obj 113 295 delay 5;
#X obj 263 387 line~;
#X msg 176 296 0 4;
#X obj 133 476 *~;
#X msg 113 327 0;
#X obj 113 220 bang;
#X msg 406 229 1;
#X msg 359 193 1 4;
#X obj 352 143 t b b b;
#X obj 139 506 outlet~;
#X obj 371 507 outlet;
#X obj 112 48 inlet;
#X obj 353 50 inlet;
#X connect 0 0 1 0;
#X connect 0 1 3 0;
#X connect 1 0 5 0;
#X connect 2 0 4 0;
#X connect 2 0 4 1;
#X connect 3 0 2 0;
#X connect 4 0 10 0;
#X connect 5 0 11 0;
#X connect 6 0 0 0;
#X connect 7 0 11 0;
#X connect 8 0 2 0;
#X connect 9 1 8 0;
#X connect 9 2 7 0;
#X connect 12 0 6 0;
#X connect 13 0 9 0;
#X restore 164 471 pd switcher;
#X obj 164 442 sel 0 1;
#X obj 164 419 tgl 15 0 empty empty empty 17 7 0 10 -262144 -1 -1 0
1;
#X obj 117 519 *~;
#X obj 227 505 switch~;
#N canvas 16 50 1395 639 knobs 0;
#X obj 238 503 route 1 2 3 4, f 65;
#X msg 238 559 Osc1: \$1% \$2x;
#X msg 368 559 Osc2: \$1% \$2x;
#X msg 518 559 Osc3: \$1% \$2x;
#X obj 134 131 r ms-\$1-glob-tPose-mess;
#X obj 133 165 s 4wave-fm-\$1-transpose;
#X obj 60 258 r 4-w-fm-\$1-k1;
#X obj 306 245 r 4-w-fm-\$1-k2;
#X obj 498 237 r 4-w-fm-\$1-k3;
#X obj 746 232 r 4-w-fm-\$1-k4;
#X obj 237 433 r 4wave-fm-knob-print;
#X obj 238 589 s 4-w-fm-\$1-k1-label;
#X obj 368 589 s 4-w-fm-\$1-k2-label;
#X obj 517 588 s 4-w-fm-\$1-k3-label;
#X obj 60 285 4-wave-global-knob 1 4wave-fm \$1;
#X obj 306 278 4-wave-global-knob 2 4wave-fm \$1;
#X obj 510 276 4-wave-global-knob 3 4wave-fm \$1;
#X obj 748 277 4-wave-global-knob 4 4wave-fm \$1;
#X connect 0 0 1 0;
#X connect 0 1 2 0;
#X connect 0 2 3 0;
#X connect 1 0 11 0;
#X connect 2 0 12 0;
#X connect 3 0 13 0;
#X connect 4 0 5 0;
#X connect 6 0 14 0;
#X connect 7 0 15 0;
#X connect 8 0 16 0;
#X connect 9 0 17 0;
#X connect 10 0 0 0;
#X restore 118 634 pd knobs;
#N canvas 684 351 607 535 synth 1;
#X obj 95 153 - 1;
#X obj 95 174 pack 0 0 0;
#X obj 87 68 inlet;
#X obj 95 132 poly 4 1, f 10;
#X obj 95 223 outlet~;
#X obj 288 303 s 4wave-\$1-transpose;
#X obj 288 273 r ms-\$1-glob-tPose-mess;
#X obj 95 202 clone 4 4-wave-fm-voice \$1;
#N canvas 4 50 1086 740 algos 0;
#X obj 668 51 text define \$0-op1;
#X obj 668 79 text define \$0-op2;
#X obj 670 106 text define \$0-op3;
#X obj 671 143 text define \$0-op4;
#X obj 673 180 text define \$0-out;
#X obj 69 414 text get \$0-op1;
#X obj 69 435 list prepend 1;
#X obj 69 293 t a a a a a, f 89;
#X obj 201 413 text get \$0-op2;
#X obj 201 436 list prepend 2;
#X obj 334 414 text get \$0-op3;
#X obj 467 413 text get \$0-op4;
#X obj 600 436 list prepend 5;
#X obj 467 436 list prepend 4;
#X obj 334 435 list prepend 3;
#N canvas 341 191 1136 571 save-the-presets 0;
#X obj 254 208 text tolist \$0-op1;
#X obj 87 432 text define \$0-big-save;
#X obj 254 259 text set \$0-big-save;
#X obj 254 163 t b b;
#X msg 375 208 0;
#X msg 131 397 write big-save.txt;
#X obj 417 257 text set \$0-big-save;
#X obj 417 161 t b b;
#X obj 417 206 text tolist \$0-op2;
#X msg 538 206 1;
#X obj 579 252 text set \$0-big-save;
#X obj 579 156 t b b;
#X obj 742 250 text set \$0-big-save;
#X obj 742 154 t b b;
#X msg 700 201 2;
#X msg 863 199 3;
#X obj 579 201 text tolist \$0-op3;
#X obj 742 199 text tolist \$0-op4;
#X obj 902 259 text set \$0-big-save;
#X obj 902 163 t b b;
#X obj 902 208 text tolist \$0-out;
#X msg 1023 208 4;
#X obj 220 125 t b b;
#X obj 103 47 inlet;
#X obj 63 355 r \$0-to-bigSave;
#X connect 0 0 2 0;
#X connect 3 0 0 0;
#X connect 3 1 4 0;
#X connect 4 0 2 1;
#X connect 5 0 1 0;
#X connect 7 0 8 0;
#X connect 7 1 9 0;
#X connect 8 0 6 0;
#X connect 9 0 6 1;
#X connect 11 0 16 0;
#X connect 11 1 14 0;
#X connect 13 0 17 0;
#X connect 13 1 15 0;
#X connect 14 0 10 1;
#X connect 15 0 12 1;
#X connect 16 0 10 0;
#X connect 17 0 12 0;
#X connect 19 0 20 0;
#X connect 19 1 21 0;
#X connect 20 0 18 0;
#X connect 21 0 18 1;
#X connect 22 0 5 0;
#X connect 22 1 3 0;
#X connect 22 1 19 0;
#X connect 22 1 13 0;
#X connect 22 1 11 0;
#X connect 22 1 7 0;
#X connect 23 0 22 0;
#X connect 24 0 1 0;
#X restore 482 62 pd save-the-presets;
#X obj 600 413 text get \$0-out;
#N canvas 552 282 1136 571 load-the-presets 0;
#X obj 81 293 t b b;
#X msg 109 346 read big-save.txt;
#X obj 356 440 text fromlist \$0-op1;
#X obj 356 419 text get \$0-big-save;
#X msg 356 390 0;
#X obj 495 420 text get \$0-big-save;
#X obj 636 419 text get \$0-big-save;
#X obj 775 420 text get \$0-big-save;
#X obj 925 420 text get \$0-big-save;
#X msg 495 391 1;
#X msg 637 390 2;
#X msg 775 391 3;
#X msg 925 391 4;
#X obj 495 441 text fromlist \$0-op2;
#X obj 636 440 text fromlist \$0-op3;
#X obj 774 440 text fromlist \$0-op4;
#X obj 925 441 text fromlist \$0-out;
#X obj 127 105 inlet;
#X obj 109 367 s \$0-to-bigSave;
#X connect 0 0 4 0;
#X connect 0 0 12 0;
#X connect 0 0 11 0;
#X connect 0 0 10 0;
#X connect 0 0 9 0;
#X connect 0 1 1 0;
#X connect 1 0 18 0;
#X connect 3 0 2 0;
#X connect 4 0 3 0;
#X connect 5 0 13 0;
#X connect 6 0 14 0;
#X connect 7 0 15 0;
#X connect 8 0 16 0;
#X connect 9 0 5 0;
#X connect 10 0 6 0;
#X connect 11 0 7 0;
#X connect 12 0 8 0;
#X connect 17 0 0 0;
#X restore 312 68 pd load-the-presets;
#X obj 69 462 list append \$1;
#X msg 69 493 \; 4algo-\$6-\$1-1 \$2 \; 4algo-\$6-\$1-2 \$3 \; 4algo-\$6-\$1-3
\$4 \; 4algo-\$6-\$1-4 \$5 \;;
#X msg 200 494 \; 4algo-\$6-\$1-1 \$2 \; 4algo-\$6-\$1-2 \$3 \; 4algo-\$6-\$1-3
\$4 \; 4algo-\$6-\$1-4 \$5 \;;
#X msg 334 493 \; 4algo-\$6-\$1-1 \$2 \; 4algo-\$6-\$1-2 \$3 \; 4algo-\$6-\$1-3
\$4 \; 4algo-\$6-\$1-4 \$5 \;;
#X msg 467 494 \; 4algo-\$6-\$1-1 \$2 \; 4algo-\$6-\$1-2 \$3 \; 4algo-\$6-\$1-3
\$4 \; 4algo-\$6-\$1-4 \$5 \;;
#X msg 600 494 \; 4algo-\$6-\$1-1 \$2 \; 4algo-\$6-\$1-2 \$3 \; 4algo-\$6-\$1-3
\$4 \; 4algo-\$6-\$1-4 \$5 \;;
#X obj 201 459 list append \$1;
#X obj 334 461 list append \$1;
#X obj 467 459 list append \$1;
#X obj 600 460 list append \$1;
#X obj 312 37 inlet;
#X text 351 35 init;
#X obj 482 35 inlet;
#X text 524 36 save;
#X obj 62 43 inlet;
#X text 106 44 select algo;
#X connect 5 0 6 0;
#X connect 6 0 18 0;
#X connect 7 0 5 0;
#X connect 7 1 8 0;
#X connect 7 2 10 0;
#X connect 7 3 11 0;
#X connect 7 4 16 0;
#X connect 8 0 9 0;
#X connect 9 0 24 0;
#X connect 10 0 14 0;
#X connect 11 0 13 0;
#X connect 12 0 27 0;
#X connect 13 0 26 0;
#X connect 14 0 25 0;
#X connect 16 0 12 0;
#X connect 18 0 19 0;
#X connect 24 0 20 0;
#X connect 25 0 21 0;
#X connect 26 0 22 0;
#X connect 27 0 23 0;
#X connect 28 0 17 0;
#X connect 30 0 15 0;
#X connect 32 0 7 0;
#X restore 308 148 pd algos;
#X obj 306 60 loadbang;
#X obj 306 81 t b b;
#X obj 306 102 f 5;
#X connect 0 0 1 0;
#X connect 1 0 7 0;
#X connect 2 0 3 0;
#X connect 3 0 0 0;
#X connect 3 1 1 1;
#X connect 3 2 1 2;
#X connect 6 0 5 0;
#X connect 7 0 4 0;
#X connect 9 0 10 0;
#X connect 10 0 11 0;
#X connect 10 1 8 1;
#X connect 11 0 8 0;
#X restore 117 352 pd synth;
#X text 249 217 Analog style synth;
#X obj 156 128 tgl 15 0 empty empty empty 17 7 0 10 -262144 -1 -1 0
1;
#X obj 117 319 spigot;
#X obj 188 222 bag;
#X obj 188 179 sel 0;
#X msg 188 199 flush;
#X obj 156 155 t f f;
#X obj 188 244 list append 0;
#X obj 188 266 route list;
#X obj 117 39 r ms-\$1-notes-in;
#X obj 172 97 r ms-\$1-noteskill-switch;
#X obj 217 396 r ms-\$1-kill-switch;
#X obj 156 64 r 4-w-fm-\$1-notesswitch;
#X obj 164 374 r 4-w-fm-\$1-switch;
#X obj 117 589 throw~ ms-\$1-out;
#X connect 0 0 3 1;
#X connect 0 1 4 0;
#X connect 1 0 0 0;
#X connect 1 1 0 1;
#X connect 2 0 1 0;
#X connect 3 0 21 0;
#X connect 6 0 3 0;
#X connect 8 0 13 0;
#X connect 9 0 6 0;
#X connect 10 0 14 0;
#X connect 11 0 12 0;
#X connect 12 0 10 0;
#X connect 13 0 9 1;
#X connect 13 1 11 0;
#X connect 14 0 15 0;
#X connect 15 0 9 0;
#X connect 16 0 9 0;
#X connect 16 0 10 0;
#X connect 17 0 8 0;
#X connect 18 0 2 0;
#X connect 19 0 8 0;
#X connect 20 0 2 0;
