#N canvas 523 315 707 729 10;
#N canvas 16 50 526 600 switcher 0;
#X obj 113 261 t b b;
#X obj 113 295 delay 5;
#X obj 263 387 line~;
#X msg 176 296 0 4;
#X obj 133 476 *~;
#X msg 113 327 0;
#X obj 113 220 bang;
#X msg 406 229 1;
#X msg 359 193 1 4;
#X obj 352 143 t b b b;
#X obj 139 506 outlet~;
#X obj 371 507 outlet;
#X obj 112 48 inlet;
#X obj 353 50 inlet;
#X connect 0 0 1 0;
#X connect 0 1 3 0;
#X connect 1 0 5 0;
#X connect 2 0 4 0;
#X connect 2 0 4 1;
#X connect 3 0 2 0;
#X connect 4 0 10 0;
#X connect 5 0 11 0;
#X connect 6 0 0 0;
#X connect 7 0 11 0;
#X connect 8 0 2 0;
#X connect 9 1 8 0;
#X connect 9 2 7 0;
#X connect 12 0 6 0;
#X connect 13 0 9 0;
#X restore 164 471 pd switcher;
#X obj 164 442 sel 0 1;
#X obj 164 419 tgl 15 0 empty empty empty 17 7 0 10 -262144 -1 -1 1
1;
#X obj 117 519 *~;
#X obj 227 505 switch~;
#N canvas 16 50 1395 639 knobs 0;
#X obj 60 258 r 4-w-\$1-k1;
#X obj 306 245 r 4-w-\$1-k2;
#X obj 498 237 r 4-w-\$1-k3;
#X obj 238 589 s 4-w-\$1-k1-label;
#X obj 60 285 4-wave-global-knob 1 4wave \$1;
#X obj 306 278 4-wave-global-knob 2 4wave \$1;
#X obj 510 276 4-wave-global-knob 3 4wave \$1;
#X obj 748 277 4-wave-global-knob 4 4wave \$1;
#X obj 746 233 r 4-w-\$1-k4;
#X obj 238 503 route 1 2 3 4, f 65;
#X msg 238 559 Osc1: \$1% \$2x;
#X obj 358 589 s 4-w-\$1-k2-label;
#X obj 497 588 s 4-w-\$1-k3-label;
#X msg 358 559 Osc2: \$1% \$2x;
#X msg 498 559 Osc3: \$1% \$2x;
#X obj 237 433 r 4wave-knob-print;
#X obj 134 131 r ms-\$1-glob-tPose-mess;
#X obj 133 165 s 4wave-\$1-transpose;
#X floatatom 164 240 5 0 0 0 - - -;
#X connect 0 0 4 0;
#X connect 0 0 18 0;
#X connect 1 0 5 0;
#X connect 2 0 6 0;
#X connect 8 0 7 0;
#X connect 9 0 10 0;
#X connect 9 1 13 0;
#X connect 9 2 14 0;
#X connect 10 0 3 0;
#X connect 13 0 11 0;
#X connect 14 0 12 0;
#X connect 15 0 9 0;
#X connect 16 0 17 0;
#X restore 118 634 pd knobs;
#N canvas 684 351 607 535 synth 0;
#X obj 95 153 - 1;
#X obj 95 174 pack 0 0 0;
#X obj 87 68 inlet;
#X obj 95 132 poly 4 1, f 10;
#N canvas 892 170 651 455 wavetable-bank 0;
#X obj 40 99 t a b, f 9;
#X obj 40 120 until;
#X obj 40 161 f;
#X obj 90 162 + 1;
#X msg 91 121 1;
#X obj 67 207 sel 1 2 3 4, f 32;
#X obj 40 182 t a a;
#X obj 40 36 loadbang;
#X obj 40 56 f 4;
#X obj 40 417 clone -s 1 4 waveform-load wave-\$1;
#X msg 40 379 \$1 waveforms/\$2.wav;
#X msg 67 228 sine;
#X obj 40 353 pack 0 s;
#X obj 85 329 symbol;
#X msg 102 247 triangle;
#X msg 161 255 clip-sine;
#X msg 209 235 clip-2-sine;
#X connect 0 0 1 0;
#X connect 0 1 4 0;
#X connect 1 0 2 0;
#X connect 2 0 3 0;
#X connect 2 0 6 0;
#X connect 3 0 2 1;
#X connect 4 0 2 1;
#X connect 5 0 11 0;
#X connect 5 1 14 0;
#X connect 5 2 15 0;
#X connect 5 3 16 0;
#X connect 6 0 12 0;
#X connect 6 1 5 0;
#X connect 7 0 8 0;
#X connect 8 0 0 0;
#X connect 10 0 9 0;
#X connect 11 0 13 0;
#X connect 12 0 10 0;
#X connect 13 0 12 1;
#X connect 14 0 13 0;
#X connect 15 0 13 0;
#X connect 16 0 13 0;
#X restore 332 71 pd wavetable-bank;
#X obj 95 202 clone 4 4-wave-voice \$1;
#X obj 95 253 outlet~;
#X obj 288 303 s 4wave-\$1-transpose;
#X obj 288 273 r ms-\$1-glob-tPose-mess;
#X connect 0 0 1 0;
#X connect 1 0 5 0;
#X connect 2 0 3 0;
#X connect 3 0 0 0;
#X connect 3 1 1 1;
#X connect 3 2 1 2;
#X connect 5 0 6 0;
#X connect 8 0 7 0;
#X restore 117 352 pd synth;
#X text 249 217 Analog style synth;
#X obj 156 128 tgl 15 0 empty empty empty 17 7 0 10 -262144 -1 -1 1
1;
#X obj 117 319 spigot;
#X obj 188 222 bag;
#X obj 188 179 sel 0;
#X msg 188 199 flush;
#X obj 156 155 t f f;
#X obj 188 244 list append 0;
#X obj 188 266 route list;
#X obj 117 39 r ms-\$1-notes-in;
#X obj 172 97 r ms-\$1-noteskill-switch;
#X obj 275 390 r ms-\$1-kill-switch;
#X obj 156 64 r 4-w-\$1-notesswitch;
#X obj 164 388 r 4-w-\$1-switch;
#X obj 118 588 throw~ ms-\$1-out;
#X connect 0 0 3 1;
#X connect 0 1 4 0;
#X connect 1 0 0 0;
#X connect 1 1 0 1;
#X connect 2 0 1 0;
#X connect 3 0 21 0;
#X connect 6 0 3 0;
#X connect 8 0 13 0;
#X connect 9 0 6 0;
#X connect 10 0 14 0;
#X connect 11 0 12 0;
#X connect 12 0 10 0;
#X connect 13 0 9 1;
#X connect 13 1 11 0;
#X connect 14 0 15 0;
#X connect 15 0 9 0;
#X connect 16 0 9 0;
#X connect 16 0 10 0;
#X connect 17 0 8 0;
#X connect 18 0 2 0;
#X connect 19 0 8 0;
#X connect 20 0 2 0;
