#N canvas 640 203 1276 795 10;
#X obj 48 41 inlet note;
#X obj 371 745 vline~;
#X obj 240 558 sqrt;
#X obj 81 216 unpack 0 0;
#X obj 81 237 swap, f 10;
#X obj 81 398 sel 0, f 27;
#X obj 240 536 / 127;
#X obj 138 345 s~ \$0-freq;
#X obj 138 304 mtof;
#X obj 493 293 *~;
#X obj 679 305 *~;
#X obj 856 312 *~;
#X obj 1066 307 *~;
#X obj 774 523 hip~ 4;
#X obj 774 544 outlet~;
#X obj 493 95 r~ \$0-freq;
#X obj 138 274 +, f 8;
#X obj 138 325 lop~ 100;
#X obj 156 246 t b a;
#X obj 195 730 switch~;
#X msg 225 651 1;
#X obj 81 519 t b b b;
#X msg 120 572 stop;
#X msg 100 634 0;
#X obj 81 346 t a a;
#X obj 108 370 s \$0-vel;
#X obj 371 796 s~ \$0-line;
#X obj 1067 244 *~;
#X obj 1083 221 r~ \$0-line;
#X obj 901 222 r~ \$0-line;
#X obj 856 243 *~, f 8;
#X obj 856 202 *~ 1;
#X obj 1066 175 *~ 1;
#X obj 240 421 t a b b b, f 29;
#X obj 580 146 r \$0-reset;
#X obj 710 133 r \$0-reset;
#X obj 948 141 r \$0-reset;
#X obj 1159 131 r \$0-reset;
#X obj 371 766 pow~ 2;
#X obj 493 193 *~ 1;
#X obj 679 185 *~ 1;
#X obj 493 146 *~;
#X obj 679 85 r~ \$0-freq;
#X obj 679 136 *~;
#X obj 858 89 r~ \$0-freq;
#X obj 858 140 *~;
#X obj 1066 75 r~ \$0-freq;
#X obj 1066 126 *~;
#X obj 725 204 r~ \$0-line;
#X obj 680 225 *~, f 8;
#X obj 539 211 r~ \$0-line;
#X obj 494 232 *~, f 8;
#X obj 774 481 *~ 0.8;
#X obj 493 314 *~ 0.9;
#X obj 679 329 *~ 0.9;
#X obj 856 333 *~ 0.9;
#X obj 1066 328 *~ 0.9;
#X obj 774 460 clip~ -0.9 0.9;
#X obj 240 579 t a a;
#X obj 240 620 pack 0 0;
#X obj 240 499 cg-scale-vel 50;
#X obj 508 116 r~ 4wave-\$2-1-index;
#X obj 696 106 r~ 4wave-\$2-2-index;
#X obj 874 110 r~ 4wave-\$2-3-index;
#X obj 1082 96 r~ 4wave-\$2-4-index;
#X obj 509 262 r~ 4wave-\$2-1-vol;
#X obj 697 273 r~ 4wave-\$2-2-vol;
#X obj 873 277 r~ 4wave-\$2-3-vol;
#X obj 1083 269 r~ 4wave-\$2-4-vol;
#X obj 157 223 r 4wave-\$2-transpose;
#X msg 81 677 0 45;
#X obj 100 613 del 145;
#X obj 494 173 tabosc4~ ms-wave-\$2-1;
#X obj 1067 153 tabosc4~ ms-wave-\$2-4;
#X obj 857 181 tabosc4~ ms-wave-\$2-3;
#X obj 678 164 tabosc4~ ms-wave-\$2-2;
#X msg 280 651 \$1 5 \, \$2 1000 5;
#X obj 284 598 * 0.45;
#X connect 0 0 3 0;
#X connect 1 0 38 0;
#X connect 2 0 58 0;
#X connect 3 0 4 0;
#X connect 3 1 4 1;
#X connect 4 0 24 0;
#X connect 4 1 16 0;
#X connect 5 0 21 0;
#X connect 5 1 33 0;
#X connect 6 0 2 0;
#X connect 8 0 17 0;
#X connect 9 0 53 0;
#X connect 10 0 54 0;
#X connect 11 0 55 0;
#X connect 12 0 56 0;
#X connect 13 0 14 0;
#X connect 15 0 41 0;
#X connect 16 0 8 0;
#X connect 17 0 7 0;
#X connect 18 0 16 0;
#X connect 18 1 16 1;
#X connect 20 0 19 0;
#X connect 21 0 70 0;
#X connect 21 1 71 0;
#X connect 21 2 22 0;
#X connect 22 0 71 0;
#X connect 23 0 19 0;
#X connect 24 0 5 0;
#X connect 24 1 25 0;
#X connect 27 0 12 0;
#X connect 28 0 27 1;
#X connect 29 0 30 1;
#X connect 30 0 11 0;
#X connect 31 0 30 0;
#X connect 32 0 27 0;
#X connect 33 0 60 0;
#X connect 33 1 20 0;
#X connect 33 2 22 0;
#X connect 34 0 72 1;
#X connect 35 0 75 1;
#X connect 36 0 74 1;
#X connect 37 0 73 1;
#X connect 38 0 26 0;
#X connect 39 0 51 0;
#X connect 40 0 49 0;
#X connect 41 0 72 0;
#X connect 42 0 43 0;
#X connect 43 0 75 0;
#X connect 44 0 45 0;
#X connect 45 0 74 0;
#X connect 46 0 47 0;
#X connect 47 0 73 0;
#X connect 48 0 49 1;
#X connect 49 0 10 0;
#X connect 50 0 51 1;
#X connect 51 0 9 0;
#X connect 52 0 13 0;
#X connect 53 0 57 0;
#X connect 54 0 57 0;
#X connect 55 0 57 0;
#X connect 56 0 57 0;
#X connect 57 0 52 0;
#X connect 58 0 59 0;
#X connect 58 1 77 0;
#X connect 59 0 76 0;
#X connect 60 0 6 0;
#X connect 61 0 41 1;
#X connect 62 0 43 1;
#X connect 63 0 45 1;
#X connect 64 0 47 1;
#X connect 65 0 9 1;
#X connect 66 0 10 1;
#X connect 67 0 11 1;
#X connect 68 0 12 1;
#X connect 69 0 18 0;
#X connect 70 0 1 0;
#X connect 71 0 23 0;
#X connect 72 0 39 0;
#X connect 73 0 32 0;
#X connect 74 0 31 0;
#X connect 75 0 40 0;
#X connect 76 0 1 0;
#X connect 77 0 59 1;
