#N canvas 546 92 975 867 10;
#X obj 28 52 r addsyn-\$1-notes-in;
#X obj 28 146 pack 0 0 0;
#X obj 28 168 route 1 2 3 4, f 50;
#X obj 112 319 s~ addsyn-\$1-out;
#N canvas 20 50 1040 639 adsr+global-amplitude 0;
#X obj 218 476 pack \$1 0 0;
#X obj 218 442 t b a;
#X obj 218 324 until;
#X obj 218 346 f;
#X obj 248 346 + 1;
#X obj 218 368 t f f, f 11;
#X obj 383 480 pack \$1 0 0;
#X obj 383 446 t b a;
#X obj 383 308 until;
#X obj 383 330 f;
#X obj 413 330 + 1;
#X obj 600 509 pack \$1 0 0;
#X obj 600 475 t b a;
#X obj 600 307 until;
#X obj 600 329 f;
#X obj 630 329 + 1;
#X msg 248 298 0;
#X obj 218 275 t b b;
#X msg 413 284 0;
#X obj 383 261 t b b;
#X msg 630 283 0;
#X obj 600 260 t b b;
#X msg 218 503 \; addsyn-\$1-level-\$2 \$3;
#X obj 218 390 + 1;
#X obj 383 379 + 1;
#X obj 396 223 t b a;
#X obj 638 234 t b a;
#X obj 218 417 expr 0.9 / $f1;
#X obj 469 131 loadbang;
#X text 461 113 init values;
#X msg 383 505 \; addsyn-\$1-a-\$2 \$3;
#X msg 600 534 \; addsyn-\$1-r-\$2 \$3;
#X obj 322 92 r addsyn-\$1-attack-local;
#X obj 636 84 r addsyn-\$1-release-local;
#X obj 383 352 t f f, f 11;
#X obj 600 351 t f f, f 11;
#X msg 600 283 12;
#X msg 383 284 12;
#X msg 218 298 12;
#X obj 383 409 expr $f2 - (($f1 / 13)*$f2);
#X obj 600 412 expr $f2 - ($f1 * 100);
#X obj 600 382 + 1;
#X obj 600 434 max 10;
#X msg 468 152 10;
#X msg 519 170 500;
#X connect 0 0 22 0;
#X connect 1 0 0 0;
#X connect 1 1 0 2;
#X connect 2 0 3 0;
#X connect 3 0 4 0;
#X connect 3 0 5 0;
#X connect 4 0 3 1;
#X connect 5 0 23 0;
#X connect 5 1 0 1;
#X connect 6 0 30 0;
#X connect 7 0 6 0;
#X connect 7 1 6 2;
#X connect 8 0 9 0;
#X connect 9 0 10 0;
#X connect 9 0 34 0;
#X connect 10 0 9 1;
#X connect 11 0 31 0;
#X connect 12 0 11 0;
#X connect 12 1 11 2;
#X connect 13 0 14 0;
#X connect 14 0 15 0;
#X connect 14 0 35 0;
#X connect 15 0 14 1;
#X connect 16 0 3 1;
#X connect 17 0 38 0;
#X connect 17 1 16 0;
#X connect 18 0 9 1;
#X connect 19 0 37 0;
#X connect 19 1 18 0;
#X connect 20 0 14 1;
#X connect 21 0 36 0;
#X connect 21 1 20 0;
#X connect 23 0 27 0;
#X connect 24 0 39 0;
#X connect 25 0 19 0;
#X connect 25 1 39 1;
#X connect 26 0 21 0;
#X connect 26 1 40 1;
#X connect 27 0 1 0;
#X connect 28 0 43 0;
#X connect 28 0 44 0;
#X connect 28 0 17 0;
#X connect 32 0 25 0;
#X connect 33 0 26 0;
#X connect 34 0 24 0;
#X connect 34 1 6 1;
#X connect 35 0 41 0;
#X connect 35 1 11 1;
#X connect 36 0 13 0;
#X connect 37 0 8 0;
#X connect 38 0 2 0;
#X connect 39 0 7 0;
#X connect 40 0 42 0;
#X connect 41 0 40 0;
#X connect 42 0 12 0;
#X connect 43 0 25 0;
#X connect 44 0 26 0;
#X restore 42 448 pd adsr+global-amplitude;
#N canvas 238 235 1302 809 knobs 0;
#X obj 132 481 f \$1;
#X obj 64 506 f \$1;
#X obj 64 481 loadbang;
#X text 68 582 partial master list.;
#X obj 65 251 text get addsyn-\$1-relTxt, f 16;
#X msg 132 502 write addsyn-\$1-relTxt;
#X msg 64 527 read addsyn-\$1-relTxt;
#X obj 64 554 text define addsyn-\$1-relTxt;
#X obj 132 457 bng 15 250 50 0 empty empty empty 17 7 0 10 -262144
-1 -1;
#X obj 27 510 bng 15 250 50 0 empty empty empty 17 7 0 10 -262144 -1
-1;
#X obj 33 175 i;
#X obj 821 349 * 11;
#X text 769 348 partials;
#X obj 33 2 r addsyn-\$1-freqset;
#X obj 821 251 r addsyn-\$1-filterPole;
#X obj 460 263 r addsyn-\$1-filterRez;
#X obj 460 480 s addsyn-\$1-filterRez-local;
#X obj 821 510 s addsyn-\$1-filterPole-local;
#X obj 65 288 s addsyn-\$1-freqset-local;
#X obj 77 430 s addsyn-\$1-freqset-label;
#X obj 884 460 s addsyn-\$1-filterPole-label;
#X obj 487 360 * 100;
#X obj 487 380 i;
#X obj 487 425 s addsyn-\$1-filterRez-label;
#X obj 444 52 r addsyn-\$1-attack-local;
#X obj 823 88 r addsyn-\$1-release-local;
#X obj 444 198 s addsyn-\$1-attack-local;
#X obj 823 206 s addsyn-\$1-release-local;
#X msg 471 133 Attack: \$1 ms;
#X msg 850 159 Release: \$1 ms;
#X obj 850 184 s addsyn-\$1-release-label;
#X obj 471 154 s addsyn-\$1-attack-label;
#X obj 884 368 * 100;
#X obj 884 390 i;
#X msg 77 405 Preset: \$1;
#X obj 33 312 text get addsyn-\$1-relTxt, f 16;
#X obj 33 227 t f f;
#X obj 77 382 symbol;
#X obj 33 351 list split 12;
#X obj 1056 40 r addsyn-\$1-tune;
#X obj 1083 135 s addsyn-\$1-tune-label;
#X obj 1056 173 s addsyn-\$1-tune-local;
#X text 224 530 read the .txt file;
#X text 157 456 *write current .txt file to memory;
#X msg 1083 113 Transpose: \$1;
#X msg 884 436 Freq: \$1%;
#X text 64 610 (cntrl+click on the text define object) Each line of
the textfile is 12 numbers than the name of the preset. For each partial
in the synth the root frequency(the one played on the keyboard) is
multiplied by these numbers. The 1st number in this list corresponds
to the first partial (which usually is 1) than the second to the second
partial etc... up to 12 Changing the numbers on this list is fun but
a little complicated \, make sure to save the text file(ctrl-s) than
click the bang* with the write button.;
#X obj 60 50 text size addsyn-\$1-relTxt, f 16;
#X obj 33 153 * 22;
#X obj 60 125 - 1;
#X obj 1056 61 t a a;
#X obj 33 23 t a b;
#X obj 60 82 change -1;
#X obj 460 284 max 0;
#X obj 460 305 min 1;
#X obj 460 326 t a a;
#X msg 487 403 Resonance: \$1%;
#X obj 444 73 i;
#X obj 444 96 t a a;
#X obj 823 109 i;
#X obj 823 134 t a a;
#X obj 821 318 t a a, f 11;
#X obj 821 272 max 0;
#X obj 821 293 min 1;
#X connect 0 0 5 0;
#X connect 1 0 6 0;
#X connect 2 0 1 0;
#X connect 4 0 18 0;
#X connect 5 0 7 0;
#X connect 6 0 7 0;
#X connect 8 0 0 0;
#X connect 9 0 1 0;
#X connect 10 0 36 0;
#X connect 11 0 17 0;
#X connect 13 0 51 0;
#X connect 14 0 62 0;
#X connect 15 0 53 0;
#X connect 21 0 22 0;
#X connect 22 0 56 0;
#X connect 24 0 57 0;
#X connect 25 0 59 0;
#X connect 28 0 31 0;
#X connect 29 0 30 0;
#X connect 32 0 33 0;
#X connect 33 0 45 0;
#X connect 34 0 19 0;
#X connect 35 0 38 0;
#X connect 36 0 35 0;
#X connect 36 1 4 0;
#X connect 37 0 34 0;
#X connect 38 1 37 0;
#X connect 39 0 50 0;
#X connect 44 0 40 0;
#X connect 45 0 20 0;
#X connect 47 0 52 0;
#X connect 48 0 10 0;
#X connect 49 0 48 1;
#X connect 50 0 41 0;
#X connect 50 1 44 0;
#X connect 51 0 48 0;
#X connect 51 1 47 0;
#X connect 52 0 49 0;
#X connect 53 0 54 0;
#X connect 54 0 55 0;
#X connect 55 0 16 0;
#X connect 55 1 21 0;
#X connect 56 0 23 0;
#X connect 57 0 58 0;
#X connect 58 0 26 0;
#X connect 58 1 28 0;
#X connect 59 0 60 0;
#X connect 60 0 27 0;
#X connect 60 1 29 0;
#X connect 61 0 11 0;
#X connect 61 1 32 0;
#X connect 62 0 63 0;
#X connect 63 0 61 0;
#X restore 43 409 pd knobs;
#X obj 243 321 outlet~;
#X obj 78 22 inlet;
#X obj 28 74 poly 4 1, f 10;
#X obj 113 289 *~ 1;
#X obj 288 225 addsyn-voice \$1 4;
#X obj 28 197 addsyn-voice \$1 1;
#X obj 120 221 addsyn-voice \$1 2;
#X obj 201 195 addsyn-voice \$1 3;
#X connect 0 0 8 0;
#X connect 1 0 2 0;
#X connect 2 0 11 0;
#X connect 2 1 12 0;
#X connect 2 2 13 0;
#X connect 2 3 10 0;
#X connect 7 0 8 0;
#X connect 8 0 1 0;
#X connect 8 1 1 1;
#X connect 8 2 1 2;
#X connect 9 0 3 0;
#X connect 9 0 6 0;
#X connect 10 0 9 0;
#X connect 11 0 9 0;
#X connect 12 0 9 0;
#X connect 13 0 9 0;
