#N canvas 265 50 628 582 10;
#N canvas 278 272 1428 646 param-editor 0;
#X obj 51 116 spigot 0;
#X obj 153 137 - 60;
#X obj 331 115 spigot 0;
#X obj 433 139 - 60;
#X obj 47 299 spigot 0;
#X obj 149 319 - 60;
#X obj 328 303 spigot 0;
#X obj 500 316 - 60;
#X obj 51 88 f;
#X obj 331 84 f;
#X obj 47 276 f;
#X obj 328 274 f;
#X obj 942 219 stripnote;
#N canvas 9 50 450 300 lock-knobs 0;
#X obj 160 78 s knob1Override;
#X obj 171 101 s knob2Override;
#X obj 188 124 s knob3Override;
#X obj 201 148 s knob4Override;
#X obj 234 17 inlet;
#X connect 4 0 0 0;
#X connect 4 0 1 0;
#X connect 4 0 2 0;
#X connect 4 0 3 0;
#X restore 1002 263 pd lock-knobs;
#X obj 965 391 bag;
#X msg 965 357 flush;
#X text 509 87 <-- output them;
#X msg 907 182 clear;
#X obj 965 329 bang;
#X obj 942 283 t f b f;
#X obj 1082 416 - 60;
#X obj 965 416 - 60;
#X text 1001 148 copy params from one key to another;
#X obj 670 147 stripnote;
#X obj 670 64 t a a;
#X obj 839 112 spigot 0;
#X obj 839 145 t a a b a, f 15;
#X obj 51 21 r drummy-\$1-knob1;
#X obj 331 17 r drummy-\$1-knob2;
#X obj 47 217 r drummy-\$1-knob3;
#X obj 328 218 r drummy-\$1-knob4;
#X obj 839 259 s drummy-\$1-key-just-copied, f 13;
#X obj 149 295 r drummy-\$1-edit-note;
#X obj 153 113 r drummy-\$1-edit-note;
#X obj 433 115 r drummy-\$1-edit-note;
#X obj 500 290 r drummy-\$1-edit-note;
#X obj 51 164 tabwrite drummy-\$1-param1;
#X obj 47 350 tabwrite drummy-\$1-param3;
#X obj 328 350 tabwrite drummy-\$1-param4;
#X obj 331 164 tabwrite drummy-\$1-param2;
#X obj 670 177 s drummy-\$1-edit-note;
#X obj 595 505 tabread drummy-\$1-param1;
#X obj 778 506 tabread drummy-\$1-param2;
#X obj 778 531 tabwrite drummy-\$1-param2;
#X obj 595 531 tabwrite drummy-\$1-param1;
#X obj 965 506 tabread drummy-\$1-param3;
#X obj 965 531 tabwrite drummy-\$1-param3;
#X obj 1157 506 tabread drummy-\$1-param4;
#X obj 1157 531 tabwrite drummy-\$1-param4;
#X obj 104 52 r drummy-\$1-state;
#X obj 384 60 r drummy-\$1-state;
#X obj 100 242 r drummy-\$1-state;
#X obj 381 243 r drummy-\$1-state;
#X obj 892 77 r drummy-\$1-state;
#X obj 670 27 r drummy-\$1-keys;
#X connect 0 0 36 0;
#X connect 1 0 36 1;
#X connect 2 0 39 0;
#X connect 3 0 39 1;
#X connect 4 0 37 0;
#X connect 5 0 37 1;
#X connect 6 0 38 0;
#X connect 7 0 38 1;
#X connect 8 0 0 0;
#X connect 9 0 2 0;
#X connect 10 0 4 0;
#X connect 11 0 6 0;
#X connect 12 0 19 0;
#X connect 12 1 13 0;
#X connect 14 0 21 0;
#X connect 15 0 14 0;
#X connect 17 0 14 0;
#X connect 18 0 15 0;
#X connect 19 1 18 0;
#X connect 19 2 20 0;
#X connect 20 0 43 1;
#X connect 20 0 44 1;
#X connect 20 0 46 1;
#X connect 20 0 48 1;
#X connect 21 0 41 0;
#X connect 21 0 42 0;
#X connect 21 0 45 0;
#X connect 21 0 47 0;
#X connect 23 0 40 0;
#X connect 24 0 23 0;
#X connect 24 1 25 0;
#X connect 25 0 26 0;
#X connect 26 0 31 0;
#X connect 26 1 14 0;
#X connect 26 2 17 0;
#X connect 26 3 12 0;
#X connect 27 0 8 0;
#X connect 28 0 9 0;
#X connect 29 0 10 0;
#X connect 30 0 11 0;
#X connect 32 0 5 0;
#X connect 33 0 1 0;
#X connect 34 0 3 0;
#X connect 35 0 7 0;
#X connect 41 0 44 0;
#X connect 42 0 43 0;
#X connect 45 0 46 0;
#X connect 47 0 48 0;
#X connect 49 0 0 1;
#X connect 50 0 2 1;
#X connect 51 0 4 1;
#X connect 52 0 6 1;
#X connect 53 0 25 1;
#X connect 54 0 24 0;
#X restore 8 79 pd param-editor;
#N canvas 39 50 847 479 knob-to-fx 0;
#X obj 11 141 spigot 1;
#X obj 64 116 ==;
#X obj 284 143 spigot 1;
#X obj 337 118 ==;
#X text 261 17 if not in key edit state \, send effect params;
#X obj 11 58 r drummy-\$1-knob1;
#X obj 284 62 r drummy-\$1-knob2;
#X obj 11 169 s drummy-\$1-eparam1;
#X obj 284 171 s drummy-\$1-eparam2;
#X obj 64 88 r drummy-\$1-state;
#X obj 337 90 r drummy-\$1-state;
#X obj 98 335 int;
#X obj 354 310 * 101;
#X obj 354 332 int;
#X obj 354 381 s drummy-\$1-knob2-label;
#X obj 98 384 s drummy-\$1-knob1-label;
#X msg 354 358 HFO Depth \$1 %;
#X msg 98 361 HFO Rate \$1 hz;
#X obj 98 214 t f f;
#X obj 98 236 *;
#X obj 98 264 t f f;
#X obj 98 286 *;
#X obj 98 313 * 4001;
#X obj 346 203 t f f;
#X obj 346 225 *;
#X connect 0 0 7 0;
#X connect 0 0 18 0;
#X connect 1 0 0 1;
#X connect 2 0 8 0;
#X connect 2 0 23 0;
#X connect 3 0 2 1;
#X connect 5 0 0 0;
#X connect 6 0 2 0;
#X connect 9 0 1 0;
#X connect 10 0 3 0;
#X connect 11 0 17 0;
#X connect 12 0 13 0;
#X connect 13 0 16 0;
#X connect 16 0 14 0;
#X connect 17 0 15 0;
#X connect 18 0 19 0;
#X connect 18 1 19 1;
#X connect 19 0 20 0;
#X connect 20 0 21 0;
#X connect 20 1 21 1;
#X connect 21 0 22 0;
#X connect 22 0 11 0;
#X connect 23 0 24 0;
#X connect 23 1 24 1;
#X connect 24 0 12 0;
#X restore 8 105 pd knob-to-fx;
#N canvas 161 127 1523 917 states-and-leds 0;
#N canvas 13 50 766 473 check-for-hold 0;
#X obj 149 29 inlet;
#X obj 110 394 outlet;
#X text 270 78 a bang goes out if a note is held alone without any
others being touched;
#X msg 228 233 stop;
#X obj 116 96 unpack;
#X obj 149 288 del 1000;
#X obj 145 172 sel 0;
#X obj 174 199 bang;
#X obj 187 132 t f b;
#X obj 105 344 f;
#X connect 0 0 4 0;
#X connect 3 0 5 0;
#X connect 4 0 9 1;
#X connect 4 1 8 0;
#X connect 5 0 9 0;
#X connect 6 1 7 0;
#X connect 7 0 5 0;
#X connect 8 0 6 0;
#X connect 8 1 3 0;
#X connect 9 0 1 0;
#X restore 246 176 pd check-for-hold;
#X floatatom 814 50 5 0 0 0 - - -, f 5;
#X obj 443 168 loadbang;
#X text 370 99 state changing events;
#X obj 246 206 t b f;
#X obj 246 328 sel 0, f 7;
#X text 309 332 only allow key editing from stopped state;
#X obj 246 228 b;
#X obj 246 387 s drummy-\$1-state;
#X obj 278 250 s drummy-\$1-edit-note;
#X obj 246 286 v drummy-\$1-state;
#X obj 443 222 s drummy-\$1-state;
#X text 376 30 states: 0: key edit mode \, 1: play mode;
#X msg 246 355 1;
#X msg 443 197 0;
#X obj 885 340 f;
#X msg 885 372 \; screenLine5 Editing Key \$1 \; led 7 \;;
#X obj 89 655 spigot 0;
#X msg 89 684 \; screenLine5 Editing Key \$1 \; led 7 \;;
#X text 779 621 display edit params in key edit mode;
#X obj 862 234 sel 0 1;
#X obj 862 212 r drummy-\$1-state;
#X obj 927 283 r drummy-\$1-edit-note;
#X obj 89 574 r drummy-\$1-edit-note;
#X obj 860 47 v drummy-\$1-state;
#X obj 860 25 r drummy-\$1-state;
#N canvas 892 125 610 568 param-disp 0;
#X obj 102 191 f;
#X obj 102 292 spigot 0;
#X obj 347 172 bang;
#X msg 311 223 0;
#X msg 156 194 1;
#X obj 294 142 t b b;
#X obj 102 158 - 60;
#X obj 102 439 outlet;
#X obj 102 401 i;
#X obj 102 320 t f f;
#X obj 102 342 *;
#X obj 294 101 sel 1;
#X obj 294 71 r drummy-\$1-state;
#X obj 102 217 tabread drummy-\$1-param1;
#X obj 36 74 r drummy-\$1-knob1;
#X obj 102 124 r drummy-\$1-edit-note;
#X obj 102 378 * 4000;
#X connect 0 0 13 0;
#X connect 1 0 9 0;
#X connect 2 0 3 0;
#X connect 3 0 1 1;
#X connect 4 0 1 1;
#X connect 5 0 0 0;
#X connect 5 1 4 0;
#X connect 6 0 0 0;
#X connect 8 0 7 0;
#X connect 9 0 10 0;
#X connect 9 1 10 1;
#X connect 10 0 16 0;
#X connect 11 0 5 0;
#X connect 11 1 2 0;
#X connect 12 0 11 0;
#X connect 13 0 1 0;
#X connect 14 0 1 0;
#X connect 15 0 6 0;
#X connect 16 0 8 0;
#X restore 523 653 pd param-disp;
#X msg 523 682 Start Freq \$1 Hz;
#X obj 523 704 s drummy-\$1-knob1-label;
#N canvas 885 146 610 568 param-disp 0;
#X obj 102 191 f;
#X obj 102 292 spigot 0;
#X obj 347 172 bang;
#X msg 311 223 0;
#X msg 156 194 1;
#X obj 294 142 t b b;
#X obj 102 158 - 60;
#X obj 102 429 outlet;
#X obj 102 391 i;
#X obj 102 320 t f f;
#X obj 102 342 *;
#X obj 294 101 sel 1;
#X obj 294 71 r drummy-\$1-state;
#X obj 102 124 r drummy-\$1-edit-note;
#X obj 36 74 r drummy-\$1-knob2;
#X obj 102 217 tabread drummy-\$1-param2;
#X obj 102 368 * 1000;
#X connect 0 0 15 0;
#X connect 1 0 9 0;
#X connect 2 0 3 0;
#X connect 3 0 1 1;
#X connect 4 0 1 1;
#X connect 5 0 0 0;
#X connect 5 1 4 0;
#X connect 6 0 0 0;
#X connect 8 0 7 0;
#X connect 9 0 10 0;
#X connect 9 1 10 1;
#X connect 10 0 16 0;
#X connect 11 0 5 0;
#X connect 11 1 2 0;
#X connect 12 0 11 0;
#X connect 13 0 6 0;
#X connect 14 0 1 0;
#X connect 15 0 1 0;
#X connect 16 0 8 0;
#X restore 703 653 pd param-disp;
#N canvas 1187 128 610 568 param-disp 0;
#X obj 102 191 f;
#X obj 102 292 spigot 0;
#X obj 347 172 bang;
#X msg 311 223 0;
#X msg 156 194 1;
#X obj 294 142 t b b;
#X obj 102 158 - 60;
#X obj 102 429 outlet;
#X obj 102 391 i;
#X obj 102 320 t f f;
#X obj 102 342 *;
#X obj 294 101 sel 1;
#X obj 294 71 r drummy-\$1-state;
#X obj 102 124 r drummy-\$1-edit-note;
#X obj 36 74 r drummy-\$1-knob3;
#X obj 102 216 tabread drummy-\$1-param3;
#X obj 102 368 * 1000;
#X connect 0 0 15 0;
#X connect 1 0 9 0;
#X connect 2 0 3 0;
#X connect 3 0 1 1;
#X connect 4 0 1 1;
#X connect 5 0 0 0;
#X connect 5 1 4 0;
#X connect 6 0 0 0;
#X connect 8 0 7 0;
#X connect 9 0 10 0;
#X connect 9 1 10 1;
#X connect 10 0 16 0;
#X connect 11 0 5 0;
#X connect 11 1 2 0;
#X connect 12 0 11 0;
#X connect 13 0 6 0;
#X connect 14 0 1 0;
#X connect 15 0 1 0;
#X connect 16 0 8 0;
#X restore 893 653 pd param-disp;
#N canvas 887 140 610 568 param-disp 0;
#X obj 102 191 f;
#X obj 102 292 spigot 0;
#X obj 347 172 bang;
#X msg 311 223 0;
#X msg 155 194 1;
#X obj 294 142 t b b;
#X obj 102 158 - 60;
#X obj 102 429 outlet;
#X obj 102 391 i;
#X obj 102 320 t f f;
#X obj 102 342 *;
#X obj 294 101 sel 1;
#X obj 294 71 r drummy-\$1-state;
#X obj 102 124 r drummy-\$1-edit-note;
#X obj 102 217 tabread drummy-\$1-param4;
#X obj 36 74 r drummy-\$1-knob4;
#X obj 102 368 * 101;
#X connect 0 0 14 0;
#X connect 1 0 9 0;
#X connect 2 0 3 0;
#X connect 3 0 1 1;
#X connect 4 0 1 1;
#X connect 5 0 0 0;
#X connect 5 1 4 0;
#X connect 6 0 0 0;
#X connect 8 0 7 0;
#X connect 9 0 10 0;
#X connect 9 1 10 1;
#X connect 10 0 16 0;
#X connect 11 0 5 0;
#X connect 11 1 2 0;
#X connect 12 0 11 0;
#X connect 13 0 6 0;
#X connect 14 0 1 0;
#X connect 15 0 1 0;
#X connect 16 0 8 0;
#X restore 1073 653 pd param-disp;
#X obj 703 704 s drummy-\$1-knob2-label;
#X obj 893 704 s drummy-\$1-knob3-label;
#X obj 1073 704 s drummy-\$1-knob4-label;
#X msg 703 682 Ramp Time \$1 ms;
#X msg 893 682 Decay \$1 ms;
#X msg 1073 682 Noise Lvl \$1 %;
#X obj 86 125 r drummy-\$1-aux;
#X obj 86 199 v drummy-\$1-state;
#X obj 86 169 sel 1;
#X obj 86 221 sel 1;
#X msg 86 243 0;
#X obj 86 265 s drummy-\$1-state;
#X obj 142 609 r drummy-\$1-state;
#X msg 636 375 \; screenLine3 -Press and hold a- \; screenLine4 -key
to adjust sound- \; screenLine5 Play Mode \; led 0 \;;
#X obj 246 148 r drummy-\$1-keys;
#X obj 786 158 r page-ready;
#X msg 786 180 0;
#X text 883 161 When encoder is turned or page change escape editor
mode.;
#X connect 0 0 4 0;
#X connect 2 0 14 0;
#X connect 4 0 7 0;
#X connect 4 1 9 0;
#X connect 5 0 13 0;
#X connect 7 0 10 0;
#X connect 10 0 5 0;
#X connect 13 0 8 0;
#X connect 14 0 11 0;
#X connect 15 0 16 0;
#X connect 17 0 18 0;
#X connect 20 0 45 0;
#X connect 20 1 15 0;
#X connect 21 0 20 0;
#X connect 22 0 15 1;
#X connect 23 0 17 0;
#X connect 25 0 1 0;
#X connect 25 0 24 0;
#X connect 26 0 27 0;
#X connect 27 0 28 0;
#X connect 29 0 35 0;
#X connect 30 0 36 0;
#X connect 31 0 37 0;
#X connect 35 0 32 0;
#X connect 36 0 33 0;
#X connect 37 0 34 0;
#X connect 38 0 40 0;
#X connect 39 0 41 0;
#X connect 40 0 39 0;
#X connect 41 0 42 0;
#X connect 42 0 43 0;
#X connect 44 0 17 1;
#X connect 46 0 0 0;
#X connect 47 0 48 0;
#X connect 48 0 20 0;
#X restore 7 201 pd states-and-leds;
#N canvas 90 146 951 432 save-params 0;
#X obj 471 42 loadbang;
#X msg 471 77 \; param1 read param1.txt \; param2 read param2.txt \;
param3 read param3.txt \; param4 read param4.txt \;;
#X msg 122 137 \; param1 write /tmp/state/param1.txt \; param2 write
/tmp/state/param2.txt \; param3 write /tmp/state/param3.txt \; param4
write /tmp/state/param4.txt \;;
#X obj 122 102 r saveState;
#X connect 0 0 1 0;
#X connect 3 0 2 0;
#X restore 7 227 pd save-params;
#X obj 281 131 catch~ drummy-\$1-voice-out;
#X obj 282 474 s~ drummy-\$1-out;
#X text 173 32 Idea: when drummy is selected in menu than the edit
feature can work. If the values are init than that tells;
#X text 451 181 Band Limit thing?;
#X obj 282 256 hip~ 5;
#X obj 371 208 *~ 0.05;
#X obj 371 183 hip~ 800;
#X obj 281 183 bp~ 200 0.5;
#N canvas 15 50 526 600 switcher 0;
#X obj 113 261 t b b;
#X obj 113 295 delay 5;
#X obj 263 387 line~;
#X msg 176 296 0 4;
#X obj 133 476 *~;
#X msg 113 327 0;
#X obj 113 220 bang;
#X msg 406 229 1;
#X msg 359 193 1 4;
#X obj 352 143 t b b b;
#X obj 139 506 outlet~;
#X obj 371 507 outlet;
#X obj 112 48 inlet;
#X obj 353 50 inlet;
#X connect 0 0 1 0;
#X connect 0 1 3 0;
#X connect 1 0 5 0;
#X connect 2 0 4 0;
#X connect 2 0 4 1;
#X connect 3 0 2 0;
#X connect 4 0 10 0;
#X connect 5 0 11 0;
#X connect 6 0 0 0;
#X connect 7 0 11 0;
#X connect 8 0 2 0;
#X connect 9 1 8 0;
#X connect 9 2 7 0;
#X connect 12 0 6 0;
#X connect 13 0 9 0;
#X restore 300 401 pd switcher;
#X obj 300 372 sel 0 1;
#X obj 300 349 tgl 15 0 empty empty empty 17 7 0 10 -262144 -1 -1 0
1;
#X obj 281 439 *~;
#X obj 374 425 switch~;
#N canvas 380 306 763 475 Synth 0;
#X obj 83 197 poly 12 1, f 10;
#X obj 83 219 pack 0 0 0;
#X obj 83 241 route 1 2 3 4 5 6 7 8 9 10 11 12, f 80;
#X obj 101 283 poly-voice \$1;
#X obj 83 175 inlet;
#X obj 600 284 poly-voice \$1;
#X obj 83 263 poly-voice \$1;
#X obj 301 283 poly-voice \$1;
#X obj 400 284 poly-voice \$1;
#X obj 182 264 poly-voice \$1;
#X obj 200 284 poly-voice \$1;
#X obj 283 263 poly-voice \$1;
#X obj 382 264 poly-voice \$1;
#X obj 483 263 poly-voice \$1;
#X obj 501 283 poly-voice \$1;
#X obj 582 264 poly-voice \$1;
#X connect 0 0 1 0;
#X connect 0 1 1 1;
#X connect 0 2 1 2;
#X connect 1 0 2 0;
#X connect 2 0 6 0;
#X connect 2 1 3 0;
#X connect 2 2 9 0;
#X connect 2 3 10 0;
#X connect 2 4 11 0;
#X connect 2 5 7 0;
#X connect 2 6 12 0;
#X connect 2 7 8 0;
#X connect 2 8 13 0;
#X connect 2 9 14 0;
#X connect 2 10 15 0;
#X connect 2 11 5 0;
#X connect 4 0 0 0;
#X restore 25 488 pd Synth;
#N canvas 5 50 450 300 arrays 0;
#N canvas 0 50 450 250 (subpatch) 0;
#X array drummy-\$1-param1 24 float 3;
#A 0 0.102539 0.102539 0.435547 0.174805 0.646484 0.998047 0.257812
0.314453 0 0.314453 0.314453 0.314453 0.314453 0.422852 0.422852 0.341797
0.125 0.174805 0.15918 0.314453 0.30957 0.15918 0.0556641 0.219727
;
#X coords 0 1 24 0 100 100 1 0 0;
#X restore 39 22 graph;
#N canvas 4 50 450 250 (subpatch) 0;
#X array drummy-\$1-param2 24 float 3;
#A 0 0.998047 0.998047 0.767578 0.475586 0.886719 0.698242 0.453125
0.999023 0 0 0.999023 0.999023 0.999023 0.999023 0.999023 0.34082 0.998047
0.475586 0.453125 0.999023 0.453125 0.453125 0.453125 0.999023;
#X coords 0 1 24 0 100 100 1 0 0;
#X restore 40 144 graph;
#N canvas 0 50 450 250 (subpatch) 0;
#X array drummy-\$1-param3 24 float 3;
#A 0 0.998047 0.998047 0.108398 0.998047 0.998047 0.631836 0.830078
0.676758 0.126953 0.676758 0.676758 0.676758 0.676758 0.676758 0.676758
0.192383 0.396484 0.998047 0.830078 0.676758 0.830078 0.830078 0.830078
0.676758;
#X coords 0 1 24 0 100 100 1 0 0;
#X restore 40 269 graph;
#N canvas 0 50 450 250 (subpatch) 0;
#X array drummy-\$1-param4 24 float 3;
#A 0 0.839987 0.839987 0.839987 0.839987 0.829987 0.829987 0.819987
0.809988 0.799988 0.789988 0.769989 0.759989 0.739989 0.69999 0.669991
0.669991 0.659991 0.659991 0.669991 0.679991 0.70999 0.72999 0.759989
0.779988;
#X coords 0 1 24 0 100 100 1 0 0;
#X restore 41 394 graph;
#X restore 8 180 pd arrays;
#X obj 300 298 r drummy-\$1-switch;
#N canvas 6 50 813 768 HFO 0;
#X obj 278 277 osc~;
#X obj 279 423 *~;
#X text 351 168 HFO;
#X obj 278 146 r drummy-\$1-eparam1;
#X obj 337 194 r drummy-\$1-eparam2;
#X obj 279 564 s~ drummy-\$1-hfo;
#X obj 337 217 lop~ 5;
#X obj 337 311 *~ 1000;
#X obj 278 168 lop~ 5;
#X obj 278 196 *~, f 5;
#X obj 209 198 == 0;
#X obj 209 220 sel 0 1;
#X msg 209 242 1;
#X obj 278 309 *~;
#X msg 239 242 0;
#X obj 407 292 == 0;
#X obj 407 314 sel 0 1, f 9;
#X msg 407 336 1;
#X msg 437 336 0;
#X obj 337 370 *~, f 7;
#X obj 278 251 *~ 4000;
#X obj 278 228 *~, f 5;
#X obj 336 254 *~, f 5;
#X connect 0 0 13 0;
#X connect 1 0 5 0;
#X connect 3 0 8 0;
#X connect 3 0 10 0;
#X connect 4 0 6 0;
#X connect 4 0 15 0;
#X connect 6 0 22 0;
#X connect 6 0 22 1;
#X connect 7 0 19 0;
#X connect 8 0 9 0;
#X connect 8 0 9 1;
#X connect 9 0 21 0;
#X connect 9 0 21 1;
#X connect 10 0 11 0;
#X connect 11 0 12 0;
#X connect 11 1 14 0;
#X connect 12 0 13 1;
#X connect 13 0 1 0;
#X connect 14 0 13 1;
#X connect 15 0 16 0;
#X connect 16 0 17 0;
#X connect 16 1 18 0;
#X connect 17 0 19 1;
#X connect 18 0 19 1;
#X connect 19 0 1 1;
#X connect 20 0 0 0;
#X connect 21 0 20 0;
#X connect 22 0 7 0;
#X restore 12 279 pd HFO;
#X obj 350 320 r ms10-\$1-kill-switch;
#X obj 64 393 tgl 15 0 empty empty empty 17 7 0 10 -262144 -1 -1 0
1;
#X obj 25 454 spigot;
#X obj 80 362 r ms10-\$1-noteskill-switch;
#X obj 25 304 r ms10-\$1-notes-in;
#X obj 96 487 bag;
#X obj 96 444 sel 0;
#X msg 96 464 flush;
#X obj 64 420 t f f;
#X obj 96 509 list append 0;
#X obj 96 531 route list;
#X obj 64 337 r drummy-\$1-notesswitch;
#X connect 4 0 10 0;
#X connect 4 0 11 0;
#X connect 8 0 15 0;
#X connect 9 0 8 0;
#X connect 10 0 9 0;
#X connect 11 0 8 0;
#X connect 12 0 15 1;
#X connect 12 1 16 0;
#X connect 13 0 12 0;
#X connect 13 1 12 1;
#X connect 14 0 13 0;
#X connect 15 0 5 0;
#X connect 19 0 14 0;
#X connect 21 0 14 0;
#X connect 22 0 29 0;
#X connect 23 0 17 0;
#X connect 24 0 22 0;
#X connect 25 0 23 0;
#X connect 25 0 26 0;
#X connect 26 0 30 0;
#X connect 27 0 28 0;
#X connect 28 0 26 0;
#X connect 29 0 23 1;
#X connect 29 1 27 0;
#X connect 30 0 31 0;
#X connect 31 0 23 0;
#X connect 32 0 22 0;
