#N canvas 443 248 1224 634 10;
#X obj 38 136 spigot;
#X msg 77 107 1;
#X msg 114 107 0;
#X text 404 19 arg1: instance number;
#X text 404 39 arg2: knob number;
#X text 404 59 arg3: module shortcut name;
#X text 404 79 arg4: module shortcut parameter;
#X obj 38 346 s \$3-\$1-\$4;
#X obj 36 420 r \$3-\$1-\$4-label;
#X obj 57 55 sel \$3, f 10;
#X obj 57 77 t b b;
#X obj 38 5 r ms-\$1-knob\$2-local;
#X obj 57 28 r ms-\$1-Fxs;
#X obj 36 573 s ms-\$1-knob\$2-label;
#X text 96 166 ms module in;
#X text 16 367 to specific module in ms;
#X text 171 5 From specific module in ms;
#X obj 38 317 f;
#X obj 81 450 r ms-\$1-Fxs;
#X obj 36 551 spigot 0;
#X obj 81 471 sel \$3;
#X obj 114 80 t b;
#X obj 114 495 t b;
#X obj 114 517 f 0;
#X obj 81 492 f 1;
#X obj 362 215 r ms-\$1-write-the-values;
#X obj 506 333 f;
#X obj 38 187 t a a, f 81;
#X obj 506 463 list prepend;
#X obj 506 397 t a b;
#X obj 506 550 text insert \$1-save-the-knobz;
#X msg 533 505 1e+09;
#X obj 506 484 t a b;
#X obj 575 433 symbol \$3-\$4;
#X obj 225 52 r \$1-read-the-knobz;
#X obj 225 98 route \$3-\$4;
#X obj 225 73 list trim;
#X connect 0 0 27 0;
#X connect 1 0 0 1;
#X connect 2 0 0 1;
#X connect 8 0 19 0;
#X connect 9 0 10 0;
#X connect 9 1 21 0;
#X connect 10 0 17 0;
#X connect 10 1 1 0;
#X connect 11 0 0 0;
#X connect 12 0 9 0;
#X connect 17 0 7 0;
#X connect 18 0 20 0;
#X connect 19 0 13 0;
#X connect 20 0 24 0;
#X connect 20 1 22 0;
#X connect 21 0 2 0;
#X connect 22 0 23 0;
#X connect 23 0 19 1;
#X connect 24 0 19 1;
#X connect 25 0 26 0;
#X connect 26 0 29 0;
#X connect 27 0 17 0;
#X connect 27 1 26 1;
#X connect 28 0 32 0;
#X connect 29 0 28 0;
#X connect 29 1 33 0;
#X connect 31 0 30 1;
#X connect 32 0 30 0;
#X connect 32 1 31 0;
#X connect 33 0 28 1;
#X connect 34 0 36 0;
#X connect 35 0 27 0;
#X connect 36 0 35 0;
