#N canvas 335 52 686 510 10;
#N canvas 357 50 1489 821 mapping 0;
#X text 35 19 MultiSynth Mapping;
#X obj 183 49 r ms-\$1-knob1;
#X obj 183 115 s ms-\$1-knob1-local;
#X obj 340 49 r ms-\$1-knob2;
#X obj 340 115 s ms-\$1-knob2-local;
#X obj 497 115 s ms-\$1-knob3-local;
#X obj 497 49 r ms-\$1-knob3;
#X obj 659 46 r ms-\$1-knob4;
#X obj 659 112 s ms-\$1-knob4-local;
#X obj 241 162 map-knob-ms-fixed \$1 as tune 0;
#X obj 240 333 map-knob-ms-fixed \$1 bp decay 0.01 0;
#X obj 240 495 map-knob-ms-fixed \$1 rhodey trans 0.3;
#X obj 240 376 map-knob-ms-fixed \$1 rampsyn rampd 0.25;
#X obj 588 164 map-knob-ms-fixed \$1 tunedel dtime 0.5;
#X obj 588 279 map-knob-ms-fixed \$1 wavs vcf 0.5;
#X obj 846 90 t b b, f 34;
#X obj 1047 121 f \$1;
#X obj 846 288 s \$1-read-the-knobz;
#X obj 1115 297 f \$1;
#X obj 846 69 r ms-\$1-init;
#X obj 1115 176 r ms-\$1-save;
#X obj 1164 266 s ms-\$1-write-the-values;
#X obj 1047 374 text define \$1-save-the-knobz;
#X obj 846 126 text size \$1-save-the-knobz;
#X obj 846 157 t a b, f 7;
#X obj 846 178 until;
#X obj 846 209 f;
#X obj 891 209 + 1;
#X obj 885 179 f 0;
#X obj 846 240 text get \$1-save-the-knobz;
#X obj 1115 199 t b b b, f 17;
#X msg 1068 265 clear;
#X obj 587 429 map-knob-ms \$1 4 add f-rez;
#X obj 588 404 map-knob-ms \$1 3 add f-freq;
#X obj 588 381 map-knob-ms \$1 2 add preset;
#X obj 587 349 map-knob-ms \$1 4 wavs decay;
#X obj 587 324 map-knob-ms \$1 3 wavs position;
#X obj 588 301 map-knob-ms \$1 2 wavs width;
#X obj 589 231 map-knob-ms \$1 4 tunedel tone;
#X obj 588 209 map-knob-ms \$1 3 tunedel drums;
#X obj 590 185 map-knob-ms \$1 2 tunedel fb;
#X obj 241 186 map-knob-ms \$1 2 as osc-ratio;
#X obj 241 206 map-knob-ms \$1 3 as reso;
#X obj 240 226 map-knob-ms \$1 4 as cutoff;
#X obj 240 267 map-knob-ms \$1 2 bp wave;
#X obj 240 290 map-knob-ms \$1 3 bp vrate;
#X obj 240 312 map-knob-ms \$1 4 bp vdepth;
#X obj 240 398 map-knob-ms \$1 2 rampsyn rampd;
#X obj 235 421 map-knob-ms \$1 3 rampsyn rampamt;
#X obj 240 443 map-knob-ms \$1 4 rampsyn decay;
#X obj 240 517 map-knob-ms \$1 2 rhodey tone;
#X obj 240 540 map-knob-ms \$1 3 rhodey mod;
#X obj 240 562 map-knob-ms \$1 4 rhodey decay;
#X obj 588 481 map-knob-ms \$1 2 4-w k1;
#X obj 588 504 map-knob-ms \$1 3 4-w k2;
#X obj 587 528 map-knob-ms \$1 4 4-w k3;
#X obj 588 591 map-knob-ms \$1 2 4-w-fm k1;
#X obj 588 614 map-knob-ms \$1 3 4-w-fm k2;
#X obj 587 639 map-knob-ms \$1 4 4-w-fm k3;
#X obj 585 668 map-knob-ms-fixed \$1 4-w-fm k4 0.5;
#X obj 586 549 map-knob-ms-fixed \$1 4-w k4 0.5;
#X msg 1047 155 read save-the-knobbers-\$1.txt;
#X msg 1115 324 write save-the-knobbers-\$1.txt;
#X obj 1115 220 del 20;
#X connect 1 0 2 0;
#X connect 3 0 4 0;
#X connect 6 0 5 0;
#X connect 7 0 8 0;
#X connect 15 0 23 0;
#X connect 15 1 16 0;
#X connect 16 0 61 0;
#X connect 18 0 62 0;
#X connect 19 0 15 0;
#X connect 20 0 30 0;
#X connect 23 0 24 0;
#X connect 24 0 25 0;
#X connect 24 1 28 0;
#X connect 25 0 26 0;
#X connect 26 0 27 0;
#X connect 26 0 29 0;
#X connect 27 0 26 1;
#X connect 28 0 26 1;
#X connect 29 0 17 0;
#X connect 30 0 63 0;
#X connect 30 1 21 0;
#X connect 30 2 31 0;
#X connect 31 0 22 0;
#X connect 61 0 22 0;
#X connect 62 0 22 0;
#X connect 63 0 18 0;
#X restore 259 102 pd mapping;
#X text 335 98 map the knobs and where they print;
#X text 377 145 load the modules;
#N canvas 396 189 450 300 DSP-switch 0;
#X msg 28 183 \; \$2-\$3-switch \$1;
#X obj 28 155 pack 0 s \$1;
#X obj 28 59 t b b s, f 16;
#X msg 82 89 0;
#X msg 28 121 1;
#X text 158 57 module's dsp on/off;
#X obj 28 81 del 10;
#X obj 82 115 s ms-\$1-kill-switch;
#X obj 26 36 r ms-\$1-Fxs;
#X connect 1 0 0 0;
#X connect 2 0 6 0;
#X connect 2 1 3 0;
#X connect 2 2 1 1;
#X connect 3 0 7 0;
#X connect 4 0 1 0;
#X connect 6 0 4 0;
#X connect 8 0 2 0;
#X restore 260 241 pd DSP-switch;
#X text 366 239 turn dsp on for specified module;
#X text 418 11 arg1: MultiSynth instance #;
#X text 370 183 Knob1 selects Synth/Sampler;
#N canvas 460 50 722 661 select-synth 0;
#X obj 7 119 int;
#X obj 7 246 unpack s s;
#X obj 7 175 f;
#X text 185 366 send effect name to print main menu;
#X obj 69 23 r ms-\$1-knob1bang;
#X obj 64 272 s ms-\$1-Fxs;
#X obj 7 479 s ms-\$1-knob1-label;
#X obj 34 454 s ms-\$1-menu;
#X obj 7 210 text get \$1-ms;
#X obj 253 93 text define \$1-ms;
#X obj 253 29 loadbang;
#X obj 7 411 spigot 1;
#X msg 7 341 1;
#X obj 7 362 list, f 6;
#X obj 7 293 t b a;
#X obj 7 383 route 1;
#X obj 56 296 r ms-\$1-reprint;
#X obj 56 317 t b;
#X obj 95 342 r ms-\$1-print-mute;
#X obj 7 432 t a a;
#X msg 253 65 read multi-synth.txt;
#X msg 405 70 write multi-synth.txt;
#X obj 7 92 * 8;
#X obj 8 64 r ms-\$1-knob1-local;
#X obj 7 144 change -1;
#X connect 0 0 24 0;
#X connect 1 0 14 0;
#X connect 1 1 5 0;
#X connect 2 0 8 0;
#X connect 4 0 2 0;
#X connect 8 0 1 0;
#X connect 10 0 20 0;
#X connect 11 0 19 0;
#X connect 12 0 13 0;
#X connect 13 0 15 0;
#X connect 14 0 12 0;
#X connect 14 1 13 1;
#X connect 15 0 11 0;
#X connect 16 0 17 0;
#X connect 17 0 12 0;
#X connect 18 0 11 1;
#X connect 19 0 6 0;
#X connect 19 1 7 0;
#X connect 20 0 9 0;
#X connect 22 0 0 0;
#X connect 23 0 22 0;
#X connect 24 0 2 0;
#X restore 254 187 pd select-synth;
#X text 350 306 map the notes coming from OG;
#N canvas 173 135 658 467 load-modules 0;
#X text 122 20 Synths;
#X obj 121 205 wavescanner \$1;
#X obj 121 165 tuned-delay \$1;
#X obj 121 135 rhodey \$1;
#X obj 122 105 ramp-synth \$1;
#X obj 121 75 basic-poly \$1;
#X obj 122 43 analog-style \$1;
#X obj 121 236 additive \$1;
#X obj 121 296 4-wave-fm \$1;
#X obj 121 265 4-wave \$1;
#X restore 258 146 pd load-modules;
#N canvas 219 95 966 727 map-notes 0;
#X obj 28 204 pack 0 s \$1;
#X obj 28 108 t b b s, f 16;
#X msg 82 138 0;
#X msg 28 170 1;
#X obj 28 130 del 10;
#X msg 28 232 \; \$2-\$3-notesswitch \$1;
#X text 158 106 module's incoming notes on/off;
#X obj 28 86 r ms-\$1-Fxs;
#X obj 82 164 s ms-\$1-noteskill-switch;
#X obj 422 371 s ms-\$1-notes-in;
#X obj 422 47 r ms-\$1-master-notes;
#X connect 0 0 5 0;
#X connect 1 0 4 0;
#X connect 1 1 2 0;
#X connect 1 2 0 1;
#X connect 2 0 8 0;
#X connect 3 0 0 0;
#X connect 4 0 3 0;
#X connect 7 0 1 0;
#X connect 10 0 9 0;
#X restore 253 301 pd map-notes;
#X text 19 6 MultiSynth2. Updated 4/4/2019;
#X obj 42 96 r ms-\$1-transpose;
#X obj 43 228 s~ ms-\$1-glob-tPose;
#X obj 42 202 vline~;
#X obj 42 179 pack 0 50;
#X obj 42 117 t a a;
#X obj 69 151 s ms-\$1-glob-tPose-mess;
#X obj 235 398 catch~ ms-\$1-out;
#X obj 235 419 outlet~;
#X text 353 392 audio out;
#X connect 12 0 16 0;
#X connect 14 0 13 0;
#X connect 15 0 14 0;
#X connect 16 0 15 0;
#X connect 16 1 17 0;
#X connect 18 0 19 0;
