#N canvas 4 50 666 503 10;
#X obj 80 119 phasor~;
#X obj 205 107 tgl 15 0 empty empty empty 0 -6 0 8 -262144 -1 -1 0
1;
#X obj 205 133 switch~ 4096 1 2;
#X obj 80 90 inlet;
#X obj 80 161 outlet~;
#X obj 80 141 *~ 0.01;
#X obj 205 84 inlet;
#X connect 0 0 5 0;
#X connect 1 0 2 0;
#X connect 3 0 0 0;
#X connect 5 0 4 0;
#X connect 6 0 1 0;
