#N canvas 142 50 1236 740 10;
#X obj 60 43 inlet;
#X text 56 18 trigger;
#X obj 498 34 inlet;
#X obj 560 34 inlet;
#X obj 618 31 inlet;
#X obj 695 33 inlet;
#X msg 539 275 stop;
#X obj 539 654 outlet~;
#X obj 539 399 * 0.01;
#X text 13 2 ADSR ENVELOPE;
#X text 494 12 attack;
#X text 561 11 decay;
#X text 615 12 sustain;
#X text 692 12 release;
#X obj 539 629 vline~;
#X obj 772 651 outlet;
#X msg 791 494 stop;
#X obj 498 73 s \$0-att;
#X obj 572 296 r \$0-att;
#X obj 372 215 r \$0-att;
#X obj 560 71 s \$0-dec;
#X obj 668 423 r \$0-dec;
#X obj 618 73 s \$0-sus;
#X obj 560 350 r \$0-sus;
#X obj 60 67 sel -1 0, f 44;
#X obj 695 74 s \$0-rel;
#X msg 60 619 0 8;
#X text 818 653 to switch;
#X obj 60 640 s \$0-2-vline;
#X obj 559 567 r \$0-2-vline;
#X obj 772 570 f 0;
#X obj 77 576 s \$0-end-del;
#X obj 954 484 r \$0-end-del;
#X obj 954 535 del 8;
#X obj 954 556 f 0;
#X obj 94 539 s \$0-stop-rel-del;
#X obj 791 463 r \$0-stop-rel-del;
#X obj 471 209 s \$0-stop-rel-del;
#X obj 241 403 r \$0-rel;
#X obj 190 427 pack 0 \$4;
#X obj 321 241 pack 0 \$1;
#X obj 539 323 del \$1;
#X obj 539 252 r \$0-stop-dec;
#X obj 241 312 s \$0-stop-dec;
#X obj 772 423 r \$0-start-rel-del;
#X obj 321 135 t f b b b, f 38;
#X obj 546 157 1;
#X obj 546 184 s \$0-switch;
#X obj 811 584 r \$0-switch;
#X obj 207 364 s \$0-start-rel-del;
#X obj 190 287 t b b b b;
#X obj 224 338 s \$0-stop-rel-del;
#X obj 539 374 f \$3;
#X obj 772 549 del \$4, f 17;
#X obj 871 500 r \$0-rel;
#X obj 539 448 pack 0 \$2, f 22;
#X obj 60 468 t b b b b;
#X obj 112 507 s \$0-stop-dec;
#X connect 0 0 24 0;
#X connect 2 0 17 0;
#X connect 3 0 20 0;
#X connect 4 0 22 0;
#X connect 5 0 25 0;
#X connect 6 0 41 0;
#X connect 8 0 55 0;
#X connect 14 0 7 0;
#X connect 16 0 33 0;
#X connect 16 0 53 0;
#X connect 18 0 41 1;
#X connect 19 0 40 1;
#X connect 21 0 55 1;
#X connect 23 0 52 1;
#X connect 24 0 56 0;
#X connect 24 1 50 0;
#X connect 24 2 45 0;
#X connect 26 0 28 0;
#X connect 29 0 14 0;
#X connect 30 0 15 0;
#X connect 32 0 33 0;
#X connect 33 0 34 0;
#X connect 34 0 15 0;
#X connect 36 0 16 0;
#X connect 38 0 39 1;
#X connect 39 0 14 0;
#X connect 40 0 14 0;
#X connect 41 0 52 0;
#X connect 42 0 6 0;
#X connect 44 0 53 0;
#X connect 45 0 40 0;
#X connect 45 1 41 0;
#X connect 45 2 37 0;
#X connect 45 3 46 0;
#X connect 46 0 47 0;
#X connect 48 0 15 0;
#X connect 50 0 39 0;
#X connect 50 1 49 0;
#X connect 50 2 51 0;
#X connect 50 3 43 0;
#X connect 52 0 8 0;
#X connect 53 0 30 0;
#X connect 54 0 53 1;
#X connect 55 0 14 0;
#X connect 56 0 26 0;
#X connect 56 1 31 0;
#X connect 56 2 35 0;
#X connect 56 3 57 0;
