#N canvas 403 157 959 575 10;
#X declare -path patchmenu;
#X declare -path CG-Pd-Library-Local/sampling;
#X declare -path CG-Pd-Library-Local/sequencer;
#X declare -path CG-Pd-Library-Local/externals;
#X declare -path CG-Pd-Library-Local/metronome;
#X obj 574 496 throw~ outL;
#X obj 591 476 throw~ outR;
#X obj 575 434 *~ 1;
#X obj 576 407 vektor 1;
#X obj 75 50 declare -path patchmenu;
#X obj 75 241 patchmenu;
#X obj 120 204 s enableSubMenu;
#X obj 75 102 loadbang;
#X msg 75 204 0;
#X obj 75 181 t b b, f 8;
#N canvas 445 65 917 576 mapping 0;
#X obj 139 460 map-aux 2 vek-1-aux;
#X obj 91 99 r knob1;
#X obj 91 146 f;
#X obj 207 16 r page-ready;
#X obj 91 170 s vek-1-knob1;
#X obj 210 41 bang;
#X obj 78 262 r vek-1-knob1-label;
#X obj 78 337 s p2s1;
#X obj 78 305 list prepend 1:;
#X obj 270 147 f;
#X obj 467 149 f;
#X obj 662 157 f;
#X obj 257 338 s p2s2;
#X obj 454 340 s p2s3;
#X obj 649 348 s p2s4;
#X obj 270 171 s vek-1-knob2;
#X obj 467 173 s vek-1-knob3;
#X obj 662 181 s vek-1-knob4;
#X text 321 19 resend values when coming to new page;
#X text 361 238 show values on page 2;
#X obj 270 100 r knob2;
#X obj 467 102 r knob3;
#X obj 662 110 r knob4;
#X obj 257 263 r vek-1-knob2-label;
#X obj 455 265 r vek-1-knob3-label;
#X obj 649 273 r vek-1-knob4-label;
#X obj 257 306 list prepend 2:;
#X obj 454 308 list prepend 3:;
#X obj 649 316 list prepend 4:;
#X obj 714 413 shortcut-mute-f 1;
#X obj 128 115 r seq3-k1;
#X obj 287 125 r seq3-k2;
#X obj 479 125 r seq3-k3;
#X obj 674 130 r seq3-k4;
#X connect 1 0 2 0;
#X connect 2 0 4 0;
#X connect 3 0 5 0;
#X connect 5 0 2 0;
#X connect 5 0 9 0;
#X connect 5 0 10 0;
#X connect 5 0 11 0;
#X connect 6 0 8 0;
#X connect 8 0 7 0;
#X connect 9 0 15 0;
#X connect 10 0 16 0;
#X connect 11 0 17 0;
#X connect 20 0 9 0;
#X connect 21 0 10 0;
#X connect 22 0 11 0;
#X connect 23 0 26 0;
#X connect 24 0 27 0;
#X connect 25 0 28 0;
#X connect 26 0 12 0;
#X connect 27 0 13 0;
#X connect 28 0 14 0;
#X connect 30 0 2 0;
#X connect 31 0 9 0;
#X connect 32 0 10 0;
#X connect 33 0 11 0;
#X restore 366 256 pd mapping;
#X obj 75 124 b;
#X obj 75 156 versioncheck 2;
#X text 377 232 Map the Knobs;
#X msg 75 273 \; screenLine1 1) Waveform Display \; screenLine2 2) Parameter Display \; screenLine3 <-- HOME \;;
#X obj 370 118 r seq3-1-led;
#X obj 370 140 s led;
#N canvas 674 449 860 595 slot-saver-1 0;
#X obj 402 140 r cgSc-1-slots;
#X msg 30 140 0;
#X obj 30 161 tabread \$0-slot;
#X obj 199 265 array define \$0-slot;
#X obj 30 110 t b b;
#X msg 199 138 read slot.txt;
#X msg 243 226 write slot.txt;
#X obj 243 160 r saveState;
#X obj 387 198 t a b;
#X msg 440 224 0;
#X obj 387 247 tabwrite \$0-slot;
#X obj 30 215 s cgSc-1-slots;
#X obj 243 181 t b b;
#X obj 387 168 f;
#X obj 30 68 r read-slot;
#X connect 0 0 13 1;
#X connect 1 0 2 0;
#X connect 2 0 11 0;
#X connect 4 0 1 0;
#X connect 4 1 5 0;
#X connect 5 0 3 0;
#X connect 6 0 3 0;
#X connect 7 0 12 0;
#X connect 8 0 10 0;
#X connect 8 1 9 0;
#X connect 9 0 10 1;
#X connect 12 0 6 0;
#X connect 12 1 13 0;
#X connect 13 0 8 0;
#X connect 14 0 4 0;
#X restore 369 93 pd slot-saver-1;
#X obj 380 388 r page-ready;
#X obj 365 416 f;
#X obj 365 440 s page-ready;
#X obj 365 341 sel 0;
#X obj 365 320 r cgSc-1-aux;
#N canvas 13 50 450 300 cg-pd-library-local 0;
#X obj 502 35 r cgSc-1-slots;
#X obj 60 68 declare -path CG-Pd-Library-Local/sampling;
#X obj 60 98 declare -path CG-Pd-Library-Local/sequencer;
#X obj 58 130 declare -path CG-Pd-Library-Local/externals;
#X obj 59 165 declare -path CG-Pd-Library-Local/metronome;
#X restore 74 27 pd cg-pd-library-local;
#X obj 576 21 r aux;
#X obj 686 210 r cgSc-1-slots;
#X obj 693 21 r \$0-reprint-port;
#X obj 843 277 r beat-clock;
#X obj 576 51 cg-shortcut 1 1, f 20;
#N canvas 4 50 1495 708 the-knobs 0;
#X obj 280 211 r knob1;
#X obj 414 205 r knob2;
#X obj 532 208 r knob3;
#X obj 673 208 r knob4;
#X obj 503 439 outlet;
#X obj 221 295 seq-format-event knob1;
#X obj 401 293 seq-format-event knob2;
#X obj 566 292 seq-format-event knob3;
#X obj 747 289 seq-format-event knob4;
#X connect 0 0 5 0;
#X connect 1 0 6 0;
#X connect 2 0 7 0;
#X connect 3 0 8 0;
#X connect 5 0 4 0;
#X connect 6 0 4 0;
#X connect 7 0 4 0;
#X connect 8 0 4 0;
#X restore 594 126 pd the-knobs;
#X obj 576 80 list prepend notes;
#X obj 576 101 list trim;
#N canvas 10 51 1276 865 auto-knobs-notes-through 0;
#X obj 438 185 inlet;
#X obj 852 503 outlet;
#X obj 562 398 s seq3-k3;
#X obj 537 440 s seq3-k2;
#X obj 435 470 s seq3-k1;
#X obj 663 357 s seq3-k4;
#X obj 435 295 route knob1 knob2 knob3 knob4 notes, f 64;
#X connect 0 0 6 0;
#X connect 6 0 4 0;
#X connect 6 1 3 0;
#X connect 6 2 2 0;
#X connect 6 3 5 0;
#X connect 6 4 1 0;
#X restore 576 380 pd auto-knobs-notes-through;
#N canvas 652 50 1057 799 metro-here 0;
#X obj 572 310 r seq3-1-actions;
#X obj 515 488 f;
#X msg 610 393 0;
#X obj 642 393 t b b;
#X msg 648 423 1;
#X obj 610 365 sel 1;
#X obj 515 435 del 1;
#X obj 257 446 s beat-clock;
#X obj 324 183 loadbang;
#X msg 256 264 1;
#X obj 406 496 list, f 7;
#X obj 406 518 route 69;
#X obj 406 424 t b a;
#X msg 406 466 69;
#X msg 324 205 120;
#X obj 380 364 pack, f 10;
#X obj 415 332 t b a;
#X obj 257 294 metronome360 0, f 18;
#X obj 522 280 s seq3-1-quan;
#X obj 603 481 f;
#X obj 406 540 spigot 1;
#X obj 515 510 spigot 1, f 14;
#X obj 499 641 + 1;
#X obj 406 695 print-line5 1, f 16;
#X obj 522 251 r metro-state;
#X obj 689 489 loadbang;
#X obj 499 662 f;
#X obj 689 531 t b b;
#X obj 515 571 f;
#X obj 689 510 del 1;
#X obj 610 342 r cgSc-1-mute-print;
#X obj 499 615 r cgSc-1-slots;
#X connect 0 0 1 0;
#X connect 1 0 21 0;
#X connect 2 0 19 0;
#X connect 3 0 6 0;
#X connect 3 1 4 0;
#X connect 4 0 19 0;
#X connect 5 0 2 0;
#X connect 5 1 3 0;
#X connect 6 0 1 0;
#X connect 6 0 13 0;
#X connect 8 0 14 0;
#X connect 8 0 9 0;
#X connect 9 0 17 0;
#X connect 10 0 11 0;
#X connect 11 0 20 0;
#X connect 12 0 13 0;
#X connect 12 1 10 1;
#X connect 13 0 10 0;
#X connect 14 0 17 1;
#X connect 15 0 12 0;
#X connect 16 0 15 0;
#X connect 16 1 15 1;
#X connect 17 0 7 0;
#X connect 17 1 16 0;
#X connect 17 2 15 0;
#X connect 19 0 20 1;
#X connect 19 0 21 1;
#X connect 20 0 23 0;
#X connect 21 0 28 0;
#X connect 22 0 26 0;
#X connect 24 0 18 0;
#X connect 25 0 29 0;
#X connect 26 0 23 2;
#X connect 27 0 28 0;
#X connect 27 1 26 0;
#X connect 28 0 23 1;
#X connect 29 0 27 0;
#X connect 30 0 5 0;
#X connect 31 0 22 0;
#X restore 368 55 pd metro-here;
#X msg 686 237 slot \$1;
#N canvas 4 50 450 300 init 0;
#X obj 54 19 loadbang;
#X obj 135 119 s load-phase-lock;
#X obj 125 162 s load-seq3;
#X obj 140 66 s recall-params;
#X obj 55 202 s read-slot;
#X obj 54 40 t b b b b;
#X connect 0 0 5 0;
#X connect 5 0 4 0;
#X connect 5 1 2 0;
#X connect 5 2 1 0;
#X connect 5 3 3 0;
#X restore 293 37 pd init;
#N canvas 570 63 1277 981 shortcuts 0;
#X obj 79 177 r fs;
#X obj 49 531 s change-wave;
#X obj 127 131 sel 0;
#X obj 127 104 r cgSc-1-6;
#X obj 484 148 sel 0;
#X obj 379 141 sel 0;
#X obj 440 375 * 12;
#X obj 700 262 sel 0;
#X obj 727 286 t b;
#X obj 818 285 + 1;
#X obj 727 409 sel 0 1, f 14;
#X msg 727 441 Sync:Off;
#X msg 796 440 Sync:On;
#X obj 748 371 s phase-lock;
#X msg 406 513 TrnsDwn:\$1;
#X msg 423 456 TransUp:\$1;
#X obj 727 306 f 1, f 11;
#X obj 818 306 == 1;
#X obj 440 396 lop~ 20;
#X obj 440 424 s~ vek-1-trans;
#X obj 667 21 r recall-params;
#X obj 934 6 r saveState;
#X obj 760 117 array define \$0-save-params;
#X obj 263 614 tabwrite \$0-save-params;
#X obj 263 564 t a b;
#X obj 341 589 0;
#X obj 79 198 sel 1;
#X obj 513 399 tabwrite \$0-save-params;
#X obj 513 349 t a b;
#X obj 591 374 1;
#X obj 667 42 t b b, f 16;
#X obj 667 63 s \$0-params!;
#X obj 287 6 r \$0-params!;
#X obj 287 27 f 0;
#X obj 287 48 tabread \$0-save-params;
#X obj 556 122 r \$0-params!;
#X obj 556 164 tabread \$0-save-params;
#X obj 556 143 f 1;
#X obj 912 157 r \$0-params!;
#X obj 912 199 tabread \$0-save-params;
#X obj 912 178 f 2;
#X msg 760 82 read save-stuff.txt;
#X msg 934 81 write save-stuff.txt;
#X obj 263 545 f;
#X obj 934 27 t b b;
#X obj 961 53 s \$0-save-stff;
#X obj 263 518 r \$0-save-stff;
#X obj 513 272 r \$0-save-stff;
#X obj 513 324 f;
#X obj 904 326 r \$0-save-stff;
#X obj 904 377 f;
#X obj 904 456 tabwrite \$0-save-params;
#X obj 904 406 t a b;
#X obj 982 431 2;
#X obj 406 287 t a a a a;
#X obj 22 130 sel 0;
#X obj 22 103 r cgSc-1-7;
#X obj 484 120 r cgSc-1-8;
#X obj 379 113 r cgSc-1-9;
#X obj 700 235 r cgSc-1-10;
#X obj 727 480 s cgSc-1-10label;
#X obj 423 486 s cgSc-1-9label;
#X obj 406 548 s cgSc-1-8label;
#X msg 224 650 WaveUp:\$1;
#X msg 207 707 WaveDwn:\$1;
#X obj 224 680 s cgSc-1-6label;
#X obj 207 742 s cgSc-1-7label;
#X obj 49 356 + 1;
#X obj 49 266 t a a;
#X obj 49 380 t a a a;
#X obj 49 152 t b;
#X obj 154 153 t b;
#X obj 511 184 t b;
#X obj 406 186 t b;
#X obj 406 265 - 3;
#X floatatom 912 220 5 0 0 0 - - - 0;
#X obj 406 245 t a a;
#X obj 49 245 cg-loop-2-way 9 1, f 18;
#X obj 406 224 cg-loop-2-way 7 0, f 18;
#X connect 0 0 26 0;
#X connect 2 1 71 0;
#X connect 3 0 2 0;
#X connect 4 1 72 0;
#X connect 5 1 73 0;
#X connect 6 0 18 0;
#X connect 7 1 8 0;
#X connect 8 0 16 0;
#X connect 9 0 17 0;
#X connect 10 0 11 0;
#X connect 10 1 12 0;
#X connect 11 0 60 0;
#X connect 12 0 60 0;
#X connect 14 0 62 0;
#X connect 15 0 61 0;
#X connect 16 0 9 0;
#X connect 16 0 10 0;
#X connect 16 0 13 0;
#X connect 16 0 50 1;
#X connect 17 0 16 1;
#X connect 18 0 19 0;
#X connect 20 0 30 0;
#X connect 21 0 44 0;
#X connect 24 0 23 0;
#X connect 24 1 25 0;
#X connect 25 0 23 1;
#X connect 26 0 77 0;
#X connect 28 0 27 0;
#X connect 28 1 29 0;
#X connect 29 0 27 1;
#X connect 30 0 31 0;
#X connect 30 1 41 0;
#X connect 32 0 33 0;
#X connect 33 0 34 0;
#X connect 34 0 77 1;
#X connect 35 0 37 0;
#X connect 36 0 78 1;
#X connect 37 0 36 0;
#X connect 38 0 40 0;
#X connect 39 0 16 0;
#X connect 39 0 75 0;
#X connect 40 0 39 0;
#X connect 41 0 22 0;
#X connect 42 0 22 0;
#X connect 43 0 24 0;
#X connect 44 0 42 0;
#X connect 44 1 45 0;
#X connect 46 0 43 0;
#X connect 47 0 48 0;
#X connect 48 0 28 0;
#X connect 49 0 50 0;
#X connect 50 0 52 0;
#X connect 52 0 51 0;
#X connect 52 1 53 0;
#X connect 53 0 51 1;
#X connect 54 0 14 0;
#X connect 54 1 15 0;
#X connect 54 2 6 0;
#X connect 55 1 70 0;
#X connect 56 0 55 0;
#X connect 57 0 4 0;
#X connect 58 0 5 0;
#X connect 59 0 7 0;
#X connect 63 0 65 0;
#X connect 64 0 66 0;
#X connect 67 0 69 0;
#X connect 68 0 67 0;
#X connect 68 1 43 1;
#X connect 69 0 1 0;
#X connect 69 1 64 0;
#X connect 69 2 63 0;
#X connect 70 0 77 0;
#X connect 71 0 77 1;
#X connect 72 0 78 1;
#X connect 73 0 78 0;
#X connect 74 0 54 0;
#X connect 76 0 74 0;
#X connect 76 1 48 1;
#X connect 77 0 68 0;
#X connect 78 0 76 0;
#X restore 367 185 pd shortcuts;
#X obj 576 330 seq3 1 0 ../../sequences 1, f 45;
#X obj 625 153 cg-standard-sc-seq3-print 1 1;
#X obj 625 177 cg-standard-sc-seq3-control 1;
#X obj 820 216 r load-seq3;
#X obj 821 132 r saveState;
#X msg 821 173 save bang;
#X msg 820 237 init bang;
#X obj 365 362 del 20;
#X connect 2 0 0 0;
#X connect 2 0 1 0;
#X connect 3 0 2 0;
#X connect 5 0 14 0;
#X connect 7 0 11 0;
#X connect 8 0 5 0;
#X connect 9 0 8 0;
#X connect 9 1 6 0;
#X connect 11 0 12 0;
#X connect 12 0 9 0;
#X connect 15 0 16 0;
#X connect 18 0 19 1;
#X connect 19 0 20 0;
#X connect 21 0 44 0;
#X connect 22 0 21 0;
#X connect 24 0 28 0;
#X connect 25 0 34 0;
#X connect 26 0 28 1;
#X connect 27 0 37 2;
#X connect 28 0 30 0;
#X connect 29 0 37 0;
#X connect 30 0 31 0;
#X connect 31 0 37 0;
#X connect 32 0 3 0;
#X connect 34 0 37 1;
#X connect 37 0 32 0;
#X connect 39 0 37 1;
#X connect 40 0 43 0;
#X connect 41 0 42 0;
#X connect 42 0 37 1;
#X connect 43 0 37 1;
#X connect 44 0 19 0;
