#N canvas 597 50 984 803 10;
#X declare -path patchmenu;
#X declare -path CG-Pd-Library-Local/sequencer;
#X declare -path CG-Pd-Library-Local/externals;
#X declare -path CG-Pd-Library-Local/metronome;
#X declare -path /sdcard/CG-Pd-Library/sequencer;
#X declare -path /sdcard/CG-Pd-Library/externals;
#X declare -path /sdcard/CG-Pd-Library/metronome;
#X obj 543 256 throw~ outL;
#X obj 633 256 throw~ outR;
#X obj 544 214 *~ 1;
#X obj 545 187 vektor 1;
#X obj 75 19 declare -path patchmenu;
#X obj 75 180 patchmenu;
#X obj 107 143 s enableSubMenu;
#X obj 75 41 loadbang;
#X msg 75 143 0;
#X obj 75 120 t b b;
#N canvas 651 65 1251 576 mapping 0;
#X obj 139 460 map-aux 2 vek-1-aux;
#X obj 91 99 r knob1;
#X obj 91 146 f;
#X obj 207 16 r page-ready;
#X obj 91 170 s vek-1-knob1;
#X obj 210 41 bang;
#X obj 78 262 r vek-1-knob1-label;
#X obj 78 337 s p2s1;
#X obj 78 305 list prepend 1:;
#X obj 270 147 f;
#X obj 467 149 f;
#X obj 662 157 f;
#X obj 257 338 s p2s2;
#X obj 454 340 s p2s3;
#X obj 649 348 s p2s4;
#X obj 270 171 s vek-1-knob2;
#X obj 467 173 s vek-1-knob3;
#X obj 662 181 s vek-1-knob4;
#X text 321 19 resend values when coming to new page;
#X text 361 238 show values on page 2;
#X obj 270 100 r knob2;
#X obj 467 102 r knob3;
#X obj 662 110 r knob4;
#X obj 257 263 r vek-1-knob2-label;
#X obj 455 265 r vek-1-knob3-label;
#X obj 649 273 r vek-1-knob4-label;
#X obj 257 306 list prepend 2:;
#X obj 454 308 list prepend 3:;
#X obj 649 316 list prepend 4:;
#X obj 674 130 r seq3-1-k4;
#X obj 478 125 r seq3-1-k3;
#X obj 285 124 r seq3-1-k2;
#X obj 128 115 r seq3-1-k1;
#X obj 714 413 shortcut-mute-f 1;
#X connect 1 0 2 0;
#X connect 2 0 4 0;
#X connect 3 0 5 0;
#X connect 5 0 2 0;
#X connect 5 0 9 0;
#X connect 5 0 10 0;
#X connect 5 0 11 0;
#X connect 6 0 8 0;
#X connect 8 0 7 0;
#X connect 9 0 15 0;
#X connect 10 0 16 0;
#X connect 11 0 17 0;
#X connect 20 0 9 0;
#X connect 21 0 10 0;
#X connect 22 0 11 0;
#X connect 23 0 26 0;
#X connect 24 0 27 0;
#X connect 25 0 28 0;
#X connect 26 0 12 0;
#X connect 27 0 13 0;
#X connect 28 0 14 0;
#X connect 29 0 11 0;
#X connect 30 0 10 0;
#X connect 31 0 9 0;
#X connect 32 0 2 0;
#X restore 366 256 pd mapping;
#X obj 75 63 b;
#X obj 75 95 versioncheck 2;
#X text 377 232 Map the Knobs;
#X msg 75 212 \; screenLine1 1) Waveform Display \; screenLine2 2)
Parameter Display \; screenLine3 <-- HOME \;;
#X obj 370 118 r seq3-1-led;
#X obj 370 140 s led;
#X obj 545 23 r aux;
#X obj 619 98 r cgSc-1-slots;
#X obj 662 23 r \$0-reprint-port;
#N canvas 13 50 450 300 CG-PdLibrary-Local 0;
#X obj 502 35 r cgSc-1-slots;
#X obj 60 98 declare -path CG-Pd-Library-Local/sequencer;
#X obj 58 130 declare -path CG-Pd-Library-Local/externals;
#X obj 59 165 declare -path CG-Pd-Library-Local/metronome;
#X restore 622 363 pd CG-PdLibrary-Local;
#N canvas 12 50 450 300 CG-PdLibrary-SDcard 0;
#X obj 60 98 declare -path /sdcard/CG-Pd-Library/sequencer;
#X obj 58 130 declare -path /sdcard/CG-Pd-Library/externals;
#X obj 59 165 declare -path /sdcard/CG-Pd-Library/metronome;
#X obj 502 35 r cgSc-1-slots;
#X restore 622 392 pd CG-PdLibrary-SDcard;
#X obj 656 120 r beat-clock;
#N canvas 787 330 860 595 slot-saver-1 0;
#X obj 167 38 r cgSc-1-slots;
#X obj 30 68 loadbang;
#X msg 30 140 0;
#X obj 30 161 tabread \$0-slot;
#X obj 199 225 array define \$0-slot;
#X obj 30 110 t b b;
#X msg 199 138 read slot.txt;
#X msg 243 186 write slot.txt;
#X obj 243 160 r saveState;
#X obj 167 58 t a b;
#X msg 220 84 0;
#X obj 167 107 tabwrite \$0-slot;
#X obj 30 185 s cgSc-1-slots;
#X connect 0 0 9 0;
#X connect 1 0 5 0;
#X connect 2 0 3 0;
#X connect 3 0 12 0;
#X connect 5 0 2 0;
#X connect 5 1 6 0;
#X connect 6 0 4 0;
#X connect 7 0 4 0;
#X connect 8 0 7 0;
#X connect 9 0 11 0;
#X connect 9 1 10 0;
#X connect 10 0 11 1;
#X restore 369 93 pd slot-saver-1;
#N canvas 19 51 1057 799 metro-here 0;
#X obj 622 370 r seq3-1-actions;
#X obj 565 548 f;
#X msg 660 453 0;
#X obj 692 453 t b b;
#X msg 698 483 1;
#X obj 660 425 sel 1;
#X obj 565 495 del 1;
#X obj 307 506 s beat-clock;
#X obj 429 286 loadbang;
#X obj 517 376 r rec-state;
#X obj 517 398 sel 0;
#X msg 306 324 1;
#X obj 456 556 list, f 7;
#X obj 456 578 route 69;
#X obj 456 484 t b a;
#X msg 456 526 69;
#X msg 429 308 120;
#X obj 430 424 pack, f 10;
#X obj 465 392 t b a;
#X obj 307 354 metronome360 0, f 18;
#X obj 572 340 s seq3-1-quan;
#X obj 653 541 f;
#X obj 456 600 spigot 1;
#X obj 565 570 spigot 1, f 14;
#X obj 549 675 r cgSc-1-slots;
#X obj 549 701 + 1;
#X obj 456 755 print-line5 1, f 16;
#X obj 660 402 r cgSc-1-muter;
#X obj 572 311 r metro-state;
#X obj 739 549 loadbang;
#X obj 549 722 f;
#X obj 739 591 t b b;
#X obj 565 631 f;
#X obj 739 570 del 1;
#X obj 708 259 r page-ready;
#X obj 708 280 sel 2;
#X connect 0 0 1 0;
#X connect 1 0 23 0;
#X connect 2 0 21 0;
#X connect 3 0 6 0;
#X connect 3 1 4 0;
#X connect 4 0 21 0;
#X connect 5 0 2 0;
#X connect 5 1 3 0;
#X connect 6 0 1 0;
#X connect 6 0 15 0;
#X connect 8 0 16 0;
#X connect 8 0 11 0;
#X connect 9 0 10 0;
#X connect 10 0 1 0;
#X connect 10 0 15 0;
#X connect 11 0 19 0;
#X connect 12 0 13 0;
#X connect 13 0 22 0;
#X connect 14 0 15 0;
#X connect 14 1 12 1;
#X connect 15 0 12 0;
#X connect 16 0 19 1;
#X connect 17 0 14 0;
#X connect 18 0 17 0;
#X connect 18 1 17 1;
#X connect 19 0 7 0;
#X connect 19 1 18 0;
#X connect 19 2 17 0;
#X connect 21 0 22 1;
#X connect 21 0 23 1;
#X connect 22 0 26 0;
#X connect 23 0 32 0;
#X connect 24 0 25 0;
#X connect 25 0 30 0;
#X connect 27 0 5 0;
#X connect 28 0 20 0;
#X connect 29 0 33 0;
#X connect 30 0 26 2;
#X connect 31 0 32 0;
#X connect 31 1 30 0;
#X connect 32 0 26 1;
#X connect 33 0 31 0;
#X connect 34 0 35 0;
#X connect 35 0 6 0;
#X restore 369 69 pd metro-here;
#X obj 108 383 r fs;
#X obj 108 464 s change-wave;
#X obj 177 416 t b;
#X obj 150 381 sel 0;
#X obj 150 354 r cgSc-1-6;
#X obj 773 213 r page-ready;
#X obj 758 241 f;
#X obj 758 265 s page-ready;
#X obj 758 166 sel 0;
#X obj 758 145 r cgSc-1-aux;
#X obj 481 610 s vek-1-trans;
#X obj 365 397 sel 0;
#X obj 365 370 r cgSc-1-7;
#X obj 462 400 sel 0;
#X obj 462 373 r cgSc-1-8;
#X obj 481 496 + 1;
#X obj 462 436 t b b;
#X msg 500 462 1;
#X obj 392 433 t b b;
#X msg 430 459 -1;
#X obj 451 496 f 0;
#X obj 481 557 * 12;
#X obj 481 517 clip -3 3;
#X obj 758 187 del 10;
#X obj 329 700 s cgSc-1-7label;
#X obj 445 702 s cgSc-1-8label;
#X obj 326 578 loadbang;
#X obj 545 54 shortcut 1 1, f 20;
#N canvas 594 50 1124 789 seq3-5option-control 0;
#X obj 139 278 outlet;
#X obj 65 121 t b;
#X msg 65 143 2;
#X obj 298 126 t b;
#X msg 298 148 3;
#X text 437 5 when aux is pressed after recording starts immediatley
end the rec and play the loop;
#X obj 170 70 sel 0;
#X obj 202 94 t b;
#X msg 202 116 1;
#X obj 33 66 r cgSc-1-2;
#X obj 171 48 r cgSc-1-1;
#X obj 33 88 sel 0;
#X obj 266 99 sel 0;
#X obj 317 272 r seq3-1-actions;
#X obj 317 294 sel 1, f 12;
#X obj 398 327 t b, f 4;
#X obj 317 445 s cgSc-1-1label;
#X obj 507 308 r seq3-1-actions;
#X obj 588 353 t b, f 4;
#X obj 507 329 sel 2 3, f 12;
#X obj 978 320 t b, f 4;
#X msg 978 355 Latch:Off;
#X msg 896 355 Latch:On;
#X obj 507 441 s cgSc-1-2label;
#X text 521 279 print to the shortcut menu;
#X obj 378 141 f 0;
#X obj 130 0 r midi-start;
#X msg 130 22 4;
#X obj 373 105 r midi-stop;
#X obj 507 125 t b;
#X obj 475 98 sel 0;
#X msg 507 147 5;
#X obj 192 487 r seq3-1-actions;
#X obj 273 532 t b, f 4;
#X obj 192 508 sel 5, f 12;
#X obj 317 373 f;
#X msg 317 403 \$1Seq:Stop;
#X obj 398 372 f;
#X msg 398 402 \$1Seq:Play;
#X msg 507 399 \$1Rec:Armd;
#X msg 588 397 \$1Rec:On;
#X msg 659 398 \$1Rec:Off;
#X obj 507 374 f;
#X obj 582 373 f;
#X obj 649 370 f;
#X obj 273 554 f;
#X obj 192 560 f;
#X msg 192 607 \$1Dub:On;
#X obj 201 286 r cgSc-1-slots;
#X obj 201 329 t b f f;
#X obj 166 439 s seq3-1-actions;
#X obj 166 415 v seq3-1-state;
#X obj 201 309 + 1;
#X obj 668 299 + 1;
#X obj 668 251 r cgSc-1-slots;
#X obj 321 507 + 1;
#X obj 321 483 r cgSc-1-slots;
#X obj 559 76 sel 1;
#X obj 612 80 r seq3-1-actions;
#X obj 559 174 t b b;
#X msg 640 152 0;
#X obj 559 152 spigot 0;
#X msg 612 129 1;
#X msg 559 196 1;
#X obj 192 650 s cgSc-1-3label;
#X obj 475 71 r cgSc-1-3;
#X obj 559 52 r cgSc-1-aux;
#X obj 896 398 s cgSc-1-5label;
#X obj 267 72 r cgSc-1-5;
#X obj 358 53 t b;
#X obj 326 26 sel 0;
#X obj 326 2 r cgSc-1-4;
#X msg 358 75 6;
#X obj 465 480 r seq3-1-actions;
#X obj 507 558 f;
#X obj 584 501 + 1;
#X obj 584 477 r cgSc-1-slots;
#X obj 465 643 s cgSc-1-4label;
#X obj 612 104 sel 3, f 12;
#X msg 273 607 \$1Dub:Off;
#X obj 465 501 sel 6, f 10;
#X obj 532 526 t b;
#X obj 465 585 spigot 1;
#X obj 552 582 spigot 0;
#X obj 675 510 r seq3-1-actions;
#X obj 675 532 sel 3;
#X obj 591 537 ==;
#X obj 637 564 f;
#X msg 637 533 1;
#X msg 708 615 0;
#X msg 552 607 \$1:Undo;
#X msg 465 610 \$1:Undid;
#X obj 465 523 t b b;
#X obj 31 189 loadbang;
#X msg 31 211 0;
#X obj 23 341 r init-1-slot;
#X obj 23 363 s cgSc-1-slots;
#X obj 896 255 r seq3-1-togLatch;
#X obj 896 296 sel 1, f 12;
#X connect 1 0 2 0;
#X connect 2 0 0 0;
#X connect 3 0 4 0;
#X connect 4 0 0 0;
#X connect 6 1 7 0;
#X connect 7 0 8 0;
#X connect 8 0 0 0;
#X connect 9 0 11 0;
#X connect 10 0 6 0;
#X connect 11 1 1 0;
#X connect 12 1 3 0;
#X connect 13 0 14 0;
#X connect 14 0 35 0;
#X connect 14 1 15 0;
#X connect 15 0 37 0;
#X connect 17 0 19 0;
#X connect 18 0 44 0;
#X connect 19 0 42 0;
#X connect 19 1 43 0;
#X connect 19 2 18 0;
#X connect 20 0 21 0;
#X connect 21 0 67 0;
#X connect 22 0 67 0;
#X connect 25 0 0 0;
#X connect 26 0 27 0;
#X connect 27 0 0 0;
#X connect 28 0 25 0;
#X connect 29 0 31 0;
#X connect 30 1 29 0;
#X connect 31 0 0 0;
#X connect 32 0 34 0;
#X connect 33 0 45 0;
#X connect 34 0 46 0;
#X connect 34 1 33 0;
#X connect 35 0 36 0;
#X connect 36 0 16 0;
#X connect 37 0 38 0;
#X connect 38 0 16 0;
#X connect 39 0 23 0;
#X connect 40 0 23 0;
#X connect 41 0 23 0;
#X connect 42 0 39 0;
#X connect 43 0 40 0;
#X connect 44 0 41 0;
#X connect 45 0 79 0;
#X connect 46 0 47 0;
#X connect 47 0 64 0;
#X connect 48 0 52 0;
#X connect 49 0 51 0;
#X connect 49 1 35 1;
#X connect 49 2 37 1;
#X connect 51 0 50 0;
#X connect 52 0 49 0;
#X connect 53 0 44 1;
#X connect 53 0 43 1;
#X connect 53 0 42 1;
#X connect 54 0 53 0;
#X connect 55 0 45 1;
#X connect 55 0 46 1;
#X connect 56 0 55 0;
#X connect 57 0 61 0;
#X connect 58 0 78 0;
#X connect 59 0 63 0;
#X connect 59 1 60 0;
#X connect 60 0 61 1;
#X connect 61 0 59 0;
#X connect 62 0 61 1;
#X connect 63 0 0 0;
#X connect 65 0 30 0;
#X connect 66 0 57 0;
#X connect 68 0 12 0;
#X connect 69 0 72 0;
#X connect 70 1 69 0;
#X connect 71 0 70 0;
#X connect 72 0 0 0;
#X connect 73 0 80 0;
#X connect 74 0 82 0;
#X connect 74 0 83 0;
#X connect 75 0 74 1;
#X connect 76 0 75 0;
#X connect 78 0 62 0;
#X connect 79 0 64 0;
#X connect 80 0 92 0;
#X connect 80 1 81 0;
#X connect 81 0 74 0;
#X connect 82 0 91 0;
#X connect 83 0 90 0;
#X connect 84 0 85 0;
#X connect 85 0 88 0;
#X connect 86 0 82 1;
#X connect 87 0 86 0;
#X connect 87 0 83 1;
#X connect 88 0 87 0;
#X connect 89 0 87 0;
#X connect 90 0 77 0;
#X connect 91 0 77 0;
#X connect 92 0 74 0;
#X connect 92 1 89 0;
#X connect 93 0 94 0;
#X connect 94 0 0 0;
#X connect 95 0 96 0;
#X connect 97 0 98 0;
#X connect 98 0 22 0;
#X connect 98 1 20 0;
#X restore 580 78 pd seq3-5option-control;
#X obj 545 147 seq3 1 0 ../../sequences 1 0 1, f 19;
#X obj 745 554 sel 0;
#X obj 772 578 t b;
#X obj 772 599 f;
#X obj 803 599 + 1;
#X obj 772 620 % 2;
#X obj 831 534 loadbang;
#X obj 772 641 sel 0 1, f 14;
#X obj 771 712 s cgSc-1-9label;
#X obj 745 527 r cgSc-1-9;
#X msg 771 671 Sync:Off;
#X msg 841 672 Sync:On;
#X obj 643 690 s phase-lock;
#X msg 830 556 0;
#X msg 326 599 0;
#X msg 326 665 TrnsDwn:\$1;
#X msg 443 668 TransUp:\$1;
#X connect 2 0 0 0;
#X connect 2 0 1 0;
#X connect 3 0 2 0;
#X connect 5 0 14 0;
#X connect 7 0 11 0;
#X connect 8 0 5 0;
#X connect 9 0 8 0;
#X connect 9 1 6 0;
#X connect 11 0 12 0;
#X connect 12 0 9 0;
#X connect 15 0 16 0;
#X connect 17 0 52 0;
#X connect 18 0 54 2;
#X connect 19 0 52 1;
#X connect 22 0 54 3;
#X connect 25 0 26 0;
#X connect 27 0 26 0;
#X connect 28 1 27 0;
#X connect 29 0 28 0;
#X connect 30 0 31 1;
#X connect 31 0 32 0;
#X connect 33 0 48 0;
#X connect 34 0 33 0;
#X connect 36 1 43 0;
#X connect 37 0 36 0;
#X connect 38 0 41 0;
#X connect 39 0 38 0;
#X connect 40 0 47 0;
#X connect 41 0 45 0;
#X connect 41 1 42 0;
#X connect 42 0 40 1;
#X connect 43 0 45 0;
#X connect 43 1 44 0;
#X connect 44 0 40 1;
#X connect 45 0 40 0;
#X connect 46 0 35 0;
#X connect 47 0 46 0;
#X connect 47 0 45 1;
#X connect 47 0 69 0;
#X connect 47 0 70 0;
#X connect 48 0 31 0;
#X connect 51 0 68 0;
#X connect 52 0 54 0;
#X connect 53 0 54 1;
#X connect 54 0 3 0;
#X connect 55 1 56 0;
#X connect 56 0 57 0;
#X connect 57 0 58 0;
#X connect 57 0 59 0;
#X connect 58 0 57 1;
#X connect 59 0 61 0;
#X connect 59 0 66 0;
#X connect 60 0 67 0;
#X connect 61 0 64 0;
#X connect 61 1 65 0;
#X connect 63 0 55 0;
#X connect 64 0 62 0;
#X connect 65 0 62 0;
#X connect 67 0 57 0;
#X connect 68 0 69 0;
#X connect 68 0 70 0;
#X connect 69 0 49 0;
#X connect 70 0 50 0;
