#N canvas 581 374 1022 670 10;
#X obj 299 438 *~, f 34;
#X obj 74 488 +~, f 38;
#X obj 74 510 clip~ 0 1;
#X obj 74 613 outlet~;
#X obj 74 53 sqrt;
#X obj 74 31 inlet;
#X text 111 33 root position;
#X obj 299 34 inlet;
#X text 336 34 hz;
#X obj 499 41 inlet;
#X text 537 40 depth;
#X obj 636 44 inlet;
#X text 676 44 phase;
#N canvas 4 50 747 634 phase-osc 0;
#X obj 165 343 +~;
#X obj 164 384 wrap~;
#X obj 201 237 snapshot~;
#X obj 165 202 phasor~;
#X obj 165 450 cos~;
#X obj 201 317 lop~ 10;
#X obj 346 132 t b;
#X obj 165 546 outlet~;
#X msg 201 258 1 \$1;
#X obj 201 279 -;
#X obj 346 111 inlet;
#X text 383 112 restart-phase-0;
#X obj 165 88 inlet;
#X text 208 88 hz;
#X obj 164 426 wrap~;
#X obj 164 404 -~ \$1;
#X connect 0 0 1 0;
#X connect 1 0 15 0;
#X connect 2 0 8 0;
#X connect 3 0 0 0;
#X connect 3 0 2 0;
#X connect 4 0 7 0;
#X connect 5 0 0 1;
#X connect 6 0 2 0;
#X connect 8 0 9 0;
#X connect 9 0 5 0;
#X connect 10 0 6 0;
#X connect 12 0 3 0;
#X connect 14 0 4 0;
#X connect 15 0 14 0;
#X restore 299 391 pd phase-osc;
#X obj 74 561 pow~ 2;
#X text 662 173 Arg1: phase;
#X obj 74 122 lop~ 10;
#X obj 499 357 lop~ 10;
#X connect 0 0 1 1;
#X connect 1 0 2 0;
#X connect 2 0 14 0;
#X connect 4 0 16 0;
#X connect 5 0 4 0;
#X connect 7 0 13 0;
#X connect 9 0 17 0;
#X connect 11 0 13 1;
#X connect 13 0 0 0;
#X connect 14 0 3 0;
#X connect 16 0 1 0;
#X connect 17 0 0 1;
