#N canvas 581 374 1022 670 10;
#X obj 333 384 *~, f 9;
#X obj 314 488 +~;
#X obj 314 510 clip~ 0 1;
#X obj 461 316 lop~ 5;
#X obj 314 122 lop~ 5;
#X obj 314 31 inlet root position;
#X obj 454 31 inlet hz;
#X obj 518 31 inlet depth;
#X obj 314 583 outlet~;
#X obj 343 255 sel 0;
#X msg 343 277 0;
#X obj 314 532 *~;
#X obj 314 53 sqrt;
#X obj 419 346 *~;
#X msg 392 293 1;
#X obj 392 315 lop~ 5;
#X obj 638 42 inlet phase;
#N canvas 4 50 747 634 phase-osc 0;
#X obj 165 343 +~;
#X obj 165 364 wrap~;
#X obj 201 237 snapshot~;
#X obj 165 202 phasor~;
#X obj 165 385 cos~;
#X obj 201 317 lop~ 10;
#X obj 123 88 inlet hz;
#X obj 346 91 inlet restart-phase-0;
#X obj 346 112 t b;
#X obj 165 406 outlet~;
#X msg 201 258 1 \$1;
#X obj 201 279 -;
#X connect 0 0 1 0;
#X connect 1 0 4 0;
#X connect 2 0 10 0;
#X connect 3 0 0 0;
#X connect 3 0 2 0;
#X connect 4 0 9 0;
#X connect 5 0 0 1;
#X connect 6 0 3 0;
#X connect 7 0 8 0;
#X connect 8 0 2 0;
#X connect 10 0 11 0;
#X connect 11 0 5 0;
#X restore 329 342 pd phase-osc;
#X connect 0 0 1 1;
#X connect 1 0 2 0;
#X connect 2 0 11 0;
#X connect 2 0 11 1;
#X connect 3 0 13 1;
#X connect 4 0 1 0;
#X connect 5 0 12 0;
#X connect 6 0 9 0;
#X connect 7 0 3 0;
#X connect 9 0 10 0;
#X connect 9 1 14 0;
#X connect 9 1 17 0;
#X connect 10 0 15 0;
#X connect 10 0 17 0;
#X connect 11 0 8 0;
#X connect 12 0 4 0;
#X connect 13 0 0 1;
#X connect 14 0 15 0;
#X connect 15 0 13 0;
#X connect 16 0 17 1;
#X connect 17 0 0 0;
