#N canvas 491 118 1105 744 10;
#X text 14 54 x;
#X text 109 55 y;
#X obj 257 82 inlet~;
#X obj 378 82 inlet~;
#X obj 497 60 inlet~;
#X obj 624 83 inlet~;
#X text 324 16 1;
#X text 363 17 2;
#X text 324 43 3;
#X text 363 44 4;
#X obj 758 567 outlet~;
#X obj 256 104 s~ \$0-sound1;
#X obj 378 104 s~ \$0-sound2;
#X obj 502 100 s~ \$0-sound3;
#X obj 624 105 s~ \$0-sound4;
#X obj 759 535 catch~ \$0-bus;
#X text 177 148 0 \, 0;
#X text 397 163 1 \, 0;
#X text 132 460 0 \, 1;
#X text 407 453 1 \, 1;
#X obj 107 381 *~, f 8;
#X obj 151 359 r~ \$0-sound1;
#X obj 106 407 throw~ \$0-bus;
#X obj 9 80 inlet~;
#X obj 119 79 inlet~;
#X obj 105 239 sig~ 1;
#X obj 105 261 -~, f 7;
#X obj 105 312 *~, f 7;
#X obj 214 240 sig~ 1;
#X obj 214 262 -~, f 7;
#X obj 408 389 *~, f 8;
#X obj 408 411 throw~ \$0-bus;
#X obj 517 266 -~, f 9;
#X obj 408 316 *~, f 7;
#X obj 112 662 *~, f 8;
#X obj 112 684 throw~ \$0-bus;
#X obj 112 516 sig~ 1;
#X obj 112 538 -~, f 7;
#X obj 112 589 *~, f 7;
#X obj 410 661 *~, f 8;
#X obj 410 684 throw~ \$0-bus;
#X obj 410 589 *~, f 7;
#X obj 460 367 r~ \$0-sound2;
#X obj 157 639 r~ \$0-sound3;
#X obj 456 639 r~ \$0-sound4;
#X obj 9 122 s~ \$0-xval;
#X obj 119 121 s~ \$0-yval;
#X obj 151 183 r~ \$0-xval;
#X obj 261 183 r~ \$0-yval;
#X obj 158 480 r~ \$0-xval;
#X obj 268 480 r~ \$0-yval;
#X obj 408 197 r~ \$0-xval;
#X obj 576 202 r~ \$0-yval;
#X obj 410 480 r~ \$0-xval;
#X obj 529 480 r~ \$0-yval;
#X obj 517 244 sig~ 1;
#N canvas 10 50 450 300 inverse-quar 0;
#X obj 278 28 inlet~;
#X obj 127 197 outlet~;
#X obj 128 128 sig~ 1;
#X obj 128 150 -~, f 8;
#X obj 224 49 sig~ 1;
#X obj 224 71 -~, f 8;
#X obj 224 93 pow~ 2;
#X connect 0 0 5 1;
#X connect 2 0 3 0;
#X connect 3 0 1 0;
#X connect 4 0 5 0;
#X connect 5 0 6 0;
#X connect 6 0 3 1;
#X restore 106 338 pd inverse-quar;
#N canvas 10 50 450 300 inverse-quar 0;
#X obj 278 28 inlet~;
#X obj 127 197 outlet~;
#X obj 128 128 sig~ 1;
#X obj 128 150 -~, f 8;
#X obj 224 49 sig~ 1;
#X obj 224 71 -~, f 8;
#X obj 224 93 pow~ 2;
#X connect 0 0 5 1;
#X connect 2 0 3 0;
#X connect 3 0 1 0;
#X connect 4 0 5 0;
#X connect 5 0 6 0;
#X connect 6 0 3 1;
#X restore 407 340 pd inverse-quar;
#N canvas 10 50 450 300 inverse-quar 0;
#X obj 278 28 inlet~;
#X obj 127 197 outlet~;
#X obj 128 128 sig~ 1;
#X obj 128 150 -~, f 8;
#X obj 224 49 sig~ 1;
#X obj 224 71 -~, f 8;
#X obj 224 93 pow~ 2;
#X connect 0 0 5 1;
#X connect 2 0 3 0;
#X connect 3 0 1 0;
#X connect 4 0 5 0;
#X connect 5 0 6 0;
#X connect 6 0 3 1;
#X restore 410 618 pd inverse-quar;
#N canvas 10 50 450 300 inverse-quar 0;
#X obj 278 28 inlet~;
#X obj 127 197 outlet~;
#X obj 128 128 sig~ 1;
#X obj 128 150 -~, f 8;
#X obj 224 49 sig~ 1;
#X obj 224 71 -~, f 8;
#X obj 224 93 pow~ 2;
#X connect 0 0 5 1;
#X connect 2 0 3 0;
#X connect 3 0 1 0;
#X connect 4 0 5 0;
#X connect 5 0 6 0;
#X connect 6 0 3 1;
#X restore 112 618 pd inverse-quar;
#X connect 2 0 11 0;
#X connect 3 0 12 0;
#X connect 4 0 13 0;
#X connect 5 0 14 0;
#X connect 15 0 10 0;
#X connect 20 0 22 0;
#X connect 21 0 20 1;
#X connect 23 0 45 0;
#X connect 24 0 46 0;
#X connect 25 0 26 0;
#X connect 26 0 27 0;
#X connect 27 0 56 0;
#X connect 28 0 29 0;
#X connect 29 0 27 1;
#X connect 30 0 31 0;
#X connect 32 0 33 1;
#X connect 33 0 57 0;
#X connect 34 0 35 0;
#X connect 36 0 37 0;
#X connect 37 0 38 0;
#X connect 38 0 59 0;
#X connect 39 0 40 0;
#X connect 41 0 58 0;
#X connect 42 0 30 1;
#X connect 43 0 34 1;
#X connect 44 0 39 1;
#X connect 47 0 26 1;
#X connect 48 0 29 1;
#X connect 49 0 37 1;
#X connect 50 0 38 1;
#X connect 51 0 33 0;
#X connect 52 0 32 1;
#X connect 53 0 41 0;
#X connect 54 0 41 1;
#X connect 55 0 32 0;
#X connect 56 0 20 0;
#X connect 57 0 30 0;
#X connect 58 0 39 0;
#X connect 59 0 34 0;
