#N canvas 1015 165 656 560 10;
#X obj 175 480 s oscOut;
#X obj 15 183 i;
#X obj 175 181 i;
#X obj 175 270 pack 0 0;
#X obj 175 243 t b a, f 8;
#X obj 276 22 inlet;
#X obj 15 40 inlet~;
#X obj 175 39 inlet~;
#X obj 15 112 snapshot~;
#X obj 175 111 snapshot~;
#X msg 175 392 \$1 \$2 6 6 1;
#X obj 175 426 list prepend /oled/gInvertArea 3;
#X obj 15 161 * 122;
#X obj 175 159 * 58;
#X obj 214 335 list, f 10;
#X obj 175 296 t a a b;
#X obj 214 356 route bang;
#X obj 276 43 t a a, f 26;
#X msg 433 443 /oled/gFlip 3;
#X obj 175 450 list trim;
#X obj 276 109 t b b, f 9;
#X obj 64 67 t b b;
#X obj 327 136 s \$0-metro-2-snap;
#X obj 64 4 r \$0-metro-2-snap;
#X obj 15 205 change -1;
#X obj 175 212 change -1;
#X obj 276 86 metro 98;
#X obj 449 214 sel 0 1;
#X connect 1 0 24 0;
#X connect 2 0 25 0;
#X connect 3 0 15 0;
#X connect 4 0 3 0;
#X connect 4 1 3 1;
#X connect 5 0 17 0;
#X connect 6 0 8 0;
#X connect 7 0 9 0;
#X connect 8 0 12 0;
#X connect 9 0 13 0;
#X connect 10 0 11 0;
#X connect 11 0 19 0;
#X connect 12 0 1 0;
#X connect 13 0 2 0;
#X connect 14 0 16 0;
#X connect 15 0 10 0;
#X connect 15 1 14 1;
#X connect 15 2 14 0;
#X connect 16 1 10 0;
#X connect 17 0 26 0;
#X connect 17 1 27 0;
#X connect 18 0 0 0;
#X connect 19 0 0 0;
#X connect 20 0 18 0;
#X connect 20 1 22 0;
#X connect 21 0 8 0;
#X connect 21 1 9 0;
#X connect 23 0 21 0;
#X connect 24 0 3 0;
#X connect 25 0 4 0;
#X connect 26 0 20 0;
#X connect 27 0 14 1;
