#N canvas 324 70 958 732 10;
#X obj 159 618 outlet~;
#X obj 159 498 *~;
#X obj 338 280 / 127;
#X obj 530 345 unpack, f 13;
#X obj 605 368 s \$0-trigger;
#X obj 159 570 hip~ 5;
#X obj 530 513 s~ \$0-freq;
#N canvas 335 72 842 837 sound 0;
#X obj 208 326 r~ vek-\$1-pointx;
#X obj 284 376 r~ vek-\$1-pointy;
#X obj 360 533 tabosc4~ vek-\$1-wav1;
#X obj 435 583 tabosc4~ vek-\$1-wav2;
#X obj 513 626 tabosc4~ vek-\$1-wav3;
#X obj 589 652 tabosc4~ vek-\$1-wav4;
#X obj 523 484 r~ \$0-freq;
#X obj 208 679 vek-sound, f 64;
#X obj 399 347 route list;
#X obj 208 801 outlet~;
#X obj 399 325 list prepend set;
#X msg 399 302 vek-\$2-wav\$1;
#X obj 479 397 route list;
#X obj 479 375 list prepend set;
#X msg 479 352 vek-\$2-wav\$1;
#X obj 559 457 route list;
#X obj 559 435 list prepend set;
#X msg 559 412 vek-\$2-wav\$1;
#X obj 619 527 route list;
#X obj 619 505 list prepend set;
#X msg 619 482 vek-\$2-wav\$1;
#X obj 399 279 pack 0 \$1;
#X obj 523 322 pack 0 \$1;
#X obj 602 384 pack 0 \$1;
#X obj 670 459 pack 0 \$1;
#X obj 565 203 unpack 0 0 0 0;
#X obj 648 34 r vek-\$1-table-change;
#X connect 0 0 7 0;
#X connect 1 0 7 1;
#X connect 2 0 7 2;
#X connect 3 0 7 3;
#X connect 4 0 7 4;
#X connect 5 0 7 5;
#X connect 6 0 2 0;
#X connect 6 0 3 0;
#X connect 6 0 4 0;
#X connect 6 0 5 0;
#X connect 7 0 9 0;
#X connect 8 0 2 0;
#X connect 10 0 8 0;
#X connect 11 0 10 0;
#X connect 12 0 3 0;
#X connect 13 0 12 0;
#X connect 14 0 13 0;
#X connect 15 0 4 0;
#X connect 16 0 15 0;
#X connect 17 0 16 0;
#X connect 18 0 5 0;
#X connect 19 0 18 0;
#X connect 20 0 19 0;
#X connect 21 0 11 0;
#X connect 22 0 14 0;
#X connect 23 0 17 0;
#X connect 24 0 20 0;
#X connect 25 0 21 0;
#X connect 25 1 22 0;
#X connect 25 2 23 0;
#X connect 25 3 24 0;
#X connect 26 0 25 0;
#X restore 158 396 pd sound;
#X obj 338 257 r \$0-trigger;
#X obj 159 594 *~ 0.6;
#X obj 530 477 mtof~;
#X obj 530 445 +~, f 15;
#X obj 286 396 pow~ 4;
#X obj 338 301 sqrt;
#X obj 338 322 sqrt;
#X obj 286 282 f -1;
#X obj 286 375 cg-adsr \$2 300 90 \$3;
#X obj 366 51 inlet;
#X obj 366 72 unpack, f 13;
#X obj 366 93 swap, f 13;
#X obj 530 289 f, f 14;
#X obj 366 114 sel -1;
#X obj 530 310 pack 0 0;
#X obj 530 261 t b a;
#X obj 403 435 switch~;
#X obj 530 413 sig~;
#X obj 616 395 r~ vek-\$1-trans;
#X connect 1 0 5 0;
#X connect 2 0 13 0;
#X connect 3 0 25 0;
#X connect 3 1 4 0;
#X connect 5 0 9 0;
#X connect 7 0 1 0;
#X connect 8 0 2 0;
#X connect 9 0 0 0;
#X connect 10 0 6 0;
#X connect 11 0 10 0;
#X connect 12 0 1 1;
#X connect 13 0 14 0;
#X connect 14 0 16 0;
#X connect 15 0 16 0;
#X connect 16 0 12 0;
#X connect 16 1 24 0;
#X connect 17 0 18 0;
#X connect 18 0 19 0;
#X connect 18 1 19 1;
#X connect 19 0 21 0;
#X connect 19 1 20 1;
#X connect 20 0 22 0;
#X connect 21 0 15 0;
#X connect 21 1 23 0;
#X connect 22 0 3 0;
#X connect 23 0 20 0;
#X connect 23 1 22 1;
#X connect 25 0 11 0;
#X connect 26 0 11 1;
