#N canvas 444 170 549 353 10;
#N canvas 197 138 1025 591 tables 0;
#X obj 263 272 vek-table-read \$1 19 19;
#X obj 81 131 vek-table-read \$1 1 1;
#X obj 80 153 vek-table-read \$1 2 2;
#X obj 81 175 vek-table-read \$1 3 3;
#X obj 80 197 vek-table-read \$1 4 4;
#X obj 80 221 vek-table-read \$1 5 5;
#X obj 79 243 vek-table-read \$1 6 6;
#X obj 80 265 vek-table-read \$1 7 7;
#X obj 79 287 vek-table-read \$1 8 8;
#X obj 81 309 vek-table-read \$1 9 9;
#X obj 80 331 vek-table-read \$1 10 10;
#X obj 80 355 vek-table-read \$1 11 11;
#X obj 79 377 vek-table-read \$1 12 12;
#X obj 260 137 vek-table-read \$1 13 13;
#X obj 259 159 vek-table-read \$1 14 14;
#X obj 260 181 vek-table-read \$1 15 15;
#X obj 260 203 vek-table-read \$1 16 16;
#X obj 260 227 vek-table-read \$1 17 17;
#X obj 259 249 vek-table-read \$1 18 18;
#X restore 204 104 pd tables;
#X text 279 102 waveforms;
#N canvas 344 55 1417 949 knobs 0;
#X obj 498 340 s~ vek-\$1-pointy;
#X obj 152 308 s~ vek-\$1-pointx;
#X obj 291 453 * 100;
#X obj 291 475 int;
#X obj 106 444 * 100;
#X obj 106 469 int;
#X obj 106 513 s vek-\$1-knob1-label;
#X obj 291 526 s vek-\$1-knob2-label;
#X obj 650 531 s vek-\$1-knob4-label;
#X obj 459 523 s vek-\$1-knob3-label;
#X obj 125 187 r vek-\$1-knob1;
#X obj 267 10 r vek-\$1-knob3;
#X obj 613 85 r vek-\$1-knob4;
#X obj 472 133 r vek-\$1-knob2;
#X obj 722 145 r restart-phase;
#X obj 125 208 t a a;
#X obj 472 154 t a a;
#X obj 613 106 pow 2;
#X obj 301 160 r restart-phase;
#X msg 301 181 0;
#X obj 459 433 * 100;
#X obj 459 454 i;
#X obj 459 475 * 0.01;
#X obj 650 437 * 100;
#X obj 650 458 i;
#X obj 267 38 t a a a, f 22;
#X msg 650 507 LFO Depth: \$1%;
#X obj 613 127 t a a a;
#X msg 106 491 X Position: \$1%;
#X msg 291 500 Y Position: \$1%;
#X obj 151 286 vek-lfo 0, f 29;
#X msg 722 165 0.125;
#X obj 497 286 vek-lfo 0.25, f 29;
#X obj 244 141 pow 2;
#X obj 244 162 * 10;
#X obj 331 89 wrap;
#X msg 459 501 LFO Rate: \$1hz;
#X obj 331 68 * 2;
#X obj 331 110 pow 2;
#X obj 331 131 * 10;
#X connect 2 0 3 0;
#X connect 3 0 29 0;
#X connect 4 0 5 0;
#X connect 5 0 28 0;
#X connect 10 0 15 0;
#X connect 11 0 25 0;
#X connect 12 0 17 0;
#X connect 13 0 16 0;
#X connect 14 0 31 0;
#X connect 15 0 4 0;
#X connect 15 1 30 0;
#X connect 16 0 2 0;
#X connect 16 1 32 0;
#X connect 17 0 27 0;
#X connect 18 0 19 0;
#X connect 19 0 30 3;
#X connect 20 0 21 0;
#X connect 21 0 22 0;
#X connect 22 0 36 0;
#X connect 23 0 24 0;
#X connect 24 0 26 0;
#X connect 25 0 33 0;
#X connect 25 1 37 0;
#X connect 25 2 20 0;
#X connect 26 0 8 0;
#X connect 27 0 30 2;
#X connect 27 1 32 2;
#X connect 27 2 23 0;
#X connect 28 0 6 0;
#X connect 29 0 7 0;
#X connect 30 0 1 0;
#X connect 31 0 32 3;
#X connect 32 0 0 0;
#X connect 33 0 34 0;
#X connect 34 0 30 1;
#X connect 35 0 38 0;
#X connect 36 0 9 0;
#X connect 37 0 35 0;
#X connect 38 0 39 0;
#X connect 39 0 32 1;
#X restore 205 139 pd knobs;
#X text 281 139 knobs and the LFOs;
#N canvas 138 53 1119 799 the 0;
#X obj 33 236 pack 0 0 0;
#X obj 35 714 outlet~;
#X obj 640 582 f, f 11;
#X msg 656 514 stop;
#X obj 640 609 text get vek-\$1-table-combos;
#X obj 750 511 vline~;
#X obj 34 652 *~;
#X obj 640 631 s vek-\$1-table-change;
#X obj 640 420 r \$0-bang-change;
#X text 806 516 Clickless table change;
#X obj 33 37 inlet;
#X obj 33 58 t a a;
#X obj 62 90 stripnote;
#X obj 62 111 t b;
#X obj 62 152 s restart-phase;
#X obj 62 132 spigot 0;
#X obj 156 86 r phase-lock;
#X obj 640 560 del 10;
#X msg 750 490 0 10 \, 1 10 10;
#X obj 33 288 route 1 2 3 4, f 76;
#X obj 33 213 poly 4 1, f 10;
#X obj 640 444 t b f b b, f 28;
#X obj 90 376 cg-click-clone ../../vektor-voice \$1 10 700;
#X obj 375 362 cg-click-clone ../../vektor-voice \$1 10 700;
#X obj 298 312 cg-click-clone ../../vektor-voice \$1 10 700;
#X obj 33 315 cg-click-clone ../../vektor-voice \$1 10 700;
#X connect 0 0 19 0;
#X connect 2 0 4 0;
#X connect 3 0 17 0;
#X connect 4 0 7 0;
#X connect 5 0 6 1;
#X connect 6 0 1 0;
#X connect 8 0 21 0;
#X connect 10 0 11 0;
#X connect 11 0 20 0;
#X connect 11 1 12 0;
#X connect 12 0 13 0;
#X connect 13 0 15 0;
#X connect 15 0 14 0;
#X connect 16 0 15 1;
#X connect 17 0 2 0;
#X connect 18 0 5 0;
#X connect 19 0 25 0;
#X connect 19 1 22 0;
#X connect 19 2 24 0;
#X connect 19 3 23 0;
#X connect 20 0 0 0;
#X connect 20 1 0 1;
#X connect 20 2 0 2;
#X connect 21 0 17 0;
#X connect 21 1 2 1;
#X connect 21 2 18 0;
#X connect 21 3 3 0;
#X connect 22 0 6 0;
#X connect 23 0 6 0;
#X connect 24 0 6 0;
#X connect 25 0 6 0;
#X restore 42 137 pd the synth;
#X obj 42 158 outlet~;
#X obj 42 113 inlet;
#N canvas 4 50 1358 682 change-the-tables 1;
#X obj 982 641 text get vek-\$1-table-combos;
#X obj 982 663 unpack 0 0 0 0;
#X msg 668 566 0;
#X msg 278 634 1;
#X msg 605 611 /oled/gClear 3 1;
#X obj 605 633 s oscOut;
#X msg 499 732 /oled/gLine 3 64 0 64 63 1;
#X msg 472 758 /oled/gLine 3 0 32 127 32 1;
#X obj 472 705 t b b;
#X obj 472 780 s oscOut;
#X obj 364 246 f;
#X obj 280 189 r \$0-rebang;
#X obj 280 211 b;
#X obj 793 310 s \$0-bang-change;
#X obj 805 662 s \$0-table-number;
#X msg 525 331 Table Combo: \$1;
#X obj 525 361 s vek-\$1-aux-label;
#X obj 386 361 r page-ready;
#X msg 419 474 1;
#X msg 452 476 0;
#X obj 405 435 t b b;
#X obj 330 474 s \$0-rebang;
#X obj 493 494 s oscOut;
#X msg 558 447 /oled/gShowInfoBar 3 1;
#X msg 495 423 /oled/gShowInfoBar 3 0;
#X obj 364 499 spigot 0;
#X obj 386 383 sel 0 1;
#X obj 820 388 t f f, f 16;
#X obj 364 277 t f f f, f 72;
#X obj 364 88 r change-wave;
#X obj 820 485 s cgSc-1-6label;
#X msg 820 456 WavTab:\$1;
#X obj 670 651 t b b b b;
#X text 1222 627 arg1: xPosition;
#X text 1222 646 arg2: yPosition;
#X text 1222 666 arg3: width;
#X text 1222 686 arg4: height;
#X text 1223 706 arg5: point definition;
#X text 1220 730 arg6: default name;
#X text 1220 746 arg7: sample length in samples;
#X text 1110 347 arg 2: Start PositionX;
#X text 1109 367 arg 3: Start PositionY;
#X text 1113 394 arg 4: Width;
#X text 1113 410 arg 5: Height;
#X text 1111 327 arg 1: global instance #;
#X msg 980 703 name vek-1-wav\$1;
#X msg 1077 774 name vek-1-wav\$1;
#X msg 1044 751 name vek-1-wav\$1;
#X msg 1018 727 name vek-1-wav\$1;
#X obj 364 109 t a a;
#X obj 982 597 - 1;
#X obj 706 688 del 3;
#X obj 687 809 del 6;
#X obj 638 818 del 9;
#X obj 355 529 t b b b b b b f, f 63;
#X obj 278 661 s \$0-draw-cursor;
#X obj 668 587 s \$0-draw-cursor;
#X obj 689 851 cg-draw-waveform 0 33 63 31 8 vek-\$1-wav3 8195;
#X obj 672 884 cg-draw-waveform 65 33 63 31 8 vek-\$1-wav4 8195;
#X obj 704 764 cg-draw-waveform 65 0 63 32 9 vek-\$1-wav2 8195;
#X obj 722 735 cg-draw-waveform 0 0 64 31 11 vek-\$1-wav1 8195;
#N canvas 285 89 1077 643 draw-the-cursor 1;
#X obj 122 227 vek-print;
#X obj 121 75 r~ vek-\$1-pointx;
#X obj 148 117 r~ vek-\$1-pointy;
#X text 186 35 draw cursor;
#X obj 172 157 r \$0-draw-cursor;
#X obj 350 53 r cgSc-\$1-mute-print;
#X obj 350 88 == 0;
#X obj 350 107 t a a;
#X obj 172 191 spigot 1, f 18;
#X connect 1 0 0 0;
#X connect 2 0 0 1;
#X connect 4 0 8 0;
#X connect 5 0 6 0;
#X connect 6 0 7 0;
#X connect 7 0 8 1;
#X connect 7 1 0 2;
#X connect 8 0 0 2;
#X restore 166 756 pd draw-the-cursor;
#X obj 100 465 s \$0-draw-cursor;
#X obj 100 428 0;
#X obj 449 402 t b b b;
#X obj 140 432 1;
#X obj 123 332 r page-ready;
#X obj 123 353 sel 0 1 2;
#X obj 343 569 del 20;
#X obj 326 594 t b b;
#X obj 374 645 s oscOut;
#X msg 374 623 /oled/gFlip 3;
#X obj 480 649 del 10;
#X connect 0 0 1 0;
#X connect 1 0 45 0;
#X connect 1 1 48 0;
#X connect 1 2 47 0;
#X connect 1 3 46 0;
#X connect 2 0 56 0;
#X connect 3 0 55 0;
#X connect 4 0 5 0;
#X connect 6 0 9 0;
#X connect 7 0 9 0;
#X connect 8 0 7 0;
#X connect 8 1 6 0;
#X connect 10 0 28 0;
#X connect 11 0 12 0;
#X connect 12 0 10 0;
#X connect 15 0 16 0;
#X connect 17 0 26 0;
#X connect 18 0 25 1;
#X connect 19 0 25 1;
#X connect 20 0 21 0;
#X connect 20 1 18 0;
#X connect 20 1 24 0;
#X connect 23 0 22 0;
#X connect 24 0 22 0;
#X connect 25 0 54 0;
#X connect 26 1 20 0;
#X connect 26 2 64 0;
#X connect 27 0 31 0;
#X connect 27 1 50 0;
#X connect 28 0 25 0;
#X connect 28 1 27 0;
#X connect 28 2 13 0;
#X connect 29 0 49 0;
#X connect 31 0 30 0;
#X connect 32 0 53 0;
#X connect 32 1 52 0;
#X connect 32 2 51 0;
#X connect 32 3 60 0;
#X connect 45 0 60 1;
#X connect 46 0 58 1;
#X connect 47 0 57 1;
#X connect 48 0 59 1;
#X connect 49 0 10 0;
#X connect 49 1 15 0;
#X connect 50 0 0 0;
#X connect 51 0 59 0;
#X connect 52 0 57 0;
#X connect 53 0 58 0;
#X connect 54 0 68 0;
#X connect 54 1 72 0;
#X connect 54 2 32 0;
#X connect 54 4 4 0;
#X connect 54 5 2 0;
#X connect 54 6 14 0;
#X connect 63 0 62 0;
#X connect 64 0 23 0;
#X connect 64 1 19 0;
#X connect 65 0 62 0;
#X connect 66 0 67 0;
#X connect 67 0 63 0;
#X connect 67 1 65 0;
#X connect 67 2 63 0;
#X connect 68 0 69 0;
#X connect 69 0 3 0;
#X connect 69 1 71 0;
#X connect 71 0 70 0;
#X connect 72 0 8 0;
#X restore 201 203 pd change-the-tables;
#N canvas 464 261 769 326 init-and-texts 0;
#X obj 131 182 s vek-\$1-a;
#X obj 214 183 s vek-\$1-d, f 14;
#X obj 131 122 loadbang;
#X obj 352 189 text define vek-\$1-table-combos;
#X msg 352 142 write table-combos.txt;
#X obj 516 116 loadbang;
#X msg 516 142 read table-combos.txt;
#X msg 214 156 900;
#X text 132 207 attack;
#X text 215 207 release;
#X msg 263 154 200;
#X msg 131 155 25;
#X connect 2 0 11 0;
#X connect 2 0 7 0;
#X connect 4 0 3 0;
#X connect 5 0 6 0;
#X connect 6 0 3 0;
#X connect 7 0 1 0;
#X connect 10 0 1 0;
#X connect 11 0 0 0;
#X restore 202 229 pd init-and-texts;
#X connect 4 0 5 0;
#X connect 6 0 4 0;
