#N canvas 514 50 1183 938 10;
#X obj 939 348 s trakr-\$1-slope-local;
#X obj 20 329 r trakr-\$1-notes-in;
#X obj 604 857 s trakr-\$1-shift-label;
#X obj 21 285 s trakr-\$1-sigmund;
#X obj 20 14 r~ trakr-\$1-in;
#X obj 557 396 lop~ 600;
#X obj 557 367 catch~ trakr-\$1-bus;
#X obj 813 241 s trakr-\$1-wave-local;
#X obj 813 21 r trakr-\$1-wave;
#X obj 813 65 i;
#X msg 843 195 Wave: \$1;
#X obj 843 118 symbol Sine;
#X obj 873 138 symbol Square;
#X obj 896 164 symbol Saw;
#X obj 949 191 symbol Triangle;
#X obj 843 217 s trakr-\$1-wave-label;
#X obj 614 261 r trakr-\$1-dw;
#X obj 569 446 c_xfade;
#X obj 614 333 lop~ 10;
#X obj 462 316 r~ trakr-\$1-in;
#X obj 461 338 hip~ 15;
#X obj 462 360 lop~ 5000;
#X msg 734 388 Dry/Wet \$1 %;
#X obj 734 410 s trakr-\$1-dw-label;
#X obj 734 338 * 100;
#X obj 734 360 i;
#X obj 939 302 loadbang;
#X msg 1017 751 write trakr-\$1-txt;
#X obj 920 815 text define trakr-\$1-txt;
#X obj 1017 730 f \$1;
#X obj 920 767 f \$1;
#X msg 920 788 read trakr-\$1-txt;
#X obj 920 742 loadbang;
#X obj 912 584 text get trakr-\$1-txt;
#X obj 931 660 s trakr-\$1-partials-label;
#X obj 912 513 r trakr-\$1-partials;
#X obj 912 557 i;
#X obj 912 688 s trakr-\$1-partials-local;
#N canvas 637 324 730 556 print-the-list 0;
#X obj 39 23 inlet;
#X obj 45 333 outlet;
#X msg 42 156 P: \$1\$2\$3\$4\$5\$6\$7\$8\$9\$10\$11\$12;
#X connect 0 0 2 0;
#X connect 2 0 1 0;
#X restore 931 636 pd print-the-list;
#X obj 20 438 abs;
#X obj 20 397 expr if ($f1 > 59 \, $f1 - 60 \, $f1 - 12);
#X text 26 417 allow all midi notes to trigger samples...;
#X obj 20 464 % 24;
#X obj 20 351 stripnote;
#X obj 570 551 s~ trakr-\$1-outL;
#X obj 710 551 s~ trakr-\$1-outR;
#X obj 642 476 hip~ 500;
#X obj 643 497 rev3~ 93 90 2000 20;
#X obj 602 640 r trakr-\$1-shift;
#X obj 101 841 s trakr-\$1-keyshift-label;
#X obj 20 606 s trakr-\$1-keyshift-local;
#X obj 664 788 s trakr-\$1-shift-local;
#X msg 604 831 Tune Note \$1;
#X obj 20 486 - 12;
#X obj 604 712 int;
#X obj 604 690 - 72;
#X obj 602 668 * 144;
#X obj 604 756 * 100;
#X obj 604 778 i;
#X obj 604 800 * 0.01;
#X obj 84 472 loadbang;
#X msg 84 494 0;
#X obj 20 196 *~;
#X obj 48 34 r trakr-\$1-aux;
#X obj 48 56 sel 1;
#X obj 48 124 tgl 15 0 empty empty empty 17 7 0 10 -262144 -1 -1 0
1;
#X obj 20 238 hip~ 25;
#X obj 604 734 * 0.166667;
#X obj 20 216 lop~ 12000;
#X obj 48 170 lop~ 5;
#X text 508 71 12 partials;
#X text 924 843 partial master list.;
#X obj 79 695 sel 0 1;
#X obj 66 149 s \$0-on/off;
#X obj 79 669 r \$0-on/off;
#X obj 101 783 pack s 0, f 20;
#X obj 206 750 t b a;
#X obj 20 546 f;
#X msg 101 819 [\$1] Transpose: \$2;
#X obj 29 714 s led;
#X obj 79 717 symbol Off;
#X obj 101 737 symbol On;
#X obj 813 43 * 4;
#X obj 843 96 sel 0 1 2 3 4, f 21;
#X obj 329 17 track-voice trakr-\$1 0;
#X obj 912 535 * 18;
#X obj 97 58 loadbang;
#X msg 939 324 120;
#X obj 21 263 sigmund~ -maxfreq 10000 -npeak 12 peaks;
#X msg 97 80 1;
#X obj 642 523 *~ 0.7;
#X obj 711 523 *~ 0.7;
#X text 995 320 lop~ slope time;
#X text 868 52 change the waveform;
#X obj 329 64 track-voice trakr-\$1 2;
#X obj 329 87 track-voice trakr-\$1 3;
#X obj 329 133 track-voice trakr-\$1 5;
#X obj 329 224 track-voice trakr-\$1 9;
#X obj 330 40 track-voice trakr-\$1 1;
#X obj 329 267 track-voice trakr-\$1 11;
#X obj 329 180 track-voice trakr-\$1 7;
#X obj 329 110 track-voice trakr-\$1 4;
#X obj 329 157 track-voice trakr-\$1 6;
#X obj 329 201 track-voice trakr-\$1 8;
#X obj 329 246 track-voice trakr-\$1 10;
#X connect 1 0 43 0;
#X connect 4 0 62 0;
#X connect 5 0 17 1;
#X connect 6 0 5 0;
#X connect 8 0 82 0;
#X connect 9 0 7 0;
#X connect 9 0 83 0;
#X connect 10 0 15 0;
#X connect 11 0 10 0;
#X connect 12 0 10 0;
#X connect 13 0 10 0;
#X connect 14 0 10 0;
#X connect 16 0 18 0;
#X connect 16 0 24 0;
#X connect 17 0 44 0;
#X connect 17 0 45 0;
#X connect 17 0 46 0;
#X connect 18 0 17 2;
#X connect 19 0 20 0;
#X connect 20 0 21 0;
#X connect 21 0 17 0;
#X connect 22 0 23 0;
#X connect 24 0 25 0;
#X connect 25 0 22 0;
#X connect 26 0 87 0;
#X connect 29 0 27 0;
#X connect 30 0 31 0;
#X connect 31 0 28 0;
#X connect 32 0 30 0;
#X connect 33 0 37 0;
#X connect 33 0 38 0;
#X connect 35 0 85 0;
#X connect 36 0 33 0;
#X connect 38 0 34 0;
#X connect 39 0 42 0;
#X connect 40 0 39 0;
#X connect 42 0 53 0;
#X connect 43 0 40 0;
#X connect 46 0 47 0;
#X connect 47 0 90 0;
#X connect 47 1 91 0;
#X connect 47 2 90 0;
#X connect 47 3 91 0;
#X connect 48 0 56 0;
#X connect 52 0 2 0;
#X connect 53 0 77 0;
#X connect 54 0 67 0;
#X connect 55 0 54 0;
#X connect 56 0 55 0;
#X connect 57 0 58 0;
#X connect 58 0 59 0;
#X connect 59 0 52 0;
#X connect 60 0 61 0;
#X connect 61 0 77 0;
#X connect 62 0 68 0;
#X connect 63 0 64 0;
#X connect 64 0 65 0;
#X connect 65 0 69 0;
#X connect 65 0 73 0;
#X connect 66 0 88 0;
#X connect 67 0 51 0;
#X connect 67 0 57 0;
#X connect 68 0 66 0;
#X connect 69 0 62 1;
#X connect 72 0 80 0;
#X connect 72 1 81 0;
#X connect 74 0 72 0;
#X connect 74 0 79 0;
#X connect 75 0 78 0;
#X connect 76 0 75 0;
#X connect 76 1 75 1;
#X connect 77 0 50 0;
#X connect 77 0 76 0;
#X connect 78 0 49 0;
#X connect 80 0 75 0;
#X connect 81 0 75 0;
#X connect 82 0 9 0;
#X connect 83 0 11 0;
#X connect 83 1 12 0;
#X connect 83 2 13 0;
#X connect 83 3 14 0;
#X connect 83 4 14 0;
#X connect 85 0 36 0;
#X connect 86 0 89 0;
#X connect 87 0 0 0;
#X connect 88 0 3 0;
#X connect 89 0 65 0;
#X connect 90 0 44 0;
#X connect 91 0 45 0;
