#N canvas 444 50 1336 942 10;
#X obj 309 225 mtof;
#X obj 309 261 sig~;
#X text 254 74 note messages;
#X text 349 228 outputs midi note number from left outlet;
#X obj 308 836 *~;
#X text 347 181 selects note off messages so we can set decay time
later;
#X text 349 261 convert it to signal so frequency will be constantly
updated;
#X obj 277 98 inlet;
#X obj 308 888 outlet~;
#X obj 309 655 s_buzz;
#X obj 349 439 -~ 1;
#X obj 349 461 abs~;
#X obj 348 505 *~;
#X obj 347 593 *~;
#X obj 349 324 /~ 5000;
#X obj 348 349 clip~ 0 5000;
#X text 412 312 sorta arbitrary scale of harmonic content amount to
avoid aliasing... assumes 44.1k sampling rate .....;
#X obj 425 498 r~ knob3-smooth;
#X obj 426 529 *~ 0.8;
#X obj 277 128 stripnote;
#X obj 592 696 vline~;
#X obj 277 150 t b f;
#X obj 308 285 *~ 1;
#X obj 309 180 - 0;
#X text 23 16 Synth Voice;
#X obj 668 363 r decay;
#X obj 610 466 r attack;
#X obj 592 565 f;
#X obj 592 599 pack 0 0 0;
#X obj 592 768 *~;
#X obj 671 554 + 0;
#X obj 848 124 inlet kill;
#X obj 347 625 *~;
#X obj 722 827 switch~;
#X msg 722 756 1;
#X msg 758 755 0;
#X msg 812 644 stop;
#X obj 801 608 t b b b;
#X obj 543 464 del 5;
#X msg 575 385 stop;
#X obj 575 437 f;
#X obj 650 389 f;
#X obj 651 412 t f f;
#X obj 520 361 t b b b b b b;
#X obj 722 789 change -1;
#X obj 682 439 +;
#X obj 716 402 t b a;
#X obj 617 514 t f f f;
#X msg 592 646 0.75 \$1 \, 0 \$2 \$3;
#X obj 415 624 *~ 1.25;
#X msg 755 640 0 10;
#X obj 758 696 del 10;
#X connect 0 0 1 0;
#X connect 1 0 22 0;
#X connect 4 0 8 0;
#X connect 7 0 19 0;
#X connect 9 0 4 0;
#X connect 10 0 11 0;
#X connect 11 0 12 1;
#X connect 11 0 12 0;
#X connect 12 0 13 0;
#X connect 13 0 32 0;
#X connect 14 0 15 0;
#X connect 15 0 10 0;
#X connect 17 0 18 0;
#X connect 18 0 13 1;
#X connect 19 0 21 0;
#X connect 20 0 29 0;
#X connect 20 0 29 1;
#X connect 20 0 49 0;
#X connect 21 0 43 0;
#X connect 21 1 23 0;
#X connect 22 0 9 0;
#X connect 22 0 14 0;
#X connect 23 0 0 0;
#X connect 25 0 41 1;
#X connect 26 0 47 0;
#X connect 27 0 28 0;
#X connect 28 0 48 0;
#X connect 29 0 4 1;
#X connect 30 0 28 2;
#X connect 31 0 37 0;
#X connect 32 0 9 1;
#X connect 34 0 44 0;
#X connect 35 0 44 0;
#X connect 36 0 51 0;
#X connect 37 0 51 0;
#X connect 37 1 50 0;
#X connect 37 2 36 0;
#X connect 38 0 35 0;
#X connect 39 0 38 0;
#X connect 40 0 38 1;
#X connect 41 0 42 0;
#X connect 42 0 28 1;
#X connect 42 1 45 0;
#X connect 43 0 38 0;
#X connect 43 1 27 0;
#X connect 43 2 40 0;
#X connect 43 3 39 0;
#X connect 43 4 41 0;
#X connect 43 5 34 0;
#X connect 44 0 33 0;
#X connect 45 0 40 1;
#X connect 46 0 45 0;
#X connect 46 1 45 1;
#X connect 47 0 27 1;
#X connect 47 1 30 0;
#X connect 47 2 46 0;
#X connect 48 0 20 0;
#X connect 49 0 32 1;
#X connect 50 0 20 0;
#X connect 51 0 35 0;
