#N canvas 4 50 450 300 10;
#X obj 126 119 t b f;
#X obj 140 148 f;
#X obj 226 79 r knob-page-sel;
#X obj 105 149 f;
#X obj 109 179 sel \$1;
#X obj 147 30 r notes;
#X obj 141 59 unpack;
#X obj 189 146 f;
#X obj 109 217 t b b;
#X obj 220 241 pack;
#X obj 219 265 s p\$1n;
#X connect 0 0 3 0;
#X connect 0 1 1 1;
#X connect 1 0 9 0;
#X connect 2 0 3 1;
#X connect 3 0 4 0;
#X connect 4 0 8 0;
#X connect 5 0 6 0;
#X connect 6 0 0 0;
#X connect 6 1 7 1;
#X connect 7 0 9 1;
#X connect 8 0 1 0;
#X connect 8 1 7 0;
#X connect 9 0 10 0;
