#N canvas 203 114 1328 813 10;
#X obj 149 577 throw~ outR;
#X obj 207 545 throw~ outL;
#N canvas 0 50 450 250 (subpatch) 0;
#X array param1 24 float 3;
#A 0 0.999023 0.999023 0.758789 0.999023 0.901 0.578125 0.666016 0.999023
0.999023 0.666016 0.299805 0.224609 0.708984 0.915039 0.807617 0.999023
0.999023 0.769531 0.539062 0.689453 0.539062 0.69043 0.605469 0.305664
;
#X coords 0 1 24 0 100 100 1 0 0;
#X restore 582 50 graph;
#N canvas 4 50 450 250 (subpatch) 0;
#X array param2 24 float 3;
#A 0 0.44043 0.697266 0.979998 0.989997 0.999997 0.625 0.625 0.228516
0.228516 0.625 0.713867 0.979998 0.257812 0.416992 0.496094 0.999997
0.989997 0.999023 0.999023 0.833008 0.999023 0.244141 0.833008 0.979998
;
#X coords 0 1 24 0 100 100 1 0 0;
#X restore 582 168 graph;
#N canvas 0 50 450 250 (subpatch) 0;
#X array param3 24 float 3;
#A 0 0.253906 0.535156 0.379883 0.379883 0.379883 0.779297 0.779297
0.295898 0.295898 0.779297 0.110352 0.728516 0.362305 0.362305 0.339844
0.535156 0.379883 0.379883 0.508789 0.00195312 0.00195312 0.209961
0.00195312 0.253906;
#X coords 0 1 24 0 100 100 1 0 0;
#X restore 583 287 graph;
#N canvas 0 50 450 250 (subpatch) 0;
#X array param4 24 float 3;
#A 0 0 0.234375 0 0 0 0.232422 0.232422 0.232422 0.232422 0.232422
0 0.118164 0.249023 0.279297 0.243164 0.251953 0 0 0.00195312 0.297852
0.00195312 0.31543 0.297852 0;
#X coords 0 1 24 0 100 100 1 0 0;
#X restore 584 408 graph;
#X obj 150 352 catch~ voice-out;
#N canvas 5 50 825 527 reverb 0;
#X msg 231 207 wet \$1;
#X msg 327 204 dry \$1;
#X obj 181 321 freeverb~;
#X obj 231 124 r rwet;
#X obj 327 123 r rdry;
#X msg 231 151 \$1 40;
#X msg 327 149 \$1 40;
#X obj 327 177 line 0 1;
#X obj 231 179 line 0 1;
#X obj 399 206 - 1;
#X obj 399 233 abs;
#X obj 399 260 s rdry;
#X obj 442 192 s rwet;
#X obj 442 160 * 0.5;
#X obj 419 113 r eparam4;
#X obj 177 109 *~ 0.5;
#X obj 62 95 r eparam3;
#X floatatom 73 241 5 0 0 0 - - -, f 5;
#X msg 82 187 roomsize \$1;
#X obj 75 158 * 0.8;
#X obj 189 44 inlet~;
#X obj 164 387 outlet~;
#X obj 245 389 outlet~;
#X connect 0 0 2 0;
#X connect 1 0 2 0;
#X connect 2 0 21 0;
#X connect 2 1 22 0;
#X connect 3 0 5 0;
#X connect 4 0 6 0;
#X connect 5 0 8 0;
#X connect 6 0 7 0;
#X connect 7 0 1 0;
#X connect 8 0 0 0;
#X connect 9 0 10 0;
#X connect 10 0 11 0;
#X connect 13 0 12 0;
#X connect 13 0 9 0;
#X connect 14 0 13 0;
#X connect 15 0 2 1;
#X connect 15 0 2 0;
#X connect 16 0 19 0;
#X connect 18 0 2 0;
#X connect 19 0 18 0;
#X connect 19 0 17 0;
#X connect 20 0 15 0;
#X restore 148 515 pd reverb;
#N canvas 332 255 1428 646 param-editor 0;
#X obj 153 113 r edit-note;
#X obj 36 61 r knob1;
#X obj 51 116 spigot 0;
#X floatatom 52 139 5 0 0 0 - - -, f 5;
#X obj 53 167 tabwrite param1;
#X obj 151 137 - 60;
#X obj 357 112 r edit-note;
#X obj 255 115 spigot 0;
#X floatatom 256 138 5 0 0 0 - - -, f 5;
#X obj 355 136 - 60;
#X obj 145 306 r edit-note;
#X obj 43 309 spigot 0;
#X floatatom 44 332 5 0 0 0 - - -, f 5;
#X obj 143 330 - 60;
#X obj 349 305 r edit-note;
#X obj 247 308 spigot 0;
#X floatatom 248 331 5 0 0 0 - - -, f 5;
#X obj 347 329 - 60;
#X obj 257 166 tabwrite param2;
#X obj 45 360 tabwrite param3;
#X obj 249 355 tabwrite param4;
#X obj 50 88 f;
#X obj 254 85 f;
#X obj 240 58 r knob2;
#X obj 47 276 f;
#X obj 248 274 f;
#X obj 33 249 r knob3;
#X obj 234 247 r knob4;
#X obj 810 33 r notesRaw;
#X obj 994 219 stripnote;
#X obj 643 248 s edit-note;
#N canvas 6 50 450 300 lock-knobs 0;
#X obj 160 78 s knob1Override;
#X obj 171 101 s knob2Override;
#X obj 188 124 s knob3Override;
#X obj 201 148 s knob4Override;
#X obj 234 17 inlet;
#X connect 4 0 0 0;
#X connect 4 0 1 0;
#X connect 4 0 2 0;
#X connect 4 0 3 0;
#X restore 1106 361 pd lock-knobs;
#X obj 960 391 bag;
#X msg 960 357 flush;
#X text 513 97 <-- output them;
#X msg 900 193 clear;
#X obj 960 329 bang;
#X obj 867 536 tabwrite param1;
#X obj 868 505 tabread param1;
#X obj 986 536 tabwrite param2;
#X obj 1101 533 tabwrite param3;
#X obj 1215 533 tabwrite param4;
#X obj 1220 502 tabread param4;
#X obj 1098 506 tabread param3;
#X obj 985 507 tabread param2;
#X obj 1118 409 - 60;
#X obj 954 451 - 60;
#X text 1001 148 copy params from one key to another;
#X obj 670 208 stripnote;
#X obj 807 70 t a a;
#X obj 920 112 spigot 0;
#X obj 94 40 r key-edit-state;
#X obj 91 242 r key-edit-state;
#X obj 304 237 r key-edit-state;
#X obj 298 37 r key-edit-state;
#X obj 963 34 r key-edit-state;
#X obj 839 145 t a a b a;
#X obj 786 273 s key-just-copied;
#X obj 953 414 t f b;
#X obj 988 283 t b f f;
#X obj 1068 307 change;
#X obj 1092 338 bang;
#X obj 1050 384 print;
#X connect 0 0 5 0;
#X connect 1 0 21 0;
#X connect 2 0 3 0;
#X connect 3 0 4 0;
#X connect 5 0 4 1;
#X connect 6 0 9 0;
#X connect 7 0 8 0;
#X connect 8 0 18 0;
#X connect 9 0 18 1;
#X connect 10 0 13 0;
#X connect 11 0 12 0;
#X connect 12 0 19 0;
#X connect 13 0 19 1;
#X connect 14 0 17 0;
#X connect 15 0 16 0;
#X connect 16 0 20 0;
#X connect 17 0 20 1;
#X connect 21 0 2 0;
#X connect 22 0 7 0;
#X connect 23 0 22 0;
#X connect 24 0 11 0;
#X connect 25 0 15 0;
#X connect 26 0 24 0;
#X connect 27 0 25 0;
#X connect 28 0 49 0;
#X connect 29 0 59 0;
#X connect 32 0 58 0;
#X connect 33 0 32 0;
#X connect 35 0 32 0;
#X connect 36 0 33 0;
#X connect 38 0 37 0;
#X connect 42 0 41 0;
#X connect 43 0 40 0;
#X connect 44 0 39 0;
#X connect 45 0 41 1;
#X connect 45 0 40 1;
#X connect 45 0 39 1;
#X connect 45 0 37 1;
#X connect 46 0 38 0;
#X connect 46 0 44 0;
#X connect 46 0 43 0;
#X connect 46 0 42 0;
#X connect 48 0 30 0;
#X connect 49 0 48 0;
#X connect 49 1 50 0;
#X connect 50 0 56 0;
#X connect 51 0 2 1;
#X connect 52 0 11 1;
#X connect 53 0 15 1;
#X connect 54 0 7 1;
#X connect 55 0 50 1;
#X connect 56 0 57 0;
#X connect 56 1 32 0;
#X connect 56 2 35 0;
#X connect 56 3 29 0;
#X connect 58 0 46 0;
#X connect 59 0 36 0;
#X connect 59 1 45 0;
#X connect 59 2 60 0;
#X connect 60 0 61 0;
#X connect 60 0 62 0;
#X connect 61 0 31 0;
#X restore 731 114 pd param-editor;
#N canvas 19 50 1160 286 knob-to-fx 0;
#X obj 68 62 r knob1;
#X obj 72 115 spigot 1;
#X obj 124 90 ==;
#X obj 71 147 s eparam1;
#X obj 344 123 spigot 1;
#X obj 396 98 ==;
#X obj 570 114 spigot 1;
#X obj 622 89 ==;
#X obj 782 118 spigot 1;
#X obj 834 93 ==;
#X obj 340 70 r knob2;
#X obj 566 61 r knob3;
#X obj 778 65 r knob4;
#X obj 343 155 s eparam2;
#X obj 569 146 s eparam3;
#X obj 781 150 s eparam4;
#X text 261 17 if not in key edit state \, send effect params;
#X obj 123 46 r key-edit-state;
#X obj 395 48 r key-edit-state;
#X obj 626 45 r key-edit-state;
#X obj 837 60 r key-edit-state;
#X connect 0 0 1 0;
#X connect 1 0 3 0;
#X connect 2 0 1 1;
#X connect 4 0 13 0;
#X connect 5 0 4 1;
#X connect 6 0 14 0;
#X connect 7 0 6 1;
#X connect 8 0 15 0;
#X connect 9 0 8 1;
#X connect 10 0 4 0;
#X connect 11 0 6 0;
#X connect 12 0 8 0;
#X connect 17 0 2 0;
#X connect 18 0 5 0;
#X connect 19 0 7 0;
#X connect 20 0 9 0;
#X restore 731 139 pd knob-to-fx;
#N canvas 93 50 1523 918 states-and-leds 0;
#N canvas 12 50 766 473 check-for-hold 0;
#X obj 149 29 inlet;
#X obj 110 394 outlet;
#X text 270 78 a bang goes out if a note is held alone without any
others being touched;
#X msg 228 233 stop;
#X obj 116 96 unpack;
#X obj 149 288 del 1000;
#X obj 145 172 sel 0;
#X obj 174 199 bang;
#X obj 187 132 t f b;
#X obj 105 344 f;
#X connect 0 0 4 0;
#X connect 3 0 5 0;
#X connect 4 0 9 1;
#X connect 4 1 8 0;
#X connect 5 0 9 0;
#X connect 6 1 7 0;
#X connect 7 0 5 0;
#X connect 8 0 6 0;
#X connect 8 1 3 0;
#X connect 9 0 1 0;
#X restore 246 176 pd check-for-hold;
#X obj 246 148 r notesRaw;
#N canvas 11 50 1006 722 midi-control 0;
#X obj 95 121 midirealtimein;
#X obj 95 177 sel 248 250 251 252, f 22;
#X obj 260 272 v state;
#X obj 260 239 bng 15 250 50 0 empty empty empty 17 7 0 10 -262144
-1 -1;
#X obj 260 309 sel 1 2 3, f 37;
#X obj 69 276 v state;
#X obj 69 243 bng 15 250 50 0 empty empty empty 17 7 0 10 -262144 -1
-1;
#X obj 69 313 sel 0 1 2 3, f 12;
#X text 78 509 states are: 0 = stopped \, 1 = playing \, 2 = rec enabled
\, 3 = recording, f 70;
#X text 262 143 MIDI 248 = clock \; 250 = start \; 251 = continue \;
252 = stop, f 18;
#X text 23 15 This subpatch handles MIDI commands for starting/stopping
sequencer., f 69;
#X msg 69 357 1;
#X obj 69 394 s state;
#X obj 259 392 s state;
#X obj 345 384 s state;
#X obj 530 409 s state;
#X msg 260 344 0;
#X msg 345 346 0;
#X msg 529 379 0;
#X obj 430 344 t b b;
#X msg 440 381 1;
#X connect 0 0 1 0;
#X connect 1 1 6 0;
#X connect 1 2 6 0;
#X connect 1 3 3 0;
#X connect 2 0 4 0;
#X connect 3 0 2 0;
#X connect 4 0 16 0;
#X connect 4 1 17 0;
#X connect 4 2 19 0;
#X connect 5 0 7 0;
#X connect 6 0 5 0;
#X connect 7 0 11 0;
#X connect 11 0 12 0;
#X connect 16 0 13 0;
#X connect 17 0 14 0;
#X connect 18 0 15 0;
#X connect 19 0 20 0;
#X connect 19 1 18 0;
#X connect 20 0 15 0;
#X restore 1079 32 pd midi-control;
#X obj 863 274 f;
#X obj 863 221 sel 1;
#X obj 770 132 r aux;
#X floatatom 770 246 5 0 0 0 - - -, f 5;
#X obj 770 277 sel 1;
#X obj 770 336 v state;
#X obj 770 303 bng 15 250 50 0 empty empty empty 17 7 0 10 -262144
-1 -1;
#X msg 863 326 2;
#X obj 848 181 t f f;
#X obj 863 300 sel 1;
#X obj 915 274 bng 15 250 50 0 empty empty empty 17 7 0 10 -262144
-1 -1;
#X obj 863 246 del 500;
#N canvas 73 154 1783 760 led-screen 0;
#X obj 834 220 r edit-note;
#X obj 792 278 f;
#X msg 1133 308 \; screenLine1 Press and hold a \; screenLine2 key
to adjust sound. \; screenLine3 Press any key to \; screenLine4 exit
edit mode. \; screenLine5 Press a key to begin... \; led 0 \;;
#X obj 920 84 t b b;
#X msg 920 128 \; led 7;
#X obj 1045 95 v state;
#X obj 1045 119 sel 0 1 2 3, f 33;
#X msg 1045 146 \; led 0;
#X msg 1102 145 \; led 3;
#X msg 1159 146 \; led 6;
#X msg 1216 146 \; led 1;
#X obj 1045 71 delay 100;
#X text 945 185 Flashes LED at loop & sets color after sequence stop
;
#X obj 914 61 r seq-looped;
#X obj 391 136 r state;
#X msg 792 310 \; screenLine5 Editing Key \$1 \; led 7 \;;
#X msg 162 317 \; screenLine5 Seq Playing \; led 3 \;;
#X msg 47 346 \; screenLine5 Seq Sopped \; led 0 \;;
#X msg 361 318 \; screenLine5 Seq Rec Enable \; led 6 \;;
#X msg 578 312 \; screenLine5 Seq Recording \; led 1 \;;
#X obj 285 532 r edit-note;
#X obj 314 600 spigot 0;
#X msg 315 629 \; screenLine5 Editing Key \$1 \; led 7 \;;
#X obj 391 158 sel 0 1 2 3 4 5;
#N canvas 21 50 610 568 param-disp 0;
#X obj 97 217 tabread param1;
#X floatatom 96 243 5 0 0 0 - - -, f 5;
#X obj 100 114 r edit-note;
#X obj 104 185 f;
#X obj 102 292 spigot 0;
#X obj 35 216 r knob1;
#X obj 320 65 r state;
#X obj 315 101 sel 4;
#X obj 347 172 bang;
#X msg 311 223 0;
#X msg 211 215 1;
#X obj 294 142 t b b;
#X obj 109 148 - 60;
#X text 371 114 state 4 key edit;
#X obj 198 476 outlet;
#X obj 127 340 * 10;
#X obj 127 362 - 5;
#X obj 129 394 * 100;
#X obj 129 416 i;
#X connect 0 0 1 0;
#X connect 1 0 4 0;
#X connect 2 0 12 0;
#X connect 3 0 0 0;
#X connect 4 0 15 0;
#X connect 5 0 4 0;
#X connect 6 0 7 0;
#X connect 7 0 11 0;
#X connect 7 1 8 0;
#X connect 8 0 9 0;
#X connect 9 0 4 1;
#X connect 10 0 4 1;
#X connect 11 0 3 0;
#X connect 11 1 10 0;
#X connect 12 0 3 0;
#X connect 15 0 16 0;
#X connect 16 0 17 0;
#X connect 17 0 18 0;
#X connect 18 0 14 0;
#X restore 719 585 pd param-disp;
#N canvas 15 50 610 568 param-disp 0;
#X floatatom 96 243 5 0 0 0 - - -, f 5;
#X obj 100 114 r edit-note;
#X obj 104 185 f;
#X obj 102 292 spigot 0;
#X obj 320 65 r state;
#X obj 315 101 sel 4;
#X obj 347 172 bang;
#X msg 311 223 0;
#X msg 211 215 1;
#X obj 294 142 t b b;
#X obj 109 148 - 60;
#X text 371 114 state 4 key edit;
#X obj 191 462 outlet;
#X obj 35 216 r knob2;
#X obj 97 217 tabread param2;
#X obj 181 391 i;
#X obj 185 319 t f f;
#X obj 185 341 *;
#X obj 174 367 * 100;
#X connect 0 0 3 0;
#X connect 1 0 10 0;
#X connect 2 0 14 0;
#X connect 3 0 16 0;
#X connect 4 0 5 0;
#X connect 5 0 9 0;
#X connect 5 1 6 0;
#X connect 6 0 7 0;
#X connect 7 0 3 1;
#X connect 8 0 3 1;
#X connect 9 0 2 0;
#X connect 9 1 8 0;
#X connect 10 0 2 0;
#X connect 13 0 3 0;
#X connect 14 0 0 0;
#X connect 15 0 12 0;
#X connect 16 0 17 0;
#X connect 16 1 17 1;
#X connect 17 0 18 0;
#X connect 18 0 15 0;
#X restore 960 587 pd param-disp;
#N canvas 17 50 1027 672 param-disp 0;
#X floatatom 96 243 5 0 0 0 - - -, f 5;
#X obj 100 114 r edit-note;
#X obj 104 185 f;
#X obj 102 292 spigot 0;
#X obj 320 65 r state;
#X obj 315 101 sel 4;
#X obj 347 172 bang;
#X msg 311 223 0;
#X msg 211 215 1;
#X obj 294 142 t b b;
#X obj 109 148 - 60;
#X text 371 114 state 4 key edit;
#X obj 198 476 outlet;
#X obj 35 216 r knob3;
#X obj 97 217 tabread param3;
#X connect 0 0 3 0;
#X connect 1 0 10 0;
#X connect 2 0 14 0;
#X connect 3 0 12 0;
#X connect 4 0 5 0;
#X connect 5 0 9 0;
#X connect 5 1 6 0;
#X connect 6 0 7 0;
#X connect 7 0 3 1;
#X connect 8 0 3 1;
#X connect 9 0 2 0;
#X connect 9 1 8 0;
#X connect 10 0 2 0;
#X connect 13 0 3 0;
#X connect 14 0 0 0;
#X restore 1175 582 pd param-disp;
#N canvas 15 50 610 568 param-disp 0;
#X floatatom 96 243 5 0 0 0 - - -, f 5;
#X obj 100 114 r edit-note;
#X obj 104 185 f;
#X obj 102 292 spigot 0;
#X obj 320 65 r state;
#X obj 315 101 sel 4;
#X obj 347 172 bang;
#X msg 311 223 0;
#X msg 211 215 1;
#X obj 294 142 t b b;
#X obj 109 148 - 60;
#X text 371 114 state 4 key edit;
#X obj 187 496 outlet;
#X obj 35 216 r knob4;
#X obj 97 217 tabread param4;
#X connect 0 0 3 0;
#X connect 1 0 10 0;
#X connect 2 0 14 0;
#X connect 3 0 12 0;
#X connect 4 0 5 0;
#X connect 5 0 9 0;
#X connect 5 1 6 0;
#X connect 6 0 7 0;
#X connect 7 0 3 1;
#X connect 8 0 3 1;
#X connect 9 0 2 0;
#X connect 9 1 8 0;
#X connect 10 0 2 0;
#X connect 13 0 3 0;
#X connect 14 0 0 0;
#X restore 1378 582 pd param-disp;
#X text 975 559 display edit params in key edit mode;
#X obj 392 533 r key-edit-state;
#N canvas 124 235 1064 550 e-param-disp 0;
#X obj 317 39 r eparam1;
#X obj 269 307 f;
#X obj 501 308 f;
#X obj 356 314 f;
#X obj 431 318 f;
#X obj 343 507 outlet;
#X obj 425 504 outlet;
#X obj 511 503 outlet;
#X obj 580 495 outlet;
#X obj 401 37 r eparam2;
#X obj 479 40 r eparam3;
#X obj 559 40 r eparam4;
#X obj 283 421 i;
#X obj 373 414 i;
#X obj 450 417 i;
#X obj 547 415 i;
#X obj 373 392 * 100;
#X obj 449 392 * 100;
#X obj 549 391 * 100;
#X obj 709 3 r state;
#X obj 704 39 sel 0 1 2 3;
#X obj 290 236 spigot;
#X obj 368 243 spigot;
#X obj 542 245 spigot;
#X obj 465 249 spigot;
#X obj 586 105 t b b;
#X msg 770 65 0;
#X msg 447 158 1;
#X text 689 189 allow screen messages only in states 0 1 2 3;
#X obj 282 399 * 10;
#X connect 0 0 21 0;
#X connect 1 0 29 0;
#X connect 2 0 18 0;
#X connect 3 0 16 0;
#X connect 4 0 17 0;
#X connect 9 0 22 0;
#X connect 10 0 24 0;
#X connect 11 0 23 0;
#X connect 12 0 5 0;
#X connect 13 0 6 0;
#X connect 14 0 7 0;
#X connect 15 0 8 0;
#X connect 16 0 13 0;
#X connect 17 0 14 0;
#X connect 18 0 15 0;
#X connect 19 0 20 0;
#X connect 20 0 25 0;
#X connect 20 1 25 0;
#X connect 20 2 25 0;
#X connect 20 3 25 0;
#X connect 20 4 26 0;
#X connect 21 0 1 0;
#X connect 22 0 3 0;
#X connect 23 0 2 0;
#X connect 24 0 4 0;
#X connect 25 0 2 0;
#X connect 25 0 4 0;
#X connect 25 0 3 0;
#X connect 25 0 1 0;
#X connect 25 1 27 0;
#X connect 26 0 23 1;
#X connect 26 0 24 1;
#X connect 26 0 22 1;
#X connect 26 0 21 1;
#X connect 27 0 23 1;
#X connect 27 0 24 1;
#X connect 27 0 22 1;
#X connect 27 0 21 1;
#X connect 29 0 12 0;
#X restore 572 396 pd e-param-disp;
#X msg 1185 466 \; screenLine4 4: Reverb Amt \$1 \;;
#X msg 977 465 \; screenLine3 3: Room Size \$1 \;;
#N canvas 112 85 1240 803 loops-start-end 0;
#X obj 520 288 *;
#X obj 796 68 r dur;
#X obj 715 288 *;
#X obj 612 213 f;
#X obj 466 248 f;
#X obj 780 125 t b f;
#X obj 587 630 outlet;
#X obj 372 600 outlet;
#X text 377 63 start;
#X text 543 67 dur;
#X obj 359 545 expr if($f1 <= 0 \, 0 \, $f1);
#X obj 392 99 inlet;
#X obj 549 100 inlet;
#X obj 582 149 t f f;
#X obj 582 171 *;
#X text 493 127 some extra range for smaller lengths;
#X obj 583 589 + 441;
#X connect 0 0 10 0;
#X connect 1 0 5 0;
#X connect 2 0 16 0;
#X connect 3 0 2 0;
#X connect 4 0 0 0;
#X connect 5 0 4 0;
#X connect 5 0 3 0;
#X connect 5 1 0 1;
#X connect 5 1 2 1;
#X connect 10 0 7 0;
#X connect 11 0 4 0;
#X connect 12 0 13 0;
#X connect 13 0 14 0;
#X connect 13 1 14 1;
#X connect 14 0 3 0;
#X connect 16 0 6 0;
#X restore 1203 610 pd loops-start-end;
#X obj 1365 660 int;
#X obj 1196 659 int;
#X obj 1196 637 / 44.1;
#X obj 1324 636 / 44.1;
#X msg 1173 693 \; screenLine3 3: Start \$1 ms \;;
#X msg 1370 691 \; screenLine4 4: End \$1 ms \;;
#X obj 206 645 s editing-key;
#X msg 509 466 \; screenLine1 1: LFO Freq \$1 Hz \;;
#X msg 742 465 \; screenLine2 2: LFO Depth \$1 % \;;
#X msg 718 620 \; screenLine1 1: Speed \$1 % \;;
#X msg 962 620 \; screenLine2 2: Level \$1 % \;;
#X connect 0 0 1 1;
#X connect 1 0 15 0;
#X connect 3 0 4 0;
#X connect 3 1 11 0;
#X connect 5 0 6 0;
#X connect 6 0 7 0;
#X connect 6 1 8 0;
#X connect 6 2 9 0;
#X connect 6 3 10 0;
#X connect 11 0 5 0;
#X connect 13 0 3 0;
#X connect 14 0 23 0;
#X connect 20 0 21 0;
#X connect 21 0 22 0;
#X connect 21 0 40 0;
#X connect 23 0 17 0;
#X connect 23 1 16 0;
#X connect 23 2 18 0;
#X connect 23 3 19 0;
#X connect 23 4 1 0;
#X connect 23 5 2 0;
#X connect 24 0 43 0;
#X connect 25 0 44 0;
#X connect 26 0 33 0;
#X connect 27 0 33 1;
#X connect 29 0 21 1;
#X connect 30 0 41 0;
#X connect 30 1 42 0;
#X connect 30 2 32 0;
#X connect 30 3 31 0;
#X connect 33 0 36 0;
#X connect 33 1 37 0;
#X connect 34 0 39 0;
#X connect 35 0 38 0;
#X connect 36 0 35 0;
#X connect 37 0 34 0;
#X restore 959 32 pd led-screen;
#X obj 860 25 r state;
#X obj 860 47 v state;
#N canvas 5 50 450 300 lock-knobs 0;
#X obj 160 78 s knob1Override;
#X obj 171 101 s knob2Override;
#X obj 188 124 s knob3Override;
#X obj 201 148 s knob4Override;
#X obj 234 17 inlet;
#X connect 4 0 0 0;
#X connect 4 0 1 0;
#X connect 4 0 2 0;
#X connect 4 0 3 0;
#X restore 797 748 pd lock-knobs;
#X floatatom 814 50 5 0 0 0 - - -, f 5;
#X obj 863 348 s state;
#X obj 456 578 r state;
#X msg 770 407 1;
#X obj 770 431 s state;
#X obj 898 431 s state;
#X msg 898 407 0;
#X obj 1026 430 s state;
#X msg 1026 406 0;
#X obj 592 869 s seq-stop;
#X obj 560 800 t b b;
#X obj 1261 432 s state;
#X msg 1261 408 0;
#X obj 411 752 s seq-stop;
#X obj 497 756 s seq-start;
#X obj 568 162 r seq-record-start;
#X msg 568 188 3;
#X obj 568 216 s state;
#X obj 560 829 s seq-recenable;
#X msg 750 760 1;
#X msg 694 761 0;
#X obj 751 680 t b b b;
#X obj 910 747 s seq-stop;
#X obj 456 623 sel 0 1 2 3 4 5, f 68;
#X obj 444 168 loadbang;
#X obj 446 226 s state;
#X msg 443 197 5;
#X msg 76 208 1;
#X obj 78 147 r notes;
#X obj 82 180 bang;
#X obj 74 236 change -1;
#X msg 70 267 0;
#X obj 70 289 s state;
#X text 369 100 state changing events;
#X text 363 544 dispatch events on state changes;
#X obj 1226 486 s state;
#X msg 1225 456 0;
#X obj 1126 421 t b b;
#X msg 1136 458 1;
#X text 1230 516 stop \, then start when recording;
#X obj 740 850 s key-edit-state;
#X obj 249 206 t b f;
#X obj 321 270 s edit-note;
#X obj 249 285 v state;
#X obj 249 252 bng 15 250 50 0 empty empty empty 17 7 0 10 -262144
-1 -1;
#X msg 252 357 4;
#X obj 252 389 s state;
#X obj 249 328 sel 0, f 7;
#X text 312 332 only allow key editing from stopped state;
#X text 376 30 states: 0 stopped \, 1 playing \, 2 rec enabled \, 3
recording \, 4 key edit \, 5 info screen;
#X text 55 126 press any key to begin;
#X obj 770 379 sel 0 1 2 3 4 5, f 92;
#X obj 1332 444 s state;
#X msg 1332 420 1;
#X obj 145 149 r aux;
#X connect 0 0 60 0;
#X connect 1 0 0 0;
#X connect 3 0 12 0;
#X connect 4 0 14 0;
#X connect 5 0 6 0;
#X connect 5 0 11 0;
#X connect 6 0 7 0;
#X connect 7 0 9 0;
#X connect 8 0 70 0;
#X connect 9 0 8 0;
#X connect 10 0 20 0;
#X connect 11 0 4 0;
#X connect 11 1 3 1;
#X connect 12 0 10 0;
#X connect 14 0 3 0;
#X connect 14 0 13 0;
#X connect 16 0 17 0;
#X connect 16 0 19 0;
#X connect 21 0 42 0;
#X connect 22 0 23 0;
#X connect 25 0 24 0;
#X connect 27 0 26 0;
#X connect 29 0 37 0;
#X connect 29 1 28 0;
#X connect 31 0 30 0;
#X connect 34 0 35 0;
#X connect 35 0 36 0;
#X connect 38 0 59 0;
#X connect 39 0 59 0;
#X connect 40 0 38 0;
#X connect 40 1 18 0;
#X connect 40 2 41 0;
#X connect 42 0 32 0;
#X connect 42 0 39 0;
#X connect 42 1 33 0;
#X connect 42 1 39 0;
#X connect 42 2 29 0;
#X connect 42 2 39 0;
#X connect 42 3 39 0;
#X connect 42 4 40 0;
#X connect 42 5 39 0;
#X connect 43 0 45 0;
#X connect 45 0 44 0;
#X connect 46 0 49 0;
#X connect 47 0 48 0;
#X connect 48 0 46 0;
#X connect 49 0 50 0;
#X connect 50 0 51 0;
#X connect 55 0 54 0;
#X connect 56 0 57 0;
#X connect 56 1 55 0;
#X connect 57 0 54 0;
#X connect 60 0 63 0;
#X connect 60 1 61 0;
#X connect 62 0 66 0;
#X connect 63 0 62 0;
#X connect 64 0 65 0;
#X connect 66 0 64 0;
#X connect 70 0 22 0;
#X connect 70 1 25 0;
#X connect 70 2 27 0;
#X connect 70 3 56 0;
#X connect 70 4 31 0;
#X connect 70 5 72 0;
#X connect 72 0 71 0;
#X connect 73 0 48 0;
#X restore 731 189 pd states-and-leds;
#X obj 731 164 sequencer3;
#N canvas 88 152 951 432 save-params 0;
#X obj 122 42 r key-edit-state;
#X obj 122 105 sel 0;
#X obj 122 74 change;
#X obj 471 42 loadbang;
#X msg 455 92 \; param1 read param1.txt \; param2 read param2.txt \;
param3 read param3.txt \; param4 read param4.txt \;;
#X msg 123 140 \; param1 write /tmp/state/param1.txt \; param2 write
/tmp/state/param2.txt \; param3 write /tmp/state/param3.txt \; param4
write /tmp/state/param4.txt \;;
#X connect 0 0 2 0;
#X connect 1 0 5 0;
#X connect 2 0 1 0;
#X connect 3 0 4 0;
#X restore 731 214 pd save-params;
#N canvas 72 89 604 557 load-sample 0;
#X obj 59 455 s dur;
#X text 301 362 time length of recording in samples;
#N canvas 0 50 450 300 (subpatch) 0;
#X array newsample 441000 float 0;
#X coords 0 1.02 440999 -1.02 200 130 1 0 0;
#X restore 153 72 graph;
#X obj 59 372 expr if($f1 < 4410 \, 4410 \, $f1);
#X obj 322 253 loadbang;
#X obj 322 311 soundfiler;
#X msg 321 279 read ./sound.wav newsample;
#X text 308 387 it must be at least 4410 cause this;
#X text 317 417 is what the player assumes;
#X floatatom 120 466 50 0 0 0 - - -, f 50;
#X connect 3 0 0 0;
#X connect 3 0 9 0;
#X connect 4 0 6 0;
#X connect 5 0 3 0;
#X connect 6 0 5 0;
#X restore 731 239 pd load-sample;
#N canvas 4 50 450 300 sigswitch 0;
#X obj 126 59 inlet~;
#X obj 119 238 outlet~;
#X obj 192 240 outlet~;
#X obj 116 192 *~;
#X obj 186 199 *~;
#X obj 273 60 inlet;
#X obj 263 96 tgl 15 0 empty empty empty 17 7 0 10 -262144 -1 -1 0
1;
#X obj 260 119 ==;
#X obj 190 154 line~;
#X obj 267 172 line~;
#X msg 264 146 \$1 10;
#X msg 190 129 \$1 10;
#X connect 0 0 3 0;
#X connect 0 0 4 0;
#X connect 3 0 1 0;
#X connect 4 0 2 0;
#X connect 5 0 6 0;
#X connect 6 0 7 0;
#X connect 6 0 11 0;
#X connect 7 0 10 0;
#X connect 8 0 3 1;
#X connect 9 0 4 1;
#X connect 10 0 9 0;
#X connect 11 0 8 0;
#X restore 79 461 pd sigswitch;
#X obj 171 434 r key-edit-state;
#X text 169 415 bypass when editing;
#X obj 774 447 lop~ 5;
#X obj 874 428 lop~ 5;
#X obj 774 422 sig~ 0.1;
#X obj 864 396 sig~ 0.1;
#X obj 771 553 osc~;
#X obj 796 602 *~;
#X obj 774 472 *~;
#X obj 871 466 *~;
#X obj 776 390 r eparam1;
#X obj 869 331 r eparam2;
#X obj 771 528 *~ 10;
#X obj 774 708 s~ speed-mod;
#X obj 838 530 *~ 0.5;
#X obj 333 104 voice-edit;
#X obj 700 625 sig~ 0;
#N canvas 5 50 450 300 sigswitch 0;
#X obj 111 58 inlet~;
#X obj 119 238 outlet~;
#X obj 192 240 outlet~;
#X obj 116 192 *~;
#X obj 186 199 *~;
#X obj 273 60 inlet;
#X obj 263 96 tgl 15 0 empty empty empty 17 7 0 10 -262144 -1 -1 0
1;
#X obj 260 119 ==;
#X obj 190 154 line~;
#X obj 267 172 line~;
#X msg 264 146 \$1 10;
#X msg 190 129 \$1 10;
#X obj 177 56 inlet~;
#X connect 0 0 3 0;
#X connect 3 0 1 0;
#X connect 4 0 2 0;
#X connect 5 0 6 0;
#X connect 6 0 7 0;
#X connect 6 0 11 0;
#X connect 7 0 10 0;
#X connect 8 0 3 1;
#X connect 9 0 4 1;
#X connect 10 0 9 0;
#X connect 11 0 8 0;
#X connect 12 0 4 0;
#X restore 771 656 pd sigswitch;
#X obj 865 630 r key-edit-state;
#X obj 71 105 voice 0;
#X obj 71 282 voice 7;
#X obj 71 130 voice 1;
#X obj 71 155 voice 2;
#X obj 71 180 voice 3;
#X obj 71 205 voice 4;
#X obj 71 230 voice 5;
#X obj 71 255 voice 6;
#X obj 145 105 voice 8;
#X obj 145 130 voice 9;
#X obj 145 155 voice 10;
#X obj 145 180 voice 11;
#X obj 145 205 voice 12;
#X obj 145 230 voice 13;
#X obj 145 255 voice 14;
#X obj 145 282 voice 15;
#X obj 228 102 voice 16;
#X obj 227 127 voice 17;
#X obj 227 152 voice 18;
#X obj 227 177 voice 19;
#X obj 227 202 voice 20;
#X obj 227 227 voice 21;
#X obj 227 252 voice 22;
#X obj 227 279 voice 23;
#X obj 153 385 *~ 0.75;
#X obj 386 449 tabread param1;
#X floatatom 382 417 5 0 0 0 - - -, f 5;
#X floatatom 379 492 5 0 0 0 - - -, f 5;
#X obj 368 305 tabwrite param1;
#X floatatom 453 231 5 0 0 0 - - -, f 5;
#X floatatom 379 244 5 0 0 0 - - -, f 5;
#X connect 6 0 58 0;
#X connect 7 0 0 0;
#X connect 7 1 1 0;
#X connect 14 0 0 0;
#X connect 14 0 1 0;
#X connect 14 1 7 0;
#X connect 15 0 14 1;
#X connect 17 0 23 0;
#X connect 17 0 23 1;
#X connect 18 0 24 1;
#X connect 18 0 24 0;
#X connect 19 0 17 0;
#X connect 20 0 18 0;
#X connect 21 0 22 0;
#X connect 22 0 32 1;
#X connect 23 0 27 0;
#X connect 24 0 29 0;
#X connect 25 0 19 0;
#X connect 26 0 20 0;
#X connect 27 0 21 0;
#X connect 29 0 22 1;
#X connect 31 0 32 0;
#X connect 32 0 28 0;
#X connect 32 1 28 0;
#X connect 33 0 32 2;
#X connect 58 0 14 0;
#X connect 59 0 61 0;
#X connect 60 0 59 0;
#X connect 63 0 62 1;
#X connect 64 0 62 0;
