#N canvas 217 72 1326 813 10;
#X declare -path CG-Pd-Library-Local/sequencer;
#X declare -path CG-Pd-Library-Local/externals;
#X declare -path CG-Pd-Library-Local/metronome;
#X declare -path /sdcard/CG-Pd-Library/sequencer;
#X declare -path /sdcard/CG-Pd-Library/externals;
#X declare -path /sdcard/CG-Pd-Library/metronome;
#X obj 79 512 catch~ voice-out;
#N canvas 337 240 1428 646 param-editor 0;
#X obj 153 113 r edit-note;
#X obj 26 31 r knob1;
#X obj 51 116 spigot 0;
#X floatatom 52 139 5 0 0 0 - - -;
#X obj 53 167 tabwrite param1;
#X obj 151 137 - 60;
#X obj 357 152 r edit-note;
#X obj 255 115 spigot 0;
#X floatatom 256 178 5 0 0 0 - - -;
#X obj 355 176 - 60;
#X obj 145 306 r edit-note;
#X obj 43 309 spigot 0;
#X floatatom 44 332 5 0 0 0 - - -;
#X obj 143 330 - 60;
#X obj 349 305 r edit-note;
#X obj 247 308 spigot 0;
#X floatatom 248 331 5 0 0 0 - - -;
#X obj 347 329 - 60;
#X obj 257 206 tabwrite param2;
#X obj 45 360 tabwrite param3;
#X obj 249 355 tabwrite param4;
#X obj 229 26 r knob2;
#X obj 810 33 r notesRaw;
#X obj 994 219 stripnote;
#X obj 643 248 s edit-note;
#N canvas 6 50 450 300 lock-knobs 0;
#X obj 160 78 s knob1Override;
#X obj 171 101 s knob2Override;
#X obj 188 124 s knob3Override;
#X obj 201 148 s knob4Override;
#X obj 234 17 inlet;
#X connect 4 0 0 0;
#X connect 4 0 1 0;
#X connect 4 0 2 0;
#X connect 4 0 3 0;
#X restore 1106 361 pd lock-knobs;
#X obj 960 391 bag;
#X msg 960 357 flush;
#X text 513 97 <-- output them;
#X msg 900 193 clear;
#X obj 960 329 bang;
#X obj 867 536 tabwrite param1;
#X obj 868 505 tabread param1;
#X obj 986 536 tabwrite param2;
#X obj 1101 533 tabwrite param3;
#X obj 1215 533 tabwrite param4;
#X obj 1220 502 tabread param4;
#X obj 1098 506 tabread param3;
#X obj 985 507 tabread param2;
#X obj 1118 409 - 60;
#X obj 954 451 - 60;
#X text 1001 148 copy params from one key to another;
#X obj 670 208 stripnote;
#X obj 807 70 t a a;
#X obj 920 112 spigot 0;
#X obj 94 40 r key-edit-state;
#X obj 91 242 r key-edit-state;
#X obj 304 237 r key-edit-state;
#X obj 298 37 r key-edit-state;
#X obj 963 34 r key-edit-state;
#X obj 839 145 t a a b a;
#X obj 786 273 s key-just-copied;
#X obj 953 414 t f b;
#X obj 988 283 t b f f;
#X obj 1068 307 change;
#X obj 1092 338 bang;
#X obj 48 88 shortcut-mute-f 1;
#X obj 254 85 shortcut-mute-f 1;
#X obj 38 285 shortcut-mute-f 1;
#X obj 248 274 shortcut-mute-f 1;
#X obj 229 47 spigot 0;
#X obj 26 52 spigot 0;
#X obj 22 208 r knob3;
#X obj 33 249 spigot 0;
#X obj 193 215 r knob4;
#X obj 234 247 spigot 0;
#X connect 0 0 5 0;
#X connect 1 0 61 0;
#X connect 2 0 3 0;
#X connect 3 0 4 0;
#X connect 5 0 4 1;
#X connect 6 0 9 0;
#X connect 7 0 8 0;
#X connect 8 0 18 0;
#X connect 9 0 18 1;
#X connect 10 0 13 0;
#X connect 11 0 12 0;
#X connect 12 0 19 0;
#X connect 13 0 19 1;
#X connect 14 0 17 0;
#X connect 15 0 16 0;
#X connect 16 0 20 0;
#X connect 17 0 20 1;
#X connect 21 0 60 0;
#X connect 22 0 43 0;
#X connect 23 0 53 0;
#X connect 26 0 52 0;
#X connect 27 0 26 0;
#X connect 29 0 26 0;
#X connect 30 0 27 0;
#X connect 32 0 31 0;
#X connect 36 0 35 0;
#X connect 37 0 34 0;
#X connect 38 0 33 0;
#X connect 39 0 35 1;
#X connect 39 0 34 1;
#X connect 39 0 33 1;
#X connect 39 0 31 1;
#X connect 40 0 32 0;
#X connect 40 0 38 0;
#X connect 40 0 37 0;
#X connect 40 0 36 0;
#X connect 42 0 24 0;
#X connect 43 0 42 0;
#X connect 43 1 44 0;
#X connect 44 0 50 0;
#X connect 45 0 2 1;
#X connect 45 0 61 1;
#X connect 46 0 11 1;
#X connect 46 0 63 1;
#X connect 47 0 15 1;
#X connect 47 0 65 1;
#X connect 48 0 7 1;
#X connect 48 0 60 1;
#X connect 49 0 44 1;
#X connect 50 0 51 0;
#X connect 50 1 26 0;
#X connect 50 2 29 0;
#X connect 50 3 23 0;
#X connect 52 0 40 0;
#X connect 53 0 30 0;
#X connect 53 1 39 0;
#X connect 53 2 54 0;
#X connect 54 0 55 0;
#X connect 55 0 25 0;
#X connect 56 0 2 0;
#X connect 57 0 7 0;
#X connect 58 0 11 0;
#X connect 59 0 15 0;
#X connect 60 0 57 0;
#X connect 61 0 56 0;
#X connect 62 0 63 0;
#X connect 63 0 58 0;
#X connect 64 0 65 0;
#X connect 65 0 59 0;
#X restore 731 114 pd param-editor;
#N canvas 23 50 1160 286 knob-to-fx 0;
#X obj 58 36 r knob1;
#X obj 72 115 spigot 1;
#X obj 124 90 ==;
#X obj 71 147 s eparam1;
#X obj 344 123 spigot 1;
#X obj 396 98 ==;
#X obj 570 114 spigot 1;
#X obj 622 89 ==;
#X obj 782 118 spigot 1;
#X obj 834 93 ==;
#X obj 340 70 r knob2;
#X obj 778 65 r knob4;
#X obj 343 155 s eparam2;
#X obj 569 146 s eparam3;
#X obj 781 150 s eparam4;
#X text 261 17 if not in key edit state \, send effect params;
#X obj 123 46 r key-edit-state;
#X obj 395 48 r key-edit-state;
#X obj 626 45 r key-edit-state;
#X obj 837 60 r key-edit-state;
#X obj 70 88 shortcut-mute-f 1;
#X obj 340 92 shortcut-mute-f 1;
#X obj 566 83 shortcut-mute-f 1;
#X obj 778 87 shortcut-mute-f 1;
#X obj 78 65 r seq3-1-k1;
#X obj 794 41 r seq3-1-k4;
#X obj 566 61 r knob3;
#X obj 619 60 r seq3-1-k3;
#X obj 393 72 r seq3-1-k2;
#X connect 0 0 20 0;
#X connect 1 0 3 0;
#X connect 2 0 1 1;
#X connect 4 0 12 0;
#X connect 5 0 4 1;
#X connect 6 0 13 0;
#X connect 7 0 6 1;
#X connect 8 0 14 0;
#X connect 9 0 8 1;
#X connect 10 0 21 0;
#X connect 11 0 23 0;
#X connect 16 0 2 0;
#X connect 17 0 5 0;
#X connect 18 0 7 0;
#X connect 19 0 9 0;
#X connect 20 0 1 0;
#X connect 21 0 4 0;
#X connect 22 0 6 0;
#X connect 23 0 8 0;
#X connect 24 0 20 0;
#X connect 25 0 23 0;
#X connect 26 0 22 0;
#X connect 27 0 22 0;
#X connect 28 0 21 0;
#X restore 731 139 pd knob-to-fx;
#N canvas 109 50 1523 918 states-and-leds 0;
#N canvas 13 50 766 473 check-for-hold 0;
#X obj 149 29 inlet;
#X obj 110 394 outlet;
#X text 270 78 a bang goes out if a note is held alone without any
others being touched;
#X msg 228 233 stop;
#X obj 116 96 unpack;
#X obj 149 288 del 1000;
#X obj 145 172 sel 0;
#X obj 174 199 bang;
#X obj 187 132 t f b;
#X obj 105 344 f;
#X connect 0 0 4 0;
#X connect 3 0 5 0;
#X connect 4 0 9 1;
#X connect 4 1 8 0;
#X connect 5 0 9 0;
#X connect 6 1 7 0;
#X connect 7 0 5 0;
#X connect 8 0 6 0;
#X connect 8 1 3 0;
#X connect 9 0 1 0;
#X restore 246 176 pd check-for-hold;
#X obj 246 148 r notesRaw;
#N canvas 82 127 1783 760 led-screen 0;
#X obj 494 211 r edit-note;
#X obj 452 269 f;
#X obj 920 84 t b b, f 8;
#X msg 920 128 \; led 7;
#X obj 973 112 delay 100;
#X text 945 185 Flashes LED at loop & sets color after sequence stop
;
#X obj 920 41 r seq-looped;
#X obj 391 136 r state;
#X msg 452 301 \; screenLine5 Editing Key \$1 \; led 7 \;;
#X obj 285 532 r edit-note;
#X obj 314 600 spigot 0;
#X msg 315 629 \; screenLine5 Editing Key \$1 \; led 7 \;;
#X obj 391 158 sel 0 1 2 3 4 5;
#N canvas 21 50 1583 859 param-disp 0;
#X obj 97 217 tabread param1;
#X floatatom 96 243 5 0 0 0 - - -;
#X obj 100 114 r edit-note;
#X obj 104 185 f;
#X obj 102 292 spigot 0;
#X obj 35 216 r knob1;
#X obj 320 65 r state;
#X obj 315 101 sel 4;
#X obj 347 172 bang;
#X msg 311 223 0;
#X msg 211 215 1;
#X obj 294 142 t b b;
#X obj 109 148 - 60;
#X text 371 114 state 4 key edit;
#X obj 757 786 outlet;
#X obj 1014 351 bang;
#X obj 1063 349 i;
#X obj 967 370 i;
#X obj 967 398 abs;
#X obj 751 188 moses 0.5;
#X obj 968 198 - 0.5;
#X obj 968 220 * 2;
#X obj 785 378 bang;
#X obj 841 391 - 0.5;
#X obj 841 461 i;
#X obj 750 478 i;
#X obj 750 506 abs;
#X obj 751 219 - 0.5;
#X obj 751 241 * 2;
#X obj 751 263 abs;
#X obj 1063 279 - 0.5;
#X obj 1063 301 * 200;
#X obj 1063 323 + 100;
#X obj 967 342 * 200;
#X msg 1014 378 100;
#X obj 1010 472 f;
#X obj 793 615 f;
#X msg 785 404 100;
#X obj 750 429 * 200;
#X obj 841 413 * 200;
#X obj 841 435 + 100;
#X obj 751 298 detent 0.075;
#X obj 968 245 detent 0.075, f 14;
#X msg 752 707 -\$1;
#X msg 866 707 +\$1;
#X obj 752 748 symbol;
#X connect 0 0 1 0;
#X connect 1 0 4 0;
#X connect 2 0 12 0;
#X connect 3 0 0 0;
#X connect 4 0 19 0;
#X connect 5 0 4 0;
#X connect 6 0 7 0;
#X connect 7 0 11 0;
#X connect 7 1 8 0;
#X connect 8 0 9 0;
#X connect 9 0 4 1;
#X connect 10 0 4 1;
#X connect 11 0 3 0;
#X connect 11 1 10 0;
#X connect 12 0 3 0;
#X connect 15 0 34 0;
#X connect 16 0 35 0;
#X connect 17 0 18 0;
#X connect 18 0 35 0;
#X connect 19 0 27 0;
#X connect 19 1 20 0;
#X connect 20 0 21 0;
#X connect 21 0 42 0;
#X connect 22 0 37 0;
#X connect 23 0 39 0;
#X connect 24 0 36 0;
#X connect 25 0 26 0;
#X connect 26 0 36 0;
#X connect 27 0 28 0;
#X connect 28 0 29 0;
#X connect 29 0 41 0;
#X connect 30 0 31 0;
#X connect 31 0 32 0;
#X connect 32 0 16 0;
#X connect 33 0 17 0;
#X connect 34 0 35 0;
#X connect 35 0 44 0;
#X connect 36 0 43 0;
#X connect 37 0 36 0;
#X connect 38 0 25 0;
#X connect 39 0 40 0;
#X connect 40 0 24 0;
#X connect 41 0 38 0;
#X connect 41 1 22 0;
#X connect 41 2 23 0;
#X connect 42 0 33 0;
#X connect 42 1 15 0;
#X connect 42 2 30 0;
#X connect 43 0 45 0;
#X connect 44 0 45 0;
#X connect 45 0 14 0;
#X restore 719 585 pd param-disp;
#N canvas 15 50 610 568 param-disp 0;
#X floatatom 96 243 5 0 0 0 - - -;
#X obj 100 114 r edit-note;
#X obj 104 185 f;
#X obj 102 292 spigot 0;
#X obj 320 65 r state;
#X obj 315 101 sel 4;
#X obj 347 172 bang;
#X msg 311 223 0;
#X msg 211 215 1;
#X obj 294 142 t b b;
#X obj 109 148 - 60;
#X text 371 114 state 4 key edit;
#X obj 191 462 outlet;
#X obj 35 216 r knob2;
#X obj 97 217 tabread param2;
#X obj 181 391 i;
#X obj 174 367 * 100;
#X connect 0 0 3 0;
#X connect 1 0 10 0;
#X connect 2 0 14 0;
#X connect 3 0 16 0;
#X connect 4 0 5 0;
#X connect 5 0 9 0;
#X connect 5 1 6 0;
#X connect 6 0 7 0;
#X connect 7 0 3 1;
#X connect 8 0 3 1;
#X connect 9 0 2 0;
#X connect 9 1 8 0;
#X connect 10 0 2 0;
#X connect 13 0 3 0;
#X connect 14 0 0 0;
#X connect 15 0 12 0;
#X connect 16 0 15 0;
#X restore 960 587 pd param-disp;
#N canvas 18 50 1027 672 param-disp 0;
#X obj 100 114 r edit-note;
#X obj 104 185 f;
#X obj 102 292 spigot 0;
#X obj 320 65 r state;
#X obj 315 101 sel 4;
#X obj 347 172 bang;
#X msg 311 223 0;
#X msg 211 215 1;
#X obj 294 142 t b b;
#X obj 109 148 - 60;
#X text 371 114 state 4 key edit;
#X obj 198 476 outlet;
#X obj 35 216 r knob3;
#X obj 97 217 tabread param3;
#X connect 0 0 9 0;
#X connect 1 0 13 0;
#X connect 2 0 11 0;
#X connect 3 0 4 0;
#X connect 4 0 8 0;
#X connect 4 1 5 0;
#X connect 5 0 6 0;
#X connect 6 0 2 1;
#X connect 7 0 2 1;
#X connect 8 0 1 0;
#X connect 8 1 7 0;
#X connect 9 0 1 0;
#X connect 12 0 2 0;
#X connect 13 0 2 0;
#X restore 1211 537 pd param-disp;
#N canvas 16 50 610 568 param-disp 0;
#X floatatom 96 243 5 0 0 0 - - -;
#X obj 100 114 r edit-note;
#X obj 104 185 f;
#X obj 102 292 spigot 0;
#X obj 320 65 r state;
#X obj 315 101 sel 4;
#X obj 347 172 bang;
#X msg 311 223 0;
#X msg 211 215 1;
#X obj 294 142 t b b;
#X obj 109 148 - 60;
#X text 371 114 state 4 key edit;
#X obj 187 496 outlet;
#X obj 35 216 r knob4;
#X obj 97 217 tabread param4;
#X connect 0 0 3 0;
#X connect 1 0 10 0;
#X connect 2 0 14 0;
#X connect 3 0 12 0;
#X connect 4 0 5 0;
#X connect 5 0 9 0;
#X connect 5 1 6 0;
#X connect 6 0 7 0;
#X connect 7 0 3 1;
#X connect 8 0 3 1;
#X connect 9 0 2 0;
#X connect 9 1 8 0;
#X connect 10 0 2 0;
#X connect 13 0 3 0;
#X connect 14 0 0 0;
#X restore 1356 523 pd param-disp;
#X text 975 559 display edit params in key edit mode;
#X obj 392 533 r key-edit-state;
#N canvas 124 235 1064 550 e-param-disp 0;
#X obj 317 39 r eparam1;
#X obj 269 307 f;
#X obj 502 309 f;
#X obj 356 314 f;
#X obj 431 318 f;
#X obj 343 507 outlet;
#X obj 425 504 outlet;
#X obj 511 503 outlet;
#X obj 580 495 outlet;
#X obj 401 37 r eparam2;
#X obj 479 40 r eparam3;
#X obj 559 40 r eparam4;
#X obj 283 421 i;
#X obj 373 414 i;
#X obj 450 417 i;
#X obj 373 392 * 100;
#X obj 709 3 r state;
#X obj 704 39 sel 0 1 2 3;
#X obj 290 236 spigot;
#X obj 368 243 spigot;
#X obj 542 245 spigot;
#X obj 465 249 spigot;
#X obj 586 105 t b b;
#X msg 770 65 0;
#X msg 447 158 1;
#X text 689 189 allow screen messages only in states 0 1 2 3;
#X obj 588 388 i;
#X obj 587 367 * 99;
#X obj 449 392 * 1000;
#X obj 282 399 * 100;
#X obj 431 339 pow 2;
#X connect 0 0 18 0;
#X connect 1 0 29 0;
#X connect 2 0 27 0;
#X connect 3 0 15 0;
#X connect 4 0 30 0;
#X connect 9 0 19 0;
#X connect 10 0 21 0;
#X connect 11 0 20 0;
#X connect 12 0 5 0;
#X connect 13 0 6 0;
#X connect 14 0 7 0;
#X connect 15 0 13 0;
#X connect 16 0 17 0;
#X connect 17 0 22 0;
#X connect 17 1 22 0;
#X connect 17 2 22 0;
#X connect 17 3 22 0;
#X connect 17 4 23 0;
#X connect 18 0 1 0;
#X connect 19 0 3 0;
#X connect 20 0 2 0;
#X connect 21 0 4 0;
#X connect 22 0 2 0;
#X connect 22 0 4 0;
#X connect 22 0 3 0;
#X connect 22 0 1 0;
#X connect 22 1 24 0;
#X connect 23 0 20 1;
#X connect 23 0 21 1;
#X connect 23 0 19 1;
#X connect 23 0 18 1;
#X connect 24 0 20 1;
#X connect 24 0 21 1;
#X connect 24 0 19 1;
#X connect 24 0 18 1;
#X connect 26 0 8 0;
#X connect 27 0 26 0;
#X connect 28 0 14 0;
#X connect 29 0 12 0;
#X connect 30 0 28 0;
#X restore 572 396 pd e-param-disp;
#X f 78;
#X obj 206 645 s editing-key;
#X obj 973 136 f, f 16;
#X obj 1082 109 r seq-3-led;
#X obj 973 158 s led;
#X obj 1197 681 spigot 0;
#X obj 1365 682 spigot 0;
#X obj 1478 510 r state;
#X obj 1478 532 sel 5;
#X msg 1478 554 0;
#X obj 1510 554 t b;
#X msg 1510 576 1;
#X obj 1483 601 f;
#X msg 703 251 \; screenLine1 Press and hold a \; screenLine2 key to
adjust sound. \; screenLine3 Press Aux to \; screenLine4 exit edit
mode. \; screenLine5 Press a key to begin... \; led 0 \;;
#X msg 962 620 \; screenLine2 2: Level \$1% \;;
#X msg 718 620 \; screenLine1 1: Speed \$1% \;;
#X obj 1206 656 int;
#X obj 1363 652 int;
#X obj 1356 544 t f f;
#X obj 1356 565 *;
#X obj 1363 608 * 100;
#X msg 1370 711 \; screenLine4 4: Length \$1% \;;
#X msg 742 465 \; screenLine2 2: Global Length \$1% \;;
#X msg 509 466 \; screenLine1 1: Global Start \$1% \;;
#X msg 978 465 \; screenLine3 3: Del. Time \$1ms;
#X msg 1184 466 \; screenLine4 4: Del. Feedback \$1%;
#X obj 1209 613 * 100;
#X msg 1169 708 \; screenLine3 3: Start \$1% \;;
#X connect 0 0 1 1;
#X connect 1 0 8 0;
#X connect 2 0 3 0;
#X connect 2 1 4 0;
#X connect 4 0 21 0;
#X connect 6 0 2 0;
#X connect 7 0 12 0;
#X connect 9 0 10 0;
#X connect 10 0 11 0;
#X connect 10 0 20 0;
#X connect 12 4 1 0;
#X connect 12 5 32 0;
#X connect 13 0 34 0;
#X connect 14 0 33 0;
#X connect 15 0 45 0;
#X connect 16 0 37 0;
#X connect 18 0 10 1;
#X connect 19 0 42 0;
#X connect 19 1 41 0;
#X connect 19 2 43 0;
#X connect 19 3 44 0;
#X connect 21 0 23 0;
#X connect 22 0 21 1;
#X connect 24 0 46 0;
#X connect 25 0 40 0;
#X connect 26 0 27 0;
#X connect 27 0 28 0;
#X connect 27 1 29 0;
#X connect 28 0 31 0;
#X connect 29 0 30 0;
#X connect 30 0 31 0;
#X connect 31 0 25 1;
#X connect 31 0 24 1;
#X connect 35 0 24 0;
#X connect 36 0 25 0;
#X connect 37 0 38 0;
#X connect 37 1 38 1;
#X connect 38 0 39 0;
#X connect 39 0 36 0;
#X connect 45 0 35 0;
#X restore 959 32 pd led-screen;
#X obj 860 25 r state;
#X obj 860 47 v state;
#N canvas 6 50 450 300 lock-knobs 0;
#X obj 160 78 s knob1Override;
#X obj 171 101 s knob2Override;
#X obj 188 124 s knob3Override;
#X obj 201 148 s knob4Override;
#X obj 234 17 inlet;
#X connect 4 0 0 0;
#X connect 4 0 1 0;
#X connect 4 0 2 0;
#X connect 4 0 3 0;
#X restore 924 599 pd lock-knobs;
#X floatatom 814 50 5 0 0 0 - - -;
#X obj 586 445 r state;
#X msg 901 627 1;
#X msg 824 628 0;
#X obj 901 547 t b b b;
#X obj 586 490 sel 0 1 2 3 4 5, f 68;
#X obj 446 168 loadbang;
#X obj 446 226 s state;
#X msg 446 197 5;
#X msg 58 208 1;
#X obj 58 147 r notes;
#X obj 58 236 change -1;
#X msg 58 260 0;
#X obj 58 282 s state;
#X text 369 100 state changing events;
#X text 493 411 dispatch events on state changes;
#X obj 824 671 s key-edit-state;
#X obj 246 206 t b f;
#X msg 246 374 4;
#X obj 246 406 s state;
#X obj 246 328 sel 0, f 7;
#X text 309 332 only allow key editing from stopped state;
#X text 376 30 states: 0 stopped \, 1 playing \, 2 rec enabled \, 3
recording \, 4 key edit \, 5 info screen;
#X text 55 126 press any key to begin;
#X obj 125 149 r aux;
#X obj 58 180 t b;
#X obj 246 285 v seq3-1-state;
#X obj 326 421 r aux;
#X obj 326 443 sel 1;
#X obj 326 467 spigot 0;
#X obj 326 489 t b b;
#X msg 400 474 0;
#X obj 246 350 t b b;
#X msg 308 360 1;
#X obj 325 516 f, f 16;
#X obj 434 489 r seq-3-led;
#X obj 333 607 s led;
#X obj 278 240 s edit-note;
#X connect 0 0 23 0;
#X connect 1 0 0 0;
#X connect 3 0 4 0;
#X connect 3 0 6 0;
#X connect 7 0 11 0;
#X connect 8 0 22 0;
#X connect 9 0 22 0;
#X connect 10 0 8 0;
#X connect 10 1 5 0;
#X connect 11 4 10 0;
#X connect 11 5 9 0;
#X connect 12 0 14 0;
#X connect 14 0 13 0;
#X connect 15 0 17 0;
#X connect 16 0 31 0;
#X connect 17 0 18 0;
#X connect 18 0 19 0;
#X connect 23 0 32 0;
#X connect 23 1 43 0;
#X connect 24 0 25 0;
#X connect 26 0 38 0;
#X connect 30 0 31 0;
#X connect 31 0 15 0;
#X connect 32 0 26 0;
#X connect 33 0 34 0;
#X connect 34 0 35 0;
#X connect 35 0 36 0;
#X connect 36 0 40 0;
#X connect 36 0 18 0;
#X connect 36 0 9 0;
#X connect 36 1 37 0;
#X connect 37 0 35 1;
#X connect 38 0 24 0;
#X connect 38 1 39 0;
#X connect 39 0 35 1;
#X connect 40 0 42 0;
#X connect 41 0 40 1;
#X restore 731 189 pd states-and-leds;
#N canvas 94 134 951 432 save-params 0;
#X obj 122 42 r key-edit-state;
#X obj 122 105 sel 0;
#X obj 122 74 change;
#X obj 471 42 loadbang;
#X msg 455 92 \; param1 read param1.txt \; param2 read param2.txt \;
param3 read param3.txt \; param4 read param4.txt \;;
#X msg 123 140 \; param1 write /tmp/state/param1.txt \; param2 write
/tmp/state/param2.txt \; param3 write /tmp/state/param3.txt \; param4
write /tmp/state/param4.txt \;;
#X connect 0 0 2 0;
#X connect 1 0 5 0;
#X connect 2 0 1 0;
#X connect 3 0 4 0;
#X restore 731 214 pd save-params;
#X obj 333 154 voice-edit;
#X obj 80 546 *~ 0.75;
#X obj 916 92 r aux;
#N canvas 18 50 1057 809 metro-here 0;
#X obj 486 457 r seq3-1-actions;
#X obj 528 552 f;
#X msg 609 447 0;
#X obj 654 448 t b b;
#X msg 659 475 1;
#X obj 609 419 sel 1, f 8;
#X obj 528 509 del 1;
#X obj 307 506 s beat-clock;
#X obj 412 256 loadbang;
#X obj 500 391 r rec-state;
#X obj 500 413 sel 0;
#X msg 307 325 1;
#X obj 412 620 list, f 7;
#X obj 412 642 route 69;
#X obj 412 488 t b a;
#X msg 412 590 69;
#X msg 412 298 120;
#X obj 412 428 pack, f 10;
#X obj 447 396 t b a;
#X obj 307 354 metronome360 0, f 18;
#X obj 531 311 s seq3-1-quan;
#X obj 523 218 sel 1 2 3 4;
#X msg 523 270 0;
#X msg 557 268 1;
#X obj 609 545 f;
#X obj 412 664 spigot 1;
#X obj 528 574 spigot 1, f 14;
#X obj 658 646 r cgSc-1-slots;
#X obj 658 672 + 1;
#X obj 412 709 print-line5 1, f 62;
#X obj 609 396 r cgSc-1-mute-print;
#X obj 731 438 loadbang;
#X obj 731 460 del 1;
#X obj 731 482 t b b;
#X obj 781 533 r rec-state;
#X obj 781 554 sel 0, f 13;
#X msg 781 664 1;
#X msg 856 665 0;
#X obj 856 604 t b b;
#X obj 781 625 spigot 1;
#X obj 781 575 t b b;
#X msg 781 596 1;
#X msg 883 634 0;
#X connect 0 0 1 0;
#X connect 1 0 26 0;
#X connect 2 0 24 0;
#X connect 3 0 6 0;
#X connect 3 1 4 0;
#X connect 4 0 24 0;
#X connect 5 0 2 0;
#X connect 5 1 3 0;
#X connect 6 0 1 0;
#X connect 6 0 15 0;
#X connect 8 0 16 0;
#X connect 8 0 11 0;
#X connect 9 0 10 0;
#X connect 10 0 1 0;
#X connect 10 0 15 0;
#X connect 11 0 19 0;
#X connect 12 0 13 0;
#X connect 13 0 25 0;
#X connect 14 0 15 0;
#X connect 14 1 12 1;
#X connect 15 0 12 0;
#X connect 16 0 19 1;
#X connect 17 0 14 0;
#X connect 18 0 17 0;
#X connect 18 1 17 1;
#X connect 19 0 7 0;
#X connect 19 1 18 0;
#X connect 19 2 17 0;
#X connect 19 2 21 0;
#X connect 21 0 22 0;
#X connect 21 1 23 0;
#X connect 21 2 23 0;
#X connect 21 3 22 0;
#X connect 22 0 20 0;
#X connect 23 0 20 0;
#X connect 24 0 25 1;
#X connect 24 0 26 1;
#X connect 25 0 29 0;
#X connect 26 0 29 1;
#X connect 27 0 28 0;
#X connect 28 0 29 2;
#X connect 30 0 5 0;
#X connect 31 0 32 0;
#X connect 32 0 33 0;
#X connect 33 0 1 0;
#X connect 33 1 28 0;
#X connect 34 0 35 0;
#X connect 35 0 40 0;
#X connect 35 1 38 0;
#X connect 36 0 29 3;
#X connect 37 0 29 3;
#X connect 38 0 37 0;
#X connect 38 1 42 0;
#X connect 39 0 36 0;
#X connect 40 0 41 0;
#X connect 40 1 39 0;
#X connect 41 0 39 1;
#X connect 42 0 39 1;
#X restore 476 491 pd metro-here;
#X obj 1070 171 r cgSc-1-slots;
#X obj 997 92 r \$0-reprint-port;
#N canvas 13 50 450 300 CG-PdLibrary-Local 0;
#X obj 502 35 r cgSc-1-slots;
#X obj 60 98 declare -path CG-Pd-Library-Local/sequencer;
#X obj 58 130 declare -path CG-Pd-Library-Local/externals;
#X obj 59 165 declare -path CG-Pd-Library-Local/metronome;
#X restore 479 424 pd CG-PdLibrary-Local;
#N canvas 12 50 450 300 CG-PdLibrary-SDcard 0;
#X obj 60 98 declare -path /sdcard/CG-Pd-Library/sequencer;
#X obj 58 130 declare -path /sdcard/CG-Pd-Library/externals;
#X obj 59 165 declare -path /sdcard/CG-Pd-Library/metronome;
#X obj 502 35 r cgSc-1-slots;
#X restore 478 453 pd CG-PdLibrary-SDcard;
#X obj 1147 193 r beat-clock;
#X obj 916 123 shortcut 1 1, f 14;
#X obj 916 288 s local-notes;
#X obj 758 322 r seq3-1-led;
#X obj 758 344 s led;
#X obj 499 193 array define param4 24;
#X obj 499 164 array define param3 24;
#X obj 498 133 array define param2 24;
#X obj 499 103 array define param1 24;
#N canvas 4 50 450 300 slot-saver 0;
#X obj 62 102 loadbang;
#X obj 62 123 t b b;
#X msg 62 144 0;
#X obj 62 165 tabread \$0-slot;
#X obj 62 186 s cgSc-1-slots;
#X obj 192 13 r cgSc-1-slots;
#X obj 192 34 t a b;
#X obj 192 85 tabwrite \$0-slot;
#X msg 247 50 0;
#X msg 158 150 read slot.txt;
#X obj 232 197 r saveState;
#X msg 232 218 write slot.txt;
#X obj 232 239 array define \$0-slot;
#X connect 0 0 1 0;
#X connect 1 0 2 0;
#X connect 1 1 9 0;
#X connect 2 0 3 0;
#X connect 3 0 4 0;
#X connect 5 0 6 0;
#X connect 6 0 7 0;
#X connect 6 1 8 0;
#X connect 8 0 7 1;
#X connect 9 0 12 0;
#X connect 10 0 11 0;
#X connect 11 0 12 0;
#X restore 476 390 pd slot-saver;
#N canvas 594 50 1124 789 seq3-5option-control 0;
#X obj 139 278 outlet;
#X obj 65 121 t b;
#X msg 65 143 2;
#X obj 298 126 t b;
#X msg 298 148 3;
#X text 437 5 when aux is pressed after recording starts immediatley
end the rec and play the loop;
#X obj 170 70 sel 0;
#X obj 202 94 t b;
#X msg 202 116 1;
#X obj 33 66 r cgSc-1-2;
#X obj 171 48 r cgSc-1-1;
#X obj 33 88 sel 0;
#X obj 266 99 sel 0;
#X obj 317 272 r seq3-1-actions;
#X obj 317 294 sel 1, f 12;
#X obj 398 327 t b, f 4;
#X obj 317 445 s cgSc-1-1label;
#X obj 507 308 r seq3-1-actions;
#X obj 588 353 t b, f 4;
#X obj 507 329 sel 2 3, f 12;
#X obj 978 320 t b, f 4;
#X msg 978 355 Latch:Off;
#X msg 896 355 Latch:On;
#X obj 507 441 s cgSc-1-2label;
#X text 521 279 print to the shortcut menu;
#X obj 378 141 f 0;
#X obj 130 0 r midi-start;
#X msg 130 22 4;
#X obj 373 105 r midi-stop;
#X obj 507 125 t b;
#X obj 475 98 sel 0;
#X msg 507 147 5;
#X obj 192 487 r seq3-1-actions;
#X obj 273 532 t b, f 4;
#X obj 192 508 sel 5, f 12;
#X obj 317 373 f;
#X msg 317 403 \$1Seq:Stop;
#X obj 398 372 f;
#X msg 398 402 \$1Seq:Play;
#X msg 507 399 \$1Rec:Armd;
#X msg 588 397 \$1Rec:On;
#X msg 659 398 \$1Rec:Off;
#X obj 507 374 f;
#X obj 582 373 f;
#X obj 649 370 f;
#X obj 273 554 f;
#X obj 192 560 f;
#X msg 192 607 \$1Dub:On;
#X obj 201 286 r cgSc-1-slots;
#X obj 201 329 t b f f;
#X obj 166 439 s seq3-1-actions;
#X obj 166 415 v seq3-1-state;
#X obj 201 309 + 1;
#X obj 668 299 + 1;
#X obj 668 251 r cgSc-1-slots;
#X obj 321 507 + 1;
#X obj 321 483 r cgSc-1-slots;
#X obj 559 76 sel 1;
#X obj 612 80 r seq3-1-actions;
#X obj 559 174 t b b;
#X msg 640 152 0;
#X obj 559 152 spigot 0;
#X msg 612 129 1;
#X msg 559 196 1;
#X obj 192 650 s cgSc-1-3label;
#X obj 475 71 r cgSc-1-3;
#X obj 559 52 r cgSc-1-aux;
#X obj 896 398 s cgSc-1-5label;
#X obj 267 72 r cgSc-1-5;
#X obj 358 53 t b;
#X obj 326 26 sel 0;
#X obj 326 2 r cgSc-1-4;
#X msg 358 75 6;
#X obj 465 480 r seq3-1-actions;
#X obj 507 558 f;
#X obj 584 501 + 1;
#X obj 584 477 r cgSc-1-slots;
#X obj 465 643 s cgSc-1-4label;
#X obj 612 104 sel 3, f 12;
#X msg 273 607 \$1Dub:Off;
#X obj 465 501 sel 6, f 10;
#X obj 532 526 t b;
#X obj 465 585 spigot 1;
#X obj 552 582 spigot 0;
#X obj 675 510 r seq3-1-actions;
#X obj 675 532 sel 3;
#X obj 591 537 ==;
#X obj 637 564 f;
#X msg 637 533 1;
#X msg 708 615 0;
#X msg 552 607 \$1:Undo;
#X msg 465 610 \$1:Undid;
#X obj 465 523 t b b;
#X obj 31 189 loadbang;
#X msg 31 211 0;
#X obj 23 341 r init-1-slot;
#X obj 23 363 s cgSc-1-slots;
#X obj 896 255 r seq3-1-togLatch;
#X obj 896 296 sel 1, f 12;
#X obj 6 165 r turn-off-seq3;
#X connect 1 0 2 0;
#X connect 2 0 0 0;
#X connect 3 0 4 0;
#X connect 4 0 0 0;
#X connect 6 1 7 0;
#X connect 7 0 8 0;
#X connect 8 0 0 0;
#X connect 9 0 11 0;
#X connect 10 0 6 0;
#X connect 11 1 1 0;
#X connect 12 1 3 0;
#X connect 13 0 14 0;
#X connect 14 0 35 0;
#X connect 14 1 15 0;
#X connect 15 0 37 0;
#X connect 17 0 19 0;
#X connect 18 0 44 0;
#X connect 19 0 42 0;
#X connect 19 1 43 0;
#X connect 19 2 18 0;
#X connect 20 0 21 0;
#X connect 21 0 67 0;
#X connect 22 0 67 0;
#X connect 25 0 0 0;
#X connect 26 0 27 0;
#X connect 27 0 0 0;
#X connect 28 0 25 0;
#X connect 29 0 31 0;
#X connect 30 1 29 0;
#X connect 31 0 0 0;
#X connect 32 0 34 0;
#X connect 33 0 45 0;
#X connect 34 0 46 0;
#X connect 34 1 33 0;
#X connect 35 0 36 0;
#X connect 36 0 16 0;
#X connect 37 0 38 0;
#X connect 38 0 16 0;
#X connect 39 0 23 0;
#X connect 40 0 23 0;
#X connect 41 0 23 0;
#X connect 42 0 39 0;
#X connect 43 0 40 0;
#X connect 44 0 41 0;
#X connect 45 0 79 0;
#X connect 46 0 47 0;
#X connect 47 0 64 0;
#X connect 48 0 52 0;
#X connect 49 0 51 0;
#X connect 49 1 35 1;
#X connect 49 2 37 1;
#X connect 51 0 50 0;
#X connect 52 0 49 0;
#X connect 53 0 44 1;
#X connect 53 0 43 1;
#X connect 53 0 42 1;
#X connect 54 0 53 0;
#X connect 55 0 45 1;
#X connect 55 0 46 1;
#X connect 56 0 55 0;
#X connect 57 0 61 0;
#X connect 58 0 78 0;
#X connect 59 0 63 0;
#X connect 59 1 60 0;
#X connect 60 0 61 1;
#X connect 61 0 59 0;
#X connect 62 0 61 1;
#X connect 63 0 0 0;
#X connect 65 0 30 0;
#X connect 66 0 57 0;
#X connect 68 0 12 0;
#X connect 69 0 72 0;
#X connect 70 1 69 0;
#X connect 71 0 70 0;
#X connect 72 0 0 0;
#X connect 73 0 80 0;
#X connect 74 0 82 0;
#X connect 74 0 83 0;
#X connect 75 0 74 1;
#X connect 76 0 75 0;
#X connect 78 0 62 0;
#X connect 79 0 64 0;
#X connect 80 0 92 0;
#X connect 80 1 81 0;
#X connect 81 0 74 0;
#X connect 82 0 91 0;
#X connect 83 0 90 0;
#X connect 84 0 85 0;
#X connect 85 0 88 0;
#X connect 86 0 82 1;
#X connect 87 0 86 0;
#X connect 87 0 83 1;
#X connect 88 0 87 0;
#X connect 89 0 87 0;
#X connect 90 0 77 0;
#X connect 91 0 77 0;
#X connect 92 0 74 0;
#X connect 92 1 89 0;
#X connect 93 0 94 0;
#X connect 94 0 0 0;
#X connect 95 0 96 0;
#X connect 97 0 98 0;
#X connect 98 0 22 0;
#X connect 98 1 20 0;
#X connect 99 0 94 0;
#X restore 993 145 pd seq3-5option-control;
#N canvas 74 89 1786 955 load-record-sample 1;
#X text 76 248 time length of recording in samples;
#X text 83 273 it must be at least 4410 cause this;
#X text 92 303 is what the player assumes;
#X obj 1415 599 soundfiler;
#X text 1357 132 construct the read message using the sound file name
(\$1);
#X text 948 38 loads and plays sound file;
#X text 949 60 argument 1: soundfile to load;
#X obj 327 133 r~ inL;
#X obj 397 132 r~ inR;
#X msg 583 212 0;
#X text 423 269 the threshold is hardcoded at .01...;
#X obj 397 251 threshold~ 0.01 1200, f 27;
#X obj 852 231 s rec-state;
#X obj 397 296 spigot 0, f 25;
#X obj 397 456 s rec-state;
#X msg 558 169 1;
#X obj 397 201 *~ 1;
#X obj 558 144 t b b b b, f 74;
#X obj 1450 431 r saveState;
#X obj 552 666 s rec-state;
#X msg 552 640 0;
#X msg 680 439 stop, f 5;
#X msg 628 654 stop;
#X obj 327 155 *~ 0.707;
#X obj 397 154 *~ 0.707;
#X obj 686 710 *~, f 23;
#X obj 823 631 vline~;
#X obj 822 662 *~;
#X obj 493 532 t b b, f 44;
#X obj 493 564 del 10;
#X obj 419 227 delwrite~ \$1-del 10;
#X obj 686 688 delread~ \$1-del 10;
#X text 1538 430 save soundfile;
#X text 345 645 normalize when done;
#X text 1604 34 <-- click to see;
#X msg 702 319 0;
#X msg 823 592 0 10;
#X msg 864 591 1 10;
#X obj 694 192 r rec-state;
#X obj 694 222 sel 0;
#X msg 694 244 0;
#X obj 1399 33 array define newsample 441000;
#X obj 1415 251 loadbang;
#X obj 1415 658 s dur;
#X obj 1415 627 expr if($f1 < 4410 \, 4410 \, $f1);
#X text 617 487 max duration 10000 ms 10 seconds;
#X obj 632 775 tabwrite~ newsample;
#X obj 999 178 s turn-off-seq3;
#X text 951 308 Record State:;
#X text 958 333 0: nothing/off;
#X obj 431 56 t b;
#X obj 404 34 sel 0;
#X obj 404 7 r cgSc-1-6;
#X obj 1100 667 r rec-state;
#X obj 1129 847 s cgSc-1-6label;
#X msg 1098 737 Rec:Off;
#X msg 1140 762 Rec:Armed;
#X msg 1189 793 Rec:Record;
#X obj 1344 842 s led;
#X msg 1338 762 1;
#X msg 1324 795 6;
#X msg 1357 799 0;
#X obj 892 861 s screenLine5;
#X msg 964 783 Waiting for Peak...;
#X msg 914 728 Recording...;
#X obj 957 525 timer;
#X obj 184 514 r cgSc-1-aux;
#X obj 184 565 spigot 0;
#X obj 184 618 t b b;
#X obj 184 586 sel 1;
#X msg 261 583 0;
#X obj 493 602 t b b b b, f 40;
#X msg 277 523 1;
#X obj 1005 578 s dur;
#X obj 558 63 f;
#X obj 573 38 r rec-state;
#X obj 431 79 s start-record;
#X obj 558 84 sel 0;
#X obj 558 15 r start-record;
#X obj 620 66 t b;
#X obj 620 111 s rec-state;
#X msg 620 87 0;
#X text 973 376 1: Armed \, waiting for peak;
#X text 993 407 2: Recording!;
#X msg 852 180 1;
#X msg 397 429 2;
#X msg 860 687 New Sample \$1 sec.;
#X obj 1100 688 sel 0 1 2, f 40;
#X obj 999 743 del 1;
#X obj 892 829 shortcut-mute-list 1;
#X msg 1450 532 write Sounds/1.wav newsample;
#X msg 1415 379 read Sounds/1.wav newsample;
#X obj 493 490 del 9990, f 17;
#X obj 708 40 loadbang;
#X obj 251 403 throw~ outL;
#X obj 294 382 throw~ outR;
#X text 161 378 Audio in Through;
#X obj 957 626 i;
#X obj 696 378 s key-edit-state;
#X msg 696 345 1;
#X obj 397 349 t b b b b b b b, f 37;
#X obj 535 808 s key-edit-state;
#X msg 535 775 0;
#X obj 1266 227 r key-edit-state;
#X obj 1266 248 sel 0;
#X obj 1281 303 r dur;
#X obj 1266 345 f;
#X obj 1266 366 s dur;
#X obj 1266 278 t b;
#X obj 957 585 / 1000;
#X obj 957 606 * 100;
#X obj 957 647 * 0.01;
#X obj 493 408 t b b b b b, f 73;
#X msg 928 437 \; newsample const 0;
#X msg 323 686 \; newsample normalize;
#X connect 3 0 44 0;
#X connect 7 0 23 0;
#X connect 8 0 24 0;
#X connect 9 0 11 1;
#X connect 11 0 13 0;
#X connect 13 0 100 0;
#X connect 15 0 13 1;
#X connect 16 0 11 0;
#X connect 16 0 30 0;
#X connect 16 0 95 0;
#X connect 16 0 94 0;
#X connect 17 0 15 0;
#X connect 17 1 9 0;
#X connect 17 2 84 0;
#X connect 17 3 47 0;
#X connect 18 0 90 0;
#X connect 20 0 19 0;
#X connect 21 0 29 0;
#X connect 21 0 92 0;
#X connect 22 0 46 0;
#X connect 23 0 16 0;
#X connect 24 0 16 0;
#X connect 25 0 46 0;
#X connect 26 0 27 0;
#X connect 26 0 27 1;
#X connect 27 0 25 1;
#X connect 28 0 29 0;
#X connect 28 1 36 0;
#X connect 29 0 71 0;
#X connect 31 0 25 0;
#X connect 35 0 13 1;
#X connect 36 0 26 0;
#X connect 37 0 26 0;
#X connect 38 0 39 0;
#X connect 39 0 40 0;
#X connect 40 0 13 1;
#X connect 42 0 91 0;
#X connect 44 0 43 0;
#X connect 50 0 76 0;
#X connect 51 1 50 0;
#X connect 52 0 51 0;
#X connect 53 0 87 0;
#X connect 55 0 54 0;
#X connect 56 0 54 0;
#X connect 57 0 54 0;
#X connect 59 0 58 0;
#X connect 60 0 58 0;
#X connect 61 0 58 0;
#X connect 63 0 89 0;
#X connect 64 0 89 0;
#X connect 65 0 109 0;
#X connect 65 0 73 0;
#X connect 66 0 67 0;
#X connect 67 0 69 0;
#X connect 68 0 28 0;
#X connect 68 1 70 0;
#X connect 69 0 68 0;
#X connect 70 0 67 1;
#X connect 71 0 114 0;
#X connect 71 1 20 0;
#X connect 71 1 102 0;
#X connect 71 2 22 0;
#X connect 71 3 65 1;
#X connect 71 3 70 0;
#X connect 72 0 67 1;
#X connect 74 0 77 0;
#X connect 75 0 74 1;
#X connect 77 0 17 0;
#X connect 77 1 79 0;
#X connect 78 0 74 0;
#X connect 79 0 81 0;
#X connect 81 0 80 0;
#X connect 84 0 12 0;
#X connect 85 0 14 0;
#X connect 86 0 89 0;
#X connect 87 0 55 0;
#X connect 87 0 61 0;
#X connect 87 1 56 0;
#X connect 87 1 60 0;
#X connect 87 1 88 0;
#X connect 87 2 57 0;
#X connect 87 2 59 0;
#X connect 87 2 64 0;
#X connect 88 0 63 0;
#X connect 89 0 62 0;
#X connect 90 0 3 0;
#X connect 91 0 3 0;
#X connect 92 0 28 0;
#X connect 93 0 81 0;
#X connect 97 0 111 0;
#X connect 99 0 98 0;
#X connect 100 0 85 0;
#X connect 100 1 112 0;
#X connect 100 2 46 0;
#X connect 100 3 22 0;
#X connect 100 4 72 0;
#X connect 100 5 35 0;
#X connect 100 6 99 0;
#X connect 102 0 101 0;
#X connect 103 0 104 0;
#X connect 104 0 108 0;
#X connect 105 0 106 1;
#X connect 106 0 107 0;
#X connect 108 0 106 0;
#X connect 109 0 110 0;
#X connect 110 0 97 0;
#X connect 111 0 86 0;
#X connect 112 0 92 0;
#X connect 112 1 21 0;
#X connect 112 2 37 0;
#X connect 112 3 65 0;
#X connect 112 4 113 0;
#X restore 476 353 pd load-record-sample;
#X obj 81 410 new-voice;
#X obj 81 252 pack 0 0 0;
#X obj 81 387 route 1 2 3 4 5 6 7 8, f 53;
#X obj 121 430 new-voice;
#X obj 159 410 new-voice;
#X obj 199 431 new-voice;
#X obj 238 411 new-voice;
#X obj 277 430 new-voice;
#X obj 317 410 new-voice;
#X obj 351 430 new-voice;
#X obj 81 57 r local-notes;
#X obj 81 178 spigot 1;
#X obj 126 88 r rec-state;
#X obj 126 109 sel 3;
#X obj 158 140 t b;
#X msg 126 139 0;
#X msg 158 161 1;
#N canvas 266 451 1056 593 sound-out-delay 0;
#X obj 504 523 throw~ outL;
#X obj 580 524 throw~ outR;
#X obj 731 214 f;
#X obj 639 159 r seq3-1-k3;
#X obj 639 205 f;
#X obj 731 157 r seq3-1-k4;
#X obj 503 490 *~ 1;
#X obj 579 491 *~ 1;
#X obj 654 182 r eparam3;
#X obj 747 185 r eparam4;
#X obj 420 248 inlet~;
#X obj 634 245 t f f;
#X obj 636 270 *;
#X obj 636 296 * 1000;
#X obj 715 357 f;
#X obj 715 335 * 0.98;
#X obj 599 378 delay5sec 5;
#X obj 504 204 lop~ 5;
#X obj 504 130 r key-edit-state;
#X obj 433 364 *~;
#X obj 599 399 *~;
#X obj 504 225 *~;
#X obj 560 266 sig~ 1;
#X obj 560 287 -~;
#X connect 2 0 15 0;
#X connect 3 0 4 0;
#X connect 4 0 11 0;
#X connect 5 0 2 0;
#X connect 6 0 0 0;
#X connect 7 0 1 0;
#X connect 8 0 4 0;
#X connect 9 0 2 0;
#X connect 10 0 16 0;
#X connect 10 0 19 0;
#X connect 11 0 12 0;
#X connect 11 1 12 1;
#X connect 12 0 13 0;
#X connect 13 0 16 1;
#X connect 14 0 16 2;
#X connect 15 0 14 0;
#X connect 16 0 20 0;
#X connect 17 0 21 0;
#X connect 17 0 21 1;
#X connect 18 0 17 0;
#X connect 19 0 6 0;
#X connect 19 0 7 0;
#X connect 20 0 6 0;
#X connect 20 0 7 0;
#X connect 21 0 23 1;
#X connect 21 0 19 1;
#X connect 22 0 23 0;
#X connect 23 0 20 1;
#X restore 79 579 pd sound-out-delay;
#X obj 923 594 s global-length;
#X obj 822 595 s global-start;
#X obj 923 537 r eparam2;
#X obj 822 538 r eparam1;
#X obj 81 231 poly 8 0, f 10;
#X obj 81 276 t a a;
#X obj 144 347 s are-you-on?;
#X obj 109 298 list split 1;
#X obj 916 217 seq3 1 0 ../../sequences 1 0 1, f 39;
#X connect 0 0 6 0;
#X connect 6 0 42 0;
#X connect 7 0 14 0;
#X connect 9 0 51 2;
#X connect 10 0 14 1;
#X connect 13 0 51 3;
#X connect 14 0 51 0;
#X connect 16 0 17 0;
#X connect 23 0 51 1;
#X connect 26 0 48 0;
#X connect 27 0 25 0;
#X connect 27 1 28 0;
#X connect 27 2 29 0;
#X connect 27 3 30 0;
#X connect 27 4 31 0;
#X connect 27 5 32 0;
#X connect 27 6 33 0;
#X connect 27 7 34 0;
#X connect 35 0 36 0;
#X connect 36 0 47 0;
#X connect 37 0 38 0;
#X connect 38 0 40 0;
#X connect 38 1 39 0;
#X connect 39 0 41 0;
#X connect 40 0 36 1;
#X connect 41 0 36 1;
#X connect 45 0 43 0;
#X connect 46 0 44 0;
#X connect 47 0 26 0;
#X connect 47 1 26 1;
#X connect 47 2 26 2;
#X connect 48 0 27 0;
#X connect 48 1 50 0;
#X connect 50 1 49 0;
#X connect 51 0 15 0;
