#N canvas 312 94 1565 901 10;
#X obj 302 767 *~;
#X obj 783 162 s \$0-start;
#X obj 940 224 s \$0-end;
#X obj 468 49 inlet;
#X obj 783 77 inlet;
#X obj 940 78 inlet;
#X obj 219 50 inlet;
#X obj 302 799 outlet~;
#X text 290 21 play stop;
#X text 513 25 speed (-3 to 3);
#X text 785 40 start and duration as % of sample duration;
#X obj 316 733 tabread4~ newsample;
#X obj 385 538 r \$0-start;
#X obj 1143 94 inlet kill;
#X obj 1143 115 t b;
#X obj 1143 156 s \$0-auto-stop;
#X msg 401 210 0;
#X obj 316 573 +~, f 12;
#X obj 317 656 *~, f 9;
#X obj 368 611 r dur;
#X obj 368 632 - 2;
#X obj 163 600 vline~;
#X obj 317 677 +~ 1;
#X obj 783 98 max 0;
#X obj 783 119 min 1;
#X obj 940 120 min 1;
#X obj 317 598 wrap~;
#X obj 118 109 r \$0-auto-stop;
#X obj 118 250 t b b b;
#X msg 157 301 stop;
#X msg 118 372 0;
#X obj 689 229 r \$0-end;
#X obj 940 99 max 0;
#X obj 642 734 phasor~, f 11;
#X obj 641 788 s~ \$0-phase;
#X text 694 379 convert to ms;
#X obj 643 455 /;
#X obj 705 704 r \$0-retrigger;
#X obj 655 300 t b a;
#X obj 643 378 / 44.1;
#X text 675 457 divide by 1000ms to determine hz playback speed;
#X text 739 661 scale to set speed;
#X msg 643 433 1000 \$1;
#X obj 643 481 sig~;
#X obj 643 326 * 1, f 7;
#X obj 643 229 r dur;
#X obj 468 117 s \$0-speed;
#X obj 401 240 s \$0-retrigger;
#X obj 118 397 s \$0-switch;
#X obj 1140 629 r \$0-switch;
#X obj 432 197 s \$0-switch;
#X obj 316 464 r~ \$0-phase;
#X msg 432 174 1;
#X obj 219 85 sel 0 1, f 25;
#X obj 292 400 f;
#X obj 307 344 abs;
#X obj 515 453 s \$0-chunker;
#X obj 307 299 r \$0-chunker;
#X obj 476 316 r \$0-chunker;
#X obj 407 365 del, f 12;
#X obj 292 142 t b b b b b, f 37;
#X msg 407 386 0;
#X obj 407 407 s \$0-switch;
#X obj 468 70 * 4;
#X obj 468 91 - 2;
#X obj 316 515 *~;
#X obj 332 489 r \$0-end;
#X obj 868 776 outlet vorbei;
#X obj 940 141 t f f;
#X obj 940 162 *;
#X obj 940 183 max 0.001;
#X obj 643 649 +~, f 17;
#X text 757 651 <----- LFO!;
#X obj 742 614 r~ speed-mod;
#X obj 676 504 r \$0-speed;
#X obj 642 563 *~, f 6;
#X obj 163 638 sqrt~ 2;
#X obj 643 399 max 58;
#X obj 476 337 + 58;
#X msg 164 362 0 10;
#X obj 118 351 del 10;
#X msg 292 428 1 10 \, 0 50 \$1;
#X obj 307 323 - 60;
#X obj 676 534 sig~;
#X connect 0 0 7 0;
#X connect 3 0 63 0;
#X connect 4 0 23 0;
#X connect 5 0 32 0;
#X connect 6 0 53 0;
#X connect 11 0 0 1;
#X connect 12 0 17 1;
#X connect 13 0 14 0;
#X connect 14 0 15 0;
#X connect 16 0 47 0;
#X connect 17 0 26 0;
#X connect 18 0 22 0;
#X connect 19 0 20 0;
#X connect 20 0 18 1;
#X connect 21 0 76 0;
#X connect 22 0 11 0;
#X connect 23 0 24 0;
#X connect 24 0 1 0;
#X connect 25 0 68 0;
#X connect 26 0 18 0;
#X connect 27 0 28 0;
#X connect 28 0 80 0;
#X connect 28 1 79 0;
#X connect 28 2 29 0;
#X connect 29 0 80 0;
#X connect 29 0 59 0;
#X connect 30 0 48 0;
#X connect 31 0 38 0;
#X connect 32 0 25 0;
#X connect 33 0 34 0;
#X connect 36 0 43 0;
#X connect 37 0 33 1;
#X connect 38 0 44 0;
#X connect 38 1 44 1;
#X connect 39 0 77 0;
#X connect 42 0 36 0;
#X connect 43 0 75 0;
#X connect 44 0 39 0;
#X connect 45 0 44 0;
#X connect 49 0 67 0;
#X connect 51 0 65 0;
#X connect 52 0 50 0;
#X connect 53 0 28 0;
#X connect 53 1 60 0;
#X connect 54 0 81 0;
#X connect 55 0 54 1;
#X connect 57 0 82 0;
#X connect 58 0 78 0;
#X connect 59 0 61 0;
#X connect 60 0 54 0;
#X connect 60 1 59 0;
#X connect 60 2 16 0;
#X connect 60 3 52 0;
#X connect 60 4 29 0;
#X connect 61 0 62 0;
#X connect 63 0 64 0;
#X connect 64 0 46 0;
#X connect 65 0 17 0;
#X connect 66 0 65 1;
#X connect 68 0 69 0;
#X connect 68 1 69 1;
#X connect 69 0 70 0;
#X connect 70 0 2 0;
#X connect 71 0 33 0;
#X connect 73 0 71 1;
#X connect 74 0 83 0;
#X connect 75 0 71 0;
#X connect 76 0 0 0;
#X connect 77 0 56 0;
#X connect 77 0 42 0;
#X connect 78 0 59 1;
#X connect 79 0 21 0;
#X connect 80 0 30 0;
#X connect 81 0 21 0;
#X connect 82 0 55 0;
#X connect 83 0 75 1;
