#N canvas 341 50 1188 838 10;
#X obj 144 109 stripnote;
#X obj 144 131 expr if ($f1 > 59 \, $f1 - 60 \, $f1 - 12);
#X text 256 155 allow all midi notes to trigger samples...;
#X obj 235 746 throw~ voice-out;
#X obj 478 44 r key-just-copied;
#X obj 304 220 r key-edit-state;
#X obj 310 248 t f f;
#X obj 136 316 spigot 1;
#X obj 333 365 sel 0;
#X text 426 394 unmute in edit mode;
#X obj 100 35 r local-notes;
#X obj 257 592 sampler-new, f 28;
#X obj 165 448 del 10;
#X msg 200 403 stop;
#X obj 257 613 *~ 0.7;
#X obj 154 371 t b b b b f;
#X obj 192 509 f;
#X msg 281 472 -1;
#X connect 0 0 1 0;
#X connect 1 0 7 0;
#X connect 4 0 0 0;
#X connect 5 0 6 0;
#X connect 6 0 8 0;
#X connect 6 1 7 1;
#X connect 7 0 15 0;
#X connect 8 0 17 0;
#X connect 10 0 0 0;
#X connect 11 0 14 0;
#X connect 12 0 16 0;
#X connect 13 0 12 0;
#X connect 14 0 3 0;
#X connect 15 1 12 0;
#X connect 15 2 17 0;
#X connect 15 3 13 0;
#X connect 15 4 16 1;
#X connect 16 0 11 0;
#X connect 17 0 11 0;
