#N canvas 340 50 1188 838 10;
#X obj 100 35 r notes;
#X obj 144 109 stripnote;
#X obj 144 131 expr if ($f1 > 59 \, $f1 - 60 \, $f1 - 12);
#X text 256 155 allow all midi notes to trigger samples...;
#X obj 231 363 t b f;
#N canvas 5 50 693 312 get-params 0;
#X obj 82 140 tabread param1;
#X floatatom 81 166 5 0 0 0 - - -, f 5;
#X floatatom 187 172 5 0 0 0 - - -, f 5;
#X floatatom 296 164 5 0 0 0 - - -, f 5;
#X floatatom 404 162 5 0 0 0 - - -, f 5;
#X obj 189 140 tabread param2;
#X obj 297 138 tabread param3;
#X obj 406 135 tabread param4;
#X obj 83 62 inlet;
#X obj 82 186 outlet;
#X obj 187 198 outlet;
#X obj 285 194 outlet;
#X obj 398 187 outlet;
#X obj 81 89 t f f f f;
#X connect 0 0 1 0;
#X connect 1 0 9 0;
#X connect 2 0 10 0;
#X connect 3 0 11 0;
#X connect 4 0 12 0;
#X connect 5 0 2 0;
#X connect 6 0 3 0;
#X connect 7 0 4 0;
#X connect 8 0 13 0;
#X connect 13 0 0 0;
#X connect 13 1 5 0;
#X connect 13 2 6 0;
#X connect 13 3 7 0;
#X restore 319 493 pd get-params;
#X obj 235 746 throw~ voice-out;
#X obj 478 44 r key-just-copied;
#X obj 257 592 samplervoice, f 28;
#X obj 420 299 r key-edit-state;
#X obj 426 327 t f f;
#X obj 226 435 spigot 1;
#N canvas 6 50 596 303 speed-mod 0;
#X floatatom 275 252 5 0 0 0 - - -, f 5;
#X obj 294 112 snapshot~;
#X obj 350 64 metro 5;
#X obj 350 37 loadbang;
#X obj 275 222 +;
#X obj 260 195 f;
#X obj 289 168 t b f;
#X obj 241 25 r~ speed-mod;
#X obj 183 58 inlet;
#X obj 278 275 outlet;
#X connect 0 0 9 0;
#X connect 1 0 6 0;
#X connect 2 0 1 0;
#X connect 3 0 2 0;
#X connect 4 0 0 0;
#X connect 5 0 4 0;
#X connect 6 0 5 0;
#X connect 6 1 4 1;
#X connect 7 0 1 0;
#X connect 8 0 5 0;
#X restore 305 522 pd speed-mod;
#X obj 333 365 sel 0;
#X msg 281 472 0;
#X msg 221 478 1;
#X text 426 394 unmute in edit mode;
#X obj 318 545 * 10;
#X obj 318 567 - 5;
#X obj 267 711 *~;
#X obj 312 661 line~;
#X msg 319 632 \$1 4;
#X obj 300 691 *~;
#X connect 0 0 1 0;
#X connect 1 0 2 0;
#X connect 2 0 4 0;
#X connect 4 0 11 0;
#X connect 4 1 5 0;
#X connect 5 0 12 0;
#X connect 5 1 21 0;
#X connect 5 2 8 2;
#X connect 5 3 8 3;
#X connect 7 0 1 0;
#X connect 8 0 19 0;
#X connect 9 0 10 0;
#X connect 10 0 13 0;
#X connect 10 1 11 1;
#X connect 11 0 15 0;
#X connect 12 0 17 0;
#X connect 13 0 14 0;
#X connect 14 0 8 0;
#X connect 15 0 8 0;
#X connect 17 0 18 0;
#X connect 18 0 8 1;
#X connect 19 0 6 0;
#X connect 20 0 22 1;
#X connect 20 0 22 0;
#X connect 21 0 20 0;
#X connect 22 0 19 1;
