#N canvas 76 50 1286 682 10;
#X declare -path cg-pd-library-local/sampling;
#X declare -path cg-pd-library-local/sequencer;
#X declare -path cg-pd-library-local/externals;
#X declare -path cg-pd-library-local/metronome;
#X obj 516 491 throw~ outL;
#X obj 542 450 throw~ outR;
#N canvas 326 89 1057 808 metro-here 0;
#X obj 267 496 s beat-clock;
#X obj 267 273 loadbang;
#X msg 267 315 1;
#X obj 267 344 metronome360 0 0, f 18;
#X obj 303 444 s metro-tempo;
#X obj 303 418 list prepend;
#X obj 325 382 s bpm;
#X obj 372 264 inlet;
#X text 409 264 bpm;
#X obj 560 162 r beat-clock;
#X obj 560 403 sel 0;
#X obj 560 371 spigot 0;
#X obj 605 185 r pause-start-toggle;
#X obj 699 265 r clear-composition;
#X obj 699 286 f 0;
#X obj 560 598 s global-bar-count;
#X obj 560 455 cg-loop 4 1, f 14;
#X obj 699 317 t f f;
#X msg 605 227 1;
#X obj 605 206 sel 1 0, f 17;
#X msg 654 234 0;
#X obj 654 255 t f f;
#X obj 560 496 sel 0;
#X obj 560 528 cg-loop 32 1, f 14;
#X obj 560 549 + 1;
#X obj 686 415 t a b;
#X msg 713 455 -1;
#X text 741 455 before 32 bar loop begins make zero;
#X obj 625 485 s global-beat-count;
#X connect 1 0 2 0;
#X connect 2 0 3 0;
#X connect 3 0 0 0;
#X connect 3 1 5 0;
#X connect 3 1 6 0;
#X connect 3 2 5 1;
#X connect 5 0 4 0;
#X connect 7 0 3 1;
#X connect 9 0 11 0;
#X connect 10 0 16 0;
#X connect 11 0 10 0;
#X connect 12 0 19 0;
#X connect 13 0 14 0;
#X connect 14 0 17 0;
#X connect 16 0 22 0;
#X connect 16 0 28 0;
#X connect 17 0 25 0;
#X connect 17 1 11 1;
#X connect 18 0 11 1;
#X connect 19 0 18 0;
#X connect 19 1 20 0;
#X connect 20 0 21 0;
#X connect 21 0 25 0;
#X connect 21 1 11 1;
#X connect 22 0 23 0;
#X connect 23 0 24 0;
#X connect 24 0 15 0;
#X connect 25 0 16 2;
#X connect 25 1 26 0;
#X connect 26 0 23 1;
#X restore 57 284 pd metro-here;
#X obj 517 408 *~ 1;
#N canvas 311 134 1535 864 knobs 0;
#X obj 1061 240 i;
#X obj 1061 261 + 20;
#X obj 1061 219 * 280;
#X obj 1101 458 r metro-tempo;
#X obj 1061 370 s knob4-tempo;
#X obj 1128 503 route 1 2 3 4;
#X obj 1101 479 t b a;
#X obj 1101 794 s oscOut;
#X msg 1101 768 /oled/gFlip 3 1;
#X obj 81 64 r knob1;
#X obj 722 555 r load-tables;
#X obj 722 642 text define bar-pattern;
#X msg 760 617 write bar-pattern.txt;
#X msg 722 595 read bar-pattern.txt;
#X text 480 233 note-pattern;
#X obj 725 41 r knob3;
#X obj 371 52 r knob2;
#X obj 422 542 r load-tables;
#X obj 422 631 text define rate;
#X msg 459 604 write rate.txt;
#X msg 422 581 read rate.txt;
#X obj 98 615 text define note-div;
#X msg 135 588 write note-div.txt;
#X msg 98 565 read note-div.txt;
#X obj 98 526 r load-tables;
#X obj 1155 700 s oscOut;
#X msg 1155 679 /oled/gFillArea 3 0 55 128 10 0;
#X obj 1128 638 t a b;
#X msg 1128 534 4: BPM: \$1;
#X msg 1175 556 4: LINK: \$1;
#X msg 1146 583 4: MIDI: \$1;
#X obj 1061 282 change -1;
#N canvas 4 50 778 666 knob1+2-pattern 0;
#X msg 62 387 /oled/gFlip 3;
#X obj 62 438 s oscOut;
#X obj 254 331 cg-draw-rec-drop 9 9 111 43 3 3;
#X obj 239 555 cg-draw-bar-grid 14 14 100 100 13 9;
#X msg 408 234 /oled/gFlip 3;
#X obj 408 285 s oscOut;
#X msg 239 508 number \$1;
#X obj 254 213 v rec-drop-draw?;
#X obj 254 234 sel 0 1;
#X obj 254 255 t b b;
#X msg 281 280 1;
#X obj 281 301 v rec-drop-draw?;
#X msg 153 433 drawOut bang;
#X obj 203 187 t b b a b;
#X obj 407 116 t b a a b;
#X obj 203 31 inlet;
#X text 245 29 amount;
#X obj 407 28 inlet;
#X text 449 24 list;
#X obj 203 59 cg-speedlim 250;
#X obj 407 49 cg-speedlim 250;
#X obj 532 344 r global-edit-this-samp;
#X obj 532 389 text get save-keys;
#X obj 532 368 - 1;
#X obj 532 410 unpack 0 0 0 0;
#X obj 602 481 text get note-div;
#X obj 559 446 text get rate;
#X obj 603 503 unpack s 0;
#X connect 0 0 1 0;
#X connect 4 0 5 0;
#X connect 6 0 3 0;
#X connect 7 0 8 0;
#X connect 8 0 9 0;
#X connect 9 0 2 0;
#X connect 9 1 10 0;
#X connect 10 0 11 0;
#X connect 12 0 3 0;
#X connect 13 0 0 0;
#X connect 13 1 12 0;
#X connect 13 2 6 0;
#X connect 13 3 7 0;
#X connect 14 0 4 0;
#X connect 14 1 12 0;
#X connect 14 2 3 1;
#X connect 14 3 7 0;
#X connect 15 0 19 0;
#X connect 17 0 20 0;
#X connect 19 0 13 0;
#X connect 20 0 14 0;
#X connect 21 0 23 0;
#X connect 22 0 24 0;
#X connect 23 0 22 0;
#X connect 24 1 26 0;
#X connect 24 2 25 0;
#X connect 25 0 27 0;
#X connect 26 0 3 1;
#X connect 27 1 6 0;
#X restore 269 410 pd knob1+2-pattern;
#N canvas 4 50 802 939 key-held-knob1 0;
#X obj 81 299 i;
#X obj 81 488 text get note-div;
#X obj 81 370 change -1;
#X obj 81 322 t a b;
#X obj 108 346 s knob-change;
#X obj 108 444 s global-note-div-f;
#X obj 81 84 inlet;
#X obj 138 646 outlet;
#X obj 81 611 unpack s 0;
#X obj 81 391 t a a;
#X obj 108 197 i;
#X obj 108 144 cg-one-bang;
#X obj 81 114 t a b;
#X obj 108 175 text size note-div;
#X obj 81 676 list prepend Note:;
#X obj 81 703 s screenLine5;
#X obj 108 218 - 1;
#X obj 81 242 * 9;
#X connect 0 0 3 0;
#X connect 1 0 8 0;
#X connect 2 0 9 0;
#X connect 3 0 2 0;
#X connect 3 1 4 0;
#X connect 6 0 12 0;
#X connect 8 0 14 0;
#X connect 8 1 7 0;
#X connect 9 0 1 0;
#X connect 9 1 5 0;
#X connect 10 0 16 0;
#X connect 11 0 13 0;
#X connect 12 0 17 0;
#X connect 12 1 11 0;
#X connect 13 0 10 0;
#X connect 14 0 15 0;
#X connect 16 0 17 1;
#X connect 17 0 0 0;
#X restore 168 235 pd key-held-knob1;
#N canvas 4 50 1034 875 key-held-knob2 0;
#X text 269 62 note-pattern;
#X obj 207 259 i;
#X obj 207 341 change -1;
#X obj 207 508 text get rate;
#X obj 207 234 * 32;
#X obj 207 288 t a b;
#X obj 234 316 s knob-change;
#X obj 207 65 inlet;
#X obj 207 785 outlet;
#X obj 207 395 * 2;
#X obj 207 416 t a a, f 25;
#X obj 354 476 text get rate;
#X obj 354 453 + 1;
#X obj 234 145 text size rate;
#X obj 234 169 / 2;
#X obj 234 190 i;
#X obj 234 116 cg-one-bang;
#X obj 207 86 t a b;
#X obj 354 696 s screenLine5;
#X obj 354 497 list prepend Pattern:;
#X obj 207 437 t a a;
#X obj 234 474 s k2-notes;
#X obj 234 211 - 1;
#X connect 1 0 5 0;
#X connect 2 0 9 0;
#X connect 3 0 8 0;
#X connect 4 0 1 0;
#X connect 5 0 2 0;
#X connect 5 1 6 0;
#X connect 7 0 17 0;
#X connect 9 0 10 0;
#X connect 10 0 20 0;
#X connect 10 1 12 0;
#X connect 11 0 19 0;
#X connect 12 0 11 0;
#X connect 13 0 14 0;
#X connect 14 0 15 0;
#X connect 15 0 22 0;
#X connect 16 0 13 0;
#X connect 17 0 4 0;
#X connect 17 1 16 0;
#X connect 19 0 18 0;
#X connect 20 0 3 0;
#X connect 20 1 21 0;
#X connect 22 0 4 1;
#X restore 458 252 pd key-held-knob2;
#N canvas 592 62 1071 791 draw-knob3 0;
#X msg 62 357 /oled/gFlip 3;
#X obj 62 408 s oscOut;
#X obj 452 345 cg-draw-rec-drop 9 9 111 43 3 3;
#X obj 239 525 cg-draw-bar-grid 14 14 100 100 13 9;
#X msg 237 338 number \$1;
#X obj 452 227 v rec-drop-draw?;
#X obj 452 248 sel 0 1;
#X obj 452 269 t b b;
#X msg 479 294 1;
#X obj 479 315 v rec-drop-draw?;
#X msg 136 441 drawOut bang;
#X obj 203 32 inlet;
#X text 247 28 list;
#X msg 237 298 32;
#X obj 203 157 t b b b a b;
#X obj 203 99 cg-speedlim 200;
#X connect 0 0 1 0;
#X connect 4 0 3 0;
#X connect 5 0 6 0;
#X connect 6 0 7 0;
#X connect 7 0 2 0;
#X connect 7 1 8 0;
#X connect 8 0 9 0;
#X connect 10 0 3 0;
#X connect 11 0 15 0;
#X connect 13 0 4 0;
#X connect 14 0 0 0;
#X connect 14 1 10 0;
#X connect 14 2 13 0;
#X connect 14 3 3 1;
#X connect 14 4 5 0;
#X connect 15 0 14 0;
#X restore 812 281 pd draw-knob3;
#N canvas 4 50 937 729 key-held-knob3 0;
#X obj 178 354 change -1;
#X obj 415 472 text get bar-pattern;
#X obj 178 306 t a b;
#X obj 205 329 s knob-change;
#X obj 178 65 inlet;
#X obj 178 706 outlet;
#X obj 178 259 * 32;
#X obj 205 184 / 2;
#X obj 205 205 i;
#X obj 205 131 cg-one-bang;
#X obj 178 101 t a b;
#X obj 178 280 i;
#X obj 205 163 text size bar-pattern;
#X obj 178 384 * 2;
#X obj 178 405 t a a, f 40;
#X obj 415 441 + 1;
#X obj 415 594 list prepend Bar Patt:;
#X obj 415 622 s screenLine5;
#X obj 178 508 text get bar-pattern;
#X obj 178 426 t a a;
#X obj 205 466 s k3-bars;
#X obj 205 226 - 1;
#X floatatom 330 325 5 0 0 0 - - -;
#X floatatom 243 88 5 0 0 0 - - -;
#X connect 0 0 13 0;
#X connect 0 0 22 0;
#X connect 1 0 16 0;
#X connect 2 0 0 0;
#X connect 2 1 3 0;
#X connect 4 0 10 0;
#X connect 4 0 23 0;
#X connect 6 0 11 0;
#X connect 7 0 8 0;
#X connect 8 0 21 0;
#X connect 9 0 12 0;
#X connect 10 0 6 0;
#X connect 10 1 9 0;
#X connect 11 0 2 0;
#X connect 12 0 7 0;
#X connect 13 0 14 0;
#X connect 14 0 19 0;
#X connect 14 1 15 0;
#X connect 15 0 1 0;
#X connect 16 0 17 0;
#X connect 18 0 5 0;
#X connect 19 0 18 0;
#X connect 19 1 20 0;
#X connect 21 0 6 1;
#X restore 812 239 pd key-held-knob3;
#X text 227 214 note-div;
#X obj 81 175 spigot 1;
#X obj 81 86 t a a, f 15;
#N canvas 4 50 1352 695 global-knob1 0;
#X obj 49 21 inlet;
#X obj 88 316 s oscOut;
#X msg 88 295 /oled/gFillArea 3 0 55 128 10 0;
#X obj 49 259 t a b, f 7;
#X obj 49 394 cg-custom-screen-line 0 55 8;
#X obj 49 63 i;
#X obj 76 186 s global-shift;
#X obj 49 42 * 24;
#X obj 49 84 change -1;
#X obj 49 135 t a a;
#X msg 49 369 1: Shift: +\$1;
#X obj 76 162 f;
#X obj 115 123 r reload-global-params;
#X connect 0 0 7 0;
#X connect 2 0 1 0;
#X connect 3 0 10 0;
#X connect 3 1 2 0;
#X connect 5 0 8 0;
#X connect 7 0 5 0;
#X connect 8 0 9 0;
#X connect 9 0 3 0;
#X connect 9 1 11 0;
#X connect 10 0 4 0;
#X connect 11 0 6 0;
#X connect 12 0 11 0;
#X restore 81 288 pd global-knob1;
#X obj 168 179 spigot 0;
#X obj 371 88 t a a, f 15;
#N canvas 4 50 905 773 global-knob2 0;
#X obj 49 21 inlet;
#X obj 88 306 s oscOut;
#X msg 88 285 /oled/gFillArea 3 0 55 128 10 0;
#X obj 49 249 t a b, f 7;
#X obj 49 282 * 100;
#X obj 49 303 i;
#X obj 49 84 t a a;
#X text 61 228 print it;
#X obj 76 181 s global-length;
#X obj 49 384 cg-custom-screen-line 0 55 8;
#X msg 49 359 2: Samp Length: \$1%;
#X obj 49 42 max 0.01;
#X obj 76 156 max 0.02;
#X obj 76 122 f;
#X obj 102 86 r reload-global-params;
#X connect 0 0 11 0;
#X connect 2 0 1 0;
#X connect 3 0 4 0;
#X connect 3 1 2 0;
#X connect 4 0 5 0;
#X connect 5 0 10 0;
#X connect 6 0 3 0;
#X connect 6 1 13 0;
#X connect 10 0 9 0;
#X connect 11 0 6 0;
#X connect 12 0 8 0;
#X connect 13 0 12 0;
#X connect 14 0 13 0;
#X restore 371 307 pd global-knob2;
#X text 94 267 Sample Shift;
#X text 392 283 Sample Length;
#X obj 725 95 t a a, f 15;
#N canvas 4 50 508 547 global-knob3 0;
#X obj 49 21 inlet;
#X obj 88 266 s oscOut;
#X msg 88 245 /oled/gFillArea 3 0 55 128 10 0;
#X obj 49 209 t a b, f 7;
#X obj 49 242 * 100;
#X obj 49 263 i;
#X text 60 188 print it;
#X obj 49 365 cg-custom-screen-line 0 55 8;
#X obj 76 151 s global-speed;
#X msg 49 340 3: Speed: \$1%;
#X obj 49 89 t a a;
#X obj 49 284 sel 100;
#X msg 83 316 3: Speed: ORIG;
#X obj 49 64 max 0.02;
#X obj 76 122 f;
#X obj 102 86 r reload-global-params;
#X connect 0 0 13 0;
#X connect 2 0 1 0;
#X connect 3 0 4 0;
#X connect 3 1 2 0;
#X connect 4 0 5 0;
#X connect 5 0 11 0;
#X connect 9 0 7 0;
#X connect 10 0 3 0;
#X connect 10 1 14 0;
#X connect 11 0 12 0;
#X connect 11 1 9 0;
#X connect 12 0 7 0;
#X connect 13 0 10 0;
#X connect 14 0 8 0;
#X connect 15 0 14 0;
#X restore 725 337 pd global-knob3;
#X obj 1061 88 t a a, f 15;
#X obj 1061 52 r knob4;
#X text 865 216 bar patt;
#X text 1201 182 swing amt;
#N canvas 4 50 652 729 key-held-knob4 0;
#X text 238 63 note amt;
#X obj 178 194 change -1;
#X obj 178 145 t a b;
#X obj 205 169 s knob-change;
#X obj 178 215 t a a;
#X obj 178 65 inlet;
#X obj 205 237 s k4-swing;
#X msg 178 337 Swing: \$1%;
#X obj 178 377 s screenLine5;
#X obj 178 276 * 100;
#X obj 178 297 i;
#X connect 1 0 4 0;
#X connect 2 0 1 0;
#X connect 2 1 3 0;
#X connect 4 0 9 0;
#X connect 4 1 6 0;
#X connect 5 0 2 0;
#X connect 7 0 8 0;
#X connect 9 0 10 0;
#X connect 10 0 7 0;
#X restore 1148 205 pd key-held-knob4;
#X text 1085 203 tempo;
#X text 749 315 speed;
#X obj 186 82 r global-edit-mode-on;
#X obj 126 150 == 0;
#X obj 371 175 spigot 1;
#X obj 458 179 spigot 0;
#X obj 476 82 r global-edit-mode-on;
#X obj 416 150 == 0;
#X obj 725 158 spigot 1;
#X obj 812 162 spigot 0;
#X obj 830 65 r global-edit-mode-on;
#X obj 770 133 == 0;
#X obj 830 99 t a a;
#X obj 1061 154 spigot 1;
#X obj 1148 158 spigot 0;
#X obj 1166 61 r global-edit-mode-on;
#X obj 1106 129 == 0;
#X obj 1166 95 t a a;
#X obj 186 116 t a a;
#X obj 476 116 t a a;
#X obj 1128 728 cg-custom-screen-line 0 55 8;
#X msg 554 568 read bar-pattern.txt;
#N canvas 4 50 450 300 detent 0;
#X obj 40 19 inlet;
#X obj 40 65 moses 0.45;
#X obj 40 86 / 0.45;
#X obj 40 107 * 1;
#X obj 97 87 moses 0.55;
#X obj 97 108 t b;
#X msg 97 129 1;
#X obj 154 131 / 0.45;
#X obj 154 109 - 0.55;
#X obj 154 152 * 2;
#X obj 154 173 + 1;
#X obj 78 208 outlet;
#X connect 0 0 1 0;
#X connect 1 0 2 0;
#X connect 1 1 4 0;
#X connect 2 0 3 0;
#X connect 3 0 11 0;
#X connect 4 0 5 0;
#X connect 4 1 8 0;
#X connect 5 0 6 0;
#X connect 6 0 11 0;
#X connect 7 0 9 0;
#X connect 8 0 7 0;
#X connect 9 0 10 0;
#X connect 10 0 11 0;
#X restore 725 188 pd detent;
#X obj 1061 348 f;
#X obj 1087 312 r reload-global-params;
#X connect 0 0 1 0;
#X connect 1 0 31 0;
#X connect 2 0 0 0;
#X connect 3 0 6 0;
#X connect 5 0 28 0;
#X connect 5 1 30 0;
#X connect 5 2 29 0;
#X connect 5 3 28 0;
#X connect 6 0 8 0;
#X connect 6 1 5 0;
#X connect 8 0 7 0;
#X connect 9 0 39 0;
#X connect 10 0 13 0;
#X connect 12 0 11 0;
#X connect 13 0 11 0;
#X connect 15 0 46 0;
#X connect 16 0 42 0;
#X connect 17 0 20 0;
#X connect 19 0 18 0;
#X connect 20 0 18 0;
#X connect 22 0 21 0;
#X connect 23 0 21 0;
#X connect 24 0 23 0;
#X connect 26 0 25 0;
#X connect 27 0 73 0;
#X connect 27 1 26 0;
#X connect 28 0 27 0;
#X connect 29 0 27 0;
#X connect 30 0 27 0;
#X connect 31 0 76 0;
#X connect 33 0 32 0;
#X connect 34 0 32 1;
#X connect 36 0 35 0;
#X connect 38 0 40 0;
#X connect 39 0 38 0;
#X connect 39 1 41 0;
#X connect 41 0 33 0;
#X connect 42 0 57 0;
#X connect 42 1 58 0;
#X connect 46 0 61 0;
#X connect 46 1 62 0;
#X connect 48 0 66 0;
#X connect 48 1 67 0;
#X connect 49 0 48 0;
#X connect 55 0 71 0;
#X connect 56 0 38 1;
#X connect 57 0 43 0;
#X connect 58 0 34 0;
#X connect 59 0 72 0;
#X connect 60 0 57 1;
#X connect 61 0 75 0;
#X connect 62 0 36 0;
#X connect 63 0 65 0;
#X connect 64 0 61 1;
#X connect 65 0 64 0;
#X connect 65 1 62 1;
#X connect 66 0 2 0;
#X connect 67 0 52 0;
#X connect 68 0 70 0;
#X connect 69 0 66 1;
#X connect 70 0 69 0;
#X connect 70 1 67 1;
#X connect 71 0 56 0;
#X connect 71 1 41 1;
#X connect 72 0 60 0;
#X connect 72 1 58 1;
#X connect 75 0 47 0;
#X connect 76 0 4 0;
#X connect 77 0 76 0;
#X restore 57 128 pd knobs;
#X obj 57 258 r knob4-tempo;
#N canvas 4 52 425 271 load-samples 0;
#X msg 211 64 vis 1 1;
#X obj 276 51 r read-samples;
#X msg 276 72 all load;
#X obj 46 95 clone -s 1 load-rec-sample 24 samp 10000 sounds 0, f
28;
#X connect 0 0 3 2;
#X connect 1 0 2 0;
#X connect 2 0 3 2;
#X restore 57 176 pd load-samples;
#N canvas 4 75 1239 607 parameter-tables 0;
#X msg 167 112 read note-table.txt;
#X obj 78 107 r saveState;
#X obj 78 128 t b;
#X msg 78 149 write note-table.txt;
#X obj 167 195 array define note-tracker 25;
#X obj 187 222 r saveState;
#X obj 187 243 t b;
#X obj 23 319 text define save-keys;
#X msg 187 264 write save-keys.txt;
#X msg 23 253 read save-keys.txt;
#X obj 22 21 r load-tables;
#X obj 378 196 text define global-text-save;
#X obj 595 112 r global-shift;
#X obj 613 141 r global-length;
#X obj 658 186 r global-speed;
#X obj 658 217 r knob4-tempo;
#X obj 574 313 text set global-text-save;
#X obj 574 268 t a b;
#X msg 623 290 0;
#X obj 574 243 pack 0 0 0 0;
#X obj 574 213 f;
#X obj 547 61 r saveState;
#X obj 22 42 t b b b, f 49;
#X obj 547 90 t b b;
#X msg 378 148 write glob-knobs.txt;
#X msg 313 87 read glob-knobs.txt;
#X obj 891 60 r load-glob-knobs;
#X obj 891 131 text get global-text-save;
#X obj 891 152 unpack 0 0 0 0;
#X obj 885 247 s global-shift;
#X obj 907 220 s global-length;
#X obj 943 197 s global-speed;
#X obj 976 173 s knob4-tempo;
#X msg 891 101 0;
#X obj 501 247 bng 15 250 50 0 empty empty empty 17 7 0 10 -262144
-1 -1;
#X obj 891 81 del 250;
#X connect 0 0 4 0;
#X connect 1 0 2 0;
#X connect 2 0 3 0;
#X connect 3 0 4 0;
#X connect 5 0 6 0;
#X connect 6 0 8 0;
#X connect 8 0 7 0;
#X connect 9 0 7 0;
#X connect 10 0 22 0;
#X connect 12 0 20 1;
#X connect 13 0 19 1;
#X connect 14 0 19 2;
#X connect 15 0 19 3;
#X connect 17 0 16 0;
#X connect 17 1 18 0;
#X connect 18 0 16 1;
#X connect 19 0 17 0;
#X connect 20 0 19 0;
#X connect 21 0 23 0;
#X connect 22 0 9 0;
#X connect 22 1 0 0;
#X connect 22 2 25 0;
#X connect 23 0 24 0;
#X connect 23 1 20 0;
#X connect 24 0 11 0;
#X connect 25 0 11 0;
#X connect 26 0 35 0;
#X connect 27 0 28 0;
#X connect 28 0 29 0;
#X connect 28 1 30 0;
#X connect 28 2 31 0;
#X connect 28 3 32 0;
#X connect 33 0 27 0;
#X connect 34 0 20 0;
#X connect 35 0 33 0;
#X restore 57 197 pd parameter-tables;
#N canvas 1265 360 450 299 sampler 0;
#X obj 25 8 inlet notes;
#X obj 25 162 outlet~;
#X obj 25 121 clone -s 1 24 drum-voice;
#X msg 108 16 vis 10 1;
#X connect 0 0 2 0;
#X connect 2 0 1 0;
#X connect 3 0 2 0;
#X restore 518 361 pd sampler;
#N canvas 172 229 447 296 compose 0;
#X obj 29 17 inlet;
#X obj 29 49 clone -s 1 24 compose-voice;
#X obj 29 119 outlet;
#X obj 29 91 r compose-notes;
#X msg 109 16 vis 14 1;
#X connect 0 0 1 0;
#X connect 3 0 2 0;
#X connect 4 0 1 0;
#X restore 518 328 pd compose;
#X obj 739 131 r aux;
#X text 737 113 aux short tap pauses \, and starts. long hold clears
;
#X obj 884 466 s pause-start-toggle;
#X obj 1028 385 s clear-composition;
#N canvas 4 50 1113 575 led 0;
#X obj 61 129 r pause-start-toggle;
#X obj 311 9 r clear-composition;
#X obj 61 388 s led;
#X obj 61 220 sel 0 1, f 44;
#X obj 416 256 r beat-clock;
#X obj 416 319 sel 0;
#X obj 80 336 v led-status;
#X text 424 135 0 = cleared;
#X msg 61 364 6;
#X msg 80 310 6;
#X text 430 156 6 = paused;
#X obj 191 383 s led;
#X obj 210 331 v led-status;
#X msg 210 306 3;
#X text 423 197 3 = playing;
#X msg 191 359 3;
#X obj 61 241 t b b b;
#X msg 100 265 0;
#X obj 100 286 s \$0-metro;
#X obj 416 297 spigot 0;
#X obj 459 277 r \$0-metro;
#X obj 416 340 t b b b;
#X msg 455 363 stop;
#X obj 435 386 del 100;
#X obj 416 461 s led;
#X obj 191 242 t b b b;
#X obj 230 286 s \$0-metro;
#X msg 230 265 1;
#X obj 311 172 s led;
#X obj 330 120 v led-status;
#X obj 311 31 t b b b;
#X obj 350 75 s \$0-metro;
#X msg 350 54 0;
#X msg 330 95 0;
#X msg 311 148 0;
#X obj 435 407 v led-status;
#X msg 416 436 7;
#X obj 605 16 r global-edit-mode-on;
#X obj 605 37 sel 1 0, f 15;
#X obj 605 219 s led;
#X msg 605 108 7;
#X obj 678 85 v led-status;
#X obj 663 118 f;
#X obj 605 58 t b b;
#X obj 632 178 v led-status;
#X obj 605 149 t a a;
#X connect 0 0 3 0;
#X connect 1 0 30 0;
#X connect 3 0 16 0;
#X connect 3 1 25 0;
#X connect 4 0 19 0;
#X connect 5 0 21 0;
#X connect 8 0 2 0;
#X connect 9 0 6 0;
#X connect 13 0 12 0;
#X connect 15 0 11 0;
#X connect 16 0 8 0;
#X connect 16 1 9 0;
#X connect 16 2 17 0;
#X connect 17 0 18 0;
#X connect 19 0 5 0;
#X connect 20 0 19 1;
#X connect 21 0 36 0;
#X connect 21 1 23 0;
#X connect 21 2 22 0;
#X connect 22 0 23 0;
#X connect 23 0 35 0;
#X connect 25 0 15 0;
#X connect 25 1 13 0;
#X connect 25 2 27 0;
#X connect 27 0 26 0;
#X connect 30 0 34 0;
#X connect 30 1 33 0;
#X connect 30 2 32 0;
#X connect 32 0 31 0;
#X connect 33 0 29 0;
#X connect 34 0 28 0;
#X connect 35 0 24 0;
#X connect 36 0 24 0;
#X connect 37 0 38 0;
#X connect 38 0 43 0;
#X connect 38 1 42 0;
#X connect 40 0 45 0;
#X connect 41 0 42 1;
#X connect 42 0 45 0;
#X connect 43 0 40 0;
#X connect 43 1 41 0;
#X connect 45 0 39 0;
#X connect 45 1 44 0;
#X restore 57 377 pd led;
#N canvas 4 50 959 658 load 0;
#X obj 64 45 loadbang;
#X obj 99 170 s load-samplers;
#X obj 118 143 s read-samples;
#X obj 45 316 s draw-the-kb;
#X obj 140 34 inlet;
#X obj 128 110 s load-tables;
#X obj 85 196 s load-keys-init;
#X obj 292 192 s midiOutGate;
#X msg 307 129 0;
#X obj 331 166 s midiInGate;
#X obj 46 292 del 1000;
#X obj 325 253 s zero-2-toggle;
#X obj 70 220 s reload-global-params;
#X obj 56 77 t b b b b b b b;
#X obj 59 244 s load-glob-knobs;
#X connect 0 0 13 0;
#X connect 4 0 13 0;
#X connect 8 0 7 0;
#X connect 8 0 9 0;
#X connect 8 0 11 0;
#X connect 10 0 3 0;
#X connect 13 0 10 0;
#X connect 13 1 12 0;
#X connect 13 1 14 0;
#X connect 13 2 6 0;
#X connect 13 3 1 0;
#X connect 13 4 2 0;
#X connect 13 5 5 0;
#X connect 13 6 8 0;
#X restore 57 338 pd load;
#X obj 57 315 bng 15 250 50 0 empty empty empty 17 7 0 10 -262144 -1
-1;
#N canvas 448 238 1232 748 print-keyboard-patterns 0;
#X obj 38 229 f;
#X obj 71 229 + 1;
#X msg 77 200 0;
#X obj 38 200 until;
#X msg 38 153 24;
#X obj 38 250 + 1;
#X obj 38 293 pack 0 1 1;
#X obj 122 305 tabread note-tracker;
#X obj 186 473 r print-notes;
#X obj 142 43 r draw-the-kb;
#X msg 269 179 /oled/gClear 3 1;
#X obj 269 203 s oscOut;
#X obj 825 8 r knob-change;
#X obj 825 79 t b b b, f 14;
#X msg 906 142 0;
#X msg 865 114 stop;
#X msg 825 171 1;
#X obj 825 212 change -1;
#X obj 38 29 r draw-home;
#X obj 38 50 sel 1;
#X obj 38 71 del 5;
#X obj 152 665 cg-draw-kb-big 24;
#X obj 170 568 r draw-home;
#X obj 38 179 t a b b, f 12;
#X obj 272 494 unpack 0 0;
#X obj 272 472 r vis-trigger;
#X obj 125 643 t b a;
#X obj 125 730 s oscOut;
#X msg 125 699 /oled/gFlip 3 1;
#X obj 1092 104 v rec-drop-draw?;
#X obj 1092 36 r draw-home;
#X obj 1092 57 sel 1;
#X msg 1092 78 0;
#X obj 272 515 pack 0 2 1;
#X obj 186 494 unpack 0 0 0;
#X obj 186 515 pack 0 0 0, f 12;
#X obj 133 336 sel 0;
#X obj 223 395 pack 0 3 0;
#X obj 149 382 f;
#X obj 149 413 pack 0 0 1;
#X obj 179 387 + 2;
#X obj 149 361 t b a b;
#X obj 825 35 cg-speedlim 200;
#X obj 693 571 s oscOut;
#X msg 693 550 /oled/gFillArea 3 0 55 128 10 0;
#X obj 666 596 cg-custom-screen-line 9 55 8;
#X obj 666 522 t a b;
#X obj 666 318 r draw-vol-status;
#X obj 666 347 unpack;
#X obj 699 374 sel 0 1 2 3, f 20;
#X msg 730 395 100;
#X msg 761 394 50;
#X obj 38 271 t f f f, f 27;
#X msg 699 395 0;
#X obj 739 436 f;
#X obj 666 457 pack 0 0;
#X msg 435 577 Aux: Paused;
#X obj 467 332 r clear-composition;
#X obj 467 353 t b;
#X msg 467 374 2;
#X obj 435 308 r pause-start-toggle;
#X obj 435 419 f;
#X obj 435 480 sel 0 1 2, f 25;
#X obj 514 355 r load-tables;
#X msg 514 376 0;
#X obj 505 663 s oscOut;
#X msg 505 642 /oled/gFillArea 3 0 55 128 10 0;
#X obj 478 688 cg-custom-screen-line 9 55 8;
#X obj 478 614 t a b;
#X msg 484 541 Aux: Playing;
#X msg 533 503 Aux: Cleared;
#X obj 435 440 change -1;
#X msg 483 412 set -1;
#X obj 358 369 t b b;
#X obj 125 592 spigot 1;
#X obj 263 28 r global-edit-mode-on;
#X obj 263 49 sel 0;
#X obj 825 150 del 2000;
#X obj 825 329 s reprint-edit-menu;
#X obj 982 330 r global-bar-count;
#X obj 1027 374 r global-edit-mode-on;
#X obj 1027 395 == 0;
#X obj 982 445 t b a b;
#X obj 1021 579 s oscOut;
#X msg 915 492 /oled/gFlip 3 1;
#X obj 38 125 t b b b b, f 39;
#X obj 982 391 f 1;
#X obj 982 421 spigot 1;
#X msg 1032 495 /oled/gPrintln 3 0 32 8 1 Bar:;
#X msg 1021 468 /oled/gFillArea 3 8 30 36 25 0;
#X obj 852 304 v rec-drop-draw?;
#X msg 852 280 0;
#X obj 825 253 t b b;
#X msg 1001 523 /oled/gPrintln 3 20 39 16 1 \$1;
#X obj 125 613 spigot 1, f 18;
#X obj 257 566 r global-edit-mode-on;
#X obj 257 587 == 0;
#X obj 825 233 spigot 0, f 16;
#X obj 918 196 r global-edit-mode-on;
#X msg 795 395 25;
#X msg 666 482 Samp \$1: \$2% Vol;
#X connect 0 0 1 0;
#X connect 0 0 5 0;
#X connect 1 0 0 1;
#X connect 2 0 0 1;
#X connect 3 0 0 0;
#X connect 4 0 23 0;
#X connect 5 0 52 0;
#X connect 6 0 74 0;
#X connect 7 0 36 0;
#X connect 8 0 34 0;
#X connect 9 0 85 0;
#X connect 10 0 11 0;
#X connect 12 0 42 0;
#X connect 13 0 77 0;
#X connect 13 1 15 0;
#X connect 13 2 14 0;
#X connect 14 0 17 0;
#X connect 15 0 77 0;
#X connect 16 0 17 0;
#X connect 17 0 97 0;
#X connect 18 0 19 0;
#X connect 19 0 20 0;
#X connect 20 0 85 0;
#X connect 22 0 74 1;
#X connect 23 0 3 0;
#X connect 23 1 2 0;
#X connect 24 0 33 0;
#X connect 24 1 33 2;
#X connect 25 0 24 0;
#X connect 26 0 28 0;
#X connect 26 1 21 0;
#X connect 28 0 27 0;
#X connect 30 0 31 0;
#X connect 31 0 32 0;
#X connect 32 0 29 0;
#X connect 33 0 74 0;
#X connect 34 0 35 0;
#X connect 34 1 35 1;
#X connect 34 2 35 2;
#X connect 35 0 74 0;
#X connect 36 1 41 0;
#X connect 37 0 74 0;
#X connect 38 0 39 0;
#X connect 39 0 74 0;
#X connect 40 0 39 1;
#X connect 41 0 38 0;
#X connect 41 1 40 0;
#X connect 41 2 37 0;
#X connect 42 0 13 0;
#X connect 44 0 43 0;
#X connect 46 0 45 0;
#X connect 46 1 44 0;
#X connect 47 0 48 0;
#X connect 48 0 55 0;
#X connect 48 1 49 0;
#X connect 49 0 53 0;
#X connect 49 1 50 0;
#X connect 49 2 51 0;
#X connect 49 3 99 0;
#X connect 50 0 54 0;
#X connect 51 0 54 0;
#X connect 52 0 6 0;
#X connect 52 1 7 0;
#X connect 52 2 38 1;
#X connect 53 0 54 0;
#X connect 54 0 55 1;
#X connect 55 0 100 0;
#X connect 56 0 68 0;
#X connect 57 0 58 0;
#X connect 58 0 59 0;
#X connect 59 0 61 0;
#X connect 60 0 61 0;
#X connect 61 0 71 0;
#X connect 62 0 56 0;
#X connect 62 1 69 0;
#X connect 62 2 70 0;
#X connect 63 0 64 0;
#X connect 64 0 61 1;
#X connect 66 0 65 0;
#X connect 68 0 67 0;
#X connect 68 1 66 0;
#X connect 69 0 68 0;
#X connect 70 0 68 0;
#X connect 71 0 62 0;
#X connect 72 0 71 0;
#X connect 73 0 61 0;
#X connect 73 1 72 0;
#X connect 74 0 94 0;
#X connect 75 0 76 0;
#X connect 76 0 20 0;
#X connect 77 0 16 0;
#X connect 79 0 86 0;
#X connect 80 0 81 0;
#X connect 81 0 87 1;
#X connect 82 0 84 0;
#X connect 82 1 93 0;
#X connect 82 1 88 0;
#X connect 82 2 89 0;
#X connect 84 0 83 0;
#X connect 85 0 4 0;
#X connect 85 1 73 0;
#X connect 85 2 86 0;
#X connect 85 3 10 0;
#X connect 86 0 87 0;
#X connect 87 0 82 0;
#X connect 88 0 83 0;
#X connect 89 0 83 0;
#X connect 91 0 90 0;
#X connect 92 0 78 0;
#X connect 92 1 91 0;
#X connect 93 0 83 0;
#X connect 94 0 26 0;
#X connect 95 0 96 0;
#X connect 96 0 94 1;
#X connect 97 0 92 0;
#X connect 98 0 97 1;
#X connect 99 0 54 0;
#X connect 100 0 46 0;
#X restore 57 151 pd print-keyboard-patterns;
#N canvas 304 180 450 300 cg-pd-library-local 0;
#X obj 502 35 r cgSc-1-slots;
#X obj 72 70 declare -path cg-pd-library-local/sampling;
#X obj 60 98 declare -path cg-pd-library-local/sequencer;
#X obj 59 130 declare -path cg-pd-library-local/externals;
#X obj 59 165 declare -path cg-pd-library-local/metronome;
#X restore 57 103 pd cg-pd-library-local;
#X obj 518 70 r notes;
#X obj 174 560 sel 0, f 8;
#X obj 174 532 array sum note-tracker;
#X obj 174 483 r draw-the-kb;
#X obj 174 504 t b;
#X obj 219 583 t b;
#X msg 219 604 1;
#X obj 219 629 v \$0-playing?;
#N canvas 4 50 450 300 init-samps 0;
#X obj 65 151 f;
#X obj 98 151 + 1;
#X obj 65 122 until;
#X msg 65 75 24;
#X obj 65 101 t a b b, f 12;
#X msg 104 122 1;
#X obj 145 199 tabread note-tracker;
#X obj 64 172 t a b a, f 14;
#X obj 83 219 symbol set;
#X obj 64 251 pack 0 s 0;
#X obj 64 272 outlet;
#X obj 65 50 r load-keys-init;
#X connect 0 0 1 0;
#X connect 0 0 7 0;
#X connect 1 0 0 1;
#X connect 2 0 0 0;
#X connect 3 0 4 0;
#X connect 4 0 2 0;
#X connect 4 1 5 0;
#X connect 5 0 0 1;
#X connect 6 0 9 2;
#X connect 7 0 9 0;
#X connect 7 1 8 0;
#X connect 7 2 6 0;
#X connect 8 0 9 1;
#X connect 9 0 10 0;
#X connect 11 0 3 0;
#X restore 541 209 pd init-samps;
#N canvas 674 226 962 643 1-24 0;
#X obj 68 13 inlet;
#X obj 68 90 % 24;
#X obj 68 70 - 12;
#X obj 68 111 + 1;
#X obj 68 42 unpack, f 12;
#X obj 68 142 pack 0 0, f 12;
#X obj 68 339 outlet;
#X obj 326 357 v global-edit-mode;
#X text 116 340 notes out;
#X msg 326 332 1;
#X obj 113 187 v global-edit-mode;
#X text 233 188 if edit-mode is on block notes;
#X obj 68 233 spigot 1;
#X obj 68 163 t a b;
#X obj 113 208 == 0;
#X obj 287 433 s global-edit-this-samp;
#X obj 287 307 t a b b;
#X msg 306 383 1;
#X obj 306 408 s global-edit-mode-on;
#X obj 68 273 clone -s 1 kb-voice 24;
#X obj 287 276 r kb-notes-say-edit;
#X obj 68 294 unpack 0 0;
#X connect 0 0 4 0;
#X connect 1 0 3 0;
#X connect 2 0 1 0;
#X connect 3 0 5 0;
#X connect 4 0 2 0;
#X connect 4 1 5 1;
#X connect 5 0 13 0;
#X connect 9 0 7 0;
#X connect 10 0 14 0;
#X connect 12 0 19 0;
#X connect 13 0 12 0;
#X connect 13 1 10 0;
#X connect 14 0 12 1;
#X connect 16 0 15 0;
#X connect 16 1 17 0;
#X connect 16 2 9 0;
#X connect 17 0 18 0;
#X connect 19 0 21 0;
#X connect 20 0 16 0;
#X connect 21 0 6 0;
#X restore 518 146 pd 1-24 modulo;
#X obj 739 307 sel 1;
#X msg 766 350 0;
#X obj 766 371 v global-edit-mode;
#X msg 739 398 0;
#X obj 739 422 s global-edit-mode-on;
#N canvas 4 50 831 682 print-edit-menu 0;
#X obj 130 299 text get save-keys;
#X obj 130 272 - 1;
#X obj 130 320 unpack 0 0 0 0, f 54;
#X obj 130 31 r global-edit-this-samp;
#X msg 325 162 /oled/gClear 3 1;
#X obj 325 186 s oscOut;
#X obj 416 454 text get note-div;
#X obj 130 382 text get bar-pattern;
#X obj 237 461 text get rate;
#X obj 130 409 list prepend Bar:;
#X obj 237 518 list prepend Pattern:;
#X msg 451 389 Swing: \$1%;
#X obj 416 504 list prepend Note:;
#X obj 416 533 s screenLine2;
#X obj 237 547 s screenLine3;
#X obj 130 437 s screenLine4;
#X obj 451 411 s screenLine5;
#X obj 317 292 cg-custom-screen-line 10 10 8;
#X obj 141 69 r reprint-edit-menu;
#X obj 416 475 unpack s 0;
#X obj 130 137 t f f b, f 33;
#X obj 130 103 f;
#X obj 451 366 i;
#X obj 451 345 * 100;
#X obj 284 372 + 1;
#X obj 237 482 list split 1;
#X obj 130 341 + 1;
#X msg 318 268 Editing: Key \$1;
#X connect 0 0 2 0;
#X connect 1 0 0 0;
#X connect 2 0 26 0;
#X connect 2 1 24 0;
#X connect 2 2 6 0;
#X connect 2 3 23 0;
#X connect 3 0 21 0;
#X connect 4 0 5 0;
#X connect 6 0 19 0;
#X connect 7 0 9 0;
#X connect 8 0 25 0;
#X connect 9 0 15 0;
#X connect 10 0 14 0;
#X connect 11 0 16 0;
#X connect 12 0 13 0;
#X connect 18 0 21 0;
#X connect 19 0 12 0;
#X connect 20 0 1 0;
#X connect 20 1 27 0;
#X connect 20 2 4 0;
#X connect 21 0 20 0;
#X connect 22 0 11 0;
#X connect 23 0 22 0;
#X connect 24 0 8 0;
#X connect 25 0 10 0;
#X connect 26 0 7 0;
#X connect 27 0 17 0;
#X restore 56 224 pd print-edit-menu;
#X obj 829 630 r midi;
#X obj 829 731 noteout 0 0 0;
#X obj 829 671 unpack 0 0;
#X obj 829 692 + 59;
#X obj 905 704 r midiOutCh;
#X obj 884 415 cg-toggle;
#X text 870 629 midi notes out;
#N canvas 4 54 969 819 edit-preview 0;
#X obj 184 567 f \$1;
#X obj 610 438 r bpm;
#X obj 610 485 /;
#X msg 610 463 240000 \$1;
#X obj 544 493 t b a;
#X obj 544 541 pack, f 5;
#X obj 544 517 f;
#X obj 544 562 /;
#N canvas 911 382 721 557 calculate-composition 0;
#X text 358 431 3 inputs:;
#X text 365 456 Bar Pattern \, Note Length \, and Note Pattern;
#X obj 89 432 cg-note-trig;
#X obj 4 163 r beat-clock;
#X obj 89 483 sel 1;
#X obj 89 504 outlet;
#X obj 4 354 spigot 0;
#X obj 115 21 inlet;
#X text 157 21 on/off;
#X obj 340 251 text get note-div;
#X obj 224 218 text get rate;
#X obj 261 137 text get save-keys;
#X obj 261 50 - 1;
#X obj 340 272 unpack s 0;
#X obj 553 350 outlet;
#X obj 261 158 unpack 0 0 0 0;
#X obj 644 313 outlet;
#X obj 261 28 inlet;
#X text 305 26 key to preview;
#X obj 115 42 t f f;
#X obj 261 71 f;
#X obj 478 85 r global-note-div-f;
#X obj 478 106 change -1;
#X obj 478 167 t b;
#X obj 566 114 r k2-notes;
#X obj 566 135 change -1;
#X obj 478 188 del 5;
#X obj 618 153 r k4-swing;
#X obj 618 174 change -1;
#X msg 184 358 switch \$1;
#X connect 2 0 4 0;
#X connect 3 0 6 0;
#X connect 4 0 5 0;
#X connect 6 0 2 0;
#X connect 7 0 19 0;
#X connect 9 0 13 0;
#X connect 10 0 2 1;
#X connect 11 0 15 0;
#X connect 12 0 20 0;
#X connect 13 1 14 0;
#X connect 13 1 2 2;
#X connect 15 1 10 0;
#X connect 15 2 9 0;
#X connect 15 3 16 0;
#X connect 17 0 12 0;
#X connect 19 0 6 1;
#X connect 19 1 29 0;
#X connect 20 0 11 0;
#X connect 21 0 22 0;
#X connect 22 0 23 0;
#X connect 23 0 26 0;
#X connect 24 0 25 0;
#X connect 25 0 23 0;
#X connect 26 0 20 0;
#X connect 27 0 28 0;
#X connect 28 0 23 0;
#X connect 29 0 2 3;
#X restore 184 450 pd calculate-composition;
#X f 55;
#X obj 584 563 t b a;
#X obj 584 537 r global-length;
#X obj 184 730 s compose-notes;
#X obj 544 593 * 1, f 8;
#X obj 184 629 cg-make-note 60 100 500, f 60;
#N canvas 4 50 565 635 swing 0;
#X obj 29 4 inlet;
#X text 85 2 Bang;
#X text 137 62 ***delay every other bang by ticks;
#X obj 67 76 + 1;
#X obj 67 97 == 1;
#X obj 29 75 f 0;
#X obj 29 156 sel 0 1, f 52;
#X text 39 175 no 'swing';
#X obj 29 467 outlet;
#X obj 97 221 r beat-clock;
#X obj 130 362 + 1;
#X obj 97 362 f 0;
#X obj 97 383 sel, f 25;
#X obj 330 315 f, f 5;
#X obj 97 280 spigot 0;
#X msg 112 333 0;
#X obj 97 404 t b b;
#X msg 219 262 0;
#X obj 183 187 t b b b, f 25;
#X msg 183 232 1;
#X obj 97 301 t b;
#X obj 408 79 inlet;
#X text 442 81 swing amount;
#X obj 408 100 * 90;
#X obj 408 121 i;
#X connect 0 0 5 0;
#X connect 3 0 4 0;
#X connect 4 0 5 1;
#X connect 5 0 3 0;
#X connect 5 0 6 0;
#X connect 6 0 8 0;
#X connect 6 1 18 0;
#X connect 9 0 14 0;
#X connect 10 0 11 1;
#X connect 11 0 10 0;
#X connect 11 0 12 0;
#X connect 12 0 16 0;
#X connect 13 0 12 1;
#X connect 14 0 20 0;
#X connect 15 0 11 1;
#X connect 16 0 8 0;
#X connect 16 1 17 0;
#X connect 17 0 14 1;
#X connect 18 0 19 0;
#X connect 18 1 15 0;
#X connect 18 2 13 0;
#X connect 19 0 14 1;
#X connect 20 0 11 0;
#X connect 21 0 23 0;
#X connect 23 0 24 0;
#X connect 24 0 13 1;
#X restore 184 498 pd swing;
#X f 55;
#X obj 38 124 r global-edit-mode-on;
#X obj 753 40 r beat-clock;
#X obj 753 133 sel 0;
#X obj 753 111 spigot 0;
#X obj 798 69 r \$0-metro;
#X obj 753 154 t b b b;
#X msg 792 177 stop;
#X obj 772 200 del 100;
#X obj 753 275 s led;
#X obj 772 221 v led-status;
#X obj 199 172 r pause-start-toggle;
#X obj 184 192 f;
#X obj 184 219 sel 0;
#X obj 184 123 r global-edit-this-samp;
#X msg 38 166 0;
#X obj 184 392 t f f;
#X msg 753 250 3, f 2;
#X obj 38 145 sel 0, f 6;
#X obj 184 144 t b f, f 12;
#X obj 184 251 f, f 11;
#X msg 184 342 1;
#X obj 184 321 t b f, f 15;
#X obj 205 537 r global-edit-this-samp;
#X connect 0 0 13 0;
#X connect 1 0 3 0;
#X connect 2 0 6 0;
#X connect 3 0 2 0;
#X connect 4 0 6 0;
#X connect 4 1 5 1;
#X connect 5 0 7 0;
#X connect 6 0 5 0;
#X connect 7 0 12 0;
#X connect 8 0 14 0;
#X connect 8 1 4 0;
#X connect 8 2 14 1;
#X connect 9 0 12 0;
#X connect 9 1 12 1;
#X connect 10 0 9 0;
#X connect 12 0 13 2;
#X connect 13 0 11 0;
#X connect 14 0 0 0;
#X connect 15 0 32 0;
#X connect 16 0 18 0;
#X connect 17 0 20 0;
#X connect 18 0 17 0;
#X connect 19 0 18 1;
#X connect 20 0 31 0;
#X connect 20 1 22 0;
#X connect 20 2 21 0;
#X connect 21 0 22 0;
#X connect 22 0 24 0;
#X connect 24 0 23 0;
#X connect 25 0 26 1;
#X connect 26 0 27 0;
#X connect 27 0 34 0;
#X connect 28 0 33 0;
#X connect 29 0 30 0;
#X connect 30 0 8 0;
#X connect 30 1 18 1;
#X connect 31 0 23 0;
#X connect 32 0 29 0;
#X connect 33 0 26 0;
#X connect 33 1 34 1;
#X connect 34 0 36 0;
#X connect 35 0 30 0;
#X connect 36 0 35 0;
#X connect 36 1 8 1;
#X connect 37 0 0 1;
#X restore 55 433 pd edit-preview;
#X obj 1001 338 t b b;
#X msg 1001 359 0;
#X obj 781 132 r fs;
#X obj 633 31 notein, f 8;
#N canvas 6 50 1280 956 chsel 0;
#X obj 187 417 pack;
#X obj 207 372 f;
#X obj 168 372 f;
#X obj 237 123 f;
#X obj 152 87 t b f;
#X obj 237 145 sel 1;
#X obj 237 325 t b b;
#X obj 342 33 r midiCh;
#X obj 117 35 inlet;
#X obj 199 37 inlet;
#X obj 274 39 inlet;
#X obj 186 444 outlet;
#X obj 325 173 spigot;
#X obj 364 129 == 0;
#X obj 302 246 bng 15 250 50 0 empty empty empty 17 7 0 10 -262144
-1 -1;
#X connect 0 0 11 0;
#X connect 1 0 0 1;
#X connect 2 0 0 0;
#X connect 3 0 5 0;
#X connect 4 0 3 0;
#X connect 4 1 2 1;
#X connect 5 0 6 0;
#X connect 5 1 12 0;
#X connect 6 0 2 0;
#X connect 6 1 1 0;
#X connect 7 0 5 1;
#X connect 7 0 13 0;
#X connect 8 0 4 0;
#X connect 9 0 1 1;
#X connect 10 0 3 1;
#X connect 12 0 14 0;
#X connect 13 0 12 1;
#X connect 14 0 6 0;
#X restore 633 63 pd chsel;
#X obj 714 38 r global-edit-mode-on;
#X text 726 22 midi notes in;
#X obj 904 190 v global-edit-mode;
#X obj 739 281 spigot 0, f 13;
#X obj 739 162 t a a b, f 28;
#X obj 904 212 t a a;
#X obj 931 232 == 0;
#X obj 739 329 t b b;
#X obj 884 254 spigot 1;
#X obj 1057 562 r pause-start-toggle;
#X obj 1057 583 sel 0 1;
#X obj 1155 618 r clear-composition;
#X msg 1081 651 250;
#X text 1106 651 start;
#X msg 1057 677 252;
#X text 1086 678 stop;
#X obj 1101 753 midiout;
#X msg 1155 643 255;
#X obj 1076 605 t b b;
#X text 1184 643 reset;
#X obj 1081 108 midirealtimein;
#X obj 1081 129 sel 250 252 255, f 28;
#X msg 1081 150 1;
#X msg 1136 151 0;
#X obj 1081 185 f;
#X obj 930 437 r zero-2-toggle;
#X obj 633 202 % 24;
#X obj 633 182 - 12;
#X obj 633 223 + 1;
#X obj 633 154 unpack, f 12;
#X obj 633 254 pack 0 0, f 12;
#X obj 633 275 stripnote;
#X obj 714 59 == 0;
#X obj 633 84 spigot 1, f 14;
#X obj 884 286 cg-short-long-b 4000;
#X connect 3 0 0 0;
#X connect 3 0 1 0;
#X connect 5 0 2 0;
#X connect 8 0 3 0;
#X connect 9 0 8 0;
#X connect 10 0 52 0;
#X connect 16 0 15 0;
#X connect 19 0 28 0;
#X connect 20 1 24 0;
#X connect 21 0 20 0;
#X connect 22 0 23 0;
#X connect 23 0 21 0;
#X connect 24 0 25 0;
#X connect 25 0 26 0;
#X connect 27 0 9 0;
#X connect 28 0 9 0;
#X connect 29 0 55 0;
#X connect 30 0 31 0;
#X connect 32 0 33 0;
#X connect 35 0 37 0;
#X connect 37 0 38 0;
#X connect 37 1 36 1;
#X connect 38 0 36 0;
#X connect 39 0 36 2;
#X connect 40 0 12 0;
#X connect 43 0 44 0;
#X connect 43 1 13 0;
#X connect 44 0 40 0;
#X connect 45 0 52 0;
#X connect 46 0 47 0;
#X connect 46 1 47 1;
#X connect 46 2 47 2;
#X connect 47 0 81 0;
#X connect 48 0 80 0;
#X connect 50 0 53 0;
#X connect 51 0 29 0;
#X connect 52 0 51 0;
#X connect 52 1 56 0;
#X connect 52 2 50 0;
#X connect 53 0 51 1;
#X connect 53 1 54 0;
#X connect 54 0 56 1;
#X connect 55 0 32 0;
#X connect 55 1 30 0;
#X connect 56 0 82 0;
#X connect 57 0 58 0;
#X connect 58 0 62 0;
#X connect 58 1 66 0;
#X connect 59 0 65 0;
#X connect 60 0 64 0;
#X connect 62 0 64 0;
#X connect 65 0 64 0;
#X connect 66 0 65 0;
#X connect 66 1 60 0;
#X connect 68 0 69 0;
#X connect 69 0 70 0;
#X connect 69 1 71 0;
#X connect 69 2 43 0;
#X connect 70 0 72 0;
#X connect 71 0 72 0;
#X connect 72 0 40 0;
#X connect 73 0 12 0;
#X connect 74 0 76 0;
#X connect 75 0 74 0;
#X connect 76 0 78 0;
#X connect 77 0 75 0;
#X connect 77 1 78 1;
#X connect 78 0 79 0;
#X connect 79 0 9 0;
#X connect 80 0 81 1;
#X connect 81 0 77 0;
#X connect 82 0 40 0;
#X connect 82 1 43 0;
