#N canvas 4 50 555 362 10;
#X obj 219 180 highpass, f 18;
#X obj 239 439 lowpass, f 18;
#X floatatom 239 310 0 0 0 0 - - -;
#X floatatom 282 378 0 0 0 0 - - -;
#X obj 282 401 trigger bang float;
#X obj 242 285 hsl 128 17 20 20000 1 1 empty empty frequency 5 9 0
10 -203904 -1 -1 11311 0;
#X obj 285 356 hsl 128 17 0 100 0 1 empty empty bandwidth 5 9 0 10
-261682 -1 -1 7620 0;
#X floatatom 219 81 0 0 0 0 - - -;
#X floatatom 275 112 0 0 0 0 - - -;
#X obj 275 135 trigger bang float;
#X obj 222 56 hsl 128 17 20 20000 1 1 empty empty frequency 5 9 0 10
-203904 -1 -1 0 0;
#X obj 278 90 hsl 128 17 0 100 0 1 empty empty bandwidth 5 9 0 10 -261682
-1 -1 7620 0;
#X obj 113 473 biquad~;
#X obj 114 260 biquad~;
#X obj 239 352 line;
#X obj 219 130 line;
#X obj 115 215 *~ 1;
#X obj 116 71 inlet~;
#X obj 112 523 outlet~;
#X obj 721 21 r p2k1;
#X obj 721 43 detent 0.05;
#X floatatom 721 65 5 0 0 0 - - -, f 5;
#X floatatom 811 83 5 0 0 0 - - -, f 5;
#X floatatom 811 124 5 0 0 0 - - -, f 5;
#X obj 811 143 * 127;
#X obj 811 165 int;
#X floatatom 811 187 5 0 0 0 - - -, f 5;
#X obj 811 102 * 2.23333;
#X floatatom 699 113 5 0 0 0 - - -, f 5;
#X obj 699 184 int;
#X floatatom 699 236 5 0 0 0 - - -, f 5;
#X obj 699 91 * 2.23333;
#X msg 758 238 0 127;
#X obj 758 260 unpack 0 0;
#X obj 699 132 * 107;
#X obj 699 154 + 20;
#X obj 699 322 mtof;
#X obj 809 322 mtof;
#X obj 699 206 expr 147 - $f1;
#X msg 219 108 \$1 150;
#X msg 239 333 \$1 150;
#X obj 503 29 loadbang;
#X msg 503 51 60;
#X text 947 115 clicky but nice sounding filter;
#X connect 0 0 13 0;
#X connect 1 0 12 0;
#X connect 2 0 40 0;
#X connect 3 0 4 0;
#X connect 4 0 1 0;
#X connect 4 1 1 1;
#X connect 5 0 2 0;
#X connect 6 0 3 0;
#X connect 7 0 39 0;
#X connect 8 0 9 0;
#X connect 9 0 0 0;
#X connect 9 1 0 1;
#X connect 10 0 7 0;
#X connect 11 0 8 0;
#X connect 12 0 18 0;
#X connect 13 0 12 0;
#X connect 14 0 1 0;
#X connect 15 0 0 0;
#X connect 16 0 13 0;
#X connect 17 0 16 0;
#X connect 19 0 20 0;
#X connect 20 0 21 0;
#X connect 20 1 32 0;
#X connect 20 2 22 0;
#X connect 21 0 31 0;
#X connect 22 0 27 0;
#X connect 23 0 24 0;
#X connect 24 0 25 0;
#X connect 25 0 26 0;
#X connect 26 0 37 0;
#X connect 27 0 23 0;
#X connect 28 0 34 0;
#X connect 29 0 38 0;
#X connect 30 0 36 0;
#X connect 31 0 28 0;
#X connect 32 0 33 0;
#X connect 33 0 37 0;
#X connect 33 1 36 0;
#X connect 34 0 35 0;
#X connect 35 0 29 0;
#X connect 36 0 5 0;
#X connect 37 0 10 0;
#X connect 38 0 30 0;
#X connect 39 0 15 0;
#X connect 40 0 14 0;
#X connect 41 0 42 0;
#X connect 42 0 11 0;
#X connect 42 0 6 0;
