#N canvas 643 221 1030 521 10;
#X obj 362 227 vcf~, f 11;
#X obj 392 158 mtof;
#X obj 392 180 lop~ 5;
#X obj 362 327 outlet~;
#X obj 461 -34 detent 0.05;
#X obj 392 -36 * 108;
#X obj 392 -14 + 20;
#X obj 524 8 * 44.222;
#X msg 491 -9 0;
#X obj 461 9 * 22.222;
#X msg 440 168 \$1 50;
#X obj 440 190 line;
#X obj 362 118 inlet~;
#X obj 392 -109 r p2k1;
#X text 438 253 lo-pass;
#X text 296 252 bandpass;
#X obj 410 252 *~;
#X obj 493 195 lop~ 5;
#X msg 543 37 0;
#X msg 467 41 1;
#X obj 362 249 *~ 1;
#X connect 0 0 20 0;
#X connect 0 1 16 0;
#X connect 1 0 2 0;
#X connect 2 0 0 1;
#X connect 4 0 9 0;
#X connect 4 0 19 0;
#X connect 4 1 8 0;
#X connect 4 1 18 0;
#X connect 4 2 7 0;
#X connect 4 2 18 0;
#X connect 5 0 6 0;
#X connect 6 0 1 0;
#X connect 7 0 10 0;
#X connect 8 0 10 0;
#X connect 9 0 10 0;
#X connect 10 0 11 0;
#X connect 11 0 0 2;
#X connect 12 0 0 0;
#X connect 13 0 5 0;
#X connect 13 0 4 0;
#X connect 16 0 3 0;
#X connect 17 0 16 1;
#X connect 18 0 17 0;
#X connect 19 0 17 0;
#X connect 20 0 3 0;
