#N canvas 539 177 1181 694 10;
#X floatatom 163 270 5 0 0 0 - - -, f 5;
#X obj 163 296 s num-down;
#N canvas 814 71 793 973 arp 0;
#X obj 223 873 pack 0 100;
#X obj 225 918 outlet;
#X obj 76 747 tabread notes-increasing;
#X obj 151 705 random;
#X obj 140 613 spigot 0;
#X obj 198 545 r num-down;
#X obj 193 577 t f f;
#X obj 219 802 + 12;
#X obj 135 654 t b b;
#X obj 273 775 * 12;
#X obj 277 749 random 2;
#X obj 137 509 metro 100;
#X obj 232 265 snapshot~;
#X obj 218 36 metro 10;
#X obj 122 3 loadbang;
#X msg 135 51 1;
#X floatatom 290 527 5 0 0 0 - - -, f 5;
#X floatatom 232 178 5 0 0 0 - - -, f 5;
#X obj 223 840 - 24;
#X obj 469 576 vsl 15 128 0 1 0 0 empty empty empty 0 -9 0 10 -262144
-1 -1 3381 1;
#X obj 232 236 phasor~ 0.03;
#X obj 232 204 sig~;
#X obj 236 453 * 500;
#X obj 233 330 t f f;
#X obj 238 407 *;
#X obj 336 437 * 2000;
#X obj 236 476 + 50;
#X obj 232 150 * 0.5;
#X obj 503 208 > 0.5;
#X obj 503 230 tgl 15 0 empty empty empty 17 7 0 10 -262144 -1 -1 0
1;
#X obj 232 302 spigot 1;
#X obj 434 331 spigot 0;
#X obj 454 281 ==;
#X obj 431 162 snapshot~;
#X obj 437 133 +~ 0.5;
#X obj 437 111 *~ 0.5;
#X floatatom 450 233 5 0 0 0 - - -, f 5;
#X obj 444 77 osc~;
#X obj 502 185 r gen-\$1-osc-sel;
#X obj 232 123 r gen-\$1-lfo, f 14;
#X obj 332 413 r gen-\$1-spacing;
#X connect 0 0 1 0;
#X connect 2 0 7 0;
#X connect 3 0 2 0;
#X connect 4 0 8 0;
#X connect 5 0 6 0;
#X connect 6 0 4 1;
#X connect 6 1 3 1;
#X connect 7 0 18 0;
#X connect 8 0 3 0;
#X connect 8 1 10 0;
#X connect 9 0 7 1;
#X connect 10 0 9 0;
#X connect 11 0 4 0;
#X connect 12 0 30 0;
#X connect 13 0 12 0;
#X connect 13 0 33 0;
#X connect 14 0 15 0;
#X connect 15 0 13 0;
#X connect 15 0 11 0;
#X connect 15 0 12 0;
#X connect 17 0 21 0;
#X connect 17 0 37 0;
#X connect 18 0 0 0;
#X connect 20 0 12 0;
#X connect 21 0 20 0;
#X connect 22 0 26 0;
#X connect 23 0 24 0;
#X connect 23 1 24 1;
#X connect 24 0 22 0;
#X connect 24 0 19 0;
#X connect 25 0 22 1;
#X connect 26 0 11 1;
#X connect 26 0 16 0;
#X connect 27 0 17 0;
#X connect 28 0 29 0;
#X connect 29 0 32 0;
#X connect 29 0 31 1;
#X connect 30 0 23 0;
#X connect 31 0 22 0;
#X connect 31 0 19 0;
#X connect 32 0 30 1;
#X connect 33 0 31 0;
#X connect 33 0 36 0;
#X connect 34 0 33 0;
#X connect 35 0 34 0;
#X connect 37 0 35 0;
#X connect 38 0 28 0;
#X connect 39 0 27 0;
#X connect 40 0 25 0;
#X restore 164 340 pd arp;
#N canvas 1006 50 656 618 countnotes 0;
#X obj 104 289 > 0;
#X obj 104 316 sel 1;
#X obj 158 352 + 1, f 4;
#X obj 110 353 f 0;
#X obj 141 130 until;
#X obj 142 174 f;
#X obj 174 173 + 1, f 4;
#X msg 319 198 0, f 2;
#X msg 142 105 8, f 2;
#X obj 143 35 r countem;
#X obj 89 395 f 0;
#X obj 89 458 outlet;
#X obj 83 200 t f f;
#X obj 36 244 sel 7;
#X obj 30 313 bng 15 250 50 0 empty empty empty 17 7 0 10 -262144 -1
-1;
#X obj 201 422 print;
#X obj 106 234 tabread notes-from-poly;
#X obj 143 81 t b b;
#X connect 0 0 1 0;
#X connect 1 0 3 0;
#X connect 2 0 3 1;
#X connect 2 0 10 1;
#X connect 3 0 2 0;
#X connect 4 0 5 0;
#X connect 5 0 6 0;
#X connect 5 0 12 0;
#X connect 6 0 5 1;
#X connect 7 0 5 1;
#X connect 7 0 3 1;
#X connect 7 0 10 1;
#X connect 8 0 4 0;
#X connect 9 0 17 0;
#X connect 10 0 11 0;
#X connect 12 0 13 0;
#X connect 12 1 16 0;
#X connect 13 0 10 0;
#X connect 14 0 10 0;
#X connect 16 0 0 0;
#X connect 17 0 8 0;
#X connect 17 1 7 0;
#X restore 163 244 pd countnotes;
#N canvas 48 59 1683 898 note-arrays 0;
#N canvas 0 50 450 278 (subpatch) 0;
#X array notes-from-poly 8 float 2;
#X coords 0 127 8 0 200 140 1 0 0;
#X restore 884 117 graph;
#N canvas 0 50 450 278 (subpatch) 0;
#X array notes-squashed 8 float 3;
#A 0 0 0 0 0 0 0 0 0;
#X coords 0 127 8 0 200 140 1 0 0;
#X restore 883 299 graph;
#N canvas 0 50 450 278 (subpatch) 0;
#X array notes-increasing 8 float 3;
#A 0 0 0 0 0 0 0 0 0;
#X coords 0 127 8 0 200 140 1 0 0;
#X restore 886 675 graph;
#N canvas 133 50 826 891 array-sort 0;
#X obj 263 111 until;
#X obj 263 153 f;
#X obj 296 154 + 1, f 4;
#X msg 321 91 0, f 2;
#X obj 296 21 bng 15 250 50 0 empty empty empty 17 7 0 10 -262144 -1
-1;
#X obj 312 267 f;
#X obj 264 232 t f b;
#X obj 262 182 t f f;
#X obj 249 452 f;
#X floatatom 240 515 5 0 0 0 - - -, f 5;
#X obj 306 399 sel 1;
#X obj 214 485 f;
#X obj 173 537 f;
#X obj 213 553 t b b;
#X obj 323 560 t b f;
#X obj 250 580 f;
#X obj 343 -90 until;
#X obj 344 -46 f;
#X obj 376 -47 + 1, f 4;
#X msg 401 -110 0, f 2;
#X obj 345 -139 t b b;
#X obj 329 -11 t b f;
#X obj 214 -206 r reorder;
#X obj 252 48 t b b b b;
#X msg 314 585 0, f 2;
#X msg 357 89 0;
#X obj 217 333 expr if ($f1 > $f2 \, $f1 \, $f2) \; if ($f1 > $f2 \,
1 \, 0);
#X msg 344 -115 8, f 2;
#X msg 263 83 8, f 2;
#X obj 170 -206 bng 15 250 50 0 empty empty empty 17 7 0 10 -262144
-1 -1;
#X obj 264 210 tabread notes-squashed;
#X obj 314 621 tabwrite notes-squashed;
#X obj 139 648 tabwrite notes-decreasing;
#X text 419 137 sort array a into b. a gets clobbered in the process
probably a much better way to do this ...;
#X obj 204 -173 t b b b;
#X connect 0 0 1 0;
#X connect 1 0 2 0;
#X connect 1 0 7 0;
#X connect 2 0 1 1;
#X connect 3 0 1 1;
#X connect 4 0 23 0;
#X connect 5 0 26 1;
#X connect 6 0 26 0;
#X connect 6 1 5 0;
#X connect 7 0 30 0;
#X connect 7 1 8 1;
#X connect 8 0 11 1;
#X connect 9 0 14 0;
#X connect 10 0 8 0;
#X connect 11 0 9 0;
#X connect 11 0 13 0;
#X connect 12 0 32 0;
#X connect 13 0 12 0;
#X connect 13 1 15 0;
#X connect 14 0 24 0;
#X connect 14 1 31 1;
#X connect 15 0 32 1;
#X connect 16 0 17 0;
#X connect 17 0 18 0;
#X connect 17 0 21 0;
#X connect 18 0 17 1;
#X connect 19 0 17 1;
#X connect 20 0 27 0;
#X connect 20 1 19 0;
#X connect 21 0 4 0;
#X connect 21 1 15 1;
#X connect 22 0 34 0;
#X connect 23 0 11 0;
#X connect 23 1 28 0;
#X connect 23 2 3 0;
#X connect 23 3 25 0;
#X connect 24 0 31 0;
#X connect 25 0 5 1;
#X connect 26 0 5 1;
#X connect 26 0 12 1;
#X connect 26 1 10 0;
#X connect 27 0 16 0;
#X connect 28 0 0 0;
#X connect 29 0 34 0;
#X connect 30 0 6 0;
#X connect 34 2 20 0;
#X restore 765 533 pd array-sort;
#X text 1125 180 array1 is raw data from poly (notes with 0 velocity
are given 0 pitch);
#X text 1100 554 here are the notes sorted...;
#N canvas 0 50 450 278 (subpatch) 0;
#X array notes-decreasing 8 float 2;
#X coords 0 127 8 0 200 140 1 0 0;
#X restore 884 492 graph;
#N canvas 167 50 726 731 increasing 0;
#X obj 156 260 until;
#X obj 157 304 f;
#X obj 189 303 + 1, f 4;
#X msg 214 240 0, f 2;
#X obj 155 236 f 0;
#X obj 156 357 - 0;
#X obj 157 408 abs;
#X obj 157 326 t f f;
#X obj 266 471 f;
#X obj 156 469 t f b;
#X obj 320 197 r num-down;
#X obj 156 379 + 1;
#X obj 416 331 until;
#X obj 416 373 f;
#X obj 449 374 + 1, f 4;
#X msg 474 311 0, f 2;
#X obj 416 276 t b b;
#X obj 424 398 t b f;
#X msg 415 423 0, f 2;
#X msg 416 303 8, f 2;
#X obj 155 197 t b b b;
#X obj 156 437 tabread notes-decreasing;
#X obj 152 508 tabwrite notes-increasing;
#X obj 413 448 tabwrite notes-increasing;
#X obj 153 67 inlet;
#X connect 0 0 1 0;
#X connect 1 0 2 0;
#X connect 1 0 7 0;
#X connect 2 0 1 1;
#X connect 3 0 1 1;
#X connect 4 0 0 0;
#X connect 5 0 11 0;
#X connect 6 0 21 0;
#X connect 7 0 5 0;
#X connect 7 1 8 1;
#X connect 8 0 22 1;
#X connect 9 0 22 0;
#X connect 9 1 8 0;
#X connect 10 0 4 1;
#X connect 10 0 5 1;
#X connect 11 0 6 0;
#X connect 12 0 13 0;
#X connect 13 0 14 0;
#X connect 13 0 17 0;
#X connect 14 0 13 1;
#X connect 15 0 13 1;
#X connect 16 0 19 0;
#X connect 16 1 15 0;
#X connect 17 0 18 0;
#X connect 17 1 23 1;
#X connect 18 0 23 0;
#X connect 19 0 12 0;
#X connect 20 0 4 0;
#X connect 20 1 3 0;
#X connect 20 2 16 0;
#X connect 21 0 9 0;
#X connect 24 0 20 0;
#X restore 767 736 pd increasing;
#N canvas 8 50 1000 647 array-copy 0;
#X obj 228 194 until;
#X obj 228 236 f;
#X obj 261 237 + 1, f 4;
#X msg 286 174 0, f 2;
#X obj 227 98 bng 15 250 50 0 empty empty empty 17 7 0 10 -262144 -1
-1;
#X obj 406 272 until;
#X obj 406 314 f;
#X obj 439 315 + 1, f 4;
#X msg 464 252 0, f 2;
#X obj 406 217 t b b;
#X obj 414 339 t b f;
#X msg 405 364 0, f 2;
#X obj 227 121 t b b b;
#X msg 228 166 8, f 2;
#X msg 406 244 8, f 2;
#X text 324 97 this removes 0 elements (or actually just moves the
following elements over 1 place);
#X text 508 296 first zero out the destination array;
#X obj 228 258 t f f;
#X obj 227 75 r copy;
#X obj 408 385 tabwrite notes-squashed;
#X obj 229 297 tabread notes-from-poly;
#X obj 247 410 tabwrite notes-squashed;
#X connect 0 0 1 0;
#X connect 1 0 2 0;
#X connect 1 0 17 0;
#X connect 2 0 1 1;
#X connect 3 0 1 1;
#X connect 4 0 12 0;
#X connect 5 0 6 0;
#X connect 6 0 7 0;
#X connect 6 0 10 0;
#X connect 7 0 6 1;
#X connect 8 0 6 1;
#X connect 9 0 14 0;
#X connect 9 1 8 0;
#X connect 10 0 11 0;
#X connect 10 1 19 1;
#X connect 11 0 19 0;
#X connect 12 0 13 0;
#X connect 12 1 3 0;
#X connect 12 2 9 0;
#X connect 13 0 0 0;
#X connect 14 0 5 0;
#X connect 17 0 20 0;
#X connect 17 1 21 1;
#X connect 18 0 4 0;
#X connect 20 0 21 0;
#X restore 762 357 pd array-copy;
#X text 1097 717 then increasing;
#X text 1110 354 array squash pulls out 0 notes. this array gets clobbered
by the sorting function so it always looks blank;
#X obj 767 709 r others;
#X obj 162 194 r notes;
#X obj 162 273 unpack 0 0;
#X obj 162 333 pack 0 0 0;
#X obj 162 390 unpack;
#X obj 190 524 s reorder;
#X obj 162 298 poly 8 1, f 10;
#X obj 123 524 s others;
#N canvas 10 50 740 589 format_for_array 0;
#X obj 111 44 inlet;
#X obj 102 128 f;
#X obj 144 151 sel 0;
#X msg 121 188 0;
#X obj 167 181 t b b;
#X obj 137 126 f;
#X obj 79 268 t f b;
#X obj 75 336 pack 0 0;
#X obj 85 75 unpack 0 0 0;
#X obj 41 132 t b f;
#X obj 117 304 f;
#X obj 78 389 outlet;
#X obj 133 274 - 1;
#X text 169 280 array index starts at 0 \, poly index starts at 1;
#X text 223 150 if the velocity is > 0 \, outputs note number. If =
0 \, it outputs 0 for note number;
#X connect 0 0 8 0;
#X connect 1 0 6 0;
#X connect 2 0 3 0;
#X connect 2 1 4 0;
#X connect 3 0 6 0;
#X connect 4 0 1 0;
#X connect 5 0 2 0;
#X connect 6 0 7 0;
#X connect 6 1 10 0;
#X connect 7 0 11 0;
#X connect 8 0 9 0;
#X connect 8 1 1 1;
#X connect 8 2 5 1;
#X connect 9 0 5 0;
#X connect 9 1 12 0;
#X connect 10 0 7 1;
#X connect 12 0 10 1;
#X restore 162 362 pd format_for_array;
#X obj 265 524 s copy;
#X obj 397 524 tabwrite notes-from-poly;
#X obj 162 443 t b b b b f, f 34;
#X obj 319 524 s countem;
#X obj 265 202 sel 1;
#X obj 265 158 r fs;
#N canvas 626 141 886 799 latch 0;
#X obj 43 371 latch-notes;
#X obj 263 200 bng 15 250 50 0 empty empty empty 17 7 0 10 -262144
-1 -1;
#X obj 263 232 tgl 15 0 empty empty empty 17 7 0 10 -262144 -1 -1 1
1;
#X obj 173 298 spigot 1;
#X obj 43 298 spigot 0;
#X obj 263 258 == 0;
#X obj 309 312 bng 15 250 50 0 empty empty empty 17 7 0 10 -262144
-1 -1;
#X obj 263 160 t b b, f 7;
#X obj 263 368 sel 0 1;
#X obj 263 134 inlet;
#X obj 43 626 outlet;
#X obj 43 106 inlet;
#X text 311 135 bang enable / disables latch;
#X text 44 53 incoming notes get sent through latch if enabled \, or
directly to output if disabled;
#X text 323 367 Update Screen & LED;
#X msg 494 435 0;
#X obj 645 565 s gen-\$1-led;
#X msg 273 545 2;
#X obj 603 683 s gen-\$1-latch-label;
#X msg 283 475 Latch Notes : OFF \;;
#X msg 257 578 Latch Notes : ON \;;
#X connect 0 0 10 0;
#X connect 1 0 2 0;
#X connect 2 0 5 0;
#X connect 2 0 4 1;
#X connect 3 0 10 0;
#X connect 4 0 0 0;
#X connect 5 0 3 1;
#X connect 5 0 8 0;
#X connect 6 0 0 1;
#X connect 7 0 1 0;
#X connect 7 1 6 0;
#X connect 8 0 20 0;
#X connect 8 0 17 0;
#X connect 8 1 19 0;
#X connect 8 1 15 0;
#X connect 9 0 7 0;
#X connect 11 0 4 0;
#X connect 11 0 3 0;
#X connect 15 0 16 0;
#X connect 17 0 16 0;
#X connect 19 0 18 0;
#X connect 20 0 18 0;
#X restore 162 239 pd latch;
#X obj 319 171 r gen-\$1-latch;
#X connect 11 0 7 0;
#X connect 12 0 26 0;
#X connect 13 0 17 0;
#X connect 13 1 17 1;
#X connect 14 0 19 0;
#X connect 15 0 22 0;
#X connect 15 1 21 1;
#X connect 17 0 14 0;
#X connect 17 1 14 1;
#X connect 17 2 14 2;
#X connect 19 0 15 0;
#X connect 22 0 18 0;
#X connect 22 1 16 0;
#X connect 22 2 20 0;
#X connect 22 3 23 0;
#X connect 22 4 21 0;
#X connect 24 0 26 1;
#X connect 25 0 24 0;
#X connect 26 0 13 0;
#X connect 27 0 24 0;
#X restore 164 212 pd note-arrays;
#X text 164 116 notes are put into an array and then sorted in increasing
/ decreasing order. the 'arp' subpatch then cycles randomly through
them;
#X obj 311 431 i;
#X obj 311 378 * 2000;
#X obj 311 400 + 20;
#X obj 519 224 * 0.5;
#X obj 519 252 * 100;
#X obj 519 280 i;
#X obj 163 377 unpack 0 0;
#X obj 162 413 makenote 100 100;
#X obj 162 448 pack;
#X msg 312 466 Note Length \$1 ms;
#X msg 519 334 LFO Rate \$1 cHz;
#X obj 704 277 i;
#X obj 704 249 * 101;
#X msg 704 331 Spacing \$1 %;
#X obj 889 249 > 0.5;
#X obj 889 277 sel 0 1;
#X msg 889 342 Ramp;
#X msg 943 342 Smooth;
#X obj 518 197 r gen-\$1-lfo;
#X obj 518 358 s gen-\$1-lfo-label;
#X obj 704 355 s gen-\$1-spacing-label;
#X obj 702 194 r gen-\$1-spacing;
#X obj 888 193 r gen-\$1-osc-sel;
#X obj 889 391 s gen-\$1-osc-sel-label;
#X obj 312 343 r gen-\$1-note-length;
#X obj 310 490 s gen-\$1-note-length-label;
#X obj 160 478 s gen-\$1-notes-out;
#X connect 0 0 1 0;
#X connect 2 0 12 0;
#X connect 3 0 0 0;
#X connect 6 0 15 0;
#X connect 7 0 8 0;
#X connect 8 0 6 0;
#X connect 8 0 13 2;
#X connect 9 0 10 0;
#X connect 10 0 11 0;
#X connect 11 0 16 0;
#X connect 12 0 13 0;
#X connect 13 0 14 0;
#X connect 13 1 14 1;
#X connect 14 0 32 0;
#X connect 15 0 31 0;
#X connect 16 0 25 0;
#X connect 17 0 19 0;
#X connect 18 0 17 0;
#X connect 19 0 26 0;
#X connect 20 0 21 0;
#X connect 21 0 22 0;
#X connect 21 1 23 0;
#X connect 22 0 29 0;
#X connect 23 0 29 0;
#X connect 24 0 9 0;
#X connect 27 0 18 0;
#X connect 28 0 20 0;
#X connect 30 0 7 0;
