#N canvas 4 50 1265 660 10;
#X obj 56 128 pack 0 0 0, f 11;
#X obj 992 803 i;
#X obj 992 780 + 5;
#X obj 992 758 * 2000;
#X text 607 545 smooth knobs 1-3 \, send param updates to screen;
#X obj 898 336 sel 0 1 2 3, f 60;
#X text 24 19 basic polyphonic patch with 8 voices;
#X obj 56 154 route 1 2 3 4, f 40;
#X obj 214 249 *~ 0.6;
#X obj 694 354 s rampsyn-\$1-waveform-local;
#X obj 526 659 r rampsyn-\$1-rampd;
#X obj 539 798 s rampsyn-\$1-rampd-local;
#X obj 525 878 s rampsyn-\$1-rampd-label;
#X obj 526 684 * 1000;
#X obj 739 676 int;
#X obj 739 620 r rampsyn-\$1-rampamt;
#X obj 739 861 s rampsyn-\$1-rampamt-label;
#X obj 798 747 s rampsyn-\$1-rampamt-local;
#X msg 992 853 Decay Time \$1 ms;
#X msg 525 854 Ramp Decay \$1 ms;
#X obj 992 665 r rampsyn-\$1-decay;
#X obj 1017 828 s rampsyn-\$1-decay-local;
#X obj 992 879 s rampsyn-\$1-decay-label;
#X obj 525 710 + 1;
#X obj 525 732 int;
#X obj 56 75 r rampsyn-\$1-notes-in;
#X obj 213 335 s~ rampsyn-\$1-outL;
#X obj 364 336 s~ rampsyn-\$1-outR;
#X obj 898 217 r rampsyn-\$1-waveform;
#X obj 898 239 * 4;
#X obj 898 261 int;
#X obj 898 454 s rampsyn-\$1-waveform-label;
#X obj 1002 398 s rampsyn-\$1-waveform-label;
#X obj 1106 460 s rampsyn-\$1-waveform-label;
#X obj 1210 392 s rampsyn-\$1-waveform-label;
#X msg 898 428 Sine Wave;
#X msg 1002 372 Square Wave;
#X msg 1210 366 Triangle Wave;
#X msg 1106 434 Sawtooth Wave;
#X obj 56 101 poly 4 1, f 11;
#X obj 694 322 change -1;
#X obj 835 177 loadbang;
#X msg 835 199 3;
#X obj 285 704 + 1;
#X obj 285 726 int;
#X obj 286 653 r rampsyn-\$1-rampa;
#X obj 299 792 s rampsyn-\$1-rampa-local;
#X obj 285 872 s rampsyn-\$1-rampa-label;
#X obj 286 678 * 500;
#X msg 285 848 Ramp attack \$1 ms;
#X msg 796 199 1;
#X msg 785 225 0;
#X msg 813 162 2;
#X obj 739 645 * 48;
#X obj 739 698 / 12;
#X obj 197 181 voice \$1;
#X msg 739 837 Ramp Depth \$1 x;
#X obj 739 770 * 100;
#X obj 739 792 int;
#X obj 739 814 * 0.01;
#X obj 126 181 voice \$1;
#X obj 56 180 voice \$1;
#X obj 267 181 voice \$1;
#X connect 0 0 7 0;
#X connect 1 0 18 0;
#X connect 1 0 21 0;
#X connect 2 0 1 0;
#X connect 3 0 2 0;
#X connect 5 0 35 0;
#X connect 5 1 36 0;
#X connect 5 2 38 0;
#X connect 5 3 37 0;
#X connect 7 0 61 0;
#X connect 7 1 60 0;
#X connect 7 2 55 0;
#X connect 7 3 62 0;
#X connect 8 0 26 0;
#X connect 8 0 27 0;
#X connect 10 0 13 0;
#X connect 13 0 23 0;
#X connect 14 0 54 0;
#X connect 15 0 53 0;
#X connect 18 0 22 0;
#X connect 19 0 12 0;
#X connect 20 0 3 0;
#X connect 23 0 24 0;
#X connect 24 0 11 0;
#X connect 24 0 19 0;
#X connect 25 0 39 0;
#X connect 28 0 29 0;
#X connect 29 0 30 0;
#X connect 30 0 5 0;
#X connect 30 0 40 0;
#X connect 35 0 31 0;
#X connect 36 0 32 0;
#X connect 37 0 34 0;
#X connect 38 0 33 0;
#X connect 39 0 0 0;
#X connect 39 1 0 1;
#X connect 39 2 0 2;
#X connect 40 0 9 0;
#X connect 41 0 42 0;
#X connect 42 0 30 0;
#X connect 43 0 44 0;
#X connect 44 0 49 0;
#X connect 44 0 46 0;
#X connect 45 0 48 0;
#X connect 48 0 43 0;
#X connect 49 0 47 0;
#X connect 50 0 30 0;
#X connect 51 0 30 0;
#X connect 52 0 30 0;
#X connect 53 0 14 0;
#X connect 54 0 17 0;
#X connect 54 0 57 0;
#X connect 55 0 8 0;
#X connect 56 0 16 0;
#X connect 57 0 58 0;
#X connect 58 0 59 0;
#X connect 59 0 56 0;
#X connect 60 0 8 0;
#X connect 61 0 8 0;
#X connect 62 0 8 0;
