#N canvas 236 58 1475 910 10;
#X obj 309 708 throw~ outL;
#X obj 420 708 throw~ outR;
#X obj 152 487 pack 0 0 0, f 11;
#X obj 152 513 route 1 2 3 4 5 6 7 8, f 81;
#X obj 1193 603 r knob4;
#X obj 1032 665 i;
#X obj 1191 680 i;
#X obj 1032 741 s screenLine3;
#X obj 1191 756 s screenLine4;
#X msg 1191 729 4: Decay Time \$1 ms;
#X obj 848 197 r aux;
#X obj 828 263 i 0, f 5;
#X obj 898 263 + 1;
#X floatatom 828 333 5 0 0 0 - - -, f 5;
#X obj 848 233 sel 1;
#X obj 828 354 s led;
#X obj 1192 658 + 5;
#X obj 1192 636 * 2000;
#X obj 1032 688 change -1;
#X obj 1191 703 change -1;
#X obj 738 334 s waveform;
#X obj 828 289 % 4;
#X obj 828 311 + 2;
#X obj 828 166 loadbang;
#X obj 888 336 sel 0 1 2 3, f 60;
#X obj 993 398 s screenLine5;
#X obj 888 454 s screenLine5;
#X obj 1096 460 s screenLine5;
#X obj 1200 392 s screenLine5;
#X obj 899 197 r fs;
#X text 502 490 aircraft carrier;
#X obj 926 786 send~ f;
#X obj 925 730 sig~;
#X obj 924 761 lop~ 5;
#X obj 925 659 / 100;
#X obj 925 681 mtof;
#X obj 925 703 / 8.1785;
#X obj 922 634 * 2400;
#X obj 923 602 r knob1;
#X obj 1030 104 loadbang;
#X obj 784 740 change -1;
#X msg 784 766 1: Tune \$1 cents;
#X obj 784 790 s screenLine1;
#X obj 783 713 i;
#X obj 152 418 pack 0 100;
#X obj 152 460 poly 8 1, f 11;
#X obj 1035 604 r knob3;
#X msg 1032 715 3: Roll Speed \$1 ms;
#X obj 1032 640 * 200;
#X obj 152 552 voice;
#X text 929 263 the aux button and fs changes waveform;
#X msg 888 428 Sine Wave;
#X msg 991 370 Square Wave;
#X msg 1097 434 Sawtooth Wave;
#X msg 1200 366 Triangle Wave;
#X msg 1033 125 \; screenLine1 1: Tune \; screenLine2 2: Range \; screenLine3
3: Roll Speed \; screenLine4 4: Decay \; screenLine5 Aux: Waveform
\;;
#X text 1171 317 battle ship;
#X text 458 106 over a range selected by knob 2 and a rate by knob
3;
#X text 1061 560 screen updates;
#X obj 293 553 voice;
#X obj 434 554 voice;
#X obj 363 553 voice;
#X obj 222 553 voice;
#X obj 504 555 voice;
#X obj 645 554 voice;
#X obj 575 553 voice;
#X obj 232 22 r notes;
#X obj 135 22 r knob3;
#X floatatom 232 80 5 0 0 0 - - -, f 5;
#X obj 232 54 stripnote;
#X obj 135 117 * 200;
#X obj 135 52 t f f;
#X obj 135 74 *;
#X floatatom 223 295 5 0 0 0 - - -, f 5;
#X obj 242 175 bng 15 250 50 0 empty empty empty 17 7 0 10 -262144
-1 -1;
#X obj 118 227 delay;
#X floatatom 135 192 5 0 0 0 - - -, f 5;
#X obj 264 247 bng 15 250 50 0 empty empty empty 17 7 0 10 -262144
-1 -1;
#X obj 155 379 +;
#X obj 335 241 bng 15 250 50 0 empty empty empty 17 7 0 10 -262144
-1 -1;
#X obj 282 297 spigot 0;
#X msg 335 267 0;
#X msg 292 138 1;
#X obj 232 107 t b f b b;
#X obj 245 210 counter-up 5;
#X obj 346 72 r knob2;
#X obj 346 116 i;
#X obj 346 138 change;
#X obj 346 94 * 5;
#X obj 135 148 + 10;
#X obj 354 173 + 1;
#X obj 224 317 * 12;
#X text 462 69 an incoming note is played in successivley increasing
octaves;
#X obj 419 185 change -1;
#X obj 420 238 s screenLine2;
#X msg 419 212 3: Range \$1 Oct;
#X connect 2 0 3 0;
#X connect 3 0 49 0;
#X connect 3 1 62 0;
#X connect 3 2 59 0;
#X connect 3 3 61 0;
#X connect 3 4 60 0;
#X connect 3 5 63 0;
#X connect 3 6 65 0;
#X connect 3 7 64 0;
#X connect 4 0 17 0;
#X connect 5 0 18 0;
#X connect 6 0 19 0;
#X connect 9 0 8 0;
#X connect 10 0 14 0;
#X connect 11 0 12 0;
#X connect 11 0 21 0;
#X connect 12 0 11 1;
#X connect 13 0 15 0;
#X connect 14 0 11 0;
#X connect 16 0 6 0;
#X connect 17 0 16 0;
#X connect 18 0 47 0;
#X connect 19 0 9 0;
#X connect 21 0 22 0;
#X connect 21 0 20 0;
#X connect 21 0 24 0;
#X connect 22 0 13 0;
#X connect 23 0 11 0;
#X connect 24 0 51 0;
#X connect 24 1 52 0;
#X connect 24 2 53 0;
#X connect 24 3 54 0;
#X connect 29 0 14 0;
#X connect 32 0 33 0;
#X connect 33 0 31 0;
#X connect 34 0 35 0;
#X connect 35 0 36 0;
#X connect 36 0 32 0;
#X connect 37 0 34 0;
#X connect 37 0 43 0;
#X connect 38 0 37 0;
#X connect 39 0 55 0;
#X connect 40 0 41 0;
#X connect 41 0 42 0;
#X connect 43 0 40 0;
#X connect 44 0 45 0;
#X connect 45 0 2 0;
#X connect 45 1 2 1;
#X connect 45 2 2 2;
#X connect 46 0 48 0;
#X connect 47 0 7 0;
#X connect 48 0 5 0;
#X connect 49 0 0 0;
#X connect 49 0 1 0;
#X connect 51 0 26 0;
#X connect 52 0 25 0;
#X connect 53 0 27 0;
#X connect 54 0 28 0;
#X connect 59 0 1 0;
#X connect 59 0 0 0;
#X connect 60 0 0 0;
#X connect 60 0 1 0;
#X connect 61 0 0 0;
#X connect 61 0 1 0;
#X connect 62 0 0 0;
#X connect 62 0 1 0;
#X connect 63 0 0 0;
#X connect 63 0 1 0;
#X connect 64 0 0 0;
#X connect 64 0 1 0;
#X connect 65 0 0 0;
#X connect 65 0 1 0;
#X connect 66 0 69 0;
#X connect 67 0 71 0;
#X connect 68 0 83 0;
#X connect 69 0 68 0;
#X connect 70 0 89 0;
#X connect 71 0 72 0;
#X connect 71 1 72 1;
#X connect 72 0 70 0;
#X connect 73 0 91 0;
#X connect 74 0 84 0;
#X connect 75 0 74 0;
#X connect 76 0 75 1;
#X connect 77 0 80 0;
#X connect 78 0 44 0;
#X connect 79 0 81 0;
#X connect 80 0 75 0;
#X connect 81 0 80 1;
#X connect 82 0 80 1;
#X connect 83 0 74 0;
#X connect 83 1 78 1;
#X connect 83 2 84 1;
#X connect 83 3 82 0;
#X connect 84 0 73 0;
#X connect 84 0 77 0;
#X connect 84 1 79 0;
#X connect 85 0 88 0;
#X connect 86 0 87 0;
#X connect 87 0 90 0;
#X connect 87 0 93 0;
#X connect 88 0 86 0;
#X connect 89 0 76 0;
#X connect 90 0 84 2;
#X connect 91 0 78 0;
#X connect 93 0 95 0;
#X connect 95 0 94 0;
