#N canvas 221 50 1261 658 10;
#X obj 149 238 pack f f f;
#X obj 149 263 route 1 2 3 4;
#X obj 156 208 poly 4 1;
#X obj 495 326 send~ f;
#X obj 495 217 sig~;
#X obj 90 115 r notes;
#X obj 494 248 lop~ 5;
#X obj 156 156 unpack 0 0;
#X obj 99 397 throw~ outL;
#X obj 199 396 throw~ outR;
#X obj 156 181 - 24;
#X obj 673 140 sig~;
#X obj 672 169 lop~ 5;
#X obj 672 195 send~ offset;
#X obj 673 117 * 2;
#X obj 835 141 sig~;
#X obj 835 169 lop~ 5;
#X obj 835 196 send~ resonance;
#X obj 835 118 * 4;
#X obj 1020 174 sig~;
#X obj 1019 207 lop~ 5;
#X obj 1019 232 s~ cutoff;
#X obj 1015 118 * 2000;
#X obj 1015 143 + 100;
#X obj 156 115 r notes_seq;
#X obj 419 495 loadbang;
#X obj 188 342 *~ 2;
#X obj 548 231 r fs;
#X obj 548 253 + 1;
#X floatatom 548 276 5 0 0 0 - - -, f 5;
#X obj 495 300 *~ 1;
#X obj 1029 536 sequencer2;
#X obj 249 115 r zero_notes;
#X obj 646 272 i;
#X obj 646 245 * 100;
#X obj 436 372 i;
#X obj 812 266 i;
#X obj 812 241 * 100;
#X obj 975 267 i;
#X obj 73 301 simple;
#X obj 143 300 simple;
#X obj 213 300 simple;
#X obj 284 300 simple;
#X obj 975 291 change -1;
#X obj 812 289 change -1;
#X obj 436 394 change -1;
#X obj 646 295 change -1;
#X text 68 87 notes from keyboard and sequencer;
#X obj 495 146 / 100;
#X obj 495 168 mtof;
#X obj 495 190 / 8.1785;
#X obj 494 118 * 2400;
#X obj 496 58 r knob1;
#X msg 436 420 1: Tune \$1 cents;
#X obj 437 445 s screenLine1;
#X obj 673 92 r knob2;
#X msg 646 321 2: Osc Ratio \$1 %;
#X obj 646 346 s screenLine2;
#X obj 835 86 r knob3;
#X msg 812 315 3: Resonance \$1 %;
#X obj 812 341 s screenLine3;
#X msg 975 315 4: Cutoff \$1 Hz;
#X obj 975 339 s screenLine4;
#X obj 1015 92 r knob4;
#X msg 419 517 \; screenLine1 1: Tune \; screenLine2 2: Osc Ratio \;
screenLine3 3: Resonance \; screenLine4 4: Cutoff \; screenLine5 Aux:
Sequencer \;;
#X connect 0 0 1 0;
#X connect 1 0 39 0;
#X connect 1 1 40 0;
#X connect 1 2 41 0;
#X connect 1 3 42 0;
#X connect 2 0 0 0;
#X connect 2 1 0 1;
#X connect 2 2 0 2;
#X connect 4 0 6 0;
#X connect 5 0 7 0;
#X connect 6 0 30 0;
#X connect 7 0 10 0;
#X connect 7 1 2 1;
#X connect 10 0 2 0;
#X connect 11 0 12 0;
#X connect 12 0 13 0;
#X connect 14 0 11 0;
#X connect 14 0 34 0;
#X connect 15 0 16 0;
#X connect 16 0 17 0;
#X connect 18 0 15 0;
#X connect 19 0 20 0;
#X connect 20 0 21 0;
#X connect 22 0 23 0;
#X connect 23 0 19 0;
#X connect 23 0 38 0;
#X connect 24 0 7 0;
#X connect 25 0 64 0;
#X connect 26 0 9 0;
#X connect 26 0 8 0;
#X connect 27 0 28 0;
#X connect 28 0 29 0;
#X connect 29 0 30 1;
#X connect 30 0 3 0;
#X connect 32 0 7 0;
#X connect 33 0 46 0;
#X connect 34 0 33 0;
#X connect 35 0 45 0;
#X connect 36 0 44 0;
#X connect 37 0 36 0;
#X connect 38 0 43 0;
#X connect 39 0 26 0;
#X connect 40 0 26 0;
#X connect 41 0 26 0;
#X connect 42 0 26 0;
#X connect 43 0 61 0;
#X connect 44 0 59 0;
#X connect 45 0 53 0;
#X connect 46 0 56 0;
#X connect 48 0 49 0;
#X connect 49 0 50 0;
#X connect 50 0 4 0;
#X connect 51 0 35 0;
#X connect 51 0 48 0;
#X connect 52 0 51 0;
#X connect 53 0 54 0;
#X connect 55 0 14 0;
#X connect 56 0 57 0;
#X connect 58 0 18 0;
#X connect 58 0 37 0;
#X connect 59 0 60 0;
#X connect 61 0 62 0;
#X connect 63 0 22 0;
