#N canvas 217 53 1261 658 10;
#X obj 149 238 pack f f f;
#X obj 149 263 route 1 2 3 4;
#X obj 156 208 poly 4 1;
#X obj 840 301 send~ f;
#X obj 840 192 sig~;
#X obj 90 115 r notes;
#X obj 839 223 lop~ 5;
#X obj 840 113 r knob3;
#X obj 156 156 unpack 0 0;
#X obj 99 397 throw~ outL;
#X obj 199 396 throw~ outR;
#X obj 840 169 + 1;
#X obj 156 181 - 24;
#X obj 1019 160 sig~;
#X obj 1018 189 lop~ 5;
#X obj 1018 215 send~ offset;
#X obj 1019 112 r knob4;
#X obj 840 141 * 3;
#X obj 1019 137 * 2;
#X obj 642 168 sig~;
#X obj 642 196 lop~ 5;
#X obj 642 113 r knob2;
#X obj 642 223 send~ resonance;
#X obj 642 145 * 4;
#X obj 461 114 r knob1;
#X obj 466 196 sig~;
#X obj 465 229 lop~ 5;
#X obj 465 254 s~ cutoff;
#X obj 461 140 * 2000;
#X obj 461 165 + 100;
#X obj 156 115 r notes_seq;
#X obj 419 495 loadbang;
#X obj 188 342 *~ 2;
#X obj 893 206 r fs;
#X obj 893 228 + 1;
#X floatatom 893 251 5 0 0 0 - - -, f 5;
#X obj 840 275 *~ 1;
#X obj 1029 536 sequencer2;
#X obj 249 115 r zero_notes;
#X obj 992 292 i;
#X obj 992 265 * 100;
#X obj 992 366 s screenLine4;
#X obj 788 363 i;
#X obj 788 435 s screenLine3;
#X obj 788 340 * 1200;
#X msg 788 411 3: Tune \$1 cents;
#X obj 619 293 i;
#X obj 619 268 * 100;
#X obj 619 368 s screenLine2;
#X msg 619 342 2: Resonance \$1 %;
#X obj 421 289 i;
#X obj 421 361 s screenLine1;
#X msg 421 337 1: Cutoff \$1 Hz;
#X obj 73 301 simple;
#X obj 143 300 simple;
#X obj 213 300 simple;
#X obj 284 300 simple;
#X obj 421 313 change -1;
#X obj 619 316 change -1;
#X obj 788 385 change -1;
#X obj 992 315 change -1;
#X text 68 87 notes from keyboard and sequencer;
#X msg 419 517 \; screenLine1 1: Cutoff \; screenLine2 2: Resonance
\; screenLine3 3: Pitch \; screenLine4 4: Osc Ratio \; screenLine5
Aux: Sequencer \;;
#X msg 992 341 4: Osc Ratio \$1 %;
#X connect 0 0 1 0;
#X connect 1 0 53 0;
#X connect 1 1 54 0;
#X connect 1 2 55 0;
#X connect 1 3 56 0;
#X connect 2 0 0 0;
#X connect 2 1 0 1;
#X connect 2 2 0 2;
#X connect 4 0 6 0;
#X connect 5 0 8 0;
#X connect 6 0 36 0;
#X connect 7 0 17 0;
#X connect 8 0 12 0;
#X connect 8 1 2 1;
#X connect 11 0 4 0;
#X connect 12 0 2 0;
#X connect 13 0 14 0;
#X connect 14 0 15 0;
#X connect 16 0 18 0;
#X connect 17 0 11 0;
#X connect 17 0 44 0;
#X connect 18 0 13 0;
#X connect 18 0 40 0;
#X connect 19 0 20 0;
#X connect 20 0 22 0;
#X connect 21 0 23 0;
#X connect 21 0 47 0;
#X connect 23 0 19 0;
#X connect 24 0 28 0;
#X connect 25 0 26 0;
#X connect 26 0 27 0;
#X connect 28 0 29 0;
#X connect 29 0 25 0;
#X connect 29 0 50 0;
#X connect 30 0 8 0;
#X connect 31 0 62 0;
#X connect 32 0 10 0;
#X connect 32 0 9 0;
#X connect 33 0 34 0;
#X connect 34 0 35 0;
#X connect 35 0 36 1;
#X connect 36 0 3 0;
#X connect 38 0 8 0;
#X connect 39 0 60 0;
#X connect 40 0 39 0;
#X connect 42 0 59 0;
#X connect 44 0 42 0;
#X connect 45 0 43 0;
#X connect 46 0 58 0;
#X connect 47 0 46 0;
#X connect 49 0 48 0;
#X connect 50 0 57 0;
#X connect 52 0 51 0;
#X connect 53 0 32 0;
#X connect 54 0 32 0;
#X connect 55 0 32 0;
#X connect 56 0 32 0;
#X connect 57 0 52 0;
#X connect 58 0 49 0;
#X connect 59 0 45 0;
#X connect 60 0 63 0;
#X connect 63 0 41 0;
