#N canvas 288 50 1082 940 10;
#X obj 198 131 mtof;
#X obj 198 167 sig~;
#X text 275 38 note messages;
#X text 244 132 outputs midi note number from left outlet;
#X obj 270 831 *~;
#X msg 847 637 0 \$1;
#X obj 198 70 unpack;
#X obj 847 131 sel 0;
#X text 245 95 selects note off messages so we can set decay time later
;
#X text 244 166 convert it to signal so frequency will be constantly
updated;
#X obj 198 32 inlet;
#X obj 271 885 outlet~;
#X text 762 614 decay time;
#X obj 890 724 *~;
#X obj 198 95 - 24;
#X obj 437 513 phasor~;
#X obj 235 421 *~;
#X obj 425 227 r~ knob2-smooth;
#X obj 847 613 f 100;
#X text 429 364 rate;
#X text 558 458 depth;
#X text 684 195 rate;
#X obj 625 245 bng 15 250 50 0 empty empty empty 17 7 0 10 -262144
-1 -1;
#X obj 271 857 *~ 0.25;
#X obj 159 346 lop~ 5;
#X obj 688 365 random 100;
#X obj 627 571 * 500, f 9;
#X text 339 579 decay time;
#X obj 576 714 vline~;
#X obj 503 740 *~;
#X obj 593 185 loadbang;
#X obj 47 363 *~;
#X obj 187 492 lop~ 5;
#X obj 424 263 *~ 10;
#X obj 685 294 metro 200;
#X obj 576 641 f, f 9;
#X obj 444 565 *~ 1200;
#X obj 938 130 - 1;
#X obj 938 152 abs;
#X obj 940 180 t f f;
#X obj 940 202 *;
#X obj 940 277 * 100;
#X obj 937 239 + 0.001;
#X obj 359 366 lop~ 5;
#X obj 44 577 osc~;
#X obj 240 689 osc~;
#X obj 445 664 osc~;
#X obj 268 201 r~ knob1-smooth;
#X msg 576 675 1 3 \, 0 \$1 3;
#X obj 627 541 r knob3-smooth;
#X obj 267 248 wrap~;
#X obj 267 269 *~ 12;
#X obj 938 104 r knob4-smooth;
#X obj 267 227 *~ 100;
#X floatatom 949 312 5 0 0 0 - - -;
#X obj 919 466 / 127;
#X obj 919 487 sqrt;
#X msg 913 637 \$1 5;
#X obj 890 692 vline~;
#X obj 892 440 t b f;
#X obj 684 390 lop~ 5, f 7;
#X obj 925 361 s \$0-slide;
#X obj 232 308 r \$0-slide;
#X obj 397 334 r \$0-slide;
#X obj 744 403 r \$0-slide;
#X obj 211 459 r \$0-slide;
#X connect 0 0 1 0;
#X connect 1 0 16 0;
#X connect 4 0 23 0;
#X connect 5 0 58 0;
#X connect 6 0 14 0;
#X connect 6 1 7 0;
#X connect 7 0 18 0;
#X connect 7 1 59 0;
#X connect 10 0 6 0;
#X connect 13 0 4 1;
#X connect 14 0 0 0;
#X connect 15 0 36 0;
#X connect 16 0 32 0;
#X connect 16 0 31 0;
#X connect 17 0 33 0;
#X connect 18 0 5 0;
#X connect 22 0 34 0;
#X connect 23 0 11 0;
#X connect 24 0 31 1;
#X connect 25 0 60 0;
#X connect 26 0 35 1;
#X connect 28 0 29 1;
#X connect 29 0 4 0;
#X connect 30 0 22 0;
#X connect 31 0 44 0;
#X connect 32 0 45 0;
#X connect 33 0 43 0;
#X connect 34 0 25 0;
#X connect 35 0 48 0;
#X connect 36 0 46 0;
#X connect 37 0 38 0;
#X connect 38 0 39 0;
#X connect 39 0 40 0;
#X connect 39 1 40 1;
#X connect 40 0 42 0;
#X connect 41 0 54 0;
#X connect 41 0 61 0;
#X connect 42 0 41 0;
#X connect 43 0 16 1;
#X connect 44 0 4 0;
#X connect 45 0 4 0;
#X connect 46 0 29 0;
#X connect 47 0 53 0;
#X connect 48 0 28 0;
#X connect 49 0 26 0;
#X connect 50 0 51 0;
#X connect 51 0 24 0;
#X connect 52 0 37 0;
#X connect 53 0 50 0;
#X connect 55 0 56 0;
#X connect 56 0 57 0;
#X connect 57 0 58 0;
#X connect 58 0 13 1;
#X connect 58 0 13 0;
#X connect 59 0 35 0;
#X connect 59 1 55 0;
#X connect 60 0 15 0;
#X connect 62 0 24 1;
#X connect 63 0 43 1;
#X connect 64 0 60 1;
#X connect 65 0 32 1;
