#N canvas 30 50 1503 1019 10;
#X obj 291 -92 r notes;
#X obj 291 -61 stripnote;
#X obj 291 6 % 24;
#X obj 291 -16 abs;
#X obj 291 -39 expr if ($f1 > 59 \, $f1 - 60 \, $f1 - 12);
#X obj 526 712 hip~ 5;
#X text 589 686 cut DC;
#X obj 193 105 r sixteenths;
#X obj 291 127 tgl 15 0 empty empty empty 17 7 0 10 -262144 -1 -1 1
1;
#X obj 193 325 spigot, f 13;
#X obj 193 378 counter-up 16, f 35;
#X obj 355 276 sel 1;
#X obj 323 242 t f f;
#X obj 314 306 t b b, f 10;
#X obj 453 308 r num-sixteenths;
#X obj 435 338 i;
#X obj 352 64 r cancel;
#X msg 352 87 0;
#X obj 71 337 sel 1;
#X obj 71 378 s start-metro;
#X obj 291 154 t f f;
#X text 476 175 loop the sound the presc;
#X text 576 -39 allow all midi notes to trigger;
#X obj 505 235 i;
#X obj 505 258 sel 1;
#X obj 505 281 s i-am-playing;
#X obj 505 196 r are-you-playing;
#X obj 274 530 makenote 100 200;
#X obj 274 499 + 60;
#X obj 274 564 noteout 1;
#X obj 528 569 *~, f 16;
#X obj 638 493 vline~;
#X msg 638 452 1 5;
#X msg 677 452 0 5;
#X obj 677 410 del 25;
#X obj 291 29 sel \$1;
#X text 334 29 (key number);
#X obj 274 470 f \$1;
#X obj 527 601 delay2sec \$1, f 31;
#X obj 526 757 throw~ delay_voice_out;
#X obj 716 294 *;
#X obj 716 242 r knob3;
#X obj 716 316 * 100;
#X obj 662 183 s ppb-tracker;
#X obj 232 144 r pause;
#X obj 662 155 list prepend \$1;
#X msg 890 306 1 \$1;
#X obj 890 328 /;
#X obj 890 350 rmstodb;
#X obj 890 372 / 100;
#X obj 890 255 r pb2-voice-sum;
#X obj 890 394 lop~ 100;
#X obj 638 515 *~;
#X obj 638 537 *~;
#X obj 716 343 *;
#X obj 793 242 loadbang;
#X obj 793 264 \$1;
#X obj 793 286 + 1;
#X obj 718 365 f;
#X obj 193 177 spigot 1;
#X obj 435 405 t b b b, f 23;
#X obj 466 470 r~ inL;
#X obj 527 470 r~ inR;
#X obj 466 492 *~ 0.75;
#X obj 527 492 *~ 0.75;
#X obj 741 571 min 0.9;
#X obj 890 277 * 4;
#X obj 716 264 t f f;
#X obj 527 643 *~, f 51;
#X obj 527 676 *~ 0.25;
#X obj 741 505 * 1000;
#X obj 740 527 % 333;
#X obj 741 549 / 333;
#X connect 0 0 1 0;
#X connect 1 0 4 0;
#X connect 2 0 35 0;
#X connect 3 0 2 0;
#X connect 4 0 3 0;
#X connect 5 0 39 0;
#X connect 7 0 59 0;
#X connect 8 0 20 0;
#X connect 8 0 23 1;
#X connect 8 0 45 0;
#X connect 9 0 10 0;
#X connect 10 1 60 0;
#X connect 11 0 13 0;
#X connect 12 0 9 1;
#X connect 12 1 11 0;
#X connect 13 0 10 1;
#X connect 13 1 15 0;
#X connect 14 0 15 1;
#X connect 15 0 10 2;
#X connect 16 0 17 0;
#X connect 17 0 8 0;
#X connect 18 0 19 0;
#X connect 20 0 18 0;
#X connect 20 1 12 0;
#X connect 23 0 24 0;
#X connect 24 0 25 0;
#X connect 26 0 23 0;
#X connect 27 0 29 0;
#X connect 27 1 29 1;
#X connect 28 0 27 0;
#X connect 30 0 38 0;
#X connect 31 0 52 0;
#X connect 31 0 52 1;
#X connect 32 0 31 0;
#X connect 33 0 31 0;
#X connect 34 0 33 0;
#X connect 35 0 8 0;
#X connect 37 0 28 0;
#X connect 38 0 68 0;
#X connect 40 0 42 0;
#X connect 40 0 70 0;
#X connect 41 0 67 0;
#X connect 42 0 54 0;
#X connect 44 0 59 1;
#X connect 45 0 43 0;
#X connect 46 0 47 0;
#X connect 47 0 48 0;
#X connect 48 0 49 0;
#X connect 49 0 51 0;
#X connect 50 0 66 0;
#X connect 51 0 68 1;
#X connect 52 0 53 0;
#X connect 52 0 53 1;
#X connect 53 0 30 1;
#X connect 54 0 58 0;
#X connect 55 0 56 0;
#X connect 56 0 57 0;
#X connect 57 0 54 1;
#X connect 58 0 34 1;
#X connect 58 0 38 1;
#X connect 59 0 9 0;
#X connect 60 0 37 0;
#X connect 60 1 32 0;
#X connect 60 2 34 0;
#X connect 61 0 63 0;
#X connect 62 0 64 0;
#X connect 63 0 30 0;
#X connect 64 0 30 0;
#X connect 65 0 38 2;
#X connect 66 0 46 0;
#X connect 67 0 40 0;
#X connect 67 1 40 1;
#X connect 68 0 69 0;
#X connect 69 0 5 0;
#X connect 70 0 71 0;
#X connect 71 0 72 0;
#X connect 72 0 65 0;
