#N canvas 1060 284 539 678 10;
#X obj 164 130 inlet~;
#X obj 164 486 outlet~;
#X text 217 129 signal;
#X obj 334 130 inlet;
#X obj 164 321 *~;
#X obj 334 185 *;
#X obj 164 385 clip~ -0.9 0.9;
#X text 343 108 amt;
#X obj 334 248 lop~ 5;
#X obj 334 270 +~ 1;
#X obj 334 225 * 800;
#X obj 163 423 *~ 0.025;
#X obj 334 152 t f f;
#X connect 0 0 4 0;
#X connect 3 0 12 0;
#X connect 4 0 6 0;
#X connect 5 0 10 0;
#X connect 6 0 11 0;
#X connect 8 0 9 0;
#X connect 9 0 4 1;
#X connect 10 0 8 0;
#X connect 11 0 1 0;
#X connect 12 0 5 0;
#X connect 12 1 5 1;
