#N canvas 360 50 1291 939 10;
#X obj 559 543 phasor~, f 11;
#X obj 558 567 s~ \$0-phase;
#X obj 233 308 r \$0-chunk-size;
#X obj 395 551 r~ \$0-phase;
#X obj 180 265 r~ \$0-phase;
#X obj 255 599 r \$0-pointer;
#X obj 27 12 inlet;
#X obj 618 24 inlet;
#X obj 618 123 s \$0-retrigger;
#X obj 181 715 *~, f 31;
#X obj 305 67 s \$0-pointer;
#X obj 795 575 r \$0-pointer;
#X obj 571 236 r \$0-chunk-size;
#X text 611 318 convert to ms;
#X obj 181 887 outlet~;
#X obj 181 867 hip~ 5;
#X obj 599 422 r \$0-speed;
#X obj 560 374 /;
#X obj 119 174 s \$0-read-point;
#X obj 212 68 s \$0-speed;
#X obj 255 646 list prepend set;
#X obj 255 668 route list;
#X obj 633 513 r \$0-retrigger;
#X text 734 47 0-1 floating point;
#X obj 27 76 max 0.001;
#X text 457 117 0/1 off/on;
#X obj 181 627 +~ 1;
#X obj 560 203 r \$0-size;
#X obj 571 259 t b a;
#X obj 560 317 / 44.1;
#X obj 181 509 wrap~;
#X obj 181 597 *~, f 8;
#X obj 233 531 r \$0-size;
#X obj 228 412 r \$0-read-point;
#X obj 119 68 max 0;
#X text 622 277 multiply by sample length;
#X text 592 376 divide by 1000ms to determine hz playback speed;
#X text 651 445 scale to set speed;
#X text 227 510 wrap around 0-1 to keep inside sample;
#X text 39 596 times sample length;
#X text 850 135 Simple looper with wrap-around.;
#X text 71 11 control arguments;
#X obj 324 758 outlet~;
#X text 385 760 playhead 0-1;
#X msg 560 352 1000 \$1;
#X obj 233 553 - 2;
#X obj 200 789 vline~;
#X obj 182 843 *~;
#X obj 200 741 r \$0-duck;
#X obj 890 636 s \$0-duck;
#X obj 181 462 +~;
#X obj 181 409 *~;
#X obj 704 352 outlet sample size;
#X text 289 333 convert to signal;
#X msg 849 667 stop;
#X obj 214 122 s \$0-duck;
#X msg 175 147 stop;
#X obj 119 96 t b f b, f 14;
#X obj 119 150 f;
#X obj 228 435 sig~;
#X obj 560 400 sig~;
#X obj 233 575 sig~;
#X obj 713 73 s \$0-duck;
#X msg 680 96 stop;
#X obj 618 47 t b f b, f 14;
#X obj 618 101 f;
#X text 839 354 in ms;
#X obj 559 491 *~, f 6;
#X obj 200 811 *~;
#X msg 200 766 0 10 \, 1 10 11;
#X obj 119 120 del 10.5;
#X obj 795 643 del 10.5;
#X obj 618 71 del 10.5;
#X obj 599 462 lop~ 60;
#X obj 560 285 * 1;
#X obj 398 122 switch~;
#X obj 491 65 s \$0-decay;
#X obj 468 579 r \$0-decay;
#X obj 27 37 route length read speed point switch decay, f 80;
#X obj 233 332 sig~;
#X obj 122 227 s \$0-duck;
#X msg 90 253 stop;
#X obj 27 201 t b f b, f 14;
#X obj 27 255 f;
#X obj 27 225 del 10.5;
#X obj 27 279 s \$0-chunk-size;
#N canvas 561 276 933 688 envelope 0;
#X obj 89 392 -~ 0.5;
#X obj 89 416 *~ 0.5;
#X obj 89 439 cos~;
#X obj 89 483 clip~ 0 1;
#X obj 88 595 *~;
#X obj 215 418 *~, f 8;
#X obj 217 500 clip~ 0 1;
#X obj 216 474 -~, f 13;
#X obj 215 440 +~ 1;
#X obj 233 294 unpack;
#X msg 233 271 -1 1;
#X msg 274 270 1 0;
#X obj 217 522 *~;
#X obj 214 354 *~;
#X obj 214 376 +~, f 6;
#X obj 398 177 t f f;
#X obj 398 199 *;
#X obj 303 86 moses 0.5, f 14;
#X obj 398 109 t f b, f 8;
#X obj 398 131 - 0.5;
#X obj 398 153 * 2;
#X obj 303 108 t f b, f 8;
#X msg 303 152 1 \$1;
#X obj 303 174 -;
#X obj 303 130 * 2;
#X obj 303 196 t f f;
#X obj 303 218 *;
#X text 308 14 envelope window with attack/decay one knob;
#X obj 303 64 inlet knob 0-1;
#X obj 90 80 inlet~ phasor;
#X obj 87 662 outlet~;
#X obj 88 617 *~ 1.25;
#X obj 88 639 clip~ 0 1;
#X obj 252 344 lop~ 100;
#X obj 233 316 lop~ 100;
#X obj 303 375 lop~ 100;
#X obj 303 289 * 4;
#X obj 398 271 * 4;
#X obj 88 462 *~ 100, f 11;
#X connect 0 0 1 0;
#X connect 1 0 2 0;
#X connect 2 0 38 0;
#X connect 3 0 4 0;
#X connect 4 0 31 0;
#X connect 5 0 8 0;
#X connect 6 0 12 0;
#X connect 6 0 12 1;
#X connect 7 0 6 0;
#X connect 8 0 7 0;
#X connect 9 0 34 0;
#X connect 9 1 33 0;
#X connect 10 0 9 0;
#X connect 11 0 9 0;
#X connect 12 0 4 1;
#X connect 13 0 14 0;
#X connect 14 0 5 0;
#X connect 15 0 16 0;
#X connect 15 1 16 1;
#X connect 16 0 37 0;
#X connect 17 0 21 0;
#X connect 17 1 18 0;
#X connect 18 0 19 0;
#X connect 18 1 11 0;
#X connect 19 0 20 0;
#X connect 20 0 15 0;
#X connect 21 0 24 0;
#X connect 21 1 10 0;
#X connect 22 0 23 0;
#X connect 23 0 25 0;
#X connect 24 0 22 0;
#X connect 25 0 26 0;
#X connect 25 1 26 1;
#X connect 26 0 36 0;
#X connect 28 0 17 0;
#X connect 29 0 0 0;
#X connect 29 0 13 0;
#X connect 31 0 32 0;
#X connect 32 0 30 0;
#X connect 33 0 14 1;
#X connect 34 0 13 1;
#X connect 35 0 5 1;
#X connect 35 0 7 1;
#X connect 36 0 35 0;
#X connect 37 0 35 0;
#X connect 38 0 3 0;
#X restore 394 603 pd envelope;
#X text 408 639 controls the envelope window;
#X text 709 173 Argument 1: which table name to read. arrays should
be named by patch than "-\$1" (e.g. segmenty-1 \, segememty-2);
#X obj 255 622 makefilename \$1-%d;
#X obj 181 693 tabread4~;
#X obj 795 715 tabread \$1-lengths;
#X obj 795 738 s \$0-size;
#X obj 795 610 t b f b, f 14;
#X obj 795 690 f;
#X text 770 762 get size of sample in samples from table;
#X connect 0 0 1 0;
#X connect 2 0 79 0;
#X connect 3 0 86 0;
#X connect 4 0 51 0;
#X connect 5 0 89 0;
#X connect 6 0 78 0;
#X connect 7 0 64 0;
#X connect 9 0 47 0;
#X connect 11 0 93 0;
#X connect 12 0 28 0;
#X connect 15 0 14 0;
#X connect 16 0 73 0;
#X connect 17 0 60 0;
#X connect 20 0 21 0;
#X connect 21 0 90 0;
#X connect 22 0 0 1;
#X connect 24 0 82 0;
#X connect 26 0 90 0;
#X connect 27 0 74 0;
#X connect 28 0 74 0;
#X connect 28 1 74 1;
#X connect 29 0 44 0;
#X connect 29 0 52 0;
#X connect 30 0 31 0;
#X connect 30 0 42 0;
#X connect 31 0 26 0;
#X connect 32 0 45 0;
#X connect 33 0 59 0;
#X connect 34 0 57 0;
#X connect 44 0 17 0;
#X connect 45 0 61 0;
#X connect 46 0 68 0;
#X connect 46 0 68 1;
#X connect 47 0 15 0;
#X connect 48 0 69 0;
#X connect 50 0 30 0;
#X connect 51 0 50 0;
#X connect 54 0 71 0;
#X connect 56 0 70 0;
#X connect 57 0 70 0;
#X connect 57 1 58 1;
#X connect 57 2 55 0;
#X connect 57 2 56 0;
#X connect 58 0 18 0;
#X connect 59 0 50 1;
#X connect 60 0 67 0;
#X connect 61 0 31 1;
#X connect 63 0 72 0;
#X connect 64 0 72 0;
#X connect 64 1 65 1;
#X connect 64 2 62 0;
#X connect 64 2 63 0;
#X connect 65 0 8 0;
#X connect 67 0 0 0;
#X connect 68 0 47 1;
#X connect 69 0 46 0;
#X connect 70 0 58 0;
#X connect 71 0 94 0;
#X connect 72 0 65 0;
#X connect 73 0 67 1;
#X connect 74 0 29 0;
#X connect 77 0 86 1;
#X connect 78 0 24 0;
#X connect 78 1 34 0;
#X connect 78 2 19 0;
#X connect 78 3 10 0;
#X connect 78 4 75 0;
#X connect 78 5 76 0;
#X connect 79 0 51 1;
#X connect 81 0 84 0;
#X connect 82 0 84 0;
#X connect 82 1 83 1;
#X connect 82 2 80 0;
#X connect 82 2 81 0;
#X connect 83 0 85 0;
#X connect 84 0 83 0;
#X connect 86 0 9 1;
#X connect 89 0 20 0;
#X connect 90 0 9 0;
#X connect 91 0 92 0;
#X connect 93 0 71 0;
#X connect 93 1 94 1;
#X connect 93 2 49 0;
#X connect 93 2 54 0;
#X connect 94 0 91 0;
