#N canvas 360 58 1326 986 10;
#X obj 559 513 phasor~, f 11;
#X obj 559 567 s~ \$0-phase;
#X obj 425 601 r~ \$0-phase;
#X obj 180 235 r~ \$0-phase;
#X obj 285 559 r \$0-pointer;
#X obj 27 12 inlet;
#X obj 1046 25 inlet;
#X obj 1046 124 s \$0-retrigger;
#X obj 181 895 *~, f 31;
#X obj 305 67 s \$0-pointer;
#X obj 795 596 r \$0-pointer;
#X obj 654 104 r \$0-chunk-size;
#X text 625 318 convert to ms;
#X obj 181 957 outlet~;
#X obj 181 937 hip~ 5;
#X obj 599 422 r \$0-speed;
#X obj 119 174 s \$0-read-point;
#X obj 212 68 s \$0-speed;
#X obj 285 606 list prepend set;
#X obj 285 628 route list;
#X text 1088 27 0-1 floating point;
#X obj 27 76 max 0.001;
#X obj 181 637 +~ 1;
#X obj 575 155 r \$0-size;
#X obj 181 509 wrap~;
#X obj 181 607 *~, f 8;
#X obj 225 531 r \$0-size;
#X obj 284 352 r \$0-read-point;
#X obj 119 68 max 0;
#X text 622 277 multiply by sample length;
#X text 592 376 divide by 1000ms to determine hz playback speed;
#X text 651 445 scale to set speed;
#X text 227 510 wrap around 0-1 to keep inside sample;
#X text 39 596 times sample length;
#X text 71 11 control arguments;
#X obj 225 553 - 2;
#X obj 181 462 +~;
#X obj 181 409 *~;
#X obj 225 575 sig~;
#X text 839 354 in ms;
#X obj 559 491 *~, f 6;
#X obj 599 462 lop~ 60;
#X obj 509 58 s \$0-decay;
#X obj 471 645 r \$0-decay;
#X obj 27 279 s \$0-chunk-size;
#X text 447 619 controls the envelope window;
#X text 826 251 Argument 1: which table name to read. arrays should
be named by patch than "-\$1" (e.g. segmenty-1 \, segememty-2);
#X obj 285 582 makefilename \$1-%d;
#X obj 181 693 tabread4~;
#X obj 795 738 s \$0-size;
#X obj 471 715 lop~ 8;
#N canvas 887 70 722 600 env 0;
#X obj 201 559 outlet~;
#X obj 373 120 inlet~ 0-1 pulse width;
#X obj 202 121 inlet~ freq;
#X text 218 234 place middle of envelope;
#X obj 200 370 *~ 0.5;
#X obj 201 392 cos~;
#X obj 200 348 -~ 0.5;
#X text 258 375 cos attack;
#X obj 201 503 +~, f 29;
#X obj 201 464 clip~ 0 1;
#X obj 201 251 expr~ if ($v1 > $v2 \, 0 \, $v1) \; if ($v1 < $v2 \,
1 \, $v1);
#X obj 371 350 *~ -1;
#X obj 371 375 +~ 1;
#X obj 452 383 sig~ 1;
#X obj 452 404 /~, f 10;
#X obj 372 442 *~, f 14;
#X obj 508 311 *~ -1;
#X obj 508 336 +~ 1;
#X obj 372 473 pow~ 4;
#X obj 604 114 inlet~;
#X obj 201 413 *~, f 16;
#X obj 201 434 abs~;
#X connect 1 0 10 1;
#X connect 1 0 16 0;
#X connect 2 0 10 0;
#X connect 4 0 5 0;
#X connect 5 0 20 0;
#X connect 6 0 4 0;
#X connect 8 0 0 0;
#X connect 9 0 8 0;
#X connect 10 0 6 0;
#X connect 10 1 11 0;
#X connect 11 0 12 0;
#X connect 12 0 15 0;
#X connect 13 0 14 0;
#X connect 14 0 15 1;
#X connect 15 0 18 0;
#X connect 16 0 17 0;
#X connect 17 0 14 1;
#X connect 18 0 8 1;
#X connect 19 0 20 1;
#X connect 20 0 21 0;
#X connect 21 0 9 0;
#X restore 424 775 pd env;
#X f 16;
#X obj 471 666 min 1;
#X obj 471 687 max 0.001;
#X obj 1046 46 t f b;
#X obj 1073 83 s \$0-instant;
#X obj 607 66 s \$0-i-chunk;
#X obj 702 63 s \$0-i-read;
#X obj 376 322 r \$0-i-read;
#X obj 364 414 samphold~;
#X obj 415 388 r~ \$0-phase;
#X msg 385 367 set \$1;
#X obj 371 265 samphold~;
#X obj 422 239 r~ \$0-phase;
#X msg 392 218 set \$1;
#X obj 383 173 r \$0-i-chunk;
#X obj 291 203 r \$0-chunk-size;
#X obj 723 217 samphold~;
#X obj 774 191 r~ \$0-phase;
#X msg 723 169 set \$1;
#X obj 723 132 r \$0-i-chunk;
#X obj 560 374 /~;
#X obj 492 333 sig~ 1000;
#X obj 574 317 /~ 44.1;
#X obj 574 176 sig~;
#X obj 574 257 *~;
#X obj 271 732 *~ 0.5;
#X obj 272 754 cos~;
#X obj 271 710 -~ 0.5;
#X obj 272 826 clip~ 0 1;
#X obj 363 873 *~;
#X obj 271 687 /~;
#X obj 286 663 r \$0-size;
#X obj 27 37 route length read speed point switch decay insta-length
insta-read loop, f 144;
#X obj 806 71 s \$0-loop;
#X obj 795 715 tabread segmenty-1-length;
#X obj 795 617 t b a;
#X msg 795 638 0;
#X obj 272 775 *~, f 12;
#X obj 604 745 r \$0-chunk-size;
#X obj 673 858 samphold~;
#X obj 724 832 r~ \$0-phase;
#X msg 673 810 set \$1;
#X obj 673 773 r \$0-i-chunk;
#X obj 702 879 r \$0-size;
#X obj 673 879 *~;
#X obj 673 900 *~, f 20;
#X obj 795 809 r \$0-speed;
#X obj 795 849 lop~ 60;
#X obj 673 924 /~ 441;
#X obj 272 796 abs~;
#X obj 181 916 *~, f 39;
#N canvas 4 50 1302 819 on-shot/loop-toggle 0;
#X obj 341 21 r \$0-chunk-size;
#X obj 373 52 r \$0-i-chunk;
#X obj 419 85 r \$0-size;
#X obj 553 30 r \$0-speed;
#X obj 373 158 *;
#X obj 419 106 t b a;
#X obj 463 153 t b a;
#X obj 172 336 f, f 26;
#X obj 65 73 r \$0-retrigger;
#X obj 391 340 r \$0-loop;
#X obj 173 587 outlet~;
#X obj 172 438 vline~;
#X obj 172 459 pow~ 2;
#X obj 172 480 *~, f 16;
#X obj 310 476 *~, f 16;
#X obj 309 442 sig~ 1;
#X obj 285 400 lop~ 10;
#X obj 273 371 ==;
#X obj 392 423 lop~ 10;
#X obj 65 94 t b;
#X obj 373 200 / 44.1;
#X msg 172 376 1 3 \, 0 3 \$1;
#X obj 325 269 - 6;
#X floatatom 344 318 5 0 0 0 - - -;
#X obj 325 290 max 20;
#X obj 553 71 abs;
#X obj 373 179 /, f 20;
#X connect 0 0 4 0;
#X connect 1 0 4 0;
#X connect 2 0 5 0;
#X connect 3 0 25 0;
#X connect 4 0 26 0;
#X connect 5 0 4 0;
#X connect 5 1 4 1;
#X connect 6 0 26 0;
#X connect 6 1 26 1;
#X connect 7 0 21 0;
#X connect 8 0 19 0;
#X connect 9 0 17 0;
#X connect 9 0 18 0;
#X connect 11 0 12 0;
#X connect 12 0 13 0;
#X connect 13 0 10 0;
#X connect 14 0 10 0;
#X connect 15 0 14 0;
#X connect 16 0 13 1;
#X connect 17 0 16 0;
#X connect 18 0 14 1;
#X connect 19 0 7 0;
#X connect 20 0 22 0;
#X connect 21 0 11 0;
#X connect 22 0 24 0;
#X connect 24 0 7 1;
#X connect 24 0 23 0;
#X connect 25 0 6 0;
#X connect 26 0 20 0;
#X restore 412 882 pd on-shot/loop-toggle;
#X obj 903 607 loadbang;
#X obj 857 669 pack 0 s;
#X msg 856 691 set \$2-\$1-length;
#X obj 902 638 symbol \$1;
#X obj 622 485 r \$0-retrigger;
#X connect 0 0 1 0;
#X connect 2 0 51 0;
#X connect 3 0 37 0;
#X connect 4 0 47 0;
#X connect 5 0 83 0;
#X connect 6 0 54 0;
#X connect 8 0 101 0;
#X connect 10 0 86 0;
#X connect 11 0 67 0;
#X connect 14 0 13 0;
#X connect 15 0 41 0;
#X connect 18 0 19 0;
#X connect 19 0 48 0;
#X connect 21 0 44 0;
#X connect 22 0 48 0;
#X connect 22 0 81 0;
#X connect 23 0 74 0;
#X connect 24 0 25 0;
#X connect 25 0 22 0;
#X connect 26 0 35 0;
#X connect 27 0 59 0;
#X connect 28 0 16 0;
#X connect 35 0 38 0;
#X connect 36 0 24 0;
#X connect 37 0 36 0;
#X connect 38 0 25 1;
#X connect 40 0 0 0;
#X connect 41 0 40 1;
#X connect 43 0 52 0;
#X connect 47 0 18 0;
#X connect 48 0 8 0;
#X connect 50 0 51 1;
#X connect 51 0 80 1;
#X connect 52 0 53 0;
#X connect 53 0 50 0;
#X connect 54 0 7 0;
#X connect 54 1 55 0;
#X connect 58 0 61 0;
#X connect 59 0 36 1;
#X connect 60 0 59 1;
#X connect 61 0 59 0;
#X connect 62 0 37 1;
#X connect 63 0 62 1;
#X connect 64 0 62 0;
#X connect 65 0 64 0;
#X connect 66 0 62 0;
#X connect 67 0 75 1;
#X connect 68 0 67 1;
#X connect 69 0 67 0;
#X connect 70 0 69 0;
#X connect 71 0 40 0;
#X connect 72 0 71 0;
#X connect 73 0 71 1;
#X connect 74 0 75 0;
#X connect 75 0 73 0;
#X connect 76 0 77 0;
#X connect 77 0 88 0;
#X connect 78 0 76 0;
#X connect 79 0 80 0;
#X connect 80 0 8 1;
#X connect 81 0 78 0;
#X connect 82 0 81 1;
#X connect 83 0 21 0;
#X connect 83 1 28 0;
#X connect 83 2 17 0;
#X connect 83 3 9 0;
#X connect 83 5 42 0;
#X connect 83 6 56 0;
#X connect 83 7 57 0;
#X connect 83 8 84 0;
#X connect 85 0 49 0;
#X connect 86 0 87 0;
#X connect 86 1 104 0;
#X connect 87 0 85 0;
#X connect 88 0 100 0;
#X connect 89 0 90 0;
#X connect 90 0 95 0;
#X connect 91 0 90 1;
#X connect 92 0 90 0;
#X connect 93 0 92 0;
#X connect 94 0 95 1;
#X connect 95 0 96 0;
#X connect 96 0 99 0;
#X connect 97 0 98 0;
#X connect 98 0 96 1;
#X connect 99 0 51 2;
#X connect 99 0 88 1;
#X connect 100 0 79 0;
#X connect 101 0 14 0;
#X connect 102 0 101 1;
#X connect 103 0 106 0;
#X connect 104 0 105 0;
#X connect 105 0 85 0;
#X connect 106 0 104 1;
#X connect 107 0 0 1;
