#N canvas 291 50 1200 915 10;
#X obj 251 769 soundfiler;
#X obj 314 254 symbol \$1;
#X text 385 252 get name of array;
#X text 499 93 this is the array \, automatically named by the first
argument (look in properties for this object);
#X text 317 310 pack it together;
#X text 482 346 compose the request for soundfiler;
#X text 471 31 ***use this object with cg-looper***;
#X text 7 31 arg 1: name of array for refencing with tabread~/tabread4~
(example: array);
#X text 12 84 arg 3: normalize on:1 off:0;
#X text 16 64 arg 2: number;
#X obj 251 190 \$2;
#X obj 314 276 makefilename %s-\$2;
#X obj 251 311 pack f s;
#X obj 251 219 t f b, f 11;
#X text 22 105 arg 4: max length in ms;
#N canvas 240 57 1654 957 record-guts 0;
#X obj 394 126 r~ inL;
#X obj 475 126 r~ inR;
#X obj 427 369 threshold~ 0.01 5 0.1 5;
#X obj 427 344 *~;
#X obj 427 390 t b b, f 8;
#X msg 445 312 0;
#X msg 496 311 1;
#X text 457 344 incoming signal above 0.01 triggers record.;
#X text 494 391 than immediatley disable;
#X obj 426 741 r \$0-2-tabwrite;
#X obj 445 252 r \$0-rec-switch;
#X obj 445 274 sel 0 1, f 15;
#X obj 480 423 r \$0-rec-switch;
#X obj 409 663 *~;
#X obj 427 542 spigot 0;
#X obj 427 616 vline~;
#X obj 480 445 sel 0 1, f 21;
#X obj 480 467 t b b;
#X msg 480 493 0;
#X msg 552 468 1;
#X obj 530 604 s \$0-record!;
#X obj 427 638 *~;
#X obj 410 766 tabwrite~ \$1-\$2;
#X obj 326 360 hip~ 5;
#X obj 409 685 hip~ 5;
#X obj 409 707 lop~ 20000;
#X obj 395 292 *~ 0.9;
#X obj 850 700 timer;
#X obj 850 730 * 44.1;
#X text 899 777 time length of recording in samples;
#X msg 1066 620 stop;
#X obj 850 754 expr if($f1 < 4410 \, 4410 \, $f1);
#X text 902 793 it must be at least 4410 cause this;
#X text 905 811 is what the player assumes;
#X obj 850 837 s \$0-dur;
#X obj 956 463 r \$0-record!;
#X obj 842 392 sel 0 1, f 33;
#X obj 939 439 s \$0-rec-switch;
#X msg 939 416 1;
#X obj 902 591 s \$0-rec-switch;
#X msg 902 568 0;
#X obj 842 484 t b b b b;
#X obj 904 668 s \$0-stop-record!;
#X obj 1005 565 s \$0-2-tabwrite;
#X obj 877 638 t b b;
#X obj 1066 645 delay \$4;
#X obj 1066 692 s \$0-autostop;
#X text 1136 646 maximum record time arg 4;
#X obj 728 592 s \$1-done-recording;
#X obj 634 590 symbol \$1-\$2;
#X msg 634 613 \; \$1 const 0;
#X text 735 610 clear the array;
#X obj 327 417 delwrite~ \$0-del 5;
#X obj 324 442 delread~ \$0-del 5;
#X msg 512 533 0 5;
#X msg 427 594 0 \, 1 5 0;
#X obj 842 278 inlet;
#X text 896 202 toggle arm recording \, turn off recording;
#X obj 905 311 r \$0-autostop;
#X msg 905 335 0;
#X obj 392 147 *~ 0.0707;
#X obj 475 147 *~ 0.0707;
#X obj 1234 546 outlet;
#X msg 1234 507 0;
#X obj 962 491 t b b b b b, f 18;
#X msg 1111 515 1;
#X obj 427 567 t b b b, f 35;
#X connect 0 0 60 0;
#X connect 1 0 61 0;
#X connect 2 0 4 0;
#X connect 3 0 2 0;
#X connect 4 0 14 0;
#X connect 4 1 5 0;
#X connect 5 0 3 1;
#X connect 6 0 3 1;
#X connect 9 0 22 0;
#X connect 10 0 11 0;
#X connect 11 0 5 0;
#X connect 11 1 6 0;
#X connect 12 0 16 0;
#X connect 13 0 24 0;
#X connect 14 0 66 0;
#X connect 15 0 21 0;
#X connect 15 0 21 1;
#X connect 16 0 17 0;
#X connect 16 1 19 0;
#X connect 17 0 18 0;
#X connect 17 1 54 0;
#X connect 18 0 14 1;
#X connect 19 0 14 1;
#X connect 21 0 13 1;
#X connect 23 0 52 0;
#X connect 24 0 25 0;
#X connect 25 0 22 0;
#X connect 26 0 3 0;
#X connect 26 0 23 0;
#X connect 27 0 28 0;
#X connect 28 0 31 0;
#X connect 30 0 45 0;
#X connect 31 0 34 0;
#X connect 35 0 64 0;
#X connect 36 0 41 0;
#X connect 36 0 63 0;
#X connect 36 1 38 0;
#X connect 38 0 37 0;
#X connect 40 0 39 0;
#X connect 41 0 48 0;
#X connect 41 1 30 0;
#X connect 41 2 44 0;
#X connect 41 3 40 0;
#X connect 44 0 27 1;
#X connect 44 1 42 0;
#X connect 45 0 46 0;
#X connect 49 0 50 0;
#X connect 53 0 13 0;
#X connect 54 0 15 0;
#X connect 55 0 15 0;
#X connect 56 0 36 0;
#X connect 58 0 59 0;
#X connect 59 0 36 0;
#X connect 60 0 26 0;
#X connect 61 0 26 0;
#X connect 63 0 62 0;
#X connect 64 0 27 0;
#X connect 64 1 45 0;
#X connect 64 2 43 0;
#X connect 64 3 30 0;
#X connect 64 4 65 0;
#X connect 65 0 62 0;
#X connect 66 0 55 0;
#X connect 66 1 20 0;
#X connect 66 2 49 0;
#X restore 54 535 pd record-guts;
#X msg 881 591 stop;
#X obj 340 487 t b b, f 16;
#X obj 881 617 s \$0-2-tabwrite;
#X obj 566 412 r \$0-stop-record!;
#X obj 340 579 f;
#X obj 355 546 r \$0-dur;
#X obj 340 451 r saveState;
#X obj 389 587 loadbang;
#X obj 389 609 symbol \$1;
#X obj 340 639 pack 0 s \$2, f 17;
#X obj 776 716 symbol \$1-\$2;
#X msg 776 738 \; \$1 normalize;
#X obj 776 693 spigot 0;
#X obj 821 644 loadbang;
#X text 855 667 call arg2 for nomarlize off/on;
#X msg 340 668 write -nframes \$1 sounds/\$3.wav \$2-\$3;
#X text 437 385 when save is triggered save the array;
#X obj 251 836 outlet;
#X obj 790 292 r \$0-dur;
#X msg 611 467 stop;
#X obj 821 667 \$3;
#X obj 566 537 del 5;
#X msg 251 346 read sounds/\$1.wav \$2;
#X msg 524 224 resize \$1;
#X obj 524 177 \$4;
#X obj 524 199 * 44.1;
#X text 305 836 files size in samples;
#X obj 54 481 inlet;
#X text 103 483 rec control;
#X obj 813 141 loadbang;
#X obj 524 155 r \$0-size-loadbang;
#X obj 251 148 r \$0-read-loadbang;
#X obj 566 442 t b b, f 8;
#X obj 813 163 t b b;
#X obj 840 185 s \$0-size-loadbang;
#X obj 813 207 s \$0-read-loadbang;
#X obj 566 608 b;
#X obj 566 632 s segmenty-1-print-new;
#X obj 251 170 del 20;
#X obj 54 595 outlet;
#X text 38 619 1: thresh passsed \, recording;
#X text 38 643 2: record off;
#X obj 566 561 t b b b b, f 53;
#X text 45 416 0 turn off record \, 1 arm record;
#X text 864 287 store length in (array name)-length;
#X obj 790 313 t a b;
#X msg 854 319 0;
#X obj 281 800 s \$0-dur;
#X obj 524 252 array define \$1-\$2;
#X obj 790 343 tabwrite \$1-\$2-length;
#X obj 955 432 array define \$1-\$2-length;
#X connect 0 0 33 0;
#X connect 0 0 63 0;
#X connect 1 0 11 0;
#X connect 10 0 13 0;
#X connect 11 0 12 1;
#X connect 12 0 38 0;
#X connect 13 0 12 0;
#X connect 13 1 1 0;
#X connect 15 0 55 0;
#X connect 16 0 18 0;
#X connect 17 0 20 0;
#X connect 19 0 48 0;
#X connect 20 0 25 0;
#X connect 21 0 20 1;
#X connect 22 0 17 0;
#X connect 23 0 24 0;
#X connect 24 0 25 1;
#X connect 25 0 31 0;
#X connect 26 0 27 0;
#X connect 28 0 26 0;
#X connect 29 0 36 0;
#X connect 31 0 0 0;
#X connect 34 0 61 0;
#X connect 35 0 37 0;
#X connect 36 0 28 1;
#X connect 37 0 58 0;
#X connect 38 0 0 0;
#X connect 39 0 64 0;
#X connect 40 0 41 0;
#X connect 41 0 39 0;
#X connect 43 0 15 0;
#X connect 45 0 49 0;
#X connect 46 0 40 0;
#X connect 47 0 54 0;
#X connect 48 0 37 0;
#X connect 48 1 35 0;
#X connect 49 0 51 0;
#X connect 49 1 50 0;
#X connect 52 0 53 0;
#X connect 54 0 10 0;
#X connect 58 0 52 0;
#X connect 58 2 28 0;
#X connect 58 3 16 0;
#X connect 61 0 65 0;
#X connect 61 1 62 0;
#X connect 62 0 65 1;
