#N canvas 537 50 1038 635 10;
#X declare -path patchmenu;
#X obj 289 188 r aux;
#X obj 333 188 r fs;
#N canvas 158 57 1658 987 states 0;
#X text 90 68 Controls State With Aux Button;
#X obj 258 87 inlet;
#X obj 258 492 sel 1, f 12;
#X obj 327 334 f, f 10;
#X obj 327 281 sel 1;
#X obj 327 241 t f f, f 7;
#X obj 327 360 sel 1;
#X obj 327 306 del 500;
#X msg 997 103 stop;
#X msg 938 102 0;
#X text 973 104 =;
#X text 973 134 =;
#X msg 938 132 1;
#X text 973 164 =;
#X msg 938 162 2;
#X obj 258 517 v segmenty-v;
#X obj 327 438 v segmenty-v;
#X msg 327 382 1;
#X msg 997 133 recenable;
#X msg 997 163 record;
#X obj 258 738 v segmenty-v;
#X msg 258 660 0;
#X obj 644 547 r segmenty-done-recording;
#X obj 799 280 r segmenty-thresh-passed;
#X obj 258 683 t f f f;
#X obj 304 708 s segmenty-action;
#X obj 644 697 v segmenty-v;
#X msg 644 579 0;
#X obj 644 622 t f f f;
#X obj 690 647 s segmenty-action;
#X text 410 286 hold for arming record;
#X text 357 521 any state when called should turn off record;
#X text 502 407 arm the recording \, wait for thresh;
#X obj 799 407 v segmenty-v;
#X obj 831 357 s segmenty-action;
#X msg 799 309 2;
#X text 914 312 send out a 2;
#X obj 327 407 t f f f, f 21;
#X obj 471 436 s segmenty-action;
#X obj 928 406 r segmenty-action;
#X obj 928 498 sel 0 1 2, f 58;
#X msg 949 724 0;
#X obj 949 746 s led;
#X obj 1062 599 s led;
#X msg 1062 577 6;
#X obj 1322 658 s led;
#X msg 1322 636 1;
#X obj 1229 642 + 1;
#X msg 1196 576 1;
#X obj 1234 558 t b b;
#X msg 1266 580 0;
#X msg 1234 581 0;
#X obj 1196 613 metro 100;
#X obj 1196 670 * 0.1;
#X msg 1196 703 \; screenLine5 Recording: \$1 secs;
#X obj 1196 528 t b b, f 15;
#X obj 1196 642 f 0;
#X msg 976 657 \; screenLine5 Waiting For Sound;
#X obj 928 444 f;
#X obj 521 263 v segmenty-v;
#X obj 521 188 t f f f;
#X obj 567 213 s segmenty-action;
#X obj 521 146 v segmenty-v;
#X obj 433 30 r page-ready;
#X obj 258 219 spigot 0;
#X msg 433 104 1;
#X msg 514 98 0;
#X obj 433 74 t b b;
#X text 597 175 rebangs this stuff;
#X obj 433 52 sel 1, f 12;
#X obj 514 75 t b b;
#X obj 799 332 t f f;
#X obj 653 774 s segmenty-1-print-new;
#X obj 653 748 b;
#X obj 258 572 sel 1 2, f 16;
#X obj 928 466 change -1;
#X obj 959 445 r segmenty-reprint-line5;
#X msg 925 770 \; screenLine5 !Hold Aux to Record!;
#X connect 1 0 64 0;
#X connect 2 0 15 0;
#X connect 3 0 6 0;
#X connect 4 0 7 0;
#X connect 5 0 4 0;
#X connect 5 1 3 1;
#X connect 6 0 17 0;
#X connect 7 0 3 0;
#X connect 15 0 74 0;
#X connect 17 0 37 0;
#X connect 21 0 24 0;
#X connect 22 0 27 0;
#X connect 23 0 35 0;
#X connect 24 0 20 0;
#X connect 24 2 25 0;
#X connect 27 0 28 0;
#X connect 28 0 26 0;
#X connect 28 2 29 0;
#X connect 28 2 73 0;
#X connect 35 0 71 0;
#X connect 37 0 16 0;
#X connect 37 2 38 0;
#X connect 39 0 58 0;
#X connect 40 0 77 0;
#X connect 40 0 41 0;
#X connect 40 0 49 0;
#X connect 40 1 44 0;
#X connect 40 1 57 0;
#X connect 40 1 49 0;
#X connect 40 2 55 0;
#X connect 41 0 42 0;
#X connect 44 0 43 0;
#X connect 46 0 45 0;
#X connect 47 0 56 1;
#X connect 48 0 52 0;
#X connect 49 0 51 0;
#X connect 49 1 50 0;
#X connect 50 0 56 1;
#X connect 51 0 52 0;
#X connect 52 0 56 0;
#X connect 53 0 54 0;
#X connect 55 0 48 0;
#X connect 55 1 46 0;
#X connect 56 0 47 0;
#X connect 56 0 53 0;
#X connect 58 0 75 0;
#X connect 60 0 59 0;
#X connect 60 2 61 0;
#X connect 62 0 60 0;
#X connect 63 0 69 0;
#X connect 64 0 2 0;
#X connect 64 0 5 0;
#X connect 65 0 64 1;
#X connect 66 0 64 1;
#X connect 67 0 65 0;
#X connect 67 1 77 0;
#X connect 69 0 67 0;
#X connect 69 1 70 0;
#X connect 70 0 66 0;
#X connect 71 0 33 0;
#X connect 71 1 34 0;
#X connect 73 0 72 0;
#X connect 74 0 21 0;
#X connect 74 1 21 0;
#X connect 75 0 40 0;
#X connect 76 0 58 0;
#X restore 289 227 pd states;
#N canvas 7 50 840 726 the-synth 0;
#X obj 61 350 catch~ segmenty-bus;
#X obj 61 372 outlet~;
#X obj 64 18 inlet;
#X obj 64 123 % 24;
#X obj 64 102 abs;
#X obj 64 81 expr if ($f1 > 59 \, $f1 - 60 \, $f1 - 12);
#X obj 64 59 unpack 0 0;
#X obj 64 146 pack 0 0, f 10;
#X obj 64 222 pack 0 0 0;
#X obj 64 244 route 1 2 3 4, f 64;
#X obj 320 518 s segementy-voice-sum;
#X obj 352 428 + 1;
#X obj 320 428 f 0;
#X obj 320 355 sel 0;
#X obj 281 330 unpack;
#X obj 320 377 t b b;
#X msg 363 402 -1;
#X obj 64 168 t a a;
#X obj 370 378 t b b;
#X msg 413 404 1;
#X obj 320 450 max 0;
#X obj 320 472 min 4;
#X obj 397 295 segmenty-voice;
#X obj 320 494 + 1;
#X obj 64 201 poly 4 0, f 10;
#X obj 175 293 segmenty-voice;
#X obj 64 293 segmenty-voice;
#X obj 286 294 segmenty-voice;
#X connect 0 0 1 0;
#X connect 2 0 6 0;
#X connect 3 0 7 0;
#X connect 4 0 3 0;
#X connect 5 0 4 0;
#X connect 6 0 5 0;
#X connect 6 1 7 1;
#X connect 7 0 17 0;
#X connect 8 0 9 0;
#X connect 9 0 26 0;
#X connect 9 1 25 0;
#X connect 9 2 27 0;
#X connect 9 3 22 0;
#X connect 11 0 12 1;
#X connect 12 0 20 0;
#X connect 13 0 15 0;
#X connect 13 1 18 0;
#X connect 14 1 13 0;
#X connect 15 0 12 0;
#X connect 15 1 16 0;
#X connect 16 0 11 0;
#X connect 17 0 24 0;
#X connect 17 1 14 0;
#X connect 18 0 12 0;
#X connect 18 1 19 0;
#X connect 19 0 11 1;
#X connect 20 0 21 0;
#X connect 21 0 11 0;
#X connect 21 0 23 0;
#X connect 23 0 10 0;
#X connect 24 0 8 0;
#X connect 24 1 8 1;
#X connect 24 2 8 2;
#X restore 370 329 pd the-synth;
#X obj 370 391 throw~ outL;
#X obj 380 361 throw~ outR;
#X obj 23 148 declare -path patchmenu;
#X obj 23 309 patchmenu;
#X obj 55 272 s enableSubMenu;
#X obj 23 170 loadbang;
#X msg 23 272 0;
#X obj 23 249 t b b;
#X obj 23 192 b;
#X obj 23 224 versioncheck 2;
#X msg 23 341 \; screenLine1 1) Sample View \; screenLine2 2) Parameter
Display \; screenLine3 <-- HOME \;;
#X obj 370 148 r notes;
#X obj 406 206 r aux;
#X obj 429 228 r fs;
#X obj 370 294 cg-seqq segmenty, f 25;
#N canvas 183 50 1733 999 the-knobs 0;
#X obj 478 117 sel 1, f 11;
#X obj 478 139 t b b;
#X msg 510 160 1;
#X msg 584 165 0;
#X obj 478 95 r page-ready;
#X obj 552 144 t b b;
#X obj 301 437 s segmenty-sample-in;
#X obj 603 425 s segmenty-sample-out;
#X obj 636 332 * 100;
#X obj 636 354 i;
#X obj 336 339 * 100;
#X obj 336 361 i;
#X obj 336 415 s p2s1;
#X obj 636 403 s p2s2;
#X obj 336 308 f;
#X obj 636 305 f;
#X obj 451 338 spigot 0;
#X obj 562 340 spigot 0;
#X obj 336 212 r knob1;
#X obj 637 224 r knob2;
#X obj 338 477 r knob3;
#X obj 338 539 f;
#X obj 624 590 f;
#X obj 552 190 s \$0-re-bang;
#X obj 392 273 r \$0-re-bang;
#X obj 698 269 r \$0-re-bang;
#X obj 434 478 r \$0-re-bang;
#X obj 638 556 r \$0-re-bang;
#X obj 682 141 b;
#X obj 682 110 r segmenty-1-print-new;
#X obj 401 547 t b b;
#X msg 433 568 1;
#X obj 538 552 b;
#X msg 538 574 0;
#X obj 401 503 r page-ready;
#X obj 338 579 f;
#X obj 1213 344 bang;
#X obj 1262 342 i;
#X obj 1166 363 i;
#X obj 1166 391 abs;
#X obj 624 521 r knob4-detent;
#X obj 1167 238 detent 0.075, f 14;
#X obj 1142 307 s knob4-detent;
#X obj 950 50 r knob4;
#X obj 950 181 moses 0.5;
#X obj 1167 191 - 0.5;
#X obj 1167 213 * 2;
#X obj 984 371 bang;
#X obj 1040 384 - 0.5;
#X obj 1040 454 i;
#X obj 949 471 i;
#X obj 949 499 abs;
#X obj 950 291 detent 0.075;
#X obj 1000 350 s knob4-detent;
#X obj 951 727 s p2s4;
#X obj 950 212 - 0.5;
#X obj 950 234 * 2;
#X obj 950 256 abs;
#X obj 1262 272 - 0.5;
#X obj 1262 294 * 200;
#X obj 1262 316 + 100;
#X obj 1166 335 * 200;
#X obj 1142 280 * 2;
#X obj 1000 325 * -2;
#X obj 113 76 r segmenty-action;
#X obj 113 98 sel 0;
#X obj 145 119 b;
#X msg 145 141 0;
#X msg 113 120 1;
#X obj 145 171 s \$0-action-mute;
#X obj 1008 130 r \$0-action-mute;
#X obj 391 457 r \$0-action-mute;
#X obj 700 225 r \$0-action-mute;
#X obj 399 217 r \$0-action-mute;
#X obj 950 120 f;
#X obj 1007 84 r \$0-re-bang;
#X obj 950 151 spigot 1;
#X obj 637 246 spigot 1;
#X obj 336 238 spigot 1;
#X obj 338 499 spigot 1;
#N canvas 843 110 930 867 print 0;
#X msg 293 723 /oled/gFlip 3;
#X obj 380 758 s oscOut;
#X msg 381 562 /oled/gFillArea 3 0 31 128 8 0;
#X msg 409 427 38;
#X msg 446 427 32;
#X msg 363 589 /oled/gPrintln 3 2 32 8 1 3: Env:;
#X obj 277 303 i;
#X obj 277 281 * 84;
#X obj 277 324 + 48;
#X obj 351 347 i;
#X obj 351 325 * 82;
#X obj 351 390 max 46;
#X obj 351 368 + 43;
#X obj 277 213 moses 0.605;
#X obj 277 256 * 1.65289;
#X obj 351 299 * 2.53164;
#X obj 351 276 - 0.605;
#X text 539 691 44 \, \$1;
#X text 550 651 \$1 \, \$2;
#X obj 278 123 moses 0.5, f 14;
#X obj 485 281 i;
#X obj 485 259 * 84;
#X obj 485 302 + 48;
#X obj 559 325 i;
#X obj 559 303 * 82;
#X obj 559 368 max 46;
#X obj 559 346 + 43;
#X obj 485 191 moses 0.605;
#X obj 485 234 * 1.65289;
#X obj 559 277 * 2.53164;
#X obj 559 254 - 0.605;
#X obj 278 189 * 2;
#X obj 373 168 - 0.5;
#X obj 373 191 * 2;
#X obj 293 539 t b a a a b b;
#X obj 278 145 t f b;
#X msg 251 394 46;
#X obj 368 468 t b a;
#X obj 373 145 t f b;
#X msg 286 462 38;
#X obj 559 212 t f b b, f 10;
#X msg 310 687 /oled/gLine 3 44 38 \$1 \$2 1;
#X msg 328 655 /oled/gLine 3 \$1 \$2 \$3 \$4 1;
#X msg 345 621 /oled/gLine 3 \$3 \$4 127 38 1;
#X obj 293 507 pack 0 0 0 0, f 26;
#X msg 322 463 32;
#X obj 485 212 t f b b;
#X obj 278 91 inlet;
#X obj 277 234 t f b b;
#X obj 351 234 t f b b, f 10;
#X obj 351 435 min 123;
#X obj 293 436 min 123;
#X msg 425 461 126;
#X obj 189 443 loadbang;
#X connect 0 0 1 0;
#X connect 2 0 1 0;
#X connect 3 0 44 3;
#X connect 4 0 44 3;
#X connect 5 0 1 0;
#X connect 6 0 8 0;
#X connect 7 0 6 0;
#X connect 8 0 50 0;
#X connect 9 0 12 0;
#X connect 10 0 9 0;
#X connect 11 0 50 0;
#X connect 12 0 11 0;
#X connect 13 0 48 0;
#X connect 13 1 49 0;
#X connect 14 0 7 0;
#X connect 15 0 10 0;
#X connect 16 0 15 0;
#X connect 19 0 35 0;
#X connect 19 1 38 0;
#X connect 20 0 22 0;
#X connect 21 0 20 0;
#X connect 22 0 51 0;
#X connect 23 0 26 0;
#X connect 24 0 23 0;
#X connect 25 0 51 0;
#X connect 26 0 25 0;
#X connect 27 0 46 0;
#X connect 27 1 40 0;
#X connect 28 0 21 0;
#X connect 29 0 24 0;
#X connect 30 0 29 0;
#X connect 31 0 13 0;
#X connect 32 0 33 0;
#X connect 33 0 27 0;
#X connect 34 0 0 0;
#X connect 34 1 41 0;
#X connect 34 2 42 0;
#X connect 34 3 43 0;
#X connect 34 4 5 0;
#X connect 34 5 2 0;
#X connect 35 0 31 0;
#X connect 35 1 36 0;
#X connect 36 0 51 0;
#X connect 37 0 44 0;
#X connect 37 1 44 2;
#X connect 38 0 32 0;
#X connect 38 1 52 0;
#X connect 39 0 44 1;
#X connect 40 0 30 0;
#X connect 40 1 4 0;
#X connect 40 2 39 0;
#X connect 41 0 1 0;
#X connect 42 0 1 0;
#X connect 43 0 1 0;
#X connect 44 0 34 0;
#X connect 45 0 44 1;
#X connect 46 0 28 0;
#X connect 46 1 4 0;
#X connect 46 2 45 0;
#X connect 47 0 19 0;
#X connect 48 0 14 0;
#X connect 48 1 3 0;
#X connect 48 2 45 0;
#X connect 49 0 16 0;
#X connect 49 1 4 0;
#X connect 49 2 45 0;
#X connect 50 0 37 0;
#X connect 51 0 44 0;
#X connect 52 0 44 2;
#X connect 53 0 39 0;
#X restore 338 629 pd print knob-3;
#X obj 1001 662 spigot;
#X obj 1051 662 spigot;
#X obj 1210 562 spigot;
#X obj 1260 562 spigot;
#X obj 1090 432 r page-ready;
#X obj 1090 636 ==;
#X msg 1136 498 1;
#X obj 1136 475 b;
#X obj 1090 454 sel 1, f 7;
#X obj 1090 499 f;
#X obj 1299 536 ==;
#X obj 1205 614 s p2s4;
#X msg 1090 476 0;
#X msg 1213 371 100;
#X obj 1209 465 f;
#X obj 1001 570 f;
#X msg 984 397 100;
#X obj 401 525 sel 2 1, f 20;
#X msg 469 568 0;
#X obj 498 655 ==;
#N canvas 11 50 1905 999 print-inverse 0;
#X obj 117 81 * 128;
#X obj 117 103 i;
#X obj 117 55 inlet;
#X obj 147 165 pack 0 0;
#X obj 200 132 t b a;
#X obj 200 38 * 128;
#X obj 200 12 inlet;
#X obj 200 60 i;
#X obj 143 763 s oscOut;
#X obj 362 239 loadbang;
#X text 677 591 previous area to invert(erase);
#X text 396 264 erase old session list;
#X msg 21 527 /oled/gFlip 3;
#X obj 328 194 r page-ready;
#X obj 328 216 b;
#X obj 200 112 max 1;
#X obj 200 82 min 127;
#X obj 466 135 b;
#X obj 466 104 r segmenty-1-print-new;
#X obj 232 158 change -1;
#X obj 117 125 change -1;
#X obj 147 187 t a a;
#X obj 188 303 list;
#X obj 121 258 t b a a b, f 10;
#X msg 143 392 /oled/gInvertArea 3 \$1 10 \$2 42;
#X msg 362 263 0 0;
#X connect 0 0 1 0;
#X connect 1 0 20 0;
#X connect 2 0 0 0;
#X connect 3 0 21 0;
#X connect 4 0 3 0;
#X connect 4 1 19 0;
#X connect 5 0 7 0;
#X connect 6 0 5 0;
#X connect 7 0 16 0;
#X connect 9 0 25 0;
#X connect 12 0 8 0;
#X connect 13 0 14 0;
#X connect 14 0 25 0;
#X connect 15 0 4 0;
#X connect 16 0 15 0;
#X connect 17 0 25 0;
#X connect 18 0 17 0;
#X connect 19 0 3 1;
#X connect 20 0 3 0;
#X connect 21 0 23 0;
#X connect 22 0 24 0;
#X connect 23 0 12 0;
#X connect 23 1 24 0;
#X connect 23 2 22 1;
#X connect 23 3 22 0;
#X connect 24 0 8 0;
#X connect 25 0 22 1;
#X restore 451 359 pd print-inverse;
#X msg 1131 817 /oled/gFlip 3;
#X obj 1179 866 s oscOut;
#X obj 1073 784 del 500;
#X msg 1096 759 stop;
#X obj 1073 734 t b b b a b, f 17;
#X obj 1073 890 s segementy-reprint-line5;
#X msg 1392 657 /oled/gFlip 3;
#X obj 1440 706 s oscOut;
#X obj 1334 624 del 500;
#X msg 1357 599 stop;
#X obj 1334 574 t b b b a b, f 17;
#X obj 1073 806 t b b;
#X obj 1334 646 t b b;
#X msg 1450 602 /oled/gFillArea 3 2 54 127 10 0;
#X msg 1189 762 /oled/gFillArea 3 2 54 127 10 0;
#N canvas 849 92 930 867 print-knob-3-at-bottom 0;
#X msg 293 723 /oled/gFlip 3;
#X obj 380 758 s oscOut;
#X obj 277 303 i;
#X obj 277 281 * 84;
#X obj 277 324 + 48;
#X obj 351 347 i;
#X obj 351 325 * 82;
#X obj 351 390 max 46;
#X obj 351 368 + 43;
#X obj 277 213 moses 0.605;
#X obj 277 256 * 1.65289;
#X obj 351 299 * 2.53164;
#X obj 351 276 - 0.605;
#X text 539 691 44 \, \$1;
#X text 550 651 \$1 \, \$2;
#X obj 278 123 moses 0.5, f 14;
#X obj 485 281 i;
#X obj 485 259 * 84;
#X obj 485 302 + 48;
#X obj 559 325 i;
#X obj 559 303 * 82;
#X obj 559 368 max 46;
#X obj 559 346 + 43;
#X obj 485 191 moses 0.605;
#X obj 485 234 * 1.65289;
#X obj 559 277 * 2.53164;
#X obj 559 254 - 0.605;
#X obj 278 189 * 2;
#X obj 373 168 - 0.5;
#X obj 373 191 * 2;
#X obj 293 539 t b a a a b b;
#X obj 278 145 t f b;
#X msg 251 394 46;
#X obj 368 468 t b a;
#X obj 351 435 min 123;
#X obj 293 436 min 123;
#X obj 373 145 t f b;
#X obj 559 212 t f b b, f 10;
#X msg 328 655 /oled/gLine 3 \$1 \$2 \$3 \$4 1;
#X obj 293 507 pack 0 0 0 0, f 26;
#X obj 485 212 t f b b;
#X obj 278 91 inlet;
#X obj 199 594 del 500;
#X msg 255 569 stop;
#X obj 199 616 t b b;
#X msg 381 562 /oled/gFillArea 3 0 54 128 8 0;
#X msg 363 589 /oled/gPrintln 3 2 54 8 1 3: Env:;
#X msg 310 686 /oled/gLine 3 44 60 \$1 \$2 1;
#X msg 344 620 /oled/gLine 3 \$3 \$4 127 60 1;
#X msg 408 426 60;
#X msg 284 462 60;
#X msg 322 462 54;
#X msg 446 427 54;
#X obj 351 234 t f b b, f 10;
#X obj 277 234 t f b b;
#X msg 425 461 126;
#X obj 346 76 loadbang;
#X msg 346 98 0.5;
#X obj 76 736 s segmenty-reprint-line5;
#X connect 0 0 1 0;
#X connect 2 0 4 0;
#X connect 3 0 2 0;
#X connect 4 0 34 0;
#X connect 5 0 8 0;
#X connect 6 0 5 0;
#X connect 7 0 34 0;
#X connect 8 0 7 0;
#X connect 9 0 54 0;
#X connect 9 1 53 0;
#X connect 10 0 3 0;
#X connect 11 0 6 0;
#X connect 12 0 11 0;
#X connect 15 0 31 0;
#X connect 15 1 36 0;
#X connect 16 0 18 0;
#X connect 17 0 16 0;
#X connect 18 0 35 0;
#X connect 19 0 22 0;
#X connect 20 0 19 0;
#X connect 21 0 35 0;
#X connect 22 0 21 0;
#X connect 23 0 40 0;
#X connect 23 1 37 0;
#X connect 24 0 17 0;
#X connect 25 0 20 0;
#X connect 26 0 25 0;
#X connect 27 0 9 0;
#X connect 28 0 29 0;
#X connect 29 0 23 0;
#X connect 30 0 0 0;
#X connect 30 0 42 0;
#X connect 30 1 47 0;
#X connect 30 2 38 0;
#X connect 30 3 48 0;
#X connect 30 4 46 0;
#X connect 30 5 45 0;
#X connect 30 5 43 0;
#X connect 31 0 27 0;
#X connect 31 1 32 0;
#X connect 32 0 35 0;
#X connect 33 0 39 0;
#X connect 33 1 39 2;
#X connect 34 0 33 0;
#X connect 35 0 39 0;
#X connect 36 0 28 0;
#X connect 36 1 55 0;
#X connect 37 0 26 0;
#X connect 37 1 52 0;
#X connect 37 2 50 0;
#X connect 38 0 1 0;
#X connect 39 0 30 0;
#X connect 40 0 24 0;
#X connect 40 1 52 0;
#X connect 40 2 51 0;
#X connect 41 0 15 0;
#X connect 42 0 44 0;
#X connect 43 0 42 0;
#X connect 44 0 58 0;
#X connect 44 1 45 0;
#X connect 45 0 1 0;
#X connect 46 0 1 0;
#X connect 47 0 1 0;
#X connect 48 0 1 0;
#X connect 49 0 39 3;
#X connect 50 0 39 1;
#X connect 51 0 39 1;
#X connect 52 0 39 3;
#X connect 53 0 12 0;
#X connect 53 1 52 0;
#X connect 53 2 51 0;
#X connect 54 0 10 0;
#X connect 54 1 49 0;
#X connect 54 2 51 0;
#X connect 55 0 39 2;
#X connect 56 0 57 0;
#X connect 57 0 15 0;
#X restore 474 735 pd print-knob-3-at-bottom;
#X obj 338 601 spigot 0, f 14;
#X obj 474 708 spigot 0;
#X msg 1161 799 /oled/gPrintln 3 2 54 8 1 Speed: -\$1%;
#X msg 951 700 4: Speed -\$1 % \;;
#X msg 1210 592 4: Speed +\$1 % \;;
#X msg 1421 636 /oled/gPrintln 3 2 54 8 1 Speed: +\$1%;
#X obj 163 620 s segmenty-knob3-local;
#X obj 624 619 s segmenty-knob4-local;
#X obj 682 165 del 21;
#X obj 478 183 del 22;
#X obj 1334 730 s segmenty-reprint-line5;
#X obj 949 422 * 200;
#X obj 1040 406 * 200;
#X obj 1040 428 + 100;
#X msg 636 381 2: Length: \$1%;
#X msg 336 388 1: Start Point: \$1%;
#X connect 0 0 1 0;
#X connect 0 1 5 0;
#X connect 1 0 127 0;
#X connect 1 1 2 0;
#X connect 2 0 16 1;
#X connect 2 0 17 1;
#X connect 3 0 17 1;
#X connect 3 0 16 1;
#X connect 4 0 0 0;
#X connect 5 0 23 0;
#X connect 5 1 3 0;
#X connect 8 0 9 0;
#X connect 9 0 132 0;
#X connect 10 0 11 0;
#X connect 11 0 133 0;
#X connect 14 0 16 0;
#X connect 14 0 10 0;
#X connect 14 0 6 0;
#X connect 15 0 17 0;
#X connect 15 0 8 0;
#X connect 15 0 7 0;
#X connect 16 0 101 0;
#X connect 17 0 101 1;
#X connect 18 0 78 0;
#X connect 19 0 77 0;
#X connect 20 0 79 0;
#X connect 21 0 35 0;
#X connect 21 0 124 0;
#X connect 22 0 125 0;
#X connect 24 0 14 0;
#X connect 25 0 15 0;
#X connect 26 0 21 0;
#X connect 27 0 22 0;
#X connect 28 0 126 0;
#X connect 29 0 28 0;
#X connect 30 0 35 0;
#X connect 30 1 31 0;
#X connect 31 0 100 0;
#X connect 31 0 118 1;
#X connect 32 0 33 0;
#X connect 33 0 118 1;
#X connect 33 0 119 1;
#X connect 34 0 98 0;
#X connect 35 0 118 0;
#X connect 35 0 119 0;
#X connect 36 0 94 0;
#X connect 37 0 95 0;
#X connect 38 0 39 0;
#X connect 39 0 95 0;
#X connect 40 0 22 0;
#X connect 41 0 61 0;
#X connect 41 0 62 0;
#X connect 41 1 36 0;
#X connect 41 1 62 0;
#X connect 41 2 58 0;
#X connect 41 2 62 0;
#X connect 43 0 74 0;
#X connect 44 0 55 0;
#X connect 44 1 45 0;
#X connect 45 0 46 0;
#X connect 46 0 41 0;
#X connect 47 0 97 0;
#X connect 48 0 130 0;
#X connect 49 0 96 0;
#X connect 50 0 51 0;
#X connect 51 0 96 0;
#X connect 52 0 63 0;
#X connect 52 0 129 0;
#X connect 52 1 47 0;
#X connect 52 1 63 0;
#X connect 52 2 48 0;
#X connect 52 2 63 0;
#X connect 55 0 56 0;
#X connect 56 0 57 0;
#X connect 57 0 52 0;
#X connect 58 0 59 0;
#X connect 59 0 60 0;
#X connect 60 0 37 0;
#X connect 61 0 38 0;
#X connect 62 0 42 0;
#X connect 63 0 53 0;
#X connect 64 0 65 0;
#X connect 65 0 68 0;
#X connect 65 1 66 0;
#X connect 66 0 67 0;
#X connect 67 0 69 0;
#X connect 68 0 69 0;
#X connect 70 0 76 1;
#X connect 71 0 79 1;
#X connect 72 0 77 1;
#X connect 73 0 78 1;
#X connect 74 0 76 0;
#X connect 75 0 74 0;
#X connect 76 0 44 0;
#X connect 77 0 15 0;
#X connect 78 0 14 0;
#X connect 79 0 21 0;
#X connect 81 0 121 0;
#X connect 82 0 106 0;
#X connect 83 0 122 0;
#X connect 84 0 112 0;
#X connect 85 0 89 0;
#X connect 86 0 82 1;
#X connect 87 0 90 0;
#X connect 88 0 87 0;
#X connect 89 0 93 0;
#X connect 89 1 88 0;
#X connect 90 0 86 0;
#X connect 90 0 91 0;
#X connect 90 0 81 1;
#X connect 90 0 83 1;
#X connect 91 0 84 1;
#X connect 93 0 90 0;
#X connect 94 0 95 0;
#X connect 95 0 83 0;
#X connect 95 0 84 0;
#X connect 96 0 81 0;
#X connect 96 0 82 0;
#X connect 97 0 96 0;
#X connect 98 0 30 0;
#X connect 98 1 99 0;
#X connect 98 2 32 0;
#X connect 99 0 100 0;
#X connect 99 0 118 1;
#X connect 100 0 119 1;
#X connect 102 0 103 0;
#X connect 104 0 113 0;
#X connect 105 0 104 0;
#X connect 106 0 104 0;
#X connect 106 1 105 0;
#X connect 106 2 102 0;
#X connect 106 3 120 0;
#X connect 106 4 116 0;
#X connect 108 0 109 0;
#X connect 110 0 114 0;
#X connect 111 0 110 0;
#X connect 112 0 110 0;
#X connect 112 1 111 0;
#X connect 112 2 108 0;
#X connect 112 3 123 0;
#X connect 112 4 115 0;
#X connect 113 0 107 0;
#X connect 113 1 116 0;
#X connect 114 0 128 0;
#X connect 114 1 115 0;
#X connect 115 0 109 0;
#X connect 116 0 103 0;
#X connect 118 0 80 0;
#X connect 119 0 117 0;
#X connect 120 0 103 0;
#X connect 121 0 54 0;
#X connect 122 0 92 0;
#X connect 123 0 109 0;
#X connect 126 0 14 0;
#X connect 126 0 15 0;
#X connect 127 0 14 0;
#X connect 127 0 15 0;
#X connect 129 0 50 0;
#X connect 130 0 131 0;
#X connect 131 0 49 0;
#X connect 132 0 13 0;
#X connect 133 0 12 0;
#X restore 22 433 pd the-knobs;
#N canvas 63 78 961 859 print-waveform 0;
#N canvas 353 148 888 801 display-waveform 0;
#X obj 368 256 / 128;
#X obj 347 314 + 1;
#X obj 310 317 f 0;
#X obj 311 353 i;
#X obj 269 257 until;
#X msg 275 232 128;
#X msg 336 245 0;
#X obj 314 409 * 0.5;
#X obj 314 431 + 0.5;
#X obj 314 460 * 64;
#X obj 314 505 i;
#X obj 261 104 inlet;
#X obj 371 553 t l;
#X obj 230 642 list append;
#X obj 230 667 list trim;
#X obj 274 549 list prepend;
#X text 444 289 step through table at duration / 128;
#X obj 261 171 t b b b f b b, f 26;
#X msg 54 547 sendtyped /oled/gWaveform ib 3;
#X obj 230 689 outlet;
#X obj 312 387 tabread segmenty-1;
#X obj 261 131 tabread segmenty-lengths;
#X connect 0 0 1 1;
#X connect 1 0 2 1;
#X connect 2 0 1 0;
#X connect 2 0 3 0;
#X connect 3 0 20 0;
#X connect 4 0 2 0;
#X connect 5 0 4 0;
#X connect 6 0 2 1;
#X connect 7 0 8 0;
#X connect 8 0 9 0;
#X connect 9 0 10 0;
#X connect 10 0 15 0;
#X connect 11 0 21 0;
#X connect 12 0 15 1;
#X connect 13 0 14 0;
#X connect 14 0 19 0;
#X connect 15 0 13 1;
#X connect 15 0 12 0;
#X connect 17 0 18 0;
#X connect 17 1 5 0;
#X connect 17 2 6 0;
#X connect 17 3 0 0;
#X connect 17 4 15 0;
#X connect 17 5 15 1;
#X connect 18 0 13 0;
#X connect 20 0 7 0;
#X connect 21 0 17 0;
#X restore 342 377 pd display-waveform;
#X msg 362 352 /oled/gClear 3 1;
#X msg 322 412 /oled/gFlip 3;
#X obj 322 444 s oscOut;
#X obj 322 162 b;
#X obj 427 180 sel 1, f 11;
#X obj 427 202 t b b;
#X msg 459 223 1;
#X obj 501 207 b;
#X msg 501 229 0;
#X obj 322 266 spigot 0, f 15;
#X obj 427 158 r page-ready;
#X obj 322 131 r segmenty-1-print-new;
#X msg 613 314 /oled/gClear 3 1;
#X msg 567 394 /oled/gFlip 3;
#X obj 567 426 s oscOut;
#X obj 567 287 t b b b;
#X msg 585 348 /oled/gLine 3 0 32 127 32 1;
#X obj 567 205 r segmenty-action;
#X obj 567 264 sel 1;
#X msg 322 233 1;
#X obj 322 307 t b f b b;
#X obj 322 185 del 20;
#X obj 561 116 bng 15 250 50 0 empty empty empty 17 7 0 10 -262144
-1 -1;
#X connect 0 0 3 0;
#X connect 1 0 3 0;
#X connect 2 0 3 0;
#X connect 4 0 22 0;
#X connect 5 0 6 0;
#X connect 5 1 8 0;
#X connect 6 0 20 0;
#X connect 6 1 7 0;
#X connect 7 0 10 1;
#X connect 8 0 9 0;
#X connect 9 0 10 1;
#X connect 10 0 21 0;
#X connect 11 0 5 0;
#X connect 12 0 4 0;
#X connect 13 0 15 0;
#X connect 14 0 15 0;
#X connect 16 0 14 0;
#X connect 16 1 17 0;
#X connect 16 2 13 0;
#X connect 17 0 15 0;
#X connect 18 0 19 0;
#X connect 19 0 16 0;
#X connect 20 0 10 0;
#X connect 21 0 2 0;
#X connect 21 1 0 0;
#X connect 21 2 1 0;
#X connect 22 0 20 0;
#X connect 23 0 4 0;
#X restore 27 471 pd print-waveform;
#X obj 406 260 spigot 0;
#X obj 470 150 r page-ready;
#X msg 470 224 1;
#X msg 551 218 0;
#X obj 470 194 t b b;
#X obj 502 267 del 10;
#X obj 423 62 r segmenty-action;
#X obj 423 84 sel 0;
#X obj 455 105 b;
#X msg 455 127 0;
#X msg 423 106 1;
#X obj 370 170 spigot 1;
#X obj 551 195 b;
#X obj 584 230 r segmenty-action;
#X obj 584 252 sel 1;
#X obj 470 172 sel 0 2, f 12;
#X obj 746 281 loadbang;
#X msg 746 345 read lengths.txt;
#X msg 801 397 write lengths.txt;
#X obj 801 373 r saveState;
#X obj 743 216 cg-rec-array segmenty 1 1 24000;
#X obj 743 80 r segmenty-action;
#X msg 743 156 1;
#X obj 743 240 s segmenty-thresh-passed;
#X obj 746 439 array define segmenty-lengths;
#X obj 743 132 sel 1 0;
#X msg 783 156 0;
#X obj 746 303 del 100;
#X obj 743 178 change 0;
#X obj 378 503 r~ inL;
#X obj 426 503 r~ inR;
#X obj 378 547 *~ 0.7;
#X obj 378 599 throw~ outL;
#X obj 388 579 throw~ outR;
#X connect 0 0 2 0;
#X connect 1 0 2 0;
#X connect 3 0 4 0;
#X connect 3 0 5 0;
#X connect 7 0 14 0;
#X connect 9 0 12 0;
#X connect 10 0 7 0;
#X connect 11 0 10 0;
#X connect 11 1 8 0;
#X connect 12 0 13 0;
#X connect 13 0 11 0;
#X connect 15 0 32 0;
#X connect 16 0 21 0;
#X connect 17 0 21 0;
#X connect 18 0 3 0;
#X connect 21 0 18 1;
#X connect 22 0 36 0;
#X connect 23 0 21 1;
#X connect 24 0 21 1;
#X connect 25 0 23 0;
#X connect 25 1 26 0;
#X connect 26 0 18 3;
#X connect 27 0 28 0;
#X connect 28 0 31 0;
#X connect 28 1 29 0;
#X connect 29 0 30 0;
#X connect 30 0 32 1;
#X connect 31 0 32 1;
#X connect 32 0 18 0;
#X connect 33 0 24 0;
#X connect 34 0 35 0;
#X connect 35 0 18 4;
#X connect 36 0 25 0;
#X connect 36 1 25 0;
#X connect 36 2 33 0;
#X connect 37 0 48 0;
#X connect 38 0 45 0;
#X connect 39 0 45 0;
#X connect 40 0 39 0;
#X connect 41 0 44 0;
#X connect 42 0 46 0;
#X connect 43 0 49 0;
#X connect 46 0 43 0;
#X connect 46 1 47 0;
#X connect 47 0 49 0;
#X connect 48 0 38 0;
#X connect 49 0 41 0;
#X connect 50 0 52 0;
#X connect 51 0 52 0;
#X connect 52 0 53 0;
#X connect 52 0 54 0;
