#N canvas 414 50 1286 933 10;
#X obj 409 86 unpack, f 7;
#X obj 409 22 inlet;
#X obj 409 108 swap, f 7;
#X obj 455 160 change -1;
#X msg 455 463 read \$1;
#X msg 634 445 length \$1;
#X obj 455 380 * 0.0416667;
#X obj 409 516 sel 0, f 24;
#X obj 409 660 t b b b;
#X msg 455 688 stop;
#X msg 428 756 0;
#X msg 428 777 switch \$1;
#X obj 428 843 s \$0-2-looper;
#X obj 409 711 s \$0-2-vline;
#X obj 574 584 / 127;
#X msg 733 622 switch \$1;
#X msg 733 598 1;
#X msg 13 151 decay \$1;
#X obj 13 175 s \$0-2-looper;
#X msg 20 375 speed \$1;
#X obj 627 280 r segmenty-sample-out;
#X obj 472 287 r segmenty-sample-in;
#X text 701 330 (size);
#X obj 634 329 max 0.01;
#X obj 473 321 min 0.98;
#X obj 634 354 / 24;
#X obj 455 402 +;
#X text 484 404 read point;
#X text 674 350 divide sample size into 24 chunks;
#X text 554 489 send as in and out points;
#X obj 455 132 t f b, f 13;
#X obj 473 343 t b a;
#X obj 574 708 s \$0-2-vline;
#X obj 574 606 sqrt;
#X msg 574 682 \$1 10;
#X msg 409 688 0 100;
#X obj 428 733 del 100;
#X obj 20 309 r segmenty-knob4-local;
#X obj 13 120 r segmenty-knob3-local;
#X obj 571 2 r scope;
#X obj 571 43 sel 0 1, f 20;
#X obj 409 53 spigot 1;
#X msg 629 107 1;
#X obj 571 64 t b b;
#X msg 598 95 0;
#X obj 598 136 f;
#X msg 571 85 0;
#X obj 571 23 ==;
#X obj 20 410 s \$0-2-looper;
#X obj 634 470 s \$0-2-looper;
#X obj 455 489 s \$0-2-looper;
#X obj 733 653 s \$0-2-looper;
#X obj 630 650 s \$0-2-phase;
#X msg 826 434 insta-read \$1;
#X msg 847 461 insta-length \$1;
#X obj 833 503 s \$0-2-looper;
#X obj 517 442 f;
#X obj 678 415 f;
#X obj 574 560 t a b b b b, f 38;
#X obj 579 400 t b b;
#X obj 49 545 r \$0-2-looper;
#X obj 48 798 throw~ segmenty-bus;
#X obj 64 695 vline~;
#X obj 196 543 r \$0-2-phase;
#X obj 48 751 *~;
#X obj 64 672 r \$0-2-vline;
#X obj 64 719 *~;
#X obj 49 595 cg-looper-deluxe segmenty;
#X obj 48 776 *~ 0.7;
#X obj 15 221 r segmenty-loop;
#X msg 15 242 loop \$1;
#X obj 15 263 s \$0-2-looper;
#X obj 20 330 t a a, f 18;
#X obj 125 357 moses 0;
#X obj 125 378 t b;
#X obj 164 378 t b;
#X obj 164 435 v \$0-direction;
#X obj 630 623 v \$0-direction;
#X msg 543 213 point 1;
#X obj 543 236 s \$0-2-looper;
#X msg 164 399 0;
#X msg 125 401 1;
#X connect 0 0 2 0;
#X connect 0 1 2 1;
#X connect 1 0 41 0;
#X connect 2 0 7 0;
#X connect 2 1 30 0;
#X connect 3 0 6 0;
#X connect 4 0 50 0;
#X connect 5 0 49 0;
#X connect 6 0 26 0;
#X connect 7 0 8 0;
#X connect 7 1 58 0;
#X connect 8 0 35 0;
#X connect 8 1 36 0;
#X connect 8 2 9 0;
#X connect 9 0 36 0;
#X connect 10 0 11 0;
#X connect 11 0 12 0;
#X connect 14 0 33 0;
#X connect 15 0 51 0;
#X connect 16 0 15 0;
#X connect 17 0 18 0;
#X connect 19 0 48 0;
#X connect 20 0 23 0;
#X connect 21 0 24 0;
#X connect 23 0 25 0;
#X connect 24 0 31 0;
#X connect 25 0 6 1;
#X connect 25 0 5 0;
#X connect 25 0 57 1;
#X connect 26 0 4 0;
#X connect 26 0 56 1;
#X connect 30 0 3 0;
#X connect 30 1 78 0;
#X connect 31 0 6 0;
#X connect 31 1 26 1;
#X connect 33 0 34 0;
#X connect 34 0 32 0;
#X connect 35 0 13 0;
#X connect 36 0 10 0;
#X connect 37 0 72 0;
#X connect 38 0 17 0;
#X connect 39 0 47 0;
#X connect 40 0 43 0;
#X connect 40 1 42 0;
#X connect 41 0 0 0;
#X connect 42 0 45 0;
#X connect 43 0 46 0;
#X connect 43 1 44 0;
#X connect 44 0 45 0;
#X connect 45 0 41 1;
#X connect 46 0 7 0;
#X connect 47 0 40 0;
#X connect 53 0 55 0;
#X connect 54 0 55 0;
#X connect 56 0 53 0;
#X connect 57 0 54 0;
#X connect 58 0 14 0;
#X connect 58 1 77 0;
#X connect 58 2 16 0;
#X connect 58 3 9 0;
#X connect 58 4 59 0;
#X connect 59 0 56 0;
#X connect 59 1 57 0;
#X connect 60 0 67 0;
#X connect 62 0 66 0;
#X connect 62 0 66 1;
#X connect 63 0 67 1;
#X connect 64 0 68 0;
#X connect 65 0 62 0;
#X connect 66 0 64 1;
#X connect 67 0 64 0;
#X connect 68 0 61 0;
#X connect 69 0 70 0;
#X connect 70 0 71 0;
#X connect 72 0 19 0;
#X connect 72 1 73 0;
#X connect 73 0 74 0;
#X connect 73 1 75 0;
#X connect 74 0 81 0;
#X connect 75 0 80 0;
#X connect 77 0 52 0;
#X connect 78 0 79 0;
#X connect 80 0 76 0;
#X connect 81 0 76 0;
