#N canvas 414 50 1013 718 10;
#X obj 15 143 s \$0-2-looper;
#X obj 59 425 r \$0-2-looper;
#X obj 58 658 throw~ segmenty-bus;
#X obj 409 46 unpack, f 7;
#X obj 409 22 inlet;
#X obj 409 68 swap, f 7;
#X obj 455 120 change -1;
#X obj 15 45 loadbang;
#X obj 455 366 s \$0-2-looper;
#X msg 455 343 read \$1;
#X obj 634 348 s \$0-2-looper;
#X msg 634 325 length \$1;
#X obj 455 280 * 0.0416667;
#X obj 75 510 vline~;
#X obj 167 423 r \$0-2-phase;
#X obj 409 416 sel 0, f 24;
#X obj 409 460 t b b b;
#X msg 455 538 stop;
#X msg 432 606 0;
#X msg 432 630 switch \$1;
#X obj 432 651 s \$0-2-looper;
#X obj 409 561 s \$0-2-vline;
#X obj 574 484 / 127;
#X obj 615 561 s \$0-2-phase;
#X msg 685 517 switch \$1;
#X obj 685 538 s \$0-2-looper;
#X msg 685 493 1;
#X obj 574 460 t a b b b, f 18;
#X obj 58 566 *~;
#X msg 13 211 decay \$1;
#X obj 13 233 s \$0-2-looper;
#X msg 15 90 speed 1;
#X obj 14 331 s \$0-2-looper;
#X msg 14 309 speed \$1;
#X obj 634 187 r segmenty-sample-out;
#X obj 473 189 r segmenty-sample-in;
#X text 701 210 (size);
#X obj 634 209 max 0.01;
#X obj 473 211 min 0.98;
#X obj 634 234 / 24;
#X obj 455 302 +;
#X text 484 304 read point;
#X text 674 230 divide sample size into 24 chunks;
#X text 554 369 send as in and out points;
#X obj 455 92 t f b, f 13;
#X obj 543 136 s \$0-2-looper;
#X obj 473 233 t b a;
#X obj 75 487 r \$0-2-vline;
#X obj 574 608 s \$0-2-vline;
#X obj 574 506 sqrt;
#X obj 75 534 *~;
#X msg 574 582 \$1 10;
#X obj 135 306 moses 0;
#X obj 181 329 b;
#X obj 135 330 b;
#X obj 14 279 t f f;
#X msg 181 351 0;
#X obj 135 374 v \$0-v;
#X obj 615 518 v \$0-v;
#X msg 409 538 0 100;
#X obj 432 583 del 100;
#X msg 135 352 1;
#X obj 14 257 r segmenty-knob4-local;
#X obj 13 189 r segmenty-knob3-local;
#X msg 543 113 point 1;
#X obj 59 455 cg-looper-deluxe segmenty;
#X obj 58 636 *~ 0.9;
#X obj 58 599 *~;
#X msg 171 495 1 \$1;
#X obj 171 517 /;
#X obj 171 539 rmstodb;
#X obj 171 561 / 100;
#X obj 171 474 r segementy-voice-sum;
#X connect 1 0 65 0;
#X connect 3 0 5 0;
#X connect 3 1 5 1;
#X connect 4 0 3 0;
#X connect 5 0 15 0;
#X connect 5 1 44 0;
#X connect 6 0 12 0;
#X connect 7 0 31 0;
#X connect 9 0 8 0;
#X connect 11 0 10 0;
#X connect 12 0 40 0;
#X connect 13 0 50 0;
#X connect 13 0 50 1;
#X connect 14 0 65 1;
#X connect 15 0 16 0;
#X connect 15 1 27 0;
#X connect 16 0 59 0;
#X connect 16 1 60 0;
#X connect 16 2 17 0;
#X connect 17 0 60 0;
#X connect 18 0 19 0;
#X connect 19 0 20 0;
#X connect 22 0 49 0;
#X connect 24 0 25 0;
#X connect 26 0 24 0;
#X connect 27 0 22 0;
#X connect 27 1 58 0;
#X connect 27 2 26 0;
#X connect 27 3 17 0;
#X connect 28 0 67 0;
#X connect 29 0 30 0;
#X connect 31 0 0 0;
#X connect 33 0 32 0;
#X connect 34 0 37 0;
#X connect 35 0 38 0;
#X connect 37 0 39 0;
#X connect 38 0 46 0;
#X connect 39 0 12 1;
#X connect 39 0 11 0;
#X connect 40 0 9 0;
#X connect 44 0 6 0;
#X connect 44 1 64 0;
#X connect 46 0 12 0;
#X connect 46 1 40 1;
#X connect 47 0 13 0;
#X connect 49 0 51 0;
#X connect 50 0 28 1;
#X connect 51 0 48 0;
#X connect 52 0 54 0;
#X connect 52 1 53 0;
#X connect 53 0 56 0;
#X connect 54 0 61 0;
#X connect 55 0 33 0;
#X connect 55 1 52 0;
#X connect 56 0 57 0;
#X connect 58 0 23 0;
#X connect 59 0 21 0;
#X connect 60 0 18 0;
#X connect 61 0 57 0;
#X connect 62 0 55 0;
#X connect 63 0 29 0;
#X connect 64 0 45 0;
#X connect 65 0 28 0;
#X connect 66 0 2 0;
#X connect 67 0 66 0;
#X connect 68 0 69 0;
#X connect 69 0 70 0;
#X connect 70 0 71 0;
#X connect 71 0 67 1;
#X connect 72 0 68 0;
