#N canvas 92 118 1701 848 10;
#X declare -path CG-Pd-Library-Local/sequencer;
#X declare -path CG-Pd-Library-Local/externals;
#X declare -path CG-Pd-Library-Local/metronome;
#X declare -path /sdcard/CG-Pd-Library/sequencer;
#X declare -path /sdcard/CG-Pd-Library/externals;
#X declare -path /sdcard/CG-Pd-Library/metronome;
#N canvas 133 50 826 891 array-sort 0;
#X obj 263 111 until;
#X obj 263 153 f;
#X obj 296 154 + 1, f 4;
#X msg 321 91 0, f 2;
#X obj 296 21 bng 15 250 50 0 empty empty empty 17 7 0 10 -262144 -1
-1;
#X obj 312 267 f;
#X obj 264 232 t f b;
#X obj 262 182 t f f;
#X obj 249 452 f;
#X floatatom 240 515 5 0 0 0 - - -;
#X obj 306 399 sel 1;
#X obj 214 485 f;
#X obj 173 537 f;
#X obj 213 553 t b b;
#X obj 323 560 t b f;
#X obj 250 580 f;
#X obj 343 -90 until;
#X obj 344 -46 f;
#X obj 376 -47 + 1, f 4;
#X msg 401 -110 0, f 2;
#X obj 345 -139 t b b;
#X obj 329 -11 t b f;
#X obj 214 -206 r reorder;
#X obj 252 48 t b b b b;
#X msg 314 585 0, f 2;
#X msg 357 89 0;
#X obj 217 333 expr if ($f1 > $f2 \, $f1 \, $f2) \; if ($f1 > $f2 \,
1 \, 0);
#X msg 344 -115 8, f 2;
#X msg 263 83 8, f 2;
#X obj 170 -206 bng 15 250 50 0 empty empty empty 17 7 0 10 -262144
-1 -1;
#X obj 264 210 tabread notes-squashed;
#X obj 314 621 tabwrite notes-squashed;
#X obj 139 648 tabwrite notes-decreasing;
#X text 419 137 sort array a into b. a gets clobbered in the process
probably a much better way to do this ...;
#X obj 204 -173 t b b b;
#X connect 0 0 1 0;
#X connect 1 0 2 0;
#X connect 1 0 7 0;
#X connect 2 0 1 1;
#X connect 3 0 1 1;
#X connect 4 0 23 0;
#X connect 5 0 26 1;
#X connect 6 0 26 0;
#X connect 6 1 5 0;
#X connect 7 0 30 0;
#X connect 7 1 8 1;
#X connect 8 0 11 1;
#X connect 9 0 14 0;
#X connect 10 0 8 0;
#X connect 11 0 9 0;
#X connect 11 0 13 0;
#X connect 12 0 32 0;
#X connect 13 0 12 0;
#X connect 13 1 15 0;
#X connect 14 0 24 0;
#X connect 14 1 31 1;
#X connect 15 0 32 1;
#X connect 16 0 17 0;
#X connect 17 0 18 0;
#X connect 17 0 21 0;
#X connect 18 0 17 1;
#X connect 19 0 17 1;
#X connect 20 0 27 0;
#X connect 20 1 19 0;
#X connect 21 0 4 0;
#X connect 21 1 15 1;
#X connect 22 0 34 0;
#X connect 23 0 11 0;
#X connect 23 1 28 0;
#X connect 23 2 3 0;
#X connect 23 3 25 0;
#X connect 24 0 31 0;
#X connect 25 0 5 1;
#X connect 26 0 5 1;
#X connect 26 0 12 1;
#X connect 26 1 10 0;
#X connect 27 0 16 0;
#X connect 28 0 0 0;
#X connect 29 0 34 0;
#X connect 30 0 6 0;
#X connect 34 2 20 0;
#X restore 714 529 pd array-sort;
#X text 1004 159 array1 is raw data from poly (notes with 0 velocity
are given 0 pitch);
#X text 979 533 here are the notes sorted...;
#N canvas 167 50 726 731 increasing 0;
#X obj 156 260 until;
#X obj 157 304 f;
#X obj 189 303 + 1, f 4;
#X msg 214 240 0, f 2;
#X obj 155 236 f 0;
#X obj 156 357 - 0;
#X obj 157 408 abs;
#X obj 157 326 t f f;
#X obj 266 471 f;
#X obj 156 469 t f b;
#X obj 320 197 r num-down;
#X obj 156 379 + 1;
#X obj 416 331 until;
#X obj 416 373 f;
#X obj 449 374 + 1, f 4;
#X msg 474 311 0, f 2;
#X obj 416 276 t b b;
#X obj 424 398 t b f;
#X msg 415 423 0, f 2;
#X msg 416 303 8, f 2;
#X obj 155 197 t b b b;
#X obj 156 437 tabread notes-decreasing;
#X obj 152 508 tabwrite notes-increasing;
#X obj 413 448 tabwrite notes-increasing;
#X obj 153 67 inlet;
#X connect 0 0 1 0;
#X connect 1 0 2 0;
#X connect 1 0 7 0;
#X connect 2 0 1 1;
#X connect 3 0 1 1;
#X connect 4 0 0 0;
#X connect 5 0 11 0;
#X connect 6 0 21 0;
#X connect 7 0 5 0;
#X connect 7 1 8 1;
#X connect 8 0 22 1;
#X connect 9 0 22 0;
#X connect 9 1 8 0;
#X connect 10 0 4 1;
#X connect 10 0 5 1;
#X connect 11 0 6 0;
#X connect 12 0 13 0;
#X connect 13 0 14 0;
#X connect 13 0 17 0;
#X connect 14 0 13 1;
#X connect 15 0 13 1;
#X connect 16 0 19 0;
#X connect 16 1 15 0;
#X connect 17 0 18 0;
#X connect 17 1 23 1;
#X connect 18 0 23 0;
#X connect 19 0 12 0;
#X connect 20 0 4 0;
#X connect 20 1 3 0;
#X connect 20 2 16 0;
#X connect 21 0 9 0;
#X connect 24 0 20 0;
#X restore 707 709 pd increasing;
#X obj 310 676 s num-down;
#N canvas 7 50 1000 647 array-copy 0;
#X obj 228 194 until;
#X obj 228 236 f;
#X obj 261 237 + 1, f 4;
#X msg 286 174 0, f 2;
#X obj 227 98 bng 15 250 50 0 empty empty empty 17 7 0 10 -262144 -1
-1;
#X obj 406 272 until;
#X obj 406 314 f;
#X obj 439 315 + 1, f 4;
#X msg 464 252 0, f 2;
#X obj 406 217 t b b;
#X obj 414 339 t b f;
#X msg 405 364 0, f 2;
#X obj 227 121 t b b b;
#X msg 228 166 8, f 2;
#X msg 406 244 8, f 2;
#X text 324 97 this removes 0 elements (or actually just moves the
following elements over 1 place);
#X text 508 296 first zero out the destination array;
#X obj 228 258 t f f;
#X obj 227 75 r copy;
#X obj 408 385 tabwrite notes-squashed;
#X obj 229 297 tabread notes-from-poly;
#X obj 247 410 tabwrite notes-squashed;
#X connect 0 0 1 0;
#X connect 1 0 2 0;
#X connect 1 0 17 0;
#X connect 2 0 1 1;
#X connect 3 0 1 1;
#X connect 4 0 12 0;
#X connect 5 0 6 0;
#X connect 6 0 7 0;
#X connect 6 0 10 0;
#X connect 7 0 6 1;
#X connect 8 0 6 1;
#X connect 9 0 14 0;
#X connect 9 1 8 0;
#X connect 10 0 11 0;
#X connect 10 1 19 1;
#X connect 11 0 19 0;
#X connect 12 0 13 0;
#X connect 12 1 3 0;
#X connect 12 2 9 0;
#X connect 13 0 0 0;
#X connect 14 0 5 0;
#X connect 17 0 20 0;
#X connect 17 1 21 1;
#X connect 18 0 4 0;
#X connect 20 0 21 0;
#X restore 713 350 pd array-copy;
#X text 976 696 then increasing;
#X text 1235 628 then play them!;
#X text 990 333 array squash pulls out 0 notes. this array gets clobbered
by the sorting function so it always looks blank;
#N canvas 1215 109 533 527 countnotes 0;
#X obj 104 289 > 0;
#X obj 104 316 sel 1;
#X obj 158 352 + 1, f 4;
#X obj 110 353 f 0;
#X obj 141 130 until;
#X obj 142 174 f;
#X obj 174 173 + 1, f 4;
#X msg 276 125 0, f 2;
#X msg 142 105 8, f 2;
#X obj 143 35 r countem;
#X obj 89 395 f 0;
#X obj 86 423 outlet;
#X obj 83 200 t f f;
#X obj 36 244 sel 7;
#X obj 91 62 bng 15 250 50 0 empty empty empty 17 7 0 10 -262144 -1
-1;
#X obj 201 422 print;
#X obj 106 234 tabread notes-from-poly;
#X obj 143 81 t b b;
#X connect 0 0 1 0;
#X connect 1 0 3 0;
#X connect 2 0 3 1;
#X connect 2 0 10 1;
#X connect 3 0 2 0;
#X connect 4 0 5 0;
#X connect 5 0 6 0;
#X connect 5 0 12 0;
#X connect 6 0 5 1;
#X connect 7 0 5 1;
#X connect 7 0 3 1;
#X connect 7 0 10 1;
#X connect 8 0 4 0;
#X connect 9 0 17 0;
#X connect 10 0 11 0;
#X connect 12 0 13 0;
#X connect 12 1 16 0;
#X connect 13 0 10 0;
#X connect 14 0 5 0;
#X connect 16 0 0 0;
#X connect 17 0 8 0;
#X connect 17 1 7 0;
#X restore 310 629 pd countnotes;
#X obj 707 678 r others;
#X text 290 597 number notes currently held down;
#X text 11 4 notes are put into an array and then sorted in increasing
/ decreasing order. the 'arp' subpatch then counts through the arrays
in various patterns;
#X obj 778 557 array define notes-decreasing 8;
#X obj 779 740 array define notes-increasing 8;
#X obj 797 374 array define notes-squashed 8;
#X obj 800 211 array define notes-from-poly 8;
#N canvas 13 50 450 300 CG-PdLibrary-Local 0;
#X obj 502 35 r cgSc-1-slots;
#X obj 60 98 declare -path CG-Pd-Library-Local/sequencer;
#X obj 58 130 declare -path CG-Pd-Library-Local/externals;
#X obj 59 165 declare -path CG-Pd-Library-Local/metronome;
#X restore 690 136 pd CG-PdLibrary-Local;
#N canvas 12 50 450 300 CG-PdLibrary-SDcard 0;
#X obj 60 98 declare -path /sdcard/CG-Pd-Library/sequencer;
#X obj 58 130 declare -path /sdcard/CG-Pd-Library/externals;
#X obj 59 165 declare -path /sdcard/CG-Pd-Library/metronome;
#X obj 502 35 r cgSc-1-slots;
#X restore 690 165 pd CG-PdLibrary-SDcard;
#X obj 28 400 pack 0 0 0;
#X obj 28 451 unpack, f 53;
#X obj 99 562 s reorder;
#X obj 28 375 poly 8 1, f 10;
#X obj 28 562 s others;
#N canvas 9 50 588 574 format_for_array 0;
#X obj 111 44 inlet;
#X obj 102 128 f;
#X obj 144 151 sel 0;
#X msg 121 188 0;
#X obj 167 181 t b b;
#X obj 137 126 f;
#X obj 79 268 t f b;
#X obj 75 336 pack 0 0;
#X obj 85 75 unpack 0 0 0;
#X obj 41 132 t b f;
#X obj 117 304 f;
#X obj 78 389 outlet;
#X obj 133 274 - 1;
#X text 169 280 array index starts at 0 \, poly index starts at 1;
#X text 223 150 if the velocity is > 0 \, outputs note number. If =
0 \, it outputs 0 for note number;
#X connect 0 0 8 0;
#X connect 1 0 6 0;
#X connect 2 0 3 0;
#X connect 2 1 4 0;
#X connect 3 0 6 0;
#X connect 4 0 1 0;
#X connect 5 0 2 0;
#X connect 6 0 7 0;
#X connect 6 1 10 0;
#X connect 7 0 11 0;
#X connect 8 0 9 0;
#X connect 8 1 1 1;
#X connect 8 2 5 1;
#X connect 9 0 5 0;
#X connect 9 1 12 0;
#X connect 10 0 7 1;
#X connect 12 0 10 1;
#X restore 28 429 pd format_for_array;
#X obj 170 562 s copy;
#X obj 312 562 tabwrite notes-from-poly;
#X obj 28 480 t b b b b f, f 41;
#X obj 241 562 s countem;
#N canvas 984 89 776 618 beat-clock 0;
#X obj 541 145 r cgSc-1-6;
#X obj 541 167 sel 0;
#X obj 573 191 t b;
#X obj 573 215 tgl 15 0 empty empty empty 17 7 0 10 -262144 -1 -1 1
1;
#X obj 573 235 sel 0 1;
#X obj 579 303 s cgSc-1-6label;
#X msg 596 257 Div:16th;
#X msg 573 278 Div:8th;
#X obj 622 159 loadbang;
#X msg 622 181 1;
#X obj 216 65 r beat-clock;
#X obj 470 414 outlet;
#X obj 189 307 spigot;
#X obj 338 289 spigot;
#X obj 472 208 t f f;
#X obj 504 237 == 0;
#X obj 189 194 t f f f, f 36;
#X obj 189 239 sel 0 90 180 270;
#X obj 313 240 sel 0 180;
#X obj 239 539 s arp-tick;
#X obj 239 489 t b b;
#X obj 369 540 outlet;
#X connect 0 0 1 0;
#X connect 1 1 2 0;
#X connect 2 0 3 0;
#X connect 3 0 4 0;
#X connect 3 0 14 0;
#X connect 4 0 7 0;
#X connect 4 1 6 0;
#X connect 6 0 5 0;
#X connect 7 0 5 0;
#X connect 8 0 9 0;
#X connect 9 0 3 0;
#X connect 10 0 16 0;
#X connect 12 0 20 0;
#X connect 13 0 20 0;
#X connect 14 0 12 1;
#X connect 14 1 15 0;
#X connect 15 0 13 1;
#X connect 16 0 17 0;
#X connect 16 1 18 0;
#X connect 16 2 11 0;
#X connect 17 0 12 0;
#X connect 17 1 12 0;
#X connect 17 2 12 0;
#X connect 17 3 12 0;
#X connect 18 0 13 0;
#X connect 18 1 13 0;
#X connect 20 0 19 0;
#X connect 20 1 21 0;
#X restore 107 222 pd beat-clock;
#X obj 28 127 r aux;
#N canvas 47 93 885 702 wait-for-first-sixteenth 0;
#X obj 53 53 inlet;
#X text 68 26 notes;
#X obj 249 52 inlet;
#X text 305 51 sixteenth notes;
#X obj 429 48 inlet;
#X text 485 47 arm;
#X obj 248 248 spigot 0;
#X msg 92 454 1;
#X msg 334 475 0;
#X obj 155 637 outlet;
#X msg 486 377 0;
#X obj 419 106 t b b b, f 15;
#X msg 441 139 1;
#X msg 351 294 0;
#N canvas 506 258 450 300 once 0;
#X obj 102 42 inlet;
#X obj 211 67 inlet;
#X obj 118 215 outlet;
#X obj 114 137 == 1;
#X obj 114 115 i 0;
#X obj 114 162 sel 1;
#X obj 114 184 t b b;
#X msg 166 152 0;
#X msg 203 92 1;
#X text 260 68 reset;
#X obj 100 79 bang;
#X connect 0 0 10 0;
#X connect 1 0 8 0;
#X connect 3 0 5 0;
#X connect 4 0 3 0;
#X connect 5 0 6 0;
#X connect 6 0 2 0;
#X connect 6 1 7 0;
#X connect 7 0 4 1;
#X connect 8 0 4 1;
#X connect 10 0 4 0;
#X restore 301 143 pd once;
#X msg 301 193 1;
#X text 394 247 upon arming the sequencer \, we wait for the first
arp tick (sixteenth note) to start the recording. after that \, notes
pass through normally.;
#X obj 141 154 stripnote;
#X obj 53 89 t a a a, f 13;
#X obj 141 176 t b;
#X obj 162 464 bag;
#X obj 162 486 pack 0 100;
#X obj 172 340 t b b b b, f 18;
#X msg 200 399 flush;
#X obj 53 519 spigot 1;
#X obj 182 526 spigot 0, f 31;
#X connect 0 0 18 0;
#X connect 2 0 6 0;
#X connect 4 0 11 0;
#X connect 6 0 22 0;
#X connect 7 0 24 1;
#X connect 8 0 25 1;
#X connect 10 0 24 1;
#X connect 11 0 14 1;
#X connect 11 1 12 0;
#X connect 11 2 10 0;
#X connect 12 0 25 1;
#X connect 13 0 6 1;
#X connect 14 0 15 0;
#X connect 15 0 6 1;
#X connect 17 0 19 0;
#X connect 18 0 24 0;
#X connect 18 1 20 0;
#X connect 18 2 17 0;
#X connect 19 0 14 0;
#X connect 20 0 21 0;
#X connect 21 0 25 0;
#X connect 22 0 7 0;
#X connect 22 1 8 0;
#X connect 22 2 23 0;
#X connect 22 3 13 0;
#X connect 23 0 20 0;
#X connect 24 0 9 0;
#X connect 25 0 9 0;
#X restore 28 271 pd wait-for-first-sixteenth;
#X obj 214 221 r seq3-1-actions;
#X obj 214 243 sel 2;
#X obj 109 312 r cgSc-1-slots;
#X obj 97 127 r \$0-reprint-port;
#N canvas 594 50 1124 789 seq3-5option-control 0;
#X obj 139 278 outlet;
#X obj 65 121 t b;
#X msg 65 143 2;
#X obj 298 126 t b;
#X msg 298 148 3;
#X text 437 5 when aux is pressed after recording starts immediatley
end the rec and play the loop;
#X obj 170 70 sel 0;
#X obj 202 94 t b;
#X msg 202 116 1;
#X obj 33 66 r cgSc-1-2;
#X obj 171 48 r cgSc-1-1;
#X obj 33 88 sel 0;
#X obj 266 99 sel 0;
#X obj 317 272 r seq3-1-actions;
#X obj 317 294 sel 1, f 12;
#X obj 398 327 t b, f 4;
#X obj 317 445 s cgSc-1-1label;
#X obj 507 308 r seq3-1-actions;
#X obj 588 353 t b, f 4;
#X obj 507 329 sel 2 3, f 12;
#X obj 978 320 t b, f 4;
#X msg 978 355 Latch:Off;
#X msg 896 355 Latch:On;
#X obj 507 441 s cgSc-1-2label;
#X text 521 279 print to the shortcut menu;
#X obj 378 141 f 0;
#X obj 130 0 r midi-start;
#X msg 130 22 4;
#X obj 373 105 r midi-stop;
#X obj 507 125 t b;
#X obj 475 98 sel 0;
#X msg 507 147 5;
#X obj 192 487 r seq3-1-actions;
#X obj 273 532 t b, f 4;
#X obj 192 508 sel 5, f 12;
#X obj 317 373 f;
#X msg 317 403 \$1Seq:Stop;
#X obj 398 372 f;
#X msg 398 402 \$1Seq:Play;
#X msg 507 399 \$1Rec:Armd;
#X msg 588 397 \$1Rec:On;
#X msg 659 398 \$1Rec:Off;
#X obj 507 374 f;
#X obj 582 373 f;
#X obj 649 370 f;
#X obj 273 554 f;
#X obj 192 560 f;
#X msg 192 607 \$1Dub:On;
#X obj 201 286 r cgSc-1-slots;
#X obj 201 329 t b f f;
#X obj 166 439 s seq3-1-actions;
#X obj 166 415 v seq3-1-state;
#X obj 201 309 + 1;
#X obj 668 299 + 1;
#X obj 668 251 r cgSc-1-slots;
#X obj 321 507 + 1;
#X obj 321 483 r cgSc-1-slots;
#X obj 559 76 sel 1;
#X obj 612 80 r seq3-1-actions;
#X obj 559 174 t b b;
#X msg 640 152 0;
#X obj 559 152 spigot 0;
#X msg 612 129 1;
#X msg 559 196 1;
#X obj 192 650 s cgSc-1-3label;
#X obj 475 71 r cgSc-1-3;
#X obj 559 52 r cgSc-1-aux;
#X obj 896 398 s cgSc-1-5label;
#X obj 267 72 r cgSc-1-5;
#X obj 358 53 t b;
#X obj 326 26 sel 0;
#X obj 326 2 r cgSc-1-4;
#X msg 358 75 6;
#X obj 465 480 r seq3-1-actions;
#X obj 507 558 f;
#X obj 584 501 + 1;
#X obj 584 477 r cgSc-1-slots;
#X obj 465 643 s cgSc-1-4label;
#X obj 612 104 sel 3, f 12;
#X msg 273 607 \$1Dub:Off;
#X obj 465 501 sel 6, f 10;
#X obj 532 526 t b;
#X obj 465 585 spigot 1;
#X obj 552 582 spigot 0;
#X obj 675 510 r seq3-1-actions;
#X obj 675 532 sel 3;
#X obj 591 537 ==;
#X obj 637 564 f;
#X msg 637 533 1;
#X msg 708 615 0;
#X msg 552 607 \$1:Undo;
#X msg 465 610 \$1:Undid;
#X obj 465 523 t b b;
#X obj 31 189 loadbang;
#X msg 31 211 0;
#X obj 23 341 r init-1-slot;
#X obj 23 363 s cgSc-1-slots;
#X obj 896 255 r seq3-1-togLatch;
#X obj 896 296 sel 1, f 12;
#X connect 1 0 2 0;
#X connect 2 0 0 0;
#X connect 3 0 4 0;
#X connect 4 0 0 0;
#X connect 6 1 7 0;
#X connect 7 0 8 0;
#X connect 8 0 0 0;
#X connect 9 0 11 0;
#X connect 10 0 6 0;
#X connect 11 1 1 0;
#X connect 12 1 3 0;
#X connect 13 0 14 0;
#X connect 14 0 35 0;
#X connect 14 1 15 0;
#X connect 15 0 37 0;
#X connect 17 0 19 0;
#X connect 18 0 44 0;
#X connect 19 0 42 0;
#X connect 19 1 43 0;
#X connect 19 2 18 0;
#X connect 20 0 21 0;
#X connect 21 0 67 0;
#X connect 22 0 67 0;
#X connect 25 0 0 0;
#X connect 26 0 27 0;
#X connect 27 0 0 0;
#X connect 28 0 25 0;
#X connect 29 0 31 0;
#X connect 30 1 29 0;
#X connect 31 0 0 0;
#X connect 32 0 34 0;
#X connect 33 0 45 0;
#X connect 34 0 46 0;
#X connect 34 1 33 0;
#X connect 35 0 36 0;
#X connect 36 0 16 0;
#X connect 37 0 38 0;
#X connect 38 0 16 0;
#X connect 39 0 23 0;
#X connect 40 0 23 0;
#X connect 41 0 23 0;
#X connect 42 0 39 0;
#X connect 43 0 40 0;
#X connect 44 0 41 0;
#X connect 45 0 79 0;
#X connect 46 0 47 0;
#X connect 47 0 64 0;
#X connect 48 0 52 0;
#X connect 49 0 51 0;
#X connect 49 1 35 1;
#X connect 49 2 37 1;
#X connect 51 0 50 0;
#X connect 52 0 49 0;
#X connect 53 0 44 1;
#X connect 53 0 43 1;
#X connect 53 0 42 1;
#X connect 54 0 53 0;
#X connect 55 0 45 1;
#X connect 55 0 46 1;
#X connect 56 0 55 0;
#X connect 57 0 61 0;
#X connect 58 0 78 0;
#X connect 59 0 63 0;
#X connect 59 1 60 0;
#X connect 60 0 61 1;
#X connect 61 0 59 0;
#X connect 62 0 61 1;
#X connect 63 0 0 0;
#X connect 65 0 30 0;
#X connect 66 0 57 0;
#X connect 68 0 12 0;
#X connect 69 0 72 0;
#X connect 70 1 69 0;
#X connect 71 0 70 0;
#X connect 72 0 0 0;
#X connect 73 0 80 0;
#X connect 74 0 82 0;
#X connect 74 0 83 0;
#X connect 75 0 74 1;
#X connect 76 0 75 0;
#X connect 78 0 62 0;
#X connect 79 0 64 0;
#X connect 80 0 92 0;
#X connect 80 1 81 0;
#X connect 81 0 74 0;
#X connect 82 0 91 0;
#X connect 83 0 90 0;
#X connect 84 0 85 0;
#X connect 85 0 88 0;
#X connect 86 0 82 1;
#X connect 87 0 86 0;
#X connect 87 0 83 1;
#X connect 88 0 87 0;
#X connect 89 0 87 0;
#X connect 90 0 77 0;
#X connect 91 0 77 0;
#X connect 92 0 74 0;
#X connect 92 1 89 0;
#X connect 93 0 94 0;
#X connect 94 0 0 0;
#X connect 95 0 96 0;
#X connect 97 0 98 0;
#X connect 98 0 22 0;
#X connect 98 1 20 0;
#X restore 61 293 pd seq3-5option-control;
#X obj 427 723 loadbang;
#X msg 427 745 0;
#X obj 427 767 s midiInGate;
#X obj 315 727 loadbang;
#X msg 315 749 0;
#X obj 315 770 s midiOutGate;
#X obj 124 815 s led;
#X obj 80 622 r seq3-1-led;
#X obj 553 507 f;
#X obj 553 530 * 310;
#X obj 553 552 + 10;
#X obj 553 574 i;
#N canvas 27 50 1057 809 metro-here 0;
#X obj 622 370 r seq3-1-actions;
#X obj 565 548 f;
#X msg 660 453 0;
#X obj 692 453 t b b;
#X msg 698 483 1;
#X obj 660 425 sel 1;
#X obj 565 495 del 1;
#X obj 307 506 s beat-clock;
#X obj 295 141 loadbang;
#X obj 517 376 r rec-state;
#X obj 517 398 sel 0;
#X msg 306 324 1;
#X obj 456 556 list, f 7;
#X obj 456 578 route 69;
#X obj 456 484 t b a;
#X msg 456 526 69;
#X obj 430 424 pack, f 10;
#X obj 465 392 t b a;
#X obj 572 340 s seq3-1-quan;
#X obj 653 541 f;
#X obj 456 600 spigot 1;
#X obj 565 570 spigot 1, f 14;
#X obj 549 675 r cgSc-1-slots;
#X obj 549 701 + 1;
#X obj 456 755 print-line5 1, f 16;
#X obj 572 311 r metro-state;
#X obj 739 549 loadbang;
#X obj 549 722 f;
#X obj 739 591 t b b;
#X obj 565 631 f;
#X obj 739 570 del 1;
#X obj 416 199 inlet;
#X obj 307 354 metronome360 1, f 18;
#X obj 660 402 r cgSc-1-mute-print;
#X connect 0 0 1 0;
#X connect 1 0 21 0;
#X connect 2 0 19 0;
#X connect 3 0 6 0;
#X connect 3 1 4 0;
#X connect 4 0 19 0;
#X connect 5 0 2 0;
#X connect 5 1 3 0;
#X connect 6 0 1 0;
#X connect 6 0 15 0;
#X connect 8 0 11 0;
#X connect 9 0 10 0;
#X connect 10 0 1 0;
#X connect 10 0 15 0;
#X connect 11 0 32 0;
#X connect 12 0 13 0;
#X connect 13 0 20 0;
#X connect 14 0 15 0;
#X connect 14 1 12 1;
#X connect 15 0 12 0;
#X connect 16 0 14 0;
#X connect 17 0 16 0;
#X connect 17 1 16 1;
#X connect 19 0 20 1;
#X connect 19 0 21 1;
#X connect 20 0 24 0;
#X connect 21 0 29 0;
#X connect 22 0 23 0;
#X connect 23 0 27 0;
#X connect 25 0 18 0;
#X connect 26 0 30 0;
#X connect 27 0 24 2;
#X connect 28 0 29 0;
#X connect 28 1 27 0;
#X connect 29 0 24 1;
#X connect 30 0 28 0;
#X connect 31 0 32 1;
#X connect 32 0 7 0;
#X connect 32 1 17 0;
#X connect 32 2 16 0;
#X connect 33 0 5 0;
#X restore 586 611 pd metro-here;
#X obj 553 642 shortcut-mute-f 1;
#N canvas 83 50 1358 951 arp-new 0;
#N canvas 20 50 1242 820 double-double 0;
#X obj 410 225 r num-down;
#X obj 307 345 bng 15 250 50 0 empty empty empty 17 7 0 10 -262144
-1 -1;
#X floatatom 422 282 5 0 0 0 - - -;
#X obj 420 255 r num-down;
#X floatatom 484 494 5 0 0 0 - - -;
#X obj 306 623 + 0;
#X obj 485 513 * 12;
#X obj 298 304 spigot;
#X obj 234 516 tabread notes-increasing;
#X obj 306 659 - 12;
#X obj 378 338 sel 0;
#X obj 396 437 bng 15 250 50 0 empty empty empty 17 7 0 10 -262144
-1 -1;
#X obj 422 301 t f f;
#X msg 506 462 0;
#X obj 247 467 % 1;
#X obj 255 394 counter-up 0;
#X obj 480 427 counter-up 2;
#X obj 782 179 r num-down;
#X obj 679 299 bng 15 250 50 0 empty empty empty 17 7 0 10 -262144
-1 -1;
#X floatatom 599 447 5 0 0 0 - - -;
#X floatatom 794 236 5 0 0 0 - - -;
#X obj 792 209 r num-down;
#X floatatom 856 448 5 0 0 0 - - -;
#X obj 678 577 + 0;
#X obj 857 467 * 12;
#X obj 670 258 spigot;
#X obj 606 470 tabread notes-increasing;
#X obj 671 636 - 12;
#X obj 750 292 sel 0;
#X obj 768 391 bng 15 250 50 0 empty empty empty 17 7 0 10 -262144
-1 -1;
#X obj 794 255 t f f;
#X msg 878 416 0;
#X obj 619 421 % 1;
#X obj 627 348 counter-up 0;
#X obj 852 385 counter-up 2;
#X obj 487 756 outlet;
#X obj 327 176 spigot 0;
#X obj 592 158 spigot 0;
#X obj 459 91 inlet;
#X obj 268 79 r arp-tick;
#X obj 624 67 r arp-tick;
#X connect 0 0 7 1;
#X connect 1 0 15 0;
#X connect 2 0 12 0;
#X connect 3 0 2 0;
#X connect 4 0 6 0;
#X connect 5 0 9 0;
#X connect 6 0 5 1;
#X connect 7 0 1 0;
#X connect 8 0 5 0;
#X connect 9 0 35 0;
#X connect 10 0 13 0;
#X connect 10 0 15 1;
#X connect 10 0 16 1;
#X connect 11 0 16 0;
#X connect 12 0 10 0;
#X connect 12 0 14 1;
#X connect 12 1 15 2;
#X connect 13 0 4 0;
#X connect 14 0 8 0;
#X connect 15 0 14 0;
#X connect 15 1 11 0;
#X connect 16 0 4 0;
#X connect 17 0 25 1;
#X connect 18 0 33 0;
#X connect 19 0 26 0;
#X connect 20 0 30 0;
#X connect 21 0 20 0;
#X connect 22 0 24 0;
#X connect 23 0 27 0;
#X connect 24 0 23 1;
#X connect 25 0 18 0;
#X connect 26 0 23 0;
#X connect 27 0 35 0;
#X connect 28 0 31 0;
#X connect 28 0 33 1;
#X connect 28 0 34 1;
#X connect 29 0 34 0;
#X connect 30 0 28 0;
#X connect 30 0 32 1;
#X connect 30 1 33 2;
#X connect 31 0 22 0;
#X connect 32 0 19 0;
#X connect 33 0 32 0;
#X connect 33 1 29 0;
#X connect 34 0 22 0;
#X connect 36 0 7 0;
#X connect 37 0 25 0;
#X connect 38 0 36 1;
#X connect 38 0 37 1;
#X connect 39 0 36 0;
#X connect 40 0 37 0;
#X restore 907 679 pd double-double;
#X obj 577 756 pack 0 100;
#X obj 73 326 sel 0 1 2 3 4 5 6 7, f 69;
#X obj 73 287 t f b, f 14;
#X msg 607 617 0;
#X msg 70 358 1;
#X msg 141 356 1;
#X msg 203 355 1;
#X msg 261 353 1;
#N canvas 24 50 1242 820 double-randoms 0;
#X obj 410 225 r num-down;
#X obj 307 345 bng 15 250 50 0 empty empty empty 17 7 0 10 -262144
-1 -1;
#X floatatom 422 282 5 0 0 0 - - -;
#X obj 420 255 r num-down;
#X floatatom 484 494 5 0 0 0 - - -;
#X obj 306 623 + 0;
#X obj 485 513 * 12;
#X obj 298 304 spigot;
#X obj 234 516 tabread notes-increasing;
#X obj 306 659 - 12;
#X obj 378 338 sel 0;
#X obj 396 437 bng 15 250 50 0 empty empty empty 17 7 0 10 -262144
-1 -1;
#X obj 422 301 t f f;
#X msg 506 462 0;
#X obj 247 467 % 1;
#X obj 782 179 r num-down;
#X obj 679 299 bng 15 250 50 0 empty empty empty 17 7 0 10 -262144
-1 -1;
#X floatatom 599 447 5 0 0 0 - - -;
#X floatatom 794 236 5 0 0 0 - - -;
#X obj 792 209 r num-down;
#X floatatom 856 448 5 0 0 0 - - -;
#X obj 678 577 + 0;
#X obj 857 467 * 12;
#X obj 670 258 spigot;
#X obj 606 470 tabread notes-increasing;
#X obj 671 636 - 12;
#X obj 750 292 sel 0;
#X obj 768 391 bng 15 250 50 0 empty empty empty 17 7 0 10 -262144
-1 -1;
#X obj 794 255 t f f;
#X msg 878 416 0;
#X obj 619 421 % 1;
#X obj 627 348 counter-up 0;
#X obj 852 385 counter-up 2;
#X obj 487 756 outlet;
#X obj 327 176 spigot 0;
#X obj 592 158 spigot 0;
#X obj 459 91 inlet;
#X obj 451 425 random 3;
#X obj 255 394 random;
#X obj 268 78 r arp-tick;
#X connect 0 0 7 1;
#X connect 1 0 38 0;
#X connect 1 0 11 0;
#X connect 2 0 12 0;
#X connect 3 0 2 0;
#X connect 3 0 38 1;
#X connect 4 0 6 0;
#X connect 5 0 9 0;
#X connect 6 0 5 1;
#X connect 7 0 1 0;
#X connect 8 0 5 0;
#X connect 9 0 33 0;
#X connect 10 0 13 0;
#X connect 11 0 37 0;
#X connect 12 0 10 0;
#X connect 12 0 14 1;
#X connect 13 0 4 0;
#X connect 14 0 8 0;
#X connect 15 0 23 1;
#X connect 16 0 31 0;
#X connect 17 0 24 0;
#X connect 18 0 28 0;
#X connect 19 0 18 0;
#X connect 20 0 22 0;
#X connect 21 0 25 0;
#X connect 22 0 21 1;
#X connect 23 0 16 0;
#X connect 24 0 21 0;
#X connect 25 0 33 0;
#X connect 26 0 29 0;
#X connect 26 0 31 1;
#X connect 26 0 32 1;
#X connect 27 0 32 0;
#X connect 28 0 26 0;
#X connect 28 0 30 1;
#X connect 28 1 31 2;
#X connect 29 0 20 0;
#X connect 30 0 17 0;
#X connect 31 0 30 0;
#X connect 31 1 27 0;
#X connect 32 0 20 0;
#X connect 34 0 7 0;
#X connect 35 0 23 0;
#X connect 36 0 34 1;
#X connect 36 0 35 1;
#X connect 37 0 4 0;
#X connect 38 0 14 0;
#X connect 39 0 34 0;
#X connect 39 0 35 0;
#X restore 776 681 pd double-randoms;
#X obj 73 209 i;
#N canvas 22 50 1242 820 singleup4 0;
#X obj 410 225 r num-down;
#X obj 307 345 bng 15 250 50 0 empty empty empty 17 7 0 10 -262144
-1 -1;
#X floatatom 422 282 5 0 0 0 - - -;
#X obj 420 255 r num-down;
#X floatatom 484 494 5 0 0 0 - - -;
#X obj 306 623 + 0;
#X obj 485 513 * 12;
#X obj 298 304 spigot;
#X obj 234 516 tabread notes-increasing;
#X obj 378 338 sel 0;
#X obj 396 437 bng 15 250 50 0 empty empty empty 17 7 0 10 -262144
-1 -1;
#X obj 422 301 t f f;
#X msg 506 462 0;
#X obj 247 467 % 1;
#X obj 255 394 counter-up 0;
#X obj 487 756 outlet;
#X obj 327 176 spigot 0;
#X obj 459 91 inlet;
#X obj 480 427 counter-up 4;
#X obj 307 659 - 24;
#X obj 268 79 r arp-tick;
#X connect 0 0 7 1;
#X connect 1 0 14 0;
#X connect 2 0 11 0;
#X connect 3 0 2 0;
#X connect 4 0 6 0;
#X connect 5 0 19 0;
#X connect 6 0 5 1;
#X connect 7 0 1 0;
#X connect 8 0 5 0;
#X connect 9 0 12 0;
#X connect 9 0 14 1;
#X connect 9 0 18 1;
#X connect 10 0 18 0;
#X connect 11 0 9 0;
#X connect 11 0 13 1;
#X connect 11 1 14 2;
#X connect 12 0 4 0;
#X connect 13 0 8 0;
#X connect 14 0 13 0;
#X connect 14 1 10 0;
#X connect 16 0 7 0;
#X connect 17 0 16 1;
#X connect 18 0 4 0;
#X connect 19 0 15 0;
#X connect 20 0 16 0;
#X restore 560 683 pd singleup4;
#N canvas 19 50 1242 820 singledown4 0;
#X obj 410 225 r num-down;
#X obj 307 345 bng 15 250 50 0 empty empty empty 17 7 0 10 -262144
-1 -1;
#X floatatom 422 282 5 0 0 0 - - -;
#X obj 420 255 r num-down;
#X floatatom 484 494 5 0 0 0 - - -;
#X obj 306 623 + 0;
#X obj 485 513 * 12;
#X obj 298 304 spigot;
#X obj 234 516 tabread notes-increasing;
#X obj 378 338 sel 0;
#X obj 396 437 bng 15 250 50 0 empty empty empty 17 7 0 10 -262144
-1 -1;
#X obj 422 301 t f f;
#X msg 506 462 0;
#X obj 247 467 % 1;
#X obj 624 67 r eighths;
#X obj 487 756 outlet;
#X obj 327 176 spigot 0;
#X obj 459 91 inlet;
#X obj 307 659 - 24;
#X obj 255 394 counter-down 0;
#X obj 480 427 counter-down 4;
#X obj 268 79 r arp-tick;
#X connect 0 0 7 1;
#X connect 1 0 19 0;
#X connect 2 0 11 0;
#X connect 3 0 2 0;
#X connect 4 0 6 0;
#X connect 5 0 18 0;
#X connect 6 0 5 1;
#X connect 7 0 1 0;
#X connect 8 0 5 0;
#X connect 9 0 12 0;
#X connect 9 0 19 1;
#X connect 9 0 20 1;
#X connect 10 0 20 0;
#X connect 11 0 9 0;
#X connect 11 0 13 1;
#X connect 11 1 19 2;
#X connect 12 0 4 0;
#X connect 13 0 8 0;
#X connect 16 0 7 0;
#X connect 17 0 16 1;
#X connect 18 0 15 0;
#X connect 19 0 13 0;
#X connect 19 1 10 0;
#X connect 20 0 4 0;
#X connect 21 0 16 0;
#X restore 663 681 pd singledown4;
#X msg 343 355 1;
#X msg 401 355 1;
#X msg 449 355 1;
#X msg 504 355 1;
#N canvas 30 50 1242 820 singleup2 0;
#X obj 410 225 r num-down;
#X obj 307 345 bng 15 250 50 0 empty empty empty 17 7 0 10 -262144
-1 -1;
#X floatatom 422 282 5 0 0 0 - - -;
#X obj 420 255 r num-down;
#X floatatom 484 494 5 0 0 0 - - -;
#X obj 306 623 + 0;
#X obj 485 513 * 12;
#X obj 298 304 spigot;
#X obj 234 516 tabread notes-increasing;
#X obj 378 338 sel 0;
#X obj 396 437 bng 15 250 50 0 empty empty empty 17 7 0 10 -262144
-1 -1;
#X obj 422 301 t f f;
#X msg 506 462 0;
#X obj 247 467 % 1;
#X obj 255 394 counter-up 0;
#X obj 487 756 outlet;
#X obj 327 176 spigot 0;
#X obj 459 91 inlet;
#X obj 307 659 - 24;
#X obj 480 427 counter-up 2;
#X obj 268 79 r arp-tick;
#X connect 0 0 7 1;
#X connect 1 0 14 0;
#X connect 2 0 11 0;
#X connect 3 0 2 0;
#X connect 4 0 6 0;
#X connect 5 0 18 0;
#X connect 6 0 5 1;
#X connect 7 0 1 0;
#X connect 8 0 5 0;
#X connect 9 0 12 0;
#X connect 9 0 14 1;
#X connect 9 0 19 1;
#X connect 10 0 19 0;
#X connect 11 0 9 0;
#X connect 11 0 13 1;
#X connect 11 1 14 2;
#X connect 12 0 4 0;
#X connect 13 0 8 0;
#X connect 14 0 13 0;
#X connect 14 1 10 0;
#X connect 16 0 7 0;
#X connect 17 0 16 1;
#X connect 18 0 15 0;
#X connect 19 0 4 0;
#X connect 20 0 16 0;
#X restore 342 682 pd singleup2;
#N canvas 22 50 1242 820 singledown2 0;
#X obj 410 225 r num-down;
#X obj 271 348 bng 15 250 50 0 empty empty empty 17 7 0 10 -262144
-1 -1;
#X floatatom 422 282 5 0 0 0 - - -;
#X obj 420 255 r num-down;
#X floatatom 484 494 5 0 0 0 - - -;
#X obj 306 623 + 0;
#X obj 485 513 * 12;
#X obj 298 304 spigot;
#X obj 234 516 tabread notes-increasing;
#X obj 378 338 sel 0;
#X obj 396 437 bng 15 250 50 0 empty empty empty 17 7 0 10 -262144
-1 -1;
#X obj 422 301 t f f;
#X msg 506 462 0;
#X obj 247 467 % 1;
#X obj 624 67 r eighths;
#X obj 487 756 outlet;
#X obj 327 176 spigot 0;
#X obj 459 91 inlet;
#X obj 307 659 - 24;
#X obj 255 394 counter-down 0;
#X obj 480 427 counter-down 2;
#X obj 268 79 r arp-tick;
#X connect 0 0 7 1;
#X connect 1 0 19 0;
#X connect 2 0 11 0;
#X connect 3 0 2 0;
#X connect 4 0 6 0;
#X connect 5 0 18 0;
#X connect 6 0 5 1;
#X connect 7 0 1 0;
#X connect 8 0 5 0;
#X connect 9 0 12 0;
#X connect 9 0 19 1;
#X connect 9 0 20 1;
#X connect 10 0 20 0;
#X connect 11 0 9 0;
#X connect 11 0 13 1;
#X connect 11 1 19 2;
#X connect 12 0 4 0;
#X connect 13 0 8 0;
#X connect 16 0 7 0;
#X connect 17 0 16 1;
#X connect 18 0 15 0;
#X connect 19 0 13 0;
#X connect 19 1 10 0;
#X connect 20 0 4 0;
#X connect 21 0 16 0;
#X restore 444 681 pd singledown2;
#N canvas 30 50 1242 820 updown2 0;
#X obj 338 565 outlet;
#N canvas 32 50 1242 820 singleup2 0;
#X obj 410 225 r num-down;
#X obj 307 345 bng 15 250 50 0 empty empty empty 17 7 0 10 -262144
-1 -1;
#X floatatom 422 282 5 0 0 0 - - -;
#X obj 420 255 r num-down;
#X floatatom 484 494 5 0 0 0 - - -;
#X obj 306 623 + 0;
#X obj 485 513 * 12;
#X obj 298 304 spigot;
#X obj 234 516 tabread notes-increasing;
#X obj 378 338 sel 0;
#X obj 396 437 bng 15 250 50 0 empty empty empty 17 7 0 10 -262144
-1 -1;
#X obj 422 301 t f f;
#X msg 506 462 0;
#X obj 247 467 % 1;
#X obj 255 394 counter-up 0;
#X obj 487 756 outlet;
#X obj 307 659 - 24;
#X obj 480 427 counter-up 2;
#X obj 631 661 outlet;
#X obj 225 164 inlet;
#X connect 0 0 7 1;
#X connect 1 0 14 0;
#X connect 2 0 11 0;
#X connect 3 0 2 0;
#X connect 4 0 6 0;
#X connect 5 0 16 0;
#X connect 6 0 5 1;
#X connect 7 0 1 0;
#X connect 8 0 5 0;
#X connect 9 0 12 0;
#X connect 9 0 14 1;
#X connect 9 0 17 1;
#X connect 10 0 17 0;
#X connect 11 0 9 0;
#X connect 11 0 13 1;
#X connect 11 1 14 2;
#X connect 12 0 4 0;
#X connect 13 0 8 0;
#X connect 14 0 13 0;
#X connect 14 1 10 0;
#X connect 16 0 15 0;
#X connect 17 0 4 0;
#X connect 17 1 18 0;
#X connect 19 0 7 0;
#X restore 276 400 pd singleup2;
#X obj 301 151 spigot 0;
#X obj 433 66 inlet;
#N canvas 24 50 1242 820 singledown2 0;
#X obj 410 225 r num-down;
#X obj 271 348 bng 15 250 50 0 empty empty empty 17 7 0 10 -262144
-1 -1;
#X floatatom 422 282 5 0 0 0 - - -;
#X obj 420 255 r num-down;
#X floatatom 484 494 5 0 0 0 - - -;
#X obj 306 623 + 0;
#X obj 485 513 * 12;
#X obj 298 304 spigot;
#X obj 234 516 tabread notes-increasing;
#X obj 378 338 sel 0;
#X obj 396 437 bng 15 250 50 0 empty empty empty 17 7 0 10 -262144
-1 -1;
#X obj 422 301 t f f;
#X msg 506 462 0;
#X obj 247 467 % 1;
#X obj 487 756 outlet;
#X obj 307 659 - 24;
#X obj 255 394 counter-down 0;
#X obj 480 427 counter-down 2;
#X obj 678 572 outlet;
#X obj 327 176 inlet;
#X connect 0 0 7 1;
#X connect 1 0 16 0;
#X connect 2 0 11 0;
#X connect 3 0 2 0;
#X connect 4 0 6 0;
#X connect 5 0 15 0;
#X connect 6 0 5 1;
#X connect 7 0 1 0;
#X connect 8 0 5 0;
#X connect 9 0 12 0;
#X connect 9 0 16 1;
#X connect 9 0 17 1;
#X connect 10 0 17 0;
#X connect 11 0 9 0;
#X connect 11 0 13 1;
#X connect 11 1 16 2;
#X connect 12 0 4 0;
#X connect 13 0 8 0;
#X connect 15 0 14 0;
#X connect 16 0 13 0;
#X connect 16 1 10 0;
#X connect 17 0 4 0;
#X connect 17 1 18 0;
#X connect 19 0 7 0;
#X restore 411 403 pd singledown2;
#X obj 462 194 tgl 15 0 empty empty empty 17 7 0 10 -262144 -1 -1 0
1;
#X obj 463 133 tgl 15 0 empty empty empty 17 7 0 10 -262144 -1 -1 1
1;
#X obj 463 153 ==;
#X obj 314 243 spigot 0;
#X obj 230 240 spigot 1;
#X obj 544 71 r num-down;
#X obj 544 93 sel 0;
#X msg 544 115 1;
#X obj 242 54 r arp-tick;
#X connect 1 0 0 0;
#X connect 1 1 6 0;
#X connect 2 0 9 0;
#X connect 2 0 8 0;
#X connect 3 0 2 1;
#X connect 4 0 0 0;
#X connect 4 1 6 0;
#X connect 5 0 8 1;
#X connect 6 0 7 0;
#X connect 6 0 9 1;
#X connect 7 0 5 0;
#X connect 8 0 4 0;
#X connect 9 0 1 0;
#X connect 10 0 11 0;
#X connect 11 0 12 0;
#X connect 12 0 6 0;
#X connect 13 0 2 0;
#X restore 1032 679 pd updown2;
#X text 28 13 Controls Arpeggiation;
#X text 88 104 Sets the Pattern;
#X obj 825 112 sig~;
#X obj 825 134 lop~ 5;
#X obj 825 156 s~ knob3-smooth;
#X obj 777 166 i;
#X obj 777 138 * 100;
#X obj 1052 198 i;
#X obj 1052 105 + 20;
#X obj 1067 138 s decay;
#X obj 609 816 unpack 0 0, f 11;
#X obj 609 839 makenote 100 100;
#X obj 718 790 r decay;
#X obj 73 187 * 7;
#X obj 739 828 r midiCh;
#X obj 609 871 noteout 1, f 19;
#X obj 777 77 f;
#N canvas 6 50 713 516 shortcut-mute 0;
#X obj 334 124 r \$0-muter;
#X msg 334 205 0;
#X obj 366 175 t b b;
#X msg 398 205 1;
#X obj 334 147 sel 1;
#X obj 239 282 spigot 1, f 14;
#X obj 218 80 inlet;
#X obj 239 221 f;
#X obj 239 304 outlet;
#X connect 0 0 4 0;
#X connect 1 0 5 1;
#X connect 2 0 7 0;
#X connect 2 1 3 0;
#X connect 3 0 5 1;
#X connect 4 0 1 0;
#X connect 4 1 2 0;
#X connect 5 0 8 0;
#X connect 6 0 7 0;
#X connect 7 0 5 0;
#X restore 1052 173 pd shortcut-mute;
#X obj 577 778 t a a;
#X obj 777 188 shortcut-mute-f 1;
#X obj 1052 222 shortcut-mute-f 1;
#X obj 73 246 shortcut-mute-f 1;
#X obj 73 165 f;
#N canvas 227 167 1573 877 sampler 0;
#X obj 1020 641 loadbang;
#X obj 1030 718 soundfiler;
#N canvas 0 50 450 300 (subpatch) 0;
#X array newsample 88204 float 0;
#X coords 0 1.02 88203 -1.02 200 130 1 0 0;
#X restore 657 244 graph;
#X obj 234 532 throw~ outL;
#X obj 344 530 throw~ outR;
#X text 787 199 loads a soundfile into an array for playback from ram
;
#X text 1224 74 load .wav into the table below;
#X text 135 461 final gain adjustment;
#X msg 760 528 bang;
#X obj 822 470 r~ inL;
#X obj 881 469 r~ inR;
#X obj 832 633 tabwrite~ newsample;
#X msg 1231 572 \; newsample normalize 1;
#X obj 299 460 *~ 1;
#X obj 248 257 route 1 2 3 4 5 6, f 34;
#X msg 1074 395 0;
#X msg 1020 669 read ./sound.wav newsample;
#X obj 1210 404 timer;
#X obj 1210 487 s dur;
#X obj 1128 537 t b b;
#X obj 1128 582 delay 250;
#X obj 1210 434 * 44.1;
#X obj 903 402 t b b;
#X obj 865 597 *~;
#X obj 921 557 line~;
#X msg 930 510 1 1;
#X msg 975 510 0 2;
#X obj 760 493 delay 1;
#X obj 1210 462 expr if($f1 > 88200 \, 88200 \, $f1);
#X obj 1032 466 delay 2100;
#X obj 1030 740 s dur;
#X obj 171 58 inlet;
#X obj 171 139 t b a, f 11;
#X obj 281 164 unpack 0 0;
#X obj 248 231 pack 0 0 0;
#X obj 171 166 counter-up 6;
#X obj 193 194 + 1;
#X text 369 164 there are no note offs \, so just go around;
#X obj 171 82 stripnote;
#X obj 171 110 pack 0 0;
#X msg 1024 385 1;
#X msg 1128 624 write -wave /tmp/state/sound.wav newsample;
#X obj 438 323 samplervoice;
#X obj 66 325 samplervoice;
#X obj 530 323 samplervoice;
#X obj 343 323 samplervoice;
#X obj 159 324 samplervoice;
#X obj 252 324 samplervoice;
#X obj 1006 271 r cgSc-1-7;
#X obj 1009 299 sel 100 0;
#X obj 1030 434 s rec-led;
#X obj 1164 323 del 2000;
#X msg 1228 289 stop;
#X obj 1165 257 t b b;
#X obj 1330 375 s cgSc-1-7label;
#X msg 1353 325 Rec:On;
#X msg 1330 345 Rec:Off;
#X obj 1330 272 r rec-led;
#X obj 1330 294 sel 0 1;
#X obj 1420 266 loadbang;
#X connect 0 0 16 0;
#X connect 1 0 30 0;
#X connect 8 0 11 0;
#X connect 9 0 23 0;
#X connect 10 0 23 0;
#X connect 13 0 3 0;
#X connect 13 0 4 0;
#X connect 14 0 43 0;
#X connect 14 1 46 0;
#X connect 14 2 47 0;
#X connect 14 3 45 0;
#X connect 14 4 42 0;
#X connect 14 5 44 0;
#X connect 15 0 50 0;
#X connect 16 0 1 0;
#X connect 17 0 21 0;
#X connect 19 0 20 0;
#X connect 19 1 12 0;
#X connect 20 0 41 0;
#X connect 21 0 28 0;
#X connect 22 0 27 0;
#X connect 22 1 25 0;
#X connect 22 1 29 0;
#X connect 23 0 11 0;
#X connect 24 0 23 1;
#X connect 25 0 24 0;
#X connect 26 0 24 0;
#X connect 27 0 8 0;
#X connect 28 0 18 0;
#X connect 29 0 19 0;
#X connect 31 0 38 0;
#X connect 32 0 35 0;
#X connect 32 1 33 0;
#X connect 33 0 34 1;
#X connect 33 1 34 2;
#X connect 34 0 14 0;
#X connect 35 0 36 0;
#X connect 36 0 34 0;
#X connect 38 0 39 0;
#X connect 38 1 39 1;
#X connect 39 0 32 0;
#X connect 40 0 50 0;
#X connect 41 0 1 0;
#X connect 42 0 13 0;
#X connect 43 0 13 0;
#X connect 44 0 13 0;
#X connect 45 0 13 0;
#X connect 46 0 13 0;
#X connect 47 0 13 0;
#X connect 48 0 49 0;
#X connect 49 0 17 0;
#X connect 49 0 40 0;
#X connect 49 0 22 0;
#X connect 49 0 53 0;
#X connect 49 1 17 1;
#X connect 49 1 26 0;
#X connect 49 1 15 0;
#X connect 49 1 52 0;
#X connect 51 0 15 0;
#X connect 52 0 51 0;
#X connect 53 0 51 0;
#X connect 53 1 52 0;
#X connect 55 0 54 0;
#X connect 56 0 54 0;
#X connect 57 0 58 0;
#X connect 58 0 56 0;
#X connect 58 1 55 0;
#X connect 59 0 56 0;
#X restore 577 900 pd sampler;
#X obj 1052 83 * 1980;
#X obj 73 80 r seq3-1-k1;
#X obj 97 124 r knob1;
#X obj 777 23 r seq3-1-k3;
#X obj 787 52 r knob3;
#X obj 1052 15 r knob2;
#X obj 1069 51 r seq3-1-k2;
#X msg 121 493 1: Down 2 Octave \;;
#X msg 168 541 1: Up 4 Octave \;;
#X msg 81 586 1: Up 2 Octave \;;
#X msg 324 437 1: Down 4 Octave \;;
#X msg 348 480 1: Double Randoms \;;
#X msg 370 520 1: Double Double \;;
#X msg 587 476 1: All \;;
#X msg 562 430 1: Up Down \;;
#X obj 83 657 s screenLine1;
#X obj 777 249 s screenLine3;
#X msg 1052 247 2: Decay: \$1 ms;
#X msg 778 216 3: Envelope: \$1%;
#X obj 1052 270 s screenLine2;
#X connect 0 0 1 0;
#X connect 1 0 38 0;
#X connect 2 0 5 0;
#X connect 2 0 53 0;
#X connect 2 1 6 0;
#X connect 2 1 51 0;
#X connect 2 2 7 0;
#X connect 2 2 52 0;
#X connect 2 3 8 0;
#X connect 2 3 54 0;
#X connect 2 4 13 0;
#X connect 2 4 55 0;
#X connect 2 5 14 0;
#X connect 2 5 56 0;
#X connect 2 6 15 0;
#X connect 2 6 58 0;
#X connect 2 7 16 0;
#X connect 2 7 57 0;
#X connect 3 0 2 0;
#X connect 3 1 4 0;
#X connect 4 0 11 0;
#X connect 4 0 12 0;
#X connect 4 0 9 0;
#X connect 4 0 0 0;
#X connect 4 0 17 0;
#X connect 4 0 18 0;
#X connect 4 0 19 0;
#X connect 5 0 17 0;
#X connect 6 0 18 0;
#X connect 7 0 11 0;
#X connect 8 0 12 0;
#X connect 9 0 1 0;
#X connect 10 0 41 0;
#X connect 11 0 1 0;
#X connect 12 0 1 0;
#X connect 13 0 9 0;
#X connect 14 0 0 0;
#X connect 15 0 19 0;
#X connect 16 0 17 0;
#X connect 16 0 18 0;
#X connect 16 0 12 0;
#X connect 16 0 19 0;
#X connect 16 0 9 0;
#X connect 17 0 1 0;
#X connect 18 0 1 0;
#X connect 19 0 1 0;
#X connect 22 0 23 0;
#X connect 23 0 24 0;
#X connect 25 0 39 0;
#X connect 26 0 25 0;
#X connect 27 0 40 0;
#X connect 28 0 29 0;
#X connect 28 0 37 0;
#X connect 30 0 31 0;
#X connect 30 1 31 1;
#X connect 31 0 35 0;
#X connect 31 1 35 1;
#X connect 32 0 31 2;
#X connect 33 0 10 0;
#X connect 34 0 35 2;
#X connect 36 0 22 0;
#X connect 36 0 26 0;
#X connect 37 0 27 0;
#X connect 38 0 43 0;
#X connect 38 1 30 0;
#X connect 39 0 62 0;
#X connect 40 0 61 0;
#X connect 41 0 3 0;
#X connect 42 0 33 0;
#X connect 44 0 28 0;
#X connect 45 0 42 0;
#X connect 46 0 42 0;
#X connect 47 0 36 0;
#X connect 48 0 36 0;
#X connect 49 0 44 0;
#X connect 50 0 44 0;
#X connect 51 0 59 0;
#X connect 52 0 59 0;
#X connect 53 0 59 0;
#X connect 54 0 59 0;
#X connect 55 0 59 0;
#X connect 56 0 59 0;
#X connect 57 0 59 0;
#X connect 58 0 59 0;
#X connect 61 0 63 0;
#X connect 62 0 60 0;
#X restore 1249 653 pd arp-new;
#X obj 182 658 r rec-led;
#X obj 182 680 sel 0 1;
#X obj 73 772 spigot 1;
#X obj 205 715 t b b;
#X msg 241 747 0;
#X msg 205 737 1;
#X obj 116 719 t b b;
#X msg 139 746 1;
#N canvas 12 50 650 644 clock-out-messages 0;
#X obj 252 410 midiout;
#X msg 198 286 250;
#X msg 329 288 252;
#X text 227 237 clock through and out;
#X obj 389 215 t b;
#X obj 131 205 spigot 0;
#X obj 131 237 t b b;
#X msg 201 225 0;
#X msg 327 207 1;
#X obj 327 185 sel 1 4 6;
#X obj 327 164 r seq3-1-actions;
#X obj 131 177 r seq3-1-playing;
#X connect 1 0 0 0;
#X connect 2 0 0 0;
#X connect 4 0 2 0;
#X connect 5 0 6 0;
#X connect 6 0 1 0;
#X connect 6 1 7 0;
#X connect 7 0 5 1;
#X connect 8 0 5 1;
#X connect 9 0 8 0;
#X connect 9 3 4 0;
#X connect 10 0 9 0;
#X connect 11 0 5 0;
#X restore 609 254 pd clock-out-messages;
#N canvas 787 330 860 595 slot-saver-1 0;
#X obj 167 38 r cgSc-1-slots;
#X obj 30 68 loadbang;
#X msg 30 140 0;
#X obj 30 161 tabread \$0-slot;
#X obj 199 225 array define \$0-slot;
#X obj 30 110 t b b;
#X msg 199 138 read slot.txt;
#X msg 243 186 write slot.txt;
#X obj 243 160 r saveState;
#X obj 167 58 t a b;
#X msg 220 84 0;
#X obj 167 107 tabwrite \$0-slot;
#X obj 30 185 s cgSc-1-slots;
#X connect 0 0 9 0;
#X connect 1 0 5 0;
#X connect 2 0 3 0;
#X connect 3 0 12 0;
#X connect 5 0 2 0;
#X connect 5 1 6 0;
#X connect 6 0 4 0;
#X connect 7 0 4 0;
#X connect 8 0 7 0;
#X connect 9 0 11 0;
#X connect 9 1 10 0;
#X connect 10 0 11 1;
#X restore 427 392 pd slot-saver-1;
#X obj 86 742 f;
#X obj 28 158 shortcut 1 1;
#X obj 553 451 r knob4;
#X obj 564 476 r seq3-1-k4;
#X obj 553 702 s screenLine4;
#X msg 553 674 4: Internal BPM: \$1;
#X obj 28 337 seq3 1 1 ../../sequences 1 0 0, f 19;
#X connect 9 0 4 0;
#X connect 10 0 3 0;
#X connect 19 0 24 0;
#X connect 20 0 27 0;
#X connect 20 1 26 1;
#X connect 22 0 19 0;
#X connect 22 1 19 1;
#X connect 22 2 19 2;
#X connect 24 0 20 0;
#X connect 27 0 23 0;
#X connect 27 1 21 0;
#X connect 27 2 25 0;
#X connect 27 3 28 0;
#X connect 27 4 26 0;
#X connect 29 0 31 1;
#X connect 29 1 68 3;
#X connect 30 0 63 0;
#X connect 31 0 68 0;
#X connect 32 0 33 0;
#X connect 33 0 31 2;
#X connect 34 0 68 2;
#X connect 35 0 63 1;
#X connect 36 0 68 1;
#X connect 37 0 38 0;
#X connect 38 0 39 0;
#X connect 40 0 41 0;
#X connect 41 0 42 0;
#X connect 44 0 62 0;
#X connect 45 0 46 0;
#X connect 46 0 47 0;
#X connect 47 0 48 0;
#X connect 48 0 50 0;
#X connect 48 0 49 0;
#X connect 50 0 67 0;
#X connect 52 0 53 0;
#X connect 53 0 58 0;
#X connect 53 1 55 0;
#X connect 54 0 43 0;
#X connect 55 0 57 0;
#X connect 55 1 56 0;
#X connect 56 0 54 1;
#X connect 57 0 43 0;
#X connect 58 0 62 0;
#X connect 58 1 59 0;
#X connect 59 0 54 1;
#X connect 62 0 54 0;
#X connect 63 0 31 0;
#X connect 64 0 45 0;
#X connect 65 0 45 0;
#X connect 67 0 66 0;
#X connect 68 0 22 0;
