#N canvas 939 90 818 954 10;
#X obj 219 66 stripnote;
#X obj 181 611 hip~ 5;
#X obj 180 548 line~;
#X msg 208 471 0;
#X obj 180 688 *~ 0.25;
#X obj 236 134 mtof;
#X obj 180 658 *~;
#X text 311 35 get yer notes;
#X obj 235 37 inlet;
#X obj 179 745 outlet~;
#X obj 180 583 tabread4~ newsample;
#X obj 215 219 / 261.626;
#X obj 212 247 / 2;
#X obj 165 276 r dur;
#X obj 151 440 /;
#X obj 126 473 pack 0 0;
#X obj 241 310 * 1;
#X obj 151 410 / 44.1;
#X obj 126 311 f 88200;
#X obj 187 168 t b f b;
#X obj 126 370 t f f b b, f 27;
#X obj 346 560 vline~;
#X msg 329 424 0 2;
#X obj 126 220 delay 3;
#X obj 220 98 + 12;
#X obj 511 219 r dur;
#X obj 511 241 / 44.1;
#X obj 467 326 /;
#X obj 449 266 t b f;
#X obj 455 299 f;
#N canvas 8 50 902 744 note-shape 0;
#X obj 378 330 * 1;
#X obj 378 356 t f f;
#X obj 456 506 -;
#X obj 502 406 * 0.5;
#X obj 325 175 inlet;
#X obj 207 79 inlet;
#X text 191 46 bang to go;
#X text 398 190 duration of max ( 0 - 1);
#X obj 426 210 inlet;
#X text 329 152 max duration in ms;
#X obj 426 260 f;
#X obj 529 293 f;
#X obj 326 235 f;
#X text 287 46 comment;
#X obj 269 714 outlet;
#X text 331 714 to vline~;
#X obj 529 238 inlet att;
#X obj 653 240 inlet deca;
#X obj 653 371 f;
#X obj 502 427 t f f;
#X obj 352 522 + 5;
#X text 637 583 go to 0 in 5ms after 583ms(no decay);
#X msg 269 674 \$1 \$2 \, 0 \$3 \$4;
#X obj 456 579 *;
#X obj 456 547 t f f, f 11;
#X msg 562 501 1 \$1;
#X obj 562 542 -;
#X obj 653 392 t f f;
#X obj 519 577 *;
#X obj 493 627 + 5;
#X obj 456 600 + 5;
#X obj 352 543 t f f;
#X obj 268 646 pack 0 0 0 0, f 27;
#X obj 213 274 del 2;
#X obj 219 120 t b b b b b b, f 33;
#X msg 473 112 stop;
#X msg 213 295 0.98;
#X connect 0 0 1 0;
#X connect 1 0 2 0;
#X connect 1 1 3 0;
#X connect 2 0 24 0;
#X connect 3 0 19 0;
#X connect 4 0 12 0;
#X connect 5 0 34 0;
#X connect 8 0 10 0;
#X connect 10 0 0 1;
#X connect 11 0 3 1;
#X connect 12 0 0 0;
#X connect 16 0 11 0;
#X connect 17 0 18 0;
#X connect 18 0 27 0;
#X connect 19 0 20 0;
#X connect 19 1 2 1;
#X connect 20 0 31 0;
#X connect 22 0 14 0;
#X connect 23 0 30 0;
#X connect 24 0 23 0;
#X connect 24 1 28 0;
#X connect 25 0 26 0;
#X connect 26 0 28 1;
#X connect 27 0 23 1;
#X connect 27 1 25 0;
#X connect 28 0 29 0;
#X connect 29 0 32 3;
#X connect 30 0 32 2;
#X connect 31 0 32 1;
#X connect 31 1 29 1;
#X connect 32 0 22 0;
#X connect 33 0 36 0;
#X connect 34 0 33 0;
#X connect 34 1 12 0;
#X connect 34 2 10 0;
#X connect 34 3 11 0;
#X connect 34 4 18 0;
#X connect 34 5 35 0;
#X connect 35 0 33 0;
#X connect 36 0 32 0;
#X restore 425 435 pd note-shape - - - - - - - -;
#X obj 346 581 pow~ 2;
#X obj 584 343 pow 4;
#X msg 639 334 1 \$1;
#X obj 642 365 -;
#X obj 611 246 r knob3;
#X obj 539 293 r knob2;
#X connect 0 0 24 0;
#X connect 1 0 6 0;
#X connect 2 0 10 0;
#X connect 3 0 2 0;
#X connect 4 0 9 0;
#X connect 5 0 19 0;
#X connect 6 0 4 0;
#X connect 8 0 0 0;
#X connect 10 0 1 0;
#X connect 11 0 12 0;
#X connect 12 0 16 0;
#X connect 13 0 18 1;
#X connect 14 0 15 1;
#X connect 15 0 2 0;
#X connect 16 0 14 1;
#X connect 16 0 28 0;
#X connect 17 0 14 0;
#X connect 18 0 20 0;
#X connect 19 0 23 0;
#X connect 19 1 11 0;
#X connect 19 2 22 0;
#X connect 20 0 15 0;
#X connect 20 1 17 0;
#X connect 20 2 3 0;
#X connect 20 3 30 0;
#X connect 21 0 31 0;
#X connect 22 0 21 0;
#X connect 23 0 18 0;
#X connect 24 0 5 0;
#X connect 25 0 26 0;
#X connect 26 0 29 1;
#X connect 27 0 30 1;
#X connect 28 0 29 0;
#X connect 28 1 27 1;
#X connect 29 0 27 0;
#X connect 30 0 21 0;
#X connect 31 0 6 1;
#X connect 32 0 30 3;
#X connect 33 0 34 0;
#X connect 34 0 30 4;
#X connect 35 0 32 0;
#X connect 35 0 33 0;
#X connect 36 0 30 2;
