#N canvas 233 93 1423 645 10;
#X obj 200 544 throw~ outL;
#X obj 109 544 throw~ outR;
#X obj 810 386 loadbang;
#X obj 903 163 r knob2;
#X obj 1057 169 r knob3;
#X obj 736 165 r knob1;
#X obj 737 231 i;
#X obj 737 253 change -1;
#X obj 737 303 s screenLine1;
#X obj 736 187 * 100;
#X obj 736 211 + 0;
#X msg 737 278 1: Loop Vol \$1 %;
#X obj 266 170 catch~ synth;
#X msg 389 410 wet \$1;
#X msg 496 401 dry \$1;
#X obj 130 492 freeverb~;
#X msg 389 350 \$1 40;
#X msg 496 340 \$1 40;
#X obj 496 370 line 0 1;
#X obj 389 378 line 0 1;
#X obj 1189 165 r knob4;
#X obj 1189 244 change -1;
#X obj 1189 298 s screenLine4;
#X obj 1189 195 * 100;
#X obj 1189 217 i;
#N canvas 11 50 1054 732 theremin 1;
#X obj 540 103 t f f;
#X obj 542 128 *;
#X obj 359 49 r notes;
#X obj 365 659 throw~ synth;
#X obj 302 494 +~;
#X obj 587 257 osc~ 5;
#X obj 656 88 r aux;
#X floatatom 652 118 5 0 0 0 - - -, f 5;
#X obj 651 218 line~;
#X obj 653 258 *~ 10;
#X obj 605 293 *~;
#X obj 453 489 line~;
#X msg 515 430 1 500;
#X obj 433 526 *~;
#X obj 371 585 *~;
#X obj 278 386 mtof~;
#X obj 146 128 loadbang;
#X msg 146 150 60;
#N canvas 5 50 950 622 buzzysine 0;
#X obj 191 437 s_buzz;
#X obj 231 221 -~ 1;
#X obj 231 243 abs~;
#X obj 230 287 *~;
#X obj 231 166 /~ 5000;
#X obj 230 191 clip~ 0 5000;
#X text 294 154 sorta arbitrary scale of harmonic content amount to
avoid aliasing... assumes 44.1k sampling rate .....;
#X obj 171 98 inlet~;
#X obj 187 504 outlet~;
#X obj 229 375 *~ 0.25;
#X connect 0 0 8 0;
#X connect 1 0 2 0;
#X connect 2 0 3 1;
#X connect 2 0 3 0;
#X connect 3 0 9 0;
#X connect 4 0 5 0;
#X connect 5 0 1 0;
#X connect 7 0 4 0;
#X connect 7 0 0 0;
#X connect 9 0 0 1;
#X restore 302 533 pd buzzysine;
#X obj 418 431 pack 0 2000;
#X obj 646 170 pack 0 1000;
#X obj 312 426 /~ 440;
#X obj 321 453 *~;
#X obj 350 89 unpack;
#X obj 354 119 swap;
#X obj 356 144 pack;
#X obj 344 181 route 0;
#X obj 395 211 unpack 0 0;
#X obj 419 297 f;
#X text 430 189 note on;
#X obj 338 242 t f b;
#X obj 440 242 t b f f;
#X obj 375 355 ==;
#X obj 375 380 sel 1;
#X obj 542 154 * 3000;
#X obj 542 176 + 500;
#X obj 536 75 r knob2;
#X obj 276 355 line~;
#X obj 657 146 + 0.0666;
#X msg 286 328 \$1 333;
#X obj 382 632 *~ 0.2;
#X obj 733 79 r fs;
#X connect 0 0 1 0;
#X connect 0 1 1 1;
#X connect 1 0 34 0;
#X connect 2 0 23 0;
#X connect 4 0 18 0;
#X connect 5 0 10 0;
#X connect 6 0 7 0;
#X connect 7 0 38 0;
#X connect 8 0 9 0;
#X connect 9 0 10 1;
#X connect 10 0 22 1;
#X connect 11 0 13 0;
#X connect 11 0 13 1;
#X connect 12 0 11 0;
#X connect 13 0 14 1;
#X connect 14 0 40 0;
#X connect 15 0 4 0;
#X connect 15 0 21 0;
#X connect 16 0 17 0;
#X connect 17 0 39 0;
#X connect 18 0 14 0;
#X connect 19 0 11 0;
#X connect 20 0 8 0;
#X connect 21 0 22 0;
#X connect 22 0 4 1;
#X connect 23 0 24 0;
#X connect 23 1 24 1;
#X connect 24 0 25 0;
#X connect 24 1 25 1;
#X connect 25 0 26 0;
#X connect 26 0 30 0;
#X connect 26 1 27 0;
#X connect 27 1 31 0;
#X connect 28 0 32 1;
#X connect 30 0 32 0;
#X connect 30 1 28 0;
#X connect 31 0 12 0;
#X connect 31 1 39 0;
#X connect 31 2 28 1;
#X connect 32 0 33 0;
#X connect 33 0 19 0;
#X connect 34 0 35 0;
#X connect 35 0 19 1;
#X connect 36 0 0 0;
#X connect 37 0 15 0;
#X connect 38 0 20 0;
#X connect 39 0 37 0;
#X connect 40 0 3 0;
#X connect 41 0 7 0;
#X restore 236 66 pd theremin;
#X obj 496 215 r knob4;
#X obj 496 280 - 1;
#X obj 496 307 abs;
#X obj 496 247 * 0.5;
#X obj 81 169 catch~ bgL;
#X obj 169 169 catch~ bgR;
#X obj 119 64 background;
#X text 122 36 background loop and synth;
#X obj 904 233 i;
#X obj 904 255 change -1;
#X obj 903 189 * 100;
#X obj 903 213 + 0;
#X obj 904 305 s screenLine2;
#X msg 904 280 2: Decay \$1 %;
#X msg 324 274 \$1 40;
#X obj 324 302 line 0 1;
#X obj 324 207 r knob3;
#X msg 272 377 roomsize \$1;
#X obj 323 246 * 0.9;
#X obj 1057 245 change -1;
#X obj 1057 196 * 100;
#X obj 1057 218 i;
#X msg 1189 276 4: Reverb Amt \$1 %;
#X obj 1057 299 s screenLine3;
#X msg 1057 277 3: Room Size \$1;
#X obj 640 448 r aux;
#X msg 606 549 \; led 5;
#X msg 669 543 \; led 0;
#X obj 640 470 sel 1 0;
#X msg 810 426 \; screenLine1 1: Loop Vol % \; screenLine2 2: Decay
\; screenLine3 3: Room Size \; screenLine4 4: Reverb Amt \; screenLine5
Aux: Vibrato off \;;
#X msg 518 594 \; screenLine5 Aux: Vibrato on \;;
#X msg 778 588 \; screenLine5 Aux: Vibrato off \;;
#X obj 591 448 r fs;
#X obj 47 297 *~ 1.5;
#X obj 128 306 *~ 1.5;
#X connect 2 0 55 0;
#X connect 3 0 36 0;
#X connect 4 0 46 0;
#X connect 5 0 9 0;
#X connect 6 0 7 0;
#X connect 7 0 11 0;
#X connect 9 0 10 0;
#X connect 10 0 6 0;
#X connect 11 0 8 0;
#X connect 12 0 15 0;
#X connect 12 0 15 1;
#X connect 13 0 15 0;
#X connect 14 0 15 0;
#X connect 15 0 1 0;
#X connect 15 1 0 0;
#X connect 16 0 19 0;
#X connect 17 0 18 0;
#X connect 18 0 14 0;
#X connect 19 0 13 0;
#X connect 20 0 23 0;
#X connect 21 0 48 0;
#X connect 23 0 24 0;
#X connect 24 0 21 0;
#X connect 26 0 29 0;
#X connect 27 0 28 0;
#X connect 28 0 17 0;
#X connect 29 0 27 0;
#X connect 29 0 16 0;
#X connect 30 0 59 0;
#X connect 31 0 60 0;
#X connect 34 0 35 0;
#X connect 35 0 39 0;
#X connect 36 0 37 0;
#X connect 37 0 34 0;
#X connect 39 0 38 0;
#X connect 40 0 41 0;
#X connect 41 0 43 0;
#X connect 42 0 44 0;
#X connect 43 0 15 0;
#X connect 44 0 40 0;
#X connect 45 0 50 0;
#X connect 46 0 47 0;
#X connect 47 0 45 0;
#X connect 48 0 22 0;
#X connect 50 0 49 0;
#X connect 51 0 54 0;
#X connect 54 0 52 0;
#X connect 54 0 56 0;
#X connect 54 1 53 0;
#X connect 54 1 57 0;
#X connect 58 0 54 0;
#X connect 59 0 1 0;
#X connect 60 0 0 0;
