#N canvas 6 50 1547 903 10;
#X obj 171 421 unpack 0 0;
#X obj 171 481 pack 0 0 0;
#X obj 171 446 poly 6 1;
#X obj 1100 524 bng 15 250 50 0 empty empty empty 17 7 0 10 -262144
-1 -1;
#X msg 1167 616 \; led 7;
#X msg 1089 686 \; led 0;
#X obj 1091 622 delay 100;
#X msg 952 696 \; led 0;
#X obj 942 602 delay 100;
#X obj 1045 474 sel 0 1 2 3;
#X obj 1045 524 bng 15 250 50 0 empty empty empty 17 7 0 10 -262144
-1 -1;
#X text 1138 440 flash led on quarter and half notes;
#X obj 1045 438 counter-up 4;
#X obj 40 80 s midiOutGate;
#X obj 40 28 loadbang;
#X msg 40 50 0;
#X obj 47 452 unpack;
#X obj 48 483 noteout 1;
#X obj 690 190 tgl 15 0 empty empty empty 17 7 0 10 -262144 -1 -1 1
1;
#X floatatom 772 197 5 0 0 0 - - -, f 5;
#X obj 690 127 loadbang;
#X msg 690 159 1;
#X obj 778 70 r knob1;
#X obj 778 102 * 250;
#X obj 778 137 + 10;
#X obj 778 162 i;
#X obj 131 168 pack;
#X obj 131 136 notein 1;
#X obj 171 201 stripnote;
#X obj 1085 403 r reset-reclocker;
#N canvas 13 50 1044 777 midi-file-player 0;
#X obj 308 258 tgl 15 0 empty empty empty 17 7 0 10 -262144 -1 -1 0
1;
#X msg 337 420 read \$1.mid;
#X msg 271 174 1;
#X obj 391 134 r done-playing;
#X obj 229 616 bag;
#X msg 179 582 flush;
#X obj 229 640 pack 0 0;
#X obj 164 544 r done-playing;
#X msg 358 167 0;
#X obj 251 335 spigot;
#X obj 287 132 t b b f b b;
#N canvas 18 50 884 852 re-clocker 0;
#X obj 312 696 delay 1;
#X obj 409 638 / 10;
#X obj 409 584 r mspq;
#X obj 461 559 r ppq;
#X obj 369 461 i 0;
#X obj 369 508 + 1;
#X msg 494 665 stop;
#X msg 393 419 0;
#X obj 388 327 bng 15 250 50 0 empty empty empty 17 7 0 10 -262144
-1 -1;
#X obj 383 565 r ppq;
#X floatatom 418 668 5 0 0 0 - - -, f 5;
#X obj 369 538 t f f;
#X obj 356 595 < 10;
#X obj 341 621 sel 1;
#X obj 461 587 t b f;
#X obj 409 612 f 1000;
#X obj 537 556 i;
#X obj 537 596 - 0;
#X obj 566 556 r ppq;
#X obj 534 624 + 1;
#X obj 534 646 abs;
#X obj 531 721 until;
#X obj 533 673 moses 1000;
#X floatatom 533 699 5 0 0 0 - - -, f 5;
#X obj 388 357 t b b b b;
#X obj 491 791 outlet;
#X obj 369 486 t f f b;
#X obj 434 296 sel 0;
#X obj 510 85 bng 15 250 50 0 empty empty empty 17 7 0 10 -262144 -1
-1;
#X obj 575 344 r ppq;
#X obj 533 406 f;
#X obj 533 435 -1;
#X obj 464 216 f;
#X obj 499 129 t b b b;
#X obj 481 247 + 1;
#X obj 473 272 % 24;
#X obj 371 164 r midi-sync;
#X text 660 51 reset on next midi sync;
#X text 61 69 receives midi-sync \, ppq \, and mspq.;
#X text 59 96 then ouptuts ppq number pulses each quater note \, correcting
itself when tempo changes.;
#X obj 650 801 outlet;
#X obj 511 48 r reset-reclocker;
#X text 626 728 quater note of re-clocked clock;
#X connect 0 0 4 0;
#X connect 1 0 0 1;
#X connect 1 0 10 0;
#X connect 2 0 15 0;
#X connect 3 0 14 0;
#X connect 4 0 26 0;
#X connect 5 0 11 0;
#X connect 6 0 0 0;
#X connect 7 0 4 1;
#X connect 8 0 24 0;
#X connect 8 0 40 0;
#X connect 9 0 12 1;
#X connect 11 0 12 0;
#X connect 11 1 4 1;
#X connect 12 0 13 0;
#X connect 13 0 0 0;
#X connect 14 0 15 0;
#X connect 14 1 1 1;
#X connect 15 0 1 0;
#X connect 16 0 17 0;
#X connect 17 0 19 0;
#X connect 18 0 17 1;
#X connect 19 0 20 0;
#X connect 20 0 22 0;
#X connect 21 0 25 0;
#X connect 22 0 23 0;
#X connect 23 0 21 0;
#X connect 24 0 4 0;
#X connect 24 1 7 0;
#X connect 24 2 16 0;
#X connect 24 3 6 0;
#X connect 26 0 5 0;
#X connect 26 1 16 1;
#X connect 26 2 25 0;
#X connect 27 0 8 0;
#X connect 28 0 33 0;
#X connect 29 0 30 1;
#X connect 30 0 31 0;
#X connect 31 0 16 1;
#X connect 32 0 34 0;
#X connect 33 0 32 0;
#X connect 33 1 30 0;
#X connect 33 2 6 0;
#X connect 34 0 35 0;
#X connect 35 0 27 1;
#X connect 36 0 27 0;
#X connect 36 0 32 1;
#X connect 41 0 28 0;
#X restore 251 303 pd re-clocker;
#X obj 287 97 inlet;
#X obj 273 689 outlet;
#X obj 385 224 s reset-reclocker;
#N canvas 104 50 1323 751 midi-filer 0;
#X floatatom 423 303 15 0 0 0 current_tick - -, f 15;
#X text 759 429 note off events;
#X obj 350 401 route 144 145 146 147 148 149 150 151 152 153 154 155
156 157 158 159;
#X obj 746 453 route 128 129 130 131 132 133 134 135 136 137 138 139
140 141 142 143;
#X text 483 262 bangs at end of file:;
#X text 192 409 select note on events:;
#X obj 574 314 route bang format tracks ticks_per_quarternote;
#X floatatom 653 346 3 0 0 1 format - -, f 3;
#X floatatom 733 346 5 0 0 1 tracks - -, f 5;
#X floatatom 813 363 5 0 0 1 ticks_per_quarternote - -, f 5;
#X obj 247 38 inlet;
#X obj 746 539 unpack;
#X floatatom 746 569 5 0 0 0 - - -, f 5;
#X obj 746 598 pack 0 0;
#X text 834 555 pipe all 16 tracks to the same voice.... just cause
;
#X obj 531 343 bng 15 250 50 0 empty empty empty 17 7 0 10 -262144
-1 -1;
#X obj 570 371 s done-playing;
#X obj 350 652 outlet;
#X msg 368 173 verbose 0;
#X obj 400 125 loadbang;
#X obj 179 474 route 176;
#X obj 179 501 unpack;
#X obj 145 624 ctlout 1;
#X obj 161 577 f;
#X obj 139 541 t b f;
#X obj 813 391 s ppq;
#N canvas 7 50 602 490 toggle-keys 0;
#X obj 203 78 f 0;
#X obj 182 104 ==;
#X obj 67 247 s done-playing;
#X obj 250 234 f 0;
#X obj 189 132 sel 1 0;
#X obj 171 46 t f f b f;
#X obj 188 182 tgl 15 0 empty empty empty 17 7 0 10 -262144 -1 -1 0
1;
#X msg 205 160 1;
#X obj 187 204 sel 0 1;
#X obj 183 11 inlet;
#X obj 232 272 outlet;
#X obj 304 114 r disable-toggle;
#X msg 291 161 0;
#X connect 0 0 1 1;
#X connect 1 0 4 0;
#X connect 3 0 10 0;
#X connect 4 0 6 0;
#X connect 4 1 7 0;
#X connect 5 0 0 1;
#X connect 5 1 1 0;
#X connect 5 2 0 0;
#X connect 5 3 3 1;
#X connect 6 0 8 0;
#X connect 7 0 6 0;
#X connect 8 0 2 0;
#X connect 8 1 3 0;
#X connect 9 0 5 0;
#X connect 11 0 12 0;
#X connect 12 0 6 0;
#X restore 183 355 pd toggle-keys;
#X obj 408 373 s disable-toggle;
#X obj 351 263 midifile wowo.mid;
#X connect 2 0 17 0;
#X connect 2 1 17 0;
#X connect 2 2 17 0;
#X connect 2 3 17 0;
#X connect 2 4 17 0;
#X connect 2 5 17 0;
#X connect 2 6 17 0;
#X connect 2 7 17 0;
#X connect 2 8 17 0;
#X connect 2 9 17 0;
#X connect 2 10 17 0;
#X connect 2 11 17 0;
#X connect 2 12 17 0;
#X connect 2 13 17 0;
#X connect 2 14 17 0;
#X connect 2 15 17 0;
#X connect 2 16 3 0;
#X connect 3 0 11 0;
#X connect 3 1 11 0;
#X connect 3 2 11 0;
#X connect 3 3 11 0;
#X connect 3 4 11 0;
#X connect 3 5 11 0;
#X connect 3 6 11 0;
#X connect 3 7 11 0;
#X connect 3 8 11 0;
#X connect 3 9 11 0;
#X connect 3 10 11 0;
#X connect 3 11 11 0;
#X connect 3 12 11 0;
#X connect 3 13 11 0;
#X connect 3 14 11 0;
#X connect 3 15 11 0;
#X connect 6 0 15 0;
#X connect 6 0 16 0;
#X connect 6 1 7 0;
#X connect 6 2 8 0;
#X connect 6 3 9 0;
#X connect 9 0 25 0;
#X connect 10 0 28 0;
#X connect 11 0 12 0;
#X connect 12 0 13 0;
#X connect 13 0 17 0;
#X connect 15 0 27 0;
#X connect 18 0 28 0;
#X connect 19 0 18 0;
#X connect 20 0 21 0;
#X connect 21 0 24 0;
#X connect 21 1 23 1;
#X connect 23 0 22 0;
#X connect 24 0 23 0;
#X connect 24 1 22 1;
#X connect 28 0 2 0;
#X connect 28 0 20 0;
#X connect 28 1 0 0;
#X connect 28 2 6 0;
#X restore 338 453 pd midi-filer;
#X obj 346 363 s midi-file-q;
#X obj 343 332 spigot;
#X text 547 96 clocks are disabled \, old notes flushed \, new file
loaded (1.mid) \, re-clocker is reset \, clocks are enabled;
#X text 538 73 a number comes in (like 1);
#X connect 0 0 9 1;
#X connect 0 0 17 1;
#X connect 1 0 15 0;
#X connect 2 0 0 0;
#X connect 3 0 8 0;
#X connect 4 0 6 0;
#X connect 5 0 4 0;
#X connect 6 0 13 0;
#X connect 7 0 5 0;
#X connect 8 0 0 0;
#X connect 9 0 15 0;
#X connect 10 0 2 0;
#X connect 10 1 14 0;
#X connect 10 2 1 0;
#X connect 10 3 5 0;
#X connect 10 4 8 0;
#X connect 11 0 9 0;
#X connect 11 1 17 0;
#X connect 12 0 10 0;
#X connect 15 0 4 0;
#X connect 15 0 13 0;
#X connect 17 0 16 0;
#X restore 171 386 pd midi-file-player;
#X obj 1045 361 r midi-file-q;
#X obj 171 289 % 24;
#X obj 171 263 abs;
#X text 211 267 wrap around. all midi notes trigger a file;
#X obj 171 236 expr if ($f1 > 59 \, $f1 - 60 \, $f1 - 12);
#X obj 171 315 + 1;
#X obj 171 170 r notes;
#X text 1071 333 flasher;
#X msg 1023 627 \; led 6;
#X obj 433 89 loadbang;
#X text 119 49 disable keys sending midi;
#X text 553 16 MIDI file player \, keys select a midi file to play.
Aux stops playback.;
#X obj 192 761 throw~ outL;
#X obj 302 759 throw~ outR;
#X text 320 729 final gain adjustment;
#X obj 171 521 route 1 2 3 4 5 6;
#X obj 257 730 *~ 0.5;
#X obj 171 582 samplervoice;
#X obj 1013 105 * 100;
#X obj 1013 130 i;
#X obj 1013 76 r knob3;
#X obj 1169 108 * 100;
#X obj 1169 133 i;
#X obj 1162 74 r knob4;
#X obj 1169 166 change -1;
#X obj 1013 165 change -1;
#X obj 1169 222 s screenLine4;
#X obj 1013 223 s screenLine3;
#X obj 723 447 r dur;
#X obj 723 469 / 44100;
#X floatatom 723 491 5 0 0 0 - - -, f 5;
#X obj 1287 314 s~ mod;
#X floatatom 609 490 15 0 0 0 - - -, f 15;
#X text 586 424 length of sound in seconds and samples;
#N canvas 157 194 1161 613 record-load-sample 0;
#X msg 247 286 bang;
#X obj 306 261 r~ inL;
#X obj 365 260 r~ inR;
#X obj 356 463 tabwrite~ newsample;
#X obj 521 306 s led;
#X msg 543 271 0;
#X obj 468 104 sel 1 0;
#X obj 614 261 timer;
#X obj 616 439 s dur;
#X obj 614 291 * 44.1;
#X obj 355 409 *~;
#X obj 403 377 line~;
#X msg 426 264 1 1;
#X msg 465 265 0 2;
#X msg 506 270 1;
#X text 858 346 time length of recording in samples;
#X text 16 25 records as long as aux button or foot switch are held
down;
#X text 82 46 max 2 seconds;
#X obj 90 198 delay 2;
#X msg 101 269 stop;
#X obj 17 465 soundfiler;
#X obj 67 230 t b b;
#N canvas 0 50 450 300 (subpatch) 0;
#X array newsample 441000 float 0;
#X coords 0 1.02 440999 -1.02 200 130 1 0 0;
#X restore 794 32 graph;
#X msg 19 398 write -nframes \$1 ./sound.wav newsample;
#X obj 18 345 i;
#X obj 53 314 r dur;
#X msg 667 191 stop;
#X obj 390 142 t b b b b b;
#X msg 758 193 0;
#X obj 511 142 t b b b b b;
#X obj 470 38 i;
#X obj 470 63 change;
#X text 520 27 don't do things twice;
#X text 728 215 autostopper;
#X obj 616 356 expr if($f1 < 4410 \, 4410 \, $f1);
#X obj 879 237 loadbang;
#X obj 879 295 soundfiler;
#X msg 879 265 read ./sound.wav newsample;
#X text 865 371 it must be at least 4410 cause this;
#X text 874 401 is what the player assumes;
#X obj 470 14 r aux;
#X obj 685 236 delay 10000;
#X obj 630 112 == 0;
#X obj 622 140 s enable-flasher;
#X obj 437 14 r fs;
#X obj 470 83 t f f;
#X connect 0 0 3 0;
#X connect 1 0 10 0;
#X connect 2 0 10 0;
#X connect 5 0 4 0;
#X connect 6 0 27 0;
#X connect 6 1 29 0;
#X connect 7 0 9 0;
#X connect 9 0 34 0;
#X connect 10 0 3 0;
#X connect 11 0 10 1;
#X connect 12 0 11 0;
#X connect 13 0 11 0;
#X connect 14 0 4 0;
#X connect 18 0 21 0;
#X connect 19 0 3 0;
#X connect 21 0 24 0;
#X connect 21 1 19 0;
#X connect 23 0 20 0;
#X connect 24 0 23 0;
#X connect 25 0 24 1;
#X connect 26 0 41 0;
#X connect 27 0 0 0;
#X connect 27 1 12 0;
#X connect 27 2 14 0;
#X connect 27 3 7 0;
#X connect 27 4 41 0;
#X connect 28 0 30 0;
#X connect 29 0 18 0;
#X connect 29 1 13 0;
#X connect 29 2 5 0;
#X connect 29 3 7 1;
#X connect 29 4 26 0;
#X connect 30 0 31 0;
#X connect 31 0 45 0;
#X connect 34 0 8 0;
#X connect 35 0 37 0;
#X connect 36 0 34 0;
#X connect 37 0 36 0;
#X connect 40 0 30 0;
#X connect 41 0 28 0;
#X connect 42 0 43 0;
#X connect 44 0 30 0;
#X connect 45 0 6 0;
#X connect 45 1 42 0;
#X restore 656 272 pd record-load-sample;
#X msg 1013 195 3: Start Point \$1 %;
#X msg 1169 193 4: Duration \$1 %;
#X obj 1287 286 sig~ 0;
#X obj 1304 120 i;
#X obj 1304 142 change -1;
#X obj 1307 168 - 100;
#X obj 1303 97 * 201;
#X obj 1304 67 r knob2;
#X msg 1303 190 2: Speed \$1 %;
#X obj 1303 214 s screenLine2;
#X obj 268 583 samplervoice;
#X obj 208 617 samplervoice;
#X obj 247 646 samplervoice;
#X obj 302 616 samplervoice;
#X obj 345 646 samplervoice;
#N canvas 7 50 602 490 toggle-keys 0;
#X obj 203 78 f 0;
#X obj 182 104 ==;
#X obj 67 247 s done-playing;
#X obj 250 234 f 0;
#X obj 189 132 sel 1 0;
#X obj 171 46 t f f b f;
#X obj 188 182 tgl 15 0 empty empty empty 17 7 0 10 -262144 -1 -1 0
1;
#X msg 205 160 1;
#X obj 187 204 sel 0 1;
#X obj 183 11 inlet;
#X obj 232 272 outlet;
#X obj 304 114 r disable-toggle;
#X msg 291 161 0;
#X connect 0 0 1 1;
#X connect 1 0 4 0;
#X connect 3 0 10 0;
#X connect 4 0 6 0;
#X connect 4 1 7 0;
#X connect 5 0 0 1;
#X connect 5 1 1 0;
#X connect 5 2 0 0;
#X connect 5 3 3 1;
#X connect 6 0 8 0;
#X connect 7 0 6 0;
#X connect 8 0 2 0;
#X connect 8 1 3 0;
#X connect 9 0 5 0;
#X connect 11 0 12 0;
#X connect 12 0 6 0;
#X restore 171 347 pd toggle-keys;
#X text 1234 258 for the sample players;
#X obj 1178 530 r enable-flasher;
#X obj 951 667 spigot 1;
#X obj 1021 579 spigot 1;
#X obj 1091 646 spigot 1;
#X obj 1156 591 spigot 1;
#X text 1192 502 disable flasher when recording;
#X text 321 524 play midi file on sampler;
#N canvas 7 50 732 690 main-metro 0;
#X obj 227 79 tgl 15 0 empty empty empty 17 7 0 10 -262144 -1 -1 1
1;
#X floatatom 356 90 5 0 0 0 - - -, f 5;
#X text 412 62 dial in bpm;
#N canvas 945 226 174 209 dialinbpm 0;
#X obj 29 41 inlet;
#X obj 29 72 expr 1000/($f1/60);
#X floatatom 29 121 5 0 0 0 - - -, f 5;
#X obj 29 96 / 24;
#X obj 30 150 outlet;
#X obj 92 151 outlet;
#X connect 0 0 1 0;
#X connect 1 0 3 0;
#X connect 1 0 5 0;
#X connect 2 0 4 0;
#X connect 3 0 2 0;
#X restore 365 122 pd dialinbpm;
#N canvas 144 50 870 723 mainmetro 0;
#X obj 276 45 inlet;
#X obj 329 45 inlet;
#X obj 271 183 metro 50;
#X obj 381 441 + 1, f 5;
#X obj 280 462 f;
#X floatatom 280 581 5 0 0 0 - - -, f 5;
#X obj 280 607 outlet;
#X msg 565 496 0;
#X obj 350 484 >= 23;
#X obj 350 516 sel 1;
#X obj 408 145 midirealtimein;
#X obj 280 387 spigot 1;
#X obj 408 388 spigot 0;
#X obj 423 300 tgl 15 0 empty empty empty 17 7 0 10 -262144 -1 -1 0
1;
#X obj 333 323 ==;
#X obj 333 349 tgl 15 0 empty empty empty 17 7 0 10 -262144 -1 -1 1
1;
#X obj 461 350 tgl 15 0 empty empty empty 17 7 0 10 -262144 -1 -1 0
1;
#X obj 408 167 sel 248 250 251;
#X obj 580 243 delay 1000;
#X msg 423 241 1;
#X obj 408 190 t b b b b, f 25;
#X msg 580 218 stop;
#X msg 580 267 0;
#X text 67 12 autoswitch between internal and MIDI clock;
#X text 525 144 MIDI 248 = clock \; 250 = start \; 251 = continue.
;
#X obj 578 348 s midi-clock-present;
#X obj 325 207 loadbang;
#X msg 325 229 0;
#X text 7 115 reset back to 0 when metro stops;
#X obj 297 120 s reset-metronome;
#X obj 619 435 r reset-metronome;
#X obj 262 86 t f b;
#X connect 0 0 31 0;
#X connect 1 0 2 1;
#X connect 2 0 11 0;
#X connect 3 0 4 1;
#X connect 4 0 3 0;
#X connect 4 0 5 0;
#X connect 4 0 8 0;
#X connect 5 0 6 0;
#X connect 7 0 4 1;
#X connect 8 0 9 0;
#X connect 9 0 7 0;
#X connect 10 0 17 0;
#X connect 11 0 4 0;
#X connect 12 0 4 0;
#X connect 13 0 14 0;
#X connect 13 0 16 0;
#X connect 13 0 25 0;
#X connect 14 0 15 0;
#X connect 15 0 11 1;
#X connect 16 0 12 1;
#X connect 17 0 20 0;
#X connect 17 1 7 0;
#X connect 17 2 7 0;
#X connect 18 0 22 0;
#X connect 19 0 13 0;
#X connect 20 0 12 0;
#X connect 20 1 18 0;
#X connect 20 2 19 0;
#X connect 20 3 21 0;
#X connect 21 0 18 0;
#X connect 22 0 13 0;
#X connect 26 0 27 0;
#X connect 27 0 13 0;
#X connect 30 0 7 0;
#X connect 31 0 2 0;
#X connect 31 1 29 0;
#X restore 227 160 pd mainmetro;
#X obj 227 43 inlet;
#X obj 372 27 inlet;
#X obj 369 58 i;
#X floatatom 228 195 5 0 0 0 - - -, f 5;
#X obj 408 413 s mspq;
#X obj 287 563 i;
#X obj 287 585 change -1;
#X obj 123 561 i;
#X obj 123 583 change -1;
#X obj 285 464 spigot 1;
#X obj 121 460 spigot 0;
#X obj 218 379 r midi-clock-present;
#X obj 218 403 ==;
#X obj 123 644 s screenLine1;
#X obj 287 645 s screenLine1;
#X msg 287 613 1: Tempo \$1 BPM;
#X msg 122 611 1: Tempo \$1 BPM MIDI;
#N canvas 40 591 695 344 gettime 0;
#X obj 238 7 inlet;
#X obj 131 181 timer;
#X obj 131 273 outlet;
#X obj 131 208 expr 60000 / $f1;
#X obj 131 144 t b b;
#X obj 131 110 sel 0;
#X text 157 77 time 16th notes;
#X text 127 299 bpm;
#X obj 404 186 timer;
#X obj 404 149 t b b;
#X obj 404 115 sel 0;
#X text 430 82 time 16th notes;
#X obj 395 79 % 6;
#X obj 404 217 * 4;
#X obj 404 249 outlet;
#X text 399 274 mspb;
#X obj 122 74 % 12;
#X obj 131 240 / 2;
#X connect 0 0 12 0;
#X connect 0 0 16 0;
#X connect 1 0 3 0;
#X connect 3 0 17 0;
#X connect 4 0 1 0;
#X connect 4 1 1 1;
#X connect 5 0 4 0;
#X connect 8 0 13 0;
#X connect 9 0 8 0;
#X connect 9 1 8 1;
#X connect 10 0 9 0;
#X connect 12 0 10 0;
#X connect 13 0 14 0;
#X connect 16 0 5 0;
#X connect 17 0 2 0;
#X restore 235 323 pd gettime;
#X obj 324 286 s midi-sync;
#X obj 538 568 midiout;
#X obj 538 520 r midi-sync;
#X msg 538 542 248;
#X text 544 489 output midi sync;
#X connect 0 0 4 0;
#X connect 1 0 3 0;
#X connect 1 0 14 0;
#X connect 3 0 4 1;
#X connect 4 0 8 0;
#X connect 5 0 0 0;
#X connect 6 0 7 0;
#X connect 7 0 1 0;
#X connect 8 0 22 0;
#X connect 8 0 23 0;
#X connect 10 0 11 0;
#X connect 11 0 20 0;
#X connect 12 0 13 0;
#X connect 13 0 21 0;
#X connect 14 0 10 0;
#X connect 15 0 12 0;
#X connect 16 0 15 1;
#X connect 16 0 17 0;
#X connect 17 0 14 1;
#X connect 20 0 19 0;
#X connect 21 0 18 0;
#X connect 22 0 15 0;
#X connect 22 1 9 0;
#X connect 25 0 26 0;
#X connect 26 0 24 0;
#X restore 687 243 pd main-metro;
#X msg 434 111 \; screenLine1 1: Tempo \; screenLine2 2: Resonance
\; screenLine3 3: Cutoff \; screenLine4 4: Decay \; screenLine5 Aux:
Press to Record \;;
#X connect 0 0 2 0;
#X connect 0 1 2 1;
#X connect 1 0 46 0;
#X connect 2 0 1 0;
#X connect 2 1 1 1;
#X connect 2 2 1 2;
#X connect 3 0 6 0;
#X connect 3 0 87 0;
#X connect 6 0 86 0;
#X connect 8 0 84 0;
#X connect 9 0 10 0;
#X connect 9 1 3 0;
#X connect 9 2 3 0;
#X connect 9 3 3 0;
#X connect 10 0 8 0;
#X connect 10 0 85 0;
#X connect 12 0 9 0;
#X connect 14 0 15 0;
#X connect 15 0 13 0;
#X connect 16 0 17 0;
#X connect 16 1 17 1;
#X connect 18 0 90 0;
#X connect 19 0 90 1;
#X connect 20 0 21 0;
#X connect 21 0 18 0;
#X connect 22 0 23 0;
#X connect 23 0 24 0;
#X connect 24 0 25 0;
#X connect 25 0 19 0;
#X connect 26 0 28 0;
#X connect 27 0 26 0;
#X connect 27 1 26 1;
#X connect 28 0 35 0;
#X connect 29 0 12 1;
#X connect 30 0 16 0;
#X connect 30 0 0 0;
#X connect 31 0 12 0;
#X connect 32 0 36 0;
#X connect 33 0 32 0;
#X connect 35 0 33 0;
#X connect 36 0 81 0;
#X connect 37 0 28 0;
#X connect 40 0 91 0;
#X connect 46 0 48 0;
#X connect 46 1 77 0;
#X connect 46 2 78 0;
#X connect 46 3 76 0;
#X connect 46 4 79 0;
#X connect 46 5 80 0;
#X connect 47 0 43 0;
#X connect 47 0 44 0;
#X connect 48 0 47 0;
#X connect 49 0 50 0;
#X connect 50 0 56 0;
#X connect 51 0 49 0;
#X connect 52 0 53 0;
#X connect 53 0 55 0;
#X connect 54 0 52 0;
#X connect 55 0 67 0;
#X connect 56 0 66 0;
#X connect 59 0 60 0;
#X connect 59 0 63 0;
#X connect 60 0 61 0;
#X connect 66 0 58 0;
#X connect 67 0 57 0;
#X connect 68 0 62 0;
#X connect 69 0 70 0;
#X connect 70 0 71 0;
#X connect 71 0 74 0;
#X connect 72 0 69 0;
#X connect 73 0 72 0;
#X connect 74 0 75 0;
#X connect 76 0 47 0;
#X connect 77 0 47 0;
#X connect 78 0 47 0;
#X connect 79 0 47 0;
#X connect 80 0 47 0;
#X connect 81 0 30 0;
#X connect 83 0 87 1;
#X connect 83 0 86 1;
#X connect 83 0 85 1;
#X connect 83 0 84 1;
#X connect 84 0 7 0;
#X connect 85 0 39 0;
#X connect 86 0 5 0;
