#N canvas 45 98 1840 906 10;
#X obj 1589 262 i;
#X obj 1560 214 * 2000;
#X obj 1560 236 + 10;
#N canvas 4 50 450 278 (subpatch) 0;
#X array seqvel 33 float 3;
#A 0 56.625 56.625 56.625 56.625 56.625 56.625 56.625 56.625 56.625
56.625 56.625 56.625 56.625 56.625 56.625 56.625 56.625 56.625 56.625
56.625 56.625 56.625 56.625 56.625 56.625 56.625 56.625 56.625 56.625
56.625 56.625 56.625 2;
#X coords 0 128 33 0 200 140 1 0 0;
#X restore 636 286 graph;
#X obj 453 196 tgl 15 0 empty empty empty 17 7 0 10 -262144 -1 -1 0
1;
#X msg 411 289 0;
#N canvas 150 66 1082 978 seqplayer 0;
#X obj 400 534 tabread seq;
#X floatatom 401 558 5 0 0 0 - - -, f 5;
#X floatatom 399 490 5 0 0 0 - - -, f 5;
#X obj 205 317 bng 15 250 50 0 empty empty empty 17 7 0 10 -262144
-1 -1;
#X obj 162 -21 stripnote;
#X obj 243 389 counter-up 16;
#X obj 268 471 == 15;
#X obj 486 617 + 60;
#X obj 470 683 pack 0 100;
#X obj 141 -63 inlet;
#X obj 469 714 outlet;
#X text 141 -85 note;
#X obj 485 642 - 60;
#X obj 403 584 moses 1;
#X text 473 583 filter out notes that are 0;
#X obj 537 536 tabread seqvel;
#X obj 398 510 t f f;
#X obj 106 244 r swing-sixteenths;
#X obj 706 220 bng 15 250 50 0 empty empty empty 17 7 0 10 -262144
-1 -1;
#X obj 276 109 s pun-transp;
#X obj 568 406 r pun-transp;
#X obj 565 -48 inlet;
#X text 559 -70 length;
#X obj 402 382 - 1;
#X obj 229 146 s pun-rewind;
#X obj 187 75 t b b f;
#X obj 137 151 s pun-start;
#X obj 262 540 bng 15 250 50 0 empty empty empty 17 7 0 10 -262144
-1 -1;
#X obj 229 716 s pun-stop;
#X obj 720 177 r pun-rewind;
#X obj 285 428 t f f;
#X obj 263 507 sel 1;
#X msg 331 -9 0;
#X obj 300 -43 sel 0 1 2;
#X msg 375 -10 1;
#X obj 193 36 spigot;
#X msg 285 -10 1;
#X obj 226 672 spigot 1;
#X obj 288 576 sel 0 1 2;
#X msg 273 609 1;
#X msg 319 610 1;
#X msg 363 609 0;
#X obj 596 236 bng 15 250 50 0 empty empty empty 17 7 0 10 -262144
-1 -1;
#X msg 313 281;
#X obj 546 296 spigot;
#X msg 676 268 1;
#X obj 556 333 t b b;
#X msg 631 322 0;
#X obj 597 202 r eighths;
#X obj 300 -66 r punchy-state;
#X obj 288 554 r punchy-state;
#X connect 0 0 1 0;
#X connect 1 0 13 0;
#X connect 2 0 16 0;
#X connect 3 0 5 0;
#X connect 4 0 35 0;
#X connect 5 0 30 0;
#X connect 6 0 31 0;
#X connect 7 0 12 0;
#X connect 8 0 10 0;
#X connect 9 0 4 0;
#X connect 12 0 8 0;
#X connect 13 1 7 0;
#X connect 15 0 8 1;
#X connect 16 0 0 0;
#X connect 16 1 15 0;
#X connect 17 0 3 0;
#X connect 18 0 45 0;
#X connect 20 0 7 1;
#X connect 21 0 5 2;
#X connect 21 0 23 0;
#X connect 23 0 6 1;
#X connect 25 0 26 0;
#X connect 25 1 24 0;
#X connect 25 2 19 0;
#X connect 27 0 37 0;
#X connect 29 0 18 0;
#X connect 30 0 6 0;
#X connect 30 1 2 0;
#X connect 31 0 27 0;
#X connect 32 0 35 1;
#X connect 33 0 36 0;
#X connect 33 1 32 0;
#X connect 33 2 34 0;
#X connect 34 0 35 1;
#X connect 35 0 25 0;
#X connect 36 0 35 1;
#X connect 37 0 28 0;
#X connect 38 0 39 0;
#X connect 38 1 40 0;
#X connect 38 2 41 0;
#X connect 39 0 37 1;
#X connect 40 0 37 1;
#X connect 41 0 37 1;
#X connect 42 0 44 0;
#X connect 44 0 46 0;
#X connect 45 0 44 1;
#X connect 46 0 5 1;
#X connect 46 1 47 0;
#X connect 47 0 44 1;
#X connect 48 0 42 0;
#X connect 49 0 33 0;
#X connect 50 0 38 0;
#X restore 227 308 pd seqplayer;
#N canvas 205 226 1208 666 states 1;
#X obj 224 239 f;
#X obj 224 186 sel 1;
#X floatatom 131 211 5 0 0 0 - - -, f 5;
#X obj 131 242 sel 1;
#X obj 131 268 bng 15 250 50 0 empty empty empty 17 7 0 10 -262144
-1 -1;
#X obj 209 146 t f f;
#X obj 224 265 sel 1;
#X text 537 82 Controls LED & Screen Infomation:;
#X obj 224 211 del 500;
#X text 104 74 Controls State With Aux Button;
#X text 95 10 uses the aux button to control states;
#X msg 689 227 1;
#X msg 224 299 1;
#X msg 210 460 0;
#X obj 411 77 loadbang;
#X msg 411 99 0;
#X obj 131 415 sel 0 1 2, f 27;
#X text 528 11 states are: 0 = play mode \, 1 = punch in \, 2 = play
w latch, f 70;
#X obj 587 172 sel 0 1 2;
#X msg 119 468 2;
#X msg 286 466 0;
#X msg 579 232 0;
#X msg 809 230 2;
#X msg 714 293 Aux: Punch Mode;
#X obj 131 97 r punchy-aux;
#X obj 579 256 s punchy-led;
#X obj 689 252 s punchy-led;
#X obj 809 255 s punchy-led;
#X obj 634 387 send punchy-aux-label;
#X msg 530 300 Aux: Stopped;
#X msg 894 303 Aux: Playing;
#X obj 409 129 s punchy-state;
#X obj 402 199 r punchy-state;
#X obj 402 220 v punchy-state;
#X obj 587 130 r punchy-state;
#X obj 105 532 s punchy-state;
#X obj 217 532 s punchy-state;
#X obj 284 501 s punchy-state;
#X obj 114 328 v punchy-state;
#X obj 226 326 s punchy-state;
#X connect 0 0 6 0;
#X connect 1 0 8 0;
#X connect 2 0 3 0;
#X connect 3 0 4 0;
#X connect 4 0 38 0;
#X connect 5 0 1 0;
#X connect 5 1 0 1;
#X connect 6 0 12 0;
#X connect 8 0 0 0;
#X connect 11 0 26 0;
#X connect 12 0 39 0;
#X connect 13 0 36 0;
#X connect 14 0 15 0;
#X connect 15 0 31 0;
#X connect 16 0 19 0;
#X connect 16 1 13 0;
#X connect 16 2 20 0;
#X connect 18 0 21 0;
#X connect 18 0 29 0;
#X connect 18 1 11 0;
#X connect 18 1 23 0;
#X connect 18 2 22 0;
#X connect 18 2 30 0;
#X connect 19 0 35 0;
#X connect 20 0 37 0;
#X connect 21 0 25 0;
#X connect 22 0 27 0;
#X connect 23 0 28 0;
#X connect 24 0 2 0;
#X connect 24 0 5 0;
#X connect 29 0 28 0;
#X connect 30 0 28 0;
#X connect 32 0 33 0;
#X connect 34 0 18 0;
#X connect 38 0 16 0;
#X restore 676 54 pd states;
#X msg 433 126 0;
#X msg 469 125 1;
#X floatatom 521 281 5 0 0 0 - - -, f 5;
#X obj 308 283 r len;
#X obj 521 341 s len;
#N canvas 152 66 634 688 latch 0;
#X obj 43 405 latch-notes;
#X obj 263 232 tgl 15 0 empty empty empty 17 7 0 10 -262144 -1 -1 0
1;
#X obj 173 298 spigot 1;
#X obj 43 298 spigot 0;
#X obj 263 258 == 0;
#X obj 309 312 bng 15 250 50 0 empty empty empty 17 7 0 10 -262144
-1 -1;
#X obj 263 134 inlet;
#X obj 43 626 outlet;
#X obj 43 106 inlet;
#X text 44 53 incoming notes get sent through latch if enabled \, or
directly to output if disabled;
#X text 311 135 enable;
#X obj 264 161 t f b, f 7;
#X connect 0 0 7 0;
#X connect 1 0 4 0;
#X connect 1 0 3 1;
#X connect 2 0 7 0;
#X connect 3 0 0 0;
#X connect 4 0 2 1;
#X connect 5 0 0 1;
#X connect 6 0 11 0;
#X connect 8 0 3 0;
#X connect 8 0 2 0;
#X connect 11 0 1 0;
#X connect 11 1 5 0;
#X restore 227 206 pd latch;
#X obj 433 81 sel 0 1 2;
#X msg 503 125 0;
#X msg 326 128 0;
#X obj 280 96 sel 0 1 2;
#X msg 370 127 1;
#X msg 280 127 0;
#X obj 280 168 tgl 15 0 empty empty empty 17 7 0 10 -262144 -1 -1 0
1;
#X msg 812 608 \; seq read seq.txt \;;
#X obj 763 547 loadbang;
#X obj 1284 672 tabwrite seq;
#X msg 1351 622 32;
#X obj 1359 546 r len;
#X obj 1360 572 t f b;
#X obj 774 577 t b b;
#X msg 700 636 32;
#X obj 699 690 s len;
#X floatatom 1293 586 5 0 0 0 - - -, f 5;
#X obj 699 663 tabread seq;
#X obj 999 557 t f b;
#X obj 1017 592 f;
#X obj 1017 615 == 1;
#X obj 1022 639 sel 1;
#X text 1063 588 when done recording;
#X obj 227 401 makenote 100 100;
#X text 528 11 states are: 0 = play mode \, 1 = punch in \, 2 = play
w latch, f 70;
#N canvas 82 50 919 699 seqpuncher 0;
#X obj 242 626 tabwrite seq;
#X obj 244 211 tgl 15 0 empty empty empty 17 7 0 10 -262144 -1 -1 0
1;
#X obj 351 334 spigot 0;
#X obj 401 264 t f b;
#X obj 444 566 sel 1;
#X obj 321 169 t f f;
#X obj 371 138 stripnote;
#X obj 444 627 outlet;
#X obj 371 107 inlet;
#X obj 220 103 inlet;
#X text 544 263 writes notes to sequence;
#X text 508 577 bang at end, f 12;
#X obj 654 136 inlet;
#X obj 556 421 - 1;
#X text 647 104 len;
#X obj 674 625 outlet;
#X text 732 624 len, f 4;
#X obj 671 589 + 1;
#X obj 399 480 counter-up 32;
#X obj 444 540 == 31;
#X obj 332 402 - 0;
#X obj 138 523 f;
#X obj 338 443 t b f b;
#X obj 124 624 tabwrite seqvel;
#X obj 187 782 outlet;
#X obj 188 731 swap;
#X obj 188 753 pack;
#X obj 163 366 f;
#X obj 391 628 + 1;
#X msg 386 686 Aux: Punching \$1;
#X obj 72 449 i;
#X obj 163 395 * 128;
#X obj 418 739 send punchy-sl5;
#X obj 163 340 r punchy-note-vel;
#X msg 27 546 \; punchy-note-vel-label Note Velocity \$1 \;;
#X connect 1 0 3 0;
#X connect 2 0 20 0;
#X connect 3 0 2 1;
#X connect 3 1 18 1;
#X connect 4 0 7 0;
#X connect 5 0 2 0;
#X connect 6 0 5 0;
#X connect 8 0 6 0;
#X connect 9 0 1 0;
#X connect 12 0 13 0;
#X connect 12 0 18 2;
#X connect 13 0 19 1;
#X connect 17 0 15 0;
#X connect 18 0 0 1;
#X connect 18 0 17 0;
#X connect 18 0 19 0;
#X connect 18 0 23 1;
#X connect 18 0 28 0;
#X connect 19 0 4 0;
#X connect 20 0 22 0;
#X connect 21 0 23 0;
#X connect 21 0 25 0;
#X connect 22 0 21 0;
#X connect 22 1 0 0;
#X connect 22 1 25 1;
#X connect 22 2 18 0;
#X connect 25 0 26 0;
#X connect 25 1 26 1;
#X connect 26 0 24 0;
#X connect 27 0 31 0;
#X connect 28 0 29 0;
#X connect 29 0 32 0;
#X connect 30 0 34 0;
#X connect 31 0 21 1;
#X connect 31 0 30 0;
#X connect 33 0 27 0;
#X restore 433 242 pd seqpuncher;
#X text 953 478 seq saving and recalling;
#X text 635 85 up to 32 notes long \, len is stashed as last entry
;
#X text 1247 514 stash length as last entry;
#X obj 916 329 master-metronome;
#X obj 915 263 tgl 15 0 empty empty empty 17 7 0 10 -262144 -1 -1 0
1;
#X msg 954 234 1;
#X obj 1005 259 * 250;
#X obj 1005 285 + 10;
#N canvas 181 118 1343 882 display-tempo 0;
#X obj 117 52 inlet;
#X obj 346 43 inlet;
#X obj 317 129 i;
#X obj 130 148 i;
#X msg 167 637 \; punchy-tempo-label Tempo \$1 BPM MIDI \;;
#X msg 479 631 \; punchy-tempo-label Tempo \$1 BPM \;;
#X connect 0 0 3 0;
#X connect 1 0 2 0;
#X connect 2 0 5 0;
#X connect 3 0 4 0;
#X restore 916 367 pd display-tempo;
#N canvas 4 50 450 278 (subpatch) 0;
#X array seq 33 float 3;
#A 0 60 72 64 65 71 69 69 69 69 67 65 64 67 67 69 69 69 69 69 71 69
71 71 71 71 71 71 69 69 71 69 67 2;
#X coords 0 128 33 0 200 140 1 0 0;
#X restore 636 127 graph;
#X msg 797 665 \; seqvel read seqvel.txt \;;
#X obj 227 363 unpack;
#X obj 227 473 pack;
#X obj 227 519 s punchy-notes-out;
#X obj 227 50 r punchy-notes-in;
#X obj 477 201 r punchy-notes-in;
#X text 1137 157 Knob 2: Punch Note Velocity;
#X text 1356 157 Knob 3: Swing;
#X obj 1372 237 i;
#X obj 1372 213 * 101;
#X obj 1357 326 s swing;
#X obj 954 203 r pun-start;
#X obj 915 181 r pun-stop;
#X msg 915 203 0;
#X obj 916 297 change;
#X obj 1005 233 r punchy-tempo;
#X obj 1138 190 r punchy-note-vel;
#X obj 1357 181 r punchy-swing;
#X obj 1560 181 r punchy-note-length;
#X obj 1138 232 s punchy-note-vel-label;
#X obj 1372 295 s punchy-swing-label;
#X obj 1589 314 s punchy-note-length-label;
#X text 911 157 Knob 1: Tempo;
#X text 1558 156 Knob 4: Note Length;
#X msg 1372 263 Swing \$1 % \;;
#X msg 1589 287 Note Length \$1 ms;
#X msg 1024 667 \; seq write ./seq.txt \;;
#X msg 1009 714 \; seqvel write ./seqvel.txt \;;
#X obj 1560 342 s punchy-decay;
#X obj 336 364 r punchy-decay;
#X obj 305 212 sel 1;
#X obj 305 246 s pun-start;
#X obj 280 74 r punchy-state;
#X obj 434 50 r punchy-state;
#X obj 411 318 s punchy-state;
#X obj 996 529 r punchy-state;
#X text 355 401 send the seq out on midi ch 2;
#X obj 356 461 noteout 2;
#X connect 0 0 75 0;
#X connect 1 0 2 0;
#X connect 2 0 0 0;
#X connect 2 0 78 0;
#X connect 4 0 39 0;
#X connect 5 0 84 0;
#X connect 6 0 51 0;
#X connect 8 0 4 0;
#X connect 9 0 4 0;
#X connect 10 0 12 0;
#X connect 11 0 6 1;
#X connect 13 0 6 0;
#X connect 14 0 8 0;
#X connect 14 1 9 0;
#X connect 14 2 15 0;
#X connect 15 0 4 0;
#X connect 16 0 20 0;
#X connect 17 0 19 0;
#X connect 17 1 16 0;
#X connect 17 2 18 0;
#X connect 18 0 20 0;
#X connect 19 0 20 0;
#X connect 20 0 13 1;
#X connect 20 0 80 0;
#X connect 22 0 27 0;
#X connect 24 0 23 1;
#X connect 25 0 26 0;
#X connect 25 0 30 0;
#X connect 26 0 23 0;
#X connect 26 1 24 0;
#X connect 27 0 28 0;
#X connect 27 1 21 0;
#X connect 27 1 50 0;
#X connect 28 0 31 0;
#X connect 31 0 29 0;
#X connect 32 0 33 1;
#X connect 32 1 33 0;
#X connect 33 0 34 0;
#X connect 34 0 35 0;
#X connect 35 0 76 0;
#X connect 35 0 77 0;
#X connect 37 0 52 0;
#X connect 37 0 87 0;
#X connect 37 1 52 1;
#X connect 37 1 87 1;
#X connect 39 0 51 0;
#X connect 39 1 5 0;
#X connect 39 2 10 0;
#X connect 43 0 48 0;
#X connect 43 1 48 1;
#X connect 44 0 64 0;
#X connect 45 0 44 0;
#X connect 46 0 47 0;
#X connect 47 0 43 1;
#X connect 51 0 37 0;
#X connect 51 1 37 1;
#X connect 52 0 53 0;
#X connect 54 0 13 0;
#X connect 55 0 39 1;
#X connect 58 0 74 0;
#X connect 59 0 58 0;
#X connect 61 0 45 0;
#X connect 62 0 63 0;
#X connect 63 0 44 0;
#X connect 64 0 43 0;
#X connect 65 0 46 0;
#X connect 67 0 59 0;
#X connect 67 0 60 0;
#X connect 68 0 1 0;
#X connect 74 0 70 0;
#X connect 75 0 71 0;
#X connect 79 0 37 2;
#X connect 80 0 81 0;
#X connect 82 0 17 0;
#X connect 83 0 14 0;
#X connect 85 0 32 0;
