#N canvas 154 90 1660 824 10;
#X text 94 70 Sampler Manager;
#X obj 485 512 throw~ outL;
#X obj 385 518 throw~ outR;
#X obj 401 346 catch~ samp_voice_out;
#X obj 436 472 *~ 1;
#X obj 36 345 loadbang;
#X obj 746 318 master-metronome;
#X obj 772 518 + 1;
#X obj 772 543 i;
#X floatatom 772 574 5 0 0 0 - - -, f 5;
#X obj 831 610 s num-sixteenths;
#X obj 736 609 change -1;
#X obj 687 84 r aux;
#X obj 687 110 sel 1;
#X obj 687 144 s cancel;
#X obj 746 288 tgl 15 0 empty empty empty 17 7 0 10 -262144 -1 -1 1
1;
#X msg 650 176 0;
#X obj 720 179 r start-metro;
#X msg 720 201 1;
#X obj 1179 471 r quarters;
#X obj 1263 470 r reset-metronome;
#X obj 1233 603 bng 15 250 50 0 empty empty empty 17 7 0 10 -262144
-1 -1;
#X msg 1267 642 \; led 7;
#X msg 1191 671 \; led 0;
#X obj 1191 648 delay 100;
#X msg 1046 661 \; led 0;
#X obj 1046 638 delay 100;
#X msg 1122 632 \; led 6;
#X obj 1148 546 sel 0 1 2 3;
#X obj 1111 603 bng 15 250 50 0 empty empty empty 17 7 0 10 -262144
-1 -1;
#X text 188 12 loop samples \, 1 per key \, at a specified multiple
of beat. leads to interesting polyrythms.;
#X text 734 86 aux kills the jam;
#X text 1293 513 flash led on quarter and half notes;
#X msg 38 377 \; screenLine1 1: Tempo \; screenLine2 2: Div \; screenLine3
3: Sample Speed \; screenLine4 4: Decay \; screenLine5 Aux: Cancel
\;;
#X obj 1277 554 s halfnotes;
#X obj 65 621 s are-you-playing;
#X obj 229 591 r i-am-playing;
#X text 9 483 check every quater note how many sounding;
#X msg 137 748 \; screenLine5 Aux: Cancel \$1 voices \;;
#X msg 182 592 0;
#X obj 228 666 + 1;
#X obj 166 705 i, f 4;
#X obj 228 638 i 0;
#X obj 42 583 t b b b;
#X floatatom 179 727 5 0 0 0 - - -, f 5;
#X obj 45 542 metro 300;
#X obj 48 520 loadbang;
#X obj 772 496 * 16;
#X obj 1198 508 counter-up 4;
#X obj 772 474 r knob1;
#X msg 655 657 \; screenLine1 1: Div \$1 Sixteenths \;;
#X obj 610 44 r midi-stop;
#X obj 628 97 bng 15 250 50 0 empty empty empty 17 7 0 10 -262144 -1
-1;
#N canvas 16 50 719 517 knob2 0;
#X floatatom 134 318 5 0 0 0 - - -, f 5;
#X obj 134 266 * 250;
#X obj 134 292 + 10;
#X obj 188 56 r knob2;
#X obj 389 304 s swing;
#X obj 340 293 * 100;
#X msg 336 346 \; screenLine2 2: Swing \$1 % \;;
#X obj 339 317 i;
#X obj 115 369 s tempo;
#X obj 271 52 r knobpage;
#X obj 374 196 ctlin 1 1;
#X obj 376 226 / 127;
#X obj 234 169 2pages-takeover;
#X connect 0 0 8 0;
#X connect 1 0 2 0;
#X connect 2 0 0 0;
#X connect 3 0 12 0;
#X connect 5 0 7 0;
#X connect 7 0 6 0;
#X connect 9 0 12 1;
#X connect 10 0 11 0;
#X connect 11 0 5 0;
#X connect 11 0 4 0;
#X connect 12 0 1 0;
#X connect 12 1 4 0;
#X connect 12 1 5 0;
#X restore 947 133 pd knob2;
#X obj 855 285 r tempo;
#N canvas 15 50 1149 821 knob3 0;
#X obj 231 359 s knob3-detent;
#X obj 207 395 bang;
#X obj 230 473 - 0.5;
#X obj 230 523 i;
#X obj 161 482 - 0.5;
#X obj 161 504 * 200;
#X obj 161 532 i;
#X obj 161 560 abs;
#X obj 198 323 detent 0.075;
#X msg 161 585 \; screenLine3 3: Sample -\$1 % \;;
#X msg 230 551 \; screenLine3 3: Sample +\$1 % \;;
#X msg 207 422 \; screenLine3 3: Sample ORIG \;;
#X obj 230 495 * 202;
#X obj 364 115 r knobpage;
#X obj 281 119 r knob3;
#X obj 108 304 s sampspeed;
#X obj 581 319 t f f;
#X obj 581 341 *;
#X obj 591 372 * 2000;
#X obj 609 411 s dtime;
#X msg 549 467 \; screenLine3 3: Delay Time \$1 ms \;;
#X obj 550 423 i;
#X obj 327 232 2pages;
#X connect 1 0 11 0;
#X connect 2 0 12 0;
#X connect 3 0 10 0;
#X connect 4 0 5 0;
#X connect 5 0 6 0;
#X connect 6 0 7 0;
#X connect 7 0 9 0;
#X connect 8 0 0 0;
#X connect 8 0 4 0;
#X connect 8 1 0 0;
#X connect 8 1 1 0;
#X connect 8 2 0 0;
#X connect 8 2 2 0;
#X connect 12 0 3 0;
#X connect 13 0 22 1;
#X connect 14 0 22 0;
#X connect 16 0 17 0;
#X connect 16 1 17 1;
#X connect 17 0 18 0;
#X connect 18 0 19 0;
#X connect 18 0 21 0;
#X connect 21 0 20 0;
#X connect 22 0 8 0;
#X connect 22 0 15 0;
#X connect 22 1 16 0;
#X restore 1026 132 pd knob3;
#N canvas 12 50 967 700 knob4 0;
#X obj 231 385 i;
#X obj 231 356 * 100;
#X obj 231 329 moses 0.98;
#X msg 320 376 bang;
#X obj 231 463 s screenLine4;
#X obj 320 419 s screenLine4;
#X msg 320 397 4: Decay Off;
#X msg 231 441 4: Decay \$1 %;
#X obj 364 115 r knobpage;
#X obj 281 119 r knob4;
#X obj 146 305 s sampdecay;
#X obj 534 297 * 0.99;
#X obj 534 319 s fb;
#X obj 500 387 * 100;
#X obj 500 409 i;
#X obj 522 527 s screenLine4;
#X msg 522 505 4: Feedback \$1 %;
#X obj 327 232 2pages;
#X connect 0 0 7 0;
#X connect 1 0 0 0;
#X connect 2 0 1 0;
#X connect 2 1 3 0;
#X connect 3 0 6 0;
#X connect 6 0 5 0;
#X connect 7 0 4 0;
#X connect 8 0 17 1;
#X connect 9 0 17 0;
#X connect 11 0 12 0;
#X connect 13 0 14 0;
#X connect 14 0 16 0;
#X connect 16 0 15 0;
#X connect 17 0 2 0;
#X connect 17 0 10 0;
#X connect 17 1 11 0;
#X connect 17 1 13 0;
#X restore 1114 134 pd knob4;
#X obj 466 409 delay5sec 5;
#X obj 508 371 r dtime;
#X obj 605 367 r fb;
#X obj 418 272 sampler-voice 24.wav 23;
#X obj 1334 159 s knobpage;
#X obj 1325 127 tgl 15 0 empty empty empty 17 7 0 10 -262144 -1 -1
1 1;
#X obj 1321 52 r fs;
#X obj 1321 74 sel 1;
#X obj 1321 96 bang;
#X obj 669 453 vsl 15 128 0 1 0 0 empty empty empty 0 -9 0 10 -262144
-1 -1 0 1;
#X floatatom 659 599 5 0 0 0 - - -, f 5;
#X obj 452 441 *~ 0.37;
#X obj 1004 320 s midiOutGate;
#X obj 1004 240 loadbang;
#X obj 1004 266 delay 20;
#X msg 1004 292 0;
#X obj 39 104 sampler-voice 1.wav 0;
#X obj 212 270 sampler-voice 16.wav 15;
#X obj 39 222 sampler-voice 6.wav 5;
#X obj 39 175 sampler-voice 4.wav 3;
#X obj 39 128 sampler-voice 2.wav 1;
#X obj 39 151 sampler-voice 3.wav 2;
#X obj 39 199 sampler-voice 5.wav 4;
#X obj 39 245 sampler-voice 7.wav 6;
#X obj 38 268 sampler-voice 8.wav 7;
#X obj 216 106 sampler-voice 9.wav 8;
#X obj 215 128 sampler-voice 10.wav 9;
#X obj 215 151 sampler-voice 11.wav 10;
#X obj 214 174 sampler-voice 12.wav 11;
#X obj 214 197 sampler-voice 13.wav 12;
#X obj 213 221 sampler-voice 14.wav 13;
#X obj 212 246 sampler-voice 15.wav 14;
#X obj 420 104 sampler-voice 17.wav 16;
#X obj 419 128 sampler-voice 18.wav 17;
#X obj 419 152 sampler-voice 19.wav 18;
#X obj 419 176 sampler-voice 20.wav 19;
#X obj 418 200 sampler-voice 21.wav 20;
#X obj 418 224 sampler-voice 22.wav 21;
#X obj 418 248 sampler-voice 23.wav 22;
#X connect 3 0 57 0;
#X connect 3 0 4 0;
#X connect 4 0 1 0;
#X connect 4 0 2 0;
#X connect 5 0 33 0;
#X connect 7 0 8 0;
#X connect 8 0 9 0;
#X connect 9 0 10 0;
#X connect 9 0 11 0;
#X connect 11 0 50 0;
#X connect 12 0 13 0;
#X connect 13 0 14 0;
#X connect 13 0 16 0;
#X connect 15 0 6 0;
#X connect 16 0 15 0;
#X connect 17 0 18 0;
#X connect 18 0 15 0;
#X connect 19 0 48 0;
#X connect 20 0 48 1;
#X connect 21 0 22 0;
#X connect 21 0 24 0;
#X connect 24 0 23 0;
#X connect 26 0 25 0;
#X connect 28 0 29 0;
#X connect 28 1 21 0;
#X connect 28 2 21 0;
#X connect 28 3 21 0;
#X connect 29 0 26 0;
#X connect 29 0 27 0;
#X connect 36 0 42 0;
#X connect 39 0 42 1;
#X connect 39 0 41 1;
#X connect 40 0 42 1;
#X connect 40 0 41 1;
#X connect 41 0 38 0;
#X connect 41 0 44 0;
#X connect 42 0 40 0;
#X connect 43 0 41 0;
#X connect 43 1 35 0;
#X connect 43 2 39 0;
#X connect 45 0 43 0;
#X connect 46 0 45 0;
#X connect 47 0 7 0;
#X connect 48 0 28 0;
#X connect 48 1 34 0;
#X connect 49 0 47 0;
#X connect 51 0 52 0;
#X connect 52 0 16 0;
#X connect 54 0 6 1;
#X connect 57 0 68 0;
#X connect 58 0 57 1;
#X connect 59 0 57 2;
#X connect 62 0 61 0;
#X connect 63 0 64 0;
#X connect 64 0 65 0;
#X connect 65 0 62 0;
#X connect 66 0 67 0;
#X connect 66 0 68 1;
#X connect 68 0 4 0;
#X connect 70 0 71 0;
#X connect 71 0 72 0;
#X connect 72 0 69 0;
