#N canvas 425 50 995 790 10;
#X obj 81 69 s \$0-trig;
#X obj 196 145 sig~;
#X obj 196 311 +~;
#X obj 214 288 *~;
#X obj 196 333 s~ \$0-freq;
#X obj 494 121 r \$0-trig;
#X obj 493 205 *~ 3;
#X obj 523 230 *~ 6;
#X obj 523 302 +~;
#X obj 541 257 r~ \$0-freq;
#X obj 541 279 /~ 4;
#X obj 523 324 *~ -1;
#X obj 523 346 phasor~ 20;
#X obj 590 298 r \$0-trig;
#X msg 590 320 0;
#X obj 523 398 *~;
#N canvas 947 295 634 519 clamped-modes 0;
#X obj 28 44 inlet~ phasor;
#X obj 261 172 *~;
#X obj 221 172 *~;
#X obj 181 172 *~;
#X obj 141 172 *~;
#X obj 181 53 loadbang;
#X msg 181 75 1 6.267 17.55 34.39;
#X obj 181 97 unpack 0 0 0 0;
#X obj 141 194 cos~;
#X obj 181 194 cos~;
#X obj 221 194 cos~;
#X obj 261 194 cos~;
#X obj 141 216 *~ 0.5;
#X obj 181 236 *~ 0.25;
#X obj 221 216 *~ 0.125;
#X obj 261 236 *~ 0.0625;
#X obj 181 405 *~;
#X obj 251 289 inlet env;
#X obj 251 341 vline~;
#X obj 251 363 *~;
#X obj 181 427 outlet~;
#X msg 251 311 1 5 \, 0 \$1 5;
#X connect 0 0 1 0;
#X connect 0 0 2 0;
#X connect 0 0 3 0;
#X connect 0 0 4 0;
#X connect 1 0 11 0;
#X connect 2 0 10 0;
#X connect 3 0 9 0;
#X connect 4 0 8 0;
#X connect 5 0 6 0;
#X connect 6 0 7 0;
#X connect 7 0 4 1;
#X connect 7 1 3 1;
#X connect 7 2 2 1;
#X connect 7 3 1 1;
#X connect 8 0 12 0;
#X connect 9 0 13 0;
#X connect 10 0 14 0;
#X connect 11 0 15 0;
#X connect 12 0 16 0;
#X connect 13 0 16 0;
#X connect 14 0 16 0;
#X connect 15 0 16 0;
#X connect 16 0 20 0;
#X connect 17 0 21 0;
#X connect 18 0 19 0;
#X connect 18 0 19 1;
#X connect 19 0 16 1;
#X connect 21 0 18 0;
#X restore 594 450 pd clamped-modes;
#X obj 703 395 r \$0-trig;
#X obj 523 500 *~;
#X obj 594 502 *~ 0.2;
#X obj 492 598 *~;
#X obj 523 539 r~ \$0-freq;
#N canvas 8 50 450 300 env16 0;
#X obj 55 26 inlet;
#X obj 55 268 outlet~;
#X obj 55 104 vline~;
#X obj 55 126 *~;
#X obj 55 148 *~;
#X obj 55 170 *~;
#X obj 55 192 *~;
#X msg 55 82 1 5 \, 0 \$1 5;
#X connect 0 0 7 0;
#X connect 2 0 3 0;
#X connect 2 0 3 1;
#X connect 3 0 4 0;
#X connect 3 0 4 1;
#X connect 4 0 5 0;
#X connect 4 0 5 1;
#X connect 5 0 6 0;
#X connect 5 0 6 1;
#X connect 6 0 1 0;
#X connect 7 0 2 0;
#X restore 494 170 pd env16;
#X obj 510 571 *~ 0.1;
#X obj 492 620 +~, f 5;
#X obj 649 644 noise~;
#X obj 649 666 *~, f 9;
#X obj 649 688 lop~ 4000;
#N canvas 505 159 674 403 free-modes 0;
#X obj 121 108 inlet~;
#X obj 181 53 loadbang;
#X msg 181 75 1 2.7565 5.40392 8.93295 13.3443 18.6379;
#X obj 181 97 unpack 0 0 0 0 0 0;
#X obj 158 193 *~;
#X obj 198 193 *~;
#X obj 248 193 *~;
#X obj 298 193 *~;
#X obj 348 193 *~;
#X obj 408 193 *~;
#X obj 52 214 inlet~;
#X obj 51 289 vcf~ 1 1;
#X obj 131 289 vcf~ 1 1;
#X obj 206 290 vcf~ 1 1;
#X obj 277 292 vcf~ 1 1;
#X obj 357 292 vcf~ 1 1;
#X obj 457 292 vcf~ 1 1;
#X obj 510 216 inlet rez;
#X obj 278 361 outlet~;
#X connect 0 0 4 0;
#X connect 0 0 5 0;
#X connect 0 0 6 0;
#X connect 0 0 7 0;
#X connect 0 0 8 0;
#X connect 0 0 9 0;
#X connect 1 0 2 0;
#X connect 2 0 3 0;
#X connect 3 0 4 1;
#X connect 3 1 5 1;
#X connect 3 2 6 1;
#X connect 3 3 7 1;
#X connect 3 4 8 1;
#X connect 3 5 9 1;
#X connect 4 0 11 1;
#X connect 5 0 12 1;
#X connect 6 0 13 1;
#X connect 7 0 14 1;
#X connect 8 0 15 1;
#X connect 9 0 16 1;
#X connect 10 0 11 0;
#X connect 10 0 12 0;
#X connect 10 0 13 0;
#X connect 10 0 14 0;
#X connect 10 0 15 0;
#X connect 10 0 16 0;
#X connect 11 0 18 0;
#X connect 12 0 18 0;
#X connect 13 0 18 0;
#X connect 14 0 18 0;
#X connect 15 0 18 0;
#X connect 16 0 18 0;
#X connect 17 0 11 2;
#X connect 17 0 12 2;
#X connect 17 0 13 2;
#X connect 17 0 14 2;
#X connect 17 0 15 2;
#X connect 17 0 16 2;
#X restore 649 710 pd free-modes;
#X obj 737 661 loadbang;
#X msg 737 683 80;
#X obj 649 733 hip~ 90;
#X obj 649 755 *~ 4;
#X obj 631 807 outlet~;
#X obj 321 13 inlet vibrato;
#X obj 180 16 inlet freq;
#X obj 81 17 inlet trig;
#X obj 214 266 osc~ 5;
#X obj 207 167 r \$0-trig;
#X msg 253 233 0;
#X obj 494 143 f;
#X obj 574 16 inlet length;
#X obj 703 417 f;
#X msg 207 492 0;
#X msg 237 493 1;
#X obj 207 189 t b b b;
#X obj 632 778 *~;
#X obj 311 627 vline~;
#X obj 207 427 del;
#X obj 252 402 + 5;
#X msg 303 256 stop;
#X obj 343 441 del;
#X msg 311 527 1 1;
#X msg 343 527 0 1;
#X obj 81 40 sel \$2;
#X obj 196 57 route \$3;
#X obj 321 60 route \$3;
#X obj 24 232 s sfx-\$1-knob2-label;
#X obj 677 256 s sfx-\$1-knob4-label;
#X obj 321 160 s sfx-\$1-knob3-label;
#X obj 196 110 + 20;
#X obj 321 82 * 100;
#X obj 321 111 int;
#X obj 24 184 int;
#X obj 575 40 route \$3;
#X obj 594 109 + 30;
#X obj 575 62 * 4000;
#X obj 677 204 i;
#X msg 677 226 Length: \$1 ms;
#X msg 321 133 Vibrato: \$1 hz;
#X msg 24 207 Frequency: \$1 hz;
#X obj 196 88 * 100;
#X connect 1 0 2 0;
#X connect 2 0 4 0;
#X connect 3 0 2 1;
#X connect 5 0 40 0;
#X connect 6 0 7 0;
#X connect 6 0 20 0;
#X connect 7 0 8 0;
#X connect 8 0 11 0;
#X connect 9 0 10 0;
#X connect 10 0 8 1;
#X connect 11 0 12 0;
#X connect 12 0 15 0;
#X connect 12 0 15 1;
#X connect 12 0 16 0;
#X connect 13 0 14 0;
#X connect 14 0 12 1;
#X connect 15 0 18 0;
#X connect 16 0 18 1;
#X connect 16 0 19 0;
#X connect 17 0 42 0;
#X connect 18 0 26 1;
#X connect 19 0 31 0;
#X connect 20 0 24 0;
#X connect 21 0 23 0;
#X connect 21 0 24 1;
#X connect 22 0 6 0;
#X connect 22 0 37 0;
#X connect 23 0 20 1;
#X connect 24 0 28 1;
#X connect 25 0 26 0;
#X connect 26 0 27 0;
#X connect 27 0 28 0;
#X connect 28 0 31 0;
#X connect 29 0 30 0;
#X connect 30 0 28 2;
#X connect 31 0 32 0;
#X connect 32 0 46 1;
#X connect 34 0 56 0;
#X connect 35 0 55 0;
#X connect 36 0 54 0;
#X connect 37 0 3 0;
#X connect 38 0 45 0;
#X connect 39 0 37 1;
#X connect 40 0 22 0;
#X connect 41 0 64 0;
#X connect 42 0 16 1;
#X connect 45 0 52 0;
#X connect 45 0 48 0;
#X connect 45 0 51 0;
#X connect 45 1 44 0;
#X connect 45 2 39 0;
#X connect 45 2 50 0;
#X connect 46 0 33 0;
#X connect 47 0 46 0;
#X connect 48 0 43 0;
#X connect 49 0 48 1;
#X connect 50 0 48 0;
#X connect 50 0 51 0;
#X connect 51 0 53 0;
#X connect 52 0 47 0;
#X connect 53 0 47 0;
#X connect 54 0 0 0;
#X connect 55 0 71 0;
#X connect 56 0 61 0;
#X connect 60 0 1 0;
#X connect 60 0 63 0;
#X connect 61 0 62 0;
#X connect 61 0 3 1;
#X connect 62 0 69 0;
#X connect 63 0 70 0;
#X connect 64 0 66 0;
#X connect 65 0 42 1;
#X connect 65 0 51 1;
#X connect 65 0 40 1;
#X connect 65 0 49 0;
#X connect 65 0 67 0;
#X connect 66 0 65 0;
#X connect 67 0 68 0;
#X connect 68 0 58 0;
#X connect 69 0 59 0;
#X connect 70 0 57 0;
#X connect 71 0 60 0;
