#N canvas 393 288 1380 625 10;
#X obj 383 87 clip~ 0 1;
#X obj 263 302 *~ 0.2, f 12;
#X obj 264 537 outlet~;
#X obj 383 65 *~ 1e+06;
#X obj 262 269 *~;
#X obj 383 43 osc~ 2;
#X obj 382 121 lop~ 70;
#X obj 261 234 cos~;
#X obj 91 371 delwrite~ \$0-d1 500;
#X obj 354 236 *~ 1;
#X obj 381 162 *~ 0.25;
#X obj 261 190 osc~ 440;
#X obj 354 214 delread~ \$0-d1 99;
#X obj 264 500 *~;
#X obj 637 408 vline~;
#X obj 637 430 *~;
#X obj 474 74 sel \$2;
#X obj 474 52 inlet trigger;
#X obj 577 57 route \$3;
#X obj 685 78 route \$3;
#X obj 577 35 inlet rampUp;
#X obj 685 56 inlet rampDown;
#X obj 577 121 int;
#X obj 577 168 s sfx-\$1-knob2-label;
#X obj 881 187 s sfx-\$1-knob4-label;
#X msg 577 143 Ramp Up: \$1 ms;
#X msg 728 142 Ramp Down: \$1 ms;
#X obj 684 122 int;
#X obj 728 167 s sfx-\$1-knob3-label;
#X obj 873 27 inlet Tone;
#X obj 260 162 lop~ 5;
#X obj 881 97 + 40;
#X obj 881 128 i;
#X msg 881 150 Pitch: \$1 hz;
#X obj 261 212 +~ 0.25;
#X msg 481 408 0;
#X msg 516 408 1, f 4;
#X obj 473 273 t b b b;
#X msg 554 294 stop;
#X obj 473 307 del;
#X obj 594 234 +;
#X obj 619 196 t b a;
#X obj 594 256 + 10;
#X obj 873 49 route \$3;
#X obj 881 75 * 1000;
#X obj 577 79 * 800;
#X obj 684 100 * 8000;
#X msg 390 192 0;
#X obj 577 101 max 1;
#X obj 711 310 + 5;
#X obj 637 349 pack 0 0 0 0;
#X msg 637 376 0 5 \, 1 \$2 5 \, 0 \$3 \$4;
#X connect 0 0 6 0;
#X connect 1 0 8 0;
#X connect 1 0 13 0;
#X connect 3 0 0 0;
#X connect 4 0 1 0;
#X connect 5 0 3 0;
#X connect 6 0 10 0;
#X connect 7 0 4 0;
#X connect 9 0 1 0;
#X connect 10 0 4 1;
#X connect 11 0 34 0;
#X connect 12 0 9 0;
#X connect 13 0 2 0;
#X connect 14 0 15 0;
#X connect 14 0 15 1;
#X connect 15 0 13 1;
#X connect 16 0 37 0;
#X connect 17 0 16 0;
#X connect 18 0 45 0;
#X connect 19 0 46 0;
#X connect 20 0 18 0;
#X connect 21 0 19 0;
#X connect 22 0 25 0;
#X connect 22 0 40 0;
#X connect 22 0 50 1;
#X connect 22 0 49 0;
#X connect 25 0 23 0;
#X connect 26 0 28 0;
#X connect 27 0 26 0;
#X connect 27 0 41 0;
#X connect 27 0 50 2;
#X connect 29 0 43 0;
#X connect 30 0 11 0;
#X connect 31 0 32 0;
#X connect 31 0 30 0;
#X connect 32 0 33 0;
#X connect 33 0 24 0;
#X connect 34 0 7 0;
#X connect 37 0 39 0;
#X connect 37 1 50 0;
#X connect 37 2 38 0;
#X connect 37 2 36 0;
#X connect 37 2 47 0;
#X connect 38 0 39 0;
#X connect 39 0 35 0;
#X connect 40 0 42 0;
#X connect 41 0 40 0;
#X connect 41 1 40 1;
#X connect 42 0 39 1;
#X connect 43 0 44 0;
#X connect 44 0 31 0;
#X connect 45 0 48 0;
#X connect 46 0 27 0;
#X connect 47 0 11 1;
#X connect 48 0 22 0;
#X connect 49 0 50 3;
#X connect 50 0 51 0;
#X connect 51 0 14 0;
