#N canvas 340 118 213 197 10;
#N canvas 0 0 349 611 propeller-fan 0;
#N canvas 0 0 289 416 asymmetrical-curve 0;
#X obj -2 248 *~;
#X obj 131 106 *~ -1;
#X obj 131 131 +~ 1;
#X obj 115 154 *~;
#X obj 28 282 min~;
#X obj 30 371 cos~;
#X obj 30 393 outlet~;
#X obj 130 81 vline~;
#X msg 130 57 1 \$1 0 \, 0 0 \$1;
#X obj -3 101 sig~ 1;
#X obj -2 127 -~;
#X obj 45 64 sig~;
#X obj 29 307 *~;
#X obj 45 101 -~ 0.5;
#X obj 45 145 *~;
#X obj 45 123 *~ 3;
#X obj 45 22 * 0.6;
#X obj 45 43 + 0.2;
#X obj 45 189 +~ 3;
#X obj 45 167 *~ 3;
#X obj 30 350 -~ 0.25;
#X obj 29 328 *~ 0.25;
#X obj 45 1 inlet skew;
#X obj 130 34 inlet generate pulse;
#X connect 0 0 4 0;
#X connect 1 0 2 0;
#X connect 2 0 3 1;
#X connect 3 0 4 1;
#X connect 4 0 12 0;
#X connect 5 0 6 0;
#X connect 7 0 1 0;
#X connect 7 0 0 1;
#X connect 8 0 7 0;
#X connect 9 0 10 0;
#X connect 10 0 0 0;
#X connect 11 0 10 1;
#X connect 11 0 13 0;
#X connect 11 0 3 0;
#X connect 12 0 21 0;
#X connect 13 0 15 0;
#X connect 14 0 19 0;
#X connect 15 0 14 0;
#X connect 15 0 14 1;
#X connect 16 0 17 0;
#X connect 17 0 11 0;
#X connect 18 0 12 1;
#X connect 19 0 18 0;
#X connect 20 0 5 0;
#X connect 21 0 20 0;
#X connect 22 0 16 0;
#X connect 23 0 8 0;
#X restore 2 166 pd asymmetrical-curve;
#X obj 71 96 metro 100;
#X obj 71 77 tgl 15 0 empty empty empty 0 -6 0 8 -262144 -1 -1 1 1
;
#X obj 141 65 t f f;
#X obj 152 462 *~;
#X obj 133 238 *~ 220;
#X obj 133 297 +~ 120;
#X obj 116 361 *~;
#X obj 144 142 f;
#X obj 141 23 * 200;
#X obj 171 94 / 3;
#X obj 252 465 *~;
#X obj 252 506 *~;
#X obj 268 445 * 1.1;
#X obj 231 379 * 0.9;
#X obj 268 486 * 1.2;
#X obj 71 54 loadbang;
#N canvas 697 221 354 259 flatnoise 0;
#X obj 1 -25 noise~;
#X obj 1 183 *~;
#X obj 1 206 outlet~;
#X obj 1 156 *~;
#X obj 94 132 expr 0.1+(sqrt($f1)*0.6);
#X text 127 116 fix amp for Q;
#X text 124 79 fix amp for F;
#X obj 60 97 expr~ log(sqrt(5-($v1*$v1)*(0.00000011)));
#X obj 60 -26 inlet~ frequency;
#X obj 94 13 inlet resonance;
#X obj 1 61 vcf~ 100 1;
#X connect 0 0 10 0;
#X connect 1 0 2 0;
#X connect 3 0 1 0;
#X connect 4 0 1 1;
#X connect 7 0 3 1;
#X connect 8 0 7 0;
#X connect 8 0 10 1;
#X connect 9 0 4 0;
#X connect 9 0 10 2;
#X connect 10 0 3 0;
#X restore 133 338 pd flatnoise;
#X text 203 93 duty cycle;
#X obj 141 44 + 10;
#X obj 141 2 r \$0-period;
#X obj 170 258 r \$0-basef;
#X obj 170 277 * 400;
#X obj 170 215 * 600;
#X obj 170 194 r \$0-devf;
#X obj 212 296 r \$0-reson;
#X obj 231 358 * 300;
#X obj 215 401 *~;
#X obj 231 338 r \$0-shift;
#X obj 2 143 r \$0-symmetry;
#X obj 152 485 mdel 10 400 0.7;
#X obj 212 317 * 30;
#X obj 116 560 outlet~ audio;
#X obj 2 580 outlet~ blade signature;
#X obj 116 422 mdel 10 400 0.7;
#X obj 152 526 mdel 20 400 0.5;
#X connect 0 0 4 1;
#X connect 0 0 5 0;
#X connect 0 0 11 0;
#X connect 0 0 12 0;
#X connect 0 0 27 0;
#X connect 0 0 33 0;
#X connect 0 0 7 0;
#X connect 1 0 8 0;
#X connect 2 0 1 0;
#X connect 3 0 1 1;
#X connect 3 1 10 0;
#X connect 4 0 30 0;
#X connect 5 0 6 0;
#X connect 6 0 17 0;
#X connect 7 0 34 0;
#X connect 8 0 0 1;
#X connect 9 0 19 0;
#X connect 10 0 8 1;
#X connect 11 0 30 1;
#X connect 12 0 35 1;
#X connect 13 0 11 1;
#X connect 14 0 27 1;
#X connect 15 0 12 1;
#X connect 16 0 2 0;
#X connect 17 0 7 1;
#X connect 19 0 3 0;
#X connect 20 0 9 0;
#X connect 21 0 22 0;
#X connect 22 0 6 1;
#X connect 23 0 5 1;
#X connect 24 0 23 0;
#X connect 25 0 31 0;
#X connect 26 0 14 0;
#X connect 26 0 13 0;
#X connect 26 0 15 0;
#X connect 27 0 34 1;
#X connect 28 0 26 0;
#X connect 29 0 0 0;
#X connect 30 0 32 0;
#X connect 30 0 35 0;
#X connect 31 0 17 1;
#X connect 34 0 4 0;
#X connect 34 0 32 0;
#X connect 35 0 32 0;
#X restore 100 206 pd propeller-fan;
#X obj 111 117 hsl 64 12 0 1 0 1 \$0-period empty period 12 6 1 8 -262144
-1 -1 1900 1;
#X obj 111 129 hsl 64 12 0 1 0 1 \$0-basef empty basef 12 6 1 8 -262144
-1 -1 100 1;
#X obj 111 141 hsl 64 12 0 1 0 1 \$0-devf empty deviationf 7 6 1 8
-262144 -1 -1 3100 1;
#X obj 111 153 hsl 64 12 0 1 0 1 \$0-reson empty reson 7 6 1 8 -262144
-1 -1 1200 1;
#X obj 111 165 hsl 64 12 0 1 0 1 \$0-shift empty shift 7 6 1 8 -262144
-1 -1 1000 1;
#X obj 111 177 hsl 64 12 0 1 0 1 \$0-symmetry empty symmetry 7 6 1
8 -262144 -1 -1 2500 1;
#X obj 100 259 outlet~ blade signature;
#X obj 207 235 outlet~ audio;
#X connect 0 0 7 0;
#X connect 0 1 8 0;
#X coords 0 -1 1 1 85 100 1 100 100;
