#N canvas 531 362 220 180 10;
#X obj 162 71 bellenv;
#X obj 86 133 *~;
#X obj 86 157 outlet~;
#X obj -3 71 bellosc;
#X obj -3 22 unpack f f f f f f f;
#X obj 52 71 bellosc;
#X obj 106 71 bellosc;
#X obj 52 101 *~ 0.333;
#X obj -3 -1 inlet f a f a f a d;
#X connect 0 0 1 1;
#X connect 1 0 2 0;
#X connect 3 0 7 0;
#X connect 4 0 3 0;
#X connect 4 1 3 1;
#X connect 4 2 5 0;
#X connect 4 3 5 1;
#X connect 4 4 6 0;
#X connect 4 5 6 1;
#X connect 4 6 0 0;
#X connect 5 0 7 0;
#X connect 6 0 7 0;
#X connect 7 0 1 0;
#X connect 8 0 4 0;
