#N canvas 216 199 82 219 10;
#X obj 15 20 noise~;
#X obj 15 140 clip~ 0 1;
#X obj 15 120 *~ 1e+09;
#X obj 15 160 lop~ 30;
#X obj 0 201 outlet~;
#X obj 0 0 inlet~;
#X obj 0 181 *~;
#X obj 15 40 lop~ \$1;
#X obj 15 60 lop~ \$1;
#X obj 15 80 max~ \$2;
#X obj 15 100 -~ \$2;
#X connect 0 0 7 0;
#X connect 1 0 3 0;
#X connect 2 0 1 0;
#X connect 3 0 6 1;
#X connect 5 0 6 0;
#X connect 6 0 4 0;
#X connect 7 0 8 0;
#X connect 8 0 9 0;
#X connect 9 0 10 0;
#X connect 10 0 2 0;
