#N canvas 124 50 756 632 10;
#X obj 90 303 +~;
#X obj 91 425 +~;
#X obj 116 374 lop~ 400;
#X obj 117 399 *~ 0.3;
#X obj 90 448 *~ 0.3;
#X msg 112 202 4345 2480 4795;
#X msg 90 182 3345 2980 4790;
#X obj 90 162 del 200;
#X obj 90 243 slideclunk;
#X obj 90 264 *~ 0.2;
#X obj 90 140 t b b b;
#X obj 175 223 del 300;
#X obj 90 473 outlet~;
#X obj 90 75 inlet trigger;
#X obj 117 332 delwrite~ \$0-a 40;
#X obj 117 352 delread~ \$0-a 25;
#X obj 128 424 s~ \$0-fba;
#X obj 126 303 r~ \$0-fba;
#X obj 175 243 shortping 300 9453;
#X obj 90 97 sel \$2;
#X obj 213 112 + 100;
#X obj 213 88 * 10000;
#X obj 284 111 + 100;
#X obj 284 87 * 10000;
#X obj 213 11 inlet;
#X obj 284 9 inlet;
#X obj 351 280 switch~;
#X msg 351 254 0;
#X msg 383 254 1;
#X obj 164 132 t b b b;
#X msg 319 153 stop;
#X obj 164 154 del 1000;
#X obj 468 15 inlet;
#X obj 468 87 b;
#X msg 468 109 X;
#X obj 325 423 s sfx-\$1-knob2-label;
#X obj 481 414 s sfx-\$1-knob3-label;
#X obj 468 136 s sfx-\$1-knob4-label, f 29;
#X obj 465 265 int;
#X msg 465 287 Osc2: \$1 hz;
#X obj 325 343 int;
#X msg 325 365 Osc1: \$1 hz;
#X obj 213 33 route \$3;
#X obj 284 31 route \$3;
#X obj 468 37 route \$3;
#X connect 0 0 1 0;
#X connect 0 0 14 0;
#X connect 1 0 4 0;
#X connect 2 0 3 0;
#X connect 3 0 1 1;
#X connect 3 0 16 0;
#X connect 4 0 12 0;
#X connect 5 0 8 0;
#X connect 6 0 8 0;
#X connect 7 0 6 0;
#X connect 8 0 9 0;
#X connect 9 0 0 0;
#X connect 10 0 7 0;
#X connect 10 1 5 0;
#X connect 10 2 11 0;
#X connect 11 0 18 0;
#X connect 13 0 19 0;
#X connect 15 0 2 0;
#X connect 17 0 14 0;
#X connect 18 0 0 1;
#X connect 19 0 10 0;
#X connect 19 0 29 0;
#X connect 20 0 18 1;
#X connect 20 0 40 0;
#X connect 21 0 20 0;
#X connect 22 0 18 2;
#X connect 22 0 38 0;
#X connect 23 0 22 0;
#X connect 24 0 42 0;
#X connect 25 0 43 0;
#X connect 27 0 26 0;
#X connect 28 0 26 0;
#X connect 29 0 31 0;
#X connect 29 1 28 0;
#X connect 29 2 30 0;
#X connect 30 0 31 0;
#X connect 31 0 27 0;
#X connect 32 0 44 0;
#X connect 33 0 34 0;
#X connect 34 0 37 0;
#X connect 38 0 39 0;
#X connect 39 0 36 0;
#X connect 40 0 41 0;
#X connect 41 0 35 0;
#X connect 42 0 21 0;
#X connect 43 0 23 0;
#X connect 44 0 33 0;
