#N canvas 37 106 1353 726 10;
#X obj -2 123 *~;
#X obj 51 48 vline~;
#X obj 131 114 osc~;
#X obj 131 48 vline~;
#X obj 115 139 *~;
#X obj 131 92 +~ 20;
#X obj 131 70 *~ 7000;
#X msg 131 25 1 \, 0 10 0;
#X obj 51 73 *~;
#X obj 51 97 *~;
#X obj -2 144 *~ 0.5;
#X obj -2 75 noise~;
#X obj 97 -6 inlet;
#X obj 49 206 outlet~;
#X obj 49 181 spark6formant \$1;
#X msg 51 25 1 \, 0 10 0;
#X connect 0 0 10 0;
#X connect 1 0 8 0;
#X connect 1 0 8 1;
#X connect 2 0 4 1;
#X connect 3 0 4 0;
#X connect 3 0 6 0;
#X connect 4 0 14 0;
#X connect 5 0 2 0;
#X connect 6 0 5 0;
#X connect 7 0 3 0;
#X connect 8 0 9 0;
#X connect 8 0 9 1;
#X connect 9 0 0 1;
#X connect 10 0 14 0;
#X connect 11 0 0 0;
#X connect 12 0 7 0;
#X connect 12 0 15 0;
#X connect 14 0 13 0;
#X connect 15 0 1 0;
