#N canvas 182 183 99 159 10;
#X obj 0 141 dac~;
#X obj 0 110 *~;
#X obj 0 22 vline~;
#X obj 0 44 *~;
#X msg 0 0 1 1 0 \, 0 20 2;
#X obj 16 66 noise~;
#X obj 16 88 bp~ 5000 12;
#X connect 1 0 0 0;
#X connect 1 0 0 1;
#X connect 2 0 3 0;
#X connect 2 0 3 1;
#X connect 3 0 1 0;
#X connect 4 0 2 0;
#X connect 5 0 6 0;
#X connect 6 0 1 1;
