#N canvas 7 50 638 470 10;
#X msg 334 205 0;
#X obj 366 175 t b b;
#X msg 398 205 1;
#X obj 334 147 sel 1;
#X obj 239 282 spigot 1, f 14;
#X obj 239 80 inlet;
#X obj 239 221 f;
#X obj 239 364 outlet;
#X obj 506 77 inlet;
#X obj 506 99 t b;
#X obj 334 124 r cgSc-\$1-mute-print;
#X obj 258 167 del 1;
#X connect 0 0 4 1;
#X connect 1 0 11 0;
#X connect 1 1 2 0;
#X connect 2 0 4 1;
#X connect 3 0 0 0;
#X connect 3 1 1 0;
#X connect 4 0 7 0;
#X connect 5 0 6 0;
#X connect 6 0 4 0;
#X connect 8 0 9 0;
#X connect 9 0 6 0;
#X connect 10 0 3 0;
#X connect 11 0 6 0;
