#N canvas 952 156 595 724 10;
#X obj 298 223 - 1;
#X obj 298 245 abs;
#X obj 457 342 i;
#X obj 305 340 i;
#X text 16 18 bit-crusher effect module;
#X msg 457 370 Dry / Wet \$1 %;
#X obj 116 130 - 1;
#X obj 116 160 abs;
#X msg 305 370 Depth \$1 %;
#X obj 116 213 + 1.4;
#X obj 116 191 * 6.6;
#X obj 116 235 pack 0 30;
#X obj 116 256 line;
#X obj 20 449 hip~ 5;
#X obj 305 392 s bc-\$1-depth-label;
#X obj 457 394 s bc-\$1-dw-label;
#X obj 298 118 r bc-\$1-dw;
#X obj 116 88 r bc-\$1-depth;
#X obj 20 427 e_bitcrusher \$1-bcwhatever 128;
#X obj 21 637 *~;
#N canvas 14 50 526 600 switcher 0;
#X obj 113 261 t b b;
#X obj 113 295 delay 5;
#X obj 263 387 line~;
#X msg 176 296 0 4;
#X obj 133 476 *~;
#X msg 113 327 0;
#X obj 113 220 bang;
#X msg 406 229 1;
#X msg 359 193 1 4;
#X obj 352 143 t b b b;
#X obj 139 506 outlet~;
#X obj 371 507 outlet;
#X obj 112 48 inlet;
#X obj 353 50 inlet;
#X connect 0 0 1 0;
#X connect 0 1 3 0;
#X connect 1 0 5 0;
#X connect 2 0 4 0;
#X connect 2 0 4 1;
#X connect 3 0 2 0;
#X connect 4 0 10 0;
#X connect 5 0 11 0;
#X connect 6 0 0 0;
#X connect 7 0 11 0;
#X connect 8 0 2 0;
#X connect 9 1 8 0;
#X connect 9 2 7 0;
#X connect 12 0 6 0;
#X connect 13 0 9 0;
#X restore 153 588 pd switcher;
#X obj 85 636 *~;
#X obj 153 559 sel 0 1;
#X obj 153 536 tgl 15 0 empty empty empty 17 7 0 10 -262144 -1 -1 1
1;
#X obj 227 612 switch~ 64 1 1;
#X obj 153 505 r bc-\$1-switch;
#X obj 263 507 r \$1-kill-switch;
#X obj 20 669 s~ bc-\$1-outL;
#X obj 150 669 s~ bc-\$1-outR;
#X obj 305 309 * 100;
#X obj 457 317 * 100;
#N canvas 442 222 827 619 mono-switch 0;
#X obj 150 125 *~;
#X obj 20 124 *~;
#X obj 77 284 *~;
#X obj 20 52 inlet~;
#X obj 150 53 inlet~;
#X obj 246 118 sel 1 2, f 40;
#X obj 96 258 vline~;
#X obj 79 82 vline~;
#X obj 21 376 outlet~;
#X obj 151 377 outlet~;
#X obj 384 151 t b b;
#X msg 425 184 0 10;
#X msg 384 185 1 10;
#X text 433 150 stereo;
#X text 290 146 mono;
#X obj 246 151 t b b;
#X msg 287 184 0 10;
#X msg 246 185 1 10;
#X obj 246 96 r fx13-monoSwitch;
#X obj 77 202 r~ pass-inMONO;
#X connect 0 0 9 0;
#X connect 1 0 8 0;
#X connect 2 0 8 0;
#X connect 2 0 9 0;
#X connect 3 0 1 0;
#X connect 4 0 0 0;
#X connect 5 0 15 0;
#X connect 5 1 10 0;
#X connect 6 0 2 1;
#X connect 7 0 1 1;
#X connect 7 0 0 1;
#X connect 10 0 12 0;
#X connect 10 1 11 0;
#X connect 11 0 6 0;
#X connect 12 0 7 0;
#X connect 15 0 17 0;
#X connect 15 1 16 0;
#X connect 16 0 7 0;
#X connect 17 0 6 0;
#X connect 18 0 5 0;
#X connect 19 0 2 0;
#X restore 1 156 pd mono-switch;
#X obj 0 82 r~ bc-\$1-inL;
#X obj 20 102 r~ bc-\$1-inR;
#X obj 83 480 hip~ 5;
#X obj 83 458 e_bitcrusher \$1-bcwhatever 128;
#X connect 0 0 1 0;
#X connect 1 0 18 2;
#X connect 1 0 35 2;
#X connect 2 0 5 0;
#X connect 3 0 8 0;
#X connect 5 0 15 0;
#X connect 6 0 7 0;
#X connect 7 0 10 0;
#X connect 8 0 14 0;
#X connect 9 0 11 0;
#X connect 10 0 9 0;
#X connect 11 0 12 0;
#X connect 12 0 18 1;
#X connect 12 0 35 1;
#X connect 13 0 19 0;
#X connect 16 0 0 0;
#X connect 16 0 30 0;
#X connect 17 0 6 0;
#X connect 17 0 29 0;
#X connect 18 0 13 0;
#X connect 19 0 27 0;
#X connect 20 0 19 1;
#X connect 20 0 21 1;
#X connect 20 1 24 0;
#X connect 21 0 28 0;
#X connect 22 0 20 0;
#X connect 22 1 20 1;
#X connect 23 0 22 0;
#X connect 25 0 23 0;
#X connect 26 0 23 0;
#X connect 29 0 3 0;
#X connect 30 0 2 0;
#X connect 31 0 18 0;
#X connect 31 1 35 0;
#X connect 32 0 31 0;
#X connect 33 0 31 1;
#X connect 34 0 21 0;
#X connect 35 0 34 0;
