#N canvas 512 107 1167 842 10;
#X obj 82 112 * 127;
#X obj 82 137 mtof;
#X obj 82 168 int;
#X obj 403 118 * 100;
#X obj 403 140 i;
#X obj 218 168 int;
#X obj 202 82 t f f;
#X obj 202 104 *;
#X msg 218 190 Time \$1 Ms;
#X obj 593 148 int;
#X msg 593 170 Dry / Wet \$1 %;
#X msg 403 162 Feedback \$1 %;
#X msg 82 190 HiPass \$1 Hz;
#X obj 82 90 r dly-hip;
#X text 33 2 Simple 3 sec Delay Module with a hi-pass filter;
#X obj 202 60 r dly-\$1-time;
#X obj 532 89 r dly-\$1-dw;
#X obj 593 192 s dly-\$1-dw-label;
#X obj 403 184 s dly-\$1-fb-label;
#X obj 218 212 s dly-\$1-time-label;
#X obj 82 212 s dly-\$1-hip-label;
#X obj 81 480 hip~ 5;
#X obj 82 625 *~;
#N canvas 14 50 526 600 switcher 0;
#X obj 113 261 t b b;
#X obj 113 295 delay 5;
#X obj 263 387 line~;
#X msg 176 296 0 4;
#X obj 133 476 *~;
#X msg 113 327 0;
#X obj 113 220 bang;
#X msg 406 229 1;
#X msg 359 193 1 4;
#X obj 352 143 t b b b;
#X obj 139 506 outlet~;
#X obj 371 507 outlet;
#X obj 112 48 inlet;
#X obj 353 50 inlet;
#X connect 0 0 1 0;
#X connect 0 1 3 0;
#X connect 1 0 5 0;
#X connect 2 0 4 0;
#X connect 2 0 4 1;
#X connect 3 0 2 0;
#X connect 4 0 10 0;
#X connect 5 0 11 0;
#X connect 6 0 0 0;
#X connect 7 0 11 0;
#X connect 8 0 2 0;
#X connect 9 1 8 0;
#X connect 9 2 7 0;
#X connect 12 0 6 0;
#X connect 13 0 9 0;
#X restore 214 576 pd switcher;
#X obj 222 631 *~;
#X obj 214 547 sel 0 1;
#X obj 214 524 tgl 15 0 empty empty empty 17 7 0 10 -262144 -1 -1 0
1;
#X obj 288 600 switch~ 64 1 1;
#X obj 214 495 r dly-\$1-switch;
#X obj 253 517 r \$1-kill-switch;
#X obj 82 659 s~ dly-\$1-outL;
#X obj 222 659 s~ dly-\$1-outR;
#X obj 22 347 delay3sec 5 \$1, f 52;
#X obj 593 126 * 100;
#X obj 81 458 c_xfade, f 65;
#N canvas 441 225 827 619 mono-switch 0;
#X obj 150 125 *~;
#X obj 20 124 *~;
#X obj 77 284 *~;
#X obj 20 52 inlet~;
#X obj 150 53 inlet~;
#X obj 246 118 sel 1 2, f 40;
#X obj 96 258 vline~;
#X obj 79 82 vline~;
#X obj 21 376 outlet~;
#X obj 151 377 outlet~;
#X obj 384 151 t b b;
#X msg 425 184 0 10;
#X msg 384 185 1 10;
#X text 433 150 stereo;
#X text 290 146 mono;
#X obj 246 151 t b b;
#X msg 287 184 0 10;
#X msg 246 185 1 10;
#X obj 246 96 r fx13-monoSwitch;
#X obj 77 202 r~ pass-inMONO;
#X connect 0 0 9 0;
#X connect 1 0 8 0;
#X connect 2 0 8 0;
#X connect 2 0 9 0;
#X connect 3 0 1 0;
#X connect 4 0 0 0;
#X connect 5 0 15 0;
#X connect 5 1 10 0;
#X connect 6 0 2 1;
#X connect 7 0 1 1;
#X connect 7 0 0 1;
#X connect 10 0 12 0;
#X connect 10 1 11 0;
#X connect 11 0 6 0;
#X connect 12 0 7 0;
#X connect 15 0 17 0;
#X connect 15 1 16 0;
#X connect 16 0 7 0;
#X connect 17 0 6 0;
#X connect 18 0 5 0;
#X connect 19 0 2 0;
#X restore 59 56 pd mono-switch;
#X obj 20 20 r~ dly-\$1-inL;
#X obj 133 20 r~ dly-\$1-inR;
#X obj 386 544 hip~ 5;
#X obj 386 522 c_xfade, f 65;
#X obj 202 132 * 2000;
#X obj 422 10 r dly-\$1-fb;
#X obj 383 36 min 0.98;
#X obj 611 415 hip~ 20;
#X obj 22 311 hip~ 20;
#X obj 759 396 + 1;
#X obj 611 451 delay3sec 5 \$1m, f 52;
#X obj 532 271 lop~ 45;
#X connect 0 0 1 0;
#X connect 1 0 2 0;
#X connect 1 0 43 1;
#X connect 1 0 44 1;
#X connect 2 0 12 0;
#X connect 3 0 4 0;
#X connect 4 0 11 0;
#X connect 5 0 8 0;
#X connect 6 0 7 0;
#X connect 6 1 7 1;
#X connect 7 0 40 0;
#X connect 8 0 19 0;
#X connect 9 0 10 0;
#X connect 10 0 17 0;
#X connect 11 0 18 0;
#X connect 12 0 20 0;
#X connect 13 0 0 0;
#X connect 15 0 6 0;
#X connect 16 0 33 0;
#X connect 16 0 47 0;
#X connect 21 0 22 0;
#X connect 22 0 30 0;
#X connect 23 0 22 1;
#X connect 23 0 24 1;
#X connect 23 1 27 0;
#X connect 24 0 31 0;
#X connect 25 0 23 0;
#X connect 25 1 23 1;
#X connect 26 0 25 0;
#X connect 28 0 26 0;
#X connect 29 0 26 0;
#X connect 32 0 34 1;
#X connect 33 0 9 0;
#X connect 34 0 21 0;
#X connect 35 0 34 0;
#X connect 35 0 44 0;
#X connect 35 1 39 0;
#X connect 35 1 43 0;
#X connect 36 0 35 0;
#X connect 37 0 35 1;
#X connect 38 0 24 0;
#X connect 39 0 38 0;
#X connect 40 0 5 0;
#X connect 40 0 32 1;
#X connect 40 0 45 0;
#X connect 41 0 42 0;
#X connect 42 0 3 0;
#X connect 42 0 32 2;
#X connect 42 0 46 2;
#X connect 43 0 46 0;
#X connect 44 0 32 0;
#X connect 45 0 46 1;
#X connect 46 0 39 1;
#X connect 47 0 34 2;
#X connect 47 0 39 2;
