#N canvas 504 69 809 639 10;
#N canvas 404 50 1241 942 mapping 0;
#X obj 240 537 map-knob-fx-fixed \$1 1 dclip bott -1;
#X obj 240 557 map-knob-fx-fixed \$1 1 dclip top 1;
#X obj 240 835 map-knob-fx-fixed \$1 1 flan shift 0.5;
#X obj 240 605 map-knob-fx-fixed \$1 1 dly hip 0.2;
#X obj 537 201 map-knob-fx-fixed \$1 1 moogOscil res 0.5;
#X obj 539 736 map-knob-fx-fixed \$1 1 specdel dw 1;
#X obj 240 267 map-knob-fx \$1 2 bc depth;
#X obj 240 289 map-knob-fx \$1 3 bc dw;
#X obj 240 367 map-knob-fx \$1 2 chor freq;
#X obj 240 389 map-knob-fx \$1 3 chor mod;
#X obj 240 412 map-knob-fx \$1 4 chor dw;
#X obj 240 467 map-knob-fx \$1 2 dclip level;
#X obj 240 489 map-knob-fx \$1 3 dclip dw;
#X obj 240 672 map-knob-fx \$1 4 dly dw;
#X obj 240 627 map-knob-fx \$1 2 dly time;
#X obj 240 650 map-knob-fx \$1 3 dly fb;
#X obj 240 727 map-knob-fx \$1 2 dtanh level;
#X obj 240 750 map-knob-fx \$1 3 dtanh dw;
#X obj 240 857 map-knob-fx \$1 2 flan rate;
#X obj 239 880 map-knob-fx \$1 3 flan depth;
#X obj 240 902 map-knob-fx \$1 4 flan feedback;
#X obj 537 223 map-knob-fx \$1 2 moogOscil cut;
#X obj 536 246 map-knob-fx \$1 3 moogOscil rate;
#X obj 537 268 map-knob-fx \$1 4 moogOscil depth;
#X obj 537 313 map-knob-fx \$1 2 pan rate;
#X obj 536 336 map-knob-fx \$1 3 pan depth;
#X obj 537 358 map-knob-fx \$1 4 pan dw;
#X obj 537 403 map-knob-fx \$1 2 phaser depth;
#X obj 536 426 map-knob-fx \$1 3 phaser freq;
#X obj 536 448 map-knob-fx \$1 4 phaser dw;
#X obj 537 493 map-knob-fx \$1 2 ps pitch;
#X obj 536 516 map-knob-fx \$1 3 ps dw;
#X obj 539 688 map-knob-fx \$1 3 specdel fb;
#X obj 539 711 map-knob-fx \$1 4 specdel fbscale;
#X obj 240 512 map-knob-fx-X \$1 4 dclip;
#X obj 537 583 map-knob-fx \$1 2 rev size;
#X obj 536 606 map-knob-fx \$1 3 rev damp;
#X obj 536 628 map-knob-fx \$1 4 rev dw;
#X obj 539 666 map-knob-fx \$1 2 specdel time;
#X obj 540 771 map-knob-fx \$1 2 trem freq;
#X obj 243 49 r fx13-\$1-knob1;
#X obj 359 49 r fx13-\$1-knob2;
#X obj 476 49 r fx13-\$1-knob3;
#X obj 593 49 r fx13-\$1-knob4;
#X obj 243 115 s \$1-knob1;
#X obj 359 115 s \$1-knob2;
#X obj 476 115 s \$1-knob3;
#X obj 593 115 s \$1-knob4;
#X obj 537 539 map-knob-fx-X \$1 4 ps;
#X obj 240 772 map-knob-fx-X \$1 4 dtanh;
#X obj 240 312 map-knob-fx-X \$1 4 bc;
#X obj 240 226 map-knob-fx-X \$1 4 pass;
#X obj 241 186 map-knob-fx-X \$1 2 pass;
#X obj 241 206 map-knob-fx-X \$1 3 pass;
#X obj 540 816 map-knob-fx \$1 4 trem dw;
#X obj 540 793 map-knob-fx \$1 3 trem depth;
#X connect 40 0 44 0;
#X connect 41 0 45 0;
#X connect 42 0 46 0;
#X connect 43 0 47 0;
#X restore 76 78 pd mapping;
#X text 155 76 map the knobs and where they print;
#X text 185 491 audio out;
#N canvas 590 283 1010 588 audio 0;
#X text 190 10 audio in;
#X obj 12 3 r~ fx13-\$1-inL;
#X obj 109 298 s~ bc-\$1-inL;
#X obj 101 324 s~ chor-\$1-inL;
#X obj 91 353 s~ dclip-\$1-inL;
#X obj 50 410 s~ flan-\$1-inL;
#X obj 31 432 s~ moogOscil-\$1-inL;
#X obj 81 366 s~ pass-\$1-inL;
#X obj 68 385 s~ dtanh-\$1-inL;
#X obj 157 239 s~ pan-\$1-inL;
#X obj 141 256 s~ dly-\$1-inL;
#X obj 167 213 s~ trem-\$1-inL;
#X obj 178 186 s~ specdel-\$1-inL;
#X obj 193 165 s~ rev-\$1-inL;
#X obj 16 464 s~ phaser-\$1-inL;
#X obj 121 280 s~ ps-\$1-inL;
#X obj 593 171 s~ rev-\$1-inR;
#X obj 592 195 s~ specdel-\$1-inR;
#X obj 592 222 s~ trem-\$1-inR;
#X obj 618 276 s~ pan-\$1-inR;
#X obj 593 308 s~ phaser-\$1-inR;
#X obj 589 334 s~ ps-\$1-inR;
#X obj 576 365 s~ bc-\$1-inR;
#X obj 563 393 s~ chor-\$1-inR;
#X obj 544 416 s~ dly-\$1-inR;
#X obj 536 443 s~ dclip-\$1-inR;
#X obj 523 477 s~ dtanh-\$1-inR;
#X obj 504 497 s~ flan-\$1-inR;
#X obj 488 522 s~ pass-\$1-inR;
#X obj 455 548 s~ moogOscil-\$1-inR;
#X obj 482 16 r~ fx13-\$1-inR;
#X connect 1 0 2 0;
#X connect 1 0 3 0;
#X connect 1 0 4 0;
#X connect 1 0 5 0;
#X connect 1 0 6 0;
#X connect 1 0 7 0;
#X connect 1 0 8 0;
#X connect 1 0 9 0;
#X connect 1 0 10 0;
#X connect 1 0 11 0;
#X connect 1 0 12 0;
#X connect 1 0 13 0;
#X connect 1 0 14 0;
#X connect 1 0 15 0;
#X connect 30 0 16 0;
#X connect 30 0 17 0;
#X connect 30 0 18 0;
#X connect 30 0 19 0;
#X connect 30 0 20 0;
#X connect 30 0 21 0;
#X connect 30 0 22 0;
#X connect 30 0 23 0;
#X connect 30 0 24 0;
#X connect 30 0 25 0;
#X connect 30 0 26 0;
#X connect 30 0 27 0;
#X connect 30 0 28 0;
#X connect 30 0 29 0;
#X restore 85 457 pd audio in;
#X text 174 455 audio in;
#X text 194 114 load the modules;
#N canvas 744 281 752 538 audio 0;
#X obj 2 19 r~ bc-\$1-outL;
#X obj 12 42 r~ chor-\$1-outL;
#X obj 22 67 r~ dclip-\$1-outL;
#X obj 32 90 r~ dly-\$1-outL;
#X obj 42 116 r~ dtanh-\$1-outL;
#X obj 53 139 r~ flan-\$1-outL;
#X obj 62 164 r~ moogOscil-\$1-outL;
#X obj 73 187 r~ pan-\$1-outL;
#X obj 82 210 r~ phaser-\$1-outL;
#X obj 92 233 r~ ps-\$1-outL;
#X obj 102 258 r~ rev-\$1-outL;
#X obj 112 281 r~ specdel-\$1-outL;
#X obj 118 311 r~ trem-\$1-outL;
#X obj 393 311 r~ trem-\$1-outR;
#X obj 387 282 r~ specdel-\$1-outR;
#X obj 377 259 r~ rev-\$1-outR;
#X obj 367 234 r~ ps-\$1-outR;
#X obj 357 211 r~ phaser-\$1-outR;
#X obj 348 188 r~ pan-\$1-outR;
#X obj 337 165 r~ moogOscil-\$1-outR;
#X obj 328 140 r~ flan-\$1-outR;
#X obj 317 117 r~ dtanh-\$1-outR;
#X obj 307 91 r~ dly-\$1-outR;
#X obj 297 68 r~ dclip-\$1-outR;
#X obj 287 43 r~ chor-\$1-outR;
#X obj 277 20 r~ bc-\$1-outR;
#X obj 88 355 s~ fx13-\$1-outL;
#X obj 303 355 s~ fx13-\$1-outR;
#X obj -10 -2 r~ pass-\$1-outL;
#X obj 266 0 r~ pass-\$1-outR;
#X connect 0 0 26 0;
#X connect 1 0 26 0;
#X connect 2 0 26 0;
#X connect 3 0 26 0;
#X connect 4 0 26 0;
#X connect 5 0 26 0;
#X connect 6 0 26 0;
#X connect 7 0 26 0;
#X connect 8 0 26 0;
#X connect 9 0 26 0;
#X connect 10 0 26 0;
#X connect 11 0 26 0;
#X connect 12 0 26 0;
#X connect 13 0 27 0;
#X connect 14 0 27 0;
#X connect 15 0 27 0;
#X connect 16 0 27 0;
#X connect 17 0 27 0;
#X connect 18 0 27 0;
#X connect 19 0 27 0;
#X connect 20 0 27 0;
#X connect 21 0 27 0;
#X connect 22 0 27 0;
#X connect 23 0 27 0;
#X connect 24 0 27 0;
#X connect 25 0 27 0;
#X connect 28 0 26 0;
#X connect 29 0 27 0;
#X restore 86 493 pd audio out;
#X text 519 19 arg1: fx13 instance #;
#N canvas 655 572 450 300 DSP-switch 0;
#X obj 28 37 r \$1-Fxs;
#X msg 28 183 \; \$2-\$3-switch \$1;
#X obj 28 155 pack 0 s \$1;
#X obj 28 59 t b b s, f 16;
#X msg 82 89 0;
#X msg 28 121 1;
#X text 158 57 module's dsp on/off;
#X obj 28 81 del 10;
#X obj 82 115 s \$1-kill-switch;
#X connect 0 0 3 0;
#X connect 2 0 1 0;
#X connect 3 0 7 0;
#X connect 3 1 4 0;
#X connect 3 2 2 1;
#X connect 4 0 8 0;
#X connect 5 0 2 0;
#X connect 7 0 5 0;
#X restore 89 385 pd DSP-switch;
#N canvas 16 50 388 199 text 0;
#X msg 105 89 read FX13.txt;
#X obj 105 56 loadbang;
#X obj 105 113 text define \$1-FX13;
#X connect 0 0 2 0;
#X connect 1 0 0 0;
#X restore 79 278 pd text files;
#X text 195 383 turn dsp on for specified module;
#X text 182 280 textfile management;
#X text 41 11 This is an effect module refrencing 13 effect modules.
--modules inside modules--;
#N canvas 314 69 464 395 load 0;
#X obj 78 61 Chorus \$1;
#X obj 78 81 Dclip \$1;
#X obj 78 101 Delay \$1;
#X obj 78 121 Dtanh \$1;
#X obj 78 141 Flanger \$1;
#X obj 78 161 MoogOscil \$1;
#X obj 78 181 Panner \$1;
#X obj 78 201 Phaser \$1;
#X obj 78 221 PitchShift \$1;
#X obj 78 242 Reverb \$1;
#X obj 78 263 SpectralDelay \$1;
#X obj 78 284 Tremolo \$1;
#X obj 78 41 Bitcrusher \$1;
#X obj 78 21 PassThru \$1;
#X restore 76 111 pd load modules;
#N canvas 420 102 485 507 select-fx 0;
#X obj 7 149 int;
#X obj 87 276 s \$1-Fxs;
#X obj 7 339 s fx13-\$1-knob1-label;
#X obj 7 246 unpack s s;
#X msg 7 308 FX : \$1;
#X obj 7 210 text get \$1-FX13;
#X obj 7 70 r \$1-knob1;
#X obj 7 175 f;
#X obj 71 366 s fx13-\$1-menu;
#X obj 7 275 symbol;
#X obj 243 189 r page-ready;
#X obj 243 218 bang;
#X text 185 366 send effect name to print main menu;
#X text 188 159 update label with new page;
#X obj 7 92 * 14;
#X obj 7 118 + 0.499999;
#X connect 0 0 7 0;
#X connect 3 0 9 0;
#X connect 3 0 8 0;
#X connect 3 1 1 0;
#X connect 4 0 2 0;
#X connect 5 0 3 0;
#X connect 6 0 14 0;
#X connect 7 0 5 0;
#X connect 9 0 4 0;
#X connect 10 0 11 0;
#X connect 11 0 9 0;
#X connect 14 0 15 0;
#X connect 15 0 0 0;
#X restore 80 250 pd select-fx;
#X text 181 250 stuff for knob1 to pick modules;
