#N canvas 531 188 737 600 10;
#X obj 116 315 *~ 0.7;
#X obj 252 107 int;
#X obj 371 259 int;
#X msg 371 281 Dry / Wet \$1 %;
#X obj 227 7 r ps-\$1-pitch;
#X obj 252 151 s ps-\$1-pitch-label;
#X obj 371 303 s ps-\$1-dw-label;
#X obj 311 201 r ps-\$1-dw;
#X obj 108 568 *~;
#N canvas 14 50 526 600 switcher 0;
#X obj 113 261 t b b;
#X obj 113 295 delay 5;
#X obj 263 387 line~;
#X msg 176 296 0 4;
#X obj 133 476 *~;
#X msg 113 327 0;
#X obj 113 220 bang;
#X msg 406 229 1;
#X msg 359 193 1 4;
#X obj 352 143 t b b b;
#X obj 139 506 outlet~;
#X obj 371 507 outlet;
#X obj 112 48 inlet;
#X obj 353 50 inlet;
#X connect 0 0 1 0;
#X connect 0 1 3 0;
#X connect 1 0 5 0;
#X connect 2 0 4 0;
#X connect 2 0 4 1;
#X connect 3 0 2 0;
#X connect 4 0 10 0;
#X connect 5 0 11 0;
#X connect 6 0 0 0;
#X connect 7 0 11 0;
#X connect 8 0 2 0;
#X connect 9 1 8 0;
#X connect 9 2 7 0;
#X connect 12 0 6 0;
#X connect 13 0 9 0;
#X restore 240 519 pd switcher;
#X obj 172 567 *~;
#X obj 240 490 sel 0 1;
#X obj 240 467 tgl 15 0 empty empty empty 17 7 0 10 -262144 -1 -1 0
1;
#X obj 314 543 switch~ 64 1 1;
#X obj 240 438 r ps-\$1-switch;
#X obj 267 414 r \$1-kill-switch;
#X obj 94 607 s~ ps-\$1-outL;
#X obj 224 607 s~ ps-\$1-outR;
#X obj 371 237 * 100;
#X obj 94 370 c_xfade;
#X obj 227 72 i;
#X obj 116 283 hv.freqshift;
#X obj 197 160 lop~ 5;
#X obj 311 223 lop~ 5;
#X obj 227 30 * 400;
#X obj 226 51 - 200;
#X msg 252 129 Shift \$1 %;
#N canvas 441 225 827 619 mono-switch 0;
#X obj 150 125 *~;
#X obj 20 124 *~;
#X obj 77 284 *~;
#X obj 20 52 inlet~;
#X obj 150 53 inlet~;
#X obj 246 118 sel 1 2, f 40;
#X obj 96 258 vline~;
#X obj 79 82 vline~;
#X obj 21 376 outlet~;
#X obj 151 377 outlet~;
#X obj 384 151 t b b;
#X msg 425 184 0 10;
#X msg 384 185 1 10;
#X text 433 150 stereo;
#X text 290 146 mono;
#X obj 246 151 t b b;
#X msg 287 184 0 10;
#X msg 246 185 1 10;
#X obj 246 96 r fx13-monoSwitch;
#X obj 77 202 r~ pass-inMONO;
#X connect 0 0 9 0;
#X connect 1 0 8 0;
#X connect 2 0 8 0;
#X connect 2 0 9 0;
#X connect 3 0 1 0;
#X connect 4 0 0 0;
#X connect 5 0 15 0;
#X connect 5 1 10 0;
#X connect 6 0 2 1;
#X connect 7 0 1 1;
#X connect 7 0 0 1;
#X connect 10 0 12 0;
#X connect 10 1 11 0;
#X connect 11 0 6 0;
#X connect 12 0 7 0;
#X connect 15 0 17 0;
#X connect 15 1 16 0;
#X connect 16 0 7 0;
#X connect 17 0 6 0;
#X connect 18 0 5 0;
#X connect 19 0 2 0;
#X restore 32 90 pd mono-switch;
#X obj 32 32 r~ ps-\$1-inL;
#X obj 42 56 r~ ps-\$1-inR;
#X obj 188 377 *~ 0.7;
#X obj 166 432 c_xfade;
#X obj 188 345 hv.freqshift;
#X connect 0 0 19 1;
#X connect 1 0 26 0;
#X connect 2 0 3 0;
#X connect 3 0 6 0;
#X connect 4 0 24 0;
#X connect 7 0 18 0;
#X connect 7 0 23 0;
#X connect 8 0 16 0;
#X connect 9 0 8 1;
#X connect 9 0 10 1;
#X connect 9 1 13 0;
#X connect 10 0 17 0;
#X connect 11 0 9 0;
#X connect 11 1 9 1;
#X connect 12 0 11 0;
#X connect 14 0 12 0;
#X connect 15 0 12 0;
#X connect 18 0 2 0;
#X connect 19 0 8 0;
#X connect 20 0 1 0;
#X connect 20 0 22 0;
#X connect 21 0 0 0;
#X connect 22 0 21 1;
#X connect 22 0 32 1;
#X connect 23 0 19 2;
#X connect 23 0 31 2;
#X connect 24 0 25 0;
#X connect 25 0 20 0;
#X connect 26 0 5 0;
#X connect 27 0 21 0;
#X connect 27 0 19 0;
#X connect 27 1 32 0;
#X connect 27 1 31 0;
#X connect 28 0 27 0;
#X connect 29 0 27 1;
#X connect 30 0 31 1;
#X connect 31 0 10 0;
#X connect 32 0 30 0;
