#N canvas 869 100 627 697 10;
#X obj 223 125 t f f;
#X obj 223 147 *;
#X obj 54 256 e_tremolo mtrem;
#X text 9 2 Tremolo Effects Module;
#X obj 502 184 i;
#X msg 502 212 Dry / Wet \$1 %;
#X obj 252 203 i;
#X msg 252 229 Freq \$1 Hz;
#X obj 223 48 r trem-\$1-freq;
#X obj 502 47 r trem-\$1-dw;
#X obj 82 436 *~;
#N canvas 14 50 526 600 switcher 0;
#X obj 113 261 t b b;
#X obj 113 295 delay 5;
#X obj 263 387 line~;
#X msg 176 296 0 4;
#X obj 133 476 *~;
#X msg 113 327 0;
#X obj 113 220 bang;
#X msg 406 229 1;
#X msg 359 193 1 4;
#X obj 352 143 t b b b;
#X obj 139 506 outlet~;
#X obj 371 507 outlet;
#X obj 112 48 inlet;
#X obj 353 50 inlet;
#X connect 0 0 1 0;
#X connect 0 1 3 0;
#X connect 1 0 5 0;
#X connect 2 0 4 0;
#X connect 2 0 4 1;
#X connect 3 0 2 0;
#X connect 4 0 10 0;
#X connect 5 0 11 0;
#X connect 6 0 0 0;
#X connect 7 0 11 0;
#X connect 8 0 2 0;
#X connect 9 1 8 0;
#X connect 9 2 7 0;
#X connect 12 0 6 0;
#X connect 13 0 9 0;
#X restore 214 387 pd switcher;
#X obj 146 435 *~;
#X obj 214 358 sel 0 1;
#X obj 214 335 tgl 15 0 empty empty empty 17 7 0 10 -262144 -1 -1 0
1;
#X obj 288 411 switch~ 64 1 1;
#X obj 214 306 r trem-\$1-switch;
#X obj 290 343 r \$1-kill-switch;
#X obj 252 253 s trem-\$1-freq-label;
#X obj 502 236 s trem-\$1-dw-label;
#X obj 50 491 s~ trem-\$1-outL;
#X obj 193 490 s~ trem-\$1-outR;
#X obj 502 159 * 100;
#X obj 344 48 r trem-\$1-depth;
#X obj 344 70 * 100;
#X obj 344 92 i;
#X msg 344 124 Depth: \$1 %;
#X obj 344 146 s trem-\$1-depth-label;
#X obj 223 70 t f f;
#X obj 223 92 *;
#X obj 223 177 * 1000;
#N canvas 441 225 827 619 mono-switch 0;
#X obj 150 125 *~;
#X obj 20 124 *~;
#X obj 77 284 *~;
#X obj 20 52 inlet~;
#X obj 150 53 inlet~;
#X obj 246 118 sel 1 2, f 40;
#X obj 96 258 vline~;
#X obj 79 82 vline~;
#X obj 21 376 outlet~;
#X obj 151 377 outlet~;
#X obj 384 151 t b b;
#X msg 425 184 0 10;
#X msg 384 185 1 10;
#X text 433 150 stereo;
#X text 290 146 mono;
#X obj 246 151 t b b;
#X msg 287 184 0 10;
#X msg 246 185 1 10;
#X obj 246 96 r fx13-monoSwitch;
#X obj 77 202 r~ pass-inMONO;
#X connect 0 0 9 0;
#X connect 1 0 8 0;
#X connect 2 0 8 0;
#X connect 2 0 9 0;
#X connect 3 0 1 0;
#X connect 4 0 0 0;
#X connect 5 0 15 0;
#X connect 5 1 10 0;
#X connect 6 0 2 1;
#X connect 7 0 1 1;
#X connect 7 0 0 1;
#X connect 10 0 12 0;
#X connect 10 1 11 0;
#X connect 11 0 6 0;
#X connect 12 0 7 0;
#X connect 15 0 17 0;
#X connect 15 1 16 0;
#X connect 16 0 7 0;
#X connect 17 0 6 0;
#X connect 18 0 5 0;
#X connect 19 0 2 0;
#X restore 46 106 pd mono-switch;
#X obj 52 43 r~ trem-\$1-inL;
#X obj 94 291 e_tremolo mtrem;
#X obj 62 73 r~ trem-\$1-inR;
#X connect 0 0 1 0;
#X connect 0 1 1 1;
#X connect 1 0 30 0;
#X connect 2 0 10 0;
#X connect 4 0 5 0;
#X connect 5 0 19 0;
#X connect 6 0 7 0;
#X connect 7 0 18 0;
#X connect 8 0 28 0;
#X connect 9 0 22 0;
#X connect 9 0 2 3;
#X connect 9 0 33 3;
#X connect 10 0 20 0;
#X connect 11 0 10 1;
#X connect 11 0 12 1;
#X connect 11 1 15 0;
#X connect 12 0 21 0;
#X connect 13 0 11 0;
#X connect 13 1 11 1;
#X connect 14 0 13 0;
#X connect 16 0 14 0;
#X connect 17 0 14 0;
#X connect 22 0 4 0;
#X connect 23 0 24 0;
#X connect 23 0 2 2;
#X connect 23 0 33 2;
#X connect 24 0 25 0;
#X connect 25 0 26 0;
#X connect 26 0 27 0;
#X connect 28 0 29 0;
#X connect 28 1 29 1;
#X connect 29 0 0 0;
#X connect 30 0 6 0;
#X connect 30 0 2 1;
#X connect 30 0 33 1;
#X connect 31 0 2 0;
#X connect 31 1 33 0;
#X connect 32 0 31 0;
#X connect 33 0 12 0;
#X connect 34 0 31 1;
