#N canvas 240 139 947 621 10;
#X obj 97 494 tabwrite~ \$1-\$2;
#X obj 98 434 *~, f 16;
#N canvas 812 189 565 343 peak-trigger 0;
#X obj 56 30 inlet~;
#X obj 56 252 outlet;
#X obj 56 172 spigot 0;
#X obj 56 194 t b b;
#X msg 141 194 0;
#X obj 247 9 inlet;
#X obj 266 58 t b b b;
#X msg 305 79 stop;
#X msg 285 120 1;
#X obj 101 48 r \$1-\$2-mute-rec;
#X msg 101 69 0;
#X obj 247 30 sel 0 1;
#X msg 247 91 0;
#X obj 285 99 del 350;
#X obj 381 17 inlet;
#X obj 56 109 threshold~ 0.1 5 0.1 5;
#X msg 381 48 set \$1 5 \$1 5;
#X connect 0 0 15 0;
#X connect 2 0 3 0;
#X connect 3 0 1 0;
#X connect 3 1 4 0;
#X connect 4 0 2 1;
#X connect 5 0 11 0;
#X connect 6 1 13 0;
#X connect 6 2 7 0;
#X connect 7 0 13 0;
#X connect 8 0 2 1;
#X connect 9 0 10 0;
#X connect 10 0 2 1;
#X connect 11 0 12 0;
#X connect 11 1 6 0;
#X connect 12 0 2 1;
#X connect 13 0 8 0;
#X connect 14 0 16 0;
#X connect 15 0 2 0;
#X connect 16 0 15 0;
#X restore 156 151 pd peak-trigger;
#X obj 41 306 delwrite~ yo-\$0 10;
#X obj 99 369 delread~ yo-\$0 8;
#N canvas 63 105 936 598 record! 0;
#X obj 37 11 inlet trigger;
#X obj 398 403 timer;
#X obj 398 512 outlet;
#X obj 398 425 * 44.1;
#X obj 398 447 max 4410;
#X obj 450 205 s 2-tab-\$0;
#X text 154 573 bang tabwrite \, open vline \, start timer;
#X obj 37 103 sel 0 1, f 83;
#X obj 326 219 s 2-vline-\$0;
#X msg 326 196 1;
#X obj 544 292 del \$3;
#X obj 544 216 t b b;
#X msg 571 249 stop;
#X obj 617 224 v local-\$0;
#X msg 617 201 2;
#X text 600 294 max record delay;
#X text 682 200 set v to record;
#X text 445 233 start rec;
#X text 428 378 start timer;
#X text 323 247 open the sound;
#X obj 60 240 s 2-vline-\$0;
#X msg 60 217 0;
#X msg 115 211 stop;
#X obj 37 274 del 8;
#X obj 37 304 t b b b b, f 17;
#X msg 544 314 0;
#X obj 544 336 s \$0-auto-oFf;
#X obj 142 11 r \$0-auto-oFf;
#X obj 153 361 s 2-tab-\$0;
#X msg 153 335 stop;
#X obj 37 455 pack s \$2;
#X obj 37 428 symbol \$1;
#X msg 37 499 \; \$1-\$2 normalize;
#X obj 70 350 v local-\$0;
#X msg 70 327 0;
#X obj 242 14 r \$0-stop-recOrd;
#X msg 124 413 0;
#X obj 741 277 pack s \$2;
#X obj 741 250 symbol \$1;
#X msg 741 301 \; \$1-\$2 const 0;
#X obj 326 169 t b b b b b b, f 54;
#X text 761 232 clear table;
#X obj 37 376 t b b, f 15;
#X obj 37 398 spigot \$5;
#X obj 124 436 s \$0-state;
#X obj 398 469 i;
#X text 455 427 convert to samples;
#X text 466 447 at least 1ms;
#X obj 37 165 t b b b b, f 12;
#X obj 668 71 r \$1-max-rec;
#X connect 0 0 7 0;
#X connect 1 0 3 0;
#X connect 3 0 4 0;
#X connect 4 0 45 0;
#X connect 7 0 48 0;
#X connect 7 1 40 0;
#X connect 9 0 8 0;
#X connect 10 0 25 0;
#X connect 11 0 10 0;
#X connect 11 1 12 0;
#X connect 12 0 10 0;
#X connect 14 0 13 0;
#X connect 21 0 20 0;
#X connect 22 0 23 0;
#X connect 23 0 24 0;
#X connect 24 0 42 0;
#X connect 24 1 34 0;
#X connect 24 2 1 1;
#X connect 24 3 29 0;
#X connect 25 0 26 0;
#X connect 27 0 7 0;
#X connect 29 0 28 0;
#X connect 30 0 32 0;
#X connect 31 0 30 0;
#X connect 34 0 33 0;
#X connect 35 0 7 0;
#X connect 36 0 44 0;
#X connect 37 0 39 0;
#X connect 38 0 37 0;
#X connect 40 0 9 0;
#X connect 40 1 1 0;
#X connect 40 2 5 0;
#X connect 40 3 11 0;
#X connect 40 4 14 0;
#X connect 40 5 38 0;
#X connect 42 0 43 0;
#X connect 42 1 36 0;
#X connect 43 0 31 0;
#X connect 45 0 2 0;
#X connect 48 0 23 0;
#X connect 48 1 21 0;
#X connect 48 2 22 0;
#X connect 48 3 12 0;
#X connect 49 0 10 1;
#X restore 156 244 pd record!;
#X obj 199 81 r \$0-open-trig;
#X obj 226 222 v local-\$0;
#X msg 226 200 2;
#X obj 117 466 r 2-tab-\$0;
#X obj 156 266 s \$0-size;
#N canvas 387 94 853 578 soundfiler 0;
#X obj 414 333 array define \$1-\$2;
#X obj 414 247 \$3;
#X obj 414 269 * 44.1;
#X msg 414 291 resize \$1;
#X obj 359 162 loadbang;
#X obj 39 464 soundfiler;
#X obj 135 126 symbol \$4;
#X obj 470 247 s \$0-load-params;
#X obj 136 39 r \$0-load-params;
#X obj 54 70 r \$0-size;
#X obj 39 93 f;
#X obj 39 45 r saveState;
#X obj 484 126 v local-\$0;
#X msg 484 102 0;
#X obj 484 78 r \$0-load-params;
#X obj 64 126 symbol \$1;
#X obj 194 244 symbol \$1;
#X obj 594 255 r \$0-size;
#X msg 635 329 0;
#X obj 39 498 s \$0-size;
#X obj 593 395 text define \$1-\$2-length;
#X obj 594 365 text set \$1-\$2-length;
#X obj 594 330 list;
#X obj 39 183 pack 0 s \$2 s;
#X obj 194 270 pack s \$2 s;
#X msg 39 333 write -wave -nframes \$1 ../../\$4/\$3.wav \$2-\$3;
#X obj 594 287 t a b, f 7;
#X obj 359 184 t b b b, f 19;
#X obj 136 70 t b b;
#X msg 194 298 read ../../\$3/\$2.wav \$1-\$2;
#X connect 1 0 2 0;
#X connect 2 0 3 0;
#X connect 3 0 0 0;
#X connect 4 0 27 0;
#X connect 5 0 19 0;
#X connect 6 0 23 3;
#X connect 6 0 24 2;
#X connect 8 0 28 0;
#X connect 9 0 10 1;
#X connect 10 0 23 0;
#X connect 11 0 10 0;
#X connect 13 0 12 0;
#X connect 14 0 13 0;
#X connect 15 0 23 1;
#X connect 16 0 24 0;
#X connect 17 0 26 0;
#X connect 18 0 21 1;
#X connect 22 0 21 0;
#X connect 23 0 25 0;
#X connect 24 0 29 0;
#X connect 25 0 5 0;
#X connect 26 0 22 0;
#X connect 26 1 18 0;
#X connect 27 0 16 0;
#X connect 27 1 1 0;
#X connect 27 2 7 0;
#X connect 28 0 15 0;
#X connect 28 1 6 0;
#X connect 29 0 5 0;
#X restore 405 181 pd soundfiler;
#N canvas 8 50 749 525 vline 0;
#X obj 192 206 vline~;
#X msg 192 173 1 8 \, 0 8 \$1;
#X obj 192 146 - 16;
#X obj 192 123 f \$3;
#X obj 169 75 r 2-vline-\$0;
#X obj 169 97 sel 0 1;
#X msg 149 174 0 8;
#X obj 98 304 *~ -1;
#X obj 98 231 sig~ 1;
#X obj 98 253 -~, f 14;
#X obj 98 336 +~ 1;
#X obj 97 278 pow~ 4;
#X obj 98 358 outlet~;
#X connect 0 0 9 1;
#X connect 1 0 0 0;
#X connect 2 0 1 0;
#X connect 3 0 2 0;
#X connect 4 0 5 0;
#X connect 5 0 6 0;
#X connect 5 1 3 0;
#X connect 6 0 0 0;
#X connect 7 0 10 0;
#X connect 8 0 9 0;
#X connect 9 0 11 0;
#X connect 10 0 12 0;
#X connect 11 0 7 0;
#X restore 191 405 pd vline;
#N canvas 23 50 779 537 actions 0;
#X obj 73 98 r \$1-\$2-arm;
#X obj 73 120 t b;
#X obj 73 142 v local-\$0;
#X obj 73 383 s \$0-open-trig;
#X msg 105 308 1;
#X obj 105 331 v local-\$0;
#X obj 283 328 s \$0-open-trig;
#X obj 246 268 v local-\$0;
#X msg 246 245 0;
#X msg 73 308 1;
#X msg 283 303 0;
#X obj 413 360 v local-\$0;
#X msg 413 337 0;
#X obj 381 397 s \$0-stop-recOrd;
#X msg 381 337 0;
#X obj 73 236 t b b b;
#X obj 212 218 t b b b, f 12;
#X msg 120 261 1;
#X msg 212 311 0;
#X msg 420 293 0;
#X obj 420 314 s \$0-state;
#X obj 212 342 s \$0-state;
#X obj 119 283 s \$0-state;
#X obj 428 -17 r \$1-\$2-kill;
#X obj 73 164 sel 0 1 2, f 70;
#X obj 515 -16 r \$1-global-kill;
#X obj 515 23 t b;
#X obj 515 45 v local-\$0;
#X msg 616 155 0;
#X obj 616 176 s \$0-state;
#X obj 666 153 v local-\$0;
#X msg 666 130 0;
#X obj 567 218 s \$0-stop-recOrd;
#X msg 567 158 0;
#X obj 515 66 sel 1 2, f 18;
#X obj 382 215 t b b b, f 10;
#X obj 567 92 t b b b, f 17;
#X obj 596 359 s \$0-open-trig;
#X obj 559 299 v local-\$0;
#X msg 559 276 0;
#X msg 596 334 0;
#X obj 525 249 t b b b, f 12;
#X msg 525 342 0;
#X obj 525 373 s \$0-state;
#X connect 0 0 1 0;
#X connect 1 0 2 0;
#X connect 2 0 24 0;
#X connect 4 0 5 0;
#X connect 8 0 7 0;
#X connect 9 0 3 0;
#X connect 10 0 6 0;
#X connect 12 0 11 0;
#X connect 14 0 13 0;
#X connect 15 0 9 0;
#X connect 15 1 4 0;
#X connect 15 2 17 0;
#X connect 16 0 18 0;
#X connect 16 1 8 0;
#X connect 16 2 10 0;
#X connect 17 0 22 0;
#X connect 18 0 21 0;
#X connect 19 0 20 0;
#X connect 23 0 26 0;
#X connect 24 0 15 0;
#X connect 24 1 16 0;
#X connect 24 2 35 0;
#X connect 25 0 26 0;
#X connect 26 0 27 0;
#X connect 27 0 34 0;
#X connect 28 0 29 0;
#X connect 31 0 30 0;
#X connect 33 0 32 0;
#X connect 34 0 41 0;
#X connect 34 1 36 0;
#X connect 35 0 14 0;
#X connect 35 1 12 0;
#X connect 35 2 19 0;
#X connect 36 0 33 0;
#X connect 36 1 28 0;
#X connect 36 2 31 0;
#X connect 39 0 38 0;
#X connect 40 0 37 0;
#X connect 41 0 42 0;
#X connect 41 1 39 0;
#X connect 41 2 40 0;
#X connect 42 0 43 0;
#X restore 406 233 pd actions;
#X obj 156 173 t b b b, f 24;
#X msg 297 200 2;
#X msg 156 195 1;
#X obj 397 307 r \$0-state;
#X obj 397 417 s \$1-states;
#X obj 397 329 list prepend \$2;
#X obj 397 351 list trim;
#X obj 297 222 s \$0-state;
#X text 525 203 *** IMPORTANT! need to make a folder named Lengths
\, inside whatever folder the 4th argument is ***;
#X text 399 21 Arg1: Sample name(symbol \, e.g. "samp);
#X text 400 44 Arg2: Sample number (integer 0-inf);
#X text 398 66 Arg3: Max Time in ms (integer);
#X text 480 418 <---- all states run to one send with same "sample
name";
#X text 397 96 Arg4: Name of Folder to save sounds to \, located in
the main patch folder (e.g. "Sounds");
#X text 399 136 Arg5: normalize on/off (default 0);
#X obj 99 411 lop~ 20000;
#X obj 42 23 r~ \$1-sound-in;
#X obj 99 390 hip~ 5;
#X obj 243 108 r \$1-trig-percent;
#X obj 156 33 r~ \$1-sound-in-control;
#X connect 1 0 0 0;
#X connect 2 0 14 0;
#X connect 4 0 31 0;
#X connect 5 0 10 0;
#X connect 6 0 2 1;
#X connect 8 0 7 0;
#X connect 9 0 0 0;
#X connect 12 0 1 1;
#X connect 14 0 16 0;
#X connect 14 1 8 0;
#X connect 14 2 15 0;
#X connect 15 0 21 0;
#X connect 16 0 5 0;
#X connect 17 0 19 0;
#X connect 19 0 20 0;
#X connect 20 0 18 0;
#X connect 29 0 1 0;
#X connect 30 0 3 0;
#X connect 31 0 29 0;
#X connect 32 0 2 2;
#X connect 33 0 2 0;
