#N canvas 53 50 947 621 10;
#X obj 27 71 r~ inL;
#X obj 98 71 r~ inR;
#X obj 98 93 *~ 0.707;
#X obj 27 93 *~ 0.707;
#X text 156 69 organelle sound in;
#X obj 97 494 tabwrite~ \$1-\$2;
#X obj 98 434 *~, f 16;
#N canvas 456 146 565 343 peak-trigger 0;
#X obj 56 30 inlet~;
#X obj 57 252 outlet;
#X obj 57 172 spigot 0;
#X obj 57 194 t b b;
#X msg 142 194 0;
#X obj 247 29 inlet;
#X text 201 121 <-- changed for organelle-m \, the key presses are
too loud;
#X obj 57 120 threshold~ 0.18 5 0.1 5;
#X connect 0 0 7 0;
#X connect 2 0 3 0;
#X connect 3 0 1 0;
#X connect 3 1 4 0;
#X connect 4 0 2 1;
#X connect 5 0 2 1;
#X connect 7 0 2 0;
#X restore 116 151 pd peak-trigger;
#X obj 99 306 delwrite~ yo-\$0 10;
#X obj 99 369 delread~ yo-\$0 8;
#N canvas 63 105 936 598 record! 0;
#X obj 37 11 inlet trigger;
#X obj 398 403 timer;
#X obj 398 512 outlet;
#X obj 398 425 * 44.1;
#X obj 398 447 max 4410;
#X obj 450 205 s 2-tab-\$0;
#X text 154 573 bang tabwrite \, open vline \, start timer;
#X obj 37 143 sel 0 1, f 83;
#X obj 326 219 s 2-vline-\$0;
#X msg 326 196 1;
#X obj 544 292 del \$3;
#X obj 544 216 t b b;
#X msg 576 255 stop;
#X obj 617 224 v local-\$0;
#X msg 617 201 2;
#X text 600 294 max record delay;
#X text 682 200 set v to record;
#X text 445 233 start rec;
#X text 428 378 start timer;
#X text 323 247 open the sound;
#X obj 60 240 s 2-vline-\$0;
#X msg 60 217 0;
#X msg 115 211 stop;
#X obj 37 274 del 8;
#X obj 37 304 t b b b b, f 17;
#X msg 544 314 0;
#X obj 544 336 s \$0-auto-oFf;
#X obj 142 11 r \$0-auto-oFf;
#X obj 153 361 s 2-tab-\$0;
#X msg 153 335 stop;
#X obj 37 455 pack s \$2;
#X obj 37 428 symbol \$1;
#X msg 37 499 \; \$1-\$2 normalize;
#X obj 75 359 v local-\$0;
#X msg 75 336 0;
#X obj 242 14 r \$0-stop-recOrd;
#X msg 124 413 0;
#X obj 741 277 pack s \$2;
#X obj 741 250 symbol \$1;
#X msg 741 301 \; \$1-\$2 const 0;
#X obj 37 165 t b b b, f 12;
#X obj 326 169 t b b b b b b, f 54;
#X text 761 232 clear table;
#X obj 37 376 t b b;
#X obj 37 398 spigot \$5;
#X obj 124 436 s \$0-state;
#X obj 37 105 change -1;
#X obj 398 469 i;
#X text 455 427 convert to samples;
#X text 466 447 at least 1ms;
#X connect 0 0 46 0;
#X connect 1 0 3 0;
#X connect 3 0 4 0;
#X connect 4 0 47 0;
#X connect 7 0 40 0;
#X connect 7 1 41 0;
#X connect 9 0 8 0;
#X connect 10 0 25 0;
#X connect 11 0 10 0;
#X connect 11 1 12 0;
#X connect 12 0 10 0;
#X connect 14 0 13 0;
#X connect 21 0 20 0;
#X connect 22 0 23 0;
#X connect 23 0 24 0;
#X connect 24 0 43 0;
#X connect 24 1 34 0;
#X connect 24 2 1 1;
#X connect 24 3 29 0;
#X connect 25 0 26 0;
#X connect 27 0 46 0;
#X connect 29 0 28 0;
#X connect 30 0 32 0;
#X connect 31 0 30 0;
#X connect 34 0 33 0;
#X connect 35 0 46 0;
#X connect 36 0 45 0;
#X connect 37 0 39 0;
#X connect 38 0 37 0;
#X connect 40 0 23 0;
#X connect 40 1 21 0;
#X connect 40 2 22 0;
#X connect 41 0 9 0;
#X connect 41 1 1 0;
#X connect 41 2 5 0;
#X connect 41 3 11 0;
#X connect 41 4 14 0;
#X connect 41 5 38 0;
#X connect 43 0 44 0;
#X connect 43 1 36 0;
#X connect 44 0 31 0;
#X connect 46 0 7 0;
#X connect 47 0 2 0;
#X restore 116 244 pd record!;
#X obj 218 127 r \$0-open-trig;
#X obj 151 220 v local-\$0;
#X msg 151 198 2;
#X obj 117 466 r 2-tab-\$0;
#X obj 116 266 s \$0-size;
#N canvas 119 57 853 578 soundfiler 0;
#X obj 391 327 array define \$1-\$2;
#X obj 391 237 \$3;
#X obj 391 259 * 44.1;
#X msg 391 281 resize \$1;
#X obj 359 162 loadbang;
#X obj 37 362 soundfiler;
#X obj 225 149 symbol \$4;
#X obj 359 184 t b b b, f 24;
#X obj 474 232 s \$0-load-params;
#X obj 244 61 r \$0-load-params;
#X obj 155 79 r \$0-size;
#X obj 137 105 f;
#X obj 137 57 r saveState;
#X obj 484 126 v local-\$0;
#X msg 484 102 0;
#X obj 484 78 r \$0-load-params;
#X obj 166 124 symbol \$1;
#X obj 194 237 symbol \$1;
#X obj 596 255 r \$0-size;
#X obj 596 297 t a b;
#X msg 628 327 0;
#X obj 213 393 r saveState;
#X obj 213 415 symbol \$1;
#X obj 382 352 r \$0-load-params;
#X obj 503 431 symbol \$1;
#X obj 382 399 symbol \$4;
#X obj 37 386 s \$0-size;
#X obj 213 536 text define \$1-\$2-length;
#X obj 596 369 text set \$1-\$2-length;
#X obj 587 343 list;
#X msg 504 502 read ../../\$3/Lengths/\$1-\$2-length.txt;
#X msg 213 483 write ../../\$3/Lengths/\$1-\$2-length.txt;
#X obj 245 82 t b b b;
#X obj 213 457 pack s \$2 s;
#X obj 503 473 pack s \$2 s;
#X obj 138 195 pack 0 s \$2 s;
#X obj 194 263 pack s \$2 s;
#X msg 194 291 read ../../\$3/\$2.wav \$1-\$2;
#X msg 39 333 write -wave -nframes \$1 ../../\$4/\$3.wav \$2-\$3;
#X obj 382 374 t b b;
#X connect 1 0 2 0;
#X connect 2 0 3 0;
#X connect 3 0 0 0;
#X connect 4 0 7 0;
#X connect 5 0 26 0;
#X connect 6 0 35 3;
#X connect 6 0 36 2;
#X connect 7 0 17 0;
#X connect 7 1 1 0;
#X connect 7 2 8 0;
#X connect 9 0 32 0;
#X connect 10 0 11 1;
#X connect 11 0 35 0;
#X connect 12 0 11 0;
#X connect 14 0 13 0;
#X connect 15 0 14 0;
#X connect 16 0 35 1;
#X connect 17 0 36 0;
#X connect 18 0 19 0;
#X connect 19 0 29 0;
#X connect 19 1 20 0;
#X connect 20 0 28 1;
#X connect 21 0 22 0;
#X connect 22 0 33 0;
#X connect 23 0 39 0;
#X connect 24 0 34 0;
#X connect 25 0 33 2;
#X connect 25 0 34 2;
#X connect 29 0 28 0;
#X connect 30 0 27 0;
#X connect 31 0 27 0;
#X connect 32 0 16 0;
#X connect 32 1 6 0;
#X connect 33 0 31 0;
#X connect 34 0 30 0;
#X connect 35 0 38 0;
#X connect 36 0 37 0;
#X connect 37 0 5 0;
#X connect 38 0 5 0;
#X connect 39 0 24 0;
#X connect 39 1 25 0;
#X restore 405 181 pd soundfiler;
#N canvas 8 50 749 525 vline 0;
#X obj 192 206 vline~;
#X msg 192 173 1 8 \, 0 8 \$1;
#X obj 192 146 - 16;
#X obj 192 123 f \$3;
#X obj 169 75 r 2-vline-\$0;
#X obj 169 97 sel 0 1;
#X msg 149 174 0 8;
#X obj 98 304 *~ -1;
#X obj 98 231 sig~ 1;
#X obj 98 253 -~, f 14;
#X obj 98 336 +~ 1;
#X obj 97 278 pow~ 4;
#X obj 98 358 outlet~;
#X connect 0 0 9 1;
#X connect 1 0 0 0;
#X connect 2 0 1 0;
#X connect 3 0 2 0;
#X connect 4 0 5 0;
#X connect 5 0 6 0;
#X connect 5 1 3 0;
#X connect 6 0 0 0;
#X connect 7 0 10 0;
#X connect 8 0 9 0;
#X connect 9 0 11 0;
#X connect 10 0 12 0;
#X connect 11 0 7 0;
#X restore 207 407 pd vline;
#N canvas 23 50 774 536 actions 0;
#X obj 73 98 r \$1-\$2-arm;
#X obj 73 120 t b;
#X obj 73 142 v local-\$0;
#X obj 73 333 s \$0-open-trig;
#X msg 105 258 1;
#X obj 105 281 v local-\$0;
#X obj 212 335 s \$0-open-trig;
#X obj 244 283 v local-\$0;
#X msg 244 260 0;
#X msg 73 258 1;
#X msg 212 260 0;
#X obj 383 283 v local-\$0;
#X msg 383 260 0;
#X obj 351 320 s \$0-stop-recOrd;
#X msg 351 260 0;
#X obj 73 186 t b b b;
#X obj 212 188 t b b b;
#X obj 351 188 t b b b;
#X msg 120 211 1;
#X msg 258 211 0;
#X msg 397 211 0;
#X obj 392 232 s \$0-state;
#X obj 257 232 s \$0-state;
#X obj 119 233 s \$0-state;
#X obj 291 100 r \$1-\$2-kill;
#X obj 73 164 sel 0 1 2, f 60;
#X obj 292 122 t b b;
#X connect 0 0 1 0;
#X connect 1 0 2 0;
#X connect 2 0 25 0;
#X connect 4 0 5 0;
#X connect 8 0 7 0;
#X connect 9 0 3 0;
#X connect 10 0 6 0;
#X connect 12 0 11 0;
#X connect 14 0 13 0;
#X connect 15 0 9 0;
#X connect 15 1 4 0;
#X connect 15 2 18 0;
#X connect 16 0 10 0;
#X connect 16 1 8 0;
#X connect 16 2 19 0;
#X connect 17 0 14 0;
#X connect 17 1 12 0;
#X connect 17 2 20 0;
#X connect 18 0 23 0;
#X connect 19 0 22 0;
#X connect 20 0 21 0;
#X connect 24 0 26 0;
#X connect 25 0 15 0;
#X connect 25 1 16 0;
#X connect 25 2 17 0;
#X connect 26 0 16 0;
#X connect 26 1 14 0;
#X restore 406 233 pd actions;
#X obj 116 173 t b b b, f 17;
#X msg 232 199 2;
#X msg 116 195 1;
#X obj 397 307 r \$0-state;
#X obj 397 417 s \$1-states;
#X obj 397 329 list prepend \$2;
#X obj 397 351 list trim;
#X obj 232 221 s \$0-state;
#X text 525 203 *** IMPORTANT! need to make a folder named Lengths
\, inside whatever folder the 4th argument is ***;
#X text 379 21 Arg1: Sample name(symbol \, e.g. "samp);
#X text 380 44 Arg2: Sample number (integer 0-inf);
#X text 378 66 Arg3: Max Time in ms (integer);
#X text 480 418 <---- all states run to one send with same "sample
name";
#X text 377 96 Arg4: Name of Folder to save sounds to \, located in
the main patch folder (e.g. "Sounds");
#X text 379 136 Arg5: normalize on/off (default 0);
#X connect 0 0 3 0;
#X connect 1 0 2 0;
#X connect 2 0 7 0;
#X connect 2 0 8 0;
#X connect 3 0 7 0;
#X connect 3 0 8 0;
#X connect 6 0 5 0;
#X connect 7 0 19 0;
#X connect 9 0 6 0;
#X connect 10 0 15 0;
#X connect 11 0 7 1;
#X connect 13 0 12 0;
#X connect 14 0 5 0;
#X connect 17 0 6 1;
#X connect 19 0 21 0;
#X connect 19 1 13 0;
#X connect 19 2 20 0;
#X connect 20 0 26 0;
#X connect 21 0 10 0;
#X connect 22 0 24 0;
#X connect 24 0 25 0;
#X connect 25 0 23 0;
