#N canvas 302 50 1550 918 10;
#N canvas 0 50 450 278 (subpatch) 0;
#X array \$1-array 425255 float 2;
#X coords 0 1 425255 -1 335 251 1 0 0;
#X restore 882 260 graph;
#X obj 1238 395 soundfiler;
#X floatatom 1238 426 10 0 0 0 - - -, f 10;
#X floatatom 1238 485 10 0 0 0 - - -, f 10;
#X obj 1238 454 / 44.1;
#X text 1294 454 sample rate / 1000;
#X obj 203 719 line~;
#X obj 60 249 inlet;
#X obj 60 285 bng 15 250 50 0 empty empty empty 17 7 0 10 -262144 -1
-1;
#X obj 39 576 pack 0 0;
#X floatatom 92 518 5 0 0 0 - - -, f 5;
#X floatatom 57 448 5 0 0 0 - - -, f 5;
#X obj 39 474 f;
#X obj 39 526 * 44.1;
#X obj 1238 516 s \$1-duration;
#X obj 204 746 tabread4~ \$1-array;
#X obj 92 492 r \$1-duration;
#X obj 57 423 r \$1-duration;
#X obj 1238 197 bng 15 250 50 0 empty empty empty 17 7 0 10 -262144
-1 -1;
#X obj 1238 223 symbol \$1-array;
#X obj 1238 309 list prepend -resize;
#X obj 1238 337 list prepend read;
#X obj 1238 365 list trim;
#X obj 1238 170 loadbang;
#X text 1118 125 construct the read message using the sound file name
(\$1);
#X obj 1238 245 list;
#X obj 1238 276 list prepend \$1;
#X obj 199 8 r notes;
#X obj 217 179 % 24;
#X obj 204 869 throw~ samp_voice_out;
#X obj 92 540 f;
#X text 274 233 second argument (key number);
#X text 416 27 loads and plays sound file;
#X text 417 49 argument 1: soundfile to load;
#X text 418 70 argument 2: key number to play;
#X text 314 164 allow all midi notes to trigger samples...;
#X obj 162 385 t b b b;
#X text 1314 484 milliseconds;
#X obj 203 790 *~;
#X obj 204 824 hip~ 5;
#X text 284 826 cut DC;
#X floatatom 217 105 5 0 0 0 - - -, f 5;
#X floatatom 257 105 5 0 0 0 - - -, f 5;
#X obj 217 157 abs;
#X obj 217 129 expr if ($f1 > 59 \, $f1 - 60 \, $f1 - 12);
#X obj 199 204 i;
#X obj 200 300 sel 0;
#X obj 199 256 pack 1 1, f 9;
#X obj 199 226 sel \$2;
#X obj 200 279 route 1;
#X floatatom 437 511 5 0 0 0 - - -, f 5;
#X obj 412 545 pack;
#X msg 410 574 \$1 \$2;
#X obj 464 441 r knob2;
#X msg 201 469 0 0;
#X obj 535 387 r \$1-duration;
#X floatatom 532 414 5 0 0 0 - - -, f 5;
#X obj 475 478 *;
#X text 502 360 release set by knob 2 \, up to 100% of sample length
;
#X obj 199 46 t b a;
#X obj 217 81 unpack;
#X obj 261 334 t b b;
#X msg 361 530 0 1;
#X obj 349 627 line~;
#X obj 261 356 delay 2;
#X msg 304 517 1 1;
#X connect 1 0 2 0;
#X connect 2 0 4 0;
#X connect 3 0 14 0;
#X connect 4 0 3 0;
#X connect 6 0 15 0;
#X connect 7 0 8 0;
#X connect 8 0 36 0;
#X connect 9 0 6 0;
#X connect 10 0 30 0;
#X connect 11 0 12 1;
#X connect 12 0 13 0;
#X connect 13 0 9 0;
#X connect 15 0 38 0;
#X connect 16 0 10 0;
#X connect 17 0 11 0;
#X connect 18 0 19 0;
#X connect 19 0 25 0;
#X connect 20 0 21 0;
#X connect 21 0 22 0;
#X connect 22 0 1 0;
#X connect 23 0 18 0;
#X connect 25 0 26 0;
#X connect 26 0 20 0;
#X connect 27 0 59 0;
#X connect 28 0 45 1;
#X connect 30 0 9 1;
#X connect 36 0 12 0;
#X connect 36 1 54 0;
#X connect 36 2 65 0;
#X connect 38 0 39 0;
#X connect 39 0 29 0;
#X connect 41 0 44 0;
#X connect 42 0 47 1;
#X connect 43 0 28 0;
#X connect 44 0 43 0;
#X connect 45 0 48 0;
#X connect 46 0 51 0;
#X connect 46 1 61 0;
#X connect 47 0 49 0;
#X connect 48 0 47 0;
#X connect 49 0 46 0;
#X connect 50 0 51 1;
#X connect 51 0 52 0;
#X connect 52 0 63 0;
#X connect 53 0 57 0;
#X connect 54 0 6 0;
#X connect 55 0 56 0;
#X connect 56 0 57 1;
#X connect 57 0 50 0;
#X connect 59 0 45 0;
#X connect 59 1 60 0;
#X connect 60 0 41 0;
#X connect 60 1 42 0;
#X connect 61 0 64 0;
#X connect 61 1 62 0;
#X connect 62 0 63 0;
#X connect 63 0 38 1;
#X connect 64 0 36 0;
#X connect 65 0 63 0;
