#N canvas 75 50 1447 949 10;
#X obj 92 222 phasor~;
#X obj 617 58 r \$0-pitch-shift;
#X obj 617 122 t b f;
#X obj 617 258 phasor~;
#X obj 617 290 +~ 0.5;
#X obj 617 384 -~ 0.5;
#X obj 617 406 *~ 0.5;
#X obj 617 428 cos~;
#X obj 557 470 *~;
#X obj 617 312 wrap~;
#X obj 723 349 *~ 2205;
#X obj 723 431 tabread4~;
#X obj 796 379 r~ \$0-index;
#X obj 92 506 s~ \$0-index;
#X obj 390 254 +~ 0;
#X obj 332 350 -~ 0.5;
#X obj 332 372 *~ 0.5;
#X obj 332 394 cos~;
#X obj 390 276 *~ 2205;
#X obj 391 397 tabread4~;
#X obj 470 345 r~ \$0-index;
#X obj 372 443 *~;
#X obj 372 515 +~, f 22;
#X obj 155 -58 inlet;
#X obj 1018 -20 inlet;
#X obj 1214 327 r \$0-pointer;
#X obj 372 828 outlet~;
#X obj 372 798 hip~ 5;
#X text 1059 -19 0-1 floating point;
#X text 657 24 0/1 off/on;
#X text 199 -59 control arguments;
#X text 1213 752 playhead 0-1;
#X obj 474 646 vline~;
#X obj 373 684 *~;
#X obj 474 548 r \$0-duck;
#X obj 1369 492 s \$0-duck;
#X obj 1214 714 outlet sample size, f 12;
#X text 564 -62 Time Compression Looper;
#X text 1338 710 get size of sample in ms;
#X obj 1330 665 s \$0-sample-length;
#X obj 1272 666 / 44.1;
#X obj 1272 692 s \$0-sample-length-ms;
#X obj 1214 642 t f f f, f 17;
#X obj 860 150 r \$0-pointer;
#X obj 860 229 list prepend set;
#X obj 860 251 route list;
#X obj 110 399 r \$0-sample-length;
#X obj 134 288 r \$0-chunk-size;
#X obj 150 336 r \$0-read;
#X obj 92 368 wrap~;
#X obj 92 454 *~;
#X obj 101 555 r \$0-chunk-size;
#X obj 101 683 /;
#X obj 115 591 r \$0-sample-length-ms;
#X obj 101 637 *, f 7;
#X obj 115 613 t b a;
#X obj 101 745 f;
#X obj 129 702 r \$0-speed;
#X obj 129 724 t b a;
#X obj 101 767 *, f 4;
#X obj 101 789 s \$0-playback;
#X obj 92 -2 r \$0-playback;
#X msg 101 661 1000 \$1;
#X obj 535 99 -, f 5;
#X obj 617 186 * 20;
#X obj 617 144 +;
#X msg 535 71 1 \$1;
#X obj 535 28 r \$0-speed;
#X text 11 535 caluculate playback speed based on loop length;
#X text 436 78 speed make up;
#X text 664 93 over all shift;
#X obj 112 256 s~ \$0-master-phase;
#X obj 372 647 *~;
#X obj 872 442 r~ \$0-master-phase;
#X obj 617 208 lop~ 500;
#X obj 663 232 r \$0-retrigger;
#X obj 138 199 r \$0-retrigger;
#X obj 1018 64 s \$0-retrigger;
#X obj 1214 498 f;
#X obj 470 397 tabread4~;
#X obj 795 430 tabread4~;
#X obj 453 435 *~;
#X obj 778 477 *~;
#X obj 621 508 +~, f 23;
#X obj 621 650 *~;
#X obj 621 692 *~;
#X obj 622 823 outlet~;
#X obj 621 795 hip~ 5;
#X obj 1058 224 list prepend set;
#X obj 1058 246 route list;
#X text 8 -60 Arg1: Array Name;
#X obj 860 202 makefilename \$1%d-L;
#X obj 1058 199 makefilename \$1%d-R;
#X obj 373 769 *~;
#X obj 621 774 *~;
#X obj 465 739 *~, f 7;
#X obj 734 637 f;
#X obj 639 716 lop~ 5;
#X obj 513 679 ==;
#X obj 513 701 lop~ 5;
#X obj 860 272 s \$0-2-tabberL;
#X obj 1058 268 s \$0-2-tabberR;
#X obj 811 406 r \$0-2-tabberR;
#X obj 480 373 r \$0-2-tabberR;
#N canvas 151 50 1431 480 route-stuff 0;
#X obj 66 16 inlet;
#X obj 354 88 s \$0-pointer;
#X obj 268 106 s \$0-speed;
#X obj 505 93 s \$0-pitch-shift;
#X obj 155 99 wrap;
#X obj 177 430 s \$0-chunk-size;
#X obj 421 408 s \$0-read;
#X msg 216 308 stop;
#X obj 176 405 f;
#X obj 176 256 t b f b b;
#X obj 272 351 s \$0-duck;
#X msg 462 277 stop;
#X obj 422 374 f;
#X obj 422 225 t b f b b;
#X obj 518 320 s \$0-duck;
#X obj 69 59 route length read speed point pitch, f 80;
#X obj 176 359 del 5;
#X obj 422 328 del 5;
#X connect 0 0 15 0;
#X connect 4 0 13 0;
#X connect 7 0 16 0;
#X connect 8 0 5 0;
#X connect 9 0 16 0;
#X connect 9 1 8 1;
#X connect 9 2 7 0;
#X connect 9 3 10 0;
#X connect 11 0 17 0;
#X connect 12 0 6 0;
#X connect 13 0 17 0;
#X connect 13 1 12 1;
#X connect 13 2 11 0;
#X connect 13 3 14 0;
#X connect 15 0 9 0;
#X connect 15 1 4 0;
#X connect 15 2 2 0;
#X connect 15 3 1 0;
#X connect 15 4 3 0;
#X connect 16 0 8 0;
#X connect 17 0 12 0;
#X restore 155 -32 pd route-stuff;
#X obj 792 349 r \$0-2-tabberL;
#X obj 440 317 r \$0-2-tabberL;
#X obj 734 615 r \$0-stereo-switch;
#X obj 1421 450 s \$0-stereo-switch;
#X obj 860 174 t a a a, f 57;
#X obj 1256 222 list prepend set;
#X obj 1256 244 route list;
#X obj 1256 198 makefilename \$1%d-stereo;
#X obj 1256 266 s \$0-2-tabberStereo;
#X obj 1214 550 tabread \$1-rec-lengths;
#X obj 1421 421 tabread \$1-rec-stereo;
#X obj 1214 349 t b f b b f, f 30;
#X obj 802 813 outlet~;
#X obj 465 761 *~ 0.7;
#X obj 887 671 -~ 0.5;
#X obj 887 693 *~ 0.5;
#X obj 887 715 cos~;
#X obj 887 595 r~ \$0-index;
#X obj 887 647 /~;
#X obj 905 624 r \$0-sample-length;
#X obj 887 759 clip~ 0 1;
#X obj 372 567 *~;
#X obj 621 560 *~;
#X text 651 563 array clip env;
#X obj 887 737 *~ 1000;
#X obj 1039 382 r \$0-chunk-size;
#X obj 1039 464 *;
#X obj 1061 407 r \$0-sample-length;
#X obj 1061 429 t b a;
#X obj 92 336 +~ 0;
#X obj 91 314 *~ 1;
#X obj 110 421 - 2;
#X obj 92 476 +~ 1;
#X obj 587 -39 inlet;
#X text 638 -42 on/off;
#X obj 587 -17 s \$0-play-control;
#X obj 215 4 r \$0-play-control;
#X obj 215 26 sel 0 1, f 13;
#X obj 337 178 switch~;
#X msg 215 48 0;
#X obj 92 110 f;
#X obj 92 162 spigot 0;
#X msg 259 47 1;
#X obj 875 483 -~ 0.5;
#X obj 875 505 *~ 0.5;
#X obj 875 527 cos~;
#X obj 875 571 clip~ 0 1;
#X obj 875 549 *~ 1000;
#X obj 1104 449 r \$0-speed;
#X obj 1039 499 *;
#X obj 1079 474 t b a;
#X obj 1039 521 abs;
#X msg 1283 378 stop;
#X obj 1039 558 / 44.1;
#X obj 535 50 abs;
#X msg 474 573 0 5 \, 1 5 5;
#X obj 1214 406 delay 5;
#X obj 215 108 t f f f, f 8;
#X obj 259 78 t b f f;
#X connect 0 0 71 0;
#X connect 0 0 135 0;
#X connect 1 0 2 0;
#X connect 2 0 65 0;
#X connect 2 1 65 1;
#X connect 3 0 4 0;
#X connect 3 0 14 0;
#X connect 4 0 9 0;
#X connect 5 0 6 0;
#X connect 6 0 7 0;
#X connect 7 0 8 0;
#X connect 7 0 82 0;
#X connect 8 0 22 1;
#X connect 9 0 5 0;
#X connect 9 0 10 0;
#X connect 10 0 11 0;
#X connect 10 0 80 0;
#X connect 11 0 8 1;
#X connect 12 0 11 0;
#X connect 12 0 80 0;
#X connect 14 0 15 0;
#X connect 14 0 18 0;
#X connect 15 0 16 0;
#X connect 16 0 17 0;
#X connect 17 0 21 0;
#X connect 17 0 81 0;
#X connect 18 0 19 0;
#X connect 18 0 79 0;
#X connect 19 0 21 1;
#X connect 20 0 19 0;
#X connect 20 0 79 0;
#X connect 21 0 22 0;
#X connect 22 0 126 0;
#X connect 23 0 104 0;
#X connect 24 0 77 0;
#X connect 25 0 116 0;
#X connect 27 0 26 0;
#X connect 32 0 33 1;
#X connect 32 0 85 1;
#X connect 33 0 93 0;
#X connect 33 0 95 0;
#X connect 34 0 160 0;
#X connect 40 0 41 0;
#X connect 42 0 36 0;
#X connect 42 1 40 0;
#X connect 42 2 39 0;
#X connect 43 0 109 0;
#X connect 44 0 45 0;
#X connect 45 0 100 0;
#X connect 46 0 136 0;
#X connect 47 0 135 1;
#X connect 48 0 134 1;
#X connect 49 0 50 0;
#X connect 50 0 137 0;
#X connect 51 0 54 0;
#X connect 52 0 56 0;
#X connect 53 0 55 0;
#X connect 54 0 62 0;
#X connect 55 0 54 0;
#X connect 55 1 54 1;
#X connect 56 0 59 0;
#X connect 57 0 58 0;
#X connect 58 0 56 0;
#X connect 58 1 59 1;
#X connect 59 0 60 0;
#X connect 61 0 145 0;
#X connect 62 0 52 0;
#X connect 63 0 65 0;
#X connect 64 0 74 0;
#X connect 65 0 64 0;
#X connect 66 0 63 0;
#X connect 67 0 159 0;
#X connect 72 0 33 0;
#X connect 73 0 117 0;
#X connect 73 0 148 0;
#X connect 74 0 3 0;
#X connect 75 0 3 1;
#X connect 76 0 0 1;
#X connect 78 0 114 0;
#X connect 79 0 81 1;
#X connect 80 0 82 1;
#X connect 81 0 83 0;
#X connect 82 0 83 1;
#X connect 83 0 127 0;
#X connect 84 0 85 0;
#X connect 85 0 94 0;
#X connect 85 0 95 0;
#X connect 87 0 86 0;
#X connect 88 0 89 0;
#X connect 89 0 101 0;
#X connect 91 0 44 0;
#X connect 92 0 88 0;
#X connect 93 0 27 0;
#X connect 94 0 87 0;
#X connect 95 0 118 0;
#X connect 96 0 97 0;
#X connect 96 0 98 0;
#X connect 97 0 93 1;
#X connect 97 0 94 1;
#X connect 98 0 99 0;
#X connect 99 0 95 1;
#X connect 102 0 80 0;
#X connect 103 0 79 0;
#X connect 105 0 11 0;
#X connect 106 0 19 0;
#X connect 107 0 96 0;
#X connect 109 0 91 0;
#X connect 109 1 92 0;
#X connect 109 2 112 0;
#X connect 110 0 111 0;
#X connect 111 0 113 0;
#X connect 112 0 110 0;
#X connect 114 0 42 0;
#X connect 115 0 108 0;
#X connect 116 0 161 0;
#X connect 116 1 78 1;
#X connect 116 2 157 0;
#X connect 116 3 35 0;
#X connect 116 4 115 0;
#X connect 118 0 27 0;
#X connect 118 0 87 0;
#X connect 119 0 120 0;
#X connect 120 0 121 0;
#X connect 121 0 129 0;
#X connect 122 0 123 0;
#X connect 123 0 119 0;
#X connect 124 0 123 1;
#X connect 125 0 127 1;
#X connect 125 0 126 1;
#X connect 126 0 72 0;
#X connect 127 0 84 0;
#X connect 129 0 125 0;
#X connect 130 0 131 0;
#X connect 131 0 154 0;
#X connect 132 0 133 0;
#X connect 133 0 131 0;
#X connect 133 1 131 1;
#X connect 134 0 49 0;
#X connect 135 0 134 0;
#X connect 136 0 50 1;
#X connect 137 0 13 0;
#X connect 138 0 140 0;
#X connect 141 0 142 0;
#X connect 142 0 144 0;
#X connect 142 1 147 0;
#X connect 144 0 162 0;
#X connect 145 0 146 0;
#X connect 146 0 0 0;
#X connect 147 0 163 0;
#X connect 148 0 149 0;
#X connect 149 0 150 0;
#X connect 150 0 152 0;
#X connect 151 0 84 1;
#X connect 151 0 72 1;
#X connect 152 0 151 0;
#X connect 153 0 155 0;
#X connect 154 0 156 0;
#X connect 155 0 154 0;
#X connect 155 1 154 1;
#X connect 156 0 158 0;
#X connect 157 0 161 0;
#X connect 158 0 129 1;
#X connect 158 0 152 1;
#X connect 159 0 66 0;
#X connect 160 0 32 0;
#X connect 161 0 78 0;
#X connect 162 0 0 0;
#X connect 162 1 146 1;
#X connect 162 2 143 0;
#X connect 163 0 145 0;
#X connect 163 1 146 1;
#X connect 163 2 143 0;
