#N canvas 256 50 1386 855 10;
#X obj 240 554 loadbang;
#X obj 240 576 del 20;
#X obj 117 522 r mutate-tracker;
#N canvas 26 50 1099 654 labels 0;
#X obj 230 175 r notes;
#X obj 230 237 stripnote;
#X obj 230 323 % 24;
#X obj 230 297 abs;
#X obj 230 268 expr if ($f1 > 59 \, $f1 - 60 \, $f1 - 12);
#X obj 230 434 text get mutate-labels;
#X obj 655 414 text define mutate-labels;
#X msg 655 334 read labels.txt;
#X msg 695 360 write labels.txt;
#X obj 655 286 loadbang;
#X obj 230 456 s screenLine5;
#X obj 230 216 spigot 1, f 19;
#X obj 360 66 r mutate-parent-aux;
#X obj 413 95 r mutate-state;
#X obj 360 161 spigot 0;
#X obj 413 117 sel 0 1 2;
#X msg 413 139 0;
#X msg 453 139 1;
#X obj 360 183 ==;
#X obj 875 412 text define note-params;
#X msg 908 362 write params.txt;
#X obj 875 286 loadbang;
#X msg 875 334 read params.txt;
#X connect 0 0 11 0;
#X connect 1 0 4 0;
#X connect 2 0 5 0;
#X connect 3 0 2 0;
#X connect 4 0 3 0;
#X connect 5 0 10 0;
#X connect 7 0 6 0;
#X connect 9 0 7 0;
#X connect 11 0 1 0;
#X connect 12 0 14 0;
#X connect 13 0 15 0;
#X connect 14 0 18 0;
#X connect 15 0 16 0;
#X connect 15 1 16 0;
#X connect 15 2 17 0;
#X connect 16 0 14 1;
#X connect 17 0 14 1;
#X connect 18 0 11 1;
#X connect 21 0 22 0;
#X connect 22 0 19 0;
#X restore 130 256 pd labels;
#X text 115 498 print the keyboard;
#X obj 117 607 cg-print-kb-vel 36;
#N canvas 21 50 835 649 states 0;
#X obj 300 199 r aux;
#X obj 300 251 list prepend;
#X obj 381 220 r mutate-state;
#X obj 300 303 route 0 1 2, f 19;
#X obj 300 405 s mutate-record-aux;
#X obj 343 365 s mutate-jam-aux;
#X obj 349 200 r fs;
#X obj 386 337 s mutate-parent-aux;
#X connect 0 0 1 0;
#X connect 1 0 3 0;
#X connect 2 0 1 1;
#X connect 3 0 4 0;
#X connect 3 1 5 0;
#X connect 3 2 7 0;
#X connect 6 0 1 0;
#X restore 128 77 pd states;
#N canvas 40 50 1196 810 the-recorder 0;
#X obj 474 167 f, f 11;
#X obj 474 114 sel 1;
#X obj 474 74 t f f, f 11;
#X obj 474 193 sel 1;
#X obj 474 284 tgl 15 0 empty empty empty 17 7 0 10 -262144 -1 -1 0
1;
#X msg 474 235 1;
#X obj 535 220 sel 1;
#X msg 535 242 0;
#X obj 474 337 sel 0 1 2, f 27;
#X msg 474 612 0;
#X obj 474 634 s led;
#X obj 536 558 s led;
#X msg 582 549 \; screenLine5 Record Ready;
#X msg 536 536 6;
#X obj 598 448 s led;
#X msg 598 426 1;
#X obj 474 139 del 700;
#X obj 474 47 r mutate-record-aux;
#X obj 535 195 r mutate-record-aux;
#X obj 474 309 cg-rec-array-2 mutate 0 0 12000;
#X obj 607 762 s mutate-master-point;
#X msg 607 721 0;
#X obj 607 672 spigot 0, f 17;
#X obj 607 694 t b b, f 8;
#X msg 660 719 0;
#X msg 672 388 1;
#X obj 830 538 + 1;
#X msg 797 472 1;
#X obj 835 454 t b b;
#X msg 867 476 0;
#X msg 835 477 0;
#X obj 797 509 metro 100;
#X obj 797 566 * 0.1;
#X msg 797 599 \; screenLine5 Recording: \$1 secs;
#X obj 797 538 f 0;
#X obj 536 514 t b b b;
#X obj 598 364 t b b b b, f 16;
#X obj 820 711 spigot 0;
#X msg 713 404 1;
#X obj 474 586 t b b b b b, f 13;
#X obj 820 733 t b b;
#X msg 907 711 0;
#X msg 820 755 0;
#X obj 820 776 v m-m-p;
#X obj 295 298 r mutate-state;
#X msg 519 621 \; screenLine5 Hold Aux to Record;
#X obj 295 330 sel 0;
#X obj 900 785 s knob4;
#X msg 900 761 1;
#X obj 341 353 t b;
#X connect 0 0 3 0;
#X connect 1 0 16 0;
#X connect 2 0 1 0;
#X connect 2 1 0 1;
#X connect 3 0 5 0;
#X connect 4 0 19 0;
#X connect 5 0 4 0;
#X connect 6 0 7 0;
#X connect 7 0 4 0;
#X connect 8 0 39 0;
#X connect 8 1 35 0;
#X connect 8 2 36 0;
#X connect 9 0 10 0;
#X connect 13 0 11 0;
#X connect 15 0 14 0;
#X connect 16 0 0 0;
#X connect 17 0 2 0;
#X connect 18 0 6 0;
#X connect 19 0 8 0;
#X connect 21 0 20 0;
#X connect 22 0 23 0;
#X connect 23 0 21 0;
#X connect 23 1 24 0;
#X connect 24 0 22 1;
#X connect 25 0 22 1;
#X connect 26 0 34 1;
#X connect 27 0 31 0;
#X connect 28 0 30 0;
#X connect 28 1 29 0;
#X connect 29 0 34 1;
#X connect 30 0 31 0;
#X connect 31 0 34 0;
#X connect 32 0 33 0;
#X connect 34 0 26 0;
#X connect 34 0 32 0;
#X connect 35 0 13 0;
#X connect 35 1 12 0;
#X connect 35 2 28 0;
#X connect 36 0 15 0;
#X connect 36 1 27 0;
#X connect 36 2 25 0;
#X connect 36 3 38 0;
#X connect 37 0 40 0;
#X connect 38 0 37 1;
#X connect 39 0 9 0;
#X connect 39 1 45 0;
#X connect 39 2 22 0;
#X connect 39 3 28 0;
#X connect 39 4 37 0;
#X connect 40 0 42 0;
#X connect 40 0 48 0;
#X connect 40 1 41 0;
#X connect 41 0 37 1;
#X connect 42 0 43 0;
#X connect 44 0 46 0;
#X connect 46 0 45 0;
#X connect 46 1 49 0;
#X connect 48 0 47 0;
#X connect 49 0 7 0;
#X restore 127 133 pd the-recorder;
#N canvas 146 50 1457 896 the-offspring-maker 0;
#X obj 613 43 r notes;
#X obj 729 163 r mutate-parent-aux;
#X obj 380 546 + 1;
#X obj 380 524 f 0;
#X obj 380 568 % 4;
#X obj 231 413 t b b, f 9;
#X msg 282 458 0;
#X msg 305 406 1;
#N canvas 262 50 1440 717 size-record-first 0;
#X obj 290 51 inlet;
#N canvas 768 343 610 517 clear-array-set-new-write 0;
#X obj 200 142 v m-m-p;
#X obj 200 164 sel 0 1 2, f 16;
#X msg 200 196 1;
#X msg 236 195 2;
#X msg 232 258 \; mutate\$1-R const 0 \; mutate\$1-L const 0 \;;
#X obj 200 230 t f f;
#X obj 200 69 inlet;
#X obj 200 315 s mutate-record-child-point;
#X connect 0 0 1 0;
#X connect 1 0 2 0;
#X connect 1 1 3 0;
#X connect 1 2 2 0;
#X connect 2 0 5 0;
#X connect 3 0 5 0;
#X connect 5 0 7 0;
#X connect 5 1 4 0;
#X connect 6 0 0 0;
#X restore 1001 197 pd clear-array-set-new-write;
#N canvas 51 50 1196 853 get-length-of-first-module 0;
#X text 645 286 get original length;
#X obj 447 288 tabread mutate-rec-lengths;
#X obj 447 242 v m-m-p;
#X text 505 242 current array;
#X obj 447 90 inlet;
#X obj 447 112 t b f;
#X obj 447 514 t f f;
#X obj 517 585 s \$0-new-length;
#X obj 507 455 r mutate-length;
#X obj 447 480 * 1, f 9;
#X text 627 456 divide by the global length;
#X obj 447 413 * 1, f 9;
#X obj 470 667 s \$0-new-length-ms;
#X msg 507 359 1 \$1;
#X obj 507 381 /;
#X obj 447 591 max 50;
#X obj 449 622 min 24000;
#X obj 447 326 / 44.1;
#X obj 517 557 * 44.1;
#X obj 479 137 text get note-params;
#X obj 479 182 unpack 0 0 0 0, f 29;
#X obj 539 330 abs;
#X connect 1 0 17 0;
#X connect 2 0 1 0;
#X connect 4 0 5 0;
#X connect 5 0 2 0;
#X connect 5 1 19 0;
#X connect 6 0 15 0;
#X connect 6 1 18 0;
#X connect 8 0 9 1;
#X connect 9 0 6 0;
#X connect 11 0 9 0;
#X connect 13 0 14 0;
#X connect 14 0 11 1;
#X connect 15 0 16 0;
#X connect 16 0 12 0;
#X connect 17 0 11 0;
#X connect 18 0 7 0;
#X connect 19 0 20 0;
#X connect 20 1 21 0;
#X connect 21 0 13 0;
#X restore 823 276 pd get-length-of-first-module;
#N canvas 78 66 1790 978 start-recording 0;
#X obj 105 35 catch~ mutate-recR;
#X msg 873 493 stop;
#X msg 416 686 set mutate\$1-L;
#X msg 152 678 set mutate\$1-R;
#X msg 801 390 \$1 0;
#X obj 801 364 f, f 7;
#X obj 801 418 s mutate-rec-notes;
#X obj 847 334 r \$0-rec-note;
#X obj 740 846 t a b;
#X obj 740 817 tabread mutate-rec-stereo;
#X msg 740 785 0;
#X obj 740 903 tabwrite mutate-rec-stereo;
#X obj 919 881 f;
#X obj 346 36 catch~ mutate-recL;
#X obj 802 556 s mutate-recording-child;
#X msg 802 527 0;
#X obj 354 720 tabwrite~;
#X obj 108 717 tabwrite~;
#X text 773 785 refer to the recorded array;
#X obj 937 845 r mutate-record-child-point;
#X text 931 904 make the child stereo or mono;
#X obj 589 24 inlet bang;
#X obj 197 596 r \$0-2-tabwrites;
#X obj 717 154 s \$0-2-tabwrites;
#X obj 873 513 s \$0-2-tabwrites;
#X obj 403 575 t a a;
#X obj 403 553 r \$0-set-tabwrites;
#X obj 348 231 hip~ 5;
#X obj 105 227 hip~ 5;
#X obj 1098 201 s \$0-set-tabwrites;
#X obj 1098 173 r mutate-record-child-point;
#X obj 957 217 s mutate-rec-notes;
#X msg 957 186 \$1 100;
#X obj 803 87 s \$0-rec-note;
#X obj 957 158 r \$0-rec-note;
#X text 573 736 change the read array;
#X msg 908 312 stop;
#X obj 805 698 r \$0-new-length;
#X obj 787 723 f;
#X obj 643 564 v m-m-p;
#X obj 787 745 tabwrite mutate-rec-lengths;
#X text 844 715 plug in the new length;
#X text 607 589 flip to new array;
#X obj 805 602 r mutate-record-child-point;
#X obj 787 650 f;
#X obj 980 13 r \$0-new-length-ms;
#X obj 129 175 *~;
#X obj 377 63 r~ inL;
#X obj 377 175 *~;
#X obj 129 63 r~ inR;
#X obj 224 75 r inlet-volume;
#X obj 224 97 lop~ 5;
#X msg 620 671 1;
#X obj 620 702 s knob4;
#X obj 679 702 s knob3;
#X msg 679 671 0;
#X obj 749 218 f;
#X msg 717 125 start 0;
#X obj 589 289 t b b b b, f 46;
#X msg 616 124 stop;
#X obj 589 59 t b b b b b f, f 31;
#X obj 589 464 t b b b b b, f 41;
#X obj 787 676 t b f, f 32;
#X obj 643 530 f;
#X obj 589 626 t b b b b, f 22;
#X obj 589 260 del, f 9;
#X obj 354 681 *~ 1;
#X obj 107 675 *~ 1;
#X obj 589 486 del 10;
#X obj 589 508 t b b b, f 16;
#X obj 589 432 del 50;
#X obj 980 35 + 10;
#X obj 349 333 delwrite~ yo-R 61;
#X obj 105 329 delwrite~ yo-L 61;
#X obj 353 369 delread~ yo-R 50;
#X obj 109 371 delread~ yo-L 50;
#X obj 717 98 del 25;
#X obj 153 464 tb_peakcomp~ -3 8 10 100 0;
#X obj 151 494 clip~ -1 1;
#X obj 243 486 clip~ -1 1;
#X connect 0 0 28 0;
#X connect 1 0 24 0;
#X connect 2 0 16 0;
#X connect 3 0 17 0;
#X connect 4 0 6 0;
#X connect 5 0 4 0;
#X connect 7 0 5 1;
#X connect 8 0 11 0;
#X connect 8 1 12 0;
#X connect 9 0 8 0;
#X connect 10 0 9 0;
#X connect 12 0 11 1;
#X connect 13 0 27 0;
#X connect 15 0 14 0;
#X connect 19 0 12 1;
#X connect 21 0 60 0;
#X connect 22 0 17 0;
#X connect 22 0 16 0;
#X connect 25 0 3 0;
#X connect 25 1 2 0;
#X connect 26 0 25 0;
#X connect 27 0 72 0;
#X connect 28 0 73 0;
#X connect 30 0 29 0;
#X connect 32 0 31 0;
#X connect 34 0 32 0;
#X connect 36 0 70 0;
#X connect 37 0 38 1;
#X connect 38 0 40 0;
#X connect 43 0 44 1;
#X connect 43 0 63 1;
#X connect 44 0 62 0;
#X connect 45 0 71 0;
#X connect 46 0 28 0;
#X connect 47 0 48 0;
#X connect 48 0 27 0;
#X connect 49 0 46 0;
#X connect 50 0 51 0;
#X connect 51 0 46 1;
#X connect 51 0 48 1;
#X connect 52 0 53 0;
#X connect 55 0 54 0;
#X connect 56 0 65 1;
#X connect 57 0 23 0;
#X connect 58 0 70 0;
#X connect 58 2 5 0;
#X connect 58 3 36 0;
#X connect 59 0 65 0;
#X connect 60 0 65 0;
#X connect 60 1 56 0;
#X connect 60 3 76 0;
#X connect 60 4 59 0;
#X connect 60 5 33 0;
#X connect 61 0 68 0;
#X connect 61 3 15 0;
#X connect 61 4 1 0;
#X connect 62 0 38 0;
#X connect 62 1 40 1;
#X connect 63 0 39 0;
#X connect 64 1 52 0;
#X connect 64 2 55 0;
#X connect 64 3 10 0;
#X connect 65 0 58 0;
#X connect 66 0 16 0;
#X connect 67 0 17 0;
#X connect 68 0 69 0;
#X connect 69 0 64 0;
#X connect 69 1 63 0;
#X connect 69 2 44 0;
#X connect 70 0 61 0;
#X connect 71 0 56 1;
#X connect 74 0 77 1;
#X connect 75 0 77 0;
#X connect 76 0 57 0;
#X connect 77 0 78 0;
#X connect 77 1 79 0;
#X connect 78 0 67 0;
#X connect 79 0 66 0;
#X restore 290 209 pd start-recording;
#X obj 471 264 s mutate-recording-child;
#X text 450 282 global parameter to know when recording a child;
#X msg 471 233 1;
#X obj 290 167 t f b f b, f 102;
#X connect 0 0 7 0;
#X connect 6 0 4 0;
#X connect 7 0 3 0;
#X connect 7 1 6 0;
#X connect 7 2 2 0;
#X connect 7 3 1 0;
#X restore 748 539 pd size-record-first;
#N canvas 393 172 682 637 second-notes 0;
#X obj 282 250 bag;
#X obj 231 178 t a a;
#X msg 316 210 flush;
#X obj 231 320 s mutate-rec-notes;
#X obj 151 41 inlet;
#X obj 151 63 list split 1;
#X obj 191 83 list split 1;
#X obj 231 103 list split 1;
#X msg 231 155 \$1 100;
#X obj 282 272 pack 0 0;
#X obj 316 152 r mutate-recording-child;
#X obj 316 179 sel 0;
#X connect 0 0 9 0;
#X connect 1 0 3 0;
#X connect 1 1 0 0;
#X connect 2 0 0 0;
#X connect 4 0 5 0;
#X connect 5 0 8 0;
#X connect 5 1 6 0;
#X connect 6 0 8 0;
#X connect 6 1 7 0;
#X connect 7 0 8 0;
#X connect 8 0 1 0;
#X connect 9 0 3 0;
#X connect 10 0 11 0;
#X connect 11 0 2 0;
#X restore 708 564 pd second-notes;
#N canvas 398 126 1067 819 4-notes-2-list 0;
#X text 85 24 listen for up to 4 incoming notes \, make a list;
#X obj 186 42 inlet notes;
#X obj 643 451 + 1;
#X obj 557 652 list append, f 23;
#X obj 557 568 t b a;
#X msg 827 339 0;
#X obj 557 631 list append;
#X obj 610 451 f 0;
#X obj 610 473 sel 3;
#X msg 777 337 1;
#X msg 610 501 0;
#X obj 462 682 list append, f 14;
#X obj 716 258 inlet toggle;
#X obj 716 280 sel 0 1, f 18;
#X obj 716 302 t b b;
#X msg 748 337 0;
#X obj 529 767 outlet;
#X obj 777 315 t b b b b b, f 22;
#X obj 462 704 route bang;
#X obj 631 531 loadbang;
#X obj 186 319 text set note-list;
#X obj 269 267 + 1;
#X obj 227 289 % 4;
#X obj 186 240 t a b;
#X msg 245 239 0;
#X obj 227 267 f 0;
#X obj 245 208 r \$0-restart-count;
#X obj 525 211 text search note-list;
#X obj 525 233 route -1;
#X obj 525 255 t b;
#X obj 186 164 t a a a, f 106;
#X obj 525 284 f;
#X obj 689 753 text define note-list;
#X msg 689 726 clear;
#X obj 877 704 s \$0-restart-count;
#X obj 811 618 r \$0-spigot-child;
#X obj 811 640 sel 0;
#X obj 812 666 t b b;
#X obj 777 412 s \$0-spigot-child;
#X obj 557 424 t a b, f 8;
#X obj 186 66 stripnote;
#X obj 186 88 pack 0 0;
#X obj 843 203 unpack;
#X obj 186 125 spigot 0, f 12;
#X obj 267 97 r \$0-spigot-child;
#X connect 1 0 40 0;
#X connect 2 0 7 1;
#X connect 3 0 6 1;
#X connect 3 0 11 1;
#X connect 4 0 6 0;
#X connect 4 1 3 1;
#X connect 5 0 7 1;
#X connect 6 0 3 0;
#X connect 7 0 2 0;
#X connect 7 0 8 0;
#X connect 8 0 10 0;
#X connect 9 0 38 0;
#X connect 10 0 38 0;
#X connect 11 0 18 0;
#X connect 12 0 13 0;
#X connect 13 0 14 0;
#X connect 13 1 17 0;
#X connect 14 0 11 0;
#X connect 14 1 15 0;
#X connect 15 0 38 0;
#X connect 17 0 9 0;
#X connect 17 1 5 0;
#X connect 17 2 6 1;
#X connect 17 3 3 1;
#X connect 17 4 11 1;
#X connect 18 1 16 0;
#X connect 19 0 6 1;
#X connect 19 0 3 1;
#X connect 19 0 11 1;
#X connect 21 0 25 1;
#X connect 22 0 20 1;
#X connect 23 0 20 0;
#X connect 23 1 25 0;
#X connect 24 0 25 1;
#X connect 25 0 21 0;
#X connect 25 0 22 0;
#X connect 26 0 24 0;
#X connect 27 0 28 0;
#X connect 28 0 29 0;
#X connect 29 0 31 0;
#X connect 30 0 23 0;
#X connect 30 1 27 0;
#X connect 30 2 42 0;
#X connect 31 0 39 0;
#X connect 33 0 32 0;
#X connect 35 0 36 0;
#X connect 36 0 37 0;
#X connect 37 0 33 0;
#X connect 37 1 34 0;
#X connect 39 0 4 0;
#X connect 39 1 7 0;
#X connect 40 0 41 0;
#X connect 40 1 41 1;
#X connect 41 0 43 0;
#X connect 42 0 31 1;
#X connect 43 0 30 0;
#X connect 44 0 43 1;
#X restore 613 328 pd 4-notes-2-list;
#X obj 613 259 spigot 1, f 9;
#X obj 708 512 list split 1;
#X obj 231 633 list;
#X obj 613 700 s screenLine5;
#X obj 613 679 list append, f 17;
#X obj 380 660 sel 0 1 2 3;
#X obj 679 596 t b a, f 10;
#X obj 231 705 s screenLine5;
#X obj 231 682 list prepend New P :;
#X obj 782 192 r mutate-state;
#X obj 729 298 spigot 0;
#X obj 782 214 sel 0 1 2;
#X msg 782 236 0;
#X msg 822 236 1;
#X obj 708 430 t a a;
#X obj 735 458 list length;
#X obj 735 480 - 1;
#X obj 613 208 % 24;
#X obj 613 182 abs;
#X obj 613 133 expr if ($f1 > 59 \, $f1 - 60 \, $f1 - 12);
#X obj 613 230 pack 0 0;
#X obj 613 95 unpack 0 0;
#X obj 231 655 route 1;
#X msg 231 604 1;
#X obj 613 598 list;
#X obj 613 620 route 1;
#X msg 613 569 1;
#X obj 613 545 t b a, f 7;
#X obj 613 65 spigot, f 19;
#X obj 782 258 t f f;
#X obj 412 76 r mutate-recording-child;
#X obj 231 195 r mutate-recording-child;
#X obj 231 217 sel 0 1, f 17;
#X obj 423 100 ==;
#X obj 1007 591 s screenLine5;
#X obj 1007 487 r mutate-state;
#X obj 1007 516 sel 2;
#X obj 1219 328 r mutate-state;
#X obj 1252 374 t b;
#X obj 1219 351 sel 2;
#X obj 1159 436 spigot, f 9;
#X obj 1159 340 r aux;
#X obj 1168 370 r fs;
#X obj 1159 498 sel 1 0;
#X obj 1159 598 s screenLine5;
#X msg 1159 570 ..Select Mutations;
#X obj 1250 449 r mutate-recording-child;
#X obj 1250 471 ==;
#X obj 1159 468 spigot 1;
#X msg 1219 372 1;
#X msg 1252 396 0;
#X obj 1111 603 s led;
#X msg 415 699 0;
#X msg 380 699 1;
#X obj 380 820 s led;
#X msg 1111 575 5;
#X msg 1182 534 0;
#X obj 429 752 sel 0, f 7;
#X obj 429 729 r mutate-recording-child;
#X msg 429 774 0;
#X obj 468 774 t b;
#X msg 468 796 1;
#X obj 380 502 metro 190;
#X msg 344 330 1;
#X msg 378 331 0;
#X obj 344 367 metro 100;
#X obj 344 424 * 0.1;
#X obj 344 396 f 0;
#X msg 344 457 \$1 scs;
#X obj 613 650 list append ->;
#N canvas 14 50 1468 879 arrays 0;
#X msg 111 117 \; mutate1-L resize \$1 \; mutate1-R resize \$1 \; mutate2-L
resize \$1 \; mutate2-R resize \$1 \;;
#X obj 111 48 loadbang;
#X obj 111 90 * 44.1;
#X msg 111 69 24000;
#X text 293 103 maximum size is *2(0.5 speed) for the slowest setting
;
#X obj 198 283 array define mutate1-R 1;
#X obj 198 307 array define mutate1-L 1;
#X obj 398 284 array define mutate2-R 1;
#X obj 397 307 array define mutate2-L 1;
#X obj 709 586 soundfiler;
#X obj 709 343 t b b, f 16;
#X obj 709 307 r saveState;
#X obj 709 518 tabread mutate-rec-lengths;
#X msg 709 365 1;
#X obj 818 407 tabread mutate-rec-lengths;
#X msg 818 374 2;
#X msg 709 554 write -nframes \$1 1.wav mutate1-L mutate1-R;
#X msg 818 433 write -nframes \$1 2.wav mutate2-L mutate2-R;
#X obj 818 467 soundfiler;
#X obj 715 244 soundfiler;
#X obj 715 101 t b b, f 16;
#X obj 824 175 soundfiler;
#X obj 715 65 loadbang;
#X msg 824 141 read 2.wav mutate2-L mutate2-R;
#X msg 715 212 read 1.wav mutate1-L mutate1-R;
#X connect 1 0 3 0;
#X connect 2 0 0 0;
#X connect 3 0 2 0;
#X connect 10 0 13 0;
#X connect 10 1 15 0;
#X connect 11 0 10 0;
#X connect 12 0 16 0;
#X connect 13 0 12 0;
#X connect 14 0 17 0;
#X connect 15 0 14 0;
#X connect 16 0 9 0;
#X connect 17 0 18 0;
#X connect 20 0 24 0;
#X connect 20 1 23 0;
#X connect 22 0 20 0;
#X connect 23 0 21 0;
#X connect 24 0 19 0;
#X restore 32 39 pd arrays;
#X msg 1007 548 Hold Aux...;
#X obj 412 628 s child-metro;
#X obj 380 590 t f b;
#X obj 443 274 r \$0-new-length-ms;
#X obj 377 396 - 1;
#X obj 443 296 * 0.01;
#X obj 425 341 f;
#X obj 443 318 i;
#X obj 367 271 t b b;
#X obj 873 391 s screenLine5;
#X obj 613 400 t a a, f 14;
#X obj 613 290 t a b;
#X obj 873 343 spigot 0;
#X msg 992 336 1;
#X msg 994 363 0;
#X msg 873 369 Release Aux!;
#X connect 0 0 39 0;
#X connect 1 0 21 0;
#X connect 2 0 3 1;
#X connect 2 0 4 0;
#X connect 3 0 2 0;
#X connect 4 0 84 0;
#X connect 5 0 34 0;
#X connect 5 1 6 0;
#X connect 6 0 73 0;
#X connect 7 0 73 0;
#X connect 10 0 92 0;
#X connect 11 0 93 0;
#X connect 12 0 9 0;
#X connect 12 1 8 0;
#X connect 13 0 33 0;
#X connect 15 0 14 0;
#X connect 16 0 64 0;
#X connect 16 1 63 0;
#X connect 16 2 64 0;
#X connect 16 3 63 0;
#X connect 17 0 37 0;
#X connect 17 1 15 1;
#X connect 19 0 18 0;
#X connect 20 0 22 0;
#X connect 21 0 10 1;
#X connect 22 0 23 0;
#X connect 22 1 23 0;
#X connect 22 2 24 0;
#X connect 23 0 40 0;
#X connect 24 0 40 0;
#X connect 25 0 12 0;
#X connect 25 1 26 0;
#X connect 26 0 27 0;
#X connect 27 0 12 1;
#X connect 28 0 31 0;
#X connect 29 0 28 0;
#X connect 30 0 29 0;
#X connect 31 0 11 0;
#X connect 32 0 30 0;
#X connect 32 1 31 1;
#X connect 33 0 19 0;
#X connect 34 0 13 0;
#X connect 35 0 36 0;
#X connect 36 0 80 0;
#X connect 37 0 35 0;
#X connect 38 0 37 0;
#X connect 38 1 35 1;
#X connect 39 0 32 0;
#X connect 40 0 21 1;
#X connect 40 1 39 1;
#X connect 41 0 44 0;
#X connect 42 0 43 0;
#X connect 43 0 5 0;
#X connect 43 0 75 0;
#X connect 43 1 7 0;
#X connect 43 1 90 0;
#X connect 44 0 11 1;
#X connect 46 0 47 0;
#X connect 47 0 82 0;
#X connect 48 0 50 0;
#X connect 49 0 61 0;
#X connect 50 0 60 0;
#X connect 50 1 49 0;
#X connect 51 0 59 0;
#X connect 52 0 51 0;
#X connect 53 0 51 0;
#X connect 54 0 56 0;
#X connect 54 0 66 0;
#X connect 54 0 95 0;
#X connect 54 1 82 0;
#X connect 54 1 67 0;
#X connect 54 1 96 0;
#X connect 56 0 55 0;
#X connect 57 0 58 0;
#X connect 58 0 59 1;
#X connect 59 0 54 0;
#X connect 60 0 51 1;
#X connect 61 0 51 1;
#X connect 63 0 65 0;
#X connect 64 0 65 0;
#X connect 66 0 62 0;
#X connect 67 0 62 0;
#X connect 68 0 70 0;
#X connect 68 1 71 0;
#X connect 69 0 68 0;
#X connect 70 0 65 0;
#X connect 71 0 72 0;
#X connect 72 0 65 0;
#X connect 73 0 3 0;
#X connect 74 0 76 0;
#X connect 75 0 76 0;
#X connect 76 0 78 0;
#X connect 77 0 79 0;
#X connect 78 0 77 0;
#X connect 78 0 86 0;
#X connect 79 0 17 0;
#X connect 80 0 15 0;
#X connect 82 0 45 0;
#X connect 84 0 16 0;
#X connect 84 1 83 0;
#X connect 85 0 87 0;
#X connect 86 0 78 1;
#X connect 87 0 89 0;
#X connect 88 0 78 1;
#X connect 89 0 88 1;
#X connect 90 0 74 0;
#X connect 90 1 88 0;
#X connect 92 0 13 1;
#X connect 92 0 38 0;
#X connect 92 1 25 0;
#X connect 93 0 10 0;
#X connect 93 1 94 0;
#X connect 94 0 97 0;
#X connect 95 0 94 1;
#X connect 96 0 94 1;
#X connect 97 0 91 0;
#X restore 125 173 pd the-offspring-maker;
#N canvas 27 50 1144 784 the-knobs 0;
#X obj 163 404 r~ inL;
#X obj 338 419 r~ inR;
#X obj 162 501 throw~ outL;
#X obj 338 506 throw~ outR;
#X obj 217 378 lop~ 5;
#X obj 235 264 * 100;
#X obj 235 286 i;
#X obj 187 451 catch~ mutate-busL;
#X obj 372 456 catch~ mutate-busR;
#X obj 525 496 s mutate-read;
#X obj 673 543 s mutate-length;
#X obj 539 380 * 100;
#X obj 539 402 i;
#X obj 725 386 * 100;
#X obj 725 408 i;
#X obj 673 358 max 0.01;
#X obj 315 112 i;
#X obj 315 58 max 0.01;
#X obj 315 90 * 3;
#X obj 315 254 sel 0 1 2, f 31;
#X obj 355 226 s mutate-state;
#X obj 163 426 *~;
#X obj 338 441 *~;
#X obj 525 340 r knob3;
#X obj 673 336 r knob4;
#X msg 725 430 \$1%;
#X msg 539 424 \$1%;
#X msg 235 312 \$1%;
#X obj 386 276 symbol Jam, f 7;
#X obj 315 278 symbol Record, f 7;
#X obj 456 276 symbol Parenting, f 9;
#X obj 315 134 max 0;
#X obj 315 156 min 2;
#X obj 217 231 r knob2;
#X obj 315 35 r knob1;
#X obj 100 343 s inlet-volume;
#X obj 539 467 cg-2items-print 22 In: Length:;
#X obj 235 342 cg-2items-print-inv 10 Inpt:;
#X obj 315 178 change -1;
#X connect 0 0 21 0;
#X connect 1 0 22 0;
#X connect 4 0 21 1;
#X connect 4 0 22 1;
#X connect 5 0 6 0;
#X connect 6 0 27 0;
#X connect 7 0 2 0;
#X connect 8 0 3 0;
#X connect 11 0 12 0;
#X connect 12 0 26 0;
#X connect 13 0 14 0;
#X connect 14 0 25 0;
#X connect 15 0 10 0;
#X connect 15 0 13 0;
#X connect 16 0 31 0;
#X connect 17 0 18 0;
#X connect 18 0 16 0;
#X connect 19 0 29 0;
#X connect 19 1 28 0;
#X connect 19 2 30 0;
#X connect 21 0 2 0;
#X connect 22 0 3 0;
#X connect 23 0 11 0;
#X connect 23 0 9 0;
#X connect 24 0 15 0;
#X connect 25 0 36 1;
#X connect 26 0 36 0;
#X connect 27 0 37 0;
#X connect 28 0 37 1;
#X connect 29 0 37 1;
#X connect 30 0 37 1;
#X connect 31 0 32 0;
#X connect 32 0 38 0;
#X connect 33 0 5 0;
#X connect 33 0 4 0;
#X connect 33 0 35 0;
#X connect 34 0 17 0;
#X connect 38 0 20 0;
#X connect 38 0 19 0;
#X restore 129 297 pd the-knobs;
#N canvas 425 50 1034 751 the-notes-and-seq 0;
#X obj 154 646 s mutate-notes;
#X obj 154 132 r notes;
#X obj 198 291 r mutate-jam-aux;
#X obj 560 280 s led;
#X obj 560 258 r seq2-1-led;
#X obj 692 196 r seq2-1-aux-label;
#X obj 692 388 s screenLine5;
#X obj 154 368 cg-sequence 1;
#X obj 242 312 r mutate-state;
#X obj 242 338 t b;
#X obj 154 591 % 24;
#X obj 154 565 abs;
#X obj 154 546 expr if ($f1 > 59 \, $f1 - 60 \, $f1 - 12);
#X obj 154 613 pack 0 0;
#X obj 154 398 unpack 0 0;
#X obj 731 229 r mutate-state;
#X obj 762 275 t b;
#X obj 731 252 sel 2;
#X msg 731 274 0;
#X msg 762 297 1;
#X obj 692 338 spigot;
#X obj 221 471 / 100;
#X obj 221 493 * 127;
#X obj 221 447 min 100;
#X obj 318 84 r mutate-parent-aux;
#X obj 318 106 ==;
#X obj 154 200 t a a;
#X obj 207 226 bag;
#X msg 207 196 flush;
#X obj 318 128 sel 0 1, f 20;
#X obj 318 150 t b b;
#X msg 338 175 0;
#X obj 207 248 pack 0 0;
#X msg 395 170 1;
#X obj 154 153 spigot 1;
#X connect 1 0 34 0;
#X connect 2 0 7 1;
#X connect 4 0 3 0;
#X connect 5 0 20 0;
#X connect 7 0 14 0;
#X connect 8 0 9 0;
#X connect 9 0 7 2;
#X connect 10 0 13 0;
#X connect 11 0 10 0;
#X connect 12 0 11 0;
#X connect 13 0 0 0;
#X connect 14 0 12 0;
#X connect 14 1 23 0;
#X connect 15 0 17 0;
#X connect 16 0 19 0;
#X connect 17 0 18 0;
#X connect 17 1 16 0;
#X connect 18 0 20 1;
#X connect 19 0 20 1;
#X connect 20 0 6 0;
#X connect 21 0 22 0;
#X connect 22 0 13 1;
#X connect 23 0 21 0;
#X connect 24 0 25 0;
#X connect 25 0 29 0;
#X connect 26 0 7 0;
#X connect 26 1 27 0;
#X connect 27 0 32 0;
#X connect 28 0 27 0;
#X connect 29 0 30 0;
#X connect 29 1 33 0;
#X connect 30 0 28 0;
#X connect 30 1 31 0;
#X connect 31 0 34 1;
#X connect 32 0 7 0;
#X connect 33 0 34 1;
#X connect 34 0 26 0;
#X restore 127 217 pd the-notes-and-seq;
#X obj 717 387 r mutate-notes;
#X obj 766 243 v m-m-p;
#X text 425 16 global change sets the variable;
#X obj 766 78 loadbang;
#X obj 981 116 v m-m-p;
#X obj 949 64 r saveState;
#X obj 981 140 text set variable;
#X obj 949 204 text define variable;
#X obj 949 87 t b b;
#X msg 949 179 write variable.txt;
#X obj 766 100 t b b;
#X msg 798 125 read variable.txt;
#X obj 766 217 text get variable;
#X msg 766 192 0;
#N canvas 711 172 670 416 arrays-4-lengths-stereo-choppers 0;
#X msg 82 189 write rec-lengths.txt;
#X msg 119 242 read rec-lengths.txt;
#X obj 119 215 loadbang;
#X obj 82 161 r saveState;
#X obj 369 215 loadbang;
#X obj 331 161 r saveState;
#X msg 369 243 read rec-stereo.txt;
#X msg 331 191 write rec-stereo.txt;
#X obj 82 275 array define mutate-rec-lengths 3;
#X obj 331 275 array define mutate-rec-stereo 3;
#X obj 259 413 array define mutate-tab-0 88200;
#X obj 259 443 array define mutate-tab-1 88200;
#X obj 259 473 array define mutate-tab-2 88200;
#X obj 103 308 loadbang;
#X obj 103 330 t b b b;
#X msg 149 369 read BAC.txt;
#X msg 103 443 read EBDAC.txt;
#X msg 126 412 read ADCB.txt;
#X connect 0 0 8 0;
#X connect 1 0 8 0;
#X connect 2 0 1 0;
#X connect 3 0 0 0;
#X connect 4 0 6 0;
#X connect 5 0 7 0;
#X connect 6 0 9 0;
#X connect 7 0 9 0;
#X connect 13 0 14 0;
#X connect 14 0 16 0;
#X connect 14 1 17 0;
#X connect 14 2 15 0;
#X connect 15 0 10 0;
#X connect 16 0 12 0;
#X connect 17 0 11 0;
#X restore 127 106 pd arrays-4-lengths-stereo-choppers;
#X obj 717 497 route 1 2 3 4;
#X obj 783 538 mutate-poly-voice;
#X obj 717 453 pack 0 0 0;
#X obj 717 424 poly 4 1, f 10;
#X obj 929 512 route 1 2 3 4;
#X obj 929 450 pack 0 0 0;
#X obj 929 428 poly 4 1, f 10;
#X obj 995 541 mutate-poly-voice-rec;
#X obj 929 387 r mutate-rec-notes;
#X obj 761 564 mutate-poly-voice;
#X obj 717 618 mutate-poly-voice;
#X obj 739 591 mutate-poly-voice;
#X obj 973 569 mutate-poly-voice-rec;
#X obj 951 594 mutate-poly-voice-rec;
#X obj 929 614 mutate-poly-voice-rec;
#X connect 0 0 1 0;
#X connect 1 0 5 1;
#X connect 2 0 5 0;
#X connect 11 0 29 0;
#X connect 14 0 21 0;
#X connect 15 0 17 0;
#X connect 16 0 19 0;
#X connect 19 0 20 0;
#X connect 19 1 15 0;
#X connect 20 0 18 0;
#X connect 21 0 24 0;
#X connect 21 1 22 0;
#X connect 22 0 18 0;
#X connect 23 0 12 0;
#X connect 24 0 23 0;
#X connect 26 0 36 0;
#X connect 26 1 37 0;
#X connect 26 2 35 0;
#X connect 26 3 27 0;
#X connect 28 0 26 0;
#X connect 29 0 28 0;
#X connect 29 1 28 1;
#X connect 29 2 28 2;
#X connect 30 0 40 0;
#X connect 30 1 39 0;
#X connect 30 2 38 0;
#X connect 30 3 33 0;
#X connect 31 0 30 0;
#X connect 32 0 31 0;
#X connect 32 1 31 1;
#X connect 32 2 31 2;
#X connect 34 0 32 0;
