#N canvas 22 253 733 685 10;
#X obj 76 541 *~;
#X obj 216 541 *~;
#X obj 431 427 vline~;
#X msg 537 349 1;
#X obj 537 487 switch~;
#X msg 382 431 0;
#X msg 495 408 stop;
#X obj 378 331 t b b b;
#X obj 484 327 t b b b, f 12;
#X obj 445 513 s \$0-clear;
#X obj 430 120 r \$0-clear;
#X obj 98 183 rev1~, f 34;
#X obj 227 211 rev1~, f 34;
#X obj 285 97 loadbang;
#X obj 563 393 loadbang;
#X msg 563 415 0;
#X obj 104 149 hip~ 50;
#X obj 193 147 hip~ 50;
#X obj 76 267 *~ 0.7;
#X obj 139 268 *~ 0.7;
#X msg 484 349 1 5;
#X msg 428 384 0 5;
#X obj 382 409 del 5;
#X obj 285 129 \$3;
#X obj 315 129 \$4;
#X obj 236 268 *~ \$5;
#X obj 305 269 *~ \$5;
#X obj 75 593 throw~ \$1-busL;
#X obj 216 593 throw~ \$1-busR;
#X obj 77 56 r~ \$1-leftfx;
#X obj 138 86 r~ \$1-rightfx;
#X obj 573 257 sel 0, f 15;
#X obj 573 59 r \$1-list-inlet;
#X msg 612 194 0;
#X obj 573 144 sel \$2;
#X obj 612 168 t b;
#X msg 573 181 1;
#X obj 573 223 change -1;
#X obj 579 447 r \$1-block-message;
#X connect 0 0 27 0;
#X connect 1 0 28 0;
#X connect 2 0 0 1;
#X connect 2 0 1 1;
#X connect 3 0 4 0;
#X connect 5 0 4 0;
#X connect 6 0 22 0;
#X connect 7 0 22 0;
#X connect 7 1 6 0;
#X connect 7 2 21 0;
#X connect 8 0 20 0;
#X connect 8 1 3 0;
#X connect 8 2 6 0;
#X connect 10 0 11 2;
#X connect 10 0 12 2;
#X connect 11 0 25 0;
#X connect 12 0 26 0;
#X connect 13 0 23 0;
#X connect 13 0 24 0;
#X connect 14 0 15 0;
#X connect 15 0 4 0;
#X connect 16 0 11 0;
#X connect 17 0 12 0;
#X connect 18 0 0 0;
#X connect 19 0 1 0;
#X connect 20 0 2 0;
#X connect 21 0 2 0;
#X connect 22 0 5 0;
#X connect 22 0 9 0;
#X connect 23 0 11 1;
#X connect 24 0 12 1;
#X connect 25 0 0 0;
#X connect 26 0 1 0;
#X connect 29 0 16 0;
#X connect 29 0 18 0;
#X connect 30 0 17 0;
#X connect 30 0 19 0;
#X connect 31 0 7 0;
#X connect 31 1 8 0;
#X connect 32 0 34 0;
#X connect 33 0 37 0;
#X connect 34 0 36 0;
#X connect 34 1 35 0;
#X connect 35 0 33 0;
#X connect 36 0 37 0;
#X connect 37 0 31 0;
#X connect 38 0 4 0;
