#N canvas 254 236 872 671 10;
#X obj 213 524 *~;
#X obj 353 524 *~;
#X obj 568 420 vline~;
#X obj 515 278 sel 0, f 15;
#X msg 674 342 1;
#X obj 674 480 switch~;
#X msg 519 424 0;
#X msg 632 401 stop;
#X obj 515 324 t b b b;
#X obj 621 320 t b b b, f 12;
#X obj 700 386 loadbang;
#X msg 700 408 0;
#X msg 621 342 1 5;
#X msg 565 377 0 5;
#X obj 519 402 del 5;
#X obj 212 576 throw~ \$1-busL;
#X obj 353 576 throw~ \$1-busR;
#X obj 216 39 r~ \$1-leftfx;
#X obj 298 69 r~ \$1-rightfx;
#X obj 515 90 r \$1-list-inlet;
#X msg 554 225 0;
#X obj 515 175 sel \$2;
#X obj 554 199 t b;
#X msg 515 212 1;
#X obj 241 213 vcf~ 4;
#X obj 323 210 vcf~ 4;
#X obj 323 231 vcf~ 3;
#X obj 241 235 vcf~ 3;
#X obj 278 157 sig~ 800;
#X obj 336 176 sig~ 220;
#X obj 241 275 *~ 14;
#X obj 323 272 *~ 14;
#X obj 515 254 change -1;
#X obj 714 446 r \$1-block-message;
#X connect 0 0 15 0;
#X connect 1 0 16 0;
#X connect 2 0 0 1;
#X connect 2 0 1 1;
#X connect 3 0 8 0;
#X connect 3 1 9 0;
#X connect 4 0 5 0;
#X connect 6 0 5 0;
#X connect 7 0 14 0;
#X connect 8 0 14 0;
#X connect 8 1 7 0;
#X connect 8 2 13 0;
#X connect 9 0 12 0;
#X connect 9 1 4 0;
#X connect 9 2 7 0;
#X connect 10 0 11 0;
#X connect 11 0 5 0;
#X connect 12 0 2 0;
#X connect 13 0 2 0;
#X connect 14 0 6 0;
#X connect 17 0 24 0;
#X connect 18 0 25 0;
#X connect 19 0 21 0;
#X connect 20 0 32 0;
#X connect 21 0 23 0;
#X connect 21 1 22 0;
#X connect 22 0 20 0;
#X connect 23 0 32 0;
#X connect 24 0 27 0;
#X connect 25 0 26 0;
#X connect 26 0 31 0;
#X connect 27 0 30 0;
#X connect 28 0 24 1;
#X connect 28 0 25 1;
#X connect 29 0 26 1;
#X connect 29 0 27 1;
#X connect 30 0 0 0;
#X connect 31 0 1 0;
#X connect 32 0 3 0;
#X connect 33 0 5 0;
