#N canvas 404 203 1358 801 10;
#X obj 256 553 *~;
#X obj 396 553 *~;
#X obj 611 449 vline~;
#X obj 558 307 sel 0, f 15;
#X msg 717 371 1;
#X obj 717 509 switch~;
#X msg 562 453 0;
#X msg 675 430 stop;
#X obj 558 353 t b b b;
#X obj 664 349 t b b b, f 12;
#X obj 743 415 loadbang;
#X msg 743 437 0;
#X msg 664 371 1 5;
#X msg 608 406 0 5;
#X obj 562 431 del 5;
#X obj 255 605 throw~ \$1-busL;
#X obj 396 605 throw~ \$1-busR;
#X obj 259 68 r~ \$1-leftfx;
#X obj 341 98 r~ \$1-rightfx;
#X obj 558 119 r \$1-list-inlet;
#X msg 597 254 0;
#X obj 558 204 sel \$2;
#X obj 597 228 t b;
#X msg 558 241 1;
#X obj 558 283 change -1;
#X obj 312 214 *~ 0.35;
#X obj 381 215 *~ 0.35;
#X obj 311 164 delay3sec 5 \$3 \$4;
#X obj 451 165 delay3sec 5 \$3 \$4;
#X obj 152 213 *~ 0.65;
#X obj 215 214 *~ 0.65;
#X obj 788 452 r \$1-block-message;
#X connect 0 0 15 0;
#X connect 1 0 16 0;
#X connect 2 0 0 1;
#X connect 2 0 1 1;
#X connect 3 0 8 0;
#X connect 3 1 9 0;
#X connect 4 0 5 0;
#X connect 6 0 5 0;
#X connect 7 0 14 0;
#X connect 8 0 14 0;
#X connect 8 1 7 0;
#X connect 8 2 13 0;
#X connect 9 0 12 0;
#X connect 9 1 4 0;
#X connect 9 2 7 0;
#X connect 10 0 11 0;
#X connect 11 0 5 0;
#X connect 12 0 2 0;
#X connect 13 0 2 0;
#X connect 14 0 6 0;
#X connect 17 0 27 0;
#X connect 17 0 29 0;
#X connect 18 0 28 0;
#X connect 18 0 30 0;
#X connect 19 0 21 0;
#X connect 20 0 24 0;
#X connect 21 0 23 0;
#X connect 21 1 22 0;
#X connect 22 0 20 0;
#X connect 23 0 24 0;
#X connect 24 0 3 0;
#X connect 25 0 0 0;
#X connect 26 0 1 0;
#X connect 27 0 25 0;
#X connect 28 0 26 0;
#X connect 29 0 0 0;
#X connect 30 0 1 0;
#X connect 31 0 5 0;
