#N canvas 205 50 1667 968 10;
#X obj 495 326 send~ f;
#X obj 495 217 sig~;
#X obj 494 248 lop~ 5;
#X obj 138 273 throw~ outL;
#X obj 238 272 throw~ outR;
#X obj 824 156 sig~;
#X obj 824 184 lop~ 5;
#X obj 824 211 send~ resonance;
#X obj 824 133 * 4;
#X obj 997 178 sig~;
#X obj 996 211 lop~ 5;
#X obj 996 236 s~ cutoff;
#X obj 976 123 * 2000;
#X obj 976 148 + 100;
#X obj 65 482 loadbang;
#X obj 548 231 r fs;
#X obj 548 253 + 1;
#X floatatom 548 276 5 0 0 0 - - -, f 5;
#X obj 495 300 *~ 1;
#X obj 646 272 i;
#X obj 356 257 i;
#X obj 812 266 i;
#X obj 812 241 * 100;
#X obj 975 267 i;
#X obj 975 291 change -1;
#X obj 812 289 change -1;
#X obj 356 279 change -1;
#X obj 646 295 change -1;
#X obj 495 146 / 100;
#X obj 495 168 mtof;
#X obj 495 190 / 8.1785;
#X obj 356 330 s screenLine1;
#X obj 647 107 r knob2;
#X obj 646 346 s screenLine2;
#X obj 811 102 r knob3;
#X msg 812 315 3: Resonance \$1 %;
#X obj 812 341 s screenLine3;
#X msg 975 315 4: Cutoff \$1 Hz;
#X obj 975 339 s screenLine4;
#X obj 976 97 r knob4;
#X msg 496 123 2400;
#X obj 497 103 loadbang;
#X msg 356 305 1: Mix \$1 %;
#N canvas 83 50 766 924 FFT 0;
#X obj 500 736 r knob1;
#X obj 481 29 r~ inL;
#N canvas 10 50 612 483 crossfade 0;
#X obj 33 48 inlet~;
#X obj 211 67 inlet;
#X obj 39 327 outlet~;
#X obj 49 194 expr cos($f1 * 3.14159 / 2);
#X obj 244 194 expr sin($f1 * 3.14159 / 2);
#X obj 211 143 clip 0 1;
#N canvas 7 50 594 632 pan_core 0;
#X obj 21 106 inlet~;
#X obj 226 126 inlet;
#X obj 59 259 *~;
#X obj 123 303 outlet~;
#X obj 189 258 *~;
#X obj 205 234 line~;
#X obj 75 234 line~;
#X obj 96 127 inlet;
#X obj 179 104 inlet~;
#X text 223 350 comment;
#X obj 75 195 pack f 5;
#X obj 205 195 pack f 5;
#X text 202 346 Hans-Christoph Steiner \, 2004;
#X text 202 332 Adapted from [pan_core~];
#X connect 0 0 2 0;
#X connect 1 0 11 0;
#X connect 2 0 3 0;
#X connect 4 0 3 0;
#X connect 5 0 4 1;
#X connect 6 0 2 1;
#X connect 7 0 10 0;
#X connect 8 0 4 0;
#X connect 10 0 6 0;
#X connect 11 0 5 0;
#X restore 39 266 pd pan_core;
#X text 165 300 Adapted from [equal_power_pan~] \, Hans-Christoph Steiner
\, 2004;
#X text 320 312 comment;
#X obj 128 46 inlet~;
#X connect 0 0 6 0;
#X connect 1 0 5 0;
#X connect 3 0 6 1;
#X connect 4 0 6 3;
#X connect 5 0 3 0;
#X connect 5 0 4 0;
#X connect 6 0 2 0;
#X connect 9 0 6 2;
#X restore 419 824 pd crossfade;
#X obj 500 761 * -1;
#X obj 500 785 + 1;
#X obj 409 868 outlet~;
#X obj 285 584 *~ 1;
#X obj 222 583 *~ 1;
#X obj 171 395 + 12;
#X obj 56 158 r transpose;
#X obj 223 685 *~, f 21;
#X obj 223 341 fft-sig, f 21;
#X obj 207 504 +~ 0;
#X obj 259 496 +~ 0;
#X obj 221 298 *~ 1;
#X obj 564 255 r knob3;
#X obj 564 277 * 2500;
#X obj 531 463 r knob4;
#X obj 531 487 * 3.6;
#X obj 564 299 + 200;
#X obj 564 343 vline~;
#X obj 221 558 simple 1;
#X msg 564 321 \$1 20;
#X obj 247 733 *~;
#X obj 180 173 r keytrans;
#X obj 89 344 +;
#X obj 66 207 f;
#X obj 143 226 t b f;
#X obj 524 147 delwrite~ ldelay 1000;
#X obj 540 183 delread~ ldelay 45;
#X obj 477 82 e_softclip;
#X obj 458 654 *~ 0.5;
#X floatatom 73 399 5 0 0 0 - - -, f 5;
#X obj 116 504 sig~ 0.01;
#X obj 285 558 simple 2;
#X connect 0 0 3 0;
#X connect 1 0 30 0;
#X connect 2 0 5 0;
#X connect 3 0 4 0;
#X connect 4 0 2 2;
#X connect 6 0 10 0;
#X connect 7 0 10 0;
#X connect 8 0 13 1;
#X connect 9 0 26 0;
#X connect 10 0 23 0;
#X connect 11 0 12 0;
#X connect 11 0 13 0;
#X connect 11 1 10 1;
#X connect 11 2 21 1;
#X connect 11 2 23 1;
#X connect 11 2 34 1;
#X connect 12 0 21 0;
#X connect 13 0 34 0;
#X connect 14 0 11 0;
#X connect 15 0 16 0;
#X connect 16 0 19 0;
#X connect 17 0 18 0;
#X connect 18 0 21 3;
#X connect 18 0 34 3;
#X connect 19 0 22 0;
#X connect 20 0 21 2;
#X connect 20 0 34 2;
#X connect 21 0 7 0;
#X connect 22 0 20 0;
#X connect 23 0 2 0;
#X connect 24 0 27 0;
#X connect 25 0 8 0;
#X connect 25 0 32 0;
#X connect 26 0 25 0;
#X connect 27 0 26 0;
#X connect 27 1 25 1;
#X connect 30 0 14 0;
#X connect 30 0 31 0;
#X connect 31 0 2 1;
#X connect 32 0 12 1;
#X connect 33 0 21 0;
#X connect 34 0 6 0;
#X restore 137 226 pd FFT;
#X obj 356 210 r knob1;
#X obj 356 232 * 100;
#X text 117 38 monophonic pitch tracker to control subtractive synth
;
#X obj 504 438 r aux;
#X obj 504 460 sel 0;
#X obj 501 508 i 0;
#X obj 546 505 + 1;
#X floatatom 410 576 5 0 0 0 - - -, f 5;
#X obj 404 610 * 12;
#X obj 404 417 loadbang;
#X msg 404 439 0;
#X obj 405 644 - 48;
#X obj 498 539 % 4;
#X obj 539 591 + 1;
#X msg 197 724 \; screenLine5 Aux: Octave \$1 \;;
#X obj 681 534 sel 0 1 2 3 4 5 6 7, f 116;
#X obj 682 408 r aux;
#X obj 682 430 sel 0;
#X obj 682 473 i 0;
#X obj 727 470 + 1;
#X obj 681 502 % 8;
#X msg 696 581 -12;
#X msg 795 577 -5;
#X msg 902 575 0;
#X msg 992 578 7;
#X msg 1100 579 12;
#X msg 1204 574 19;
#X msg 1298 572 24;
#X msg 1403 579 31;
#X obj 717 861 s transpose;
#X msg 614 643 \; led \$1 \;;
#X obj 615 586 + 1;
#X msg 986 609 \; screenLine5 Aux: 5th Up \;;
#X msg 1086 648 \; screenLine5 Aux: 8ve Up \;;
#X msg 1186 609 \; screenLine5 Aux: 8ve+5th Up \;;
#X msg 1287 643 \; screenLine5 Aux: 2 8ve Up \;;
#X msg 1388 610 \; screenLine5 Aux: 2 8ve+5th Up \;;
#X msg 782 604 \; screenLine5 Aux: 5th Down \;;
#X msg 884 644 \; screenLine5 Aux: Unison \;;
#X msg 681 641 \; screenLine5 Aux: 8ve Down \;;
#X obj 754 387 loadbang;
#X msg 754 409 0;
#X obj 719 709 * 1;
#X obj 855 719 r notes;
#X obj 855 741 unpack;
#X obj 855 763 stripnote;
#X obj 717 833 +;
#X obj 797 795 - 72;
#X obj 795 827 s keytrans;
#X msg 65 505 \; screenLine1 1: Mix \; screenLine2 2: Glide \; screenLine3
3: Resonance \; screenLine4 4: Cutoff \; screenLine5 Aux: Octave \;
;
#X msg 646 321 2: Glide \$1 %;
#X obj 646 245 * 100;
#X connect 1 0 2 0;
#X connect 2 0 18 0;
#X connect 5 0 6 0;
#X connect 6 0 7 0;
#X connect 8 0 5 0;
#X connect 9 0 10 0;
#X connect 10 0 11 0;
#X connect 12 0 13 0;
#X connect 13 0 9 0;
#X connect 13 0 23 0;
#X connect 14 0 93 0;
#X connect 15 0 16 0;
#X connect 16 0 17 0;
#X connect 17 0 18 1;
#X connect 18 0 0 0;
#X connect 19 0 27 0;
#X connect 20 0 26 0;
#X connect 21 0 25 0;
#X connect 22 0 21 0;
#X connect 23 0 24 0;
#X connect 24 0 37 0;
#X connect 25 0 35 0;
#X connect 26 0 42 0;
#X connect 27 0 94 0;
#X connect 28 0 29 0;
#X connect 29 0 30 0;
#X connect 30 0 1 0;
#X connect 32 0 95 0;
#X connect 34 0 8 0;
#X connect 34 0 22 0;
#X connect 35 0 36 0;
#X connect 37 0 38 0;
#X connect 39 0 12 0;
#X connect 40 0 28 0;
#X connect 41 0 40 0;
#X connect 42 0 31 0;
#X connect 43 0 3 0;
#X connect 43 0 4 0;
#X connect 44 0 45 0;
#X connect 45 0 20 0;
#X connect 47 0 48 0;
#X connect 48 0 49 0;
#X connect 49 0 50 0;
#X connect 49 0 56 0;
#X connect 50 0 49 1;
#X connect 51 0 52 0;
#X connect 52 0 55 0;
#X connect 53 0 54 0;
#X connect 54 0 49 0;
#X connect 56 0 51 0;
#X connect 56 0 57 0;
#X connect 59 0 65 0;
#X connect 59 0 83 0;
#X connect 59 1 66 0;
#X connect 59 1 81 0;
#X connect 59 2 67 0;
#X connect 59 2 82 0;
#X connect 59 3 68 0;
#X connect 59 3 76 0;
#X connect 59 4 69 0;
#X connect 59 4 77 0;
#X connect 59 5 70 0;
#X connect 59 5 78 0;
#X connect 59 6 71 0;
#X connect 59 6 79 0;
#X connect 59 7 72 0;
#X connect 59 7 80 0;
#X connect 60 0 61 0;
#X connect 61 0 62 0;
#X connect 62 0 63 0;
#X connect 62 0 64 0;
#X connect 63 0 62 1;
#X connect 64 0 59 0;
#X connect 64 0 75 0;
#X connect 65 0 86 0;
#X connect 66 0 86 0;
#X connect 67 0 86 0;
#X connect 68 0 86 0;
#X connect 69 0 86 0;
#X connect 70 0 86 0;
#X connect 71 0 86 0;
#X connect 72 0 86 0;
#X connect 75 0 74 0;
#X connect 84 0 85 0;
#X connect 85 0 61 0;
#X connect 86 0 90 0;
#X connect 87 0 88 0;
#X connect 88 0 89 0;
#X connect 88 1 89 1;
#X connect 89 0 91 0;
#X connect 90 0 73 0;
#X connect 91 0 92 0;
#X connect 94 0 33 0;
#X connect 95 0 19 0;
