#N canvas 619 152 547 667 10;
#X obj 170 411 outlet~;
#X text 385 281 Q (1-4);
#X obj 170 362 *~ 1;
#X msg 86 273 reset;
#X obj 120 13 inlet~;
#X obj 120 81 mtof~;
#X obj 243 26 inlet~;
#X obj 244 209 lop~ 2;
#X obj 168 128 blsaw;
#X floatatom 337 285 5 0 0 0 - - -, f 5;
#X obj 337 26 inlet;
#X obj 81 129 s_blsquare;
#X obj 170 320 bob~;
#X obj 292 26 inlet~;
#X obj 245 274 *~, f 7;
#X connect 2 0 0 0;
#X connect 3 0 12 0;
#X connect 4 0 5 0;
#X connect 5 0 8 0;
#X connect 5 0 11 0;
#X connect 6 0 7 0;
#X connect 7 0 14 0;
#X connect 8 0 12 0;
#X connect 9 0 12 2;
#X connect 10 0 9 0;
#X connect 11 0 12 0;
#X connect 12 0 2 0;
#X connect 13 0 14 1;
#X connect 14 0 12 1;
