#N canvas 12 101 1009 628 10;
#X obj 15 303 s \$0-2-looper;
#X obj 691 21 r \$0-2-looper;
#X obj 409 22 inlet;
#X obj 850 181 vline~;
#X obj 912 95 r \$0-2-phase;
#X obj 690 300 *~;
#X obj 850 158 r \$0-2-vline;
#X msg 285 82 0;
#X obj 285 107 v \$0-v;
#X msg 15 100 point 1;
#X obj 763 250 *~, f 13;
#X obj 801 70 r \$0-switch;
#X obj 691 133 cg-springer-2 segmenti, f 32;
#X obj 763 306 throw~ segmenti-busR;
#X obj 690 352 throw~ segmenti-busL;
#X obj 15 45 del 10;
#X obj 54 21 loadbang;
#X text 165 43 params;
#X obj 139 132 r voice-pitch;
#X msg 139 170 pitch \$1;
#X obj 31 136 r voice-speed;
#X msg 31 162 speed \$1;
#N canvas 11 50 1009 708 loop 0;
#X obj 43 6 inlet;
#X obj 87 189 sel 0, f 24;
#X obj 87 532 s \$0-2-vline;
#X obj 252 258 / 127;
#X obj 562 508 s \$0-2-phase;
#X obj 252 542 s \$0-2-vline;
#X obj 562 465 v \$0-v;
#X obj 702 204 s \$0-switch;
#X obj 702 123 loadbang;
#X msg 702 145 1;
#X msg 252 486 \$1 8;
#X obj 291 238 v \$0-duck;
#X obj 252 214 t a b, f 6;
#X obj 252 324 route 0 1, f 36;
#X obj 374 540 s \$0-2-vline;
#X obj 260 414 t a b;
#X obj 363 399 t a b;
#X msg 374 484 0 8 \, \$1 8 8;
#X obj 252 302 list prepend;
#X msg 87 508 0 80;
#X obj 252 280 sqrt 2;
#X connect 0 0 1 0;
#X connect 1 0 19 0;
#X connect 1 1 12 0;
#X connect 3 0 20 0;
#X connect 6 0 4 0;
#X connect 8 0 9 0;
#X connect 9 0 7 0;
#X connect 10 0 5 0;
#X connect 11 0 18 1;
#X connect 12 0 3 0;
#X connect 12 1 11 0;
#X connect 13 0 15 0;
#X connect 13 1 16 0;
#X connect 15 0 10 0;
#X connect 15 1 6 0;
#X connect 16 0 17 0;
#X connect 16 1 6 0;
#X connect 17 0 14 0;
#X connect 18 0 13 0;
#X connect 19 0 2 0;
#X connect 20 0 18 0;
#X restore 448 339 pd loop and envelope decay;
#X obj 469 183 sel 0;
#X msg 469 205 0;
#X msg 501 228 1;
#X text 1196 85 multiply by global decay time;
#X obj 850 205 pow~ 2;
#X obj 469 262 v \$0-open;
#X obj 610 234 v \$0-open;
#X obj 501 205 t b b, f 16;
#X obj 610 278 v \$0-duck;
#N canvas 5 50 619 575 point-chunks 0;
#X obj 113 101 v \$0-duck;
#X obj 74 76 t a b, f 6;
#X obj 74 150 route 0 1, f 36;
#X obj 148 379 s \$0-2-looper;
#X msg 148 356 point 1;
#X obj 74 412 text get chunks;
#X obj 74 520 s \$0-2-looper;
#X msg 74 497 read \$1;
#X obj 134 485 s \$0-2-looper;
#X msg 134 462 length \$1;
#X obj 74 435 unpack, f 9;
#X obj 74 18 inlet;
#X obj 74 40 stripnote;
#X obj 74 321 t a b, f 11;
#X obj 198 263 f, f 10;
#X obj 198 225 del 8;
#X msg 244 201 stop;
#X obj 198 176 t b a b;
#X obj 74 128 list prepend;
#X connect 0 0 18 1;
#X connect 1 0 18 0;
#X connect 1 1 0 0;
#X connect 2 0 13 0;
#X connect 2 1 17 0;
#X connect 4 0 3 0;
#X connect 5 0 10 0;
#X connect 7 0 6 0;
#X connect 9 0 8 0;
#X connect 10 0 7 0;
#X connect 10 1 9 0;
#X connect 11 0 12 0;
#X connect 12 0 1 0;
#X connect 13 0 5 0;
#X connect 13 1 4 0;
#X connect 14 0 13 0;
#X connect 15 0 14 0;
#X connect 16 0 15 0;
#X connect 17 0 15 0;
#X connect 17 1 14 1;
#X connect 17 2 16 0;
#X connect 18 0 2 0;
#X restore 474 121 pd point-chunks;
#X obj 409 66 unpack;
#X obj 409 44 t a a a, f 19;
#X obj 319 189 loadbang;
#X msg 319 211 0;
#X obj 539 69 unpack;
#X connect 1 0 12 0;
#X connect 2 0 34 0;
#X connect 3 0 27 0;
#X connect 4 0 12 2;
#X connect 5 0 14 0;
#X connect 6 0 3 0;
#X connect 7 0 8 0;
#X connect 8 0 0 0;
#X connect 9 0 0 0;
#X connect 10 0 13 0;
#X connect 11 0 12 1;
#X connect 12 0 5 0;
#X connect 12 1 10 0;
#X connect 15 0 9 0;
#X connect 15 0 7 0;
#X connect 16 0 15 0;
#X connect 18 0 19 0;
#X connect 19 0 0 0;
#X connect 20 0 21 0;
#X connect 21 0 0 0;
#X connect 23 0 24 0;
#X connect 23 1 30 0;
#X connect 24 0 28 0;
#X connect 25 0 28 0;
#X connect 27 0 5 1;
#X connect 27 0 10 1;
#X connect 29 0 31 0;
#X connect 30 0 25 0;
#X connect 30 1 29 0;
#X connect 33 1 22 0;
#X connect 34 0 33 0;
#X connect 34 1 32 0;
#X connect 34 2 37 0;
#X connect 35 0 36 0;
#X connect 36 0 28 0;
#X connect 37 1 23 0;
