#N canvas 448 50 939 907 10;
#X obj 187 60 inlet;
#X obj 187 106 unpack f f, f 21;
#X obj 265 604 *~;
#X obj 426 822 outlet~;
#X obj 491 317 sel 0;
#X text 471 622 Q (1-4);
#X obj 103 369 *~;
#X obj 15 285 receive~ as-\$1-offset;
#X obj 206 244 receive~ as-\$1-f;
#X obj 250 533 r~ as-\$1-cutoff-local;
#X obj 426 765 hip~ 5;
#X obj 188 269 +~;
#X obj 187 215 sig~;
#X obj 187 163 +;
#X obj 187 185 mtof;
#X obj 205 138 r as-\$1-trans;
#X obj 164 384 blsaw;
#X obj 102 398 blsaw;
#X obj 426 743 *~;
#X obj 250 555 +~;
#X obj 102 420 *~ 0.7;
#X obj 164 406 *~ 0.7;
#X obj 193 531 *~ 1;
#X obj 426 787 *~ 2;
#X text 529 384 decay time;
#X obj 491 494 *~;
#X obj 491 446 vline~;
#X obj 653 304 / 127;
#X msg 653 379 \$1 10;
#X obj 690 508 switch~;
#X msg 717 386 1;
#X msg 584 488 0;
#X msg 663 420 stop;
#X obj 653 352 t f b b, f 10;
#X obj 491 348 t b b b;
#X obj 653 326 sqrt;
#X obj 584 466 del 51;
#X msg 491 417 0 50;
#X obj 226 669 vcf~ 2, f 18;
#X obj 351 635 line 1 1;
#X msg 355 597 \$1 20;
#X obj 374 564 r as-\$1-resonance;
#X obj 328 696 vcf~ 2, f 18;
#X connect 0 0 1 0;
#X connect 1 0 13 0;
#X connect 1 1 4 0;
#X connect 2 0 38 1;
#X connect 2 0 42 1;
#X connect 4 0 34 0;
#X connect 4 1 27 0;
#X connect 6 0 17 0;
#X connect 7 0 6 1;
#X connect 8 0 11 1;
#X connect 9 0 19 0;
#X connect 10 0 23 0;
#X connect 11 0 6 0;
#X connect 11 0 16 0;
#X connect 11 0 19 1;
#X connect 12 0 11 0;
#X connect 13 0 14 0;
#X connect 14 0 12 0;
#X connect 15 0 13 1;
#X connect 16 0 21 0;
#X connect 17 0 20 0;
#X connect 18 0 10 0;
#X connect 19 0 2 0;
#X connect 20 0 22 0;
#X connect 21 0 22 0;
#X connect 22 0 38 0;
#X connect 23 0 3 0;
#X connect 25 0 2 1;
#X connect 25 0 18 1;
#X connect 26 0 25 1;
#X connect 26 0 25 0;
#X connect 27 0 35 0;
#X connect 28 0 26 0;
#X connect 30 0 29 0;
#X connect 31 0 29 0;
#X connect 32 0 36 0;
#X connect 33 0 28 0;
#X connect 33 1 30 0;
#X connect 33 2 32 0;
#X connect 34 0 37 0;
#X connect 34 1 36 0;
#X connect 34 2 32 0;
#X connect 35 0 33 0;
#X connect 36 0 31 0;
#X connect 37 0 26 0;
#X connect 38 1 42 0;
#X connect 39 0 38 2;
#X connect 40 0 39 0;
#X connect 41 0 40 0;
#X connect 42 1 18 0;
