#N canvas 382 273 527 356 10;
#X text 209 7 arg1: instance number;
#X text 75 200 Fixed param number;
#X text 243 91 *** like map-knob-ms but send fixed value and don't
print. use to init values if knobs are sparse., f 34;
#X text 118 235 to specific module in MultiSynth;
#X text 209 27 arg2: module shortcut name;
#X text 209 47 arg3: module shortcut parameter;
#X text 209 67 arg4: fixed value;
#X obj 39 135 loadbang;
#X obj 39 236 s \$2-\$1-\$3;
#X obj 39 197 f \$4;
#X connect 7 0 9 0;
#X connect 9 0 8 0;
