#N canvas 507 88 513 499 10;
#X obj 106 88 inlet;
#X text 664 9 plays a sound file;
#X obj 139 187 r s24-\$1-speed-local;
#X text 661 31 Argument1: Module Shortcut Name;
#X text 663 51 Argument2: Module Number;
#N canvas 5 50 1165 697 sampler 0;
#X obj 186 61 inlet;
#X msg 396 559 0 0;
#X obj 186 653 pack 0 0;
#X obj 186 473 f;
#X obj 231 580 f;
#X obj 628 353 t b f;
#X obj 186 390 t b b b, f 36;
#X obj 471 789 vline~;
#X obj 471 696 f 1000;
#X obj 771 529 *, f 9;
#X obj 186 851 *~, f 48;
#X obj 771 292 t f f, f 11;
#X text 852 322 if knob all the way up \, never decay;
#X text 844 163 do a simple amplitude decay;
#X obj 834 341 expr if($f1 > 0.98 \, 1 \, 0);
#X obj 187 885 hip~ 5;
#X text 236 885 cut DC;
#X obj 795 474 * 2;
#X obj 771 553 + 10;
#X obj 231 612 / 1, f 9;
#X obj 186 133 abs;
#X obj 187 907 *~ 0.7;
#X obj 628 264 inlet speed;
#X obj 186 750 vline~;
#X obj 771 163 inlet decay;
#X obj 453 340 s \$0-sample-length;
#X obj 453 313 array size;
#X obj 186 206 t b a a, f 45;
#X obj 453 231 pack 0 \$1;
#X obj 453 287 t b a, f 10;
#X obj 204 450 r \$0-sample-length;
#X obj 231 522 r \$0-sample-length;
#X obj 231 544 / 44.1;
#X obj 795 431 r \$0-sample-length;
#X obj 795 453 / 44.1;
#X obj 187 930 outlet~;
#X obj 186 83 stripnote;
#X obj 237 113 / 127;
#X obj 237 135 sqrt;
#X obj 471 724 pack 0 0 0, f 15;
#X msg 471 753 \$3 8 \, \$2 \$1 8;
#X obj 237 157 s \$0-vel;
#X obj 558 695 r \$0-vel;
#X msg 453 255 symbol s24-\$1;
#X obj 187 807 tabread4~ s24-1;
#X msg 525 560 set s24-\$1;
#X obj 771 342 pow 2;
#X obj 667 92 loadbang;
#X obj 667 113 del 1000;
#X obj 471 819 pow~ 2;
#X obj 795 495 t b a;
#X connect 0 0 36 0;
#X connect 1 0 23 0;
#X connect 2 0 23 0;
#X connect 3 0 2 0;
#X connect 4 0 19 0;
#X connect 5 0 4 0;
#X connect 5 1 19 1;
#X connect 6 0 3 0;
#X connect 6 1 1 0;
#X connect 6 2 8 0;
#X connect 7 0 49 0;
#X connect 8 0 39 0;
#X connect 9 0 18 0;
#X connect 10 0 15 0;
#X connect 11 0 46 0;
#X connect 11 1 14 0;
#X connect 14 0 39 1;
#X connect 15 0 21 0;
#X connect 17 0 50 0;
#X connect 18 0 8 1;
#X connect 19 0 2 1;
#X connect 20 0 27 0;
#X connect 21 0 35 0;
#X connect 22 0 5 0;
#X connect 23 0 44 0;
#X connect 24 0 11 0;
#X connect 26 0 25 0;
#X connect 27 0 6 0;
#X connect 27 1 45 0;
#X connect 27 2 28 0;
#X connect 28 0 43 0;
#X connect 29 0 26 0;
#X connect 29 1 26 1;
#X connect 30 0 3 1;
#X connect 31 0 32 0;
#X connect 32 0 4 0;
#X connect 33 0 34 0;
#X connect 34 0 17 0;
#X connect 36 0 20 0;
#X connect 36 1 37 0;
#X connect 37 0 38 0;
#X connect 38 0 41 0;
#X connect 39 0 40 0;
#X connect 40 0 7 0;
#X connect 42 0 39 2;
#X connect 43 0 29 0;
#X connect 44 0 10 0;
#X connect 45 0 44 0;
#X connect 46 0 9 0;
#X connect 47 0 48 0;
#X connect 49 0 10 1;
#X connect 50 0 9 0;
#X connect 50 1 9 1;
#X restore 106 289 pd sampler;
#X obj 106 361 outlet~;
#X obj 106 110 unpack;
#X obj 106 132 + 1;
#X obj 106 154 pack, f 6;
#X obj 173 224 r s24-\$1-decay-local;
#X connect 0 0 7 0;
#X connect 2 0 5 1;
#X connect 5 0 6 0;
#X connect 7 0 8 0;
#X connect 7 1 9 1;
#X connect 8 0 9 0;
#X connect 9 0 5 0;
#X connect 10 0 5 2;
