#N canvas 384 50 888 995 10;
#X obj 179 523 hip~ 5;
#X obj 180 449 line~;
#X msg 296 344 0;
#X obj 152 395 pack 44100 1000;
#X msg 165 347 44100;
#X obj 180 580 *~ 0.25;
#X obj 215 176 * 1;
#X obj 215 202 t f b, f 12;
#X obj 180 550 *~;
#X obj 210 631 expr 1000/$f1;
#X obj 210 660 sig~;
#X obj 209 725 lop~ 100;
#X obj 191 116 bang;
#X msg 191 138 1000;
#X obj 179 39 stripnote, f 25;
#X obj 176 753 delay_onesec \$0-delay;
#X obj 179 4 inlet;
#X obj 175 823 outlet~;
#X obj 209 696 *~;
#X obj 495 216 inlet;
#X obj 233 135 r tunedel-\$1-tone-local;
#X obj 251 668 r~ tunedel-\$1-dtime-local;
#X obj 278 706 r~ tunedel-\$1-fb-local;
#X obj 351 183 / 127;
#X obj 322 416 f;
#X obj 179 63 +;
#X obj 179 86 mtof;
#X obj 40 6 r tunedel-\$1-trans;
#X msg 322 443 \$1 8;
#X obj 323 545 *~;
#X obj 351 205 sqrt;
#X obj 323 523 vline~;
#X obj 215 227 t b f f;
#X obj 215 278 t b b b b;
#X obj 176 775 hip~ 5;
#X obj 176 797 *~ 0.707;
#X obj 180 484 tabread4~ drumc;
#X connect 0 0 8 0;
#X connect 1 0 36 0;
#X connect 2 0 1 0;
#X connect 3 0 1 0;
#X connect 4 0 3 0;
#X connect 5 0 15 0;
#X connect 6 0 7 0;
#X connect 7 0 32 0;
#X connect 8 0 5 0;
#X connect 9 0 10 0;
#X connect 10 0 18 0;
#X connect 11 0 15 1;
#X connect 12 0 13 0;
#X connect 13 0 6 0;
#X connect 14 0 25 0;
#X connect 14 1 23 0;
#X connect 15 0 34 0;
#X connect 16 0 14 0;
#X connect 18 0 11 0;
#X connect 19 0 36 0;
#X connect 20 0 6 1;
#X connect 21 0 18 1;
#X connect 22 0 15 2;
#X connect 23 0 30 0;
#X connect 24 0 28 0;
#X connect 25 0 26 0;
#X connect 26 0 12 0;
#X connect 26 0 9 0;
#X connect 27 0 25 1;
#X connect 28 0 31 0;
#X connect 29 0 8 1;
#X connect 30 0 24 1;
#X connect 31 0 29 0;
#X connect 31 0 29 1;
#X connect 32 0 33 0;
#X connect 32 1 3 1;
#X connect 33 0 4 0;
#X connect 33 1 24 0;
#X connect 33 2 2 0;
#X connect 34 0 35 0;
#X connect 35 0 17 0;
#X connect 36 0 0 0;
