#N canvas 545 158 1072 570 12;
#X text 117 14 a simple delay measured in ticks;
#X obj 100 51 inlet;
#X obj 251 51 inlet;
#X text 312 50 messages;
#X text 146 53 trigger;
#X obj 251 249 t b;
#X obj 251 219 spigot 0;
#X obj 100 75 t b b;
#X obj 100 99 1;
#X obj 251 75 route ticks stop length, f 43;
#X obj 449 136 max 1;
#X obj 364 474 outlet;
#X text 331 507 outlet bang;
#X obj 449 109 i;
#X obj 290 325 + 1;
#X obj 290 354 moses, f 11;
#X obj 410 428 s \$0-stop;
#X obj 270 134 r \$0-stop;
#X obj 304 188 0;
#X obj 251 324 f 0;
#X obj 364 397 t b b b;
#X obj 267 293 0;
#X obj 350 139 t b b;
#X obj 449 186 - 1;
#X connect 1 0 7 0;
#X connect 2 0 9 0;
#X connect 5 0 19 0;
#X connect 6 0 5 0;
#X connect 7 0 8 0;
#X connect 7 1 21 0;
#X connect 8 0 6 1;
#X connect 9 0 6 0;
#X connect 9 1 22 0;
#X connect 9 2 13 0;
#X connect 10 0 23 0;
#X connect 13 0 10 0;
#X connect 14 0 15 0;
#X connect 15 0 19 1;
#X connect 15 1 20 0;
#X connect 17 0 18 0;
#X connect 18 0 6 1;
#X connect 19 0 14 0;
#X connect 20 0 11 0;
#X connect 20 1 21 0;
#X connect 20 2 16 0;
#X connect 21 0 19 1;
#X connect 22 0 18 0;
#X connect 22 1 21 0;
#X connect 23 0 15 1;
