#N canvas 26 50 1209 950 10;
#X obj 559 653 phasor~, f 11;
#X obj 559 685 s~ \$0-phase;
#X obj 396 653 -~ 0.5;
#X obj 396 677 *~ 0.5;
#X obj 396 700 cos~;
#X obj 200 325 r \$0-chunk-size;
#X obj 395 631 r~ \$0-phase;
#X obj 181 409 *~;
#X obj 180 265 r~ \$0-phase;
#X obj 234 704 r \$0-pointer;
#X obj 130 99 inlet;
#X obj 462 97 inlet;
#X obj 462 119 s \$0-retrigger;
#X obj 396 744 clip~ 0 1;
#X obj 181 795 *~, f 31;
#X obj 287 145 s \$0-pointer;
#X obj 820 628 r \$0-pointer;
#X obj 572 436 t b f;
#X obj 560 213 r \$0-chunk-size;
#X text 611 318 convert to ms;
#X obj 181 952 outlet~;
#X obj 182 925 hip~ 5;
#X obj 572 406 r \$0-speed;
#X text 871 889 get size of sample in samples;
#X obj 560 374 /;
#X obj 182 190 s \$0-read-point;
#X obj 235 166 s \$0-speed;
#X obj 234 726 list prepend set;
#X obj 234 748 route list;
#X obj 633 623 r \$0-retrigger;
#X text 578 120 0-1 floating point;
#X obj 560 468 * 1, f 6;
#X obj 111 163 max 0.001;
#X obj 797 888 s \$0-size;
#X obj 181 541 +~, f 6;
#X obj 560 618 *~, f 8;
#X obj 130 124 route length read speed repoint switch;
#X obj 339 170 s \$0-switch;
#X obj 634 496 r \$0-switch;
#X text 427 174 0/1 off/on;
#X obj 820 734 symbol;
#X obj 181 707 +~ 1;
#X obj 560 285 *;
#X obj 583 238 r \$0-size;
#X obj 583 260 t b a;
#X obj 560 317 / 44.1;
#X obj 181 589 wrap~;
#X obj 181 677 *~, f 8;
#X obj 233 611 r \$0-size;
#X obj 111 232 s \$0-chunk-size;
#X obj 220 462 r \$0-read-point;
#X obj 182 159 max 0;
#X text 633 264 multiply by sample length;
#X text 592 372 divide by 1000ms to determine hz playback speed;
#X text 653 406 scale to set speed;
#X text 483 722 sets sharpness of the ends of window;
#X obj 307 655 loadbang;
#X obj 307 677 symbol \$1;
#X obj 181 773 tabread4~;
#X obj 796 578 loadbang;
#X obj 796 601 symbol \$1;
#X text 252 564 back to 0-1;
#X text 227 590 wrap around 0-1 to keep inside sample;
#X text 39 676 times sample length;
#X text 122 46 Argument 1: which table to read (use this object with
the cg-load-array);
#X text 118 16 Simple looper with wrap-around.;
#X text 174 98 control arguments;
#X obj 560 490 lop~ 100;
#X obj 324 838 outlet~;
#X text 385 840 playhead 0-1;
#X obj 634 518 sel 0 1;
#X obj 634 567 unpack 0 0;
#X msg 687 541 1 1000;
#X text 735 509 slow down brake \, fast start;
#X msg 560 352 1000 \$1;
#X obj 220 491 * 100000;
#X obj 181 563 /~ 100000;
#X text 259 347 scale to 100 \, 0;
#X obj 200 347 * 100000;
#X obj 233 633 - 2;
#X obj 634 591 lop~ 1.5;
#X msg 634 540 0 1.5;
#X msg 796 793 \; djrec-get-size \$1 bang;
#X obj 797 840 r djrec-get-size-return;
#X obj 797 862 route \$1;
#X obj 796 764 t s s;
#X obj 396 722 *~ 100, f 11;
#X obj 220 515 sig~;
#X obj 200 371 sig~;
#X obj 233 655 sig~;
#X obj 201 869 vline~;
#X obj 183 893 *~;
#X msg 201 846 0 5 \, 1 5 6;
#X obj 201 821 r \$0-duck;
#X obj 820 650 t a b b;
#X msg 948 681 stop;
#X obj 866 680 s \$0-duck;
#X obj 813 683 symbol;
#X obj 843 708 del 5;
#X connect 0 0 1 0;
#X connect 2 0 3 0;
#X connect 3 0 4 0;
#X connect 4 0 86 0;
#X connect 5 0 78 0;
#X connect 6 0 2 0;
#X connect 7 0 34 0;
#X connect 8 0 7 0;
#X connect 9 0 27 0;
#X connect 10 0 36 0;
#X connect 11 0 12 0;
#X connect 13 0 14 1;
#X connect 14 0 91 0;
#X connect 16 0 94 0;
#X connect 17 0 31 0;
#X connect 17 1 31 1;
#X connect 18 0 42 0;
#X connect 21 0 20 0;
#X connect 22 0 17 0;
#X connect 24 0 31 0;
#X connect 27 0 28 0;
#X connect 28 0 58 0;
#X connect 29 0 0 1;
#X connect 31 0 67 0;
#X connect 32 0 49 0;
#X connect 34 0 76 0;
#X connect 35 0 0 0;
#X connect 36 0 32 0;
#X connect 36 1 51 0;
#X connect 36 2 26 0;
#X connect 36 3 15 0;
#X connect 36 4 37 0;
#X connect 38 0 70 0;
#X connect 40 0 85 0;
#X connect 41 0 58 0;
#X connect 42 0 45 0;
#X connect 43 0 44 0;
#X connect 44 0 42 0;
#X connect 44 1 42 1;
#X connect 45 0 74 0;
#X connect 46 0 47 0;
#X connect 46 0 68 0;
#X connect 47 0 41 0;
#X connect 48 0 79 0;
#X connect 50 0 75 0;
#X connect 51 0 25 0;
#X connect 56 0 57 0;
#X connect 57 0 27 0;
#X connect 58 0 14 0;
#X connect 59 0 60 0;
#X connect 60 0 85 0;
#X connect 67 0 35 0;
#X connect 70 0 81 0;
#X connect 70 1 72 0;
#X connect 71 0 80 0;
#X connect 71 1 80 1;
#X connect 72 0 71 0;
#X connect 74 0 24 0;
#X connect 75 0 87 0;
#X connect 76 0 46 0;
#X connect 78 0 88 0;
#X connect 79 0 89 0;
#X connect 80 0 35 1;
#X connect 81 0 71 0;
#X connect 83 0 84 0;
#X connect 84 0 33 0;
#X connect 85 0 82 0;
#X connect 85 1 84 1;
#X connect 86 0 13 0;
#X connect 87 0 34 1;
#X connect 88 0 7 1;
#X connect 89 0 47 1;
#X connect 90 0 91 1;
#X connect 91 0 21 0;
#X connect 92 0 90 0;
#X connect 93 0 92 0;
#X connect 94 0 97 0;
#X connect 94 1 98 0;
#X connect 94 2 95 0;
#X connect 94 2 96 0;
#X connect 95 0 98 0;
#X connect 97 0 40 1;
#X connect 98 0 40 0;
