#N canvas 698 64 1207 483 10;
#X msg 86 184 \; pd dsp 1, f 10;
#X obj 86 116 loadbang;
#X obj 86 148 delay 100;
#X obj 358 162 r knob1;
#X obj 358 196 vsl 15 128 0 1 0 0 empty empty empty 0 -9 0 10 -262144
-1 -1 3634 1;
#X obj 421 196 vsl 15 128 0 1 0 0 empty empty empty 0 -9 0 10 -262144
-1 -1 12675 1;
#X obj 482 196 vsl 15 128 0 1 0 0 empty empty empty 0 -9 0 10 -262144
-1 -1 0 1;
#X obj 544 196 vsl 15 128 0 1 0 0 empty empty empty 0 -9 0 10 -262144
-1 -1 0 1;
#X obj 421 162 r knob2;
#X obj 482 162 r knob3;
#X obj 544 162 r knob4;
#X obj 653 197 vsl 15 128 0 1 0 0 empty empty empty 0 -9 0 10 -262144
-1 -1 12688 1;
#X obj 470 388 r notes;
#X obj 470 414 unpack;
#X floatatom 470 443 5 0 0 0 - - -, f 5;
#X floatatom 513 444 5 0 0 0 - - -, f 5;
#X obj 366 394 r aux;
#X obj 366 420 tgl 15 0 empty empty empty 17 7 0 10 -262144 -1 -1 0
1;
#X obj 654 340 r fs;
#X obj 654 368 tgl 15 0 empty empty empty 17 7 0 10 -262144 -1 -1 0
1;
#X obj 653 163 r exp;
#N canvas 128 245 922 604 audioIO 0;
#X obj 513 336 dac~;
#X obj 659 135 catch~ outR;
#X obj 480 135 catch~ outL;
#X obj 192 166 adc~, f 6;
#X obj 191 448 pack 0 0 0 0, f 18;
#X obj 285 245 s~ inR;
#X obj 110 244 s~ inL;
#X msg 191 470 sendtyped /oled/vumeter iiii \$1 \$2 \$3 \$4;
#X obj 191 492 s oscOut;
#X obj 483 233 *~;
#X obj 572 235 *~;
#X obj 810 69 r vol;
#X obj 810 122 *;
#X obj 810 95 t f f;
#X obj 314 403 * 12;
#X obj 314 355 pvu~;
#X obj 314 378 sqrt;
#X obj 273 403 * 12;
#X obj 273 355 pvu~;
#X obj 273 378 sqrt;
#X obj 191 355 pvu~;
#X obj 191 378 sqrt;
#X obj 232 355 pvu~;
#X obj 232 378 sqrt;
#X obj 481 157 tb_peakcomp~ -3 8 10 100 0;
#X obj 191 403 * 14;
#X obj 232 403 * 14;
#X obj 232 425 - 2;
#X obj 191 425 - 2;
#X obj 810 150 sig~;
#X obj 810 176 lop~ 2;
#X obj 482 179 clip~ -1 1;
#X obj 571 179 clip~ -1 1;
#X text 268 34 Receives and sends audio to patch. Outgoing audio is
run through a compressor to provide some headroom if things get too
loud. Also sends values to the Organelle's OLED VU meter.;
#X obj 742 360 vsl 15 128 0 1 0 0 empty empty empty 0 -9 0 10 -262144
-1 -1 12675 1;
#X obj 742 326 r vol;
#X obj 583 334 s~ mainOutL;
#X obj 629 282 s~ mainOutR;
#X connect 1 0 24 1;
#X connect 2 0 24 0;
#X connect 3 0 6 0;
#X connect 3 0 20 0;
#X connect 3 1 5 0;
#X connect 3 1 22 0;
#X connect 4 0 7 0;
#X connect 7 0 8 0;
#X connect 9 0 18 0;
#X connect 9 0 0 0;
#X connect 9 0 36 0;
#X connect 10 0 15 0;
#X connect 10 0 0 1;
#X connect 10 0 37 0;
#X connect 11 0 13 0;
#X connect 12 0 29 0;
#X connect 13 0 12 0;
#X connect 13 1 12 1;
#X connect 14 0 4 3;
#X connect 15 0 16 0;
#X connect 16 0 14 0;
#X connect 17 0 4 2;
#X connect 18 0 19 0;
#X connect 19 0 17 0;
#X connect 20 0 21 0;
#X connect 21 0 25 0;
#X connect 22 0 23 0;
#X connect 23 0 26 0;
#X connect 24 0 31 0;
#X connect 24 1 32 0;
#X connect 25 0 28 0;
#X connect 26 0 27 0;
#X connect 27 0 4 1;
#X connect 28 0 4 0;
#X connect 29 0 30 0;
#X connect 30 0 10 1;
#X connect 30 0 9 1;
#X connect 31 0 9 0;
#X connect 32 0 10 0;
#X connect 35 0 34 0;
#X restore 84 275 pd audioIO;
#N canvas 65 146 1356 661 messageIO 0;
#X msg 568 179 port 4000;
#X obj 244 251 tgl 15 0 empty empty empty 17 7 0 10 -262144 -1 -1 1
1;
#X msg 315 177 connect localhost 4001;
#X obj 568 207 udpreceive;
#X obj 568 231 unpackOSC;
#X obj 244 179 packOSC;
#X obj 244 215 udpsend;
#X obj 244 151 r oscOut;
#X obj 450 94 t b b;
#X obj 450 66 loadbang;
#X msg 766 178 send /screenshot;
#X obj 765 66 r notes;
#X obj 766 104 route 83;
#X obj 766 126 sel 100;
#X obj 925 183 print takin-pic;
#X obj 766 217 s oscOut;
#X obj 568 255 s oscIn;
#X text 892 97 screen shot hack -- not for production release;
#N canvas 12 50 633 581 LED 0;
#X msg 74 339 send /led \$1;
#X obj 75 137 % 8;
#X obj 75 86 r led;
#X msg 125 134 0;
#X obj 125 84 r quitting;
#X obj 74 368 s oscOut;
#X obj 89 235 sel 0 1 2 3 4 5 6 7, f 37;
#X msg 87 266 0;
#X msg 123 266 4;
#X msg 160 266 5;
#X msg 197 265 1;
#X msg 232 265 3;
#X msg 270 265 2;
#X msg 306 267 6;
#X msg 343 267 7;
#X connect 0 0 5 0;
#X connect 1 0 6 0;
#X connect 2 0 1 0;
#X connect 3 0 6 0;
#X connect 4 0 3 0;
#X connect 6 0 7 0;
#X connect 6 1 8 0;
#X connect 6 2 9 0;
#X connect 6 3 10 0;
#X connect 6 4 11 0;
#X connect 6 5 12 0;
#X connect 6 6 13 0;
#X connect 6 7 14 0;
#X connect 7 0 0 0;
#X connect 8 0 0 0;
#X connect 9 0 0 0;
#X connect 10 0 0 0;
#X connect 11 0 0 0;
#X connect 12 0 0 0;
#X connect 13 0 0 0;
#X connect 14 0 0 0;
#X restore 381 363 pd LED;
#N canvas 14 50 1215 407 OLED 0;
#X obj 110 173 list append;
#X obj 110 198 list trim;
#X obj 137 110 t b l;
#X msg 35 138 send /oled/line/1;
#X obj 110 223 s oscOut;
#X obj 137 78 list;
#X obj 135 44 r screenLine1;
#X obj 297 169 list append;
#X obj 297 194 list trim;
#X obj 324 106 t b l;
#X obj 297 219 s oscOut;
#X obj 324 74 list;
#X obj 505 198 list trim;
#X obj 532 110 t b l;
#X obj 505 223 s oscOut;
#X obj 532 78 list;
#X obj 505 173 list append;
#X obj 697 170 list append;
#X obj 697 195 list trim;
#X obj 724 107 t b l;
#X obj 697 220 s oscOut;
#X obj 724 75 list;
#X obj 914 170 list append;
#X obj 914 195 list trim;
#X obj 941 107 t b l;
#X obj 914 220 s oscOut;
#X obj 941 75 list;
#X obj 322 40 r screenLine2;
#X obj 530 44 r screenLine3;
#X obj 722 41 r screenLine4;
#X obj 939 41 r screenLine5;
#X msg 222 134 send /oled/line/2;
#X msg 430 138 send /oled/line/3;
#X msg 622 136 send /oled/line/4;
#X msg 839 135 send /oled/line/5;
#X connect 0 0 1 0;
#X connect 1 0 4 0;
#X connect 2 0 3 0;
#X connect 2 1 0 1;
#X connect 3 0 0 0;
#X connect 5 0 2 0;
#X connect 6 0 5 0;
#X connect 7 0 8 0;
#X connect 8 0 10 0;
#X connect 9 0 31 0;
#X connect 9 1 7 1;
#X connect 11 0 9 0;
#X connect 12 0 14 0;
#X connect 13 0 32 0;
#X connect 13 1 16 1;
#X connect 15 0 13 0;
#X connect 16 0 12 0;
#X connect 17 0 18 0;
#X connect 18 0 20 0;
#X connect 19 0 33 0;
#X connect 19 1 17 1;
#X connect 21 0 19 0;
#X connect 22 0 23 0;
#X connect 23 0 25 0;
#X connect 24 0 34 0;
#X connect 24 1 22 1;
#X connect 26 0 24 0;
#X connect 27 0 11 0;
#X connect 28 0 15 0;
#X connect 29 0 21 0;
#X connect 30 0 26 0;
#X connect 31 0 7 0;
#X connect 32 0 16 0;
#X connect 33 0 17 0;
#X connect 34 0 22 0;
#X restore 383 395 pd OLED;
#N canvas 7 50 450 300 quit 0;
#X obj 96 95 sel 1;
#X obj 96 149 delay 100;
#X msg 96 171 \; pd quit;
#X obj 96 117 t b b;
#X obj 170 150 s quitting;
#X obj 96 60 routeOSC /quitpd;
#X obj 96 26 r oscIn;
#X connect 0 0 3 0;
#X connect 1 0 2 0;
#X connect 3 0 1 0;
#X connect 3 1 4 0;
#X connect 5 0 0 0;
#X connect 6 0 5 0;
#X restore 381 469 pd quit;
#N canvas 11 50 516 343 keys 0;
#X obj 119 56 routeOSC /key;
#X obj 206 114 unpack;
#X floatatom 206 144 5 0 0 0 - - -, f 5;
#X floatatom 253 146 5 0 0 0 - - -, f 5;
#X obj 206 212 pack;
#X obj 206 247 s notes;
#X obj 253 173 / 1;
#X obj 206 171 + 59;
#X obj 119 112 sel 100;
#X msg 119 145 1;
#X msg 165 145 0;
#X obj 119 178 s aux;
#X obj 119 83 route 0;
#X obj 119 26 r oscIn;
#X obj 284 249 s notesRaw;
#X obj 39 181 s auxRaw;
#X connect 0 0 12 0;
#X connect 1 0 2 0;
#X connect 1 1 3 0;
#X connect 2 0 7 0;
#X connect 3 0 6 0;
#X connect 4 0 5 0;
#X connect 4 0 14 0;
#X connect 6 0 4 1;
#X connect 7 0 4 0;
#X connect 8 0 9 0;
#X connect 8 1 10 0;
#X connect 9 0 11 0;
#X connect 9 0 15 0;
#X connect 10 0 11 0;
#X connect 10 0 15 0;
#X connect 12 0 8 0;
#X connect 12 1 1 0;
#X connect 13 0 0 0;
#X restore 381 496 pd keys;
#N canvas 11 50 821 300 footSwitch 0;
#X obj 194 218 s fs;
#X obj 194 109 routeOSC /fs;
#X obj 194 76 r oscIn;
#X obj 254 219 s fsRaw;
#X obj 194 171 == 0;
#X text 253 167 flip this cause most foot switches we tried are normally
closed, f 66;
#X obj 327 118 r footSwitchPolarity;
#X connect 1 0 4 0;
#X connect 2 0 1 0;
#X connect 4 0 3 0;
#X connect 4 0 0 0;
#X connect 6 0 4 1;
#X restore 381 523 pd footSwitch;
#N canvas 223 94 1329 471 analog 0;
#X obj 123 123 routeOSC /knobs;
#X obj 909 266 s vol;
#X obj 123 153 unpack 0 0 0 0 0 0, f 129;
#X obj 909 233 / 1024;
#X obj 1048 294 / 1024;
#X floatatom 123 312 5 0 0 0 - - -, f 5;
#X obj 197 341 tgl 15 0 empty empty empty 17 7 0 10 -262144 -1 -1 0
1;
#X obj 197 201 r knob1Override;
#X obj 123 340 s knob1;
#X floatatom 314 318 5 0 0 0 - - -, f 5;
#X obj 388 342 tgl 15 0 empty empty empty 17 7 0 10 -262144 -1 -1 0
1;
#X floatatom 507 317 5 0 0 0 - - -, f 5;
#X obj 581 341 tgl 15 0 empty empty empty 17 7 0 10 -262144 -1 -1 0
1;
#X floatatom 698 319 5 0 0 0 - - -, f 5;
#X obj 772 343 tgl 15 0 empty empty empty 17 7 0 10 -262144 -1 -1 0
1;
#X obj 314 341 s knob2;
#X obj 507 340 s knob3;
#X obj 698 342 s knob4;
#X obj 388 202 r knob2Override;
#X obj 581 201 r knob3Override;
#X obj 774 203 r knob4Override;
#X obj 123 262 override 20;
#X obj 123 288 / 1024;
#X obj 314 291 / 1024;
#X obj 507 290 / 1024;
#X obj 698 292 / 1024;
#X obj 123 89 r oscIn;
#X obj 36 268 s knob1Raw;
#X obj 223 273 s knob2Raw;
#X obj 420 270 s knob3Raw;
#X obj 617 272 s knob4Raw;
#X obj 1048 354 s exp;
#X obj 1122 199 r expOverride;
#X obj 1122 319 tgl 15 0 empty empty empty 17 7 0 10 -262144 -1 -1
0 1;
#X obj 984 258 s expRaw;
#X floatatom 1048 327 5 0 0 0 - - -, f 5;
#X obj 123 209 change -1;
#X obj 314 210 change -1;
#X obj 507 209 change -1;
#X obj 698 211 change -1;
#X obj 909 198 change -1;
#X obj 1048 197 change -1;
#X obj 698 264 override 20;
#X obj 314 263 override 20;
#X obj 507 262 override 20;
#X obj 1048 263 override 20;
#X connect 0 0 2 0;
#X connect 2 0 36 0;
#X connect 2 1 37 0;
#X connect 2 2 38 0;
#X connect 2 3 39 0;
#X connect 2 4 40 0;
#X connect 2 5 41 0;
#X connect 3 0 1 0;
#X connect 4 0 35 0;
#X connect 5 0 8 0;
#X connect 7 0 21 1;
#X connect 9 0 15 0;
#X connect 11 0 16 0;
#X connect 13 0 17 0;
#X connect 18 0 43 1;
#X connect 19 0 44 1;
#X connect 20 0 42 1;
#X connect 21 0 22 0;
#X connect 21 1 6 0;
#X connect 22 0 5 0;
#X connect 23 0 9 0;
#X connect 24 0 11 0;
#X connect 25 0 13 0;
#X connect 26 0 0 0;
#X connect 32 0 45 1;
#X connect 35 0 31 0;
#X connect 36 0 21 0;
#X connect 36 0 27 0;
#X connect 37 0 28 0;
#X connect 37 0 43 0;
#X connect 38 0 29 0;
#X connect 38 0 44 0;
#X connect 39 0 30 0;
#X connect 39 0 42 0;
#X connect 40 0 3 0;
#X connect 41 0 34 0;
#X connect 41 0 45 0;
#X connect 42 0 25 0;
#X connect 42 1 14 0;
#X connect 43 0 23 0;
#X connect 43 1 10 0;
#X connect 44 0 24 0;
#X connect 44 1 12 0;
#X connect 45 0 4 0;
#X connect 45 1 33 0;
#X restore 382 556 pd analog;
#X text 355 333 stuff going out (from patch)...;
#X text 352 440 stuff coming in (to patch)...;
#X text 269 252 connected to mother background program;
#X text 293 8 Receives and sends signals to the Organelle hardware.
A program running in the background interacts with the hardware and
exchanges messages with this patch using OSC over UDP.;
#X obj 880 60 r take-screenshot;
#X connect 0 0 3 0;
#X connect 2 0 6 0;
#X connect 3 0 4 0;
#X connect 4 0 16 0;
#X connect 5 0 6 0;
#X connect 6 0 1 0;
#X connect 7 0 5 0;
#X connect 8 0 2 0;
#X connect 8 1 0 0;
#X connect 9 0 8 0;
#X connect 10 0 15 0;
#X connect 12 0 13 0;
#X connect 13 0 10 0;
#X connect 13 0 14 0;
#X connect 28 0 10 0;
#X connect 28 0 14 0;
#X restore 86 304 pd messageIO;
#N canvas 118 123 1711 763 MIDI 0;
#X obj 51 227 spigot 1;
#X obj 139 183 r midiInGate;
#X obj 51 257 t f b;
#X obj 51 295 / 127;
#X obj 51 317 s knob1;
#X obj 103 290 s knob1Override;
#X obj 51 188 change;
#X obj 250 223 spigot 1;
#X obj 338 179 r midiInGate;
#X obj 250 253 t f b;
#X obj 250 291 / 127;
#X obj 250 184 change;
#X obj 444 219 spigot 1;
#X obj 532 175 r midiInGate;
#X obj 444 249 t f b;
#X obj 444 287 / 127;
#X obj 444 180 change;
#X obj 642 218 spigot 1;
#X obj 730 174 r midiInGate;
#X obj 642 248 t f b;
#X obj 642 286 / 127;
#X obj 642 179 change;
#X obj 250 313 s knob2;
#X obj 444 309 s knob3;
#X obj 642 308 s knob4;
#X obj 302 286 s knob2Override;
#X obj 497 282 s knob3Override;
#X obj 694 280 s knob4Override;
#X obj 884 170 notein;
#X obj 884 206 pack;
#X obj 884 238 spigot 1;
#X obj 839 607 spigot 1;
#X obj 839 639 unpack;
#X obj 839 671 noteout;
#X obj 958 186 r midiInGate;
#X obj 884 271 s notes;
#X obj 892 570 r midiOutGate;
#X obj 48 631 i;
#X obj 48 653 change;
#X obj 48 585 spigot 1;
#X obj 101 553 r midiOutGate;
#X obj 220 633 i;
#X obj 220 655 change;
#X obj 220 587 spigot 1;
#X obj 273 555 r midiOutGate;
#X obj 390 637 i;
#X obj 390 659 change;
#X obj 390 591 spigot 1;
#X obj 443 559 r midiOutGate;
#X obj 568 634 i;
#X obj 568 656 change;
#X obj 568 588 spigot 1;
#X obj 621 556 r midiOutGate;
#X obj 568 612 / 8;
#X obj 390 615 / 8;
#X obj 220 611 / 8;
#X obj 48 609 / 8;
#X obj 48 675 ctlout 21 1;
#X obj 220 677 ctlout 22 1;
#X obj 388 681 ctlout 23 1;
#X obj 568 678 ctlout 24 1;
#X obj 48 512 r knob1Raw;
#X obj 220 523 r knob2Raw;
#X obj 390 519 r knob3Raw;
#X obj 568 529 r knob4Raw;
#X obj 839 533 r notesRaw;
#X text 670 101 MIDI in;
#X text 570 473 MIDI out;
#X obj 444 153 ctlin 23 1;
#X obj 642 152 ctlin 24 1;
#X obj 51 160 ctlin 21 1;
#X obj 250 156 ctlin 22 1;
#X obj 1091 641 i;
#X obj 1091 663 change;
#X obj 1091 595 spigot 1;
#X obj 1144 563 r midiOutGate;
#X obj 1091 536 r auxRaw;
#X obj 1091 619 * 127;
#X obj 1091 689 ctlout 25 1;
#X obj 1092 210 spigot 1;
#X obj 1180 166 r midiInGate;
#X obj 1092 151 ctlin 25 1;
#X obj 1092 298 s aux;
#X obj 1272 632 i;
#X obj 1272 654 change;
#X obj 1272 586 spigot 1;
#X obj 1325 554 r midiOutGate;
#X obj 1272 610 * 127;
#X obj 1272 527 r fsRaw;
#X obj 1272 680 ctlout 64 1;
#X obj 1285 204 spigot 1;
#X obj 1373 160 r midiInGate;
#X obj 1285 153 ctlin 64 1;
#X obj 1285 301 s fs;
#X obj 1285 234 >= 64;
#X obj 1285 266 change;
#X obj 1092 239 >= 64;
#X obj 1092 271 change;
#N canvas 231 140 529 478 program-change-in 0;
#X obj 89 42 pgmin;
#X obj 89 293 s oscOut;
#X msg 89 264 send /pgmchg \$1;
#X obj 89 72 spigot 1;
#X obj 142 43 r midiInGate;
#X obj 180 71 loadbang;
#X obj 89 163 spigot 0;
#X msg 180 128 1;
#X obj 180 99 delay 500;
#X msg 175 166 0;
#X text 219 152 speed limit these;
#X text 43 4 program change in loads new patch;
#X obj 89 197 t f b b;
#X obj 89 230 i;
#X connect 0 0 3 0;
#X connect 2 0 1 0;
#X connect 3 0 6 0;
#X connect 4 0 3 1;
#X connect 5 0 8 0;
#X connect 6 0 12 0;
#X connect 7 0 6 1;
#X connect 8 0 7 0;
#X connect 9 0 6 1;
#X connect 12 0 13 0;
#X connect 12 1 8 0;
#X connect 12 2 9 0;
#X connect 13 0 2 0;
#X restore 1086 86 pd program-change-in;
#X obj 1474 635 i;
#X obj 1474 657 change;
#X obj 1474 589 spigot 1;
#X obj 1527 557 r midiOutGate;
#X obj 1474 613 / 8;
#X obj 1474 679 ctlout 26 1;
#X obj 1474 530 r expRaw;
#X obj 1478 214 spigot 1;
#X obj 1566 170 r midiInGate;
#X obj 1478 244 t f b;
#X obj 1478 282 / 127;
#X obj 1478 175 change;
#X obj 1478 148 ctlin 26 1;
#X obj 1530 277 s expOverride;
#X obj 1478 304 s exp;
#X text 709 472 the 'raw' stuff comes directly from built in controls
;
#X text 553 23 This patch provides the default MIDI behavior. All MIDI
output and input can be suppressed by sending a 0 to midiOutGate and
midiInGate respectively.;
#X text 1099 57 program change loads new patches;
#X connect 0 0 2 0;
#X connect 1 0 0 1;
#X connect 2 0 3 0;
#X connect 2 1 5 0;
#X connect 3 0 4 0;
#X connect 6 0 0 0;
#X connect 7 0 9 0;
#X connect 8 0 7 1;
#X connect 9 0 10 0;
#X connect 9 1 25 0;
#X connect 10 0 22 0;
#X connect 11 0 7 0;
#X connect 12 0 14 0;
#X connect 13 0 12 1;
#X connect 14 0 15 0;
#X connect 14 1 26 0;
#X connect 15 0 23 0;
#X connect 16 0 12 0;
#X connect 17 0 19 0;
#X connect 18 0 17 1;
#X connect 19 0 20 0;
#X connect 19 1 27 0;
#X connect 20 0 24 0;
#X connect 21 0 17 0;
#X connect 28 0 29 0;
#X connect 28 1 29 1;
#X connect 29 0 30 0;
#X connect 30 0 35 0;
#X connect 31 0 32 0;
#X connect 32 0 33 0;
#X connect 32 1 33 1;
#X connect 34 0 30 1;
#X connect 36 0 31 1;
#X connect 37 0 38 0;
#X connect 38 0 57 0;
#X connect 39 0 56 0;
#X connect 40 0 39 1;
#X connect 41 0 42 0;
#X connect 42 0 58 0;
#X connect 43 0 55 0;
#X connect 44 0 43 1;
#X connect 45 0 46 0;
#X connect 46 0 59 0;
#X connect 47 0 54 0;
#X connect 48 0 47 1;
#X connect 49 0 50 0;
#X connect 50 0 60 0;
#X connect 51 0 53 0;
#X connect 52 0 51 1;
#X connect 53 0 49 0;
#X connect 54 0 45 0;
#X connect 55 0 41 0;
#X connect 56 0 37 0;
#X connect 61 0 39 0;
#X connect 62 0 43 0;
#X connect 63 0 47 0;
#X connect 64 0 51 0;
#X connect 65 0 31 0;
#X connect 68 0 16 0;
#X connect 69 0 21 0;
#X connect 70 0 6 0;
#X connect 71 0 11 0;
#X connect 72 0 73 0;
#X connect 73 0 78 0;
#X connect 74 0 77 0;
#X connect 75 0 74 1;
#X connect 76 0 74 0;
#X connect 77 0 72 0;
#X connect 79 0 96 0;
#X connect 80 0 79 1;
#X connect 81 0 79 0;
#X connect 83 0 84 0;
#X connect 84 0 89 0;
#X connect 85 0 87 0;
#X connect 86 0 85 1;
#X connect 87 0 83 0;
#X connect 88 0 85 0;
#X connect 90 0 94 0;
#X connect 91 0 90 1;
#X connect 92 0 90 0;
#X connect 94 0 95 0;
#X connect 95 0 93 0;
#X connect 96 0 97 0;
#X connect 97 0 82 0;
#X connect 99 0 100 0;
#X connect 100 0 104 0;
#X connect 101 0 103 0;
#X connect 102 0 101 1;
#X connect 103 0 99 0;
#X connect 105 0 101 0;
#X connect 106 0 108 0;
#X connect 107 0 106 1;
#X connect 108 0 109 0;
#X connect 108 1 112 0;
#X connect 109 0 113 0;
#X connect 110 0 106 0;
#X connect 111 0 110 0;
#X restore 87 333 pd MIDI;
#X text 241 19 Mother Patch. This patch is the bridge between the hardware
and Pd. Without it open the Organelle does not work. It should not
need to be edited under most circumstances.;
#X text 455 135 knobs;
#X text 617 129 foot switch / expression pedal, f 17;
#X text 349 370 aux button;
#X text 473 367 keyboard;
#X text 318 100 The following values are available in your patch:;
#X obj 1047 182 s take-screenshot;
#X obj 1047 150 bng 15 250 50 0 empty empty empty 17 7 0 10 -262144
-1 -1;
#X obj 868 213 r~ mainOutL;
#X obj 936 234 r~ mainOutR;
#X obj 868 284 writesf~ 2;
#X msg 880 159 open ./1.wav;
#X msg 825 161 start;
#X obj 812 353 tgl 50 0 empty empty empty 17 7 0 100 -262144 -1 -1
0 1;
#X msg 812 317 1;
#X msg 782 161 stop;
#X msg 758 315 0;
#X obj 909 353 sel 1;
#X text 795 23 This version of mother.pd has these controls to;
#X text 795 62 record output.;
#X text 795 43 document the patch: take a screenshot of OLED \, and
;
#X text 965 353 autostop after 30 seconds;
#X obj 910 391 delay 30000;
#X connect 1 0 2 0;
#X connect 2 0 0 0;
#X connect 3 0 4 0;
#X connect 8 0 5 0;
#X connect 9 0 6 0;
#X connect 10 0 7 0;
#X connect 12 0 13 0;
#X connect 13 0 14 0;
#X connect 13 1 15 0;
#X connect 16 0 17 0;
#X connect 18 0 19 0;
#X connect 20 0 11 0;
#X connect 31 0 30 0;
#X connect 32 0 34 0;
#X connect 33 0 34 1;
#X connect 35 0 34 0;
#X connect 36 0 34 0;
#X connect 36 0 38 0;
#X connect 38 0 37 0;
#X connect 38 0 41 0;
#X connect 39 0 40 0;
#X connect 39 0 34 0;
#X connect 40 0 37 0;
#X connect 41 0 46 0;
#X connect 46 0 39 0;
