#N canvas 298 50 1465 956 10;
#X obj 689 675 s~ \$0-phase;
#X obj 251 279 r \$0-chunk-size;
#X obj 180 207 r~ \$0-phase;
#X obj 234 614 r \$0-pointer;
#X obj 625 16 inlet;
#X obj 116 27 inlet;
#X obj 181 705 *~, f 31;
#X obj 742 85 s \$0-pointer;
#X obj 926 662 r \$0-pointer;
#X obj 707 204 r \$0-chunk-size;
#X text 808 309 convert to ms;
#X obj 181 877 outlet~;
#X obj 181 857 hip~ 5;
#X obj 738 370 r \$0-speed;
#X text 1000 819 get size of sample in samples;
#X obj 625 82 s \$0-speed;
#X obj 234 636 list prepend set;
#X obj 234 658 route list;
#X text 232 60 0-1 floating point;
#X obj 926 794 array size \$1;
#X obj 926 818 s \$0-size;
#X obj 1014 765 symbol;
#X obj 181 617 +~ 1;
#X obj 728 229 r \$0-size;
#X obj 728 251 t b a;
#X obj 707 305 / 44.1;
#X obj 181 499 wrap~;
#X obj 181 587 *~, f 8;
#X obj 233 521 r \$0-size;
#X text 780 255 multiply by sample length;
#X text 798 436 scale to set speed;
#X text 613 722 sets sharpness of the ends of window;
#X obj 307 565 loadbang;
#X obj 307 587 symbol \$1;
#X obj 181 683 tabread4~;
#X text 39 586 times sample length;
#X text 854 196 Argument 1: which table to read (use this object with
the cg-load-array);
#X text 852 169 Simple looper with wrap-around.;
#X text 669 15 control arguments;
#X obj 324 748 outlet~;
#X text 385 750 playhead 0-1;
#X obj 233 543 - 2;
#X obj 200 779 vline~;
#X obj 182 833 *~;
#X obj 200 731 r \$0-duck;
#X obj 1006 716 s \$0-duck;
#X obj 1017 740 symbol;
#X obj 926 743 t b b;
#X obj 181 476 +~;
#X obj 181 363 *~;
#X obj 877 381 outlet sample size;
#X obj 233 326 sig~;
#X text 270 327 convert to signal;
#X msg 1084 709 stop;
#X obj 228 449 sig~;
#X obj 233 565 sig~;
#X obj 179 86 s \$0-duck;
#X msg 175 113 stop;
#X text 995 392 in ms;
#X obj 200 801 *~;
#X obj 707 276 * 1;
#X obj 738 392 t b a;
#X obj 707 440 *;
#X obj 689 643 vline~, f 11;
#X obj 116 136 s \$0-trigger;
#X obj 729 483 r \$0-trigger;
#X obj 689 554 f;
#X msg 761 532 0;
#X msg 689 577 1 \$1;
#X obj 976 90 s \$0-chunk-size;
#X obj 859 82 s \$0-read-point;
#X obj 615 349 s \$0-size-ms;
#X obj 116 113 f;
#X obj 729 505 t b b;
#X msg 200 756 0 5 \, 1 5 6;
#X obj 116 84 del 5.5;
#X obj 926 717 del 5.5;
#X obj 233 305 f;
#X obj 233 234 r \$0-trigger;
#X obj 233 256 b;
#X obj 228 428 f;
#X obj 228 357 r \$0-trigger;
#X obj 228 379 b;
#X obj 246 403 r \$0-read-point;
#X obj 976 68 max 0.01;
#X obj 926 684 t b a b b, f 23;
#X obj 116 54 t b f b b, f 14;
#X obj 625 44 route speed point start length a d, f 91;
#X obj 1047 68 s \$0-a;
#X obj 1145 77 s \$0-d;
#X text 1096 105 0-1;
#X text 1151 103 0-1;
#N canvas 709 120 789 824 envelope 0;
#X obj 277 267 r \$0-size-ms;
#X obj 207 569 vline~;
#X obj 207 591 *~;
#X obj 207 325 sqrt;
#X obj 208 621 outlet~;
#X obj 263 35 r \$0-a;
#X obj 388 33 r \$0-d;
#X text 254 10 percentage attack and decay envelope;
#X obj 263 115 f;
#X obj 277 92 t b a;
#X obj 388 115 f;
#X obj 402 92 t b a;
#X obj 263 57 t a a;
#X obj 388 55 t a a;
#X obj 263 313 f;
#X obj 277 290 t b a;
#X obj 263 335 *, f 7;
#X obj 402 188 r \$0-size-ms;
#X obj 388 233 f;
#X obj 402 210 t b a;
#X obj 388 255 *, f 7;
#X obj 297 220 +;
#X obj 297 197 t b a;
#X obj 207 503 pack 0 0 0 0, f 36;
#X obj 207 302 / 127;
#X msg 207 538 \$1 \$2 0 \, 0 \$3 \$4;
#X obj 470 398 r \$0-size-ms;
#X obj 456 444 f;
#X obj 470 421 t b a;
#X obj 456 466 *, f 7;
#X obj 89 50 inlet trigger;
#X obj 263 137 min, f 7;
#X obj 388 137 max, f 7;
#X obj 297 172 expr 1-$f1;
#X obj 373 480 max 10;
#X obj 290 479 max 5;
#X connect 0 0 15 0;
#X connect 1 0 2 0;
#X connect 1 0 2 1;
#X connect 2 0 4 0;
#X connect 3 0 23 0;
#X connect 5 0 12 0;
#X connect 6 0 13 0;
#X connect 8 0 31 0;
#X connect 9 0 8 0;
#X connect 9 1 31 1;
#X connect 10 0 32 0;
#X connect 11 0 10 0;
#X connect 11 1 32 1;
#X connect 12 0 8 0;
#X connect 12 1 11 0;
#X connect 13 0 10 0;
#X connect 13 1 9 0;
#X connect 14 0 16 0;
#X connect 15 0 14 0;
#X connect 15 1 16 1;
#X connect 16 0 35 0;
#X connect 17 0 19 0;
#X connect 18 0 20 0;
#X connect 19 0 18 0;
#X connect 19 1 20 1;
#X connect 20 0 34 0;
#X connect 21 0 27 0;
#X connect 22 0 21 0;
#X connect 22 1 21 1;
#X connect 23 0 25 0;
#X connect 24 0 3 0;
#X connect 25 0 1 0;
#X connect 26 0 28 0;
#X connect 27 0 29 0;
#X connect 28 0 27 0;
#X connect 28 1 29 1;
#X connect 29 0 23 3;
#X connect 30 0 24 0;
#X connect 31 0 14 0;
#X connect 31 0 21 0;
#X connect 32 0 18 0;
#X connect 32 0 33 0;
#X connect 33 0 22 0;
#X connect 34 0 23 2;
#X connect 35 0 23 1;
#X restore 396 679 pd envelope;
#X obj 396 649 r \$0-trigger;
#X connect 1 0 77 1;
#X connect 2 0 49 0;
#X connect 3 0 16 0;
#X connect 4 0 87 0;
#X connect 5 0 86 0;
#X connect 6 0 43 0;
#X connect 8 0 85 0;
#X connect 9 0 60 0;
#X connect 12 0 11 0;
#X connect 13 0 61 0;
#X connect 16 0 17 0;
#X connect 17 0 34 0;
#X connect 19 0 20 0;
#X connect 21 0 19 1;
#X connect 22 0 34 0;
#X connect 23 0 24 0;
#X connect 24 0 60 0;
#X connect 24 1 60 1;
#X connect 25 0 50 0;
#X connect 25 0 71 0;
#X connect 25 0 62 0;
#X connect 26 0 27 0;
#X connect 26 0 39 0;
#X connect 27 0 22 0;
#X connect 28 0 41 0;
#X connect 32 0 33 0;
#X connect 33 0 16 0;
#X connect 34 0 6 0;
#X connect 41 0 55 0;
#X connect 42 0 59 0;
#X connect 42 0 59 1;
#X connect 43 0 12 0;
#X connect 44 0 74 0;
#X connect 46 0 21 1;
#X connect 47 0 19 0;
#X connect 47 1 21 0;
#X connect 48 0 26 0;
#X connect 49 0 48 0;
#X connect 51 0 49 1;
#X connect 53 0 76 0;
#X connect 54 0 48 1;
#X connect 55 0 27 1;
#X connect 57 0 75 0;
#X connect 59 0 43 1;
#X connect 60 0 25 0;
#X connect 61 0 62 0;
#X connect 61 1 62 1;
#X connect 62 0 66 1;
#X connect 63 0 0 0;
#X connect 65 0 73 0;
#X connect 66 0 68 0;
#X connect 67 0 63 0;
#X connect 68 0 63 0;
#X connect 72 0 64 0;
#X connect 73 0 66 0;
#X connect 73 1 67 0;
#X connect 74 0 42 0;
#X connect 75 0 72 0;
#X connect 76 0 47 0;
#X connect 77 0 51 0;
#X connect 78 0 79 0;
#X connect 79 0 77 0;
#X connect 80 0 54 0;
#X connect 81 0 82 0;
#X connect 82 0 80 0;
#X connect 83 0 80 1;
#X connect 84 0 69 0;
#X connect 85 0 76 0;
#X connect 85 1 46 0;
#X connect 85 2 45 0;
#X connect 85 3 53 0;
#X connect 86 0 75 0;
#X connect 86 1 72 1;
#X connect 86 2 56 0;
#X connect 86 3 57 0;
#X connect 87 0 15 0;
#X connect 87 1 7 0;
#X connect 87 2 70 0;
#X connect 87 3 84 0;
#X connect 87 4 88 0;
#X connect 87 5 89 0;
#X connect 92 0 6 1;
#X connect 93 0 92 0;
