#N canvas 136 50 1529 931 10;
#X text 88 22 arg1: instance name;
#X obj 307 258 s \$0-2-qlist;
#X obj 133 652 r \$1-seqq1;
#X obj 335 178 loadbang;
#N canvas 182 50 1523 881 states 1;
#X text 284 14 Controls State With Aux Button;
#X msg 415 243 1;
#X obj 347 166 t b b b, f 20;
#X msg 484 188 0;
#X obj 347 277 list prepend, f 13;
#X obj 347 299 route 0 1, f 20;
#N canvas 615 187 970 530 check-for-on-notes 0;
#X obj 281 77 inlet bang;
#X obj 320 206 outlet bang if a note is on;
#X obj 281 154 sel -1;
#X obj 320 179 b;
#X msg 281 104 -1 0;
#X obj 281 132 text search cg-seqq-\$1-notes-on > 0;
#X connect 0 0 4 0;
#X connect 2 1 3 0;
#X connect 3 0 1 0;
#X connect 4 0 5 0;
#X connect 5 0 2 0;
#X restore 415 215 pd check-for-on-notes;
#X obj 226 17 inlet;
#X obj 226 69 sel 1, f 12;
#X obj 750 276 f;
#X obj 750 223 sel 1;
#X obj 750 183 t f f, f 7;
#X obj 750 302 sel 1;
#X obj 750 248 del 500;
#X msg 258 401 1;
#X obj 258 424 b;
#X obj 258 491 sel 0 1 2 3 4, f 66;
#X obj 226 122 sel 0;
#X msg 997 103 stop;
#X msg 938 102 0;
#X text 973 104 =;
#X text 973 134 =;
#X msg 938 132 1;
#X msg 997 133 start;
#X text 973 164 =;
#X msg 938 162 2;
#X msg 997 163 recenable;
#X text 943 494 when something is recorded switch the variable to 3
;
#X text 973 194 =;
#X msg 937 192 3;
#X msg 997 193 record;
#X text 973 224 =;
#X msg 937 222 4;
#X msg 996 222 latch on;
#X obj 415 355 t f f, f 20;
#X msg 415 333 4;
#X obj 626 704 t f f;
#X msg 626 679 0;
#X msg 533 515 1;
#X msg 349 516 0;
#X obj 349 539 t f f;
#X obj 258 632 t f f;
#X msg 258 609 1;
#X msg 441 689 0;
#X obj 441 712 t f f;
#X msg 750 324 2;
#X obj 750 349 t f f, f 21;
#X text 1056 661 latch off is simply in all of these \, eg right outlet
of select;
#X text 577 517 if recording: end seq and go back to play;
#X obj 533 539 t f f b b b, f 14;
#X obj 226 97 v cg-seqq-\$1-state;
#X obj 258 677 v cg-seqq-\$1-state;
#X obj 349 582 v cg-seqq-\$1-state;
#X obj 533 656 v cg-seqq-\$1-state;
#X obj 441 755 v cg-seqq-\$1-state;
#X obj 626 755 v cg-seqq-\$1-state;
#X obj 750 380 v cg-seqq-\$1-state;
#X obj 415 380 v cg-seqq-\$1-state;
#X obj 552 380 s cg-seqq-\$1-actions;
#X obj 894 380 s cg-seqq-\$1-actions;
#X obj 556 635 s cg-seqq-\$1-actions;
#X obj 658 732 s cg-seqq-\$1-actions;
#X obj 473 734 s cg-seqq-\$1-actions;
#X obj 290 654 s cg-seqq-\$1-actions;
#X obj 381 561 s cg-seqq-\$1-actions;
#X obj 579 613 s cg-seqq-\$1-end_seq;
#X obj 258 457 v cg-seqq-\$1-state;
#X connect 1 0 4 1;
#X connect 2 0 4 0;
#X connect 2 1 6 0;
#X connect 2 2 3 0;
#X connect 3 0 4 1;
#X connect 4 0 5 0;
#X connect 5 0 14 0;
#X connect 5 1 35 0;
#X connect 6 0 1 0;
#X connect 7 0 8 0;
#X connect 8 0 50 0;
#X connect 8 1 11 0;
#X connect 9 0 12 0;
#X connect 10 0 13 0;
#X connect 11 0 10 0;
#X connect 11 1 9 1;
#X connect 12 0 45 0;
#X connect 13 0 9 0;
#X connect 14 0 11 0;
#X connect 14 0 15 0;
#X connect 15 0 66 0;
#X connect 16 0 42 0;
#X connect 16 1 39 0;
#X connect 16 2 43 0;
#X connect 16 3 38 0;
#X connect 16 4 37 0;
#X connect 17 0 2 0;
#X connect 17 1 14 0;
#X connect 34 0 57 0;
#X connect 34 1 58 0;
#X connect 35 0 34 0;
#X connect 36 0 55 0;
#X connect 36 1 61 0;
#X connect 37 0 36 0;
#X connect 38 0 49 0;
#X connect 39 0 40 0;
#X connect 40 0 52 0;
#X connect 40 1 64 0;
#X connect 41 0 51 0;
#X connect 41 1 63 0;
#X connect 42 0 41 0;
#X connect 43 0 44 0;
#X connect 44 0 54 0;
#X connect 44 1 62 0;
#X connect 45 0 46 0;
#X connect 46 0 56 0;
#X connect 46 1 59 0;
#X connect 49 0 53 0;
#X connect 49 1 60 0;
#X connect 49 2 65 0;
#X connect 50 0 17 0;
#X connect 66 0 16 0;
#X restore 699 140 pd states;
#X obj 447 507 bag;
#X msg 476 467 flush;
#X obj 447 531 pack 0 0;
#X text 457 329 Kills notes left on by sequence.;
#X msg 207 510 0;
#X obj 1063 155 loadbang;
#X obj 1063 251 s \$0-2-qlist;
#X msg 1063 211 tempo \$1;
#X msg 1063 177 1, f 22;
#X obj 307 102 r saveState;
#X obj 153 429 sel 0 1 2 3 4, f 20;
#X msg 153 530 0;
#X msg 180 457 1;
#X text 301 391 play/stop control;
#X obj 785 598 sel 0 1 2 3 4, f 20;
#X msg 785 642 0;
#X obj 785 694 s led;
#X msg 825 642 3;
#X msg 859 642 6;
#X msg 895 641 1;
#X msg 930 641 4;
#X obj 476 399 sel 0 2 3 4;
#X obj 1104 123 inlet tempo;
#X text 264 785 output;
#X obj 87 97 inlet things to record;
#X text 105 57 prepend with numbers for recording multiple events;
#X obj 133 854 outlet, f 7;
#X text 203 837 send to a route if using more than one prepend;
#X obj 699 109 inlet aux/fs;
#X obj 839 383 r cg-seqq-\$1-actions;
#X obj 153 552 s cg-seqq-\$1-kill;
#X obj 208 532 s cg-seqq-\$1-kill;
#X obj 180 479 s cg-seqq-\$1-kill;
#X msg 335 231 read \$1-save.txt;
#X msg 307 149 write \$1-save.txt;
#X obj 476 376 r cg-seqq-\$1-actions;
#X obj 534 432 r cg-seqq-\$1-quitting;
#X obj 447 556 s cg-seqq-\$1-zero_notes;
#X obj 335 200 symbol \$1;
#X obj 307 124 symbol \$1;
#N canvas 25 50 1344 828 write-to-seqq 0;
#X obj 484 674 list prepend add;
#X obj 484 738 route list;
#X obj 484 650 timer, f 11;
#X obj 484 718 list append, f 22;
#X obj 484 769 s \$0-2-qlist;
#X obj 484 570 spigot 0, f 27;
#X obj 484 621 t b b a, f 22;
#X obj 484 695 list append \$1-seqq1;
#X msg 732 440 1;
#X msg 778 460 0;
#X msg 822 600 clear;
#X obj 637 471 spigot 0, f 14;
#X msg 670 521 1;
#X msg 637 521 0;
#X obj 822 624 s \$0-2-qlist;
#X obj 637 497 t b b b, f 10;
#X msg 704 543 3;
#X obj 484 542 t a b;
#X obj 732 416 sel 2 3;
#X obj 704 571 t f f b b b, f 23;
#X msg 783 598 0;
#X obj 778 438 b;
#X text 509 369 add event for accurate timing;
#X msg 527 415 0;
#X obj 527 437 list prepend -1;
#N canvas 164 230 1170 465 latch 0;
#X text 522 150 THE LATCH!;
#N canvas 233 50 510 681 latch 0;
#X obj 173 298 spigot 1;
#X obj 43 298 spigot 0;
#X obj 226 272 == 0;
#X obj 193 134 inlet;
#X obj 43 626 outlet;
#X obj 43 106 inlet;
#X text 44 53 incoming notes get sent through latch if enabled \, or
directly to output if disabled;
#X obj 309 298 b;
#X obj 193 159 t f f b, f 17;
#X text 242 135 toggle enable / disables latch;
#N canvas 7 50 972 544 latch-the-notes 0;
#X obj 320 351 bag;
#X msg 412 297 flush;
#X obj 320 381 pack 1 0;
#X obj 380 113 stripnote;
#X obj 264 109 unpack;
#X obj 264 136 swap, f 6;
#X obj 264 165 pack 0 0;
#X obj 264 195 route 0;
#X obj 264 234 pack 0 100;
#X obj 380 137 pack, f 8;
#X obj 264 87 t a a, f 17;
#X obj 380 183 t a b;
#X obj 264 50 inlet;
#X obj 335 431 outlet;
#X obj 538 64 inlet;
#X obj 538 89 b;
#X connect 0 0 2 0;
#X connect 1 0 0 0;
#X connect 2 0 13 0;
#X connect 3 0 9 0;
#X connect 3 1 9 1;
#X connect 4 0 5 0;
#X connect 4 1 5 1;
#X connect 5 0 6 0;
#X connect 5 1 6 1;
#X connect 6 0 7 0;
#X connect 7 0 8 0;
#X connect 8 0 0 0;
#X connect 9 0 11 0;
#X connect 10 0 4 0;
#X connect 10 1 3 0;
#X connect 11 0 13 0;
#X connect 11 1 1 0;
#X connect 12 0 10 0;
#X connect 14 0 15 0;
#X connect 15 0 1 0;
#X restore 77 419 pd latch-the-notes;
#N canvas 8 50 972 544 latch-the-notes 0;
#X obj 320 351 bag;
#X msg 412 297 flush;
#X obj 320 381 pack 1 0;
#X obj 264 109 unpack;
#X obj 264 136 swap, f 6;
#X obj 264 165 pack 0 0;
#X obj 264 195 route 0;
#X obj 264 234 pack 0 100;
#X obj 264 87 t a a, f 17;
#X obj 264 50 inlet;
#X obj 335 431 outlet;
#X obj 538 64 inlet;
#X obj 538 89 b;
#X obj 380 122 stripnote;
#X connect 0 0 2 0;
#X connect 1 0 0 0;
#X connect 2 0 10 0;
#X connect 3 0 4 0;
#X connect 3 1 4 1;
#X connect 4 0 5 0;
#X connect 4 1 5 1;
#X connect 5 0 6 0;
#X connect 6 0 7 0;
#X connect 7 0 0 0;
#X connect 8 0 3 0;
#X connect 8 1 13 0;
#X connect 9 0 8 0;
#X connect 11 0 12 0;
#X connect 12 0 1 0;
#X connect 13 0 10 0;
#X restore 341 478 pd latch-the-notes;
#X connect 0 0 4 0;
#X connect 1 0 10 0;
#X connect 2 0 0 1;
#X connect 3 0 8 0;
#X connect 5 0 1 0;
#X connect 5 0 0 0;
#X connect 7 0 10 1;
#X connect 8 0 1 1;
#X connect 8 1 2 0;
#X connect 8 2 7 0;
#X connect 10 0 4 0;
#X restore 468 291 pd latch;
#X obj 468 95 inlet;
#X obj 468 313 outlet;
#X obj 598 96 inlet;
#X connect 1 0 3 0;
#X connect 2 0 1 0;
#X connect 4 0 1 1;
#X restore 484 261 pd latch;
#N canvas 18 50 1243 617 latch-textfile 0;
#X obj 263 177 unpack 0 0;
#X obj 263 254 f, f 13;
#X obj 263 199 t b a;
#X obj 263 276 sel 0, f 9;
#X msg 263 298 0;
#X obj 391 275 loadbang;
#X obj 263 354 list prepend;
#X obj 312 319 t a a;
#X text 349 189 this is used for turning on the latch;
#X obj 263 69 inlet;
#X obj 391 322 text define cg-seqq-\$1-notes-on;
#X obj 263 395 text set cg-seqq-\$1-notes-on;
#X msg 391 297 read cg-notes-on.txt;
#X connect 0 0 2 0;
#X connect 0 1 1 1;
#X connect 1 0 3 0;
#X connect 2 0 1 0;
#X connect 2 1 7 0;
#X connect 3 0 4 0;
#X connect 3 1 6 0;
#X connect 4 0 6 0;
#X connect 5 0 12 0;
#X connect 6 0 11 0;
#X connect 7 0 11 1;
#X connect 7 1 6 1;
#X connect 9 0 0 0;
#X connect 12 0 10 0;
#X restore 516 129 pd latch-textfile;
#X obj 484 102 t a a;
#X obj 537 153 r cg-seqq-\$1-actions;
#X obj 537 175 sel 4;
#X obj 569 197 b;
#X msg 569 219 0;
#X msg 537 197 1;
#X obj 743 653 s cg-seqq-\$1-actions;
#X obj 704 679 v cg-seqq-\$1-state;
#X obj 527 393 r cg-seqq-\$1-end_seq;
#X obj 732 394 r cg-seqq-\$1-actions;
#X obj 484 61 inlet;
#X obj 484 333 list prepend 1;
#X obj 516 307 s \$0-notes-out;
#X obj 484 283 t a a;
#X connect 0 0 7 0;
#X connect 1 0 4 0;
#X connect 2 0 0 0;
#X connect 3 0 1 0;
#X connect 5 0 6 0;
#X connect 6 0 2 0;
#X connect 6 1 2 1;
#X connect 6 2 3 1;
#X connect 7 0 3 0;
#X connect 8 0 11 1;
#X connect 9 0 5 1;
#X connect 9 0 11 1;
#X connect 10 0 14 0;
#X connect 11 0 15 0;
#X connect 12 0 5 1;
#X connect 13 0 11 1;
#X connect 15 0 13 0;
#X connect 15 1 12 0;
#X connect 15 2 16 0;
#X connect 16 0 19 0;
#X connect 17 0 5 0;
#X connect 17 1 11 0;
#X connect 18 0 8 0;
#X connect 18 2 21 0;
#X connect 19 0 34 0;
#X connect 19 1 33 0;
#X connect 19 2 20 0;
#X connect 19 3 10 0;
#X connect 19 4 2 0;
#X connect 21 0 9 0;
#X connect 23 0 24 0;
#X connect 24 0 17 0;
#X connect 25 0 40 0;
#X connect 27 0 25 0;
#X connect 27 1 26 0;
#X connect 28 0 29 0;
#X connect 29 0 32 0;
#X connect 29 1 30 0;
#X connect 30 0 31 0;
#X connect 31 0 25 1;
#X connect 32 0 25 1;
#X connect 35 0 23 0;
#X connect 36 0 18 0;
#X connect 37 0 27 0;
#X connect 38 0 17 0;
#X connect 40 0 38 0;
#X connect 40 1 39 0;
#X restore 87 170 pd write-to-seqq;
#N canvas 11 50 1357 925 the-qlist 0;
#X obj 368 164 qlist;
#X obj 368 141 r \$0-2-qlist;
#X obj 400 266 spigot 0;
#X obj 432 351 s \$0-2-qlist;
#X msg 432 323 rewind \, bang;
#X obj 400 385 t b b;
#X obj 463 431 delay 100;
#X text 520 550 Flashes LED at loop & sets color after sequence stop
;
#X msg 463 506 0;
#X msg 508 505 3;
#X msg 554 506 6;
#X msg 599 506 1;
#X msg 400 429 7;
#X obj 463 548 s led;
#X obj 400 288 t b b;
#X msg 507 237 1;
#X msg 538 215 rewind \, bang;
#X obj 538 287 s \$0-2-qlist;
#X msg 463 213 rewind;
#X msg 453 242 0;
#X msg 797 364 stop;
#X msg 738 363 0;
#X text 773 365 =;
#X text 773 395 =;
#X msg 738 393 1;
#X msg 797 394 start;
#X text 773 425 =;
#X msg 738 423 2;
#X msg 797 424 recenable;
#X text 773 455 =;
#X msg 737 453 3;
#X msg 797 454 record;
#X text 773 485 =;
#X msg 737 483 4;
#X msg 796 483 latch on;
#X obj 453 185 sel 0 1, f 22;
#X obj 463 479 sel 0 1 2 3 4, f 33;
#X msg 645 507 4;
#X obj 453 163 r cg-seqq-\$1-kill;
#X obj 463 455 v cg-seqq-\$1-state;
#X connect 0 1 2 0;
#X connect 1 0 0 0;
#X connect 2 0 14 0;
#X connect 4 0 3 0;
#X connect 5 0 12 0;
#X connect 5 1 6 0;
#X connect 6 0 39 0;
#X connect 8 0 13 0;
#X connect 9 0 13 0;
#X connect 10 0 13 0;
#X connect 11 0 13 0;
#X connect 12 0 13 0;
#X connect 14 0 5 0;
#X connect 14 1 4 0;
#X connect 15 0 2 1;
#X connect 16 0 17 0;
#X connect 18 0 17 0;
#X connect 19 0 2 1;
#X connect 35 0 18 0;
#X connect 35 0 19 0;
#X connect 35 1 15 0;
#X connect 35 1 16 0;
#X connect 36 0 8 0;
#X connect 36 1 9 0;
#X connect 36 2 10 0;
#X connect 36 3 11 0;
#X connect 36 4 37 0;
#X connect 37 0 13 0;
#X connect 38 0 35 0;
#X connect 39 0 36 0;
#X restore 113 262 pd the-qlist;
#X obj 133 674 route 1;
#X obj 231 683 r cg-seqq-\$1-zero_notes;
#X obj 226 657 r \$0-notes-out;
#X obj 153 387 r cg-seqq-\$1-actions;
#X obj 146 713 s \$0-notes-2-bag;
#X obj 447 350 r \$0-notes-2-bag;
#X obj 861 426 loadbang;
#X msg 861 448 0;
#X obj 839 542 spigot 0;
#X obj 939 407 r euc-screenLine-on;
#X obj 939 429 t a a;
#X obj 939 451 sel 1;
#X obj 939 473 del 10;
#X obj 839 511 f;
#X obj 955 574 sel 0 1 2 3 4, f 20;
#X msg 1033 681 \; screenLine5 Aux: Seq/Latch Off;
#X msg 1015 721 \; screenLine5 Aux: Seq. Playing;
#X msg 1097 761 \; screenLine5 Aux: Seq. Rec. Enabled;
#X msg 1141 801 \; screenLine5 Aux: Seq. Recording;
#X msg 1148 623 \; screenLine5 Aux: Latch On;
#X connect 2 0 47 0;
#X connect 3 0 43 0;
#X connect 5 0 7 0;
#X connect 6 0 5 0;
#X connect 7 0 42 0;
#X connect 9 0 36 0;
#X connect 10 0 13 0;
#X connect 12 0 11 0;
#X connect 13 0 12 0;
#X connect 14 0 44 0;
#X connect 15 0 16 0;
#X connect 15 1 17 0;
#X connect 15 2 9 0;
#X connect 15 3 9 0;
#X connect 15 4 9 0;
#X connect 16 0 35 0;
#X connect 17 0 37 0;
#X connect 19 0 20 0;
#X connect 19 1 22 0;
#X connect 19 2 23 0;
#X connect 19 3 24 0;
#X connect 19 4 25 0;
#X connect 20 0 21 0;
#X connect 22 0 21 0;
#X connect 23 0 21 0;
#X connect 24 0 21 0;
#X connect 25 0 21 0;
#X connect 26 0 6 0;
#X connect 26 1 6 0;
#X connect 26 2 6 0;
#X connect 26 3 6 0;
#X connect 27 0 12 0;
#X connect 29 0 45 0;
#X connect 33 0 4 0;
#X connect 34 0 60 0;
#X connect 34 0 19 0;
#X connect 38 0 1 0;
#X connect 39 0 1 0;
#X connect 40 0 26 0;
#X connect 41 0 6 0;
#X connect 43 0 38 0;
#X connect 44 0 39 0;
#X connect 47 0 31 0;
#X connect 47 0 51 0;
#X connect 48 0 31 0;
#X connect 49 0 31 0;
#X connect 50 0 15 0;
#X connect 52 0 5 0;
#X connect 53 0 54 0;
#X connect 54 0 60 0;
#X connect 54 0 19 0;
#X connect 55 0 61 0;
#X connect 56 0 57 0;
#X connect 57 0 58 0;
#X connect 57 1 55 1;
#X connect 58 0 59 0;
#X connect 59 0 60 0;
#X connect 60 0 55 0;
#X connect 61 0 62 0;
#X connect 61 1 63 0;
#X connect 61 2 64 0;
#X connect 61 3 65 0;
#X connect 61 4 66 0;
