#N canvas 428 218 862 513 10;
#X obj 320 351 bag;
#X msg 412 297 flush;
#X obj 320 381 pack 1 0;
#X obj 380 113 stripnote;
#X obj 264 109 unpack;
#X obj 264 136 swap, f 6;
#X obj 264 165 pack 0 0;
#X obj 264 195 route 0;
#X obj 264 234 pack 0 100;
#X obj 380 137 pack, f 8;
#X obj 264 87 t a a, f 17;
#X obj 380 183 t a b;
#X obj 264 50 inlet;
#X obj 335 431 outlet;
#X obj 538 64 inlet;
#X obj 538 89 b;
#X connect 0 0 2 0;
#X connect 1 0 0 0;
#X connect 2 0 13 0;
#X connect 3 0 9 0;
#X connect 3 1 9 1;
#X connect 4 0 5 0;
#X connect 4 1 5 1;
#X connect 5 0 6 0;
#X connect 5 1 6 1;
#X connect 6 0 7 0;
#X connect 7 0 8 0;
#X connect 8 0 0 0;
#X connect 9 0 11 0;
#X connect 10 0 4 0;
#X connect 10 1 3 0;
#X connect 11 0 13 0;
#X connect 11 1 1 0;
#X connect 12 0 10 0;
#X connect 14 0 15 0;
#X connect 15 0 1 0;
