#N canvas 184 128 1177 872 10;
#X declare -path CG-Pd-Library-Local/sequencer;
#X declare -path CG-Pd-Library-Local/externals;
#X declare -path CG-Pd-Library-Local/metronome;
#X declare -path /sdcard/CG-Pd-Library/sequencer;
#X declare -path /sdcard/CG-Pd-Library/externals;
#X declare -path /sdcard/CG-Pd-Library/metronome;
#N canvas 7 51 840 725 the-synth 0;
#X obj 61 350 catch~ segmenty-bus;
#X obj 61 372 outlet~;
#X obj 64 18 inlet;
#X obj 64 123 % 24;
#X obj 64 102 abs;
#X obj 64 81 expr if ($f1 > 59 \, $f1 - 60 \, $f1 - 12);
#X obj 64 59 unpack 0 0;
#X obj 64 146 pack 0 0, f 10;
#X obj 64 222 pack 0 0 0;
#X obj 64 244 route 1 2 3 4, f 64;
#X obj 397 295 segmenty-voice;
#X obj 64 201 poly 4 0, f 10;
#X obj 175 293 segmenty-voice;
#X obj 64 293 segmenty-voice;
#X obj 286 294 segmenty-voice;
#X connect 0 0 1 0;
#X connect 2 0 6 0;
#X connect 3 0 7 0;
#X connect 4 0 3 0;
#X connect 5 0 4 0;
#X connect 6 0 5 0;
#X connect 6 1 7 1;
#X connect 7 0 11 0;
#X connect 8 0 9 0;
#X connect 9 0 13 0;
#X connect 9 1 12 0;
#X connect 9 2 14 0;
#X connect 9 3 10 0;
#X connect 11 0 8 0;
#X connect 11 1 8 1;
#X connect 11 2 8 2;
#X restore 301 296 pd the-synth;
#X obj 301 358 throw~ outL;
#X obj 311 328 throw~ outR;
#N canvas 186 51 1730 993 the-knobs 0;
#X obj 231 387 s segmenty-sample-in;
#X obj 666 386 s segmenty-sample-out;
#X obj 338 477 r knob3;
#X obj 338 539 f;
#X obj 624 590 f;
#X obj 352 499 r \$0-re-bang;
#X obj 638 556 r \$0-re-bang;
#X obj 1213 344 bang;
#X obj 1262 342 i;
#X obj 1166 363 i;
#X obj 1166 391 abs;
#X obj 624 521 r knob4-detent;
#X obj 1167 238 detent 0.075, f 14;
#X obj 1142 307 s knob4-detent;
#X obj 950 50 r knob4;
#X obj 950 181 moses 0.5;
#X obj 1167 191 - 0.5;
#X obj 1167 213 * 2;
#X obj 984 371 bang;
#X obj 1040 384 - 0.5;
#X obj 1040 454 i;
#X obj 949 471 i;
#X obj 949 499 abs;
#X obj 950 291 detent 0.075;
#X obj 1000 350 s knob4-detent;
#X obj 950 212 - 0.5;
#X obj 950 234 * 2;
#X obj 950 256 abs;
#X obj 1262 272 - 0.5;
#X obj 1262 294 * 200;
#X obj 1262 316 + 100;
#X obj 1166 335 * 200;
#X obj 1142 280 * 2;
#X obj 1000 325 * -2;
#X obj 113 76 r segmenty-action;
#X obj 113 98 sel 0;
#X obj 145 119 b;
#X msg 145 141 0;
#X msg 113 120 1;
#X obj 145 171 s \$0-action-mute;
#X obj 1008 130 r \$0-action-mute;
#X obj 950 120 f;
#X obj 1007 84 r \$0-re-bang;
#X obj 950 151 spigot 1;
#X msg 1213 371 100;
#X obj 1209 465 f;
#X obj 1001 570 f;
#X msg 984 397 100;
#X msg 1059 691 /oled/gFlip 3;
#X obj 1107 740 s oscOut;
#X msg 1024 633 stop;
#X obj 1001 608 t b b b a b, f 17;
#X msg 1392 657 /oled/gFlip 3;
#X obj 1440 706 s oscOut;
#X msg 1357 599 stop;
#X obj 1334 574 t b b b a b, f 17;
#X msg 1450 602 /oled/gFillArea 3 2 54 127 10 0;
#X msg 1101 639 /oled/gFillArea 3 2 54 127 10 0;
#X obj 355 573 s segmenty-knob3-local;
#X obj 643 682 s segmenty-knob4-local;
#X obj 689 120 del 21;
#X obj 949 422 * 200;
#X obj 1040 406 * 200;
#X obj 1040 428 + 100;
#X obj 371 158 r knob1;
#X obj 777 190 r knob2;
#X obj 858 43 r seq3-1-k4;
#X obj 302 129 r seq3-1-k1;
#X obj 739 149 r seq3-1-k2;
#X obj 689 68 r scope;
#X obj 689 89 sel 0;
#N canvas 11 50 1054 838 print-inverse 0;
#X obj 117 81 * 128;
#X obj 117 103 i;
#X obj 117 55 inlet;
#X obj 147 165 pack 0 0;
#X obj 200 132 t b a;
#X obj 200 38 * 128;
#X obj 200 12 inlet;
#X obj 200 60 i;
#X obj 143 763 s oscOut;
#X obj 362 239 loadbang;
#X text 677 591 previous area to invert(erase);
#X text 396 264 erase old session list;
#X msg 21 527 /oled/gFlip 3;
#X obj 708 63 b;
#X obj 200 112 max 1;
#X obj 200 82 min 127;
#X obj 232 158 change -1;
#X obj 117 125 change -1;
#X obj 147 187 t a a;
#X obj 188 303 list;
#X obj 121 258 t b a a b, f 10;
#X msg 143 392 /oled/gInvertArea 3 \$1 10 \$2 42;
#X msg 362 263 0 0;
#X obj 708 41 inlet;
#X connect 0 0 1 0;
#X connect 1 0 17 0;
#X connect 2 0 0 0;
#X connect 3 0 18 0;
#X connect 4 0 3 0;
#X connect 4 1 16 0;
#X connect 5 0 7 0;
#X connect 6 0 5 0;
#X connect 7 0 15 0;
#X connect 9 0 22 0;
#X connect 12 0 8 0;
#X connect 13 0 22 0;
#X connect 14 0 4 0;
#X connect 15 0 14 0;
#X connect 16 0 3 1;
#X connect 17 0 3 0;
#X connect 18 0 20 0;
#X connect 19 0 21 0;
#X connect 20 0 12 0;
#X connect 20 1 21 0;
#X connect 20 2 19 1;
#X connect 20 3 19 0;
#X connect 21 0 8 0;
#X connect 22 0 19 1;
#X connect 23 0 13 0;
#X restore 407 422 pd print-inverse - - - - - - -;
#X obj 1191 862 s reprint-metro;
#X msg 408 653 stop;
#X obj 338 628 t b b a, f 24;
#X obj 479 762 s screenLine5;
#X obj 479 680 * 100;
#X obj 479 701 i;
#X obj 338 739 s reprint-metro;
#X msg 1421 636 /oled/gPrintln 3 2 54 8 1 4: Speed: +\$1%;
#X msg 1089 673 /oled/gPrintln 3 2 54 8 1 4: Speed: -\$1%;
#X msg 479 730 3: Env. Length: \$1%;
#X obj 914 726 t a;
#X obj 848 617 t a;
#X obj 1001 658 del 1000;
#X obj 1334 624 del 1000;
#X obj 338 718 del 1000;
#X obj 478 27 r cgSc-1-mute-print;
#X obj 478 48 sel 0;
#X obj 478 99 t b b;
#X obj 478 69 del 20;
#X obj 424 22 r scope;
#X obj 424 43 sel 0;
#X obj 403 270 f;
#X obj 729 283 f;
#X obj 451 508 r seq3-1-k3;
#X obj 319 33 loadbang;
#X obj 1021 53 r knob4;
#X connect 2 0 3 0;
#X connect 3 0 58 0;
#X connect 3 0 74 0;
#X connect 4 0 59 0;
#X connect 5 0 3 0;
#X connect 6 0 4 0;
#X connect 7 0 44 0;
#X connect 8 0 45 0;
#X connect 9 0 10 0;
#X connect 10 0 45 0;
#X connect 11 0 4 0;
#X connect 12 0 31 0;
#X connect 12 0 32 0;
#X connect 12 1 7 0;
#X connect 12 1 32 0;
#X connect 12 2 28 0;
#X connect 12 2 32 0;
#X connect 14 0 41 0;
#X connect 15 0 25 0;
#X connect 15 1 16 0;
#X connect 16 0 17 0;
#X connect 17 0 12 0;
#X connect 18 0 47 0;
#X connect 19 0 62 0;
#X connect 20 0 46 0;
#X connect 21 0 22 0;
#X connect 22 0 46 0;
#X connect 23 0 33 0;
#X connect 23 0 61 0;
#X connect 23 1 18 0;
#X connect 23 1 33 0;
#X connect 23 2 19 0;
#X connect 23 2 33 0;
#X connect 25 0 26 0;
#X connect 26 0 27 0;
#X connect 27 0 23 0;
#X connect 28 0 29 0;
#X connect 29 0 30 0;
#X connect 30 0 8 0;
#X connect 31 0 9 0;
#X connect 32 0 13 0;
#X connect 33 0 24 0;
#X connect 34 0 35 0;
#X connect 35 0 38 0;
#X connect 35 1 36 0;
#X connect 36 0 37 0;
#X connect 37 0 39 0;
#X connect 38 0 39 0;
#X connect 40 0 43 1;
#X connect 41 0 43 0;
#X connect 42 0 41 0;
#X connect 43 0 15 0;
#X connect 44 0 45 0;
#X connect 45 0 55 0;
#X connect 46 0 51 0;
#X connect 47 0 46 0;
#X connect 48 0 49 0;
#X connect 50 0 82 0;
#X connect 50 0 84 0;
#X connect 51 0 84 0;
#X connect 51 1 50 0;
#X connect 51 2 48 0;
#X connect 51 3 80 0;
#X connect 51 4 57 0;
#X connect 52 0 53 0;
#X connect 54 0 82 0;
#X connect 54 0 85 0;
#X connect 55 0 85 0;
#X connect 55 1 54 0;
#X connect 55 2 52 0;
#X connect 55 3 79 0;
#X connect 55 4 56 0;
#X connect 56 0 53 0;
#X connect 57 0 49 0;
#X connect 60 0 93 0;
#X connect 60 0 94 0;
#X connect 61 0 21 0;
#X connect 62 0 63 0;
#X connect 63 0 20 0;
#X connect 64 0 93 0;
#X connect 65 0 94 0;
#X connect 66 0 41 0;
#X connect 67 0 93 0;
#X connect 68 0 94 0;
#X connect 69 0 70 0;
#X connect 70 0 60 0;
#X connect 73 0 83 0;
#X connect 73 0 86 0;
#X connect 74 0 86 0;
#X connect 74 1 73 0;
#X connect 74 2 76 0;
#X connect 76 0 77 0;
#X connect 77 0 81 0;
#X connect 79 0 53 0;
#X connect 80 0 49 0;
#X connect 81 0 75 0;
#X connect 82 0 86 0;
#X connect 83 0 84 0;
#X connect 83 0 85 0;
#X connect 84 0 72 0;
#X connect 85 0 72 0;
#X connect 86 0 78 0;
#X connect 87 0 88 0;
#X connect 88 0 90 0;
#X connect 89 0 93 0;
#X connect 89 0 94 0;
#X connect 89 1 71 2;
#X connect 90 0 89 0;
#X connect 91 0 92 0;
#X connect 92 0 90 0;
#X connect 93 0 71 0;
#X connect 93 0 0 0;
#X connect 94 0 1 0;
#X connect 94 0 71 1;
#X connect 95 0 58 0;
#X connect 96 0 90 0;
#X restore 23 413 pd the-knobs;
#N canvas 63 78 961 859 print-waveform 0;
#X obj 120 237 b;
#X obj 334 144 inlet;
#X obj 514 300 r~ inL;
#X obj 514 321 *~ 0.707;
#X obj 584 255 r scope;
#X obj 120 152 r scope;
#X obj 120 173 sel 0;
#X obj 584 276 sel 0 1, f 21;
#X msg 584 297 0;
#X obj 645 300 t b b;
#X msg 645 321 1;
#X obj 707 376 s oscOut;
#X msg 707 316 /oled/gClear 3 1;
#X obj 193 165 loadbang;
#X obj 195 240 r cgSc-1-mute-print;
#X obj 193 261 sel 0;
#X obj 121 337 del 5;
#X obj 193 186 del 20;
#X obj 514 353 cg-osc-scope 128 42 0 10;
#X obj 120 385 cg-print-wave 128 42 0 10 segmenty-1 127;
#X connect 0 0 16 0;
#X connect 1 0 0 0;
#X connect 2 0 3 0;
#X connect 3 0 18 0;
#X connect 4 0 7 0;
#X connect 5 0 6 0;
#X connect 6 0 0 0;
#X connect 7 0 8 0;
#X connect 7 1 9 0;
#X connect 7 2 12 0;
#X connect 8 0 18 1;
#X connect 9 0 10 0;
#X connect 10 0 18 1;
#X connect 12 0 11 0;
#X connect 13 0 17 0;
#X connect 14 0 15 0;
#X connect 15 0 16 0;
#X connect 16 0 19 0;
#X connect 17 0 0 0;
#X restore 24 458 pd print-waveform;
#X obj 66 112 r~ inL;
#X obj 134 112 r~ inR;
#X obj 66 228 throw~ outL;
#X obj 76 208 throw~ outR;
#X obj 581 290 r seq3-1-led;
#X obj 581 312 s led;
#X obj 301 103 r aux;
#X obj 375 192 r cgSc-1-slots;
#X obj 418 103 r \$0-reprint-port;
#N canvas 13 50 450 300 CG-PdLibrary-Local 0;
#X obj 502 35 r cgSc-1-slots;
#X obj 60 98 declare -path CG-Pd-Library-Local/sequencer;
#X obj 58 130 declare -path CG-Pd-Library-Local/externals;
#X obj 59 165 declare -path CG-Pd-Library-Local/metronome;
#X restore 581 31 pd CG-PdLibrary-Local;
#N canvas 12 50 450 300 CG-PdLibrary-SDcard 0;
#X obj 60 98 declare -path /sdcard/CG-Pd-Library/sequencer;
#X obj 58 130 declare -path /sdcard/CG-Pd-Library/externals;
#X obj 59 165 declare -path /sdcard/CG-Pd-Library/metronome;
#X obj 502 35 r cgSc-1-slots;
#X restore 581 60 pd CG-PdLibrary-SDcard;
#X obj 412 217 r beat-clock;
#X obj 134 136 *~ 0.707;
#X obj 66 136 *~ 0.707;
#X obj 66 176 *~ 0.8;
#X obj 223 644 r cgSc-1-6;
#N canvas 158 57 1658 987 states 0;
#X obj 706 810 s led;
#X obj 951 821 s led;
#X msg 951 799 6;
#X obj 791 850 s cgSc-1-6label;
#X msg 791 816 Record:Off;
#X msg 865 816 Record:Arm;
#X msg 831 795 Record:Rec;
#X obj 184 582 r page-ready;
#X obj 184 603 sel 1;
#X obj 253 112 spigot 0;
#X obj 253 133 t b b;
#X msg 320 119 0;
#X obj 253 52 r cgSc-1-aux;
#X obj 253 81 sel 1;
#X msg 454 621 Waiting For Sound;
#X obj 791 772 loadbang;
#X obj 139 561 sel 0;
#X obj 139 539 r cgSc-1-mute-print;
#X obj 139 664 spigot 0;
#X msg 184 624 1;
#X msg 214 624 0;
#X obj 222 703 del 5;
#X obj 430 13 inlet;
#X obj 430 45 sel 0;
#X obj 457 70 t b;
#X obj 457 92 v \$0-control;
#X obj 457 113 sel 0 1 2, f 51;
#X msg 457 134 1;
#X obj 728 292 v \$0-control;
#X obj 457 301 cg-rec-array segmenty 1 1 24000;
#X obj 457 330 s scope;
#X msg 659 176 0;
#X obj 534 399 r scope;
#X obj 534 439 sel 0 1, f 23;
#X obj 708 609 s led;
#X msg 708 587 1;
#X obj 634 599 + 1;
#X msg 601 533 1;
#X obj 639 515 t b b;
#X msg 639 538 0;
#X obj 601 570 metro 100;
#X obj 601 627 * 0.1;
#X obj 601 599 f 0;
#X obj 350 883 s screenLine5;
#X obj 350 811 list;
#X obj 362 752 t b a;
#X msg 350 786 69;
#X obj 350 832 route 69;
#X msg 601 700 Recording: \$1 secs;
#X msg 329 713 New Recording: \$1;
#X obj 329 686 f;
#X obj 706 721 r scope;
#X obj 706 742 sel 0 1, f 25;
#X obj 491 191 s \$0-armed;
#X obj 894 746 r \$0-armed;
#X msg 706 781 0;
#X obj 601 475 t b b b, f 20;
#X msg 718 509 2;
#X obj 718 530 v \$0-control;
#X obj 322 205 v \$0-control;
#X msg 253 159 0;
#X obj 253 180 t f f, f 12;
#X obj 457 155 t f f b b;
#X msg 298 83 1;
#X msg 671 537 1;
#X obj 659 197 t f f f, f 12;
#X obj 346 10 r scope;
#X obj 346 31 sel 0;
#X msg 346 52 0;
#X connect 2 0 1 0;
#X connect 4 0 3 0;
#X connect 5 0 3 0;
#X connect 6 0 3 0;
#X connect 7 0 8 0;
#X connect 8 0 19 0;
#X connect 8 0 21 0;
#X connect 8 1 20 0;
#X connect 9 0 10 0;
#X connect 10 0 60 0;
#X connect 10 1 11 0;
#X connect 11 0 9 1;
#X connect 12 0 13 0;
#X connect 13 0 9 0;
#X connect 14 0 45 0;
#X connect 15 0 4 0;
#X connect 16 0 18 0;
#X connect 17 0 16 0;
#X connect 18 0 21 0;
#X connect 19 0 18 1;
#X connect 20 0 18 1;
#X connect 21 0 46 0;
#X connect 22 0 23 0;
#X connect 23 1 24 0;
#X connect 24 0 25 0;
#X connect 25 0 26 0;
#X connect 26 0 27 0;
#X connect 26 1 31 0;
#X connect 26 2 31 0;
#X connect 27 0 62 0;
#X connect 29 0 30 0;
#X connect 31 0 65 0;
#X connect 32 0 33 0;
#X connect 33 0 50 0;
#X connect 33 0 38 0;
#X connect 33 1 56 0;
#X connect 35 0 34 0;
#X connect 36 0 42 1;
#X connect 37 0 40 0;
#X connect 38 0 39 0;
#X connect 38 1 64 0;
#X connect 39 0 40 0;
#X connect 40 0 42 0;
#X connect 41 0 48 0;
#X connect 41 0 50 1;
#X connect 42 0 36 0;
#X connect 42 0 41 0;
#X connect 44 0 47 0;
#X connect 45 0 46 0;
#X connect 45 1 44 1;
#X connect 46 0 44 0;
#X connect 47 0 43 0;
#X connect 48 0 45 0;
#X connect 49 0 45 0;
#X connect 50 0 49 0;
#X connect 51 0 52 0;
#X connect 52 0 4 0;
#X connect 52 0 55 0;
#X connect 52 1 6 0;
#X connect 54 0 5 0;
#X connect 54 0 2 0;
#X connect 54 0 14 0;
#X connect 55 0 0 0;
#X connect 56 0 37 0;
#X connect 56 1 35 0;
#X connect 56 2 57 0;
#X connect 57 0 58 0;
#X connect 60 0 61 0;
#X connect 61 0 29 0;
#X connect 61 1 59 0;
#X connect 62 0 29 0;
#X connect 62 1 28 0;
#X connect 62 2 53 0;
#X connect 62 3 63 0;
#X connect 63 0 9 1;
#X connect 64 0 42 1;
#X connect 65 0 29 0;
#X connect 65 1 28 0;
#X connect 66 0 67 0;
#X connect 67 0 68 0;
#X connect 68 0 9 1;
#X restore 223 673 pd states;
#N canvas 19 51 1095 861 metro-here 0;
#X obj 369 147 r seq3-1-actions, f 19;
#X obj 312 345 f;
#X msg 407 250 0;
#X obj 439 250 t b b;
#X msg 445 280 1;
#X obj 54 303 s beat-clock;
#X obj 176 83 loadbang;
#X msg 53 121 1;
#X obj 203 353 list, f 7;
#X obj 203 375 route 69;
#X obj 203 281 t b a;
#X msg 203 323 69;
#X msg 176 105 120;
#X obj 177 221 pack, f 10;
#X obj 212 189 t b a;
#X obj 54 151 metronome360 0, f 18;
#X obj 319 117 s seq3-1-quan;
#X obj 400 338 f;
#X obj 203 397 spigot 1;
#X obj 312 367 spigot 1, f 14;
#X obj 296 472 r cgSc-1-slots;
#X obj 296 498 + 1;
#X obj 203 552 print-line5 1, f 16;
#X obj 319 88 r metro-state;
#X obj 486 346 loadbang;
#X obj 296 519 f;
#X obj 486 388 t b b;
#X obj 312 428 f;
#X obj 486 367 del 1;
#X obj 407 179 r cgSc-1-mute-print;
#X obj 407 202 sel 1;
#X obj 312 292 del 5;
#X obj 274 171 r reprint-metro;
#X connect 0 0 1 0;
#X connect 1 0 19 0;
#X connect 2 0 17 0;
#X connect 3 0 31 0;
#X connect 3 1 4 0;
#X connect 4 0 17 0;
#X connect 6 0 12 0;
#X connect 6 0 7 0;
#X connect 7 0 15 0;
#X connect 8 0 9 0;
#X connect 9 0 18 0;
#X connect 10 0 11 0;
#X connect 10 1 8 1;
#X connect 11 0 8 0;
#X connect 12 0 15 1;
#X connect 13 0 10 0;
#X connect 14 0 13 0;
#X connect 14 1 13 1;
#X connect 15 0 5 0;
#X connect 15 1 14 0;
#X connect 15 2 13 0;
#X connect 17 0 18 1;
#X connect 17 0 19 1;
#X connect 18 0 22 0;
#X connect 19 0 27 0;
#X connect 20 0 21 0;
#X connect 21 0 25 0;
#X connect 23 0 16 0;
#X connect 24 0 28 0;
#X connect 25 0 22 2;
#X connect 26 0 27 0;
#X connect 26 1 25 0;
#X connect 27 0 22 1;
#X connect 28 0 26 0;
#X connect 29 0 30 0;
#X connect 30 0 2 0;
#X connect 30 1 3 0;
#X connect 31 0 1 0;
#X connect 31 0 11 0;
#X connect 32 0 31 0;
#X restore 580 251 pd metro-here;
#N canvas 787 330 860 595 slot-saver-1 0;
#X obj 167 38 r cgSc-1-slots;
#X obj 30 68 loadbang;
#X msg 30 140 0;
#X obj 30 161 tabread \$0-slot;
#X obj 199 225 array define \$0-slot;
#X obj 30 110 t b b;
#X msg 199 138 read slot.txt;
#X msg 243 186 write slot.txt;
#X obj 243 160 r saveState;
#X obj 167 58 t a b;
#X msg 220 84 0;
#X obj 167 107 tabwrite \$0-slot;
#X obj 30 185 s cgSc-1-slots;
#X connect 0 0 9 0;
#X connect 1 0 5 0;
#X connect 2 0 3 0;
#X connect 3 0 12 0;
#X connect 5 0 2 0;
#X connect 5 1 6 0;
#X connect 6 0 4 0;
#X connect 7 0 4 0;
#X connect 8 0 7 0;
#X connect 9 0 11 0;
#X connect 9 1 10 0;
#X connect 10 0 11 1;
#X restore 581 223 pd slot-saver-1;
#X obj 301 134 shortcut 1 1, f 20;
#N canvas 594 50 906 682 seq3-5option-control 0;
#X obj 139 278 outlet;
#X obj 65 121 t b;
#X msg 65 143 2;
#X obj 298 126 t b;
#X msg 298 148 3;
#X text 437 5 when aux is pressed after recording starts immediatley
end the rec and play the loop;
#X obj 170 70 sel 0;
#X obj 202 94 t b;
#X msg 202 116 1;
#X obj 33 66 r cgSc-1-2;
#X obj 171 48 r cgSc-1-1;
#X obj 33 88 sel 0;
#X obj 266 99 sel 0;
#X obj 317 272 r seq3-1-actions;
#X obj 317 294 sel 1, f 12;
#X obj 398 327 t b, f 4;
#X obj 317 445 s cgSc-1-1label;
#X obj 507 308 r seq3-1-actions;
#X obj 588 353 t b, f 4;
#X obj 507 329 sel 2 3, f 12;
#X obj 733 319 r seq3-1-actions;
#X obj 814 364 t b, f 4;
#X msg 814 409 Latch:Off;
#X msg 733 409 Latch:On;
#X obj 507 441 s cgSc-1-2label;
#X text 521 279 print to the shortcut menu;
#X obj 378 141 f 0;
#X obj 130 0 r midi-start;
#X msg 130 22 4;
#X obj 373 105 r midi-stop;
#X obj 507 125 t b;
#X obj 475 98 sel 0;
#X msg 507 147 5;
#X obj 302 487 r seq3-1-actions;
#X obj 383 532 t b, f 4;
#X obj 302 508 sel 5, f 12;
#X obj 317 373 f;
#X msg 317 403 \$1Seq:Stop;
#X obj 398 372 f;
#X msg 398 402 \$1Seq:Play;
#X msg 507 399 \$1Rec:Armd;
#X msg 588 397 \$1Rec:On;
#X msg 659 398 \$1Rec:Off;
#X obj 507 374 f;
#X obj 582 373 f;
#X obj 649 370 f;
#X obj 383 554 f;
#X obj 302 560 f;
#X msg 302 607 \$1Dub:On;
#X obj 201 286 r cgSc-1-slots;
#X obj 201 329 t b f f;
#X obj 166 439 s seq3-1-actions;
#X obj 166 415 v seq3-1-state;
#X obj 201 309 + 1;
#X obj 668 299 + 1;
#X obj 668 251 r cgSc-1-slots;
#X obj 431 507 + 1;
#X obj 431 483 r cgSc-1-slots;
#X obj 559 76 sel 1;
#X obj 612 80 r seq3-1-actions;
#X obj 559 174 t b b;
#X msg 640 152 0;
#X obj 559 152 spigot 0;
#X msg 612 129 1;
#X msg 559 196 1;
#X obj 302 650 s cgSc-1-3label;
#X obj 475 71 r cgSc-1-3;
#X obj 559 52 r cgSc-1-aux;
#X obj 733 452 s cgSc-1-5label;
#X obj 733 340 sel 4, f 12;
#X obj 267 72 r cgSc-1-5;
#X obj 358 53 t b;
#X obj 326 26 sel 0;
#X obj 326 2 r cgSc-1-4;
#X msg 358 75 6;
#X obj 575 480 r seq3-1-actions;
#X obj 617 558 f;
#X obj 694 501 + 1;
#X obj 694 477 r cgSc-1-slots;
#X obj 575 643 s cgSc-1-4label;
#X obj 612 104 sel 3, f 12;
#X msg 383 607 \$1Dub:Off;
#X obj 575 501 sel 6, f 10;
#X obj 642 526 t b;
#X obj 575 585 spigot 1;
#X obj 662 582 spigot 0;
#X obj 785 510 r seq3-1-actions;
#X obj 785 532 sel 3;
#X obj 701 537 ==;
#X obj 747 564 f;
#X msg 747 533 1;
#X msg 818 615 0;
#X msg 662 607 \$1:Undo;
#X msg 575 610 \$1:Undid;
#X obj 575 523 t b b;
#X obj 31 189 loadbang;
#X msg 31 211 0;
#X obj 23 341 r init-1-slot;
#X obj 23 363 s cgSc-1-slots;
#X obj 120 152 r cgSc-1-6;
#X obj 120 173 sel 0;
#X obj 149 202 t b;
#X connect 1 0 2 0;
#X connect 2 0 0 0;
#X connect 3 0 4 0;
#X connect 4 0 0 0;
#X connect 6 1 7 0;
#X connect 7 0 8 0;
#X connect 8 0 0 0;
#X connect 9 0 11 0;
#X connect 10 0 6 0;
#X connect 11 1 1 0;
#X connect 12 1 3 0;
#X connect 13 0 14 0;
#X connect 14 0 36 0;
#X connect 14 1 15 0;
#X connect 15 0 38 0;
#X connect 17 0 19 0;
#X connect 18 0 45 0;
#X connect 19 0 43 0;
#X connect 19 1 44 0;
#X connect 19 2 18 0;
#X connect 20 0 69 0;
#X connect 21 0 22 0;
#X connect 22 0 68 0;
#X connect 23 0 68 0;
#X connect 26 0 0 0;
#X connect 27 0 28 0;
#X connect 28 0 0 0;
#X connect 29 0 26 0;
#X connect 30 0 32 0;
#X connect 31 1 30 0;
#X connect 32 0 0 0;
#X connect 33 0 35 0;
#X connect 34 0 46 0;
#X connect 35 0 47 0;
#X connect 35 1 34 0;
#X connect 36 0 37 0;
#X connect 37 0 16 0;
#X connect 38 0 39 0;
#X connect 39 0 16 0;
#X connect 40 0 24 0;
#X connect 41 0 24 0;
#X connect 42 0 24 0;
#X connect 43 0 40 0;
#X connect 44 0 41 0;
#X connect 45 0 42 0;
#X connect 46 0 81 0;
#X connect 47 0 48 0;
#X connect 48 0 65 0;
#X connect 49 0 53 0;
#X connect 50 0 52 0;
#X connect 50 1 36 1;
#X connect 50 2 38 1;
#X connect 52 0 51 0;
#X connect 53 0 50 0;
#X connect 54 0 45 1;
#X connect 54 0 44 1;
#X connect 54 0 43 1;
#X connect 55 0 54 0;
#X connect 56 0 46 1;
#X connect 56 0 47 1;
#X connect 57 0 56 0;
#X connect 58 0 62 0;
#X connect 59 0 80 0;
#X connect 60 0 64 0;
#X connect 60 1 61 0;
#X connect 61 0 62 1;
#X connect 62 0 60 0;
#X connect 63 0 62 1;
#X connect 64 0 0 0;
#X connect 66 0 31 0;
#X connect 67 0 58 0;
#X connect 69 0 23 0;
#X connect 69 1 21 0;
#X connect 70 0 12 0;
#X connect 71 0 74 0;
#X connect 72 1 71 0;
#X connect 73 0 72 0;
#X connect 74 0 0 0;
#X connect 75 0 82 0;
#X connect 76 0 84 0;
#X connect 76 0 85 0;
#X connect 77 0 76 1;
#X connect 78 0 77 0;
#X connect 80 0 63 0;
#X connect 81 0 65 0;
#X connect 82 0 94 0;
#X connect 82 1 83 0;
#X connect 83 0 76 0;
#X connect 84 0 93 0;
#X connect 85 0 92 0;
#X connect 86 0 87 0;
#X connect 87 0 90 0;
#X connect 88 0 84 1;
#X connect 89 0 88 0;
#X connect 89 0 85 1;
#X connect 90 0 89 0;
#X connect 91 0 89 0;
#X connect 92 0 79 0;
#X connect 93 0 79 0;
#X connect 94 0 76 0;
#X connect 94 1 91 0;
#X connect 95 0 96 0;
#X connect 96 0 0 0;
#X connect 97 0 98 0;
#X connect 99 0 100 0;
#X connect 100 1 101 0;
#X connect 101 0 96 0;
#X restore 338 168 pd seq3-5option-control;
#X obj 543 638 s segmenty-loop;
#X obj 516 435 r cgSc-1-7;
#X obj 516 456 sel 0;
#X obj 543 478 t b;
#X obj 573 505 + 1;
#X obj 543 525 % 2;
#X obj 543 504 f 1;
#X obj 591 555 sel 0 1, f 34;
#X obj 691 610 s cgSc-1-7label;
#X msg 591 578 Loop:Off;
#X msg 691 580 Loop:On;
#X obj 667 429 loadbang;
#X msg 667 450 1;
#X obj 301 239 seq3 1 0 ../../sequences 1 0 1, f 19;
#X connect 0 0 1 0;
#X connect 0 0 2 0;
#X connect 5 0 18 0;
#X connect 6 0 17 0;
#X connect 9 0 10 0;
#X connect 11 0 24 0;
#X connect 12 0 39 2;
#X connect 13 0 24 1;
#X connect 16 0 39 3;
#X connect 17 0 19 0;
#X connect 18 0 19 0;
#X connect 19 0 7 0;
#X connect 19 0 8 0;
#X connect 20 0 21 0;
#X connect 24 0 39 0;
#X connect 25 0 39 1;
#X connect 27 0 28 0;
#X connect 28 1 29 0;
#X connect 29 0 32 0;
#X connect 30 0 32 1;
#X connect 31 0 26 0;
#X connect 31 0 33 0;
#X connect 32 0 30 0;
#X connect 32 0 31 0;
#X connect 33 0 35 0;
#X connect 33 1 36 0;
#X connect 35 0 34 0;
#X connect 36 0 34 0;
#X connect 37 0 38 0;
#X connect 38 0 32 0;
#X connect 39 0 0 0;
