#N canvas 0 67 1076 748 10;
#X obj 256 148 r knob1;
#N canvas 4 50 450 300 knobs 0;
#X restore 242 81 pd knobs;
#N canvas 419 25 869 853 page-select 0;
#X obj 38 34 sel 100;
#X msg 38 55 1;
#X obj 38 76 s \$0-pageSel;
#X obj 127 33 sel 100;
#X obj 127 75 s \$0-pageSel;
#X msg 127 54 2;
#X obj 228 32 sel 100;
#X obj 228 74 s \$0-pageSel;
#X obj 317 31 sel 100;
#X obj 317 73 s \$0-pageSel;
#X msg 228 53 3;
#X msg 317 52 4;
#X obj 413 30 sel 100;
#X obj 413 72 s \$0-pageSel;
#X obj 42 141 sel 100;
#X obj 42 183 s \$0-pageSel;
#X obj 131 140 sel 100;
#X obj 131 182 s \$0-pageSel;
#X obj 232 139 sel 100;
#X obj 232 181 s \$0-pageSel;
#X obj 321 138 sel 100;
#X obj 321 180 s \$0-pageSel;
#X obj 417 137 sel 100;
#X obj 417 179 s \$0-pageSel;
#X msg 413 51 5;
#X msg 42 162 6;
#X msg 131 161 7;
#X msg 232 160 8;
#X msg 321 159 9;
#X msg 417 158 10;
#X obj 42 120 r cgSc-\$1-6;
#X obj 38 13 r cgSc-\$1-1;
#X obj 127 12 r cgSc-\$1-2;
#X obj 228 11 r cgSc-\$1-3;
#X obj 317 10 r cgSc-\$1-4;
#X obj 413 9 r cgSc-\$1-5;
#X obj 417 116 r cgSc-\$1-10;
#X obj 321 117 r cgSc-\$1-9;
#X obj 232 118 r cgSc-\$1-8;
#X obj 131 119 r cgSc-\$1-7;
#X obj 256 309 r \$0-pageSel;
#X obj 256 330 max 1;
#X obj 256 454 s \$0-master-page;
#X obj 256 401 moses \$2;
#X obj 338 312 loadbang;
#X obj 338 333 f \$2;
#X obj 338 354 + 1;
#X obj 256 422 change -1;
#X connect 0 0 1 0;
#X connect 1 0 2 0;
#X connect 3 0 5 0;
#X connect 5 0 4 0;
#X connect 6 0 10 0;
#X connect 8 0 11 0;
#X connect 10 0 7 0;
#X connect 11 0 9 0;
#X connect 12 0 24 0;
#X connect 14 0 25 0;
#X connect 16 0 26 0;
#X connect 18 0 27 0;
#X connect 20 0 28 0;
#X connect 22 0 29 0;
#X connect 24 0 13 0;
#X connect 25 0 15 0;
#X connect 26 0 17 0;
#X connect 27 0 19 0;
#X connect 28 0 21 0;
#X connect 29 0 23 0;
#X connect 30 0 14 0;
#X connect 31 0 0 0;
#X connect 32 0 3 0;
#X connect 33 0 6 0;
#X connect 34 0 8 0;
#X connect 35 0 12 0;
#X connect 36 0 22 0;
#X connect 37 0 20 0;
#X connect 38 0 18 0;
#X connect 39 0 16 0;
#X connect 40 0 41 0;
#X connect 41 0 43 0;
#X connect 43 0 47 0;
#X connect 44 0 45 0;
#X connect 45 0 46 0;
#X connect 46 0 43 1;
#X connect 47 0 42 0;
#X restore 696 520 pd page-select;
#X obj 175 703 text define \$0-knobz;
#X obj 111 396 r \$0-trak;
#X obj 256 251 t a a;
#X obj 283 286 s \$0-trak;
#X msg 256 319 \; k\$2p\$3-\$4 \$1 \;;
#X floatatom 450 474 5 0 0 0 - - -;
#X obj 450 453 r k1p1-\$1;
#X obj 256 230 pack 0 1 0 \$1;
#X obj 111 431 unpack 0 0 0 0;
#X obj 168 479 * 4;
#X obj 144 508 +;
#X obj 138 476 - 1;
#X obj 168 456 - 1;
#X obj 452 246 t a a;
#X obj 479 281 s \$0-trak;
#X msg 452 314 \; k\$2p\$3-\$4 \$1 \;;
#X obj 452 143 r knob2;
#X obj 452 225 pack 0 2 0 \$1;
#X obj 599 247 t a a;
#X obj 626 282 s \$0-trak;
#X msg 599 315 \; k\$2p\$3-\$4 \$1 \;;
#X obj 795 242 t a a;
#X obj 822 277 s \$0-trak;
#X msg 795 310 \; k\$2p\$3-\$4 \$1 \;;
#X obj 599 144 r knob3;
#X obj 795 139 r knob4;
#X obj 795 221 pack 0 4 0 \$1;
#X obj 599 226 pack 0 3 0 \$1;
#X obj 111 560 text set \$0-knobz;
#X msg 193 662 write knobbz.txt;
#X msg 175 630 read knobbz.txt;
#X floatatom 528 475 5 0 0 0 - - -;
#X obj 528 454 r k2p1-\$1;
#X floatatom 613 475 5 0 0 0 - - -;
#X floatatom 691 476 5 0 0 0 - - -;
#X obj 613 454 r k3p1-\$1;
#X obj 691 455 r k4p1-\$1;
#X obj 469 715 text define \$0-preset;
#X text 603 714 <-- say which ones are active;
#X text 43 42 Arg1: number name (e.g. 1);
#X text 42 63 Arg2: how many pages;
#X obj 306 192 r \$0-master-page;
#X obj 502 187 r \$0-master-page;
#X obj 649 188 r \$0-master-page;
#X obj 845 183 r \$0-master-page;
#X msg 493 679 write 10p-preset.txt;
#X msg 469 647 read 10p-preset.txt;
#N canvas 4 50 498 359 fill-preset-text 0;
#X obj 166 290 text set \$0-preset;
#X obj 166 196 f;
#X obj 201 196 + 1;
#X obj 166 119 t a b, f 18;
#X msg 271 143 0;
#X msg 90 53 40;
#X obj 166 227 t b a, f 10;
#X obj 166 141 until;
#X msg 166 248 1;
#X connect 1 0 2 0;
#X connect 1 0 6 0;
#X connect 2 0 1 1;
#X connect 3 0 7 0;
#X connect 3 1 4 0;
#X connect 4 0 1 1;
#X connect 5 0 3 0;
#X connect 6 0 8 0;
#X connect 6 1 0 1;
#X connect 7 0 1 0;
#X connect 8 0 0 0;
#X restore 493 619 pd fill-preset-text;
#X obj 699 557 text get \$0-preset;
#X connect 0 0 10 0;
#X connect 4 0 11 0;
#X connect 5 0 7 0;
#X connect 5 1 6 0;
#X connect 9 0 8 0;
#X connect 10 0 5 0;
#X connect 11 0 31 0;
#X connect 11 1 14 0;
#X connect 11 2 15 0;
#X connect 12 0 13 1;
#X connect 13 0 31 1;
#X connect 14 0 13 0;
#X connect 15 0 12 0;
#X connect 16 0 18 0;
#X connect 16 1 17 0;
#X connect 19 0 20 0;
#X connect 20 0 16 0;
#X connect 21 0 23 0;
#X connect 21 1 22 0;
#X connect 24 0 26 0;
#X connect 24 1 25 0;
#X connect 27 0 30 0;
#X connect 28 0 29 0;
#X connect 29 0 24 0;
#X connect 30 0 21 0;
#X connect 32 0 3 0;
#X connect 33 0 3 0;
#X connect 35 0 34 0;
#X connect 38 0 36 0;
#X connect 39 0 37 0;
#X connect 44 0 10 2;
#X connect 45 0 20 2;
#X connect 46 0 30 2;
#X connect 47 0 29 2;
#X connect 48 0 40 0;
#X connect 49 0 40 0;
