#N canvas 86 50 1354 844 10;
#X obj 34 161 / 2;
#X obj 34 182 + 0.499999;
#X obj 34 203 i;
#X obj 34 224 * 2;
#X obj 145 151 / 2;
#X obj 145 172 + 0.499999;
#X obj 145 193 i;
#X obj 145 214 * 2;
#X obj 145 235 + 1;
#X obj 34 128 t f f, f 19;
#X obj 34 62 * 22;
#X obj 34 83 i;
#X obj 34 104 change -1;
#X obj 34 410 list prepend 1: Chord:;
#X text 404 110 Length;
#X text 675 72 Roll-Rate;
#X obj 675 276 t f f;
#X obj 956 276 t f f;
#X obj 1023 306 * 100;
#X obj 1023 327 i;
#X text 963 117 Volume;
#X msg 1023 366 4: Volume: \$1%;
#X obj 675 172 moses 0.333333;
#X obj 675 193 / 0.333333;
#X obj 675 214 * 100;
#X msg 702 398 3: Roll Rate: \$1 ms;
#X obj 756 224 / 0.66666;
#X obj 756 245 * 8;
#X obj 756 266 i;
#X obj 756 202 - 0.333333;
#N canvas 437 370 794 555 notes 0;
#X obj 34 16 inlet;
#X msg 69 130 1/16;
#X msg 163 131 1/8;
#X msg 117 131 1/12;
#X msg 218 134 1/6;
#X msg 273 136 1/4;
#X msg 360 133 1/2;
#X msg 317 134 1/3;
#X msg 398 132 Whole;
#X obj 34 37 sel 0 1 2 3 4 5 6 7, f 65;
#X obj 399 263 symbol;
#X obj 399 284 outlet;
#X connect 0 0 9 0;
#X connect 1 0 10 0;
#X connect 2 0 10 0;
#X connect 3 0 10 0;
#X connect 4 0 10 0;
#X connect 5 0 10 0;
#X connect 6 0 10 0;
#X connect 7 0 10 0;
#X connect 8 0 10 0;
#X connect 9 0 1 0;
#X connect 9 1 3 0;
#X connect 9 2 2 0;
#X connect 9 3 4 0;
#X connect 9 4 5 0;
#X connect 9 5 7 0;
#X connect 9 6 6 0;
#X connect 9 7 8 0;
#X connect 10 0 11 0;
#X restore 756 313 pd notes;
#X obj 756 334 t a a;
#X obj 675 235 i;
#X msg 756 374 3: Roll Rate: \$1;
#X obj 648 131 sel 0;
#X msg 611 351 3: Roll Rate: Unison;
#X obj 601 243 t b b;
#X msg 631 295 0;
#X obj 34 41 r k1p\$1-1;
#X obj 398 140 r k2p\$1-1;
#X obj 648 110 r k3p\$1-1;
#X obj 956 142 r k4p\$1-1;
#X obj 1023 394 cg-10page-knob 4 \$1 1;
#X obj 957 440 s ch-\$1-volume;
#X obj 650 469 s ch-\$1-rate;
#X obj 702 434 cg-10page-knob 3 \$1 1;
#X obj 398 438 s ch-\$1-length;
#X obj 461 414 cg-10page-knob 2 \$1 \$2;
#X obj 34 432 cg-10page-knob 1 \$1 \$2;
#X obj 209 347 s ch-\$1-chor;
#X text 195 21 Arg1: Page number;
#X text 195 44 Arg2: match shortcut number;
#X obj 675 256 change -1;
#X obj 756 287 change -1;
#X obj 956 318 i;
#X obj 956 339 + 1;
#X obj 956 297 * 126;
#X obj 34 349 text get list-chords;
#X obj 145 293 text get list-chords;
#X obj 279 485 r glob-play-switch;
#X obj 246 762 s hear-chords;
#X obj 279 506 ==;
#X obj 145 314 t a a;
#X obj 246 560 t a a;
#X obj 270 585 s ch-5-chor;
#X obj 398 286 i;
#X obj 398 347 * 180;
#X obj 398 307 + 1;
#X obj 471 282 / 8;
#X obj 471 324 i;
#X obj 471 303 * 100;
#X obj 471 345 * 0.01;
#X msg 461 388 2: Length: \$1x Bar;
#X obj 398 265 * 31;
#X obj 246 539 spigot 1;
#X obj 145 256 change -1;
#X obj 34 245 change -1;
#X obj 246 734 spigot 0;
#X obj 291 622 r cg-10p-master;
#X obj 291 643 sel \$1;
#X msg 291 664 1;
#X obj 324 666 t b;
#X msg 324 690 0;
#X obj 195 675 spigot 0;
#X obj 195 611 t b a;
#X msg 195 632 1;
#X text 71 613 miss 1st trigger;
#X obj 447 663 s ch-status-\$1;
#X obj 67 376 s \$0-status-chord;
#X obj 447 464 r \$0-status-chord;
#X obj 490 366 s \$0-status-len;
#X obj 795 526 r ch-\$1-rate;
#X obj 470 537 r \$0-status-len;
#X obj 795 630 s \$0-status-rate;
#X obj 545 559 r \$0-status-rate;
#X obj 470 557 t b a;
#X obj 545 579 t b a;
#X obj 594 603 t b a;
#X obj 447 633 pack s 0 s 0, f 25;
#X obj 1089 449 s \$0-status-vol;
#X obj 594 584 r \$0-status-vol;
#N canvas 4 50 450 300 floatToSymbol 0;
#X obj 23 6 inlet;
#X msg 23 27 symbol \$1*;
#X obj 23 48 list fromsymbol;
#X obj 92 99 list length;
#X obj 92 120 - 1;
#X obj 23 69 t a a;
#X obj 23 161 list split 2;
#X obj 23 182 list tosymbol;
#X obj 23 203 outlet;
#X connect 0 0 1 0;
#X connect 1 0 2 0;
#X connect 2 0 5 0;
#X connect 3 0 4 0;
#X connect 4 0 6 1;
#X connect 5 0 6 0;
#X connect 5 1 3 0;
#X connect 6 0 7 0;
#X connect 7 0 8 0;
#X restore 864 575 pd floatToSymbol;
#X obj 795 552 route symbol;
#X obj 795 573 symbol;
#X connect 0 0 1 0;
#X connect 1 0 2 0;
#X connect 2 0 3 0;
#X connect 3 0 76 0;
#X connect 4 0 5 0;
#X connect 5 0 6 0;
#X connect 6 0 7 0;
#X connect 7 0 8 0;
#X connect 8 0 75 0;
#X connect 9 0 0 0;
#X connect 9 1 4 0;
#X connect 10 0 11 0;
#X connect 11 0 12 0;
#X connect 12 0 9 0;
#X connect 13 0 48 0;
#X connect 16 0 44 0;
#X connect 16 1 25 0;
#X connect 17 0 56 0;
#X connect 17 1 18 0;
#X connect 18 0 19 0;
#X connect 19 0 21 0;
#X connect 19 0 99 0;
#X connect 21 0 42 0;
#X connect 22 0 23 0;
#X connect 22 1 29 0;
#X connect 23 0 24 0;
#X connect 24 0 32 0;
#X connect 25 0 45 0;
#X connect 26 0 27 0;
#X connect 27 0 28 0;
#X connect 28 0 53 0;
#X connect 29 0 26 0;
#X connect 30 0 31 0;
#X connect 31 0 33 0;
#X connect 31 1 44 0;
#X connect 32 0 52 0;
#X connect 33 0 45 0;
#X connect 34 0 36 0;
#X connect 34 1 22 0;
#X connect 35 0 45 0;
#X connect 36 0 35 0;
#X connect 36 1 37 0;
#X connect 37 0 44 0;
#X connect 38 0 10 0;
#X connect 39 0 73 0;
#X connect 40 0 34 0;
#X connect 41 0 17 0;
#X connect 52 0 16 0;
#X connect 53 0 30 0;
#X connect 54 0 55 0;
#X connect 55 0 43 0;
#X connect 56 0 54 0;
#X connect 57 0 13 0;
#X connect 57 0 88 0;
#X connect 58 0 62 0;
#X connect 59 0 61 0;
#X connect 61 0 74 1;
#X connect 62 0 74 0;
#X connect 62 1 49 0;
#X connect 63 0 84 0;
#X connect 63 1 64 0;
#X connect 65 0 67 0;
#X connect 66 0 46 0;
#X connect 67 0 66 0;
#X connect 67 0 68 0;
#X connect 68 0 70 0;
#X connect 69 0 71 0;
#X connect 70 0 69 0;
#X connect 71 0 72 0;
#X connect 71 0 90 0;
#X connect 72 0 47 0;
#X connect 73 0 65 0;
#X connect 74 0 63 0;
#X connect 75 0 58 0;
#X connect 76 0 57 0;
#X connect 77 0 60 0;
#X connect 78 0 79 0;
#X connect 79 0 80 0;
#X connect 79 1 81 0;
#X connect 80 0 77 1;
#X connect 81 0 82 0;
#X connect 82 0 77 1;
#X connect 83 0 77 0;
#X connect 84 0 85 0;
#X connect 84 1 83 0;
#X connect 85 0 83 1;
#X connect 89 0 98 0;
#X connect 91 0 102 0;
#X connect 92 0 95 0;
#X connect 94 0 96 0;
#X connect 95 0 98 0;
#X connect 95 1 98 1;
#X connect 96 0 98 0;
#X connect 96 1 98 2;
#X connect 97 0 98 0;
#X connect 97 1 98 3;
#X connect 98 0 87 0;
#X connect 100 0 97 0;
#X connect 101 0 93 0;
#X connect 102 0 103 0;
#X connect 102 1 101 0;
#X connect 103 0 93 0;
