#N canvas 4 50 1440 874 10;
#X obj 590 299 r ch-\$1-chor;
#X obj 940 581 r ch-\$1-length;
#X obj 461 553 r ch-\$1-volume;
#X obj 258 185 r ch-\$1-rate;
#X text 903 220 Arg1: page number(chord nummber);
#X obj 568 90 inlet;
#X obj 568 154 stripnote;
#X obj 208 534 + 60;
#X obj 453 469 + 60;
#X obj 599 472 + 60;
#X obj 569 377 unpack 0 0 0 0;
#X obj 728 474 + 60;
#X obj 402 559 f;
#X obj 431 497 t b f;
#X obj 565 555 f;
#X obj 584 495 t b f;
#X obj 701 572 f;
#X obj 724 502 t b f;
#X obj 208 569 pack 0 100;
#X obj 404 582 pack 0 100;
#X obj 565 580 pack 0 100;
#X obj 703 600 pack 0 100;
#X obj 382 362 * 1;
#X obj 426 361 * 2;
#X obj 472 365 * 3;
#X text 275 413 roll the chord using delays;
#X text 748 413 add the root;
#X obj 258 206 route symbol;
#X obj 620 267 s \$0root;
#X obj 569 352 route 69;
#X obj 569 329 list;
#X msg 568 264 69;
#N canvas 4 50 450 300 note 0;
#X obj 56 15 inlet;
#X obj 56 36 sel 1/16 1/12 1/8 1/6 1/4 1/3 1/2 Whole, f 46;
#X msg 56 90 90;
#X msg 124 88 180;
#X msg 90 89 120;
#X msg 158 89 240;
#X msg 192 89 360;
#X msg 226 87 480;
#X msg 260 88 720;
#X msg 294 88 1440;
#X obj 341 193 outlet;
#X connect 0 0 1 0;
#X connect 1 0 2 0;
#X connect 1 1 4 0;
#X connect 1 2 3 0;
#X connect 1 3 5 0;
#X connect 1 4 6 0;
#X connect 1 5 7 0;
#X connect 1 6 8 0;
#X connect 1 7 9 0;
#X connect 2 0 10 0;
#X connect 3 0 10 0;
#X connect 4 0 10 0;
#X connect 5 0 10 0;
#X connect 6 0 10 0;
#X connect 7 0 10 0;
#X connect 8 0 10 0;
#X connect 9 0 10 0;
#X restore 258 235 pd note divisions;
#X obj 402 531 tick-delay 360;
#X obj 565 527 tick-delay 360;
#X obj 701 544 tick-delay 360;
#X obj 267 545 r ch-\$1-volume;
#X obj 607 559 r ch-\$1-volume;
#X obj 758 572 r ch-\$1-volume;
#X obj 208 650 list append, f 34;
#X obj 208 741 outlet;
#X obj 233 484 r \$0root;
#X obj 495 449 r \$0root;
#X obj 629 437 r \$0root;
#X obj 753 440 r \$0root;
#X obj 327 281 * 1;
#X obj 940 602 i;
#X obj 860 662 tick-delay 360;
#X obj 568 233 t b f b, f 18;
#X obj 860 683 outlet;
#X text 970 607 quantized tick length;
#X obj 846 137 inlet stop;
#X obj 846 158 t b;
#X msg 846 179 stop;
#X obj 568 213 +, f 13;
#X obj 643 186 r ch-\$1-trans;
#X obj 679 133 f \$1;
#X obj 568 110 t a b, f 19;
#X obj 679 157 s ch-active-chord;
#X connect 0 0 30 1;
#X connect 1 0 46 0;
#X connect 2 0 19 1;
#X connect 3 0 27 0;
#X connect 5 0 57 0;
#X connect 6 0 54 0;
#X connect 7 0 18 0;
#X connect 8 0 13 0;
#X connect 9 0 15 0;
#X connect 10 0 7 0;
#X connect 10 1 8 0;
#X connect 10 2 9 0;
#X connect 10 3 11 0;
#X connect 11 0 17 0;
#X connect 12 0 19 0;
#X connect 13 0 33 0;
#X connect 13 1 12 1;
#X connect 14 0 20 0;
#X connect 15 0 34 0;
#X connect 15 1 14 1;
#X connect 16 0 21 0;
#X connect 17 0 35 0;
#X connect 17 1 16 1;
#X connect 18 0 39 0;
#X connect 19 0 39 0;
#X connect 20 0 39 0;
#X connect 21 0 39 0;
#X connect 22 0 33 1;
#X connect 23 0 34 1;
#X connect 24 0 35 1;
#X connect 27 0 32 0;
#X connect 27 1 45 0;
#X connect 29 0 10 0;
#X connect 30 0 29 0;
#X connect 31 0 30 0;
#X connect 32 0 45 0;
#X connect 33 0 12 0;
#X connect 34 0 14 0;
#X connect 35 0 16 0;
#X connect 36 0 18 1;
#X connect 37 0 20 1;
#X connect 38 0 21 1;
#X connect 39 0 40 0;
#X connect 41 0 7 1;
#X connect 42 0 8 1;
#X connect 43 0 9 1;
#X connect 44 0 11 1;
#X connect 45 0 22 0;
#X connect 45 0 23 0;
#X connect 45 0 24 0;
#X connect 46 0 39 1;
#X connect 46 0 47 1;
#X connect 47 0 49 0;
#X connect 48 0 31 0;
#X connect 48 1 28 0;
#X connect 48 2 47 0;
#X connect 51 0 52 0;
#X connect 52 0 53 0;
#X connect 53 0 47 0;
#X connect 54 0 48 0;
#X connect 55 0 54 1;
#X connect 56 0 58 0;
#X connect 57 0 6 0;
#X connect 57 1 56 0;
