#N canvas 4 50 1713 884 10;
#X obj 13 154 sel 0, f 77;
#X obj 472 199 / 127;
#X obj 472 220 sqrt;
#X msg 239 425 stop;
#X obj 13 53 unpack;
#X msg 472 250 \$1 10;
#X obj 290 54 t b;
#X msg 290 75 0;
#X obj 13 79 swap, f 6;
#X obj 379 325 f;
#X obj 472 271 t a b;
#X msg 213 611 0;
#X msg 167 612 1, f 5;
#X msg 365 238 0 100;
#N canvas 4 57 1209 987 phasr-loopr-1 0;
#X obj 123 693 *~, f 60;
#X obj 479 629 vline~;
#X obj 178 504 r \$0-duration-s;
#X obj 121 544 *~, f 10;
#X obj 121 609 tabread4~;
#X obj 168 571 r \$0-2-tabread;
#X obj 145 325 s~ \$0-phazzee;
#X obj 479 650 pow~ 2;
#X obj 122 662 *~, f 23;
#N canvas 757 138 944 678 load-n-stuff 0;
#X obj 76 235 / 261.626;
#X obj 76 257 / 2;
#X obj 38 363 /, f 9;
#X obj 76 212 mtof;
#X obj 38 341 f;
#X obj 76 276 t b a;
#X obj 38 299 r \$0-duration;
#X obj 38 456 /;
#X msg 38 434 1000 \$1;
#X obj 94 130 r global-pitch;
#X obj 76 186 +, f 8;
#X obj 94 152 t b a;
#X obj 312 532 s \$0-duration;
#X obj 339 482 s \$0-duration-s;
#X obj 526 394 s \$0-2-tabread;
#X obj 76 46 inlet;
#X obj 38 497 outlet;
#X obj 312 507 /;
#X obj 370 379 samplerate~;
#X obj 370 339 loadbang;
#X obj 370 400 * 0.001;
#X obj 549 253 r select-sample;
#X obj 343 235 r select-length;
#X obj 526 322 symbol;
#X obj 526 343 list prepend set;
#X obj 526 364 route list;
#X obj 312 282 f;
#X obj 312 456 t f f;
#X obj 312 305 tabread samp-lengths;
#X obj 122 377 t b f;
#X obj 122 351 r glob-chunk-size;
#X obj 38 404 *, f 19;
#X obj 76 100 t f b b, f 43;
#X connect 0 0 1 0;
#X connect 1 0 5 0;
#X connect 2 0 31 0;
#X connect 3 0 0 0;
#X connect 4 0 2 0;
#X connect 5 0 4 0;
#X connect 5 1 2 1;
#X connect 6 0 4 0;
#X connect 7 0 16 0;
#X connect 8 0 7 0;
#X connect 9 0 11 0;
#X connect 10 0 3 0;
#X connect 11 0 10 0;
#X connect 11 1 10 1;
#X connect 15 0 32 0;
#X connect 17 0 12 0;
#X connect 18 0 20 0;
#X connect 19 0 18 0;
#X connect 20 0 17 1;
#X connect 21 0 23 0;
#X connect 22 0 26 0;
#X connect 23 0 24 0;
#X connect 24 0 25 0;
#X connect 25 0 14 0;
#X connect 26 0 28 0;
#X connect 27 0 17 0;
#X connect 27 1 13 0;
#X connect 28 0 27 0;
#X connect 29 0 31 0;
#X connect 29 1 31 1;
#X connect 30 0 29 0;
#X connect 31 0 8 0;
#X connect 32 0 10 0;
#X connect 32 1 26 0;
#X connect 32 2 23 0;
#X restore 120 136 pd load-n-stuff;
#X obj 120 292 phasor~, f 26;
#X obj 120 202 vline~;
#X obj 178 524 - 2;
#X obj 122 575 +~ 1;
#X obj 120 265 *~ 1, f 19;
#X obj 121 374 *~, f 10;
#N canvas 4 50 450 300 size-change 0;
#X msg 158 129 stop;
#X obj 139 158 del 8;
#X obj 139 106 t b b b a, f 21;
#X obj 139 186 f, f 9;
#X obj 234 158 s \$0-duck;
#X obj 139 207 outlet;
#X obj 139 40 r glob-chunk-size;
#X connect 0 0 1 0;
#X connect 1 0 3 0;
#X connect 2 0 1 0;
#X connect 2 1 0 0;
#X connect 2 2 4 0;
#X connect 2 3 3 1;
#X connect 3 0 5 0;
#X connect 6 0 2 0;
#X restore 176 353 pd size-change;
#X obj 121 397 +~, f 13;
#N canvas 4 50 450 300 start-change 0;
#X msg 158 99 stop;
#X obj 139 128 del 8;
#X obj 139 76 t b b b a, f 21;
#X obj 139 156 f, f 9;
#X obj 234 128 s \$0-duck;
#X obj 139 177 outlet;
#X obj 139 40 r glob-start-point;
#X connect 0 0 1 0;
#X connect 1 0 3 0;
#X connect 2 0 1 0;
#X connect 2 1 0 0;
#X connect 2 2 4 0;
#X connect 2 3 3 1;
#X connect 3 0 5 0;
#X connect 6 0 2 0;
#X restore 198 375 pd start-change;
#N canvas 4 50 852 685 env-phase 0;
#X obj 178 34 r glob-envelope-args;
#X obj 178 55 unpack 0 0 0 0, f 36;
#X obj 227 268 sig~ 1;
#X obj 227 289 -~, f 13;
#X obj 103 173 r~ \$0-phazzee;
#X obj 106 542 outlet~;
#X obj 106 502 -~ 1;
#X obj 104 409 clip~ 0 1;
#X obj 229 447 clip~ 0 1;
#X obj 103 325 clip~ 0 1;
#X obj 228 338 clip~ 0 1;
#X obj 191 111 lop~ 3;
#X obj 103 284 *~;
#X obj 241 111 lop~ 3;
#X obj 301 111 lop~ 3;
#X obj 351 111 lop~ 3;
#X obj 104 367 pow~, f 16;
#X obj 228 317 *~;
#X obj 229 405 pow~, f 15;
#X connect 0 0 1 0;
#X connect 1 0 11 0;
#X connect 1 1 13 0;
#X connect 1 2 14 0;
#X connect 1 3 15 0;
#X connect 2 0 3 0;
#X connect 3 0 17 0;
#X connect 4 0 3 1;
#X connect 4 0 12 0;
#X connect 6 0 5 0;
#X connect 7 0 6 0;
#X connect 8 0 6 0;
#X connect 9 0 16 0;
#X connect 10 0 18 0;
#X connect 11 0 12 1;
#X connect 12 0 9 0;
#X connect 13 0 16 1;
#X connect 14 0 17 1;
#X connect 15 0 18 1;
#X connect 16 0 7 0;
#X connect 17 0 10 0;
#X connect 18 0 8 0;
#X restore 258 634 pd env-phase;
#X obj 121 633 *~, f 12;
#X obj 133 472 s~ \$0-phazzee-clck;
#X obj 348 447 r select-duck;
#N canvas 4 50 450 300 avoid-clks-og-sample 0;
#X obj 94 81 -~ 0.5;
#X obj 94 105 *~ 0.5;
#X obj 94 128 cos~;
#X obj 94 170 clip~ 0 1;
#X text 55 43 avoids clicks in original sample;
#X obj 94 57 r~ \$0-phazzee-clck;
#X obj 94 191 outlet~;
#X obj 94 149 *~ 54;
#X connect 0 0 1 0;
#X connect 1 0 2 0;
#X connect 2 0 7 0;
#X connect 3 0 6 0;
#X connect 5 0 0 0;
#X connect 7 0 3 0;
#X restore 199 602 pd avoid-clks-og-sample;
#X obj 121 444 wrap~;
#X obj 122 813 hip~ 4;
#X msg 280 153 0;
#X msg 348 517 0 20 \, 1 20 20;
#X obj 120 13 inlet;
#X obj 280 41 inlet;
#X obj 719 65 inlet;
#X obj 121 851 outlet~;
#X obj 865 232 r most-recent-note;
#X obj 120 34 t f f;
#X obj 850 274 ==;
#X obj 850 295 sel 1;
#X obj 885 450 r~ \$0-phazzee-clck;
#X obj 880 327 t b;
#X msg 880 352 0;
#X msg 850 316 1;
#X obj 884 493 snapshot~;
#X obj 850 402 metro 50;
#X obj 865 253 t f b, f 16;
#X obj 884 514 s chordy-recent-status;
#X obj 719 86 t a a;
#X obj 761 114 route 0;
#X obj 761 135 t b;
#X obj 280 62 t b;
#X connect 0 0 25 0;
#X connect 1 0 7 0;
#X connect 2 0 12 0;
#X connect 3 0 13 0;
#X connect 4 0 20 0;
#X connect 5 0 4 0;
#X connect 7 0 0 1;
#X connect 8 0 0 0;
#X connect 9 0 11 0;
#X connect 10 0 15 0;
#X connect 10 0 6 0;
#X connect 11 0 14 0;
#X connect 12 0 3 1;
#X connect 13 0 4 0;
#X connect 14 0 10 0;
#X connect 15 0 17 0;
#X connect 16 0 15 1;
#X connect 17 0 24 0;
#X connect 18 0 17 1;
#X connect 19 0 8 1;
#X connect 20 0 8 0;
#X connect 22 0 27 0;
#X connect 23 0 20 1;
#X connect 24 0 3 0;
#X connect 24 0 21 0;
#X connect 25 0 31 0;
#X connect 26 0 10 1;
#X connect 27 0 1 0;
#X connect 28 0 33 0;
#X connect 29 0 47 0;
#X connect 30 0 44 0;
#X connect 32 0 42 0;
#X connect 33 0 9 0;
#X connect 33 1 34 0;
#X connect 34 0 35 0;
#X connect 35 0 39 0;
#X connect 35 1 37 0;
#X connect 36 0 40 0;
#X connect 37 0 38 0;
#X connect 38 0 41 0;
#X connect 39 0 41 0;
#X connect 40 0 43 0;
#X connect 41 0 40 0;
#X connect 42 0 34 1;
#X connect 42 1 38 0;
#X connect 44 0 1 0;
#X connect 44 1 45 0;
#X connect 45 0 46 0;
#X connect 46 0 38 0;
#X connect 47 0 26 0;
#X restore 379 354 pd phasr-loopr-1;
#X obj 96 252 s \$0-stop;
#X obj 239 385 r \$0-stop;
#X obj 604 281 s \$0-stop;
#X obj 656 446 vline~;
#X obj 656 467 pow~ 2;
#X obj 13 175 t b b b b b, f 19;
#X msg 197 308 0 \$1;
#X obj 197 278 f;
#X obj 212 243 r filter-release;
#X obj 739 237 f;
#X obj 767 246 r filter-decay;
#X obj 754 198 r filter-attack;
#X obj 656 508 *~, f 14;
#X obj 759 469 lop~ 10;
#X obj 759 439 r filter-depth;
#X obj 656 529 +~ 50;
#X obj 739 352 pack 0 0 0;
#X obj 796 279 r filter-decay-amt;
#X msg 656 416 1 \$1 \, \$3 \$2 \$1;
#X obj 13 11 inlet;
#X obj 290 11 inlet glob-kill;
#X obj 487 12 inlet duck;
#X obj 586 757 outlet~;
#X obj 167 651 switch~;
#X msg 1158 269 0 8;
#X obj 557 122 s \$0-stop;
#X obj 522 57 t b b b b;
#X obj 54 280 s \$0-del-off;
#X obj 157 397 r \$0-del-off;
#X text 639 715 vcf~ 3;
#X obj 465 559 vcf~ 3, f 21;
#X obj 204 475 del 110, f 11;
#X obj 101 475 del 8;
#X obj 539 148 s \$0-duck-off;
#X obj 37 376 r \$0-duck-off;
#X obj 587 700 *~;
#X obj 644 665 vline~;
#X msg 1003 280 1 8;
#X obj 473 176 t a b b b b b, f 45;
#X connect 0 0 20 0;
#X connect 0 1 53 0;
#X connect 1 0 2 0;
#X connect 2 0 5 0;
#X connect 3 0 46 0;
#X connect 3 0 47 0;
#X connect 4 0 8 0;
#X connect 4 1 8 1;
#X connect 5 0 10 0;
#X connect 6 0 7 0;
#X connect 7 0 0 0;
#X connect 8 0 0 0;
#X connect 8 1 9 1;
#X connect 9 0 14 0;
#X connect 10 0 14 2;
#X connect 10 1 12 0;
#X connect 11 0 38 0;
#X connect 12 0 38 0;
#X connect 13 0 14 2;
#X connect 14 0 45 0;
#X connect 16 0 3 0;
#X connect 18 0 19 0;
#X connect 19 0 27 0;
#X connect 20 1 13 0;
#X connect 20 2 42 0;
#X connect 20 3 15 0;
#X connect 20 4 22 0;
#X connect 21 0 18 0;
#X connect 22 0 21 0;
#X connect 23 0 22 1;
#X connect 24 0 31 0;
#X connect 25 0 31 1;
#X connect 26 0 24 1;
#X connect 27 0 30 0;
#X connect 28 0 27 1;
#X connect 29 0 28 0;
#X connect 30 0 45 1;
#X connect 31 0 33 0;
#X connect 32 0 31 2;
#X connect 33 0 18 0;
#X connect 34 0 4 0;
#X connect 35 0 6 0;
#X connect 36 0 41 0;
#X connect 39 0 51 0;
#X connect 41 0 22 0;
#X connect 41 1 48 0;
#X connect 41 2 40 0;
#X connect 41 3 39 0;
#X connect 43 0 46 0;
#X connect 45 1 50 0;
#X connect 46 0 11 0;
#X connect 47 0 11 0;
#X connect 49 0 47 0;
#X connect 50 0 37 0;
#X connect 51 0 50 1;
#X connect 52 0 51 0;
#X connect 53 0 1 0;
#X connect 53 1 9 0;
#X connect 53 2 17 0;
#X connect 53 3 14 1;
#X connect 53 4 24 0;
#X connect 53 5 52 0;
