#N canvas 324 138 1445 848 10;
#X obj 24 17 inlet messages;
#X obj 271 179 text define \$0-looper;
#X obj 106 222 spigot 0;
#X obj 151 143 r \$0-start;
#X msg 151 164 1;
#X msg 183 188 0;
#X obj 183 165 r \$0-stop;
#X obj 24 141 s \$0-start;
#X obj 24 90 t b;
#X obj 174 89 s \$0-stop;
#X obj 63 68 s \$0-ticks;
#X obj 24 341 unpack 0 0;
#X obj 81 367 sel 0;
#X obj 106 273 t a a;
#X obj 133 296 stripnote, f 18;
#X obj 74 569 pack 0 0 0, f 41;
#N canvas 4 50 450 300 del-ticks 0;
#X obj 79 92 r \$0-ticks;
#X obj 79 136 t b;
#X obj 79 157 f;
#X obj 111 158 + 1;
#X obj 79 113 spigot 0;
#X obj 49 32 t b b;
#X obj 51 11 inlet start;
#X obj 227 20 inlet stop;
#X msg 163 85 0;
#X msg 49 53 1;
#X obj 227 41 t b b;
#X msg 249 67 0;
#X obj 83 199 f;
#X obj 83 220 outlet;
#X connect 0 0 4 0;
#X connect 1 0 2 0;
#X connect 2 0 3 0;
#X connect 3 0 2 1;
#X connect 3 0 12 1;
#X connect 4 0 1 0;
#X connect 5 0 9 0;
#X connect 5 1 8 0;
#X connect 6 0 5 0;
#X connect 7 0 10 0;
#X connect 8 0 2 1;
#X connect 9 0 4 1;
#X connect 10 0 12 0;
#X connect 10 1 11 0;
#X connect 11 0 4 1;
#X connect 12 0 13 0;
#X restore 74 430 pd del-ticks;
#X obj 93 742 text set \$0-looper;
#X obj 436 6 r \$0-ticks;
#X msg 74 607 \$2 \$3 \$1;
#X obj 436 623 text get \$0-looper;
#X obj 436 722 cg-makenote-ticks;
#X msg 535 675 ticks \$1;
#X obj 535 654 r \$0-ticks;
#X obj 436 743 outlet;
#X obj 436 432 f;
#X obj 467 432 + 1;
#X obj 436 553 %, f 13;
#X obj 436 166 spigot 0;
#X msg 343 336 1;
#X msg 560 122 0;
#X obj 560 99 r \$0-stop;
#X obj 147 65 t b b;
#X obj 147 116 s \$0-reset;
#X obj 511 417 r \$0-reset;
#X msg 511 438 0;
#X obj 271 133 r \$0-reset;
#X msg 271 154 clear;
#X obj 81 388 t b b b, f 21;
#X obj 436 27 t b;
#X obj 436 48 f;
#X obj 473 50 + 1;
#X obj 74 451 t f f;
#X obj 436 139 %;
#X obj 101 480 spigot 0, f 14;
#X msg 182 451 1;
#X obj 101 501 t f b;
#X msg 231 484 0;
#X obj 182 430 r \$0-start;
#X obj 436 355 sel 0, f 14;
#X text 783 726 if no note played store replay note and save new loop
size;
#X obj 310 401 v \$0-note-played;
#X msg 310 373 1;
#X obj 602 467 v \$0-note-played;
#X msg 602 443 0;
#X obj 436 187 t f f, f 88;
#X obj 961 215 sel, f 16;
#X obj 961 241 v \$0-note-played;
#X obj 961 262 sel 0 1, f 16;
#X obj 961 440 text get \$0-looper;
#X text 1113 295 get the last played note;
#X obj 961 461 t a b;
#X obj 24 39 route start ticks notes stop view;
#X msg 255 101 click;
#X obj 463 488 v \$0-loop;
#X obj 436 461 t f b;
#X obj 463 509 change -1;
#X obj 101 527 s \$0-init-len;
#X obj 451 89 r \$0-init-len;
#X obj 1054 163 r \$0-init-len;
#X obj 961 535 text set \$0-looper;
#X msg 265 40 start;
#X msg 275 64 stop;
#X obj 1054 184 - 1;
#X obj 436 378 t b b b, f 56;
#X obj 769 425 s \$0-reopen;
#X obj 235 205 r \$0-reopen;
#X msg 235 245 1;
#X obj 106 250 spigot 0;
#X msg 189 267 0;
#X obj 436 574 t f f;
#X obj 463 598 v \$0-cuurent-play;
#X obj 961 305 v \$0-cuurent-play;
#X obj 961 408 %, f 13;
#X obj 988 353 v \$0-loop;
#X obj 961 326 t f b;
#X obj 988 374 change -1;
#X obj 249 226 r \$0-start;
#X obj 133 317 t b f b b, f 30;
#X text 833 35 a new loop is created when a new note happens;
#X obj 996 491 text size \$0-looper;
#X obj 996 512 + 1;
#X obj 74 640 t b a b;
#X obj 36 799 v \$0-loop;
#X obj 128 681 text size \$0-looper;
#X obj 128 702 + 1;
#X obj 36 771 text size \$0-looper;
#X connect 0 0 62 0;
#X connect 2 0 78 0;
#X connect 3 0 4 0;
#X connect 4 0 2 1;
#X connect 5 0 2 1;
#X connect 6 0 5 0;
#X connect 8 0 7 0;
#X connect 11 1 12 0;
#X connect 12 0 38 0;
#X connect 13 0 11 0;
#X connect 13 1 14 0;
#X connect 14 0 88 0;
#X connect 14 1 15 2;
#X connect 15 0 19 0;
#X connect 16 0 42 0;
#X connect 18 0 39 0;
#X connect 19 0 92 0;
#X connect 20 0 21 0;
#X connect 21 0 24 0;
#X connect 22 0 21 1;
#X connect 23 0 22 0;
#X connect 25 0 26 0;
#X connect 25 0 65 0;
#X connect 26 0 25 1;
#X connect 27 0 80 0;
#X connect 28 0 55 0;
#X connect 29 0 28 1;
#X connect 30 0 28 1;
#X connect 30 0 43 1;
#X connect 31 0 30 0;
#X connect 32 0 33 0;
#X connect 32 1 9 0;
#X connect 34 0 35 0;
#X connect 35 0 25 1;
#X connect 35 0 27 1;
#X connect 36 0 37 0;
#X connect 37 0 1 0;
#X connect 38 0 16 1;
#X connect 38 1 79 0;
#X connect 38 2 29 0;
#X connect 39 0 40 0;
#X connect 40 0 41 0;
#X connect 40 0 43 0;
#X connect 41 0 40 1;
#X connect 42 0 15 0;
#X connect 42 1 44 0;
#X connect 43 0 28 0;
#X connect 44 0 46 0;
#X connect 45 0 44 1;
#X connect 46 0 67 0;
#X connect 46 1 47 0;
#X connect 47 0 44 1;
#X connect 48 0 45 0;
#X connect 49 0 74 0;
#X connect 52 0 51 0;
#X connect 54 0 53 0;
#X connect 55 0 49 0;
#X connect 55 1 56 0;
#X connect 56 0 57 0;
#X connect 57 0 58 0;
#X connect 58 0 82 0;
#X connect 59 0 61 0;
#X connect 61 0 70 0;
#X connect 61 1 90 0;
#X connect 62 0 8 0;
#X connect 62 1 10 0;
#X connect 62 2 2 0;
#X connect 62 3 32 0;
#X connect 62 4 63 0;
#X connect 63 0 1 0;
#X connect 64 0 66 0;
#X connect 65 0 27 0;
#X connect 65 1 64 0;
#X connect 66 0 27 1;
#X connect 68 0 43 1;
#X connect 69 0 73 0;
#X connect 71 0 62 0;
#X connect 72 0 62 0;
#X connect 73 0 56 1;
#X connect 74 0 25 0;
#X connect 74 1 54 0;
#X connect 74 2 75 0;
#X connect 76 0 77 0;
#X connect 77 0 78 1;
#X connect 78 0 13 0;
#X connect 79 0 78 1;
#X connect 80 0 20 0;
#X connect 80 1 81 0;
#X connect 82 0 85 0;
#X connect 83 0 59 0;
#X connect 84 0 86 0;
#X connect 85 0 83 0;
#X connect 85 1 84 0;
#X connect 86 0 83 1;
#X connect 87 0 77 0;
#X connect 88 1 15 1;
#X connect 88 2 16 0;
#X connect 88 3 52 0;
#X connect 90 0 91 0;
#X connect 91 0 70 1;
#X connect 92 0 96 0;
#X connect 92 1 17 0;
#X connect 92 2 94 0;
#X connect 94 0 95 0;
#X connect 95 0 17 1;
#X connect 96 0 93 0;
