#N canvas 715 92 986 892 10;
#X obj 13 11 inlet;
#X obj 708 162 inlet kill;
#X obj 708 183 t b;
#X msg 708 204 0;
#X obj 110 677 throw~ samp_voice_out;
#X obj 40 106 unpack;
#X obj 73 129 sel 0;
#X obj 100 157 t b;
#X obj 100 181 cg-loop 2 1;
#X obj 100 202 sel 0 1, f 71;
#X obj 13 32 t a a;
#X obj 311 233 t b b;
#X obj 13 349 list prepend;
#X obj 13 370 route 0 1, f 29;
#X msg 311 254 0;
#X obj 101 229 t b b;
#X msg 101 250 1;
#X obj 59 506 mello-sub-voice;
#X obj 300 513 mello-sub-voice;
#X connect 0 0 10 0;
#X connect 1 0 2 0;
#X connect 2 0 3 0;
#X connect 3 0 18 1;
#X connect 3 0 17 1;
#X connect 5 1 6 0;
#X connect 6 1 7 0;
#X connect 7 0 8 0;
#X connect 8 0 9 0;
#X connect 9 0 15 0;
#X connect 9 1 11 0;
#X connect 10 0 12 0;
#X connect 10 1 5 0;
#X connect 11 0 14 0;
#X connect 11 1 18 2;
#X connect 12 0 13 0;
#X connect 13 0 17 0;
#X connect 13 1 18 0;
#X connect 14 0 12 1;
#X connect 15 0 16 0;
#X connect 15 1 17 2;
#X connect 16 0 12 1;
#X connect 17 0 4 0;
#X connect 18 0 4 0;
