#N canvas 4 50 1308 1009 10;
#X obj 359 606 spigot;
#X text 574 281 rewind;
#X obj 605 828 outlet;
#X obj 462 487 text get \$1 -1;
#X obj 462 605 spigot;
#X text 656 538 if a valid entry \, let it through \, otherwise block
;
#N canvas 5 50 449 248 check-line 0;
#X msg 150 91 0;
#X obj 158 63 sel 2 0;
#X msg 192 93 1;
#X obj 164 33 inlet;
#X obj 136 160 outlet;
#X connect 0 0 4 0;
#X connect 1 0 0 0;
#X connect 1 1 2 0;
#X connect 2 0 4 0;
#X connect 3 0 1 0;
#X restore 557 537 pd check-line;
#X text 713 364 zero out the last stored seq clock time \, reset line
counter \, get first line;
#X obj 786 637 s \$0len;
#X text 653 827 events;
#X obj 156 187 clocker;
#X obj 532 283 sel 0;
#X msg 38 56 length \$1;
#X obj 38 27 r \$0len;
#X obj 156 27 inlet;
#X obj 295 27 inlet;
#X text 337 26 controls;
#X text 197 27 beat clock;
#X obj 195 305 r \$0len;
#X obj 156 397 sel 1;
#X obj 156 428 s \$0end;
#X obj 697 746 r \$0end;
#X obj 697 827 outlet;
#X obj 195 328 - 1;
#X text 745 823 bang at end;
#X obj 295 118 s \$0quantize-length;
#N canvas 218 112 500 306 line-count 0;
#X obj 224 144 + 1;
#X obj 125 47 inlet;
#X obj 163 194 outlet;
#X obj 303 37 inlet;
#X text 348 38 reset;
#X text 211 196 count;
#X text 171 44 inc;
#X obj 168 144 f 0;
#X obj 167 169 t f f;
#X obj 303 58 i;
#X connect 0 0 7 1;
#X connect 1 0 7 0;
#X connect 3 0 9 0;
#X connect 7 0 8 0;
#X connect 8 0 2 0;
#X connect 8 1 0 0;
#X connect 9 0 7 1;
#X restore 462 432 pd line-count;
#X obj 405 327 r \$0get-next;
#X obj 359 685 s \$0get-next;
#X obj 891 573 r \$0quantize-length;
#N canvas 8 50 587 415 quantize-length 0;
#X obj 71 19 inlet;
#X obj 217 23 inlet;
#X obj 132 309 outlet;
#X obj 166 137 / 360;
#X obj 166 178 i;
#X obj 166 270 * 360;
#X obj 216 50 t f f;
#X obj 179 76 == 0, f 5;
#X obj 168 218 expr if ($f1 < 1 \, 1 \, $f1) \;;
#X text 216 178 quantize length to nearest quarter \, but not 0;
#X obj 86 110 spigot 0;
#X obj 159 111 spigot 1;
#X obj 165 156 + 0.499999;
#X connect 0 0 10 0;
#X connect 0 0 11 0;
#X connect 1 0 6 0;
#X connect 3 0 12 0;
#X connect 4 0 8 0;
#X connect 5 0 2 0;
#X connect 6 0 7 0;
#X connect 6 1 11 1;
#X connect 7 0 10 1;
#X connect 8 0 5 0;
#X connect 10 0 2 0;
#X connect 11 0 3 0;
#X connect 12 0 4 0;
#X restore 786 608 pd quantize-length;
#N canvas 10 51 601 520 compare-times 0;
#X obj 220 142 list split 1, f 25;
#X obj 337 349 list, f 5;
#X obj 337 380 list trim;
#X obj 220 285 sel 1;
#X obj 220 312 t b b, f 20;
#X text 358 243 wait until sequcned clock advances then send out event
and get next., f 26;
#X obj 220 216 f, f 14;
#X obj 220 175 t b f;
#X obj 126 77 inlet;
#X text 101 42 seq clock;
#X obj 220 77 inlet;
#X text 238 49 event;
#X obj 459 73 inlet;
#X obj 459 95 bang;
#X msg 459 117 0;
#X text 455 49 zero it out;
#X obj 337 417 outlet;
#X obj 220 416 outlet;
#X obj 220 250 >=, f 8;
#X connect 0 0 7 0;
#X connect 0 1 1 1;
#X connect 1 0 2 0;
#X connect 2 0 16 0;
#X connect 3 0 4 0;
#X connect 4 0 17 0;
#X connect 4 1 1 0;
#X connect 6 0 18 0;
#X connect 7 0 6 0;
#X connect 7 1 18 1;
#X connect 8 0 6 0;
#X connect 10 0 0 0;
#X connect 12 0 13 0;
#X connect 13 0 14 0;
#X connect 14 0 6 1;
#X connect 18 0 3 0;
#X restore 359 646 pd compare-times - - - - - - -;
#X obj 156 361 >=, f 7;
#X obj 295 88 route quantize-length;
#X obj 968 143 route start start-sync;
#X obj 967 288 t b;
#X msg 967 310 1;
#X obj 295 49 t a a, f 73;
#X obj 695 436 text get \$1 -1;
#X msg 695 411 0;
#X obj 695 457 route bang;
#X obj 752 487 list split 2;
#X obj 536 691 route length;
#X obj 532 304 f 0;
#X obj 518 367 t b f b b, f 30;
#X obj 156 217 t f f f f, f 102;
#X obj 825 831 outlet ticks;
#X obj 918 827 outlet length;
#X connect 0 0 31 0;
#X connect 3 0 4 0;
#X connect 3 1 6 0;
#X connect 4 0 31 1;
#X connect 6 0 0 1;
#X connect 6 0 4 1;
#X connect 10 0 45 0;
#X connect 11 0 43 0;
#X connect 12 0 10 0;
#X connect 13 0 12 0;
#X connect 14 0 10 0;
#X connect 15 0 37 0;
#X connect 18 0 23 0;
#X connect 19 0 20 0;
#X connect 21 0 22 0;
#X connect 23 0 32 1;
#X connect 26 0 3 0;
#X connect 27 0 26 0;
#X connect 29 0 30 1;
#X connect 30 0 8 0;
#X connect 31 0 28 0;
#X connect 31 1 42 0;
#X connect 32 0 19 0;
#X connect 33 0 25 0;
#X connect 33 1 10 0;
#X connect 34 0 35 0;
#X connect 34 1 35 0;
#X connect 35 0 36 0;
#X connect 37 0 33 0;
#X connect 37 1 34 0;
#X connect 38 0 40 0;
#X connect 39 0 38 0;
#X connect 40 1 41 0;
#X connect 41 1 30 0;
#X connect 42 0 47 0;
#X connect 42 1 2 0;
#X connect 43 0 44 0;
#X connect 44 0 26 0;
#X connect 44 1 26 1;
#X connect 44 2 31 2;
#X connect 44 3 39 0;
#X connect 45 0 32 0;
#X connect 45 1 0 0;
#X connect 45 2 11 0;
#X connect 45 3 46 0;
