#N canvas 254 197 1151 793 10;
#X obj 19 13 inlet mess;
#X obj 18 182 r \$0-notes;
#X obj 18 206 list prepend notes;
#X obj 18 227 list trim;
#X obj 17 333 cg-format-notes \$1;
#X obj 17 99 r \$0-ticks;
#X msg 17 120 ticks \$1;
#X obj 17 141 s \$0-2-form;
#X obj 17 298 r \$0-2-form;
#X obj 18 248 s \$0-2-form;
#N canvas 4 50 1171 417 messages 0;
#X obj 13 8 inlet;
#X obj 13 79 s \$0-ticks;
#X obj 120 79 s \$0-notes;
#X obj 721 77 s \$0-clear;
#X obj 552 140 s \$0-2-form;
#X obj 839 176 s \$0-2-form;
#X msg 839 107 look-buff;
#X msg 912 108 look-list;
#X obj 13 34 route ticks notes start mark stop quan-tog quan-x clear
look-buff look-list, f 162;
#X obj 365 274 s \$0-2-form;
#X msg 365 248 stop;
#X obj 111 259 s \$0-2-form;
#X msg 111 233 start;
#X obj 288 334 s \$0-2-looper;
#X obj 191 207 s \$0-2-looper;
#X msg 190 185 stop;
#X msg 614 79 q-rate \$1;
#X msg 506 78 q-switch \$1;
#X obj 503 156 t b b;
#X obj 518 218 s \$0-2-looper;
#X msg 517 196 stop;
#X obj 176 132 t b b b;
#X obj 411 114 r \$0-clear;
#X text 198 105 start;
#X obj 325 210 s \$0-load-fast;
#X msg 288 312 start-sync;
#X msg 233 163 1;
#X obj 233 184 s \$0-traack;
#X obj 373 179 s \$0-traack;
#X obj 309 90 t b b b b b;
#X msg 373 158 0;
#X connect 0 0 8 0;
#X connect 6 0 5 0;
#X connect 7 0 5 0;
#X connect 8 0 1 0;
#X connect 8 1 2 0;
#X connect 8 2 21 0;
#X connect 8 3 29 0;
#X connect 8 4 18 0;
#X connect 8 5 17 0;
#X connect 8 6 16 0;
#X connect 8 7 3 0;
#X connect 8 8 6 0;
#X connect 8 9 7 0;
#X connect 10 0 9 0;
#X connect 12 0 11 0;
#X connect 15 0 14 0;
#X connect 16 0 4 0;
#X connect 17 0 4 0;
#X connect 18 0 10 0;
#X connect 18 1 20 0;
#X connect 20 0 19 0;
#X connect 21 0 12 0;
#X connect 21 2 26 0;
#X connect 22 0 18 0;
#X connect 25 0 13 0;
#X connect 26 0 27 0;
#X connect 29 0 25 0;
#X connect 29 1 24 0;
#X connect 29 2 15 0;
#X connect 29 3 10 0;
#X connect 29 4 30 0;
#X connect 30 0 28 0;
#X restore 19 44 pd messages;
#N canvas 643 170 714 720 play-the-sequence 0;
#X msg 528 114 loop 1;
#X msg 500 89 quantize-length 1;
#X obj 500 40 loadbang;
#X obj 109 533 cg-makenote-ticks;
#X msg 208 467 ticks \$1;
#X obj 500 61 t b b;
#X obj 222 492 r \$0-2-makenote;
#X msg 580 113 loop 0;
#X obj 109 233 r \$0-ticks;
#X obj 500 152 s \$0-2-player;
#X obj 109 266 new-seq-player \$1-play-loop;
#X obj 40 191 text define \$1-play-loop;
#X obj 109 554 outlet;
#X obj 215 325 s \$1-looped;
#X obj 268 295 s \$1-leeng;
#X obj 208 446 r \$0-ticks;
#X obj 40 21 inlet;
#X msg 40 94 click;
#X obj 40 63 t b;
#X obj 164 152 text fromlist \$1-play-loop;
#X obj 164 126 text get \$1-phrases;
#X msg 99 99 clear;
#X obj 164 75 t a a;
#X obj 191 103 s \$0-this-is-looping;
#X obj 378 152 t b;
#X msg 378 173 start-sync;
#X obj 40 42 route look load clear start-sync stop, f 59;
#X obj 320 66 t b;
#X msg 320 87 stop;
#X obj 193 367 outlet bang-on-end-of-loop;
#X connect 0 0 9 0;
#X connect 1 0 9 0;
#X connect 2 0 5 0;
#X connect 3 0 12 0;
#X connect 4 0 3 1;
#X connect 5 0 1 0;
#X connect 5 1 0 0;
#X connect 6 0 3 1;
#X connect 7 0 9 0;
#X connect 8 0 10 0;
#X connect 10 0 3 0;
#X connect 10 1 29 0;
#X connect 10 2 13 0;
#X connect 10 3 14 0;
#X connect 15 0 4 0;
#X connect 16 0 26 0;
#X connect 17 0 11 0;
#X connect 18 0 17 0;
#X connect 20 0 19 0;
#X connect 21 0 11 0;
#X connect 22 0 20 0;
#X connect 22 1 23 0;
#X connect 24 0 25 0;
#X connect 25 0 10 1;
#X connect 26 0 18 0;
#X connect 26 1 22 0;
#X connect 26 2 21 0;
#X connect 26 3 24 0;
#X connect 26 4 27 0;
#X connect 27 0 28 0;
#X connect 28 0 10 1;
#X restore 496 640 pd play-the-sequence;
#X msg 512 510 look;
#X obj 496 479 r \$0-2-looper;
#X msg 524 562 clear;
#X obj 496 661 outlet;
#X obj 17 406 s \$0-slott;
#X msg 617 606 load \$1;
#X obj 474 59 text define \$0-tracker;
#X obj 212 195 r \$0-slott;
#X obj 212 277 - 1;
#X obj 613 663 s \$0-bangggg;
#X obj 212 488 text insert \$0-tracker;
#X text 369 345 loops;
#X obj 524 538 r \$0-clear;
#X obj 207 73 r \$0-clear;
#X msg 207 94 big-clear;
#X obj 207 115 s \$0-2-form;
#X msg 474 32 clear;
#X obj 474 8 r \$0-clear;
#X obj 44 363 r \$0-clear;
#X msg 44 384 1;
#X obj 641 506 r \$0-slott;
#X obj 641 552 - 1;
#X obj 212 247 unpack;
#X obj 445 435 r \$0-traack;
#N canvas 4 50 450 300 add-length 0;
#X obj 37 22 inlet;
#X obj 37 43 text search \$0-tracker 0;
#X obj 37 85 sel -1;
#X obj 70 111 text get \$0-tracker;
#X obj 70 132 unpack 0 0 0;
#X obj 139 157 + 1;
#X obj 70 193 pack 0 0 0, f 14;
#X obj 37 65 t f f, f 33;
#X obj 70 214 text set \$0-tracker, f 52;
#X obj 279 129 r \$0-clear;
#X floatatom 185 186 5 0 0 0 - - -;
#X connect 0 0 1 0;
#X connect 1 0 7 0;
#X connect 2 1 3 0;
#X connect 3 0 4 0;
#X connect 4 0 6 0;
#X connect 4 1 6 1;
#X connect 4 2 5 0;
#X connect 5 0 6 2;
#X connect 5 0 10 0;
#X connect 6 0 8 0;
#X connect 7 0 2 0;
#X connect 7 1 8 1;
#X restore 400 513 pd add-length;
#N canvas 568 101 899 691 counter 0;
#X obj 196 222 text get \$0-tracker;
#X obj 196 243 unpack 0 0 0, f 15;
#X obj 169 67 r \$0-bangggg;
#X obj 169 102 t b;
#X text 315 268 <---if no length immediately progress to next line
;
#X obj 169 344 sel, f 17;
#X obj 242 320 + 1;
#X obj 169 320 f 0, f 7;
#X msg 243 288 0;
#X obj 169 183 t b a;
#X obj 169 145 v \$0-count-thru;
#X obj 483 98 v \$0-count-thru;
#X obj 483 53 loadbang;
#X msg 483 74 0;
#X obj 169 465 v \$0-count-thru;
#X obj 169 486 + 1;
#X obj 169 507 %, f 25;
#X obj 316 444 r \$0-slott;
#X obj 316 465 unpack 0 0;
#X obj 216 546 v \$0-count-thru;
#X obj 268 393 v \$0-count-thru;
#X obj 306 611 outlet;
#X obj 169 528 t f f;
#X obj 169 385 t b b b;
#X msg 207 420 0;
#X obj 387 140 r \$0-clear;
#X obj 268 368 t b b;
#X connect 0 0 1 0;
#X connect 1 2 5 1;
#X connect 2 0 3 0;
#X connect 3 0 10 0;
#X connect 5 0 23 0;
#X connect 5 1 26 0;
#X connect 6 0 7 1;
#X connect 7 0 6 0;
#X connect 7 0 5 0;
#X connect 8 0 7 1;
#X connect 9 0 7 0;
#X connect 9 1 0 0;
#X connect 10 0 9 0;
#X connect 12 0 13 0;
#X connect 13 0 11 0;
#X connect 14 0 15 0;
#X connect 15 0 16 0;
#X connect 16 0 22 0;
#X connect 17 0 18 0;
#X connect 18 0 16 1;
#X connect 20 0 21 0;
#X connect 22 0 21 0;
#X connect 22 1 19 0;
#X connect 23 0 14 0;
#X connect 23 1 8 0;
#X connect 23 2 24 0;
#X connect 24 0 5 1;
#X connect 25 0 8 0;
#X connect 26 0 20 0;
#X restore 276 331 pd counter;
#X obj 276 400 t f f f, f 42;
#X obj 617 465 text get \$0-tracker;
#X obj 400 461 spigot 0;
#X obj 33 439 r \$0-slott;
#X floatatom 33 460 5 0 0 0 - - -;
#X obj 400 482 - 1;
#X obj 212 298 pack 0 0 0;
#X obj 641 527 unpack;
#X obj 676 314 clocker;
#X msg 676 278 length \$1;
#N canvas 803 400 450 535 calculate-length 0;
#X obj 18 13 inlet;
#X obj 142 54 text size \$1-phrases;
#X obj 142 270 text get \$1-phrases;
#X obj 142 79 t a b;
#X msg 181 101 0;
#X obj 142 126 f, f 7;
#X obj 212 126 + 1;
#X obj 142 101 until;
#X obj 142 291 list split 2;
#X obj 176 314 list split 1;
#X obj 142 147 t f f;
#X obj 169 205 text get \$0-tracker;
#X connect 1 0 3 0;
#X connect 2 0 8 0;
#X connect 3 0 7 0;
#X connect 3 1 4 0;
#X connect 4 0 5 1;
#X connect 5 0 6 0;
#X connect 5 0 10 0;
#X connect 6 0 5 1;
#X connect 7 0 5 0;
#X connect 8 1 9 0;
#X connect 10 0 2 0;
#X restore 658 238 pd calculate-length;
#X text 712 295 maybe another clock thing;
#X connect 0 0 10 0;
#X connect 1 0 2 0;
#X connect 2 0 3 0;
#X connect 3 0 9 0;
#X connect 4 0 16 0;
#X connect 5 0 6 0;
#X connect 6 0 7 0;
#X connect 8 0 4 0;
#X connect 11 0 15 0;
#X connect 11 1 21 0;
#X connect 12 0 11 0;
#X connect 13 0 11 0;
#X connect 14 0 11 0;
#X connect 17 0 11 0;
#X connect 19 0 34 0;
#X connect 20 0 44 0;
#X connect 24 0 14 0;
#X connect 25 0 26 0;
#X connect 26 0 27 0;
#X connect 28 0 18 0;
#X connect 29 0 28 0;
#X connect 30 0 31 0;
#X connect 31 0 16 0;
#X connect 32 0 45 0;
#X connect 33 0 17 0;
#X connect 34 0 20 0;
#X connect 34 1 44 1;
#X connect 35 0 40 1;
#X connect 37 0 38 0;
#X connect 38 0 22 1;
#X connect 38 1 40 0;
#X connect 38 2 39 0;
#X connect 39 0 17 0;
#X connect 40 0 43 0;
#X connect 41 0 42 0;
#X connect 43 0 36 0;
#X connect 44 0 22 0;
#X connect 45 0 33 0;
#X connect 47 0 46 0;
