#N canvas 662 542 1066 401 10;
#X text 15 9 Arg1: Y Placement;
#X obj 403 215 s oscOut;
#X text 455 175 clear the line;
#X obj 19 109 t b;
#X obj 19 243 f \$1;
#X text 50 109 make sure its always a bang;
#X text 57 243 get the 1st argument;
#N canvas 722 75 1061 716 draw-the-grid 0;
#X obj 581 186 s oscOut;
#X obj 391 278 s oscOut;
#X text 602 137 top horizontal line;
#X text 424 226 bottom horizontal line;
#X text 170 548 first vertical line;
#X obj 138 589 s oscOut;
#X obj 212 356 t a a;
#X obj 212 417 pack;
#X obj 333 593 s oscOut;
#X text 355 549 second vertical line;
#X obj 212 438 t a a a a, f 82;
#X obj 512 589 s oscOut;
#X obj 707 593 s oscOut;
#X text 544 548 third vertical line;
#X text 729 549 fourth vertical line;
#X obj 184 23 inlet;
#X obj 184 44 t a a a, f 68;
#X msg 138 567 /oled/gLine 3 0 \$1 0 \$2 1;
#X msg 333 571 /oled/gLine 3 63 \$1 63 \$2 1;
#X msg 512 567 /oled/gLine 3 93 \$1 93 \$2 1;
#X msg 707 571 /oled/gLine 3 127 \$1 127 \$2 1;
#X msg 581 164 /oled/gLine 3 0 \$1 127 \$1 1;
#X msg 391 256 /oled/gLine 3 0 \$1 127 \$1 1;
#X obj 239 382 + 10;
#X obj 391 230 + 10;
#X connect 6 0 7 0;
#X connect 6 1 23 0;
#X connect 7 0 10 0;
#X connect 10 0 17 0;
#X connect 10 1 18 0;
#X connect 10 2 19 0;
#X connect 10 3 20 0;
#X connect 15 0 16 0;
#X connect 16 0 6 0;
#X connect 16 1 24 0;
#X connect 16 2 21 0;
#X connect 17 0 5 0;
#X connect 18 0 8 0;
#X connect 19 0 11 0;
#X connect 20 0 12 0;
#X connect 21 0 0 0;
#X connect 22 0 1 0;
#X connect 23 0 7 1;
#X connect 24 0 22 0;
#X restore 184 335 pd draw-the-grid;
#N canvas 4 50 1097 813 draw-the-values 0;
#X obj 122 385 list, f 9;
#X msg 122 364 69;
#X obj 122 405 route 69;
#X obj 122 648 s oscOut;
#X obj 122 426 list;
#X text 290 396 comment;
#X obj 122 514 unpack s 0 s 0, f 106;
#X obj 122 586 pack s \$1;
#X obj 333 644 s oscOut;
#X obj 333 582 pack 0 \$1;
#X obj 173 360 r ch-status-\$2;
#X text 488 537 we dont print the roll;
#X text 141 559 print the chord symbol;
#X text 350 563 print the length float;
#X obj 755 631 s oscOut;
#X obj 755 569 pack 0 \$1;
#X text 771 550 print the volume float;
#X obj 110 200 inlet;
#X obj 110 221 t b;
#X msg 122 613 /oled/gPrintln 3 3 \$2 8 1 \$1;
#X msg 333 609 /oled/gPrintln 3 66 \$2 8 1 \$1;
#X msg 754 595 /oled/gPrintln 3 96 \$2 8 1 \$1%;
#X obj 122 447 t a b;
#X obj 291 432 f \$1;
#X obj 291 453 + 2;
#X obj 291 474 t a a a, f 63;
#X connect 0 0 2 0;
#X connect 1 0 0 0;
#X connect 2 0 4 0;
#X connect 4 0 22 0;
#X connect 6 0 7 0;
#X connect 6 1 9 0;
#X connect 6 3 15 0;
#X connect 7 0 19 0;
#X connect 9 0 20 0;
#X connect 10 0 0 1;
#X connect 15 0 21 0;
#X connect 17 0 18 0;
#X connect 18 0 1 0;
#X connect 19 0 3 0;
#X connect 20 0 8 0;
#X connect 21 0 14 0;
#X connect 22 0 6 0;
#X connect 22 1 23 0;
#X connect 23 0 24 0;
#X connect 24 0 25 0;
#X connect 25 0 7 1;
#X connect 25 1 9 1;
#X connect 25 2 15 1;
#X restore 19 336 pd draw-the-values;
#X text 15 29 Arg2: Line number;
#X msg 310 196 /oled/gFlip 3;
#X obj 310 216 s oscOut;
#X obj 19 277 t a a, f 28;
#X obj 310 128 t b b b, f 16;
#X obj 19 88 inlet print-all;
#X obj 746 213 f \$1;
#X text 784 213 get the 1st argument;
#X obj 746 247 t a a, f 28;
#N canvas 4 50 1097 813 draw-the-values-invert 0;
#X obj 122 385 list, f 9;
#X msg 122 364 69;
#X obj 122 405 route 69;
#X obj 122 648 s oscOut;
#X obj 122 426 list;
#X text 290 396 comment;
#X obj 122 514 unpack s 0 s 0, f 106;
#X obj 122 586 pack s \$1;
#X obj 333 644 s oscOut;
#X obj 333 582 pack 0 \$1;
#X obj 173 360 r ch-status-\$2;
#X text 488 537 we dont print the roll;
#X text 141 559 print the chord symbol;
#X text 350 563 print the length float;
#X obj 755 631 s oscOut;
#X obj 755 569 pack 0 \$1;
#X text 771 550 print the volume float;
#X obj 110 200 inlet;
#X obj 122 447 t a b;
#X obj 291 432 f \$1;
#X obj 291 453 + 2;
#X obj 291 474 t a a a, f 63;
#X msg 122 613 /oled/gPrintln 3 3 \$2 8 0 \$1;
#X msg 333 609 /oled/gPrintln 3 66 \$2 8 0 \$1;
#X msg 754 595 /oled/gPrintln 3 96 \$2 8 0 \$1%;
#X obj 110 221 t b, f 5;
#X connect 0 0 2 0;
#X connect 1 0 0 0;
#X connect 2 0 4 0;
#X connect 4 0 18 0;
#X connect 6 0 7 0;
#X connect 6 1 9 0;
#X connect 6 3 15 0;
#X connect 7 0 22 0;
#X connect 9 0 23 0;
#X connect 10 0 0 1;
#X connect 15 0 24 0;
#X connect 17 0 25 0;
#X connect 18 0 6 0;
#X connect 18 1 19 0;
#X connect 19 0 20 0;
#X connect 20 0 21 0;
#X connect 21 0 7 1;
#X connect 21 1 9 1;
#X connect 21 2 15 1;
#X connect 22 0 3 0;
#X connect 23 0 8 0;
#X connect 24 0 14 0;
#X connect 25 0 1 0;
#X restore 746 306 pd draw-the-values-invert;
#X obj 762 160 s oscOut;
#X msg 669 141 /oled/gFlip 3;
#X obj 669 161 s oscOut;
#X obj 669 73 t b b b, f 16;
#X text 800 119 clear the line \, but white;
#N canvas 722 75 1061 716 draw-the-grid-invert 0;
#X obj 581 186 s oscOut;
#X obj 391 278 s oscOut;
#X text 602 137 top horizontal line;
#X text 424 226 bottom horizontal line;
#X text 170 548 first vertical line;
#X obj 138 589 s oscOut;
#X obj 212 356 t a a;
#X obj 212 417 pack;
#X obj 333 593 s oscOut;
#X text 355 549 second vertical line;
#X obj 212 438 t a a a a, f 82;
#X obj 512 589 s oscOut;
#X obj 707 593 s oscOut;
#X text 544 548 third vertical line;
#X text 729 549 fourth vertical line;
#X obj 184 23 inlet;
#X obj 184 44 t a a a, f 68;
#X obj 239 382 + 10;
#X obj 391 230 + 10;
#X msg 581 164 /oled/gLine 3 0 \$1 127 \$1 0;
#X msg 391 256 /oled/gLine 3 0 \$1 127 \$1 0;
#X msg 707 571 /oled/gLine 3 127 \$1 127 \$2 0;
#X msg 512 567 /oled/gLine 3 93 \$1 93 \$2 0;
#X msg 333 571 /oled/gLine 3 63 \$1 63 \$2 0;
#X msg 138 567 /oled/gLine 3 0 \$1 0 \$2 0;
#X connect 6 0 7 0;
#X connect 6 1 17 0;
#X connect 7 0 10 0;
#X connect 10 0 24 0;
#X connect 10 1 23 0;
#X connect 10 2 22 0;
#X connect 10 3 21 0;
#X connect 15 0 16 0;
#X connect 16 0 6 0;
#X connect 16 1 18 0;
#X connect 16 2 19 0;
#X connect 17 0 7 1;
#X connect 18 0 20 0;
#X connect 19 0 0 0;
#X connect 20 0 1 0;
#X connect 21 0 12 0;
#X connect 22 0 11 0;
#X connect 23 0 8 0;
#X connect 24 0 5 0;
#X restore 911 305 pd draw-the-grid-invert;
#X obj 309 87 r print-only-line-\$2;
#X obj 667 49 r print-invert-line-\$2;
#X obj 403 156 f \$1;
#X obj 765 103 f \$1;
#X msg 761 138 /oled/gFillArea 3 0 \$1 128 10 1;
#X msg 404 193 /oled/gFillArea 3 0 \$1 128 10 0;
#X connect 3 0 4 0;
#X connect 4 0 12 0;
#X connect 10 0 11 0;
#X connect 12 0 8 0;
#X connect 12 1 7 0;
#X connect 13 0 10 0;
#X connect 13 1 4 0;
#X connect 13 2 27 0;
#X connect 14 0 3 0;
#X connect 15 0 17 0;
#X connect 17 0 18 0;
#X connect 17 1 24 0;
#X connect 20 0 21 0;
#X connect 22 0 20 0;
#X connect 22 1 15 0;
#X connect 22 2 28 0;
#X connect 25 0 13 0;
#X connect 26 0 22 0;
#X connect 27 0 30 0;
#X connect 28 0 29 0;
#X connect 29 0 19 0;
#X connect 30 0 1 0;
