#N canvas 208 94 817 695 10;
#X obj 107 140 phasor~;
#X obj 137 53 bng 15 250 50 0 empty empty empty 17 7 0 10 -262144 -1
-1;
#X msg 234 86 0;
#X obj 108 314 pow~ 2, f 10;
#X obj 233 352 pow~ 2, f 26;
#X obj 108 356 clip~ 0 1;
#X obj 233 394 clip~ 0 1;
#X obj 235 142 sig~ 1;
#X obj 235 193 -~, f 13;
#X obj 269 43 t b a;
#X msg 106 97 441;
#X obj 218 449 -~ 1;
#X obj 107 231 *~ 2;
#X obj 220 255 *~ 2;
#X obj 298 67 unpack 0 0 0 0, f 36;
#X obj 263 503 tabwrite~ \$1;
#X obj 571 400 tabread4 \$1;
#X obj 575 311 hsl 128 15 0 127 0 0 empty empty empty -2 -8 0 10 -262144
-1 -1 0 1;
#X obj 572 331 / 127;
#X obj 572 373 + 1;
#X floatatom 571 421 5 0 0 0 - - -;
#X obj 572 352 * 98;
#X obj 107 272 clip~ 0 1;
#X obj 230 292 clip~ 0 1;
#X obj 269 22 inlet;
#X obj 564 237 array define \$1 100;
#X connect 0 0 12 0;
#X connect 0 0 8 1;
#X connect 1 0 2 0;
#X connect 1 0 10 0;
#X connect 1 0 15 0;
#X connect 2 0 0 1;
#X connect 3 0 5 0;
#X connect 4 0 6 0;
#X connect 5 0 11 0;
#X connect 6 0 11 0;
#X connect 7 0 8 0;
#X connect 8 0 13 0;
#X connect 9 0 1 0;
#X connect 9 1 14 0;
#X connect 10 0 0 0;
#X connect 11 0 15 0;
#X connect 12 0 22 0;
#X connect 13 0 23 0;
#X connect 14 0 12 1;
#X connect 14 1 3 1;
#X connect 14 2 13 1;
#X connect 14 3 4 1;
#X connect 16 0 20 0;
#X connect 17 0 18 0;
#X connect 18 0 21 0;
#X connect 19 0 16 0;
#X connect 21 0 19 0;
#X connect 22 0 3 0;
#X connect 23 0 4 0;
#X connect 24 0 9 0;
