#N canvas 4 50 563 486 10;
#X obj 178 42 inlet messages;
#X obj 179 410 outlet;
#N canvas 4 50 639 486 format-in-notes 1;
#X obj 78 30 inlet;
#X obj 355 116 clocker;
#X msg 203 226 look;
#X msg 355 157 ticks \$1;
#X obj 183 190 r \$0-2-format;
#X obj 78 268 cg-format-notes \$1;
#X obj 355 53 r \$0-ticks;
#X obj 381 82 r \$0-2-format-clock;
#X obj 355 181 s \$0-2-format;
#X obj 78 51 route notes look;
#X obj 127 88 t b;
#X connect 0 0 9 0;
#X connect 1 0 3 0;
#X connect 3 0 8 0;
#X connect 6 0 1 0;
#X connect 7 0 1 0;
#X connect 9 0 5 0;
#X connect 9 1 10 0;
#X connect 10 0 2 0;
#X restore 177 195 pd format-in-notes;
#N canvas 335 370 1018 300 incoming-messages 0;
#X obj 52 47 inlet;
#X obj 542 156 s \$0-notes;
#X obj 624 132 s \$0-knobs;
#X obj 713 105 s \$0-ticks;
#N canvas 4 50 1181 660 track 0;
#X obj 37 37 inlet;
#X obj 899 824 s \$0-2-textGet;
#X obj 853 689 text size \$1-big-save;
#X obj 880 736 - 1;
#X obj 853 710 sel 0;
#X text 909 738 read from 0 line;
#X text 817 672 if previous recording load to player and play;
#X msg 880 852 start-sync;
#X obj 880 874 s \$0-2-player;
#X obj 696 466 s \$0-2-format;
#X msg 696 433 stop;
#X obj 819 17 loadbang;
#X msg 819 38 0;
#X obj 819 59 v \$0-something-recD;
#X obj 564 325 v \$0-something-recD;
#X obj 564 346 sel 1;
#X obj 919 802 v \$0-something-recD;
#X obj 880 757 t b f b;
#X msg 919 779 1;
#X msg 37 378 start;
#X obj 37 411 s \$0-2-format;
#X msg 56 327 ticks 0;
#X obj 56 353 s \$0-2-format;
#X obj 37 97 t b b b b b b b b, f 103;
#X obj 652 153 text size \$1;
#X obj 652 174 sel 0;
#X obj 679 200 t b;
#X msg 679 221 1;
#X obj 679 247 v \$0-something-recD;
#X msg 652 221 0;
#X text 666 133 see if prev recorded;
#X msg 475 207 clear;
#X msg 594 519 bounce bang;
#X msg 76 268 start bang;
#X obj 76 299 s \$0-2-composer;
#X obj 594 546 s \$0-2-composer;
#X obj 625 491 s \$0-2-composer;
#X msg 625 460 stop bang;
#X obj 737 430 s \$0-2-player;
#X msg 737 408 stop;
#X text 579 275 if recording stop(this loads the phrase into the loop
player \, stops all the clocks and bounces the previous loop and phrase
into the text;
#X obj 88 179 s \$0-2-player;
#X msg 88 154 start-sync;
#X obj 37 129 t b b b b;
#X obj 564 368 t b b b b b, f 29;
#X text 210 320 resets the clock from 0;
#X msg 203 338 start-sync;
#X obj 229 239 * 360;
#X msg 229 264 length \$1;
#X obj 229 213 * 4;
#X msg 229 184 1000;
#X obj 475 240 s \$0-2-format;
#X obj 229 291 s \$0-2-format-clock;
#X text 246 167 format-clock inf time;
#X obj 203 361 s \$0-2-format-clock;
#X text 676 519 this adds whats in the format with whts currently loopinh
;
#X connect 0 0 23 0;
#X connect 2 0 4 0;
#X connect 3 0 17 0;
#X connect 4 1 3 0;
#X connect 7 0 8 0;
#X connect 10 0 9 0;
#X connect 11 0 12 0;
#X connect 12 0 13 0;
#X connect 14 0 15 0;
#X connect 15 0 44 0;
#X connect 17 0 7 0;
#X connect 17 1 1 0;
#X connect 17 2 18 0;
#X connect 18 0 16 0;
#X connect 19 0 20 0;
#X connect 21 0 22 0;
#X connect 23 0 43 0;
#X connect 23 1 46 0;
#X connect 23 2 50 0;
#X connect 23 5 31 0;
#X connect 23 6 14 0;
#X connect 23 7 24 0;
#X connect 24 0 25 0;
#X connect 25 0 29 0;
#X connect 25 1 26 0;
#X connect 26 0 27 0;
#X connect 27 0 28 0;
#X connect 29 0 28 0;
#X connect 31 0 51 0;
#X connect 32 0 35 0;
#X connect 33 0 34 0;
#X connect 37 0 36 0;
#X connect 39 0 38 0;
#X connect 42 0 41 0;
#X connect 43 0 19 0;
#X connect 43 1 21 0;
#X connect 43 2 33 0;
#X connect 43 3 42 0;
#X connect 44 1 32 0;
#X connect 44 2 37 0;
#X connect 44 3 10 0;
#X connect 44 4 39 0;
#X connect 46 0 54 0;
#X connect 47 0 48 0;
#X connect 48 0 52 0;
#X connect 49 0 47 0;
#X connect 50 0 49 0;
#X restore 52 189 pd track;
#N canvas 4 50 1025 300 play 0;
#X obj 37 37 inlet;
#X msg 513 119 stop;
#X msg 37 150 start-sync;
#X obj 254 132 s \$0-2-spigot;
#X msg 254 105 1;
#X obj 37 172 s \$0-2-player;
#X obj 513 196 s \$0-2-format;
#X obj 145 204 s \$0-2-textGet;
#X obj 145 159 text size \$1-big-save;
#X obj 145 180 - 1;
#X msg 363 169 bounce;
#X obj 363 199 s \$0-2-compose;
#X obj 37 75 t b b b b b, f 73;
#X connect 0 0 12 0;
#X connect 1 0 6 0;
#X connect 2 0 5 0;
#X connect 4 0 3 0;
#X connect 8 0 9 0;
#X connect 9 0 7 0;
#X connect 10 0 11 0;
#X connect 12 0 2 0;
#X connect 12 1 8 0;
#X connect 12 2 4 0;
#X connect 12 3 10 0;
#X connect 12 4 1 0;
#X restore 146 104 pd play;
#N canvas 262 522 450 300 stop 0;
#X obj 37 37 inlet;
#X obj 119 149 s \$0-2-format;
#X msg 119 126 stop;
#X obj 78 204 s \$0-2-composer;
#X msg 78 173 stop bang;
#X obj 160 123 s \$0-2-player;
#X msg 160 101 stop;
#X obj 37 81 t b b b b, f 21;
#X obj 37 262 s \$0-2-format-clock;
#X msg 36 232 stop;
#X connect 0 0 7 0;
#X connect 2 0 1 0;
#X connect 4 0 3 0;
#X connect 6 0 5 0;
#X connect 7 0 9 0;
#X connect 7 1 4 0;
#X connect 7 2 2 0;
#X connect 7 3 6 0;
#X connect 9 0 8 0;
#X restore 241 105 pd stop;
#X obj 416 190 s \$0-2-format;
#X msg 431 140 q-rate \$1;
#X msg 336 140 q-switch \$1;
#X obj 52 79 route track play stop q-switch q-rate notes knobs ticks
clear, f 138;
#X obj 791 110 t b;
#X msg 791 131 clear;
#X obj 791 152 s \$0-2-format;
#X connect 0 0 10 0;
#X connect 8 0 7 0;
#X connect 9 0 7 0;
#X connect 10 0 4 0;
#X connect 10 1 5 0;
#X connect 10 2 6 0;
#X connect 10 3 9 0;
#X connect 10 4 8 0;
#X connect 10 5 1 0;
#X connect 10 6 2 0;
#X connect 10 7 3 0;
#X connect 10 8 11 0;
#X connect 11 0 12 0;
#X connect 12 0 13 0;
#X restore 178 70 pd incoming-messages;
#X obj 177 108 r \$0-notes;
#X text 261 110 format notes;
#N canvas 617 107 714 720 play-the-sequence 0;
#X msg 528 114 loop 1;
#X msg 500 89 quantize-length 1;
#X obj 500 40 loadbang;
#X obj 109 443 cg-makenote-ticks;
#X msg 208 377 ticks \$1;
#X obj 268 204 r \$0-2-player;
#X obj 500 61 t b b;
#X obj 222 402 r \$0-2-makenote;
#X msg 580 113 loop 0;
#X obj 109 233 r \$0-ticks;
#X obj 500 152 s \$0-2-player;
#X obj 109 266 new-seq-player \$1-play-loop;
#X obj 279 146 text define \$1-play-loop;
#X obj 109 464 outlet;
#X obj 215 325 s \$1-looped;
#X obj 268 295 s \$1-leeng;
#X obj 208 356 r \$0-ticks;
#X obj 320 26 inlet;
#X obj 320 47 route look;
#X msg 320 99 click;
#X obj 320 68 t b;
#X connect 0 0 10 0;
#X connect 1 0 10 0;
#X connect 2 0 6 0;
#X connect 3 0 13 0;
#X connect 4 0 3 1;
#X connect 5 0 11 1;
#X connect 6 0 1 0;
#X connect 6 1 0 0;
#X connect 7 0 3 1;
#X connect 8 0 10 0;
#X connect 9 0 11 0;
#X connect 11 0 3 0;
#X connect 11 2 14 0;
#X connect 11 3 15 0;
#X connect 16 0 4 0;
#X connect 17 0 18 0;
#X connect 18 0 20 0;
#X connect 19 0 12 0;
#X connect 20 0 19 0;
#X restore 179 349 pd play-the-sequence;
#X obj 178 297 cg-composer \$1;
#X obj 178 228 r \$0-2-composer;
#X msg 212 322 look;
#X msg 211 264 look;
#X msg 272 165 look;
#X obj 177 144 list prepend notes;
#X obj 177 165 list trim;
#X connect 0 0 3 0;
#X connect 4 0 12 0;
#X connect 6 0 1 0;
#X connect 8 0 7 0;
#X connect 9 0 6 0;
#X connect 10 0 7 0;
#X connect 11 0 2 0;
#X connect 12 0 13 0;
#X connect 13 0 2 0;
