#N canvas 35 152 1357 828 10;
#X text 27 276 The Recorder;
#X text 638 187 Tracker;
#X text 1187 213 Master-Loop;
#X obj 57 23 inlet messages;
#N canvas 399 495 1517 300 incoming-messages 0;
#X obj 52 47 inlet;
#X obj 542 156 s \$0-notes;
#X obj 624 132 s \$0-knobs;
#X obj 713 105 s \$0-ticks;
#N canvas 4 50 1181 660 track 0;
#X obj 37 37 inlet;
#X obj 899 824 s \$0-2-textGet;
#X obj 853 689 text size \$1-big-save;
#X obj 880 736 - 1;
#X obj 853 710 sel 0;
#X text 909 738 read from 0 line;
#X text 817 672 if previous recording load to player and play;
#X msg 880 852 start-sync;
#X obj 880 874 s \$0-2-player;
#X obj 696 466 s \$0-2-format;
#X msg 696 433 stop;
#X obj 819 17 loadbang;
#X msg 819 38 0;
#X obj 819 59 v \$0-something-recD;
#X obj 564 325 v \$0-something-recD;
#X obj 564 346 sel 1;
#X obj 919 802 v \$0-something-recD;
#X obj 880 757 t b f b;
#X msg 919 779 1;
#X msg 37 378 start;
#X obj 37 411 s \$0-2-format;
#X obj 37 97 t b b b b b b b b, f 103;
#X obj 652 153 text size \$1;
#X obj 652 174 sel 0;
#X obj 679 200 t b;
#X msg 679 221 1;
#X obj 679 247 v \$0-something-recD;
#X msg 652 221 0;
#X text 666 133 see if prev recorded;
#X msg 475 207 clear;
#X msg 594 519 bounce bang;
#X msg 71 268 start bang;
#X obj 71 299 s \$0-2-composer;
#X obj 594 546 s \$0-2-composer;
#X obj 625 491 s \$0-2-composer;
#X msg 625 460 stop bang;
#X obj 737 430 s \$0-2-player;
#X msg 737 408 stop;
#X text 579 275 if recording stop(this loads the phrase into the loop
player \, stops all the clocks and bounces the previous loop and phrase
into the text;
#X obj 37 129 t b b b b;
#X obj 564 368 t b b b b b, f 29;
#X text 210 320 resets the clock from 0;
#X msg 203 338 start-sync;
#X obj 229 239 * 360;
#X msg 229 264 length \$1;
#X obj 229 213 * 4;
#X msg 229 184 1000;
#X obj 475 240 s \$0-2-format;
#X obj 229 291 s \$0-2-format-clock;
#X text 246 167 format-clock inf time;
#X obj 203 361 s \$0-2-format-clock;
#X text 676 519 this adds whats in the format with whts currently loopinh
;
#X obj 88 185 s \$0-start-track;
#X connect 0 0 21 0;
#X connect 2 0 4 0;
#X connect 3 0 17 0;
#X connect 4 1 3 0;
#X connect 7 0 8 0;
#X connect 10 0 9 0;
#X connect 11 0 12 0;
#X connect 12 0 13 0;
#X connect 14 0 15 0;
#X connect 15 0 40 0;
#X connect 17 0 7 0;
#X connect 17 1 1 0;
#X connect 17 2 18 0;
#X connect 18 0 16 0;
#X connect 19 0 20 0;
#X connect 21 0 39 0;
#X connect 21 1 42 0;
#X connect 21 2 46 0;
#X connect 21 5 29 0;
#X connect 21 6 14 0;
#X connect 21 7 22 0;
#X connect 22 0 23 0;
#X connect 23 0 27 0;
#X connect 23 1 24 0;
#X connect 24 0 25 0;
#X connect 25 0 26 0;
#X connect 27 0 26 0;
#X connect 29 0 47 0;
#X connect 30 0 33 0;
#X connect 31 0 32 0;
#X connect 35 0 34 0;
#X connect 37 0 36 0;
#X connect 39 0 19 0;
#X connect 39 2 31 0;
#X connect 39 3 52 0;
#X connect 40 1 30 0;
#X connect 40 2 35 0;
#X connect 40 3 10 0;
#X connect 40 4 37 0;
#X connect 42 0 50 0;
#X connect 43 0 44 0;
#X connect 44 0 48 0;
#X connect 45 0 43 0;
#X connect 46 0 45 0;
#X restore 52 189 pd track;
#N canvas 4 50 1025 300 play 0;
#X obj 37 37 inlet;
#X msg 37 150 start-sync;
#X obj 37 172 s \$0-2-player;
#X obj 37 75 t b f, f 18;
#X obj 175 171 s \$0-2-looper;
#X msg 175 150 load \$1;
#X connect 0 0 3 0;
#X connect 1 0 2 0;
#X connect 3 0 1 0;
#X connect 3 1 5 0;
#X connect 5 0 4 0;
#X restore 143 124 pd play;
#N canvas 197 405 450 346 stop 0;
#X obj 37 37 inlet;
#X obj 119 149 s \$0-2-format;
#X msg 119 126 stop;
#X obj 78 204 s \$0-2-composer;
#X msg 78 173 stop bang;
#X obj 160 123 s \$0-2-player;
#X msg 160 101 stop;
#X obj 37 81 t b b b b, f 21;
#X obj 37 262 s \$0-2-format-clock;
#X msg 36 232 stop;
#X connect 0 0 7 0;
#X connect 2 0 1 0;
#X connect 4 0 3 0;
#X connect 6 0 5 0;
#X connect 7 0 9 0;
#X connect 7 1 4 0;
#X connect 7 2 2 0;
#X connect 7 3 6 0;
#X connect 9 0 8 0;
#X restore 241 105 pd stop;
#X obj 416 190 s \$0-2-format;
#X msg 431 140 q-rate \$1;
#X msg 336 140 q-switch \$1;
#X obj 791 110 t b;
#X msg 791 131 clear;
#X obj 791 152 s \$0-2-format;
#X obj 51 79 route track play stop q-switch q-rate notes knobs ticks
clear p-rec-on p-rec-off, f 172;
#N canvas 4 54 1176 656 phrase-rec-on 0;
#X obj 164 48 inlet;
#X obj 899 824 s \$0-2-textGet;
#X obj 853 689 text size \$1-big-save;
#X obj 880 736 - 1;
#X obj 853 710 sel 0;
#X text 909 738 read from 0 line;
#X text 817 672 if previous recording load to player and play;
#X msg 880 852 start-sync;
#X obj 880 874 s \$0-2-player;
#X obj 919 802 v \$0-something-recD;
#X obj 880 757 t b f b;
#X msg 919 779 1;
#X msg 127 463 start;
#X obj 127 496 s \$0-2-format;
#X obj 530 447 * 360;
#X msg 530 472 length \$1;
#X obj 530 421 * 4;
#X msg 530 392 1000;
#X obj 530 499 s \$0-2-format-clock;
#X text 547 375 format-clock inf time;
#X obj 408 333 s \$0-2-format-clock;
#X msg 408 280 stop;
#X obj 703 198 s \$0-2-composer;
#X msg 703 171 stop;
#X msg 487 192 bounce \$1;
#X obj 487 229 s \$0-2-composer;
#X obj 163 81 t b b b b b b b, f 52;
#X obj 475 105 r \$1-current-loop;
#X obj 454 139 f -1;
#X obj 454 160 sel -1;
#X obj 227 316 s \$0-start-track;
#X connect 0 0 26 0;
#X connect 2 0 4 0;
#X connect 3 0 10 0;
#X connect 4 1 3 0;
#X connect 7 0 8 0;
#X connect 10 0 7 0;
#X connect 10 1 1 0;
#X connect 10 2 11 0;
#X connect 11 0 9 0;
#X connect 12 0 13 0;
#X connect 14 0 15 0;
#X connect 15 0 18 0;
#X connect 16 0 14 0;
#X connect 17 0 16 0;
#X connect 21 0 20 0;
#X connect 23 0 22 0;
#X connect 24 0 25 0;
#X connect 26 0 12 0;
#X connect 26 2 30 0;
#X connect 26 3 17 0;
#X connect 26 4 21 0;
#X connect 26 5 28 0;
#X connect 26 6 23 0;
#X connect 27 0 28 1;
#X connect 28 0 29 0;
#X connect 29 1 24 0;
#X restore 910 179 pd phrase-rec-on;
#N canvas 4 50 1911 998 phrase-rec-off 0;
#X obj 164 48 inlet;
#X obj 899 824 s \$0-2-textGet;
#X obj 853 689 text size \$1-big-save;
#X obj 880 736 - 1;
#X obj 853 710 sel 0;
#X text 909 738 read from 0 line;
#X text 817 672 if previous recording load to player and play;
#X msg 880 852 start-sync;
#X obj 880 874 s \$0-2-player;
#X obj 919 802 v \$0-something-recD;
#X obj 880 757 t b f b;
#X msg 919 779 1;
#X obj 181 212 s \$0-2-format;
#X obj 164 81 t b b b b;
#X obj 274 211 s \$0-2-format-clock;
#X msg 274 188 stop;
#X msg 181 179 stop;
#X obj 83 213 s \$0-2-composer;
#X msg 82 180 start;
#X connect 0 0 13 0;
#X connect 2 0 4 0;
#X connect 3 0 10 0;
#X connect 4 1 3 0;
#X connect 7 0 8 0;
#X connect 10 0 7 0;
#X connect 10 1 1 0;
#X connect 10 2 11 0;
#X connect 11 0 9 0;
#X connect 13 0 18 0;
#X connect 13 1 16 0;
#X connect 13 2 15 0;
#X connect 15 0 14 0;
#X connect 16 0 12 0;
#X connect 18 0 17 0;
#X restore 1007 135 pd phrase-rec-off;
#X connect 0 0 13 0;
#X connect 8 0 7 0;
#X connect 9 0 7 0;
#X connect 10 0 11 0;
#X connect 11 0 12 0;
#X connect 13 0 4 0;
#X connect 13 1 5 0;
#X connect 13 2 6 0;
#X connect 13 3 9 0;
#X connect 13 4 8 0;
#X connect 13 5 1 0;
#X connect 13 6 2 0;
#X connect 13 7 3 0;
#X connect 13 8 10 0;
#X connect 13 9 14 0;
#X connect 13 10 15 0;
#X restore 57 171 pd incoming-messages;
#X obj 47 296 r \$0-notes;
#X obj 47 472 list prepend notes;
#X obj 47 493 list trim;
#X obj 48 555 r \$0-2-format;
#X obj 48 650 cg-format-notes \$1;
#X obj 47 514 s \$0-2-format;
#X obj 940 736 outlet;
#N canvas 643 170 714 720 play-the-sequence 0;
#X msg 528 114 loop 1;
#X msg 500 89 quantize-length 1;
#X obj 500 40 loadbang;
#X obj 109 443 cg-makenote-ticks;
#X msg 208 377 ticks \$1;
#X obj 268 224 r \$0-2-player;
#X obj 500 61 t b b;
#X obj 222 402 r \$0-2-makenote;
#X msg 580 113 loop 0;
#X obj 109 233 r \$0-ticks;
#X obj 500 152 s \$0-2-player;
#X obj 109 266 new-seq-player \$1-play-loop;
#X obj 40 171 text define \$1-play-loop;
#X obj 109 464 outlet;
#X obj 215 325 s \$1-looped;
#X obj 268 295 s \$1-leeng;
#X obj 208 356 r \$0-ticks;
#X obj 40 21 inlet;
#X msg 40 94 click;
#X obj 40 63 t b;
#X obj 164 132 text fromlist \$1-play-loop;
#X obj 164 106 text get \$1-phrases;
#X msg 99 99 clear;
#X obj 40 42 route look load clear, f 42;
#X obj 164 75 t a a;
#X obj 234 72 s \$0-this-is-looping;
#X connect 0 0 10 0;
#X connect 1 0 10 0;
#X connect 2 0 6 0;
#X connect 3 0 13 0;
#X connect 4 0 3 1;
#X connect 5 0 11 1;
#X connect 6 0 1 0;
#X connect 6 1 0 0;
#X connect 7 0 3 1;
#X connect 8 0 10 0;
#X connect 9 0 11 0;
#X connect 11 0 3 0;
#X connect 11 2 14 0;
#X connect 11 3 15 0;
#X connect 16 0 4 0;
#X connect 17 0 23 0;
#X connect 18 0 12 0;
#X connect 19 0 18 0;
#X connect 21 0 20 0;
#X connect 22 0 12 0;
#X connect 23 0 19 0;
#X connect 23 1 24 0;
#X connect 23 2 22 0;
#X connect 24 0 21 0;
#X connect 24 1 25 0;
#X restore 1166 358 pd play-the-sequence;
#X msg 1192 318 look;
#X msg 69 588 look-buff;
#X msg 83 613 look-list;
#X obj 1166 267 r \$0-2-looper;
#X msg 134 69 stop;
#X obj 638 383 cg-composer \$1;
#X obj 638 244 r \$0-2-composer;
#X msg 671 280 look;
#X text 710 83 so one challenge is where the phrases start. we have
the phrase 0-length(x) but what about its start point relative to the
prior loop?;
#X obj 740 242 r \$1-looped;
#X msg 740 286 current-tick \$1;
#X msg 584 244 stop;
#X msg 1239 324 clear;
#X msg 995 347 bounce \$1;
#X obj 968 401 s \$0-2-composer;
#X msg 968 372 stitch \$1;
#X obj 968 323 t f f;
#X msg 968 295 18;
#X msg 542 245 start;
#X obj 47 317 t a a;
#X obj 74 340 spigot 0;
#X obj 74 361 stripnote;
#X msg 152 367 0;
#X obj 119 239 r \$0-start-track;
#X msg 119 260 1;
#X text 790 598 start recording;
#X obj 74 382 t b b;
#X obj 346 620 s \$0-start-track;
#X obj 346 592 bng 15 250 50 0 empty empty empty 17 7 0 10 -262144
-1 -1;
#X obj 511 726 s \$0-2-format;
#X obj 552 693 s \$0-2-format-clock;
#X msg 552 670 stop;
#X msg 511 693 stop;
#X obj 501 593 bng 15 250 50 0 empty empty empty 17 7 0 10 -262144
-1 -1;
#N canvas 4 50 1025 300 play 0;
#X obj 37 37 inlet;
#X msg 37 150 start-sync;
#X obj 37 172 s \$0-2-player;
#X obj 37 75 t b f, f 18;
#X obj 175 171 s \$0-2-looper;
#X msg 175 150 load \$1;
#X connect 0 0 3 0;
#X connect 1 0 2 0;
#X connect 3 0 1 0;
#X connect 3 1 5 0;
#X connect 5 0 4 0;
#X restore 686 717 pd play;
#X floatatom 686 694 5 0 0 0 - - -;
#X obj 746 717 s \$0-2-player;
#X msg 746 695 stop;
#X obj 178 509 s \$0-2-format;
#X obj 178 469 r \$0-ticks;
#X msg 178 490 ticks \$1;
#X msg 74 403 start;
#X text 1025 563 relative start;
#X text 421 415 store the relative start time;
#X msg 48 681 rel-start;
#X obj 48 702 s \$0-2-composer;
#X obj 459 752 s \$0-2-composer;
#X msg 459 731 stop;
#X obj 501 638 t b b b, f 9;
#X msg 454 206 load-it yo-play-loop;
#X msg 621 538 start-sync;
#X obj 621 560 s \$0-2-player;
#X msg 749 349 current-play \$1;
#X obj 750 316 r \$0-this-is-looping;
#X text 230 97 stitch phrase x for length x start x --into-- phrase
x \, length x \, start x;
#X msg 372 305 stitch 7 4 0 8 2 1;
#X msg 940 619 start;
#X obj 940 688 mono-looper;
#X obj 985 619 r \$0-ticks;
#X msg 985 640 ticks \$1;
#X obj 897 528 r \$0-notes;
#X obj 898 549 list prepend notes;
#X obj 898 570 list trim;
#X msg 1089 705 stop;
#X msg 1062 671 view;
#X connect 3 0 4 0;
#X connect 5 0 32 0;
#X connect 6 0 7 0;
#X connect 7 0 10 0;
#X connect 8 0 9 0;
#X connect 9 0 57 0;
#X connect 13 0 12 0;
#X connect 14 0 9 0;
#X connect 15 0 9 0;
#X connect 16 0 12 0;
#X connect 17 0 4 0;
#X connect 19 0 18 0;
#X connect 20 0 18 0;
#X connect 22 0 23 0;
#X connect 23 0 18 0;
#X connect 24 0 18 0;
#X connect 25 0 12 0;
#X connect 26 0 27 0;
#X connect 28 0 27 0;
#X connect 29 0 28 0;
#X connect 29 1 26 0;
#X connect 30 0 29 0;
#X connect 31 0 18 0;
#X connect 32 0 6 0;
#X connect 32 1 33 0;
#X connect 33 0 34 0;
#X connect 34 0 39 0;
#X connect 35 0 33 1;
#X connect 36 0 37 0;
#X connect 37 0 33 1;
#X connect 39 0 54 0;
#X connect 39 1 35 0;
#X connect 41 0 40 0;
#X connect 44 0 43 0;
#X connect 45 0 42 0;
#X connect 46 0 61 0;
#X connect 48 0 47 0;
#X connect 50 0 49 0;
#X connect 52 0 53 0;
#X connect 53 0 51 0;
#X connect 54 0 9 0;
#X connect 57 0 58 0;
#X connect 60 0 59 0;
#X connect 61 0 60 0;
#X connect 61 1 45 0;
#X connect 61 2 44 0;
#X connect 62 0 18 0;
#X connect 63 0 64 0;
#X connect 65 0 18 0;
#X connect 66 0 65 0;
#X connect 68 0 18 0;
#X connect 69 0 70 0;
#X connect 70 0 11 0;
#X connect 71 0 72 0;
#X connect 72 0 70 0;
#X connect 73 0 74 0;
#X connect 74 0 75 0;
#X connect 75 0 70 0;
#X connect 76 0 70 0;
#X connect 77 0 70 0;
