#N canvas 445 51 1309 820 10;
#X msg 1017 440 loop 1;
#X obj 107 403 clocker;
#X msg 174 532 look;
#X msg 107 444 ticks \$1;
#X obj 52 19 inlet notes;
#X obj 281 49 inlet control;
#X obj 899 19 inlet Beat-CLock-Ticks;
#X obj 899 40 s \$0-beat-clock;
#X obj 859 733 outlet;
#X msg 987 415 quantize-length 1;
#X obj 987 366 loadbang;
#X msg 682 109 quan-rate \$1;
#X msg 785 107 quan-switch \$1;
#X obj 859 685 cg-makenote-ticks;
#X msg 958 619 ticks \$1;
#X obj 281 82 route rec play stop clear quan-rate quan-switch big-clear
, f 120;
#X obj 914 190 s \$0-big-clear;
#X obj 887 155 t b b;
#X obj 276 512 r \$0-big-clear;
#X msg 276 533 big-clear;
#X obj 358 616 r \$0-looped;
#X obj 961 567 s \$0-looped;
#X obj 893 406 r \$0-2-player;
#X obj 987 387 t b b;
#X obj 972 644 r \$0-2-makenote;
#X obj 157 473 r \$0-2-format;
#X msg 580 168 reset;
#X obj 580 194 s \$0-2-format;
#X obj 682 160 s \$0-2-format;
#X obj 52 574 cg-format-notes \$1;
#X obj 193 687 text get \$1-big-save;
#X obj 193 716 text fromlist \$1-new-text;
#X obj 469 714 text define \$1-new-text;
#X obj 859 508 new-seq-player \$1-new-text;
#X obj 193 621 r \$0-2-textGet;
#X obj 107 347 r \$0-beat-clock;
#X obj 859 475 r \$0-beat-clock;
#X obj 958 598 r \$0-beat-clock;
#X obj 133 369 r \$0-2-clock;
#X obj 703 776 cg-composer \$1;
#X floatatom 215 659 5 0 0 0 - - -;
#X msg 1039 470 loop 0;
#X floatatom 152 640 5 0 0 0 - - -;
#X msg 756 744 current \$1;
#X obj 756 722 r \$0-2-textGet;
#X msg 703 744 loop \$1;
#X obj 703 647 r \$0-loop-reset;
#X msg 637 712 click;
#N canvas 774 93 950 628 rec 0;
#X obj 114 45 inlet;
#X obj 299 419 * 360;
#X msg 299 444 length \$1;
#X msg 461 150 stop;
#X obj 299 393 * 4;
#X obj 114 358 s \$0-2-clock;
#X obj 299 469 s \$0-2-clock;
#X msg 299 364 1000;
#X msg 367 231 reset;
#X msg 114 326 start;
#X msg 192 300 ticks 0;
#X obj 461 175 s \$0-2-clock;
#X obj 426 218 s \$0-2-player;
#X msg 426 196 stop;
#X obj 192 326 s \$0-2-format;
#X obj 367 268 s \$0-2-format;
#X obj 531 150 s \$0-loop-reset;
#X obj 668 305 text get \$1-big-save;
#X msg 668 271 0;
#X obj 668 326 route bang;
#X obj 725 350 t b;
#X obj 725 404 v \$0-something-recD;
#X obj 319 301 v \$0-something-recD;
#X msg 725 371 1;
#X obj 755 38 loadbang;
#X msg 755 59 0;
#X obj 755 80 v \$0-something-recD;
#X obj 319 322 sel 0 1;
#X obj 350 377 text get \$1-new-text;
#X msg 354 349 0;
#X obj 350 398 list split 2;
#X obj 118 103 t b b b b b b b b b, f 92;
#X obj 673 141 v \$0-something-recD;
#X obj 673 162 sel 1;
#X obj 655 214 s \$0-playAndRecord;
#X connect 0 0 31 0;
#X connect 1 0 2 0;
#X connect 2 0 6 0;
#X connect 3 0 11 0;
#X connect 4 0 1 0;
#X connect 7 0 4 0;
#X connect 8 0 15 0;
#X connect 9 0 5 0;
#X connect 10 0 14 0;
#X connect 13 0 12 0;
#X connect 17 0 19 0;
#X connect 18 0 17 0;
#X connect 19 1 20 0;
#X connect 20 0 23 0;
#X connect 22 0 27 0;
#X connect 23 0 21 0;
#X connect 24 0 25 0;
#X connect 25 0 26 0;
#X connect 27 0 7 0;
#X connect 27 1 29 0;
#X connect 28 0 30 0;
#X connect 29 0 28 0;
#X connect 30 1 2 0;
#X connect 31 0 9 0;
#X connect 31 1 10 0;
#X connect 31 2 22 0;
#X connect 31 3 8 0;
#X connect 31 4 13 0;
#X connect 31 5 3 0;
#X connect 31 6 16 0;
#X connect 31 7 18 0;
#X connect 31 8 32 0;
#X connect 32 0 33 0;
#X connect 33 0 34 0;
#X restore 194 162 pd rec;
#N canvas 4 50 742 443 play 0;
#X obj 47 19 inlet;
#X msg 470 93 stop;
#X msg 47 124 start-sync;
#X obj 189 106 s \$0-2-spigot;
#X msg 189 79 1;
#X obj 47 146 s \$0-2-player;
#X obj 470 170 s \$0-2-format;
#X obj 155 178 s \$0-2-textGet;
#X obj 155 133 text size \$1-big-save;
#X obj 155 154 - 1;
#X msg 320 143 bounce;
#X obj 320 173 s \$0-2-compose;
#X obj 47 49 t b b b b b, f 73;
#X obj 105 8 r \$0-playAndRecord;
#X connect 0 0 12 0;
#X connect 1 0 6 0;
#X connect 2 0 5 0;
#X connect 4 0 3 0;
#X connect 8 0 9 0;
#X connect 9 0 7 0;
#X connect 10 0 11 0;
#X connect 12 0 2 0;
#X connect 12 1 8 0;
#X connect 12 2 4 0;
#X connect 12 3 10 0;
#X connect 12 4 1 0;
#X connect 13 0 12 0;
#X restore 383 176 pd play;
#N canvas 4 50 450 300 stop 0;
#X obj 64 12 inlet;
#X msg 271 90 stop;
#X obj 271 115 s \$0-2-clock;
#X msg 196 108 0;
#X obj 196 136 s \$0-2-spigot;
#X msg 121 136 stop;
#X obj 351 115 s \$0-2-player;
#X msg 351 93 stop;
#X obj 121 157 s \$0-2-makenote;
#X obj 51 63 t b b b b b, f 50;
#X msg 39 174 stop;
#X obj 39 196 s \$0-2-format;
#X connect 0 0 9 0;
#X connect 1 0 2 0;
#X connect 3 0 4 0;
#X connect 5 0 8 0;
#X connect 7 0 6 0;
#X connect 9 0 10 0;
#X connect 9 1 5 0;
#X connect 9 2 3 0;
#X connect 9 3 1 0;
#X connect 9 4 7 0;
#X connect 10 0 11 0;
#X restore 547 268 pd stop;
#X obj 281 118 bng 15 250 50 0 empty empty empty 17 7 0 10 -262144
-1 -1;
#X obj 405 542 cg-seq4-insert;
#N canvas 162 131 918 536 trace 0;
#X obj 79 9 inlet;
#X obj 371 359 s \$0-beat-clock;
#X text 374 310 resets the clock from 0;
#X obj 562 405 s \$0-2-textGet;
#X obj 516 270 text size \$1-big-save;
#X obj 543 317 - 1;
#X obj 516 291 sel 0;
#X text 572 319 read from 0 line;
#X text 480 253 if previous recording load to player and play;
#X msg 371 336 start-sync;
#X msg 543 433 start-sync;
#X obj 543 455 s \$0-2-player;
#X obj 604 197 s \$0-2-format;
#X msg 604 168 stop;
#X obj 715 6 loadbang;
#X msg 715 27 0;
#X obj 715 48 v \$0-something-recD;
#X obj 604 122 v \$0-something-recD;
#X obj 604 143 sel 1;
#X obj 582 383 v \$0-something-recD;
#X obj 543 338 t b f b;
#X msg 582 360 1;
#X obj 429 162 * 360;
#X msg 429 187 length \$1;
#X obj 429 136 * 4;
#X obj 429 212 s \$0-2-clock;
#X msg 429 107 1000;
#X msg 79 346 start;
#X obj 79 379 s \$0-2-format;
#X obj 264 215 s \$0-2-format;
#X msg 264 182 reset;
#X msg 98 275 ticks 0;
#X obj 98 301 s \$0-2-format;
#X obj 693 94 s \$0-loop-reset;
#X obj 79 97 t b b b;
#X obj 166 176 s \$0-bounce-it;
#X obj 79 65 t b b b b b b b b, f 103;
#X connect 0 0 36 0;
#X connect 4 0 6 0;
#X connect 5 0 20 0;
#X connect 6 1 5 0;
#X connect 9 0 1 0;
#X connect 10 0 11 0;
#X connect 13 0 12 0;
#X connect 14 0 15 0;
#X connect 15 0 16 0;
#X connect 17 0 18 0;
#X connect 18 0 13 0;
#X connect 20 0 10 0;
#X connect 20 1 3 0;
#X connect 20 2 21 0;
#X connect 21 0 19 0;
#X connect 22 0 23 0;
#X connect 23 0 25 0;
#X connect 24 0 22 0;
#X connect 26 0 24 0;
#X connect 27 0 28 0;
#X connect 30 0 29 0;
#X connect 31 0 32 0;
#X connect 34 0 27 0;
#X connect 34 1 31 0;
#X connect 36 0 34 0;
#X connect 36 1 35 0;
#X connect 36 2 30 0;
#X connect 36 3 9 0;
#X connect 36 4 26 0;
#X connect 36 5 4 0;
#X connect 36 6 17 0;
#X connect 36 7 33 0;
#X restore 299 307 pd trace;
#X floatatom 63 445 5 0 0 0 - - -;
#X obj 548 197 bng 15 250 50 0 empty empty empty 17 7 0 10 -262144
-1 -1;
#X msg 209 533 reset;
#X obj 194 143 bng 15 250 50 0 empty empty empty 17 7 0 10 -262144
-1 -1;
#X obj 299 273 bng 15 250 50 0 empty empty empty 17 7 0 10 -262144
-1 -1;
#X obj 426 138 bng 15 250 50 0 empty empty empty 17 7 0 10 -262144
-1 -1;
#X obj 1012 537 s \$0-leeng;
#X obj 521 340 t b b;
#X obj 518 292 bng 15 250 50 0 empty empty empty 17 7 0 10 -262144
-1 -1;
#N canvas 4 50 1133 798 round-length 0;
#X obj 306 149 r \$0-looped;
#X obj 321 175 r \$0-leeng;
#X obj 306 232 t f f;
#X obj 333 256 sel 0;
#X obj 333 277 f, f 19;
#X obj 461 278 + 1;
#X obj 306 333 +, f 33;
#X msg 482 172 0;
#X obj 306 200 /;
#X obj 306 427 * 1800;
#X obj 306 450 / 360;
#X obj 306 471 i;
#X text 333 471 round to nearest beat;
#X obj 378 358 r \$0-leeng;
#X obj 482 86 inlet;
#X obj 331 642 outlet;
#X obj 306 492 * 360;
#X obj 306 513 / 1800;
#X obj 378 379 t a a;
#X obj 482 208 t f f f, f 13;
#X obj 333 559 > 0, f 39;
#X obj 482 107 t b b;
#X obj 306 534 t f f;
#X obj 306 587 list prepend;
#X obj 306 609 route 0 1;
#X connect 0 0 8 0;
#X connect 1 0 8 1;
#X connect 2 0 6 0;
#X connect 2 1 3 0;
#X connect 3 0 4 0;
#X connect 4 0 5 0;
#X connect 4 0 6 1;
#X connect 5 0 4 1;
#X connect 6 0 9 0;
#X connect 7 0 19 0;
#X connect 8 0 2 0;
#X connect 9 0 10 0;
#X connect 10 0 11 0;
#X connect 11 0 16 0;
#X connect 13 0 18 0;
#X connect 14 0 21 0;
#X connect 16 0 17 0;
#X connect 17 0 22 0;
#X connect 18 0 9 1;
#X connect 18 1 17 1;
#X connect 19 0 4 1;
#X connect 19 1 6 1;
#X connect 19 2 20 1;
#X connect 20 0 23 1;
#X connect 21 0 7 0;
#X connect 22 0 23 0;
#X connect 22 1 20 0;
#X connect 23 0 24 0;
#X connect 24 1 15 0;
#X restore 703 679 pd round-length;
#X obj 625 592 r \$0-bounce-it;
#X msg 625 613 bounce bang;
#X obj 625 447 r \$0-leeng;
#X floatatom 625 468 5 0 0 0 - - -;
#X connect 0 0 33 1;
#X connect 1 0 3 0;
#X connect 1 0 54 0;
#X connect 2 0 29 1;
#X connect 3 0 29 1;
#X connect 4 0 29 0;
#X connect 5 0 15 0;
#X connect 6 0 7 0;
#X connect 9 0 33 1;
#X connect 10 0 23 0;
#X connect 11 0 28 0;
#X connect 12 0 28 0;
#X connect 13 0 8 0;
#X connect 14 0 13 1;
#X connect 15 0 51 0;
#X connect 15 1 49 0;
#X connect 15 2 50 0;
#X connect 15 3 26 0;
#X connect 15 4 11 0;
#X connect 15 5 12 0;
#X connect 15 6 17 0;
#X connect 17 0 50 0;
#X connect 17 1 16 0;
#X connect 18 0 19 0;
#X connect 19 0 29 1;
#X connect 22 0 33 1;
#X connect 23 0 9 0;
#X connect 23 1 0 0;
#X connect 24 0 13 1;
#X connect 25 0 29 1;
#X connect 26 0 27 0;
#X connect 30 0 31 0;
#X connect 33 0 13 0;
#X connect 33 2 21 0;
#X connect 33 3 60 0;
#X connect 34 0 30 0;
#X connect 34 0 40 0;
#X connect 35 0 1 0;
#X connect 36 0 33 0;
#X connect 37 0 14 0;
#X connect 38 0 1 0;
#X connect 41 0 33 1;
#X connect 42 0 30 0;
#X connect 43 0 39 0;
#X connect 44 0 43 0;
#X connect 45 0 39 0;
#X connect 46 0 63 0;
#X connect 47 0 39 0;
#X connect 55 0 50 0;
#X connect 56 0 29 1;
#X connect 57 0 48 0;
#X connect 58 0 53 0;
#X connect 59 0 49 0;
#X connect 61 0 49 0;
#X connect 62 0 61 0;
#X connect 63 0 45 0;
#X connect 64 0 65 0;
#X connect 65 0 39 0;
#X connect 66 0 67 0;
