#N canvas 4 50 450 775 10;
#X obj 36 23 inlet bang delay;
#X obj 252 16 inlet del-time;
#X obj 166 82 r beat-clock;
#X obj 136 273 t b;
#X obj 136 324 f;
#X obj 167 324 + 1;
#X obj 136 243 spigot 0;
#X msg 170 291 0;
#X obj 36 74 t b b;
#X msg 36 99 1;
#X obj 136 375 t b b;
#X msg 309 269 0;
#X obj 136 396 outlet;
#X obj 136 345 sel \$1, f 13;
#X obj 252 37 i;
#X obj 36 44 route bang stop, f 25;
#X msg 109 76 0;
#X connect 0 0 15 0;
#X connect 1 0 14 0;
#X connect 2 0 6 0;
#X connect 3 0 4 0;
#X connect 4 0 5 0;
#X connect 4 0 13 0;
#X connect 5 0 4 1;
#X connect 6 0 3 0;
#X connect 7 0 4 1;
#X connect 8 0 9 0;
#X connect 8 1 7 0;
#X connect 9 0 6 1;
#X connect 10 0 12 0;
#X connect 10 1 11 0;
#X connect 11 0 6 1;
#X connect 13 0 10 0;
#X connect 14 0 13 1;
#X connect 15 0 8 0;
#X connect 15 1 16 0;
#X connect 16 0 6 1;
