#N canvas 497 331 664 575 10;
#X obj 54 6 inlet;
#X obj 156 76 r \$0ticks;
#X obj 238 68 unpack 0 0 0;
#X obj 155 193 sel, f 24;
#X obj 155 314 f, f 13;
#X obj 155 335 pack 0 0;
#X obj 327 70 list split 2;
#X obj 275 439 outlet;
#X obj 155 214 t b b;
#X msg 182 239 0;
#X obj 423 133 f;
#X obj 423 154 sel 1;
#X obj 54 25 t b b a a b, f 62;
#X obj 514 145 spigot 0;
#X obj 514 30 route ticks stop;
#X obj 514 203 s \$0ticks;
#X obj 560 84 s \$0kill;
#X obj 560 57 t b;
#X obj 448 68 r \$0kill;
#X obj 514 9 inlet meessages;
#X obj 155 173 i;
#X obj 559 125 r \$0-on;
#X obj 438 107 r \$0-on;
#X obj 182 261 s \$0-on;
#X obj 423 175 t b;
#X msg 54 69 1;
#X obj 54 91 s \$0-on;
#X obj 427 298 r \$0-on;
#X obj 427 319 outlet;
#X connect 0 0 12 0;
#X connect 1 0 20 0;
#X connect 2 0 4 1;
#X connect 2 2 3 1;
#X connect 3 0 8 0;
#X connect 4 0 5 0;
#X connect 5 0 7 0;
#X connect 6 0 7 0;
#X connect 8 0 4 0;
#X connect 8 1 9 0;
#X connect 9 0 23 0;
#X connect 10 0 11 0;
#X connect 11 0 24 0;
#X connect 12 0 25 0;
#X connect 12 2 2 0;
#X connect 12 3 6 0;
#X connect 12 4 10 0;
#X connect 13 0 15 0;
#X connect 14 0 13 0;
#X connect 14 1 17 0;
#X connect 17 0 16 0;
#X connect 18 0 10 0;
#X connect 19 0 14 0;
#X connect 20 0 3 0;
#X connect 21 0 13 1;
#X connect 22 0 10 1;
#X connect 24 0 4 0;
#X connect 25 0 26 0;
#X connect 27 0 28 0;
