#N canvas 253 122 869 542 10;
#X obj 156 49 inlet;
#X obj 179 372 s oscOut;
#X msg 96 223 /oled/gFlip 3;
#X obj 156 182 t b a b;
#X obj 202 208 f \$1;
#X msg 156 71 \$1%;
#X obj 396 49 inlet;
#X obj 419 372 s oscOut;
#X msg 336 223 /oled/gFlip 3, f 11;
#X obj 396 182 t b a b;
#X obj 442 208 f \$1;
#X msg 396 71 \$1%;
#X obj 636 49 inlet;
#X obj 659 372 s oscOut;
#X msg 576 223 /oled/gFlip 3, f 11;
#X obj 636 182 t b a b;
#X obj 682 208 f \$1;
#X msg 636 71 \$1%;
#X msg 202 236 /oled/gFillArea 3 0 \$1 42 8 0, f 17;
#X msg 442 236 /oled/gFillArea 3 43 \$1 42 8 0, f 17;
#X msg 682 236 /oled/gFillArea 3 86 \$1 42 8 0, f 17;
#X msg 419 332 /oled/gPrintln 3 43 \$1 8 1 \$2 \$3, f 16;
#X msg 659 332 /oled/gPrintln 3 86 \$1 8 1 \$2 \$3, f 16;
#X msg 179 332 /oled/gPrintln 3 0 \$1 8 1 \$2 \$3, f 16;
#X obj 179 279 list prepend \$1 \$2;
#X obj 419 279 list prepend \$1 \$3;
#X obj 659 279 list prepend \$1 \$4;
#X connect 0 0 5 0;
#X connect 2 0 1 0;
#X connect 3 0 2 0;
#X connect 3 1 24 0;
#X connect 3 2 4 0;
#X connect 4 0 18 0;
#X connect 5 0 3 0;
#X connect 6 0 11 0;
#X connect 8 0 7 0;
#X connect 9 0 8 0;
#X connect 9 1 25 0;
#X connect 9 2 10 0;
#X connect 10 0 19 0;
#X connect 11 0 9 0;
#X connect 12 0 17 0;
#X connect 14 0 13 0;
#X connect 15 0 14 0;
#X connect 15 1 26 0;
#X connect 15 2 16 0;
#X connect 16 0 20 0;
#X connect 17 0 15 0;
#X connect 18 0 1 0;
#X connect 19 0 7 0;
#X connect 20 0 13 0;
#X connect 21 0 7 0;
#X connect 22 0 13 0;
#X connect 23 0 1 0;
#X connect 24 0 23 0;
#X connect 25 0 21 0;
#X connect 26 0 22 0;
