#N canvas 76 52 1810 885 10;
#X obj 243 818 throw~ outL;
#X obj 346 823 throw~ outR;
#X obj 90 638 pack 0 0 0, f 11;
#X obj 90 664 route 1 2 3 4 5 6 7 8, f 81;
#X obj 1638 97 r knob4;
#X obj 1637 168 i;
#X obj 1637 244 s screenLine4;
#X msg 1637 217 4: Decay Time \$1 ms;
#X obj 1638 124 * 2000;
#X obj 1637 191 change -1;
#X obj 1353 281 send~ f;
#X obj 1353 216 sig~;
#X obj 1352 247 lop~ 5;
#X obj 1353 145 / 100;
#X obj 1353 167 mtof;
#X obj 1353 189 / 8.1785;
#X obj 1353 118 * 2400;
#X obj 1416 446 loadbang;
#X obj 1228 221 change -1;
#X obj 1228 195 i;
#X obj 113 533 pack 0 100;
#X obj 90 611 poly 8 1, f 11;
#X obj 1638 146 + 10;
#N canvas 4 50 450 278 (subpatch) 0;
#X array seq 33 float 3;
#A 0 64 71 75 77 72 67 66 70 67 63 70 60 60 64 64 60 60 65 64 65 60
67 76 67 64 71 65 76 72 72 62 71 22;
#X coords 0 128 33 0 200 140 1 0 0;
#X restore 756 127 graph;
#X floatatom 279 401 5 0 0 0 - - -, f 5;
#X obj 647 178 r notes;
#X obj 253 124 r notes;
#X obj 563 223 tgl 15 0 empty empty empty 17 7 0 10 -262144 -1 -1 0
1;
#X msg 612 291 0;
#N canvas 369 50 1096 921 seqplayer 0;
#X floatatom 130 231 5 0 0 0 - - -, f 5;
#X obj 367 686 tabread seq;
#X floatatom 367 708 5 0 0 0 - - -, f 5;
#X floatatom 367 668 5 0 0 0 - - -, f 5;
#X obj 165 768 delay;
#X obj 180 442 tgl 15 0 empty empty empty 17 7 0 10 -262144 -1 -1 1
1;
#X msg 179 393 1;
#X obj 220 445 bng 15 250 50 0 empty empty empty 17 7 0 10 -262144
-1 -1;
#X obj 283 584 ==;
#X obj 252 520 t b f;
#X obj 185 724 spigot 0;
#X obj 137 -9 stripnote;
#X obj 130 191 spigot;
#X obj 39 128 tgl 15 0 empty empty empty 17 7 0 10 -262144 -1 -1 1
1;
#X obj 236 488 counter-up 16;
#X obj 283 562 == 15;
#X obj 406 731 + 60;
#X obj 414 785 pack 0 100;
#X obj 141 -63 inlet;
#X obj 39 73 inlet;
#X obj 341 74 inlet;
#X obj 365 418 - 1;
#X obj 414 820 outlet;
#X obj 680 73 inlet;
#X text 36 39 enable;
#X text 141 -85 note;
#X text 328 47 length;
#X text 689 41 speed;
#X obj 255 15 unpack;
#X obj 299 181 tgl 15 0 empty empty empty 17 7 0 10 -262144 -1 -1 0
1;
#X obj 299 214 ==;
#X obj 294 626 spigot 1;
#X obj 680 252 moses 10;
#X obj 287 712 tgl 15 0 empty empty empty 17 7 0 10 -262144 -1 -1 0
1;
#X obj 287 767 s is-playing;
#N canvas 1230 515 450 297 switch 0;
#X obj 145 49 inlet;
#X obj 147 184 outlet;
#X obj 266 178 outlet;
#X obj 320 50 inlet;
#X obj 281 84 ==;
#X obj 150 128 spigot 1;
#X obj 258 124 spigot 0;
#X obj 230 49 inlet;
#X connect 0 0 5 0;
#X connect 3 0 4 0;
#X connect 3 0 6 1;
#X connect 4 0 5 1;
#X connect 5 0 1 0;
#X connect 6 0 2 0;
#X connect 7 0 6 0;
#X restore 149 289 pd switch;
#X obj 192 231 r is-playing;
#N canvas 232 119 450 297 switch 0;
#X obj 145 49 inlet;
#X obj 147 184 outlet;
#X obj 266 178 outlet;
#X obj 320 50 inlet;
#X obj 249 81 ==;
#X obj 150 128 spigot 1;
#X obj 258 124 spigot 0;
#X connect 0 0 5 0;
#X connect 0 0 6 0;
#X connect 3 0 4 0;
#X connect 3 0 6 1;
#X connect 4 0 5 1;
#X connect 5 0 1 0;
#X connect 6 0 2 0;
#X restore 67 553 pd switch;
#X obj 164 359 t b b b f b;
#X obj 224 309 t f b;
#X msg 120 511 0;
#X msg 157 513 1;
#X obj 204 335 f;
#X obj 242 273 tgl 15 0 empty empty empty 17 7 0 10 -262144 -1 -1 0
1;
#X obj 143 257 t a a;
#X obj 204 134 f;
#X obj 274 78 sel 0;
#X obj 303 100 bang;
#X msg 304 123 1;
#X obj 143 -40 t a a;
#X obj 260 44 swap;
#X obj 259 128 f;
#X obj 229 105 t b b;
#X obj 227 158 ==;
#X obj 225 182 sel 1;
#X msg 225 204 0;
#X obj 436 755 - 60;
#X connect 0 0 44 0;
#X connect 1 0 2 0;
#X connect 2 0 16 0;
#X connect 3 0 1 0;
#X connect 4 0 37 0;
#X connect 5 0 10 1;
#X connect 5 0 33 0;
#X connect 6 0 5 0;
#X connect 7 0 14 0;
#X connect 8 0 31 0;
#X connect 9 0 10 0;
#X connect 9 1 3 0;
#X connect 9 1 15 0;
#X connect 10 0 4 0;
#X connect 11 0 12 0;
#X connect 11 0 45 1;
#X connect 12 0 0 0;
#X connect 13 0 12 1;
#X connect 14 0 9 0;
#X connect 15 0 8 0;
#X connect 16 0 56 0;
#X connect 17 0 22 0;
#X connect 18 0 49 0;
#X connect 19 0 13 0;
#X connect 20 0 14 2;
#X connect 20 0 21 0;
#X connect 21 0 15 1;
#X connect 23 0 32 0;
#X connect 28 0 50 0;
#X connect 28 1 50 1;
#X connect 29 0 30 0;
#X connect 30 0 31 1;
#X connect 31 0 10 1;
#X connect 31 0 33 0;
#X connect 32 1 4 1;
#X connect 33 0 34 0;
#X connect 35 0 38 0;
#X connect 35 1 39 0;
#X connect 36 0 35 2;
#X connect 36 0 43 0;
#X connect 37 0 7 0;
#X connect 37 1 42 0;
#X connect 38 0 7 0;
#X connect 38 1 6 0;
#X connect 38 2 14 1;
#X connect 38 3 16 1;
#X connect 38 4 40 0;
#X connect 39 0 42 1;
#X connect 39 1 41 0;
#X connect 40 0 37 1;
#X connect 41 0 37 1;
#X connect 42 0 38 0;
#X connect 44 0 35 0;
#X connect 44 1 35 1;
#X connect 45 0 53 0;
#X connect 46 0 52 0;
#X connect 46 1 47 0;
#X connect 47 0 48 0;
#X connect 48 0 29 0;
#X connect 49 0 11 0;
#X connect 49 1 28 0;
#X connect 50 0 46 0;
#X connect 50 1 51 1;
#X connect 51 0 53 1;
#X connect 52 0 45 0;
#X connect 52 1 51 0;
#X connect 53 0 54 0;
#X connect 54 0 55 0;
#X connect 55 0 29 0;
#X connect 56 0 17 0;
#X restore 117 427 pd seqplayer;
#X obj 116 218 tgl 15 0 empty empty empty 17 7 0 10 -262144 -1 -1 1
1;
#N canvas 46 161 1208 666 states 0;
#X obj 224 239 f;
#X obj 224 186 sel 1;
#X obj 131 97 r aux;
#X floatatom 131 211 5 0 0 0 - - -, f 5;
#X obj 131 242 sel 1;
#X obj 131 301 v state;
#X obj 131 268 bng 15 250 50 0 empty empty empty 17 7 0 10 -262144
-1 -1;
#X obj 209 146 t f f;
#X obj 224 265 sel 1;
#X obj 634 387 send screenLine5;
#X obj 752 257 s led;
#X obj 596 244 s led;
#X text 537 82 Controls LED & Screen Infomation:;
#X obj 224 211 del 500;
#X text 104 74 Controls State With Aux Button;
#X text 95 10 uses the aux button to control states;
#X msg 752 232 1;
#X msg 224 299 1;
#X obj 117 503 s state;
#X obj 214 505 s state;
#X msg 210 460 0;
#X obj 224 326 s state;
#X obj 587 130 r state;
#X obj 402 198 r state;
#X obj 402 220 v state;
#X obj 411 77 loadbang;
#X msg 411 99 0;
#X obj 131 415 sel 0 1 2, f 27;
#X text 528 11 states are: 0 = play mode \, 1 = punch in \, 2 = play
w latch, f 70;
#X obj 919 252 s led;
#X obj 587 172 sel 0 1 2;
#X msg 119 468 2;
#X obj 284 501 s state;
#X msg 286 466 0;
#X msg 596 220 0;
#X msg 919 227 2;
#X obj 409 129 s state;
#X msg 530 301 Aux: Play Mode;
#X msg 714 293 Aux: Punch Mode;
#X msg 894 303 Aux: Play Mode Latch;
#X connect 0 0 8 0;
#X connect 1 0 13 0;
#X connect 2 0 3 0;
#X connect 2 0 7 0;
#X connect 3 0 4 0;
#X connect 4 0 6 0;
#X connect 5 0 27 0;
#X connect 6 0 5 0;
#X connect 7 0 1 0;
#X connect 7 1 0 1;
#X connect 8 0 17 0;
#X connect 13 0 0 0;
#X connect 16 0 10 0;
#X connect 17 0 21 0;
#X connect 20 0 19 0;
#X connect 22 0 30 0;
#X connect 23 0 24 0;
#X connect 25 0 26 0;
#X connect 26 0 36 0;
#X connect 27 0 31 0;
#X connect 27 1 20 0;
#X connect 27 2 33 0;
#X connect 30 0 34 0;
#X connect 30 0 37 0;
#X connect 30 1 16 0;
#X connect 30 1 38 0;
#X connect 30 2 35 0;
#X connect 30 2 39 0;
#X connect 31 0 18 0;
#X connect 33 0 32 0;
#X connect 34 0 11 0;
#X connect 35 0 29 0;
#X connect 37 0 9 0;
#X connect 38 0 9 0;
#X connect 39 0 9 0;
#X restore 796 44 pd states;
#X obj 563 74 r state;
#X obj 612 320 s state;
#X obj 126 60 r state;
#X msg 563 148 0;
#X msg 599 149 1;
#X msg 111 115 1;
#X msg 157 116 0;
#X floatatom 698 304 5 0 0 0 - - -, f 5;
#X obj 208 362 r len;
#X obj 732 347 s len;
#X obj 443 354 r notes;
#X obj 445 398 spigot;
#N canvas 126 240 634 688 latch 0;
#X obj 43 405 latch-notes;
#X obj 263 232 tgl 15 0 empty empty empty 17 7 0 10 -262144 -1 -1 0
1;
#X obj 173 298 spigot 1;
#X obj 43 298 spigot 0;
#X obj 263 258 == 0;
#X obj 309 312 bng 15 250 50 0 empty empty empty 17 7 0 10 -262144
-1 -1;
#X obj 263 134 inlet;
#X obj 43 626 outlet;
#X obj 43 106 inlet;
#X text 44 53 incoming notes get sent through latch if enabled \, or
directly to output if disabled;
#X text 311 135 enable;
#X obj 264 161 t f b, f 7;
#X connect 0 0 7 0;
#X connect 1 0 4 0;
#X connect 1 0 3 1;
#X connect 2 0 7 0;
#X connect 3 0 0 0;
#X connect 4 0 2 1;
#X connect 5 0 0 1;
#X connect 6 0 11 0;
#X connect 8 0 3 0;
#X connect 8 0 2 0;
#X connect 11 0 1 0;
#X connect 11 1 5 0;
#X restore 267 176 pd latch;
#X obj 563 105 sel 0 1 2;
#X obj 126 82 sel 0 1 2;
#X msg 201 115 1;
#X msg 633 143 0;
#X obj 359 30 r state;
#X msg 390 86 0;
#X obj 359 52 sel 0 1 2;
#X msg 434 85 1;
#X msg 344 85 0;
#X obj 330 137 tgl 15 0 empty empty empty 17 7 0 10 -262144 -1 -1 0
1;
#X msg 1023 789 \; seq write seq.txt \;;
#X msg 852 728 \; seq read seq.txt \;;
#X obj 803 667 loadbang;
#X obj 1284 792 tabwrite seq;
#X msg 1351 742 32;
#X obj 1359 666 r len;
#X obj 1360 692 t f b;
#X obj 814 697 t b b;
#X msg 782 744 32;
#X obj 781 798 s len;
#X floatatom 1293 706 5 0 0 0 - - -, f 5;
#X obj 781 771 tabread seq;
#X obj 999 649 r state;
#X obj 999 677 t f b;
#X obj 1017 712 f;
#X obj 1017 735 == 1;
#X obj 1022 759 sel 1;
#X text 1063 708 when done recording;
#X obj 318 596 noteout 2;
#X obj 318 567 makenote 100 100;
#X obj 1593 271 s decay;
#X obj 438 526 r decay;
#X obj 1526 131 sig~;
#X obj 1526 153 lop~ 5;
#X obj 1458 205 i;
#X obj 1458 227 change -1;
#X obj 1458 177 * 100;
#X msg 1458 254 3: Tone \$1;
#X text 528 11 states are: 0 = play mode \, 1 = punch in \, 2 = play
w latch, f 70;
#N canvas 19 50 840 690 seqpuncher 0;
#X obj 242 626 tabwrite seq;
#X obj 338 443 t f b;
#X obj 244 211 tgl 15 0 empty empty empty 17 7 0 10 -262144 -1 -1 0
1;
#X obj 351 334 spigot 0;
#X obj 401 264 t f b;
#X obj 444 566 sel 1;
#X obj 321 169 t f f;
#X obj 371 138 stripnote;
#X obj 444 627 outlet;
#X obj 371 107 inlet;
#X obj 220 103 inlet;
#X text 544 263 writes notes to sequence;
#X text 508 577 bang at end, f 12;
#X obj 654 136 inlet;
#X obj 556 421 - 1;
#X text 647 104 len;
#X obj 674 625 outlet;
#X text 732 624 len, f 4;
#X obj 671 589 + 1;
#X obj 399 480 counter-up 32;
#X obj 444 540 == 31;
#X obj 332 402 - 0;
#X connect 1 0 0 0;
#X connect 1 1 19 0;
#X connect 2 0 4 0;
#X connect 3 0 21 0;
#X connect 4 0 3 1;
#X connect 4 1 19 1;
#X connect 5 0 8 0;
#X connect 6 0 3 0;
#X connect 7 0 6 0;
#X connect 9 0 7 0;
#X connect 10 0 2 0;
#X connect 13 0 14 0;
#X connect 13 0 19 2;
#X connect 14 0 20 1;
#X connect 18 0 16 0;
#X connect 19 0 0 1;
#X connect 19 0 18 0;
#X connect 19 0 20 0;
#X connect 20 0 5 0;
#X connect 21 0 1 0;
#X restore 612 263 pd seqpuncher;
#X text 953 598 seq saving and recalling;
#X text 763 85 up to 32 notes long \, len is stashed as last entry
;
#X text 1247 634 stash length as last entry;
#X msg 1418 483 \; screenLine1 1: Tune \; screenLine2 2: Tone \; screenLine3
3: Sequence Speed \; screenLine4 4: Decay \; screenLine5 Aux: Hold
to Punch \;;
#X obj 283 338 expr 1000/($f1/60);
#X obj 282 370 / 4;
#X obj 1458 90 r knob3, f 8;
#X obj 1458 288 s screenLine3;
#X obj 1526 176 s~ tone;
#X obj 301 704 voice;
#X obj 284 310 r bpm;
#X obj 1353 91 r knob2;
#X msg 1228 247 2: Tune \$1 cents;
#X obj 1228 275 s screenLine2;
#X text 438 574 send the seq out on midi ch 2;
#X obj 1016 231 master-metronome;
#X obj 1016 196 tgl 15 0 empty empty empty 17 7 0 10 -262144 -1 -1
1 1;
#X obj 1016 129 loadbang;
#X msg 1016 161 1;
#X obj 1125 145 r knob1;
#X obj 1125 167 * 250;
#X obj 1125 193 + 10;
#X obj 1125 272 i;
#X obj 1125 294 change -1;
#X obj 1016 333 i;
#X obj 1016 355 change -1;
#X msg 1125 318 \; screenLine1 1: Tempo \$1 BPM \;;
#X msg 1016 379 \; screenLine1 1: Tempo \$1 BPM MIDI \;;
#X obj 583 705 voice;
#X obj 231 704 voice;
#X obj 372 705 voice;
#X obj 160 704 voice;
#X obj 90 703 voice;
#X obj 442 706 voice;
#X obj 513 704 voice;
#X obj 316 778 *~ 0.25;
#X connect 2 0 3 0;
#X connect 3 0 117 0;
#X connect 3 1 116 0;
#X connect 3 2 114 0;
#X connect 3 3 94 0;
#X connect 3 4 115 0;
#X connect 3 5 118 0;
#X connect 3 6 119 0;
#X connect 3 7 113 0;
#X connect 4 0 8 0;
#X connect 5 0 9 0;
#X connect 7 0 6 0;
#X connect 8 0 22 0;
#X connect 9 0 7 0;
#X connect 11 0 12 0;
#X connect 12 0 10 0;
#X connect 13 0 14 0;
#X connect 14 0 15 0;
#X connect 15 0 11 0;
#X connect 16 0 13 0;
#X connect 16 0 19 0;
#X connect 17 0 88 0;
#X connect 18 0 97 0;
#X connect 19 0 18 0;
#X connect 20 0 21 0;
#X connect 21 0 2 0;
#X connect 21 1 2 1;
#X connect 21 2 2 2;
#X connect 22 0 5 0;
#X connect 22 0 75 0;
#X connect 24 0 29 3;
#X connect 25 0 84 1;
#X connect 26 0 44 0;
#X connect 27 0 84 0;
#X connect 27 0 43 1;
#X connect 28 0 33 0;
#X connect 29 0 20 0;
#X connect 29 0 74 0;
#X connect 30 0 29 0;
#X connect 32 0 45 0;
#X connect 34 0 46 0;
#X connect 35 0 27 0;
#X connect 36 0 27 0;
#X connect 37 0 30 0;
#X connect 38 0 30 0;
#X connect 39 0 41 0;
#X connect 40 0 29 2;
#X connect 42 0 43 0;
#X connect 43 0 21 0;
#X connect 44 0 29 1;
#X connect 45 0 35 0;
#X connect 45 1 36 0;
#X connect 45 2 48 0;
#X connect 46 0 37 0;
#X connect 46 1 38 0;
#X connect 46 2 47 0;
#X connect 47 0 30 0;
#X connect 48 0 27 0;
#X connect 49 0 51 0;
#X connect 50 0 54 0;
#X connect 51 0 53 0;
#X connect 51 1 50 0;
#X connect 51 2 52 0;
#X connect 52 0 54 0;
#X connect 53 0 54 0;
#X connect 54 0 44 1;
#X connect 57 0 62 0;
#X connect 59 0 58 1;
#X connect 60 0 61 0;
#X connect 60 0 65 0;
#X connect 61 0 58 0;
#X connect 61 1 59 0;
#X connect 62 0 63 0;
#X connect 62 1 56 0;
#X connect 63 0 66 0;
#X connect 66 0 64 0;
#X connect 67 0 68 0;
#X connect 68 0 69 1;
#X connect 68 1 69 0;
#X connect 69 0 70 0;
#X connect 70 0 71 0;
#X connect 71 0 55 0;
#X connect 74 0 73 0;
#X connect 74 1 73 1;
#X connect 76 0 74 2;
#X connect 77 0 78 0;
#X connect 78 0 93 0;
#X connect 79 0 80 0;
#X connect 80 0 82 0;
#X connect 81 0 79 0;
#X connect 82 0 92 0;
#X connect 84 0 28 0;
#X connect 84 1 39 0;
#X connect 89 0 90 0;
#X connect 90 0 24 0;
#X connect 91 0 77 0;
#X connect 91 0 81 0;
#X connect 94 0 120 0;
#X connect 95 0 89 0;
#X connect 96 0 16 0;
#X connect 97 0 98 0;
#X connect 100 0 109 0;
#X connect 100 1 107 0;
#X connect 101 0 100 0;
#X connect 102 0 103 0;
#X connect 103 0 101 0;
#X connect 104 0 105 0;
#X connect 105 0 106 0;
#X connect 106 0 100 1;
#X connect 107 0 108 0;
#X connect 108 0 111 0;
#X connect 109 0 110 0;
#X connect 110 0 112 0;
#X connect 113 0 120 0;
#X connect 114 0 120 0;
#X connect 115 0 120 0;
#X connect 116 0 120 0;
#X connect 117 0 120 0;
#X connect 118 0 120 0;
#X connect 119 0 120 0;
#X connect 120 0 0 0;
#X connect 120 0 1 0;
