#N canvas 9 50 1800 952 10;
#X declare -path CG-Pd-Library-Local/sequencer;
#X declare -path CG-Pd-Library-Local/externals;
#X declare -path CG-Pd-Library-Local/metronome;
#X declare -path /sdcard/CG-Pd-Library/sequencer;
#X declare -path /sdcard/CG-Pd-Library/externals;
#X declare -path /sdcard/CG-Pd-Library/metronome;
#X obj 270 828 throw~ outL;
#X obj 373 833 throw~ outR;
#X obj 117 648 pack 0 0 0, f 11;
#X obj 117 674 route 1 2 3 4 5 6 7 8, f 81;
#X obj 456 248 tgl 15 0 empty empty empty 17 7 0 10 -262144 -1 -1 0
1;
#X msg 513 357 0;
#N canvas 380 50 1126 994 seqplayer 0;
#X floatatom 130 231 5 0 0 0 - - -;
#X obj 367 708 tabread seq;
#X floatatom 368 732 5 0 0 0 - - -;
#X floatatom 366 664 5 0 0 0 - - -;
#X obj 165 768 delay;
#X obj 180 442 tgl 15 0 empty empty empty 17 7 0 10 -262144 -1 -1 1
1;
#X msg 179 393 1;
#X obj 220 445 bng 15 250 50 0 empty empty empty 17 7 0 10 -262144
-1 -1;
#X obj 283 584 ==;
#X obj 252 520 t b f;
#X obj 185 724 spigot 0;
#X obj 137 -9 stripnote;
#X obj 130 191 spigot;
#X obj 39 128 tgl 15 0 empty empty empty 17 7 0 10 -262144 -1 -1 1
1;
#X obj 236 488 counter-up 16;
#X obj 283 562 == 15;
#X obj 453 791 + 60;
#X obj 437 857 pack 0 100;
#X obj 141 -63 inlet;
#X obj 39 73 inlet;
#X obj 341 74 inlet;
#X obj 365 418 - 1;
#X obj 436 888 outlet;
#X obj 680 73 inlet;
#X text 36 39 enable;
#X text 141 -85 note;
#X text 328 47 length;
#X text 689 41 speed;
#X obj 255 15 unpack;
#X obj 299 181 tgl 15 0 empty empty empty 17 7 0 10 -262144 -1 -1 1
1;
#X obj 299 214 ==;
#X obj 294 626 spigot 1;
#X obj 680 252 moses 10;
#X obj 287 712 tgl 15 0 empty empty empty 17 7 0 10 -262144 -1 -1 1
1;
#X obj 240 804 s is-playing;
#N canvas 1232 509 450 297 switch 0;
#X obj 145 49 inlet;
#X obj 147 184 outlet;
#X obj 266 178 outlet;
#X obj 320 50 inlet;
#X obj 281 84 ==;
#X obj 150 128 spigot 1;
#X obj 258 124 spigot 0;
#X obj 230 49 inlet;
#X connect 0 0 5 0;
#X connect 3 0 4 0;
#X connect 3 0 6 1;
#X connect 4 0 5 1;
#X connect 5 0 1 0;
#X connect 6 0 2 0;
#X connect 7 0 6 0;
#X restore 149 289 pd switch;
#X obj 192 231 r is-playing;
#N canvas 232 119 450 297 switch 0;
#X obj 145 49 inlet;
#X obj 147 184 outlet;
#X obj 266 178 outlet;
#X obj 320 50 inlet;
#X obj 249 81 ==;
#X obj 150 128 spigot 1;
#X obj 258 124 spigot 0;
#X connect 0 0 5 0;
#X connect 0 0 6 0;
#X connect 3 0 4 0;
#X connect 3 0 6 1;
#X connect 4 0 5 1;
#X connect 5 0 1 0;
#X connect 6 0 2 0;
#X restore 67 553 pd switch;
#X obj 164 359 t b b b f b;
#X obj 224 309 t f b;
#X msg 120 511 0;
#X msg 157 513 1;
#X obj 204 335 f;
#X obj 242 273 tgl 15 0 empty empty empty 17 7 0 10 -262144 -1 -1 1
1;
#X obj 143 257 t a a;
#X obj 204 134 f;
#X obj 274 78 sel 0;
#X obj 303 100 bang;
#X msg 304 123 1;
#X obj 143 -40 t a a;
#X obj 260 44 swap;
#X obj 259 128 f;
#X obj 229 105 t b b;
#X obj 227 158 ==;
#X obj 225 182 sel 1;
#X msg 225 204 0;
#X obj 452 816 - 60;
#X obj 370 758 moses 1;
#X text 440 757 filter out notes that are 0;
#X obj 504 710 tabread seqvel;
#X obj 365 684 t f f;
#X connect 0 0 44 0;
#X connect 1 0 2 0;
#X connect 2 0 57 0;
#X connect 3 0 60 0;
#X connect 4 0 37 0;
#X connect 5 0 10 1;
#X connect 5 0 33 0;
#X connect 6 0 5 0;
#X connect 7 0 14 0;
#X connect 8 0 31 0;
#X connect 9 0 10 0;
#X connect 9 1 3 0;
#X connect 9 1 15 0;
#X connect 10 0 4 0;
#X connect 11 0 12 0;
#X connect 11 0 45 1;
#X connect 12 0 0 0;
#X connect 13 0 12 1;
#X connect 14 0 9 0;
#X connect 15 0 8 0;
#X connect 16 0 56 0;
#X connect 17 0 22 0;
#X connect 18 0 49 0;
#X connect 19 0 13 0;
#X connect 20 0 14 2;
#X connect 20 0 21 0;
#X connect 21 0 15 1;
#X connect 23 0 32 0;
#X connect 28 0 50 0;
#X connect 28 1 50 1;
#X connect 29 0 30 0;
#X connect 30 0 31 1;
#X connect 31 0 10 1;
#X connect 31 0 33 0;
#X connect 32 1 4 1;
#X connect 33 0 34 0;
#X connect 35 0 38 0;
#X connect 35 1 39 0;
#X connect 36 0 35 2;
#X connect 36 0 43 0;
#X connect 37 0 7 0;
#X connect 37 1 42 0;
#X connect 38 0 7 0;
#X connect 38 1 6 0;
#X connect 38 2 14 1;
#X connect 38 3 16 1;
#X connect 38 4 40 0;
#X connect 39 0 42 1;
#X connect 39 1 41 0;
#X connect 40 0 37 1;
#X connect 41 0 37 1;
#X connect 42 0 38 0;
#X connect 44 0 35 0;
#X connect 44 1 35 1;
#X connect 45 0 53 0;
#X connect 46 0 52 0;
#X connect 46 1 47 0;
#X connect 47 0 48 0;
#X connect 48 0 29 0;
#X connect 49 0 11 0;
#X connect 49 1 28 0;
#X connect 50 0 46 0;
#X connect 50 1 51 1;
#X connect 51 0 53 1;
#X connect 52 0 45 0;
#X connect 52 1 51 0;
#X connect 53 0 54 0;
#X connect 54 0 55 0;
#X connect 55 0 29 0;
#X connect 56 0 17 0;
#X connect 57 1 16 0;
#X connect 59 0 17 1;
#X connect 60 0 1 0;
#X connect 60 1 59 0;
#X restore 117 427 pd seqplayer;
#N canvas 48 155 1208 666 states 0;
#X text 537 82 Controls LED & Screen Infomation:;
#X text 104 74 Controls State With Aux Button;
#X text 95 10 uses the aux button to control states;
#X obj 587 130 r state;
#X obj 411 77 loadbang;
#X msg 411 99 0;
#X text 528 11 states are: 0 = play mode \, 1 = punch in \, 2 = play
w latch, f 70;
#X obj 411 128 s state;
#X obj 888 115 r cgSc-1-6;
#X obj 915 298 s state;
#X obj 587 172 sel 0 1;
#X obj 888 141 sel 0;
#X obj 915 164 t b;
#X obj 562 366 s cgSc-1-6label;
#X msg 562 289 Mode:Play;
#X msg 666 288 Mode:Punch;
#X obj 344 217 r state;
#X obj 344 238 sel 1;
#X obj 234 272 r cgSc-1-aux;
#X obj 234 293 sel 1;
#X obj 234 314 spigot 0;
#X obj 234 335 t b b;
#X msg 311 322 0;
#X msg 234 356 0;
#X obj 234 377 s state;
#X msg 344 259 1;
#X obj 930 188 r state;
#X obj 915 221 f;
#X obj 915 242 ==;
#X connect 3 0 10 0;
#X connect 4 0 5 0;
#X connect 5 0 7 0;
#X connect 8 0 11 0;
#X connect 10 0 14 0;
#X connect 10 1 15 0;
#X connect 11 1 12 0;
#X connect 12 0 27 0;
#X connect 14 0 13 0;
#X connect 15 0 13 0;
#X connect 16 0 17 0;
#X connect 17 0 25 0;
#X connect 18 0 19 0;
#X connect 19 0 20 0;
#X connect 20 0 21 0;
#X connect 21 0 23 0;
#X connect 21 1 22 0;
#X connect 22 0 20 1;
#X connect 23 0 24 0;
#X connect 25 0 20 1;
#X connect 26 0 27 1;
#X connect 27 0 28 0;
#X connect 28 0 9 0;
#X restore 796 44 pd states;
#X obj 456 99 r state;
#X obj 513 386 s state;
#X obj 115 238 r state;
#X obj 210 266 r len;
#X obj 577 407 s len;
#X msg 852 728 \; seq read seq.txt \;;
#X obj 803 667 loadbang;
#X obj 1284 772 tabwrite seq;
#X msg 1353 752 32;
#X obj 1284 686 r len;
#X obj 1284 722 t f b;
#X obj 814 697 t b b;
#X msg 740 756 32;
#X obj 739 810 s len;
#X obj 739 783 tabread seq;
#X text 528 11 states are: 0 = play mode \, 1 = punch in \, 2 = play
w latch, f 70;
#N canvas 37 50 919 857 seqpuncher 0;
#X obj 242 626 tabwrite seq;
#X obj 244 211 tgl 15 0 empty empty empty 17 7 0 10 -262144 -1 -1 0
1;
#X obj 351 334 spigot 0;
#X obj 401 264 t f b;
#X obj 444 566 sel 1;
#X obj 321 169 t f f;
#X obj 371 138 stripnote;
#X obj 444 627 outlet;
#X obj 371 107 inlet;
#X obj 220 103 inlet;
#X text 544 263 writes notes to sequence;
#X text 508 577 bang at end, f 12;
#X obj 654 136 inlet;
#X obj 556 421 - 1;
#X text 647 104 len;
#X obj 674 625 outlet;
#X text 732 624 len, f 4;
#X obj 671 589 + 1;
#X obj 399 480 counter-up 32;
#X obj 444 540 == 31;
#X obj 332 402 - 0;
#X obj 163 395 * 127;
#X obj 138 523 f;
#X obj 338 443 t b f b;
#X obj 124 624 tabwrite seqvel;
#X obj 187 782 outlet;
#X obj 188 731 swap;
#X obj 188 753 pack;
#X obj 36 462 spigot;
#X obj 61 281 r state;
#X obj 61 318 == 1;
#X obj 163 366 f;
#X obj 41 360 t b f;
#X obj 34 490 i;
#X obj 587 805 send screenLine5;
#X obj 391 628 + 1;
#X msg 434 729 Aux: Punching \$1;
#X obj 413 689 shortcut-mute-f 1;
#X obj 17 655 shortcut-mute-f 1;
#X obj 163 340 r knob4;
#X obj 690 717 r state;
#X obj 653 761 spigot 0;
#X obj 71 691 r state;
#X obj 34 735 spigot 0;
#X msg 31 826 \; screenLine2 4: Input Velo.: \$1 \;;
#X obj 564 630 r state;
#X obj 564 653 change -1;
#X obj 564 674 sel 1;
#X msg 564 695 0;
#X connect 1 0 3 0;
#X connect 2 0 20 0;
#X connect 3 0 2 1;
#X connect 3 1 18 1;
#X connect 4 0 7 0;
#X connect 5 0 2 0;
#X connect 6 0 5 0;
#X connect 8 0 6 0;
#X connect 9 0 1 0;
#X connect 12 0 13 0;
#X connect 12 0 18 2;
#X connect 13 0 19 1;
#X connect 17 0 15 0;
#X connect 18 0 0 1;
#X connect 18 0 17 0;
#X connect 18 0 19 0;
#X connect 18 0 24 1;
#X connect 18 0 35 0;
#X connect 19 0 4 0;
#X connect 20 0 23 0;
#X connect 21 0 22 1;
#X connect 21 0 28 0;
#X connect 22 0 24 0;
#X connect 22 0 26 0;
#X connect 23 0 22 0;
#X connect 23 1 0 0;
#X connect 23 1 26 1;
#X connect 23 2 18 0;
#X connect 26 0 27 0;
#X connect 26 1 27 1;
#X connect 27 0 25 0;
#X connect 28 0 33 0;
#X connect 29 0 30 0;
#X connect 30 0 32 0;
#X connect 31 0 21 0;
#X connect 32 0 31 0;
#X connect 32 1 28 1;
#X connect 33 0 38 0;
#X connect 35 0 37 0;
#X connect 36 0 41 0;
#X connect 37 0 36 0;
#X connect 38 0 43 0;
#X connect 39 0 31 0;
#X connect 40 0 41 1;
#X connect 41 0 34 0;
#X connect 42 0 43 1;
#X connect 43 0 44 0;
#X connect 45 0 46 0;
#X connect 46 0 47 0;
#X connect 47 0 48 0;
#X connect 48 0 37 0;
#X restore 505 288 pd seqpuncher;
#X text 742 561 seq saving and recalling;
#X text 763 85 up to 32 notes long \, len is stashed as last entry
;
#X text 1247 634 stash length as last entry;
#X obj 282 303 expr 1000/($f1/60);
#X obj 282 330 / 4;
#X obj 282 280 r bpm;
#X msg 837 785 \; seqvel read seqvel.txt \;;
#X obj 117 591 poly 8 1, f 11;
#X obj 610 715 voice;
#X obj 328 714 voice;
#X obj 469 716 voice;
#X obj 117 713 voice;
#X obj 258 714 voice;
#X obj 399 715 voice;
#X obj 187 714 voice;
#X obj 540 714 voice;
#X obj 262 123 s root-notes;
#X obj 800 229 r root-notes;
#X obj 800 331 % 24;
#X obj 800 305 abs;
#X obj 800 276 expr if ($f1 > 59 \, $f1 - 60 \, $f1 - 12);
#X obj 800 353 pack 0 0;
#X obj 847 482 bag;
#X msg 847 457 flush;
#X obj 847 503 pack 0 0;
#X obj 800 453 t a a;
#X obj 797 372 stripnote, f 12;
#X obj 881 400 t a b;
#X obj 800 251 unpack 0 0;
#X obj 800 419 pack 0 0;
#X obj 964 395 r is-playing;
#X obj 964 423 sel 0;
#X obj 800 540 cg-print-kb-nur-umrisse 36;
#X obj 1906 909 r seq3-1-k4;
#X obj 1808 911 r seq3-1-k3;
#X obj 1711 919 r seq3-1-k2;
#X obj 1618 925 r seq3-1-k1;
#X obj 1083 151 r seq3-1-led;
#X obj 1083 173 s led;
#X obj 220 -92 r aux;
#X obj 294 -17 r cgSc-1-slots;
#X obj 337 -92 r \$0-reprint-port;
#N canvas 13 50 450 300 CG-PdLibrary-Local 0;
#X obj 502 35 r cgSc-1-slots;
#X obj 60 98 declare -path CG-Pd-Library-Local/sequencer;
#X obj 58 130 declare -path CG-Pd-Library-Local/externals;
#X obj 59 165 declare -path CG-Pd-Library-Local/metronome;
#X restore 2124 483 pd CG-PdLibrary-Local;
#N canvas 12 50 450 300 CG-PdLibrary-SDcard 0;
#X obj 60 98 declare -path /sdcard/CG-Pd-Library/sequencer;
#X obj 58 130 declare -path /sdcard/CG-Pd-Library/externals;
#X obj 59 165 declare -path /sdcard/CG-Pd-Library/metronome;
#X obj 502 35 r cgSc-1-slots;
#X restore 2124 512 pd CG-PdLibrary-SDcard;
#X obj 331 5 r beat-clock;
#X obj 1923 859 shortcut-mute-f 1;
#X obj 776 132 array define seq 100;
#X obj 778 164 array define seqvel 100;
#N canvas 4 50 1165 680 midi-note-and-keyboard-print 0;
#X obj 249 610 noteout 2;
#X obj 359 410 r decay;
#X text 374 520 send the seq out on midi ch 2;
#X obj 240 461 unpack;
#X obj 309 580 r midiCh;
#X obj 642 315 unpack 0 0;
#X obj 642 397 + 1;
#X obj 642 419 pack 0 0;
#X obj 905 533 loadbang;
#X obj 709 338 sel 0;
#X msg 709 360 0;
#X msg 741 360 1;
#X obj 642 205 % 24;
#X obj 642 179 abs;
#X obj 642 140 expr if ($f1 > 59 \, $f1 - 60 \, $f1 - 12);
#X obj 642 239 pack 0 0;
#X obj 767 618 cg-print-kb 36;
#X obj 156 20 inlet;
#X obj 968 594 sel 0;
#X obj 913 618 del 1;
#X obj 925 557 r cgSc-1-mute-print;
#X obj 338 493 max 10;
#X obj 246 520 makenote 100 100;
#X obj 982 36 inlet;
#X obj 642 440 spigot 1, f 33;
#X connect 1 0 21 0;
#X connect 3 0 22 0;
#X connect 4 0 0 2;
#X connect 5 0 6 0;
#X connect 5 1 9 0;
#X connect 6 0 7 0;
#X connect 7 0 24 0;
#X connect 8 0 16 1;
#X connect 9 0 10 0;
#X connect 9 1 11 0;
#X connect 10 0 7 1;
#X connect 11 0 7 1;
#X connect 12 0 15 0;
#X connect 13 0 12 0;
#X connect 14 0 13 0;
#X connect 15 0 5 0;
#X connect 17 0 3 0;
#X connect 18 0 19 0;
#X connect 19 0 16 1;
#X connect 20 0 18 0;
#X connect 21 0 22 2;
#X connect 22 0 0 0;
#X connect 22 0 14 0;
#X connect 22 1 0 1;
#X connect 22 1 15 1;
#X connect 23 0 24 1;
#X connect 24 0 16 0;
#X restore 303 587 pd midi-note-and-keyboard-print;
#N canvas 787 330 860 595 slot-saver-1 0;
#X obj 167 38 r cgSc-1-slots;
#X obj 30 68 loadbang;
#X msg 30 140 0;
#X obj 30 161 tabread \$0-slot;
#X obj 199 225 array define \$0-slot;
#X obj 30 110 t b b;
#X msg 199 138 read slot.txt;
#X msg 243 186 write slot.txt;
#X obj 243 160 r saveState;
#X obj 167 58 t a b;
#X msg 220 84 0;
#X obj 167 107 tabwrite \$0-slot;
#X obj 30 185 s cgSc-1-slots;
#X connect 0 0 9 0;
#X connect 1 0 5 0;
#X connect 2 0 3 0;
#X connect 3 0 12 0;
#X connect 5 0 2 0;
#X connect 5 1 6 0;
#X connect 6 0 4 0;
#X connect 7 0 4 0;
#X connect 8 0 7 0;
#X connect 9 0 11 0;
#X connect 9 1 10 0;
#X connect 10 0 11 1;
#X restore 1074 213 pd slot-saver-1;
#X obj 115 259 ==;
#X obj 85 54 r state;
#X obj 85 75 sel 1;
#X msg 85 96 0;
#X obj 972 612 r saveState;
#X obj 972 633 t b b;
#X msg 1029 650 \; seq write seq.txt \;;
#X msg 1014 707 \; seqvel write seqvel.txt \;;
#N canvas 4 50 1176 782 print-stuff+knobs 0;
#X obj 725 436 i;
#X obj 725 386 * 2000;
#X obj 446 557 send~ f;
#X obj 446 492 sig~;
#X obj 445 523 lop~ 5;
#X obj 446 411 / 100;
#X obj 446 433 mtof;
#X obj 446 465 / 8.1785;
#X obj 342 461 i;
#X obj 725 408 + 10;
#X obj 725 466 s decay;
#X obj 626 396 sig~;
#X obj 626 418 lop~ 5;
#X obj 558 470 i;
#X obj 558 442 * 100;
#X obj 626 441 s~ tone;
#X obj 342 424 * 100;
#X obj 800 460 * 100;
#X obj 800 482 i;
#X obj 446 384 * 3200;
#X obj 558 355 f, f 8;
#X obj 773 304 f;
#X obj 450 358 f;
#X obj 308 554 shortcut-mute-f 1;
#X obj 527 539 shortcut-mute-f 1;
#X obj 677 557 shortcut-mute-f 1;
#X obj 470 299 r seq3-1-k1;
#X obj 492 324 r knob1;
#X obj 558 269 r seq3-1-k2;
#X obj 569 302 r knob2, f 8;
#X obj 730 245 r seq3-1-k3;
#X obj 792 275 r knob3;
#X obj 428 632 cg-3items-print 10 P: T: D:, f 30;
#X obj 111 121 * 250;
#X obj 111 147 + 10;
#X obj 199 125 i;
#N canvas 19 51 625 625 metro-here 0;
#X obj 369 147 r seq3-1-actions, f 19;
#X obj 312 345 f;
#X msg 407 250 0;
#X obj 439 250 t b b;
#X msg 445 280 1;
#X obj 312 292 del 1;
#X obj 54 303 s beat-clock;
#X obj 54 86 loadbang;
#X msg 54 120 1;
#X obj 203 353 list, f 7;
#X obj 203 375 route 69;
#X obj 203 281 t b a;
#X msg 203 323 69;
#X obj 159 221 pack, f 10;
#X obj 194 189 t b a;
#X obj 319 117 s seq3-1-quan;
#X obj 400 338 f;
#X obj 203 397 spigot 1;
#X obj 312 367 spigot 1, f 14;
#X obj 385 455 r cgSc-1-slots;
#X obj 385 481 + 1;
#X obj 203 552 print-line5 1, f 43;
#X obj 319 88 r metro-state;
#X obj 486 346 loadbang;
#X obj 385 502 f;
#X obj 486 388 t b b;
#X obj 312 428 f;
#X obj 486 367 del 1;
#X obj 407 179 r cgSc-1-mute-print;
#X obj 407 202 sel 1;
#X obj 159 65 inlet;
#X obj 231 133 s bpm;
#X obj 203 418 print huh;
#X obj 54 151 metronome360 1, f 18;
#X obj 514 234 r state;
#X obj 518 280 sel 0;
#X connect 0 0 1 0;
#X connect 1 0 18 0;
#X connect 2 0 16 0;
#X connect 3 0 5 0;
#X connect 3 1 4 0;
#X connect 4 0 16 0;
#X connect 5 0 1 0;
#X connect 5 0 12 0;
#X connect 7 0 8 0;
#X connect 8 0 33 0;
#X connect 9 0 10 0;
#X connect 10 0 17 0;
#X connect 11 0 12 0;
#X connect 11 1 9 1;
#X connect 12 0 9 0;
#X connect 13 0 11 0;
#X connect 14 0 13 0;
#X connect 14 1 13 1;
#X connect 16 0 17 1;
#X connect 16 0 18 1;
#X connect 17 0 21 0;
#X connect 17 0 32 0;
#X connect 18 0 26 0;
#X connect 19 0 20 0;
#X connect 20 0 24 0;
#X connect 22 0 15 0;
#X connect 23 0 27 0;
#X connect 24 0 21 2;
#X connect 25 0 26 0;
#X connect 25 1 24 0;
#X connect 26 0 21 1;
#X connect 27 0 25 0;
#X connect 28 0 29 0;
#X connect 29 0 2 0;
#X connect 29 1 3 0;
#X connect 30 0 31 0;
#X connect 30 0 33 1;
#X connect 33 0 6 0;
#X connect 33 1 14 0;
#X connect 33 2 13 0;
#X connect 34 0 35 0;
#X connect 35 0 5 0;
#X restore 195 249 pd metro-here;
#X obj 284 92 shortcut-mute-f 1;
#X obj 105 96 f;
#X obj 111 168 spigot 1;
#X obj 157 93 r state;
#X obj 157 114 ==;
#X obj 353 129 spigot 1;
#X obj 399 54 r state;
#X obj 399 75 ==;
#X obj 143 64 r seq3-1-k4;
#X obj 73 65 r knob4;
#X obj 297 240 s screenLine2;
#X msg 300 200 4: Internal: \$1 BPM;
#X obj 399 96 t a a;
#X obj 455 127 sel 1;
#X connect 0 0 10 0;
#X connect 1 0 9 0;
#X connect 3 0 4 0;
#X connect 4 0 2 0;
#X connect 5 0 6 0;
#X connect 6 0 7 0;
#X connect 7 0 3 0;
#X connect 8 0 23 0;
#X connect 9 0 0 0;
#X connect 11 0 12 0;
#X connect 12 0 15 0;
#X connect 13 0 24 0;
#X connect 14 0 13 0;
#X connect 16 0 8 0;
#X connect 17 0 18 0;
#X connect 18 0 25 0;
#X connect 19 0 5 0;
#X connect 20 0 11 0;
#X connect 20 0 14 0;
#X connect 21 0 1 0;
#X connect 21 0 17 0;
#X connect 22 0 16 0;
#X connect 22 0 19 0;
#X connect 23 0 32 0;
#X connect 24 0 32 1;
#X connect 25 0 32 2;
#X connect 26 0 22 0;
#X connect 27 0 22 0;
#X connect 28 0 20 0;
#X connect 29 0 20 0;
#X connect 30 0 21 0;
#X connect 31 0 21 0;
#X connect 33 0 34 0;
#X connect 34 0 39 0;
#X connect 35 0 36 0;
#X connect 35 0 37 0;
#X connect 37 0 42 0;
#X connect 38 0 33 0;
#X connect 39 0 35 0;
#X connect 40 0 41 0;
#X connect 41 0 39 1;
#X connect 42 0 48 0;
#X connect 43 0 44 0;
#X connect 44 0 49 0;
#X connect 45 0 38 0;
#X connect 46 0 38 0;
#X connect 48 0 47 0;
#X connect 49 0 50 0;
#X connect 49 1 42 1;
#X connect 50 0 37 1;
#X restore 1103 346 pd print-stuff+knobs;
#X obj 220 -61 shortcut 1 1, f 20;
#N canvas 594 50 1124 789 seq3-5option-control 0;
#X obj 139 278 outlet;
#X obj 65 121 t b;
#X msg 65 143 2;
#X obj 298 126 t b;
#X msg 298 148 3;
#X text 437 5 when aux is pressed after recording starts immediatley
end the rec and play the loop;
#X obj 170 70 sel 0;
#X obj 202 94 t b;
#X msg 202 116 1;
#X obj 33 66 r cgSc-1-2;
#X obj 171 48 r cgSc-1-1;
#X obj 33 88 sel 0;
#X obj 266 99 sel 0;
#X obj 317 272 r seq3-1-actions;
#X obj 317 294 sel 1, f 12;
#X obj 398 327 t b, f 4;
#X obj 317 445 s cgSc-1-1label;
#X obj 507 308 r seq3-1-actions;
#X obj 588 353 t b, f 4;
#X obj 507 329 sel 2 3, f 12;
#X obj 978 320 t b, f 4;
#X msg 978 355 Latch:Off;
#X msg 896 355 Latch:On;
#X obj 507 441 s cgSc-1-2label;
#X text 521 279 print to the shortcut menu;
#X obj 378 141 f 0;
#X obj 130 0 r midi-start;
#X msg 130 22 4;
#X obj 373 105 r midi-stop;
#X obj 507 125 t b;
#X obj 475 98 sel 0;
#X msg 507 147 5;
#X obj 192 487 r seq3-1-actions;
#X obj 273 532 t b, f 4;
#X obj 192 508 sel 5, f 12;
#X obj 317 373 f;
#X msg 317 403 \$1Seq:Stop;
#X obj 398 372 f;
#X msg 398 402 \$1Seq:Play;
#X msg 507 399 \$1Rec:Armd;
#X msg 588 397 \$1Rec:On;
#X msg 659 398 \$1Rec:Off;
#X obj 507 374 f;
#X obj 582 373 f;
#X obj 649 370 f;
#X obj 273 554 f;
#X obj 192 560 f;
#X msg 192 607 \$1Dub:On;
#X obj 201 286 r cgSc-1-slots;
#X obj 201 329 t b f f;
#X obj 166 439 s seq3-1-actions;
#X obj 166 415 v seq3-1-state;
#X obj 201 309 + 1;
#X obj 668 299 + 1;
#X obj 668 251 r cgSc-1-slots;
#X obj 321 507 + 1;
#X obj 321 483 r cgSc-1-slots;
#X obj 559 76 sel 1;
#X obj 612 80 r seq3-1-actions;
#X obj 559 174 t b b;
#X msg 640 152 0;
#X obj 559 152 spigot 0;
#X msg 612 129 1;
#X msg 559 196 1;
#X obj 192 650 s cgSc-1-3label;
#X obj 475 71 r cgSc-1-3;
#X obj 559 52 r cgSc-1-aux;
#X obj 896 398 s cgSc-1-5label;
#X obj 267 72 r cgSc-1-5;
#X obj 358 53 t b;
#X obj 326 26 sel 0;
#X obj 326 2 r cgSc-1-4;
#X msg 358 75 6;
#X obj 465 480 r seq3-1-actions;
#X obj 507 558 f;
#X obj 584 501 + 1;
#X obj 584 477 r cgSc-1-slots;
#X obj 465 643 s cgSc-1-4label;
#X obj 612 104 sel 3, f 12;
#X msg 273 607 \$1Dub:Off;
#X obj 465 501 sel 6, f 10;
#X obj 532 526 t b;
#X obj 465 585 spigot 1;
#X obj 552 582 spigot 0;
#X obj 675 510 r seq3-1-actions;
#X obj 675 532 sel 3;
#X obj 591 537 ==;
#X obj 637 564 f;
#X msg 637 533 1;
#X msg 708 615 0;
#X msg 552 607 \$1:Undo;
#X msg 465 610 \$1:Undid;
#X obj 465 523 t b b;
#X obj 31 189 loadbang;
#X msg 31 211 0;
#X obj 23 341 r init-1-slot;
#X obj 23 363 s cgSc-1-slots;
#X obj 896 255 r seq3-1-togLatch;
#X obj 896 296 sel 1, f 12;
#X connect 1 0 2 0;
#X connect 2 0 0 0;
#X connect 3 0 4 0;
#X connect 4 0 0 0;
#X connect 6 1 7 0;
#X connect 7 0 8 0;
#X connect 8 0 0 0;
#X connect 9 0 11 0;
#X connect 10 0 6 0;
#X connect 11 1 1 0;
#X connect 12 1 3 0;
#X connect 13 0 14 0;
#X connect 14 0 35 0;
#X connect 14 1 15 0;
#X connect 15 0 37 0;
#X connect 17 0 19 0;
#X connect 18 0 44 0;
#X connect 19 0 42 0;
#X connect 19 1 43 0;
#X connect 19 2 18 0;
#X connect 20 0 21 0;
#X connect 21 0 67 0;
#X connect 22 0 67 0;
#X connect 25 0 0 0;
#X connect 26 0 27 0;
#X connect 27 0 0 0;
#X connect 28 0 25 0;
#X connect 29 0 31 0;
#X connect 30 1 29 0;
#X connect 31 0 0 0;
#X connect 32 0 34 0;
#X connect 33 0 45 0;
#X connect 34 0 46 0;
#X connect 34 1 33 0;
#X connect 35 0 36 0;
#X connect 36 0 16 0;
#X connect 37 0 38 0;
#X connect 38 0 16 0;
#X connect 39 0 23 0;
#X connect 40 0 23 0;
#X connect 41 0 23 0;
#X connect 42 0 39 0;
#X connect 43 0 40 0;
#X connect 44 0 41 0;
#X connect 45 0 79 0;
#X connect 46 0 47 0;
#X connect 47 0 64 0;
#X connect 48 0 52 0;
#X connect 49 0 51 0;
#X connect 49 1 35 1;
#X connect 49 2 37 1;
#X connect 51 0 50 0;
#X connect 52 0 49 0;
#X connect 53 0 44 1;
#X connect 53 0 43 1;
#X connect 53 0 42 1;
#X connect 54 0 53 0;
#X connect 55 0 45 1;
#X connect 55 0 46 1;
#X connect 56 0 55 0;
#X connect 57 0 61 0;
#X connect 58 0 78 0;
#X connect 59 0 63 0;
#X connect 59 1 60 0;
#X connect 60 0 61 1;
#X connect 61 0 59 0;
#X connect 62 0 61 1;
#X connect 63 0 0 0;
#X connect 65 0 30 0;
#X connect 66 0 57 0;
#X connect 68 0 12 0;
#X connect 69 0 72 0;
#X connect 70 1 69 0;
#X connect 71 0 70 0;
#X connect 72 0 0 0;
#X connect 73 0 80 0;
#X connect 74 0 82 0;
#X connect 74 0 83 0;
#X connect 75 0 74 1;
#X connect 76 0 75 0;
#X connect 78 0 62 0;
#X connect 79 0 64 0;
#X connect 80 0 92 0;
#X connect 80 1 81 0;
#X connect 81 0 74 0;
#X connect 82 0 91 0;
#X connect 83 0 90 0;
#X connect 84 0 85 0;
#X connect 85 0 88 0;
#X connect 86 0 82 1;
#X connect 87 0 86 0;
#X connect 87 0 83 1;
#X connect 88 0 87 0;
#X connect 89 0 87 0;
#X connect 90 0 77 0;
#X connect 91 0 77 0;
#X connect 92 0 74 0;
#X connect 92 1 89 0;
#X connect 93 0 94 0;
#X connect 94 0 0 0;
#X connect 95 0 96 0;
#X connect 97 0 98 0;
#X connect 98 0 22 0;
#X connect 98 1 20 0;
#X restore 405 -41 pd seq3-5option-control;
#X obj 219 32 seq3 1 1 ../../sequences 1 0 0, f 19;
#X obj 449 509 r cgSc-1-mute-print;
#X obj 449 530 ==;
#X obj 984 454 r cgSc-1-mute-print;
#X obj 939 495 spigot 0;
#X obj 984 475 ==;
#X obj 343 788 *~ 0.3;
#X connect 2 0 3 0;
#X connect 3 0 36 0;
#X connect 3 1 39 0;
#X connect 3 2 37 0;
#X connect 3 3 34 0;
#X connect 3 4 38 0;
#X connect 3 5 35 0;
#X connect 3 6 40 0;
#X connect 3 7 33 0;
#X connect 4 0 24 0;
#X connect 5 0 9 0;
#X connect 6 0 32 0;
#X connect 6 0 73 0;
#X connect 8 0 4 0;
#X connect 10 0 75 0;
#X connect 11 0 6 2;
#X connect 14 0 19 0;
#X connect 16 0 15 1;
#X connect 17 0 18 0;
#X connect 18 0 15 0;
#X connect 18 1 16 0;
#X connect 19 0 20 0;
#X connect 19 1 13 0;
#X connect 19 1 31 0;
#X connect 20 0 22 0;
#X connect 22 0 21 0;
#X connect 24 0 32 0;
#X connect 24 0 73 0;
#X connect 24 1 5 0;
#X connect 24 2 12 0;
#X connect 28 0 29 0;
#X connect 29 0 6 3;
#X connect 30 0 28 0;
#X connect 32 0 2 0;
#X connect 32 1 2 1;
#X connect 32 2 2 2;
#X connect 33 0 92 0;
#X connect 34 0 92 0;
#X connect 35 0 92 0;
#X connect 36 0 92 0;
#X connect 37 0 92 0;
#X connect 38 0 92 0;
#X connect 39 0 92 0;
#X connect 40 0 92 0;
#X connect 42 0 53 0;
#X connect 43 0 46 0;
#X connect 44 0 43 0;
#X connect 45 0 44 0;
#X connect 46 0 51 0;
#X connect 47 0 49 0;
#X connect 48 0 47 0;
#X connect 49 0 57 0;
#X connect 50 0 90 0;
#X connect 50 1 47 0;
#X connect 51 0 54 0;
#X connect 51 1 52 0;
#X connect 52 0 54 1;
#X connect 52 1 48 0;
#X connect 53 0 45 0;
#X connect 53 1 46 1;
#X connect 54 0 50 0;
#X connect 55 0 56 0;
#X connect 56 0 48 0;
#X connect 62 0 63 0;
#X connect 64 0 84 0;
#X connect 65 0 86 2;
#X connect 66 0 84 1;
#X connect 69 0 86 3;
#X connect 75 0 6 0;
#X connect 76 0 77 0;
#X connect 77 0 78 0;
#X connect 78 0 86 1;
#X connect 79 0 80 0;
#X connect 80 0 82 0;
#X connect 80 1 81 0;
#X connect 84 0 86 0;
#X connect 85 0 86 1;
#X connect 86 0 6 1;
#X connect 86 0 41 0;
#X connect 86 0 24 1;
#X connect 87 0 88 0;
#X connect 88 0 73 1;
#X connect 89 0 91 0;
#X connect 90 0 57 0;
#X connect 91 0 90 1;
#X connect 92 0 0 0;
#X connect 92 0 1 0;
