#N canvas 572 50 1081 936 10;
#X obj 304 155 mtof;
#X obj 304 191 sig~;
#X obj 303 325 *~;
#X text 352 43 note messages;
#X text 426 225 knob 1 controls overall pitch;
#X obj 718 642 f;
#X obj 302 780 *~;
#X msg 718 682 0 \$1;
#X text 437 99 selects note off messages so we can set decay time later
;
#X text 348 162 convert it to signal so frequency will be constantly
updated;
#X obj 305 44 inlet;
#X obj 303 863 outlet~;
#X obj 302 360 /~ 4;
#X text 756 645 decay time;
#X text 25 10 synth voice with waveform change;
#X obj 719 742 *~;
#X obj 322 223 r~ f;
#X obj 304 96 stripnote;
#X obj 301 672 s_buzz;
#X obj 341 456 -~ 1;
#X obj 341 478 abs~;
#X obj 340 522 *~;
#X obj 339 610 *~;
#X obj 341 401 /~ 5000;
#X obj 340 426 clip~ 0 5000;
#X text 404 389 sorta arbitrary scale of harmonic content amount to
avoid aliasing... assumes 44.1k sampling rate .....;
#X obj 418 546 *~ 0.8;
#X obj 417 515 r~ tone;
#X obj 736 599 r decay;
#X obj 718 515 t b f;
#X obj 339 632 *~;
#X obj 867 557 / 127;
#X obj 887 623 sqrt;
#X obj 718 717 vline~;
#X obj 861 729 pack 0 10;
#X obj 718 565 delay 10;
#X obj 356 676 s_buzz;
#X obj 301 694 *~ 0.7;
#X obj 356 698 *~ 0.7;
#X obj 301 746 +~;
#X obj 189 570 +~ 0.1;
#X connect 0 0 1 0;
#X connect 1 0 2 0;
#X connect 2 0 12 0;
#X connect 5 0 7 0;
#X connect 6 0 11 0;
#X connect 7 0 33 0;
#X connect 10 0 17 0;
#X connect 12 0 23 0;
#X connect 12 0 18 0;
#X connect 12 0 40 0;
#X connect 15 0 6 1;
#X connect 15 0 30 1;
#X connect 16 0 2 1;
#X connect 17 0 0 0;
#X connect 17 1 29 0;
#X connect 18 0 37 0;
#X connect 19 0 20 0;
#X connect 20 0 21 1;
#X connect 20 0 21 0;
#X connect 21 0 22 0;
#X connect 22 0 30 0;
#X connect 23 0 24 0;
#X connect 24 0 19 0;
#X connect 26 0 22 1;
#X connect 27 0 26 0;
#X connect 28 0 5 1;
#X connect 29 0 35 0;
#X connect 29 1 31 0;
#X connect 30 0 18 1;
#X connect 30 0 36 1;
#X connect 31 0 32 0;
#X connect 32 0 34 0;
#X connect 33 0 15 1;
#X connect 33 0 15 0;
#X connect 34 0 33 0;
#X connect 35 0 5 0;
#X connect 36 0 38 0;
#X connect 37 0 39 0;
#X connect 38 0 39 1;
#X connect 39 0 6 0;
#X connect 40 0 36 0;
