#N canvas 562 50 1082 940 10;
#X obj 304 155 mtof;
#X obj 304 191 sig~;
#X obj 303 325 *~;
#X text 352 43 note messages;
#X text 426 225 knob 1 controls overall pitch;
#X obj 726 638 f;
#X obj 726 596 bng 15 250 50 0 empty empty empty 17 7 0 10 -262144
-1 -1;
#X obj 258 850 *~;
#X obj 726 703 line~;
#X msg 726 674 0 \$1;
#X msg 888 636 1 5;
#X obj 888 597 bng 15 250 50 0 empty empty empty 17 7 0 10 -262144
-1 -1;
#X text 437 99 selects note off messages so we can set decay time later
;
#X text 348 162 convert it to signal so frequency will be constantly
updated;
#X obj 304 44 inlet;
#X obj 258 896 outlet~;
#X obj 302 360 /~ 4;
#X obj 746 595 + 10;
#X obj 746 543 r knob4;
#X obj 746 569 * 2000;
#X text 764 641 decay time;
#X text 25 10 synth voice with waveform change;
#X obj 661 770 *~;
#X obj 322 223 r~ f;
#X obj 304 96 stripnote;
#X obj 725 444 t b b;
#X obj 717 492 delay 5;
#X obj 301 672 s_buzz;
#X obj 341 456 -~ 1;
#X obj 341 478 abs~;
#X obj 340 522 *~;
#X obj 339 610 *~;
#X obj 341 401 /~ 5000;
#X obj 340 426 clip~ 0 5000;
#X text 404 389 sorta arbitrary scale of harmonic content amount to
avoid aliasing... assumes 44.1k sampling rate .....;
#X obj 418 546 *~ 0.8;
#X obj 417 515 r~ tone;
#X connect 0 0 1 0;
#X connect 1 0 2 0;
#X connect 2 0 16 0;
#X connect 5 0 9 0;
#X connect 6 0 5 0;
#X connect 7 0 15 0;
#X connect 8 0 22 1;
#X connect 8 0 22 0;
#X connect 9 0 8 0;
#X connect 10 0 8 0;
#X connect 11 0 10 0;
#X connect 14 0 24 0;
#X connect 16 0 32 0;
#X connect 16 0 27 0;
#X connect 17 0 5 1;
#X connect 18 0 19 0;
#X connect 19 0 17 0;
#X connect 22 0 7 1;
#X connect 23 0 2 1;
#X connect 24 0 0 0;
#X connect 24 1 25 0;
#X connect 25 0 26 0;
#X connect 25 1 11 0;
#X connect 26 0 6 0;
#X connect 27 0 7 0;
#X connect 28 0 29 0;
#X connect 29 0 30 1;
#X connect 29 0 30 0;
#X connect 30 0 31 0;
#X connect 31 0 27 1;
#X connect 32 0 33 0;
#X connect 33 0 28 0;
#X connect 35 0 31 1;
#X connect 36 0 35 0;
