#N canvas 572 50 1081 936 10;
#X obj 304 155 mtof;
#X obj 304 191 sig~;
#X obj 303 325 *~;
#X text 352 43 note messages;
#X text 426 225 knob 1 controls overall pitch;
#X obj 718 572 f;
#X obj 302 780 *~;
#X text 437 99 selects note off messages so we can set decay time later
;
#X text 348 162 convert it to signal so frequency will be constantly
updated;
#X obj 305 44 inlet;
#X obj 303 863 outlet~;
#X obj 302 360 /~ 4;
#X text 848 785 decay time;
#X text 25 10 synth voice with waveform change;
#X obj 719 742 *~;
#X obj 322 223 r~ f;
#X obj 304 96 stripnote;
#X obj 301 672 s_buzz;
#X obj 341 456 -~ 1;
#X obj 341 478 abs~;
#X obj 340 522 *~;
#X obj 339 610 *~;
#X obj 341 401 /~ 5000;
#X obj 340 426 clip~ 0 5000;
#X text 404 389 sorta arbitrary scale of harmonic content amount to
avoid aliasing... assumes 44.1k sampling rate .....;
#X obj 417 515 r~ tone;
#X obj 733 529 r decay;
#X obj 339 632 *~;
#X obj 718 717 vline~;
#X obj 356 676 s_buzz;
#X obj 301 746 +~;
#X obj 302 822 hip~ 5;
#X obj 302 801 *~ 0.5;
#X obj 189 570 +~ 0.5;
#X obj 301 694 *~ 0.707;
#X obj 356 698 *~ 0.8;
#X obj 418 546 *~ 1.2;
#X msg 718 682 0 \$1 10;
#X msg 867 664 \$1 10;
#X obj 718 302 / 127;
#X obj 718 348 sqrt;
#X obj 718 415 t b f f;
#X connect 0 0 1 0;
#X connect 1 0 2 0;
#X connect 2 0 11 0;
#X connect 5 0 37 0;
#X connect 6 0 32 0;
#X connect 9 0 16 0;
#X connect 11 0 22 0;
#X connect 11 0 17 0;
#X connect 11 0 33 0;
#X connect 14 0 6 1;
#X connect 15 0 2 1;
#X connect 16 0 0 0;
#X connect 16 1 39 0;
#X connect 17 0 34 0;
#X connect 18 0 19 0;
#X connect 19 0 20 1;
#X connect 19 0 20 0;
#X connect 20 0 21 0;
#X connect 21 0 27 0;
#X connect 22 0 23 0;
#X connect 23 0 18 0;
#X connect 25 0 36 0;
#X connect 26 0 5 1;
#X connect 27 0 17 1;
#X connect 27 0 29 1;
#X connect 28 0 14 1;
#X connect 28 0 14 0;
#X connect 28 0 27 1;
#X connect 29 0 35 0;
#X connect 30 0 6 0;
#X connect 31 0 10 0;
#X connect 32 0 31 0;
#X connect 33 0 29 0;
#X connect 34 0 30 0;
#X connect 35 0 30 1;
#X connect 36 0 21 1;
#X connect 37 0 28 0;
#X connect 38 0 28 0;
#X connect 39 0 40 0;
#X connect 40 0 41 0;
#X connect 41 0 5 0;
#X connect 41 2 38 0;
