#N canvas 426 50 937 900 10;
#X obj 309 225 mtof;
#X obj 327 176 inlet;
#X obj 295 727 outlet~;
#X obj 302 654 s_buzz;
#X obj 342 438 -~ 1;
#X obj 342 460 abs~;
#X obj 341 504 *~;
#X obj 340 592 *~;
#X obj 342 383 /~ 5000;
#X obj 341 408 clip~ 0 5000;
#X obj 295 299 line~;
#X msg 290 259 \$1 50;
#X obj 301 344 *~ 1;
#X obj 510 221 mtof;
#X obj 503 650 s_buzz;
#X obj 543 434 -~ 1;
#X obj 543 456 abs~;
#X obj 542 500 *~;
#X obj 541 588 *~;
#X obj 543 379 /~ 5000;
#X obj 542 404 clip~ 0 5000;
#X obj 496 285 line~;
#X msg 491 255 \$1 50;
#X obj 502 340 *~ 1;
#X obj 620 524 sig~ 0;
#X text 566 313 for phasing;
#X obj 496 309 +~ 0.08;
#X obj 419 528 sig~ 0.05;
#X text 320 8 Drone Voice;
#X text 304 152 note number;
#X text 698 520 buzziness;
#X connect 0 0 11 0;
#X connect 1 0 0 0;
#X connect 1 0 13 0;
#X connect 3 0 2 0;
#X connect 4 0 5 0;
#X connect 5 0 6 1;
#X connect 5 0 6 0;
#X connect 6 0 7 0;
#X connect 7 0 3 1;
#X connect 8 0 9 0;
#X connect 9 0 4 0;
#X connect 10 0 12 0;
#X connect 11 0 10 0;
#X connect 12 0 3 0;
#X connect 12 0 8 0;
#X connect 13 0 22 0;
#X connect 14 0 2 0;
#X connect 15 0 16 0;
#X connect 16 0 17 1;
#X connect 16 0 17 0;
#X connect 17 0 18 0;
#X connect 18 0 14 1;
#X connect 19 0 20 0;
#X connect 20 0 15 0;
#X connect 21 0 26 0;
#X connect 22 0 21 0;
#X connect 23 0 14 0;
#X connect 23 0 19 0;
#X connect 24 0 18 1;
#X connect 26 0 23 0;
#X connect 27 0 7 1;
