#N canvas 255 50 1107 682 10;
#X declare -path cg-pd-library-local/sampling;
#X declare -path cg-pd-library-local/sequencer;
#X declare -path cg-pd-library-local/externals;
#X declare -path cg-pd-library-local/metronome;
#X obj 59 766 throw~ outL;
#X obj 78 744 throw~ outR;
#X obj 29 359 pack 0 0 0, f 11;
#N canvas 4 50 1358 682 knobs 0;
#X obj 55 181 change -1;
#X obj 55 553 s count;
#X obj 160 271 moses 0;
#X obj 199 292 moses 1;
#X obj 160 294 t b;
#X text 215 271 0 = down \, 1 = nothing \, 2 = up;
#X obj 199 313 t b;
#X obj 238 314 t b;
#X obj 160 315 f 0;
#X obj 199 334 f 1;
#X obj 238 335 f 2;
#X obj 199 363 s direction;
#X obj 55 243 t a a a, f 18;
#X obj 803 397 s del-time;
#X obj 1055 191 change -1;
#X obj 803 227 t a a;
#X obj 1055 212 t a a;
#X obj 1082 240 s decay-time;
#X obj 830 254 i;
#X obj 55 85 r knob1;
#X obj 146 522 s screenLine1;
#X obj 448 133 change -1;
#X obj 1255 127 text define unison;
#X obj 1255 49 r load-text-files;
#X msg 1255 70 read unison.txt;
#X msg 1270 96 write unison.txt;
#X obj 448 161 text get unison;
#X obj 448 182 unpack 0 s;
#X obj 448 347 s tune-uni;
#X obj 26 54 r seq3-k1;
#X obj 146 483 cg-knob-mute-sc;
#X obj 233 454 r cgSc-1-mute-print;
#X obj 830 335 cg-knob-mute-sc;
#X obj 917 306 r cgSc-1-mute-print;
#X obj 1055 336 cg-knob-mute-sc;
#X obj 1142 307 r cgSc-1-mute-print;
#X obj 505 249 cg-knob-mute-sc;
#X obj 592 230 r cgSc-1-mute-print;
#X obj 421 46 r seq3-k2;
#X obj 484 50 r knob2;
#X obj 505 290 s screenLine2;
#X obj 793 60 r seq3-k3;
#X obj 813 100 r knob3;
#X obj 830 368 s screenLine3;
#X obj 1055 404 s screenLine4;
#X obj 1055 90 r knob4;
#X obj 1041 70 r seq3-k4;
#X msg 1055 377 4: Length: \$1 ms;
#X msg 829 281 3: Roll Speed: \$1ms;
#X obj 792 183 change -1;
#X obj 1052 166 cg-knob-scale 25 3000 25;
#X obj 448 100 cg-knob-scale 0 12 1;
#X msg 146 426 1: Range: +\$1 Oct;
#X msg 107 451 1: Range: \$1 Oct;
#X obj 107 366 moses 1;
#X msg 505 206 2: Unison: \$1;
#X obj 55 133 cg-knob-scale -5 5 1;
#X obj 793 162 cg-knob-scale 25 3000 25;
#X connect 0 0 12 0;
#X connect 2 0 4 0;
#X connect 2 1 3 0;
#X connect 3 0 6 0;
#X connect 3 1 7 0;
#X connect 4 0 8 0;
#X connect 6 0 9 0;
#X connect 7 0 10 0;
#X connect 8 0 11 0;
#X connect 9 0 11 0;
#X connect 10 0 11 0;
#X connect 12 0 1 0;
#X connect 12 1 54 0;
#X connect 12 2 2 0;
#X connect 14 0 16 0;
#X connect 15 0 13 0;
#X connect 15 1 18 0;
#X connect 16 0 34 0;
#X connect 16 1 17 0;
#X connect 18 0 48 0;
#X connect 19 0 56 0;
#X connect 21 0 26 0;
#X connect 23 0 24 0;
#X connect 24 0 22 0;
#X connect 26 0 27 0;
#X connect 27 0 28 0;
#X connect 27 1 55 0;
#X connect 29 0 56 0;
#X connect 30 0 20 0;
#X connect 31 0 30 1;
#X connect 32 0 43 0;
#X connect 33 0 32 1;
#X connect 34 0 47 0;
#X connect 35 0 34 1;
#X connect 36 0 40 0;
#X connect 37 0 36 1;
#X connect 38 0 51 0;
#X connect 39 0 51 0;
#X connect 41 0 57 0;
#X connect 42 0 57 0;
#X connect 45 0 50 0;
#X connect 46 0 50 0;
#X connect 47 0 44 0;
#X connect 48 0 32 0;
#X connect 49 0 15 0;
#X connect 50 0 14 0;
#X connect 51 0 21 0;
#X connect 52 0 30 0;
#X connect 53 0 30 0;
#X connect 54 0 53 0;
#X connect 54 1 52 0;
#X connect 55 0 36 0;
#X connect 56 0 0 0;
#X connect 57 0 49 0;
#X restore 30 126 pd knobs;
#X obj 29 339 - 1;
#X obj 60 708 catch~ voice-out;
#N canvas 4 50 450 300 load 0;
#X obj 67 34 loadbang;
#X obj 67 55 t b b b b b b;
#X obj 148 99 s load-text-files;
#X obj 133 137 s recall-params;
#X obj 113 170 s load-the-wavetables;
#X obj 82 221 s midiOutGate;
#X msg 86 196 0;
#X obj 39 250 s seq3-init;
#X connect 0 0 1 0;
#X connect 1 1 7 0;
#X connect 1 2 6 0;
#X connect 1 3 4 0;
#X connect 1 4 3 0;
#X connect 1 5 2 0;
#X connect 6 0 5 0;
#X restore 31 35 pd load;
#N canvas 19 51 625 625 metro-here 0;
#X obj 369 147 r seq3-1-actions, f 19;
#X obj 312 345 f;
#X msg 407 250 0;
#X obj 439 250 t b b;
#X msg 445 280 1;
#X obj 312 292 del 1;
#X obj 54 303 s beat-clock;
#X obj 176 83 loadbang;
#X msg 53 121 1;
#X obj 203 353 list, f 7;
#X obj 203 375 route 69;
#X obj 203 281 t b a;
#X msg 203 323 69;
#X msg 176 105 120;
#X obj 177 221 pack, f 10;
#X obj 212 189 t b a;
#X obj 319 117 s seq3-1-quan;
#X obj 400 338 f;
#X obj 203 397 spigot 1;
#X obj 312 367 spigot 1, f 14;
#X obj 296 472 r cgSc-1-slots;
#X obj 296 498 + 1;
#X obj 203 552 print-line5 1, f 16;
#X obj 319 88 r metro-state;
#X obj 486 346 loadbang;
#X obj 296 519 f;
#X obj 486 388 t b b;
#X obj 312 428 f;
#X obj 486 367 del 1;
#X obj 407 179 r cgSc-1-mute-print;
#X obj 407 202 sel 1;
#X obj 54 151 metronome360 1, f 18;
#X connect 0 0 1 0;
#X connect 1 0 19 0;
#X connect 2 0 17 0;
#X connect 3 0 5 0;
#X connect 3 1 4 0;
#X connect 4 0 17 0;
#X connect 5 0 1 0;
#X connect 5 0 12 0;
#X connect 7 0 13 0;
#X connect 7 0 8 0;
#X connect 8 0 31 0;
#X connect 9 0 10 0;
#X connect 10 0 18 0;
#X connect 11 0 12 0;
#X connect 11 1 9 1;
#X connect 12 0 9 0;
#X connect 13 0 31 1;
#X connect 14 0 11 0;
#X connect 15 0 14 0;
#X connect 15 1 14 1;
#X connect 17 0 18 1;
#X connect 17 0 19 1;
#X connect 18 0 22 0;
#X connect 19 0 27 0;
#X connect 20 0 21 0;
#X connect 21 0 25 0;
#X connect 23 0 16 0;
#X connect 24 0 28 0;
#X connect 25 0 22 2;
#X connect 26 0 27 0;
#X connect 26 1 25 0;
#X connect 27 0 22 1;
#X connect 28 0 26 0;
#X connect 29 0 30 0;
#X connect 30 0 2 0;
#X connect 30 1 3 0;
#X connect 31 0 6 0;
#X connect 31 1 15 0;
#X connect 31 2 14 0;
#X restore 22 236 pd metro-here;
#N canvas 787 330 860 595 slot-saver-1 0;
#X obj 167 38 r cgSc-1-slots;
#X obj 30 68 loadbang;
#X msg 30 140 0;
#X obj 30 161 tabread \$0-slot;
#X obj 199 225 array define \$0-slot;
#X obj 30 110 t b b;
#X msg 199 138 read slot.txt;
#X msg 243 186 write slot.txt;
#X obj 243 160 r saveState;
#X obj 167 58 t a b;
#X msg 220 84 0;
#X obj 167 107 tabwrite \$0-slot;
#X obj 30 185 s cgSc-1-slots;
#X connect 0 0 9 0;
#X connect 1 0 5 0;
#X connect 2 0 3 0;
#X connect 3 0 12 0;
#X connect 5 0 2 0;
#X connect 5 1 6 0;
#X connect 6 0 4 0;
#X connect 7 0 4 0;
#X connect 8 0 7 0;
#X connect 9 0 11 0;
#X connect 9 1 10 0;
#X connect 10 0 11 1;
#X restore 25 201 pd slot-saver-1;
#X obj 859 242 r seq3-1-led;
#X obj 859 263 s led;
#X text 180 710 Sound out;
#X text 80 35 init sequence;
#X text 170 102 critter library of abstractions;
#X obj 29 281 r notes-post-sc;
#X obj 29 318 poly 8 1, f 11;
#X obj 29 404 clone voice 8;
#N canvas 8 50 1726 759 shortcuts 0;
#X obj 1153 79 r saveState;
#X msg 1125 53 read waves.txt;
#X msg 1153 321 write waves.txt;
#X obj 1126 362 text define waves-txt;
#X obj 1125 28 r load-text-files;
#X obj 291 47 r recall-params;
#X obj 22 37 r cgSc-1-6;
#X obj 22 58 sel 0;
#X obj 49 80 t b;
#X obj 228 490 s cgSc-1-6label;
#X obj 1334 436 text set waves-txt;
#X obj 107 51 sel 0;
#X obj 134 73 t b;
#X obj 661 208 sel 0;
#X obj 688 230 t b;
#X obj 751 204 sel 0;
#X obj 778 226 t b;
#X obj 291 98 text get waves-txt;
#X obj 291 68 f 0;
#X obj 107 30 r cgSc-1-7;
#X obj 255 467 s cgSc-1-7label;
#X obj 842 662 s cgSc-1-8label;
#X obj 661 187 r cgSc-1-8;
#X obj 948 658 s cgSc-1-9label;
#X obj 751 183 r cgSc-1-9;
#X obj 201 535 s wave-select;
#X obj 383 460 r wave-select;
#X obj 1572 203 r wave-select;
#X obj 1553 232 f;
#X obj 291 119 s wave-select;
#X obj 163 177 + 1;
#X obj 49 151 t b a, f 22;
#X obj 163 198 moses 1;
#X obj 163 219 t b;
#X obj 174 279 f;
#X obj 202 219 moses 5;
#X obj 237 241 t b;
#X obj 237 262 f 1;
#X obj 49 175 f 1, f 11;
#X obj 163 240 f 4;
#X msg 49 103 -1;
#X msg 134 94 1;
#X obj 174 302 t f f;
#X obj 201 328 t f f;
#X obj 228 358 sel 1 2 3 4, f 26;
#X msg 228 379 Sine;
#X msg 268 379 Sqr;
#X msg 304 379 Saw;
#X msg 342 381 Tri;
#X obj 228 423 list prepend Wave:;
#X obj 228 444 t a a;
#X obj 244 131 - 1;
#X obj 822 439 s transpose;
#X obj 802 320 + 1;
#X obj 688 294 t b a, f 22;
#X msg 688 255 -1;
#X msg 778 246 1;
#X obj 802 341 clip -4 4;
#X obj 688 318 f 0, f 11;
#X msg 880 522 +\$1;
#X obj 880 548 symbol;
#X msg 948 628 OctUp: \$1;
#X msg 842 627 OctDwn: \$1;
#X obj 842 588 t a a;
#X obj 802 475 moses 0;
#X obj 841 496 moses 1;
#X obj 1459 194 r transpose;
#X obj 1444 216 f;
#X obj 822 416 * 12;
#X obj 591 100 r recall-params;
#X obj 591 151 text get waves-txt;
#X obj 591 121 f 1;
#X obj 1341 239 f;
#X obj 591 172 - 0;
#X obj 1444 238 / 12;
#X obj 1454 274 i;
#X obj 802 362 t a a;
#X obj 377 499 sel 1 2 3 4, f 20;
#X obj 393 594 symbol;
#X obj 393 615 list prepend set;
#X obj 393 636 list trim;
#X obj 393 657 s set-wave-tab;
#X msg 401 535 wave-2;
#X msg 353 541 wave-1;
#X msg 453 544 wave-3;
#X msg 497 521 wave-4;
#X msg 1226 667 Loop: 1x;
#X obj 1226 508 f 1;
#X obj 1263 508 + 1;
#X obj 1263 529 == 1;
#X obj 988 373 r recall-params;
#X obj 988 424 text get waves-txt;
#X obj 1334 412 unpack 0 0;
#X obj 1543 314 pack 0 0;
#X obj 1452 301 pack 0 1;
#X obj 1341 260 pack 0 2;
#X obj 1153 108 t b b b b b, f 38;
#X obj 1226 697 s cgSc-1-10label;
#X obj 1199 447 sel 0;
#X obj 1226 469 t b;
#X obj 1199 426 r cgSc-1-10;
#X obj 1226 600 sel 0 1;
#X obj 1226 566 t a a, f 17;
#X obj 1325 605 s global-loop;
#X msg 1245 634 Loop: inf;
#X obj 1361 205 r global-loop;
#X obj 988 394 f 2;
#X connect 0 0 96 0;
#X connect 1 0 3 0;
#X connect 2 0 3 0;
#X connect 4 0 1 0;
#X connect 5 0 18 0;
#X connect 6 0 7 0;
#X connect 7 1 8 0;
#X connect 8 0 40 0;
#X connect 11 1 12 0;
#X connect 12 0 41 0;
#X connect 13 1 14 0;
#X connect 14 0 55 0;
#X connect 15 1 16 0;
#X connect 16 0 56 0;
#X connect 17 0 29 0;
#X connect 17 0 51 0;
#X connect 18 0 17 0;
#X connect 19 0 11 0;
#X connect 22 0 13 0;
#X connect 24 0 15 0;
#X connect 26 0 77 0;
#X connect 27 0 28 1;
#X connect 28 0 93 0;
#X connect 30 0 32 0;
#X connect 31 0 38 0;
#X connect 31 1 30 1;
#X connect 32 0 33 0;
#X connect 32 1 35 0;
#X connect 33 0 39 0;
#X connect 34 0 42 0;
#X connect 35 0 34 0;
#X connect 35 1 36 0;
#X connect 36 0 37 0;
#X connect 37 0 34 0;
#X connect 38 0 30 0;
#X connect 39 0 34 0;
#X connect 40 0 31 0;
#X connect 41 0 31 0;
#X connect 42 0 38 1;
#X connect 42 1 43 0;
#X connect 43 0 25 0;
#X connect 43 1 44 0;
#X connect 44 0 45 0;
#X connect 44 1 46 0;
#X connect 44 2 47 0;
#X connect 44 3 48 0;
#X connect 45 0 49 0;
#X connect 46 0 49 0;
#X connect 47 0 49 0;
#X connect 48 0 49 0;
#X connect 49 0 50 0;
#X connect 50 0 9 0;
#X connect 50 1 20 0;
#X connect 51 0 38 0;
#X connect 53 0 57 0;
#X connect 54 0 58 0;
#X connect 54 1 53 1;
#X connect 55 0 54 0;
#X connect 56 0 54 0;
#X connect 57 0 58 1;
#X connect 57 0 76 0;
#X connect 58 0 53 0;
#X connect 59 0 60 0;
#X connect 60 0 63 0;
#X connect 61 0 23 0;
#X connect 62 0 21 0;
#X connect 63 0 62 0;
#X connect 63 1 61 0;
#X connect 64 0 63 0;
#X connect 64 1 65 0;
#X connect 65 0 63 0;
#X connect 65 1 59 0;
#X connect 66 0 67 1;
#X connect 67 0 74 0;
#X connect 68 0 52 0;
#X connect 69 0 71 0;
#X connect 70 0 73 0;
#X connect 71 0 70 0;
#X connect 72 0 95 0;
#X connect 73 0 58 0;
#X connect 74 0 75 0;
#X connect 75 0 94 0;
#X connect 76 0 64 0;
#X connect 76 1 68 0;
#X connect 77 0 83 0;
#X connect 77 1 82 0;
#X connect 77 2 84 0;
#X connect 77 3 85 0;
#X connect 78 0 79 0;
#X connect 79 0 80 0;
#X connect 80 0 81 0;
#X connect 82 0 78 0;
#X connect 83 0 78 0;
#X connect 84 0 78 0;
#X connect 85 0 78 0;
#X connect 86 0 97 0;
#X connect 87 0 88 0;
#X connect 87 0 102 0;
#X connect 88 0 89 0;
#X connect 89 0 87 1;
#X connect 90 0 106 0;
#X connect 91 0 87 0;
#X connect 92 0 10 0;
#X connect 92 1 10 1;
#X connect 93 0 92 0;
#X connect 94 0 92 0;
#X connect 95 0 92 0;
#X connect 96 0 2 0;
#X connect 96 2 72 0;
#X connect 96 3 67 0;
#X connect 96 4 28 0;
#X connect 98 1 99 0;
#X connect 99 0 87 0;
#X connect 100 0 98 0;
#X connect 101 0 86 0;
#X connect 101 1 104 0;
#X connect 102 0 101 0;
#X connect 102 1 103 0;
#X connect 104 0 97 0;
#X connect 105 0 72 1;
#X connect 106 0 91 0;
#X restore 29 166 pd shortcuts;
#N canvas 358 233 683 503 midi-out 0;
#X obj 160 407 noteout, f 12;
#X obj 229 377 r midiOutCh;
#X obj 160 357 unpack;
#X obj 126 70 r voices-midi-out;
#X obj 243 154 r decay-time;
#X obj 126 101 stripnote;
#X obj 243 176 clip 5 3000, f 13;
#X obj 126 296 clone 8 cg-make-note;
#X obj 126 154 poly 8 1, f 10;
#X obj 126 196 pack 0 0 0;
#X obj 126 175 - 1;
#X obj 126 128 pack, f 9;
#X obj 243 197 list prepend all;
#X obj 243 218 list trim;
#X obj 126 317 list split 1;
#X connect 1 0 0 2;
#X connect 2 0 0 0;
#X connect 2 1 0 1;
#X connect 3 0 5 0;
#X connect 4 0 6 0;
#X connect 5 0 11 0;
#X connect 5 1 11 1;
#X connect 6 0 12 0;
#X connect 7 0 14 0;
#X connect 8 0 10 0;
#X connect 8 1 9 1;
#X connect 8 2 9 2;
#X connect 9 0 7 0;
#X connect 10 0 9 0;
#X connect 11 0 8 0;
#X connect 12 0 13 0;
#X connect 13 0 7 2;
#X connect 14 1 2 0;
#X restore 28 470 pd midi-out;
#N canvas 892 170 651 455 wavetable-bank 0;
#X obj 40 36 r load-the-wavetables;
#X obj 40 57 t b;
#X obj 40 99 t a b, f 9;
#X obj 40 120 until;
#X obj 40 161 f;
#X obj 90 162 + 1;
#X msg 91 121 1;
#X obj 40 388 clone -s 1 4 cg-waveform-load wave;
#X obj 40 182 t a a;
#X msg 41 78 4;
#X obj 40 323 pack 0 s;
#X obj 69 201 sel 1 2 3 4, f 20;
#X msg 45 243 sine;
#X msg 93 237 square;
#X msg 145 246 saw;
#X msg 189 223 triangle;
#X obj 85 296 symbol;
#X msg 40 349 \$1 ../../waveforms/\$2.wav;
#X connect 0 0 1 0;
#X connect 1 0 9 0;
#X connect 2 0 3 0;
#X connect 2 1 6 0;
#X connect 3 0 4 0;
#X connect 4 0 5 0;
#X connect 4 0 8 0;
#X connect 5 0 4 1;
#X connect 6 0 4 1;
#X connect 8 0 10 0;
#X connect 8 1 11 0;
#X connect 9 0 2 0;
#X connect 10 0 17 0;
#X connect 11 0 12 0;
#X connect 11 1 13 0;
#X connect 11 2 14 0;
#X connect 11 3 15 0;
#X connect 12 0 16 0;
#X connect 13 0 16 0;
#X connect 14 0 16 0;
#X connect 15 0 16 0;
#X connect 16 0 10 1;
#X connect 17 0 7 0;
#X restore 29 72 pd wavetable-bank;
#N canvas 13 50 450 300 cg-pd-library-local 0;
#X obj 502 35 r cgSc-1-slots;
#X obj 60 68 declare -path cg-pd-library-local/sampling;
#X obj 60 98 declare -path cg-pd-library-local/sequencer;
#X obj 58 130 declare -path cg-pd-library-local/externals;
#X obj 59 165 declare -path cg-pd-library-local/metronome;
#X restore 25 100 pd cg-pd-library-local;
#X obj 545 112 r aux;
#X obj 662 112 r \$0-reprint-port;
#X obj 644 446 r beat-clock;
#X obj 545 142 cg-shortcut 1 1, f 20;
#N canvas 4 50 1495 708 the-knobs 0;
#X obj 280 211 r knob1;
#X obj 414 205 r knob2;
#X obj 532 208 r knob3;
#X obj 673 208 r knob4;
#X obj 503 439 outlet;
#X obj 221 295 seq-format-event knob1;
#X obj 401 293 seq-format-event knob2;
#X obj 566 292 seq-format-event knob3;
#X obj 747 289 seq-format-event knob4;
#X connect 0 0 5 0;
#X connect 1 0 6 0;
#X connect 2 0 7 0;
#X connect 3 0 8 0;
#X connect 5 0 4 0;
#X connect 6 0 4 0;
#X connect 7 0 4 0;
#X connect 8 0 4 0;
#X restore 563 217 pd the-knobs;
#X obj 545 171 list prepend notes;
#X obj 545 192 list trim;
#N canvas 10 50 1276 866 auto-knobs-notes-through 0;
#X obj 438 185 inlet;
#X obj 852 503 outlet;
#X obj 562 398 s seq3-k3;
#X obj 537 440 s seq3-k2;
#X obj 435 470 s seq3-k1;
#X obj 663 357 s seq3-k4;
#X obj 435 295 route knob1 knob2 knob3 knob4 notes, f 64;
#X connect 0 0 6 0;
#X connect 6 0 4 0;
#X connect 6 1 3 0;
#X connect 6 2 2 0;
#X connect 6 3 5 0;
#X connect 6 4 1 0;
#X restore 545 521 pd auto-knobs-notes-through;
#X obj 545 554 s notes-post-sc;
#X obj 545 471 seq3 1 0 ../../sequences 1, f 17;
#X obj 700 298 list prepend slot;
#X obj 700 319 list trim;
#X msg 627 294 init;
#X obj 627 270 r seq3-init;
#X obj 594 239 cg-standard-sc-seq3-control 1;
#X obj 700 276 r cgSc-1-slots;
#X obj 774 366 cg-standard-sc-seq3-print 1 1;
#X obj 674 381 r saveState;
#X msg 674 402 save;
#X msg 324 334 2000;
#X obj 324 355 / 25;
#X floatatom 324 376 5 0 0 0 - - -;
#X msg 275 457 2000;
#X obj 275 478 / 80;
#X floatatom 275 499 5 0 0 0 - - -;
#X connect 2 0 16 0;
#X connect 4 0 2 0;
#X connect 5 0 0 0;
#X connect 5 0 1 0;
#X connect 9 0 10 0;
#X connect 14 0 15 0;
#X connect 15 0 4 0;
#X connect 15 1 2 1;
#X connect 15 2 2 2;
#X connect 21 0 24 0;
#X connect 22 0 24 1;
#X connect 23 0 30 2;
#X connect 24 0 26 0;
#X connect 25 0 30 0;
#X connect 26 0 27 0;
#X connect 27 0 30 0;
#X connect 28 0 29 0;
#X connect 30 0 28 0;
#X connect 31 0 32 0;
#X connect 32 0 30 1;
#X connect 33 0 30 1;
#X connect 34 0 33 0;
#X connect 35 0 30 1;
#X connect 36 0 31 0;
#X connect 38 0 39 0;
#X connect 39 0 30 1;
#X connect 40 0 41 0;
#X connect 41 0 42 0;
#X connect 43 0 44 0;
#X connect 44 0 45 0;
