#N canvas 556 50 1082 940 10;
#X text 352 43 note messages;
#X obj 258 850 *~;
#X obj 304 44 inlet;
#X text 113 486 change waveform;
#X text 25 10 synth voice with waveform change;
#X obj 258 916 throw~ voice-out;
#X obj 766 584 pow~ 2;
#X obj 766 562 vline~;
#N canvas 8 70 1189 716 waves 0;
#X obj 110 422 outlet~;
#X obj 87 123 mtof~;
#X obj 86 87 inlet~;
#X obj 109 269 tabosc4~;
#X obj 172 187 r set-wave-tab;
#X obj 308 199 r wave-select;
#X obj 109 380 *~, f 23;
#X obj 272 250 sel 1 2 3 4, f 40;
#X obj 244 356 line~;
#X obj 244 329 pack 0 25;
#X obj 272 271 f 0.5;
#X obj 449 272 f 0.5;
#X obj 390 272 f 0.5;
#X obj 331 271 f 0.38;
#X obj 647 12 inlet;
#X connect 1 0 3 0;
#X connect 2 0 1 0;
#X connect 3 0 6 0;
#X connect 4 0 3 0;
#X connect 5 0 7 0;
#X connect 6 0 0 0;
#X connect 7 0 10 0;
#X connect 7 1 13 0;
#X connect 7 2 12 0;
#X connect 7 3 11 0;
#X connect 8 0 6 1;
#X connect 9 0 8 0;
#X connect 10 0 9 0;
#X connect 11 0 9 0;
#X connect 12 0 9 0;
#X connect 13 0 9 0;
#X connect 14 0 3 1;
#X restore 257 491 pd waves;
#X obj 256 445 r~ \$0-midi;
#X obj 304 316 s~ \$0-midi;
#X obj 258 871 *~ 0.9;
#X obj 258 892 hip~ 5;
#X msg 629 375 stop;
#X obj 592 428 f 0;
#X obj 887 888 switch~;
#X obj 934 396 f 1;
#X obj 766 355 / 127;
#X obj 766 376 sqrt;
#X obj 304 216 unpack;
#X obj 592 407 del 8, f 11;
#X obj 592 327 t b b b, f 13;
#X msg 667 395 0 8, f 4;
#X obj 766 442 pack 0 0;
#X obj 811 406 r decay-time;
#X obj 304 73 waterFall-compose;
#X obj 304 174 t a a;
#X obj 403 178 t a a;
#X obj 487 234 s voices-midi-out;
#X obj 347 451 r~ \$0-midi-2;
#X obj 403 223 unpack;
#X obj 403 323 s~ \$0-midi-2;
#X obj 304 257 lop~ 2000;
#X obj 403 264 lop~ 2000;
#X obj 304 94 unpack 0 0;
#X obj 403 96 unpack 0 0;
#X obj 304 115 +;
#X obj 403 117 +;
#X obj 304 136 pack;
#X obj 403 138 pack;
#X obj 523 34 r transpose;
#X obj 523 55 t a a;
#X obj 257 512 *~ 0.707;
#X obj 349 507 *~ 0.707;
#X obj 510 122 r tune-uni;
#X text 513 104 unison;
#X obj 510 143 sel 0;
#X obj 539 166 t b;
#X msg 539 187 1;
#X msg 510 164 0;
#X obj 487 211 spigot 0;
#N canvas 8 70 1189 716 waves 0;
#X obj 110 422 outlet~;
#X obj 87 123 mtof~;
#X obj 86 87 inlet~;
#X obj 109 269 tabosc4~;
#X obj 172 187 r set-wave-tab;
#X obj 308 199 r wave-select;
#X obj 109 380 *~, f 23;
#X obj 272 250 sel 1 2 3 4, f 40;
#X obj 244 356 line~;
#X obj 244 329 pack 0 25;
#X obj 272 271 f 0.5;
#X obj 449 272 f 0.5;
#X obj 390 272 f 0.5;
#X obj 331 271 f 0.38;
#X obj 485 48 inlet;
#X connect 1 0 3 0;
#X connect 2 0 1 0;
#X connect 3 0 6 0;
#X connect 4 0 3 0;
#X connect 5 0 7 0;
#X connect 6 0 0 0;
#X connect 7 0 10 0;
#X connect 7 1 13 0;
#X connect 7 2 12 0;
#X connect 7 3 11 0;
#X connect 8 0 6 1;
#X connect 9 0 8 0;
#X connect 10 0 9 0;
#X connect 11 0 9 0;
#X connect 12 0 9 0;
#X connect 13 0 9 0;
#X connect 14 0 3 1;
#X restore 348 480 pd waves;
#X obj 766 184 t a b b b b, f 18;
#X obj 872 241 s \$0-phase;
#X obj 341 375 r \$0-phase;
#X obj 341 396 t b b, f 8;
#X obj 341 417 f 0;
#X obj 392 422 f 0;
#X obj 661 80 sel 0, f 18;
#X msg 766 488 0 3 \, \$1 8 3 \, 0 \$2 11;
#X obj 871 216 del 3;
#X connect 1 0 11 0;
#X connect 2 0 25 0;
#X connect 6 0 1 1;
#X connect 7 0 6 0;
#X connect 8 0 42 0;
#X connect 9 0 8 0;
#X connect 11 0 12 0;
#X connect 12 0 5 0;
#X connect 13 0 20 0;
#X connect 14 0 15 0;
#X connect 16 0 15 0;
#X connect 17 0 18 0;
#X connect 18 0 23 0;
#X connect 19 0 32 0;
#X connect 19 1 58 0;
#X connect 20 0 14 0;
#X connect 21 0 20 0;
#X connect 21 1 13 0;
#X connect 21 2 22 0;
#X connect 22 0 7 0;
#X connect 23 0 59 0;
#X connect 24 0 23 1;
#X connect 25 0 34 0;
#X connect 25 1 35 0;
#X connect 26 0 19 0;
#X connect 26 1 28 0;
#X connect 27 0 30 0;
#X connect 27 1 50 0;
#X connect 29 0 51 0;
#X connect 30 0 33 0;
#X connect 32 0 10 0;
#X connect 33 0 31 0;
#X connect 34 0 36 0;
#X connect 34 1 38 1;
#X connect 35 0 37 0;
#X connect 35 1 39 1;
#X connect 36 0 38 0;
#X connect 37 0 39 0;
#X connect 38 0 26 0;
#X connect 39 0 27 0;
#X connect 40 0 41 0;
#X connect 41 0 36 1;
#X connect 41 1 37 1;
#X connect 42 0 1 0;
#X connect 43 0 1 0;
#X connect 44 0 46 0;
#X connect 46 0 49 0;
#X connect 46 1 47 0;
#X connect 47 0 48 0;
#X connect 48 0 50 1;
#X connect 49 0 50 1;
#X connect 50 0 28 0;
#X connect 51 0 43 0;
#X connect 52 0 17 0;
#X connect 52 2 16 0;
#X connect 52 3 13 0;
#X connect 52 4 60 0;
#X connect 54 0 55 0;
#X connect 55 0 56 0;
#X connect 55 1 57 0;
#X connect 56 0 8 1;
#X connect 57 0 51 1;
#X connect 58 0 21 0;
#X connect 58 1 52 0;
#X connect 59 0 7 0;
#X connect 60 0 53 0;
