#N canvas 194 267 1388 649 10;
#N canvas 484 353 812 431 the-knobs 0;
#X obj 53 13 r knob1;
#X obj 279 14 r knob2;
#X obj 53 216 r knob3;
#X obj 279 208 r knob4;
#X obj 53 63 list prepend;
#X obj 633 17 inlet;
#X obj 633 39 s \$0-current-page;
#X obj 134 38 r \$0-current-page;
#X obj 53 85 list trim;
#X obj 279 63 list prepend;
#X obj 360 38 r \$0-current-page;
#X obj 279 85 list trim;
#X obj 53 263 list prepend;
#X obj 134 238 r \$0-current-page;
#X obj 53 285 list trim;
#X obj 279 263 list prepend;
#X obj 360 238 r \$0-current-page;
#X obj 279 285 list trim;
#X obj 53 109 s \$0-knobb1;
#X obj 279 108 s \$0-knobb2;
#X obj 279 308 s \$0-knobb4;
#X obj 53 309 s \$0-knobb3;
#X connect 0 0 4 0;
#X connect 1 0 9 0;
#X connect 2 0 12 0;
#X connect 3 0 15 0;
#X connect 4 0 8 0;
#X connect 5 0 6 0;
#X connect 7 0 4 1;
#X connect 8 0 18 0;
#X connect 9 0 11 0;
#X connect 10 0 9 1;
#X connect 11 0 19 0;
#X connect 12 0 14 0;
#X connect 13 0 12 1;
#X connect 14 0 21 0;
#X connect 15 0 17 0;
#X connect 16 0 15 1;
#X connect 17 0 20 0;
#X restore 40 78 pd the-knobs;
#X obj 40 15 inlet which-page?;
#X obj 87 277 r \$0-knobb1;
#X obj 86 301 route 1 2 3 4 5, f 39;
#X obj 86 350 f;
#X obj 86 372 s p1k1;
#X obj 140 349 f;
#X obj 194 349 f;
#X obj 248 348 f;
#X obj 302 348 f;
#X obj 40 37 t f f, f 21;
#X obj 184 76 sel 1 2 3 4 5, f 87;
#X msg 184 153 \; \$2-knobb1 \$1 \; \$2-knobb2 \$1 \; \$2-knobb3 \$1
\; \$2-knobb4 \$1 \;;
#X obj 184 123 pack 0 \$0;
#X msg 184 98 1;
#X msg 305 152 \; \$2-knobb1 \$1 \; \$2-knobb2 \$1 \; \$2-knobb3 \$1
\; \$2-knobb4 \$1 \;;
#X obj 305 122 pack 0 \$0;
#X msg 305 97 2;
#X msg 426 153 \; \$2-knobb1 \$1 \; \$2-knobb2 \$1 \; \$2-knobb3 \$1
\; \$2-knobb4 \$1 \;;
#X obj 426 123 pack 0 \$0;
#X msg 547 153 \; \$2-knobb1 \$1 \; \$2-knobb2 \$1 \; \$2-knobb3 \$1
\; \$2-knobb4 \$1 \;;
#X obj 547 123 pack 0 \$0;
#X msg 426 98 3;
#X msg 547 98 4;
#X msg 668 154 \; \$2-knobb1 \$1 \; \$2-knobb2 \$1 \; \$2-knobb3 \$1
\; \$2-knobb4 \$1 \;;
#X obj 668 124 pack 0 \$0;
#X msg 668 99 5;
#X obj 140 371 s p2k1;
#X obj 194 371 s p3k1;
#X obj 248 370 s p4k1;
#X obj 302 370 s p5k1;
#X obj 450 306 route 1 2 3 4 5, f 39;
#X obj 450 355 f;
#X obj 504 354 f;
#X obj 558 354 f;
#X obj 612 353 f;
#X obj 666 353 f;
#X obj 450 282 r \$0-knobb2;
#X obj 450 377 s p1k2;
#X obj 504 376 s p2k2;
#X obj 558 376 s p3k2;
#X obj 612 375 s p4k2;
#X obj 666 375 s p5k2;
#X obj 89 458 route 1 2 3 4 5, f 39;
#X obj 89 507 f;
#X obj 143 506 f;
#X obj 197 506 f;
#X obj 251 505 f;
#X obj 305 505 f;
#X obj 453 463 route 1 2 3 4 5, f 39;
#X obj 453 512 f;
#X obj 507 511 f;
#X obj 561 511 f;
#X obj 615 510 f;
#X obj 669 510 f;
#X obj 89 434 r \$0-knobb3;
#X obj 91 529 s p1k3;
#X obj 143 528 s p2k3;
#X obj 198 528 s p3k3;
#X obj 251 527 s p4k3;
#X obj 305 527 s p5k3;
#X obj 453 534 s p1k4;
#X obj 508 533 s p2k4;
#X obj 561 532 s p3k4;
#X obj 615 532 s p4k4;
#X obj 669 532 s p5k4;
#X obj 453 440 r \$0-knobb4;
#X obj 937 176 text define \$0-saver;
#X msg 973 149 read save-knobs.txt;
#X msg 937 75 write save-knobs.txt;
#X obj 937 44 r saveState;
#X obj 1131 40 loadbang;
#X obj 889 429 text set \$0-saver;
#X obj 888 294 r \$0-knobb1;
#X obj 888 316 unpack;
#X obj 888 338 swap, f 6;
#X obj 927 363 - 1;
#X obj 927 385 + 0;
#X obj 1026 428 text set \$0-saver;
#X obj 1025 315 unpack;
#X obj 1025 337 swap, f 6;
#X obj 1064 362 - 1;
#X obj 1025 293 r \$0-knobb2;
#X obj 1064 384 + 5;
#X obj 897 590 text set \$0-saver;
#X obj 896 477 unpack;
#X obj 896 499 swap, f 6;
#X obj 935 524 - 1;
#X obj 1034 589 text set \$0-saver;
#X obj 1033 476 unpack;
#X obj 1033 498 swap, f 6;
#X obj 1072 523 - 1;
#X obj 897 455 r \$0-knobb3;
#X obj 1033 454 r \$0-knobb4;
#X obj 935 546 + 10;
#X obj 1072 545 + 15;
#X obj 1187 187 f;
#X obj 1221 187 + 1;
#X msg 1240 152 0;
#X obj 1187 129 t a b, f 8;
#X msg 1187 105 20;
#X obj 1231 231 % 5;
#X obj 1187 376 route 1 2 3 4, f 21;
#X obj 1187 209 t f f f, f 13;
#X obj 1275 236 / 5;
#X obj 1275 258 i;
#X obj 1187 307 list prepend;
#X obj 1187 329 list prepend, f 17;
#X obj 1187 351 list trim;
#X obj 1187 478 s \$0-knobb1;
#X obj 1259 428 s \$0-knobb3;
#X obj 1295 404 s \$0-knobb4;
#X obj 1223 454 s \$0-knobb2;
#X obj 1187 151 until;
#X obj 1187 285 text get \$0-saver;
#X obj 1231 253 + 1;
#X obj 1131 62 t b b;
#N canvas 869 241 421 448 printer 0;
#X obj 21 13 r p1k1-label;
#X obj 21 145 list prepend 1:;
#X obj 21 167 s screenLine1;
#X obj 37 38 r p2k1-label;
#X obj 51 58 r p3k1-label;
#X obj 64 87 r p4k1-label;
#X obj 74 111 r p5k1-label;
#X obj 196 18 r p1k2-label;
#X obj 212 43 r p2k2-label;
#X obj 226 63 r p3k2-label;
#X obj 239 92 r p4k2-label;
#X obj 249 116 r p5k2-label;
#X obj 196 150 list prepend 2:;
#X obj 196 172 s screenLine2;
#X obj 26 212 r p1k3-label;
#X obj 42 237 r p2k3-label;
#X obj 56 257 r p3k3-label;
#X obj 70 286 r p4k3-label;
#X obj 79 310 r p5k3-label;
#X obj 26 344 list prepend 3:;
#X obj 26 366 s screenLine3;
#X obj 201 371 s screenLine4;
#X obj 201 349 list prepend 4:;
#X obj 254 315 r p5k4-label;
#X obj 244 291 r p4k4-label;
#X obj 231 262 r p3k4-label;
#X obj 218 242 r p2k4-label;
#X obj 201 217 r p1k4-label;
#X connect 0 0 1 0;
#X connect 1 0 2 0;
#X connect 3 0 1 0;
#X connect 4 0 1 0;
#X connect 5 0 1 0;
#X connect 6 0 1 0;
#X connect 7 0 12 0;
#X connect 8 0 12 0;
#X connect 9 0 12 0;
#X connect 10 0 12 0;
#X connect 11 0 12 0;
#X connect 12 0 13 0;
#X connect 14 0 19 0;
#X connect 15 0 19 0;
#X connect 16 0 19 0;
#X connect 17 0 19 0;
#X connect 18 0 19 0;
#X connect 19 0 20 0;
#X connect 22 0 21 0;
#X connect 23 0 22 0;
#X connect 24 0 22 0;
#X connect 25 0 22 0;
#X connect 26 0 22 0;
#X connect 27 0 22 0;
#X restore 711 581 pd printer;
#X connect 1 0 10 0;
#X connect 2 0 3 0;
#X connect 3 0 4 0;
#X connect 3 1 6 0;
#X connect 3 2 7 0;
#X connect 3 3 8 0;
#X connect 3 4 9 0;
#X connect 4 0 5 0;
#X connect 6 0 27 0;
#X connect 7 0 28 0;
#X connect 8 0 29 0;
#X connect 9 0 30 0;
#X connect 10 0 0 0;
#X connect 10 1 11 0;
#X connect 11 0 14 0;
#X connect 11 1 17 0;
#X connect 11 2 22 0;
#X connect 11 3 23 0;
#X connect 11 4 26 0;
#X connect 13 0 12 0;
#X connect 14 0 13 0;
#X connect 16 0 15 0;
#X connect 17 0 16 0;
#X connect 19 0 18 0;
#X connect 21 0 20 0;
#X connect 22 0 19 0;
#X connect 23 0 21 0;
#X connect 25 0 24 0;
#X connect 26 0 25 0;
#X connect 31 0 32 0;
#X connect 31 1 33 0;
#X connect 31 2 34 0;
#X connect 31 3 35 0;
#X connect 31 4 36 0;
#X connect 32 0 38 0;
#X connect 33 0 39 0;
#X connect 34 0 40 0;
#X connect 35 0 41 0;
#X connect 36 0 42 0;
#X connect 37 0 31 0;
#X connect 43 0 44 0;
#X connect 43 1 45 0;
#X connect 43 2 46 0;
#X connect 43 3 47 0;
#X connect 43 4 48 0;
#X connect 44 0 56 0;
#X connect 45 0 57 0;
#X connect 46 0 58 0;
#X connect 47 0 59 0;
#X connect 48 0 60 0;
#X connect 49 0 50 0;
#X connect 49 1 51 0;
#X connect 49 2 52 0;
#X connect 49 3 53 0;
#X connect 49 4 54 0;
#X connect 50 0 61 0;
#X connect 51 0 62 0;
#X connect 52 0 63 0;
#X connect 53 0 64 0;
#X connect 54 0 65 0;
#X connect 55 0 43 0;
#X connect 66 0 49 0;
#X connect 68 0 67 0;
#X connect 69 0 67 0;
#X connect 70 0 69 0;
#X connect 71 0 116 0;
#X connect 73 0 74 0;
#X connect 74 0 75 0;
#X connect 74 1 75 1;
#X connect 75 0 72 0;
#X connect 75 1 76 0;
#X connect 76 0 77 0;
#X connect 77 0 72 1;
#X connect 79 0 80 0;
#X connect 79 1 80 1;
#X connect 80 0 78 0;
#X connect 80 1 81 0;
#X connect 81 0 83 0;
#X connect 82 0 79 0;
#X connect 83 0 78 1;
#X connect 85 0 86 0;
#X connect 85 1 86 1;
#X connect 86 0 84 0;
#X connect 86 1 87 0;
#X connect 87 0 94 0;
#X connect 89 0 90 0;
#X connect 89 1 90 1;
#X connect 90 0 88 0;
#X connect 90 1 91 0;
#X connect 91 0 95 0;
#X connect 92 0 85 0;
#X connect 93 0 89 0;
#X connect 94 0 84 1;
#X connect 95 0 88 1;
#X connect 96 0 97 0;
#X connect 96 0 103 0;
#X connect 97 0 96 1;
#X connect 98 0 96 1;
#X connect 99 0 113 0;
#X connect 99 1 98 0;
#X connect 100 0 99 0;
#X connect 101 0 115 0;
#X connect 102 0 109 0;
#X connect 102 1 112 0;
#X connect 102 2 110 0;
#X connect 102 3 111 0;
#X connect 103 0 114 0;
#X connect 103 1 101 0;
#X connect 103 2 104 0;
#X connect 104 0 105 0;
#X connect 105 0 107 1;
#X connect 106 0 107 0;
#X connect 107 0 108 0;
#X connect 108 0 102 0;
#X connect 113 0 96 0;
#X connect 114 0 106 0;
#X connect 115 0 106 1;
#X connect 116 0 100 0;
#X connect 116 1 68 0;
