#N canvas 79 50 905 902 10;
#X obj 179 71 inlet;
#X obj 179 106 unpack f f, f 33;
#X obj 178 318 *~;
#X obj 193 287 receive~ f;
#X obj 345 842 outlet~;
#X obj 177 364 blsaw;
#X obj 407 147 sel 0, f 13;
#X obj 282 475 vline~;
#X obj 49 342 receive~ offset;
#X obj 33 389 *~;
#X obj 33 418 blsaw;
#X obj 265 529 *~;
#X msg 282 385 0 \$1;
#X text 593 171 attack;
#X text 305 327 release;
#X text 432 507 cutoff;
#X obj 345 753 *~;
#X obj 383 480 r cut;
#X obj 495 173 / 127;
#X obj 549 172 r att;
#X obj 370 323 r rel;
#X obj 282 349 f, f 13;
#X obj 495 195 sqrt;
#X obj 383 516 lop~ 5;
#X obj 365 601 r rez;
#X text 430 628 rez;
#X obj 324 571 *~, f 9;
#X msg 495 259 \$1 \$2 \, 0.78 300 \$2;
#X obj 495 225 pack 0 0, f 13;
#X obj 34 441 *~ 0.707;
#X obj 177 386 *~ 0.707;
#X obj 179 217 mtof~;
#X obj 179 238 lop~ 800;
#X obj 383 537 +~;
#X obj 178 669 vcf~, f 27;
#X obj 345 774 *~ 2;
#X obj 365 622 * 2;
#X msg 365 643 \$1 10;
#X obj 365 664 line 1 1;
#X connect 0 0 1 0;
#X connect 1 0 31 0;
#X connect 1 1 6 0;
#X connect 2 0 5 0;
#X connect 2 0 9 0;
#X connect 3 0 2 1;
#X connect 5 0 30 0;
#X connect 6 0 21 0;
#X connect 6 1 18 0;
#X connect 7 0 11 1;
#X connect 7 0 11 0;
#X connect 7 0 26 0;
#X connect 8 0 9 1;
#X connect 9 0 10 0;
#X connect 10 0 29 0;
#X connect 11 0 16 1;
#X connect 12 0 7 0;
#X connect 16 0 35 0;
#X connect 17 0 23 0;
#X connect 18 0 22 0;
#X connect 19 0 28 1;
#X connect 20 0 21 1;
#X connect 21 0 12 0;
#X connect 22 0 28 0;
#X connect 23 0 33 0;
#X connect 24 0 36 0;
#X connect 26 0 34 1;
#X connect 27 0 7 0;
#X connect 28 0 27 0;
#X connect 29 0 34 0;
#X connect 30 0 34 0;
#X connect 31 0 32 0;
#X connect 32 0 2 0;
#X connect 32 0 33 1;
#X connect 33 0 26 1;
#X connect 34 1 16 0;
#X connect 35 0 4 0;
#X connect 36 0 37 0;
#X connect 37 0 38 0;
#X connect 38 0 34 2;
