#N canvas 294 50 1044 812 10;
#X obj 189 552 osc~;
#X obj 205 368 f, f 4;
#X obj 623 133 t f f;
#X obj 587 469 *~;
#X obj 378 624 *~;
#X obj 205 399 pack 0 0;
#X obj 502 180 * 1000;
#X obj 101 102 inlet;
#X obj 605 327 f;
#X obj 623 155 *;
#X obj 623 107 inlet;
#X text 611 88 noise lev;
#X obj 502 107 inlet;
#X text 501 88 decay;
#X obj 417 107 inlet;
#X obj 328 107 inlet;
#X text 317 87 start freq;
#X text 406 88 ramp time;
#X obj 378 691 outlet~;
#X obj 101 211 t b b b;
#X obj 188 518 +~;
#X obj 328 132 t f f;
#X obj 328 154 *;
#X obj 417 132 t f f;
#X obj 417 154 *;
#X obj 605 389 vline~;
#X obj 205 454 vline~;
#X obj 210 212 switch~;
#X msg 210 182 1;
#X msg 250 182 0;
#X obj 396 335 c_ead 3 10;
#X obj 101 144 t b b b, f 16;
#X obj 101 272 delay;
#X obj 467 209 + 10;
#X obj 77 443 r~ drummy-\$1-hfo;
#X obj 521 399 noise~;
#X msg 605 357 \$1 \, 0 25;
#X obj 416 178 * 1000;
#X obj 328 178 * 4000;
#X obj 623 183 t f f;
#X obj 623 205 *;
#X obj 77 485 *~;
#X text 46 417 Hfo is also enveloped;
#X text 153 103 Trigger (bang);
#X text 217 155 DSP On/Off;
#X text 399 308 Drum Attack Decay;
#X text 673 315 Noise Envelope;
#X text 233 501 Main Drum Ramp Tone;
#X obj 612 566 - 1;
#X obj 612 588 abs;
#X obj 612 610 * 0.75;
#X obj 612 632 + 0.25;
#X msg 205 425 \$1 3 \, 0 \$2 3;
#X obj 378 666 hip~ 5;
#X connect 0 0 4 0;
#X connect 1 0 5 0;
#X connect 2 0 9 0;
#X connect 2 1 9 1;
#X connect 3 0 4 0;
#X connect 4 0 53 0;
#X connect 5 0 52 0;
#X connect 6 0 30 2;
#X connect 6 0 33 0;
#X connect 7 0 31 0;
#X connect 8 0 36 0;
#X connect 9 0 39 0;
#X connect 10 0 2 0;
#X connect 12 0 6 0;
#X connect 14 0 23 0;
#X connect 15 0 21 0;
#X connect 19 0 32 0;
#X connect 19 1 1 0;
#X connect 19 2 8 0;
#X connect 20 0 0 0;
#X connect 21 0 22 0;
#X connect 21 1 22 1;
#X connect 22 0 38 0;
#X connect 23 0 24 0;
#X connect 23 1 24 1;
#X connect 24 0 37 0;
#X connect 25 0 3 1;
#X connect 26 0 20 1;
#X connect 28 0 27 0;
#X connect 29 0 27 0;
#X connect 30 0 4 1;
#X connect 30 0 41 1;
#X connect 31 0 19 0;
#X connect 31 1 30 0;
#X connect 31 2 28 0;
#X connect 32 0 29 0;
#X connect 33 0 32 1;
#X connect 34 0 41 0;
#X connect 35 0 3 0;
#X connect 36 0 25 0;
#X connect 37 0 5 1;
#X connect 38 0 1 1;
#X connect 39 0 40 0;
#X connect 39 1 40 1;
#X connect 40 0 8 1;
#X connect 41 0 20 0;
#X connect 48 0 49 0;
#X connect 49 0 50 0;
#X connect 50 0 51 0;
#X connect 52 0 26 0;
#X connect 53 0 18 0;
