#N canvas 872 160 814 639 10;
#X obj 35 35 inlet;
#X obj 306 425 s knob-\$1-vol;
#X obj 82 35 r sc-page-change;
#X obj 68 115 == 0;
#X obj 35 56 t a a;
#X obj 82 56 t a a;
#X obj 339 140 == 1;
#X obj 325 249 tabwrite vol-knobs;
#X obj 306 193 t a a b;
#X obj 381 201 f \$1;
#X obj 381 222 - 1;
#X obj 35 296 t a a b;
#X obj 74 322 f \$1;
#X obj 74 344 - 1;
#X obj 54 378 tabwrite loop-knobs;
#X obj 35 425 s knob-\$1-loop;
#X text 306 477 when a knob is changed;
#X obj 35 147 cg-knob-fixed;
#X obj 306 172 cg-knob-fixed;
#X obj 110 180 s k-\$1-loop-fix;
#X obj 432 200 s k-\$1-vol-fix;
#X obj 128 224 r knob-\$1-loop-recall;
#X obj 128 245 t a a;
#X msg 71 213 set \$1;
#X obj 548 276 t a a;
#X msg 491 244 set \$1;
#X obj 548 255 r knob-\$1-vol-recall;
#X connect 0 0 4 0;
#X connect 2 0 5 0;
#X connect 3 0 17 1;
#X connect 4 0 17 0;
#X connect 4 1 18 0;
#X connect 5 0 3 0;
#X connect 5 1 6 0;
#X connect 6 0 18 1;
#X connect 8 0 1 0;
#X connect 8 1 7 0;
#X connect 8 2 9 0;
#X connect 9 0 10 0;
#X connect 10 0 7 1;
#X connect 11 0 15 0;
#X connect 11 1 14 0;
#X connect 11 2 12 0;
#X connect 12 0 13 0;
#X connect 13 0 14 1;
#X connect 17 0 11 0;
#X connect 17 1 19 0;
#X connect 18 0 8 0;
#X connect 18 1 20 0;
#X connect 21 0 22 0;
#X connect 22 0 23 0;
#X connect 22 1 15 0;
#X connect 23 0 17 0;
#X connect 24 0 25 0;
#X connect 24 1 1 0;
#X connect 25 0 18 0;
#X connect 26 0 24 0;
