#N canvas 4 50 890 665 10;
#X obj 301 322 f 0;
#X msg 422 215 0;
#X obj 374 320 + 1;
#X obj 328 411 sel, f 15;
#X obj 544 219 - 1;
#X obj 301 387 t f f;
#X obj 301 162 t b b a, f 41;
#X obj 301 183 1;
#X obj 328 432 0;
#X obj 94 40 inlet;
#X text 139 42 number;
#X obj 301 112 max 1;
#X obj 301 538 outlet;
#X text 549 41 Arg1: delay time;
#X obj 94 123 0;
#X obj 94 61 route stop, f 35;
#X obj 352 540 outlet;
#X text 405 542 end bang;
#X obj 301 260 bang~;
#X obj 96 335 r \$0-2-switch~;
#X obj 96 356 switch~;
#X obj 94 167 s \$0-2-switch~;
#X obj 301 204 s \$0-2-switch~;
#X obj 439 487 s \$0-2-switch~;
#X obj 328 453 t b a, f 19;
#X connect 0 0 2 0;
#X connect 0 0 5 0;
#X connect 1 0 0 1;
#X connect 2 0 0 1;
#X connect 3 0 8 0;
#X connect 4 0 3 1;
#X connect 5 0 12 0;
#X connect 5 1 3 0;
#X connect 6 0 7 0;
#X connect 6 1 1 0;
#X connect 6 2 4 0;
#X connect 7 0 22 0;
#X connect 8 0 24 0;
#X connect 9 0 15 0;
#X connect 11 0 6 0;
#X connect 14 0 21 0;
#X connect 15 0 14 0;
#X connect 15 1 11 0;
#X connect 18 0 0 0;
#X connect 19 0 20 0;
#X connect 24 0 16 0;
#X connect 24 1 23 0;
