#N canvas 174 114 1391 733 10;
#X obj 20 23 inlet;
#X text 605 14 0-1 float status;
#X text 727 27 arg 1: x start;
#X text 729 43 arg 2: y start;
#X text 730 60 arg 3: width;
#X text 732 76 arg 4: height;
#X obj 529 26 inlet;
#X obj 529 85 spigot 0;
#X text 61 22 0/1 int on off;
#X obj 20 44 sel 0 1, f 19;
#X obj 574 57 r \$0-spigot;
#X obj 198 158 s \$0-spigot;
#X obj 75 329 s oscOut;
#X obj 75 226 pack \$1 \$2 \$3 \$4;
#X msg 75 302 /oled/gBox 3 \$1 \$2 \$3 \$4 1;
#X obj 75 247 t a a;
#X msg 102 274 /oled/gFillArea 3 \$1 \$2 \$3 \$4 0;
#X obj 198 134 f 1;
#X obj 529 229 i;
#X obj 20 65 f 0;
#X obj 529 260 + \$1;
#X obj 556 160 f \$3;
#X obj 529 207 *;
#X obj 529 281 + 1;
#X obj 556 181 - 3;
#X obj 529 353 f;
#X obj 529 374 sel 0;
#X obj 529 106 clip 0 1;
#N canvas 284 99 710 600 draw-play-head 0;
#X obj 202 184 f \$2;
#X obj 202 205 + 1;
#X obj 300 164 f \$2;
#X obj 300 185 + \$4;
#X obj 300 206 - 2;
#X obj 153 577 s oscOut;
#X obj 153 345 t a a b, f 18;
#X obj 206 379 list store;
#X obj 206 400 route bang;
#X obj 153 45 inlet;
#X text 307 42 if volume knobs are on \, and playhead is <= volume
;
#X obj 193 30 r sc-page-change;
#X obj 263 470 route list;
#X obj 153 483 route list;
#X obj 153 284 pack 0 0 0 0, f 25;
#X msg 263 509 /oled/gLine 3 \$1 \$2 \$3 \$4 0;
#X msg 153 545 /oled/gLine 3 \$1 \$2 \$3 \$4 1;
#X obj 154 131 t a b a b, f 26;
#X obj 153 96 spigot 1;
#X obj 193 51 == 0;
#X connect 0 0 1 0;
#X connect 1 0 14 1;
#X connect 2 0 3 0;
#X connect 3 0 4 0;
#X connect 4 0 14 3;
#X connect 6 0 13 0;
#X connect 6 1 7 1;
#X connect 6 2 7 0;
#X connect 7 0 8 0;
#X connect 8 1 12 0;
#X connect 9 0 18 0;
#X connect 11 0 19 0;
#X connect 12 0 15 0;
#X connect 13 0 16 0;
#X connect 14 0 6 0;
#X connect 15 0 5 0;
#X connect 16 0 5 0;
#X connect 17 0 14 0;
#X connect 17 1 0 0;
#X connect 17 2 14 2;
#X connect 17 3 2 0;
#X connect 18 0 17 0;
#X connect 19 0 18 1;
#X restore 556 458 pd draw-play-head;
#X obj 529 136 t f b f, f 13;
#X obj 1021 40 r knob-\$5-vol;
#X obj 1048 679 s oscOut;
#X obj 1048 349 pack 0 0 0 0, f 25;
#X obj 1097 299 f \$2;
#X obj 1097 320 + 1;
#X obj 1021 172 i;
#X obj 1048 372 t a a b;
#X obj 1087 541 list append;
#X obj 1087 518 1;
#X obj 1087 562 route 1;
#X obj 1048 248 t b b a b, f 22;
#X obj 1183 300 7;
#X msg 1048 642 /oled/gFillArea 3 \$1 \$2 \$3 \$4 1;
#X msg 1144 610 /oled/gFillArea 3 \$1 \$2 \$3 \$4 0;
#X obj 1048 288 29;
#X obj 1021 150 * 94;
#X obj 1021 223 t a a;
#X obj 1087 583 route bang;
#X obj 336 244 r sc-page-change;
#X obj 321 306 f;
#X obj 75 73 t b b b b, f 62;
#X obj 321 331 sel 1;
#X text 730 111 arg 5: loop number;
#X obj 1021 81 f;
#X obj 1066 164 r sc-page-change;
#X obj 1021 193 spigot 0;
#X obj 351 383 del 10;
#X obj 413 304 sel 1;
#X obj 1114 377 r sc-page-change;
#X obj 1114 401 sel 0;
#X obj 1066 63 r cgSc-1-mute-print;
#X obj 1021 105 spigot 0;
#X obj 1066 84 == 0;
#X obj 336 265 t a a;
#X obj 1159 425 r cgSc-1-mute-print;
#X obj 1159 447 == 0;
#X obj 1114 472 spigot 1;
#X obj 351 409 s \$0-reprint-the-vOl;
#X obj 873 42 r \$0-reprint-the-vOl;
#X text 569 373 dont print 0;
#X connect 0 0 9 0;
#X connect 6 0 7 0;
#X connect 7 0 27 0;
#X connect 9 0 19 0;
#X connect 9 1 50 0;
#X connect 10 0 7 1;
#X connect 13 0 15 0;
#X connect 14 0 12 0;
#X connect 15 0 14 0;
#X connect 15 1 16 0;
#X connect 16 0 12 0;
#X connect 17 0 11 0;
#X connect 18 0 20 0;
#X connect 19 0 11 0;
#X connect 20 0 23 0;
#X connect 21 0 24 0;
#X connect 22 0 18 0;
#X connect 23 0 25 0;
#X connect 24 0 22 1;
#X connect 25 0 26 0;
#X connect 26 1 28 0;
#X connect 27 0 29 0;
#X connect 29 0 22 0;
#X connect 29 1 21 0;
#X connect 30 0 53 0;
#X connect 32 0 36 0;
#X connect 33 0 34 0;
#X connect 34 0 32 1;
#X connect 35 0 55 0;
#X connect 36 0 42 0;
#X connect 36 1 37 1;
#X connect 36 2 38 0;
#X connect 37 0 39 0;
#X connect 38 0 37 0;
#X connect 39 0 47 0;
#X connect 40 0 44 0;
#X connect 40 1 33 0;
#X connect 40 2 32 2;
#X connect 40 3 41 0;
#X connect 41 0 32 3;
#X connect 42 0 31 0;
#X connect 43 0 31 0;
#X connect 44 0 32 0;
#X connect 45 0 35 0;
#X connect 46 1 40 0;
#X connect 47 1 43 0;
#X connect 48 0 63 0;
#X connect 49 0 51 0;
#X connect 50 0 13 0;
#X connect 50 1 17 0;
#X connect 50 2 49 0;
#X connect 50 3 25 0;
#X connect 51 0 56 0;
#X connect 53 0 61 0;
#X connect 54 0 55 1;
#X connect 55 0 46 0;
#X connect 56 0 67 0;
#X connect 57 0 56 0;
#X connect 58 0 59 0;
#X connect 59 0 66 0;
#X connect 60 0 62 0;
#X connect 61 0 45 0;
#X connect 62 0 61 1;
#X connect 63 0 49 1;
#X connect 63 1 57 0;
#X connect 64 0 65 0;
#X connect 65 0 66 1;
#X connect 66 0 38 0;
#X connect 68 0 53 0;
