#N canvas 530 240 1272 678 10;
#X obj 52 31 inlet;
#X text 93 32 messages;
#X text 737 71 Arg1: name of array to read from;
#N canvas 295 72 1251 937 sampler-players 0;
#X obj 39 846 *~, f 29;
#X obj 436 893 outlet~;
#X obj 160 124 f 1;
#X obj 191 125 + 1;
#X obj 191 146 == 1;
#X obj 78 181 list prepend, f 19;
#X obj 78 11 inlet;
#X obj 150 648 - 2;
#X obj 39 676 *~, f 19;
#X obj 39 704 +~ 1, f 6;
#X obj 78 202 route 0 1, f 175;
#X obj 78 291 unpack, f 17;
#X msg 39 469 0 0 \, 1 \$1 0;
#X obj 39 399 *;
#X obj 54 376 r \$0-samp-ms;
#X obj 150 616 r \$0-samp-len;
#X obj 39 560 vline~;
#X obj 435 840 *~, f 17;
#X obj 674 707 - 2;
#X obj 563 736 *~, f 19;
#X msg 563 489 0 0 \, 1 \$1 0;
#X obj 562 410 *;
#X obj 577 387 r \$0-samp-ms;
#X obj 674 684 r \$0-samp-len;
#X obj 563 567 vline~;
#X obj 434 781 vline~;
#X obj 209 778 vline~;
#X obj 998 519 pack 0 8;
#X obj 998 496 f 0;
#X obj 584 28 inlet;
#X obj 563 632 +~, f 15;
#X obj 563 764 +~ 1, f 6;
#X obj 39 621 +~, f 15;
#X obj 331 8 inlet;
#X text 374 11 play at point;
#X obj 331 61 pack 0 1;
#X obj 103 98 t a b;
#X obj 78 315 swap, f 17;
#X obj 590 291 unpack, f 17;
#X obj 590 316 swap, f 17;
#X obj 563 588 *~, f 23;
#X obj 562 362 t a a, f 25;
#X obj 39 353 t a a, f 18;
#X obj 39 642 wrap~;
#X obj 563 653 wrap~;
#X obj 39 581 *~, f 10;
#X obj 584 74 s \$0-end-player;
#X obj 935 446 r \$0-end-player;
#X obj 935 467 t b b, f 11;
#X obj 56 528 r \$0-stop-vlines;
#X obj 588 537 r \$0-stop-vlines;
#X msg 935 608 stop;
#X obj 935 629 s \$0-stop-vlines;
#X obj 957 321 r \$0-new-array;
#X obj 957 342 list prepend set;
#X obj 957 363 list trim;
#X obj 38 821 tabread4~;
#X obj 562 801 tabread4~;
#N canvas 4 50 450 300 make-env 0;
#X obj 19 15 inlet;
#X text 62 11 chunk length in ms;
#X obj 20 135 s \$0-amp-0;
#X msg 20 98 1 8 \, 0 8 \$1;
#X obj 19 69 - 8;
#X connect 0 0 4 0;
#X connect 3 0 2 0;
#X connect 4 0 3 0;
#X restore 66 444 pd make-env;
#X obj 39 420 t a a;
#X obj 209 750 r \$0-amp-0;
#X obj 108 783 r \$0-2-tabb-0;
#X obj 613 769 r \$0-2-tabb-0;
#X obj 957 384 s \$0-2-tabb-0;
#X obj 434 748 r \$0-amp-1;
#X obj 998 540 t a a;
#X obj 998 590 s \$0-amp-0;
#X obj 1025 567 s \$0-amp-1;
#X obj 562 431 t a a;
#X obj 274 272 pack 0 8;
#X obj 274 295 s \$0-amp-1;
#X obj 799 281 pack 0 8;
#X obj 799 304 s \$0-amp-0;
#N canvas 4 50 450 300 make-env 0;
#X obj 19 15 inlet;
#X text 62 11 chunk length in ms;
#X obj 20 135 s \$0-amp-1;
#X msg 19 98 1 8 \, 0 8 \$1;
#X obj 19 70 - 8;
#X connect 0 0 4 0;
#X connect 3 0 2 0;
#X connect 4 0 3 0;
#X restore 592 458 pd make-env;
#X obj 584 49 t b;
#X obj 78 228 t a b, f 39;
#X obj 590 227 t a b, f 39;
#X obj 78 30 t a b, f 15;
#X connect 0 0 1 0;
#X connect 2 0 3 0;
#X connect 3 0 4 0;
#X connect 4 0 2 1;
#X connect 4 0 5 1;
#X connect 5 0 10 0;
#X connect 6 0 77 0;
#X connect 7 0 8 1;
#X connect 8 0 9 0;
#X connect 9 0 56 0;
#X connect 10 0 75 0;
#X connect 10 1 76 0;
#X connect 11 0 37 0;
#X connect 11 1 37 1;
#X connect 12 0 16 0;
#X connect 13 0 59 0;
#X connect 14 0 13 1;
#X connect 15 0 7 0;
#X connect 16 0 45 0;
#X connect 17 0 1 0;
#X connect 18 0 19 1;
#X connect 19 0 31 0;
#X connect 20 0 24 0;
#X connect 21 0 68 0;
#X connect 22 0 21 1;
#X connect 23 0 18 0;
#X connect 24 0 40 0;
#X connect 25 0 17 0;
#X connect 26 0 0 1;
#X connect 27 0 65 0;
#X connect 28 0 27 0;
#X connect 29 0 74 0;
#X connect 30 0 44 0;
#X connect 31 0 57 0;
#X connect 32 0 43 0;
#X connect 33 0 35 0;
#X connect 35 0 36 0;
#X connect 36 0 5 0;
#X connect 36 1 2 0;
#X connect 37 0 42 0;
#X connect 37 1 32 1;
#X connect 38 0 39 0;
#X connect 38 1 39 1;
#X connect 39 0 41 0;
#X connect 39 1 30 1;
#X connect 40 0 30 0;
#X connect 41 0 21 0;
#X connect 41 1 40 1;
#X connect 42 0 13 0;
#X connect 42 1 45 1;
#X connect 43 0 8 0;
#X connect 44 0 19 0;
#X connect 45 0 32 0;
#X connect 47 0 48 0;
#X connect 48 0 51 0;
#X connect 48 1 28 0;
#X connect 49 0 16 0;
#X connect 50 0 24 0;
#X connect 51 0 52 0;
#X connect 53 0 54 0;
#X connect 54 0 55 0;
#X connect 55 0 63 0;
#X connect 56 0 0 0;
#X connect 57 0 17 1;
#X connect 59 0 12 0;
#X connect 59 1 58 0;
#X connect 60 0 26 0;
#X connect 61 0 56 0;
#X connect 62 0 57 0;
#X connect 64 0 25 0;
#X connect 65 0 66 0;
#X connect 65 1 67 0;
#X connect 68 0 20 0;
#X connect 68 1 73 0;
#X connect 69 0 70 0;
#X connect 71 0 72 0;
#X connect 74 0 46 0;
#X connect 75 0 11 0;
#X connect 75 1 69 0;
#X connect 76 0 38 0;
#X connect 76 1 71 0;
#X connect 77 0 5 0;
#X connect 77 1 2 0;
#X restore 147 582 pd sampler-players;
#X f 49;
#X obj 148 649 outlet~;
#X obj 166 169 s \$0-loop;
#X obj 166 146 f 1;
#X obj 285 248 s \$0-loop;
#X obj 285 225 f 0;
#X obj 147 95 t b b b;
#N canvas 373 50 1383 969 seq-chunks 0;
#X obj 169 18 inlet;
#X obj 410 382 f, f 8;
#X obj 491 395 + 1;
#X obj 198 901 outlet;
#X obj 19 18 r \$0-ticks;
#X text 553 437 get 1st line in text;
#X text 554 462 convert to ticks;
#X obj 68 725 sel 0 1, f 16;
#X obj 114 751 t b b;
#X obj 467 526 t a a, f 24;
#X msg 141 806 69;
#X obj 141 831 list, f 79;
#X obj 141 852 route 69;
#X msg 41 178 stop;
#X obj 467 222 r \$0-loop;
#X obj 410 249 spigot 0, f 10;
#X obj 114 942 s \$0-feed;
#X obj 410 196 r \$0-feed;
#X obj 855 328 r \$0-beat-length;
#X obj 776 497 r \$0-beat-length;
#X obj 776 538 * 360;
#X obj 776 559 i;
#X obj 467 609 *, f 52;
#X obj 410 423 t f f;
#X obj 667 739 r \$0-clear;
#X obj 667 760 t b;
#X obj 141 615 s \$0-clear;
#X obj 749 331 s \$0-samp-len;
#X obj 722 363 s \$0-samp-ms;
#X obj 749 309 * 44.1;
#X obj 722 286 t a a;
#X obj 722 210 text get locked-loop-info;
#X obj 722 162 f \$2;
#X obj 722 183 - 1;
#X obj 141 873 route bang;
#X obj 847 866 outlet;
#X obj 1003 698 r \$0-local-ticks;
#X obj 467 552 unpack;
#X obj 345 597 r \$0-clear;
#X obj 345 622 f 0;
#X obj 1003 802 /;
#X obj 1018 750 r \$0-beat-length;
#X obj 1018 771 * 360;
#X obj 1003 853 outlet;
#X obj 1015 137 s \$0-clear;
#X obj 455 325 r \$0-clear;
#X obj 455 346 f 0;
#X msg 855 355 length \$1;
#X msg 169 143 start-sync;
#X obj 410 490 route bang;
#X obj 161 588 s \$0-update-size;
#X obj 695 26 inlet;
#X text 744 30 update;
#X obj 358 130 0;
#X obj 122 642 0;
#X obj 122 663 s \$0-1st-number;
#X obj 358 151 s \$0-1st-number;
#X obj 433 286 r \$0-1st-number;
#X obj 95 453 t a a;
#X obj 122 503 sel 1;
#X obj 68 425 t a a;
#X obj 122 482 < 0;
#X obj 14 148 t b b;
#X obj 14 208 s \$0-clear;
#X obj 137 414 r \$0-clear;
#X obj 137 435 0;
#X obj 467 635 i;
#X obj 169 49 t f b, f 32;
#X obj 68 243 cg-tick-count 4;
#X obj 19 39 list prepend ticks;
#X obj 19 60 list trim;
#X obj 722 262 *;
#X obj 722 231 t a a, f 17;
#X obj 821 267 unpack;
#X obj 854 294 s \$0-beat-length;
#X obj 251 303 s \$0-local-ticks;
#X obj 68 277 t a a, f 31;
#X obj 529 26 inlet;
#X obj 529 47 s \$0-mute;
#X obj 113 351 r \$0-mute;
#X obj 410 511 1e+26;
#X obj 14 127 r \$0-end-chunks;
#X obj 358 106 t b b b, f 110;
#N canvas 4 50 450 300 only-trigger-out-if-match 0;
#X obj 33 15 inlet;
#X obj 308 20 inlet;
#X obj 145 27 inlet;
#X obj 86 121 f;
#X obj 86 142 ==, f 20;
#X obj 86 163 sel 1;
#X obj 86 184 outlet;
#X connect 0 0 3 0;
#X connect 1 0 4 1;
#X connect 2 0 3 1;
#X connect 3 0 4 0;
#X connect 4 0 5 0;
#X connect 5 0 6 0;
#X restore 141 782 pd only-trigger-out-if-match;
#X obj 437 674 t a a, f 13;
#X obj 68 669 t f f;
#X obj 68 374 spigot 1;
#X obj 410 469 text get \$1-chunks;
#X obj 536 350 r \$0-new-array;
#X obj 536 371 makefilename %s-chunks;
#X obj 68 698 >= 0, f 62;
#X obj 122 526 t b b b b;
#X obj 183 547 s \$0-looped;
#X obj 847 823 r \$0-looped;
#N canvas 4 50 450 404 rel-start 0;
#X obj 60 8 inlet;
#X obj 60 63 v loop-\$2-startP;
#X obj 60 176 *;
#X obj 107 131 r \$0-beat-length;
#X obj 60 86 swap 0;
#X obj 60 107 -;
#X obj 60 128 wrap;
#X msg 60 242 startAt \$1;
#X obj 60 263 outlet;
#X obj 268 374 s \$0-1st-number;
#X obj 268 137 r \$0-new-array;
#X obj 268 158 makefilename %s-chunks;
#X obj 60 200 t a a;
#X obj 192 299 route -1 bang;
#X obj 200 335 0;
#X obj 60 29 t b;
#X obj 192 215 text search \$1-0-chunks >= 0;
#X connect 0 0 15 0;
#X connect 1 0 4 0;
#X connect 2 0 12 0;
#X connect 3 0 2 1;
#X connect 4 0 5 0;
#X connect 4 1 5 1;
#X connect 5 0 6 0;
#X connect 6 0 2 0;
#X connect 7 0 8 0;
#X connect 10 0 11 0;
#X connect 11 0 16 1;
#X connect 12 0 7 0;
#X connect 12 1 16 0;
#X connect 13 0 14 0;
#X connect 13 1 14 0;
#X connect 13 2 9 0;
#X connect 14 0 9 0;
#X connect 15 0 1 0;
#X connect 16 0 13 0;
#X restore 271 145 pd rel-start;
#X obj 169 91 t b b;
#X obj 169 70 sel 0 1 2, f 23;
#X obj 223 89 t b b;
#X msg 201 121 freeStart;
#X obj 896 20 inlet;
#X text 946 20 re-set;
#X obj 896 41 s \$0-fast-reset;
#X obj 245 14 r \$0-fast-reset;
#N canvas 4 50 519 461 update 0;
#X obj 75 105 r \$0-beat-length;
#X msg 41 350 startAt \$1;
#X obj 41 391 outlet;
#X obj 270 384 s \$0-1st-number;
#X obj 360 145 r \$0-new-array;
#X obj 360 166 makefilename %s-chunks;
#X obj 60 160 t a a, f 23;
#X obj 195 269 route -1 bang;
#X obj 195 315 0;
#X obj 195 205 text search \$1-0-chunks >= 0;
#X obj 60 128 *;
#X obj 62 62 inlet;
#X obj 73 257 t b;
#X obj 73 278 0;
#X obj 73 299 t a a;
#X connect 0 0 10 1;
#X connect 1 0 2 0;
#X connect 4 0 5 0;
#X connect 5 0 9 1;
#X connect 6 0 1 0;
#X connect 6 1 9 0;
#X connect 7 0 8 0;
#X connect 7 1 8 0;
#X connect 7 2 3 0;
#X connect 8 0 3 0;
#X connect 9 0 7 0;
#X connect 10 0 6 0;
#X connect 11 0 10 0;
#X connect 12 0 13 0;
#X connect 13 0 14 0;
#X connect 14 0 1 0;
#X connect 14 1 3 0;
#X restore 579 164 pd update;
#X obj 855 389 s \$0-2-tick-cnt;
#X obj 110 212 r \$0-2-tick-cnt;
#X obj 168 183 s \$0-2-tick-cnt;
#X obj 19 81 s \$0-2-tick-cnt;
#X obj 579 188 s \$0-2-tick-cnt;
#X obj 695 50 t f b;
#X obj 1088 25 inlet;
#X text 1133 27 update Size;
#X obj 1088 46 t b;
#X connect 0 0 67 0;
#X connect 1 0 23 0;
#X connect 2 0 1 1;
#X connect 4 0 69 0;
#X connect 7 1 8 0;
#X connect 8 0 16 0;
#X connect 8 1 83 0;
#X connect 9 0 37 0;
#X connect 9 1 11 1;
#X connect 10 0 11 0;
#X connect 11 0 12 0;
#X connect 12 0 34 0;
#X connect 13 0 68 0;
#X connect 14 0 15 1;
#X connect 15 0 1 0;
#X connect 17 0 15 0;
#X connect 18 0 47 0;
#X connect 19 0 20 0;
#X connect 20 0 21 0;
#X connect 21 0 22 1;
#X connect 22 0 66 0;
#X connect 23 0 87 0;
#X connect 23 1 2 0;
#X connect 24 0 25 0;
#X connect 25 0 11 1;
#X connect 29 0 27 0;
#X connect 30 0 28 0;
#X connect 30 1 29 0;
#X connect 31 0 72 0;
#X connect 32 0 33 0;
#X connect 33 0 31 0;
#X connect 34 1 3 0;
#X connect 36 0 40 0;
#X connect 37 0 22 0;
#X connect 38 0 39 0;
#X connect 39 0 84 0;
#X connect 40 0 43 0;
#X connect 41 0 42 0;
#X connect 42 0 40 1;
#X connect 45 0 46 0;
#X connect 46 0 1 1;
#X connect 47 0 104 0;
#X connect 48 0 106 0;
#X connect 49 0 80 0;
#X connect 49 1 9 0;
#X connect 51 0 109 0;
#X connect 53 0 56 0;
#X connect 54 0 55 0;
#X connect 57 0 1 0;
#X connect 58 0 61 1;
#X connect 58 1 61 0;
#X connect 59 0 91 0;
#X connect 60 0 85 0;
#X connect 60 1 58 0;
#X connect 61 0 59 0;
#X connect 62 0 63 0;
#X connect 62 1 13 0;
#X connect 64 0 65 0;
#X connect 65 0 61 1;
#X connect 66 0 84 0;
#X connect 67 0 96 0;
#X connect 67 1 82 0;
#X connect 68 0 76 0;
#X connect 69 0 70 0;
#X connect 70 0 107 0;
#X connect 71 0 30 0;
#X connect 72 0 71 0;
#X connect 72 1 73 0;
#X connect 73 1 74 0;
#X connect 76 0 86 0;
#X connect 76 1 75 0;
#X connect 77 0 78 0;
#X connect 79 0 86 1;
#X connect 80 0 84 0;
#X connect 81 0 62 0;
#X connect 82 1 32 0;
#X connect 82 2 44 0;
#X connect 83 0 10 0;
#X connect 84 0 90 1;
#X connect 84 1 83 2;
#X connect 85 0 90 0;
#X connect 85 1 83 1;
#X connect 86 0 60 0;
#X connect 87 0 49 0;
#X connect 88 0 89 0;
#X connect 89 0 87 3;
#X connect 90 0 7 0;
#X connect 91 0 54 0;
#X connect 91 1 26 0;
#X connect 91 2 50 0;
#X connect 91 3 92 0;
#X connect 93 0 35 0;
#X connect 94 0 106 0;
#X connect 95 0 48 0;
#X connect 95 1 53 0;
#X connect 96 0 95 0;
#X connect 96 1 97 0;
#X connect 96 2 94 0;
#X connect 97 0 98 0;
#X connect 97 1 53 0;
#X connect 98 0 106 0;
#X connect 99 0 101 0;
#X connect 102 0 98 0;
#X connect 103 0 108 0;
#X connect 105 0 68 0;
#X connect 109 0 103 0;
#X connect 109 1 32 0;
#X connect 110 0 112 0;
#X connect 112 0 32 0;
#X restore 147 344 pd seq-chunks;
#X f 92;
#X obj 335 105 s \$0-ticks;
#X text 743 100 Arg2: beat length;
#X obj 421 459 outlet;
#X text 472 463 report loop;
#X obj 696 399 outlet;
#X text 758 402 0-1;
#X obj 449 126 s \$0-actRec;
#X obj 394 262 r \$0-actRec;
#X obj 394 283 t a a;
#X obj 307 460 sel 0;
#X obj 147 289 v reset-bpm?;
#X obj 260 172 t b b b b, f 13;
#X obj 417 155 s \$0-update-table;
#X obj 192 129 s \$0-update-table;
#X obj 310 208 s \$0-update-table;
#X obj 417 101 t b a;
#X obj 865 228 r \$0-update-table;
#X obj 866 397 v;
#X msg 886 353 symbol loop-\$1-AB;
#X obj 886 327 f \$2;
#X obj 866 542 s \$0-new-array;
#X obj 865 256 t b b b;
#X msg 866 508 symbol locked-loop-\$1-\$2;
#X obj 866 418 t b a;
#X obj 866 469 pack 0 0;
#X obj 866 439 f \$2;
#X obj 260 283 s \$0-end-player;
#X obj 235 304 s \$0-end-chunks;
#X obj 53 65 route sampLength play stop ticks beat-length activeRec
update upSize reSet, f 106;
#X obj 653 111 t b;
#X obj 515 250 t b a;
#X connect 0 0 39 0;
#X connect 3 0 4 0;
#X connect 6 0 5 0;
#X connect 8 0 7 0;
#X connect 9 0 21 0;
#X connect 9 1 6 0;
#X connect 9 2 24 0;
#X connect 10 0 3 0;
#X connect 10 1 13 0;
#X connect 10 2 15 0;
#X connect 18 0 19 0;
#X connect 19 0 20 0;
#X connect 19 1 10 1;
#X connect 20 0 3 2;
#X connect 21 0 10 0;
#X connect 22 0 37 0;
#X connect 22 0 38 0;
#X connect 22 1 8 0;
#X connect 22 2 25 0;
#X connect 22 3 3 2;
#X connect 26 0 23 0;
#X connect 26 1 17 0;
#X connect 27 0 32 0;
#X connect 28 0 34 0;
#X connect 29 0 28 1;
#X connect 30 0 29 0;
#X connect 32 0 28 0;
#X connect 32 1 30 0;
#X connect 33 0 31 0;
#X connect 34 0 36 0;
#X connect 34 1 35 1;
#X connect 35 0 33 0;
#X connect 36 0 35 0;
#X connect 39 1 9 0;
#X connect 39 2 22 0;
#X connect 39 3 11 0;
#X connect 39 5 26 0;
#X connect 39 6 41 0;
#X connect 39 7 10 4;
#X connect 39 8 40 0;
#X connect 40 0 10 3;
#X connect 41 0 25 0;
#X connect 41 1 10 2;
