#N canvas 468 145 773 668 10;
#X obj 24 15 inlet;
#X obj 251 11 inlet;
#X text 299 11 0-1 activate/de-activate;
#X text 61 12 knob raw knob and set;
#X obj 24 36 route set;
#X obj 97 489 v \$0-last-num;
#X obj 251 119 s \$0-act;
#X obj 75 130 t a a, f 22;
#X obj 120 161 r \$0-knob-in;
#X obj 75 185 spigot 0;
#X obj 75 604 outlet;
#X obj 251 32 t a a;
#X obj 278 54 sel 0;
#X obj 278 75 0;
#X obj 278 96 s \$0-knob-in;
#X obj 204 328 sel 1, f 19;
#X obj 204 349 t b b;
#X obj 231 398 s \$0-act;
#X obj 231 372 0;
#X obj 204 372 1;
#X obj 204 421 s \$0-knob-in;
#X obj 24 99 v \$0-last-num;
#X obj 315 361 t b;
#X obj 315 381 v \$0-last-num;
#X obj 307 612 outlet;
#X obj 315 509 t a b;
#X obj 75 446 t a a b, f 8;
#X obj 342 554 0;
#X obj 307 548 1;
#X obj 307 579 change -1;
#X text 355 616 for out of bounds;
#X text 421 58 if current number is = or crossed the threshold;
#N canvas 4 50 655 551 was-it-crossed 0;
#X obj 37 30 inlet;
#X obj 192 29 inlet;
#X text 230 29 start;
#N canvas 4 50 450 300 over-under 0;
#X obj 40 33 inlet;
#X text 84 35 check;
#X obj 242 37 inlet;
#X text 283 34 number to compare;
#X obj 40 140 <;
#X obj 99 141 >;
#X obj 242 58 t a a;
#X obj 40 54 t a a;
#X obj 40 161 sel 1;
#X obj 40 182 1;
#X obj 99 162 sel 1;
#X obj 99 183 2;
#X obj 40 230 outlet;
#X connect 0 0 7 0;
#X connect 2 0 6 0;
#X connect 4 0 8 0;
#X connect 5 0 10 0;
#X connect 6 0 4 1;
#X connect 6 1 5 1;
#X connect 7 0 4 0;
#X connect 7 1 5 0;
#X connect 8 0 9 0;
#X connect 9 0 12 0;
#X connect 10 0 11 0;
#X connect 11 0 12 0;
#X restore 78 362 pd over-under;
#N canvas 4 50 450 300 over-under 0;
#X obj 40 33 inlet;
#X text 84 35 check;
#X obj 242 37 inlet;
#X text 283 34 number to compare;
#X obj 40 140 <;
#X obj 99 141 >;
#X obj 242 58 t a a;
#X obj 40 54 t a a;
#X obj 40 161 sel 1;
#X obj 40 182 1;
#X obj 99 162 sel 1;
#X obj 99 183 2;
#X obj 40 230 outlet;
#X connect 0 0 7 0;
#X connect 2 0 6 0;
#X connect 4 0 8 0;
#X connect 5 0 10 0;
#X connect 6 0 4 1;
#X connect 6 1 5 1;
#X connect 7 0 4 0;
#X connect 7 1 5 0;
#X connect 8 0 9 0;
#X connect 9 0 12 0;
#X connect 10 0 11 0;
#X connect 11 0 12 0;
#X restore 224 361 pd over-under;
#X obj 51 267 t a a;
#X obj 51 200 spigot 0, f 12;
#X obj 224 256 spigot 0;
#X obj 224 277 t f b;
#X obj 294 254 0;
#X obj 51 221 t a a;
#X obj 78 399 !=;
#X obj 192 50 t a a;
#X obj 51 120 t a b;
#X obj 354 247 v \$0-last-num;
#X obj 354 268 t a a;
#X obj 78 440 outlet;
#X connect 0 0 13 0;
#X connect 1 0 12 0;
#X connect 3 0 11 0;
#X connect 4 0 11 1;
#X connect 5 0 4 0;
#X connect 5 1 3 0;
#X connect 6 0 10 0;
#X connect 7 0 8 0;
#X connect 8 0 4 0;
#X connect 8 1 9 0;
#X connect 9 0 7 1;
#X connect 10 0 5 0;
#X connect 10 1 7 0;
#X connect 11 0 16 0;
#X connect 12 0 6 1;
#X connect 12 1 7 1;
#X connect 13 0 6 0;
#X connect 13 1 14 0;
#X connect 14 0 15 0;
#X connect 15 0 3 1;
#X connect 15 1 4 1;
#X restore 231 235 pd was-it-crossed;
#X obj 330 212 r \$0-act;
#N canvas 4 50 450 300 is-it-in-range 0;
#X obj 105 73 r \$0-act;
#X obj 60 96 spigot 0;
#X obj 117 141 v \$0-last-num;
#X obj 60 117 t a b, f 10;
#X obj 60 168 -, f 8;
#X obj 60 189 abs;
#X obj 60 210 <= 0.05;
#X obj 53 31 inlet;
#X obj 60 261 outlet;
#X connect 0 0 1 1;
#X connect 1 0 3 0;
#X connect 2 0 4 1;
#X connect 3 0 4 0;
#X connect 3 1 2 0;
#X connect 4 0 5 0;
#X connect 5 0 6 0;
#X connect 6 0 8 0;
#X connect 7 0 1 0;
#X restore 204 268 pd is-it-in-range;
#X obj 204 195 t a a;
#X connect 0 0 4 0;
#X connect 1 0 11 0;
#X connect 4 0 21 0;
#X connect 4 1 7 0;
#X connect 7 0 9 0;
#X connect 7 1 35 0;
#X connect 8 0 9 1;
#X connect 9 0 26 0;
#X connect 11 0 6 0;
#X connect 11 1 12 0;
#X connect 12 0 13 0;
#X connect 13 0 14 0;
#X connect 15 0 16 0;
#X connect 15 1 22 0;
#X connect 16 0 19 0;
#X connect 16 1 18 0;
#X connect 18 0 17 0;
#X connect 19 0 20 0;
#X connect 22 0 23 0;
#X connect 23 0 25 0;
#X connect 25 0 10 0;
#X connect 25 1 27 0;
#X connect 26 0 10 0;
#X connect 26 1 5 0;
#X connect 26 2 28 0;
#X connect 27 0 29 0;
#X connect 28 0 29 0;
#X connect 29 0 24 0;
#X connect 32 0 15 0;
#X connect 33 0 32 1;
#X connect 34 0 15 0;
#X connect 35 0 34 0;
#X connect 35 1 32 0;
