#N canvas 163 50 1248 850 10;
#X obj 277 73 loadbang;
#X msg 277 98 vibrato 50 0.5;
#X obj 182 43 inlet~;
#X obj 422 654 outlet~;
#X obj 187 718 outlet~;
#X text 433 676 global volume;
#X text 160 735 pitch(midi);
#X obj 249 314 unpack 0 0;
#X obj 421 557 clip~ 0 1;
#X msg 324 139 npartial 9;
#X msg 297 119 amp-range 10 20;
#X obj 184 103 hip~ 40;
#X obj 182 76 lop~ 2000;
#X obj 301 710 vline~;
#X msg 287 677 1 10;
#X obj 295 772 outlet~;
#X obj 295 735 *~;
#X obj 245 612 bng 15 250 50 0 empty empty empty 17 7 0 10 -262144
-1 -1;
#X obj 331 613 bng 15 250 50 0 empty empty empty 17 7 0 10 -262144
-1 -1;
#X obj 183 266 fiddle~ 2048 1 20 3, f 31;
#X floatatom 467 276 50 0 0 0 - - -, f 50;
#X obj 472 243 pvu~ 5;
#X obj 441 445 lop~ 100;
#X obj 441 423 sig~;
#X obj 202 553 threshold~ 0.3 100 0.01 100;
#X obj 188 443 lop~ 200;
#X obj 186 690 clip~ 20 127;
#X text 420 205 note \, this depends on organelle built in pvu~ \,
modified to output raw signal value (not db);
#X msg 336 676 0 100;
#X connect 0 0 1 0;
#X connect 0 0 10 0;
#X connect 0 0 9 0;
#X connect 1 0 19 0;
#X connect 2 0 12 0;
#X connect 7 0 25 0;
#X connect 8 0 3 0;
#X connect 9 0 19 0;
#X connect 10 0 19 0;
#X connect 11 0 19 0;
#X connect 11 0 21 0;
#X connect 12 0 11 0;
#X connect 13 0 16 1;
#X connect 13 0 16 0;
#X connect 14 0 13 0;
#X connect 16 0 15 0;
#X connect 19 2 7 0;
#X connect 20 0 23 0;
#X connect 21 0 20 0;
#X connect 22 0 8 0;
#X connect 22 0 24 0;
#X connect 23 0 22 0;
#X connect 24 0 14 0;
#X connect 24 0 17 0;
#X connect 24 1 28 0;
#X connect 24 1 18 0;
#X connect 25 0 26 0;
#X connect 26 0 4 0;
#X connect 28 0 13 0;
