#N canvas 634 107 448 548 10;
#X obj 170 411 outlet~;
#X obj 170 362 *~ 1;
#X msg 86 273 reset;
#X obj 120 13 inlet~;
#X obj 120 81 mtof~;
#X obj 168 128 blsaw;
#X obj 170 320 bob~, f 18;
#X obj 170 384 hip~ 5;
#X obj 245 269 r~ cutoff;
#X obj 321 226 r~ reson;
#X obj 120 46 lop~ 500;
#X connect 1 0 7 0;
#X connect 2 0 6 0;
#X connect 3 0 10 0;
#X connect 4 0 5 0;
#X connect 5 0 6 0;
#X connect 6 0 1 0;
#X connect 7 0 0 0;
#X connect 8 0 6 1;
#X connect 9 0 6 2;
#X connect 10 0 4 0;
