#N canvas 42 78 854 916 10;
#X obj 14 732 bob~, f 21;
#X obj 157 707 line~;
#X obj 157 682 pack 0 50;
#X obj 157 651 * 3.8;
#X obj 282 343 i;
#X obj 168 527 * 101;
#X obj 168 548 i;
#X msg 168 573 Resonance \$1 %;
#X msg 282 364 Cutoff \$1 Hz;
#X obj 85 206 pack 0 50;
#X obj 85 233 line~;
#X obj 85 172 mtof;
#X obj 85 147 * 120;
#X obj 173 335 osc~;
#X obj 172 367 *~, f 10;
#X obj 173 285 line~;
#X obj 173 261 pack 0 50;
#X obj 173 214 *;
#X obj 173 187 t f f;
#X obj 85 404 +~, f 13;
#X obj 257 275 line~;
#X obj 257 250 pack 0 50;
#X obj 238 335 *~;
#X obj 173 236 * 10;
#X msg 468 364 Rate \$1 Hz;
#X obj 657 343 i;
#X msg 656 364 Depth \$1 %;
#X obj 657 321 * 101;
#X text 6 5 Moog Resonant Filter effect module \, with LFO oscillation
;
#X obj 14 89 r~ moogOscil-\$1-in;
#X obj 85 122 r moogOscil-\$1-cut;
#X obj 173 163 r moogOscil-\$1-rate;
#X obj 257 220 r moogOscil-\$1-depth;
#X obj 282 385 s moogOscil-\$1-cut-label;
#X obj 467 385 s moogOscil-\$1-rate-label;
#X obj 656 385 s moogOscil-\$1-depth-label;
#X obj 157 482 r moogOscil-\$1-res;
#X obj 168 595 s moogOscil-\$1-res-label;
#X obj 70 858 *~;
#N canvas 14 50 526 600 switcher 0;
#X obj 113 261 t b b;
#X obj 113 295 delay 5;
#X obj 263 387 line~;
#X msg 176 296 0 4;
#X obj 133 476 *~;
#X msg 113 327 0;
#X obj 113 220 bang;
#X msg 406 229 1;
#X msg 359 193 1 4;
#X obj 352 143 t b b b;
#X obj 139 506 outlet~;
#X obj 371 507 outlet;
#X obj 112 48 inlet;
#X obj 353 50 inlet;
#X connect 0 0 1 0;
#X connect 0 1 3 0;
#X connect 1 0 5 0;
#X connect 2 0 4 0;
#X connect 2 0 4 1;
#X connect 3 0 2 0;
#X connect 4 0 10 0;
#X connect 5 0 11 0;
#X connect 6 0 0 0;
#X connect 7 0 11 0;
#X connect 8 0 2 0;
#X connect 9 1 8 0;
#X connect 9 2 7 0;
#X connect 12 0 6 0;
#X connect 13 0 9 0;
#X restore 202 809 pd switcher;
#X obj 134 857 *~;
#X obj 202 780 sel 0 1;
#X obj 202 757 tgl 15 0 empty empty empty 17 7 0 10 -262144 -1 -1 0
1;
#X obj 276 833 switch~ 64 1 1;
#X obj 202 728 r moogOscil-\$1-switch;
#X obj 239 698 r \$1-kill-switch;
#X obj 15 887 s~ moogOscil-\$1-outL;
#X obj 198 887 s~ moogOscil-\$1-outR;
#X connect 0 0 38 0;
#X connect 0 0 40 0;
#X connect 1 0 0 2;
#X connect 2 0 1 0;
#X connect 3 0 2 0;
#X connect 4 0 8 0;
#X connect 5 0 6 0;
#X connect 6 0 7 0;
#X connect 7 0 37 0;
#X connect 8 0 33 0;
#X connect 9 0 10 0;
#X connect 10 0 19 0;
#X connect 10 0 22 0;
#X connect 11 0 9 0;
#X connect 11 0 4 0;
#X connect 12 0 11 0;
#X connect 13 0 14 0;
#X connect 14 0 19 1;
#X connect 15 0 13 0;
#X connect 16 0 15 0;
#X connect 17 0 23 0;
#X connect 18 0 17 0;
#X connect 18 1 17 1;
#X connect 19 0 0 1;
#X connect 20 0 22 1;
#X connect 21 0 20 0;
#X connect 22 0 14 1;
#X connect 23 0 16 0;
#X connect 23 0 24 0;
#X connect 24 0 34 0;
#X connect 25 0 26 0;
#X connect 26 0 35 0;
#X connect 27 0 25 0;
#X connect 29 0 0 0;
#X connect 30 0 12 0;
#X connect 31 0 18 0;
#X connect 32 0 21 0;
#X connect 32 0 27 0;
#X connect 36 0 5 0;
#X connect 36 0 3 0;
#X connect 38 0 46 0;
#X connect 39 0 38 1;
#X connect 39 0 40 1;
#X connect 39 1 43 0;
#X connect 40 0 47 0;
#X connect 41 0 39 0;
#X connect 41 1 39 1;
#X connect 42 0 41 0;
#X connect 44 0 42 0;
#X connect 45 0 42 0;
