#N canvas 4 50 450 300 10;
#X obj 576 21 r aux;
#X obj 686 210 r cgSc-1-slots;
#X obj 693 21 r \$0-reprint-port;
#X obj 843 277 r beat-clock;
#X obj 576 51 cg-shortcut 1 1, f 20;
#N canvas 4 50 1495 708 the-knobs 0;
#X obj 280 211 r knob1;
#X obj 414 205 r knob2;
#X obj 532 208 r knob3;
#X obj 673 208 r knob4;
#X obj 503 439 outlet;
#X obj 221 295 seq-format-event knob1;
#X obj 401 293 seq-format-event knob2;
#X obj 566 292 seq-format-event knob3;
#X obj 747 289 seq-format-event knob4;
#X connect 0 0 5 0;
#X connect 1 0 6 0;
#X connect 2 0 7 0;
#X connect 3 0 8 0;
#X connect 5 0 4 0;
#X connect 6 0 4 0;
#X connect 7 0 4 0;
#X connect 8 0 4 0;
#X restore 594 126 pd the-knobs;
#X obj 576 80 list prepend notes;
#X obj 576 101 list trim;
#N canvas 10 51 1276 865 auto-knobs-notes-through 0;
#X obj 438 185 inlet;
#X obj 852 503 outlet;
#X obj 562 398 s seq3-k3;
#X obj 537 440 s seq3-k2;
#X obj 435 470 s seq3-k1;
#X obj 663 357 s seq3-k4;
#X obj 435 295 route knob1 knob2 knob3 knob4 notes, f 64;
#X connect 0 0 6 0;
#X connect 6 0 4 0;
#X connect 6 1 3 0;
#X connect 6 2 2 0;
#X connect 6 3 5 0;
#X connect 6 4 1 0;
#X restore 576 380 pd auto-knobs-notes-through;
#X msg 687 231 slot \$1;
#X obj 576 330 seq3 1 0 ../../sequences 1, f 45;
#X obj 625 153 cg-standard-sc-seq3-print 1 1;
#X obj 625 177 cg-standard-sc-seq3-control 1;
#X obj 807 205 r load-seq3;
#X obj 821 132 r saveState;
#X msg 821 173 save bang;
#X msg 807 226 init bang;
#X obj 370 118 r seq3-1-led;
#X obj 370 140 s led;
#N canvas 674 449 860 595 slot-saver-1 0;
#X obj 402 140 r cgSc-1-slots;
#X msg 30 140 0;
#X obj 30 161 tabread \$0-slot;
#X obj 199 265 array define \$0-slot;
#X obj 30 110 t b b;
#X msg 199 138 read slot.txt;
#X msg 243 226 write slot.txt;
#X obj 243 160 r saveState;
#X obj 387 198 t a b;
#X msg 440 224 0;
#X obj 387 247 tabwrite \$0-slot;
#X obj 30 215 s cgSc-1-slots;
#X obj 243 181 t b b;
#X obj 387 168 f;
#X obj 30 68 r read-slot;
#X connect 0 0 13 1;
#X connect 1 0 2 0;
#X connect 2 0 11 0;
#X connect 4 0 1 0;
#X connect 4 1 5 0;
#X connect 5 0 3 0;
#X connect 6 0 3 0;
#X connect 7 0 12 0;
#X connect 8 0 10 0;
#X connect 8 1 9 0;
#X connect 9 0 10 1;
#X connect 12 0 6 0;
#X connect 12 1 13 0;
#X connect 13 0 8 0;
#X connect 14 0 4 0;
#X restore 369 93 pd slot-saver-1;
#N canvas 652 50 1057 799 metro-here 0;
#X obj 572 310 r seq3-1-actions;
#X obj 515 488 f;
#X msg 610 393 0;
#X obj 642 393 t b b;
#X msg 648 423 1;
#X obj 610 365 sel 1;
#X obj 515 435 del 1;
#X obj 257 446 s beat-clock;
#X obj 324 183 loadbang;
#X msg 256 264 1;
#X obj 406 496 list, f 7;
#X obj 406 518 route 69;
#X obj 406 424 t b a;
#X msg 406 466 69;
#X msg 324 205 120;
#X obj 380 364 pack, f 10;
#X obj 415 332 t b a;
#X obj 257 294 metronome360 0, f 18;
#X obj 522 280 s seq3-1-quan;
#X obj 603 481 f;
#X obj 406 540 spigot 1;
#X obj 515 510 spigot 1, f 14;
#X obj 499 641 + 1;
#X obj 406 695 print-line5 1, f 16;
#X obj 522 251 r metro-state;
#X obj 689 489 loadbang;
#X obj 499 662 f;
#X obj 689 531 t b b;
#X obj 515 571 f;
#X obj 689 510 del 1;
#X obj 610 342 r cgSc-1-mute-print;
#X obj 499 615 r cgSc-1-slots;
#X connect 0 0 1 0;
#X connect 1 0 21 0;
#X connect 2 0 19 0;
#X connect 3 0 6 0;
#X connect 3 1 4 0;
#X connect 4 0 19 0;
#X connect 5 0 2 0;
#X connect 5 1 3 0;
#X connect 6 0 1 0;
#X connect 6 0 13 0;
#X connect 8 0 14 0;
#X connect 8 0 9 0;
#X connect 9 0 17 0;
#X connect 10 0 11 0;
#X connect 11 0 20 0;
#X connect 12 0 13 0;
#X connect 12 1 10 1;
#X connect 13 0 10 0;
#X connect 14 0 17 1;
#X connect 15 0 12 0;
#X connect 16 0 15 0;
#X connect 16 1 15 1;
#X connect 17 0 7 0;
#X connect 17 1 16 0;
#X connect 17 2 15 0;
#X connect 19 0 20 1;
#X connect 19 0 21 1;
#X connect 20 0 23 0;
#X connect 21 0 28 0;
#X connect 22 0 26 0;
#X connect 24 0 18 0;
#X connect 25 0 29 0;
#X connect 26 0 23 2;
#X connect 27 0 28 0;
#X connect 27 1 26 0;
#X connect 28 0 23 1;
#X connect 29 0 27 0;
#X connect 30 0 5 0;
#X connect 31 0 22 0;
#X restore 368 55 pd metro-here;
#X connect 0 0 4 0;
#X connect 1 0 9 0;
#X connect 2 0 4 1;
#X connect 3 0 10 2;
#X connect 4 0 6 0;
#X connect 5 0 10 0;
#X connect 6 0 7 0;
#X connect 7 0 10 0;
#X connect 9 0 10 1;
#X connect 10 0 8 0;
#X connect 12 0 10 1;
#X connect 13 0 16 0;
#X connect 14 0 15 0;
#X connect 15 0 10 1;
#X connect 16 0 10 1;
#X connect 17 0 18 0;
