#N canvas 1009 137 816 774 10;
#X obj 47 325 *~, f 7;
#X obj 92 184 lop~ 8;
#X obj 93 218 *~, f 5;
#X obj 92 292 +~ 1;
#X obj 92 270 *~ 200;
#X msg 164 133 Distort Amt. \$1 %;
#X obj 164 83 * 101;
#X obj 164 105 int;
#X text 47 17 Simple Distort Module using clip~;
#X obj 46 358 clip~ -1 1, f 40;
#X obj 299 58 - 1;
#X msg 325 130 Bottom Clip \$1;
#X msg 483 130 Top Clip \$1;
#X msg 583 83 \$1 10;
#X obj 12 427 c_xfade, f 65;
#X obj 643 83 * 101;
#X obj 643 105 int;
#X msg 643 127 Dry / Wet \$1 %;
#X obj 12 449 hip~ 5;
#X obj 483 79 int;
#X obj 483 101 * 0.001;
#X obj 355 79 int;
#X obj 355 101 * 0.001;
#X obj 355 57 * 1000;
#X obj 483 57 * 1002;
#X msg 181 282 \$1 20;
#X obj 321 295 line;
#X obj 181 304 line;
#X obj 47 44 r~ dclip-\$1-in;
#X obj 164 61 r dclip-\$1-level;
#X obj 299 36 r dclip-\$1-bott;
#X obj 452 36 r dclip-\$1-top;
#X obj 583 47 r dclip-\$1-dw;
#X obj 643 149 s dclip-\$1-dw-label;
#X obj 483 152 s dclip-\$1-top-label;
#X obj 325 152 s dclip-\$1-bott-label;
#X obj 164 155 s dclip-\$1-level-label;
#X obj 14 683 *~;
#N canvas 459 281 526 600 switcher 0;
#X obj 113 261 t b b, f 11;
#X obj 289 439 delay 5;
#X obj 132 451 line~;
#X msg 132 412 0 4;
#X obj 133 476 *~;
#X msg 289 471 0;
#X obj 113 220 bang;
#X msg 384 467 1;
#X msg 167 412 1 4;
#X obj 132 503 outlet~;
#X obj 289 503 outlet;
#X obj 113 49 inlet;
#X obj 352 143 t b b;
#X text 156 48 0;
#X text 393 50 1;
#X obj 352 112 bang;
#X obj 352 50 inlet;
#X connect 0 0 1 0;
#X connect 0 1 3 0;
#X connect 1 0 5 0;
#X connect 2 0 4 0;
#X connect 2 0 4 1;
#X connect 3 0 2 0;
#X connect 4 0 9 0;
#X connect 5 0 10 0;
#X connect 6 0 0 0;
#X connect 7 0 10 0;
#X connect 8 0 2 0;
#X connect 11 0 6 0;
#X connect 12 0 8 0;
#X connect 12 1 7 0;
#X connect 15 0 12 0;
#X connect 16 0 15 0;
#X restore 146 634 pd switcher;
#X obj 96 683 *~;
#X obj 146 605 sel 0 1;
#X obj 220 658 switch~ 64 1 1;
#X obj 146 556 r dclip-\$1-switch;
#X msg 322 259 \$1 20;
#X obj 121 534 r \$1-kill-switch;
#X obj 146 585 tgl 15 0 empty empty empty 17 7 0 10 -262144 -1 -1 0
1;
#X obj 46 380 *~ 0.125;
#X obj 12 731 s~ dclip-\$1-outL;
#X obj 162 731 s~ dclip-\$1-outR;
#X connect 0 0 9 0;
#X connect 1 0 2 0;
#X connect 1 0 2 1;
#X connect 2 0 4 0;
#X connect 3 0 0 1;
#X connect 4 0 3 0;
#X connect 5 0 36 0;
#X connect 6 0 7 0;
#X connect 7 0 5 0;
#X connect 9 0 46 0;
#X connect 10 0 23 0;
#X connect 10 0 25 0;
#X connect 11 0 35 0;
#X connect 12 0 34 0;
#X connect 13 0 14 2;
#X connect 14 0 18 0;
#X connect 15 0 16 0;
#X connect 16 0 17 0;
#X connect 17 0 33 0;
#X connect 18 0 37 0;
#X connect 18 0 39 0;
#X connect 19 0 20 0;
#X connect 20 0 12 0;
#X connect 21 0 22 0;
#X connect 22 0 11 0;
#X connect 23 0 21 0;
#X connect 24 0 19 0;
#X connect 25 0 27 0;
#X connect 26 0 9 2;
#X connect 27 0 9 1;
#X connect 28 0 0 0;
#X connect 28 0 14 0;
#X connect 29 0 1 0;
#X connect 29 0 6 0;
#X connect 30 0 10 0;
#X connect 31 0 24 0;
#X connect 31 0 43 0;
#X connect 32 0 13 0;
#X connect 32 0 15 0;
#X connect 37 0 47 0;
#X connect 38 0 37 1;
#X connect 38 0 39 1;
#X connect 38 1 41 0;
#X connect 39 0 48 0;
#X connect 40 0 38 0;
#X connect 40 1 38 1;
#X connect 42 0 45 0;
#X connect 43 0 26 0;
#X connect 44 0 45 0;
#X connect 45 0 40 0;
#X connect 46 0 14 1;
