#N canvas 356 123 1029 754 10;
#X msg 271 298 speed \$1;
#X msg 341 298 pitch \$1;
#X msg 460 302 read \$1;
#X obj 460 214 r mutate-read;
#X obj 205 45 inlet note;
#X obj 205 205 text get note-params;
#X obj 205 67 t a a, f 17;
#X obj 205 106 unpack 0 0;
#N canvas 15 50 1144 905 chopper 0;
#X obj 376 304 sel 0, f 15;
#X msg 528 474 1;
#X obj 416 718 *~;
#X obj 308 719 *~;
#X obj 500 639 vline~;
#X msg 578 523 0;
#X msg 376 492 0;
#X obj 376 416 t b b b, f 12;
#X obj 478 389 sqrt;
#X obj 500 661 *~;
#X obj 415 754 outlet~;
#X obj 308 753 outlet~;
#X msg 629 497 point \$1;
#X obj 629 466 v m-m-p;
#X obj 478 340 min 100;
#X obj 478 367 / 100;
#X obj 376 93 inlet;
#X obj 629 529 s \$0-2-chopper;
#X obj 308 544 r \$0-2-chopper;
#X msg 457 226 tabPoint \$1;
#X obj 376 115 unpack 0 0;
#X obj 376 137 swap, f 12;
#X obj 478 435 t f b b b, f 22;
#X obj 457 278 s \$0-2-chopper;
#X obj 457 160 - 21;
#X text 504 156 make 0-2 for the tables;
#X text 702 498 sound to read;
#X text 568 191 table for chops;
#X obj 308 587 cg-chopper-rec mutate;
#X msg 556 226 chunks \$1;
#X obj 457 182 t f f;
#X obj 515 188 + 3;
#X msg 446 457 0 0;
#X msg 478 475 \$1 0;
#X connect 0 0 7 0;
#X connect 0 1 14 0;
#X connect 1 0 28 1;
#X connect 2 0 10 0;
#X connect 3 0 11 0;
#X connect 4 0 9 0;
#X connect 4 0 9 1;
#X connect 5 0 28 2;
#X connect 6 0 28 1;
#X connect 7 0 6 0;
#X connect 7 2 32 0;
#X connect 8 0 22 0;
#X connect 9 0 3 1;
#X connect 9 0 2 1;
#X connect 12 0 17 0;
#X connect 13 0 12 0;
#X connect 14 0 15 0;
#X connect 15 0 8 0;
#X connect 16 0 20 0;
#X connect 18 0 28 0;
#X connect 19 0 23 0;
#X connect 20 0 21 0;
#X connect 20 1 21 1;
#X connect 21 0 0 0;
#X connect 21 1 24 0;
#X connect 22 0 33 0;
#X connect 22 1 1 0;
#X connect 22 2 5 0;
#X connect 22 3 13 0;
#X connect 24 0 30 0;
#X connect 28 0 3 0;
#X connect 28 1 2 0;
#X connect 29 0 23 0;
#X connect 30 0 19 0;
#X connect 30 1 31 0;
#X connect 31 0 29 0;
#X connect 32 0 4 0;
#X connect 33 0 4 0;
#X restore 197 609 pd chopper;
#N canvas 426 65 1246 867 springer+effects 0;
#X obj 306 514 r \$0-2-sampler;
#X obj 589 499 s \$0-2-sampler;
#X obj 376 274 sel 0, f 15;
#X msg 528 444 1;
#X obj 416 688 *~;
#X obj 308 689 *~;
#X obj 500 609 vline~;
#X msg 445 531 0;
#X msg 376 462 0;
#X obj 376 386 t b b b, f 12;
#X obj 478 359 sqrt;
#X obj 500 631 *~;
#X obj 415 724 outlet~;
#X obj 308 723 outlet~;
#X msg 589 467 point \$1;
#X obj 589 436 v m-m-p;
#X obj 478 310 min 100;
#X obj 478 337 / 100;
#X obj 478 405 t f b b b, f 14;
#X obj 309 163 inlet;
#X obj 798 130 inlet;
#N canvas 940 68 573 806 effect-select 0;
#X obj 64 27 inlet~ left;
#X obj 349 29 inlet which-effect;
#X obj 204 27 inlet~ right;
#X obj 64 49 s~ \$0-leftfx;
#X obj 204 49 s~ \$0-rightfx;
#X obj 216 653 catch~ \$0-busR;
#X obj 74 653 catch~ \$0-busL;
#X obj 349 50 s \$0-list-inlet;
#X obj 78 205 mutate-lopass \$0 1;
#X obj 78 170 mutate-dry \$0 0;
#X obj 76 294 mutate-reverb \$0 4 0.5 1 0.2;
#X obj 75 231 mutate-bandpass \$0 2;
#X obj 84 255 mutate-hipass \$0 3;
#X obj 79 523 mutate-phasor \$0 10;
#X obj 74 675 outlet~;
#X obj 216 675 outlet~;
#X obj 81 404 mutate-delay \$0 7 0.9;
#X obj 77 368 mutate-reverb \$0 6 23 20 0.95;
#X obj 76 337 mutate-reverb \$0 5 14 15 0.75;
#X obj 82 446 mutate-delay \$0 8 50 0.85;
#X obj 83 484 mutate-delay \$0 9 250 0.5;
#X connect 0 0 3 0;
#X connect 1 0 7 0;
#X connect 2 0 4 0;
#X connect 5 0 15 0;
#X connect 6 0 14 0;
#X restore 307 598 pd effect-select;
#X obj 309 185 unpack 0 0;
#X obj 306 561 cg-springer-2-rec mutate;
#X obj 874 483 s \$0-block-message;
#X obj 798 482 f;
#X obj 868 130 inlet;
#X msg 478 445 \$1 0;
#X msg 446 427 0 0;
#X connect 0 0 23 0;
#X connect 2 0 9 0;
#X connect 2 1 16 0;
#X connect 3 0 23 1;
#X connect 4 0 12 0;
#X connect 5 0 13 0;
#X connect 6 0 11 0;
#X connect 6 0 11 1;
#X connect 7 0 23 2;
#X connect 8 0 23 1;
#X connect 9 0 8 0;
#X connect 9 2 28 0;
#X connect 10 0 18 0;
#X connect 11 0 5 1;
#X connect 11 0 4 1;
#X connect 14 0 1 0;
#X connect 15 0 14 0;
#X connect 16 0 17 0;
#X connect 17 0 10 0;
#X connect 18 0 27 0;
#X connect 18 1 3 0;
#X connect 18 2 7 0;
#X connect 18 3 15 0;
#X connect 19 0 22 0;
#X connect 20 0 25 0;
#X connect 21 0 5 0;
#X connect 21 1 4 0;
#X connect 22 1 2 0;
#X connect 23 0 21 0;
#X connect 23 1 21 1;
#X connect 25 0 21 2;
#X connect 26 0 24 0;
#X connect 27 0 6 0;
#X connect 28 0 6 0;
#X restore 346 611 pd springer+effects;
#X obj 125 383 moses 21;
#X obj 271 510 s \$0-2-sampler;
#X obj 271 470 t a a, f 23;
#X obj 411 510 s \$0-2-chopper;
#X obj 205 243 unpack 0 0 0 0, f 29;
#X obj 197 576 pack 0 0;
#X obj 272 130 s \$0-velocity;
#X obj 250 550 r \$0-velocity;
#X obj 346 576 pack 0 0;
#X obj 399 550 r \$0-velocity;
#X obj 792 467 s mutate-tracker;
#X obj 820 381 t b a;
#X obj 873 119 sel 0;
#X obj 820 213 r child-metro;
#X obj 859 282 + 1;
#X obj 820 304 % 2;
#X obj 820 326 sel 0 1, f 12;
#X msg 820 348 0;
#X obj 860 349 f;
#X obj 820 282 f 1;
#X obj 820 253 spigot 0;
#X msg 873 171 0;
#X obj 905 174 t b f;
#X msg 905 196 1;
#X msg 836 172 1;
#X obj 792 417 f;
#X obj 792 77 unpack 0 0;
#X obj 792 442 pack 0 0;
#X obj 196 693 throw~ mutate-recL;
#X obj 345 694 throw~ mutate-recR;
#X obj 645 50 inlet;
#X obj 448 262 f;
#X obj 429 128 r \$0-velocity;
#X obj 429 150 sel 0;
#X obj 461 174 t b b;
#X msg 521 302 length 1;
#X text 8 366 change to 24 to disable chopper (re-sort);
#X connect 0 0 12 0;
#X connect 1 0 12 0;
#X connect 2 0 12 0;
#X connect 3 0 41 1;
#X connect 4 0 6 0;
#X connect 5 0 14 0;
#X connect 6 0 7 0;
#X connect 6 1 36 0;
#X connect 7 0 5 0;
#X connect 7 1 16 0;
#X connect 8 0 38 0;
#X connect 8 1 39 0;
#X connect 9 0 38 0;
#X connect 9 1 39 0;
#X connect 10 0 18 0;
#X connect 10 1 15 0;
#X connect 12 0 11 0;
#X connect 12 1 13 0;
#X connect 14 0 10 0;
#X connect 14 1 0 0;
#X connect 14 2 1 0;
#X connect 14 3 9 1;
#X connect 15 0 8 0;
#X connect 17 0 15 1;
#X connect 18 0 9 0;
#X connect 19 0 18 1;
#X connect 21 0 35 0;
#X connect 21 1 37 1;
#X connect 22 0 31 0;
#X connect 22 0 34 0;
#X connect 22 1 32 0;
#X connect 23 0 30 0;
#X connect 24 0 29 1;
#X connect 25 0 26 0;
#X connect 26 0 27 0;
#X connect 26 1 28 0;
#X connect 27 0 21 0;
#X connect 28 0 21 0;
#X connect 29 0 24 0;
#X connect 29 0 25 0;
#X connect 30 0 29 0;
#X connect 31 0 30 1;
#X connect 31 0 21 0;
#X connect 32 0 33 0;
#X connect 32 1 28 1;
#X connect 33 0 30 1;
#X connect 34 0 29 1;
#X connect 35 0 37 0;
#X connect 36 0 35 0;
#X connect 36 1 22 0;
#X connect 37 0 20 0;
#X connect 40 0 9 2;
#X connect 41 0 2 0;
#X connect 42 0 43 0;
#X connect 43 1 44 0;
#X connect 44 0 41 0;
#X connect 44 1 45 0;
#X connect 45 0 12 0;
