#N canvas 6 50 1101 689 10;
#X obj 269 276 Phaser 1;
#X obj 819 161 s phaser-1-dw;
#X obj 777 183 s phaser-1-freq;
#X obj 740 202 s phaser-1-depth;
#X msg 777 159 0.2;
#X obj 740 81 loadbang;
#X msg 740 170 0.95;
#X msg 838 130 0.85;
#X obj 268 545 *~;
#X obj 408 545 *~;
#X obj 623 441 vline~;
#X obj 570 299 sel 0, f 15;
#X msg 725 363 1;
#X obj 725 501 switch~;
#X msg 570 425 0;
#X msg 687 422 stop;
#X obj 570 345 t b b b;
#X obj 672 341 t b b b, f 12;
#X obj 751 407 loadbang;
#X msg 751 429 0;
#X msg 672 363 1 5;
#X msg 620 398 0 5;
#X obj 570 403 del 5;
#X obj 267 597 throw~ \$1-busL;
#X obj 408 597 throw~ \$1-busR;
#X obj 270 60 r~ \$1-leftfx;
#X obj 323 90 r~ \$1-rightfx;
#X obj 570 111 r \$1-list-inlet;
#X msg 609 246 0;
#X obj 570 196 sel \$2;
#X obj 609 220 t b;
#X msg 570 233 1;
#X obj 570 275 change -1;
#X obj 788 452 r \$1-block-message;
#X connect 0 0 8 0;
#X connect 0 1 9 0;
#X connect 4 0 2 0;
#X connect 5 0 6 0;
#X connect 5 0 4 0;
#X connect 5 0 7 0;
#X connect 6 0 3 0;
#X connect 7 0 1 0;
#X connect 8 0 23 0;
#X connect 9 0 24 0;
#X connect 10 0 8 1;
#X connect 10 0 9 1;
#X connect 11 0 16 0;
#X connect 11 1 17 0;
#X connect 12 0 13 0;
#X connect 14 0 13 0;
#X connect 15 0 22 0;
#X connect 16 0 22 0;
#X connect 16 1 15 0;
#X connect 16 2 21 0;
#X connect 17 0 20 0;
#X connect 17 1 12 0;
#X connect 17 2 15 0;
#X connect 18 0 19 0;
#X connect 19 0 13 0;
#X connect 20 0 10 0;
#X connect 21 0 10 0;
#X connect 22 0 14 0;
#X connect 25 0 0 0;
#X connect 26 0 0 1;
#X connect 27 0 29 0;
#X connect 28 0 32 0;
#X connect 29 0 31 0;
#X connect 29 1 30 0;
#X connect 30 0 28 0;
#X connect 31 0 32 0;
#X connect 32 0 11 0;
#X connect 33 0 13 0;
