#N canvas 39 50 1562 926 10;
#X msg 311 408 speed \$1;
#X msg 386 408 pitch \$1;
#X msg 530 410 read \$1;
#X msg 611 410 length \$1;
#X obj 530 359 r mutate-read;
#X obj 611 382 r mutate-length;
#X obj 317 95 s mutate-tracker;
#X obj 236 35 inlet note;
#X obj 236 234 text get note-params;
#X obj 236 116 unpack 0 0;
#N canvas 12 50 1144 905 chopper 0;
#X obj 376 274 sel 0, f 15;
#X msg 528 444 1;
#X obj 416 688 *~;
#X obj 308 689 *~;
#X obj 500 609 vline~;
#X msg 578 493 0;
#X msg 399 412 stop;
#X msg 376 462 0;
#X obj 376 386 t b b b, f 12;
#X obj 478 359 sqrt;
#X obj 500 631 *~;
#X obj 415 724 outlet~;
#X obj 308 723 outlet~;
#X msg 629 467 point \$1;
#X obj 629 436 v m-m-p;
#X obj 478 310 min 100;
#X obj 478 337 / 100;
#X obj 376 93 inlet;
#X obj 629 499 s \$0-2-chopper;
#X obj 308 557 cg-chopper mutate;
#X obj 308 514 r \$0-2-chopper;
#X msg 457 206 tabPoint \$1;
#X obj 376 115 unpack 0 0;
#X obj 376 137 swap, f 12;
#X obj 478 405 t f b b b, f 22;
#X obj 457 248 s \$0-2-chopper;
#X obj 457 160 - 21;
#X text 504 156 make 0-2 for the tables;
#X text 702 468 sound to read;
#X text 341 208 table for chops;
#X obj 376 438 del 10;
#X msg 446 427 0 10;
#X msg 478 445 \$1 10;
#X msg 555 206 chunks \$1;
#X obj 457 182 t f f;
#X obj 538 182 + 3;
#X text 633 204 how many chunks;
#X connect 0 0 8 0;
#X connect 0 1 15 0;
#X connect 1 0 19 1;
#X connect 2 0 11 0;
#X connect 3 0 12 0;
#X connect 4 0 10 0;
#X connect 4 0 10 1;
#X connect 5 0 19 2;
#X connect 6 0 30 0;
#X connect 7 0 19 1;
#X connect 8 0 30 0;
#X connect 8 1 6 0;
#X connect 8 2 31 0;
#X connect 9 0 24 0;
#X connect 10 0 3 1;
#X connect 10 0 2 1;
#X connect 13 0 18 0;
#X connect 14 0 13 0;
#X connect 15 0 16 0;
#X connect 16 0 9 0;
#X connect 17 0 22 0;
#X connect 19 0 3 0;
#X connect 19 1 2 0;
#X connect 20 0 19 0;
#X connect 21 0 25 0;
#X connect 22 0 23 0;
#X connect 22 1 23 1;
#X connect 23 0 0 0;
#X connect 23 1 26 0;
#X connect 24 0 32 0;
#X connect 24 1 1 0;
#X connect 24 2 5 0;
#X connect 24 3 14 0;
#X connect 26 0 34 0;
#X connect 30 0 7 0;
#X connect 31 0 4 0;
#X connect 32 0 4 0;
#X connect 33 0 25 0;
#X connect 34 0 21 0;
#X connect 34 1 35 0;
#X connect 35 0 33 0;
#X restore 228 739 pd chopper;
#N canvas 15 50 1160 908 springer+effects 0;
#X obj 308 514 r \$0-2-sampler;
#X obj 629 499 s \$0-2-sampler;
#X obj 376 274 sel 0, f 15;
#X msg 528 444 1;
#X obj 416 688 *~;
#X obj 308 689 *~;
#X obj 500 609 vline~;
#X msg 445 531 0;
#X msg 399 412 stop;
#X msg 376 462 0;
#X obj 376 386 t b b b, f 12;
#X obj 478 359 sqrt;
#X obj 500 631 *~;
#X obj 415 724 outlet~;
#X obj 308 723 outlet~;
#X msg 629 467 point \$1;
#X obj 629 436 v m-m-p;
#X obj 308 561 cg-springer-2 mutate;
#X obj 478 310 min 100;
#X obj 478 337 / 100;
#X obj 478 405 t f b b b, f 22;
#X obj 309 163 inlet;
#X obj 828 460 inlet;
#N canvas 136 112 656 806 effect-select 0;
#X obj 64 27 inlet~ left;
#X obj 810 43 inlet which-effect;
#X obj 204 27 inlet~ right;
#X obj 64 49 s~ \$0-leftfx;
#X obj 204 49 s~ \$0-rightfx;
#X obj 216 653 catch~ \$0-busR;
#X obj 74 653 catch~ \$0-busL;
#X obj 810 64 s \$0-list-inlet;
#X obj 78 205 mutate-lopass \$0 1;
#X obj 78 170 mutate-dry \$0 0;
#X obj 77 368 mutate-reverb \$0 6 23 20 0.95;
#X obj 76 294 mutate-reverb \$0 4 0.5 1 0.2;
#X obj 76 337 mutate-reverb \$0 5 14 15 0.75;
#X obj 75 231 mutate-bandpass \$0 2;
#X obj 84 255 mutate-hipass \$0 3;
#X obj 83 484 mutate-delay \$0 9 250 0.5;
#X obj 81 404 mutate-delay \$0 7 0.9;
#X obj 82 446 mutate-delay \$0 8 50 0.85;
#X obj 79 523 mutate-phasor \$0 10;
#X obj 74 675 outlet~;
#X obj 216 675 outlet~;
#X connect 0 0 3 0;
#X connect 1 0 7 0;
#X connect 2 0 4 0;
#X connect 5 0 20 0;
#X connect 6 0 19 0;
#X restore 307 598 pd effect-select;
#X obj 309 185 unpack 0 0;
#X msg 478 445 \$1 10;
#X msg 446 427 0 10;
#X obj 376 438 del 10;
#X connect 0 0 17 0;
#X connect 2 0 10 0;
#X connect 2 1 18 0;
#X connect 3 0 17 1;
#X connect 4 0 13 0;
#X connect 5 0 14 0;
#X connect 6 0 12 0;
#X connect 6 0 12 1;
#X connect 7 0 17 2;
#X connect 8 0 27 0;
#X connect 9 0 17 1;
#X connect 10 0 27 0;
#X connect 10 1 8 0;
#X connect 10 2 26 0;
#X connect 11 0 20 0;
#X connect 12 0 5 1;
#X connect 12 0 4 1;
#X connect 15 0 1 0;
#X connect 16 0 15 0;
#X connect 17 0 23 0;
#X connect 17 1 23 1;
#X connect 18 0 19 0;
#X connect 19 0 11 0;
#X connect 20 0 25 0;
#X connect 20 1 3 0;
#X connect 20 2 7 0;
#X connect 20 3 16 0;
#X connect 21 0 24 0;
#X connect 22 0 23 2;
#X connect 23 0 5 0;
#X connect 23 1 4 0;
#X connect 24 1 2 0;
#X connect 25 0 6 0;
#X connect 26 0 6 0;
#X connect 27 0 9 0;
#X restore 350 741 pd springer+effects;
#X obj 236 583 moses 21;
#X obj 311 530 s \$0-2-sampler;
#X obj 311 490 t a a, f 12;
#X obj 431 530 s \$0-2-chopper;
#X obj 236 359 unpack 0 0 0 0, f 38;
#X obj 228 706 pack 0 0;
#X obj 303 140 s \$0-velocity;
#X obj 281 680 r \$0-velocity;
#X obj 350 706 pack 0 0;
#X obj 403 680 r \$0-velocity;
#X obj 268 828 throw~ outL;
#X obj 346 828 throw~ outR;
#X obj 236 68 t a a, f 12;
#X text 386 234 read from params.txt;
#X text 390 250 Args: KeyNumber \, Speed \, Pitch (0 is 'normal') \,
Effect;
#X text 299 582 change to 24 to disable chopper (re-sort);
#X connect 0 0 14 0;
#X connect 1 0 14 0;
#X connect 2 0 14 0;
#X connect 3 0 14 0;
#X connect 4 0 2 0;
#X connect 5 0 3 0;
#X connect 7 0 24 0;
#X connect 8 0 16 0;
#X connect 9 0 8 0;
#X connect 9 1 18 0;
#X connect 10 0 22 0;
#X connect 10 1 23 0;
#X connect 11 0 22 0;
#X connect 11 1 23 0;
#X connect 12 0 20 0;
#X connect 12 1 17 0;
#X connect 14 0 13 0;
#X connect 14 1 15 0;
#X connect 16 0 12 0;
#X connect 16 1 0 0;
#X connect 16 2 1 0;
#X connect 16 3 11 1;
#X connect 17 0 10 0;
#X connect 19 0 17 1;
#X connect 20 0 11 0;
#X connect 21 0 20 1;
#X connect 24 0 9 0;
#X connect 24 1 6 0;
