#N canvas 1058 132 690 852 10;
#X obj 276 321 i;
#X msg 276 342 Depth \$1 %;
#X obj 242 188 t f f;
#X obj 242 210 *, f 5;
#X obj 165 214 t f f;
#X obj 165 236 *, f 5;
#X obj 445 295 i;
#X obj 445 317 / 10;
#X text 485 288 just to knock off some decimal places, f 15;
#N canvas 8 50 612 483 crossfade 0;
#X obj 33 48 inlet~;
#X obj 211 67 inlet;
#X obj 39 327 outlet~;
#X obj 49 194 expr cos($f1 * 3.14159 / 2);
#X obj 244 194 expr sin($f1 * 3.14159 / 2);
#X obj 211 143 clip 0 1;
#N canvas 7 50 594 632 pan_core 0;
#X obj 21 106 inlet~;
#X obj 226 126 inlet;
#X obj 59 259 *~;
#X obj 123 303 outlet~;
#X obj 189 258 *~;
#X obj 205 234 line~;
#X obj 75 234 line~;
#X obj 96 127 inlet;
#X obj 179 104 inlet~;
#X text 223 350 comment;
#X obj 75 195 pack f 5;
#X obj 205 195 pack f 5;
#X text 202 346 Hans-Christoph Steiner \, 2004;
#X text 202 332 Adapted from [pan_core~];
#X connect 0 0 2 0;
#X connect 1 0 11 0;
#X connect 2 0 3 0;
#X connect 4 0 3 0;
#X connect 5 0 4 1;
#X connect 6 0 2 1;
#X connect 7 0 10 0;
#X connect 8 0 4 0;
#X connect 10 0 6 0;
#X connect 11 0 5 0;
#X restore 39 266 pd pan_core;
#X text 165 300 Adapted from [equal_power_pan~] \, Hans-Christoph Steiner
\, 2004;
#X text 320 312 comment;
#X obj 128 46 inlet~;
#X connect 0 0 6 0;
#X connect 1 0 5 0;
#X connect 3 0 6 1;
#X connect 4 0 6 3;
#X connect 5 0 3 0;
#X connect 5 0 4 0;
#X connect 6 0 2 0;
#X connect 9 0 6 2;
#X restore 15 495 pd crossfade;
#X msg 445 342 Freq \$1 Hz, f 12;
#X text 71 25 Phaser Effect Module;
#X obj 242 234 * 9;
#X obj 445 273 * 11;
#X obj 165 126 r phaser-\$1-depth;
#X obj 242 157 r phaser-\$1-freq;
#X obj 276 363 s phaser-\$1-depth-label;
#X obj 445 363 s phaser-\$1-freq-label;
#X obj 206 398 r phaser-\$1-dw;
#X obj 276 299 * 100;
#N canvas 8 50 612 483 crossfade 0;
#X obj 33 48 inlet~;
#X obj 211 67 inlet;
#X obj 39 327 outlet~;
#X obj 49 194 expr cos($f1 * 3.14159 / 2);
#X obj 244 194 expr sin($f1 * 3.14159 / 2);
#X obj 211 143 clip 0 1;
#N canvas 7 50 594 632 pan_core 0;
#X obj 21 106 inlet~;
#X obj 226 126 inlet;
#X obj 59 259 *~;
#X obj 123 303 outlet~;
#X obj 189 258 *~;
#X obj 205 234 line~;
#X obj 75 234 line~;
#X obj 96 127 inlet;
#X obj 179 104 inlet~;
#X text 223 350 comment;
#X obj 75 195 pack f 5;
#X obj 205 195 pack f 5;
#X text 202 346 Hans-Christoph Steiner \, 2004;
#X text 202 332 Adapted from [pan_core~];
#X connect 0 0 2 0;
#X connect 1 0 11 0;
#X connect 2 0 3 0;
#X connect 4 0 3 0;
#X connect 5 0 4 1;
#X connect 6 0 2 1;
#X connect 7 0 10 0;
#X connect 8 0 4 0;
#X connect 10 0 6 0;
#X connect 11 0 5 0;
#X restore 39 266 pd pan_core;
#X text 165 300 Adapted from [equal_power_pan~] \, Hans-Christoph Steiner
\, 2004;
#X text 320 312 comment;
#X obj 128 46 inlet~;
#X connect 0 0 6 0;
#X connect 1 0 5 0;
#X connect 3 0 6 1;
#X connect 4 0 6 3;
#X connect 5 0 3 0;
#X connect 5 0 4 0;
#X connect 6 0 2 0;
#X connect 9 0 6 2;
#X restore 125 534 pd crossfade;
#X obj 142 361 e_phaser \$1-phase2;
#X obj 56 322 e_phaser \$1-phase1;
#X obj 49 48 inlet~;
#X obj 139 48 inlet~;
#X obj 17 719 outlet~;
#X obj 126 699 outlet~;
#X obj 235 463 i;
#X msg 235 488 Dry / Wet \$1 %;
#X obj 235 511 s phaser-\$1-dw-label;
#X obj 235 440 * 100;
#X connect 0 0 1 0;
#X connect 1 0 16 0;
#X connect 2 0 3 0;
#X connect 2 1 3 1;
#X connect 3 0 12 0;
#X connect 4 0 5 0;
#X connect 4 1 5 1;
#X connect 5 0 19 0;
#X connect 5 0 21 1;
#X connect 5 0 22 1;
#X connect 6 0 7 0;
#X connect 7 0 10 0;
#X connect 9 0 25 0;
#X connect 10 0 17 0;
#X connect 12 0 13 0;
#X connect 12 0 21 2;
#X connect 12 0 22 2;
#X connect 13 0 6 0;
#X connect 14 0 4 0;
#X connect 15 0 2 0;
#X connect 18 0 9 2;
#X connect 18 0 20 2;
#X connect 18 0 30 0;
#X connect 19 0 0 0;
#X connect 20 0 26 0;
#X connect 21 0 20 1;
#X connect 22 0 9 1;
#X connect 23 0 9 0;
#X connect 23 0 22 0;
#X connect 24 0 20 0;
#X connect 24 0 21 0;
#X connect 27 0 28 0;
#X connect 28 0 29 0;
#X connect 30 0 27 0;
