#N canvas 393 94 1182 845 10;
#X obj 287 306 f;
#X obj 320 306 + 1;
#X msg 333 253 0;
#X obj 287 252 until;
#X obj 287 225 t a b, f 7;
#X obj 287 328 t f f, f 9;
#X obj 287 372 +;
#X floatatom 372 315 5 0 0 0 - - -, f 5;
#X obj 287 409 tabwrite \$0-array;
#X obj 360 377 +;
#X floatatom 425 324 5 0 0 0 - - -, f 5;
#X obj 372 334 * 0.25;
#X obj 287 350 / 88200;
#X obj 425 353 * 22050;
#X obj 287 197 f;
#X obj 366 220 bng 15 250 50 0 empty empty empty 17 7 0 10 -262144
-1 -1;
#X obj 456 258 expr 1 / $f1;
#X obj 421 217 expr 88200 / $f1;
#X floatatom 454 149 5 0 0 0 - - -, f 5;
#X obj 454 168 t f f;
#X floatatom 378 362 5 0 0 0 - - -, f 5;
#X floatatom 425 375 5 0 0 0 - - -, f 5;
#X text 465 324 place;
#X text 413 303 height;
#X text 495 149 how many;
#X msg 647 120 write ADCB.txt;
#X obj 277 67 array define \$0-array 88200;
#X connect 0 0 1 0;
#X connect 0 0 5 0;
#X connect 1 0 0 1;
#X connect 2 0 0 1;
#X connect 3 0 0 0;
#X connect 4 0 3 0;
#X connect 4 1 2 0;
#X connect 5 0 12 0;
#X connect 5 1 9 0;
#X connect 6 0 8 0;
#X connect 7 0 11 0;
#X connect 9 0 8 1;
#X connect 10 0 13 0;
#X connect 11 0 6 1;
#X connect 11 0 20 0;
#X connect 12 0 6 0;
#X connect 13 0 9 1;
#X connect 13 0 21 0;
#X connect 14 0 4 0;
#X connect 15 0 14 0;
#X connect 16 0 11 1;
#X connect 17 0 14 1;
#X connect 17 0 13 1;
#X connect 18 0 19 0;
#X connect 19 0 17 0;
#X connect 19 1 16 0;
#X connect 25 0 26 0;
