#N canvas 61 180 828 686 10;
#X msg 571 245 \$1 10;
#X obj 81 508 c_xfade, f 9;
#X obj 481 97 * 100;
#X obj 481 119 i;
#X obj 125 138 int;
#X obj 122 62 t f f;
#X obj 123 87 *;
#X msg 122 164 Time \$1 Ms;
#X obj 631 245 * 101;
#X obj 631 267 int;
#X msg 631 289 Dry / Wet \$1 %;
#X msg 481 141 Feedback \$1 %;
#X obj 122 112 * 3000;
#X text 33 12 Simple 3 sec Delay Module with a hi-pass filter;
#X obj 22 397 delay3sec 5, f 22;
#X obj 162 508 c_xfade, f 9;
#X obj 162 427 delay3sec 5, f 26;
#X obj 285 178 t f f;
#X obj 236 244 *;
#X obj 262 309 t b f;
#X obj 262 372 -;
#X obj 202 309 t b f;
#X obj 202 372 +;
#X obj 202 344 f;
#X obj 262 342 f;
#X obj 301 91 * 100;
#X obj 301 113 i;
#X msg 301 135 Spread \$1 %;
#X obj 236 266 * 10;
#X obj 81 530 hip~ 5;
#X obj 162 530 hip~ 5;
#X obj 60 125 hip~ 20;
#X obj 22 79 r~ sdly-\$1-in;
#X obj 122 40 r sdly-\$1-time;
#X obj 285 66 r sdly-\$1-spread;
#X obj 122 186 s sdly-\$1-time-label;
#X obj 301 157 s sdly-\$1-spread-label;
#X obj 481 163 s sdly-\$1-fb-label;
#X obj 571 208 r sdly-\$1-dw;
#X obj 631 311 s sdly-\$1-dw-label;
#X obj 82 639 s~ sdly-\$1-outL;
#X obj 213 640 s~ sdly-\$1-outR;
#X obj 461 66 r sdly-\$1-fb;
#X connect 0 0 1 2;
#X connect 0 0 15 2;
#X connect 1 0 29 0;
#X connect 2 0 3 0;
#X connect 3 0 11 0;
#X connect 4 0 7 0;
#X connect 5 0 6 0;
#X connect 5 1 6 1;
#X connect 6 0 12 0;
#X connect 7 0 35 0;
#X connect 8 0 9 0;
#X connect 9 0 10 0;
#X connect 10 0 39 0;
#X connect 11 0 37 0;
#X connect 12 0 4 0;
#X connect 12 0 23 0;
#X connect 12 0 24 0;
#X connect 14 0 1 1;
#X connect 15 0 30 0;
#X connect 16 0 15 1;
#X connect 17 0 18 0;
#X connect 17 1 18 1;
#X connect 18 0 28 0;
#X connect 19 0 24 0;
#X connect 19 1 20 1;
#X connect 20 0 16 1;
#X connect 21 0 23 0;
#X connect 21 1 22 1;
#X connect 22 0 14 1;
#X connect 23 0 22 0;
#X connect 24 0 20 0;
#X connect 25 0 26 0;
#X connect 26 0 27 0;
#X connect 27 0 36 0;
#X connect 28 0 19 0;
#X connect 28 0 21 0;
#X connect 29 0 40 0;
#X connect 30 0 41 0;
#X connect 31 0 14 0;
#X connect 31 0 16 0;
#X connect 32 0 31 0;
#X connect 32 0 1 0;
#X connect 32 0 15 0;
#X connect 33 0 5 0;
#X connect 34 0 17 0;
#X connect 34 0 25 0;
#X connect 38 0 0 0;
#X connect 38 0 8 0;
#X connect 42 0 2 0;
#X connect 42 0 14 2;
#X connect 42 0 16 2;
