#N canvas 179 128 1339 743 10;
#X obj 146 287 s oscOut;
#X msg 147 233 /oled/gClear 0 1;
#X obj 483 337 * 0.0033333;
#X obj 483 359 * 32;
#X obj 483 381 i;
#X floatatom 483 403 5 0 0 0 - - -, f 5;
#X obj 653 261 * 0.0033333;
#X obj 653 283 * 32;
#X obj 653 305 i;
#X obj 798 250 * 0.01;
#X obj 798 272 * 64;
#X obj 798 317 i;
#X obj 798 294 * -1;
#X obj 986 252 * 0.00025;
#X obj 986 274 * 32;
#X obj 986 296 i;
#X floatatom 986 321 5 0 0 0 - - -, f 5;
#X floatatom 798 339 5 0 0 0 - - -, f 5;
#X floatatom 653 347 5 0 0 0 - - -, f 5;
#X obj 842 396 + 32;
#X obj 986 350 t b a;
#X obj 483 422 t b a;
#X obj 653 371 t b a;
#X obj 698 387 t b a;
#X obj 653 327 +, f 8;
#X obj 694 303 t b a;
#X obj 798 462 pack 0 0 0 0;
#X obj 798 358 t b a;
#X obj 842 418 t b a;
#X obj 986 377 +;
#X obj 928 461 pack 0 0 0 63;
#X obj 370 262 r \$0-bang;
#X obj 954 221 s \$0-bang;
#X obj 766 220 s \$0-bang;
#X obj 621 222 s \$0-bang;
#X obj 451 241 s \$0-bang;
#X obj 370 284 t b b b b;
#X obj 451 153 * 300;
#X obj 621 140 * 300;
#X obj 954 160 * 4000;
#X obj 766 160 + 2;
#X obj 483 453 pack 0 63 0 10;
#X obj 639 461 pack 0 10 0 0;
#N canvas 5 50 450 300 erase-redraw 0;
#X obj 99 87 list;
#X obj 53 149 t a a, f 18;
#X obj 99 109 route list;
#X obj 124 38 loadbang;
#X msg 124 60 0;
#X text 188 150 previous area to invert(erase);
#X text 158 61 erase old session list;
#X obj 53 65 t l b, f 7;
#X msg 53 178 /oled/gLine 0 \$1 \$2 \$3 \$4 1;
#X msg 99 200 /oled/gLine 0 \$1 \$2 \$3 \$4 0;
#X text 255 177 on;
#X text 294 201 off;
#X obj 53 12 inlet;
#X obj 53 228 outlet;
#X connect 0 0 2 0;
#X connect 1 0 8 0;
#X connect 1 1 0 1;
#X connect 2 0 9 0;
#X connect 3 0 4 0;
#X connect 4 0 0 1;
#X connect 7 0 1 0;
#X connect 7 1 0 0;
#X connect 8 0 13 0;
#X connect 9 0 13 0;
#X connect 12 0 7 0;
#X restore 928 486 pd erase-redraw;
#X obj 928 508 s oscOut;
#N canvas 5 50 450 300 erase-redraw 0;
#X obj 99 87 list;
#X obj 53 169 t a a, f 18;
#X obj 99 109 route list;
#X obj 124 38 loadbang;
#X msg 124 60 0;
#X text 188 169 previous area to invert(erase);
#X text 158 61 erase old session list;
#X obj 53 65 t l b, f 7;
#X msg 53 198 /oled/gLine 0 \$1 \$2 \$3 \$4 1;
#X msg 99 220 /oled/gLine 0 \$1 \$2 \$3 \$4 0;
#X text 255 197 on;
#X text 302 221 off;
#X obj 53 12 inlet;
#X obj 53 248 outlet;
#X connect 0 0 2 0;
#X connect 1 0 8 0;
#X connect 1 1 0 1;
#X connect 2 0 9 0;
#X connect 3 0 4 0;
#X connect 4 0 0 1;
#X connect 7 0 1 0;
#X connect 7 1 0 0;
#X connect 8 0 13 0;
#X connect 9 0 13 0;
#X connect 12 0 7 0;
#X restore 798 485 pd erase-redraw;
#X obj 798 507 s oscOut;
#N canvas 5 50 450 300 erase-redraw 0;
#X obj 99 87 list;
#X obj 53 169 t a a, f 18;
#X obj 99 109 route list;
#X obj 124 38 loadbang;
#X msg 124 60 0;
#X text 188 169 previous area to invert(erase);
#X text 158 61 erase old session list;
#X obj 53 65 t l b, f 7;
#X msg 53 198 /oled/gLine 0 \$1 \$2 \$3 \$4 1;
#X msg 99 220 /oled/gLine 0 \$1 \$2 \$3 \$4 0;
#X text 255 197 on;
#X text 302 221 off;
#X obj 53 12 inlet;
#X obj 53 248 outlet;
#X connect 0 0 2 0;
#X connect 1 0 8 0;
#X connect 1 1 0 1;
#X connect 2 0 9 0;
#X connect 3 0 4 0;
#X connect 4 0 0 1;
#X connect 7 0 1 0;
#X connect 7 1 0 0;
#X connect 8 0 13 0;
#X connect 9 0 13 0;
#X connect 12 0 7 0;
#X restore 639 484 pd erase-redraw;
#X obj 639 506 s oscOut;
#N canvas 676 320 450 300 erase-redraw 0;
#X obj 99 87 list;
#X obj 53 169 t a a, f 18;
#X obj 99 109 route list;
#X obj 124 38 loadbang;
#X msg 124 60 0;
#X text 188 169 previous area to invert(erase);
#X text 158 61 erase old session list;
#X obj 53 65 t l b, f 7;
#X msg 53 198 /oled/gLine 0 \$1 \$2 \$3 \$4 1;
#X msg 99 220 /oled/gLine 0 \$1 \$2 \$3 \$4 0;
#X text 255 197 on;
#X text 302 221 off;
#X obj 53 12 inlet;
#X obj 53 248 outlet;
#X connect 0 0 2 0;
#X connect 1 0 8 0;
#X connect 1 1 0 1;
#X connect 2 0 9 0;
#X connect 3 0 4 0;
#X connect 4 0 0 1;
#X connect 7 0 1 0;
#X connect 7 1 0 0;
#X connect 8 0 13 0;
#X connect 9 0 13 0;
#X connect 12 0 7 0;
#X restore 483 475 pd erase-redraw;
#X obj 483 497 s oscOut;
#X obj 451 184 t b a;
#X obj 621 165 t b a;
#X obj 766 193 t b a;
#X obj 954 194 t b a;
#X obj 451 121 m_speedlimit 100;
#X obj 621 118 m_speedlimit 100;
#X obj 766 118 m_speedlimit 100;
#X obj 954 120 m_speedlimit 100;
#X obj 451 90 r \$1-\$2-adsrP-a;
#X obj 621 86 r \$1-\$2-adsrP-d;
#X obj 766 86 r \$1-\$2-adsrP-s;
#X obj 954 88 r \$1-\$2-adsrP-r;
#X obj 55 112 inlet;
#X obj 766 138 * 50;
#X obj 55 134 sel 0 1, f 20;
#X msg 168 181 0;
#X obj 55 159 b;
#X obj 123 159 t b b b;
#X msg 168 210 /oled/gShowInfoBar 0 1;
#X msg 97 256 /oled/gPrintln 0 40 10 8 1 CZZ adsr;
#X msg 14 221 /oled/gClear 0 1;
#X connect 1 0 0 0;
#X connect 2 0 3 0;
#X connect 3 0 4 0;
#X connect 4 0 5 0;
#X connect 5 0 21 0;
#X connect 5 0 25 0;
#X connect 6 0 7 0;
#X connect 7 0 8 0;
#X connect 8 0 24 0;
#X connect 9 0 10 0;
#X connect 10 0 12 0;
#X connect 11 0 17 0;
#X connect 12 0 11 0;
#X connect 13 0 14 0;
#X connect 14 0 15 0;
#X connect 15 0 16 0;
#X connect 16 0 20 0;
#X connect 17 0 23 0;
#X connect 17 0 27 0;
#X connect 18 0 19 0;
#X connect 18 0 22 0;
#X connect 18 0 26 0;
#X connect 19 0 28 0;
#X connect 19 0 29 0;
#X connect 20 0 29 0;
#X connect 20 1 29 1;
#X connect 21 0 41 0;
#X connect 21 1 41 2;
#X connect 21 1 42 0;
#X connect 22 0 42 0;
#X connect 22 1 42 2;
#X connect 23 0 42 0;
#X connect 23 1 42 3;
#X connect 24 0 18 0;
#X connect 25 0 24 0;
#X connect 25 1 24 1;
#X connect 26 0 45 0;
#X connect 27 0 26 0;
#X connect 27 1 26 1;
#X connect 27 1 26 3;
#X connect 27 1 30 1;
#X connect 28 0 26 0;
#X connect 28 1 26 2;
#X connect 28 1 30 0;
#X connect 29 0 30 2;
#X connect 30 0 43 0;
#X connect 31 0 36 0;
#X connect 36 0 30 0;
#X connect 36 1 26 0;
#X connect 36 2 42 0;
#X connect 36 3 41 0;
#X connect 37 0 51 0;
#X connect 38 0 52 0;
#X connect 39 0 54 0;
#X connect 40 0 53 0;
#X connect 41 0 49 0;
#X connect 42 0 47 0;
#X connect 43 0 44 0;
#X connect 45 0 46 0;
#X connect 47 0 48 0;
#X connect 49 0 50 0;
#X connect 51 0 35 0;
#X connect 51 1 2 0;
#X connect 52 0 34 0;
#X connect 52 1 6 0;
#X connect 53 0 33 0;
#X connect 53 1 9 0;
#X connect 54 0 32 0;
#X connect 54 1 13 0;
#X connect 55 0 37 0;
#X connect 56 0 38 0;
#X connect 57 0 64 0;
#X connect 58 0 39 0;
#X connect 59 0 55 0;
#X connect 60 0 56 0;
#X connect 61 0 57 0;
#X connect 62 0 58 0;
#X connect 63 0 65 0;
#X connect 64 0 40 0;
#X connect 65 0 67 0;
#X connect 65 1 68 0;
#X connect 66 0 69 0;
#X connect 67 0 71 0;
#X connect 68 0 70 0;
#X connect 68 1 1 0;
#X connect 68 2 66 0;
#X connect 70 0 0 0;
#X connect 71 0 0 0;
