#N canvas 4 50 1135 762 10;
#X obj 224 648 outlet~;
#X obj 42 292 osc~ 440;
#X obj 212 176 /~ 4;
#X obj 300 290 blsaw;
#X obj 175 291 s_blsquare;
#X msg 245 234 0;
#X msg 202 318 1;
#X msg 320 317 1;
#X msg 63 322 1;
#N canvas 7 50 727 452 triangle 0;
#X obj 130 207 outlet~;
#X obj 131 65 inlet~;
#N canvas 699 258 779 606 triangle 0;
#X obj 80 290 -~ 0.5;
#X obj 228 290 -~ 0.5;
#X obj 134 340 -~;
#X obj 220 480 outlet~;
#X obj 80 91 phasor~ 0;
#X text 131 55 frequency;
#X obj 228 236 wrap~;
#N canvas 0 50 540 420 4*$v1*(1-$v1) 0;
#X obj 182 177 *~ 4;
#X obj 132 177 sig~ 1;
#X obj 132 200 -~;
#X obj 132 228 *~;
#X obj 182 76 inlet~;
#X obj 132 253 outlet~;
#X connect 0 0 3 1;
#X connect 1 0 2 0;
#X connect 2 0 3 0;
#X connect 3 0 5 0;
#X connect 4 0 2 1;
#X connect 4 0 0 0;
#X restore 228 262 pd 4*$v1*(1-$v1);
#N canvas 0 50 540 420 4*$v1*(1-$v1) 0;
#X obj 182 177 *~ 4;
#X obj 132 177 sig~ 1;
#X obj 132 200 -~;
#X obj 132 228 *~;
#X obj 182 76 inlet~;
#X obj 132 253 outlet~;
#X connect 0 0 3 1;
#X connect 1 0 2 0;
#X connect 2 0 3 0;
#X connect 3 0 5 0;
#X connect 4 0 2 1;
#X connect 4 0 0 0;
#X restore 79 261 pd 4*$v1*(1-$v1);
#X text 489 64 tri-saw factor (0-1);
#X obj 80 54 inlet~;
#X obj 430 66 inlet;
#X obj 430 89 clip 0.01 0.99;
#X obj 294 372 line~;
#X obj 294 350 pack 0 10;
#N canvas 0 50 540 420 4*$f1*(1-$f1) 0;
#X obj 185 177 * 4;
#X obj 137 72 inlet;
#X msg 137 171 1 \$1;
#X obj 137 200 -;
#X obj 137 228 *;
#X obj 137 107 t a a;
#X obj 137 253 outlet;
#X connect 0 0 4 1;
#X connect 1 0 5 0;
#X connect 2 0 3 0;
#X connect 3 0 4 0;
#X connect 4 0 6 0;
#X connect 5 0 2 0;
#X connect 5 1 0 0;
#X restore 430 290 pd 4*$f1*(1-$f1);
#X obj 245 151 line~;
#X obj 245 129 pack 0 10;
#X obj 227 177 +~;
#X obj 245 77 loadbang;
#X msg 245 98 0.5;
#X obj 220 414 /~;
#X obj 294 297 loadbang;
#X msg 294 318 1;
#X obj 241 45 inlet;
#X connect 0 0 2 0;
#X connect 1 0 2 1;
#X connect 2 0 21 0;
#X connect 4 0 8 0;
#X connect 4 0 18 0;
#X connect 6 0 7 0;
#X connect 7 0 1 0;
#X connect 8 0 0 0;
#X connect 10 0 4 0;
#X connect 11 0 12 0;
#X connect 12 0 15 0;
#X connect 12 0 17 0;
#X connect 13 0 21 1;
#X connect 14 0 13 0;
#X connect 15 0 14 0;
#X connect 16 0 18 1;
#X connect 17 0 16 0;
#X connect 18 0 6 0;
#X connect 19 0 20 0;
#X connect 20 0 17 0;
#X connect 21 0 3 0;
#X connect 22 0 23 0;
#X connect 23 0 14 0;
#X connect 24 0 4 1;
#X restore 130 162 pd triangle;
#X text 202 48 slope;
#X obj 189 96 loadbang;
#X msg 194 123 0.5;
#X connect 1 0 2 0;
#X connect 2 0 0 0;
#X connect 4 0 5 0;
#X connect 5 0 2 2;
#X restore 411 292 pd triangle;
#X obj 63 220 sel 0 1 2 3;
#X msg 437 324 1;
#X text 79 77 change waveform;
#X obj 63 157 delay 2;
#X obj 63 190 f;
#X obj 92 121 t b a b;
#X obj 41 350 smoothswitch;
#X obj 175 356 smoothswitch;
#X obj 299 349 smoothswitch;
#X obj 410 353 smoothswitch;
#X obj 225 471 *~;
#X obj 90 97 r rampsyn-\$1-waveform-local;
#X obj 212 133 inlet~;
#X obj 628 578 block~ 1024 1 16;
#X obj 225 493;
#X connect 1 0 16 0;
#X connect 2 0 1 0;
#X connect 2 0 3 0;
#X connect 2 0 4 0;
#X connect 2 0 9 0;
#X connect 3 0 18 0;
#X connect 4 0 17 0;
#X connect 5 0 16 1;
#X connect 5 0 17 1;
#X connect 5 0 18 1;
#X connect 5 0 19 1;
#X connect 6 0 17 1;
#X connect 7 0 18 1;
#X connect 8 0 16 1;
#X connect 9 0 19 0;
#X connect 10 0 8 0;
#X connect 10 1 6 0;
#X connect 10 2 7 0;
#X connect 10 3 11 0;
#X connect 11 0 19 1;
#X connect 13 0 14 0;
#X connect 14 0 10 0;
#X connect 15 0 13 0;
#X connect 15 1 14 1;
#X connect 15 2 5 0;
#X connect 16 0 20 0;
#X connect 17 0 20 0;
#X connect 18 0 20 0;
#X connect 19 0 20 0;
#X connect 20 0 24 0;
#X connect 21 0 15 0;
#X connect 22 0 2 0;
