#N canvas 318 255 957 678 10;
#X declare -path rj;
#X declare -path rj;
#X declare -path rj;
#X declare -path rj;
#X declare -path rj;
#X declare -path rj;
#X declare -path rj;
#X declare -path rj;
#X text 510 24 Fender Rhodes style voice using rjdj rhodey abstraction
\, which is itself based on the STK Rhodey code;
#X text 56 24 basic polyphonic Sytnh Module with 8 voices;
#N canvas 15 50 526 600 switcher 0;
#X obj 113 261 t b b;
#X obj 113 295 delay 5;
#X obj 263 387 line~;
#X msg 176 296 0 4;
#X obj 133 476 *~;
#X msg 113 327 0;
#X obj 113 220 bang;
#X msg 406 229 1;
#X msg 359 193 1 4;
#X obj 352 143 t b b b;
#X obj 139 506 outlet~;
#X obj 371 507 outlet;
#X obj 112 48 inlet;
#X obj 353 50 inlet;
#X connect 0 0 1 0;
#X connect 0 1 3 0;
#X connect 1 0 5 0;
#X connect 2 0 4 0;
#X connect 2 0 4 1;
#X connect 3 0 2 0;
#X connect 4 0 10 0;
#X connect 5 0 11 0;
#X connect 6 0 0 0;
#X connect 7 0 11 0;
#X connect 8 0 2 0;
#X connect 9 1 8 0;
#X connect 9 2 7 0;
#X connect 12 0 6 0;
#X connect 13 0 9 0;
#X restore 303 524 pd switcher;
#X obj 303 495 sel 0 1;
#X obj 303 472 tgl 15 0 empty empty empty 17 7 0 10 -262144 -1 -1 1
1;
#X obj 284 562 *~;
#X obj 377 548 switch~;
#N canvas 35 397 1194 550 knobs 1;
#X obj 391 118 i;
#X obj 391 80 + 5;
#X obj 391 58 * 2000;
#X obj 14 95 i;
#X obj 207 69 * 100;
#X obj 207 94 i;
#X obj 14 62 * 100;
#X obj 253 70 * 4;
#X obj 576 79 i;
#X obj 576 57 * 24;
#X obj 576 101 - 12;
#X msg 207 129 Modulation \$1 %;
#X msg 14 131 Tone \$1 %;
#X msg 391 151 Decay Time \$1 ms;
#X msg 576 162 Transpose \$1;
#X obj 14 155 s rhodey-\$1-tone-label;
#X obj 207 159 s rhodey-\$1-mod-label;
#X obj 391 178 s rhodey-\$1-decay-label;
#X obj 576 194 s rhodey-\$1-trans-label;
#X obj 576 24 r rhodey-\$1-trans;
#X obj 391 29 r rhodey-\$1-decay;
#X obj 207 26 r rhodey-\$1-mod;
#X obj 15 29 r rhodey-\$1-tone;
#X obj 598 136 s rhodey-\$1-trans-local;
#X obj 429 118 s rhodey-\$1-decay-local;
#X obj 253 96 s rhodey-\$1-mod-local;
#X obj 62 62 s rhodey-\$1-tone-local;
#X connect 0 0 13 0;
#X connect 1 0 0 0;
#X connect 1 0 24 0;
#X connect 2 0 1 0;
#X connect 3 0 12 0;
#X connect 4 0 5 0;
#X connect 5 0 11 0;
#X connect 6 0 3 0;
#X connect 7 0 25 0;
#X connect 8 0 10 0;
#X connect 9 0 8 0;
#X connect 10 0 14 0;
#X connect 10 0 23 0;
#X connect 11 0 16 0;
#X connect 12 0 15 0;
#X connect 13 0 17 0;
#X connect 14 0 18 0;
#X connect 19 0 9 0;
#X connect 20 0 2 0;
#X connect 21 0 4 0;
#X connect 21 0 7 0;
#X connect 22 0 6 0;
#X connect 22 0 26 0;
#X restore 285 642 pd knobs;
#N canvas 485 88 794 483 synth 0;
#X obj 57 225 pack 0 0 0, f 11;
#X obj 57 251 route 1 2 3 4 5 6 7 8, f 91;
#X obj 57 389 *~ 0.3;
#X obj 57 129 poly 8 1, f 11;
#X obj 57 463 outlet~;
#X obj 57 84 inlet;
#X obj 57 297 rhodey-voice \$1;
#X obj 57 433 hip~ 5;
#X obj 214 299 rhodey-voice \$1;
#X obj 136 323 rhodey-voice \$1;
#X obj 292 321 rhodey-voice \$1;
#X obj 374 294 rhodey-voice \$1;
#X obj 455 327 rhodey-voice \$1;
#X obj 535 295 rhodey-voice \$1;
#X obj 603 321 rhodey-voice \$1;
#X connect 0 0 1 0;
#X connect 1 0 6 0;
#X connect 1 1 9 0;
#X connect 1 2 8 0;
#X connect 1 3 10 0;
#X connect 1 4 11 0;
#X connect 1 5 12 0;
#X connect 1 6 13 0;
#X connect 1 7 14 0;
#X connect 2 0 7 0;
#X connect 3 0 0 0;
#X connect 3 1 0 1;
#X connect 3 2 0 2;
#X connect 5 0 3 0;
#X connect 6 0 2 0;
#X connect 7 0 4 0;
#X connect 8 0 2 0;
#X connect 9 0 2 0;
#X connect 10 0 2 0;
#X connect 11 0 2 0;
#X connect 12 0 2 0;
#X connect 13 0 2 0;
#X connect 14 0 2 0;
#X restore 284 383 pd synth;
#X obj 285 603 s~ rhodey-\$1-out;
#X obj 303 421 r rhodey-\$1-switch;
#X obj 323 167 tgl 15 0 empty empty empty 17 7 0 10 -262144 -1 -1 1
1;
#X obj 284 358 spigot;
#X obj 355 261 bag;
#X obj 355 218 sel 0;
#X msg 355 238 flush;
#X obj 323 194 t f f;
#X obj 355 283 list append 0;
#X obj 355 305 route list;
#X obj 323 103 r rhodey-\$1-notesswitch;
#X obj 339 136 r ms-\$1-noteskill-switch;
#X obj 284 78 r ms-\$1-notes-in;
#X obj 353 443 r ms-\$1-kill-switch;
#X connect 2 0 5 1;
#X connect 2 1 6 0;
#X connect 3 0 2 0;
#X connect 3 1 2 1;
#X connect 4 0 3 0;
#X connect 5 0 9 0;
#X connect 8 0 5 0;
#X connect 10 0 4 0;
#X connect 11 0 16 0;
#X connect 12 0 8 0;
#X connect 13 0 17 0;
#X connect 14 0 15 0;
#X connect 15 0 13 0;
#X connect 16 0 12 1;
#X connect 16 1 14 0;
#X connect 17 0 18 0;
#X connect 18 0 12 0;
#X connect 19 0 11 0;
#X connect 20 0 11 0;
#X connect 21 0 12 0;
#X connect 21 0 13 0;
#X connect 22 0 4 0;
