#N canvas 29 50 1049 903 10;
#X text 219 69 Plays drum samples into a tuned delay line for pseudo
plucked string effect;
#N canvas 9 74 1718 792 knobs 0;
#X obj 1384 120 * 2;
#X obj 709 208 lop~ 5;
#X obj 708 177 sig~;
#X obj 478 309 * 4;
#X obj 708 125 * 0.5;
#X obj 777 159 i;
#X obj 777 136 * 100;
#X obj 1529 138 i;
#X obj 1528 116 * 100;
#X obj 474 370 lop~ 5;
#X obj 474 337 sig~;
#X msg 937 251 set druma;
#X obj 1052 135 * 4;
#X obj 1052 173 i;
#X obj 1052 201 sel 0 1 2 3;
#X msg 1020 249 set drumb;
#X msg 1105 251 set drumc;
#X msg 1186 250 set drumd;
#X obj 1384 82 + 0.01;
#X obj 402 86 / 100;
#X obj 402 108 mtof;
#X obj 402 130 / 8.1785;
#X obj 399 61 * 2400;
#X obj 354 208 i;
#X obj 466 252 /;
#X obj 470 203 t b f;
#X msg 470 225 1;
#X text 472 61 get delay time \, 'string length';
#X text 478 78 from cents;
#X obj 396 36 r tunedel-\$1-dtime;
#X msg 319 251 Tune \$1 cents;
#X obj 319 287 s tunedel-\$1-dtime-label;
#X obj 474 407 s~ tunedel-\$1-dtime-local;
#X obj 708 274 s~ tunedel-\$1-fb-local;
#X obj 708 54 r tunedel-\$1-fb;
#X obj 777 208 s tunedel-\$1-fb-label;
#X msg 777 184 Feedback \$1 %;
#X obj 1052 105 r tunedel-\$1-drums;
#X obj 1132 341 s tunedel-\$1-drums-label;
#X obj 937 301 s tunedel-\$1-drums-local;
#X obj 1384 50 r tunedel-\$1-tone;
#X obj 1354 164 s tunedel-\$1-tone-local;
#X obj 1529 226 s tunedel-\$1-tone-label;
#X msg 1529 187 Tone \$1 units;
#X msg 1201 302 Cymbol;
#X msg 1132 300 Snare;
#X msg 1284 301 TomTom;
#X msg 1367 302 Bass Drum;
#X obj 708 151 + 0.48;
#X connect 0 0 41 0;
#X connect 1 0 33 0;
#X connect 2 0 1 0;
#X connect 3 0 10 0;
#X connect 4 0 48 0;
#X connect 5 0 36 0;
#X connect 6 0 5 0;
#X connect 7 0 43 0;
#X connect 8 0 7 0;
#X connect 9 0 32 0;
#X connect 10 0 9 0;
#X connect 11 0 39 0;
#X connect 12 0 13 0;
#X connect 13 0 14 0;
#X connect 14 0 11 0;
#X connect 14 0 45 0;
#X connect 14 1 15 0;
#X connect 14 1 44 0;
#X connect 14 2 16 0;
#X connect 14 2 46 0;
#X connect 14 3 17 0;
#X connect 14 3 47 0;
#X connect 15 0 39 0;
#X connect 16 0 39 0;
#X connect 17 0 39 0;
#X connect 18 0 0 0;
#X connect 18 0 8 0;
#X connect 19 0 20 0;
#X connect 20 0 21 0;
#X connect 21 0 25 0;
#X connect 22 0 19 0;
#X connect 22 0 23 0;
#X connect 23 0 30 0;
#X connect 24 0 3 0;
#X connect 25 0 26 0;
#X connect 25 1 24 1;
#X connect 26 0 24 0;
#X connect 29 0 22 0;
#X connect 30 0 31 0;
#X connect 34 0 6 0;
#X connect 34 0 4 0;
#X connect 36 0 35 0;
#X connect 37 0 12 0;
#X connect 40 0 18 0;
#X connect 43 0 42 0;
#X connect 44 0 38 0;
#X connect 45 0 38 0;
#X connect 46 0 38 0;
#X connect 47 0 38 0;
#X connect 48 0 2 0;
#X restore 285 747 pd knobs;
#N canvas 5 50 787 588 arrays 0;
#N canvas 0 50 450 300 (subpatch) 0;
#X array druma 44104 float 0;
#X coords 0 1.02 44103 -1.02 200 130 1;
#X restore 77 66 graph;
#N canvas 0 50 450 300 (subpatch) 0;
#X array drumb 44104 float 0;
#X coords 0 1.02 44103 -1.02 200 130 1 0 0;
#X restore 79 223 graph;
#N canvas 0 50 450 300 (subpatch) 0;
#X array drumc 44104 float 0;
#X coords 0 1.02 44103 -1.02 200 130 1 0 0;
#X restore 303 62 graph;
#N canvas 0 50 450 300 (subpatch) 0;
#X array drumd 44104 float 0;
#X coords 0 1.02 44103 -1.02 200 130 1 0 0;
#X restore 306 230 graph;
#X obj 273 397 loadbang;
#X obj 252 523 soundfiler;
#X msg 488 465 read ./d.wav drumd;
#X msg 343 461 read ./c.wav drumc;
#X msg 204 462 read ./b.wav drumb;
#X msg 58 467 read ./a.wav druma;
#X connect 4 0 9 0;
#X connect 4 0 8 0;
#X connect 4 0 7 0;
#X connect 4 0 6 0;
#X connect 6 0 5 0;
#X connect 7 0 5 0;
#X connect 8 0 5 0;
#X connect 9 0 5 0;
#X restore 286 718 pd arrays;
#N canvas 694 164 538 466 synth 1;
#X obj 37 58 unpack 0 0;
#X obj 37 89 poly 4 1;
#X obj 37 120 pack 0 0 0;
#X obj 37 147 route 1 2 3 4, f 33;
#X obj 36 275 *~ 0.75;
#X obj 349 123 r tunedel-\$1-drums-local;
#X obj 36 301 outlet~;
#X obj 37 27 inlet;
#X obj 37 189 td-stretchy \$1;
#X obj 111 229 td-stretchy \$1;
#X obj 183 189 td-stretchy \$1;
#X obj 254 228 td-stretchy \$1;
#X connect 0 0 1 0;
#X connect 0 1 1 1;
#X connect 1 0 2 0;
#X connect 1 1 2 1;
#X connect 1 2 2 2;
#X connect 2 0 3 0;
#X connect 3 0 8 0;
#X connect 3 1 9 0;
#X connect 3 2 10 0;
#X connect 3 3 11 0;
#X connect 4 0 6 0;
#X connect 5 0 8 1;
#X connect 5 0 9 1;
#X connect 5 0 10 1;
#X connect 5 0 11 1;
#X connect 7 0 0 0;
#X connect 8 0 4 0;
#X connect 9 0 4 0;
#X connect 10 0 4 0;
#X connect 11 0 4 0;
#X restore 284 426 pd synth;
#N canvas 15 50 526 600 switcher 0;
#X obj 113 261 t b b;
#X obj 113 295 delay 5;
#X obj 263 387 line~;
#X msg 176 296 0 4;
#X obj 133 476 *~;
#X msg 113 327 0;
#X obj 113 220 bang;
#X msg 406 229 1;
#X msg 359 193 1 4;
#X obj 352 143 t b b b;
#X obj 139 506 outlet~;
#X obj 371 507 outlet;
#X obj 112 48 inlet;
#X obj 353 50 inlet;
#X connect 0 0 1 0;
#X connect 0 1 3 0;
#X connect 1 0 5 0;
#X connect 2 0 4 0;
#X connect 2 0 4 1;
#X connect 3 0 2 0;
#X connect 4 0 10 0;
#X connect 5 0 11 0;
#X connect 6 0 0 0;
#X connect 7 0 11 0;
#X connect 8 0 2 0;
#X connect 9 1 8 0;
#X connect 9 2 7 0;
#X connect 12 0 6 0;
#X connect 13 0 9 0;
#X restore 302 589 pd switcher;
#X obj 302 560 sel 0 1;
#X obj 302 537 tgl 15 0 empty empty empty 17 7 0 10 -262144 -1 -1 0
1;
#X obj 283 627 *~;
#X obj 376 613 switch~;
#X obj 302 486 r tunedel-\$1-switch;
#X obj 284 669 s~ tunedel-\$1-out;
#X obj 323 207 tgl 15 0 empty empty empty 17 7 0 10 -262144 -1 -1 0
1;
#X obj 284 398 spigot;
#X obj 355 301 bag;
#X obj 355 258 sel 0;
#X msg 355 278 flush;
#X obj 323 234 t f f;
#X obj 355 323 list append 0;
#X obj 355 345 route list;
#X obj 323 143 r tunedel-\$1-notesswitch;
#X obj 352 508 r ms-\$1-kill-switch;
#X obj 339 176 r ms-\$1-noteskill-switch;
#X obj 284 118 r ms-\$1-notes-in;
#X connect 3 0 7 0;
#X connect 4 0 7 1;
#X connect 4 1 8 0;
#X connect 5 0 4 0;
#X connect 5 1 4 1;
#X connect 6 0 5 0;
#X connect 7 0 10 0;
#X connect 9 0 6 0;
#X connect 11 0 16 0;
#X connect 12 0 3 0;
#X connect 13 0 17 0;
#X connect 14 0 15 0;
#X connect 15 0 13 0;
#X connect 16 0 12 1;
#X connect 16 1 14 0;
#X connect 17 0 18 0;
#X connect 18 0 12 0;
#X connect 19 0 11 0;
#X connect 20 0 6 0;
#X connect 21 0 11 0;
#X connect 22 0 12 0;
#X connect 22 0 13 0;
