#N canvas 218 111 1637 844 10;
#X declare -path cg-pd-library-local/sampling;
#X declare -path cg-pd-library-local/sequencer;
#X declare -path cg-pd-library-local/externals;
#X declare -path cg-pd-library-local/metronome;
#X obj 236 719 throw~ outL;
#X obj 346 717 throw~ outR;
#X obj 238 533 pack 0 0 0, f 11;
#X text 309 632 final gain adjustment;
#X obj 237 632 *~ 1;
#X text 36 261 basic sampler with recording;
#X text 35 284 sample is transposed by keys;
#N canvas 8 53 1908 896 record-sample 0;
#X obj 34 198 r~ inL;
#X obj 93 197 r~ inR;
#X text 6 135 records as long as aux button or foot switch are held
down;
#X text 72 156 max 2 seconds;
#X obj 750 85 r cgSc-1-6;
#X obj 750 144 sel 0;
#X obj 777 169 t b;
#X obj 944 313 loadbang;
#X obj 944 405 s cgSc-1-6label;
#X msg 944 351 RecIn:Off;
#X msg 1063 360 RecIn:On;
#X obj 136 266 *~ 0.707;
#X obj 196 264 *~ 0.707;
#X obj 196 402 throw~ outL;
#X obj 218 382 throw~ outR;
#X obj 197 351 *~;
#X obj 213 316 lop~ 10;
#X obj 299 94 loadbang;
#X msg 299 115 0;
#X obj 350 14 r cgSc-1-7;
#X obj 350 35 sel 0;
#X obj 377 59 t b;
#X obj 412 98 + 1;
#X obj 411 119 == 1;
#X obj 377 102 f 1;
#X obj 321 172 t f f;
#X obj 348 237 sel 0 1;
#X obj 313 278 loadbang;
#X obj 313 370 s cgSc-1-7label;
#X msg 313 316 Monitr:OFF;
#X msg 397 319 Monitr:ON;
#X obj 773 110 r fs;
#X msg 777 193 \; samp-1-arm bang;
#X obj 964 205 r samp-states;
#X obj 964 226 route 1;
#X obj 964 247 sel 0 1 2, f 16;
#X obj 762 350 s led;
#X obj 898 73 r aux;
#X obj 898 94 sel 1;
#X obj 943 9 r samp-states;
#X obj 943 30 route 1;
#X obj 943 51 sel 2;
#X msg 943 72 1;
#X obj 972 72 t b;
#X msg 972 93 0;
#X obj 898 115 spigot 0;
#X text 997 54 aux press cancels record;
#X msg 1019 315 RecIn:Arm;
#X obj 762 250 r samp-states;
#X obj 762 271 route 1;
#X obj 762 292 sel 0 1 2, f 16;
#X msg 762 313 0;
#X msg 794 313 6;
#X msg 830 310 1;
#X msg 337 427 1 load;
#X obj 33 452 clone -s 1 1 load-rec-sample samp 2000 recordings 1;
#X obj 406 391 loadbang;
#X connect 0 0 11 0;
#X connect 0 0 55 1;
#X connect 1 0 12 0;
#X connect 1 0 55 1;
#X connect 4 0 5 0;
#X connect 5 1 6 0;
#X connect 6 0 32 0;
#X connect 7 0 9 0;
#X connect 9 0 8 0;
#X connect 10 0 8 0;
#X connect 11 0 15 0;
#X connect 11 0 55 0;
#X connect 12 0 15 0;
#X connect 12 0 55 0;
#X connect 15 0 13 0;
#X connect 15 0 14 0;
#X connect 16 0 15 1;
#X connect 17 0 18 0;
#X connect 18 0 25 0;
#X connect 19 0 20 0;
#X connect 20 1 21 0;
#X connect 21 0 24 0;
#X connect 22 0 23 0;
#X connect 23 0 24 1;
#X connect 24 0 22 0;
#X connect 24 0 25 0;
#X connect 25 0 16 0;
#X connect 25 1 26 0;
#X connect 26 0 29 0;
#X connect 26 1 30 0;
#X connect 27 0 29 0;
#X connect 29 0 28 0;
#X connect 30 0 28 0;
#X connect 31 0 5 0;
#X connect 33 0 34 0;
#X connect 34 0 35 0;
#X connect 35 0 9 0;
#X connect 35 1 47 0;
#X connect 35 2 10 0;
#X connect 37 0 38 0;
#X connect 38 0 45 0;
#X connect 39 0 40 0;
#X connect 40 0 41 0;
#X connect 41 0 42 0;
#X connect 41 1 43 0;
#X connect 42 0 45 1;
#X connect 43 0 44 0;
#X connect 44 0 45 1;
#X connect 45 0 6 0;
#X connect 47 0 8 0;
#X connect 48 0 49 0;
#X connect 49 0 50 0;
#X connect 50 0 51 0;
#X connect 50 1 52 0;
#X connect 50 2 53 0;
#X connect 51 0 36 0;
#X connect 52 0 36 0;
#X connect 53 0 36 0;
#X connect 54 0 55 2;
#X connect 56 0 54 0;
#X restore 582 197 pd record-sample;
#X obj 1073 471 * 100;
#X obj 1073 498 i;
#X obj 1390 463 i;
#X obj 1390 389 r knob4;
#X obj 1390 552 s screenLine4;
#X obj 783 447 bang;
#X obj 815 535 * 200;
#X obj 815 563 i;
#X obj 746 578 i;
#X obj 746 606 abs;
#X obj 746 405 detent 0.075;
#X obj 746 272 r knob1;
#X msg 783 474 \; screenLine1 1: Samp Speed ORIG \;;
#X obj 1073 551 shortcut-mute-f 1;
#X obj 1390 485 shortcut-mute-f 1;
#X obj 746 324 t f f, f 25;
#X obj 893 363 detent 0.075;
#X obj 893 406 s knob1-detent;
#X obj 746 375 shortcut-mute-f 1;
#X obj 1044 157 r seq3-1-led;
#X obj 1044 309 s led;
#X obj 291 270 r mute-notes;
#X obj 291 292 ==;
#X obj 238 348 spigot 1;
#X obj 291 314 t f f;
#X obj 238 370 t a a;
#X obj 270 394 bag;
#X obj 270 416 pack 0 0;
#X obj 238 442 spigot 1;
#X obj 323 336 sel 0;
#X msg 323 358 flush;
#X msg 1238 182 1;
#X obj 1044 229 f;
#X obj 1180 113 r mute-notes;
#X obj 1180 135 sel 0 1, f 17;
#X obj 1238 159 t b b;
#X obj 1044 267 spigot 1, f 29;
#X msg 1271 183 0;
#X obj 1159 160 t b b;
#X msg 1192 184 1;
#X obj 746 466 * 100;
#X obj 746 487 + 50;
#X msg 815 583 \; screenLine1 1: Samp Speed \$1% \;;
#X msg 746 631 \; screenLine1 1: Samp Speed \$1% \;;
#X obj 1073 620 s screenLine2;
#X obj 1073 351 r knob2;
#X obj 1231 449 i;
#X obj 1231 502 shortcut-mute-f 1;
#X msg 1390 523 4: Decay \$1%;
#X msg 1073 592 2: Duration \$1%;
#X obj 1231 363 r knob3;
#X obj 1073 382 f;
#X obj 1231 392 f;
#X obj 1231 413 * 100;
#X obj 1390 418 f;
#X obj 1390 439 * 100;
#X obj 1231 571 s screenLine3;
#X msg 1231 543 3: Attack \$1%;
#X obj 238 560 clone -s 1 8 samplervoice;
#X obj 238 495 poly 8 1, f 11;
#N canvas 13 50 450 300 cg-pd-library-local 0;
#X obj 502 35 r cgSc-1-slots;
#X obj 60 68 declare -path cg-pd-library-local/sampling;
#X obj 60 98 declare -path cg-pd-library-local/sequencer;
#X obj 58 130 declare -path cg-pd-library-local/externals;
#X obj 59 165 declare -path cg-pd-library-local/metronome;
#X restore 63 57 pd cg-pd-library-local;
#X obj 238 20 r aux;
#X obj 304 147 r cgSc-1-slots;
#X obj 355 20 r \$0-reprint-port;
#X obj 337 168 r beat-clock;
#X obj 238 189 seq3 1 0 ../../sequences 1 0 1, f 17;
#X obj 238 51 cg-shortcut 1 1, f 20;
#N canvas 4 50 450 300 seq3-controls 0;
#N canvas 100 74 1124 789 seq3-5option-control 0;
#X obj 139 278 outlet;
#X obj 65 121 t b;
#X msg 65 143 2;
#X obj 298 126 t b;
#X msg 298 148 3;
#X text 437 5 when aux is pressed after recording starts immediatley
end the rec and play the loop;
#X obj 170 70 sel 0;
#X obj 202 94 t b;
#X msg 202 116 1;
#X obj 33 66 r cgSc-1-2;
#X obj 171 48 r cgSc-1-1;
#X obj 33 88 sel 0;
#X obj 266 99 sel 0;
#X obj 317 272 r seq3-1-actions;
#X obj 317 294 sel 1, f 12;
#X obj 398 327 t b, f 4;
#X obj 317 445 s cgSc-1-1label;
#X obj 507 308 r seq3-1-actions;
#X obj 588 353 t b, f 4;
#X obj 507 329 sel 2 3, f 12;
#X obj 978 340 t b, f 4;
#X msg 978 375 Latch:Off;
#X msg 896 375 Latch:On;
#X obj 507 441 s cgSc-1-2label;
#X text 521 279 print to the shortcut menu;
#X obj 378 141 f 0;
#X obj 130 0 r midi-start;
#X msg 130 22 4;
#X obj 373 105 r midi-stop;
#X obj 507 125 t b;
#X obj 475 98 sel 0;
#X msg 507 147 5;
#X obj 192 487 r seq3-1-actions;
#X obj 273 532 t b, f 4;
#X obj 192 508 sel 5, f 12;
#X obj 317 373 f;
#X msg 317 403 \$1Seq:Stop;
#X obj 398 372 f;
#X msg 398 402 \$1Seq:Play;
#X msg 507 399 \$1Rec:Armd;
#X msg 588 397 \$1Rec:On;
#X msg 659 398 \$1Rec:Off;
#X obj 507 374 f;
#X obj 582 373 f;
#X obj 649 370 f;
#X obj 273 554 f;
#X obj 192 560 f;
#X msg 192 607 \$1Dub:On;
#X obj 201 286 r cgSc-1-slots;
#X obj 201 329 t b f f;
#X obj 166 439 s seq3-1-actions;
#X obj 166 415 v seq3-1-state;
#X obj 201 309 + 1;
#X obj 668 299 + 1;
#X obj 668 251 r cgSc-1-slots;
#X obj 321 507 + 1;
#X obj 321 483 r cgSc-1-slots;
#X obj 559 76 sel 1;
#X obj 612 80 r seq3-1-actions;
#X obj 559 174 t b b;
#X msg 640 152 0;
#X obj 559 152 spigot 0;
#X msg 612 129 1;
#X msg 559 196 1;
#X obj 192 650 s cgSc-1-3label;
#X obj 475 71 r cgSc-1-3;
#X obj 559 52 r cgSc-1-aux;
#X obj 896 418 s cgSc-1-5label;
#X obj 267 72 r cgSc-1-5;
#X obj 358 53 t b;
#X obj 326 26 sel 0;
#X obj 326 2 r cgSc-1-4;
#X msg 358 75 6;
#X obj 465 480 r seq3-1-actions;
#X obj 507 558 f;
#X obj 584 501 + 1;
#X obj 584 477 r cgSc-1-slots;
#X obj 465 643 s cgSc-1-4label;
#X obj 612 104 sel 3, f 12;
#X msg 273 607 \$1Dub:Off;
#X obj 465 501 sel 6, f 10;
#X obj 532 526 t b;
#X obj 465 585 spigot 1;
#X obj 552 582 spigot 0;
#X obj 675 510 r seq3-1-actions;
#X obj 675 532 sel 3;
#X obj 591 537 ==;
#X obj 637 564 f;
#X msg 637 533 1;
#X msg 708 615 0;
#X msg 552 607 \$1:Undo;
#X msg 465 610 \$1:Undid;
#X obj 465 523 t b b;
#X msg 70 229 0;
#X obj 23 341 r init-1-slot;
#X obj 23 363 s cgSc-1-slots;
#X obj 896 255 r seq3-1-togLatch;
#X obj 896 316 sel 1, f 12;
#X obj 20 182 r kill-seq;
#X obj 211 138 r kill-latch;
#X msg 211 159 7;
#X obj 827 101 inlet reprint-to-sc;
#X obj 842 141 r seq3-1-actions;
#X obj 827 164 f;
#X obj 827 122 t b;
#X obj 827 208 s seq3-1-actions;
#X obj 896 276 f;
#X obj 781 258 r seq3-1-actions;
#X obj 781 279 t b;
#X connect 1 0 2 0;
#X connect 2 0 0 0;
#X connect 3 0 4 0;
#X connect 4 0 0 0;
#X connect 6 1 7 0;
#X connect 7 0 8 0;
#X connect 8 0 0 0;
#X connect 9 0 11 0;
#X connect 10 0 6 0;
#X connect 11 1 1 0;
#X connect 12 1 3 0;
#X connect 13 0 14 0;
#X connect 14 0 35 0;
#X connect 14 1 15 0;
#X connect 15 0 37 0;
#X connect 17 0 19 0;
#X connect 18 0 44 0;
#X connect 19 0 42 0;
#X connect 19 1 43 0;
#X connect 19 2 18 0;
#X connect 20 0 21 0;
#X connect 21 0 67 0;
#X connect 22 0 67 0;
#X connect 25 0 0 0;
#X connect 26 0 27 0;
#X connect 27 0 0 0;
#X connect 28 0 25 0;
#X connect 29 0 31 0;
#X connect 30 1 29 0;
#X connect 31 0 0 0;
#X connect 32 0 34 0;
#X connect 33 0 45 0;
#X connect 34 0 46 0;
#X connect 34 1 33 0;
#X connect 35 0 36 0;
#X connect 36 0 16 0;
#X connect 37 0 38 0;
#X connect 38 0 16 0;
#X connect 39 0 23 0;
#X connect 40 0 23 0;
#X connect 41 0 23 0;
#X connect 42 0 39 0;
#X connect 43 0 40 0;
#X connect 44 0 41 0;
#X connect 45 0 79 0;
#X connect 46 0 47 0;
#X connect 47 0 64 0;
#X connect 48 0 52 0;
#X connect 49 0 51 0;
#X connect 49 1 35 1;
#X connect 49 2 37 1;
#X connect 51 0 50 0;
#X connect 52 0 49 0;
#X connect 53 0 44 1;
#X connect 53 0 43 1;
#X connect 53 0 42 1;
#X connect 54 0 53 0;
#X connect 55 0 45 1;
#X connect 55 0 46 1;
#X connect 56 0 55 0;
#X connect 57 0 61 0;
#X connect 58 0 78 0;
#X connect 59 0 63 0;
#X connect 59 1 60 0;
#X connect 60 0 61 1;
#X connect 61 0 59 0;
#X connect 62 0 61 1;
#X connect 63 0 0 0;
#X connect 65 0 30 0;
#X connect 66 0 57 0;
#X connect 68 0 12 0;
#X connect 69 0 72 0;
#X connect 70 1 69 0;
#X connect 71 0 70 0;
#X connect 72 0 0 0;
#X connect 73 0 80 0;
#X connect 74 0 82 0;
#X connect 74 0 83 0;
#X connect 75 0 74 1;
#X connect 76 0 75 0;
#X connect 78 0 62 0;
#X connect 79 0 64 0;
#X connect 80 0 92 0;
#X connect 80 1 81 0;
#X connect 81 0 74 0;
#X connect 82 0 91 0;
#X connect 83 0 90 0;
#X connect 84 0 85 0;
#X connect 85 0 88 0;
#X connect 86 0 82 1;
#X connect 87 0 86 0;
#X connect 87 0 83 1;
#X connect 88 0 87 0;
#X connect 89 0 87 0;
#X connect 90 0 77 0;
#X connect 91 0 77 0;
#X connect 92 0 74 0;
#X connect 92 1 89 0;
#X connect 93 0 0 0;
#X connect 94 0 95 0;
#X connect 96 0 106 0;
#X connect 97 0 22 0;
#X connect 97 1 20 0;
#X connect 98 0 93 0;
#X connect 99 0 100 0;
#X connect 100 0 0 0;
#X connect 101 0 104 0;
#X connect 102 0 103 1;
#X connect 103 0 105 0;
#X connect 104 0 103 0;
#X connect 106 0 97 0;
#X connect 107 0 108 0;
#X connect 108 0 106 0;
#X restore 66 184 pd seq3-5option-control;
#X obj 66 244 outlet;
#X connect 0 0 1 0;
#X restore 271 116 pd seq3-controls;
#N canvas 18 50 1057 809 metro-here 0;
#X obj 550 473 r seq3-1-actions;
#X obj 528 552 f;
#X msg 609 447 0;
#X obj 654 438 t b b;
#X msg 681 465 1;
#X obj 609 409 sel 1, f 8;
#X obj 501 489 del 1;
#X obj 307 506 s beat-clock;
#X obj 412 256 loadbang;
#X msg 307 325 1;
#X obj 412 620 list, f 7;
#X obj 412 642 route 69;
#X obj 412 488 t b a;
#X msg 412 590 69;
#X msg 412 298 120;
#X obj 412 428 pack, f 10;
#X obj 447 396 t b a;
#X obj 531 311 s seq3-1-quan;
#X obj 523 218 sel 1 2 3 4;
#X msg 523 270 0;
#X msg 557 268 1;
#X obj 412 664 spigot 1;
#X obj 528 574 spigot 1, f 14;
#X obj 658 646 r cgSc-1-slots;
#X obj 658 672 + 1;
#X obj 412 709 print-line5 1, f 62;
#X obj 609 386 r cgSc-1-mute-print;
#X obj 731 438 loadbang;
#X obj 731 460 del 1;
#X obj 731 482 t b b;
#X obj 781 533 r rec-state;
#X obj 781 554 sel 0, f 13;
#X msg 781 664 1;
#X msg 856 665 0;
#X obj 856 604 t b b;
#X obj 781 625 spigot 1;
#X obj 781 575 t b b;
#X msg 781 596 1;
#X msg 883 634 0;
#X obj 474 347 r 5-page-global;
#X obj 474 368 sel 2;
#X obj 501 393 t b;
#X obj 609 505 t f f;
#X obj 501 510 t b b;
#X obj 307 354 metronome360 0 0, f 18;
#X connect 0 0 1 0;
#X connect 1 0 22 0;
#X connect 2 0 42 0;
#X connect 3 0 6 0;
#X connect 3 1 4 0;
#X connect 4 0 42 0;
#X connect 5 0 2 0;
#X connect 5 1 3 0;
#X connect 6 0 43 0;
#X connect 8 0 14 0;
#X connect 8 0 9 0;
#X connect 9 0 44 0;
#X connect 10 0 11 0;
#X connect 11 0 21 0;
#X connect 12 0 13 0;
#X connect 12 1 10 1;
#X connect 13 0 10 0;
#X connect 14 0 44 1;
#X connect 15 0 12 0;
#X connect 16 0 15 0;
#X connect 16 1 15 1;
#X connect 18 0 19 0;
#X connect 18 1 20 0;
#X connect 18 2 20 0;
#X connect 18 3 19 0;
#X connect 19 0 17 0;
#X connect 20 0 17 0;
#X connect 21 0 25 0;
#X connect 22 0 25 1;
#X connect 23 0 24 0;
#X connect 24 0 25 2;
#X connect 26 0 5 0;
#X connect 27 0 28 0;
#X connect 28 0 29 0;
#X connect 29 0 1 0;
#X connect 29 1 24 0;
#X connect 30 0 31 0;
#X connect 31 0 36 0;
#X connect 31 1 34 0;
#X connect 32 0 25 3;
#X connect 33 0 25 3;
#X connect 34 0 33 0;
#X connect 34 1 38 0;
#X connect 35 0 32 0;
#X connect 36 0 37 0;
#X connect 36 1 35 0;
#X connect 37 0 35 1;
#X connect 38 0 35 1;
#X connect 39 0 40 0;
#X connect 40 1 41 0;
#X connect 41 0 6 0;
#X connect 42 0 22 1;
#X connect 42 1 21 1;
#X connect 43 0 13 0;
#X connect 43 1 1 0;
#X connect 44 0 7 0;
#X connect 44 1 16 0;
#X connect 44 2 15 0;
#X connect 44 2 18 0;
#X restore 583 146 pd metro-here;
#N canvas 787 330 860 595 slot-saver-1 0;
#X obj 167 38 r cgSc-1-slots;
#X obj 30 68 loadbang;
#X msg 30 140 0;
#X obj 30 161 tabread \$0-slot;
#X obj 199 225 array define \$0-slot;
#X obj 30 110 t b b;
#X msg 199 138 read slot.txt;
#X msg 243 186 write slot.txt;
#X obj 243 160 r saveState;
#X obj 167 58 t a b;
#X msg 220 84 0;
#X obj 167 107 tabwrite \$0-slot;
#X obj 30 185 s cgSc-1-slots;
#X connect 0 0 9 0;
#X connect 1 0 5 0;
#X connect 2 0 3 0;
#X connect 3 0 12 0;
#X connect 5 0 2 0;
#X connect 5 1 6 0;
#X connect 6 0 4 0;
#X connect 7 0 4 0;
#X connect 8 0 7 0;
#X connect 9 0 11 0;
#X connect 9 1 10 0;
#X connect 10 0 11 1;
#X restore 588 174 pd slot-saver-1;
#X obj 238 73 list prepend notes;
#X obj 238 93 list trim;
#X text 1006 681 scale playback speed;
#X obj 958 734 mtof;
#X obj 958 642 r knob1-detent;
#X obj 958 780 s global-speed;
#X obj 1268 439 s knob3-global;
#X obj 1446 441 s knob4-global;
#X obj 1090 449 s knob2-global;
#X obj 958 757 / 261.625;
#X obj 958 665 * 24;
#X obj 958 692 - 12;
#X obj 958 713 + 60;
#N canvas 10 50 1276 866 auto-knobs-notes-through 0;
#X obj 438 185 inlet;
#X obj 435 295 route knob1 knob2 knob3 knob4 knob5 notes, f 64;
#X obj 852 503 outlet;
#X obj 562 398 s seq3-k3;
#X obj 537 440 s seq3-k2;
#X obj 435 470 s seq3-k1;
#X obj 663 357 s seq3-k4;
#X connect 0 0 1 0;
#X connect 1 0 5 0;
#X connect 1 1 4 0;
#X connect 1 2 3 0;
#X connect 1 3 6 0;
#X connect 1 5 2 0;
#X restore 238 242 pd auto-knobs-notes-through;
#N canvas 4 50 1495 708 the-knobs 0;
#X obj 280 211 r knob1;
#X obj 414 205 r knob2;
#X obj 532 208 r knob3;
#X obj 673 208 r knob4;
#X obj 503 439 outlet;
#X obj 221 295 seq-format-event knob1;
#X obj 401 293 seq-format-event knob2;
#X obj 566 292 seq-format-event knob3;
#X obj 747 289 seq-format-event knob4;
#X connect 0 0 5 0;
#X connect 1 0 6 0;
#X connect 2 0 7 0;
#X connect 3 0 8 0;
#X connect 5 0 4 0;
#X connect 6 0 4 0;
#X connect 7 0 4 0;
#X connect 8 0 4 0;
#X restore 402 63 pd the-knobs;
#X obj 1128 351 r seq3-k2;
#X obj 763 294 r seq3-k1;
#X obj 1286 363 r seq3-k3;
#X obj 1441 389 r seq3-k4;
#X obj 1073 411 max 0.01;
#X connect 2 0 66 0;
#X connect 4 0 0 0;
#X connect 4 0 1 0;
#X connect 8 0 9 0;
#X connect 9 0 21 0;
#X connect 10 0 22 0;
#X connect 11 0 62 0;
#X connect 13 0 20 0;
#X connect 14 0 15 0;
#X connect 15 0 50 0;
#X connect 16 0 17 0;
#X connect 17 0 51 0;
#X connect 18 0 48 0;
#X connect 18 1 13 0;
#X connect 18 2 14 0;
#X connect 19 0 23 0;
#X connect 21 0 57 0;
#X connect 22 0 56 0;
#X connect 23 0 26 0;
#X connect 23 1 24 0;
#X connect 24 0 25 0;
#X connect 24 1 25 0;
#X connect 24 2 25 0;
#X connect 26 0 18 0;
#X connect 27 0 40 0;
#X connect 29 0 30 0;
#X connect 30 0 32 0;
#X connect 31 0 33 0;
#X connect 32 0 31 1;
#X connect 32 1 37 0;
#X connect 33 0 36 0;
#X connect 33 1 34 0;
#X connect 34 0 35 0;
#X connect 35 0 36 0;
#X connect 36 0 67 0;
#X connect 37 0 38 0;
#X connect 38 0 34 0;
#X connect 39 0 28 0;
#X connect 40 0 44 0;
#X connect 41 0 42 0;
#X connect 42 0 46 0;
#X connect 42 1 43 0;
#X connect 43 0 39 0;
#X connect 43 1 45 0;
#X connect 44 0 28 0;
#X connect 45 0 44 1;
#X connect 46 0 40 0;
#X connect 46 1 47 0;
#X connect 47 0 44 1;
#X connect 48 0 49 0;
#X connect 49 0 16 0;
#X connect 53 0 59 0;
#X connect 54 0 55 0;
#X connect 55 0 65 0;
#X connect 56 0 12 0;
#X connect 57 0 52 0;
#X connect 58 0 60 0;
#X connect 59 0 97 0;
#X connect 60 0 61 0;
#X connect 60 0 84 0;
#X connect 61 0 54 0;
#X connect 62 0 63 0;
#X connect 62 0 85 0;
#X connect 63 0 10 0;
#X connect 65 0 64 0;
#X connect 66 0 4 0;
#X connect 67 0 2 0;
#X connect 67 1 2 1;
#X connect 67 2 2 2;
#X connect 69 0 74 0;
#X connect 70 0 73 2;
#X connect 71 0 74 1;
#X connect 72 0 73 3;
#X connect 73 0 91 0;
#X connect 74 0 78 0;
#X connect 75 0 73 1;
#X connect 78 0 79 0;
#X connect 79 0 73 0;
#X connect 81 0 87 0;
#X connect 82 0 88 0;
#X connect 87 0 83 0;
#X connect 88 0 89 0;
#X connect 89 0 90 0;
#X connect 90 0 81 0;
#X connect 91 0 31 0;
#X connect 92 0 73 0;
#X connect 93 0 59 0;
#X connect 94 0 23 0;
#X connect 95 0 60 0;
#X connect 96 0 62 0;
#X connect 97 0 86 0;
#X connect 97 0 8 0;
