#N canvas 19 59 1637 865 10;
#X declare -path CG-Pd-Library-Local/sequencer;
#X declare -path CG-Pd-Library-Local/externals;
#X declare -path CG-Pd-Library-Local/metronome;
#X declare -path /sdcard/CG-Pd-Library/sequencer;
#X declare -path /sdcard/CG-Pd-Library/externals;
#X declare -path /sdcard/CG-Pd-Library/metronome;
#X obj 236 809 throw~ outL;
#X obj 346 807 throw~ outR;
#X obj 238 533 pack 0 0 0, f 11;
#X text 373 737 final gain adjustment;
#X obj 301 737 *~ 1;
#X obj 238 654 route 1 2 3 4 5 6, f 34;
#X obj 238 495 poly 6 1, f 11;
#X text 36 261 basic sampler with recording;
#X text 34 284 sample is transposed by keys;
#N canvas 14 50 1248 885 record-sample 0;
#X obj 34 198 r~ inL;
#X obj 93 197 r~ inR;
#X obj 615 761 tabwrite~ newsample;
#X msg 868 593 \; newsample normalize 1;
#X obj 490 228 sel 1 0, f 47;
#X obj 680 277 timer;
#X obj 680 360 s dur;
#X obj 680 307 * 44.1;
#X obj 614 707 *~;
#X obj 670 667 line~;
#X text 731 785 time length of recording in samples;
#X text 6 135 records as long as aux button or foot switch are held
down;
#X text 72 156 max 2 seconds;
#X text 862 534 normalize when done;
#X obj 680 335 expr if($f1 > 882000 \, 882000 \, $f1);
#X obj 1078 306 r saveState;
#X obj 528 32 r cgSc-1-6;
#X obj 530 71 sel 0;
#X obj 562 96 t b;
#X msg 562 118 1;
#X msg 530 118 0;
#X msg 1078 349 write sound.wav newsample;
#X msg 518 531 1 10;
#X msg 741 442 0 10;
#X obj 460 566 del 10;
#X obj 653 495 del 10;
#X msg 787 689 stop;
#X msg 606 469 stop;
#X obj 567 512 del 2000;
#X obj 1078 328 t b;
#X obj 653 405 t b b b, f 13;
#X obj 756 657 t b b;
#X obj 35 384 delwrite~ \$0-1 12;
#X obj 523 629 delread~ \$0-1 10;
#X obj 562 153 t f f;
#X obj 594 177 s mute-notes;
#X obj 817 406 loadbang;
#X obj 817 498 s cgSc-1-6label;
#X msg 817 444 RecIn:Off;
#X msg 898 447 RecIn:On;
#X obj 567 534 t b b;
#X obj 794 178 array define newsample 88200;
#X obj 991 237 loadbang;
#X obj 991 295 soundfiler;
#X text 952 208 load .wav into the table below;
#X msg 991 265 read ./sound.wav newsample;
#X obj 991 322 s dur;
#X obj 34 219 *~ 0.707;
#X obj 92 217 *~ 0.707;
#X obj 205 320 throw~ outL;
#X obj 227 300 throw~ outR;
#X obj 34 340 hip~ 15;
#X obj 34 361 lop~ 18000;
#X obj 219 262 *~;
#X obj 235 227 lop~ 10;
#X obj 299 94 loadbang;
#X msg 299 115 0;
#X obj 350 14 r cgSc-1-7;
#X obj 350 35 sel 0;
#X obj 377 59 t b;
#X obj 412 98 + 1;
#X obj 411 119 == 1;
#X obj 377 102 f 1;
#X obj 321 172 t f f;
#X obj 341 240 sel 0 1;
#X obj 313 278 loadbang;
#X obj 313 370 s cgSc-1-7label;
#X msg 313 316 Monitr:OFF;
#X msg 397 319 Monitr:ON;
#X obj 868 561 delay 1;
#X obj 490 408 t b b b b b, f 17;
#X msg 608 434 \; newsample const 0;
#X obj 626 34 r fs;
#X connect 0 0 47 0;
#X connect 1 0 48 0;
#X connect 4 0 5 0;
#X connect 4 0 70 0;
#X connect 4 1 5 1;
#X connect 4 1 30 0;
#X connect 5 0 7 0;
#X connect 7 0 14 0;
#X connect 8 0 2 0;
#X connect 9 0 8 1;
#X connect 14 0 6 0;
#X connect 15 0 29 0;
#X connect 16 0 17 0;
#X connect 17 0 20 0;
#X connect 17 1 18 0;
#X connect 18 0 19 0;
#X connect 19 0 34 0;
#X connect 20 0 34 0;
#X connect 21 0 43 0;
#X connect 22 0 9 0;
#X connect 23 0 9 0;
#X connect 24 0 2 0;
#X connect 25 0 31 0;
#X connect 26 0 2 0;
#X connect 27 0 28 0;
#X connect 28 0 40 0;
#X connect 29 0 21 0;
#X connect 30 0 25 0;
#X connect 30 1 23 0;
#X connect 30 2 27 0;
#X connect 30 2 38 0;
#X connect 31 0 69 0;
#X connect 31 1 26 0;
#X connect 33 0 8 0;
#X connect 34 0 4 0;
#X connect 34 1 35 0;
#X connect 36 0 38 0;
#X connect 38 0 37 0;
#X connect 39 0 37 0;
#X connect 40 1 20 0;
#X connect 42 0 45 0;
#X connect 43 0 46 0;
#X connect 45 0 43 0;
#X connect 47 0 51 0;
#X connect 47 0 53 0;
#X connect 48 0 53 0;
#X connect 51 0 52 0;
#X connect 52 0 32 0;
#X connect 53 0 49 0;
#X connect 53 0 50 0;
#X connect 54 0 53 1;
#X connect 55 0 56 0;
#X connect 56 0 63 0;
#X connect 57 0 58 0;
#X connect 58 1 59 0;
#X connect 59 0 62 0;
#X connect 60 0 61 0;
#X connect 61 0 62 1;
#X connect 62 0 60 0;
#X connect 62 0 63 0;
#X connect 63 0 54 0;
#X connect 63 1 64 0;
#X connect 64 0 67 0;
#X connect 64 1 68 0;
#X connect 65 0 67 0;
#X connect 67 0 66 0;
#X connect 68 0 66 0;
#X connect 69 0 3 0;
#X connect 70 0 24 0;
#X connect 70 1 22 0;
#X connect 70 2 28 0;
#X connect 70 3 27 0;
#X connect 70 3 39 0;
#X connect 70 4 71 0;
#X connect 72 0 17 0;
#X restore 826 262 pd record-sample;
#X obj 1073 420 * 100;
#X obj 1073 447 i;
#X obj 1390 463 i;
#X obj 1390 389 r knob4;
#X obj 1390 552 s screenLine4;
#X obj 421 685 samplervoice;
#X obj 783 447 bang;
#X obj 815 535 * 200;
#X obj 815 563 i;
#X obj 746 578 i;
#X obj 746 606 abs;
#X obj 746 405 detent 0.075;
#X obj 746 302 r knob1;
#X msg 783 474 \; screenLine1 1: Samp Speed ORIG \;;
#X obj 238 97 r aux;
#X obj 392 179 r cgSc-1-slots;
#X obj 355 99 r \$0-reprint-port;
#X obj 469 197 r beat-clock;
#N canvas 13 50 450 300 CG-PdLibrary-Local 0;
#X obj 502 35 r cgSc-1-slots;
#X obj 60 98 declare -path CG-Pd-Library-Local/sequencer;
#X obj 58 130 declare -path CG-Pd-Library-Local/externals;
#X obj 59 165 declare -path CG-Pd-Library-Local/metronome;
#X restore 677 120 pd CG-PdLibrary-Local;
#N canvas 12 50 450 300 CG-PdLibrary-SDcard 0;
#X obj 60 98 declare -path /sdcard/CG-Pd-Library/sequencer;
#X obj 58 130 declare -path /sdcard/CG-Pd-Library/externals;
#X obj 59 165 declare -path /sdcard/CG-Pd-Library/metronome;
#X obj 502 35 r cgSc-1-slots;
#X restore 679 149 pd CG-PdLibrary-SDcard;
#X obj 1073 500 shortcut-mute-f 1;
#X obj 1390 485 shortcut-mute-f 1;
#X obj 746 324 t f f, f 17;
#X obj 877 363 detent 0.075;
#X obj 927 406 s knob1-detent;
#X obj 746 375 shortcut-mute-f 1;
#X obj 1044 157 r seq3-1-led;
#X obj 1044 309 s led;
#X obj 291 250 r mute-notes;
#X obj 291 272 ==;
#X obj 238 328 spigot 1;
#X obj 291 294 t f f;
#X obj 238 350 t a a;
#X obj 270 374 bag;
#X obj 270 396 pack 0 0;
#X obj 238 422 spigot 1;
#X obj 323 316 sel 0;
#X msg 323 338 flush;
#X msg 1238 182 1;
#X obj 1044 229 f;
#X obj 1180 113 r mute-notes;
#X obj 1180 135 sel 0 1, f 17;
#X obj 1238 159 t b b;
#X obj 1044 267 spigot 1, f 29;
#X msg 1271 183 0;
#X obj 1159 160 t b b;
#X msg 1192 184 1;
#X obj 519 685 samplervoice;
#X obj 234 685 samplervoice;
#X obj 48 685 samplervoice;
#X obj 141 685 samplervoice;
#X obj 327 685 samplervoice;
#X obj 238 127 shortcut 1 1, f 20;
#N canvas 787 330 860 595 slot-saver-1 0;
#X obj 167 38 r cgSc-1-slots;
#X obj 30 68 loadbang;
#X msg 30 140 0;
#X obj 30 161 tabread \$0-slot;
#X obj 199 225 array define \$0-slot;
#X obj 30 110 t b b;
#X msg 199 138 read slot.txt;
#X msg 243 186 write slot.txt;
#X obj 243 160 r saveState;
#X obj 167 58 t a b;
#X msg 220 84 0;
#X obj 167 107 tabwrite \$0-slot;
#X obj 30 185 s cgSc-1-slots;
#X connect 0 0 9 0;
#X connect 1 0 5 0;
#X connect 2 0 3 0;
#X connect 3 0 12 0;
#X connect 5 0 2 0;
#X connect 5 1 6 0;
#X connect 6 0 4 0;
#X connect 7 0 4 0;
#X connect 8 0 7 0;
#X connect 9 0 11 0;
#X connect 9 1 10 0;
#X connect 10 0 11 1;
#X restore 648 224 pd slot-saver-1;
#N canvas 19 51 1057 799 metro-here 0;
#X obj 622 370 r seq3-1-actions;
#X obj 565 548 f;
#X msg 660 453 0;
#X obj 692 453 t b b;
#X msg 698 483 1;
#X obj 660 425 sel 1;
#X obj 565 495 del 1;
#X obj 307 506 s beat-clock;
#X obj 429 286 loadbang;
#X obj 517 376 r rec-state;
#X obj 517 398 sel 0;
#X msg 306 324 1;
#X obj 456 556 list, f 7;
#X obj 456 578 route 69;
#X obj 456 484 t b a;
#X msg 456 526 69;
#X msg 429 308 120;
#X obj 430 424 pack, f 10;
#X obj 465 392 t b a;
#X obj 307 354 metronome360 0, f 18;
#X obj 572 340 s seq3-1-quan;
#X obj 653 541 f;
#X obj 456 600 spigot 1;
#X obj 565 570 spigot 1, f 14;
#X obj 549 675 r cgSc-1-slots;
#X obj 549 701 + 1;
#X obj 456 755 print-line5 1, f 16;
#X obj 572 311 r metro-state;
#X obj 739 549 loadbang;
#X obj 549 722 f;
#X obj 739 591 t b b;
#X obj 565 631 f;
#X obj 739 570 del 1;
#X obj 660 402 r cgSc-1-mute-print;
#X connect 0 0 1 0;
#X connect 1 0 23 0;
#X connect 2 0 21 0;
#X connect 3 0 6 0;
#X connect 3 1 4 0;
#X connect 4 0 21 0;
#X connect 5 0 2 0;
#X connect 5 1 3 0;
#X connect 6 0 1 0;
#X connect 6 0 15 0;
#X connect 8 0 16 0;
#X connect 8 0 11 0;
#X connect 9 0 10 0;
#X connect 10 0 1 0;
#X connect 10 0 15 0;
#X connect 11 0 19 0;
#X connect 12 0 13 0;
#X connect 13 0 22 0;
#X connect 14 0 15 0;
#X connect 14 1 12 1;
#X connect 15 0 12 0;
#X connect 16 0 19 1;
#X connect 17 0 14 0;
#X connect 18 0 17 0;
#X connect 18 1 17 1;
#X connect 19 0 7 0;
#X connect 19 1 18 0;
#X connect 19 2 17 0;
#X connect 21 0 22 1;
#X connect 21 0 23 1;
#X connect 22 0 26 0;
#X connect 23 0 31 0;
#X connect 24 0 25 0;
#X connect 25 0 29 0;
#X connect 27 0 20 0;
#X connect 28 0 32 0;
#X connect 29 0 26 2;
#X connect 30 0 31 0;
#X connect 30 1 29 0;
#X connect 31 0 26 1;
#X connect 32 0 30 0;
#X connect 33 0 5 0;
#X restore 648 200 pd metro-here;
#X obj 1441 389 r seq3-1-k4;
#X obj 803 299 r seq3-1-k1;
#X obj 746 466 * 100;
#X obj 746 487 + 50;
#X msg 815 583 \; screenLine1 1: Samp Speed \$1% \;;
#X msg 746 631 \; screenLine1 1: Samp Speed \$1% \;;
#N canvas 594 50 1124 789 seq3-5option-control 0;
#X obj 139 278 outlet;
#X obj 65 121 t b;
#X msg 65 143 2;
#X obj 298 126 t b;
#X msg 298 148 3;
#X text 437 5 when aux is pressed after recording starts immediatley
end the rec and play the loop;
#X obj 170 70 sel 0;
#X obj 202 94 t b;
#X msg 202 116 1;
#X obj 33 66 r cgSc-1-2;
#X obj 171 48 r cgSc-1-1;
#X obj 33 88 sel 0;
#X obj 266 99 sel 0;
#X obj 317 272 r seq3-1-actions;
#X obj 317 294 sel 1, f 12;
#X obj 398 327 t b, f 4;
#X obj 317 445 s cgSc-1-1label;
#X obj 507 308 r seq3-1-actions;
#X obj 588 353 t b, f 4;
#X obj 507 329 sel 2 3, f 12;
#X obj 978 320 t b, f 4;
#X msg 978 355 Latch:Off;
#X msg 896 355 Latch:On;
#X obj 507 441 s cgSc-1-2label;
#X text 521 279 print to the shortcut menu;
#X obj 378 141 f 0;
#X obj 130 0 r midi-start;
#X msg 130 22 4;
#X obj 373 105 r midi-stop;
#X obj 507 125 t b;
#X obj 475 98 sel 0;
#X msg 507 147 5;
#X obj 192 487 r seq3-1-actions;
#X obj 273 532 t b, f 4;
#X obj 192 508 sel 5, f 12;
#X obj 317 373 f;
#X msg 317 403 \$1Seq:Stop;
#X obj 398 372 f;
#X msg 398 402 \$1Seq:Play;
#X msg 507 399 \$1Rec:Armd;
#X msg 588 397 \$1Rec:On;
#X msg 659 398 \$1Rec:Off;
#X obj 507 374 f;
#X obj 582 373 f;
#X obj 649 370 f;
#X obj 273 554 f;
#X obj 192 560 f;
#X msg 192 607 \$1Dub:On;
#X obj 201 286 r cgSc-1-slots;
#X obj 201 329 t b f f;
#X obj 166 439 s seq3-1-actions;
#X obj 166 415 v seq3-1-state;
#X obj 201 309 + 1;
#X obj 668 299 + 1;
#X obj 668 251 r cgSc-1-slots;
#X obj 321 507 + 1;
#X obj 321 483 r cgSc-1-slots;
#X obj 559 76 sel 1;
#X obj 612 80 r seq3-1-actions;
#X obj 559 174 t b b;
#X msg 640 152 0;
#X obj 559 152 spigot 0;
#X msg 612 129 1;
#X msg 559 196 1;
#X obj 192 650 s cgSc-1-3label;
#X obj 475 71 r cgSc-1-3;
#X obj 559 52 r cgSc-1-aux;
#X obj 896 398 s cgSc-1-5label;
#X obj 267 72 r cgSc-1-5;
#X obj 358 53 t b;
#X obj 326 26 sel 0;
#X obj 326 2 r cgSc-1-4;
#X msg 358 75 6;
#X obj 465 480 r seq3-1-actions;
#X obj 507 558 f;
#X obj 584 501 + 1;
#X obj 584 477 r cgSc-1-slots;
#X obj 465 643 s cgSc-1-4label;
#X obj 612 104 sel 3, f 12;
#X msg 273 607 \$1Dub:Off;
#X obj 465 501 sel 6, f 10;
#X obj 532 526 t b;
#X obj 465 585 spigot 1;
#X obj 552 582 spigot 0;
#X obj 675 510 r seq3-1-actions;
#X obj 675 532 sel 3;
#X obj 591 537 ==;
#X obj 637 564 f;
#X msg 637 533 1;
#X msg 708 615 0;
#X msg 552 607 \$1:Undo;
#X msg 465 610 \$1:Undid;
#X obj 465 523 t b b;
#X obj 31 189 loadbang;
#X msg 31 211 0;
#X obj 23 341 r init-1-slot;
#X obj 23 363 s cgSc-1-slots;
#X obj 896 255 r seq3-1-togLatch;
#X obj 896 296 sel 1, f 12;
#X connect 1 0 2 0;
#X connect 2 0 0 0;
#X connect 3 0 4 0;
#X connect 4 0 0 0;
#X connect 6 1 7 0;
#X connect 7 0 8 0;
#X connect 8 0 0 0;
#X connect 9 0 11 0;
#X connect 10 0 6 0;
#X connect 11 1 1 0;
#X connect 12 1 3 0;
#X connect 13 0 14 0;
#X connect 14 0 35 0;
#X connect 14 1 15 0;
#X connect 15 0 37 0;
#X connect 17 0 19 0;
#X connect 18 0 44 0;
#X connect 19 0 42 0;
#X connect 19 1 43 0;
#X connect 19 2 18 0;
#X connect 20 0 21 0;
#X connect 21 0 67 0;
#X connect 22 0 67 0;
#X connect 25 0 0 0;
#X connect 26 0 27 0;
#X connect 27 0 0 0;
#X connect 28 0 25 0;
#X connect 29 0 31 0;
#X connect 30 1 29 0;
#X connect 31 0 0 0;
#X connect 32 0 34 0;
#X connect 33 0 45 0;
#X connect 34 0 46 0;
#X connect 34 1 33 0;
#X connect 35 0 36 0;
#X connect 36 0 16 0;
#X connect 37 0 38 0;
#X connect 38 0 16 0;
#X connect 39 0 23 0;
#X connect 40 0 23 0;
#X connect 41 0 23 0;
#X connect 42 0 39 0;
#X connect 43 0 40 0;
#X connect 44 0 41 0;
#X connect 45 0 79 0;
#X connect 46 0 47 0;
#X connect 47 0 64 0;
#X connect 48 0 52 0;
#X connect 49 0 51 0;
#X connect 49 1 35 1;
#X connect 49 2 37 1;
#X connect 51 0 50 0;
#X connect 52 0 49 0;
#X connect 53 0 44 1;
#X connect 53 0 43 1;
#X connect 53 0 42 1;
#X connect 54 0 53 0;
#X connect 55 0 45 1;
#X connect 55 0 46 1;
#X connect 56 0 55 0;
#X connect 57 0 61 0;
#X connect 58 0 78 0;
#X connect 59 0 63 0;
#X connect 59 1 60 0;
#X connect 60 0 61 1;
#X connect 61 0 59 0;
#X connect 62 0 61 1;
#X connect 63 0 0 0;
#X connect 65 0 30 0;
#X connect 66 0 57 0;
#X connect 68 0 12 0;
#X connect 69 0 72 0;
#X connect 70 1 69 0;
#X connect 71 0 70 0;
#X connect 72 0 0 0;
#X connect 73 0 80 0;
#X connect 74 0 82 0;
#X connect 74 0 83 0;
#X connect 75 0 74 1;
#X connect 76 0 75 0;
#X connect 78 0 62 0;
#X connect 79 0 64 0;
#X connect 80 0 92 0;
#X connect 80 1 81 0;
#X connect 81 0 74 0;
#X connect 82 0 91 0;
#X connect 83 0 90 0;
#X connect 84 0 85 0;
#X connect 85 0 88 0;
#X connect 86 0 82 1;
#X connect 87 0 86 0;
#X connect 87 0 83 1;
#X connect 88 0 87 0;
#X connect 89 0 87 0;
#X connect 90 0 77 0;
#X connect 91 0 77 0;
#X connect 92 0 74 0;
#X connect 92 1 89 0;
#X connect 93 0 94 0;
#X connect 94 0 0 0;
#X connect 95 0 96 0;
#X connect 97 0 98 0;
#X connect 98 0 22 0;
#X connect 98 1 20 0;
#X restore 315 154 pd seq3-5option-control;
#X obj 1073 569 s screenLine2;
#X obj 1073 351 r knob2;
#X obj 1128 351 r seq3-1-k2;
#X obj 1231 449 i;
#X obj 1231 502 shortcut-mute-f 1;
#X msg 1390 523 4: Decay \$1%;
#X msg 1073 541 2: Duration \$1%;
#X obj 1231 363 r knob3;
#X obj 1286 363 r seq3-1-k3;
#X obj 1119 444 s knob2-local;
#X obj 1073 382 f;
#X obj 1231 392 f;
#X obj 1231 413 * 100;
#X obj 1390 418 f;
#X obj 1390 439 * 100;
#X obj 1231 571 s screenLine3;
#X msg 1231 543 3: Attack \$1%;
#X obj 1268 439 s knob3-local;
#X obj 1446 441 s knob4-local;
#X obj 238 221 seq3 1 0 ../../sequences 1 0 1, f 39;
#X connect 2 0 5 0;
#X connect 4 0 0 0;
#X connect 4 0 1 0;
#X connect 5 0 59 0;
#X connect 5 1 60 0;
#X connect 5 2 58 0;
#X connect 5 3 61 0;
#X connect 5 4 15 0;
#X connect 5 5 57 0;
#X connect 6 0 2 0;
#X connect 6 1 2 1;
#X connect 6 2 2 2;
#X connect 10 0 11 0;
#X connect 11 0 30 0;
#X connect 12 0 31 0;
#X connect 13 0 85 0;
#X connect 15 0 4 0;
#X connect 16 0 23 0;
#X connect 17 0 18 0;
#X connect 18 0 69 0;
#X connect 19 0 20 0;
#X connect 20 0 70 0;
#X connect 21 0 67 0;
#X connect 21 1 16 0;
#X connect 21 2 17 0;
#X connect 22 0 32 0;
#X connect 24 0 62 0;
#X connect 25 0 91 2;
#X connect 26 0 62 1;
#X connect 27 0 91 3;
#X connect 30 0 78 0;
#X connect 31 0 77 0;
#X connect 32 0 35 0;
#X connect 32 1 33 0;
#X connect 33 0 34 0;
#X connect 33 1 34 0;
#X connect 33 2 34 0;
#X connect 35 0 21 0;
#X connect 36 0 49 0;
#X connect 38 0 39 0;
#X connect 39 0 41 0;
#X connect 40 0 42 0;
#X connect 41 0 40 1;
#X connect 41 1 46 0;
#X connect 42 0 45 0;
#X connect 42 1 43 0;
#X connect 43 0 44 0;
#X connect 44 0 45 0;
#X connect 45 0 6 0;
#X connect 46 0 47 0;
#X connect 47 0 43 0;
#X connect 48 0 37 0;
#X connect 49 0 53 0;
#X connect 50 0 51 0;
#X connect 51 0 55 0;
#X connect 51 1 52 0;
#X connect 52 0 48 0;
#X connect 52 1 54 0;
#X connect 53 0 37 0;
#X connect 54 0 53 1;
#X connect 55 0 49 0;
#X connect 55 1 56 0;
#X connect 56 0 53 1;
#X connect 57 0 4 0;
#X connect 58 0 4 0;
#X connect 59 0 4 0;
#X connect 60 0 4 0;
#X connect 61 0 4 0;
#X connect 62 0 91 0;
#X connect 65 0 85 0;
#X connect 66 0 32 0;
#X connect 67 0 68 0;
#X connect 68 0 19 0;
#X connect 71 0 91 1;
#X connect 73 0 82 0;
#X connect 74 0 82 0;
#X connect 75 0 76 0;
#X connect 76 0 88 0;
#X connect 77 0 14 0;
#X connect 78 0 72 0;
#X connect 79 0 83 0;
#X connect 80 0 83 0;
#X connect 82 0 10 0;
#X connect 82 0 81 0;
#X connect 83 0 84 0;
#X connect 83 0 89 0;
#X connect 84 0 75 0;
#X connect 85 0 86 0;
#X connect 85 0 90 0;
#X connect 86 0 12 0;
#X connect 88 0 87 0;
#X connect 91 0 40 0;
