#N canvas 338 50 1344 994 10;
#X obj 242 855 *~;
#X text 185 14 get yer notes;
#X obj 102 20 inlet;
#X obj 241 914 outlet~;
#X obj 243 533 pack 0 0;
#X obj 396 773 vline~;
#X obj 242 880 hip~ 5;
#X obj 695 472 mtof;
#X obj 396 796 pow~ 2;
#X obj 243 580 vline~;
#X obj 514 544 del, f 10;
#X obj 102 64 swap, f 33;
#X obj 102 41 unpack, f 33;
#X obj 102 145 sel 0, f 24;
#X obj 333 243 / 127;
#X msg 102 714 0 50;
#X obj 333 284 s \$0-vel;
#X obj 514 596 spigot 0;
#X obj 121 338 s \$0-loop;
#X msg 121 308 0;
#X obj 424 264 s \$0-loop;
#X msg 424 239 1;
#X obj 559 571 r \$0-loop;
#X obj 102 115 f;
#X obj 514 637 s \$0-loop-trig;
#X obj 123 88 r \$0-loop-trig;
#X msg 514 464 stop;
#X obj 243 429 t f b b, f 26;
#X obj 695 448 f, f 9;
#X msg 243 554 0 0 \, \$1 \$2 0;
#X obj 333 264 sqrt;
#X obj 243 601 +~ 1;
#X obj 288 506 - 2;
#X obj 786 272 f;
#X obj 786 293 *, f 15;
#X obj 846 244 t b a;
#X obj 786 321 v \$0-length;
#X obj 243 635 tabread4~ samp-1;
#X obj 786 196 v samp-1-lengthSamp;
#X obj 243 171 t b a b b b b b, f 91;
#X text 843 173 get length of recording in samples;
#X obj 782 488 r global-speed;
#X obj 695 617 v \$0-length;
#X obj 695 679 t a a, f 13;
#X obj 695 590 t b a, f 13;
#X obj 102 257 t b b b;
#X obj 846 223 r knob2-global;
#X obj 695 760 s \$0-L-ms;
#X obj 571 512 r \$0-L-ms;
#X obj 770 705 s \$0-L;
#X obj 695 708 / 44.1;
#X obj 695 519 * 1, f 15;
#X obj 695 495 / 261.625;
#N canvas 4 50 810 912 envelop-shape 0;
#X obj 30 8 inlet;
#X text 81 8 bang;
#X obj 45 358 r \$0-vel;
#X obj 45 379 clip 0 1;
#X obj 162 65 r knob3-global;
#X obj 30 403 f;
#X obj 162 91 t b a;
#X obj 125 127 / 2;
#X obj 125 298 *, f 7;
#X obj 125 31 r \$0-L-ms;
#X obj 277 240 t b a;
#X obj 234 291 *, f 7;
#X obj 277 214 r knob4-global;
#X obj 125 319 max 3;
#X obj 30 552 outlet;
#X text 84 551 to vline~;
#X obj 30 467 pack 0 0 0 0, f 48;
#X msg 30 498 \$1 \$2 \, 0 \$3 \$4;
#X obj 234 319 max 3;
#X obj 234 340 t a a;
#X obj 318 413 -;
#X obj 353 297 * 2;
#X obj 314 390 swap;
#X obj 125 148 t a a a, f 44;
#X connect 0 0 5 0;
#X connect 2 0 3 0;
#X connect 3 0 5 1;
#X connect 4 0 6 0;
#X connect 5 0 16 0;
#X connect 6 0 7 0;
#X connect 6 1 8 1;
#X connect 7 0 23 0;
#X connect 8 0 13 0;
#X connect 9 0 7 0;
#X connect 10 0 11 0;
#X connect 10 1 11 1;
#X connect 11 0 18 0;
#X connect 12 0 10 0;
#X connect 13 0 16 1;
#X connect 16 0 17 0;
#X connect 17 0 14 0;
#X connect 18 0 19 0;
#X connect 19 0 16 2;
#X connect 19 1 22 0;
#X connect 20 0 16 3;
#X connect 21 0 22 1;
#X connect 22 0 20 0;
#X connect 22 1 20 1;
#X connect 23 0 8 0;
#X connect 23 1 11 0;
#X connect 23 2 21 0;
#X restore 396 694 pd envelop-shape;
#X obj 243 390 v \$0-length;
#X obj 288 475 r \$0-L-ms;
#X obj 695 648 /, f 13;
#X connect 0 0 6 0;
#X connect 2 0 12 0;
#X connect 4 0 29 0;
#X connect 5 0 8 0;
#X connect 6 0 3 0;
#X connect 7 0 52 0;
#X connect 8 0 0 1;
#X connect 9 0 31 0;
#X connect 10 0 17 0;
#X connect 11 0 23 0;
#X connect 11 1 28 1;
#X connect 12 0 11 0;
#X connect 12 1 11 1;
#X connect 13 0 45 0;
#X connect 13 1 39 0;
#X connect 14 0 30 0;
#X connect 15 0 5 0;
#X connect 17 0 24 0;
#X connect 19 0 18 0;
#X connect 21 0 20 0;
#X connect 22 0 17 1;
#X connect 23 0 13 0;
#X connect 25 0 23 0;
#X connect 26 0 10 0;
#X connect 27 0 4 0;
#X connect 27 1 10 0;
#X connect 27 2 53 0;
#X connect 28 0 7 0;
#X connect 29 0 9 0;
#X connect 30 0 16 0;
#X connect 31 0 37 0;
#X connect 32 0 4 1;
#X connect 33 0 34 0;
#X connect 34 0 36 0;
#X connect 35 0 33 0;
#X connect 35 1 34 1;
#X connect 37 0 0 0;
#X connect 38 0 33 0;
#X connect 39 0 54 0;
#X connect 39 1 14 0;
#X connect 39 2 21 0;
#X connect 39 3 26 0;
#X connect 39 5 28 0;
#X connect 39 6 38 0;
#X connect 41 0 51 1;
#X connect 42 0 56 0;
#X connect 43 0 50 0;
#X connect 43 1 49 0;
#X connect 44 0 42 0;
#X connect 44 1 56 1;
#X connect 45 0 15 0;
#X connect 45 1 19 0;
#X connect 45 2 26 0;
#X connect 46 0 35 0;
#X connect 48 0 10 1;
#X connect 50 0 47 0;
#X connect 51 0 44 0;
#X connect 52 0 51 0;
#X connect 53 0 5 0;
#X connect 54 0 27 0;
#X connect 55 0 32 0;
#X connect 56 0 43 0;
