#N canvas 329 103 987 822 10;
#X obj 207 712 *~;
#X text 185 14 get yer notes;
#X text 704 194 scale playback speed;
#X obj 102 20 inlet;
#X obj 206 771 outlet~;
#X obj 207 602 tabread4~ newsample;
#X obj 511 205 / 261.626;
#X obj 511 227 / 2;
#X obj 441 221 r dur;
#X obj 438 349 /, f 13;
#X obj 207 500 pack 0 0;
#X obj 511 293 * 1;
#X obj 438 321 / 44.1;
#X obj 404 256 f 88200;
#X obj 373 629 vline~;
#X obj 526 364 r dur;
#X obj 526 386 / 44.1;
#X obj 482 471 /;
#X obj 464 411 t b f;
#X obj 470 444 f;
#X obj 656 205 / 100;
#X obj 656 227 mtof;
#X obj 656 249 / 8.1785;
#X obj 656 155 r knob1-detent;
#X obj 656 178 * 2400;
#X obj 207 737 hip~ 5;
#X obj 439 158 mtof;
#X obj 373 652 pow~ 2;
#X obj 207 547 vline~;
#X obj 571 512 r knob3-local;
#X obj 603 541 r knob4-local;
#X obj 530 481 r knob2-local;
#N canvas 8 50 902 744 note-shape 0;
#X obj 378 330 * 1;
#X obj 378 356 t f f;
#X obj 456 506 -;
#X obj 502 406 * 0.5;
#X obj 325 175 inlet;
#X obj 207 79 inlet;
#X text 191 46 bang to go;
#X text 398 190 duration of max ( 0 - 1);
#X obj 426 210 inlet;
#X text 329 152 max duration in ms;
#X obj 426 260 f;
#X obj 529 293 f;
#X obj 326 235 f;
#X text 287 46 comment;
#X obj 269 714 outlet;
#X text 331 714 to vline~;
#X obj 529 238 inlet att;
#X obj 653 240 inlet deca;
#X obj 653 371 f;
#X obj 502 427 t f f;
#X obj 352 522 + 5;
#X text 637 583 go to 0 in 5ms after 583ms(no decay);
#X msg 269 674 \$1 \$2 \, 0 \$3 \$4;
#X obj 268 646 pack 0.95 0 0 0, f 27;
#X obj 219 120 t b b b b b, f 33;
#X obj 456 579 *;
#X obj 456 547 t f f, f 11;
#X msg 562 501 1 \$1;
#X obj 562 542 -;
#X obj 653 392 t f f;
#X obj 519 577 *;
#X obj 493 627 + 5;
#X obj 456 600 + 5;
#X floatatom 330 402 5 0 0 0 - - -;
#X obj 352 543 t f f;
#X connect 0 0 1 0;
#X connect 0 0 33 0;
#X connect 1 0 2 0;
#X connect 1 1 3 0;
#X connect 2 0 26 0;
#X connect 3 0 19 0;
#X connect 4 0 12 0;
#X connect 5 0 24 0;
#X connect 8 0 10 0;
#X connect 10 0 0 1;
#X connect 11 0 3 1;
#X connect 12 0 0 0;
#X connect 16 0 11 0;
#X connect 17 0 18 0;
#X connect 18 0 29 0;
#X connect 19 0 20 0;
#X connect 19 1 2 1;
#X connect 20 0 34 0;
#X connect 22 0 14 0;
#X connect 23 0 22 0;
#X connect 24 0 23 0;
#X connect 24 1 12 0;
#X connect 24 2 10 0;
#X connect 24 3 11 0;
#X connect 24 4 18 0;
#X connect 25 0 32 0;
#X connect 26 0 25 0;
#X connect 26 1 30 0;
#X connect 27 0 28 0;
#X connect 28 0 30 1;
#X connect 29 0 25 1;
#X connect 29 1 27 0;
#X connect 30 0 31 0;
#X connect 31 0 23 3;
#X connect 32 0 23 2;
#X connect 34 0 23 1;
#X connect 34 1 31 1;
#X restore 440 580 pd note-shape - - - - - - - -;
#X obj 294 431 t a a, f 13;
#X obj 208 375 f;
#X obj 56 613 del, f 10;
#X obj 102 64 swap, f 33;
#X obj 102 41 unpack, f 33;
#X obj 102 115 sel 0;
#X obj 188 174 / 127;
#X msg 337 587 0 50;
#X obj 188 215 s \$0-vel;
#X obj 231 630 r \$0-vel;
#X obj 206 677 *~;
#X obj 56 675 spigot 0;
#X obj 72 252 s \$0-loop;
#X msg 72 227 0;
#X obj 262 216 s \$0-loop;
#X msg 262 191 1;
#X obj 101 645 r \$0-loop;
#X obj 102 85 f;
#X obj 56 696 s \$0-loop-trig;
#X obj 0 48 r \$0-loop-trig;
#X msg 27 514 stop;
#X obj 40 185 t b b b b;
#X obj 404 284 t f f, f 6;
#X obj 439 181 t b f, f 9;
#X msg 357 495 0 3;
#X obj 208 339 del 3;
#X obj 208 396 t f b b, f 24;
#X obj 356 170 f, f 9;
#X obj 129 138 t b a b b b b, f 37;
#X msg 207 521 0 0 \, \$1 \$2 0;
#X obj 188 195 sqrt;
#X obj 231 651 clip 0 1;
#X obj 207 568 +~ 1;
#X obj 254 474 - 2;
#X connect 0 0 25 0;
#X connect 3 0 37 0;
#X connect 5 0 43 0;
#X connect 6 0 7 0;
#X connect 7 0 11 0;
#X connect 8 0 13 1;
#X connect 9 0 33 0;
#X connect 10 0 62 0;
#X connect 11 0 9 1;
#X connect 11 0 18 0;
#X connect 12 0 9 0;
#X connect 13 0 55 0;
#X connect 14 0 27 0;
#X connect 15 0 16 0;
#X connect 16 0 19 1;
#X connect 17 0 32 1;
#X connect 18 0 19 0;
#X connect 18 1 17 1;
#X connect 19 0 17 0;
#X connect 20 0 21 0;
#X connect 21 0 22 0;
#X connect 22 0 11 1;
#X connect 23 0 24 0;
#X connect 24 0 20 0;
#X connect 25 0 4 0;
#X connect 26 0 56 0;
#X connect 27 0 0 1;
#X connect 28 0 65 0;
#X connect 29 0 32 3;
#X connect 30 0 32 4;
#X connect 31 0 32 2;
#X connect 32 0 14 0;
#X connect 33 0 66 0;
#X connect 33 1 35 1;
#X connect 34 0 59 0;
#X connect 35 0 44 0;
#X connect 36 0 50 0;
#X connect 36 1 60 1;
#X connect 37 0 36 0;
#X connect 37 1 36 1;
#X connect 38 0 54 0;
#X connect 38 1 61 0;
#X connect 39 0 63 0;
#X connect 40 0 14 0;
#X connect 42 0 64 0;
#X connect 43 0 0 0;
#X connect 44 0 51 0;
#X connect 46 0 45 0;
#X connect 48 0 47 0;
#X connect 49 0 44 1;
#X connect 50 0 38 0;
#X connect 52 0 50 0;
#X connect 53 0 35 0;
#X connect 54 1 40 0;
#X connect 54 2 46 0;
#X connect 54 3 53 0;
#X connect 55 0 34 1;
#X connect 55 1 12 0;
#X connect 56 0 13 0;
#X connect 56 1 6 0;
#X connect 57 0 14 0;
#X connect 58 0 34 0;
#X connect 59 0 10 0;
#X connect 59 1 35 0;
#X connect 59 2 32 0;
#X connect 60 0 26 0;
#X connect 61 0 58 0;
#X connect 61 1 39 0;
#X connect 61 2 48 0;
#X connect 61 3 53 0;
#X connect 61 4 57 0;
#X connect 61 5 60 0;
#X connect 62 0 28 0;
#X connect 63 0 41 0;
#X connect 64 0 43 1;
#X connect 65 0 5 0;
#X connect 66 0 10 1;
