#N canvas 164 50 1685 884 10;
#X obj 251 127 list length;
#X obj 176 17 inlet;
#X obj 311 662 f 0;
#X obj 176 469 list split 1;
#X obj 327 81 s \$0-restart;
#X obj 196 441 r \$0-restart;
#X obj 549 638 s oscOut;
#X msg 549 399 /oled/gFillArea 3 \$2 \$3 \$4 \$5 \$1;
#X obj 549 161 r \$0-read;
#X obj 549 359 pack 0 0 0 0 0, f 31;
#X obj 656 243 r \$0-y-position;
#X obj 908 7 inlet how many high;
#X obj 1100 318 + 10;
#X obj 1138 99 + 1;
#X obj 1100 226 *;
#X obj 1118 204 r \$0-height;
#X text 1141 318 exclude the top vu bar;
#X obj 251 330 + 0.499999;
#X obj 251 352 int;
#X obj 908 168 /;
#X obj 908 194 + 0.499999;
#X obj 908 216 int;
#X obj 251 377 s \$0-width;
#X obj 908 261 s \$0-height;
#X obj 1100 159 %, f 7;
#X obj 908 89 t a a;
#X obj 940 116 s \$0-heighth-amt;
#X obj 1146 132 r \$0-heighth-amt;
#X obj 1100 265 + 0.499999;
#X obj 1100 287 int;
#X obj 1100 367 s \$0-y-position;
#X obj 602 203 r \$0-x-count;
#X obj 763 301 r \$0-height;
#X obj 709 272 r \$0-width;
#X obj 176 510 route bang, f 15;
#X obj 345 580 list;
#X obj 374 522 r \$0-restart;
#X obj 1122 739 outlet;
#X obj 1122 713 r \$0-y-position;
#X obj 278 549 t a b b, f 10;
#X obj 346 182 s \$0-width-amt;
#X obj 1339 618 r \$0-width-amt;
#X obj 1321 672 sel;
#X obj 278 828 s \$0-read;
#X obj 311 790 s \$0-x-count;
#X obj 311 714 *;
#X obj 329 690 r \$0-width;
#X obj 1321 595 r \$0-x-count;
#X obj 278 571 min 1;
#X obj 278 594 max 0;
#X obj 278 616 i;
#X obj 311 738 + 0.499999;
#X obj 311 762 int;
#X obj 1015 737 outlet;
#X obj 1015 711 r \$0-width;
#X obj 908 60 f \$1;
#X obj 931 32 loadbang;
#X obj 350 662 - 1;
#X obj 329 610 r \$0-width-amt;
#X obj 329 632 - 1;
#X obj 208 416 s \$0-clear;
#X obj 251 299 /;
#X obj 251 149 t a a, f 14;
#X msg 908 145 52 \$1;
#X obj 602 225 + 1;
#X obj 656 265 + 1;
#X obj 763 323 - 2;
#X obj 601 442 r \$0-clear;
#X obj 634 488 r \$0-y-position;
#X obj 668 514 r \$0-height;
#X obj 601 554 pack 0 0 0;
#X msg 601 581 /oled/gFillArea 3 0 \$2 128 \$3 0;
#X msg 601 472 0;
#X obj 176 39 t a a b, f 22;
#X obj 176 393 t a b;
#X obj 1100 53 inlet next line;
#X obj 1339 639 - 1;
#X obj 709 295 - 3;
#X obj 1100 97 f 3;
#X obj 1245 37 loadbang;
#X obj 1245 59 \$2;
#X obj 1321 736 outlet gflip;
#X msg 1443 688 /oled/gFlip 3 1;
#X obj 251 251 -;
#X obj 251 273 pack 0 0;
#X obj 251 182 t a a, f 9;
#X msg 251 229 128 \$1;
#X obj 251 204 / 2;
#X connect 0 0 62 0;
#X connect 1 0 73 0;
#X connect 2 0 45 0;
#X connect 2 0 57 0;
#X connect 3 0 34 0;
#X connect 3 1 35 1;
#X connect 5 0 3 0;
#X connect 7 0 6 0;
#X connect 8 0 9 0;
#X connect 9 0 7 0;
#X connect 10 0 65 0;
#X connect 11 0 55 0;
#X connect 12 0 30 0;
#X connect 13 0 78 1;
#X connect 14 0 28 0;
#X connect 15 0 14 1;
#X connect 17 0 18 0;
#X connect 18 0 22 0;
#X connect 19 0 20 0;
#X connect 20 0 21 0;
#X connect 21 0 23 0;
#X connect 24 0 14 0;
#X connect 25 0 63 0;
#X connect 25 1 26 0;
#X connect 27 0 24 1;
#X connect 28 0 29 0;
#X connect 29 0 12 0;
#X connect 31 0 64 0;
#X connect 32 0 66 0;
#X connect 33 0 77 0;
#X connect 34 1 39 0;
#X connect 35 0 3 0;
#X connect 36 0 35 0;
#X connect 38 0 37 0;
#X connect 39 0 48 0;
#X connect 39 1 2 0;
#X connect 39 2 35 0;
#X connect 41 0 76 0;
#X connect 42 0 81 0;
#X connect 45 0 51 0;
#X connect 46 0 45 1;
#X connect 47 0 42 0;
#X connect 48 0 49 0;
#X connect 49 0 50 0;
#X connect 50 0 43 0;
#X connect 51 0 52 0;
#X connect 52 0 44 0;
#X connect 54 0 53 0;
#X connect 55 0 25 0;
#X connect 56 0 55 0;
#X connect 57 0 2 1;
#X connect 58 0 59 0;
#X connect 59 0 2 1;
#X connect 61 0 17 0;
#X connect 62 0 85 0;
#X connect 62 1 40 0;
#X connect 63 0 19 0;
#X connect 64 0 9 1;
#X connect 65 0 9 2;
#X connect 66 0 9 4;
#X connect 67 0 72 0;
#X connect 68 0 70 1;
#X connect 69 0 70 2;
#X connect 70 0 71 0;
#X connect 71 0 6 0;
#X connect 72 0 70 0;
#X connect 73 0 74 0;
#X connect 73 1 0 0;
#X connect 73 2 4 0;
#X connect 74 0 3 0;
#X connect 74 1 60 0;
#X connect 75 0 78 0;
#X connect 76 0 42 1;
#X connect 77 0 9 3;
#X connect 78 0 13 0;
#X connect 78 0 24 0;
#X connect 79 0 80 0;
#X connect 80 0 78 0;
#X connect 83 0 84 0;
#X connect 84 0 61 0;
#X connect 85 0 87 0;
#X connect 85 1 84 1;
#X connect 86 0 83 0;
#X connect 87 0 86 0;
