#N canvas 249 249 1276 795 10;
#X obj 48 41 inlet note;
#X obj 371 665 vline~;
#X obj 240 578 sqrt;
#X obj 81 296 unpack 0 0;
#X obj 81 317 swap, f 10;
#X obj 81 478 sel 0, f 27;
#X obj 240 556 / 127;
#X obj 138 425 s~ \$0-freq;
#X obj 138 384 mtof;
#X obj 493 293 *~;
#X obj 679 305 *~;
#X obj 856 312 *~;
#X obj 1066 307 *~;
#X obj 774 523 hip~ 4;
#X obj 774 544 outlet~;
#X obj 493 95 r~ \$0-freq;
#X obj 138 354 +, f 8;
#X obj 156 303 r transpose;
#X obj 138 405 lop~ 100;
#X obj 156 326 t b a;
#X obj 195 730 switch~;
#X msg 225 651 1;
#X obj 81 519 t b b b;
#X msg 120 572 stop;
#X msg 100 634 0;
#X obj 81 426 t a a;
#X obj 108 450 s \$0-vel;
#X obj 371 716 s~ \$0-line;
#X obj 1067 244 *~;
#X obj 1083 221 r~ \$0-line;
#X obj 901 222 r~ \$0-line;
#X obj 856 243 *~, f 8;
#X obj 856 202 *~ 1;
#X obj 1066 175 *~ 1;
#X obj 493 173 tabosc4~ wave-1;
#X obj 240 521 t a b b b;
#X obj 580 146 r \$0-reset;
#X obj 710 133 r \$0-reset;
#X obj 948 141 r \$0-reset;
#X obj 1159 131 r \$0-reset;
#X obj 371 686 pow~ 2;
#X obj 493 193 *~ 1;
#X obj 679 185 *~ 1;
#X obj 509 263 r~ wave-1-vol;
#X obj 509 116 r~ wave-1-index;
#X obj 493 146 *~;
#X obj 679 85 r~ \$0-freq;
#X obj 679 136 *~;
#X obj 858 89 r~ \$0-freq;
#X obj 858 140 *~;
#X obj 1066 75 r~ \$0-freq;
#X obj 1066 126 *~;
#X obj 725 204 r~ \$0-line;
#X obj 680 225 *~, f 8;
#X obj 539 211 r~ \$0-line;
#X obj 494 232 *~, f 8;
#X obj 695 106 r~ wave-2-index;
#X obj 695 274 r~ wave-2-vol;
#X obj 873 277 r~ wave-3-vol;
#X obj 874 110 r~ wave-3-index;
#X obj 1082 96 r~ wave-4-index;
#X obj 1082 271 r~ wave-4-vol;
#X obj 774 481 *~ 0.8;
#X msg 240 601 \$1 20 \, 0.86 1000 20;
#X obj 493 314 *~ 0.9;
#X obj 679 329 *~ 0.9;
#X obj 856 333 *~ 0.9;
#X obj 1066 328 *~ 0.9;
#X msg 81 677 0 245;
#X obj 100 613 del 245;
#X obj 678 164 tabosc4~ wave-2;
#X obj 857 181 tabosc4~ wave-3;
#X obj 1066 154 tabosc4~ wave-4;
#X obj 774 460 clip~ -0.9 0.9;
#X connect 0 0 3 0;
#X connect 1 0 40 0;
#X connect 2 0 63 0;
#X connect 3 0 4 0;
#X connect 3 1 4 1;
#X connect 4 0 25 0;
#X connect 4 1 16 0;
#X connect 5 0 22 0;
#X connect 5 1 35 0;
#X connect 6 0 2 0;
#X connect 8 0 18 0;
#X connect 9 0 64 0;
#X connect 10 0 65 0;
#X connect 11 0 66 0;
#X connect 12 0 67 0;
#X connect 13 0 14 0;
#X connect 15 0 45 0;
#X connect 16 0 8 0;
#X connect 17 0 19 0;
#X connect 18 0 7 0;
#X connect 19 0 16 0;
#X connect 19 1 16 1;
#X connect 21 0 20 0;
#X connect 22 0 68 0;
#X connect 22 1 69 0;
#X connect 22 2 23 0;
#X connect 23 0 69 0;
#X connect 24 0 20 0;
#X connect 25 0 5 0;
#X connect 25 1 26 0;
#X connect 28 0 12 0;
#X connect 29 0 28 1;
#X connect 30 0 31 1;
#X connect 31 0 11 0;
#X connect 32 0 31 0;
#X connect 33 0 28 0;
#X connect 34 0 41 0;
#X connect 35 0 6 0;
#X connect 35 1 21 0;
#X connect 35 2 23 0;
#X connect 36 0 34 1;
#X connect 37 0 70 1;
#X connect 38 0 71 1;
#X connect 39 0 72 1;
#X connect 40 0 27 0;
#X connect 41 0 55 0;
#X connect 42 0 53 0;
#X connect 43 0 9 1;
#X connect 44 0 45 1;
#X connect 45 0 34 0;
#X connect 46 0 47 0;
#X connect 47 0 70 0;
#X connect 48 0 49 0;
#X connect 49 0 71 0;
#X connect 50 0 51 0;
#X connect 51 0 72 0;
#X connect 52 0 53 1;
#X connect 53 0 10 0;
#X connect 54 0 55 1;
#X connect 55 0 9 0;
#X connect 56 0 47 1;
#X connect 57 0 10 1;
#X connect 58 0 11 1;
#X connect 59 0 49 1;
#X connect 60 0 51 1;
#X connect 61 0 12 1;
#X connect 62 0 13 0;
#X connect 63 0 1 0;
#X connect 64 0 73 0;
#X connect 65 0 73 0;
#X connect 66 0 73 0;
#X connect 67 0 73 0;
#X connect 68 0 1 0;
#X connect 69 0 24 0;
#X connect 70 0 42 0;
#X connect 71 0 32 0;
#X connect 72 0 33 0;
#X connect 73 0 62 0;
