#N canvas 0 0 444 232 10;
#X obj 192 161 +~;
#X obj 192 137 *~;
#N canvas 126 125 163 159 ringmod 1;
#X obj 1 1 inlet~;
#X obj 61 1 inlet~;
#X obj 2 79 +~;
#X obj 44 80 *~;
#X obj 1 138 outlet~;
#X obj 116 1 inlet~;
#N canvas 0 0 450 300 crossfader 0;
#X obj 117 49 inlet~;
#X obj 181 48 inlet~;
#X obj 118 128 *~;
#X obj 181 130 *~;
#X obj 238 47 inlet~;
#X obj 222 70 sig~ 1;
#X obj 223 92 -~;
#X obj 146 170 outlet~;
#X connect 0 0 2 0;
#X connect 1 0 3 0;
#X connect 2 0 7 0;
#X connect 3 0 7 0;
#X connect 4 0 6 1;
#X connect 4 0 2 1;
#X connect 5 0 6 0;
#X connect 6 0 3 1;
#X restore 1 112 pd crossfader;
#X connect 0 0 3 0;
#X connect 0 0 2 0;
#X connect 1 0 3 1;
#X connect 1 0 2 1;
#X connect 2 0 6 0;
#X connect 3 0 6 1;
#X connect 5 0 6 2;
#X connect 6 0 4 0;
#X restore 38 68 pd ringmod;
#X obj 375 2 inlet~ pw;
#X obj 0 1 inlet~ b1;
#X obj 70 1 inlet~ b2;
#X obj 139 1 inlet~ rm;
#X obj 208 1 inlet~ mod;
#X obj 192 211 outlet~;
#X obj 289 2 inlet~ base;
#X obj 192 185 vposc;
#X connect 0 0 10 0;
#X connect 1 0 0 0;
#X connect 2 0 1 0;
#X connect 3 0 10 1;
#X connect 4 0 2 0;
#X connect 5 0 2 1;
#X connect 6 0 2 2;
#X connect 7 0 1 1;
#X connect 9 0 0 1;
#X connect 10 0 8 0;
