#N canvas 5 50 450 300 10;
#N canvas 5 74 389 480 distance 0;
#X obj 5 93 inlet~;
#X obj 4 370 outlet~;
#X obj 5 346 +~;
#X obj 21 243 sig~;
#X obj 5 115 lop~ 100;
#X obj 21 323 *~ 0.5;
#X obj 67 2 inlet;
#X obj 87 29 swap 1;
#X obj 87 50 -;
#X obj 87 92 + 50;
#X obj 5 137 lop~ 100;
#X obj 5 159 lop~ 100;
#X obj 21 283 +~ 2;
#X obj 21 263 *~ 3;
#X obj 87 71 * 6000;
#X obj 32 199 delwrite~ \$0-distance 1000;
#X obj 21 303 vd~ \$0-distance;
#X connect 0 0 4 0;
#X connect 2 0 1 0;
#X connect 3 0 13 0;
#X connect 4 0 10 0;
#X connect 5 0 2 1;
#X connect 6 0 3 0;
#X connect 6 0 7 0;
#X connect 7 0 8 0;
#X connect 7 1 8 1;
#X connect 8 0 14 0;
#X connect 9 0 4 1;
#X connect 9 0 10 1;
#X connect 9 0 11 1;
#X connect 10 0 11 0;
#X connect 11 0 2 0;
#X connect 11 0 15 0;
#X connect 12 0 16 0;
#X connect 13 0 12 0;
#X connect 14 0 9 0;
#X connect 16 0 5 0;
#X restore 71 128 pd distance;
#X obj 71 88 inlet~;
#X obj 72 162 outlet~;
#X obj 143 108 inlet distance;
#X connect 0 0 2 0;
#X connect 1 0 0 0;
#X connect 3 0 0 1;
