#N canvas 497 390 1076 494 10;
#X obj 135 109 r \$0-dial;
#X obj 135 131 t a b b, f 13;
#X obj 59 215 unpack f f;
#X obj 59 237 osc~;
#X obj 59 269 +~;
#X obj 59 291 *~;
#X obj 59 313 hip~ 100;
#X obj 59 335 *~ 0.25;
#X obj 59 357 outlet~;
#X obj 182 191 del 200;
#X obj 181 214 0 1;
#X obj 182 235 vline~;
#X msg 223 159 1 1;
#X obj 126 237 osc~;
#X obj 281 81 sel \$2 \$3 \$4 \$5, f 33;
#X obj 281 375 s \$0-dial;
#X msg 338 195 1336 770;
#X msg 385 115 1336 852;
#X obj 280 51 inlet trigger;
#X obj 577 70 inlet;
#X obj 577 92 route \$6;
#X msg 464 124 1477 770;
#X obj 656 235 s sfx-\$1-knob2-label;
#X obj 728 71 inlet;
#X obj 728 93 route \$6;
#X msg 728 117 X;
#X obj 876 70 inlet;
#X obj 876 92 route \$6;
#X msg 876 116 X;
#X msg 656 213 Pitch: \$1 hz;
#X obj 314 294 * 1.7346;
#X obj 517 305 * 1.1047;
#X obj 281 329 pack 0 0 0;
#X obj 314 270 r \$0-root;
#X msg 281 352 \$2 \$3;
#X obj 517 280 r \$0-root;
#X obj 426 377 s \$0-dial;
#X obj 426 331 pack 0 0 0;
#X msg 426 354 \$2 \$3;
#X obj 498 201 * 1.2224;
#X obj 431 268 s \$0-dial;
#X obj 431 222 pack 0 0 0;
#X msg 431 245 \$2 \$3;
#X obj 465 182 * 1.9168;
#X obj 474 160 r \$0-root;
#X obj 450 305 * 1.9168;
#X obj 600 401 s \$0-dial;
#X obj 600 355 pack 0 0 0;
#X msg 600 378 \$2 \$3;
#X obj 634 286 r \$0-root;
#X obj 667 334 * 1.1047;
#X obj 634 315 * 2.1191;
#X obj 620 163 s \$0-root;
#X obj 620 118 * 2000;
#X obj 620 140 + 100;
#X obj 657 190 i;
#X obj 728 139 s sfx-\$1-knob3-label;
#X obj 876 138 s sfx-\$1-knob4-label;
#X connect 0 0 1 0;
#X connect 1 0 2 0;
#X connect 1 1 9 0;
#X connect 1 2 12 0;
#X connect 2 0 3 0;
#X connect 2 1 13 0;
#X connect 3 0 4 0;
#X connect 4 0 5 0;
#X connect 5 0 6 0;
#X connect 6 0 7 0;
#X connect 7 0 8 0;
#X connect 9 0 10 0;
#X connect 10 0 11 0;
#X connect 11 0 5 1;
#X connect 12 0 11 0;
#X connect 13 0 4 1;
#X connect 14 0 32 0;
#X connect 14 1 16 0;
#X connect 14 1 37 0;
#X connect 14 2 17 0;
#X connect 14 2 41 0;
#X connect 14 3 21 0;
#X connect 14 3 47 0;
#X connect 18 0 14 0;
#X connect 19 0 20 0;
#X connect 20 0 53 0;
#X connect 23 0 24 0;
#X connect 24 0 25 0;
#X connect 25 0 56 0;
#X connect 26 0 27 0;
#X connect 27 0 28 0;
#X connect 28 0 57 0;
#X connect 29 0 22 0;
#X connect 30 0 32 1;
#X connect 31 0 37 2;
#X connect 32 0 34 0;
#X connect 33 0 30 0;
#X connect 33 0 32 2;
#X connect 34 0 15 0;
#X connect 35 0 31 0;
#X connect 35 0 45 0;
#X connect 37 0 38 0;
#X connect 38 0 36 0;
#X connect 39 0 41 2;
#X connect 41 0 42 0;
#X connect 42 0 40 0;
#X connect 43 0 41 1;
#X connect 44 0 43 0;
#X connect 44 0 39 0;
#X connect 45 0 37 1;
#X connect 47 0 48 0;
#X connect 48 0 46 0;
#X connect 49 0 50 0;
#X connect 49 0 51 0;
#X connect 50 0 47 2;
#X connect 51 0 47 1;
#X connect 53 0 54 0;
#X connect 54 0 52 0;
#X connect 54 0 55 0;
#X connect 55 0 29 0;
