#N canvas 432 399 1195 534 10;
#X obj 221 227 osc~ 300;
#X obj 359 240 osc~ 3100;
#X obj 286 227 osc~ 826;
#X obj 246 255 +~;
#X obj 250 319 *~;
#X obj 366 95 vline~;
#X obj 360 198 *~;
#X obj 349 310 *~;
#X obj 250 342 *~;
#X obj 269 373 *~;
#X obj 289 399 +~;
#X obj 289 423 outlet~;
#X obj 239 34 inlet hit1;
#X obj 366 44 inlet hit2;
#X obj 488 44 inlet hit3;
#X obj 238 79 vline~;
#X obj 237 103 *~;
#X obj 623 84 vline~;
#X obj 622 108 *~;
#X obj 622 34 inlet hit4;
#X obj 621 131 *~;
#X obj 741 128 inlet;
#X obj 791 129 inlet;
#X obj 844 127 inlet;
#X msg 624 57 1 1 \, 0 100 1;
#X msg 239 59 0.5 1 \, 0 300 1;
#X msg 366 68 0.45 1 \, 0 200 1;
#X msg 489 68 0.35 1 \, 0 30 1;
#X obj 741 150 lop~ 5;
#X obj 791 151 lop~ 5;
#X obj 844 149 lop~ 5;
#X obj 303 464 throw~ outL;
#X obj 396 465 throw~ outR;
#X connect 0 0 4 0;
#X connect 0 0 3 0;
#X connect 1 0 7 0;
#X connect 2 0 4 1;
#X connect 2 0 3 1;
#X connect 3 0 8 1;
#X connect 4 0 8 0;
#X connect 5 0 6 0;
#X connect 5 0 6 1;
#X connect 5 0 7 1;
#X connect 6 0 9 1;
#X connect 7 0 10 1;
#X connect 8 0 9 0;
#X connect 9 0 10 0;
#X connect 10 0 11 0;
#X connect 10 0 31 0;
#X connect 10 0 32 0;
#X connect 12 0 25 0;
#X connect 13 0 26 0;
#X connect 14 0 27 0;
#X connect 15 0 16 0;
#X connect 15 0 16 1;
#X connect 16 0 9 1;
#X connect 17 0 18 0;
#X connect 17 0 18 1;
#X connect 18 0 20 0;
#X connect 18 0 20 1;
#X connect 19 0 24 0;
#X connect 20 0 7 1;
#X connect 21 0 28 0;
#X connect 22 0 29 0;
#X connect 23 0 30 0;
#X connect 24 0 17 0;
#X connect 25 0 15 0;
#X connect 26 0 5 0;
#X connect 27 0 5 0;
#X connect 28 0 0 0;
#X connect 29 0 2 0;
#X connect 30 0 1 0;
