#N canvas 571 110 949 742 10;
#X obj 217 22 noise~;
#X obj 217 89 *~;
#X obj 217 63 lop~ 2;
#X obj 217 42 lop~ 2;
#X obj 217 111 *~ 500;
#X obj 138 74 -~ 1;
#X obj 59 486 comb1 80 0.2;
#X obj 217 135 +~ 20;
#X obj 0 206 randgate 3 0.0008;
#X obj 0 181 chplz;
#X obj 29 59 noise~;
#X obj 29 119 max~ 0;
#X obj 29 99 lop~ 0.1;
#X obj 29 79 lop~ 0.1;
#X obj 29 139 *~ 700;
#X obj 138 153 *~;
#X obj 138 179 clip~ -0.9 0.1;
#X obj 0 441 *~ 0.6;
#X obj 138 0 phasor~ 100.2;
#X obj 0 419 *~;
#X obj 72 358 clip~ 0 1;
#X obj 72 337 *~ 1e+09;
#X obj 72 379 lop~ 30;
#X obj 72 295 max~ 0.1;
#X obj 72 316 -~ 0.1;
#X obj 72 232 lop~ 15;
#X obj 72 253 lop~ 15;
#X obj 72 274 *~ 500;
#X obj 29 159 +~ 3;
#X obj 175 360 *~ 0.05;
#X obj 175 313 threshold~ 0.03 0 0 0;
#X obj 175 336 snap 1.8;
#X obj 0 24 phasor~ -99.8;
#X obj 60 561 outlet~;
#X obj 59 528 *~;
#X obj 541 384 vline~;
#X obj 541 325 pack 0 0 0;
#X obj 541 406 *~;
#X obj 378 50 sel \$2;
#X obj 378 28 inlet trigger;
#X obj 481 53 route \$3;
#X obj 589 54 route \$3;
#X obj 481 31 inlet rampUp;
#X obj 589 32 inlet rampDown;
#X obj 481 97 int;
#X obj 481 144 s sfx-\$1-knob2-label;
#X obj 785 163 s sfx-\$1-knob4-label;
#X msg 481 119 Ramp Up: \$1 ms;
#X msg 632 118 Ramp Down: \$1 ms;
#X obj 588 76 * 8000;
#X obj 588 98 int;
#X obj 632 143 s sfx-\$1-knob3-label;
#X obj 777 3 inlet Tone;
#X obj 785 73 + 40;
#X obj 785 104 i;
#X msg 785 126 Pitch: \$1 hz;
#X obj 385 407 switch~;
#X msg 385 384 0;
#X msg 420 384 1, f 4;
#X obj 377 249 t b b b;
#X msg 458 270 stop;
#X obj 377 283 del;
#X obj 498 210 +;
#X obj 523 172 t b a;
#X obj 498 232 + 10;
#X obj 777 25 route \$3;
#X obj 785 51 * 1000;
#X msg 541 352 1 5 \, 0 \$2 5 \, 1 \$3 \$2;
#X obj 481 75 * 1000;
#X connect 0 0 3 0;
#X connect 1 0 4 0;
#X connect 2 0 1 0;
#X connect 2 0 1 1;
#X connect 3 0 2 0;
#X connect 4 0 7 0;
#X connect 4 0 15 1;
#X connect 5 0 15 0;
#X connect 6 0 34 0;
#X connect 7 0 6 0;
#X connect 8 0 19 0;
#X connect 9 0 8 0;
#X connect 10 0 13 0;
#X connect 11 0 14 0;
#X connect 12 0 11 0;
#X connect 13 0 12 0;
#X connect 14 0 28 0;
#X connect 15 0 16 0;
#X connect 16 0 25 0;
#X connect 16 0 30 0;
#X connect 16 0 6 1;
#X connect 17 0 6 1;
#X connect 18 0 5 0;
#X connect 19 0 17 0;
#X connect 20 0 22 0;
#X connect 21 0 20 0;
#X connect 22 0 19 1;
#X connect 23 0 24 0;
#X connect 24 0 21 0;
#X connect 25 0 26 0;
#X connect 26 0 27 0;
#X connect 27 0 23 0;
#X connect 28 0 9 1;
#X connect 29 0 6 1;
#X connect 30 0 31 0;
#X connect 31 0 29 0;
#X connect 32 0 9 0;
#X connect 32 0 5 0;
#X connect 34 0 33 0;
#X connect 35 0 37 0;
#X connect 35 0 37 1;
#X connect 36 0 67 0;
#X connect 37 0 34 1;
#X connect 38 0 59 0;
#X connect 39 0 38 0;
#X connect 40 0 68 0;
#X connect 41 0 49 0;
#X connect 42 0 40 0;
#X connect 43 0 41 0;
#X connect 44 0 36 1;
#X connect 44 0 47 0;
#X connect 44 0 62 0;
#X connect 47 0 45 0;
#X connect 48 0 51 0;
#X connect 49 0 50 0;
#X connect 50 0 48 0;
#X connect 50 0 63 0;
#X connect 50 0 36 2;
#X connect 52 0 65 0;
#X connect 53 0 54 0;
#X connect 54 0 55 0;
#X connect 55 0 46 0;
#X connect 57 0 56 0;
#X connect 58 0 56 0;
#X connect 59 0 61 0;
#X connect 59 1 36 0;
#X connect 59 2 60 0;
#X connect 59 2 58 0;
#X connect 60 0 61 0;
#X connect 61 0 57 0;
#X connect 62 0 64 0;
#X connect 63 0 62 0;
#X connect 63 1 62 1;
#X connect 64 0 61 1;
#X connect 65 0 66 0;
#X connect 66 0 53 0;
#X connect 67 0 35 0;
#X connect 68 0 44 0;
