#N canvas 610 367 274 198 10;
#X obj 161 46 phasor~;
#X obj 164 5 hsl 64 12 0 1 0 1 empty empty engine-speed -2 6 1 8 -262144
-1 -1 3100 1;
#X obj 83 113 *~ 0.25;
#X obj 81 166 dac~;
#X obj 83 139 *~ 0.25;
#X obj 161 23 * 12;
#N canvas 0 0 733 539 fourstroke 0;
#X obj 51 336 outlet~;
#X obj 168 336 outlet~;
#X obj 287 338 outlet~;
#X obj 399 340 outlet~;
#X obj 277 10 inlet~;
#X obj 277 157 sig~;
#X obj 277 30 *~ 4;
#X obj 97 95 -~ 0.75;
#X obj 215 87 -~ 0.5;
#X obj 334 87 -~ 0.25;
#X obj 50 285 sig~ 1;
#X obj 51 311 /~;
#X obj 98 286 +~ 1;
#X obj 98 265 *~;
#X obj 98 243 *~;
#X obj 167 285 sig~ 1;
#X obj 166 311 /~;
#X obj 215 286 +~ 1;
#X obj 215 265 *~;
#X obj 215 243 *~;
#X obj 286 287 sig~ 1;
#X obj 287 313 /~;
#X obj 334 288 +~ 1;
#X obj 334 267 *~;
#X obj 334 245 *~;
#X obj 398 291 sig~ 1;
#X obj 399 317 /~;
#X obj 446 292 +~ 1;
#X obj 446 271 *~;
#X obj 446 249 *~;
#X obj 576 -13 noise~;
#X obj 461 226 +~;
#X obj 351 223 +~;
#X obj 232 222 +~;
#X obj 115 221 +~;
#X obj 446 65 +~;
#X obj 334 62 +~;
#X obj 215 62 +~;
#X obj 97 61 +~;
#X obj 130 193 vd~ b 5;
#X obj 247 194 vd~ b 10;
#X obj 366 195 vd~ b 15;
#X obj 476 196 vd~ b 20;
#X obj 606 88 delwrite~ a 20;
#X obj 112 -15 delread~ a 5;
#X obj 230 -14 delread~ a 10;
#X obj 349 -14 delread~ a 15;
#X obj 462 -13 delread~ a 20;
#X obj 547 112 delwrite~ b 20;
#X obj 576 8 lop~ 20;
#X obj 576 30 lop~ 20;
#X obj 606 63 *~ 0.5;
#X obj 547 62 *~ 30;
#X obj 98 117 cos~;
#X obj 215 113 cos~;
#X obj 334 111 cos~;
#X obj 446 111 cos~;
#X obj 43 9 swap 1;
#X obj 43 31 -;
#X obj 43 -13 inlet;
#X obj 42 74 + 7;
#X obj 43 53 * 15;
#X connect 4 0 6 0;
#X connect 5 0 31 0;
#X connect 5 0 34 0;
#X connect 5 0 33 0;
#X connect 5 0 32 0;
#X connect 6 0 38 0;
#X connect 6 0 37 0;
#X connect 6 0 36 0;
#X connect 6 0 35 0;
#X connect 7 0 53 0;
#X connect 8 0 54 0;
#X connect 9 0 55 0;
#X connect 10 0 11 0;
#X connect 11 0 0 0;
#X connect 12 0 11 1;
#X connect 13 0 12 0;
#X connect 14 0 13 0;
#X connect 14 0 13 1;
#X connect 15 0 16 0;
#X connect 16 0 1 0;
#X connect 17 0 16 1;
#X connect 18 0 17 0;
#X connect 19 0 18 0;
#X connect 19 0 18 1;
#X connect 20 0 21 0;
#X connect 21 0 2 0;
#X connect 22 0 21 1;
#X connect 23 0 22 0;
#X connect 24 0 23 0;
#X connect 24 0 23 1;
#X connect 25 0 26 0;
#X connect 26 0 3 0;
#X connect 27 0 26 1;
#X connect 28 0 27 0;
#X connect 29 0 28 0;
#X connect 29 0 28 1;
#X connect 30 0 49 0;
#X connect 31 0 29 1;
#X connect 32 0 24 1;
#X connect 33 0 19 1;
#X connect 34 0 14 1;
#X connect 35 0 56 0;
#X connect 36 0 9 0;
#X connect 37 0 8 0;
#X connect 38 0 7 0;
#X connect 39 0 34 1;
#X connect 40 0 33 1;
#X connect 41 0 32 1;
#X connect 42 0 31 1;
#X connect 44 0 38 1;
#X connect 45 0 37 1;
#X connect 46 0 36 1;
#X connect 47 0 35 1;
#X connect 49 0 50 0;
#X connect 50 0 51 0;
#X connect 50 0 52 0;
#X connect 51 0 43 0;
#X connect 52 0 48 0;
#X connect 53 0 14 0;
#X connect 54 0 19 0;
#X connect 55 0 24 0;
#X connect 56 0 29 0;
#X connect 57 0 58 0;
#X connect 57 1 58 1;
#X connect 58 0 61 0;
#X connect 59 0 57 0;
#X connect 60 0 5 0;
#X connect 61 0 60 0;
#X restore 26 69 pd fourstroke engine;
#X connect 0 0 6 1;
#X connect 1 0 5 0;
#X connect 1 0 6 0;
#X connect 2 0 4 0;
#X connect 4 0 3 0;
#X connect 4 0 3 1;
#X connect 5 0 0 0;
#X connect 6 0 2 0;
#X connect 6 1 2 0;
#X connect 6 2 2 0;
#X connect 6 3 2 0;
