#N canvas 80 59 226 251 10;
#X obj 89 125 +~;
#X obj 73 151 +~;
#X obj 58 172 +~;
#X obj 35 81 *~;
#X obj 58 212 hip~ 1000;
#X obj 58 106 *~;
#X obj 111 80 *~;
#X obj 58 192 cos~;
#X obj 50 22 unpack f f f;
#X obj 50 -1 inlet;
#X obj 58 232 outlet~;
#X obj -2 47 phasor~;
#X obj 89 46 phasor~;
#X obj 171 46 phasor~;
#X connect 0 0 1 1;
#X connect 1 0 2 1;
#X connect 2 0 7 0;
#X connect 3 0 5 0;
#X connect 4 0 10 0;
#X connect 5 0 2 0;
#X connect 6 0 5 1;
#X connect 7 0 4 0;
#X connect 8 0 11 0;
#X connect 8 1 12 0;
#X connect 8 2 13 0;
#X connect 9 0 8 0;
#X connect 11 0 3 0;
#X connect 11 0 1 0;
#X connect 12 0 3 1;
#X connect 12 0 6 0;
#X connect 12 0 0 0;
#X connect 13 0 6 1;
#X connect 13 0 0 1;
