#N canvas 259 50 873 610 10;
#X obj 325 315 catch~ sfx-\$1-bus;
#X obj 372 378 hip~ 1000;
#N canvas 346 144 1401 830 knobs 0;
#X obj 161 60 i;
#X obj 181 414 list prepend 0;
#X obj 342 413 list prepend 0;
#X obj 537 414 list prepend 0;
#X obj 161 16 r sfx-\$1-knob1;
#X obj 181 362 r sfx-\$1-knob2;
#X obj 181 436 s sfx-\$1-knob2-local;
#X obj 342 361 r sfx-\$1-knob3;
#X obj 342 435 s sfx-\$1-knob3-local;
#X obj 537 436 s sfx-\$1-knob4-local;
#X obj 537 362 r sfx-\$1-knob4;
#X obj 161 218 s sfx-\$1-knob1-label;
#X obj 161 168 text get sfx-\$1-knob;
#X obj 334 200 tabread sfx-\$1-table1;
#X obj 433 243 tabread sfx-\$1-table3;
#X obj 394 221 tabread sfx-\$1-table2;
#X obj 334 171 t f f f;
#X obj 161 120 t f f f, f 70;
#X obj 161 82 + 1;
#X obj 108 511 tabwrite sfx-\$1-table1;
#X obj 313 513 tabwrite sfx-\$1-table2;
#X obj 592 498 tabwrite sfx-\$1-table3;
#X obj 161 142 - 1;
#X msg 161 193 Edit: \$1;
#X obj 161 38 * 16;
#X obj 304 -96 loadbang;
#X obj 304 18 until;
#X obj 304 40 f;
#X obj 334 40 + 1;
#X obj 304 -34 t b b;
#X msg 338 -14 0;
#X obj 304 62 + 1;
#X obj 304 -8 17;
#X obj 304 -74 del 5;
#X obj 696 210 - 1;
#X obj 404 144 - 1;
#X connect 0 0 18 0;
#X connect 1 0 6 0;
#X connect 2 0 8 0;
#X connect 3 0 9 0;
#X connect 4 0 24 0;
#X connect 5 0 1 0;
#X connect 5 0 19 0;
#X connect 7 0 2 0;
#X connect 7 0 20 0;
#X connect 10 0 3 0;
#X connect 10 0 21 0;
#X connect 12 0 23 0;
#X connect 13 0 1 0;
#X connect 14 0 3 0;
#X connect 15 0 2 0;
#X connect 16 0 13 0;
#X connect 16 1 15 0;
#X connect 16 2 14 0;
#X connect 17 0 22 0;
#X connect 17 1 35 0;
#X connect 17 2 1 1;
#X connect 17 2 2 1;
#X connect 17 2 3 1;
#X connect 17 2 34 0;
#X connect 18 0 17 0;
#X connect 22 0 12 0;
#X connect 23 0 11 0;
#X connect 24 0 0 0;
#X connect 25 0 33 0;
#X connect 26 0 27 0;
#X connect 27 0 28 0;
#X connect 27 0 31 0;
#X connect 28 0 27 1;
#X connect 29 0 32 0;
#X connect 29 1 30 0;
#X connect 30 0 27 1;
#X connect 31 0 17 0;
#X connect 32 0 26 0;
#X connect 33 0 29 0;
#X connect 34 0 21 1;
#X connect 34 0 20 1;
#X connect 34 0 19 1;
#X connect 35 0 16 0;
#X restore 246 134 pd knobs;
#X text 334 134 the knobs are here;
#X obj 301 450 outlet~;
#X obj 358 450 outlet~;
#N canvas 332 316 1392 728 save-states 0;
#X obj 440 531 loadbang;
#X obj 522 327 loadbang;
#X msg 419 509 write button.txt;
#X msg 440 553 read button.txt;
#X obj 419 576 text define sfx-\$1-button;
#X obj 500 374 text define sfx-\$1-table;
#X msg 522 349 read table.txt;
#X msg 500 304 write table.txt;
#X obj 214 533 loadbang;
#X msg 193 511 write knob.txt;
#X msg 214 555 read knob.txt;
#X obj 193 578 text define sfx-\$1-knob;
#X obj 680 374 text set sfx-\$1-table;
#X msg 680 302 0;
#X obj 850 374 text set sfx-\$1-table;
#X obj 1020 374 text set sfx-\$1-table;
#X msg 850 302 1;
#X msg 1020 302 2;
#X msg 534 94 0;
#X msg 704 94 1;
#X msg 874 94 2;
#X obj 1020 346 array get sfx-\$1-table3;
#X obj 849 350 array get sfx-\$1-table2;
#X obj 680 346 array get sfx-\$1-table1;
#X obj 874 176 array set sfx-\$1-table3;
#X obj 704 176 array set sfx-\$1-table2;
#X obj 534 176 array set sfx-\$1-table1;
#X obj 534 34 loadbang;
#X obj 522 228 r saveState;
#X obj 522 250 t b b, f 23;
#X obj 534 149 text get sfx-\$1-table;
#X obj 704 148 text get sfx-\$1-table;
#X obj 875 148 text get sfx-\$1-table;
#X obj 272 49 table sfx-\$1-table1 17;
#X obj 272 72 table sfx-\$1-table2 17;
#X obj 272 96 table sfx-\$1-table3 17;
#X obj 680 324 t b f;
#X obj 850 324 t b f;
#X obj 1020 324 t b f;
#X connect 0 0 3 0;
#X connect 1 0 6 0;
#X connect 2 0 4 0;
#X connect 3 0 4 0;
#X connect 6 0 5 0;
#X connect 7 0 5 0;
#X connect 8 0 10 0;
#X connect 9 0 11 0;
#X connect 10 0 11 0;
#X connect 13 0 36 0;
#X connect 16 0 37 0;
#X connect 17 0 38 0;
#X connect 18 0 30 0;
#X connect 19 0 31 0;
#X connect 20 0 32 0;
#X connect 21 0 15 0;
#X connect 22 0 14 0;
#X connect 23 0 12 0;
#X connect 27 0 18 0;
#X connect 27 0 19 0;
#X connect 27 0 20 0;
#X connect 28 0 29 0;
#X connect 29 0 7 0;
#X connect 29 1 13 0;
#X connect 29 1 16 0;
#X connect 29 1 17 0;
#X connect 30 0 26 0;
#X connect 31 0 25 0;
#X connect 32 0 24 0;
#X connect 36 0 23 0;
#X connect 36 1 12 1;
#X connect 37 0 22 0;
#X connect 37 1 14 1;
#X connect 38 0 21 0;
#X connect 38 1 15 1;
#X restore 247 158 pd save-states;
#N canvas 686 214 1053 557 notes-in 0;
#X obj 213 56 stripnote;
#X obj 213 14 r sfx-\$1-notes-in;
#X obj 259 235 s sfx-\$1-notes-trig;
#X obj 191 297 text get sfx-\$1-button;
#X obj 105 397 s sfx-\$1-knob5-label;
#X obj 341 19 inlet;
#X obj 213 212 t f f f;
#X msg 105 368 Key[\$1] : \$2;
#X obj 193 267 - 1;
#X obj 105 338 pack 0 s;
#X text 258 134 all midi notes trigger 1-24 \, modulated;
#X obj 213 131 % 24;
#X obj 213 153 + 1;
#X obj 213 107 - 12;
#X connect 0 0 13 0;
#X connect 1 0 0 0;
#X connect 3 0 9 1;
#X connect 5 0 0 0;
#X connect 6 0 9 0;
#X connect 6 1 8 0;
#X connect 6 2 2 0;
#X connect 7 0 4 0;
#X connect 8 0 3 0;
#X connect 9 0 7 0;
#X connect 11 0 12 0;
#X connect 12 0 6 0;
#X connect 13 0 11 0;
#X restore 246 101 pd notes-in;
#X obj 246 74 inlet;
#N canvas 39 50 998 929 sound-abstracts 1;
#X obj 38 141 throw~ sfx-\$1-bus;
#X obj 249 637 throw~ sfx-\$1-bus;
#X obj 33 323 throw~ sfx-\$1-bus;
#X obj 665 320 throw~ sfx-\$1-bus;
#X obj 458 307 throw~ sfx-\$1-bus;
#X obj 444 481 throw~ sfx-\$1-bus;
#X obj 228 299 throw~ sfx-\$1-bus;
#X obj 27 617 throw~ sfx-\$1-bus;
#X obj 222 490 throw~ sfx-\$1-bus;
#X obj 183 114 throw~ sfx-\$1-bus;
#X obj 666 188 r sfx-\$1-notes-trig;
#X obj 458 184 r sfx-\$1-notes-trig;
#X obj 183 -8 r sfx-\$1-notes-trig;
#X obj 38 -1 r sfx-\$1-notes-trig;
#X obj 224 368 r sfx-\$1-notes-trig;
#X obj 33 206 r sfx-\$1-notes-trig;
#N canvas 674 279 644 376 receive-knobs 0;
#X obj 79 152 r sfx-\$1-knob2-local;
#X obj 240 151 r sfx-\$1-knob3-local;
#X obj 395 151 r sfx-\$1-knob4-local;
#X obj 79 174 outlet;
#X obj 240 173 outlet;
#X obj 395 173 outlet;
#X connect 0 0 3 0;
#X connect 1 0 4 0;
#X connect 2 0 5 0;
#X restore 266 394 pd receive-knobs;
#N canvas 674 279 644 376 receive-knobs 0;
#X obj 79 152 r sfx-\$1-knob2-local;
#X obj 240 151 r sfx-\$1-knob3-local;
#X obj 395 151 r sfx-\$1-knob4-local;
#X obj 79 174 outlet;
#X obj 240 173 outlet;
#X obj 395 173 outlet;
#X connect 0 0 3 0;
#X connect 1 0 4 0;
#X connect 2 0 5 0;
#X restore 490 212 pd receive-knobs;
#N canvas 674 279 644 376 receive-knobs 0;
#X obj 79 152 r sfx-\$1-knob2-local;
#X obj 240 151 r sfx-\$1-knob3-local;
#X obj 395 151 r sfx-\$1-knob4-local;
#X obj 79 174 outlet;
#X obj 240 173 outlet;
#X obj 395 173 outlet;
#X connect 0 0 3 0;
#X connect 1 0 4 0;
#X connect 2 0 5 0;
#X restore 199 15 pd receive-knobs;
#N canvas 675 276 644 376 receive-knobs 0;
#X obj 79 152 r sfx-\$1-knob2-local;
#X obj 240 151 r sfx-\$1-knob3-local;
#X obj 395 151 r sfx-\$1-knob4-local;
#X obj 79 174 outlet;
#X obj 240 173 outlet;
#X obj 395 173 outlet;
#X connect 0 0 3 0;
#X connect 1 0 4 0;
#X connect 2 0 5 0;
#X restore 53 35 pd receive-knobs;
#N canvas 673 282 644 376 receive-knobs 0;
#X obj 79 152 r sfx-\$1-knob2-local;
#X obj 240 151 r sfx-\$1-knob3-local;
#X obj 395 151 r sfx-\$1-knob4-local;
#X obj 79 174 outlet;
#X obj 240 173 outlet;
#X obj 395 173 outlet;
#X connect 0 0 3 0;
#X connect 1 0 4 0;
#X connect 2 0 5 0;
#X restore 64 245 pd receive-knobs;
#X obj 228 195 r sfx-\$1-notes-trig;
#N canvas 673 282 644 376 receive-knobs 0;
#X obj 79 152 r sfx-\$1-knob2-local;
#X obj 240 151 r sfx-\$1-knob3-local;
#X obj 395 151 r sfx-\$1-knob4-local;
#X obj 79 174 outlet;
#X obj 240 173 outlet;
#X obj 395 173 outlet;
#X connect 0 0 3 0;
#X connect 1 0 4 0;
#X connect 2 0 5 0;
#X restore 256 231 pd receive-knobs;
#X obj 28 465 throw~ sfx-\$1-bus;
#X obj 27 375 r sfx-\$1-notes-trig;
#N canvas 674 279 644 376 receive-knobs 0;
#X obj 79 152 r sfx-\$1-knob2-local;
#X obj 240 151 r sfx-\$1-knob3-local;
#X obj 395 151 r sfx-\$1-knob4-local;
#X obj 79 174 outlet;
#X obj 240 173 outlet;
#X obj 395 173 outlet;
#X connect 0 0 3 0;
#X connect 1 0 4 0;
#X connect 2 0 5 0;
#X restore 54 406 pd receive-knobs;
#X obj 445 367 r sfx-\$1-notes-trig;
#N canvas 675 276 644 376 receive-knobs 0;
#X obj 79 152 r sfx-\$1-knob2-local;
#X obj 240 151 r sfx-\$1-knob3-local;
#X obj 395 151 r sfx-\$1-knob4-local;
#X obj 79 174 outlet;
#X obj 240 173 outlet;
#X obj 395 173 outlet;
#X connect 0 0 3 0;
#X connect 1 0 4 0;
#X connect 2 0 5 0;
#X restore 686 233 pd receive-knobs;
#X obj 370 113 throw~ sfx-\$1-bus;
#X obj 370 -4 r sfx-\$1-notes-trig;
#N canvas 673 282 644 376 receive-knobs 0;
#X obj 79 152 r sfx-\$1-knob2-local;
#X obj 240 151 r sfx-\$1-knob3-local;
#X obj 395 151 r sfx-\$1-knob4-local;
#X obj 79 174 outlet;
#X obj 240 173 outlet;
#X obj 395 173 outlet;
#X connect 0 0 3 0;
#X connect 1 0 4 0;
#X connect 2 0 5 0;
#X restore 401 35 pd receive-knobs;
#X obj 458 250 waveguide_engine \$1 6 6;
#X obj 666 276 doorcreaker \$1 7 7, f 19;
#X obj 27 443 switch3 \$1 8 8, f 21;
#X obj 224 425 fm-klanker \$1 9 10 11 9;
#X obj 445 427 rocket \$1 12 13 14 10;
#X obj 228 257 pour1 \$1 5 5, f 20;
#X obj 24 515 r sfx-\$1-notes-trig;
#N canvas 674 279 644 376 receive-knobs 0;
#X obj 79 152 r sfx-\$1-knob2-local;
#X obj 240 151 r sfx-\$1-knob3-local;
#X obj 395 151 r sfx-\$1-knob4-local;
#X obj 79 174 outlet;
#X obj 240 173 outlet;
#X obj 395 173 outlet;
#X connect 0 0 3 0;
#X connect 1 0 4 0;
#X connect 2 0 5 0;
#X restore 51 546 pd receive-knobs;
#X obj 27 585 slideswitch \$1 15 11;
#X obj 249 523 r sfx-\$1-notes-trig;
#N canvas 674 279 644 376 receive-knobs 0;
#X obj 79 152 r sfx-\$1-knob2-local;
#X obj 240 151 r sfx-\$1-knob3-local;
#X obj 395 151 r sfx-\$1-knob4-local;
#X obj 79 174 outlet;
#X obj 240 173 outlet;
#X obj 395 173 outlet;
#X connect 0 0 3 0;
#X connect 1 0 4 0;
#X connect 2 0 5 0;
#X restore 270 543 pd receive-knobs;
#X obj 249 568 birdcall \$1 16 12, f 19;
#X obj 223 460 *~ 1;
#X obj 228 278 *~ 3;
#X obj 665 298 *~ 1;
#X obj 38 121 *~ 0.5;
#X obj 183 94 *~ 0.5;
#X obj 458 279 *~ 0.25;
#X obj 33 293 *~ 3;
#X obj 371 93 *~ 3;
#N canvas 674 279 644 376 receive-knobs 0;
#X obj 79 152 r sfx-\$1-knob2-local;
#X obj 240 151 r sfx-\$1-knob3-local;
#X obj 395 151 r sfx-\$1-knob4-local;
#X obj 79 174 outlet;
#X obj 240 173 outlet;
#X obj 395 173 outlet;
#X connect 0 0 3 0;
#X connect 1 0 4 0;
#X connect 2 0 5 0;
#X restore 480 392 pd receive-knobs;
#X obj 456 597 *~ 1;
#X obj 456 619 throw~ sfx-\$1-bus;
#X obj 456 575 LFO-Alarm \$1 17 13;
#X obj 450 528 r sfx-\$1-notes-trig;
#N canvas 674 279 644 376 receive-knobs 0;
#X obj 79 152 r sfx-\$1-knob2-local;
#X obj 240 151 r sfx-\$1-knob3-local;
#X obj 395 151 r sfx-\$1-knob4-local;
#X obj 79 174 outlet;
#X obj 240 173 outlet;
#X obj 395 173 outlet;
#X connect 0 0 3 0;
#X connect 1 0 4 0;
#X connect 2 0 5 0;
#X restore 485 553 pd receive-knobs;
#X obj 622 599 *~ 1;
#X obj 622 621 throw~ sfx-\$1-bus;
#X obj 616 530 r sfx-\$1-notes-trig;
#N canvas 674 279 644 376 receive-knobs 0;
#X obj 79 152 r sfx-\$1-knob2-local;
#X obj 240 151 r sfx-\$1-knob3-local;
#X obj 395 151 r sfx-\$1-knob4-local;
#X obj 79 174 outlet;
#X obj 240 173 outlet;
#X obj 395 173 outlet;
#X connect 0 0 3 0;
#X connect 1 0 4 0;
#X connect 2 0 5 0;
#X restore 644 555 pd receive-knobs;
#X obj 623 577 LFO-Alarm2 \$1 18 14;
#X obj 29 787 *~ 1;
#X obj 29 809 throw~ sfx-\$1-bus;
#X obj 23 718 r sfx-\$1-notes-trig;
#N canvas 674 279 644 376 receive-knobs 0;
#X obj 79 152 r sfx-\$1-knob2-local;
#X obj 240 151 r sfx-\$1-knob3-local;
#X obj 395 151 r sfx-\$1-knob4-local;
#X obj 79 174 outlet;
#X obj 240 173 outlet;
#X obj 395 173 outlet;
#X connect 0 0 3 0;
#X connect 1 0 4 0;
#X connect 2 0 5 0;
#X restore 51 743 pd receive-knobs;
#X obj 30 765 humandsparks \$1 19 15;
#X obj 205 789 *~ 1;
#X obj 199 720 r sfx-\$1-notes-trig;
#N canvas 674 279 644 376 receive-knobs 0;
#X obj 79 152 r sfx-\$1-knob2-local;
#X obj 240 151 r sfx-\$1-knob3-local;
#X obj 395 151 r sfx-\$1-knob4-local;
#X obj 79 174 outlet;
#X obj 240 173 outlet;
#X obj 395 173 outlet;
#X connect 0 0 3 0;
#X connect 1 0 4 0;
#X connect 2 0 5 0;
#X restore 227 740 pd receive-knobs;
#X obj 344 789 *~ 1;
#X obj 205 811 throw~ sfx-\$1-busL;
#X obj 344 811 throw~ sfx-\$1-busR;
#X obj 206 767 thunder4 \$1 20 16, f 20;
#X obj 249 592 *~ 0.2;
#X obj 500 765 DTMF \$1 21 22 23 24 17;
#X obj 502 809 throw~ sfx-\$1-bus;
#X obj 503 677 r sfx-\$1-notes-trig;
#N canvas 676 273 644 376 receive-knobs 0;
#X obj 79 152 r sfx-\$1-knob2-local;
#X obj 240 151 r sfx-\$1-knob3-local;
#X obj 395 151 r sfx-\$1-knob4-local;
#X obj 79 174 outlet;
#X obj 240 173 outlet;
#X obj 395 173 outlet;
#X connect 0 0 3 0;
#X connect 1 0 4 0;
#X connect 2 0 5 0;
#X restore 523 722 pd receive-knobs;
#X obj 502 787 *~ 0.25;
#X obj 445 456 *~ 0.25;
#X obj 370 64 bouncing \$1 3 3, f 19;
#X obj 38 69 boing \$1 1 1, f 15;
#X obj 183 42 boing \$1 2 2, f 19;
#X obj 33 271 bouncing \$1 4 4, f 19;
#X connect 10 0 32 0;
#X connect 11 0 31 0;
#X connect 12 0 83 0;
#X connect 13 0 82 0;
#X connect 14 0 34 0;
#X connect 15 0 84 0;
#X connect 16 0 34 1;
#X connect 16 1 34 2;
#X connect 16 2 34 3;
#X connect 17 0 31 1;
#X connect 17 1 31 2;
#X connect 17 2 31 3;
#X connect 18 0 83 1;
#X connect 18 1 83 2;
#X connect 18 2 83 3;
#X connect 19 0 82 1;
#X connect 19 1 82 2;
#X connect 19 2 82 3;
#X connect 20 0 84 1;
#X connect 20 1 84 2;
#X connect 20 2 84 3;
#X connect 21 0 36 0;
#X connect 22 0 36 1;
#X connect 22 1 36 2;
#X connect 22 2 36 3;
#X connect 24 0 33 0;
#X connect 25 0 33 1;
#X connect 25 1 33 2;
#X connect 25 2 33 3;
#X connect 26 0 35 0;
#X connect 27 0 32 1;
#X connect 27 1 32 2;
#X connect 27 2 32 3;
#X connect 29 0 81 0;
#X connect 30 0 81 1;
#X connect 30 1 81 2;
#X connect 30 2 81 3;
#X connect 31 0 48 0;
#X connect 32 0 45 0;
#X connect 33 0 23 0;
#X connect 34 0 43 0;
#X connect 35 0 80 0;
#X connect 36 0 44 0;
#X connect 37 0 39 0;
#X connect 38 0 39 1;
#X connect 38 1 39 2;
#X connect 38 2 39 3;
#X connect 39 0 7 0;
#X connect 40 0 42 0;
#X connect 41 0 42 1;
#X connect 41 1 42 2;
#X connect 41 2 42 3;
#X connect 42 0 74 0;
#X connect 43 0 8 0;
#X connect 44 0 6 0;
#X connect 45 0 3 0;
#X connect 46 0 0 0;
#X connect 47 0 9 0;
#X connect 48 0 4 0;
#X connect 49 0 2 0;
#X connect 50 0 28 0;
#X connect 51 0 35 1;
#X connect 51 1 35 2;
#X connect 51 2 35 3;
#X connect 52 0 53 0;
#X connect 54 0 52 0;
#X connect 55 0 54 0;
#X connect 56 0 54 1;
#X connect 56 1 54 2;
#X connect 56 2 54 3;
#X connect 57 0 58 0;
#X connect 59 0 61 0;
#X connect 60 0 61 1;
#X connect 60 1 61 2;
#X connect 60 2 61 3;
#X connect 61 0 57 0;
#X connect 62 0 63 0;
#X connect 64 0 66 0;
#X connect 65 0 66 1;
#X connect 65 1 66 2;
#X connect 65 2 66 3;
#X connect 66 0 62 0;
#X connect 67 0 71 0;
#X connect 68 0 73 0;
#X connect 69 0 73 1;
#X connect 69 1 73 2;
#X connect 69 2 73 3;
#X connect 70 0 72 0;
#X connect 73 0 67 0;
#X connect 73 1 70 0;
#X connect 74 0 1 0;
#X connect 75 0 79 0;
#X connect 77 0 75 0;
#X connect 78 0 75 1;
#X connect 78 1 75 2;
#X connect 78 2 75 3;
#X connect 79 0 76 0;
#X connect 80 0 5 0;
#X connect 81 0 50 0;
#X connect 82 0 46 0;
#X connect 83 0 47 0;
#X connect 84 0 49 0;
#X restore 246 194 pd sound-abstracts;
#X obj 451 368 hip~ 1000;
#X obj 528 370 hip~ 1000;
#X obj 248 271 catch~ sfx-\$1-busL;
#X obj 387 271 catch~ sfx-\$1-busR;
#X text 358 162 the tables and textfiles are here for saving and recalling
;
#X text 347 103 midi notes in with a screenLine5 display;
#X text 529 272 stereo mix;
#X text 458 318 mono mix;
#X text 527 406 reverb;
#X text 611 371 hipass filter to reverb;
#X text 398 195 all the different synthesized sound effects abstractions
are in here;
#X obj 373 407 rev3~ 85 80 1000 20;
#X connect 0 0 1 0;
#X connect 0 0 5 0;
#X connect 0 0 4 0;
#X connect 1 0 21 1;
#X connect 1 0 21 0;
#X connect 8 0 7 0;
#X connect 10 0 21 0;
#X connect 11 0 21 1;
#X connect 12 0 4 0;
#X connect 12 0 10 0;
#X connect 13 0 5 0;
#X connect 13 0 11 0;
#X connect 21 0 4 0;
#X connect 21 1 5 0;
#X connect 21 2 4 0;
#X connect 21 3 5 0;
