#N canvas 187 208 819 585 10;
#X obj 74 188 t b b b b;
#X obj 112 250 del 30;
#X obj 355 298 bp~ 700 3;
#X obj 341 272 *~ 0.1;
#X obj 74 372 del 150;
#X obj 93 311 del 140;
#X obj 341 339 *~ 10;
#X obj 134 229 throw~ \$0-body;
#X obj 112 290 throw~ \$0-body;
#X obj 93 351 throw~ \$0-body;
#X obj 74 413 throw~ \$0-body;
#X obj 341 185 catch~ \$0-body;
#X obj 342 365 outlet~;
#X obj 353 320 s~ \$0-bodyfb;
#X obj 359 206 r~ \$0-bodyfb;
#X obj 341 228 delwrite~ \$0-body 50;
#X obj 341 248 delread~ \$0-body 50;
#X obj 74 129 inlet;
#X obj 93 331 switchclick 1 20 4000;
#X obj 74 393 switchclick 1 20 7000;
#X obj 112 270 switchclick 1 50 3000;
#X obj 134 209 switchclick 1 20 4000;
#X obj 228 41 inlet;
#X obj 228 125 + 100;
#X obj 228 103 * 14000;
#X obj 206 170 * 0.6;
#X obj 264 174 * 0.3;
#X obj 277 255 * 0.6;
#X obj 260 328 * 1;
#X obj 336 39 inlet rez;
#X obj 336 124 int;
#X obj 336 146 + 1;
#X obj 336 101 * 11;
#X obj 74 151 sel \$2;
#X obj 228 63 route \$3;
#X obj 336 61 route \$3;
#X obj 477 156 s sfx-\$1-knob2-label;
#X msg 477 133 Tone: \$1 hz;
#X obj 477 108 int;
#X obj 444 38 inlet rez;
#X msg 632 134 Resonance: \$1 %;
#X obj 632 109 int;
#X obj 632 86 * 100;
#X obj 618 293 b;
#X msg 618 315 X;
#X obj 632 157 s sfx-\$1-knob3-label;
#X obj 618 339 s sfx-\$1-knob4-label;
#X obj 444 60 route \$3;
#X connect 0 0 4 0;
#X connect 0 1 5 0;
#X connect 0 2 1 0;
#X connect 0 3 21 0;
#X connect 1 0 20 0;
#X connect 2 0 13 0;
#X connect 3 0 2 0;
#X connect 3 0 6 0;
#X connect 4 0 19 0;
#X connect 6 0 12 0;
#X connect 11 0 15 0;
#X connect 14 0 15 0;
#X connect 16 0 3 0;
#X connect 17 0 33 0;
#X connect 18 0 9 0;
#X connect 19 0 10 0;
#X connect 20 0 8 0;
#X connect 21 0 7 0;
#X connect 22 0 34 0;
#X connect 23 0 25 0;
#X connect 23 0 26 0;
#X connect 23 0 27 0;
#X connect 23 0 28 0;
#X connect 23 0 38 0;
#X connect 24 0 23 0;
#X connect 25 0 21 1;
#X connect 26 0 20 1;
#X connect 27 0 18 1;
#X connect 28 0 19 1;
#X connect 29 0 35 0;
#X connect 30 0 31 0;
#X connect 31 0 21 2;
#X connect 31 0 20 2;
#X connect 31 0 18 2;
#X connect 31 0 19 2;
#X connect 32 0 30 0;
#X connect 33 0 0 0;
#X connect 34 0 24 0;
#X connect 35 0 32 0;
#X connect 35 0 42 0;
#X connect 37 0 36 0;
#X connect 38 0 37 0;
#X connect 39 0 47 0;
#X connect 40 0 45 0;
#X connect 41 0 40 0;
#X connect 42 0 41 0;
#X connect 43 0 44 0;
#X connect 44 0 46 0;
#X connect 47 0 43 0;
