#N canvas 0 0 172 210 10;
#X obj 36 48 osc~;
#X obj 3 190 outlet~;
#X obj 3 103 sig~ 1;
#X obj 3 157 /~;
#X obj 59 126 +~ 1;
#X obj 59 103 *~;
#X obj 59 77 *~;
#X obj 103 2 inlet~ pw;
#X obj 37 2 inlet~ f;
#X connect 0 0 6 0;
#X connect 2 0 3 0;
#X connect 3 0 1 0;
#X connect 4 0 3 1;
#X connect 5 0 4 0;
#X connect 6 0 5 0;
#X connect 6 0 5 1;
#X connect 7 0 6 1;
#X connect 8 0 0 0;
