#N canvas 0 0 439 243 10;
#X obj 42 26 inlet~;
#X obj 194 111 outlet~;
#X obj 42 47 lop~ \$2;
#X obj 194 88 vd~ \$0-aa \$1;
#X obj 194 22 inlet~;
#X obj 194 65 +~ 25;
#X obj 194 43 *~ \$3;
#X obj 42 68 delwrite~ \$0-aa 100;
#X connect 0 0 2 0;
#X connect 2 0 7 0;
#X connect 3 0 1 0;
#X connect 4 0 6 0;
#X connect 5 0 3 0;
#X connect 6 0 5 0;
