#N canvas 545 50 1371 914 10;
#X obj 43 -63 inlet;
#X obj 43 80 sel 0, f 17;
#X text 663 9 plays a sound file;
#X obj 159 155 t f b b, f 23;
#X text 298 463 re-trigger for decay;
#N canvas 1272 277 609 687 decay 0;
#X obj 81 486 outlet~;
#X obj 19 2 inlet;
#X obj 81 453 *~;
#X obj 80 422 vline~;
#X obj 80 357 pack 0 0;
#X obj 120 124 t f f;
#X text 237 171 if knob all the way up \, never decay;
#X text 272 93 do a simple amplitude decay;
#X obj 236 199 expr if($f1 > 0.98 \, 1 \, 0);
#X obj 19 234 t b b;
#X text 35 26 trigger;
#X obj 155 8 inlet;
#X text 171 29 duration;
#X obj 1079 360 s s24-\$1-decay-local;
#X obj 120 92 r s24-\$1-decay-local;
#X obj 136 249 t b a;
#X obj 80 324 f;
#X obj 119 296 *;
#X msg 80 386 1 0 \, \$2 \$1 0;
#X connect 1 0 9 0;
#X connect 2 0 0 0;
#X connect 3 0 2 0;
#X connect 3 0 2 1;
#X connect 4 0 18 0;
#X connect 5 0 17 0;
#X connect 5 1 8 0;
#X connect 8 0 4 1;
#X connect 9 0 16 0;
#X connect 11 0 15 0;
#X connect 14 0 5 0;
#X connect 15 0 17 0;
#X connect 15 1 17 1;
#X connect 16 0 4 0;
#X connect 17 0 16 1;
#X connect 18 0 3 0;
#X restore 251 532 pd decay;
#X obj 251 481 threshold~ 0.0001 0 0.9999 0;
#X obj 552 226 r s24-\$1-speed-local;
#X text 661 31 Argument1: Module Shortcut Name;
#X text 663 51 Argument2: Module Number;
#X obj 43 -9 swap, f 7;
#X obj 43 -41 unpack, f 7;
#X obj 86 567 *~, f 24;
#X text 376 543 decay envelope;
#X obj 86 659 hip~ 5;
#X obj 85 694 throw~ s24-\$1-voice-out;
#X obj 552 278 s \$0-2-springer;
#X obj 85 356 r \$0-2-springer;
#X msg 552 252 speed \$1, f 16;
#X msg 89 24 point \$1;
#X msg 541 167 length 1;
#X obj 459 110 loadbang;
#X obj 89 46 s \$0-2-springer;
#X obj 86 589 *~, f 31;
#X obj 159 297 vline~;
#X msg 159 270 \$1 10;
#X msg 292 254 stop;
#X msg 238 254 1;
#X obj 718 222 r s24-\$1-pitch-local;
#X msg 718 244 pitch \$1;
#X obj 43 212 t b b b, f 13;
#X msg 67 298 0;
#X msg 478 166 read 0;
#X obj 305 509 / 44.1;
#X msg 368 320 0;
#X obj 85 422 cg-springer-1 s24\$1, f 48;
#X msg 43 234 0 35;
#X obj 160 104 / 127;
#X obj 160 126 sqrt;
#X obj 79 267 del 36;
#X msg 104 240 stop;
#X obj 86 622 *~ 0.9;
#X connect 0 0 11 0;
#X connect 1 0 30 0;
#X connect 1 1 37 0;
#X connect 3 0 25 0;
#X connect 3 1 27 0;
#X connect 3 1 40 0;
#X connect 3 2 26 0;
#X connect 3 2 34 0;
#X connect 5 0 12 1;
#X connect 6 0 5 0;
#X connect 7 0 18 0;
#X connect 10 0 1 0;
#X connect 10 1 19 0;
#X connect 11 0 10 0;
#X connect 11 1 10 1;
#X connect 12 0 23 0;
#X connect 14 0 15 0;
#X connect 17 0 35 0;
#X connect 18 0 16 0;
#X connect 19 0 22 0;
#X connect 20 0 16 0;
#X connect 21 0 32 0;
#X connect 21 0 20 0;
#X connect 23 0 41 0;
#X connect 24 0 23 1;
#X connect 25 0 24 0;
#X connect 26 0 24 0;
#X connect 27 0 35 1;
#X connect 28 0 29 0;
#X connect 29 0 16 0;
#X connect 30 0 36 0;
#X connect 30 1 39 0;
#X connect 30 2 26 0;
#X connect 30 2 40 0;
#X connect 31 0 35 1;
#X connect 32 0 16 0;
#X connect 33 0 5 1;
#X connect 34 0 35 2;
#X connect 35 0 12 0;
#X connect 35 1 6 0;
#X connect 35 2 33 0;
#X connect 36 0 24 0;
#X connect 37 0 38 0;
#X connect 38 0 3 0;
#X connect 39 0 31 0;
#X connect 40 0 39 0;
#X connect 41 0 14 0;
