#N canvas 11 50 1319 857 10;
#N canvas 669 136 1184 787 knobs 0;
#X restore 28 134 pd knobs;
#N canvas 15 50 526 600 switcher 0;
#X obj 113 261 t b b;
#X obj 113 295 delay 5;
#X obj 263 387 line~;
#X msg 176 296 0 4;
#X obj 133 476 *~;
#X msg 113 327 0;
#X obj 113 220 bang;
#X msg 406 229 1;
#X msg 359 193 1 4;
#X obj 352 143 t b b b;
#X obj 139 506 outlet~;
#X obj 371 507 outlet;
#X obj 112 48 inlet;
#X obj 353 50 inlet;
#X connect 0 0 1 0;
#X connect 0 1 3 0;
#X connect 1 0 5 0;
#X connect 2 0 4 0;
#X connect 2 0 4 1;
#X connect 3 0 2 0;
#X connect 4 0 10 0;
#X connect 5 0 11 0;
#X connect 6 0 0 0;
#X connect 7 0 11 0;
#X connect 8 0 2 0;
#X connect 9 1 8 0;
#X connect 9 2 7 0;
#X connect 12 0 6 0;
#X connect 13 0 9 0;
#X restore 471 585 pd switcher;
#X obj 471 556 sel 0 1;
#X obj 471 533 tgl 15 0 empty empty empty 17 7 0 10 -262144 -1 -1 0
1;
#X obj 452 611 *~;
#X obj 545 609 switch~;
#X obj 492 214 tgl 15 0 empty empty empty 17 7 0 10 -262144 -1 -1 0
1;
#X obj 453 405 spigot;
#X obj 524 308 bag;
#X obj 524 265 sel 0;
#X msg 524 285 flush;
#X obj 492 241 t f f;
#X obj 524 330 list append 0;
#X obj 524 352 route list;
#X obj 508 183 r ms-\$1-noteskill-switch;
#X obj 453 125 r ms-\$1-notes-in;
#X obj 521 504 r ms-\$1-kill-switch;
#X obj 492 150 r trans-\$1-notesswitch;
#X text 240 57 Global Transpose dummy;
#X obj 471 482 r trans-\$1-switch;
#X obj 256 199 r trans-\$1-transpose;
#X obj 289 382 s trans-\$1-local;
#X obj 256 291 spigot 0;
#X obj 304 334 f;
#X obj 358 290 sel 1;
#X connect 1 0 4 1;
#X connect 1 1 5 0;
#X connect 2 0 1 0;
#X connect 2 1 1 1;
#X connect 3 0 2 0;
#X connect 6 0 11 0;
#X connect 6 0 22 1;
#X connect 6 0 24 0;
#X connect 8 0 12 0;
#X connect 9 0 10 0;
#X connect 10 0 8 0;
#X connect 11 0 7 1;
#X connect 11 1 9 0;
#X connect 12 0 13 0;
#X connect 13 0 7 0;
#X connect 14 0 6 0;
#X connect 15 0 7 0;
#X connect 15 0 8 0;
#X connect 16 0 3 0;
#X connect 17 0 6 0;
#X connect 19 0 3 0;
#X connect 20 0 22 0;
#X connect 22 0 23 0;
#X connect 23 0 21 0;
#X connect 24 0 23 0;
