#N canvas 102 50 1416 867 10;
#X obj 705 561 s oscOut;
#X obj 942 354 until;
#X obj 942 382 f;
#X obj 975 382 + 1;
#X msg 990 350 0;
#X obj 942 299 t b b;
#X msg 942 323 14;
#X obj 942 406 * 9;
#X obj 728 305 until;
#X obj 728 333 f;
#X obj 761 333 + 1;
#X msg 776 301 0;
#X obj 728 387 * 9;
#X msg 728 274 14;
#X obj 728 355 sel 2 6 9 13 14;
#X obj 705 222 t b b b, f 41;
#X obj 989 319 s oscOut;
#X obj 15 143 unpack, f 14;
#X obj 14 69 text define keys-diagram;
#X msg 14 41 read keys-diagram.txt;
#X obj 20 344 text get keys-diagram;
#X obj 20 366 unpack;
#X obj 20 597 s oscOut;
#X obj 14 16 loadbang;
#X msg 20 559 /oled/gFlip 3;
#X obj 705 250 t b b b;
#X obj 705 191 b;
#X msg 705 532 /oled/gFlip 3;
#X obj 995 421 + 10;
#X obj 728 446 pack 0 0;
#X obj 781 393 loadbang;
#X msg 189 40 write keys-diagram.txt;
#X obj 942 450 pack 0 0;
#X obj 15 115 inlet;
#X obj 705 164 inlet bang to redraw;
#X msg 989 290 /oled/gFillArea 3 0 \$1 128 20 0;
#X obj 59 390 + \$1;
#X obj 989 247 \$1;
#X obj 781 415 \$1;
#X msg 728 507 /oled/gCircle 3 \$1 \$2 3 1;
#X msg 942 507 /oled/gCircle 3 \$1 \$2 3 1;
#X obj 20 388 + 1;
#X obj 943 428 + 4;
#X obj 728 413 + 9;
#X obj 989 269 - 2;
#X obj 20 444 pack 0 0, f 14;
#X obj 20 294 t f f, f 51;
#X obj 20 322 f;
#X obj 15 173 swap, f 14;
#X obj 404 301 moses 0;
#X obj 355 452 unpack;
#X obj 441 827 s oscOut;
#X msg 441 789 /oled/gFlip 3;
#X obj 394 476 + \$1;
#X obj 355 474 + 1;
#X obj 355 394 text get keys-diagram;
#X obj 355 369 f;
#X obj 355 496 t b a;
#X obj 355 541 pack 0 0 0 0, f 14;
#X obj 355 565 list split 1;
#X obj 218 838 s oscOut;
#X msg 218 800 /oled/gFlip 3;
#X msg 464 756 /oled/gFilledCircle 3 \$2 \$3 \$1 1;
#X msg 238 768 /oled/gSetPixel 3 \$1 \$2 1;
#X msg 503 372 1;
#X msg 547 375 2;
#X msg 450 346 0;
#X obj 120 228 sel 0, f 21;
#X obj 264 248 t b f;
#X obj 450 324 moses 42;
#X obj 503 350 moses 84;
#X obj 395 619 route 0;
#X obj 450 460 f;
#X obj 779 819 s oscOut;
#X obj 779 690 t a a b;
#X obj 20 466 t b a a, f 9;
#X msg 50 530 /oled/gFilledCircle 3 \$1 \$2 2 0;
#X obj 355 416 t a a;
#X obj 514 469 unpack;
#X obj 553 493 + \$1;
#X obj 514 491 + 1;
#X obj 514 523 pack 0 0;
#X msg 80 499 /oled/gCircle 3 \$1 \$2 4 0;
#X msg 779 797 /oled/gCircle 3 \$1 \$2 4 1;
#X obj 441 646 t b a a;
#X obj 218 656 t b a a;
#X msg 204 734 /oled/gFilledCircle 3 \$1 \$2 2 0;
#X msg 487 726 /oled/gFilledCircle 3 \$2 \$3 2 0;
#X connect 1 0 2 0;
#X connect 2 0 3 0;
#X connect 2 0 7 0;
#X connect 3 0 2 1;
#X connect 4 0 2 1;
#X connect 5 0 6 0;
#X connect 5 1 4 0;
#X connect 6 0 1 0;
#X connect 7 0 42 0;
#X connect 8 0 9 0;
#X connect 9 0 10 0;
#X connect 9 0 14 0;
#X connect 10 0 9 1;
#X connect 11 0 9 1;
#X connect 12 0 43 0;
#X connect 13 0 8 0;
#X connect 14 5 12 0;
#X connect 15 0 25 0;
#X connect 15 1 5 0;
#X connect 15 2 37 0;
#X connect 17 0 48 0;
#X connect 17 1 48 1;
#X connect 19 0 18 0;
#X connect 20 0 21 0;
#X connect 21 0 41 0;
#X connect 21 1 36 0;
#X connect 23 0 19 0;
#X connect 24 0 22 0;
#X connect 25 0 27 0;
#X connect 25 1 13 0;
#X connect 25 2 11 0;
#X connect 26 0 15 0;
#X connect 27 0 0 0;
#X connect 28 0 32 1;
#X connect 29 0 39 0;
#X connect 30 0 38 0;
#X connect 32 0 40 0;
#X connect 33 0 17 0;
#X connect 34 0 26 0;
#X connect 35 0 16 0;
#X connect 36 0 45 1;
#X connect 37 0 44 0;
#X connect 38 0 29 1;
#X connect 38 0 28 0;
#X connect 39 0 0 0;
#X connect 40 0 0 0;
#X connect 41 0 45 0;
#X connect 42 0 32 0;
#X connect 43 0 29 0;
#X connect 44 0 35 0;
#X connect 45 0 75 0;
#X connect 46 0 47 1;
#X connect 46 1 56 1;
#X connect 47 0 20 0;
#X connect 48 0 67 0;
#X connect 48 1 46 0;
#X connect 49 1 69 0;
#X connect 50 0 54 0;
#X connect 50 1 53 0;
#X connect 52 0 51 0;
#X connect 53 0 58 3;
#X connect 54 0 57 0;
#X connect 55 0 77 0;
#X connect 56 0 55 0;
#X connect 57 0 58 0;
#X connect 57 1 58 2;
#X connect 58 0 59 0;
#X connect 59 1 71 0;
#X connect 61 0 60 0;
#X connect 62 0 51 0;
#X connect 63 0 60 0;
#X connect 64 0 72 0;
#X connect 65 0 72 0;
#X connect 66 0 72 0;
#X connect 67 0 47 0;
#X connect 67 1 68 0;
#X connect 68 0 56 0;
#X connect 68 1 49 0;
#X connect 69 0 66 0;
#X connect 69 1 70 0;
#X connect 70 0 64 0;
#X connect 70 1 65 0;
#X connect 71 0 85 0;
#X connect 71 1 84 0;
#X connect 72 0 58 1;
#X connect 74 0 83 0;
#X connect 75 0 24 0;
#X connect 75 1 76 0;
#X connect 75 2 82 0;
#X connect 76 0 22 0;
#X connect 77 0 50 0;
#X connect 77 1 78 0;
#X connect 78 0 80 0;
#X connect 78 1 79 0;
#X connect 79 0 81 1;
#X connect 80 0 81 0;
#X connect 81 0 74 0;
#X connect 82 0 22 0;
#X connect 83 0 73 0;
#X connect 84 0 52 0;
#X connect 84 1 62 0;
#X connect 84 2 87 0;
#X connect 85 0 61 0;
#X connect 85 1 63 0;
#X connect 85 2 86 0;
#X connect 86 0 60 0;
#X connect 87 0 51 0;
