#N canvas 6 50 1905 999 10;
#X obj 976 12 inlet;
#X obj 1123 71 stripnote;
#X obj 1123 129 / 261.626;
#X obj 1123 98 mtof;
#X obj 1391 40 r knob1;
#X obj 1196 542 tabread4~ newsample;
#X obj 1123 268 phasor~;
#X obj 1391 649 tabread4~ hanning;
#X obj 1392 626 *~ 256;
#X obj 1328 694 *~;
#X obj 1490 502 r dur;
#X floatatom 1490 523 15 0 0 0 - - -, f 15;
#X obj 1195 518 +~;
#X obj 1123 195 / 2;
#X floatatom 1490 565 15 0 0 0 - - -, f 15;
#X obj 1466 419 noise~;
#X obj 1466 441 *~ 0.5;
#X obj 1465 470 +~ 0.5;
#X obj 1465 603 *~ 1;
#X obj 1464 626 samphold~;
#X floatatom 1199 154 15 0 0 0 - - -, f 15;
#X obj 1199 130 expr 44100 / $f1;
#X obj 1123 220 f;
#X obj 1123 242 *;
#X obj 1199 178 t b f;
#X obj 1391 62 * 22050;
#X obj 207 97 stripnote;
#X obj 207 203 / 261.626;
#X obj 207 124 mtof;
#X obj 430 194 r knob1;
#X obj 210 580 tabread4~ newsample;
#X obj 207 411 phasor~;
#X obj 395 606 tabread4~ hanning;
#X obj 396 572 *~ 256;
#X obj 378 636 *~;
#X obj 485 442 r dur;
#X floatatom 485 463 15 0 0 0 - - -, f 15;
#X obj 209 556 +~;
#X obj 207 226 / 2;
#X floatatom 485 508 15 0 0 0 - - -, f 15;
#X obj 459 371 noise~;
#X obj 459 393 *~ 0.5;
#X obj 459 416 +~ 0.5;
#X obj 460 532 *~ 1;
#X obj 459 572 samphold~;
#X floatatom 264 310 15 0 0 0 - - -, f 15;
#X obj 264 287 expr 44100 / $f1;
#X obj 207 364 f;
#X obj 207 386 *;
#X obj 264 330 t b f;
#X obj 430 218 * 22050;
#X floatatom 165 267 5 0 0 0 - - -, f 5;
#X floatatom 1053 257 5 0 0 0 - - -, f 5;
#X obj 345 44 r knob2;
#X floatatom 345 94 5 0 0 0 - - -, f 5;
#X obj 207 178 -;
#X floatatom 1053 151 5 0 0 0 - - -, f 5;
#X obj 345 69 * 10;
#X obj 710 742 vline~;
#X obj 704 774 *~;
#X msg 710 718 1 \$1 \, 0 \$1 \$1;
#X obj 710 690 f;
#X obj 728 660 + 100;
#X obj 728 612 *;
#X obj 728 636 * 60000;
#X obj 737 568 r knob3;
#X obj 766 894 *~;
#X obj 710 234 bang;
#X obj 1390 404 samphold~;
#X obj 1391 110 sig~;
#X obj 1194 494 *~;
#X obj 208 531 *~;
#X obj 430 268 sig~;
#X obj 227 503 samphold~;
#X obj 995 585 noise~;
#X obj 995 613 *~ 0.5;
#X obj 994 642 +~ 0.5;
#X obj 995 669 samphold~;
#X obj 993 742 *~, f 6;
#X obj 207 154 f;
#X obj 345 113 t b f;
#X text 216 34 detuned grain;
#X text 1123 25 in tune grain;
#X text 720 546 rise & fall time;
#X text 983 559 density control;
#X obj 767 921 throw~ grainoutR;
#X obj 635 921 throw~ grainoutL;
#X obj 113 672 noise~;
#X obj 113 700 *~ 0.5;
#X obj 112 729 +~ 0.5;
#X obj 113 756 samphold~;
#X obj 283 685 r knob4;
#X text 167 684 density control;
#X obj 114 816 *~, f 6;
#X obj 634 891 *~;
#X obj 283 732 sig~;
#X obj 284 757 samphold~;
#X obj 113 785 expr~ if($v1 < $v2 \, 1 \, 0);
#X obj 1164 586 r knob4;
#X obj 1164 640 sig~;
#X obj 1165 666 samphold~;
#X obj 994 698 expr~ if($v1 < $v2 \, 1 \, 0);
#X text 1685 908 phasor king;
#X obj 283 708 + 0.01;
#X obj 1164 613 + 0.01;
#X obj 1391 84 + 256;
#X obj 430 245 + 256;
#X obj 485 484 - 22306;
#X obj 1490 542 - 22306;
#X text 1432 86 max grain size (22306 samples);
#X text 474 243 max grain size (22306 samples);
#X text 1549 541 max grain size (22306 samples);
#X text 547 484 max grain size (22306 samples);
#X connect 0 0 1 0;
#X connect 0 0 26 0;
#X connect 1 0 3 0;
#X connect 2 0 13 0;
#X connect 3 0 2 0;
#X connect 3 0 56 0;
#X connect 4 0 25 0;
#X connect 5 0 9 0;
#X connect 6 0 8 0;
#X connect 6 0 19 1;
#X connect 6 0 68 1;
#X connect 6 0 70 0;
#X connect 6 0 77 1;
#X connect 6 0 100 1;
#X connect 7 0 9 1;
#X connect 8 0 7 0;
#X connect 9 0 78 1;
#X connect 10 0 11 0;
#X connect 11 0 108 0;
#X connect 12 0 5 0;
#X connect 13 0 22 0;
#X connect 13 0 52 0;
#X connect 14 0 18 1;
#X connect 15 0 16 0;
#X connect 16 0 17 0;
#X connect 17 0 18 0;
#X connect 18 0 19 0;
#X connect 19 0 12 1;
#X connect 20 0 24 0;
#X connect 21 0 20 0;
#X connect 22 0 23 0;
#X connect 23 0 6 0;
#X connect 24 0 22 0;
#X connect 24 1 23 1;
#X connect 25 0 105 0;
#X connect 26 0 28 0;
#X connect 26 0 67 0;
#X connect 27 0 38 0;
#X connect 28 0 79 0;
#X connect 29 0 50 0;
#X connect 30 0 34 0;
#X connect 31 0 33 0;
#X connect 31 0 44 1;
#X connect 31 0 71 0;
#X connect 31 0 73 1;
#X connect 31 0 90 1;
#X connect 31 0 96 1;
#X connect 32 0 34 1;
#X connect 33 0 32 0;
#X connect 34 0 93 1;
#X connect 35 0 36 0;
#X connect 36 0 107 0;
#X connect 37 0 30 0;
#X connect 38 0 47 0;
#X connect 38 0 51 0;
#X connect 39 0 43 1;
#X connect 40 0 41 0;
#X connect 41 0 42 0;
#X connect 42 0 43 0;
#X connect 43 0 44 0;
#X connect 44 0 37 1;
#X connect 45 0 49 0;
#X connect 46 0 45 0;
#X connect 47 0 48 0;
#X connect 48 0 31 0;
#X connect 49 0 47 0;
#X connect 49 1 48 1;
#X connect 50 0 106 0;
#X connect 53 0 57 0;
#X connect 54 0 80 0;
#X connect 55 0 27 0;
#X connect 57 0 54 0;
#X connect 58 0 59 1;
#X connect 58 0 59 0;
#X connect 59 0 66 1;
#X connect 59 0 94 0;
#X connect 60 0 58 0;
#X connect 61 0 60 0;
#X connect 62 0 61 1;
#X connect 63 0 64 0;
#X connect 64 0 62 0;
#X connect 65 0 63 1;
#X connect 65 0 63 0;
#X connect 66 0 85 0;
#X connect 67 0 61 0;
#X connect 68 0 70 1;
#X connect 69 0 68 0;
#X connect 70 0 12 0;
#X connect 71 0 37 0;
#X connect 72 0 73 0;
#X connect 73 0 71 1;
#X connect 74 0 75 0;
#X connect 75 0 76 0;
#X connect 76 0 77 0;
#X connect 77 0 101 0;
#X connect 78 0 66 0;
#X connect 79 0 55 0;
#X connect 80 0 79 0;
#X connect 80 1 55 1;
#X connect 87 0 88 0;
#X connect 88 0 89 0;
#X connect 89 0 90 0;
#X connect 90 0 97 0;
#X connect 91 0 103 0;
#X connect 93 0 94 1;
#X connect 94 0 86 0;
#X connect 95 0 96 0;
#X connect 96 0 97 1;
#X connect 97 0 93 0;
#X connect 98 0 104 0;
#X connect 99 0 100 0;
#X connect 100 0 101 1;
#X connect 101 0 78 0;
#X connect 103 0 95 0;
#X connect 104 0 99 0;
#X connect 105 0 21 0;
#X connect 105 0 69 0;
#X connect 106 0 72 0;
#X connect 106 0 46 0;
#X connect 107 0 39 0;
#X connect 108 0 14 0;
