#N canvas 116 93 1611 851 10;
#X declare -path ./rj;
#X declare -path ./rj;
#X declare -path ./rj;
#X declare -path ./rj;
#X declare -path ./rj;
#X declare -path ./rj;
#X declare -path ./rj;
#X declare -path ./rj;
#X obj 198 457 unpack 0 0;
#X obj 198 517 pack 0 0 0;
#X obj 245 801 throw~ outL;
#X obj 355 799 throw~ outR;
#X text 351 735 final gain adjustment;
#X obj 198 482 poly 6 1, f 10;
#X obj 1183 567 bng 15 250 50 0 empty empty empty 17 7 0 10 -262144
-1 -1;
#X msg 1217 606 \; led 7;
#X msg 1141 635 \; led 0;
#X obj 1141 612 delay 100;
#X msg 996 625 \; led 0;
#X obj 996 602 delay 100;
#X obj 1098 510 sel 0 1 2 3;
#X obj 1061 567 bng 15 250 50 0 empty empty empty 17 7 0 10 -262144
-1 -1;
#X text 1194 479 flash led on quarter and half notes;
#X obj 433 73 r aux;
#X obj 433 99 sel 1;
#X text 485 76 aux kills the jam;
#X obj 1098 474 counter-up 4;
#X obj 40 80 s midiOutGate;
#X obj 40 28 loadbang;
#X msg 40 50 0;
#X obj 83 454 unpack;
#X obj 83 489 noteout 1;
#X obj 453 181 s done-playing;
#X obj 671 174 tgl 15 0 empty empty empty 17 7 0 10 -262144 -1 -1 1
1;
#X floatatom 777 225 5 0 0 0 - - -, f 5;
#X obj 671 97 loadbang;
#X msg 671 129 1;
#X obj 778 104 r knob1;
#X obj 778 136 * 250;
#X obj 778 171 + 10;
#X obj 778 196 i;
#X obj 131 168 pack;
#X obj 131 136 notein 1;
#N canvas 6 50 732 690 main-metro 1;
#X obj 227 79 tgl 15 0 empty empty empty 17 7 0 10 -262144 -1 -1 1
1;
#X floatatom 356 90 5 0 0 0 - - -, f 5;
#X text 412 62 dial in bpm;
#N canvas 945 226 174 209 dialinbpm 0;
#X obj 29 41 inlet;
#X obj 29 72 expr 1000/($f1/60);
#X floatatom 29 121 5 0 0 0 - - -, f 5;
#X obj 29 96 / 24;
#X obj 30 150 outlet;
#X obj 92 151 outlet;
#X connect 0 0 1 0;
#X connect 1 0 3 0;
#X connect 1 0 5 0;
#X connect 2 0 4 0;
#X connect 3 0 2 0;
#X restore 365 122 pd dialinbpm;
#N canvas 142 50 870 723 mainmetro 0;
#X obj 276 45 inlet;
#X obj 329 45 inlet;
#X obj 271 183 metro 50;
#X obj 381 441 + 1, f 5;
#X obj 280 462 f;
#X floatatom 280 581 5 0 0 0 - - -, f 5;
#X obj 280 607 outlet;
#X msg 565 496 0;
#X obj 350 484 >= 23;
#X obj 350 516 sel 1;
#X obj 408 145 midirealtimein;
#X obj 280 387 spigot 1;
#X obj 408 388 spigot 0;
#X obj 423 300 tgl 15 0 empty empty empty 17 7 0 10 -262144 -1 -1 0
1;
#X obj 333 323 ==;
#X obj 333 349 tgl 15 0 empty empty empty 17 7 0 10 -262144 -1 -1 1
1;
#X obj 461 350 tgl 15 0 empty empty empty 17 7 0 10 -262144 -1 -1 0
1;
#X obj 408 167 sel 248 250 251;
#X obj 580 243 delay 1000;
#X msg 423 241 1;
#X obj 408 190 t b b b b, f 25;
#X msg 580 218 stop;
#X msg 580 267 0;
#X text 67 12 autoswitch between internal and MIDI clock;
#X text 525 144 MIDI 248 = clock \; 250 = start \; 251 = continue.
;
#X obj 578 348 s midi-clock-present;
#X obj 325 207 loadbang;
#X msg 325 229 0;
#X text 7 115 reset back to 0 when metro stops;
#X obj 290 139 s reset-metronome;
#X obj 619 435 r reset-metronome;
#X obj 262 86 t f b;
#X connect 0 0 31 0;
#X connect 1 0 2 1;
#X connect 2 0 11 0;
#X connect 3 0 4 1;
#X connect 4 0 3 0;
#X connect 4 0 5 0;
#X connect 4 0 8 0;
#X connect 5 0 6 0;
#X connect 7 0 4 1;
#X connect 8 0 9 0;
#X connect 9 0 7 0;
#X connect 10 0 17 0;
#X connect 11 0 4 0;
#X connect 12 0 4 0;
#X connect 13 0 14 0;
#X connect 13 0 16 0;
#X connect 13 0 25 0;
#X connect 14 0 15 0;
#X connect 15 0 11 1;
#X connect 16 0 12 1;
#X connect 17 0 20 0;
#X connect 17 1 7 0;
#X connect 17 2 7 0;
#X connect 18 0 22 0;
#X connect 19 0 13 0;
#X connect 20 0 12 0;
#X connect 20 1 18 0;
#X connect 20 2 19 0;
#X connect 20 3 21 0;
#X connect 21 0 18 0;
#X connect 22 0 13 0;
#X connect 26 0 27 0;
#X connect 27 0 13 0;
#X connect 30 0 7 0;
#X connect 31 0 2 0;
#X connect 31 1 29 0;
#X restore 227 160 pd mainmetro;
#X obj 227 43 inlet;
#X obj 372 27 inlet;
#X obj 369 58 i;
#X floatatom 228 195 5 0 0 0 - - -, f 5;
#X obj 408 413 s mspq;
#X obj 287 563 i;
#X obj 287 585 change -1;
#X obj 123 561 i;
#X obj 123 583 change -1;
#X obj 285 464 spigot 1;
#X obj 121 460 spigot 0;
#X obj 218 379 r midi-clock-present;
#X obj 218 403 ==;
#X obj 123 644 s screenLine1;
#X obj 287 645 s screenLine1;
#X msg 287 613 1: Tempo \$1 BPM;
#X msg 122 611 1: Tempo \$1 BPM MIDI;
#N canvas 37 600 695 344 gettime 0;
#X obj 238 7 inlet;
#X obj 131 181 timer;
#X obj 131 273 outlet;
#X obj 131 208 expr 60000 / $f1;
#X obj 131 144 t b b;
#X obj 131 110 sel 0;
#X text 157 77 time 16th notes;
#X text 127 299 bpm;
#X obj 404 186 timer;
#X obj 404 149 t b b;
#X obj 404 115 sel 0;
#X text 430 82 time 16th notes;
#X obj 395 79 % 6;
#X obj 404 217 * 4;
#X obj 404 249 outlet;
#X text 399 274 mspb;
#X obj 122 74 % 12;
#X obj 131 240 / 2;
#X connect 0 0 12 0;
#X connect 0 0 16 0;
#X connect 1 0 3 0;
#X connect 3 0 17 0;
#X connect 4 0 1 0;
#X connect 4 1 1 1;
#X connect 5 0 4 0;
#X connect 8 0 13 0;
#X connect 9 0 8 0;
#X connect 9 1 8 1;
#X connect 10 0 9 0;
#X connect 12 0 10 0;
#X connect 13 0 14 0;
#X connect 16 0 5 0;
#X connect 17 0 2 0;
#X restore 235 323 pd gettime;
#X obj 324 286 s midi-sync;
#X obj 554 530 r midi-sync;
#X msg 554 552 248;
#X obj 554 574 midiout;
#X connect 0 0 4 0;
#X connect 1 0 3 0;
#X connect 1 0 14 0;
#X connect 3 0 4 1;
#X connect 4 0 8 0;
#X connect 5 0 0 0;
#X connect 6 0 7 0;
#X connect 7 0 1 0;
#X connect 8 0 22 0;
#X connect 8 0 23 0;
#X connect 10 0 11 0;
#X connect 11 0 20 0;
#X connect 12 0 13 0;
#X connect 13 0 21 0;
#X connect 14 0 10 0;
#X connect 15 0 12 0;
#X connect 16 0 15 1;
#X connect 16 0 17 0;
#X connect 17 0 14 1;
#X connect 20 0 19 0;
#X connect 21 0 18 0;
#X connect 22 0 15 0;
#X connect 22 1 9 0;
#X connect 24 0 25 0;
#X connect 25 0 26 0;
#X restore 683 254 pd main-metro;
#X obj 171 201 stripnote;
#X obj 1138 439 r reset-reclocker;
#N canvas 16 50 1044 777 midi-file-player 0;
#X obj 308 258 tgl 15 0 empty empty empty 17 7 0 10 -262144 -1 -1 0
1;
#X msg 337 420 read \$1.mid;
#X msg 271 174 1;
#X obj 391 134 r done-playing;
#X obj 229 616 bag;
#X msg 179 582 flush;
#X obj 229 640 pack 0 0;
#X obj 164 544 r done-playing;
#X msg 358 167 0;
#X obj 251 335 spigot;
#X obj 287 132 t b b f b b;
#N canvas 16 50 884 852 re-clocker 0;
#X obj 312 696 delay 1;
#X obj 409 638 / 10;
#X obj 409 584 r mspq;
#X obj 461 559 r ppq;
#X obj 369 461 i 0;
#X obj 369 508 + 1;
#X msg 494 665 stop;
#X msg 393 419 0;
#X obj 388 327 bng 15 250 50 0 empty empty empty 17 7 0 10 -262144
-1 -1;
#X obj 383 565 r ppq;
#X floatatom 418 668 5 0 0 0 - - -, f 5;
#X obj 369 538 t f f;
#X obj 356 595 < 10;
#X obj 341 621 sel 1;
#X obj 461 587 t b f;
#X obj 409 612 f 1000;
#X obj 537 556 i;
#X obj 537 596 - 0;
#X obj 566 556 r ppq;
#X obj 534 624 + 1;
#X obj 534 646 abs;
#X obj 531 721 until;
#X obj 533 673 moses 1000;
#X floatatom 533 699 5 0 0 0 - - -, f 5;
#X obj 388 357 t b b b b;
#X obj 491 791 outlet;
#X obj 369 486 t f f b;
#X obj 434 296 sel 0;
#X obj 510 85 bng 15 250 50 0 empty empty empty 17 7 0 10 -262144 -1
-1;
#X obj 575 344 r ppq;
#X obj 533 406 f;
#X obj 533 435 -1;
#X obj 464 216 f;
#X obj 499 129 t b b b;
#X obj 481 247 + 1;
#X obj 473 272 % 24;
#X obj 371 164 r midi-sync;
#X text 660 51 reset on next midi sync;
#X text 61 69 receives midi-sync \, ppq \, and mspq.;
#X text 59 96 then ouptuts ppq number pulses each quater note \, correcting
itself when tempo changes.;
#X obj 650 801 outlet;
#X obj 511 48 r reset-reclocker;
#X text 626 728 quater note of re-clocked clock;
#X connect 0 0 4 0;
#X connect 1 0 0 1;
#X connect 1 0 10 0;
#X connect 2 0 15 0;
#X connect 3 0 14 0;
#X connect 4 0 26 0;
#X connect 5 0 11 0;
#X connect 6 0 0 0;
#X connect 7 0 4 1;
#X connect 8 0 24 0;
#X connect 8 0 40 0;
#X connect 9 0 12 1;
#X connect 11 0 12 0;
#X connect 11 1 4 1;
#X connect 12 0 13 0;
#X connect 13 0 0 0;
#X connect 14 0 15 0;
#X connect 14 1 1 1;
#X connect 15 0 1 0;
#X connect 16 0 17 0;
#X connect 17 0 19 0;
#X connect 18 0 17 1;
#X connect 19 0 20 0;
#X connect 20 0 22 0;
#X connect 21 0 25 0;
#X connect 22 0 23 0;
#X connect 23 0 21 0;
#X connect 24 0 4 0;
#X connect 24 1 7 0;
#X connect 24 2 16 0;
#X connect 24 3 6 0;
#X connect 26 0 5 0;
#X connect 26 1 16 1;
#X connect 26 2 25 0;
#X connect 27 0 8 0;
#X connect 28 0 33 0;
#X connect 29 0 30 1;
#X connect 30 0 31 0;
#X connect 31 0 16 1;
#X connect 32 0 34 0;
#X connect 33 0 32 0;
#X connect 33 1 30 0;
#X connect 33 2 6 0;
#X connect 34 0 35 0;
#X connect 35 0 27 1;
#X connect 36 0 27 0;
#X connect 36 0 32 1;
#X connect 41 0 28 0;
#X restore 251 303 pd re-clocker;
#X obj 287 97 inlet;
#X obj 273 689 outlet;
#X obj 385 224 s reset-reclocker;
#N canvas 104 50 1323 751 midi-filer 0;
#X floatatom 423 303 15 0 0 0 current_tick - -, f 15;
#X text 759 429 note off events;
#X obj 351 263 midifile wowo.mid;
#X obj 350 401 route 144 145 146 147 148 149 150 151 152 153 154 155
156 157 158 159;
#X obj 746 453 route 128 129 130 131 132 133 134 135 136 137 138 139
140 141 142 143;
#X text 483 262 bangs at end of file:;
#X text 192 409 select note on events:;
#X obj 574 314 route bang format tracks ticks_per_quarternote;
#X floatatom 653 346 3 0 0 1 format - -, f 3;
#X floatatom 733 346 5 0 0 1 tracks - -, f 5;
#X floatatom 813 363 5 0 0 1 ticks_per_quarternote - -, f 5;
#X obj 247 38 inlet;
#X obj 746 539 unpack;
#X floatatom 746 569 5 0 0 0 - - -, f 5;
#X obj 746 598 pack 0 0;
#X text 834 555 pipe all 16 tracks to the same voice.... just cause
;
#X obj 531 343 bng 15 250 50 0 empty empty empty 17 7 0 10 -262144
-1 -1;
#X obj 570 371 s done-playing;
#X obj 350 652 outlet;
#X msg 368 173 verbose 0;
#X obj 400 125 loadbang;
#X obj 179 474 route 176;
#X obj 179 501 unpack;
#X obj 145 624 ctlout 1;
#X obj 161 577 f;
#X obj 139 541 t b f;
#X obj 813 391 s ppq;
#X obj 446 374 s disable-toggle;
#X connect 2 0 3 0;
#X connect 2 0 21 0;
#X connect 2 1 0 0;
#X connect 2 2 7 0;
#X connect 3 0 18 0;
#X connect 3 1 18 0;
#X connect 3 2 18 0;
#X connect 3 3 18 0;
#X connect 3 4 18 0;
#X connect 3 5 18 0;
#X connect 3 6 18 0;
#X connect 3 7 18 0;
#X connect 3 8 18 0;
#X connect 3 9 18 0;
#X connect 3 10 18 0;
#X connect 3 11 18 0;
#X connect 3 12 18 0;
#X connect 3 13 18 0;
#X connect 3 14 18 0;
#X connect 3 15 18 0;
#X connect 3 16 4 0;
#X connect 4 0 12 0;
#X connect 4 1 12 0;
#X connect 4 2 12 0;
#X connect 4 3 12 0;
#X connect 4 4 12 0;
#X connect 4 5 12 0;
#X connect 4 6 12 0;
#X connect 4 7 12 0;
#X connect 4 8 12 0;
#X connect 4 9 12 0;
#X connect 4 10 12 0;
#X connect 4 11 12 0;
#X connect 4 12 12 0;
#X connect 4 13 12 0;
#X connect 4 14 12 0;
#X connect 4 15 12 0;
#X connect 7 0 16 0;
#X connect 7 0 17 0;
#X connect 7 1 8 0;
#X connect 7 2 9 0;
#X connect 7 3 10 0;
#X connect 10 0 26 0;
#X connect 11 0 2 0;
#X connect 12 0 13 0;
#X connect 13 0 14 0;
#X connect 14 0 18 0;
#X connect 16 0 27 0;
#X connect 19 0 2 0;
#X connect 20 0 19 0;
#X connect 21 0 22 0;
#X connect 22 0 25 0;
#X connect 22 1 24 1;
#X connect 24 0 23 0;
#X connect 25 0 24 0;
#X connect 25 1 23 1;
#X restore 338 453 pd midi-filer;
#X obj 346 363 s midi-file-q;
#X obj 343 332 spigot;
#X text 547 96 clocks are disabled \, old notes flushed \, new file
loaded (1.mid) \, re-clocker is reset \, clocks are enabled;
#X text 538 73 a number comes in (like 1);
#X connect 0 0 9 1;
#X connect 0 0 17 1;
#X connect 1 0 15 0;
#X connect 2 0 0 0;
#X connect 3 0 8 0;
#X connect 4 0 6 0;
#X connect 5 0 4 0;
#X connect 6 0 13 0;
#X connect 7 0 5 0;
#X connect 8 0 0 0;
#X connect 9 0 15 0;
#X connect 10 0 2 0;
#X connect 10 1 14 0;
#X connect 10 2 1 0;
#X connect 10 3 5 0;
#X connect 10 4 8 0;
#X connect 11 0 9 0;
#X connect 11 1 17 0;
#X connect 12 0 10 0;
#X connect 15 0 4 0;
#X connect 15 0 13 0;
#X connect 17 0 16 0;
#X restore 171 401 pd midi-file-player;
#X obj 1098 397 r midi-file-q;
#X obj 171 289 % 24;
#X obj 171 263 abs;
#X text 211 267 wrap around. all midi notes trigger a file;
#X obj 171 236 expr if ($f1 > 59 \, $f1 - 60 \, $f1 - 12);
#X obj 171 315 + 1;
#X obj 171 170 r notes;
#X obj 433 131 bng 15 250 50 0 empty empty empty 17 7 0 10 -262144
-1 -1;
#X text 1201 394 flasher;
#X msg 1072 596 \; led 6;
#X obj 671 397 loadbang;
#X text 119 49 disable keys sending midi;
#X obj 198 546 route 1 2 3 4 5 6 7 8, f 34;
#X text 553 16 MIDI file player \, keys select a midi file to play.
Aux stops playback.;
#X obj 1294 171 i;
#X obj 1295 149 + 5;
#X obj 1295 127 * 2000;
#X obj 1294 194 change -1;
#X obj 875 207 change -1;
#X obj 874 180 i;
#X obj 934 161 s tone;
#X obj 1118 147 * 100;
#X obj 1118 172 i;
#X obj 1118 207 change -1;
#X obj 1056 173 s mod;
#X obj 882 134 * 100;
#X obj 1054 130 * 4;
#X obj 1382 183 s decay;
#X text 1165 42 parameters;
#X obj 909 102 r knob2;
#X msg 875 233 2: Tone \$1 %;
#X obj 875 257 s screenLine2;
#X obj 1090 82 r knob3;
#X msg 1118 237 3: Modulation \$1 %;
#X obj 1118 265 s screenLine3;
#X obj 1297 95 r knob4;
#X msg 1293 220 4: Decay Time \$1 ms;
#X obj 1294 247 s screenLine4;
#X msg 671 419 \; screenLine1 1: Tempo \; screenLine2 2: Tone \; screenLine3
3: Modulation \; screenLine4 4: Decay \; screenLine5 Aux: Kill \;;
#X obj 198 621 voice;
#X obj 253 622 voice;
#X obj 306 620 voice;
#X obj 368 618 voice;
#X obj 418 620 voice;
#X obj 471 618 voice;
#X obj 530 622 voice;
#X obj 583 620 voice;
#X obj 298 733 *~ 0.25;
#N canvas 9 50 462 363 toggle-keys 0;
#X obj 181 96 f 0;
#X obj 160 122 ==;
#X obj 45 265 s done-playing;
#X obj 228 252 f 0;
#X obj 167 150 sel 1 0;
#X obj 149 64 t f f b f;
#X obj 166 200 tgl 15 0 empty empty empty 17 7 0 10 -262144 -1 -1 0
1;
#X msg 183 178 1;
#X obj 165 222 sel 0 1;
#X obj 161 29 inlet;
#X obj 210 290 outlet;
#X obj 282 132 r disable-toggle;
#X msg 269 179 0;
#X connect 0 0 1 1;
#X connect 1 0 4 0;
#X connect 3 0 10 0;
#X connect 4 0 6 0;
#X connect 4 1 7 0;
#X connect 5 0 0 1;
#X connect 5 1 1 0;
#X connect 5 2 0 0;
#X connect 5 3 3 1;
#X connect 6 0 8 0;
#X connect 7 0 6 0;
#X connect 8 0 2 0;
#X connect 8 1 3 0;
#X connect 9 0 5 0;
#X connect 11 0 12 0;
#X connect 12 0 6 0;
#X restore 166 358 pd toggle-keys;
#X obj 319 183 s disable-toggle;
#X obj 417 158 t b b;
#X text 7 517 send notes out ch 1;
#X connect 0 0 5 0;
#X connect 0 1 5 1;
#X connect 1 0 51 0;
#X connect 5 0 1 0;
#X connect 5 1 1 1;
#X connect 5 2 1 2;
#X connect 6 0 7 0;
#X connect 6 0 9 0;
#X connect 9 0 8 0;
#X connect 11 0 10 0;
#X connect 12 0 13 0;
#X connect 12 1 6 0;
#X connect 12 2 6 0;
#X connect 12 3 6 0;
#X connect 13 0 11 0;
#X connect 13 0 48 0;
#X connect 15 0 16 0;
#X connect 16 0 46 0;
#X connect 18 0 12 0;
#X connect 20 0 21 0;
#X connect 21 0 19 0;
#X connect 22 0 23 0;
#X connect 22 1 23 1;
#X connect 25 0 35 0;
#X connect 26 0 35 1;
#X connect 27 0 28 0;
#X connect 28 0 25 0;
#X connect 29 0 30 0;
#X connect 30 0 31 0;
#X connect 31 0 32 0;
#X connect 32 0 26 0;
#X connect 33 0 36 0;
#X connect 34 0 33 0;
#X connect 34 1 33 1;
#X connect 36 0 43 0;
#X connect 37 0 18 1;
#X connect 38 0 22 0;
#X connect 38 0 0 0;
#X connect 39 0 18 0;
#X connect 40 0 44 0;
#X connect 41 0 40 0;
#X connect 43 0 41 0;
#X connect 44 0 87 0;
#X connect 45 0 36 0;
#X connect 46 0 89 0;
#X connect 49 0 77 0;
#X connect 51 0 78 0;
#X connect 51 1 79 0;
#X connect 51 2 80 0;
#X connect 51 3 81 0;
#X connect 51 4 82 0;
#X connect 51 5 83 0;
#X connect 51 6 84 0;
#X connect 51 7 85 0;
#X connect 53 0 56 0;
#X connect 54 0 53 0;
#X connect 54 0 66 0;
#X connect 55 0 54 0;
#X connect 56 0 75 0;
#X connect 57 0 69 0;
#X connect 58 0 57 0;
#X connect 60 0 61 0;
#X connect 61 0 62 0;
#X connect 62 0 72 0;
#X connect 64 0 58 0;
#X connect 65 0 63 0;
#X connect 68 0 64 0;
#X connect 68 0 59 0;
#X connect 69 0 70 0;
#X connect 71 0 60 0;
#X connect 71 0 65 0;
#X connect 72 0 73 0;
#X connect 74 0 55 0;
#X connect 75 0 76 0;
#X connect 78 0 86 0;
#X connect 79 0 86 0;
#X connect 80 0 86 0;
#X connect 81 0 86 0;
#X connect 82 0 86 0;
#X connect 83 0 86 0;
#X connect 84 0 86 0;
#X connect 85 0 86 0;
#X connect 86 0 2 0;
#X connect 86 0 3 0;
#X connect 87 0 38 0;
#X connect 89 0 88 0;
#X connect 89 1 24 0;
