#N canvas 625 50 1124 740 10;
#X obj 456 111 tgl 15 0 empty empty empty 17 7 0 10 -262144 -1 -1 1
1;
#X floatatom 596 121 5 0 0 0 - - -, f 5;
#X text 641 94 dial in bpm;
#N canvas 283 507 292 294 mstobpm 0;
#X obj 45 13 inlet;
#X obj 46 145 timer;
#X obj 47 238 outlet;
#X obj 46 172 expr 60000 / $f1;
#X obj 46 108 t b b;
#X obj 45 78 sel 0;
#X obj 48 206 / 4;
#X text 97 55 time 16th notes;
#X obj 43 45 % 6;
#X connect 0 0 8 0;
#X connect 1 0 3 0;
#X connect 3 0 6 0;
#X connect 4 0 1 0;
#X connect 4 1 1 1;
#X connect 5 0 4 0;
#X connect 6 0 2 0;
#X connect 8 0 5 0;
#X restore 433 276 pd mstobpm;
#X floatatom 429 311 5 0 0 0 - - -, f 5;
#X text 471 311 tempo in bpm;
#N canvas 946 250 174 209 dialinbpm 0;
#X obj 29 41 inlet;
#X obj 29 72 expr 1000/($f1/60);
#X floatatom 29 121 5 0 0 0 - - -, f 5;
#X obj 29 96 / 24;
#X obj 30 150 outlet;
#X connect 0 0 1 0;
#X connect 1 0 3 0;
#X connect 2 0 4 0;
#X connect 3 0 2 0;
#X restore 541 159 pd dialinbpm;
#N canvas 141 50 901 691 mainmetro 0;
#X obj 280 49 inlet;
#X obj 333 49 inlet;
#X obj 280 156 metro 50;
#X obj 389 438 + 1, f 5;
#X obj 280 462 f;
#X floatatom 280 581 5 0 0 0 - - -, f 5;
#X obj 280 607 outlet;
#X msg 565 496 0;
#X obj 350 484 >= 23;
#X obj 350 516 sel 1;
#X obj 408 145 midirealtimein;
#X obj 280 387 spigot 1;
#X obj 408 388 spigot 0;
#X obj 423 300 tgl 15 0 empty empty empty 17 7 0 10 -262144 -1 -1 0
1;
#X obj 333 323 ==;
#X obj 333 349 tgl 15 0 empty empty empty 17 7 0 10 -262144 -1 -1 1
1;
#X obj 461 350 tgl 15 0 empty empty empty 17 7 0 10 -262144 -1 -1 0
1;
#X obj 408 167 sel 248 250 251;
#X obj 580 243 delay 1000;
#X msg 423 241 1;
#X obj 408 190 t b b b b, f 25;
#X msg 580 218 stop;
#X msg 580 267 0;
#X text 67 12 autoswitch between internal and MIDI clock;
#X text 525 144 MIDI 248 = clock \; 250 = start \; 251 = continue.
;
#X obj 578 348 s midi-clock-present;
#X obj 325 207 loadbang;
#X msg 325 229 0;
#X text 7 115 reset back to 0 when metro stops;
#X obj 124 229 s reset-metronome;
#X obj 619 435 r reset-metronome;
#X obj 266 90 t b f;
#X obj 783 -2;
#X connect 0 0 31 0;
#X connect 1 0 2 1;
#X connect 2 0 11 0;
#X connect 3 0 4 1;
#X connect 4 0 3 0;
#X connect 4 0 5 0;
#X connect 4 0 8 0;
#X connect 5 0 6 0;
#X connect 7 0 4 1;
#X connect 8 0 9 0;
#X connect 9 0 7 0;
#X connect 10 0 17 0;
#X connect 11 0 4 0;
#X connect 12 0 4 0;
#X connect 13 0 14 0;
#X connect 13 0 16 0;
#X connect 13 0 25 0;
#X connect 14 0 15 0;
#X connect 15 0 11 1;
#X connect 16 0 12 1;
#X connect 17 0 20 0;
#X connect 17 1 7 0;
#X connect 17 2 7 0;
#X connect 18 0 22 0;
#X connect 19 0 13 0;
#X connect 20 0 12 0;
#X connect 20 1 18 0;
#X connect 20 2 19 0;
#X connect 20 3 21 0;
#X connect 21 0 18 0;
#X connect 22 0 13 0;
#X connect 26 0 27 0;
#X connect 27 0 13 0;
#X connect 30 0 7 0;
#X connect 31 0 29 0;
#X connect 31 1 2 0;
#X restore 456 192 pd mainmetro;
#X obj 456 75 inlet;
#X obj 601 59 inlet;
#X obj 538 578 i;
#X obj 538 600 change -1;
#X obj 374 576 i;
#X obj 374 598 change -1;
#X obj 536 479 spigot 1;
#X obj 372 475 spigot 0;
#X obj 754 278 r midi-clock-present;
#X obj 754 302 ==;
#X obj 374 659 s screenLine1;
#X obj 538 660 s screenLine1;
#X msg 538 628 1: Tempo \$1 BPM;
#X msg 373 626 1: Tempo \$1 BPM MIDI;
#X obj 598 90 i;
#X obj 457 536 outlet;
#X obj 281 316 s midi-sync;
#X connect 0 0 7 0;
#X connect 1 0 6 0;
#X connect 1 0 14 0;
#X connect 3 0 4 0;
#X connect 4 0 15 0;
#X connect 6 0 7 1;
#X connect 7 0 3 0;
#X connect 7 0 24 0;
#X connect 8 0 0 0;
#X connect 9 0 22 0;
#X connect 10 0 11 0;
#X connect 11 0 20 0;
#X connect 12 0 13 0;
#X connect 13 0 21 0;
#X connect 14 0 10 0;
#X connect 14 0 23 0;
#X connect 15 0 12 0;
#X connect 15 0 23 0;
#X connect 16 0 15 1;
#X connect 16 0 17 0;
#X connect 17 0 14 1;
#X connect 20 0 19 0;
#X connect 21 0 18 0;
#X connect 22 0 1 0;
