#N canvas 15 50 1722 967 10;
#X obj 92 232 phasor~;
#X text 202 196 TAPE;
#X obj 617 88 r \$0-pitch-shift;
#X obj 617 152 t b f;
#X obj 617 268 phasor~, f 13;
#X obj 92 436 s~ \$0-index;
#X obj 155 -58 inlet;
#X obj 1018 -20 inlet;
#X obj 452 -3 s \$0-pointer;
#X obj 1073 437 r \$0-pointer;
#X obj 615 719 outlet~;
#X obj 615 699 hip~ 5;
#X obj 353 15 s \$0-speed;
#X text 1059 -19 0-1 floating point;
#X text 520 31 0/1 off/on;
#X text 199 -59 control arguments;
#X text 973 717 playhead 0-1;
#X obj 634 621 vline~;
#X obj 616 675 *~;
#X obj 634 573 r \$0-duck;
#X obj 1168 485 s \$0-duck;
#X obj 1165 515 symbol;
#X obj 1073 459 t b a b, f 14;
#X obj 1073 714 outlet sample size, f 12;
#X msg 1127 516 stop;
#X obj 634 643 *~;
#X obj 552 -3 switch~;
#X obj 651 -3 s \$0-decay;
#X obj 1105 546 symbol, f 9;
#X obj 1073 514 t b b;
#X obj 1073 578 array size \$1;
#X text 495 -72 Time Compression Looper;
#X text 1129 623 get size of sample in ms;
#X obj 154 9 max 0.01;
#X obj 1189 665 s \$0-sample-length;
#X obj 1131 666 / 44.1;
#X obj 1131 692 s \$0-sample-length-ms;
#X obj 1073 642 t f f f, f 17;
#X obj 751 0 s \$0-pitch-shift;
#X obj 110 370 r \$0-sample-length;
#X obj 92 284 *~;
#X obj 92 306 +~;
#X obj 130 284 r \$0-chunk-size;
#X obj 130 306 r \$0-read;
#X obj 92 328 wrap~;
#X obj 92 394 *~;
#X obj 101 495 r \$0-chunk-size;
#X obj 101 623 /;
#X obj 115 531 r \$0-sample-length-ms;
#X obj 101 577 *, f 7;
#X obj 115 553 t b a;
#X obj 101 685 f;
#X obj 129 642 r \$0-speed;
#X obj 129 664 t b a;
#X obj 101 707 *, f 4;
#X obj 101 729 s \$0-playback;
#X obj 92 188 r \$0-playback;
#X msg 101 601 1000 \$1;
#X obj 535 139 -, f 5;
#X obj 617 174 +;
#X msg 535 111 1 \$1;
#X obj 535 88 r \$0-speed;
#X text 11 475 caluculate playback speed based on loop length;
#X obj 253 8 wrap;
#X obj 154 -32 route length read speed point switch decay pitch, f
100;
#X text 436 108 speed make up;
#X text 664 123 over all shift;
#X obj 112 256 s~ \$0-master-phase;
#X obj 708 427 r \$0-decay;
#N canvas 561 276 933 688 envelope 0;
#X obj 89 392 -~ 0.5;
#X obj 89 416 *~ 0.5;
#X obj 89 439 cos~;
#X obj 89 483 clip~ 0 1;
#X obj 88 595 *~;
#X obj 215 418 *~, f 8;
#X obj 217 500 clip~ 0 1;
#X obj 216 474 -~, f 13;
#X obj 215 440 +~ 1;
#X obj 233 294 unpack;
#X msg 233 271 -1 1;
#X msg 274 270 1 0;
#X obj 217 522 *~;
#X obj 214 354 *~;
#X obj 214 376 +~, f 6;
#X obj 398 177 t f f;
#X obj 398 199 *;
#X obj 303 86 moses 0.5, f 14;
#X obj 398 109 t f b, f 8;
#X obj 398 131 - 0.5;
#X obj 398 153 * 2;
#X obj 303 108 t f b, f 8;
#X msg 303 152 1 \$1;
#X obj 303 174 -;
#X obj 303 130 * 2;
#X obj 303 196 t f f;
#X obj 303 218 *;
#X text 308 14 envelope window with attack/decay one knob;
#X obj 303 64 inlet knob 0-1;
#X obj 90 80 inlet~ phasor;
#X obj 87 662 outlet~;
#X obj 88 461 *~ 1000, f 11;
#X obj 88 617 *~ 1.25;
#X obj 88 639 clip~ 0 1;
#X obj 252 344 lop~ 100;
#X obj 233 316 lop~ 100;
#X obj 303 375 lop~ 100;
#X obj 303 289 * 4;
#X obj 398 271 * 4;
#X connect 0 0 1 0;
#X connect 1 0 2 0;
#X connect 2 0 31 0;
#X connect 3 0 4 0;
#X connect 4 0 32 0;
#X connect 5 0 8 0;
#X connect 6 0 12 0;
#X connect 6 0 12 1;
#X connect 7 0 6 0;
#X connect 8 0 7 0;
#X connect 9 0 35 0;
#X connect 9 1 34 0;
#X connect 10 0 9 0;
#X connect 11 0 9 0;
#X connect 12 0 4 1;
#X connect 13 0 14 0;
#X connect 14 0 5 0;
#X connect 15 0 16 0;
#X connect 15 1 16 1;
#X connect 16 0 38 0;
#X connect 17 0 21 0;
#X connect 17 1 18 0;
#X connect 18 0 19 0;
#X connect 18 1 11 0;
#X connect 19 0 20 0;
#X connect 20 0 15 0;
#X connect 21 0 24 0;
#X connect 21 1 10 0;
#X connect 22 0 23 0;
#X connect 23 0 25 0;
#X connect 24 0 22 0;
#X connect 25 0 26 0;
#X connect 25 1 26 1;
#X connect 26 0 37 0;
#X connect 28 0 17 0;
#X connect 29 0 0 0;
#X connect 29 0 13 0;
#X connect 31 0 3 0;
#X connect 32 0 33 0;
#X connect 33 0 30 0;
#X connect 34 0 14 1;
#X connect 35 0 13 1;
#X connect 36 0 5 1;
#X connect 36 0 7 1;
#X connect 37 0 36 0;
#X connect 38 0 36 0;
#X restore 634 451 pd envelope;
#X obj 615 483 *~;
#X obj 635 399 r~ \$0-master-phase;
#X obj 165 69 s \$0-duck;
#X msg 133 95 stop;
#X obj 70 43 t b f b, f 14;
#X obj 70 97 f;
#X obj 70 121 s \$0-chunk-size;
#X obj 348 69 s \$0-duck;
#X msg 316 95 stop;
#X obj 253 43 t b f b, f 14;
#X obj 253 97 f;
#X obj 253 121 s \$0-read;
#X obj 617 238 lop~ 500;
#X obj 705 235 r \$0-retrigger;
#X obj 136 212 r \$0-retrigger;
#X msg 634 598 0 5 \, 1 5 6;
#X obj 1073 492 del 5.5;
#X obj 253 67 del 5.5;
#X obj 70 67 del 5.5;
#X obj 729 722 outlet~;
#X text 791 723 outlet phase;
#X obj 730 695 r~ \$0-master-phase;
#X obj 1041 198 s \$0-retrigger;
#X obj 1107 152 s \$0-duck;
#X msg 1103 176 stop;
#X obj 1041 127 t b b b, f 14;
#X msg 1041 173 0;
#X obj 1041 151 del 5.5;
#X obj 1018 59 s \$0-retrigger;
#X obj 1018 2 b;
#X msg 1018 24 0;
#N canvas 181 127 1198 684 6-playheads 0;
#X obj 84 23 inlet~;
#X obj 84 45 s~ \$0-phase;
#X obj 65 140 r~ \$0-phase;
#X obj 64 291 -~ 0.5;
#X obj 64 315 *~ 0.5;
#X obj 64 338 cos~;
#X obj 64 267 clip~ 0 1;
#X obj 63 217 wrap~;
#X obj 146 278 tabread4~;
#X obj 156 248 r~ \$0-index;
#X obj 64 360 *~, f 12;
#X obj 64 169 +~ 0;
#X obj 255 140 r~ \$0-phase;
#X obj 254 291 -~ 0.5;
#X obj 254 315 *~ 0.5;
#X obj 254 338 cos~;
#X obj 254 267 clip~ 0 1;
#X obj 253 217 wrap~;
#X obj 336 278 tabread4~;
#X obj 346 248 r~ \$0-index;
#X obj 254 360 *~, f 12;
#X obj 254 169 +~ 0.166667;
#X obj 435 140 r~ \$0-phase;
#X obj 434 291 -~ 0.5;
#X obj 434 315 *~ 0.5;
#X obj 434 338 cos~;
#X obj 434 267 clip~ 0 1;
#X obj 433 217 wrap~;
#X obj 516 278 tabread4~;
#X obj 526 248 r~ \$0-index;
#X obj 434 360 *~, f 12;
#X obj 625 140 r~ \$0-phase;
#X obj 624 291 -~ 0.5;
#X obj 624 315 *~ 0.5;
#X obj 624 338 cos~;
#X obj 624 267 clip~ 0 1;
#X obj 623 217 wrap~;
#X obj 706 278 tabread4~;
#X obj 716 248 r~ \$0-index;
#X obj 624 360 *~, f 12;
#X obj 825 140 r~ \$0-phase;
#X obj 824 291 -~ 0.5;
#X obj 824 315 *~ 0.5;
#X obj 824 338 cos~;
#X obj 824 267 clip~ 0 1;
#X obj 823 217 wrap~;
#X obj 906 278 tabread4~;
#X obj 916 248 r~ \$0-index;
#X obj 824 360 *~, f 12;
#X obj 1014 140 r~ \$0-phase;
#X obj 1014 291 -~ 0.5;
#X obj 1014 315 *~ 0.5;
#X obj 1014 338 cos~;
#X obj 1014 267 clip~ 0 1;
#X obj 1013 217 wrap~;
#X obj 1096 278 tabread4~;
#X obj 1106 248 r~ \$0-index;
#X obj 1014 360 *~, f 12;
#X obj 434 169 +~ 0.333333;
#X obj 624 169 +~ 0.5;
#X obj 824 169 +~ 0.666667;
#X obj 1013 170 +~ 0.833333;
#X obj 359 596 outlet~;
#X obj 241 57 r \$0-pointer;
#X obj 241 79 list prepend set;
#X obj 241 101 route list;
#X obj 852 34 r \$0-pointer;
#X obj 852 56 list prepend set;
#X obj 852 78 route list;
#X obj 63 243 *~ 3, f 10;
#X obj 253 243 *~ 3, f 10;
#X obj 433 243 *~ 3, f 10;
#X obj 623 243 *~ 3, f 10;
#X obj 823 243 *~ 3, f 10;
#X obj 1013 243 *~ 3, f 10;
#X obj 515 223 *~ 735;
#X obj 337 220 *~ 735;
#X obj 147 220 *~ 735;
#X obj 707 220 *~ 735;
#X obj 907 219 *~ 735;
#X obj 1097 220 *~ 735;
#X connect 0 0 1 0;
#X connect 2 0 11 0;
#X connect 3 0 4 0;
#X connect 4 0 5 0;
#X connect 5 0 10 0;
#X connect 6 0 3 0;
#X connect 7 0 69 0;
#X connect 8 0 10 1;
#X connect 9 0 8 0;
#X connect 10 0 62 0;
#X connect 11 0 7 0;
#X connect 11 0 77 0;
#X connect 12 0 21 0;
#X connect 13 0 14 0;
#X connect 14 0 15 0;
#X connect 15 0 20 0;
#X connect 16 0 13 0;
#X connect 17 0 70 0;
#X connect 18 0 20 1;
#X connect 19 0 18 0;
#X connect 20 0 62 0;
#X connect 21 0 17 0;
#X connect 21 0 76 0;
#X connect 22 0 58 0;
#X connect 23 0 24 0;
#X connect 24 0 25 0;
#X connect 25 0 30 0;
#X connect 26 0 23 0;
#X connect 27 0 71 0;
#X connect 28 0 30 1;
#X connect 29 0 28 0;
#X connect 30 0 62 0;
#X connect 31 0 59 0;
#X connect 32 0 33 0;
#X connect 33 0 34 0;
#X connect 34 0 39 0;
#X connect 35 0 32 0;
#X connect 36 0 72 0;
#X connect 37 0 39 1;
#X connect 38 0 37 0;
#X connect 39 0 62 0;
#X connect 40 0 60 0;
#X connect 41 0 42 0;
#X connect 42 0 43 0;
#X connect 43 0 48 0;
#X connect 44 0 41 0;
#X connect 45 0 73 0;
#X connect 46 0 48 1;
#X connect 47 0 46 0;
#X connect 48 0 62 0;
#X connect 49 0 61 0;
#X connect 50 0 51 0;
#X connect 51 0 52 0;
#X connect 52 0 57 0;
#X connect 53 0 50 0;
#X connect 54 0 74 0;
#X connect 55 0 57 1;
#X connect 56 0 55 0;
#X connect 57 0 62 0;
#X connect 58 0 27 0;
#X connect 58 0 75 0;
#X connect 59 0 36 0;
#X connect 59 0 78 0;
#X connect 60 0 45 0;
#X connect 60 0 79 0;
#X connect 61 0 54 0;
#X connect 61 0 80 0;
#X connect 63 0 64 0;
#X connect 64 0 65 0;
#X connect 65 0 8 0;
#X connect 65 0 18 0;
#X connect 65 0 28 0;
#X connect 66 0 67 0;
#X connect 67 0 68 0;
#X connect 68 0 46 0;
#X connect 68 0 37 0;
#X connect 68 0 55 0;
#X connect 69 0 6 0;
#X connect 70 0 16 0;
#X connect 71 0 26 0;
#X connect 72 0 35 0;
#X connect 73 0 44 0;
#X connect 74 0 53 0;
#X connect 75 0 28 0;
#X connect 76 0 18 0;
#X connect 77 0 8 0;
#X connect 78 0 37 0;
#X connect 79 0 46 0;
#X connect 80 0 55 0;
#X restore 616 326 pd 6-playheads;
#N canvas 7 50 1092 722 2-playheads 0;
#X obj 617 310 +~ 0.5;
#X obj 617 384 -~ 0.5;
#X obj 617 406 *~ 0.5;
#X obj 617 428 cos~;
#X obj 617 450 *~, f 8;
#X obj 617 332 wrap~;
#X obj 719 359 *~ 2205;
#X obj 719 411 tabread4~;
#X obj 729 381 r~ \$0-index;
#X obj 450 314 +~ 0;
#X obj 392 350 -~ 0.5;
#X obj 392 372 *~ 0.5;
#X obj 392 394 cos~;
#X obj 450 336 *~ 2205;
#X obj 451 397 tabread4~;
#X obj 461 367 r~ \$0-index;
#X obj 432 443 *~;
#X obj 432 495 +~, f 22;
#X obj 769 271 r \$0-pointer;
#X obj 769 293 list prepend set;
#X obj 769 315 route list;
#X obj 84 23 inlet~;
#X obj 432 517 outlet~;
#X obj 84 45 s~ \$0-phase1;
#X obj 449 284 r~ \$0-phase1;
#X obj 616 284 r~ \$0-phase1;
#X connect 0 0 5 0;
#X connect 1 0 2 0;
#X connect 2 0 3 0;
#X connect 3 0 4 0;
#X connect 4 0 17 1;
#X connect 5 0 1 0;
#X connect 5 0 6 0;
#X connect 6 0 7 0;
#X connect 7 0 4 1;
#X connect 8 0 7 0;
#X connect 9 0 10 0;
#X connect 9 0 13 0;
#X connect 10 0 11 0;
#X connect 11 0 12 0;
#X connect 12 0 16 0;
#X connect 13 0 14 0;
#X connect 14 0 16 1;
#X connect 15 0 14 0;
#X connect 16 0 17 0;
#X connect 17 0 22 0;
#X connect 18 0 19 0;
#X connect 19 0 20 0;
#X connect 20 0 7 0;
#X connect 20 0 14 0;
#X connect 21 0 23 0;
#X connect 24 0 9 0;
#X connect 25 0 0 0;
#X restore 953 339 pd 2-playheads;
#X obj 617 216 * 20;
#X connect 0 0 40 0;
#X connect 0 0 67 0;
#X connect 2 0 3 0;
#X connect 3 0 59 0;
#X connect 3 1 59 1;
#X connect 4 0 101 0;
#X connect 6 0 64 0;
#X connect 7 0 99 0;
#X connect 9 0 22 0;
#X connect 11 0 10 0;
#X connect 17 0 25 0;
#X connect 17 0 25 1;
#X connect 18 0 11 0;
#X connect 19 0 85 0;
#X connect 21 0 28 1;
#X connect 22 0 86 0;
#X connect 22 1 21 0;
#X connect 22 2 20 0;
#X connect 22 2 24 0;
#X connect 24 0 86 0;
#X connect 25 0 18 1;
#X connect 28 0 30 1;
#X connect 29 0 30 0;
#X connect 29 1 28 0;
#X connect 30 0 37 0;
#X connect 33 0 74 0;
#X connect 35 0 36 0;
#X connect 37 0 23 0;
#X connect 37 1 35 0;
#X connect 37 2 34 0;
#X connect 39 0 45 1;
#X connect 40 0 41 0;
#X connect 41 0 44 0;
#X connect 42 0 40 1;
#X connect 43 0 41 1;
#X connect 44 0 45 0;
#X connect 45 0 5 0;
#X connect 46 0 49 0;
#X connect 47 0 51 0;
#X connect 48 0 50 0;
#X connect 49 0 57 0;
#X connect 50 0 49 0;
#X connect 50 1 49 1;
#X connect 51 0 54 0;
#X connect 52 0 53 0;
#X connect 53 0 51 0;
#X connect 53 1 54 1;
#X connect 54 0 55 0;
#X connect 56 0 0 0;
#X connect 57 0 47 0;
#X connect 58 0 59 0;
#X connect 59 0 103 0;
#X connect 60 0 58 0;
#X connect 61 0 60 0;
#X connect 63 0 79 0;
#X connect 64 0 33 0;
#X connect 64 1 63 0;
#X connect 64 2 12 0;
#X connect 64 3 8 0;
#X connect 64 4 26 0;
#X connect 64 5 27 0;
#X connect 64 6 38 0;
#X connect 68 0 69 1;
#X connect 69 0 70 1;
#X connect 70 0 18 0;
#X connect 71 0 69 0;
#X connect 73 0 88 0;
#X connect 74 0 88 0;
#X connect 74 1 75 1;
#X connect 74 2 72 0;
#X connect 74 2 73 0;
#X connect 75 0 76 0;
#X connect 78 0 87 0;
#X connect 79 0 87 0;
#X connect 79 1 80 1;
#X connect 79 2 77 0;
#X connect 79 2 78 0;
#X connect 80 0 81 0;
#X connect 82 0 4 0;
#X connect 83 0 4 1;
#X connect 84 0 0 1;
#X connect 85 0 17 0;
#X connect 86 0 29 0;
#X connect 87 0 80 0;
#X connect 88 0 75 0;
#X connect 91 0 89 0;
#X connect 94 0 97 0;
#X connect 95 0 97 0;
#X connect 95 1 93 0;
#X connect 95 2 94 0;
#X connect 96 0 92 0;
#X connect 97 0 96 0;
#X connect 99 0 100 0;
#X connect 100 0 98 0;
#X connect 101 0 70 0;
#X connect 103 0 82 0;
