#N canvas 114 63 1696 894 10;
#X obj 617 58 r \$0-pitch-shift;
#X obj 617 122 t b f;
#X obj 617 258 phasor~;
#X obj 617 290 +~ 0.5;
#X obj 617 384 -~ 0.5;
#X obj 617 406 *~ 0.5;
#X obj 617 428 cos~;
#X obj 557 470 *~;
#X obj 617 312 wrap~;
#X obj 729 359 *~ 2205;
#X obj 729 441 tabread4~;
#X obj 802 389 r~ \$0-index;
#X obj 92 506 s~ \$0-index;
#X obj 390 254 +~ 0;
#X obj 332 350 -~ 0.5;
#X obj 332 372 *~ 0.5;
#X obj 332 394 cos~;
#X obj 390 276 *~ 2205;
#X obj 391 397 tabread4~;
#X obj 470 345 r~ \$0-index;
#X obj 372 443 *~;
#X obj 372 515 +~, f 22;
#X obj 155 -58 inlet;
#X obj 1018 -20 inlet;
#X obj 372 828 outlet~;
#X obj 372 798 hip~ 5;
#X text 1059 -19 0-1 floating point;
#X text 657 24 0/1 off/on;
#X text 199 -59 control arguments;
#X text 866 815 playhead 0-1;
#X obj 646 556 vline~;
#X obj 373 724 *~;
#X obj 646 508 r \$0-duck;
#X obj 1236 712 outlet sample size, f 12;
#X obj 646 578 *~;
#X text 564 -62 Time Compression Looper;
#X text 1360 647 get size of sample in ms;
#X obj 1352 602 s \$0-sample-length;
#X obj 1294 603 / 44.1;
#X obj 1294 629 s \$0-sample-length-ms;
#X obj 1236 579 t f f f, f 17;
#X obj 1209 267 r \$0-pointer;
#X obj 1398 352 list prepend set;
#X obj 1398 374 route list;
#X obj 110 399 r \$0-sample-length;
#X obj 134 288 r \$0-chunk-size;
#X obj 150 336 r \$0-read;
#X obj 92 368 wrap~;
#X obj 92 454 *~;
#X obj 101 555 r \$0-chunk-size;
#X obj 115 591 r \$0-sample-length-ms;
#X obj 101 637 *, f 7;
#X obj 115 613 t b a;
#X obj 101 755 f;
#X obj 128 712 r \$0-speed;
#X obj 129 734 t b a;
#X obj 101 777 *, f 4;
#X obj 101 799 s \$0-playback;
#X obj 92 -2 r \$0-playback;
#X obj 535 109 -, f 5;
#X obj 617 186 * 20;
#X obj 617 144 +;
#X msg 535 81 1 \$1;
#X obj 535 58 r \$0-speed;
#X text 11 535 caluculate playback speed based on loop length;
#X text 436 78 speed make up;
#X text 664 93 over all shift;
#X obj 112 262 s~ \$0-master-phase;
#X obj 372 647 *~;
#X obj 866 457 r~ \$0-master-phase;
#X obj 617 208 lop~ 500;
#X obj 663 232 r \$0-retrigger;
#X obj 140 188 r \$0-retrigger;
#X obj 1018 64 s \$0-retrigger;
#X text 8 -60 Arg1: Array Name;
#X obj 1398 395 s \$0-2-tabberL;
#N canvas 147 59 1431 480 route-stuff 0;
#X obj 66 16 inlet;
#X obj 354 88 s \$0-pointer;
#X obj 268 106 s \$0-speed;
#X obj 505 93 s \$0-pitch-shift;
#X obj 155 99 wrap;
#X obj 177 430 s \$0-chunk-size;
#X obj 155 212 s \$0-read;
#X msg 216 308 stop;
#X obj 176 405 f;
#X obj 176 256 t b f b b;
#X obj 272 351 s \$0-duck;
#X msg 462 277 stop;
#X obj 422 374 f;
#X obj 422 225 t b f b b;
#X obj 518 320 s \$0-duck;
#X obj 69 59 route length read speed point pitch, f 80;
#X obj 176 359 del 10;
#X obj 422 328 del 10;
#X connect 0 0 15 0;
#X connect 4 0 13 0;
#X connect 7 0 16 0;
#X connect 8 0 5 0;
#X connect 9 0 16 0;
#X connect 9 1 8 1;
#X connect 9 2 7 0;
#X connect 9 3 10 0;
#X connect 11 0 17 0;
#X connect 12 0 6 0;
#X connect 13 0 17 0;
#X connect 13 1 12 1;
#X connect 13 2 11 0;
#X connect 13 3 14 0;
#X connect 15 0 9 0;
#X connect 15 1 4 0;
#X connect 15 2 2 0;
#X connect 15 3 1 0;
#X connect 15 4 3 0;
#X connect 16 0 8 0;
#X connect 17 0 12 0;
#X restore 155 -32 pd route-stuff;
#X obj 798 359 r \$0-2-tabberL;
#X obj 440 317 r \$0-2-tabberL;
#X obj 802 813 outlet~;
#X obj 887 671 -~ 0.5;
#X obj 887 693 *~ 0.5;
#X obj 887 715 cos~;
#X obj 887 595 r~ \$0-index;
#X obj 887 647 /~;
#X obj 905 624 r \$0-sample-length;
#X obj 887 759 clip~ 0 1;
#X obj 372 567 *~;
#X obj 887 737 *~ 1000;
#X obj 999 412 r \$0-chunk-size;
#X obj 999 494 *;
#X obj 1021 437 r \$0-sample-length;
#X obj 1021 459 t b a;
#X obj 92 336 +~ 0;
#X obj 91 314 *~ 1;
#X obj 110 421 - 2;
#X obj 92 476 +~ 1;
#X obj 587 -39 inlet;
#X text 638 -42 on/off;
#X obj 587 -17 s \$0-play-control;
#X obj 215 4 r \$0-play-control;
#X obj 215 26 sel 0 1, f 13;
#X obj 378 151 r \$0-play-control;
#X obj 378 173 switch~;
#X obj 265 48 t b b;
#X obj 215 78 t f f, f 8;
#X msg 215 48 0;
#X obj 92 110 f;
#X obj 92 132 spigot 0;
#X msg 297 114 1;
#X obj 875 483 -~ 0.5;
#X obj 875 505 *~ 0.5;
#X obj 875 527 cos~;
#X obj 875 571 clip~ 0 1;
#X obj 875 549 *~ 1000;
#X obj 999 529 *;
#X obj 1039 504 t b a;
#X obj 999 558 / 441;
#X msg 646 533 0 10 \, 1 10 10;
#X obj 1236 487 array size;
#X obj 1209 293 t b a a, f 27;
#X msg 1251 398 symbol \$1;
#X obj 1398 325 makefilename \$1-%d;
#X obj 1251 376 makefilename \$1-%d;
#X obj 1067 469 r \$0-speed;
#X obj 92 213 phasor~;
#X msg 101 659 1000 \$1;
#X obj 101 681 /;
#X obj 1081 561 r \$0-chunk-size;
#X obj 1081 643 *;
#X obj 1103 586 r \$0-sample-length;
#X obj 1103 608 t b a;
#X obj 1081 678 *;
#X obj 1121 653 t b a;
#X obj 1172 622 r \$0-speed;
#X msg 1172 644 1 \$1;
#X obj 1172 666 /;
#X connect 0 0 1 0;
#X connect 1 0 61 0;
#X connect 1 1 61 1;
#X connect 2 0 3 0;
#X connect 2 0 13 0;
#X connect 3 0 8 0;
#X connect 4 0 5 0;
#X connect 5 0 6 0;
#X connect 6 0 7 0;
#X connect 7 0 21 1;
#X connect 8 0 4 0;
#X connect 8 0 9 0;
#X connect 9 0 10 0;
#X connect 10 0 7 1;
#X connect 11 0 10 0;
#X connect 13 0 14 0;
#X connect 13 0 17 0;
#X connect 14 0 15 0;
#X connect 15 0 16 0;
#X connect 16 0 20 0;
#X connect 17 0 18 0;
#X connect 18 0 20 1;
#X connect 19 0 18 0;
#X connect 20 0 21 0;
#X connect 21 0 87 0;
#X connect 22 0 76 0;
#X connect 23 0 73 0;
#X connect 25 0 24 0;
#X connect 30 0 34 0;
#X connect 30 0 34 1;
#X connect 31 0 25 0;
#X connect 32 0 118 0;
#X connect 34 0 31 1;
#X connect 38 0 39 0;
#X connect 40 1 38 0;
#X connect 40 2 37 0;
#X connect 41 0 120 0;
#X connect 42 0 43 0;
#X connect 43 0 75 0;
#X connect 44 0 95 0;
#X connect 45 0 94 1;
#X connect 46 0 93 1;
#X connect 47 0 48 0;
#X connect 48 0 96 0;
#X connect 49 0 51 0;
#X connect 50 0 52 0;
#X connect 51 0 126 0;
#X connect 52 0 51 0;
#X connect 52 1 51 1;
#X connect 53 0 56 0;
#X connect 54 0 55 0;
#X connect 55 0 53 0;
#X connect 55 1 56 1;
#X connect 56 0 57 0;
#X connect 58 0 107 0;
#X connect 59 0 61 0;
#X connect 60 0 70 0;
#X connect 61 0 60 0;
#X connect 62 0 59 0;
#X connect 63 0 62 0;
#X connect 68 0 31 0;
#X connect 69 0 79 0;
#X connect 69 0 110 0;
#X connect 70 0 2 0;
#X connect 71 0 2 1;
#X connect 72 0 125 1;
#X connect 77 0 10 0;
#X connect 78 0 18 0;
#X connect 80 0 81 0;
#X connect 81 0 82 0;
#X connect 82 0 88 0;
#X connect 83 0 84 0;
#X connect 84 0 80 0;
#X connect 85 0 84 1;
#X connect 86 0 87 1;
#X connect 87 0 68 0;
#X connect 88 0 86 0;
#X connect 89 0 90 0;
#X connect 90 0 115 0;
#X connect 91 0 92 0;
#X connect 92 0 90 0;
#X connect 92 1 90 1;
#X connect 93 0 47 0;
#X connect 94 0 93 0;
#X connect 95 0 48 1;
#X connect 96 0 12 0;
#X connect 97 0 99 0;
#X connect 100 0 101 0;
#X connect 101 0 106 0;
#X connect 101 1 104 0;
#X connect 102 0 103 0;
#X connect 104 0 107 0;
#X connect 104 1 109 0;
#X connect 105 0 125 0;
#X connect 105 1 108 1;
#X connect 106 0 105 0;
#X connect 107 0 108 0;
#X connect 108 0 125 0;
#X connect 109 0 108 1;
#X connect 110 0 111 0;
#X connect 111 0 112 0;
#X connect 112 0 114 0;
#X connect 113 0 68 1;
#X connect 114 0 113 0;
#X connect 115 0 117 0;
#X connect 116 0 115 0;
#X connect 116 1 115 1;
#X connect 117 0 88 1;
#X connect 117 0 114 1;
#X connect 118 0 30 0;
#X connect 119 0 40 0;
#X connect 120 0 119 0;
#X connect 120 1 123 0;
#X connect 120 2 122 0;
#X connect 121 0 119 1;
#X connect 122 0 42 0;
#X connect 123 0 121 0;
#X connect 124 0 116 0;
#X connect 125 0 67 0;
#X connect 125 0 94 0;
#X connect 126 0 127 0;
#X connect 127 0 53 0;
#X connect 128 0 129 0;
#X connect 129 0 132 0;
#X connect 130 0 131 0;
#X connect 131 0 129 0;
#X connect 131 1 129 1;
#X connect 132 0 33 0;
#X connect 133 0 132 0;
#X connect 133 1 132 1;
#X connect 134 0 135 0;
#X connect 135 0 136 0;
#X connect 136 0 133 0;
