#N canvas 192 52 1312 922 10;
#X obj 217 164 tgl 15 0 empty empty empty 17 7 0 10 -262144 -1 -1 1
1;
#X floatatom 355 176 5 0 0 0 - - -, f 5;
#N canvas 761 565 292 294 mstobpm 0;
#X obj 50 66 inlet;
#X obj 50 129 timer;
#X obj 50 180 outlet;
#X obj 50 92 t b b;
#X obj 50 154 expr 2500 / $f1;
#X connect 0 0 3 0;
#X connect 1 0 4 0;
#X connect 3 0 1 0;
#X connect 3 1 1 1;
#X connect 4 0 2 0;
#X restore 111 538 pd mstobpm;
#N canvas 169 50 902 691 mainmetro 0;
#X obj 254 49 inlet;
#X obj 443 49 inlet;
#X obj 280 156 metro 50;
#X obj 389 438 + 1, f 5;
#X obj 280 462 f;
#X floatatom 280 581 5 0 0 0 - - -, f 5;
#X obj 280 607 outlet;
#X msg 565 496 0;
#X obj 350 484 >= 23;
#X obj 350 516 sel 1;
#X obj 408 145 midirealtimein;
#X obj 280 387 spigot 1;
#X obj 408 388 spigot 0;
#X obj 423 300 tgl 15 0 empty empty empty 17 7 0 10 -262144 -1 -1 0
1;
#X obj 333 323 ==;
#X obj 333 349 tgl 15 0 empty empty empty 17 7 0 10 -262144 -1 -1 1
1;
#X obj 461 350 tgl 15 0 empty empty empty 17 7 0 10 -262144 -1 -1 0
1;
#X obj 408 167 sel 248 250 251;
#X obj 580 243 delay 1000;
#X msg 423 241 1;
#X obj 408 190 t b b b b, f 25;
#X msg 580 218 stop;
#X msg 580 267 0;
#X text 67 12 autoswitch between internal and MIDI clock;
#X text 525 144 MIDI 248 = clock \; 250 = start \; 251 = continue.
;
#X obj 562 362 s midi-clock-present;
#X obj 325 207 loadbang;
#X msg 325 229 0;
#X obj 266 90 t f b;
#X text 28 87 reset back to 0 when it starts;
#X text 356 587 24 pulses per quarter note output;
#X text 503 50 metro speed in ms;
#X text 298 48 start stop;
#N canvas 948 298 174 209 dialinbpm 0;
#X obj 29 41 inlet;
#X obj 29 72 expr 1000/($f1/60);
#X floatatom 29 121 5 0 0 0 - - -, f 5;
#X obj 29 96 / 24;
#X obj 30 150 outlet;
#X connect 0 0 1 0;
#X connect 1 0 3 0;
#X connect 2 0 4 0;
#X connect 3 0 2 0;
#X restore 397 95 pd dialinbpm;
#X connect 0 0 28 0;
#X connect 1 0 33 0;
#X connect 2 0 11 0;
#X connect 3 0 4 1;
#X connect 4 0 3 0;
#X connect 4 0 5 0;
#X connect 4 0 8 0;
#X connect 5 0 6 0;
#X connect 7 0 4 1;
#X connect 8 0 9 0;
#X connect 9 0 7 0;
#X connect 10 0 17 0;
#X connect 11 0 4 0;
#X connect 12 0 4 0;
#X connect 13 0 14 0;
#X connect 13 0 16 0;
#X connect 13 0 25 0;
#X connect 14 0 15 0;
#X connect 15 0 11 1;
#X connect 16 0 12 1;
#X connect 17 0 20 0;
#X connect 17 1 7 0;
#X connect 17 2 7 0;
#X connect 18 0 22 0;
#X connect 19 0 13 0;
#X connect 20 0 12 0;
#X connect 20 1 18 0;
#X connect 20 2 19 0;
#X connect 20 3 21 0;
#X connect 21 0 18 0;
#X connect 22 0 13 0;
#X connect 26 0 27 0;
#X connect 27 0 13 0;
#X connect 28 0 2 0;
#X connect 28 1 7 0;
#X connect 33 0 2 1;
#X restore 217 256 pd mainmetro;
#X obj 217 128 inlet;
#X obj 355 111 inlet;
#X obj 311 746 spigot 1;
#X obj 208 757 spigot 0;
#X obj 428 606 r midi-clock-present;
#X obj 428 630 ==;
#X obj 355 142 i;
#X obj 211 851 outlet;
#X obj 315 823 s bpm;
#X obj 379 849 outlet;
#N canvas 239 342 450 300 triplets 0;
#X obj 73 41 inlet;
#X obj 58 168 outlet;
#X obj 76 86 sel 0 8 16;
#X connect 0 0 2 0;
#X connect 2 0 1 0;
#X connect 2 1 1 0;
#X connect 2 2 1 0;
#X restore 1070 385 pd triplets;
#N canvas 600 167 450 300 sixteenths 0;
#X obj 73 41 inlet;
#X obj 58 168 outlet;
#X obj 76 86 sel 0 6 12 18;
#X connect 0 0 2 0;
#X connect 2 0 1 0;
#X connect 2 1 1 0;
#X connect 2 2 1 0;
#X connect 2 3 1 0;
#X restore 1166 386 pd sixteenths;
#X obj 1070 412 s triplets;
#X obj 1166 413 s sixteenths;
#X obj 828 416 s quarters;
#X obj 948 415 s eighths;
#X text 34 487 if getting clock from MIDI \, measure the BPM;
#N canvas 236 394 450 300 quarters 0;
#X obj 73 41 inlet;
#X obj 73 75 sel 0;
#X obj 73 111 outlet;
#X connect 0 0 1 0;
#X connect 1 0 2 0;
#X restore 828 386 pd quarters;
#N canvas 668 208 450 300 eighths 0;
#X obj 73 41 inlet;
#X obj 75 120 outlet;
#X obj 76 86 sel 0 12;
#X connect 0 0 2 0;
#X connect 2 0 1 0;
#X connect 2 1 1 0;
#X restore 948 386 pd eighths;
#X obj 1145 354 s 24ppq;
#X obj 993 509 r 24ppq;
#X msg 993 537 248;
#X obj 993 559 midiout;
#X text 410 111 bpm input;
#X obj 988 276 r master-ticks;
#X text 317 882 separate BPM midi \, LINK \, and internal for display
purposes;
#N canvas 25 50 815 554 LINK 0;
#X msg 355 126 tempo \$1;
#X msg 144 127 resolution \$1;
#X msg 247 147 reset \$1 \$2;
#X obj 247 126 pack f f;
#X floatatom 266 247 5 0 0 1 beat_time - -, f 5;
#X floatatom 267 304 5 0 0 1 phase - -, f 5;
#X floatatom 180 285 5 0 0 1 step - -, f 5;
#X floatatom 378 246 5 0 0 1 tempo - -, f 5;
#X obj 59 105 tgl 15 0 empty empty empty 17 7 0 10 -262144 -1 -1 1
1;
#X obj 180 199 abl_link~ 1 0 4 134;
#X floatatom 355 107 5 0 0 2 tempo - -, f 5;
#X floatatom 292 107 5 0 0 2 quantum - -, f 5;
#X floatatom 247 107 5 0 0 2 beat - -, f 5;
#X floatatom 144 107 5 0 0 2 resolution - -, f 5;
#X msg 59 125 connect \$1;
#X floatatom 501 206 5 0 0 0 - - -, f 5;
#X obj 501 184 r #abl_link_num_peers;
#X obj 32 45 loadbang;
#X obj 32 67 delay 100;
#X obj 267 326 wrap;
#X floatatom 267 351 5 0 0 0 - - -, f 5;
#X obj 267 370 * 24;
#X obj 267 392 i;
#X floatatom 267 414 5 0 0 0 - - -, f 5;
#X obj 267 444 change;
#X obj 285 31 inlet;
#X obj 388 273 i;
#X obj 267 472 outlet;
#X obj 388 295 outlet;
#X obj 510 261 > 0;
#X obj 510 283 s link-session-present;
#X connect 0 0 9 0;
#X connect 1 0 9 0;
#X connect 2 0 9 0;
#X connect 3 0 2 0;
#X connect 5 0 19 0;
#X connect 7 0 26 0;
#X connect 8 0 14 0;
#X connect 9 0 6 0;
#X connect 9 1 5 0;
#X connect 9 2 4 0;
#X connect 9 3 7 0;
#X connect 10 0 0 0;
#X connect 11 0 3 1;
#X connect 12 0 3 0;
#X connect 13 0 1 0;
#X connect 14 0 9 0;
#X connect 15 0 29 0;
#X connect 16 0 15 0;
#X connect 17 0 18 0;
#X connect 18 0 8 0;
#X connect 19 0 20 0;
#X connect 20 0 21 0;
#X connect 21 0 22 0;
#X connect 22 0 23 0;
#X connect 23 0 24 0;
#X connect 24 0 27 0;
#X connect 25 0 10 0;
#X connect 26 0 28 0;
#X connect 29 0 30 0;
#X restore 578 272 pd LINK;
#X obj 537 413 s master-ticks;
#X obj 377 328 spigot 1;
#X obj 217 306 spigot 1;
#X obj 217 332 s master-ticks;
#X obj 539 353 spigot 0;
#X obj 683 153 r link-session-present;
#X floatatom 683 187 5 0 0 0 - - -, f 5;
#X obj 475 250 == 0;
#X obj 679 738 spigot 0;
#X obj 681 809 outlet;
#X obj 731 703 r link-session-present;
#X obj 537 381 spigot 0;
#X obj 111 514 r master-ticks;
#X text 959 474 always send ticks out as midiclock;
#X text 183 7 a MIDI and LINK enabled master metronome;
#X text 162 31 if a LINK session is present \, use that. otherwise
use internal or MIDI clock if present.;
#X text 984 254 calculate beat divs, f 23;
#X obj 111 560 t f b;
#X obj 143 584 f;
#X obj 179 585 + 1;
#X obj 143 605 % 30;
#X msg 166 673 0;
#X obj 93 771 f;
#X obj 93 793 / 30;
#X obj 143 649 t b b b, f 12;
#X msg 136 673 0;
#X obj 143 627 sel 29;
#X obj 111 712 +;
#X obj 111 734 t f f, f 6;
#X obj 93 815 i;
#X connect 0 0 3 0;
#X connect 0 0 35 1;
#X connect 1 0 32 0;
#X connect 1 0 30 0;
#X connect 1 0 3 1;
#X connect 2 0 48 0;
#X connect 3 0 33 0;
#X connect 4 0 0 0;
#X connect 5 0 10 0;
#X connect 6 0 12 0;
#X connect 6 0 13 0;
#X connect 7 0 12 0;
#X connect 7 0 11 0;
#X connect 8 0 7 1;
#X connect 8 0 9 0;
#X connect 9 0 6 1;
#X connect 10 0 1 0;
#X connect 14 0 16 0;
#X connect 15 0 17 0;
#X connect 21 0 18 0;
#X connect 22 0 19 0;
#X connect 24 0 25 0;
#X connect 25 0 26 0;
#X connect 28 0 21 0;
#X connect 28 0 22 0;
#X connect 28 0 14 0;
#X connect 28 0 15 0;
#X connect 28 0 23 0;
#X connect 30 0 35 0;
#X connect 30 1 39 0;
#X connect 32 0 6 0;
#X connect 33 0 34 0;
#X connect 35 0 42 0;
#X connect 36 0 37 0;
#X connect 37 0 38 0;
#X connect 37 0 42 1;
#X connect 38 0 32 1;
#X connect 38 0 33 1;
#X connect 39 0 12 0;
#X connect 39 0 40 0;
#X connect 41 0 39 1;
#X connect 42 0 31 0;
#X connect 43 0 2 0;
#X connect 48 0 58 0;
#X connect 48 1 49 0;
#X connect 49 0 50 0;
#X connect 49 0 51 0;
#X connect 50 0 49 1;
#X connect 51 0 57 0;
#X connect 52 0 58 1;
#X connect 53 0 54 0;
#X connect 54 0 60 0;
#X connect 55 0 56 0;
#X connect 55 1 52 0;
#X connect 55 2 53 0;
#X connect 56 0 49 1;
#X connect 57 0 55 0;
#X connect 58 0 59 0;
#X connect 59 0 53 1;
#X connect 59 1 58 1;
#X connect 60 0 7 0;
