#N canvas 46 91 1193 592 10;
#X declare -path CG-Pd-Library-Local/sequencer;
#X declare -path CG-Pd-Library-Local/externals;
#X declare -path CG-Pd-Library-Local/metronome;
#X declare -path patchmenu-no-detent;
#X text 29 41 Sampler Manager;
#X obj 869 429 throw~ outL;
#X obj 851 454 throw~ outR;
#X obj 850 258 catch~ samp_voice_out;
#X obj 565 318 r notes;
#X obj 542 438 cg-xandy 1, f 28;
#X obj 638 475 s the-notes;
#N canvas 298 50 799 623 test-synth 0;
#X obj 219 66 inlet;
#X obj 219 110 pack 0 0 0;
#X obj 308 398 throw~ \$0-synth;
#X obj 220 234 route 1 2 3 4 5 6 7 8, f 60;
#X obj 219 88 poly 8 1, f 10;
#X obj 243 292 voice;
#X obj 346 294 voice;
#X obj 454 297 voice;
#X obj 398 273 voice;
#X obj 295 272 voice;
#X obj 192 271 voice;
#X obj 572 296 voice;
#X obj 516 272 voice;
#X connect 0 0 4 0;
#X connect 1 0 3 0;
#X connect 3 0 10 0;
#X connect 3 1 5 0;
#X connect 3 2 9 0;
#X connect 3 3 6 0;
#X connect 3 4 8 0;
#X connect 3 5 7 0;
#X connect 3 6 12 0;
#X connect 3 7 11 0;
#X connect 4 0 1 0;
#X connect 4 1 1 1;
#X connect 4 2 1 2;
#X connect 5 0 2 0;
#X connect 6 0 2 0;
#X connect 7 0 2 0;
#X connect 8 0 2 0;
#X connect 9 0 2 0;
#X connect 10 0 2 0;
#X connect 11 0 2 0;
#X connect 12 0 2 0;
#X restore 542 504 pd test-synth;
#X obj 629 350 list prepend notes;
#X obj 629 372 route list;
#X obj 542 291 r 2-\$0-XandY;
#X obj 872 310 catch~ \$0-synth;
#X obj 851 366 *~ 1;
#X obj 64 367 s enableSubMenu;
#X obj 13 278 loadbang;
#X obj 13 344 t b b, f 9;
#X obj 13 310 versioncheck 3;
#N canvas 26 61 1376 762 mapping 0;
#X obj 129 58 * 300;
#X obj 129 80 + 20;
#X obj 129 102 i;
#X obj 129 38 f;
#X obj 524 128 i;
#X obj 524 99 * 100;
#X obj 394 139 s decay-local;
#X obj 1600 299 r aux;
#X obj 1531 459 sel 0 1;
#X msg 1572 481 3;
#X obj 1554 513 s led;
#X msg 1531 481 0;
#X obj 584 391 s oscOut;
#X msg 433 324 /oled/gFlip 3;
#X obj 524 232 t b b a b;
#X obj 524 69 f;
#X obj 1351 392 r decay-local;
#X msg 296 41 x \$1;
#X msg 361 41 y \$1;
#X obj 296 77 s 2-\$0-XandY;
#X obj 1351 500 s 2-\$0-XandY;
#X msg 1351 470 decay \$1;
#X msg 1429 470 aux-play \$1;
#X msg 1620 678 print bang;
#X obj 1620 720 s 2-\$0-XandY;
#X msg 1714 678 clear bang;
#X obj 1351 414 * 400;
#X msg 584 267 /oled/gFillArea 3 60 44 72 10 0;
#X msg 563 295 /oled/gPrintln 3 66 45 8 1 Dec: \$1%;
#X msg 544 322 /oled/gInvertArea 3 94 44 28 9;
#X obj 1682 627 t b b;
#X obj 1351 436 + 10;
#N canvas 7 50 726 502 hold-start/stop-aux 0;
#X obj 57 23 inlet aux;
#X obj 256 266 outlet tap trigger;
#X text 238 44 if 1 start delay 500;
#X obj 57 165 del 500;
#X msg 80 138 stop;
#X text 295 95 while 1 is on if 0 comes kill delay send out play command
;
#X obj 57 63 sel 1 0, f 47;
#X obj 220 96 t b b, f 9;
#X obj 256 186 spigot 0;
#X obj 57 95 t b b b;
#X msg 309 160 1;
#X obj 256 228 t b b, f 11;
#X msg 372 165 0;
#X obj 57 217 t b b;
#X obj 57 267 outlet hold trigger;
#X connect 0 0 6 0;
#X connect 3 0 13 0;
#X connect 4 0 3 0;
#X connect 6 0 9 0;
#X connect 6 1 7 0;
#X connect 7 0 8 0;
#X connect 7 1 4 0;
#X connect 8 0 11 0;
#X connect 9 0 3 0;
#X connect 9 1 4 0;
#X connect 9 2 10 0;
#X connect 10 0 8 1;
#X connect 11 0 1 0;
#X connect 11 1 12 0;
#X connect 12 0 8 1;
#X connect 13 0 14 0;
#X connect 13 1 12 0;
#X restore 1600 357 pd hold-start/stop-aux;
#X obj 1562 409 + 1;
#X obj 1531 431 % 2;
#X text 1010 95 PAGE 1;
#X text 933 529 PAGE 2;
#X text 1358 296 aux;
#X obj 130 16 r p1k4;
#X obj 365 16 r p1k2;
#X obj 524 32 r p1k3;
#X obj 631 33 r page-ready;
#X obj 524 171 spigot 0;
#X obj 631 81 t b b;
#X msg 642 108 1;
#X msg 700 167 0;
#X obj 1660 555 r page-ready;
#X obj 1660 582 sel 1, f 9;
#X obj 294 17 r p1k1;
#X msg 388 853 xcount \$1;
#X msg 466 853 ycount \$1;
#X msg 994 736 xmode \$1;
#X msg 1085 738 ymode \$1;
#X obj 388 904 s 2-\$0-XandY;
#X obj 994 780 s 2-\$0-XandY;
#X obj 1000 639 + 1;
#X obj 1000 661 i;
#X obj 1078 639 + 1;
#X obj 1078 661 i;
#X obj 1000 616 * 4;
#X obj 1078 616 * 4;
#X obj 611 858 s Yloop-label;
#X obj 228 871 s Xloop-label;
#X msg 611 834 Y-Loop: \$1;
#X msg 199 837 X-Loop: \$1;
#X msg 771 798 X-Mode: \$1;
#X obj 824 648 sel 1 2 3 4;
#X obj 770 766 symbol;
#X msg 788 692 up;
#X msg 797 731 down;
#X msg 848 734 updown;
#X msg 915 728 swing;
#X obj 1213 646 sel 1 2 3 4;
#X obj 1159 764 symbol;
#X msg 1177 690 up;
#X msg 1186 729 down;
#X msg 1237 732 updown;
#X msg 1304 726 swing;
#X msg 1160 796 Y-Mode: \$1;
#X obj 771 824 s Xmode-label;
#X obj 1160 822 s Ymode-label;
#X obj 747 205 s oscOut;
#X msg 746 177 /oled/gFillArea 3 0 0 127 10 0;
#X obj 588 425 r page-ready;
#X msg 588 474 1;
#X msg 648 503 0;
#X obj 648 476 t b;
#X obj 390 501 r p2k1;
#X obj 390 563 f;
#X obj 293 703 spigot 0;
#X obj 588 452 sel 2, f 9;
#X obj 489 563 f;
#X obj 581 744 spigot 0;
#X obj 489 501 r p2k2;
#X obj 648 525 f;
#X obj 589 495 t b f;
#X obj 1081 293 r page-ready;
#X msg 1081 372 1;
#X msg 1141 401 0;
#X obj 1141 374 t b;
#X obj 915 485 f;
#X obj 806 590 spigot 0;
#X obj 1081 320 sel 2, f 9;
#X obj 1014 485 f;
#X obj 1189 584 spigot 0;
#X obj 1141 423 f;
#X obj 1082 393 t b f;
#X obj 915 403 r p2k3;
#X obj 1014 403 r p2k4;
#X obj 700 145 t b f b, f 8;
#X obj 634 59 sel 1;
#X obj 324 186 r page-ready;
#X msg 335 261 1;
#X msg 386 273 0;
#X obj 327 212 sel 1;
#X obj 386 251 t b, f 8;
#X obj 335 291 f;
#X obj 226 816 + 1;
#X obj 622 806 + 1;
#X obj 388 754 * 8;
#X obj 388 782 + 0.49999;
#X obj 388 804 i;
#X obj 388 826 min 7;
#X obj 498 739 * 8;
#X obj 498 767 + 0.49999;
#X obj 498 789 i;
#X obj 498 811 min 7;
#X obj 80 633 map-knob 2 1 Xloop;
#X obj 80 663 map-knob 2 2 Yloop;
#X obj 80 693 map-knob 2 3 Xmode;
#X obj 81 723 map-knob 2 4 Ymode;
#X obj 1531 409 f 1;
#X obj 50 135 metronome360 1;
#X obj 40 19 loadbang;
#X msg 40 61 1;
#X obj 50 197 s beat-clock;
#X obj 166 524 s oscOut;
#X msg 15 457 /oled/gFlip 3;
#X obj 106 365 t b b a b;
#X obj 106 334 spigot 0;
#X msg 166 400 /oled/gFillArea 3 60 55 72 10 0;
#X msg 126 455 /oled/gInvertArea 3 94 55 28 9;
#X obj 1081 342 del 5;
#X obj 1621 325 r fs;
#X obj 194 10 r page-ready;
#X obj 194 31 sel 1;
#X obj 194 52 del 5;
#X obj 1082 418 del 2;
#X obj 589 516 del 2;
#X obj 40 40 del 100;
#N canvas 352 198 762 480 print-BPM 0;
#X obj 73 8 inlet;
#X obj 26 8 inlet;
#X obj 59 123 pack 0 0;
#X obj 77 96 t b a;
#X obj 59 144 route 1 2 3 4, f 28;
#X obj 207 14 inlet re-print;
#X obj 57 351 t b a, f 9;
#X obj 57 397 list, f 8;
#X msg 57 372 69;
#X obj 57 418 route 69;
#X obj 57 439 outlet;
#X obj 207 35 t b;
#X obj 223 197 pack 0 s;
#X obj 65 232 pack 0 s;
#X obj 110 197 symbol BPM;
#X obj 139 263 pack 0 s;
#X obj 184 228 symbol LNK;
#X obj 268 162 symbol MID;
#X obj 250 94 bng 15 250 50 0 empty empty empty 17 7 0 10 -262144 -1
-1;
#X obj 268 141 t b;
#X obj 315 99 loadbang;
#X connect 0 0 2 0;
#X connect 1 0 3 0;
#X connect 2 0 4 0;
#X connect 3 0 2 0;
#X connect 3 1 2 1;
#X connect 4 0 13 0;
#X connect 4 1 12 0;
#X connect 4 2 15 0;
#X connect 4 3 13 0;
#X connect 5 0 11 0;
#X connect 6 0 8 0;
#X connect 6 1 7 1;
#X connect 7 0 9 0;
#X connect 8 0 7 0;
#X connect 9 0 10 0;
#X connect 11 0 8 0;
#X connect 12 0 6 0;
#X connect 13 0 6 0;
#X connect 14 0 13 1;
#X connect 15 0 6 0;
#X connect 16 0 15 1;
#X connect 17 0 12 1;
#X connect 18 0 19 0;
#X connect 19 0 14 0;
#X connect 19 0 16 0;
#X connect 19 0 17 0;
#X connect 20 0 19 0;
#X restore 90 165 pd print-BPM;
#X msg 146 428 /oled/gPrintln 3 66 56 8 1 \$2: \$1;
#X connect 0 0 1 0;
#X connect 1 0 2 0;
#X connect 2 0 132 1;
#X connect 3 0 0 0;
#X connect 4 0 42 0;
#X connect 5 0 4 0;
#X connect 7 0 32 0;
#X connect 8 0 11 0;
#X connect 8 1 9 0;
#X connect 9 0 10 0;
#X connect 11 0 10 0;
#X connect 13 0 12 0;
#X connect 14 0 13 0;
#X connect 14 1 29 0;
#X connect 14 2 28 0;
#X connect 14 3 27 0;
#X connect 15 0 5 0;
#X connect 15 0 6 0;
#X connect 16 0 26 0;
#X connect 17 0 19 0;
#X connect 18 0 19 0;
#X connect 21 0 20 0;
#X connect 22 0 20 0;
#X connect 23 0 24 0;
#X connect 25 0 24 0;
#X connect 26 0 31 0;
#X connect 27 0 12 0;
#X connect 28 0 12 0;
#X connect 29 0 12 0;
#X connect 30 0 23 0;
#X connect 30 1 25 0;
#X connect 31 0 21 0;
#X connect 32 0 30 0;
#X connect 32 1 131 0;
#X connect 33 0 131 1;
#X connect 34 0 8 0;
#X connect 34 0 22 0;
#X connect 38 0 3 0;
#X connect 39 0 18 0;
#X connect 40 0 15 0;
#X connect 41 0 110 0;
#X connect 42 0 14 0;
#X connect 43 0 4 0;
#X connect 43 1 44 0;
#X connect 44 0 42 1;
#X connect 45 0 42 1;
#X connect 46 0 47 0;
#X connect 47 0 23 0;
#X connect 48 0 17 0;
#X connect 49 0 53 0;
#X connect 50 0 53 0;
#X connect 51 0 54 0;
#X connect 52 0 54 0;
#X connect 55 0 56 0;
#X connect 56 0 51 0;
#X connect 56 0 101 0;
#X connect 57 0 58 0;
#X connect 58 0 52 0;
#X connect 58 0 104 0;
#X connect 59 0 55 0;
#X connect 60 0 57 0;
#X connect 63 0 61 0;
#X connect 64 0 62 0;
#X connect 65 0 79 0;
#X connect 66 0 68 0;
#X connect 66 1 69 0;
#X connect 66 2 70 0;
#X connect 66 3 71 0;
#X connect 67 0 65 0;
#X connect 68 0 67 0;
#X connect 69 0 67 0;
#X connect 70 0 67 0;
#X connect 71 0 67 0;
#X connect 72 0 74 0;
#X connect 72 1 75 0;
#X connect 72 2 76 0;
#X connect 72 3 77 0;
#X connect 73 0 78 0;
#X connect 74 0 73 0;
#X connect 75 0 73 0;
#X connect 76 0 73 0;
#X connect 77 0 73 0;
#X connect 78 0 80 0;
#X connect 82 0 81 0;
#X connect 83 0 90 0;
#X connect 84 0 95 0;
#X connect 85 0 94 0;
#X connect 86 0 85 0;
#X connect 87 0 88 0;
#X connect 88 0 119 0;
#X connect 89 0 117 0;
#X connect 90 0 84 0;
#X connect 90 1 86 0;
#X connect 91 0 123 0;
#X connect 92 0 118 0;
#X connect 93 0 91 0;
#X connect 94 0 92 1;
#X connect 94 0 89 1;
#X connect 95 0 148 0;
#X connect 95 1 94 0;
#X connect 96 0 102 0;
#X connect 97 0 106 0;
#X connect 98 0 105 0;
#X connect 99 0 98 0;
#X connect 100 0 59 0;
#X connect 101 0 66 0;
#X connect 102 0 142 0;
#X connect 102 1 99 0;
#X connect 103 0 60 0;
#X connect 104 0 72 0;
#X connect 105 0 104 1;
#X connect 105 0 101 1;
#X connect 106 0 147 0;
#X connect 106 1 105 0;
#X connect 107 0 100 0;
#X connect 108 0 103 0;
#X connect 109 0 45 0;
#X connect 109 2 82 0;
#X connect 110 0 43 0;
#X connect 110 1 109 0;
#X connect 111 0 114 0;
#X connect 112 0 116 0;
#X connect 113 0 116 0;
#X connect 114 0 112 0;
#X connect 114 1 115 0;
#X connect 115 0 113 0;
#X connect 116 0 139 1;
#X connect 117 0 64 0;
#X connect 118 0 63 0;
#X connect 119 0 120 0;
#X connect 120 0 121 0;
#X connect 121 0 122 0;
#X connect 122 0 49 0;
#X connect 122 0 89 0;
#X connect 123 0 124 0;
#X connect 124 0 125 0;
#X connect 125 0 126 0;
#X connect 126 0 50 0;
#X connect 126 0 92 0;
#X connect 131 0 33 0;
#X connect 131 0 34 0;
#X connect 132 0 135 0;
#X connect 132 1 150 0;
#X connect 132 2 150 1;
#X connect 133 0 149 0;
#X connect 134 0 132 0;
#X connect 137 0 136 0;
#X connect 138 1 141 0;
#X connect 138 2 151 0;
#X connect 138 3 140 0;
#X connect 139 0 138 0;
#X connect 140 0 136 0;
#X connect 141 0 136 0;
#X connect 142 0 97 0;
#X connect 143 0 32 0;
#X connect 144 0 145 0;
#X connect 145 0 146 0;
#X connect 146 0 150 2;
#X connect 147 0 103 0;
#X connect 147 0 100 0;
#X connect 148 0 91 0;
#X connect 148 0 88 0;
#X connect 149 0 134 0;
#X connect 150 0 139 0;
#X connect 151 0 136 0;
#X restore 296 178 pd mapping;
#X obj 629 402 spigot 0, f 13;
#X obj 677 245 r page-ready;
#X obj 677 272 sel 1, f 11;
#X obj 677 294 t b b;
#X msg 704 318 1;
#X msg 751 318 0;
#X obj 751 296 t b b;
#X msg 13 424 \; screenLine1 1) Main \; screenLine2 2) Options \; screenLine3
<-- HOME \;;
#X obj 1006 440 cg-osc-scope 59 40 70 0;
#X obj 1013 327 r page-ready;
#X obj 1013 354 sel 1, f 9;
#X obj 1013 376 t b b;
#X msg 1024 403 1;
#X msg 1073 400 0;
#X obj 1073 378 t b b;
#N canvas 13 50 450 300 CG-PdLibrary-Local 0;
#X obj 502 35 r cgSc-1-slots;
#X obj 60 98 declare -path CG-Pd-Library-Local/sequencer;
#X obj 58 130 declare -path CG-Pd-Library-Local/externals;
#X obj 59 165 declare -path CG-Pd-Library-Local/metronome;
#X restore 773 11 pd CG-PdLibrary-Local;
#X obj 872 332 *~ 0.76;
#X obj 11 234 declare -path patchmenu-no-detent;
#X obj 13 399 patchmenu-no-detent 2;
#N canvas 4 50 451 300 sample-bank 0;
#X obj 29 87 bng 15 250 50 0 empty empty empty 17 7 0 10 -262144 -1
-1;
#X obj 469 87 bng 15 250 50 0 empty empty empty 17 7 0 10 -262144 -1
-1;
#X obj 246 86 bng 15 250 50 0 empty empty empty 17 7 0 10 -262144 -1
-1;
#X obj 681 89 bng 15 250 50 0 empty empty empty 17 7 0 10 -262144 -1
-1;
#X obj 899 88 bng 15 250 50 0 empty empty empty 17 7 0 10 -262144 -1
-1;
#X obj 1125 75 bng 15 250 50 0 empty empty empty 17 7 0 10 -262144
-1 -1;
#X obj 468 137 bng 15 250 50 0 empty empty empty 17 7 0 10 -262144
-1 -1;
#X obj 245 135 bng 15 250 50 0 empty empty empty 17 7 0 10 -262144
-1 -1;
#X obj 681 137 bng 15 250 50 0 empty empty empty 17 7 0 10 -262144
-1 -1;
#X obj 897 134 bng 15 250 50 0 empty empty empty 17 7 0 10 -262144
-1 -1;
#X obj 1127 123 bng 15 250 50 0 empty empty empty 17 7 0 10 -262144
-1 -1;
#X obj 470 185 bng 15 250 50 0 empty empty empty 17 7 0 10 -262144
-1 -1;
#X obj 245 188 bng 15 250 50 0 empty empty empty 17 7 0 10 -262144
-1 -1;
#X obj 681 186 bng 15 250 50 0 empty empty empty 17 7 0 10 -262144
-1 -1;
#X obj 897 187 bng 15 250 50 0 empty empty empty 17 7 0 10 -262144
-1 -1;
#X obj 1130 175 bng 15 250 50 0 empty empty empty 17 7 0 10 -262144
-1 -1;
#X obj 29 135 bng 15 250 50 0 empty empty empty 17 7 0 10 -262144 -1
-1;
#X obj 29 185 bng 15 250 50 0 empty empty empty 17 7 0 10 -262144 -1
-1;
#X obj 471 235 bng 15 250 50 0 empty empty empty 17 7 0 10 -262144
-1 -1;
#X obj 246 236 bng 15 250 50 0 empty empty empty 17 7 0 10 -262144
-1 -1;
#X obj 682 237 bng 15 250 50 0 empty empty empty 17 7 0 10 -262144
-1 -1;
#X obj 900 236 bng 15 250 50 0 empty empty empty 17 7 0 10 -262144
-1 -1;
#X obj 1130 229 bng 15 250 50 0 empty empty empty 17 7 0 10 -262144
-1 -1;
#X obj 29 234 bng 15 250 50 0 empty empty empty 17 7 0 10 -262144 -1
-1;
#X obj 471 261 sampler-voice 21.wav 20;
#X obj 30 110 sampler-voice 1.wav 0;
#X obj 30 158 sampler-voice 7.wav 6;
#X obj 30 208 sampler-voice 13.wav 12;
#X obj 30 260 sampler-voice 19.wav 18;
#X obj 246 259 sampler-voice 20.wav 19;
#X obj 245 209 sampler-voice 14.wav 13;
#X obj 245 157 sampler-voice 8.wav 7;
#X obj 246 110 sampler-voice 2.wav 1;
#X obj 471 110 sampler-voice 3.wav 2;
#X obj 468 159 sampler-voice 9.wav 8;
#X obj 470 208 sampler-voice 15.wav 14;
#X obj 682 260 sampler-voice 22.wav 21;
#X obj 681 209 sampler-voice 16.wav 15;
#X obj 681 160 sampler-voice 10.wav 9;
#X obj 680 108 sampler-voice 4.wav 3;
#X obj 899 109 sampler-voice 5.wav 4;
#X obj 898 158 sampler-voice 11.wav 10;
#X obj 897 210 sampler-voice 17.wav 16;
#X obj 900 259 sampler-voice 23.wav 22;
#X obj 1123 99 sampler-voice 6.wav 5;
#X obj 1127 147 sampler-voice 12.wav 11;
#X obj 1130 201 sampler-voice 18.wav 17;
#X obj 1130 252 sampler-voice 24.wav 23;
#X connect 0 0 25 0;
#X connect 1 0 33 0;
#X connect 2 0 32 0;
#X connect 3 0 39 0;
#X connect 4 0 40 0;
#X connect 5 0 44 0;
#X connect 6 0 34 0;
#X connect 7 0 31 0;
#X connect 8 0 38 0;
#X connect 9 0 41 0;
#X connect 10 0 45 0;
#X connect 11 0 35 0;
#X connect 12 0 30 0;
#X connect 13 0 37 0;
#X connect 14 0 42 0;
#X connect 15 0 46 0;
#X connect 16 0 26 0;
#X connect 17 0 27 0;
#X connect 18 0 24 0;
#X connect 19 0 29 0;
#X connect 20 0 36 0;
#X connect 21 0 43 0;
#X connect 22 0 47 0;
#X connect 23 0 28 0;
#X restore 13 117 pd sample-bank;
#X obj 608 194 s oscOut;
#X msg 608 149 /oled/gShowInfoBar 3 \$1;
#X obj 608 34 r page-ready;
#X obj 608 55 sel 1, f 9;
#X msg 608 121 0;
#X obj 659 75 t b;
#X msg 659 100 1;
#X obj 608 96 t b b;
#X msg 13 378 0;
#X msg 760 147 /oled/gFillArea 3 0 0 126 8 0;
#X obj 850 280 *~ 0.45;
#X connect 3 0 48 0;
#X connect 4 0 8 0;
#X connect 4 0 7 0;
#X connect 4 0 6 0;
#X connect 5 0 7 0;
#X connect 5 1 6 0;
#X connect 8 0 9 0;
#X connect 9 0 18 0;
#X connect 10 0 5 0;
#X connect 11 0 34 0;
#X connect 12 0 1 0;
#X connect 12 0 2 0;
#X connect 12 0 26 0;
#X connect 14 0 16 0;
#X connect 15 0 46 0;
#X connect 15 1 13 0;
#X connect 16 0 15 0;
#X connect 18 0 5 0;
#X connect 19 0 20 0;
#X connect 20 0 21 0;
#X connect 20 1 24 0;
#X connect 21 1 22 0;
#X connect 22 0 18 1;
#X connect 23 0 18 1;
#X connect 24 0 23 0;
#X connect 27 0 28 0;
#X connect 28 0 29 0;
#X connect 28 1 32 0;
#X connect 29 1 30 0;
#X connect 30 0 26 1;
#X connect 31 0 26 1;
#X connect 32 0 31 0;
#X connect 34 0 12 0;
#X connect 36 0 25 0;
#X connect 39 0 38 0;
#X connect 40 0 41 0;
#X connect 41 0 45 0;
#X connect 41 1 43 0;
#X connect 42 0 39 0;
#X connect 43 0 44 0;
#X connect 44 0 39 0;
#X connect 45 0 42 0;
#X connect 45 1 47 0;
#X connect 46 0 36 0;
#X connect 47 0 38 0;
#X connect 48 0 12 0;
