#N canvas 490 50 1336 942 10;
#X obj 127 480 mtof;
#X obj 96 577 sig~;
#X text 254 34 note messages;
#X text 167 483 outputs midi note number from left outlet;
#X obj 276 836 *~;
#X text 167 516 convert it to signal so frequency will be constantly
updated;
#X obj 277 58 inlet;
#X obj 276 888 outlet~;
#X text 230 567 sorta arbitrary scale of harmonic content amount to
avoid aliasing... assumes 44.1k sampling rate .....;
#X obj 807 496 vline~;
#X text 23 16 Synth Voice;
#X obj 807 568 *~;
#X obj 186 656 *~ 1;
#X obj 344 112 sel 0, f 30;
#X obj 277 80 unpack 0 0;
#X obj 690 730 / 127;
#X obj 690 752 sqrt;
#N canvas 36 50 788 508 complex-fm 0;
#N canvas 4 50 1287 854 oper 0;
#X obj 435 281 cos~;
#X obj 435 211 phasor~;
#X obj 435 233 +~, f 12;
#X obj 435 255 wrap~;
#X obj 435 303 outlet~;
#X obj 686 141 inlet~ phase-mod;
#X obj 434 135 inlet~ carier;
#X obj 434 157 *~, f 17;
#X obj 645 89 inlet~;
#X connect 0 0 4 0;
#X connect 1 0 2 0;
#X connect 2 0 3 0;
#X connect 3 0 0 0;
#X connect 5 0 2 1;
#X connect 6 0 7 0;
#X connect 7 0 1 0;
#X connect 8 0 7 1;
#X restore 160 242 pd oper;
#X obj 160 16 inlet~;
#X obj 197 471 outlet~;
#X obj 603 107 inlet~ control;
#X obj 186 183 loadbang;
#N canvas 4 50 1287 854 oper 0;
#X obj 435 281 cos~;
#X obj 435 211 phasor~;
#X obj 435 233 +~, f 12;
#X obj 435 255 wrap~;
#X obj 435 303 outlet~;
#X obj 686 141 inlet~ phase-mod;
#X obj 434 135 inlet~ carier;
#X obj 434 157 *~, f 17;
#X obj 645 89 inlet~;
#X connect 0 0 4 0;
#X connect 1 0 2 0;
#X connect 2 0 3 0;
#X connect 3 0 0 0;
#X connect 5 0 2 1;
#X connect 6 0 7 0;
#X connect 7 0 1 0;
#X connect 8 0 7 1;
#X restore 318 186 pd oper;
#X obj 341 129 loadbang;
#X obj 430 178 *~;
#X obj 55 138 vline~;
#X obj 55 160 *~;
#X obj 64 57 r envelope-\$0;
#X obj 64 79 sel 0, f 10;
#X obj 136 369 *~;
#X obj 439 90 vline~;
#X obj 448 9 r envelope-\$0;
#X obj 448 31 sel 0, f 10;
#X msg 448 53 0 10;
#X msg 64 101 0 900;
#X obj 438 112 *~;
#N canvas 4 50 1287 854 oper 0;
#X obj 435 281 cos~;
#X obj 435 211 phasor~;
#X obj 435 233 +~, f 12;
#X obj 435 255 wrap~;
#X obj 435 303 outlet~;
#X obj 686 141 inlet~ phase-mod;
#X obj 434 135 inlet~ carier;
#X obj 434 157 *~, f 17;
#X obj 645 89 inlet~;
#X connect 0 0 4 0;
#X connect 1 0 2 0;
#X connect 2 0 3 0;
#X connect 3 0 0 0;
#X connect 5 0 2 1;
#X connect 6 0 7 0;
#X connect 7 0 1 0;
#X connect 8 0 7 1;
#X restore 285 73 pd oper;
#X obj 308 16 loadbang;
#X obj 285 95 *~;
#X obj 285 117 *~ 0.45;
#X obj 433 201 *~ 0.15;
#X obj 282 218 *~ 0.01;
#X msg 192 204 0.333333;
#N canvas 4 50 1287 854 oper 0;
#X obj 435 281 cos~;
#X obj 435 211 phasor~;
#X obj 435 233 +~, f 12;
#X obj 435 255 wrap~;
#X obj 435 303 outlet~;
#X obj 686 141 inlet~ phase-mod;
#X obj 434 135 inlet~ carier;
#X obj 434 157 *~, f 17;
#X obj 645 89 inlet~;
#X connect 0 0 4 0;
#X connect 1 0 2 0;
#X connect 2 0 3 0;
#X connect 3 0 0 0;
#X connect 5 0 2 1;
#X connect 6 0 7 0;
#X connect 7 0 1 0;
#X connect 8 0 7 1;
#X restore 269 320 pd oper;
#X obj 295 261 loadbang;
#X obj 161 263 *~ 0.7;
#X obj 237 251 *~ 0.1;
#X obj 269 342 *~ 0.7;
#X msg 312 38 1.001;
#X msg 132 100 \$1 10 \, 0.5 500 10;
#X msg 299 285 0.335;
#X msg 516 53 \$1 2 \, 0.5 200 2 \, 1.2 500 202;
#X msg 345 150 5;
#X connect 0 0 28 0;
#X connect 1 0 0 0;
#X connect 1 0 5 0;
#X connect 1 0 19 0;
#X connect 1 0 26 0;
#X connect 3 0 7 1;
#X connect 4 0 25 0;
#X connect 5 0 24 0;
#X connect 6 0 35 0;
#X connect 7 0 23 0;
#X connect 8 0 9 0;
#X connect 8 0 9 1;
#X connect 9 0 12 1;
#X connect 10 0 11 0;
#X connect 11 0 17 0;
#X connect 11 1 32 0;
#X connect 12 0 2 0;
#X connect 13 0 18 0;
#X connect 13 0 18 1;
#X connect 14 0 15 0;
#X connect 15 0 16 0;
#X connect 15 1 34 0;
#X connect 16 0 13 0;
#X connect 17 0 8 0;
#X connect 18 0 7 0;
#X connect 19 0 21 0;
#X connect 20 0 31 0;
#X connect 21 0 22 0;
#X connect 22 0 0 2;
#X connect 23 0 21 1;
#X connect 23 0 5 2;
#X connect 23 0 26 2;
#X connect 24 0 19 2;
#X connect 25 0 0 1;
#X connect 26 0 30 0;
#X connect 27 0 33 0;
#X connect 28 0 12 0;
#X connect 29 0 0 2;
#X connect 30 0 28 0;
#X connect 30 0 29 0;
#X connect 31 0 19 1;
#X connect 32 0 8 0;
#X connect 33 0 26 1;
#X connect 34 0 13 0;
#X connect 35 0 5 1;
#X restore 82 654 pd complex-fm;
#X obj 457 270 s envelope-\$0;
#X msg 457 152 0;
#X obj 276 858 *~ 0.25;
#X text 847 732 if note is still playing: duck. if note playing trigger
from 0;
#X obj 862 455 r \$0-2-vline;
#X obj 691 886 s \$0-2-vline;
#X msg 684 843 0 5 \, \$1 10 5;
#X obj 185 625 sig~ 0.5;
#X msg 710 400 0 100;
#X connect 0 0 1 0;
#X connect 1 0 17 0;
#X connect 4 0 20 0;
#X connect 6 0 14 0;
#X connect 9 0 11 0;
#X connect 9 0 11 1;
#X connect 11 0 4 1;
#X connect 12 0 17 1;
#X connect 13 0 26 0;
#X connect 13 0 19 0;
#X connect 13 1 15 0;
#X connect 14 0 0 0;
#X connect 14 1 13 0;
#X connect 15 0 16 0;
#X connect 16 0 18 0;
#X connect 16 0 24 0;
#X connect 17 0 4 0;
#X connect 19 0 18 0;
#X connect 20 0 7 0;
#X connect 22 0 9 0;
#X connect 24 0 23 0;
#X connect 25 0 12 0;
#X connect 26 0 9 0;
