#N canvas 680 205 1037 839 10;
#X obj 407 677 s oscOut;
#X msg 207 613 /oled/gFlip 3;
#X obj 361 367 t b s;
#X obj 498 539 list;
#X msg 498 513 1;
#X obj 498 561 route 1;
#X obj 33 27 inlet trigger;
#X obj 361 141 spigot 0;
#X obj 608 468 loadbang;
#X msg 608 490 0 0 0;
#X obj 361 102 symbol;
#X msg 498 587 /oled/gPrintln 3 \$1 \$2 8 0 \$3;
#X msg 407 619 /oled/gPrintln 3 \$1 \$2 8 1 \$3;
#X obj 361 432 pack 2 33 s;
#X obj 417 173 loadbang;
#X obj 417 199 f \$2;
#X obj 361 60 r cgSc-\$1-\$2label;
#X obj 33 97 s cgSc-\$1-\$2;
#X obj 417 283 * 11;
#X obj 417 227 t f f, f 8;
#X obj 470 307 i;
#X obj 470 285 / 5;
#X obj 361 399 f, f 16;
#X msg 510 356 66;
#X obj 306 34 r cgSc-\$1-print!;
#X msg 470 352 2;
#X obj 470 250 - 1;
#X obj 417 345 - 0;
#X msg 427 319 0;
#X msg 544 355 55;
#X obj 470 330 sel 0 1, f 12;
#X obj 361 481 t b a a a b, f 20;
#X obj 414 111 r cgSc-1-mute-print;
#X connect 1 0 0 0;
#X connect 2 0 22 0;
#X connect 2 1 13 2;
#X connect 3 0 5 0;
#X connect 4 0 3 0;
#X connect 5 0 11 0;
#X connect 6 0 17 0;
#X connect 7 0 2 0;
#X connect 8 0 9 0;
#X connect 9 0 3 1;
#X connect 10 0 7 0;
#X connect 11 0 0 0;
#X connect 12 0 0 0;
#X connect 13 0 31 0;
#X connect 14 0 15 0;
#X connect 15 0 19 0;
#X connect 16 0 10 0;
#X connect 18 0 27 0;
#X connect 19 0 18 0;
#X connect 19 1 26 0;
#X connect 20 0 30 0;
#X connect 21 0 20 0;
#X connect 22 0 13 0;
#X connect 23 0 22 1;
#X connect 24 0 10 0;
#X connect 25 0 22 1;
#X connect 26 0 21 0;
#X connect 27 0 13 1;
#X connect 28 0 27 1;
#X connect 29 0 27 1;
#X connect 30 0 25 0;
#X connect 30 0 28 0;
#X connect 30 1 23 0;
#X connect 30 1 29 0;
#X connect 31 0 1 0;
#X connect 31 2 12 0;
#X connect 31 3 3 1;
#X connect 31 4 4 0;
#X connect 32 0 7 1;
