#N canvas 553 171 888 851 12;
#X obj 300 68 inlet~;
#X obj 497 47 inlet~;
#X obj 535 83 inlet~;
#X obj 213 651 outlet~;
#X obj 9 80 inlet~;
#X obj 119 79 inlet~;
#X obj 28 412 -~ 0.5;
#X obj 28 436 *~ 0.5;
#X obj 28 460 cos~;
#X obj 9 494 *~;
#X obj 138 412 -~ 0.5;
#X obj 138 436 *~ 0.5;
#X obj 138 460 cos~;
#X obj 119 494 *~;
#X obj 321 420 -~ 0.5;
#X obj 321 444 *~ 0.5;
#X obj 321 468 cos~;
#X obj 286 518 *~;
#X obj 518 433 -~ 0.5;
#X obj 518 457 *~ 0.5;
#X obj 518 481 cos~;
#X obj 499 515 *~;
#X obj 150 278 clip~ 0 0.5;
#X obj 149 331 /~ 0.5;
#X obj 333 319 -~ 0.25;
#X obj 332 348 /~ 0.5;
#X obj 526 309 clip~ 0.5 1;
#X obj 526 333 -~ 0.5;
#X obj 525 362 /~ 0.5;
#X obj 535 143 wrap~;
#X obj 333 295 clip~ 0.25 0.75;
#X obj 36 207 wrap~;
#X obj 36 183 +~ 0.5;
#X obj 31 247 clip~ 0.25 0.75;
#X obj 29 272 -~ 0.25;
#X obj 29 296 /~ 0.5;
#X connect 0 0 17 0;
#X connect 1 0 21 0;
#X connect 2 0 29 0;
#X connect 4 0 9 0;
#X connect 5 0 13 0;
#X connect 6 0 7 0;
#X connect 7 0 8 0;
#X connect 8 0 9 1;
#X connect 9 0 3 0;
#X connect 10 0 11 0;
#X connect 11 0 12 0;
#X connect 12 0 13 1;
#X connect 13 0 3 0;
#X connect 14 0 15 0;
#X connect 15 0 16 0;
#X connect 16 0 17 1;
#X connect 17 0 3 0;
#X connect 18 0 19 0;
#X connect 19 0 20 0;
#X connect 20 0 21 1;
#X connect 21 0 3 0;
#X connect 22 0 23 0;
#X connect 23 0 10 0;
#X connect 24 0 25 0;
#X connect 25 0 14 0;
#X connect 26 0 27 0;
#X connect 27 0 28 0;
#X connect 28 0 18 0;
#X connect 29 0 22 0;
#X connect 29 0 26 0;
#X connect 29 0 30 0;
#X connect 29 0 32 0;
#X connect 30 0 24 0;
#X connect 31 0 33 0;
#X connect 32 0 31 0;
#X connect 33 0 34 0;
#X connect 34 0 35 0;
#X connect 35 0 6 0;
