#N canvas 311 276 852 566 12;
#X obj 22 19 inlet;
#X obj 199 470 delay;
#X obj 235 30 inlet;
#X obj 22 371 f;
#X obj 61 371 + 1;
#X obj 133 311 0;
#X obj 235 54 route rootDel curve, f 32;
#X obj 345 78 s \$0-curve;
#X obj 263 456 v \$0-cur-del;
#X obj 256 373 r \$0-curve;
#X obj 231 329 v \$0-cur-del;
#X obj 154 234 v \$0-cur-del;
#X obj 231 427 t a a;
#X obj 199 514 s \$0-fb;
#X obj 64 233 r \$0-fb;
#X text 68 18 number to start;
#X obj 22 73 i;
#X obj 286 147 s \$0-max;
#X obj 94 397 r \$0-max;
#X obj 22 43 max 1;
#X text 29 143 start loop;
#X obj 22 112 t b b a b, f 57;
#X obj 418 224 t b b;
#X msg 357 397 stop;
#X obj 22 529 outlet;
#X obj 22 395 t a a a;
#X obj 72 483 sel 0 1;
#X text 548 25 Arg1: root-delay;
#X obj 235 78 s \$0-rootDel;
#X obj 179 181 r \$0-rootDel;
#X obj 154 208 f \$1;
#X text 548 55 Arg2: curve;
#X obj 231 403 * \$2;
#X obj 64 264 t b b;
#X obj 72 460 >=;
#X obj 94 421 - 1;
#X obj 27 201 t b b;
#X obj 132 355 v \$0-cur-del;
#X connect 0 0 19 0;
#X connect 1 0 13 0;
#X connect 2 0 6 0;
#X connect 3 0 4 0;
#X connect 3 0 25 0;
#X connect 4 0 3 1;
#X connect 5 0 3 1;
#X connect 6 0 28 0;
#X connect 6 1 7 0;
#X connect 9 0 32 1;
#X connect 10 0 32 0;
#X connect 12 0 1 1;
#X connect 12 1 8 0;
#X connect 14 0 33 0;
#X connect 16 0 21 0;
#X connect 18 0 35 0;
#X connect 19 0 16 0;
#X connect 21 0 36 0;
#X connect 21 1 30 0;
#X connect 21 2 17 0;
#X connect 21 3 22 0;
#X connect 22 0 5 0;
#X connect 22 1 23 0;
#X connect 23 0 1 0;
#X connect 25 0 24 0;
#X connect 25 1 34 0;
#X connect 26 0 1 0;
#X connect 29 0 30 1;
#X connect 30 0 11 0;
#X connect 32 0 12 0;
#X connect 33 0 3 0;
#X connect 33 1 10 0;
#X connect 34 0 26 0;
#X connect 35 0 34 1;
#X connect 36 0 3 0;
#X connect 36 1 37 0;
#X connect 37 0 1 1;
