#N canvas 831 78 1017 937 12;
#X obj 433 127 samplerate~;
#X obj 401 96 t a b;
#X obj 433 151 / 1000;
#X obj 401 182 /;
#X obj 154 777 vline~;
#X obj 431 266 / 5;
#X obj 110 12 bng 15 250 50 0 empty empty empty 17 7 0 10 -262144 -1
-1;
#X obj 220 347 max 1;
#X obj 220 371 until;
#X obj 220 395 f;
#X obj 277 396 + 1;
#X obj 220 317 t a b;
#X obj 268 350 0;
#X obj 343 509 *;
#X obj 220 679 pack 0 0 0;
#X obj 401 328 t a a;
#X obj 429 670 pack 0 0;
#X obj 220 251 t b b, f 20;
#X obj 220 289 5;
#X obj 220 419 t a a, f 18;
#X obj 250 527 t b;
#X obj 220 503 sel 4;
#X obj 220 527 0;
#X obj 253 720 t a;
#X obj 251 583 / 100;
#X obj 152 5 inlet;
#X obj 459 216 r \$0-points;
#X obj 250 284 r \$0-points;
#X obj 252 453 r \$0-points;
#X obj 591 14 inlet;
#X obj 591 68 s \$0-points;
#X obj 250 559 random 100;
#X obj 251 607 * 2;
#X obj 250 634 - 1;
#X obj 401 69 f \$1;
#X obj 682 67 s \$0-size;
#X obj 420 34 r \$0-size;
#X obj 713 99 s \$0-table;
#X obj 320 753 r \$0-table;
#X obj 320 777 list prepend set;
#X obj 320 801 list trim;
#X obj 214 758 r \$0-slope;
#X obj 818 95 s \$0-slope;
#X obj 591 38 route points tabSize table slope;
#X text 709 281 Arg1: table size in samples;
#X text 706 326 Arg2: name of table to fill;
#X text 711 371 Arg3: Slope value;
#X obj 131 860 tabwrite~ \$2;
#X msg 37 239 \; \$1 normalize;
#X obj 37 203 symbol \$2;
#X obj 99 137 r \$0-table;
#X obj 99 161 symbol;
#X obj 131 39 t b b b b, f 39;
#X obj 401 206 t a a;
#X obj 131 83 del;
#X obj 536 762 print huh;
#X obj 131 107 del 1;
#X obj 252 477 - 1;
#X obj 154 801 lop~ 5;
#X connect 0 0 2 0;
#X connect 1 0 3 0;
#X connect 1 1 0 0;
#X connect 2 0 3 1;
#X connect 3 0 53 0;
#X connect 4 0 58 0;
#X connect 5 0 15 0;
#X connect 6 0 52 0;
#X connect 7 0 8 0;
#X connect 8 0 9 0;
#X connect 9 0 10 0;
#X connect 9 0 19 0;
#X connect 10 0 9 1;
#X connect 11 0 7 0;
#X connect 11 1 12 0;
#X connect 12 0 9 1;
#X connect 13 0 14 2;
#X connect 14 0 23 0;
#X connect 15 0 14 1;
#X connect 15 1 13 1;
#X connect 16 0 23 0;
#X connect 17 0 18 0;
#X connect 17 1 16 0;
#X connect 18 0 11 0;
#X connect 19 0 21 0;
#X connect 19 1 13 0;
#X connect 20 0 31 0;
#X connect 21 0 22 0;
#X connect 21 1 20 0;
#X connect 22 0 14 0;
#X connect 23 0 4 0;
#X connect 23 0 55 0;
#X connect 24 0 32 0;
#X connect 25 0 52 0;
#X connect 26 0 5 1;
#X connect 27 0 18 1;
#X connect 28 0 57 0;
#X connect 29 0 43 0;
#X connect 31 0 24 0;
#X connect 32 0 33 0;
#X connect 33 0 14 0;
#X connect 34 0 1 0;
#X connect 36 0 34 1;
#X connect 38 0 39 0;
#X connect 39 0 40 0;
#X connect 40 0 47 0;
#X connect 41 0 58 1;
#X connect 43 0 30 0;
#X connect 43 1 35 0;
#X connect 43 2 37 0;
#X connect 43 3 42 0;
#X connect 49 0 48 0;
#X connect 50 0 51 0;
#X connect 51 0 49 1;
#X connect 52 0 54 0;
#X connect 52 1 47 0;
#X connect 52 2 17 0;
#X connect 52 3 34 0;
#X connect 53 0 54 1;
#X connect 53 1 5 0;
#X connect 54 0 56 0;
#X connect 56 0 49 0;
#X connect 57 0 21 1;
#X connect 58 0 47 0;
