#N canvas 150 164 871 624 10;
#X obj 555 424 i;
#X obj 555 401 * 100;
#X obj 708 424 i;
#X obj 708 400 * 100;
#X obj 46 405 hip~ 5;
#N canvas 16 50 526 600 switcher 0;
#X obj 113 261 t b b;
#X obj 113 295 delay 5;
#X obj 263 387 line~;
#X msg 176 296 0 4;
#X obj 133 476 *~;
#X msg 113 327 0;
#X obj 113 220 bang;
#X msg 406 229 1;
#X msg 359 193 1 4;
#X obj 352 143 t b b b;
#X obj 139 506 outlet~;
#X obj 371 507 outlet;
#X obj 112 48 inlet;
#X obj 353 50 inlet;
#X connect 0 0 1 0;
#X connect 0 1 3 0;
#X connect 1 0 5 0;
#X connect 2 0 4 0;
#X connect 2 0 4 1;
#X connect 3 0 2 0;
#X connect 4 0 10 0;
#X connect 5 0 11 0;
#X connect 6 0 0 0;
#X connect 7 0 11 0;
#X connect 8 0 2 0;
#X connect 9 1 8 0;
#X connect 9 2 7 0;
#X connect 12 0 6 0;
#X connect 13 0 9 0;
#X restore 259 545 pd switcher;
#X obj 259 516 sel 0 1;
#X obj 333 569 switch~ 64 1 1;
#X obj 47 574 *~;
#X msg 259 448 1;
#X obj 298 450 b;
#X msg 298 472 0;
#X obj 259 396 r env-\$1-selector;
#X obj 30 -34 r~ env-\$1-envelope;
#X obj 46 55 r~ env-\$1-signal;
#X obj 259 426 sel \$2;
#X obj 393 472 s env-\$1-knob2-label;
#X obj 555 469 s env-\$1-knob3-label;
#X obj 708 468 s env-\$1-knob4-label;
#X obj 209 -60 route \$2;
#X obj 395 -68 route \$2;
#X obj 646 -62 route \$2;
#X obj 259 494 change -1;
#X obj 209 -82 r env-\$1-knob2-local;
#X obj 426 -98 r env-\$1-knob3-local;
#X obj 646 -108 r env-\$1-knob4-local;
#X obj 209 -38 f;
#X obj 396 -39 f;
#X obj 646 -39 f;
#X obj 291 -177 r env-\$1-selector;
#X obj 291 -147 sel \$2;
#X obj 291 -125 t b b b;
#N canvas 685 290 450 300 save-state 0;
#X msg 128 168 0.488759;
#X obj 128 122 list prepend set;
#X obj 128 144 route list;
#X obj 208 143 loadbang;
#X obj 128 99 f;
#X obj 128 76 r saveState;
#X obj 146 22 inlet;
#X obj 128 190 outlet;
#X connect 0 0 7 0;
#X connect 1 0 2 0;
#X connect 2 0 0 0;
#X connect 3 0 0 0;
#X connect 4 0 1 0;
#X connect 5 0 4 0;
#X connect 6 0 4 1;
#X restore 680 -39 pd save-state;
#N canvas 685 290 450 300 save-state 0;
#X msg 128 168 0.843597;
#X obj 128 122 list prepend set;
#X obj 128 144 route list;
#X obj 208 143 loadbang;
#X obj 128 99 f;
#X obj 128 76 r saveState;
#X obj 146 22 inlet;
#X obj 128 190 outlet;
#X connect 0 0 7 0;
#X connect 1 0 2 0;
#X connect 2 0 0 0;
#X connect 3 0 0 0;
#X connect 4 0 1 0;
#X connect 5 0 4 0;
#X connect 6 0 4 1;
#X restore 432 -39 pd save-state;
#N canvas 685 290 450 300 save-state 0;
#X msg 128 168 0;
#X obj 128 122 list prepend set;
#X obj 128 144 route list;
#X obj 208 143 loadbang;
#X obj 128 99 f;
#X obj 128 76 r saveState;
#X obj 146 22 inlet;
#X obj 128 190 outlet;
#X connect 0 0 7 0;
#X connect 1 0 2 0;
#X connect 2 0 0 0;
#X connect 3 0 0 0;
#X connect 4 0 1 0;
#X connect 5 0 4 0;
#X connect 6 0 4 1;
#X restore 243 -36 pd save-state;
#N canvas 6 50 450 300 dry/wet 0;
#X obj 76 87 inlet~;
#X obj 142 87 inlet~;
#X obj 77 198 outlet~;
#X obj 141 136 -~;
#X obj 141 156 *~, f 7;
#X text 371 150 (1-x)*a + x*b;
#X text 371 167 = a - x*a + x*b;
#X text 371 184 = a + x*(b - a);
#X text 366 119 x: fade factor (0-1);
#X text 366 90 a: sig from inlet~ 0;
#X text 339 50 Linear crossfade according to the following calculation:
;
#X text 367 104 b: sig from inlet~ 1;
#N canvas 172 83 586 377 LICENSE-GPL 0;
#X text 57 88 This program is free software: you can redistribute it
and/or modify it under the terms of the GNU General Public License
as published by the Free Software Foundation \, either version 3 of
the License \, or (at your option) any later version.;
#X text 58 168 This program is distributed in the hope that it will
be useful \, but WITHOUT ANY WARRANTY \; without even the implied warranty
of MERCHANTABILITY or FITNESS FOR A PARTICULAR PURPOSE. See the GNU
General Public License for more details.;
#X text 57 261 You should have received a copy of the GNU General Public
License along with this program. If not \, see <http://www.gnu.org/licenses/>.
;
#X text 61 54 Copyright (C) 2009 \, Reality Jockey Ltd.;
#X text 60 325 See the file LICENSE.txt for the full license text.
;
#X restore 614 19 pd LICENSE-GPL;
#X obj 201 87 inlet~;
#X connect 0 0 3 1;
#X connect 0 0 2 0;
#X connect 1 0 3 0;
#X connect 3 0 4 0;
#X connect 4 0 2 0;
#X connect 13 0 4 1;
#X restore 46 367 pd dry/wet;
#X obj 215 91 t f f;
#X obj 215 113 *;
#X obj 215 136 * 5;
#X obj 405 274 i;
#X obj 405 296 / 10;
#X obj 405 250 * 50;
#X msg 553 445 3: Mod: \$1 %;
#X msg 393 450 2: Freq: \$1 hz;
#X obj 340 81 lop~ 5;
#X msg 708 445 4: Dry/Wet: \$1 %;
#X obj 259 314 lop~ 5;
#X obj 141 403 hip~ 5;
#N canvas 7 50 450 300 dry/wet 0;
#X obj 76 87 inlet~;
#X obj 142 87 inlet~;
#X obj 77 198 outlet~;
#X obj 141 136 -~;
#X obj 141 156 *~, f 7;
#X text 371 150 (1-x)*a + x*b;
#X text 371 167 = a - x*a + x*b;
#X text 371 184 = a + x*(b - a);
#X text 366 119 x: fade factor (0-1);
#X text 366 90 a: sig from inlet~ 0;
#X text 339 50 Linear crossfade according to the following calculation:
;
#X text 367 104 b: sig from inlet~ 1;
#N canvas 172 83 586 377 LICENSE-GPL 0;
#X text 57 88 This program is free software: you can redistribute it
and/or modify it under the terms of the GNU General Public License
as published by the Free Software Foundation \, either version 3 of
the License \, or (at your option) any later version.;
#X text 58 168 This program is distributed in the hope that it will
be useful \, but WITHOUT ANY WARRANTY \; without even the implied warranty
of MERCHANTABILITY or FITNESS FOR A PARTICULAR PURPOSE. See the GNU
General Public License for more details.;
#X text 57 261 You should have received a copy of the GNU General Public
License along with this program. If not \, see <http://www.gnu.org/licenses/>.
;
#X text 61 54 Copyright (C) 2009 \, Reality Jockey Ltd.;
#X text 60 325 See the file LICENSE.txt for the full license text.
;
#X restore 614 19 pd LICENSE-GPL;
#X obj 201 87 inlet~;
#X connect 0 0 3 1;
#X connect 0 0 2 0;
#X connect 1 0 3 0;
#X connect 3 0 4 0;
#X connect 4 0 2 0;
#X connect 13 0 4 1;
#X restore 144 377 pd dry/wet;
#X obj 145 578 *~;
#X obj 47 603 throw~ env-\$1-busL;
#X obj 196 603 throw~ env-\$1-busR;
#X obj 30 -12 *~;
#X obj 30 10 *~;
#X obj 132 247 e_chorus mychorus\$1;
#X obj 314 142 *~;
#X obj 215 158 lop~ 5;
#X obj 355 36 * 15;
#X obj 30 32 *~;
#X connect 0 0 42 0;
#X connect 1 0 0 0;
#X connect 2 0 45 0;
#X connect 3 0 2 0;
#X connect 4 0 8 0;
#X connect 5 0 8 1;
#X connect 5 0 49 1;
#X connect 5 1 7 0;
#X connect 6 0 5 0;
#X connect 6 1 5 1;
#X connect 8 0 50 0;
#X connect 9 0 22 0;
#X connect 10 0 11 0;
#X connect 11 0 22 0;
#X connect 12 0 15 0;
#X connect 13 0 52 0;
#X connect 13 0 52 1;
#X connect 14 0 35 0;
#X connect 14 0 48 0;
#X connect 14 0 54 0;
#X connect 15 0 9 0;
#X connect 15 1 10 0;
#X connect 19 0 26 0;
#X connect 20 0 27 0;
#X connect 21 0 28 0;
#X connect 22 0 6 0;
#X connect 23 0 19 0;
#X connect 24 0 20 0;
#X connect 25 0 21 0;
#X connect 26 0 34 0;
#X connect 26 0 36 0;
#X connect 27 0 1 0;
#X connect 27 0 33 0;
#X connect 27 0 57 0;
#X connect 28 0 3 0;
#X connect 28 0 32 0;
#X connect 28 0 46 0;
#X connect 29 0 30 0;
#X connect 30 0 31 0;
#X connect 31 0 26 0;
#X connect 31 1 27 0;
#X connect 31 2 28 0;
#X connect 32 0 28 1;
#X connect 33 0 27 1;
#X connect 34 0 26 1;
#X connect 35 0 4 0;
#X connect 36 0 37 0;
#X connect 36 1 37 1;
#X connect 37 0 38 0;
#X connect 37 0 41 0;
#X connect 38 0 56 0;
#X connect 39 0 40 0;
#X connect 40 0 43 0;
#X connect 41 0 39 0;
#X connect 42 0 17 0;
#X connect 43 0 16 0;
#X connect 44 0 55 1;
#X connect 45 0 18 0;
#X connect 46 0 35 2;
#X connect 46 0 48 2;
#X connect 47 0 49 0;
#X connect 48 0 47 0;
#X connect 49 0 51 0;
#X connect 52 0 53 0;
#X connect 52 0 53 1;
#X connect 53 0 58 0;
#X connect 53 0 58 1;
#X connect 54 0 35 1;
#X connect 54 1 48 1;
#X connect 55 0 54 2;
#X connect 56 0 54 1;
#X connect 57 0 44 0;
#X connect 58 0 55 0;
