#N canvas 298 50 1384 810 10;
#X obj 235 242 env~;
#X obj 120 540 *~ 1;
#X obj 235 264 / 100;
#X obj 178 193 *~ 1;
#X obj 234 380 s~ env-\$1-envelope;
#X obj 178 407 s~ env-\$1-signal;
#X obj 120 582 outlet~;
#X obj 180 582 outlet~;
#X obj 119 511 catch~ env-\$1-bus;
#X obj 843 391 r env-\$1-selector;
#X obj 665 355 r env-\$1-knob1;
#X obj 665 419 i;
#X obj 665 441 s env-\$1-selector;
#X obj 1136 351 r env-\$1-knob4;
#X obj 970 353 r env-\$1-knob3;
#X obj 802 349 r env-\$1-knob2;
#X obj 802 421 list prepend;
#X obj 970 425 list prepend;
#X obj 998 399 r env-\$1-selector;
#X obj 1166 396 r env-\$1-selector;
#X obj 1136 423 list prepend;
#X obj 801 443 s env-\$1-knob2-local;
#X obj 1136 445 s env-\$1-knob4-local;
#X obj 970 448 s env-\$1-knob3-local;
#X obj 699 534 s env-\$1-knob1-label;
#X obj 699 486 text get env-\$1-sel-txt;
#X obj 77 687 text define env-\$1-sel-txt;
#X msg 222 658 write env-\$1-sel.txt;
#X obj 222 637 \$1;
#X msg 77 657 read env-\$1-sel.txt;
#X obj 77 611 loadbang;
#X obj 77 633 \$1;
#X obj 722 22 inlet notes;
#X obj 235 315 lop~ 10;
#X obj 428 178 pass-thru \$1 0;
#X obj 428 199 auto-wah \$1 1;
#X obj 428 219 lfo-wah \$1 2;
#X obj 178 131 inlet~;
#X obj 254 510 catch~ env-\$1-busL;
#X obj 259 534 catch~ env-\$1-busR;
#X obj 235 337 *~;
#X obj 722 175 knob-auto-abs \$1 1 1 1 1, f 31;
#X obj 665 377 f;
#X obj 812 372 f;
#X obj 970 375 f;
#X obj 1136 373 f;
#X obj 936 199 s \$0-change;
#X obj 940 294 r \$0-change;
#X obj 428 241 wah-delay-swell \$1 3;
#X obj 428 261 swell-reverb \$1 4;
#X obj 427 285 tremolo \$1 5;
#X obj 426 309 dtanh \$1 6;
#X obj 425 337 chorus \$1 7;
#X obj 178 153 hip~ 5;
#X obj 425 367 flanger \$1 8;
#X msg 699 509 1: FX: \$1;
#X obj 665 397 * 8;
#X text 430 144 The effects;
#X text 275 241 convert amplitiude;
#X obj 235 286 sqrt;
#X text 262 336 curve it;
#X text 304 315 smooth it;
#X text 764 97 wrap notes 60-73(organelle midi values);
#X obj 722 44 unpack 0 0;
#X obj 722 98 % 24;
#X obj 722 76 - 12;
#X obj 722 150 pack 0 0;
#X obj 722 120 + 60;
#X connect 0 0 2 0;
#X connect 1 0 6 0;
#X connect 1 0 7 0;
#X connect 2 0 59 0;
#X connect 3 0 0 0;
#X connect 3 0 5 0;
#X connect 8 0 1 0;
#X connect 9 0 16 1;
#X connect 10 0 42 0;
#X connect 11 0 12 0;
#X connect 11 0 25 0;
#X connect 13 0 45 0;
#X connect 14 0 44 0;
#X connect 15 0 43 0;
#X connect 16 0 21 0;
#X connect 17 0 23 0;
#X connect 18 0 17 1;
#X connect 19 0 20 1;
#X connect 20 0 22 0;
#X connect 25 0 55 0;
#X connect 28 0 27 0;
#X connect 29 0 26 0;
#X connect 30 0 31 0;
#X connect 31 0 29 0;
#X connect 32 0 63 0;
#X connect 33 0 40 0;
#X connect 33 0 40 1;
#X connect 37 0 53 0;
#X connect 38 0 6 0;
#X connect 39 0 7 0;
#X connect 40 0 4 0;
#X connect 41 0 56 0;
#X connect 41 1 16 0;
#X connect 41 2 17 0;
#X connect 41 3 20 0;
#X connect 41 4 46 0;
#X connect 42 0 56 0;
#X connect 43 0 16 0;
#X connect 44 0 17 0;
#X connect 45 0 20 0;
#X connect 47 0 42 0;
#X connect 47 0 43 0;
#X connect 47 0 44 0;
#X connect 47 0 45 0;
#X connect 53 0 3 0;
#X connect 55 0 24 0;
#X connect 56 0 11 0;
#X connect 59 0 33 0;
#X connect 63 0 65 0;
#X connect 63 1 66 1;
#X connect 64 0 67 0;
#X connect 65 0 64 0;
#X connect 66 0 41 0;
#X connect 67 0 66 0;
