#N canvas 250 87 1464 801 10;
#X obj 555 424 i;
#X obj 555 401 * 100;
#X obj 708 424 i;
#X obj 708 400 * 100;
#X obj 46 515 hip~ 5;
#N canvas 16 50 526 600 switcher 0;
#X obj 113 261 t b b;
#X obj 113 295 delay 5;
#X obj 263 387 line~;
#X msg 176 296 0 4;
#X obj 133 476 *~;
#X msg 113 327 0;
#X obj 113 220 bang;
#X msg 406 229 1;
#X msg 359 193 1 4;
#X obj 352 143 t b b b;
#X obj 139 506 outlet~;
#X obj 371 507 outlet;
#X obj 112 48 inlet;
#X obj 353 50 inlet;
#X connect 0 0 1 0;
#X connect 0 1 3 0;
#X connect 1 0 5 0;
#X connect 2 0 4 0;
#X connect 2 0 4 1;
#X connect 3 0 2 0;
#X connect 4 0 10 0;
#X connect 5 0 11 0;
#X connect 6 0 0 0;
#X connect 7 0 11 0;
#X connect 8 0 2 0;
#X connect 9 1 8 0;
#X connect 9 2 7 0;
#X connect 12 0 6 0;
#X connect 13 0 9 0;
#X restore 259 655 pd switcher;
#X obj 259 626 sel 0 1;
#X obj 333 679 switch~ 64 1 1;
#X obj 47 574 *~;
#X msg 259 558 1;
#X obj 298 560 b;
#X msg 298 582 0;
#X obj 259 506 r env-\$1-selector;
#X obj 30 -34 r~ env-\$1-envelope;
#X obj 26 97 r~ env-\$1-signal;
#X obj 259 536 sel \$2;
#X obj 393 472 s env-\$1-knob2-label;
#X obj 555 469 s env-\$1-knob3-label;
#X obj 708 468 s env-\$1-knob4-label;
#X obj 209 -60 route \$2;
#X obj 395 -68 route \$2;
#X obj 646 -62 route \$2;
#X obj 259 604 change -1;
#X obj 209 -82 r env-\$1-knob2-local;
#X obj 426 -98 r env-\$1-knob3-local;
#X obj 646 -108 r env-\$1-knob4-local;
#X obj 209 -38 f;
#X obj 396 -39 f;
#X obj 646 -39 f;
#X obj 291 -177 r env-\$1-selector;
#X obj 291 -147 sel \$2;
#X obj 291 -125 t b b b;
#N canvas 685 290 450 300 save-state 0;
#X msg 128 168 0.488759;
#X obj 128 122 list prepend set;
#X obj 128 144 route list;
#X obj 208 143 loadbang;
#X obj 128 99 f;
#X obj 128 76 r saveState;
#X obj 146 22 inlet;
#X obj 128 190 outlet;
#X connect 0 0 7 0;
#X connect 1 0 2 0;
#X connect 2 0 0 0;
#X connect 3 0 0 0;
#X connect 4 0 1 0;
#X connect 5 0 4 0;
#X connect 6 0 4 1;
#X restore 680 -39 pd save-state;
#N canvas 685 290 450 300 save-state 0;
#X msg 128 168 0.843597;
#X obj 128 122 list prepend set;
#X obj 128 144 route list;
#X obj 208 143 loadbang;
#X obj 128 99 f;
#X obj 128 76 r saveState;
#X obj 146 22 inlet;
#X obj 128 190 outlet;
#X connect 0 0 7 0;
#X connect 1 0 2 0;
#X connect 2 0 0 0;
#X connect 3 0 0 0;
#X connect 4 0 1 0;
#X connect 5 0 4 0;
#X connect 6 0 4 1;
#X restore 432 -39 pd save-state;
#N canvas 685 290 450 300 save-state 0;
#X msg 128 168 0;
#X obj 128 122 list prepend set;
#X obj 128 144 route list;
#X obj 208 143 loadbang;
#X obj 128 99 f;
#X obj 128 76 r saveState;
#X obj 146 22 inlet;
#X obj 128 190 outlet;
#X connect 0 0 7 0;
#X connect 1 0 2 0;
#X connect 2 0 0 0;
#X connect 3 0 0 0;
#X connect 4 0 1 0;
#X connect 5 0 4 0;
#X connect 6 0 4 1;
#X restore 243 -36 pd save-state;
#X obj 369 11 lop~ 5;
#X obj 207 72 lop~ 5;
#X obj 176 100 *~;
#X obj 30 -12 *~;
#X obj 136 176 +~ 1;
#X obj 136 203 *~ 0.5;
#X obj 317 334 delwrite~ \$0-delay1 5000;
#X obj 136 349 vd~ \$0-delay1, f 16;
#X obj 136 149 osc~ 1;
#X obj 27 416 +~, f 16;
#X obj 136 318 +~, f 11;
#X obj 211 296 +~ 1;
#X obj 47 713 throw~ env-\$1-bus;
#X msg 393 450 2: Rate: \$1 hz;
#X obj 208 -4 t f f;
#X obj 208 20 *;
#X obj 136 262 *~, f 9;
#X msg 553 445 3: Depth: \$1 %;
#X msg 708 445 4: Feedback: \$1 %;
#X obj 559 47 lop~ 5;
#X obj 507 139 *~;
#X obj 318 277 *~;
#X obj 208 42 * 20;
#X obj 30 10 *~;
#X obj 646 -17 min 0.98;
#X obj 291 240 *~;
#X obj 325 200 sig~ 7;
#X connect 0 0 52 0;
#X connect 1 0 0 0;
#X connect 2 0 53 0;
#X connect 3 0 2 0;
#X connect 4 0 8 0;
#X connect 5 0 8 1;
#X connect 5 1 7 0;
#X connect 6 0 5 0;
#X connect 6 1 5 1;
#X connect 8 0 47 0;
#X connect 9 0 22 0;
#X connect 10 0 11 0;
#X connect 11 0 22 0;
#X connect 12 0 15 0;
#X connect 13 0 38 0;
#X connect 13 0 38 1;
#X connect 14 0 44 0;
#X connect 14 0 41 0;
#X connect 15 0 9 0;
#X connect 15 1 10 0;
#X connect 19 0 26 0;
#X connect 20 0 27 0;
#X connect 21 0 28 0;
#X connect 22 0 6 0;
#X connect 23 0 19 0;
#X connect 24 0 20 0;
#X connect 25 0 21 0;
#X connect 26 0 34 0;
#X connect 26 0 49 0;
#X connect 27 0 1 0;
#X connect 27 0 33 0;
#X connect 27 0 35 0;
#X connect 28 0 32 0;
#X connect 28 0 59 0;
#X connect 29 0 30 0;
#X connect 30 0 31 0;
#X connect 31 0 26 0;
#X connect 31 1 27 0;
#X connect 31 2 28 0;
#X connect 32 0 28 1;
#X connect 33 0 27 1;
#X connect 34 0 26 1;
#X connect 35 0 51 1;
#X connect 36 0 37 1;
#X connect 37 0 43 0;
#X connect 38 0 58 0;
#X connect 38 0 58 1;
#X connect 39 0 40 0;
#X connect 40 0 51 0;
#X connect 42 0 44 1;
#X connect 42 0 56 0;
#X connect 43 0 39 0;
#X connect 44 0 4 0;
#X connect 45 0 42 0;
#X connect 46 0 45 1;
#X connect 48 0 16 0;
#X connect 49 0 50 0;
#X connect 49 1 50 1;
#X connect 50 0 57 0;
#X connect 51 0 45 0;
#X connect 52 0 17 0;
#X connect 53 0 18 0;
#X connect 54 0 55 1;
#X connect 55 0 56 1;
#X connect 56 0 41 0;
#X connect 57 0 36 0;
#X connect 57 0 48 0;
#X connect 58 0 37 0;
#X connect 58 0 55 0;
#X connect 58 0 60 0;
#X connect 59 0 3 0;
#X connect 59 0 54 0;
#X connect 60 0 46 0;
#X connect 61 0 60 1;
