#N canvas 14 50 1322 769 10;
#X obj 253 243 +~;
#X obj 252 142 lop~ 5;
#X obj 436 475 i;
#X obj 598 470 i;
#X obj 751 470 i;
#X obj 751 446 * 100;
#X obj 89 471 hip~ 5;
#N canvas 16 50 526 600 switcher 0;
#X obj 113 261 t b b;
#X obj 113 295 delay 5;
#X obj 263 387 line~;
#X msg 176 296 0 4;
#X obj 133 476 *~;
#X msg 113 327 0;
#X obj 113 220 bang;
#X msg 406 229 1;
#X msg 359 193 1 4;
#X obj 352 143 t b b b;
#X obj 139 506 outlet~;
#X obj 371 507 outlet;
#X obj 112 48 inlet;
#X obj 353 50 inlet;
#X connect 0 0 1 0;
#X connect 0 1 3 0;
#X connect 1 0 5 0;
#X connect 2 0 4 0;
#X connect 2 0 4 1;
#X connect 3 0 2 0;
#X connect 4 0 10 0;
#X connect 5 0 11 0;
#X connect 6 0 0 0;
#X connect 7 0 11 0;
#X connect 8 0 2 0;
#X connect 9 1 8 0;
#X connect 9 2 7 0;
#X connect 12 0 6 0;
#X connect 13 0 9 0;
#X restore 171 585 pd switcher;
#X obj 171 556 sel 0 1;
#X obj 245 609 switch~ 64 1 1;
#X obj 90 620 *~;
#X msg 171 488 1;
#X obj 210 490 b;
#X msg 210 512 0;
#X obj 90 649 throw~ env-\$1-bus;
#X obj 171 436 r env-\$1-selector;
#X obj 104 40 r~ env-\$1-envelope;
#X obj 151 202 r~ env-\$1-signal;
#X obj 171 466 sel \$2;
#X obj 436 518 s env-\$1-knob2-label;
#X obj 598 515 s env-\$1-knob3-label;
#X obj 751 514 s env-\$1-knob4-label;
#X obj 252 -14 route \$2;
#X obj 438 -22 route \$2;
#X obj 689 -16 route \$2;
#X obj 171 534 change -1;
#X obj 252 -36 r env-\$1-knob2-local;
#X obj 469 -52 r env-\$1-knob3-local;
#X obj 689 -62 r env-\$1-knob4-local;
#X obj 252 8 f;
#X obj 439 7 f;
#X obj 689 7 f;
#X obj 334 -131 r env-\$1-selector;
#X obj 334 -101 sel \$2;
#X obj 334 -79 t b b b;
#N canvas 685 290 450 300 save-state 0;
#X msg 128 168 0.844575;
#X obj 128 122 list prepend set;
#X obj 128 144 route list;
#X obj 208 143 loadbang;
#X obj 128 99 f;
#X obj 128 76 r saveState;
#X obj 146 22 inlet;
#X obj 128 190 outlet;
#X connect 0 0 7 0;
#X connect 1 0 2 0;
#X connect 2 0 0 0;
#X connect 3 0 0 0;
#X connect 4 0 1 0;
#X connect 5 0 4 0;
#X connect 6 0 4 1;
#X restore 723 7 pd save-state;
#N canvas 685 290 450 300 save-state 0;
#X msg 128 168 0.403715;
#X obj 128 122 list prepend set;
#X obj 128 144 route list;
#X obj 208 143 loadbang;
#X obj 128 99 f;
#X obj 128 76 r saveState;
#X obj 146 22 inlet;
#X obj 128 190 outlet;
#X connect 0 0 7 0;
#X connect 1 0 2 0;
#X connect 2 0 0 0;
#X connect 3 0 0 0;
#X connect 4 0 1 0;
#X connect 5 0 4 0;
#X connect 6 0 4 1;
#X restore 475 7 pd save-state;
#N canvas 685 290 450 300 save-state 0;
#X msg 128 168 1;
#X obj 128 122 list prepend set;
#X obj 128 144 route list;
#X obj 208 143 loadbang;
#X obj 128 99 f;
#X obj 128 76 r saveState;
#X obj 146 22 inlet;
#X obj 128 190 outlet;
#X connect 0 0 7 0;
#X connect 1 0 2 0;
#X connect 2 0 0 0;
#X connect 3 0 0 0;
#X connect 4 0 1 0;
#X connect 5 0 4 0;
#X connect 6 0 4 1;
#X restore 286 10 pd save-state;
#X obj 228 358 delwrite~ \$0-del1 1000;
#X obj 109 386 vd~ \$0-del1;
#X obj 109 359 lop~ 5;
#X obj 439 73 * 1000;
#X obj 30 314 sig~ 1;
#X obj 27 345 -~, f 7;
#X obj 62 419 *~;
#X obj 272 202 *~;
#X obj 290 172 *~ 8;
#X obj 439 29 t f f;
#X obj 439 51 *, f 4;
#X obj 188 279 vcf~ 3, f 14;
#X obj 188 301 vcf~ 3, f 16;
#X obj 252 30 t f f;
#X obj 252 52 *, f 4;
#X obj 252 74 * 70;
#X obj 252 97 + 30;
#X obj 118 297 *~;
#X msg 599 491 3: Delay: \$1 ms;
#X msg 751 491 4: Feedback: \$1 %;
#X msg 440 495 2: Root Freq: \$1 hz;
#X obj 252 119 mtof;
#X obj 104 62 *~;
#X obj 104 84 *~;
#X obj 431 239 lop~ 5;
#X obj 330 403 *~;
#X obj 688 71 min 0.95;
#X obj 431 261 *~;
#X obj 90 200 sig~ 1;
#X obj 87 231 -~, f 7;
#X connect 0 0 49 1;
#X connect 0 0 50 1;
#X connect 1 0 46 0;
#X connect 1 0 0 0;
#X connect 2 0 58 0;
#X connect 3 0 56 0;
#X connect 4 0 57 0;
#X connect 5 0 4 0;
#X connect 6 0 10 0;
#X connect 7 0 10 1;
#X connect 7 1 9 0;
#X connect 8 0 7 0;
#X connect 8 1 7 1;
#X connect 10 0 14 0;
#X connect 11 0 25 0;
#X connect 12 0 13 0;
#X connect 13 0 25 0;
#X connect 15 0 18 0;
#X connect 16 0 60 0;
#X connect 16 0 60 1;
#X connect 17 0 49 0;
#X connect 18 0 11 0;
#X connect 18 1 12 0;
#X connect 22 0 29 0;
#X connect 23 0 30 0;
#X connect 24 0 31 0;
#X connect 25 0 8 0;
#X connect 26 0 22 0;
#X connect 27 0 23 0;
#X connect 28 0 24 0;
#X connect 29 0 37 0;
#X connect 29 0 51 0;
#X connect 30 0 36 0;
#X connect 30 0 47 0;
#X connect 31 0 35 0;
#X connect 31 0 5 0;
#X connect 31 0 64 0;
#X connect 32 0 33 0;
#X connect 33 0 34 0;
#X connect 34 0 29 0;
#X connect 34 1 30 0;
#X connect 34 2 31 0;
#X connect 35 0 31 1;
#X connect 36 0 30 1;
#X connect 37 0 29 1;
#X connect 39 0 44 1;
#X connect 39 0 63 0;
#X connect 40 0 39 0;
#X connect 41 0 3 0;
#X connect 41 0 40 0;
#X connect 42 0 43 0;
#X connect 43 0 44 0;
#X connect 43 0 65 1;
#X connect 43 0 67 1;
#X connect 44 0 6 0;
#X connect 45 0 0 1;
#X connect 46 0 45 1;
#X connect 47 0 48 0;
#X connect 47 1 48 1;
#X connect 48 0 41 0;
#X connect 49 0 50 0;
#X connect 50 0 38 0;
#X connect 50 0 55 1;
#X connect 51 0 52 0;
#X connect 51 1 52 1;
#X connect 52 0 53 0;
#X connect 53 0 54 0;
#X connect 54 0 59 0;
#X connect 55 0 44 1;
#X connect 56 0 20 0;
#X connect 57 0 21 0;
#X connect 58 0 19 0;
#X connect 59 0 1 0;
#X connect 59 0 2 0;
#X connect 60 0 61 0;
#X connect 60 0 61 1;
#X connect 61 0 43 1;
#X connect 61 0 45 0;
#X connect 62 0 65 0;
#X connect 63 0 38 0;
#X connect 64 0 62 0;
#X connect 65 0 63 1;
#X connect 66 0 67 0;
#X connect 67 0 55 0;
