#N canvas 352 189 884 557 10;
#X text 62 12 signal;
#X obj 127 11 inlet~;
#X text 178 11 control signal;
#N canvas 92 117 450 300 messages 0;
#X obj 36 22 inlet;
#X obj 36 110 s \$0-att;
#X obj 83 135 s \$0-rel;
#X obj 121 97 s \$0-thresh;
#X obj 168 147 s \$0-gain;
#X obj 219 119 s \$0-ratio;
#X obj 36 46 route att rel thresh gain ratio muteCtl;
#X obj 229 75 s \$0-muteCtl;
#X connect 0 0 6 0;
#X connect 6 0 1 0;
#X connect 6 1 2 0;
#X connect 6 2 3 0;
#X connect 6 3 4 0;
#X connect 6 4 5 0;
#X connect 6 5 7 0;
#X restore 326 40 pd messages;
#X obj 244 147 vline~;
#X obj 13 319 outlet~;
#X obj 326 9 inlet;
#X obj 89 385 outlet~;
#X obj 13 289 hip~ 4;
#X obj 89 355 hip~ 4;
#X text 252 100 detect threshold for attack and release;
#X text 152 339 gain adjustment out for visual monitoring;
#X obj 12 11 inlet~;
#N canvas 4 50 1039 651 crossfade 0;
#X obj 39 26 inlet~;
#X obj 196 25 inlet~;
#X obj 337 24 inlet~;
#X text 381 25 control 0 - 1;
#X text 380 43 0.5 equal mix;
#X obj 71 106 sig~ 1;
#X obj 71 135 -~, f 9;
#X obj 71 175 sqrt~;
#X obj 39 230 *~;
#X obj 196 224 *~;
#X obj 220 178 sqrt~;
#X obj 39 264 outlet~;
#X obj 196 259 outlet~;
#X obj 337 80 clip~ 0 1;
#X text 89 87 inverse;
#X text 277 177 sqrt~ for better amplitude curve;
#X text 401 82 keep within 0 - 1;
#X obj 290 260 outlet~;
#X obj 360 259 outlet~;
#X connect 0 0 8 0;
#X connect 1 0 9 0;
#X connect 2 0 13 0;
#X connect 5 0 6 0;
#X connect 6 0 7 0;
#X connect 7 0 8 1;
#X connect 7 0 17 0;
#X connect 8 0 11 0;
#X connect 9 0 12 0;
#X connect 10 0 9 1;
#X connect 10 0 18 0;
#X connect 13 0 10 0;
#X connect 13 0 6 1;
#X restore 13 206 pd crossfade;
#X f 39;
#N canvas 4 50 564 500 threshold-mix 1;
#X obj 26 15 inlet~;
#X text 93 44 window in multiples of 64 samples;
#X text 86 75 convert db to rms 0 - 1 value;
#N canvas 4 50 748 608 threshold 0;
#X obj 60 16 inlet;
#X text 244 198 release;
#X obj 60 151 sig~;
#X obj 130 129 list prepend set;
#X obj 130 153 list trim;
#X obj 130 68 t a a;
#X obj 130 18 r \$0-thresh;
#X obj 61 265 outlet;
#X obj 227 245 outlet;
#X text 80 227 attack;
#X obj 130 105 pack 0 5 0 5;
#X obj 61 191 threshold~ 0.5 5 0.5 5;
#X connect 0 0 2 0;
#X connect 2 0 11 0;
#X connect 3 0 4 0;
#X connect 4 0 11 0;
#X connect 5 0 10 0;
#X connect 5 1 10 2;
#X connect 6 0 5 0;
#X connect 10 0 3 0;
#X connect 11 0 7 0;
#X connect 11 1 8 0;
#X restore 26 172 pd threshold;
#X text 113 171 detect if threshold was crossed;
#X obj 26 314 pack 0 1;
#X obj 71 290 r \$0-att;
#X obj 138 321 pack 0 1;
#X obj 26 373 outlet;
#X text 79 372 messages to vline~;
#X obj 183 297 r \$0-rel;
#X obj 138 269 0;
#X obj 26 74 - 20;
#X obj 26 95 / 80;
#X obj 26 270 1;
#X obj 26 44 env~;
#X connect 0 0 15 0;
#X connect 3 0 14 0;
#X connect 3 1 11 0;
#X connect 5 0 8 0;
#X connect 6 0 5 1;
#X connect 7 0 8 0;
#X connect 10 0 7 1;
#X connect 11 0 7 0;
#X connect 12 0 13 0;
#X connect 13 0 3 0;
#X connect 14 0 5 0;
#X connect 15 0 12 0;
#X restore 244 117 pd threshold-mix;
#X obj 187 316 outlet~;
#X obj 259 315 outlet~;
#N canvas 4 50 740 578 gain 0;
#X obj 37 37 inlet~;
#X obj 103 41 r \$0-gain;
#X obj 103 65 / 2;
#X obj 103 85 + 0.5;
#X obj 37 234 outlet~;
#X obj 36 165 *~;
#X obj 103 130 line~;
#X obj 103 106 pack 0 10;
#X text 188 74 scale gain \,;
#X text 175 117 smoothing;
#X connect 0 0 5 0;
#X connect 1 0 2 0;
#X connect 2 0 3 0;
#X connect 3 0 7 0;
#X connect 5 0 4 0;
#X connect 6 0 5 1;
#X connect 7 0 6 0;
#X restore 244 168 pd gain;
#X obj 109 228 r \$0-muteCtl;
#X obj 89 327 *~;
#X obj 109 269 pack 0 10;
#X obj 109 290 line~;
#X obj 109 249 == 0;
#X connect 1 0 13 1;
#X connect 1 0 14 0;
#X connect 4 0 17 0;
#X connect 6 0 3 0;
#X connect 8 0 5 0;
#X connect 9 0 7 0;
#X connect 12 0 13 0;
#X connect 13 0 8 0;
#X connect 13 1 19 0;
#X connect 13 2 15 0;
#X connect 13 3 16 0;
#X connect 14 0 4 0;
#X connect 17 0 13 2;
#X connect 18 0 22 0;
#X connect 19 0 9 0;
#X connect 20 0 21 0;
#X connect 21 0 19 1;
#X connect 22 0 20 0;
