#N canvas 4 50 450 300 10;
#X obj 445 154 tgl 15 0 empty empty empty 17 7 0 10 -262144 -1 -1 0
1;
#X obj 445 174 + 1;
#X floatatom 419 209 5 0 0 0 - - -;
#X msg 646 220 write;
#X obj 449 247 cg-pages 2 xChain ../;
#X msg 597 185 init;
#X obj 590 147 r init-pages;
#X connect 0 0 1 0;
#X connect 1 0 2 0;
#X connect 1 0 4 0;
#X connect 3 0 4 1;
#X connect 5 0 4 1;
#X connect 6 0 5 0;
