#N canvas 124 61 1362 932 10;
#X text 385 32 use this with page selector \, like cg-pages;
#X obj 16 19 inlet;
#X text 397 61 Arg1: Page Number;
#X text 60 21 current page number;
#X obj 16 68 == \$1;
#X obj 216 19 inlet;
#X text 260 21 shortcut aux menu;
#X obj 266 222 r cgSc-1-mute-print;
#X obj 266 235 == 0;
#X obj 210 270 &&, f 21;
#X obj 210 241 == 1;
#X obj 266 246 t b a;
#X obj 184 215 t a a;
#X obj 184 288 spigot 0;
#X obj 184 203 r glob-current-page;
#X connect 1 0 4 0;
#X connect 7 0 8 0;
#X connect 8 0 11 0;
#X connect 9 0 13 1;
#X connect 10 0 9 0;
#X connect 11 0 9 0;
#X connect 11 1 9 1;
#X connect 12 0 13 0;
#X connect 12 1 10 0;
#X connect 14 0 12 0;
