#N canvas 134 150 1474 842 10;
#X obj 48 131 / 100;
#X obj 48 209 int;
#X obj 48 179 + 0.499999;
#X text 235 1 Arg1: XPos;
#X text 235 21 Arg2: YPos;
#X obj 75 281 s \$0-signal-chunks;
#X obj 48 16 inlet~;
#X obj 48 155 * 12;
#X obj 240 110 r \$0-signal-chunks;
#X obj 240 156 list prepend all;
#X obj 240 175 list trim;
#X obj 240 210 clone cg-print-meter-voice 12 \$1 \$2;
#X obj 48 230 change -1;
#X obj 48 251 t b a;
#X msg 48 309 /oled/gFlip 3;
#X obj 48 330 s oscOut;
#X obj 165 28 inlet;
#X obj 165 89 switch~;
#X obj 165 49 t a a;
#X obj 260 54 sel 1;
#X msg 493 158 all bang;
#X obj 400 95 del 5;
#X obj 400 116 t b b;
#X msg 373 156 /oled/gFlip 3;
#X obj 373 177 s oscOut;
#X obj 48 37 env~;
#X connect 0 0 7 0;
#X connect 1 0 12 0;
#X connect 2 0 1 0;
#X connect 6 0 25 0;
#X connect 7 0 2 0;
#X connect 8 0 9 0;
#X connect 9 0 10 0;
#X connect 10 0 11 0;
#X connect 12 0 13 0;
#X connect 13 0 14 0;
#X connect 13 1 5 0;
#X connect 14 0 15 0;
#X connect 16 0 18 0;
#X connect 18 0 19 0;
#X connect 18 1 17 0;
#X connect 19 0 21 0;
#X connect 20 0 11 1;
#X connect 21 0 22 0;
#X connect 22 0 23 0;
#X connect 22 1 20 0;
#X connect 23 0 24 0;
#X connect 25 0 0 0;
