#N canvas 128 62 1450 961 10;
#X obj 7 10 inlet;
#X text 51 10 0 - 1 set;
#X text 195 10 Arg 1: xPos;
#X text 194 26 Arg 2: yPos;
#X text 193 44 Arg 3: Width;
#X obj 8 438 s oscOut;
#X obj 7 184 *;
#X text 192 60 Arg 4: Height;
#X obj 372 92 max 5;
#X text 412 92 minimum width;
#X obj 380 118 max 5;
#X text 421 118 minimum height;
#X obj 251 303 pack \$1 \$2 \$3 \$4;
#X msg 251 330 /oled/gFillArea 3 \$1 \$2 \$3 \$4 1;
#X text 397 236 fill entire bar in white;
#X obj 251 354 s oscOut;
#X obj 6 327 f \$1;
#X obj 6 351 + 1;
#X obj 53 352 + 1;
#X obj 53 328 f \$2;
#X obj 7 59 swap 1;
#X obj 7 79 -;
#X text 52 73 invert;
#X obj 7 29 clip 0 1;
#X obj 7 113 t a b;
#X obj 34 138 f \$4;
#X obj 34 157 - 2;
#X obj 7 203 + 0.49999;
#X obj 7 223 i;
#X obj 100 329 f \$3;
#X obj 100 353 - 2;
#X obj 6 292 t b b b a, f 24;
#X obj 7 376 pack 0 0 0 0, f 24;
#X msg 7 412 /oled/gFillArea 3 \$1 \$2 \$3 \$4 0;
#X obj 7 252 t a b, f 35;
#X connect 0 0 23 0;
#X connect 6 0 27 0;
#X connect 12 0 13 0;
#X connect 13 0 15 0;
#X connect 16 0 17 0;
#X connect 17 0 32 0;
#X connect 18 0 32 1;
#X connect 19 0 18 0;
#X connect 20 0 21 0;
#X connect 20 1 21 1;
#X connect 21 0 24 0;
#X connect 23 0 20 0;
#X connect 24 0 6 0;
#X connect 24 1 25 0;
#X connect 25 0 26 0;
#X connect 26 0 6 1;
#X connect 27 0 28 0;
#X connect 28 0 34 0;
#X connect 29 0 30 0;
#X connect 30 0 32 2;
#X connect 31 0 16 0;
#X connect 31 1 19 0;
#X connect 31 2 29 0;
#X connect 31 3 32 3;
#X connect 32 0 33 0;
#X connect 33 0 5 0;
#X connect 34 0 31 0;
#X connect 34 1 12 0;
