#N canvas 489 71 859 661 12;
#X declare -path cg-pd-library-local/sampling;
#X declare -path cg-pd-library-local/sequencer;
#X declare -path cg-pd-library-local/externals;
#X declare -path cg-pd-library-local/metronome;
#X obj 335 568 throw~ outL;
#X obj 363 535 throw~ outR;
#X obj 570 297 r mess-2-sideChain;
#N canvas 4 50 552 392 load 0;
#X obj 67 34 loadbang;
#X obj 149 15 bng 15 250 50 0 empty empty empty 17 7 0 10 -262144 -1
-1;
#X obj 67 55 t b b b b b b;
#X obj 155 83 s init-sc-labels;
#X obj 102 180 s init-pages;
#X obj 157 139 s init-aux;
#X connect 0 0 2 0;
#X connect 1 0 2 0;
#X connect 2 3 4 0;
#X connect 2 4 5 0;
#X connect 2 5 3 0;
#X restore 31 46 pd load;
#X text 90 46 init sequence;
#X text 202 77 critter library of abstractions;
#N canvas 129 187 450 300 cg-pd-library-local 0;
#X obj 502 35 r cgSc-1-slots;
#X obj 60 68 declare -path cg-pd-library-local/sampling;
#X obj 60 98 declare -path cg-pd-library-local/sequencer;
#X obj 58 130 declare -path cg-pd-library-local/externals;
#X obj 59 165 declare -path cg-pd-library-local/metronome;
#X restore 31 76 pd cg-pd-library-local;
#X text 418 10 SideChain;
#X text 419 26 Left Channel input is signal;
#X text 420 41 Right Channel input is control signal;
#N canvas 213 85 466 372 knobs 0;
#N canvas 301 161 1458 764 page1-knobs 0;
#X obj 37 87 pow 2;
#X obj 37 118 * 1000;
#X obj 37 209 t a a;
#X obj 37 139 i;
#X obj 37 322 s mess-2-sideChain;
#X msg 37 297 att \$1;
#X obj 364 87 pow 2;
#X obj 364 209 t a a;
#X obj 364 139 i;
#X obj 364 322 s mess-2-sideChain;
#X obj 697 111 t a a;
#X obj 697 272 s mess-2-sideChain;
#X obj 1057 272 s mess-2-sideChain;
#X msg 1057 247 thresh \$1;
#X msg 697 247 gain \$1;
#X msg 364 297 rel \$1;
#X obj 364 118 * 4000;
#X obj 37 62 r xChain-1-knob1;
#X obj 364 66 r xChain-1-knob2;
#X obj 697 66 r xChain-1-knob3;
#X obj 1057 66 r xChain-1-knob4;
#X obj 697 90 * 1;
#X obj 37 163 max 5;
#X obj 364 163 max 5;
#N canvas 594 110 841 804 print-gain-adjust-bars 0;
#X obj 487 331 s oscOut;
#X msg 487 295 /oled/gClear 3 1;
#X obj 189 206 t a a, f 43;
#X obj 487 242 sel 1;
#X obj 217 77 r cgSc-1-mute-print;
#X obj 217 104 == 0;
#X obj 189 158 &&, f 9;
#X obj 217 126 t b a;
#X obj 487 266 del 1;
#X obj 189 50 == 1;
#X obj 102 579 r l-in-rms;
#X obj 449 500 r r-in-rms;
#X obj 83 613 f;
#X obj 83 402 r print-metro;
#X obj 431 527 f;
#X obj 83 471 t b b b b, f 75;
#X obj 185 576 snapshot~;
#X obj 629 522 catch~ r-gain-adjust;
#X obj 605 585 snapshot~;
#X obj 185 521 catch~ l-gain-adjust;
#X obj 431 654 cg-print-vslider 40 20 20 40;
#X obj 83 426 spigot;
#X obj 189 14 r glob-current-page;
#X obj 604 616 cg-print-vslider 65 20 5 40;
#X obj 83 658 cg-print-vslider 2 20 20 40;
#X obj 185 622 cg-print-vslider 27 20 5 40;
#N canvas 1069 205 565 760 if-muted-print-X 0;
#X obj 46 9 inlet;
#X obj 103 54 r \$0-mute-ctl;
#X obj 85 82 f;
#X obj 46 33 t a b;
#X obj 46 122 spigot;
#X obj 232 527 s oscOut;
#X obj 46 204 * 40;
#X obj 46 228 + 0.49999;
#X obj 46 252 i;
#X obj 278 402 f;
#X obj 278 426 pack 0 0;
#X obj 232 457 pack 0 1;
#X obj 46 316 t a a, f 27;
#X obj 232 365 t a a b;
#X obj 46 621 s oscOut;
#X obj 92 496 f;
#X obj 92 520 pack 0 0;
#X obj 46 551 pack 0 1;
#X obj 46 459 t a a b;
#X obj 53 148 swap 1;
#X obj 53 172 -;
#X obj 46 276 + 20;
#X msg 232 490 /oled/gLine 3 40 20 59 \$1 \$2;
#X msg 46 584 /oled/gLine 3 59 20 41 \$1 \$2;
#X connect 0 0 3 0;
#X connect 1 0 2 1;
#X connect 2 0 4 1;
#X connect 3 0 4 0;
#X connect 3 1 2 0;
#X connect 4 0 19 0;
#X connect 6 0 7 0;
#X connect 7 0 8 0;
#X connect 8 0 21 0;
#X connect 9 0 10 0;
#X connect 10 0 22 0;
#X connect 11 0 22 0;
#X connect 12 0 18 0;
#X connect 12 1 13 0;
#X connect 13 0 11 0;
#X connect 13 1 9 1;
#X connect 13 2 9 0;
#X connect 15 0 16 0;
#X connect 16 0 23 0;
#X connect 17 0 23 0;
#X connect 18 0 17 0;
#X connect 18 1 15 1;
#X connect 18 2 15 0;
#X connect 19 0 20 0;
#X connect 19 1 20 1;
#X connect 20 0 6 0;
#X connect 21 0 12 0;
#X connect 22 0 5 0;
#X connect 23 0 14 0;
#X restore 412 694 pd if-muted-print-X;
#X obj 431 551 t a a;
#X connect 1 0 0 0;
#X connect 2 0 21 1;
#X connect 2 1 3 0;
#X connect 3 0 8 0;
#X connect 4 0 5 0;
#X connect 5 0 7 0;
#X connect 6 0 2 0;
#X connect 7 0 6 0;
#X connect 7 1 6 1;
#X connect 8 0 1 0;
#X connect 9 0 6 0;
#X connect 10 0 12 1;
#X connect 11 0 14 1;
#X connect 12 0 24 0;
#X connect 13 0 21 0;
#X connect 14 0 27 0;
#X connect 15 0 12 0;
#X connect 15 1 16 0;
#X connect 15 2 14 0;
#X connect 15 3 18 0;
#X connect 16 0 25 0;
#X connect 17 0 18 0;
#X connect 18 0 23 0;
#X connect 19 0 16 0;
#X connect 21 0 15 0;
#X connect 22 0 9 0;
#X connect 27 0 26 0;
#X connect 27 1 20 0;
#X restore 30 33 pd print-gain-adjust-bars;
#X obj 52 638 s oscOut;
#X msg 99 566 /oled/gPrintln 3 75 20 8 0 A: \$1ms;
#X msg 36 599 /oled/gPrintln 3 75 20 8 1 A: \$1ms;
#X obj 95 535 f;
#X obj 409 485 s oscOut;
#X obj 457 383 f;
#X msg 393 446 /oled/gPrintln 3 75 30 8 1 R: \$1ms;
#X msg 426 417 /oled/gPrintln 3 75 30 8 0 R: \$1ms;
#X obj 766 515 s oscOut;
#X obj 819 418 f;
#X obj 799 197 * 100;
#X obj 799 221 i;
#X msg 831 445 /oled/gPrintln 3 75 40 8 0 Mx: \$1%;
#X msg 786 476 /oled/gPrintln 3 75 40 8 1 Mx: \$1%;
#X obj 1139 594 s oscOut;
#X obj 1177 496 f;
#X msg 1123 555 /oled/gPrintln 3 75 50 8 1 Th: \$1%;
#X msg 1156 526 /oled/gPrintln 3 75 50 8 0 Th: \$1%;
#X obj 1162 210 * 100;
#X obj 1162 234 i;
#X obj 616 712 s oscOut;
#X msg 616 666 /oled/gFlip 3;
#X obj 43 500 t b a a b;
#X obj 400 347 t b a a b;
#X obj 757 377 t b a a b;
#X obj 1130 456 t b a a b;
#N canvas 522 198 380 416 print-thresh 0;
#X obj 69 26 inlet;
#N canvas 786 132 937 756 print-thresh-tri 0;
#X obj 256 722 s oscOut;
#X obj 222 156 + 0.49999;
#X obj 222 230 i;
#X obj 222 278 t a a b;
#X obj 164 42 inlet;
#X obj 164 90 t b a;
#X obj 164 66 f;
#X obj 222 464 t a a, f 38;
#X obj 222 503 unpack 0 0 0;
#X obj 222 567 pack 0 0 0, f 13;
#X obj 222 132 * 40;
#X obj 222 254 + 20;
#N canvas 553 306 748 469 draw-arrow-left-side 0;
#X obj 25 16 inlet;
#X text 77 23 y target;
#X obj 417 217 unpack 0 0 0, f 31;
#X text 421 187 yPos \, xPos \, color;
#X text 224 71 top of arrow: xPos-5 \, yPos-5 \, xPos \, yPos;
#X obj 417 241 t a a;
#X obj 524 242 t a a;
#X obj 417 316 pack 0 0 0 0 0, f 32;
#X msg 417 358 /oled/gLine 3 \$4 \$2 \$3 \$1 \$5;
#X obj 40 226 unpack 0 0 0, f 31;
#X obj 40 250 t a a;
#X obj 147 251 t a a;
#X obj 40 325 pack 0 0 0 0 0, f 32;
#X msg 40 367 /oled/gLine 3 \$4 \$2 \$3 \$1 \$5;
#X obj 40 431 outlet;
#X obj 25 40 t a a;
#X obj 450 273 - 2;
#X obj 73 282 + 2;
#X obj 179 285 - 3;
#X obj 556 276 - 3;
#X connect 0 0 15 0;
#X connect 2 0 5 0;
#X connect 2 1 6 0;
#X connect 2 2 7 4;
#X connect 5 0 7 0;
#X connect 5 1 16 0;
#X connect 6 0 7 2;
#X connect 6 1 19 0;
#X connect 7 0 8 0;
#X connect 8 0 14 0;
#X connect 9 0 10 0;
#X connect 9 1 11 0;
#X connect 9 2 12 4;
#X connect 10 0 12 0;
#X connect 10 1 17 0;
#X connect 11 0 12 2;
#X connect 11 1 18 0;
#X connect 12 0 13 0;
#X connect 13 0 14 0;
#X connect 15 0 9 0;
#X connect 15 1 2 0;
#X connect 16 0 7 1;
#X connect 17 0 12 1;
#X connect 18 0 12 3;
#X connect 19 0 7 3;
#X restore 485 597 pd draw-arrow-left-side;
#N canvas 553 306 748 469 draw-arrow-right-side 0;
#X obj 25 16 inlet;
#X text 77 23 y target;
#X obj 417 217 unpack 0 0 0, f 31;
#X text 421 187 yPos \, xPos \, color;
#X text 224 71 top of arrow: xPos-5 \, yPos-5 \, xPos \, yPos;
#X obj 417 241 t a a;
#X obj 524 242 t a a;
#X obj 417 316 pack 0 0 0 0 0, f 32;
#X msg 417 358 /oled/gLine 3 \$4 \$2 \$3 \$1 \$5;
#X obj 40 226 unpack 0 0 0, f 31;
#X obj 40 250 t a a;
#X obj 147 251 t a a;
#X obj 40 325 pack 0 0 0 0 0, f 32;
#X msg 40 367 /oled/gLine 3 \$4 \$2 \$3 \$1 \$5;
#X obj 40 431 outlet;
#X obj 25 40 t a a;
#X obj 73 282 + 2;
#X obj 450 273 - 2;
#X obj 179 285 + 3;
#X obj 556 276 + 3;
#X connect 0 0 15 0;
#X connect 2 0 5 0;
#X connect 2 1 6 0;
#X connect 2 2 7 4;
#X connect 5 0 7 0;
#X connect 5 1 17 0;
#X connect 6 0 7 2;
#X connect 6 1 19 0;
#X connect 7 0 8 0;
#X connect 8 0 14 0;
#X connect 9 0 10 0;
#X connect 9 1 11 0;
#X connect 9 2 12 4;
#X connect 10 0 12 0;
#X connect 10 1 16 0;
#X connect 11 0 12 2;
#X connect 11 1 18 0;
#X connect 12 0 13 0;
#X connect 13 0 14 0;
#X connect 15 0 9 0;
#X connect 15 1 2 0;
#X connect 16 0 12 1;
#X connect 17 0 7 1;
#X connect 18 0 12 3;
#X connect 19 0 7 3;
#X restore 222 603 pd draw-arrow-right-side;
#X obj 262 532 + 21;
#X obj 222 420 pack 0 39 1, f 52;
#X obj 257 375 pack 0 39 0;
#X obj 257 345 f;
#X connect 1 0 2 0;
#X connect 2 0 11 0;
#X connect 3 0 15 0;
#X connect 3 1 17 1;
#X connect 3 2 17 0;
#X connect 4 0 6 0;
#X connect 5 1 10 0;
#X connect 6 0 5 0;
#X connect 7 0 8 0;
#X connect 7 1 12 0;
#X connect 8 0 9 0;
#X connect 8 1 14 0;
#X connect 8 2 9 2;
#X connect 9 0 13 0;
#X connect 10 0 1 0;
#X connect 11 0 3 0;
#X connect 12 0 0 0;
#X connect 13 0 0 0;
#X connect 14 0 9 1;
#X connect 15 0 7 0;
#X connect 16 0 7 0;
#X connect 17 0 16 0;
#X restore 101 173 pd print-thresh-tri;
#X msg 69 206 /oled/gFlip 3;
#X obj 69 238 s oscOut;
#X obj 101 134 f;
#X obj 101 82 swap 1;
#X obj 101 106 -;
#X obj 69 50 t b f;
#X connect 0 0 7 0;
#X connect 2 0 3 0;
#X connect 4 0 1 0;
#X connect 5 0 6 0;
#X connect 5 1 6 1;
#X connect 6 0 4 0;
#X connect 7 0 2 0;
#X connect 7 1 5 0;
#X restore 1216 206 pd print-thresh;
#N canvas 4 50 1607 954 print-titles-for-bars 0;
#X obj 408 898 s oscOut;
#X obj 464 132 r cgSc-1-mute-print;
#X obj 464 159 == 0;
#X obj 420 237 &&, f 9;
#X obj 420 137 == 1;
#X obj 464 181 t b a;
#X obj 243 293 sel 1;
#X obj 243 323 del 10;
#X obj 420 100 r glob-current-page;
#X obj 631 410 r \$0-sel-control-chan;
#X obj 632 509 spigot;
#X obj 631 484 f;
#X msg 632 728 /oled/gPrintln 3 40 10 8 1 \$1-Cntrl;
#X obj 632 533 sel 0 1;
#X obj 632 557 symbol L;
#X obj 655 583 symbol R;
#X obj 420 261 t a a a, f 50;
#X obj 632 623 t a a b;
#X obj 678 661 symbol;
#X msg 678 689 /oled/gPrintln 3 40 10 8 0 \$1-Cntrl;
#X obj 104 526 spigot;
#X obj 104 500 f;
#X obj 104 550 sel 0 1;
#X obj 104 574 symbol L;
#X obj 127 600 symbol R;
#X obj 104 640 t a a b;
#X obj 150 678 symbol;
#X obj 104 426 r \$0-sel-main-chan;
#X msg 104 745 /oled/gPrintln 3 2 10 8 1 \$1-Main;
#X msg 150 706 /oled/gPrintln 3 2 10 8 0 \$1-Main;
#X obj 243 347 t b b, f 12;
#X connect 1 0 2 0;
#X connect 2 0 5 0;
#X connect 3 0 16 0;
#X connect 4 0 3 0;
#X connect 5 0 3 0;
#X connect 5 1 3 1;
#X connect 6 0 7 0;
#X connect 7 0 30 0;
#X connect 8 0 4 0;
#X connect 9 0 11 0;
#X connect 10 0 13 0;
#X connect 11 0 10 0;
#X connect 12 0 0 0;
#X connect 13 0 14 0;
#X connect 13 1 15 0;
#X connect 14 0 17 0;
#X connect 15 0 17 0;
#X connect 16 0 6 0;
#X connect 16 1 20 1;
#X connect 16 2 10 1;
#X connect 17 0 12 0;
#X connect 17 1 18 1;
#X connect 17 2 18 0;
#X connect 18 0 19 0;
#X connect 19 0 0 0;
#X connect 20 0 22 0;
#X connect 21 0 20 0;
#X connect 22 0 23 0;
#X connect 22 1 24 0;
#X connect 23 0 25 0;
#X connect 24 0 25 0;
#X connect 25 0 28 0;
#X connect 25 1 26 1;
#X connect 25 2 26 0;
#X connect 26 0 29 0;
#X connect 27 0 21 0;
#X connect 28 0 0 0;
#X connect 29 0 0 0;
#X connect 30 0 21 0;
#X connect 30 1 11 0;
#X restore 30 7 pd print-titles-for-bars;
#X obj 1162 147 cg-page-print 1;
#X obj 1264 113 r glob-current-page;
#X obj 1213 76 r cgSc-1-mute-print;
#X obj 799 168 cg-page-print 1;
#X obj 901 134 r glob-current-page;
#X obj 850 97 r cgSc-1-mute-print;
#X obj 1162 171 t a a;
#X obj 1057 99 t a a, f 9;
#X obj 402 243 cg-page-print 1;
#X obj 504 209 r glob-current-page;
#X obj 453 172 r cgSc-1-mute-print;
#X obj 79 257 cg-page-print 1;
#X obj 181 223 r glob-current-page;
#X obj 130 186 r cgSc-1-mute-print;
#X connect 0 0 1 0;
#X connect 1 0 3 0;
#X connect 2 0 5 0;
#X connect 2 1 64 0;
#X connect 3 0 22 0;
#X connect 5 0 4 0;
#X connect 6 0 16 0;
#X connect 7 0 15 0;
#X connect 7 1 61 0;
#X connect 8 0 23 0;
#X connect 10 0 14 0;
#X connect 10 1 56 0;
#X connect 13 0 12 0;
#X connect 14 0 11 0;
#X connect 15 0 9 0;
#X connect 16 0 8 0;
#X connect 17 0 0 0;
#X connect 18 0 6 0;
#X connect 19 0 21 0;
#X connect 20 0 60 0;
#X connect 21 0 10 0;
#X connect 22 0 2 0;
#X connect 23 0 7 0;
#X connect 26 0 25 0;
#X connect 27 0 25 0;
#X connect 28 0 26 0;
#X connect 30 0 32 0;
#X connect 31 0 29 0;
#X connect 32 0 29 0;
#X connect 34 0 37 0;
#X connect 35 0 36 0;
#X connect 36 0 49 0;
#X connect 37 0 33 0;
#X connect 38 0 33 0;
#X connect 40 0 42 0;
#X connect 41 0 39 0;
#X connect 42 0 39 0;
#X connect 43 0 44 0;
#X connect 44 0 50 0;
#X connect 46 0 45 0;
#X connect 47 0 46 0;
#X connect 47 1 27 0;
#X connect 47 2 28 1;
#X connect 47 3 28 0;
#X connect 48 0 46 0;
#X connect 48 1 31 0;
#X connect 48 2 30 1;
#X connect 48 3 30 0;
#X connect 49 0 46 0;
#X connect 49 1 38 0;
#X connect 49 2 34 1;
#X connect 49 3 34 0;
#X connect 50 0 46 0;
#X connect 50 1 41 0;
#X connect 50 2 40 1;
#X connect 50 3 40 0;
#X connect 53 0 59 0;
#X connect 54 0 53 2;
#X connect 55 0 53 1;
#X connect 56 0 35 0;
#X connect 57 0 56 2;
#X connect 58 0 56 1;
#X connect 59 0 43 0;
#X connect 59 1 51 0;
#X connect 60 0 13 0;
#X connect 60 1 53 0;
#X connect 61 0 48 0;
#X connect 62 0 61 2;
#X connect 63 0 61 1;
#X connect 64 0 47 0;
#X connect 65 0 64 2;
#X connect 66 0 64 1;
#X restore 58 82 pd page1-knobs;
#N canvas 4 50 1358 682 page2-knobs 0;
#X obj 703 256 pow 2;
#X obj 703 335 t a a;
#X obj 703 309 i;
#X obj 333 136 pow 2;
#X obj 333 195 t a a;
#X obj 333 107 r xChain-2-knob2;
#X obj 365 343 s screenLine2;
#X msg 365 315 2: Feedback: \$1%;
#X obj 365 279 i;
#X obj 365 254 * 100;
#X obj 671 594 s delTime;
#X obj 333 388 s del-Fb;
#X obj 13 183 t a a, f 9;
#X obj 73 267 i;
#X obj 73 242 * 100;
#X obj 13 376 s del-vol;
#X obj 703 284 * 2000;
#X obj 13 207 pow 2;
#X obj 13 109 r xChain-2-knob1;
#X msg 73 303 1: Volume: \$1%;
#X obj 73 331 s screenLine1;
#X obj 703 37 r xChain-2-knob3;
#X msg 735 455 3: Del Time: \$1 ms;
#X obj 703 141 t a a, f 52;
#X obj 703 195 spigot 0;
#X obj 1064 172 spigot 0;
#X obj 756 167 == 0;
#X obj 1064 220 + 0.49999;
#X obj 1064 244 i;
#N canvas 143 372 887 514 note-div-10 0;
#X obj 34 19 inlet;
#X obj 33 144 32;
#X obj 73 144 24;
#X obj 119 144 16;
#X obj 159 144 12;
#X obj 210 143 8;
#X obj 250 143 6;
#X obj 301 141 4;
#X obj 341 141 3;
#X obj 387 139 2;
#X obj 427 139 1;
#X obj 34 43 sel 0 1 2 3 4 5 6 7 8 9, f 47;
#X obj 42 239 outlet;
#X connect 0 0 11 0;
#X connect 1 0 12 0;
#X connect 2 0 12 0;
#X connect 3 0 12 0;
#X connect 4 0 12 0;
#X connect 5 0 12 0;
#X connect 6 0 12 0;
#X connect 7 0 12 0;
#X connect 8 0 12 0;
#X connect 9 0 12 0;
#X connect 10 0 12 0;
#X connect 11 0 1 0;
#X connect 11 1 2 0;
#X connect 11 2 3 0;
#X connect 11 3 4 0;
#X connect 11 4 5 0;
#X connect 11 5 6 0;
#X connect 11 6 7 0;
#X connect 11 7 8 0;
#X connect 11 8 9 0;
#X connect 11 9 10 0;
#X restore 1064 276 pd note-div-10;
#X obj 1064 196 * 10;
#X obj 863 40 r \$0-sync-del;
#X obj 959 100 t a a;
#X obj 671 563 f;
#X obj 333 160 min 0.98;
#X obj 863 68 t b a, f 14;
#X obj 703 101 f;
#X obj 175 179 r glob-current-page;
#X obj 124 142 r cgSc-1-mute-print;
#X obj 73 212 cg-page-print 2;
#X obj 467 188 r glob-current-page;
#X obj 416 151 r cgSc-1-mute-print;
#X obj 365 221 cg-page-print 2;
#X obj 1198 610 r glob-current-page;
#X obj 1147 573 r cgSc-1-mute-print;
#X obj 1096 643 cg-page-print 2;
#X obj 1096 667 s screenLine3;
#X obj 1303 371 cg-delTime-rel 32000;
#X obj 1064 300 t a a;
#X obj 1303 460 s delTime;
#X obj 1342 398 r \$0-sync-del;
#X obj 1303 429 spigot;
#X obj 1300 37 r xChain-2-knob4;
#X obj 1603 539 r glob-current-page;
#X obj 1552 502 r cgSc-1-mute-print;
#X obj 1501 572 cg-page-print 2;
#X obj 1501 596 s screenLine4;
#X obj 1440 342 r bpm;
#X msg 1096 502 3: Note Type: 1/\$1;
#X obj 1300 135 t a a, f 52;
#X obj 1300 189 spigot 0;
#X obj 1661 166 spigot 0;
#X obj 1353 161 == 0;
#X obj 1460 34 r \$0-sync-del;
#X obj 1556 94 t a a;
#X obj 1460 62 t b a, f 14;
#X obj 1300 95 f;
#X msg 1300 213 _;
#X msg 1501 446 4: Note Amount: \$1;
#X obj 1540 381 r \$0-sync-del;
#X obj 1501 412 spigot;
#X connect 0 0 16 0;
#X connect 1 0 33 0;
#X connect 1 1 22 0;
#X connect 2 0 1 0;
#X connect 3 0 34 0;
#X connect 4 0 11 0;
#X connect 4 1 42 0;
#X connect 5 0 3 0;
#X connect 7 0 6 0;
#X connect 8 0 7 0;
#X connect 9 0 8 0;
#X connect 12 0 17 0;
#X connect 12 1 39 0;
#X connect 13 0 19 0;
#X connect 14 0 13 0;
#X connect 16 0 2 0;
#X connect 17 0 15 0;
#X connect 18 0 12 0;
#X connect 19 0 20 0;
#X connect 21 0 36 0;
#X connect 22 0 45 0;
#X connect 23 0 24 0;
#X connect 23 1 25 0;
#X connect 24 0 0 0;
#X connect 25 0 30 0;
#X connect 26 0 24 1;
#X connect 27 0 28 0;
#X connect 28 0 29 0;
#X connect 29 0 48 0;
#X connect 30 0 27 0;
#X connect 31 0 35 0;
#X connect 32 0 26 0;
#X connect 32 1 25 1;
#X connect 33 0 10 0;
#X connect 34 0 4 0;
#X connect 35 0 36 0;
#X connect 35 1 32 0;
#X connect 36 0 23 0;
#X connect 37 0 39 2;
#X connect 38 0 39 1;
#X connect 39 0 14 0;
#X connect 40 0 42 2;
#X connect 41 0 42 1;
#X connect 42 0 9 0;
#X connect 43 0 45 2;
#X connect 44 0 45 1;
#X connect 45 0 46 0;
#X connect 47 0 51 0;
#X connect 47 1 70 0;
#X connect 48 0 47 0;
#X connect 48 1 58 0;
#X connect 50 0 51 1;
#X connect 51 0 49 0;
#X connect 52 0 66 0;
#X connect 53 0 55 2;
#X connect 54 0 55 1;
#X connect 55 0 56 0;
#X connect 57 0 47 2;
#X connect 58 0 45 0;
#X connect 59 0 60 0;
#X connect 59 1 61 0;
#X connect 60 0 67 0;
#X connect 61 0 47 1;
#X connect 62 0 60 1;
#X connect 63 0 65 0;
#X connect 64 0 62 0;
#X connect 64 1 61 1;
#X connect 65 0 66 0;
#X connect 65 1 64 0;
#X connect 66 0 59 0;
#X connect 67 0 55 0;
#X connect 68 0 55 0;
#X connect 69 0 70 1;
#X connect 70 0 68 0;
#X restore 57 130 pd page2-knobs;
#N canvas 4 50 1358 682 page3-knobs 0;
#X obj 34 253 i;
#X obj 74 559 s set-global-bpm;
#X obj 34 201 + 20;
#X obj 34 30 r xChain-3-knob1;
#X obj 34 225 + 0.49999;
#X obj 206 387 s screenLine1;
#X obj 308 290 r glob-current-page;
#X obj 257 253 r cgSc-1-mute-print;
#X obj 493 97 r xChain-3-knob2;
#X obj 493 169 i;
#X obj 746 399 r glob-current-page;
#X obj 695 362 r cgSc-1-mute-print;
#X obj 644 496 s screenLine2;
#X obj 782 103 r xChain-3-knob3;
#X obj 777 142 r xChain-3-knob4;
#X obj 644 432 cg-page-print 3;
#X obj 206 323 cg-page-print 3;
#X msg 644 468 2: Fine Adjust: \$1;
#X obj 1126 387 r glob-current-page;
#X obj 1075 350 r cgSc-1-mute-print;
#X obj 1024 420 cg-page-print 3;
#X obj 1024 564 s screenLine3;
#X obj 493 217 t a a b;
#X msg 1024 506 Manul BPM is Off;
#X obj 1024 450 v tempo-manual?;
#X obj 1024 474 sel 1 0;
#X msg 1058 531 _;
#X obj 35 770 s screenLine4;
#X obj 103 686 r tempo-readout;
#X obj 35 717 list store;
#X obj 35 741 list trim;
#X obj 973 521 t b b;
#X obj 493 193 / 10;
#X obj 34 288 t a a, f 25;
#X obj 493 121 * 9;
#X obj 34 177 * 230;
#X obj 34 527 t b a;
#X obj 493 145 + 0.49999;
#X obj 34 677 del 1;
#X msg 206 359 1: Set Tempo: \$1 BPM;
#X obj 34 494 +, f 36;
#X obj 236 440 t b a;
#X obj 135 617 r glob-current-page;
#X obj 84 590 r cgSc-1-mute-print;
#X obj 33 650 cg-page-print 3;
#X connect 0 0 33 0;
#X connect 2 0 4 0;
#X connect 3 0 35 0;
#X connect 4 0 0 0;
#X connect 6 0 16 2;
#X connect 7 0 16 1;
#X connect 8 0 34 0;
#X connect 9 0 32 0;
#X connect 10 0 15 2;
#X connect 11 0 15 1;
#X connect 15 0 17 0;
#X connect 16 0 39 0;
#X connect 17 0 12 0;
#X connect 18 0 20 2;
#X connect 19 0 20 1;
#X connect 20 0 24 0;
#X connect 22 0 41 0;
#X connect 22 1 15 0;
#X connect 22 2 20 0;
#X connect 23 0 21 0;
#X connect 24 0 25 0;
#X connect 25 0 26 0;
#X connect 25 1 31 0;
#X connect 26 0 21 0;
#X connect 28 0 29 1;
#X connect 29 0 30 0;
#X connect 30 0 27 0;
#X connect 31 1 23 0;
#X connect 32 0 22 0;
#X connect 33 0 40 0;
#X connect 33 1 16 0;
#X connect 34 0 37 0;
#X connect 35 0 2 0;
#X connect 36 0 44 0;
#X connect 36 1 1 0;
#X connect 37 0 9 0;
#X connect 38 0 29 0;
#X connect 39 0 5 0;
#X connect 40 0 36 0;
#X connect 41 0 40 0;
#X connect 41 1 40 1;
#X connect 42 0 44 2;
#X connect 43 0 44 1;
#X connect 44 0 38 0;
#X restore 60 185 pd page3-knobs;
#X restore 31 112 pd knobs;
#N canvas 4 50 1358 682 shortcuts 0;
#X obj 131 121 sel 0;
#X obj 165 150 t b;
#X obj 165 181 f 1;
#X obj 197 182 + 1;
#X obj 197 203 == 1;
#X obj 165 313 sel 0 1, f 14;
#X obj 131 90 r cgSc-1-1;
#X obj 165 404 s cgSc-1-1label;
#X obj 395 65 r aux;
#X obj 532 93 r \$0-reprint-port;
#X obj 395 161 s post-sc-notes;
#X text 369 13 Shortcut manager;
#X obj 395 133 cg-shortcut 1 0 0, f 20;
#X obj 463 42 r init-aux;
#X obj 485 288 sel 0;
#X obj 519 317 t b;
#X obj 519 348 f 1;
#X obj 551 349 + 1;
#X obj 551 370 == 1;
#X obj 519 450 sel 0 1, f 14;
#X msg 566 482 Cntrl: R;
#X msg 519 511 Cntrl: L;
#X obj 485 257 r cgSc-1-2;
#X obj 519 541 s cgSc-1-2label;
#X obj 808 151 sel 0;
#X obj 840 180 t b;
#X obj 808 120 r cgSc-1-3;
#X obj 840 483 s cgSc-1-3label;
#X msg 463 66 init bang;
#X msg 165 374 Main: L;
#X msg 205 345 Main: R;
#X obj 203 287 s \$0-sel-main-chan;
#X obj 600 424 s \$0-sel-control-chan;
#X obj 880 318 s \$0-delay-toggle;
#X obj 136 497 sel 0;
#X obj 170 526 t b;
#X obj 170 557 f 1;
#X obj 202 558 + 1;
#X obj 202 579 == 1;
#X obj 170 659 sel 0 1, f 14;
#X obj 251 633 s \$0-sync-del;
#X obj 136 466 r cgSc-1-4;
#X obj 170 749 s cgSc-1-4label;
#X msg 217 690 Del: Sync;
#X msg 170 720 Del: Free;
#X obj 755 757 text define shortcut-save;
#X obj 812 559 r saveState;
#X msg 812 583 write shortcuts.txt;
#X obj 1020 658 text set shortcut-save;
#X obj 165 232 t f f f, f 12;
#X obj 349 265 s save-2-text;
#X obj 346 235 pack 0 0;
#X obj 1020 571 r save-2-text;
#X obj 1020 595 unpack 0 0;
#X obj 652 382 s save-2-text;
#X obj 649 352 pack 0 1;
#X obj 519 399 t f f f, f 12;
#X obj 954 232 s save-2-text;
#X obj 951 202 pack 0 2;
#X obj 840 292 t f f f, f 12;
#X obj 366 733 s save-2-text;
#X obj 170 608 t f f f, f 12;
#X obj 363 703 pack 0 3;
#X obj 251 497 r recall-from-text;
#X obj 912 119 r recall-from-text;
#X obj 912 143 route 2;
#X obj 251 521 route 3;
#X obj 596 245 r recall-from-text;
#X obj 596 269 route 1;
#X obj 227 100 r recall-from-text;
#X obj 231 131 route 0;
#X obj 831 614 r init-sc-labels;
#X obj 831 638 t b b;
#X msg 876 665 read shortcuts.txt;
#N canvas 4 50 450 300 recall-for-loop 0;
#X obj 38 15 inlet;
#X obj 38 63 t a b, f 11;
#X obj 38 87 max 1;
#X obj 38 111 until;
#X obj 102 95 0;
#X obj 38 135 f;
#X obj 77 139 + 1;
#X obj 50 231 pack 0 0;
#X obj 38 159 t a a;
#X obj 87 192 text get shortcut-save;
#X obj 50 255 outlet;
#X obj 38 39 5;
#X connect 0 0 11 0;
#X connect 1 0 2 0;
#X connect 1 1 4 0;
#X connect 2 0 3 0;
#X connect 3 0 5 0;
#X connect 4 0 5 1;
#X connect 5 0 6 0;
#X connect 5 0 8 0;
#X connect 6 0 5 1;
#X connect 7 0 10 0;
#X connect 8 0 7 0;
#X connect 8 1 9 0;
#X connect 9 0 7 1;
#X connect 11 0 1 0;
#X restore 832 689 pd recall-for-loop;
#X obj 830 718 s recall-from-text;
#X obj 1119 197 sel 0;
#X obj 1153 226 t b;
#X obj 1153 257 f 1;
#X obj 1185 258 + 1;
#X obj 1185 279 == 1;
#X obj 1153 359 sel 0 1, f 14;
#X obj 1359 372 s save-2-text;
#X obj 1154 308 t f f f, f 29;
#X obj 1230 154 r recall-from-text;
#X obj 1119 166 r cgSc-1-5;
#X msg 1153 420 MuteCl_Off;
#X msg 1200 391 MuteCl_On;
#X obj 1153 450 s cgSc-1-5label;
#X obj 1357 342 pack 0 4;
#X obj 1230 178 route 4;
#X obj 1308 411 list prepend muteCtl;
#X obj 1308 435 list trim;
#X obj 1308 459 s mess-2-sideChain;
#X obj 1300 269 s \$0-mute-ctl;
#X obj 833 231 f 1;
#X obj 865 232 + 1;
#X obj 865 253 == 1;
#X obj 840 373 sel 0 1, f 14;
#X msg 840 454 Delay: Off;
#X msg 887 425 Delay: On;
#X connect 0 1 1 0;
#X connect 1 0 2 0;
#X connect 2 0 3 0;
#X connect 2 0 49 0;
#X connect 3 0 4 0;
#X connect 4 0 2 1;
#X connect 5 0 29 0;
#X connect 5 1 30 0;
#X connect 6 0 0 0;
#X connect 8 0 12 0;
#X connect 9 0 12 1;
#X connect 12 0 10 0;
#X connect 13 0 28 0;
#X connect 14 1 15 0;
#X connect 15 0 16 0;
#X connect 16 0 17 0;
#X connect 16 0 56 0;
#X connect 17 0 18 0;
#X connect 18 0 16 1;
#X connect 19 0 21 0;
#X connect 19 1 20 0;
#X connect 20 0 23 0;
#X connect 21 0 23 0;
#X connect 22 0 14 0;
#X connect 24 1 25 0;
#X connect 25 0 95 0;
#X connect 26 0 24 0;
#X connect 28 0 12 0;
#X connect 29 0 7 0;
#X connect 30 0 7 0;
#X connect 34 1 35 0;
#X connect 35 0 36 0;
#X connect 36 0 37 0;
#X connect 36 0 61 0;
#X connect 37 0 38 0;
#X connect 38 0 36 1;
#X connect 39 0 44 0;
#X connect 39 1 43 0;
#X connect 41 0 34 0;
#X connect 43 0 42 0;
#X connect 44 0 42 0;
#X connect 46 0 47 0;
#X connect 47 0 45 0;
#X connect 49 0 5 0;
#X connect 49 1 31 0;
#X connect 49 2 51 0;
#X connect 51 0 50 0;
#X connect 52 0 53 0;
#X connect 53 0 48 0;
#X connect 53 1 48 1;
#X connect 55 0 54 0;
#X connect 56 0 19 0;
#X connect 56 1 32 0;
#X connect 56 2 55 0;
#X connect 58 0 57 0;
#X connect 59 0 98 0;
#X connect 59 1 33 0;
#X connect 59 2 58 0;
#X connect 61 0 39 0;
#X connect 61 1 40 0;
#X connect 61 2 62 0;
#X connect 62 0 60 0;
#X connect 63 0 66 0;
#X connect 64 0 65 0;
#X connect 65 0 95 0;
#X connect 66 0 36 0;
#X connect 67 0 68 0;
#X connect 68 0 16 0;
#X connect 69 0 70 0;
#X connect 70 0 2 0;
#X connect 71 0 72 0;
#X connect 72 0 74 0;
#X connect 72 1 73 0;
#X connect 73 0 45 0;
#X connect 74 0 75 0;
#X connect 76 1 77 0;
#X connect 77 0 78 0;
#X connect 78 0 79 0;
#X connect 78 0 83 0;
#X connect 79 0 80 0;
#X connect 80 0 78 1;
#X connect 81 0 86 0;
#X connect 81 1 87 0;
#X connect 83 0 81 0;
#X connect 83 1 91 0;
#X connect 83 1 94 0;
#X connect 83 2 89 0;
#X connect 84 0 90 0;
#X connect 85 0 76 0;
#X connect 86 0 88 0;
#X connect 87 0 88 0;
#X connect 89 0 82 0;
#X connect 90 0 78 0;
#X connect 91 0 92 0;
#X connect 92 0 93 0;
#X connect 95 0 96 0;
#X connect 95 0 59 0;
#X connect 96 0 97 0;
#X connect 97 0 95 1;
#X connect 98 0 99 0;
#X connect 98 1 100 0;
#X connect 99 0 27 0;
#X connect 100 0 27 0;
#X restore 30 140 pd shortcuts;
#N canvas 255 118 978 822 shortcut-pages 0;
#X msg 695 143 write;
#X msg 630 111 init;
#X obj 606 54 r init-pages;
#X obj 734 90 r saveState;
#X obj 98 49 sel 0;
#X obj 60 570 sel 0 1, f 14;
#X obj 98 18 r cgSc-1-6;
#X obj 60 661 s cgSc-1-6label;
#X obj 60 507 == 1;
#X obj 184 202 i;
#X obj 130 101 1;
#X obj 130 75 t b;
#X obj 288 575 sel 0 1, f 14;
#X obj 288 666 s cgSc-1-7label;
#X obj 288 512 == 2;
#X obj 193 52 sel 0;
#X obj 225 78 t b;
#X obj 225 104 2;
#X obj 218 250 s \$0-current-page;
#X obj 60 473 r \$0-current-page;
#X obj 288 475 r \$0-current-page;
#X obj 400 83 r \$0-current-page;
#X obj 193 21 r cgSc-1-7;
#X obj 184 226 t a a;
#X obj 184 286 s glob-current-page;
#X obj 592 305 pipe 1000;
#X obj 469 578 sel 0 1, f 14;
#X obj 469 478 r \$0-current-page;
#X obj 469 515 == 3;
#X obj 469 669 s cgSc-1-8label;
#X obj 592 281 cg-pages 3 xChain;
#X obj 275 53 sel 0;
#X obj 307 79 t b;
#X obj 275 22 r cgSc-1-8;
#X obj 307 105 3;
#X msg 738 214 mute \$1;
#X obj 738 162 r cgSc-1-mute-print;
#X obj 738 186 == 0;
#X msg 107 602 Mix: On;
#X msg 60 631 Mix: Off;
#X msg 335 607 Delay: On;
#X msg 288 636 Delay: Off;
#X msg 516 610 Tempo: On;
#X msg 469 639 Tempo: Off;
#X connect 0 0 30 1;
#X connect 1 0 30 1;
#X connect 2 0 1 0;
#X connect 3 0 0 0;
#X connect 4 1 11 0;
#X connect 5 0 39 0;
#X connect 5 1 38 0;
#X connect 6 0 4 0;
#X connect 8 0 5 0;
#X connect 9 0 23 0;
#X connect 10 0 9 0;
#X connect 11 0 10 0;
#X connect 12 0 41 0;
#X connect 12 1 40 0;
#X connect 14 0 12 0;
#X connect 15 1 16 0;
#X connect 16 0 17 0;
#X connect 17 0 9 0;
#X connect 19 0 8 0;
#X connect 20 0 14 0;
#X connect 21 0 30 0;
#X connect 22 0 15 0;
#X connect 23 0 24 0;
#X connect 23 1 18 0;
#X connect 25 0 9 0;
#X connect 26 0 43 0;
#X connect 26 1 42 0;
#X connect 27 0 28 0;
#X connect 28 0 26 0;
#X connect 30 0 25 0;
#X connect 31 1 32 0;
#X connect 32 0 34 0;
#X connect 33 0 31 0;
#X connect 34 0 9 0;
#X connect 35 0 30 1;
#X connect 36 0 37 0;
#X connect 37 0 35 0;
#X connect 38 0 7 0;
#X connect 39 0 7 0;
#X connect 40 0 13 0;
#X connect 41 0 13 0;
#X connect 42 0 29 0;
#X connect 43 0 29 0;
#X restore 29 166 pd shortcut-pages;
#N canvas 237 262 450 300 metronome 0;
#N canvas 231 50 1083 695 metro-here 0;
#X obj 54 179 s beat-clock;
#X obj 54 32 loadbang;
#X obj 187 33 inlet;
#X text 225 34 bpm;
#X msg 54 53 1;
#X obj 366 117 sel 1 2 3 4, f 26;
#X msg 366 156 BPM;
#X msg 442 156 LINK;
#X msg 403 156 MIDI;
#X msg 499 155 OFF;
#X obj 54 81 metronome360 1, f 45;
#X obj 339 265 pack 0 s;
#X obj 392 203 symbol;
#X obj 210 179 s bpm;
#X obj 210 117 t a a;
#X obj 683 553 r glob-current-page;
#X obj 632 526 r cgSc-1-mute-print;
#X obj 581 586 cg-page-print 2;
#X obj 581 611 s screenLine5;
#X msg 339 298 Tempo: \$1 \$2;
#X obj 499 202 0;
#X obj 467 200 1;
#X obj 201 352 s tempo-readout;
#X msg 309 33 120;
#X obj 481 241 v tempo-manual?;
#X obj 339 447 t a a, f 35;
#X obj 339 494 spigot 0;
#X obj 581 478 spigot 0;
#X obj 392 470 == 0;
#X obj 500 338 r \$0-sync-del;
#X obj 595 411 t a a, f 6;
#X obj 500 366 t b a, f 14;
#X msg 339 518 _;
#X obj 339 418 list store;
#X obj 339 336 t b a;
#X connect 1 0 4 0;
#X connect 2 0 10 1;
#X connect 4 0 10 0;
#X connect 5 0 6 0;
#X connect 5 0 21 0;
#X connect 5 1 8 0;
#X connect 5 1 20 0;
#X connect 5 2 7 0;
#X connect 5 2 20 0;
#X connect 5 3 9 0;
#X connect 5 3 21 0;
#X connect 6 0 12 0;
#X connect 7 0 12 0;
#X connect 8 0 12 0;
#X connect 9 0 12 0;
#X connect 10 0 0 0;
#X connect 10 1 14 0;
#X connect 10 2 5 0;
#X connect 11 0 19 0;
#X connect 12 0 11 1;
#X connect 14 0 13 0;
#X connect 14 1 11 0;
#X connect 15 0 17 2;
#X connect 16 0 17 1;
#X connect 17 0 18 0;
#X connect 19 0 22 0;
#X connect 19 0 34 0;
#X connect 20 0 24 0;
#X connect 21 0 24 0;
#X connect 23 0 10 1;
#X connect 25 0 26 0;
#X connect 25 1 27 0;
#X connect 26 0 32 0;
#X connect 27 0 17 0;
#X connect 28 0 26 1;
#X connect 29 0 31 0;
#X connect 30 0 28 0;
#X connect 30 1 27 1;
#X connect 31 0 33 0;
#X connect 31 1 30 0;
#X connect 32 0 17 0;
#X connect 33 0 25 0;
#X connect 34 0 33 0;
#X connect 34 1 33 1;
#X restore 99 171 pd metro-here;
#X obj 99 46 r set-global-bpm;
#X connect 1 0 0 0;
#X restore 30 215 pd metronome;
#X obj 334 489 *~ 1;
#X obj 335 443 cg-gate-xchain~, f 34;
#X obj 62 424 s print-metro;
#X obj 30 394 t b b;
#X obj 30 510 s oscOut;
#X msg 30 464 /oled/gFlip 3;
#X obj 30 350 metro 50;
#X obj 490 532 throw~ l-gain-adjust;
#X obj 570 496 throw~ r-gain-adjust;
#N canvas 636 191 998 566 inlets 0;
#X obj 69 2 r~ inL;
#X obj 70 247 outlet~;
#X obj 376 238 outlet~;
#X obj 99 32 r \$0-sel-main-chan;
#X obj 128 58 r \$0-sel-control-chan;
#N canvas 331 308 450 300 route-L-0 0;
#X obj 22 15 inlet~;
#X obj 23 252 outlet~;
#X obj 290 251 outlet~;
#X obj 108 12 inlet;
#X obj 22 159 *~;
#X obj 291 162 *~;
#X obj 309 130 line~;
#X obj 309 101 pack 0 10;
#X obj 39 130 line~;
#X obj 39 101 pack 0 10;
#X obj 39 77 == 0;
#X obj 308 18 inlet;
#X text 81 249 main;
#X text 350 254 control;
#X obj 309 77 == 0;
#X connect 0 0 4 0;
#X connect 0 0 5 0;
#X connect 3 0 10 0;
#X connect 4 0 1 0;
#X connect 5 0 2 0;
#X connect 6 0 5 1;
#X connect 7 0 6 0;
#X connect 8 0 4 1;
#X connect 9 0 8 0;
#X connect 10 0 9 0;
#X connect 11 0 14 0;
#X connect 14 0 7 0;
#X restore 69 122 pd route-L-0;
#X obj 326 45 r \$0-sel-main-chan;
#X obj 355 71 r \$0-sel-control-chan;
#X obj 296 15 r~ inR;
#N canvas 331 308 450 300 route-R-1 0;
#X obj 22 15 inlet~;
#X obj 23 252 outlet~;
#X obj 290 251 outlet~;
#X obj 108 12 inlet;
#X obj 22 159 *~;
#X obj 291 162 *~;
#X obj 309 130 line~;
#X obj 309 101 pack 0 10;
#X obj 39 130 line~;
#X obj 39 101 pack 0 10;
#X obj 308 18 inlet;
#X text 81 249 main;
#X text 350 254 control;
#X obj 39 77 == 1;
#X obj 309 77 == 1;
#X connect 0 0 4 0;
#X connect 0 0 5 0;
#X connect 3 0 13 0;
#X connect 4 0 1 0;
#X connect 5 0 2 0;
#X connect 6 0 5 1;
#X connect 7 0 6 0;
#X connect 8 0 4 1;
#X connect 9 0 8 0;
#X connect 10 0 14 0;
#X connect 13 0 9 0;
#X connect 14 0 7 0;
#X restore 296 135 pd route-R-1;
#X connect 0 0 5 0;
#X connect 3 0 5 1;
#X connect 4 0 5 2;
#X connect 5 0 1 0;
#X connect 5 1 2 0;
#X connect 6 0 9 1;
#X connect 7 0 9 2;
#X connect 8 0 9 0;
#X connect 9 0 1 0;
#X connect 9 1 2 0;
#X restore 336 166 pd inlets;
#X f 17;
#X text 469 414 control inlet;
#X text 345 417 main sound;
#X obj 579 208 r \$0-delay-toggle;
#X obj 240 382 s l-in-rms;
#X obj 240 326 - 20;
#X obj 240 350 / 80;
#X obj 240 302 env~ 2048;
#X obj 368 325 - 20;
#X obj 368 349 / 80;
#X obj 368 301 env~ 2048;
#X obj 368 382 s r-in-rms;
#N canvas 150 175 1041 608 Delay 0;
#X obj 33 25 inlet~;
#X text 86 25 input form main signal;
#X obj 147 550 outlet~;
#X obj 570 354 switch~;
#X obj 370 13 inlet;
#X obj 325 310 vline~;
#X obj 147 387 *~, f 26;
#X obj 325 283 pack 0 8;
#X obj 443 94 1;
#X obj 370 90 0;
#X obj 395 221 del 8;
#X msg 426 177 stop;
#X obj 443 118 t a a b;
#X obj 434 288 0;
#X obj 370 114 t a b b;
#X obj 255 18 r del-Fb;
#X obj 252 185 *~;
#X obj 198 425 r del-vol;
#X obj 147 521 *~;
#X obj 198 503 line~;
#X obj 33 75 delwrite~ \$0-fb-loop2 2000;
#X obj 89 322 delread4~ \$0-fb-loop2;
#X obj 88 269 line~;
#X msg 116 44 clear;
#X obj 395 245 t b b;
#X obj 26 134 r delTime;
#X obj 275 147 line~;
#X obj 589 99 s \$0-valve;
#X obj 264 440 r \$0-valve;
#N canvas 4 50 450 300 valve 0;
#X obj 164 44 inlet;
#X obj 24 43 inlet;
#X obj 24 117 spigot;
#X obj 164 68 t a a;
#X obj 157 124 spigot;
#X obj 24 141 pack 0 10;
#X obj 23 218 outlet;
#X obj 93 89 == 0;
#X connect 0 0 3 0;
#X connect 1 0 2 0;
#X connect 1 0 4 0;
#X connect 2 0 5 0;
#X connect 3 0 7 0;
#X connect 3 1 4 1;
#X connect 4 0 6 0;
#X connect 5 0 6 0;
#X connect 7 0 2 1;
#X restore 199 469 pd valve;
#X obj 140 196 r \$0-valve;
#N canvas 4 50 450 300 valve 0;
#X obj 164 44 inlet;
#X obj 24 43 inlet;
#X obj 24 117 spigot;
#X obj 164 68 t a a;
#X obj 157 124 spigot;
#X obj 24 141 pack 0 10;
#X obj 23 218 outlet;
#X obj 93 89 == 0;
#X connect 0 0 3 0;
#X connect 1 0 2 0;
#X connect 1 0 4 0;
#X connect 2 0 5 0;
#X connect 3 0 7 0;
#X connect 3 1 4 1;
#X connect 4 0 6 0;
#X connect 5 0 6 0;
#X connect 7 0 2 1;
#X restore 88 225 pd valve;
#X obj 283 62 r \$0-valve;
#N canvas 4 50 450 300 valve 0;
#X obj 164 44 inlet;
#X obj 24 43 inlet;
#X obj 24 117 spigot;
#X obj 164 68 t a a;
#X obj 157 124 spigot;
#X obj 24 141 pack 0 10;
#X obj 23 218 outlet;
#X obj 93 89 == 0;
#X connect 0 0 3 0;
#X connect 1 0 2 0;
#X connect 1 0 4 0;
#X connect 2 0 5 0;
#X connect 3 0 7 0;
#X connect 3 1 4 1;
#X connect 4 0 6 0;
#X connect 5 0 6 0;
#X connect 7 0 2 1;
#X restore 248 91 pd valve;
#X obj 370 37 t a a, f 31;
#X obj 370 61 sel 0 1, f 20;
#X obj 26 158 t a a;
#X obj 106 146 * 0.001;
#X obj 106 194 i;
#X obj 106 170 * 100;
#X obj 172 123 change -1;
#X obj 172 147 t b;
#X connect 0 0 20 0;
#X connect 4 0 34 0;
#X connect 5 0 6 1;
#X connect 6 0 18 0;
#X connect 7 0 5 0;
#X connect 8 0 12 0;
#X connect 9 0 14 0;
#X connect 10 0 24 0;
#X connect 11 0 10 0;
#X connect 12 0 7 0;
#X connect 12 1 3 0;
#X connect 12 2 11 0;
#X connect 13 0 3 0;
#X connect 14 0 7 0;
#X connect 14 1 10 0;
#X connect 14 2 11 0;
#X connect 15 0 33 0;
#X connect 16 0 20 0;
#X connect 17 0 29 0;
#X connect 18 0 2 0;
#X connect 19 0 18 1;
#X connect 21 0 6 0;
#X connect 21 0 16 0;
#X connect 22 0 21 0;
#X connect 23 0 20 0;
#X connect 24 0 23 0;
#X connect 24 1 13 0;
#X connect 25 0 36 0;
#X connect 26 0 16 1;
#X connect 28 0 29 1;
#X connect 29 0 19 0;
#X connect 30 0 31 1;
#X connect 31 0 22 0;
#X connect 32 0 33 1;
#X connect 33 0 26 0;
#X connect 34 0 35 0;
#X connect 34 1 27 0;
#X connect 35 0 9 0;
#X connect 35 1 8 0;
#X connect 36 0 31 0;
#X connect 36 1 37 0;
#X connect 37 0 39 0;
#X connect 38 0 40 0;
#X connect 39 0 38 0;
#X connect 40 0 41 0;
#X restore 512 258 pd Delay;
#X f 10;
#X obj 30 300 r glob-current-page;
#X obj 30 324 == 1;
#X connect 2 0 15 2;
#X connect 14 0 0 0;
#X connect 14 0 1 0;
#X connect 15 0 14 0;
#X connect 15 1 14 0;
#X connect 15 2 21 0;
#X connect 15 3 22 0;
#X connect 17 0 19 0;
#X connect 17 1 16 0;
#X connect 19 0 18 0;
#X connect 20 0 17 0;
#X connect 23 0 15 0;
#X connect 23 0 30 0;
#X connect 23 1 15 1;
#X connect 23 1 33 0;
#X connect 23 1 35 0;
#X connect 26 0 35 1;
#X connect 28 0 29 0;
#X connect 29 0 27 0;
#X connect 30 0 28 0;
#X connect 31 0 32 0;
#X connect 32 0 34 0;
#X connect 33 0 31 0;
#X connect 35 0 15 1;
#X connect 35 0 33 0;
#X connect 36 0 37 0;
#X connect 37 0 20 0;
