#N canvas 14 50 1566 834 10;
#X obj 222 341 throw~ outL;
#X obj 323 343 throw~ outR;
#X obj 254 106 r notes;
#X obj 327 93 r notes_seq;
#X obj 196 474 r knob1;
#X obj 646 486 sig~;
#X obj 646 508 lop~ 5;
#X obj 423 469 r knob2;
#X obj 646 464 r knob3;
#X obj 851 461 r knob4;
#X obj 140 647 s screenLine1;
#X obj 140 594 change;
#X obj 140 571 i;
#X obj 373 627 change;
#X obj 373 604 i;
#X obj 597 644 change;
#X obj 597 619 i;
#X obj 597 596 * 100;
#X obj 825 577 change;
#X obj 825 554 i;
#X obj 373 680 s screenLine2;
#X obj 597 697 s screenLine3;
#X obj 825 630 s screenLine4;
#X obj 1061 238 loadbang;
#X msg 373 654 2: Vibrato Rate \$1 Hz;
#X msg 597 671 3: Vibrato Depth \$1 %;
#X msg 825 603 4: Decay Time \$1 ms;
#X obj 373 580 * 50;
#X obj 826 532 + 5;
#X obj 826 510 * 2000;
#X text 284 428 smooth knobs 1-3 \, send param updates to screen;
#X text 1061 208 screen lines;
#X obj 200 502 sig~;
#X obj 200 524 lop~ 5;
#X obj 426 501 sig~;
#X obj 426 523 lop~ 5;
#X obj 201 546 s~ knob1-smooth;
#X obj 426 545 s~ knob2-smooth;
#X obj 646 530 s~ knob3-smooth;
#X obj 675 309 sig~;
#X obj 675 331 lop~ 5;
#X obj 675 287 r knob4;
#X obj 675 353 s~ knob4-smooth;
#X obj 254 128 unpack 0 0;
#X obj 254 197 pack 0 0 0;
#X obj 256 222 route 1 2 3 4;
#X obj 705 142 sequencer2;
#X obj 423 289 voice;
#X obj 413 103 r zero_notes;
#X obj 366 292 voice;
#X obj 256 293 voice;
#X obj 309 293 voice;
#X msg 1061 267 \; screenLine1 1: Harmonic \; screenLine2 2: Frequency
\; screenLine3 3: Random Junk \; screenLine4 4: Slidiness \; screenLine5
Aux: Sequencer \;;
#X obj 254 175 poly 4 1;
#X obj 142 489 * 100;
#X obj 142 511 % 12;
#X msg 140 620 1: Harmonic \$1;
#X connect 2 0 43 0;
#X connect 3 0 43 0;
#X connect 4 0 32 0;
#X connect 4 0 54 0;
#X connect 5 0 6 0;
#X connect 6 0 38 0;
#X connect 7 0 34 0;
#X connect 8 0 5 0;
#X connect 11 0 56 0;
#X connect 12 0 11 0;
#X connect 13 0 24 0;
#X connect 14 0 13 0;
#X connect 15 0 25 0;
#X connect 16 0 15 0;
#X connect 17 0 16 0;
#X connect 18 0 26 0;
#X connect 19 0 18 0;
#X connect 23 0 52 0;
#X connect 24 0 20 0;
#X connect 25 0 21 0;
#X connect 26 0 22 0;
#X connect 27 0 14 0;
#X connect 28 0 19 0;
#X connect 29 0 28 0;
#X connect 32 0 33 0;
#X connect 33 0 36 0;
#X connect 34 0 35 0;
#X connect 35 0 37 0;
#X connect 39 0 40 0;
#X connect 40 0 42 0;
#X connect 41 0 39 0;
#X connect 43 0 53 0;
#X connect 43 1 53 1;
#X connect 44 0 45 0;
#X connect 45 0 50 0;
#X connect 45 1 51 0;
#X connect 45 2 49 0;
#X connect 45 3 47 0;
#X connect 47 0 0 0;
#X connect 47 0 1 0;
#X connect 48 0 43 0;
#X connect 49 0 0 0;
#X connect 49 0 1 0;
#X connect 50 0 0 0;
#X connect 50 0 1 0;
#X connect 51 0 0 0;
#X connect 51 0 1 0;
#X connect 53 0 44 0;
#X connect 53 1 44 1;
#X connect 53 2 44 2;
#X connect 54 0 55 0;
#X connect 55 0 12 0;
#X connect 56 0 10 0;
