#N canvas 638 171 894 726 10;
#X obj 117 107 blsaw;
#X obj 189 160 *~;
#X obj 206 102 vline~;
#X obj 206 124 *~;
#X obj 109 31 loadbang;
#X msg 109 53 56;
#X obj 109 75 mtof;
#X obj 201 23 tgl 15 0 empty empty empty 17 7 0 10 -262144 -1 -1 0
1;
#X obj 29 304 throw~ outL;
#X obj 138 303 throw~ outR;
#X obj 362 287 r knob1;
#X obj 468 280 r knob2;
#X obj 326 416 s screenLine1;
#X obj 531 447 s screenLine2;
#X floatatom 44 35 5 0 0 0 - - -, f 5;
#X obj 462 33 Bitcrusher;
#X obj 364 311 s bc-depth;
#X obj 189 190 s~ bc-in;
#X obj 139 281 r~ bc-outR;
#X obj 29 282 r~ bc-outL;
#X obj 475 311 s bc-dw;
#X obj 326 394 r bc-depth-label;
#X obj 532 426 r bc-dw-label;
#X msg 207 80 1 5 \, 0 0 900;
#X obj 203 58 metro 1000;
#X connect 0 0 1 0;
#X connect 1 0 17 0;
#X connect 2 0 3 0;
#X connect 2 0 3 1;
#X connect 3 0 1 1;
#X connect 4 0 5 0;
#X connect 5 0 6 0;
#X connect 6 0 0 0;
#X connect 7 0 24 0;
#X connect 10 0 16 0;
#X connect 11 0 20 0;
#X connect 14 0 6 0;
#X connect 18 0 9 0;
#X connect 19 0 8 0;
#X connect 21 0 12 0;
#X connect 22 0 13 0;
#X connect 23 0 2 0;
#X connect 24 0 23 0;
