#N canvas 547 130 890 741 10;
#X obj 179 71 inlet;
#X obj 179 106 unpack f f, f 33;
#X obj 179 217 mtof;
#X obj 178 318 *~;
#X obj 197 287 receive~ f;
#X obj 178 805 outlet~;
#X obj 179 262 sig~;
#X obj 177 364 blsaw;
#X obj 407 147 sel 0, f 13;
#X obj 282 475 vline~;
#X obj 50 342 receive~ offset;
#X obj 33 389 *~;
#X obj 33 418 blsaw;
#X obj 265 529 *~;
#X msg 282 385 0 \$1;
#X text 593 171 attack;
#X text 305 327 release;
#X text 432 507 cutoff;
#X obj 178 756 *~;
#X obj 383 480 r cut;
#X obj 495 173 / 127;
#X obj 549 172 r att;
#X obj 370 323 r rel;
#X obj 282 349 f, f 13;
#X obj 495 195 sqrt;
#X obj 383 516 lop~ 5;
#X obj 466 575 r rez;
#X obj 33 462 +~, f 15;
#X obj 324 527 *~ 0.5;
#X obj 324 549 +~ 0.5;
#X obj 324 571 *~, f 9;
#X obj 34 441 *~ 0.49;
#X obj 177 386 *~ 0.49;
#X obj 178 777 *~ 1.9;
#X msg 495 259 \$1 \$2 \, 0.78 300 \$2;
#X obj 495 225 pack 0 0, f 13;
#X obj 176 701 vcf~, f 35;
#X obj 178 669 vcf~, f 27;
#X obj 466 649 line 1 1;
#X obj 466 597 * 1;
#X msg 466 619 \$1 10;
#X obj 53 750 s~ \$0-feedback;
#X obj 166 596 r~ \$0-feedback;
#X connect 0 0 1 0;
#X connect 1 0 2 0;
#X connect 1 1 8 0;
#X connect 2 0 6 0;
#X connect 3 0 7 0;
#X connect 3 0 11 0;
#X connect 4 0 3 1;
#X connect 6 0 3 0;
#X connect 7 0 32 0;
#X connect 8 0 23 0;
#X connect 8 1 20 0;
#X connect 9 0 13 1;
#X connect 9 0 13 0;
#X connect 9 0 28 0;
#X connect 10 0 11 1;
#X connect 11 0 12 0;
#X connect 12 0 31 0;
#X connect 13 0 18 1;
#X connect 14 0 9 0;
#X connect 18 0 33 0;
#X connect 19 0 25 0;
#X connect 20 0 24 0;
#X connect 21 0 35 1;
#X connect 22 0 23 1;
#X connect 23 0 14 0;
#X connect 24 0 35 0;
#X connect 25 0 30 1;
#X connect 26 0 39 0;
#X connect 27 0 37 0;
#X connect 28 0 29 0;
#X connect 29 0 30 0;
#X connect 30 0 37 1;
#X connect 30 0 36 1;
#X connect 31 0 27 0;
#X connect 32 0 27 1;
#X connect 33 0 5 0;
#X connect 34 0 9 0;
#X connect 35 0 34 0;
#X connect 36 0 41 0;
#X connect 36 1 18 0;
#X connect 37 1 36 0;
#X connect 38 0 37 2;
#X connect 38 0 36 2;
#X connect 39 0 40 0;
#X connect 40 0 38 0;
#X connect 42 0 37 0;
