#N canvas -154 104 1339 735 10;
#X obj 333 367 * 0.0033333;
#X obj 333 389 * 32;
#X obj 333 411 i;
#X obj 503 361 * 0.0033333;
#X obj 503 383 * 32;
#X obj 503 405 i;
#X obj 648 350 * 0.01;
#X obj 648 372 * 64;
#X obj 648 417 i;
#X obj 648 394 * -1;
#X obj 836 352 * 0.00025;
#X obj 836 374 * 32;
#X obj 836 396 i;
#X obj 692 496 + 32;
#X obj 836 450 t b a;
#X obj 333 452 t b a;
#X obj 503 471 t b a;
#X obj 548 487 t b a;
#X obj 503 427 +, f 8;
#X obj 544 403 t b a;
#X obj 648 562 pack 0 0 0 0;
#X obj 648 458 t b a;
#X obj 692 518 t b a;
#X obj 836 477 +;
#X obj 778 561 pack 0 0 0 63;
#X obj 357 306 * 300;
#X obj 471 300 * 300;
#X obj 804 320 * 4000;
#X obj 616 320 + 2;
#X obj 333 553 pack 0 63 0 10;
#X obj 489 561 pack 0 10 0 0;
#X obj 616 298 * 83;
#X obj 416 730 s oscOut;
#X obj 301 198 inlet;
#N canvas 9 50 450 300 erase-redraw 0;
#X obj 99 87 list;
#X obj 53 169 t a a, f 18;
#X obj 99 109 route list;
#X obj 124 38 loadbang;
#X msg 124 60 0;
#X text 188 169 previous area to invert(erase);
#X text 158 61 erase old session list;
#X obj 53 65 t l b, f 7;
#X msg 53 198 /oled/gLine 0 \$1 \$2 \$3 \$4 1;
#X msg 99 220 /oled/gLine 0 \$1 \$2 \$3 \$4 0;
#X text 255 197 on;
#X text 302 221 off;
#X obj 53 12 inlet;
#X obj 53 248 outlet;
#X connect 0 0 2 0;
#X connect 1 0 8 0;
#X connect 1 1 0 1;
#X connect 2 0 9 0;
#X connect 3 0 4 0;
#X connect 4 0 0 1;
#X connect 7 0 1 0;
#X connect 7 1 0 0;
#X connect 8 0 13 0;
#X connect 9 0 13 0;
#X connect 12 0 7 0;
#X restore 351 657 pd erase-redraw;
#X text 344 52 Line: start x \, y \, end x \, y \, color (0 or 1);
#X obj 441 192 inlet;
#X obj 470 270 f;
#X obj 634 198 inlet;
#X obj 615 274 f;
#X obj 745 200 inlet;
#X obj 804 291 f;
#X obj 743 19 loadbang;
#N canvas 8 50 450 300 erase-redraw 0;
#X obj 99 87 list;
#X obj 53 169 t a a, f 18;
#X obj 99 109 route list;
#X obj 124 38 loadbang;
#X msg 124 60 0;
#X text 188 169 previous area to invert(erase);
#X text 158 61 erase old session list;
#X obj 53 65 t l b, f 7;
#X msg 53 198 /oled/gLine 0 \$1 \$2 \$3 \$4 1;
#X msg 99 220 /oled/gLine 0 \$1 \$2 \$3 \$4 0;
#X text 255 197 on;
#X text 302 221 off;
#X obj 53 12 inlet;
#X obj 53 248 outlet;
#X connect 0 0 2 0;
#X connect 1 0 8 0;
#X connect 1 1 0 1;
#X connect 2 0 9 0;
#X connect 3 0 4 0;
#X connect 4 0 0 1;
#X connect 7 0 1 0;
#X connect 7 1 0 0;
#X connect 8 0 13 0;
#X connect 9 0 13 0;
#X connect 12 0 7 0;
#X restore 485 657 pd erase-redraw;
#N canvas 7 50 450 300 erase-redraw 0;
#X obj 99 87 list;
#X obj 53 169 t a a, f 18;
#X obj 99 109 route list;
#X obj 124 38 loadbang;
#X msg 124 60 0;
#X text 188 169 previous area to invert(erase);
#X text 158 61 erase old session list;
#X obj 53 65 t l b, f 7;
#X msg 53 198 /oled/gLine 0 \$1 \$2 \$3 \$4 1;
#X msg 99 220 /oled/gLine 0 \$1 \$2 \$3 \$4 0;
#X text 255 197 on;
#X text 302 221 off;
#X obj 53 12 inlet;
#X obj 53 248 outlet;
#X connect 0 0 2 0;
#X connect 1 0 8 0;
#X connect 1 1 0 1;
#X connect 2 0 9 0;
#X connect 3 0 4 0;
#X connect 4 0 0 1;
#X connect 7 0 1 0;
#X connect 7 1 0 0;
#X connect 8 0 13 0;
#X connect 9 0 13 0;
#X connect 12 0 7 0;
#X restore 641 657 pd erase-redraw;
#N canvas 7 50 450 300 erase-redraw 0;
#X obj 99 87 list;
#X obj 53 169 t a a, f 18;
#X obj 99 109 route list;
#X obj 124 38 loadbang;
#X msg 124 60 0;
#X text 188 169 previous area to invert(erase);
#X text 158 61 erase old session list;
#X obj 53 65 t l b, f 7;
#X msg 53 198 /oled/gLine 0 \$1 \$2 \$3 \$4 1;
#X msg 99 220 /oled/gLine 0 \$1 \$2 \$3 \$4 0;
#X text 255 197 on;
#X text 302 221 off;
#X obj 53 12 inlet;
#X obj 53 248 outlet;
#X connect 0 0 2 0;
#X connect 1 0 8 0;
#X connect 1 1 0 1;
#X connect 2 0 9 0;
#X connect 3 0 4 0;
#X connect 4 0 0 1;
#X connect 7 0 1 0;
#X connect 7 1 0 0;
#X connect 8 0 13 0;
#X connect 9 0 13 0;
#X connect 12 0 7 0;
#X restore 783 653 pd erase-redraw;
#X obj 357 275 f;
#X obj 598 708 print adsr;
#X obj 745 222 change -1;
#X obj 634 220 change -1;
#X obj 441 214 change -1;
#X obj 301 220 change -1;
#X obj 213 571 list prepend set;
#X obj 213 593 route list;
#X msg 251 624 0 63 13 10;
#X obj 420 585 list prepend set;
#X obj 420 607 route list;
#X msg 420 629 13 10 34 -1;
#X obj 561 593 list prepend set;
#X obj 561 615 route list;
#X msg 561 637 34 -1 66 -1;
#X obj 1004 584 list prepend set;
#X obj 1004 606 route list;
#X msg 1004 628 66 -1 85 63;
#X floatatom 331 147 5 0 0 0 - - -, f 5;
#X floatatom 460 142 5 0 0 0 - - -, f 5;
#X floatatom 658 147 5 0 0 0 - - -, f 5;
#X floatatom 777 151 5 0 0 0 - - -, f 5;
#X connect 0 0 1 0;
#X connect 1 0 2 0;
#X connect 2 0 19 0;
#X connect 2 0 15 0;
#X connect 3 0 4 0;
#X connect 4 0 5 0;
#X connect 5 0 18 0;
#X connect 6 0 7 0;
#X connect 7 0 9 0;
#X connect 8 0 17 0;
#X connect 8 0 21 0;
#X connect 9 0 8 0;
#X connect 10 0 11 0;
#X connect 11 0 12 0;
#X connect 12 0 14 0;
#X connect 13 0 22 0;
#X connect 13 0 23 0;
#X connect 14 0 23 0;
#X connect 14 1 23 1;
#X connect 15 0 29 0;
#X connect 15 1 29 2;
#X connect 15 1 30 0;
#X connect 16 0 30 0;
#X connect 16 1 30 2;
#X connect 17 0 30 0;
#X connect 17 1 30 3;
#X connect 18 0 16 0;
#X connect 18 0 20 0;
#X connect 18 0 13 0;
#X connect 19 0 18 0;
#X connect 19 1 18 1;
#X connect 20 0 58 0;
#X connect 20 0 44 0;
#X connect 21 0 20 0;
#X connect 21 1 20 1;
#X connect 21 1 20 3;
#X connect 21 1 24 1;
#X connect 22 0 20 0;
#X connect 22 1 20 2;
#X connect 22 1 24 0;
#X connect 23 0 24 2;
#X connect 24 0 61 0;
#X connect 24 0 45 0;
#X connect 25 0 0 0;
#X connect 26 0 3 0;
#X connect 27 0 10 0;
#X connect 28 0 6 0;
#X connect 29 0 52 0;
#X connect 29 0 34 0;
#X connect 30 0 55 0;
#X connect 30 0 43 0;
#X connect 31 0 28 0;
#X connect 33 0 51 0;
#X connect 34 0 32 0;
#X connect 34 0 47 0;
#X connect 36 0 50 0;
#X connect 37 0 26 0;
#X connect 38 0 49 0;
#X connect 39 0 31 0;
#X connect 40 0 48 0;
#X connect 41 0 27 0;
#X connect 43 0 32 0;
#X connect 43 0 47 0;
#X connect 44 0 32 0;
#X connect 44 0 47 0;
#X connect 45 0 32 0;
#X connect 45 0 47 0;
#X connect 46 0 25 0;
#X connect 48 0 41 0;
#X connect 49 0 39 0;
#X connect 50 0 37 0;
#X connect 51 0 46 0;
#X connect 52 0 53 0;
#X connect 53 0 54 0;
#X connect 55 0 56 0;
#X connect 56 0 57 0;
#X connect 58 0 59 0;
#X connect 59 0 60 0;
#X connect 61 0 62 0;
#X connect 62 0 63 0;
#X connect 64 0 51 0;
#X connect 65 0 50 0;
#X connect 66 0 49 0;
#X connect 67 0 48 0;
