#N canvas 100 50 1125 816 10;
#X obj 308 204 * 0.0033333;
#X obj 308 226 * 32;
#X obj 308 248 i;
#X obj 448 195 * 0.0033333;
#X obj 448 217 * 32;
#X obj 448 239 i;
#X obj 641 220 * 0.01;
#X obj 641 242 * 64;
#X obj 641 263 i;
#X obj 829 192 * 0.00025;
#X obj 829 214 * 32;
#X obj 829 236 i;
#X obj 308 180 * 300;
#X obj 448 174 * 300;
#X obj 829 171 * 4000;
#X obj 641 194 + 2;
#X obj 641 172 * 83;
#X obj 308 142 inlet;
#X obj 448 136 inlet;
#X obj 641 142 inlet;
#X obj 829 143 inlet;
#X obj 430 783 s oscOut, f 9;
#X obj 114 669 erase-redraw;
#X obj 155 372 m_speedlimit 150;
#X obj 97 574 pack 0 63 0 10;
#X obj 626 635 pack 0 0 0 0;
#X obj 769 651 pack 0 0 0 63, f 20;
#X obj 303 665 erase-redraw;
#X obj 641 697 erase-redraw;
#X obj 773 693 erase-redraw;
#X obj 299 593 pack 0 10 0 0, f 20;
#X text 94 550 a;
#X text 128 549 b, f 2;
#X text 143 525 c;
#X text 189 552 d;
#X text 291 573 c;
#X text 337 575 d;
#X text 388 573 c+e;
#X text 430 577 f;
#X text 321 119 attack;
#X text 461 116 decay;
#X text 645 117 sustain;
#X text 826 117 release;
#X text 876 518 c+e+g;
#X text 724 645 f;
#X text 633 604 f;
#X text 930 578 c+e+g+h;
#X text 984 634 b, f 2;
#X obj 641 285 * -1;
#X obj 308 271 v \$0-a;
#X obj 448 263 v \$0-d;
#X obj 641 309 v \$0-s;
#X obj 829 261 v \$0-r;
#X text 571 510 c+e;
#X obj 160 521 v \$0-a;
#X obj 299 543 v \$0-a;
#X obj 357 530 v \$0-a;
#X obj 357 551 +, f 8;
#X obj 410 530 v \$0-d;
#X obj 436 562 v \$0-s;
#X obj 626 502 v \$0-a;
#X obj 626 523 +, f 8;
#X obj 679 502 v \$0-d;
#X obj 653 605 v \$0-s;
#X obj 707 605 v \$0-s;
#X obj 679 575 + 32;
#X obj 626 545 t f f;
#X obj 647 477 t b b b b;
#X obj 357 481 t b b b b;
#X obj 128 493 t b b;
#X obj 769 517 v \$0-a;
#X obj 769 538 +, f 8;
#X obj 822 517 v \$0-d;
#X obj 769 561 + 32;
#X obj 798 628 v \$0-s;
#X obj 875 583 v \$0-r;
#X obj 857 615 +;
#X obj 769 583 t f f;
#X obj 769 477 t b b b b;
#X obj 155 420 t b b b b;
#X obj 155 346 b;
#X obj 428 753 spigot 0;
#X obj 467 682 loadbang;
#X obj 467 704 del 1000;
#X msg 467 726 1;
#X connect 0 0 1 0;
#X connect 1 0 2 0;
#X connect 2 0 49 0;
#X connect 3 0 4 0;
#X connect 4 0 5 0;
#X connect 5 0 50 0;
#X connect 6 0 7 0;
#X connect 7 0 8 0;
#X connect 8 0 48 0;
#X connect 9 0 10 0;
#X connect 10 0 11 0;
#X connect 11 0 52 0;
#X connect 12 0 0 0;
#X connect 13 0 3 0;
#X connect 14 0 9 0;
#X connect 15 0 6 0;
#X connect 16 0 15 0;
#X connect 17 0 12 0;
#X connect 17 0 80 0;
#X connect 18 0 13 0;
#X connect 18 0 80 0;
#X connect 19 0 16 0;
#X connect 19 0 80 0;
#X connect 20 0 14 0;
#X connect 20 0 80 0;
#X connect 22 0 81 0;
#X connect 23 0 79 0;
#X connect 24 0 22 0;
#X connect 25 0 28 0;
#X connect 26 0 29 0;
#X connect 27 0 81 0;
#X connect 28 0 81 0;
#X connect 29 0 81 0;
#X connect 30 0 27 0;
#X connect 48 0 51 0;
#X connect 54 0 24 2;
#X connect 55 0 30 0;
#X connect 56 0 57 0;
#X connect 57 0 30 2;
#X connect 58 0 57 1;
#X connect 59 0 30 3;
#X connect 60 0 61 0;
#X connect 61 0 66 0;
#X connect 62 0 61 1;
#X connect 63 0 25 1;
#X connect 64 0 25 3;
#X connect 65 0 25 2;
#X connect 66 0 25 0;
#X connect 66 1 65 0;
#X connect 67 0 60 0;
#X connect 67 1 62 0;
#X connect 67 2 63 0;
#X connect 67 3 64 0;
#X connect 68 0 55 0;
#X connect 68 1 56 0;
#X connect 68 2 58 0;
#X connect 68 3 59 0;
#X connect 69 0 24 0;
#X connect 69 1 54 0;
#X connect 70 0 71 0;
#X connect 71 0 73 0;
#X connect 72 0 71 1;
#X connect 73 0 77 0;
#X connect 74 0 26 1;
#X connect 75 0 76 1;
#X connect 76 0 26 2;
#X connect 77 0 26 0;
#X connect 77 1 76 0;
#X connect 78 0 70 0;
#X connect 78 1 72 0;
#X connect 78 2 74 0;
#X connect 78 3 75 0;
#X connect 79 0 78 0;
#X connect 79 1 67 0;
#X connect 79 2 68 0;
#X connect 79 3 69 0;
#X connect 80 0 23 0;
#X connect 81 0 21 0;
#X connect 82 0 83 0;
#X connect 83 0 84 0;
#X connect 84 0 81 1;
