#N canvas 300 116 1069 700 10;
#X declare -path .;
#X obj 719 26 declare -path .;
#X msg 142 166 save;
#X obj 589 29 r \$0-GUI;
#X obj 149 279 u_cocollect;
#X obj 142 200 t a b;
#X obj 78 304 s \$0-GUI;
#X obj 107 229 r \$0-control;
#X obj 589 548 s \$0-control;
#X obj 437 221 s \$0-GUI;
#X text 8 669 ajf \, fbar \, 2010;
#N canvas 401 352 990 677 czz_presets 0;
#X obj 91 26 inlet;
#X obj 83 653 outlet name;
#X obj 83 630 symbol;
#X obj 166 652 outlet parms;
#X obj 83 582 route name;
#X msg 57 187 name FB-String-Brass1 \, mod3d 0.165354 \, mod3c 0.181102
\, mod3b 0.173228 \, mod3a 0.275591 \, mod2d 0.141732 \, mod2c 0.393701
\, mod2b 0.220472 \, mod2a 0.472441 \, mod1d 0.299213 \, mod1c 0.125984
\, mod1b 0.19685 \, mod1a 0.133858 \, osc3d 0.314961 \, osc3c 0.220472
\, osc3b 0.527559 \, osc3a 0.409449 \, osc2d 0.559055 \, osc2c 0.645669
\, osc2b 0.543307 \, osc2a 0.377953 \, osc1d 0.377953 \, osc1c 0.307087
\, osc1b 0.614173 \, osc1a 0.866142 \, env3r 0.133858 \, env3s 0.15748
\, env3d 0.314961 \, env3a 0.259843 \, env2r 0.637795 \, env2s 0.401575
\, env2d 0.338583 \, env2a 0.299213 \, env1r 0.149606 \, env1s 0.110236
\, env1d 0.0551181 \, env1a 0.0551181 \,;
#X msg 78 102 name Gentle-Sync \, mod3d 0.165354 \, mod3c 0.181102
\, mod3b 0.173228 \, mod3a 0.275591 \, mod2d 0.141732 \, mod2c 0.393701
\, mod2b 0.220472 \, mod2a 0.472441 \, mod1d 0.574803 \, mod1c 0.669291
\, mod1b 0.511811 \, mod1a 0.133858 \, osc3d 0.314961 \, osc3c 0.220472
\, osc3b 0.527559 \, osc3a 0.409449 \, osc2d 0.559055 \, osc2c 0.645669
\, osc2b 0.543307 \, osc2a 0.377953 \, osc1d 0.503937 \, osc1c 0.905512
\, osc1b 0.0629921 \, osc1a 0.401575 \, env3r 0.133858 \, env3s 0.15748
\, env3d 0.314961 \, env3a 0.259843 \, env2r 0.0866142 \, env2s 0.0866142
\, env2d 0.251969 \, env2a 0.141732 \, env1r 0.149606 \, env1s 0.110236
\, env1d 0.952756 \, env1a 0 \,;
#X msg 59 220 name Thin-Short-Bass \, mod3d 0.559055 \, mod3c 0.181102
\, mod3b 0.173228 \, mod3a 0.275591 \, mod2d 0.141732 \, mod2c 0.393701
\, mod2b 0.220472 \, mod2a 0.472441 \, mod1d 0.574803 \, mod1c 0.669291
\, mod1b 0.0708661 \, mod1a 0.409449 \, osc3d 0.314961 \, osc3c 0.220472
\, osc3b 0.527559 \, osc3a 0.409449 \, osc2d 0.559055 \, osc2c 0.645669
\, osc2b 0.543307 \, osc2a 0.377953 \, osc1d 0.015748 \, osc1c 0 \,
osc1b 0 \, osc1a 0 \, env3r 0.0472441 \, env3s 0.0393701 \, env3d 0.0551181
\, env3a 0.0015748 \, env2r 0.0866142 \, env2s 0.0866142 \, env2d 0.0866142
\, env2a 0.0472441 \, env1r 0.149606 \, env1s 0.0629921 \, env1d 0.0787402
\, env1a 0 \,;
#X msg 57 236 name Full-Square-Lead \, mod3d 0.251969 \, mod3c 0.181102
\, mod3b 0.173228 \, mod3a 0.275591 \, mod2d 0.141732 \, mod2c 0.393701
\, mod2b 0.220472 \, mod2a 0.472441 \, mod1d 0 \, mod1c 0 \, mod1b
0 \, mod1a 1 \, osc3d 0.314961 \, osc3c 0.220472 \, osc3b 0.527559
\, osc3a 0.409449 \, osc2d 0.559055 \, osc2c 0.645669 \, osc2b 0.543307
\, osc2a 0.377953 \, osc1d 0.440945 \, osc1c 0 \, osc1b 0 \, osc1a
0 \, env3r 0.023622 \, env3s 0.527559 \, env3d 0.0551181 \, env3a 0.00944882
\, env2r 0.0393701 \, env2s 0.637795 \, env2d 0.0866142 \, env2a 0.0472441
\, env1r 0.0314961 \, env1s 0.708661 \, env1d 0.0787402 \, env1a 0.19685
\,;
#X msg 58 253 name Dull-Brass \, mod3d 0.251969 \, mod3c 0.181102 \,
mod3b 0.173228 \, mod3a 0.275591 \, mod2d 0.141732 \, mod2c 0.393701
\, mod2b 0.220472 \, mod2a 0.472441 \, mod1d 0 \, mod1c 0 \, mod1b
0 \, mod1a 0.188976 \, osc3d 0.251969 \, osc3c 0.220472 \, osc3b 0.527559
\, osc3a 0.409449 \, osc2d 0.559055 \, osc2c 0.645669 \, osc2b 0.543307
\, osc2a 0.377953 \, osc1d 0.952756 \, osc1c 0 \, osc1b 0 \, osc1a
0.440945 \, env3r 0.00787402 \, env3s 0.0866142 \, env3d 0.0944882
\, env3a 0.0330709 \, env2r 0.0393701 \, env2s 0.102362 \, env2d 0.23622
\, env2a 0.645669 \, env1r 0.0708661 \, env1s 0.0866142 \, env1d 0.0472441
\, env1a 0.0551181 \,;
#X msg 59 268 name Slow-Hollow \, mod3d 0.212598 \, mod3c 0.181102
\, mod3b 0.173228 \, mod3a 0.275591 \, mod2d 0.141732 \, mod2c 0.393701
\, mod2b 0.220472 \, mod2a 0.472441 \, mod1d 0.0314961 \, mod1c 0.0314961
\, mod1b 0.220472 \, mod1a 0.866142 \, osc3d 0.251969 \, osc3c 0.220472
\, osc3b 0.527559 \, osc3a 0.409449 \, osc2d 0.19685 \, osc2c 0.228346
\, osc2b 0.165354 \, osc2a 0.0944882 \, osc1d 0.440945 \, osc1c 0.0629921
\, osc1b 0.511811 \, osc1a 0.0866142 \, env3r 0.125984 \, env3s 0.244094
\, env3d 0.354331 \, env3a 0.655118 \, env2r 0.0787402 \, env2s 0.692913
\, env2d 0.291339 \, env2a 0.393701 \, env1r 0.133858 \, env1s 0.519685
\, env1d 0.448819 \, env1a 0.771654 \,;
#X msg 58 282 name Slow-Thin \, mod3d 0.212598 \, mod3c 0.181102 \,
mod3b 0.173228 \, mod3a 0.275591 \, mod2d 0.141732 \, mod2c 0.393701
\, mod2b 0.220472 \, mod2a 0.472441 \, mod1d 0 \, mod1c 0 \, mod1b
0.748031 \, mod1a 0.716535 \, osc3d 0.251969 \, osc3c 0.220472 \, osc3b
0.527559 \, osc3a 0.409449 \, osc2d 0.19685 \, osc2c 0.228346 \, osc2b
0.165354 \, osc2a 0.0944882 \, osc1d 0.0708661 \, osc1c 0.125984 \,
osc1b 0.346457 \, osc1a 0.0866142 \, env3r 0.125984 \, env3s 0.244094
\, env3d 0.354331 \, env3a 0.749606 \, env2r 0.0393701 \, env2s 0.440945
\, env2d 0.141732 \, env2a 0.0314961 \, env1r 0.133858 \, env1s 0.212598
\, env1d 0.125984 \, env1a 0.0629921 \,;
#X msg 483 175 env1a color 128 \, env1a label TONE-ATTACK \, env1d
color 128 \, env1d label TONE-DECAY \, env1r color 128 \, env1r label
TONE-REL \, env1s color 128 \, env1s label TONE-SUS \, env2a color
128 \, env2a label WIDTH-ATTACK \, env2d color 128 \, env2d label WIDTH-DECAY
\, env2r color 128 \, env2r label WIDTH-REL \, env2s color 128 \, env2s
label WIDTH-SUS \, env3a color 128 \, env3a label AMP-ATTACK \, env3d
color 128 \, env3d label AMP-DECAY \, env3r color 128 \, env3r label
AMP-REL \, env3s color 128 \, env3s label AMP-SUS \, mod1a color 128
\, mod1a label FILTER-AMT \, mod1b color 128 \, mod1b label DETUNE
\, mod1c color 128 \, mod1c label SYNC-AMT \, mod1d color 2 \, mod2a
color 2 \, mod2b color 2 \, mod2c color 2 \, mod2d color 2 \, mod3a
color 2 \, mod3b color 2 \, mod3c color 2 \, mod3d color 128 \, mod3d
label VOLME \, osc1a color 128 \, osc1a label OSC1-PW \, osc1b color
128 \, osc1b label OSC2-PW \, osc1c color 128 \, osc1c label OSC1-PWM
osc1d color 128 \, osc1d label OSC2-PWM \, osc2a color 2 \, osc2b color
2 \, osc2c color 2 \, osc2d color 2 \, osc3a color 2 \, osc3b color
2 \, osc3c color 2 \, osc3d color 2 \,;
#X text 481 92 set up the interface to be human readable and show which
controls are actually used;
#X text 483 122 Requires modified [g-hsl];
#X msg 26 333 name Crazy Thing \, mod3d 0.23622 \, mod3c 0.181102 \,
mod3b 0.173228 \, mod3a 0.275591 \, mod2d 0.141732 \, mod2c 0.393701
\, mod2b 0.220472 \, mod2a 0.472441 \, mod1d 0 \, mod1c 1 \, mod1b
0 \, mod1a 0.0314961 \, osc3d 0.251969 \, osc3c 0.220472 \, osc3b 0.527559
\, osc3a 0.409449 \, osc2d 0.19685 \, osc2c 0.228346 \, osc2b 0.165354
\, osc2a 0.0944882 \, osc1d 0.732283 \, osc1c 0.740157 \, osc1b 1 \,
osc1a 1 \, env3r 0.0752688 \, env3s 0.748778 \, env3d 0.975562 \, env3a
0.0322581 \, env2r 0.0393701 \, env2s 0.440945 \, env2d 0.0787402 \,
env2a 0 \, env1r 0.76378 \, env1s 0 \, env1d 1 \, env1a 0.0708661 \,
;
#X obj 91 50 sel 0 1 2 3 4 5 6 7 8 9;
#X msg 544 587 name Bassic \, mod3d 0.393701 \, mod3c 0.181102 \, mod3b
0.173228 \, mod3a 0.275591 \, mod2d 0.141732 \, mod2c 0.393701 \, mod2b
0.220472 \, mod2a 0.472441 \, mod1d 0 \, mod1c 0.165354 \, mod1b 0.0314961
\, mod1a 0.417323 \, osc3d 0.251969 \, osc3c 0.220472 \, osc3b 0.527559
\, osc3a 0.409449 \, osc2d 0.19685 \, osc2c 0.228346 \, osc2b 0.165354
\, osc2a 0.0944882 \, osc1d 0.023622 \, osc1c 0.149606 \, osc1b 0 \,
osc1a 1 \, env3r 0.0551181 \, env3s 0.496063 \, env3d 0.204724 \, env3a
0.00023622 \, env2r 0.0393701 \, env2s 0.440945 \, env2d 1 \, env2a
0.370079 \, env1r 0.0472441 \, env1s 0.771654 \, env1d 0.629921 \,
env1a 1 \,;
#X msg 533 434 name lazer \, mod3d 0.212598 \, mod3c 0.181102 \, mod3b
0.173228 \, mod3a 0.275591 \, mod2d 0.141732 \, mod2c 0.393701 \, mod2b
0.220472 \, mod2a 0.472441 \, mod1d 0 \, mod1c 1 \, mod1b 0.448819
\, mod1a 0.0629921 \, osc3d 0.251969 \, osc3c 0.220472 \, osc3b 0.527559
\, osc3a 0.409449 \, osc2d 0.19685 \, osc2c 0.228346 \, osc2b 0.165354
\, osc2a 0.0944882 \, osc1d 0.96 \, osc1c 0.692913 \, osc1b 0.92126
\, osc1a 0.677165 \, env3r 0.0342131 \, env3s 0 \, env3d 0.140762 \,
env3a 0 \, env2r 0.0393701 \, env2s 1 \, env2d 0.661417 \, env2a 0.314961
\, env1r 0.456693 \, env1s 0.110236 \, env1d 0.0314961 \, env1a 0 \,
;
#X connect 0 0 16 0;
#X connect 2 0 1 0;
#X connect 4 0 2 0;
#X connect 4 1 3 0;
#X connect 5 0 4 0;
#X connect 6 0 4 0;
#X connect 7 0 4 0;
#X connect 8 0 4 0;
#X connect 9 0 4 0;
#X connect 10 0 4 0;
#X connect 11 0 4 0;
#X connect 12 0 3 0;
#X connect 15 0 4 0;
#X connect 16 0 5 0;
#X connect 16 1 6 0;
#X connect 16 2 15 0;
#X connect 16 3 7 0;
#X connect 16 4 8 0;
#X connect 16 5 9 0;
#X connect 16 6 10 0;
#X connect 16 7 11 0;
#X connect 16 8 17 0;
#X connect 16 9 18 0;
#X connect 17 0 4 0;
#X connect 18 0 4 0;
#X restore 342 200 pd czz_presets;
#X obj 591 75 g_synthcontrol;
#X obj 20 183 pack 0 0 0;
#X obj 20 205 route 1 2 3 4;
#X obj 143 325 r \$0-control;
#X obj 192 386 r \$0-control;
#X obj 170 356 r \$0-control;
#X obj 21 480 *~ 1;
#X obj 342 94 * 8;
#X obj 342 116 + 1;
#X obj 342 138 int;
#X obj 342 170 change -1;
#X obj 342 59 r czz-\$1-preset;
#X obj 20 89 r czz-\$1-notes-in;
#X obj 242 566 loadbang;
#X text 154 6 Synth Module based off of the CZZ synth in rjdj.;
#X obj 21 525 s~ czz-\$1-out;
#N canvas 542 194 918 602 talk-to-og 0;
#X msg 80 93 env3a \$1;
#X msg 81 171 env3d \$1;
#X obj 81 195 s \$0-GUI;
#X obj 80 117 s \$0-GUI;
#X obj 78 355 s \$0-GUI;
#X obj 78 279 s \$0-GUI;
#X msg 78 255 env3s \$1;
#X msg 78 331 env3r \$1;
#X obj 80 71 r czz-\$1-ampA;
#X obj 81 150 r czz-\$1-ampD;
#X obj 77 232 r czz-\$1-ampS;
#X obj 78 309 r czz-\$1-ampR;
#X obj 231 195 s \$0-GUI;
#X obj 230 117 s \$0-GUI;
#X obj 228 355 s \$0-GUI;
#X obj 228 279 s \$0-GUI;
#X obj 230 71 r czz-\$1-widthA;
#X obj 228 309 r czz-\$1-widthR;
#X obj 227 233 r czz-\$1-widthS;
#X obj 380 195 s \$0-GUI;
#X obj 379 117 s \$0-GUI;
#X obj 377 355 s \$0-GUI;
#X obj 377 279 s \$0-GUI;
#X obj 379 71 r czz-\$1-toneA;
#X obj 377 309 r czz-\$1-toneR;
#X obj 380 235 r czz-\$1-toneS;
#X obj 380 152 r czz-\$1-toneD;
#X msg 230 93 env2a \$1;
#X msg 231 171 env2d \$1;
#X msg 228 255 env2s \$1;
#X msg 228 331 env2r \$1;
#X msg 379 93 env1a \$1;
#X msg 380 171 env1d \$1;
#X msg 377 255 env1s \$1;
#X msg 377 331 env1r \$1;
#X obj 231 152 r czz-\$1-widthD;
#X obj 535 163 s \$0-GUI;
#X obj 533 351 s \$0-GUI;
#X obj 533 275 s \$0-GUI;
#X msg 533 251 mod1a \$1;
#X obj 535 67 r czz-\$1-pw1;
#X obj 533 231 r czz-\$1-filterAmt;
#X obj 533 305 r czz-\$1-syncAmt;
#X msg 533 327 mod1c \$1;
#X msg 535 139 osc1d \$1;
#X obj 535 89 t f f;
#X obj 535 111 *;
#X connect 0 0 3 0;
#X connect 1 0 2 0;
#X connect 6 0 5 0;
#X connect 7 0 4 0;
#X connect 8 0 0 0;
#X connect 9 0 1 0;
#X connect 10 0 6 0;
#X connect 11 0 7 0;
#X connect 16 0 27 0;
#X connect 17 0 30 0;
#X connect 18 0 29 0;
#X connect 23 0 31 0;
#X connect 24 0 34 0;
#X connect 25 0 33 0;
#X connect 26 0 32 0;
#X connect 27 0 13 0;
#X connect 28 0 12 0;
#X connect 29 0 15 0;
#X connect 30 0 14 0;
#X connect 31 0 20 0;
#X connect 32 0 19 0;
#X connect 33 0 22 0;
#X connect 34 0 21 0;
#X connect 35 0 28 0;
#X connect 39 0 38 0;
#X connect 40 0 45 0;
#X connect 41 0 39 0;
#X connect 42 0 43 0;
#X connect 43 0 37 0;
#X connect 44 0 36 0;
#X connect 45 0 46 0;
#X connect 45 1 46 1;
#X connect 46 0 44 0;
#X restore 313 306 pd talk-to-og;
#N canvas 829 140 883 588 print-adsrs 0;
#X obj 13 70 route env3a env3d env3s env3r, f 43;
#X obj 13 43 r \$0-control;
#X obj 13 153 r \$0-control;
#X obj 13 180 route env2a env2d env2s env2r, f 43;
#X obj 13 244 r \$0-control;
#X obj 13 271 route env1a env1d env1s env1r, f 43;
#X obj 27 435 * 100;
#X obj 27 457 i;
#X obj 27 506 s czz-\$1-pw1-label;
#X obj 162 432 * 100;
#X obj 162 454 i;
#X msg 162 481 Osc Pwm: \$1%;
#X obj 304 427 * 100;
#X obj 304 449 i;
#X msg 304 476 Filter Amt: \$1%;
#X obj 479 428 * 100;
#X obj 479 450 i;
#X obj 162 503 s czz-\$1-pwm1-label;
#X obj 304 498 s czz-\$1-filterAmt-label;
#X obj 479 499 s czz-\$1-syncAmt-label;
#X msg 479 477 Sync Amt: \$1%;
#X obj 27 349 r \$0-control;
#X obj 25 376 route osc1d osc1d mod1a mod1c, f 43;
#X obj 391 214 s oscOut;
#X msg 391 144 /oled/gPrintln 0 64 10 8 1 Amplitude;
#X obj 399 37 r page-ready;
#X obj 391 111 sel 1 2 3, f 18;
#X msg 471 180 /oled/gPrintln 0 75 10 8 1 Tone;
#X msg 449 163 /oled/gPrintln 0 56 10 8 1 Pulse Width;
#X obj 13 298 adsr-print-2 czz \$1, f 32;
#X obj 13 207 adsr-print-2 czz \$1, f 32;
#X obj 13 97 adsr-print-2 czz \$1, f 32;
#X msg 27 484 Pulse Width: \$1%;
#X connect 0 0 31 0;
#X connect 0 1 31 1;
#X connect 0 2 31 2;
#X connect 0 3 31 3;
#X connect 1 0 0 0;
#X connect 2 0 3 0;
#X connect 3 0 30 0;
#X connect 3 1 30 1;
#X connect 3 2 30 2;
#X connect 3 3 30 3;
#X connect 4 0 5 0;
#X connect 5 0 29 0;
#X connect 5 1 29 1;
#X connect 5 2 29 2;
#X connect 5 3 29 3;
#X connect 6 0 7 0;
#X connect 7 0 32 0;
#X connect 9 0 10 0;
#X connect 10 0 11 0;
#X connect 11 0 17 0;
#X connect 12 0 13 0;
#X connect 13 0 14 0;
#X connect 14 0 18 0;
#X connect 15 0 16 0;
#X connect 16 0 20 0;
#X connect 20 0 19 0;
#X connect 21 0 22 0;
#X connect 22 0 6 0;
#X connect 22 1 9 0;
#X connect 22 2 12 0;
#X connect 22 3 15 0;
#X connect 24 0 23 0;
#X connect 25 0 26 0;
#X connect 26 0 24 0;
#X connect 26 1 28 0;
#X connect 26 2 27 0;
#X connect 27 0 23 0;
#X connect 28 0 23 0;
#X connect 32 0 8 0;
#X restore 312 349 pd print-adsrs;
#X obj 179 473 s \$0-control;
#X text 197 150 turn off three print;
#X obj 242 616 s \$0-GUI;
#X obj 412 387 r czz-\$1-trans;
#X obj 412 409 * 48;
#X obj 412 431 - 24;
#X obj 410 467 int;
#X obj 435 489 s czz-\$1-trans-local;
#X msg 412 509 Transpose: \$1;
#X obj 412 533 s czz-\$1-trans-label;
#X msg 242 590 osc1a 0.7 \, osc1b 0.6 \, osc1c 0.5 \, mod3d 0.5 \,
mod1b 0;
#X obj 20 151 poly 4 0, f 10;
#X obj 97 410 s_czz \$0-TAG \$1;
#X obj 20 253 s_czz \$0-TAG \$1;
#X obj 47 354 s_czz \$0-TAG \$1;
#X obj 75 378 s_czz \$0-TAG \$1;
#X obj 20 253 s_czz \$0-TAG \$1;
#X connect 1 0 4 0;
#X connect 2 0 11 0;
#X connect 4 0 42 1;
#X connect 4 1 3 1;
#X connect 6 0 42 1;
#X connect 10 1 8 0;
#X connect 11 0 7 0;
#X connect 12 0 13 0;
#X connect 13 0 42 0;
#X connect 13 1 43 0;
#X connect 13 2 44 0;
#X connect 13 3 41 0;
#X connect 14 0 43 1;
#X connect 15 0 41 1;
#X connect 16 0 44 1;
#X connect 17 0 26 0;
#X connect 18 0 19 0;
#X connect 19 0 20 0;
#X connect 20 0 21 0;
#X connect 21 0 10 0;
#X connect 22 0 18 0;
#X connect 23 0 40 0;
#X connect 24 0 39 0;
#X connect 32 0 33 0;
#X connect 33 0 34 0;
#X connect 34 0 35 0;
#X connect 35 0 36 0;
#X connect 35 0 37 0;
#X connect 37 0 38 0;
#X connect 39 0 31 0;
#X connect 40 0 12 0;
#X connect 40 1 12 1;
#X connect 40 2 12 2;
#X connect 41 0 17 0;
#X connect 42 0 17 0;
#X connect 42 1 3 0;
#X connect 42 1 5 0;
#X connect 42 1 29 0;
#X connect 43 0 17 0;
#X connect 44 0 17 0;
