#N canvas 176 50 1020 859 10;
#X obj 38 199 sig~;
#X obj 686 78 inlet;
#X obj 46 133 mtof;
#X obj 46 16 inlet;
#X obj 46 37 unpack f f;
#X obj 113 66 / 127;
#X obj 147 187 sqrt;
#X obj 147 166 / 2000;
#X obj 113 86 s \$0-envelopes;
#N canvas 6 125 262 827 dispatchers 0;
#X obj 97 -53 u_dispatch \$0 env1a;
#X obj 97 -29 u_dispatch \$0 env1d;
#X obj 97 -8 u_dispatch \$0 env1s;
#X obj 97 14 u_dispatch \$0 env1r;
#X obj 97 39 u_dispatch \$0 env2a;
#X obj 97 63 u_dispatch \$0 env2d;
#X obj 97 84 u_dispatch \$0 env2s;
#X obj 97 106 u_dispatch \$0 env2r;
#X obj 97 129 u_dispatch \$0 env3a;
#X obj 97 153 u_dispatch \$0 env3d;
#X obj 97 174 u_dispatch \$0 env3s;
#X obj 97 196 u_dispatch \$0 env3r;
#X obj 97 220 u_dispatch \$0 osc1a;
#X obj 97 241 u_dispatch \$0 osc1b;
#X obj 97 263 u_dispatch \$0 osc1c;
#X obj 97 284 u_dispatch \$0 osc1d;
#X obj 97 306 u_dispatch \$0 osc2a;
#X obj 97 327 u_dispatch \$0 osc2b;
#X obj 97 349 u_dispatch \$0 osc2c;
#X obj 97 370 u_dispatch \$0 osc2d;
#X obj 97 390 u_dispatch \$0 osc3a;
#X obj 97 411 u_dispatch \$0 osc3b;
#X obj 97 433 u_dispatch \$0 osc3c;
#X obj 97 454 u_dispatch \$0 osc3d;
#X obj 97 476 u_dispatch \$0 mod1a;
#X obj 97 497 u_dispatch \$0 mod1b;
#X obj 97 519 u_dispatch \$0 mod1c;
#X obj 97 540 u_dispatch \$0 mod1d;
#X obj 97 561 u_dispatch \$0 mod2a;
#X obj 97 582 u_dispatch \$0 mod2b;
#X obj 97 604 u_dispatch \$0 mod2c;
#X obj 97 625 u_dispatch \$0 mod2d;
#X obj 97 646 u_dispatch \$0 mod3a;
#X obj 97 667 u_dispatch \$0 mod3b;
#X obj 97 688 u_dispatch \$0 mod3c;
#X obj 97 710 u_dispatch \$0 mod3d;
#X obj 97 -78 inlet;
#X connect 0 0 1 0;
#X connect 1 0 2 0;
#X connect 2 0 3 0;
#X connect 3 0 4 0;
#X connect 4 0 5 0;
#X connect 5 0 6 0;
#X connect 6 0 7 0;
#X connect 7 0 8 0;
#X connect 8 0 9 0;
#X connect 9 0 10 0;
#X connect 10 0 11 0;
#X connect 11 0 12 0;
#X connect 12 0 13 0;
#X connect 13 0 14 0;
#X connect 14 0 15 0;
#X connect 15 0 16 0;
#X connect 16 0 17 0;
#X connect 17 0 18 0;
#X connect 18 0 19 0;
#X connect 19 0 20 0;
#X connect 20 0 21 0;
#X connect 21 0 22 0;
#X connect 22 0 23 0;
#X connect 23 0 24 0;
#X connect 24 0 25 0;
#X connect 25 0 26 0;
#X connect 26 0 27 0;
#X connect 27 0 28 0;
#X connect 28 0 29 0;
#X connect 29 0 30 0;
#X connect 30 0 31 0;
#X connect 31 0 32 0;
#X connect 32 0 33 0;
#X connect 33 0 34 0;
#X connect 34 0 35 0;
#X connect 36 0 0 0;
#X restore 753 184 pd dispatchers;
#X obj 513 815 outlet~;
#X obj 38 225 s~ \$0-f;
#X obj 265 384 r~ \$0-f;
#X obj 215 382 *~;
#X obj 404 298 r \$0-osc1a;
#X obj 503 346 r \$0-osc1b;
#X obj 513 729 *~, f 5;
#X obj 504 464 *~;
#X obj 523 417 r \$0-osc1d;
#X obj 147 207 sig~;
#X obj 147 227 s~ \$0-keyscale;
#X obj 405 346 +~;
#X obj 503 394 +~;
#X obj 425 376 r \$0-osc1c;
#X obj 404 420 *~;
#X obj 485 664 +~ 200;
#X obj 556 568 r \$0-mod1a;
#X obj 557 626 *~ 3500;
#X obj 486 643 *~;
#X obj 154 289 r \$0-mod1b;
#X obj 215 420 +~;
#X obj 248 421 -~;
#X obj 234 254 r~ \$0-keyscale;
#X obj 234 329 *~;
#X obj 235 280 *~ 7;
#X obj 252 302 r~ \$0-e1;
#X obj 522 264 r~ \$0-e2;
#X obj 505 531 r~ \$0-e3;
#X obj 356 248 r \$0-mod1c;
#X obj 357 300 *~ 10;
#X obj 340 345 *~;
#N canvas 8 50 600 375 s_blsyncsquare 0;
#X obj 78 30 inlet~;
#X obj 79 78 phasor~;
#X obj 266 29 inlet~;
#X obj 336 30 inlet;
#X text 263 8 pwm~;
#X text 76 10 freq~;
#X text 336 12 phase;
#N canvas 528 274 512 505 sigment 0;
#X obj 71 154 wrap~;
#X obj 71 216 -~ 0.5;
#X obj 71 132 -~;
#X obj 70 52 inlet~;
#X text 70 34 phasor~;
#X obj 70 277 outlet~;
#X text 261 29 phase;
#X obj 259 50 inlet~;
#X obj 159 51 inlet~;
#X obj 70 253 *~ -1;
#X text 161 32 freq~;
#X obj 70 184 u_splicetrans;
#X connect 0 0 11 0;
#X connect 1 0 9 0;
#X connect 2 0 0 0;
#X connect 3 0 2 0;
#X connect 7 0 2 1;
#X connect 8 0 11 1;
#X connect 9 0 5 0;
#X connect 11 0 1 0;
#X restore 82 204 pd sigment -1;
#N canvas 526 280 508 458 sigment 0;
#X obj 71 154 wrap~;
#X obj 71 216 -~ 0.5;
#X obj 71 132 -~;
#X obj 70 52 inlet~;
#X text 70 34 phasor~;
#X obj 70 277 outlet~;
#X text 261 29 phase;
#X obj 259 50 inlet~;
#X obj 159 51 inlet~;
#X text 161 32 freq~;
#X obj 70 184 u_splicetrans;
#X connect 0 0 10 0;
#X connect 1 0 5 0;
#X connect 2 0 0 0;
#X connect 3 0 2 0;
#X connect 7 0 2 1;
#X connect 8 0 10 1;
#X connect 10 0 1 0;
#X restore 185 204 pd sigment 1;
#X obj 81 264 outlet~;
#N canvas 228 198 627 317 LICENSE-BSD 0;
#X text 121 56 This software is copyrighted by Miller Puckette \, Reality
Jockey Ltd. and others. The terms (the "Standard Improved BSD License")
apply to all files associated with the software unless explicitly disclaimed
in individual files.;
#X text 123 148 See the file LICENSE.txt for the full license text.
;
#X restore 440 29 pd LICENSE-BSD;
#X obj 81 144 wrap~;
#X obj 80 106 *~;
#X obj 168 31 inlet~;
#X text 167 12 sync~;
#X connect 0 0 1 0;
#X connect 0 0 7 1;
#X connect 0 0 8 1;
#X connect 1 0 12 0;
#X connect 2 0 8 2;
#X connect 3 0 1 1;
#X connect 7 0 9 0;
#X connect 8 0 9 0;
#X connect 11 0 7 0;
#X connect 11 0 8 0;
#X connect 12 0 11 0;
#X connect 13 0 12 1;
#X restore 312 489 pd s_blsyncsquare;
#X obj 686 128 route save;
#X obj 686 184 outlet;
#N canvas 522 325 798 352 envelopes 0;
#X obj 529 132 t a a;
#X obj 529 22 r \$0-envelopes;
#X obj 596 49 r \$0-env3a;
#X obj 633 90 r \$0-env3d;
#X obj 661 108 r \$0-env3s;
#X obj 690 126 r \$0-env3r;
#X obj 596 122 * 2000;
#X obj 633 142 * 4000;
#X obj 661 164 * 100;
#X obj 529 300 s~ \$0-e3;
#X obj 596 144 int;
#X obj 596 166 + 1;
#X obj 596 71 t f f;
#X obj 596 93 *;
#X obj 633 164 i;
#X obj 633 186 + 1;
#X obj 277 130 t a a;
#X obj 277 20 r \$0-envelopes;
#X obj 344 120 * 2000;
#X obj 381 140 * 4000;
#X obj 409 162 * 100;
#X obj 344 142 int;
#X obj 344 164 + 1;
#X obj 344 69 t f f;
#X obj 344 91 *;
#X obj 381 162 i;
#X obj 381 184 + 1;
#X obj 453 158 * 4000;
#X obj 344 47 r \$0-env2a;
#X obj 381 88 r \$0-env2d;
#X obj 409 106 r \$0-env2s;
#X obj 438 124 r \$0-env2r;
#X obj 277 298 s~ \$0-e2;
#X obj 28 102 t a a;
#X obj 28 20 r \$0-envelopes;
#X obj 105 120 * 2000;
#X obj 142 140 * 4000;
#X obj 170 162 * 100;
#X obj 105 142 int;
#X obj 105 164 + 1;
#X obj 105 69 t f f;
#X obj 105 91 *;
#X obj 142 162 i;
#X obj 142 184 + 1;
#X obj 105 47 r \$0-env1a;
#X obj 142 88 r \$0-env1d;
#X obj 170 106 r \$0-env1s;
#X obj 199 124 r \$0-env1r;
#X obj 28 311 s~ \$0-e1;
#X obj 453 180 + 1;
#X obj 703 165 * 4000;
#X obj 703 187 + 1;
#X obj 214 150 * 4000;
#X obj 214 172 + 1;
#X obj 28 236 *~;
#X obj 28 258 *~;
#X obj 277 258 *~;
#X obj 277 236 *~;
#X obj 529 238 *~;
#X obj 529 260 *~;
#X obj 277 214 c_adsr 1 10 100 50 400;
#X obj 28 214 c_adsr 1 10 100 50 400;
#X obj 529 216 c_adsr 1 10 100 50 400;
#X connect 0 0 62 0;
#X connect 0 1 62 1;
#X connect 1 0 0 0;
#X connect 2 0 12 0;
#X connect 3 0 7 0;
#X connect 4 0 8 0;
#X connect 5 0 50 0;
#X connect 6 0 10 0;
#X connect 7 0 14 0;
#X connect 8 0 62 4;
#X connect 10 0 11 0;
#X connect 11 0 62 2;
#X connect 12 0 13 0;
#X connect 12 1 13 1;
#X connect 13 0 6 0;
#X connect 14 0 15 0;
#X connect 15 0 62 3;
#X connect 16 0 60 0;
#X connect 16 1 60 1;
#X connect 17 0 16 0;
#X connect 18 0 21 0;
#X connect 19 0 25 0;
#X connect 20 0 60 4;
#X connect 21 0 22 0;
#X connect 22 0 60 2;
#X connect 23 0 24 0;
#X connect 23 1 24 1;
#X connect 24 0 18 0;
#X connect 25 0 26 0;
#X connect 26 0 60 3;
#X connect 27 0 49 0;
#X connect 28 0 23 0;
#X connect 29 0 19 0;
#X connect 30 0 20 0;
#X connect 31 0 27 0;
#X connect 33 0 61 0;
#X connect 33 1 61 1;
#X connect 34 0 33 0;
#X connect 35 0 38 0;
#X connect 36 0 42 0;
#X connect 37 0 61 4;
#X connect 38 0 39 0;
#X connect 39 0 61 2;
#X connect 40 0 41 0;
#X connect 40 1 41 1;
#X connect 41 0 35 0;
#X connect 42 0 43 0;
#X connect 43 0 61 3;
#X connect 44 0 40 0;
#X connect 45 0 36 0;
#X connect 46 0 37 0;
#X connect 47 0 52 0;
#X connect 49 0 60 5;
#X connect 50 0 51 0;
#X connect 51 0 62 5;
#X connect 52 0 53 0;
#X connect 53 0 61 5;
#X connect 54 0 55 0;
#X connect 54 0 55 1;
#X connect 55 0 48 0;
#X connect 56 0 32 0;
#X connect 57 0 56 0;
#X connect 57 0 56 1;
#X connect 58 0 59 0;
#X connect 58 0 59 1;
#X connect 59 0 9 0;
#X connect 60 0 57 0;
#X connect 60 0 57 1;
#X connect 61 0 54 0;
#X connect 61 0 54 1;
#X connect 62 0 58 0;
#X connect 62 0 58 1;
#X restore 479 78 pd envelopes;
#X obj 686 105 list trim;
#X obj 686 151 u_loader s_czz_synth-\$1 \$0;
#X text 562 760 extra gain needed;
#X text 115 680 ajf2010;
#X obj 234 351 *~;
#X obj 512 784 hip~ 5;
#X obj 459 703 vcf~ 2;
#X obj 459 489 s_blsquare;
#X obj 356 276 lop~ 10;
#X obj 423 396 lop~ 10;
#X obj 404 320 lop~ 10;
#X obj 154 317 lop~ 10;
#X obj 556 596 lop~ 6;
#X obj 46 79 +;
#X obj 150 25 r czz-\$2-trans-local;
#X obj 523 439 lop~ 10;
#X obj 503 370 lop~ 10;
#X obj 512 762 *~ 2, f 6;
#X obj 38 176 clip 1 22000;
#X connect 0 0 11 0;
#X connect 1 0 45 0;
#X connect 2 0 7 0;
#X connect 2 0 63 0;
#X connect 3 0 4 0;
#X connect 4 0 58 0;
#X connect 4 1 5 0;
#X connect 5 0 8 0;
#X connect 6 0 19 0;
#X connect 7 0 6 0;
#X connect 12 0 30 1;
#X connect 12 0 31 1;
#X connect 13 0 30 0;
#X connect 13 0 31 0;
#X connect 14 0 55 0;
#X connect 15 0 61 0;
#X connect 16 0 62 0;
#X connect 17 0 52 1;
#X connect 18 0 60 0;
#X connect 19 0 20 0;
#X connect 21 0 24 0;
#X connect 22 0 17 0;
#X connect 23 0 54 0;
#X connect 24 0 41 2;
#X connect 25 0 51 1;
#X connect 26 0 57 0;
#X connect 27 0 28 1;
#X connect 28 0 25 0;
#X connect 29 0 56 0;
#X connect 30 0 41 0;
#X connect 31 0 52 0;
#X connect 32 0 34 0;
#X connect 33 0 49 0;
#X connect 33 0 49 1;
#X connect 34 0 33 0;
#X connect 35 0 33 1;
#X connect 35 0 40 0;
#X connect 36 0 21 1;
#X connect 36 0 22 1;
#X connect 37 0 28 0;
#X connect 37 0 16 1;
#X connect 38 0 53 0;
#X connect 39 0 40 1;
#X connect 40 0 41 1;
#X connect 41 0 51 0;
#X connect 42 0 46 0;
#X connect 42 1 9 0;
#X connect 45 0 42 0;
#X connect 46 0 43 0;
#X connect 49 0 13 1;
#X connect 50 0 10 0;
#X connect 51 1 16 0;
#X connect 52 0 51 0;
#X connect 53 0 39 0;
#X connect 54 0 24 1;
#X connect 55 0 21 0;
#X connect 56 0 13 0;
#X connect 57 0 27 0;
#X connect 58 0 2 0;
#X connect 59 0 58 1;
#X connect 60 0 17 1;
#X connect 61 0 22 0;
#X connect 62 0 50 0;
#X connect 63 0 0 0;
