#N canvas 237 50 1475 910 10;
#X obj 251 847 throw~ outL;
#X obj 362 847 throw~ outR;
#X obj 416 54 r notes;
#X obj 97 538 pack 0 0 0, f 11;
#X obj 97 564 route 1 2 3 4 5 6 7 8, f 81;
#X obj 293 56 r knob3;
#X obj 1186 650 r knob4;
#X obj 1002 711 i;
#X obj 1184 727 i;
#X obj 1002 787 s screenLine3;
#X obj 1184 803 s screenLine4;
#X msg 1184 776 4: Decay Time \$1 ms;
#X obj 916 235 r aux;
#X obj 894 337 i 0, f 5;
#X obj 964 337 + 1;
#X floatatom 894 407 5 0 0 0 - - -, f 5;
#X obj 916 298 sel 1;
#X obj 894 428 s led;
#X obj 1185 683 * 2000;
#X obj 1002 734 change -1;
#X obj 1184 750 change -1;
#X obj 790 394 s waveform;
#X obj 894 363 % 4;
#X obj 894 385 + 2;
#X obj 894 199 loadbang;
#X text 995 334 the aux button changes waveform;
#X obj 954 410 sel 0 1 2 3, f 60;
#X obj 1058 472 s screenLine5;
#X obj 954 528 s screenLine5;
#X obj 1162 534 s screenLine5;
#X obj 1266 466 s screenLine5;
#X obj 991 233 r fs;
#X obj 865 835 send~ f;
#X obj 865 770 sig~;
#X obj 864 801 lop~ 5;
#X obj 865 699 / 100;
#X obj 865 721 mtof;
#X obj 865 743 / 8.1785;
#X obj 862 674 * 2400;
#X obj 859 649 r knob1;
#X floatatom 416 106 5 0 0 0 - - -, f 5;
#X obj 416 78 stripnote;
#X obj 96 385 + 60;
#X obj 342 320 + 60;
#X obj 488 323 + 60;
#X obj 417 127 t b f;
#X obj 525 58 r knob2;
#X floatatom 525 80 5 0 0 0 - - -, f 5;
#X obj 525 121 i;
#X floatatom 525 174 5 0 0 0 - - -, f 5;
#X obj 459 228 unpack 0 0 0 0;
#X obj 617 325 + 60;
#X obj 525 99 * 14;
#X obj 238 604 voice;
#X obj 1034 61 loadbang;
#X obj 727 787 change -1;
#X msg 727 813 1: Tune \$1 cents;
#X obj 727 837 s screenLine1;
#X obj 726 760 i;
#N canvas 110 128 1678 736 chords 0;
#X msg 239 276 0 4 7;
#X msg 239 300 0 3 7;
#X msg 239 324 0 5 7;
#X floatatom 430 175 5 0 0 0 - - -, f 5;
#X obj 375 219 i;
#X msg 239 376 0 4 7 11;
#X msg 239 349 0 4 8;
#X msg 238 401 0 4 7 10;
#X msg 239 423 0 3 7 10;
#X msg 239 450 0 3 6 10;
#X msg 240 479 0 3 6 9;
#X msg 239 577 0 12 24;
#X obj 375 247 route 0 1 2 3 4 5 6 7 8 9 10 11;
#X obj 329 94 inlet;
#X obj 369 177 bng 15 250 50 0 empty empty empty 17 7 0 10 -262144
-1 -1;
#X obj 463 109 inlet;
#X text 261 98 get it!;
#X obj 421 657 outlet;
#X msg 724 310 \; screenLine2 2: min \;;
#X msg 694 268 \; screenLine2 2: maj \;;
#X msg 738 365 \; screenLine2 2: sus 4th \;;
#X msg 777 404 \; screenLine2 2: aug 5th \;;
#X msg 801 450 \; screenLine2 2: maj 7th \;;
#X msg 855 497 \; screenLine2 2: dom 7th \;;
#X msg 885 536 \; screenLine2 2: min 7th \;;
#X msg 922 589 \; screenLine2 2: min 7th b5 \;;
#X msg 973 637 \; screenLine2 2: dim 7th \;;
#X obj 733 209 sel 0 1 2 3 4 5 6 7 8 9 10 11;
#X msg 899 279 \; screenLine2 2: maj 3rd \;;
#X msg 970 325 \; screenLine2 2: min 3rd;
#X msg 238 551 0 7;
#X msg 239 506 0 4;
#X msg 239 530 0 3;
#X msg 1029 371 \; screenLine2 2: Power \;;
#X msg 1087 417 \; screenLine2 2: Super Octave \;;
#X text 979 206 set oled;
#X connect 0 0 17 0;
#X connect 1 0 17 0;
#X connect 2 0 17 0;
#X connect 3 0 4 1;
#X connect 3 0 27 0;
#X connect 4 0 12 0;
#X connect 5 0 17 0;
#X connect 6 0 17 0;
#X connect 7 0 17 0;
#X connect 8 0 17 0;
#X connect 9 0 17 0;
#X connect 10 0 17 0;
#X connect 11 0 17 0;
#X connect 12 0 0 0;
#X connect 12 1 1 0;
#X connect 12 2 2 0;
#X connect 12 3 6 0;
#X connect 12 4 5 0;
#X connect 12 5 7 0;
#X connect 12 6 8 0;
#X connect 12 7 9 0;
#X connect 12 8 10 0;
#X connect 12 9 31 0;
#X connect 12 10 32 0;
#X connect 12 11 30 0;
#X connect 12 12 11 0;
#X connect 13 0 14 0;
#X connect 14 0 4 0;
#X connect 15 0 3 0;
#X connect 27 0 19 0;
#X connect 27 1 18 0;
#X connect 27 2 20 0;
#X connect 27 3 21 0;
#X connect 27 4 22 0;
#X connect 27 5 23 0;
#X connect 27 6 24 0;
#X connect 27 7 25 0;
#X connect 27 8 26 0;
#X connect 27 9 28 0;
#X connect 27 10 29 0;
#X connect 27 11 33 0;
#X connect 27 12 34 0;
#X connect 30 0 17 0;
#X connect 31 0 17 0;
#X connect 32 0 17 0;
#X restore 458 201 pd chords;
#X obj 291 410 f;
#X obj 320 348 t b f;
#X obj 291 382 delay;
#X obj 454 406 f;
#X obj 473 346 t b f;
#X obj 454 378 delay;
#X obj 590 423 f;
#X obj 613 353 t b f;
#X obj 590 395 delay;
#X floatatom 293 158 5 0 0 0 - - -, f 5;
#X obj 293 132 * 200;
#X obj 293 80 t f f;
#X obj 293 102 *;
#X obj 96 420 pack 0 100;
#X obj 293 433 pack 0 100;
#X obj 454 431 pack 0 100;
#X obj 592 451 pack 0 100;
#X obj 97 511 poly 8 1, f 11;
#X obj 271 213 * 1;
#X obj 315 212 * 2;
#X obj 361 216 * 3;
#X obj 1005 650 r knob3;
#X msg 1002 761 3: Roll Speed \$1 ms;
#X obj 1002 686 * 200;
#X obj 379 605 voice;
#X obj 308 604 voice;
#X obj 167 604 voice;
#X obj 97 603 voice;
#X obj 449 606 voice;
#X obj 590 605 voice;
#X obj 520 604 voice;
#X msg 1037 82 \; screenLine1 1: Tune \; screenLine2 2: Chord Select
\; screenLine3 3: Roll Speed \; screenLine4 4: Decay \; screenLine5
Aux: Waveform \;;
#X msg 954 502 Sine Wave;
#X msg 1058 446 Square Wave;
#X msg 1162 508 Sawtooth Wave;
#X msg 1266 440 Triangle Wave;
#X obj 525 143 change -1;
#X obj 449 153 s root;
#X obj 641 291 r root;
#X obj 518 288 r root;
#X obj 384 300 r root;
#X obj 121 335 r root;
#X text 803 603 update oled stuff. knob2 is updated inside pd chords
above;
#X text 593 84 and then the chord is 'rolled' at a selectable speed
(knob3);
#X text 547 200 get the chord;
#X text 164 264 roll the chord using delays;
#X obj 1185 705 + 10;
#N canvas 192 101 1294 565 MIDI-out 0;
#X text 156 23 The Organelle sends out key presses by default on ch
1 So we will send out the chords on ch 2...;
#X obj 116 150 inlet;
#X text 168 108 up to 4 chord notes come in here;
#X obj 116 236 makenote 100 100;
#X obj 140 343 noteout 2;
#X obj 267 148 inlet;
#X obj 267 234 makenote 100 100;
#X obj 316 354 noteout 2;
#X obj 436 143 inlet;
#X obj 436 229 makenote 100 100;
#X obj 485 349 noteout 2;
#X obj 578 141 inlet;
#X obj 578 227 makenote 100 100;
#X obj 627 347 noteout 2;
#X text 777 238 set by knob 4;
#X text 778 216 So we use makenote to send a note off after the delay
time;
#X obj 772 109 r knob4;
#X obj 772 131 * 2000;
#X obj 772 153 + 100;
#X text 776 192 In this patch \, we ignore note offs \, like a xylophone.
;
#X connect 1 0 3 0;
#X connect 3 0 4 0;
#X connect 3 1 4 1;
#X connect 5 0 6 0;
#X connect 6 0 7 0;
#X connect 6 1 7 1;
#X connect 8 0 9 0;
#X connect 9 0 10 0;
#X connect 9 1 10 1;
#X connect 11 0 12 0;
#X connect 12 0 13 0;
#X connect 12 1 13 1;
#X connect 16 0 17 0;
#X connect 17 0 18 0;
#X connect 18 0 12 2;
#X connect 18 0 9 2;
#X connect 18 0 6 2;
#X connect 18 0 3 2;
#X restore 375 519 pd MIDI-out;
#X text 477 522 send the chord out on midi ch 2;
#X text 645 268 add the root;
#X text 614 61 A note is converted into a selected chord (knob2);
#X connect 2 0 41 0;
#X connect 3 0 4 0;
#X connect 4 0 87 0;
#X connect 4 1 86 0;
#X connect 4 2 53 0;
#X connect 4 3 85 0;
#X connect 4 4 84 0;
#X connect 4 5 88 0;
#X connect 4 6 90 0;
#X connect 4 7 89 0;
#X connect 5 0 71 0;
#X connect 6 0 18 0;
#X connect 7 0 19 0;
#X connect 8 0 20 0;
#X connect 11 0 10 0;
#X connect 12 0 16 0;
#X connect 13 0 14 0;
#X connect 13 0 22 0;
#X connect 14 0 13 1;
#X connect 15 0 17 0;
#X connect 16 0 13 0;
#X connect 18 0 106 0;
#X connect 19 0 82 0;
#X connect 20 0 11 0;
#X connect 22 0 23 0;
#X connect 22 0 21 0;
#X connect 22 0 26 0;
#X connect 23 0 15 0;
#X connect 24 0 13 0;
#X connect 26 0 92 0;
#X connect 26 1 93 0;
#X connect 26 2 94 0;
#X connect 26 3 95 0;
#X connect 31 0 16 0;
#X connect 33 0 34 0;
#X connect 34 0 32 0;
#X connect 35 0 36 0;
#X connect 36 0 37 0;
#X connect 37 0 33 0;
#X connect 38 0 35 0;
#X connect 38 0 58 0;
#X connect 39 0 38 0;
#X connect 40 0 45 0;
#X connect 41 0 40 0;
#X connect 42 0 73 0;
#X connect 43 0 61 0;
#X connect 44 0 64 0;
#X connect 45 0 59 0;
#X connect 45 1 97 0;
#X connect 46 0 47 0;
#X connect 47 0 52 0;
#X connect 48 0 96 0;
#X connect 49 0 59 1;
#X connect 50 0 42 0;
#X connect 50 1 43 0;
#X connect 50 2 44 0;
#X connect 50 3 51 0;
#X connect 51 0 67 0;
#X connect 52 0 48 0;
#X connect 53 0 1 0;
#X connect 53 0 0 0;
#X connect 54 0 91 0;
#X connect 55 0 56 0;
#X connect 56 0 57 0;
#X connect 58 0 55 0;
#X connect 59 0 50 0;
#X connect 60 0 74 0;
#X connect 61 0 62 0;
#X connect 61 1 60 1;
#X connect 62 0 60 0;
#X connect 63 0 75 0;
#X connect 64 0 65 0;
#X connect 64 1 63 1;
#X connect 65 0 63 0;
#X connect 66 0 76 0;
#X connect 67 0 68 0;
#X connect 67 1 66 1;
#X connect 68 0 66 0;
#X connect 69 0 78 0;
#X connect 69 0 79 0;
#X connect 69 0 80 0;
#X connect 70 0 69 0;
#X connect 71 0 72 0;
#X connect 71 1 72 1;
#X connect 72 0 70 0;
#X connect 73 0 77 0;
#X connect 73 0 107 0;
#X connect 74 0 77 0;
#X connect 74 0 107 1;
#X connect 75 0 77 0;
#X connect 75 0 107 2;
#X connect 76 0 77 0;
#X connect 76 0 107 3;
#X connect 77 0 3 0;
#X connect 77 1 3 1;
#X connect 77 2 3 2;
#X connect 78 0 62 1;
#X connect 79 0 65 1;
#X connect 80 0 68 1;
#X connect 81 0 83 0;
#X connect 82 0 9 0;
#X connect 83 0 7 0;
#X connect 84 0 0 0;
#X connect 84 0 1 0;
#X connect 85 0 0 0;
#X connect 85 0 1 0;
#X connect 86 0 0 0;
#X connect 86 0 1 0;
#X connect 87 0 0 0;
#X connect 87 0 1 0;
#X connect 88 0 0 0;
#X connect 88 0 1 0;
#X connect 89 0 0 0;
#X connect 89 0 1 0;
#X connect 90 0 0 0;
#X connect 90 0 1 0;
#X connect 92 0 28 0;
#X connect 93 0 27 0;
#X connect 94 0 29 0;
#X connect 95 0 30 0;
#X connect 96 0 49 0;
#X connect 98 0 51 1;
#X connect 99 0 44 1;
#X connect 100 0 43 1;
#X connect 101 0 42 1;
#X connect 106 0 8 0;
