#N canvas 555 50 1082 940 10;
#X obj 76 701 osc~ 440;
#X obj 304 155 mtof;
#X obj 304 191 sig~;
#X obj 303 325 *~;
#X text 352 43 note messages;
#X obj 359 444 osc~;
#X text 426 225 knob 1 controls overall pitch;
#X obj 726 638 f;
#X obj 726 596 bng 15 250 50 0 empty empty empty 17 7 0 10 -262144
-1 -1;
#X obj 258 850 *~;
#X obj 726 703 line~;
#X msg 726 674 0 \$1;
#X msg 888 636 1 5;
#X obj 888 597 bng 15 250 50 0 empty empty empty 17 7 0 10 -262144
-1 -1;
#X text 437 99 selects note off messages so we can set decay time later
;
#X text 348 162 convert it to signal so frequency will be constantly
updated;
#X obj 304 44 inlet;
#X obj 258 896 outlet~;
#X obj 303 595 /~ 4;
#X obj 358 410 *~ 50;
#X obj 746 595 + 10;
#X obj 746 543 r knob4;
#X obj 356 474 *~;
#X obj 746 569 * 2000;
#X text 764 641 decay time;
#X obj 259 872 *~ 0.5;
#X obj 334 699 blsaw;
#X obj 209 700 s_blsquare;
#X obj 124 506 r waveform;
#X msg 279 643 0;
#X msg 236 727 1;
#X msg 354 726 1;
#X msg 97 731 1;
#N canvas 7 50 727 452 triangle 0;
#X obj 130 207 outlet~;
#X obj 131 65 inlet~;
#N canvas 699 258 779 606 triangle 0;
#X obj 80 290 -~ 0.5;
#X obj 228 290 -~ 0.5;
#X obj 134 340 -~;
#X obj 220 480 outlet~;
#X obj 80 91 phasor~ 0;
#X text 131 55 frequency;
#X obj 228 236 wrap~;
#N canvas 0 50 540 420 4*$v1*(1-$v1) 0;
#X obj 182 177 *~ 4;
#X obj 132 177 sig~ 1;
#X obj 132 200 -~;
#X obj 132 228 *~;
#X obj 182 76 inlet~;
#X obj 132 253 outlet~;
#X connect 0 0 3 1;
#X connect 1 0 2 0;
#X connect 2 0 3 0;
#X connect 3 0 5 0;
#X connect 4 0 2 1;
#X connect 4 0 0 0;
#X restore 228 262 pd 4*$v1*(1-$v1);
#N canvas 0 50 540 420 4*$v1*(1-$v1) 0;
#X obj 182 177 *~ 4;
#X obj 132 177 sig~ 1;
#X obj 132 200 -~;
#X obj 132 228 *~;
#X obj 182 76 inlet~;
#X obj 132 253 outlet~;
#X connect 0 0 3 1;
#X connect 1 0 2 0;
#X connect 2 0 3 0;
#X connect 3 0 5 0;
#X connect 4 0 2 1;
#X connect 4 0 0 0;
#X restore 79 261 pd 4*$v1*(1-$v1);
#X text 489 64 tri-saw factor (0-1);
#X obj 80 54 inlet~;
#X obj 430 66 inlet;
#X obj 430 89 clip 0.01 0.99;
#X obj 294 372 line~;
#X obj 294 350 pack 0 10;
#N canvas 0 50 540 420 4*$f1*(1-$f1) 0;
#X obj 185 177 * 4;
#X obj 137 72 inlet;
#X msg 137 171 1 \$1;
#X obj 137 200 -;
#X obj 137 228 *;
#X obj 137 107 t a a;
#X obj 137 253 outlet;
#X connect 0 0 4 1;
#X connect 1 0 5 0;
#X connect 2 0 3 0;
#X connect 3 0 4 0;
#X connect 4 0 6 0;
#X connect 5 0 2 0;
#X connect 5 1 0 0;
#X restore 430 290 pd 4*$f1*(1-$f1);
#X obj 245 151 line~;
#X obj 245 129 pack 0 10;
#X obj 227 177 +~;
#X obj 245 77 loadbang;
#X msg 245 98 0.5;
#X obj 220 414 /~;
#X obj 294 297 loadbang;
#X msg 294 318 1;
#X obj 241 45 inlet;
#X connect 0 0 2 0;
#X connect 1 0 2 1;
#X connect 2 0 21 0;
#X connect 4 0 8 0;
#X connect 4 0 18 0;
#X connect 6 0 7 0;
#X connect 7 0 1 0;
#X connect 8 0 0 0;
#X connect 10 0 4 0;
#X connect 11 0 12 0;
#X connect 12 0 15 0;
#X connect 12 0 17 0;
#X connect 13 0 21 1;
#X connect 14 0 13 0;
#X connect 15 0 14 0;
#X connect 16 0 18 1;
#X connect 17 0 16 0;
#X connect 18 0 6 0;
#X connect 19 0 20 0;
#X connect 20 0 17 0;
#X connect 21 0 3 0;
#X connect 22 0 23 0;
#X connect 23 0 14 0;
#X connect 24 0 4 1;
#X restore 130 162 pd triangle;
#X text 202 48 slope;
#X obj 189 96 loadbang;
#X msg 194 123 0.5;
#X connect 1 0 2 0;
#X connect 2 0 0 0;
#X connect 4 0 5 0;
#X connect 5 0 2 2;
#X restore 445 701 pd triangle;
#X obj 97 629 sel 0 1 2 3;
#X msg 471 733 1;
#X obj 359 379 *~;
#X obj 513 382 *~;
#X text 113 486 change waveform;
#X text 25 10 synth voice with waveform change;
#X obj 661 770 *~;
#X obj 322 223 r~ f;
#X obj 304 545 +~;
#X obj 516 412 *~ 100;
#X obj 304 96 stripnote;
#X obj 725 444 t b b;
#X obj 717 492 delay 5;
#X obj 65 564 delay 2;
#X obj 125 566 f;
#X obj 126 530 t b a b;
#X obj 75 759 smoothswitch;
#X obj 209 765 smoothswitch;
#X obj 333 758 smoothswitch;
#X obj 444 762 smoothswitch;
#X connect 0 0 50 0;
#X connect 1 0 2 0;
#X connect 2 0 3 0;
#X connect 3 0 42 0;
#X connect 5 0 22 0;
#X connect 7 0 11 0;
#X connect 8 0 7 0;
#X connect 9 0 25 0;
#X connect 10 0 40 1;
#X connect 10 0 40 0;
#X connect 11 0 10 0;
#X connect 12 0 10 0;
#X connect 13 0 12 0;
#X connect 16 0 44 0;
#X connect 18 0 0 0;
#X connect 18 0 26 0;
#X connect 18 0 27 0;
#X connect 18 0 33 0;
#X connect 19 0 5 0;
#X connect 20 0 7 1;
#X connect 21 0 23 0;
#X connect 22 0 42 1;
#X connect 23 0 20 0;
#X connect 25 0 17 0;
#X connect 26 0 52 0;
#X connect 27 0 51 0;
#X connect 28 0 49 0;
#X connect 29 0 50 1;
#X connect 29 0 51 1;
#X connect 29 0 52 1;
#X connect 29 0 53 1;
#X connect 30 0 51 1;
#X connect 31 0 52 1;
#X connect 32 0 50 1;
#X connect 33 0 53 0;
#X connect 34 0 32 0;
#X connect 34 1 30 0;
#X connect 34 2 31 0;
#X connect 34 3 35 0;
#X connect 35 0 53 1;
#X connect 36 0 19 0;
#X connect 37 0 43 0;
#X connect 40 0 9 1;
#X connect 41 0 3 1;
#X connect 42 0 18 0;
#X connect 43 0 22 1;
#X connect 44 0 1 0;
#X connect 44 1 45 0;
#X connect 45 0 46 0;
#X connect 45 1 13 0;
#X connect 46 0 8 0;
#X connect 47 0 48 0;
#X connect 48 0 34 0;
#X connect 49 0 47 0;
#X connect 49 1 48 1;
#X connect 49 2 29 0;
#X connect 50 0 9 0;
#X connect 51 0 9 0;
#X connect 52 0 9 0;
#X connect 53 0 9 0;
