#N canvas 16 50 470 305 10;
#X obj 118 83 inlet~;
#X obj 118 215 outlet~;
#X obj 177 215 outlet~;
#X text 120 37 a simple chorus;
#X obj 118 108 engine-chorus \$1;
#X obj 254 85 inlet~;
#X obj 294 144 s~ freq\$1;
#X obj 364 144 s~ mod\$1;
#X obj 334 85 inlet~;
#X connect 0 0 4 0;
#X connect 4 0 1 0;
#X connect 4 1 2 0;
#X connect 4 2 1 0;
#X connect 4 3 2 0;
#X connect 5 0 6 0;
#X connect 8 0 7 0;
