#N canvas 118 68 1662 882 10;
#X text 170 451 play stop record;
#X obj 627 145 - 60;
#X text 170 471 0 1 2;
#X obj 387 632 pack s 0;
#X msg 387 661 \; screenLine5 \$1 \$2 \;;
#X obj 329 542 t b a;
#X obj 627 167 + 1;
#X obj 762 -19 inlet tempo(default 1);
#X obj 455 404 outlet;
#X obj 515 404 outlet;
#X obj 575 404 outlet;
#X obj 635 404 outlet;
#X obj 455 289 f;
#N canvas 16 50 1646 827 record 0;
#X obj 15 53 inlet record control;
#X obj 126 375 qlist;
#X obj 126 352 r \$0-2-qlist;
#X obj 135 773 outlet knob1;
#X obj 245 774 outlet knob2;
#X obj 355 774 outlet knob3;
#X obj 455 774 outlet knob4;
#X obj 201 205 s \$0-2-qlist;
#X obj 201 52 inlet number to record;
#X obj 241 130 f;
#X obj 201 74 t b f f b;
#X msg 231 178 read lists/qlist-\$1.txt;
#X msg 201 156 write lists/qlist-\$1.txt;
#X obj 211 383 r \$0-kill;
#X obj 158 407 spigot 0;
#X obj 158 461 s \$0-2-qlist;
#X msg 158 433 rewind \, bang;
#N canvas 571 180 842 529 switch-control 0;
#X obj 53 -7 inlet;
#X msg 595 206 clear;
#X obj 595 228 s \$0-2-qlist;
#X obj 311 304 s \$0-2-qlist;
#X msg 261 219 bang;
#X obj 43 258 s \$0-2-qlist;
#X obj 479 279 s \$0-rec-switch;
#X msg 479 205 1;
#X obj 362 282 s \$0-rec-switch;
#X msg 362 249 0;
#X obj 65 338 s \$0-kill;
#X msg 65 288 0;
#X obj 412 259 s \$0-kill;
#X obj 261 197 t b b b b, f 22;
#X msg 412 233 1;
#X obj 537 252 s \$0-kill;
#X msg 537 226 0;
#X obj 43 210 t b b b, f 10;
#X obj 134 315 s \$0-rec-switch;
#X msg 134 292 0;
#X text 47 188 stop playback;
#X text 267 176 start playback;
#X text 498 166 record;
#X obj 479 183 t b b b, f 17;
#X obj 85 37 v \$0-v;
#X obj 53 15 t f f;
#X msg 311 222 rewind;
#X msg 43 234 rewind;
#X obj 53 58 sel 0 1 2 3, f 94;
#X text 534 92 record-ready simply stop playback;
#X connect 0 0 25 0;
#X connect 1 0 2 0;
#X connect 4 0 3 0;
#X connect 7 0 6 0;
#X connect 9 0 8 0;
#X connect 11 0 10 0;
#X connect 13 0 4 0;
#X connect 13 1 26 0;
#X connect 13 2 9 0;
#X connect 13 3 14 0;
#X connect 14 0 12 0;
#X connect 16 0 15 0;
#X connect 17 0 27 0;
#X connect 17 1 11 0;
#X connect 17 2 19 0;
#X connect 19 0 18 0;
#X connect 23 0 7 0;
#X connect 23 1 16 0;
#X connect 23 2 1 0;
#X connect 25 0 28 0;
#X connect 25 1 24 0;
#X connect 26 0 3 0;
#X connect 27 0 5 0;
#X connect 28 0 17 0;
#X connect 28 1 13 0;
#X connect 28 2 23 0;
#X connect 28 3 17 0;
#X restore 15 143 pd switch-control;
#X obj 630 73 loadbang;
#X obj 201 130 f;
#X obj 974 538 list prepend add;
#X obj 974 602 route list;
#X obj 974 514 timer;
#X obj 974 582 list append, f 22;
#X obj 974 633 s \$0-2-qlist;
#X obj 974 454 spigot 0;
#X obj 1027 374 r \$0-rec-switch;
#X obj 1027 396 t f f;
#X obj 1059 421 sel 1, f 9;
#X obj 1059 443 t b b;
#X obj 647 222 loadbang;
#X obj 647 266 sel 1;
#X msg 647 288 1;
#X msg 679 288 0;
#X obj 594 318 spigot 0;
#X obj 594 197 r knob1;
#X obj 594 340 list prepend 1;
#X obj 777 222 loadbang;
#X obj 777 266 sel 1;
#X msg 777 288 1;
#X msg 809 288 0;
#X obj 724 318 spigot 0;
#X obj 724 340 list prepend 2;
#X obj 724 197 r knob2;
#X obj 897 222 loadbang;
#X obj 897 266 sel 1;
#X msg 897 288 1;
#X msg 929 288 0;
#X obj 844 318 spigot 0;
#X obj 1027 225 loadbang;
#X obj 1027 269 sel 1;
#X msg 1027 291 1;
#X msg 1059 291 0;
#X obj 974 318 spigot 0;
#X obj 844 340 list prepend 3;
#X obj 974 340 list prepend 4;
#X obj 844 197 r knob3;
#X obj 974 197 r knob4;
#X obj 974 485 t b b a, f 10;
#X obj 135 647 route 1 2 3 4, f 53;
#X obj 560 150 s \$0-2-qlist;
#X obj 560 71 inlet;
#X msg 560 129 tempo \$1;
#X msg 630 95 1;
#X obj 974 559 list append \$1-seqq1;
#X obj 647 244 \$2;
#X obj 777 244 \$3;
#X obj 898 244 \$4;
#X obj 1027 247 \$5;
#X obj 135 625 r \$1-seqq1;
#X msg 1119 535 0;
#X obj 1119 470 b;
#X obj 1119 493 spigot 0;
#X msg 1172 468 1;
#X obj 1119 515 t b b;
#X msg 1151 535 0, f 5;
#X obj 843 512 s \$0-bang-rec, f 26;
#X connect 0 0 17 0;
#X connect 1 1 14 0;
#X connect 2 0 1 0;
#X connect 8 0 10 0;
#X connect 9 0 11 0;
#X connect 10 0 9 0;
#X connect 10 1 19 1;
#X connect 10 2 9 1;
#X connect 10 3 19 0;
#X connect 11 0 7 0;
#X connect 12 0 7 0;
#X connect 13 0 14 1;
#X connect 14 0 16 0;
#X connect 16 0 15 0;
#X connect 18 0 63 0;
#X connect 19 0 12 0;
#X connect 20 0 64 0;
#X connect 21 0 24 0;
#X connect 22 0 20 0;
#X connect 23 0 21 0;
#X connect 25 0 58 0;
#X connect 26 0 27 0;
#X connect 27 0 25 1;
#X connect 27 1 28 0;
#X connect 28 0 29 0;
#X connect 28 1 71 0;
#X connect 29 0 73 0;
#X connect 29 1 22 0;
#X connect 30 0 65 0;
#X connect 31 0 32 0;
#X connect 31 1 33 0;
#X connect 32 0 34 1;
#X connect 33 0 34 1;
#X connect 34 0 36 0;
#X connect 35 0 34 0;
#X connect 36 0 25 0;
#X connect 36 0 76 0;
#X connect 37 0 66 0;
#X connect 38 0 39 0;
#X connect 38 1 40 0;
#X connect 39 0 41 1;
#X connect 40 0 41 1;
#X connect 41 0 42 0;
#X connect 42 0 25 0;
#X connect 42 0 76 0;
#X connect 43 0 41 0;
#X connect 44 0 67 0;
#X connect 45 0 46 0;
#X connect 45 1 47 0;
#X connect 46 0 48 1;
#X connect 47 0 48 1;
#X connect 48 0 54 0;
#X connect 49 0 68 0;
#X connect 50 0 51 0;
#X connect 50 1 52 0;
#X connect 51 0 53 1;
#X connect 52 0 53 1;
#X connect 53 0 55 0;
#X connect 54 0 25 0;
#X connect 54 0 76 0;
#X connect 55 0 25 0;
#X connect 55 0 76 0;
#X connect 56 0 48 0;
#X connect 57 0 53 0;
#X connect 58 0 22 0;
#X connect 58 1 22 1;
#X connect 58 2 23 1;
#X connect 59 0 3 0;
#X connect 59 1 4 0;
#X connect 59 2 5 0;
#X connect 59 3 6 0;
#X connect 61 0 62 0;
#X connect 62 0 60 0;
#X connect 63 0 62 0;
#X connect 64 0 23 0;
#X connect 65 0 31 0;
#X connect 66 0 38 0;
#X connect 67 0 45 0;
#X connect 68 0 50 0;
#X connect 69 0 59 0;
#X connect 70 0 58 0;
#X connect 71 0 72 0;
#X connect 72 0 74 0;
#X connect 73 0 72 1;
#X connect 74 0 70 0;
#X connect 74 1 75 0;
#X connect 75 0 72 1;
#X restore 455 378 pd record the knobs;
#X text 119 15 arg2: record knob1 (1=yes 0=no);
#X text 119 36 arg3: record knob2 (1=yes 0=no);
#X text 119 55 arg4: record knob3 (1=yes 0=no);
#X text 119 75 arg5: record knob4 (1=yes 0=no);
#X text 119 -5 arg1: instance name;
#X obj 369 167 loadbang;
#X obj 328 230 list prepend set;
#X obj 328 252 route list;
#X msg 328 275 9;
#X msg 709 410 0;
#X msg 739 410 3;
#X msg 770 411 1;
#X obj 424 523 symbol Recording:;
#X obj 405 548 symbol Playing:;
#X obj 387 574 symbol Stopped:;
#X obj 328 206 f;
#X obj 328 127 r saveState;
#X obj 709 388 sel 0 1 2 3, f 18;
#X msg 806 410 6;
#X obj 387 463 sel 0 1 2 3;
#X obj 442 494 symbol Rec-Ready:;
#N canvas 455 227 773 567 key-logic 0;
#X obj 584 332 change -1;
#X obj 452 354 tgl 15 0 empty empty empty 17 7 0 10 -262144 -1 -1 0
1;
#X obj 282 101 unpack 0 0;
#X obj 364 278 f;
#X obj 364 225 sel 1;
#X obj 364 202 t f f, f 9;
#X msg 381 175 1;
#X msg 349 176 0;
#X obj 364 250 del 500;
#X obj 381 150 b;
#X obj 349 124 sel 0;
#X obj 267 379 r \$0-bang-rec;
#X obj 364 304 sel 1 0;
#X msg 364 348 3;
#X obj 267 443 t b b;
#X msg 299 470 0;
#X msg 404 348 1;
#X obj 267 421 spigot 0, f 13;
#X msg 267 470 2;
#X obj 282 52 inlet notes;
#X obj 452 404 f;
#X obj 452 426 outlet state;
#X obj 582 426 outlet note;
#X obj 447 121 unpack 0 0;
#X obj 282 75 t a a, f 24;
#X obj 514 146 sel 0;
#X obj 475 210 f;
#X obj 546 196 del 500;
#X msg 546 218 0;
#X msg 605 196 1;
#X obj 546 172 t b b b, f 12;
#X msg 637 196 stop;
#X obj 475 272 spigot;
#X obj 475 294 t f f f;
#X obj 479 321 sel;
#X obj 364 326 t b b b;
#X obj 487 372 f;
#X obj 586 376 t f b;
#X msg 619 404 1;
#X connect 0 0 37 0;
#X connect 1 0 20 0;
#X connect 2 0 36 1;
#X connect 2 1 10 0;
#X connect 3 0 12 0;
#X connect 4 0 8 0;
#X connect 5 0 4 0;
#X connect 5 1 3 1;
#X connect 6 0 5 0;
#X connect 7 0 5 0;
#X connect 8 0 3 0;
#X connect 9 0 6 0;
#X connect 10 0 7 0;
#X connect 10 1 9 0;
#X connect 11 0 17 0;
#X connect 12 0 35 0;
#X connect 13 0 20 0;
#X connect 14 0 18 0;
#X connect 14 1 15 0;
#X connect 15 0 17 1;
#X connect 16 0 17 1;
#X connect 17 0 14 0;
#X connect 18 0 20 0;
#X connect 19 0 24 0;
#X connect 20 0 21 0;
#X connect 23 0 26 1;
#X connect 23 1 25 0;
#X connect 24 0 2 0;
#X connect 24 1 23 0;
#X connect 25 0 26 0;
#X connect 25 1 30 0;
#X connect 26 0 32 0;
#X connect 27 0 28 0;
#X connect 28 0 32 1;
#X connect 29 0 32 1;
#X connect 30 0 27 0;
#X connect 30 1 29 0;
#X connect 30 2 31 0;
#X connect 31 0 27 0;
#X connect 32 0 33 0;
#X connect 33 0 34 1;
#X connect 33 1 34 0;
#X connect 33 2 0 0;
#X connect 34 0 1 0;
#X connect 35 0 13 0;
#X connect 35 1 16 0;
#X connect 35 2 36 0;
#X connect 36 0 37 0;
#X connect 37 0 22 0;
#X connect 37 1 38 0;
#X connect 38 0 1 0;
#X restore 455 94 pd key-logic;
#X obj 455 65 inlet notes;
#X obj 894 350 b;
#X obj 894 372 outlet bang change;
#X msg 390 201 0;
#X connect 1 0 6 0;
#X connect 3 0 4 0;
#X connect 5 0 3 0;
#X connect 5 1 3 1;
#X connect 6 0 5 0;
#X connect 6 0 13 1;
#X connect 6 0 29 1;
#X connect 6 0 37 0;
#X connect 7 0 13 2;
#X connect 12 0 13 0;
#X connect 12 0 31 0;
#X connect 12 0 33 0;
#X connect 13 0 8 0;
#X connect 13 1 9 0;
#X connect 13 2 10 0;
#X connect 13 3 11 0;
#X connect 19 0 22 0;
#X connect 19 0 39 0;
#X connect 20 0 21 0;
#X connect 21 0 22 0;
#X connect 22 0 13 1;
#X connect 22 0 5 0;
#X connect 26 0 3 0;
#X connect 27 0 3 0;
#X connect 28 0 3 0;
#X connect 29 0 20 0;
#X connect 30 0 29 0;
#X connect 31 0 23 0;
#X connect 31 1 24 0;
#X connect 31 2 25 0;
#X connect 31 3 32 0;
#X connect 33 0 28 0;
#X connect 33 1 27 0;
#X connect 33 2 26 0;
#X connect 33 3 34 0;
#X connect 34 0 3 0;
#X connect 35 0 12 0;
#X connect 35 1 1 0;
#X connect 36 0 35 0;
#X connect 37 0 38 0;
#X connect 39 0 12 0;
