#N canvas 320 82 1222 805 10;
#X obj 104 269 envelope-follower 1;
#X obj 104 309 throw~ outL;
#X obj 233 307 throw~ outR;
#X obj 96 411 r knob1;
#X obj 527 410 r knob4;
#X obj 366 411 r knob3;
#X obj 226 411 r knob2;
#X obj 96 433 s env-1-knob1;
#X obj 226 438 s env-1-knob2;
#X obj 366 433 s env-1-knob3;
#X obj 527 434 s env-1-knob4;
#X obj 100 552 s screenLine1;
#X obj 260 552 s screenLine2;
#X obj 420 552 s screenLine3;
#X obj 580 552 s screenLine4;
#X obj 329 202 r notes;
#X obj 100 480 r env-1-knob1-label;
#X obj 260 480 r env-1-knob2-label;
#X obj 420 480 r env-1-knob3-label;
#X obj 580 480 r env-1-knob4-label;
#X obj 105 242 r~ inL;
#X obj 234 172 r aux;
#X obj 329 260 s led;
#X obj 276 172 r fs;
#X obj 234 232 seq2-release 1;
#X msg 151 375 1;
#X obj 161 242 r~ inR;
#X connect 0 0 1 0;
#X connect 0 1 2 0;
#X connect 3 0 7 0;
#X connect 4 0 10 0;
#X connect 5 0 9 0;
#X connect 6 0 8 0;
#X connect 15 0 24 1;
#X connect 16 0 11 0;
#X connect 17 0 12 0;
#X connect 18 0 13 0;
#X connect 19 0 14 0;
#X connect 20 0 0 0;
#X connect 21 0 24 0;
#X connect 23 0 24 0;
#X connect 24 0 0 1;
#X connect 24 1 22 0;
#X connect 25 0 7 0;
#X connect 26 0 0 0;
