#N canvas 887 184 908 655 10;
#X obj 24 414 *~, f 7;
#X obj 129 292 osc~ 5;
#X obj 129 314 *~ 0.5;
#X obj 129 336 +~ 0.5;
#X obj 68 331 sig~ 1;
#X obj 69 386 -~, f 9;
#X text 234 363 depth;
#X obj 190 100 lop~ 5;
#X obj 374 473 i;
#X obj 536 468 i;
#X obj 536 445 * 100;
#X obj 689 468 i;
#X obj 689 444 * 100;
#X obj 27 449 hip~ 5;
#N canvas 16 50 526 600 switcher 0;
#X obj 113 261 t b b;
#X obj 113 295 delay 5;
#X obj 263 387 line~;
#X msg 176 296 0 4;
#X obj 133 476 *~;
#X msg 113 327 0;
#X obj 113 220 bang;
#X msg 406 229 1;
#X msg 359 193 1 4;
#X obj 352 143 t b b b;
#X obj 139 506 outlet~;
#X obj 371 507 outlet;
#X obj 112 48 inlet;
#X obj 353 50 inlet;
#X connect 0 0 1 0;
#X connect 0 1 3 0;
#X connect 1 0 5 0;
#X connect 2 0 4 0;
#X connect 2 0 4 1;
#X connect 3 0 2 0;
#X connect 4 0 10 0;
#X connect 5 0 11 0;
#X connect 6 0 0 0;
#X connect 7 0 11 0;
#X connect 8 0 2 0;
#X connect 9 1 8 0;
#X connect 9 2 7 0;
#X connect 12 0 6 0;
#X connect 13 0 9 0;
#X restore 109 583 pd switcher;
#X obj 109 554 sel 0 1;
#X obj 183 607 switch~ 64 1 1;
#X obj 28 618 *~;
#X msg 109 486 1;
#X obj 148 488 b;
#X msg 148 510 0;
#X obj 28 647 throw~ env-\$1-bus;
#X obj 109 434 r env-\$1-selector;
#X obj 42 38 r~ env-\$1-envelope;
#X obj 27 99 r~ env-\$1-signal;
#X obj 109 464 sel \$2;
#X obj 374 516 s env-\$1-knob2-label;
#X obj 536 513 s env-\$1-knob3-label;
#X obj 689 512 s env-\$1-knob4-label;
#X obj 190 -16 route \$2;
#X obj 376 -24 route \$2;
#X obj 627 -18 route \$2;
#X obj 109 532 change -1;
#X obj 190 -38 r env-\$1-knob2-local;
#X obj 407 -54 r env-\$1-knob3-local;
#X obj 627 -64 r env-\$1-knob4-local;
#X obj 190 6 f;
#X obj 377 5 f;
#X obj 627 5 f;
#X obj 272 -133 r env-\$1-selector;
#X obj 272 -103 sel \$2;
#X obj 272 -81 t b b b;
#N canvas 685 290 450 300 save-state 0;
#X msg 128 168 0.488759;
#X obj 128 122 list prepend set;
#X obj 128 144 route list;
#X obj 208 143 loadbang;
#X obj 128 99 f;
#X obj 128 76 r saveState;
#X obj 146 22 inlet;
#X obj 128 190 outlet;
#X connect 0 0 7 0;
#X connect 1 0 2 0;
#X connect 2 0 0 0;
#X connect 3 0 0 0;
#X connect 4 0 1 0;
#X connect 5 0 4 0;
#X connect 6 0 4 1;
#X restore 661 5 pd save-state;
#N canvas 685 290 450 300 save-state 0;
#X msg 128 168 0.99609;
#X obj 128 122 list prepend set;
#X obj 128 144 route list;
#X obj 208 143 loadbang;
#X obj 128 99 f;
#X obj 128 76 r saveState;
#X obj 146 22 inlet;
#X obj 128 190 outlet;
#X connect 0 0 7 0;
#X connect 1 0 2 0;
#X connect 2 0 0 0;
#X connect 3 0 0 0;
#X connect 4 0 1 0;
#X connect 5 0 4 0;
#X connect 6 0 4 1;
#X restore 413 5 pd save-state;
#N canvas 685 290 450 300 save-state 0;
#X msg 128 168 0.29912;
#X obj 128 122 list prepend set;
#X obj 128 144 route list;
#X obj 208 143 loadbang;
#X obj 128 99 f;
#X obj 128 76 r saveState;
#X obj 146 22 inlet;
#X obj 128 190 outlet;
#X connect 0 0 7 0;
#X connect 1 0 2 0;
#X connect 2 0 0 0;
#X connect 3 0 0 0;
#X connect 4 0 1 0;
#X connect 5 0 4 0;
#X connect 6 0 4 1;
#X restore 224 8 pd save-state;
#X obj 129 358 *~, f 14;
#X obj 224 325 *~;
#X obj 129 264 *~;
#X obj 342 99 lop~ 5;
#X obj 96 193 *~;
#X obj 190 28 * 80;
#X msg 374 494 2: Freq: \$1 hz;
#X msg 536 489 3: Depth: \$1 %;
#X msg 689 489 4: X;
#X obj 96 215 *~;
#X connect 0 0 13 0;
#X connect 1 0 2 0;
#X connect 2 0 3 0;
#X connect 3 0 45 0;
#X connect 4 0 5 0;
#X connect 5 0 0 1;
#X connect 7 0 47 1;
#X connect 8 0 51 0;
#X connect 9 0 52 0;
#X connect 10 0 9 0;
#X connect 11 0 53 0;
#X connect 12 0 11 0;
#X connect 13 0 17 0;
#X connect 14 0 17 1;
#X connect 14 1 16 0;
#X connect 15 0 14 0;
#X connect 15 1 14 1;
#X connect 17 0 21 0;
#X connect 18 0 32 0;
#X connect 19 0 20 0;
#X connect 20 0 32 0;
#X connect 22 0 25 0;
#X connect 23 0 49 0;
#X connect 23 0 49 1;
#X connect 23 0 46 0;
#X connect 24 0 0 0;
#X connect 25 0 18 0;
#X connect 25 1 19 0;
#X connect 29 0 36 0;
#X connect 30 0 37 0;
#X connect 31 0 38 0;
#X connect 32 0 15 0;
#X connect 33 0 29 0;
#X connect 34 0 30 0;
#X connect 35 0 31 0;
#X connect 36 0 44 0;
#X connect 36 0 50 0;
#X connect 37 0 10 0;
#X connect 37 0 43 0;
#X connect 37 0 48 0;
#X connect 38 0 12 0;
#X connect 38 0 42 0;
#X connect 39 0 40 0;
#X connect 40 0 41 0;
#X connect 41 0 36 0;
#X connect 41 1 37 0;
#X connect 41 2 38 0;
#X connect 42 0 38 1;
#X connect 43 0 37 1;
#X connect 44 0 36 1;
#X connect 45 0 5 1;
#X connect 46 0 45 1;
#X connect 47 0 1 0;
#X connect 48 0 46 1;
#X connect 49 0 54 0;
#X connect 49 0 54 1;
#X connect 50 0 7 0;
#X connect 50 0 8 0;
#X connect 51 0 26 0;
#X connect 52 0 27 0;
#X connect 53 0 28 0;
#X connect 54 0 47 0;
