#N canvas 408 50 1137 881 10;
#X declare -path CG-Pd-Library-Local/sequencer;
#X declare -path CG-Pd-Library-Local/externals;
#X declare -path CG-Pd-Library-Local/metronome;
#X declare -path /sdcard/CG-Pd-Library/sequencer;
#X declare -path /sdcard/CG-Pd-Library/externals;
#X declare -path /sdcard/CG-Pd-Library/metronome;
#X obj 214 416 throw~ outL;
#X obj 225 393 throw~ outR;
#X obj 57 238 pack 0 0 0, f 11;
#X obj 393 602 sig~;
#X obj 393 624 lop~ 5;
#X obj 557 598 sig~;
#X obj 557 620 lop~ 5;
#X obj 867 530 r knob4;
#X obj 394 646 s~ smoothKnob2;
#X obj 557 642 s~ smoothKnob3;
#X obj 667 635 * 100;
#X obj 340 756 s screenLine2;
#X obj 667 762 s screenLine3;
#X obj 867 764 s screenLine4;
#X msg 340 730 2: Vibrato Rate \$1 Hz;
#X msg 867 737 4: Decay Time \$1 ms;
#X obj 340 636 * 50;
#X obj 867 611 + 5;
#X text 449 416 smooth knobs 1-3 \, send param updates to screen;
#X text 24 19 basic polyphonic patch with 8 voices;
#X text 406 242 aircraft carrier;
#X obj 340 570 t f f;
#X obj 340 592 *;
#X obj 76 700 send~ f;
#X obj 76 640 sig~;
#X obj 75 671 lop~ 5;
#X obj 76 569 / 100;
#X obj 76 591 mtof;
#X obj 76 613 / 8.1785;
#X obj 76 524 * 2400;
#X obj 76 469 r knob1;
#X msg 35 748 1: Tune \$1 cents;
#X obj 35 772 s screenLine1;
#X obj 35 647 i;
#X obj 215 359 *~ 0.95;
#X obj 340 674 i;
#X obj 667 663 i;
#X obj 867 666 i;
#X obj 878 553 r seq3-1-k4;
#X obj 570 495 r seq3-1-k3;
#X obj 414 455 r seq3-1-k2;
#X obj 98 495 r seq3-1-k1;
#X obj 393 428 r knob2;
#X obj 393 498 f;
#X obj 557 473 r knob3;
#X obj 557 541 f;
#X msg 667 736 3: Vibrato Dpth \$1%;
#X obj 57 58 r aux;
#N canvas 8 50 1068 759 wave 0;
#X obj 702 241 t b a;
#X obj 752 241 t b a;
#X obj 801 239 t b a;
#X obj 468 261 r saveState;
#X obj 344 184 loadbang;
#X obj 344 206 t b b, f 14;
#X obj 344 402 i;
#X obj 376 402 i;
#X obj 409 401 i;
#X obj 441 400 i;
#X obj 439 311 text define lol;
#X obj 702 376 text set lol;
#X obj 702 325 t a b;
#X msg 734 347 0;
#X obj 344 275 text get lol;
#X msg 344 250 0;
#X obj 344 228 del 10;
#X obj 702 299 pack 0 0 0 0 0;
#X obj 863 251 t b a;
#X obj 344 338 unpack 0 0 0 0 0, f 19;
#X obj 474 379 i;
#X obj 660 137 r local-sine;
#X obj 702 166 r local-sqr;
#X obj 752 185 r local-saw;
#X obj 801 208 r local-tri;
#X obj 863 229 r local-mswitch;
#X obj 344 490 s local-start-sine;
#X obj 376 467 s local-start-sqr;
#X obj 409 442 s local-start-saw;
#X obj 441 422 s local-start-tri;
#X obj 474 401 s local-start-switch;
#X msg 468 283 write /tmp/patch/waves.txt;
#X msg 439 235 read /tmp/patch/waves.txt;
#N canvas 284 217 863 725 sine 0;
#X obj 32 68 sel 0;
#X obj 145 344 r \$0-print!;
#X obj 145 366 t b;
#X obj 145 397 f 0;
#X obj 26 310 f;
#X obj 60 310 + 1;
#X obj 26 336 % 2;
#X obj 26 358 t f f;
#X obj 145 449 sel 1 0;
#X obj 26 380 i;
#X obj 149 119 ==;
#X obj 96 162 spigot 0;
#X obj 26 162 spigot 1;
#X obj 64 95 t b b;
#X obj 96 184 t b b, f 6;
#X msg 96 230 1;
#X msg 375 223 0;
#X obj 32 35 r cgSc-1-6;
#X msg 145 485 Sine:On;
#X msg 208 485 Sine:Off;
#X obj 145 527 s cgSc-1-6label;
#X obj 149 86 r local-mswitch;
#X obj 26 406 s local-sine;
#X obj 298 176 r local-start-sine;
#X obj 375 201 r waves-off;
#X obj 135 211 s waves-off;
#X connect 0 1 13 0;
#X connect 1 0 2 0;
#X connect 2 0 3 0;
#X connect 3 0 8 0;
#X connect 4 0 5 0;
#X connect 4 0 6 0;
#X connect 5 0 4 1;
#X connect 6 0 7 0;
#X connect 7 0 9 0;
#X connect 7 1 3 0;
#X connect 8 0 18 0;
#X connect 8 1 19 0;
#X connect 9 0 22 0;
#X connect 10 0 11 1;
#X connect 11 0 14 0;
#X connect 12 0 4 0;
#X connect 13 0 12 0;
#X connect 13 1 11 0;
#X connect 14 0 15 0;
#X connect 14 1 25 0;
#X connect 15 0 4 0;
#X connect 16 0 4 0;
#X connect 17 0 0 0;
#X connect 18 0 20 0;
#X connect 19 0 20 0;
#X connect 21 0 10 0;
#X connect 21 0 12 1;
#X connect 23 0 4 0;
#X connect 24 0 16 0;
#X restore 350 649 pd sine;
#N canvas 637 220 1021 634 switch 0;
#X obj 70 51 sel 0;
#X obj 221 327 r \$0-print!;
#X obj 221 349 t b;
#X obj 221 380 f 0;
#X obj 102 293 f;
#X obj 136 293 + 1;
#X obj 102 319 % 2;
#X obj 102 341 t f f;
#X obj 221 432 sel 1 0;
#X obj 102 363 i;
#X obj 137 173 r local-start-switch;
#X obj 102 77 t b;
#X obj 102 388 s local-mswitch;
#X msg 221 468 Uni:On;
#X msg 283 470 Uni:Off;
#X obj 221 510 s cgSc-1-10label;
#X obj 70 18 r cgSc-1-10;
#X connect 0 1 11 0;
#X connect 1 0 2 0;
#X connect 2 0 3 0;
#X connect 3 0 8 0;
#X connect 4 0 5 0;
#X connect 4 0 6 0;
#X connect 5 0 4 1;
#X connect 6 0 7 0;
#X connect 7 0 9 0;
#X connect 7 1 3 0;
#X connect 8 0 13 0;
#X connect 8 1 14 0;
#X connect 9 0 12 0;
#X connect 10 0 4 0;
#X connect 11 0 4 0;
#X connect 13 0 15 0;
#X connect 14 0 15 0;
#X connect 16 0 0 0;
#X restore 596 649 pd switch;
#N canvas 739 220 863 725 sqr 0;
#X obj 32 68 sel 0;
#X obj 145 344 r \$0-print!;
#X obj 145 366 t b;
#X obj 145 397 f 0;
#X obj 26 310 f;
#X obj 60 310 + 1;
#X obj 26 336 % 2;
#X obj 26 358 t f f;
#X obj 145 449 sel 1 0;
#X obj 26 380 i;
#X obj 149 119 ==;
#X obj 96 162 spigot 0;
#X obj 26 162 spigot 1;
#X obj 64 95 t b b;
#X obj 96 184 t b b, f 6;
#X msg 96 230 1;
#X msg 375 223 0;
#X obj 149 86 r local-mswitch;
#X obj 32 35 r cgSc-1-7;
#X obj 297 176 r local-start-sqr;
#X obj 27 406 s local-sqr;
#X msg 145 485 Sqr:On;
#X msg 207 487 Sqr:Off;
#X obj 145 527 s cgSc-1-7label;
#X obj 135 211 s waves-off;
#X obj 375 201 r waves-off;
#X connect 0 1 13 0;
#X connect 1 0 2 0;
#X connect 2 0 3 0;
#X connect 3 0 8 0;
#X connect 4 0 5 0;
#X connect 4 0 6 0;
#X connect 5 0 4 1;
#X connect 6 0 7 0;
#X connect 7 0 9 0;
#X connect 7 1 3 0;
#X connect 8 0 21 0;
#X connect 8 1 22 0;
#X connect 9 0 20 0;
#X connect 10 0 11 1;
#X connect 11 0 14 0;
#X connect 12 0 4 0;
#X connect 13 0 12 0;
#X connect 13 1 11 0;
#X connect 14 0 15 0;
#X connect 14 1 24 0;
#X connect 15 0 4 0;
#X connect 16 0 4 0;
#X connect 17 0 10 0;
#X connect 17 0 12 1;
#X connect 18 0 0 0;
#X connect 19 0 4 0;
#X connect 21 0 23 0;
#X connect 22 0 23 0;
#X connect 25 0 16 0;
#X restore 409 647 pd sqr;
#N canvas 582 235 863 730 saw 0;
#X obj 32 68 sel 0;
#X obj 145 344 r \$0-print!;
#X obj 145 366 t b;
#X obj 145 397 f 0;
#X obj 26 310 f;
#X obj 60 310 + 1;
#X obj 26 336 % 2;
#X obj 26 358 t f f;
#X obj 145 449 sel 1 0;
#X obj 26 380 i;
#X obj 149 119 ==;
#X obj 96 162 spigot 0;
#X obj 26 162 spigot 1;
#X obj 64 95 t b b;
#X obj 96 184 t b b, f 6;
#X msg 96 230 1;
#X msg 375 223 0;
#X obj 149 86 r local-mswitch;
#X obj 32 35 r cgSc-1-8;
#X obj 145 527 s cgSc-1-8label;
#X msg 145 485 Saw:On;
#X msg 208 485 Saw:Off;
#X obj 26 406 s local-saw;
#X obj 298 176 r local-start-saw;
#X obj 137 211 s waves-off;
#X obj 375 201 r waves-off;
#X connect 0 1 13 0;
#X connect 1 0 2 0;
#X connect 2 0 3 0;
#X connect 3 0 8 0;
#X connect 4 0 5 0;
#X connect 4 0 6 0;
#X connect 5 0 4 1;
#X connect 6 0 7 0;
#X connect 7 0 9 0;
#X connect 7 1 3 0;
#X connect 8 0 20 0;
#X connect 8 1 21 0;
#X connect 9 0 22 0;
#X connect 10 0 11 1;
#X connect 11 0 14 0;
#X connect 12 0 4 0;
#X connect 13 0 12 0;
#X connect 13 1 11 0;
#X connect 14 0 15 0;
#X connect 14 1 24 0;
#X connect 15 0 4 0;
#X connect 16 0 4 0;
#X connect 17 0 10 0;
#X connect 17 0 12 1;
#X connect 18 0 0 0;
#X connect 20 0 19 0;
#X connect 21 0 19 0;
#X connect 23 0 4 0;
#X connect 25 0 16 0;
#X restore 463 647 pd saw;
#N canvas 584 234 863 725 tri 0;
#X obj 32 68 sel 0;
#X obj 145 344 r \$0-print!;
#X obj 145 366 t b;
#X obj 145 397 f 0;
#X obj 26 310 f;
#X obj 60 310 + 1;
#X obj 26 336 % 2;
#X obj 26 358 t f f;
#X obj 145 449 sel 1 0;
#X obj 26 380 i;
#X obj 149 119 ==;
#X obj 96 162 spigot 0;
#X obj 26 162 spigot 1;
#X obj 64 95 t b b;
#X obj 96 184 t b b, f 6;
#X msg 96 230 1;
#X msg 375 223 0;
#X obj 149 86 r local-mswitch;
#X obj 145 527 s cgSc-1-9label;
#X obj 32 35 r cgSc-1-9;
#X obj 134 210 s waves-off;
#X obj 375 201 r waves-off;
#X obj 26 405 s local-tri;
#X msg 145 485 Tri:On;
#X msg 207 487 Tri:Off;
#X obj 297 176 r local-start-tri;
#X connect 0 1 13 0;
#X connect 1 0 2 0;
#X connect 2 0 3 0;
#X connect 3 0 8 0;
#X connect 4 0 5 0;
#X connect 4 0 6 0;
#X connect 5 0 4 1;
#X connect 6 0 7 0;
#X connect 7 0 9 0;
#X connect 7 1 3 0;
#X connect 8 0 23 0;
#X connect 8 1 24 0;
#X connect 9 0 22 0;
#X connect 10 0 11 1;
#X connect 11 0 14 0;
#X connect 12 0 4 0;
#X connect 13 0 12 0;
#X connect 13 1 11 0;
#X connect 14 0 15 0;
#X connect 14 1 20 0;
#X connect 15 0 4 0;
#X connect 16 0 4 0;
#X connect 17 0 10 0;
#X connect 17 0 12 1;
#X connect 19 0 0 0;
#X connect 21 0 16 0;
#X connect 23 0 18 0;
#X connect 24 0 18 0;
#X connect 25 0 4 0;
#X restore 522 646 pd tri;
#X connect 0 0 17 0;
#X connect 0 1 17 1;
#X connect 1 0 17 0;
#X connect 1 1 17 2;
#X connect 2 0 17 0;
#X connect 2 1 17 3;
#X connect 3 0 31 0;
#X connect 4 0 5 0;
#X connect 5 0 16 0;
#X connect 5 1 32 0;
#X connect 6 0 26 0;
#X connect 7 0 27 0;
#X connect 8 0 28 0;
#X connect 9 0 29 0;
#X connect 12 0 11 0;
#X connect 12 1 13 0;
#X connect 13 0 11 1;
#X connect 14 0 19 0;
#X connect 15 0 14 0;
#X connect 16 0 15 0;
#X connect 17 0 12 0;
#X connect 18 0 17 0;
#X connect 18 1 17 4;
#X connect 19 0 6 0;
#X connect 19 1 7 0;
#X connect 19 2 8 0;
#X connect 19 3 9 0;
#X connect 19 4 20 0;
#X connect 20 0 30 0;
#X connect 21 0 17 0;
#X connect 22 0 0 0;
#X connect 23 0 1 0;
#X connect 24 0 2 0;
#X connect 25 0 18 0;
#X connect 31 0 10 0;
#X connect 32 0 10 0;
#X restore 720 156 pd wave selection;
#X obj 720 193 r seq3-1-led;
#X obj 720 215 s led;
#X obj 902 665 s decay-local;
#X obj 198 291 voice;
#X obj 550 292 voice;
#X obj 409 293 voice;
#X obj 480 291 voice;
#X obj 57 290 voice;
#X obj 268 291 voice;
#X obj 339 292 voice;
#X obj 127 291 voice;
#X obj 237 134 r cgSc-1-slots;
#X obj 194 40 r \$0-reprint-port;
#X obj 57 264 route 1 2 3 4 5 6 7 8, f 81;
#X obj 57 211 poly 8 1, f 11;
#N canvas 13 50 450 300 CG-PdLibrary-Local 0;
#X obj 502 35 r cgSc-1-slots;
#X obj 60 98 declare -path CG-Pd-Library-Local/sequencer;
#X obj 58 130 declare -path CG-Pd-Library-Local/externals;
#X obj 59 165 declare -path CG-Pd-Library-Local/metronome;
#X restore 718 58 pd CG-PdLibrary-Local;
#N canvas 12 50 450 300 CG-PdLibrary-SDcard 0;
#X obj 60 98 declare -path /sdcard/CG-Pd-Library/sequencer;
#X obj 58 130 declare -path /sdcard/CG-Pd-Library/externals;
#X obj 59 165 declare -path /sdcard/CG-Pd-Library/metronome;
#X obj 502 35 r cgSc-1-slots;
#X restore 717 87 pd CG-PdLibrary-SDcard;
#X obj 667 704 shortcut-mute-f 1;
#X obj 867 704 shortcut-mute-f 1;
#X obj 340 699 shortcut-mute-f 1;
#X obj 35 721 shortcut-mute-f 1;
#X obj 327 158 r beat-clock;
#X obj 57 89 shortcut 1 1, f 20;
#N canvas 787 330 860 595 slot-saver-1 0;
#X obj 167 38 r cgSc-1-slots;
#X obj 30 68 loadbang;
#X msg 30 140 0;
#X obj 30 161 tabread \$0-slot;
#X obj 199 225 array define \$0-slot;
#X obj 30 110 t b b;
#X msg 199 138 read slot.txt;
#X msg 243 186 write slot.txt;
#X obj 243 160 r saveState;
#X obj 167 58 t a b;
#X msg 220 84 0;
#X obj 167 107 tabwrite \$0-slot;
#X obj 30 185 s cgSc-1-slots;
#X connect 0 0 9 0;
#X connect 1 0 5 0;
#X connect 2 0 3 0;
#X connect 3 0 12 0;
#X connect 5 0 2 0;
#X connect 5 1 6 0;
#X connect 6 0 4 0;
#X connect 7 0 4 0;
#X connect 8 0 7 0;
#X connect 9 0 11 0;
#X connect 9 1 10 0;
#X connect 10 0 11 1;
#X restore 655 329 pd slot-saver-1;
#N canvas 19 51 1057 799 metro-here 0;
#X obj 622 370 r seq3-1-actions;
#X obj 565 548 f;
#X msg 660 453 0;
#X obj 692 453 t b b;
#X msg 698 483 1;
#X obj 660 425 sel 1;
#X obj 565 495 del 1;
#X obj 307 506 s beat-clock;
#X obj 429 286 loadbang;
#X obj 517 376 r rec-state;
#X obj 517 398 sel 0;
#X msg 306 324 1;
#X obj 456 556 list, f 7;
#X obj 456 578 route 69;
#X obj 456 484 t b a;
#X msg 456 526 69;
#X msg 429 308 120;
#X obj 430 424 pack, f 10;
#X obj 465 392 t b a;
#X obj 307 354 metronome360 0, f 18;
#X obj 572 340 s seq3-1-quan;
#X obj 653 541 f;
#X obj 456 600 spigot 1;
#X obj 565 570 spigot 1, f 14;
#X obj 549 675 r cgSc-1-slots;
#X obj 549 701 + 1;
#X obj 456 755 print-line5 1, f 16;
#X obj 572 311 r metro-state;
#X obj 739 549 loadbang;
#X obj 549 722 f;
#X obj 739 591 t b b;
#X obj 565 631 f;
#X obj 739 570 del 1;
#X obj 660 402 r cgSc-1-mute-print;
#X connect 0 0 1 0;
#X connect 1 0 23 0;
#X connect 2 0 21 0;
#X connect 3 0 6 0;
#X connect 3 1 4 0;
#X connect 4 0 21 0;
#X connect 5 0 2 0;
#X connect 5 1 3 0;
#X connect 6 0 1 0;
#X connect 6 0 15 0;
#X connect 8 0 16 0;
#X connect 8 0 11 0;
#X connect 9 0 10 0;
#X connect 10 0 1 0;
#X connect 10 0 15 0;
#X connect 11 0 19 0;
#X connect 12 0 13 0;
#X connect 13 0 22 0;
#X connect 14 0 15 0;
#X connect 14 1 12 1;
#X connect 15 0 12 0;
#X connect 16 0 19 1;
#X connect 17 0 14 0;
#X connect 18 0 17 0;
#X connect 18 1 17 1;
#X connect 19 0 7 0;
#X connect 19 1 18 0;
#X connect 19 2 17 0;
#X connect 21 0 22 1;
#X connect 21 0 23 1;
#X connect 22 0 26 0;
#X connect 23 0 31 0;
#X connect 24 0 25 0;
#X connect 25 0 29 0;
#X connect 27 0 20 0;
#X connect 28 0 32 0;
#X connect 29 0 26 2;
#X connect 30 0 31 0;
#X connect 30 1 29 0;
#X connect 31 0 26 1;
#X connect 32 0 30 0;
#X connect 33 0 5 0;
#X restore 655 305 pd metro-here;
#N canvas 594 50 1124 789 seq3-5option-control 0;
#X obj 139 278 outlet;
#X obj 65 121 t b;
#X msg 65 143 2;
#X obj 298 126 t b;
#X msg 298 148 3;
#X text 437 5 when aux is pressed after recording starts immediatley
end the rec and play the loop;
#X obj 170 70 sel 0;
#X obj 202 94 t b;
#X msg 202 116 1;
#X obj 33 66 r cgSc-1-2;
#X obj 171 48 r cgSc-1-1;
#X obj 33 88 sel 0;
#X obj 266 99 sel 0;
#X obj 317 272 r seq3-1-actions;
#X obj 317 294 sel 1, f 12;
#X obj 398 327 t b, f 4;
#X obj 317 445 s cgSc-1-1label;
#X obj 507 308 r seq3-1-actions;
#X obj 588 353 t b, f 4;
#X obj 507 329 sel 2 3, f 12;
#X obj 978 320 t b, f 4;
#X msg 978 355 Latch:Off;
#X msg 896 355 Latch:On;
#X obj 507 441 s cgSc-1-2label;
#X text 521 279 print to the shortcut menu;
#X obj 378 141 f 0;
#X obj 130 0 r midi-start;
#X msg 130 22 4;
#X obj 373 105 r midi-stop;
#X obj 507 125 t b;
#X obj 475 98 sel 0;
#X msg 507 147 5;
#X obj 192 487 r seq3-1-actions;
#X obj 273 532 t b, f 4;
#X obj 192 508 sel 5, f 12;
#X obj 317 373 f;
#X msg 317 403 \$1Seq:Stop;
#X obj 398 372 f;
#X msg 398 402 \$1Seq:Play;
#X msg 507 399 \$1Rec:Armd;
#X msg 588 397 \$1Rec:On;
#X msg 659 398 \$1Rec:Off;
#X obj 507 374 f;
#X obj 582 373 f;
#X obj 649 370 f;
#X obj 273 554 f;
#X obj 192 560 f;
#X msg 192 607 \$1Dub:On;
#X obj 201 286 r cgSc-1-slots;
#X obj 201 329 t b f f;
#X obj 166 439 s seq3-1-actions;
#X obj 166 415 v seq3-1-state;
#X obj 201 309 + 1;
#X obj 668 299 + 1;
#X obj 668 251 r cgSc-1-slots;
#X obj 321 507 + 1;
#X obj 321 483 r cgSc-1-slots;
#X obj 559 76 sel 1;
#X obj 612 80 r seq3-1-actions;
#X obj 559 174 t b b;
#X msg 640 152 0;
#X obj 559 152 spigot 0;
#X msg 612 129 1;
#X msg 559 196 1;
#X obj 192 650 s cgSc-1-3label;
#X obj 475 71 r cgSc-1-3;
#X obj 559 52 r cgSc-1-aux;
#X obj 896 398 s cgSc-1-5label;
#X obj 267 72 r cgSc-1-5;
#X obj 358 53 t b;
#X obj 326 26 sel 0;
#X obj 326 2 r cgSc-1-4;
#X msg 358 75 6;
#X obj 465 480 r seq3-1-actions;
#X obj 507 558 f;
#X obj 584 501 + 1;
#X obj 584 477 r cgSc-1-slots;
#X obj 465 643 s cgSc-1-4label;
#X obj 612 104 sel 3, f 12;
#X msg 273 607 \$1Dub:Off;
#X obj 465 501 sel 6, f 10;
#X obj 532 526 t b;
#X obj 465 585 spigot 1;
#X obj 552 582 spigot 0;
#X obj 675 510 r seq3-1-actions;
#X obj 675 532 sel 3;
#X obj 591 537 ==;
#X obj 637 564 f;
#X msg 637 533 1;
#X msg 708 615 0;
#X msg 552 607 \$1:Undo;
#X msg 465 610 \$1:Undid;
#X obj 465 523 t b b;
#X obj 31 189 loadbang;
#X msg 31 211 0;
#X obj 23 341 r init-1-slot;
#X obj 23 363 s cgSc-1-slots;
#X obj 896 255 r seq3-1-togLatch;
#X obj 896 296 sel 1, f 12;
#X connect 1 0 2 0;
#X connect 2 0 0 0;
#X connect 3 0 4 0;
#X connect 4 0 0 0;
#X connect 6 1 7 0;
#X connect 7 0 8 0;
#X connect 8 0 0 0;
#X connect 9 0 11 0;
#X connect 10 0 6 0;
#X connect 11 1 1 0;
#X connect 12 1 3 0;
#X connect 13 0 14 0;
#X connect 14 0 35 0;
#X connect 14 1 15 0;
#X connect 15 0 37 0;
#X connect 17 0 19 0;
#X connect 18 0 44 0;
#X connect 19 0 42 0;
#X connect 19 1 43 0;
#X connect 19 2 18 0;
#X connect 20 0 21 0;
#X connect 21 0 67 0;
#X connect 22 0 67 0;
#X connect 25 0 0 0;
#X connect 26 0 27 0;
#X connect 27 0 0 0;
#X connect 28 0 25 0;
#X connect 29 0 31 0;
#X connect 30 1 29 0;
#X connect 31 0 0 0;
#X connect 32 0 34 0;
#X connect 33 0 45 0;
#X connect 34 0 46 0;
#X connect 34 1 33 0;
#X connect 35 0 36 0;
#X connect 36 0 16 0;
#X connect 37 0 38 0;
#X connect 38 0 16 0;
#X connect 39 0 23 0;
#X connect 40 0 23 0;
#X connect 41 0 23 0;
#X connect 42 0 39 0;
#X connect 43 0 40 0;
#X connect 44 0 41 0;
#X connect 45 0 79 0;
#X connect 46 0 47 0;
#X connect 47 0 64 0;
#X connect 48 0 52 0;
#X connect 49 0 51 0;
#X connect 49 1 35 1;
#X connect 49 2 37 1;
#X connect 51 0 50 0;
#X connect 52 0 49 0;
#X connect 53 0 44 1;
#X connect 53 0 43 1;
#X connect 53 0 42 1;
#X connect 54 0 53 0;
#X connect 55 0 45 1;
#X connect 55 0 46 1;
#X connect 56 0 55 0;
#X connect 57 0 61 0;
#X connect 58 0 78 0;
#X connect 59 0 63 0;
#X connect 59 1 60 0;
#X connect 60 0 61 1;
#X connect 61 0 59 0;
#X connect 62 0 61 1;
#X connect 63 0 0 0;
#X connect 65 0 30 0;
#X connect 66 0 57 0;
#X connect 68 0 12 0;
#X connect 69 0 72 0;
#X connect 70 1 69 0;
#X connect 71 0 70 0;
#X connect 72 0 0 0;
#X connect 73 0 80 0;
#X connect 74 0 82 0;
#X connect 74 0 83 0;
#X connect 75 0 74 1;
#X connect 76 0 75 0;
#X connect 78 0 62 0;
#X connect 79 0 64 0;
#X connect 80 0 92 0;
#X connect 80 1 81 0;
#X connect 81 0 74 0;
#X connect 82 0 91 0;
#X connect 83 0 90 0;
#X connect 84 0 85 0;
#X connect 85 0 88 0;
#X connect 86 0 82 1;
#X connect 87 0 86 0;
#X connect 87 0 83 1;
#X connect 88 0 87 0;
#X connect 89 0 87 0;
#X connect 90 0 77 0;
#X connect 91 0 77 0;
#X connect 92 0 74 0;
#X connect 92 1 89 0;
#X connect 93 0 94 0;
#X connect 94 0 0 0;
#X connect 95 0 96 0;
#X connect 97 0 98 0;
#X connect 98 0 22 0;
#X connect 98 1 20 0;
#X restore 136 118 pd seq3-5option-control;
#X obj 867 589 * 1995;
#X obj 57 182 seq3 1 0 ../../sequences 1 0 1, f 39;
#X connect 2 0 62 0;
#X connect 3 0 4 0;
#X connect 4 0 8 0;
#X connect 5 0 6 0;
#X connect 6 0 9 0;
#X connect 7 0 75 0;
#X connect 10 0 36 0;
#X connect 14 0 11 0;
#X connect 15 0 13 0;
#X connect 16 0 35 0;
#X connect 17 0 37 0;
#X connect 17 0 51 0;
#X connect 21 0 22 0;
#X connect 21 1 22 1;
#X connect 22 0 16 0;
#X connect 24 0 25 0;
#X connect 25 0 23 0;
#X connect 26 0 27 0;
#X connect 27 0 28 0;
#X connect 28 0 24 0;
#X connect 29 0 26 0;
#X connect 29 0 33 0;
#X connect 30 0 29 0;
#X connect 31 0 32 0;
#X connect 33 0 69 0;
#X connect 34 0 0 0;
#X connect 34 0 1 0;
#X connect 35 0 68 0;
#X connect 36 0 66 0;
#X connect 37 0 67 0;
#X connect 38 0 75 0;
#X connect 39 0 45 0;
#X connect 40 0 43 0;
#X connect 41 0 29 0;
#X connect 42 0 43 0;
#X connect 43 0 3 0;
#X connect 43 0 21 0;
#X connect 44 0 45 0;
#X connect 45 0 5 0;
#X connect 45 0 10 0;
#X connect 46 0 12 0;
#X connect 47 0 71 0;
#X connect 49 0 50 0;
#X connect 52 0 34 0;
#X connect 53 0 34 0;
#X connect 54 0 34 0;
#X connect 55 0 34 0;
#X connect 56 0 34 0;
#X connect 57 0 34 0;
#X connect 58 0 34 0;
#X connect 59 0 34 0;
#X connect 60 0 76 2;
#X connect 61 0 71 1;
#X connect 62 0 56 0;
#X connect 62 1 59 0;
#X connect 62 2 52 0;
#X connect 62 3 57 0;
#X connect 62 4 58 0;
#X connect 62 5 54 0;
#X connect 62 6 55 0;
#X connect 62 7 53 0;
#X connect 63 0 2 0;
#X connect 63 1 2 1;
#X connect 63 2 2 2;
#X connect 66 0 46 0;
#X connect 67 0 15 0;
#X connect 68 0 14 0;
#X connect 69 0 31 0;
#X connect 70 0 76 3;
#X connect 71 0 76 0;
#X connect 74 0 76 1;
#X connect 75 0 17 0;
#X connect 76 0 63 0;
