#N canvas 572 65 1136 979 10;
#X obj 304 125 mtof;
#X obj 304 161 sig~;
#X obj 303 295 *~;
#X text 352 13 note messages;
#X obj 304 515 +~;
#X obj 359 414 osc~;
#X text 426 195 knob 1 controls overall pitch;
#X text 369 296 knobs 2 and 3 control pitch modulation (speed and depth)
;
#X obj 726 608 f;
#X msg 726 644 0 \$1;
#X obj 304 66 unpack;
#X obj 397 74 sel 0;
#X text 437 69 selects note off messages so we can set decay time later
;
#X text 348 132 convert it to signal so frequency will be constantly
updated;
#X obj 304 14 inlet;
#X obj 316 924 outlet~;
#X obj 367 313 r~ smoothKnob2;
#X obj 358 380 *~ 50;
#X obj 514 383 *~ 100;
#X obj 521 313 r~ smoothKnob3;
#X obj 356 444 *~;
#X text 764 611 decay time;
#X obj 359 349 *~;
#X obj 513 352 *~;
#X text 25 40 synth voice with waveform change;
#X obj 726 736 *~;
#X obj 322 193 r~ f;
#X obj 133 655 osc~ 440;
#X obj 315 804 *~;
#X obj 360 549 /~ 4;
#X obj 391 653 blsaw;
#X obj 266 654 s_blsquare;
#N canvas 7 50 727 452 triangle 0;
#X obj 130 207 outlet~;
#X obj 131 65 inlet~;
#N canvas 699 258 779 606 triangle 0;
#X obj 80 290 -~ 0.5;
#X obj 228 290 -~ 0.5;
#X obj 134 340 -~;
#X obj 220 480 outlet~;
#X obj 80 91 phasor~ 0;
#X text 131 55 frequency;
#X obj 228 236 wrap~;
#N canvas 0 50 540 420 4*$v1*(1-$v1) 0;
#X obj 182 177 *~ 4;
#X obj 132 177 sig~ 1;
#X obj 132 200 -~;
#X obj 132 228 *~;
#X obj 182 76 inlet~;
#X obj 132 253 outlet~;
#X connect 0 0 3 1;
#X connect 1 0 2 0;
#X connect 2 0 3 0;
#X connect 3 0 5 0;
#X connect 4 0 2 1;
#X connect 4 0 0 0;
#X restore 228 262 pd 4*$v1*(1-$v1);
#N canvas 0 50 540 420 4*$v1*(1-$v1) 0;
#X obj 182 177 *~ 4;
#X obj 132 177 sig~ 1;
#X obj 132 200 -~;
#X obj 132 228 *~;
#X obj 182 76 inlet~;
#X obj 132 253 outlet~;
#X connect 0 0 3 1;
#X connect 1 0 2 0;
#X connect 2 0 3 0;
#X connect 3 0 5 0;
#X connect 4 0 2 1;
#X connect 4 0 0 0;
#X restore 79 261 pd 4*$v1*(1-$v1);
#X text 489 64 tri-saw factor (0-1);
#X obj 80 54 inlet~;
#X obj 430 66 inlet;
#X obj 430 89 clip 0.01 0.99;
#X obj 294 372 line~;
#X obj 294 350 pack 0 10;
#N canvas 0 50 540 420 4*$f1*(1-$f1) 0;
#X obj 185 177 * 4;
#X obj 137 72 inlet;
#X msg 137 171 1 \$1;
#X obj 137 200 -;
#X obj 137 228 *;
#X obj 137 107 t a a;
#X obj 137 253 outlet;
#X connect 0 0 4 1;
#X connect 1 0 5 0;
#X connect 2 0 3 0;
#X connect 3 0 4 0;
#X connect 4 0 6 0;
#X connect 5 0 2 0;
#X connect 5 1 0 0;
#X restore 430 290 pd 4*$f1*(1-$f1);
#X obj 245 151 line~;
#X obj 245 129 pack 0 10;
#X obj 227 177 +~;
#X obj 245 77 loadbang;
#X msg 245 98 0.5;
#X obj 220 414 /~;
#X obj 294 297 loadbang;
#X msg 294 318 1;
#X obj 241 45 inlet;
#X connect 0 0 2 0;
#X connect 1 0 2 1;
#X connect 2 0 21 0;
#X connect 4 0 8 0;
#X connect 4 0 18 0;
#X connect 6 0 7 0;
#X connect 7 0 1 0;
#X connect 8 0 0 0;
#X connect 10 0 4 0;
#X connect 11 0 12 0;
#X connect 12 0 15 0;
#X connect 12 0 17 0;
#X connect 13 0 21 1;
#X connect 14 0 13 0;
#X connect 15 0 14 0;
#X connect 16 0 18 1;
#X connect 17 0 16 0;
#X connect 18 0 6 0;
#X connect 19 0 20 0;
#X connect 20 0 17 0;
#X connect 21 0 3 0;
#X connect 22 0 23 0;
#X connect 23 0 14 0;
#X connect 24 0 4 1;
#X restore 130 162 pd triangle;
#X text 202 48 slope;
#X obj 189 96 loadbang;
#X msg 194 123 0.5;
#X connect 1 0 2 0;
#X connect 2 0 0 0;
#X connect 4 0 5 0;
#X connect 5 0 2 2;
#X restore 502 635 pd triangle;
#X text 170 440 change waveform;
#X obj 132 713 smoothswitch;
#X obj 266 719 smoothswitch;
#X obj 390 712 smoothswitch;
#X obj 501 716 smoothswitch;
#X obj 887 608 / 127;
#X obj 887 630 sqrt;
#X obj 133 677 *~ 0.7;
#X obj 315 869 *~ 0.7;
#X obj 188 632 r local-sine;
#X obj 334 619 r local-sqr;
#X obj 471 689 r local-saw;
#X obj 582 674 r local-tri;
#X msg 887 653 \$1 10;
#X obj 391 675 *~ 0.5;
#X obj 266 676 *~ 0.5;
#X obj 746 513 r decay-local;
#X obj 502 657 *~ 0.69;
#X obj 726 703 vline~;
#X connect 0 0 1 0;
#X connect 1 0 2 0;
#X connect 2 0 4 0;
#X connect 4 0 29 0;
#X connect 5 0 20 0;
#X connect 8 0 9 0;
#X connect 9 0 51 0;
#X connect 10 0 0 0;
#X connect 10 1 11 0;
#X connect 11 0 8 0;
#X connect 11 1 38 0;
#X connect 14 0 10 0;
#X connect 16 0 22 1;
#X connect 16 0 22 0;
#X connect 17 0 5 0;
#X connect 18 0 20 1;
#X connect 19 0 23 1;
#X connect 19 0 23 0;
#X connect 20 0 4 1;
#X connect 22 0 17 0;
#X connect 23 0 18 0;
#X connect 25 0 28 1;
#X connect 26 0 2 1;
#X connect 27 0 40 0;
#X connect 28 0 41 0;
#X connect 29 0 27 0;
#X connect 29 0 30 0;
#X connect 29 0 31 0;
#X connect 29 0 32 0;
#X connect 30 0 47 0;
#X connect 31 0 48 0;
#X connect 32 0 50 0;
#X connect 34 0 28 0;
#X connect 35 0 28 0;
#X connect 36 0 28 0;
#X connect 37 0 28 0;
#X connect 38 0 39 0;
#X connect 39 0 46 0;
#X connect 40 0 34 0;
#X connect 41 0 15 0;
#X connect 42 0 34 1;
#X connect 43 0 35 1;
#X connect 44 0 36 1;
#X connect 45 0 37 1;
#X connect 46 0 51 0;
#X connect 47 0 36 0;
#X connect 48 0 35 0;
#X connect 49 0 8 1;
#X connect 50 0 37 0;
#X connect 51 0 25 1;
#X connect 51 0 25 0;
