#N canvas 553 176 807 563 10;
#X obj 156 49 inlet;
#X obj 185 432 s oscOut;
#X msg 96 223 /oled/gFlip 3;
#X obj 202 228 - 1;
#X text 369 54 arg1: x location;
#X text 369 72 arg2: y location;
#X text 377 96 arg3: Prepend;
#X text 382 122 arg4: length of line(for clearing background);
#X text 307 259 y \, x \, length for clearing;
#X obj 156 182 t b a b b, f 13;
#X obj 202 206 f \$1;
#X obj 242 228 - 1;
#X obj 242 206 f \$2;
#X obj 202 257 pack f f \$4;
#X msg 202 296 /oled/gFillArea 3 \$1 \$2 \$3 9 0, f 17;
#X obj 185 339 list prepend \$1 \$2 \$3;
#X msg 185 392 /oled/gPrintln 3 \$1 \$2 8 1 \$3 \$4, f 16;
#X connect 0 0 9 0;
#X connect 2 0 1 0;
#X connect 3 0 13 0;
#X connect 9 0 2 0;
#X connect 9 1 15 0;
#X connect 9 2 10 0;
#X connect 9 3 12 0;
#X connect 10 0 3 0;
#X connect 11 0 13 1;
#X connect 12 0 11 0;
#X connect 13 0 14 0;
#X connect 14 0 1 0;
#X connect 15 0 16 0;
#X connect 16 0 1 0;
