#N canvas 904 431 450 300 10;
#X obj 163 205 cos~;
#X obj 164 153 lop~ 5;
#X obj 164 181 /~ 4;
#X obj 250 143 -;
#X msg 250 117 1 \$1;
#X obj 249 165 lop~ 5;
#X obj 249 193 /~ 4;
#X obj 249 215 cos~;
#X obj 164 84 t f f;
#X obj 164 43 inlet control f(0-1);
#X obj 163 227 outlet~;
#X obj 249 237 outlet~;
#X connect 0 0 10 0;
#X connect 1 0 2 0;
#X connect 2 0 0 0;
#X connect 3 0 5 0;
#X connect 4 0 3 0;
#X connect 5 0 6 0;
#X connect 6 0 7 0;
#X connect 7 0 11 0;
#X connect 8 0 1 0;
#X connect 8 1 4 0;
#X connect 9 0 8 0;
