#N canvas 4 50 1215 785 10;
#X obj 36 29 inlet;
#X obj 541 26 inlet;
#X obj 230 25 inlet;
#X text 273 25 page print mute \, cgSc-1-mute-print;
#X obj 36 337 list, f 8;
#X obj 36 118 t b a;
#X obj 36 309 f 1;
#X obj 36 358 route 1;
#X obj 36 519 outlet;
#X text 87 519 print message;
#X text 583 26 page control 0/1 boolean;
#X obj 541 47 s \$0-page;
#X obj 230 46 s \$0-print;
#X obj 136 161 r \$0-print;
#X obj 136 202 spigot 0, f 13;
#X obj 211 178 r \$0-page;
#X obj 136 223 sel 0;
#X obj 136 244 del 1;
#X text 131 136 reprint after menu goes away;
#X text 279 176 if the page is on;
#X obj 117 332 r \$0-print;
#X obj 117 353 == 0;
#X obj 36 487 spigot 0, f 30;
#X obj 186 376 r \$0-page;
#X text 246 377 print if the page is selected;
#X text 194 330 mute if the page menu is activateds;
#X text 561 288 *** this can also be used with just a bang in the left
inlet;
#X text 604 182 a much simpler/flexible version of the cg-psystem abstractions
;
#X obj 186 401 t a a;
#X obj 149 435 sel 1;
#X obj 149 456 del 1;
#X text 234 436 reprint the page;
#X obj 36 386 spigot 1, f 14;
#X connect 0 0 5 0;
#X connect 1 0 11 0;
#X connect 2 0 12 0;
#X connect 4 0 7 0;
#X connect 5 0 6 0;
#X connect 5 1 4 1;
#X connect 6 0 4 0;
#X connect 7 0 32 0;
#X connect 13 0 14 0;
#X connect 14 0 16 0;
#X connect 15 0 14 1;
#X connect 16 0 17 0;
#X connect 17 0 6 0;
#X connect 20 0 21 0;
#X connect 21 0 32 1;
#X connect 22 0 8 0;
#X connect 23 0 28 0;
#X connect 28 0 29 0;
#X connect 28 1 22 1;
#X connect 29 0 30 0;
#X connect 30 0 6 0;
#X connect 32 0 22 0;
