#N canvas 439 50 1348 973 10;
#X obj 73 10 inlet;
#X obj 124 649 f \$1;
#X obj 429 414 r global-note-div-f;
#X obj 1105 350 tabwrite note-tracker;
#X obj 1228 328 f \$1;
#X obj 973 297 t f f b, f 43;
#X msg 124 277 0;
#X obj 992 8 r clear-composition;
#X obj 151 878 s midi;
#X obj 325 858 s vis-trigger;
#X obj 325 834 cg-make-note 60 1 56;
#X obj 191 753 r \$0-vel;
#N canvas 4 50 788 512 print-the-notes 0;
#X obj 48 11 inlet;
#X obj 48 225 s print-notes;
#X obj 48 179 f \$1;
#X obj 48 75 sel 0, f 21;
#X obj 48 202 pack 0 3 0;
#X obj 171 281 s print-notes;
#X obj 171 235 f \$1;
#X obj 171 258 pack 0 3 1;
#X obj 171 213 t b a, f 7;
#X obj 171 189 + 2;
#X obj 171 101 t a b;
#X obj 307 217 s print-notes;
#X obj 307 194 pack 0 3 0;
#X obj 307 169 f \$1;
#X connect 0 0 3 0;
#X connect 2 0 4 0;
#X connect 3 0 2 0;
#X connect 3 1 10 0;
#X connect 4 0 1 0;
#X connect 6 0 7 0;
#X connect 7 0 5 0;
#X connect 8 0 6 0;
#X connect 8 1 7 1;
#X connect 9 0 8 0;
#X connect 10 0 9 0;
#X connect 10 1 13 0;
#X connect 12 0 11 0;
#X connect 13 0 12 0;
#X restore 973 339 pd print-the-notes;
#X obj 407 290 list prepend \$1;
#X obj 407 321 s draw-vol-status;
#X obj 868 437 s \$0-vel;
#X obj 124 219 t f f f f, f 142;
#N canvas 150 297 1193 557 calculate-composition 1;
#X obj 89 432 cg-note-trig, f 29;
#X obj 4 163 r beat-clock;
#X obj 320 410 cg-measure-trig;
#X obj 89 483 sel 1;
#X obj 89 504 outlet;
#X obj 49 201 r pause-start-toggle;
#X obj 89 308 spigot 0;
#X obj 89 456 spigot 0, f 39;
#X obj 28 36 inlet;
#X text 70 36 on/off;
#X obj 156 33 inlet;
#X text 193 32 bar patt;
#X obj 263 33 inlet;
#X text 303 33 note patt;
#X obj 381 33 inlet;
#X text 420 32 note size;
#X obj 320 326 r global-bar-count;
#X obj 363 380 text get bar-pattern;
#X obj 483 197 text get note-div;
#X obj 112 375 text get rate;
#X obj 897 103 text get save-keys;
#X obj 897 76 - 1;
#X obj 483 218 unpack s 0;
#X obj 627 518 outlet;
#X obj 897 144 unpack 0 0 0 0;
#X obj 816 517 outlet;
#X obj 509 36 inlet;
#X text 551 35 speed;
#X obj 897 34 r \$0-load-keys;
#X obj 897 55 f \$1;
#X obj 680 382 text set save-keys;
#X obj 680 280 pack 0 0 0 0;
#X obj 680 237 f;
#X obj 112 343 r \$0-t-rate;
#X obj 924 231 s \$0-t-rate;
#X obj 897 254 s \$0-t-bar;
#X obj 978 176 s \$0-t-swing;
#X obj 363 357 r \$0-t-bar;
#X obj 951 202 s \$0-t-note;
#X obj 483 167 r \$0-t-note;
#X obj 816 485 r \$0-t-swing;
#X obj 695 196 r \$0-t-bar;
#X obj 703 217 r \$0-t-rate;
#X obj 726 236 r \$0-t-note;
#X obj 749 257 r \$0-t-swing;
#X obj 156 120 s \$0-save-4;
#X obj 680 161 r \$0-save-4;
#X obj 183 96 s \$0-t-bar;
#X obj 156 70 t b a;
#X obj 263 120 s \$0-save-4;
#X obj 263 70 t b a;
#X obj 290 96 s \$0-t-rate;
#X obj 381 123 s \$0-save-4;
#X obj 381 73 t b a;
#X obj 408 99 s \$0-t-note;
#X obj 540 243 t a a, f 15;
#X obj 509 107 s \$0-save-4;
#X obj 509 57 t b a;
#X text 670 519 to makenote length;
#X text 865 517 to swing parameter;
#X obj 680 301 t a b;
#X obj 715 331 f \$1;
#X obj 715 352 - 1;
#X text 772 317 save when new parameters are adjusted;
#X text 990 144 load into the pack \, no trigger;
#X obj 4 254 spigot 0;
#X obj 160 309 spigot 0;
#X obj 51 82 t f f f;
#X obj 49 222 t a a;
#X obj 536 83 s \$0-t-swing;
#X obj 344 235 r global-beat-count;
#X msg 217 380 switch \$1;
#X obj 260 239 t f f b, f 12;
#X obj 329 262 f;
#X msg 329 283 set \$1;
#X connect 0 0 7 0;
#X connect 1 0 65 0;
#X connect 2 0 7 1;
#X connect 3 0 4 0;
#X connect 5 0 68 0;
#X connect 6 0 0 0;
#X connect 7 0 3 0;
#X connect 8 0 67 0;
#X connect 10 0 48 0;
#X connect 12 0 50 0;
#X connect 14 0 53 0;
#X connect 16 0 2 0;
#X connect 17 0 2 1;
#X connect 18 0 22 0;
#X connect 19 0 0 1;
#X connect 20 0 24 0;
#X connect 21 0 20 0;
#X connect 22 1 55 0;
#X connect 24 0 35 0;
#X connect 24 1 34 0;
#X connect 24 2 38 0;
#X connect 24 3 36 0;
#X connect 26 0 57 0;
#X connect 28 0 29 0;
#X connect 29 0 21 0;
#X connect 31 0 60 0;
#X connect 32 0 31 0;
#X connect 33 0 19 0;
#X connect 37 0 17 0;
#X connect 39 0 18 0;
#X connect 40 0 25 0;
#X connect 41 0 32 1;
#X connect 42 0 31 1;
#X connect 43 0 31 2;
#X connect 44 0 31 3;
#X connect 46 0 32 0;
#X connect 48 0 45 0;
#X connect 48 1 47 0;
#X connect 50 0 49 0;
#X connect 50 1 51 0;
#X connect 53 0 52 0;
#X connect 53 1 54 0;
#X connect 55 0 0 2;
#X connect 55 1 23 0;
#X connect 57 0 56 0;
#X connect 57 1 69 0;
#X connect 60 0 30 0;
#X connect 60 1 61 0;
#X connect 61 0 62 0;
#X connect 62 0 30 1;
#X connect 65 0 6 0;
#X connect 66 0 72 0;
#X connect 67 0 6 1;
#X connect 67 1 72 0;
#X connect 67 2 66 1;
#X connect 68 0 65 1;
#X connect 68 1 66 0;
#X connect 70 0 73 1;
#X connect 71 0 0 3;
#X connect 72 0 71 0;
#X connect 72 1 2 2;
#X connect 72 2 73 0;
#X connect 73 0 74 0;
#X connect 74 0 0 3;
#X restore 124 562 pd calculate-composition;
#X f 55;
#X obj 124 256 sel 0, f 7;
#X obj 992 55 f 0;
#X obj 992 28 t b, f 5;
#X obj 868 382 sel 1 2 3 0, f 19;
#X obj 124 141 cg-count-up-down 1 4;
#X obj 124 162 sel 4, f 10;
#X msg 124 183 0;
#X obj 163 280 t b;
#X msg 163 301 1;
#X obj 207 455 spigot 0;
#X obj 252 433 r \$0-set;
#X obj 318 471 spigot 0;
#X obj 363 449 r \$0-set;
#X obj 429 462 spigot 0;
#X obj 474 440 r \$0-set;
#X obj 207 410 r k3-bars;
#X obj 318 411 r k2-notes;
#X obj 992 76 s \$0-clear;
#X obj 1014 253 r \$0-clear;
#X obj 17 460 r \$0-clear;
#X obj 136 112 r \$0-clear;
#X obj 73 31 route set, f 12;
#X obj 191 774 t f f, f 16;
#X obj 124 700 t a a, f 34;
#X obj 124 856 t a a;
#X obj 124 902 s compose-notes;
#X obj 124 811 cg-make-note 60 100 500;
#N canvas 4 50 565 635 swing 0;
#X obj 19 44 inlet;
#X text 75 42 Bang;
#X text 127 102 ***delay every other bang by ticks;
#X obj 57 116 + 1;
#X obj 57 137 == 1;
#X obj 19 115 f 0;
#X obj 19 196 sel 0 1, f 52;
#X text 29 215 no 'swing';
#X obj 19 507 outlet;
#X obj 87 261 r beat-clock;
#X obj 120 402 + 1;
#X obj 87 402 f 0;
#X obj 87 423 sel, f 25;
#X obj 320 355 f, f 5;
#X obj 87 320 spigot 0;
#X msg 102 373 0;
#X obj 87 444 t b b;
#X msg 209 302 0;
#X obj 173 227 t b b b, f 25;
#X msg 173 272 1;
#X obj 87 341 t b;
#X obj 398 119 inlet;
#X text 432 121 swing amount;
#X obj 398 140 * 90;
#X obj 431 179 r global-swing-amt;
#X obj 431 240 t b a;
#X obj 398 313 i;
#X obj 398 292 +;
#X connect 0 0 5 0;
#X connect 3 0 4 0;
#X connect 4 0 5 1;
#X connect 5 0 3 0;
#X connect 5 0 6 0;
#X connect 6 0 8 0;
#X connect 6 1 18 0;
#X connect 9 0 14 0;
#X connect 10 0 11 1;
#X connect 11 0 10 0;
#X connect 11 0 12 0;
#X connect 12 0 16 0;
#X connect 13 0 12 1;
#X connect 14 0 20 0;
#X connect 15 0 11 1;
#X connect 16 0 8 0;
#X connect 16 1 17 0;
#X connect 17 0 14 1;
#X connect 18 0 19 0;
#X connect 18 1 15 0;
#X connect 18 2 13 0;
#X connect 19 0 14 1;
#X connect 20 0 11 0;
#X connect 21 0 23 0;
#X connect 23 0 27 0;
#X connect 24 0 25 0;
#X connect 25 0 27 0;
#X connect 25 1 27 1;
#X connect 26 0 13 1;
#X connect 27 0 26 0;
#X restore 124 600 pd swing;
#X f 55;
#X obj 555 463 spigot 0;
#X obj 600 441 r \$0-set;
#X obj 555 415 r k4-swing;
#X obj 294 24 r global-edit-this-samp;
#X obj 294 55 sel \$1;
#X obj 294 157 s \$0-set;
#X text 1013 476 bars;
#X text 1034 518 note div;
#X text 1023 495 note patt;
#X text 1050 542 swing;
#X msg 929 404 25;
#X obj 327 102 t b;
#X msg 327 123 0;
#X msg 294 76 1;
#X obj 100 76 s \$0-load-keys;
#X obj 73 52 t a b;
#X obj 124 345 change -1;
#X obj 717 398 s \$0-preview;
#X obj 717 368 spigot 0;
#X obj 44 572 r \$0-preview;
#X obj 762 324 r pause-start-toggle;
#X obj 762 345 == 0;
#X obj 690 256 t a a, f 22;
#X obj 690 277 sel 0;
#X obj 717 309 t b;
#X obj 124 721 + 59;
#X obj 625 575 r bpm;
#X obj 545 683 t b a;
#X obj 545 730 pack, f 5;
#X obj 545 707 f;
#X obj 545 752 /;
#X obj 615 740 t b a;
#X obj 615 714 r global-length;
#X obj 545 783 * 1, f 8;
#X obj 625 601 swap 240000;
#X obj 628 640 /, f 11;
#X obj 545 804 max 5;
#X msg 868 403 120;
#X msg 897 403 69;
#X connect 0 0 39 0;
#X connect 1 0 41 0;
#X connect 2 0 31 0;
#X connect 4 0 3 1;
#X connect 5 0 12 0;
#X connect 5 1 3 0;
#X connect 5 2 4 0;
#X connect 6 0 62 0;
#X connect 7 0 20 0;
#X connect 10 0 9 0;
#X connect 11 0 40 0;
#X connect 13 0 14 0;
#X connect 16 0 18 0;
#X connect 16 1 13 0;
#X connect 16 2 68 0;
#X connect 16 3 5 0;
#X connect 17 0 45 0;
#X connect 17 1 73 0;
#X connect 17 2 45 1;
#X connect 18 0 6 0;
#X connect 18 1 25 0;
#X connect 19 0 35 0;
#X connect 20 0 19 0;
#X connect 21 0 83 0;
#X connect 21 1 84 0;
#X connect 21 2 56 0;
#X connect 22 0 23 0;
#X connect 23 0 24 0;
#X connect 23 1 16 0;
#X connect 24 0 16 0;
#X connect 25 0 26 0;
#X connect 26 0 62 0;
#X connect 27 0 17 1;
#X connect 28 0 27 1;
#X connect 29 0 17 2;
#X connect 30 0 29 1;
#X connect 31 0 17 3;
#X connect 32 0 31 1;
#X connect 33 0 27 0;
#X connect 34 0 29 0;
#X connect 36 0 5 0;
#X connect 37 0 17 0;
#X connect 38 0 22 0;
#X connect 39 0 61 0;
#X connect 39 1 22 0;
#X connect 40 0 44 1;
#X connect 40 1 10 1;
#X connect 41 0 71 0;
#X connect 41 1 10 0;
#X connect 42 0 43 0;
#X connect 42 1 8 0;
#X connect 44 0 42 0;
#X connect 45 0 1 0;
#X connect 46 0 17 4;
#X connect 47 0 46 1;
#X connect 48 0 46 0;
#X connect 49 0 50 0;
#X connect 50 0 59 0;
#X connect 50 1 57 0;
#X connect 56 0 15 0;
#X connect 57 0 58 0;
#X connect 58 0 51 0;
#X connect 59 0 51 0;
#X connect 61 0 22 0;
#X connect 61 1 60 0;
#X connect 62 0 17 0;
#X connect 64 0 63 0;
#X connect 65 0 1 0;
#X connect 66 0 67 0;
#X connect 67 0 64 1;
#X connect 68 0 69 0;
#X connect 68 1 21 0;
#X connect 69 1 70 0;
#X connect 70 0 64 0;
#X connect 71 0 44 0;
#X connect 72 0 80 0;
#X connect 73 0 75 0;
#X connect 73 1 74 1;
#X connect 74 0 76 0;
#X connect 75 0 74 0;
#X connect 76 0 79 0;
#X connect 77 0 79 0;
#X connect 77 1 79 1;
#X connect 78 0 77 0;
#X connect 79 0 82 0;
#X connect 80 0 81 0;
#X connect 80 1 81 1;
#X connect 81 0 75 0;
#X connect 82 0 44 2;
#X connect 83 0 15 0;
#X connect 84 0 15 0;
