#N canvas 781 363 947 681 10;
#X obj 133 465 cg-simple-sample;
#X msg 700 443 length-samples \$1;
#X msg 727 394 symbol samp-\$1-lengthSamp;
#X obj 700 420 v;
#X obj 700 471 s \$0-messes;
#X obj 226 443 r \$0-messes;
#X obj 133 596 *~, f 11;
#N canvas 4 50 450 300 line 0;
#X obj 46 7 inlet;
#X obj 53 237 outlet~;
#X obj 54 205 pow~ 2;
#X msg 92 118 1 8;
#X obj 53 158 vline~;
#X msg 53 118 0 8;
#X obj 46 28 sel 0 1;
#X connect 0 0 6 0;
#X connect 2 0 1 0;
#X connect 3 0 4 0;
#X connect 4 0 2 0;
#X connect 5 0 4 0;
#X connect 6 0 5 0;
#X connect 6 1 3 0;
#X restore 195 568 pd line;
#X obj 700 369 t b f;
#X msg 727 319 name samp-\$1;
#X obj 727 340 s \$0-messes;
#X obj 322 156 f 1;
#X obj 353 156 + 1;
#X obj 353 177 == 1;
#X obj 133 258 sel 0 1, f 63;
#X obj 320 456 cg-simple-sample;
#X obj 413 425 r \$0-messes;
#X obj 320 607 *~, f 12;
#N canvas 4 50 450 300 line 0;
#X obj 46 7 inlet;
#X obj 53 237 outlet~;
#X obj 54 205 pow~ 2;
#X msg 92 118 1 8;
#X obj 53 158 vline~;
#X msg 53 118 0 8;
#X obj 46 28 sel 0 1;
#X connect 0 0 6 0;
#X connect 2 0 1 0;
#X connect 3 0 4 0;
#X connect 4 0 2 0;
#X connect 5 0 4 0;
#X connect 6 0 5 0;
#X connect 6 1 3 0;
#X restore 389 575 pd line;
#X msg 164 301 0;
#X msg 359 350 1;
#X obj 206 651 outlet~;
#X obj 133 227 f 0;
#X msg 444 401 switch 0;
#X obj 444 377 del 8;
#X msg 471 356 stop;
#X obj 444 333 t b b;
#X obj 239 395 t a a;
#X obj 239 416 == 0;
#X obj 320 279 t b b b b, f 20;
#X msg 170 418 switch 0;
#X obj 170 394 del 8;
#X msg 197 373 stop;
#X obj 170 350 t b b;
#X obj 133 279 t b b b b, f 16;
#X obj 700 294 t f f;
#X obj 52 77 sel 0, f 14;
#X obj 535 278 r \$0-kill;
#X obj 535 299 t b b b;
#X msg 574 324 0;
#X obj 515 475 f;
#X obj 52 98 s \$0-kill;
#X obj 511 170 s \$0-vel;
#X obj 511 141 / 127;
#X obj 60 432 r \$0-vel;
#X obj 132 556 *~;
#X obj 320 547 *~;
#X obj 52 25 inlet;
#X text 90 23 notes;
#X msg 60 453 \$1 10;
#X obj 60 474 line~;
#X obj 133 106 t b b f b, f 95;
#X obj 700 229 % 24;
#X obj 700 250 + 1;
#X obj 700 207 +, f 8;
#X obj 700 184 - 1;
#X obj 700 163 f \$1;
#X obj 700 271 change -1;
#X obj 745 183 r global-shift;
#X obj 329 79 s \$0-messes;
#X msg 329 51 speed \$1;
#X obj 329 22 r global-speed;
#X connect 0 0 45 0;
#X connect 1 0 4 0;
#X connect 2 0 3 1;
#X connect 3 0 1 0;
#X connect 5 0 0 1;
#X connect 6 0 21 0;
#X connect 7 0 6 1;
#X connect 8 0 3 0;
#X connect 8 1 2 0;
#X connect 9 0 10 0;
#X connect 11 0 12 0;
#X connect 11 0 22 1;
#X connect 12 0 13 0;
#X connect 13 0 11 1;
#X connect 14 0 34 0;
#X connect 14 1 29 0;
#X connect 15 0 46 0;
#X connect 16 0 15 1;
#X connect 17 0 21 0;
#X connect 18 0 17 1;
#X connect 19 0 27 0;
#X connect 20 0 27 0;
#X connect 22 0 14 0;
#X connect 23 0 15 1;
#X connect 24 0 23 0;
#X connect 25 0 24 0;
#X connect 26 0 24 0;
#X connect 26 1 25 0;
#X connect 27 0 28 0;
#X connect 27 1 18 0;
#X connect 28 0 7 0;
#X connect 29 0 15 0;
#X connect 29 1 20 0;
#X connect 29 2 33 0;
#X connect 29 3 25 0;
#X connect 30 0 0 1;
#X connect 31 0 30 0;
#X connect 32 0 31 0;
#X connect 33 0 31 0;
#X connect 33 1 32 0;
#X connect 34 0 0 0;
#X connect 34 1 19 0;
#X connect 34 2 26 0;
#X connect 34 3 32 0;
#X connect 35 0 8 0;
#X connect 35 1 9 0;
#X connect 36 0 41 0;
#X connect 36 1 51 0;
#X connect 37 0 38 0;
#X connect 38 0 33 0;
#X connect 38 1 26 0;
#X connect 38 2 39 0;
#X connect 39 0 40 0;
#X connect 40 0 18 0;
#X connect 40 0 7 0;
#X connect 43 0 42 0;
#X connect 44 0 49 0;
#X connect 45 0 6 0;
#X connect 46 0 17 0;
#X connect 47 0 36 0;
#X connect 49 0 50 0;
#X connect 50 0 45 1;
#X connect 50 0 46 1;
#X connect 51 0 22 0;
#X connect 51 1 11 0;
#X connect 51 2 43 0;
#X connect 51 3 56 0;
#X connect 52 0 53 0;
#X connect 53 0 57 0;
#X connect 54 0 52 0;
#X connect 55 0 54 0;
#X connect 56 0 55 0;
#X connect 57 0 35 0;
#X connect 58 0 54 1;
#X connect 60 0 59 0;
#X connect 61 0 60 0;
