#N canvas 4 50 1125 703 10;
#X declare -path cg-pd-library-local/sampling;
#X declare -path cg-pd-library-local/sequencer;
#X declare -path cg-pd-library-local/externals;
#X declare -path cg-pd-library-local/metronome;
#X obj 656 506 throw~ outL;
#X obj 682 465 throw~ outR;
#X obj 657 423 *~ 1;
#X obj 247 362 cg-note-trig, f 29;
#X obj 247 383 sel 1;
#X obj 291 487 *~ 0.2;
#X obj 291 508 *~, f 10;
#X obj 362 468 vline~;
#X msg 365 437 1 8 \, 0 200 8;
#X obj 239 291 r beat-clock;
#X floatatom 355 332 5 0 0 0 - - -;
#X obj 415 313 tgl 15 0 empty empty empty 17 7 0 10 -262144 -1 -1 0
1;
#X obj 291 466 osc~ 389;
#X obj 509 335 *~, f 10;
#X obj 570 315 vline~;
#X obj 567 204 r beat-clock;
#X obj 570 262 sel 0;
#X obj 509 314 *~ 0.1;
#X obj 509 293 osc~ 800;
#X msg 573 284 1 8 \, 0 90 8;
#X obj 646 233 tgl 15 0 empty empty empty 17 7 0 10 -262144 -1 -1 0
1;
#X obj 567 225 spigot 0;
#X msg 193 383 print;
#X msg 415 333 switch \$1;
#X msg 283 332 1 0 1 1;
#X msg 322 295 0 0 1 0 1 1;
#N canvas 304 180 450 300 cg-pd-library-local 0;
#X obj 502 35 r cgSc-1-slots;
#X obj 72 70 declare -path cg-pd-library-local/sampling;
#X obj 60 98 declare -path cg-pd-library-local/sequencer;
#X obj 59 130 declare -path cg-pd-library-local/externals;
#X obj 59 165 declare -path cg-pd-library-local/metronome;
#X restore 57 103 pd cg-pd-library-local;
#X connect 2 0 0 0;
#X connect 2 0 1 0;
#X connect 3 0 4 0;
#X connect 3 0 22 0;
#X connect 4 0 8 0;
#X connect 5 0 6 0;
#X connect 6 0 2 0;
#X connect 7 0 6 1;
#X connect 8 0 7 0;
#X connect 9 0 3 0;
#X connect 10 0 3 2;
#X connect 11 0 23 0;
#X connect 12 0 5 0;
#X connect 13 0 2 0;
#X connect 14 0 13 1;
#X connect 15 0 21 0;
#X connect 16 0 19 0;
#X connect 17 0 13 0;
#X connect 18 0 17 0;
#X connect 19 0 14 0;
#X connect 20 0 21 1;
#X connect 21 0 16 0;
#X connect 23 0 3 3;
#X connect 24 0 3 1;
#X connect 25 0 3 1;
