#N canvas 104 120 892 486 10;
#X declare -path CG-Pd-Library-Local/sequencer;
#X declare -path CG-Pd-Library-Local/externals;
#X declare -path CG-Pd-Library-Local/metronome;
#X declare -path /sdcard/CG-Pd-Library/sequencer;
#X declare -path /sdcard/CG-Pd-Library/externals;
#X declare -path /sdcard/CG-Pd-Library/metronome;
#X declare -path patchmenu-kein-detent;
#X obj 107 143 s enableSubMenu;
#X obj 75 71 loadbang;
#X obj 74 113 t b b;
#X obj 41 50 bng 15 250 50 0 empty empty empty 17 7 0 10 -262144 -1
-1;
#N canvas 11 50 1009 708 mapping 0;
#X obj 400 569 throw~ outL;
#X obj 522 570 throw~ outR;
#X text 374 36 MIDI (keys) Routing;
#X text 385 8 control routing;
#X obj 414 264 s~ fx13-1-in;
#X text 49 217 Page 2 - FX13-2;
#X text 45 82 Page 1 - FX-13-1;
#X obj 407 519 r~ fx13-1-outL;
#X obj 528 520 r~ fx13-1-outR;
#X obj 415 234 r~ rampsyn-1-outL;
#X text 60 363 Page 3 -;
#X text 54 500 Page 4 -;
#X obj 266 420 s fx13-1-knob1;
#X obj 372 419 s fx13-1-knob2;
#X obj 500 412 s fx13-1-knob3;
#X obj 653 404 s fx13-1-knob4;
#X obj 265 398 r seq3-1-p2k1;
#X obj 371 398 r seq3-1-p2k2;
#X obj 498 390 r seq3-1-p2k3;
#X obj 653 382 r seq3-1-p2k4;
#X obj 272 141 r seq3-1-p1k1;
#X obj 420 132 r seq3-1-p1k2;
#X obj 546 124 r seq3-1-p1k3;
#X obj 701 116 r seq3-1-p1k4;
#X obj 273 163 s rampsyn-1-rampa;
#X obj 420 153 s rampsyn-1-rampd;
#X obj 548 146 s rampsyn-1-rampamt;
#X obj 701 138 s rampsyn-1-decay;
#X obj 45 116 map-knob 1 1 rampsyn-1-rampa;
#X obj 45 191 map-knob 1 4 rampsyn-1-decay;
#X obj 47 272 map-knob 2 2 fx13-1-knob2;
#X obj 48 247 map-knob 2 1 fx13-1-knob1;
#X obj 47 144 map-knob 1 2 rampsyn-1-rampd;
#X obj 46 166 map-knob 1 3 rampsyn-1-rampamt;
#X obj 47 297 map-knob 2 3 fx13-1-knob3;
#X obj 47 323 map-knob 2 4 fx13-1-knob4;
#X connect 7 0 0 0;
#X connect 8 0 1 0;
#X connect 9 0 4 0;
#X connect 16 0 12 0;
#X connect 17 0 13 0;
#X connect 18 0 14 0;
#X connect 19 0 15 0;
#X connect 20 0 24 0;
#X connect 21 0 25 0;
#X connect 22 0 26 0;
#X connect 23 0 27 0;
#X restore 415 296 pd mapping;
#X text 381 22 delcare and load modules;
#X text 416 268 routing;
#X msg 75 258 \; screenLine1 Ramp Synth \; screenLine2 Effects \; screenLine3
<-- HOME \; screenLine4 \; screenLine5 \;;
#X obj 371 173 ./FX-13/FX-13 1;
#X obj 371 146 ./RampSynth/RampSynth 1;
#X obj 263 282 s led;
#X obj 263 259 r seq3-1-led;
#N canvas 13 50 450 300 CG-PdLibrary-Local 0;
#X obj 502 35 r cgSc-1-slots;
#X obj 60 98 declare -path CG-Pd-Library-Local/sequencer;
#X obj 58 130 declare -path CG-Pd-Library-Local/externals;
#X obj 59 165 declare -path CG-Pd-Library-Local/metronome;
#X restore 534 37 pd CG-PdLibrary-Local;
#N canvas 12 50 450 300 CG-PdLibrary-SDcard 0;
#X obj 60 98 declare -path /sdcard/CG-Pd-Library/sequencer;
#X obj 58 130 declare -path /sdcard/CG-Pd-Library/externals;
#X obj 59 165 declare -path /sdcard/CG-Pd-Library/metronome;
#X obj 502 35 r cgSc-1-slots;
#X restore 534 66 pd CG-PdLibrary-SDcard;
#N canvas 787 330 860 595 slot-saver-1 0;
#X obj 167 38 r cgSc-1-slots;
#X obj 30 68 loadbang;
#X msg 30 140 0;
#X obj 30 161 tabread \$0-slot;
#X obj 199 225 array define \$0-slot;
#X obj 30 110 t b b;
#X msg 199 138 read slot.txt;
#X msg 243 186 write slot.txt;
#X obj 243 160 r saveState;
#X obj 167 58 t a b;
#X msg 220 84 0;
#X obj 167 107 tabwrite \$0-slot;
#X obj 30 185 s cgSc-1-slots;
#X connect 0 0 9 0;
#X connect 1 0 5 0;
#X connect 2 0 3 0;
#X connect 3 0 12 0;
#X connect 5 0 2 0;
#X connect 5 1 6 0;
#X connect 6 0 4 0;
#X connect 7 0 4 0;
#X connect 8 0 7 0;
#X connect 9 0 11 0;
#X connect 9 1 10 0;
#X connect 10 0 11 1;
#X restore 262 209 pd slot-saver-1;
#N canvas 7 50 1009 708 metro-here 0;
#X obj 622 370 r seq3-1-actions;
#X obj 565 548 f;
#X msg 660 453 0;
#X obj 692 453 t b b;
#X msg 698 483 1;
#X obj 660 425 sel 1;
#X obj 565 495 del 1;
#X obj 307 506 s beat-clock;
#X obj 374 243 loadbang;
#X msg 306 324 1;
#X obj 456 556 list, f 7;
#X obj 456 578 route 69;
#X obj 456 484 t b a;
#X msg 456 526 69;
#X msg 374 265 120;
#X obj 430 424 pack, f 10;
#X obj 465 392 t b a;
#X obj 307 354 metronome360 0, f 18;
#X obj 572 340 s seq3-1-quan;
#X obj 653 541 f;
#X obj 456 600 spigot 1;
#X obj 565 570 spigot 1, f 14;
#X obj 549 675 r cgSc-1-slots;
#X obj 549 701 + 1;
#X obj 456 755 print-line5 1, f 16;
#X obj 572 311 r metro-state;
#X obj 739 549 loadbang;
#X obj 549 722 f;
#X obj 739 591 t b b;
#X obj 565 631 f;
#X obj 739 570 del 1;
#X obj 660 402 r cgSc-1-mute-print;
#X obj 546 239 r page-ready;
#X connect 0 0 1 0;
#X connect 1 0 21 0;
#X connect 2 0 19 0;
#X connect 3 0 6 0;
#X connect 3 1 4 0;
#X connect 4 0 19 0;
#X connect 5 0 2 0;
#X connect 5 1 3 0;
#X connect 6 0 1 0;
#X connect 6 0 13 0;
#X connect 8 0 14 0;
#X connect 8 0 9 0;
#X connect 9 0 17 0;
#X connect 10 0 11 0;
#X connect 11 0 20 0;
#X connect 12 0 13 0;
#X connect 12 1 10 1;
#X connect 13 0 10 0;
#X connect 14 0 17 1;
#X connect 15 0 12 0;
#X connect 16 0 15 0;
#X connect 16 1 15 1;
#X connect 17 0 7 0;
#X connect 17 1 16 0;
#X connect 17 2 15 0;
#X connect 19 0 20 1;
#X connect 19 0 21 1;
#X connect 20 0 24 0;
#X connect 21 0 29 0;
#X connect 22 0 23 0;
#X connect 23 0 27 0;
#X connect 25 0 18 0;
#X connect 26 0 30 0;
#X connect 27 0 24 2;
#X connect 28 0 29 0;
#X connect 28 1 27 0;
#X connect 29 0 24 1;
#X connect 30 0 28 0;
#X connect 31 0 5 0;
#X connect 32 0 6 0;
#X restore 257 446 pd metro-here;
#N canvas 6 50 712 365 change-wave-6 0;
#X obj 80 49 sel 0;
#X obj 112 73 t b;
#X obj 80 26 r cgSc-1-6;
#X obj 112 95 f;
#X obj 162 95 + 1;
#X obj 112 117 % 4;
#X obj 201 27 loadbang;
#X msg 201 49 3;
#X obj 112 167 s rampsyn-1-waveform;
#X obj 390 37 r rampsyn-1-waveform-label;
#X obj 390 107 s cgSc-1-6label;
#X floatatom 169 137 5 0 0 0 - - -, f 5;
#X msg 390 81 Wave:\$1;
#X obj 390 59 symbol;
#X connect 0 1 1 0;
#X connect 1 0 3 0;
#X connect 2 0 0 0;
#X connect 3 0 4 0;
#X connect 3 0 5 0;
#X connect 4 0 3 1;
#X connect 5 0 8 0;
#X connect 5 0 11 0;
#X connect 6 0 7 0;
#X connect 7 0 3 0;
#X connect 9 0 13 0;
#X connect 12 0 10 0;
#X connect 13 0 12 0;
#X restore 593 143 pd change-wave-6;
#N canvas 14 50 969 539 seq3-multiknobs-here 0;
#X obj 147 63 r aux;
#X obj 516 146 r cgSc-1-slots;
#X obj 264 66 r \$0-reprint-port;
#X obj 716 146 r beat-clock;
#X obj 147 94 shortcut 1 1, f 20;
#N canvas 5 50 1009 708 seq3-5option-control 0;
#X obj 139 278 outlet;
#X obj 65 121 t b;
#X msg 65 143 2;
#X obj 298 126 t b;
#X msg 298 148 3;
#X text 437 5 when aux is pressed after recording starts immediatley
end the rec and play the loop;
#X obj 170 70 sel 0;
#X obj 202 94 t b;
#X msg 202 116 1;
#X obj 33 66 r cgSc-1-2;
#X obj 171 48 r cgSc-1-1;
#X obj 33 88 sel 0;
#X obj 266 99 sel 0;
#X obj 317 272 r seq3-1-actions;
#X obj 317 294 sel 1, f 12;
#X obj 398 327 t b, f 4;
#X obj 317 445 s cgSc-1-1label;
#X obj 507 308 r seq3-1-actions;
#X obj 588 353 t b, f 4;
#X obj 507 329 sel 2 3, f 12;
#X obj 978 320 t b, f 4;
#X msg 978 355 Latch:Off;
#X msg 896 355 Latch:On;
#X obj 507 441 s cgSc-1-2label;
#X text 521 279 print to the shortcut menu;
#X obj 378 141 f 0;
#X obj 130 0 r midi-start;
#X msg 130 22 4;
#X obj 373 105 r midi-stop;
#X obj 507 125 t b;
#X obj 475 98 sel 0;
#X msg 507 147 5;
#X obj 192 487 r seq3-1-actions;
#X obj 273 532 t b, f 4;
#X obj 192 508 sel 5, f 12;
#X obj 317 373 f;
#X msg 317 403 \$1Seq:Stop;
#X obj 398 372 f;
#X msg 398 402 \$1Seq:Play;
#X msg 507 399 \$1Rec:Armd;
#X msg 588 397 \$1Rec:On;
#X msg 659 398 \$1Rec:Off;
#X obj 507 374 f;
#X obj 582 373 f;
#X obj 649 370 f;
#X obj 273 554 f;
#X obj 192 560 f;
#X msg 192 607 \$1Dub:On;
#X obj 201 286 r cgSc-1-slots;
#X obj 201 329 t b f f;
#X obj 166 439 s seq3-1-actions;
#X obj 166 415 v seq3-1-state;
#X obj 201 309 + 1;
#X obj 668 299 + 1;
#X obj 668 251 r cgSc-1-slots;
#X obj 321 507 + 1;
#X obj 321 483 r cgSc-1-slots;
#X obj 559 76 sel 1;
#X obj 612 80 r seq3-1-actions;
#X obj 559 174 t b b;
#X msg 640 152 0;
#X obj 559 152 spigot 0;
#X msg 612 129 1;
#X msg 559 196 1;
#X obj 192 650 s cgSc-1-3label;
#X obj 475 71 r cgSc-1-3;
#X obj 559 52 r cgSc-1-aux;
#X obj 896 398 s cgSc-1-5label;
#X obj 267 72 r cgSc-1-5;
#X obj 358 53 t b;
#X obj 326 26 sel 0;
#X obj 326 2 r cgSc-1-4;
#X msg 358 75 6;
#X obj 465 480 r seq3-1-actions;
#X obj 507 558 f;
#X obj 584 501 + 1;
#X obj 584 477 r cgSc-1-slots;
#X obj 465 643 s cgSc-1-4label;
#X obj 612 104 sel 3, f 12;
#X msg 273 607 \$1Dub:Off;
#X obj 465 501 sel 6, f 10;
#X obj 532 526 t b;
#X obj 465 585 spigot 1;
#X obj 552 582 spigot 0;
#X obj 675 510 r seq3-1-actions;
#X obj 675 532 sel 3;
#X obj 591 537 ==;
#X obj 637 564 f;
#X msg 637 533 1;
#X msg 708 615 0;
#X msg 552 607 \$1:Undo;
#X msg 465 610 \$1:Undid;
#X obj 465 523 t b b;
#X obj 31 189 loadbang;
#X msg 31 211 0;
#X obj 23 341 r init-1-slot;
#X obj 23 363 s cgSc-1-slots;
#X obj 896 255 r seq3-1-togLatch;
#X obj 896 296 sel 1, f 12;
#X connect 1 0 2 0;
#X connect 2 0 0 0;
#X connect 3 0 4 0;
#X connect 4 0 0 0;
#X connect 6 1 7 0;
#X connect 7 0 8 0;
#X connect 8 0 0 0;
#X connect 9 0 11 0;
#X connect 10 0 6 0;
#X connect 11 1 1 0;
#X connect 12 1 3 0;
#X connect 13 0 14 0;
#X connect 14 0 35 0;
#X connect 14 1 15 0;
#X connect 15 0 37 0;
#X connect 17 0 19 0;
#X connect 18 0 44 0;
#X connect 19 0 42 0;
#X connect 19 1 43 0;
#X connect 19 2 18 0;
#X connect 20 0 21 0;
#X connect 21 0 67 0;
#X connect 22 0 67 0;
#X connect 25 0 0 0;
#X connect 26 0 27 0;
#X connect 27 0 0 0;
#X connect 28 0 25 0;
#X connect 29 0 31 0;
#X connect 30 1 29 0;
#X connect 31 0 0 0;
#X connect 32 0 34 0;
#X connect 33 0 45 0;
#X connect 34 0 46 0;
#X connect 34 1 33 0;
#X connect 35 0 36 0;
#X connect 36 0 16 0;
#X connect 37 0 38 0;
#X connect 38 0 16 0;
#X connect 39 0 23 0;
#X connect 40 0 23 0;
#X connect 41 0 23 0;
#X connect 42 0 39 0;
#X connect 43 0 40 0;
#X connect 44 0 41 0;
#X connect 45 0 79 0;
#X connect 46 0 47 0;
#X connect 47 0 64 0;
#X connect 48 0 52 0;
#X connect 49 0 51 0;
#X connect 49 1 35 1;
#X connect 49 2 37 1;
#X connect 51 0 50 0;
#X connect 52 0 49 0;
#X connect 53 0 44 1;
#X connect 53 0 43 1;
#X connect 53 0 42 1;
#X connect 54 0 53 0;
#X connect 55 0 45 1;
#X connect 55 0 46 1;
#X connect 56 0 55 0;
#X connect 57 0 61 0;
#X connect 58 0 78 0;
#X connect 59 0 63 0;
#X connect 59 1 60 0;
#X connect 60 0 61 1;
#X connect 61 0 59 0;
#X connect 62 0 61 1;
#X connect 63 0 0 0;
#X connect 65 0 30 0;
#X connect 66 0 57 0;
#X connect 68 0 12 0;
#X connect 69 0 72 0;
#X connect 70 1 69 0;
#X connect 71 0 70 0;
#X connect 72 0 0 0;
#X connect 73 0 80 0;
#X connect 74 0 82 0;
#X connect 74 0 83 0;
#X connect 75 0 74 1;
#X connect 76 0 75 0;
#X connect 78 0 62 0;
#X connect 79 0 64 0;
#X connect 80 0 92 0;
#X connect 80 1 81 0;
#X connect 81 0 74 0;
#X connect 82 0 91 0;
#X connect 83 0 90 0;
#X connect 84 0 85 0;
#X connect 85 0 88 0;
#X connect 86 0 82 1;
#X connect 87 0 86 0;
#X connect 87 0 83 1;
#X connect 88 0 87 0;
#X connect 89 0 87 0;
#X connect 90 0 77 0;
#X connect 91 0 77 0;
#X connect 92 0 74 0;
#X connect 92 1 89 0;
#X connect 93 0 94 0;
#X connect 94 0 0 0;
#X connect 95 0 96 0;
#X connect 97 0 98 0;
#X connect 98 0 22 0;
#X connect 98 1 20 0;
#X restore 286 113 pd seq3-5option-control;
#X obj 147 199 outlet;
#X obj 147 177 seq3-multipage 1 0 ../../sequences 1 0 1, f 86;
#X connect 0 0 4 0;
#X connect 1 0 7 2;
#X connect 2 0 4 1;
#X connect 3 0 7 3;
#X connect 4 0 7 0;
#X connect 5 0 7 1;
#X connect 7 0 6 0;
#X restore 371 118 pd seq3-multiknobs-here;
#X msg 75 143 0;
#X obj 75 50 declare -path patchmenu-kein-detent;
#X obj 76 92 versioncheck 3;
#X obj 75 229 patchmenu-kein-detent 2;
#X connect 1 0 20 0;
#X connect 2 0 18 0;
#X connect 2 1 0 0;
#X connect 3 0 2 0;
#X connect 11 0 10 0;
#X connect 17 0 9 0;
#X connect 18 0 21 0;
#X connect 20 0 2 0;
#X connect 21 0 7 0;
