#N canvas 240 432 450 300 10;
#X obj 139 27 r p\$1k\$2;
#X obj 139 49 s \$3;
#X obj 148 116 r \$3-label;
#X obj 148 159 list prepend \$2:;
#X obj 148 191 s p\$1s\$2;
#X obj 148 137 shortcut-mute-list 1;
#X connect 0 0 1 0;
#X connect 2 0 5 0;
#X connect 3 0 4 0;
#X connect 5 0 3 0;
