#N canvas 563 240 872 581 12;
#X obj 21 12 inlet;
#X obj 322 15 inlet;
#N canvas 849 324 694 300 messages 0;
#X obj 37 37 inlet;
#X obj 37 215 s \$0-sample-size;
#X obj 176 215 s \$0-speed;
#X obj 237 152 s \$0-start;
#X obj 326 239 s \$0-chunk;
#X obj 403 172 s \$0-loop;
#X obj 237 117 clip 0 1;
#X obj 404 150 clip 0 1;
#X obj 477 122 s \$0-ramp;
#X obj 37 61 route sample array speed start chunk loop ramp, f 70
;
#X obj 85 139 s \$0-array;
#X connect 0 0 9 0;
#X connect 6 0 3 0;
#X connect 7 0 5 0;
#X connect 9 0 1 0;
#X connect 9 1 10 0;
#X connect 9 2 2 0;
#X connect 9 3 6 0;
#X connect 9 4 4 0;
#X connect 9 5 7 0;
#X connect 9 6 8 0;
#X restore 322 44 pd messages;
#X obj 21 122 > 0;
#N canvas 896 170 666 798 calculate 0;
#X obj 16 14 inlet;
#X obj 16 43 t b b, f 15;
#X obj 118 74 s \$0-set;
#X obj 62 107 r \$0-sample-size;
#X obj 34 176 r \$0-chunk;
#X obj 34 238 r \$0-speed;
#X obj 34 262 abs;
#X obj 16 521 swap 1000;
#X obj 16 545 /, f 9;
#X obj 16 205 * 1;
#X obj 16 141 f 44100;
#X obj 16 433 / 44.1;
#X text 68 433 convert to ms;
#X obj 16 299 / 1;
#X text 24 498 calculate hz for phasor~;
#X text 86 138 get sample size;
#X text 188 74 set all the params;
#X text 47 205 get size of sample;
#X text 66 291 get the speed;
#X text 66 11 calculate the length of sample after params are set;
#X obj 16 689 pack 0 0;
#X obj 16 757 outlet~;
#X obj 69 659 r \$0-ramp;
#X obj 251 697 del, f 12;
#X obj 358 595 r \$0-stop;
#X obj 329 490 r \$0-loop;
#X obj 304 545 == 0;
#X obj 251 610 t b a;
#X obj 332 668 - 8;
#X obj 251 721 s \$0-auto-end;
#X text 273 470 one-shot or loop?;
#X obj 251 496 t a b;
#X obj 304 520 f \$1;
#X obj 251 575 spigot 0;
#X msg 358 619 stop;
#X obj 16 474 t a a, f 34;
#X obj 16 369 t a a;
#X obj 48 395 s \$0-convert-size;
#X obj 16 733 vline~;
#X obj 104 529 r \$0-speed;
#X obj 16 609 *;
#X obj 104 553 >= 0;
#X obj 104 577 sel 0 1, f 10;
#X obj 137 626 1;
#X obj 104 601 -1;
#X obj 16 333 max 715;
#X connect 0 0 1 0;
#X connect 1 0 10 0;
#X connect 1 1 2 0;
#X connect 3 0 10 1;
#X connect 4 0 9 1;
#X connect 5 0 6 0;
#X connect 6 0 13 1;
#X connect 7 0 8 0;
#X connect 7 1 8 1;
#X connect 8 0 40 0;
#X connect 9 0 13 0;
#X connect 10 0 9 0;
#X connect 11 0 35 0;
#X connect 13 0 45 0;
#X connect 20 0 38 0;
#X connect 22 0 20 1;
#X connect 23 0 29 0;
#X connect 24 0 34 0;
#X connect 25 0 32 1;
#X connect 26 0 33 1;
#X connect 27 0 23 0;
#X connect 27 1 28 0;
#X connect 28 0 23 1;
#X connect 31 0 33 0;
#X connect 31 1 32 0;
#X connect 32 0 26 0;
#X connect 33 0 27 0;
#X connect 34 0 23 0;
#X connect 35 0 7 0;
#X connect 35 1 31 0;
#X connect 36 0 11 0;
#X connect 36 1 37 0;
#X connect 38 0 21 0;
#X connect 39 0 41 0;
#X connect 40 0 20 0;
#X connect 41 0 42 0;
#X connect 42 0 44 0;
#X connect 42 1 43 0;
#X connect 43 0 40 1;
#X connect 44 0 40 1;
#X connect 45 0 36 0;
#X restore 21 232 pd calculate;
#X obj 21 146 sel 1 0, f 100;
#N canvas 4 50 962 660 attack/release-envelope 0;
#X obj 42 41 inlet~;
#X obj 42 315 *~;
#X obj 134 179 vline~;
#X obj 134 213 *~;
#X obj 61 222 sig~ 1;
#X obj 61 246 -~, f 11;
#X obj 42 389 outlet~;
#X obj 134 47 inlet;
#X obj 134 121 == 0;
#X obj 134 145 pack 0 8;
#X obj 134 71 t a a, f 30;
#X obj 341 109 sel 1 0, f 39;
#X obj 341 209 s \$0-2-switch;
#X obj 341 177 1;
#X obj 476 141 t b b;
#X msg 508 176 stop;
#X obj 476 236 0;
#X obj 476 260 s \$0-2-switch;
#X obj 532 141 r \$0-stop;
#X obj 341 133 t b b;
#X obj 476 212 del 8;
#X connect 0 0 1 0;
#X connect 1 0 6 0;
#X connect 2 0 3 0;
#X connect 2 0 3 1;
#X connect 3 0 5 1;
#X connect 4 0 5 0;
#X connect 5 0 1 1;
#X connect 7 0 10 0;
#X connect 8 0 9 0;
#X connect 9 0 2 0;
#X connect 10 0 8 0;
#X connect 10 1 11 0;
#X connect 11 0 19 0;
#X connect 11 1 14 0;
#X connect 13 0 12 0;
#X connect 14 0 20 0;
#X connect 14 1 15 0;
#X connect 15 0 20 0;
#X connect 16 0 17 0;
#X connect 18 0 15 0;
#X connect 19 0 13 0;
#X connect 19 1 15 0;
#X connect 20 0 16 0;
#X restore 22 439 pd attack/release-envelope;
#X f 45;
#X obj 21 316 phasor~;
#X obj 67 288 0;
#N canvas 1042 110 646 887 tabread 0;
#X obj 74 665 +~ 1;
#X obj 162 628 list prepend set;
#X obj 162 652 list trim;
#X obj 74 637 *~;
#X obj 92 587 - 2;
#X obj 74 758 outlet~;
#X obj 73 89 inlet~;
#X obj 74 401 +~, f 16;
#X obj 74 456 wrap~;
#X obj 350 552 outlet~;
#X obj 74 368 *~, f 11;
#X obj 183 313 r \$0-set;
#X obj 183 367 f;
#X obj 201 336 r \$0-start;
#X obj 74 724 tabread4~ \$2;
#X obj 162 594 r \$0-array;
#X obj 160 40 r \$0-sample-size;
#X obj 142 70 f;
#X obj 142 15 r \$0-set;
#X obj 270 161 swap 715;
#X obj 270 185 /, f 8;
#X obj 233 251 max;
#X obj 142 94 t b a a, f 45;
#X obj 142 181 f;
#X obj 160 150 r \$0-chunk;
#X connect 0 0 14 0;
#X connect 1 0 2 0;
#X connect 2 0 14 0;
#X connect 3 0 0 0;
#X connect 4 0 3 1;
#X connect 6 0 10 0;
#X connect 7 0 8 0;
#X connect 8 0 3 0;
#X connect 8 0 9 0;
#X connect 10 0 7 0;
#X connect 11 0 12 0;
#X connect 12 0 7 1;
#X connect 13 0 12 1;
#X connect 14 0 5 0;
#X connect 15 0 1 0;
#X connect 16 0 17 1;
#X connect 17 0 22 0;
#X connect 18 0 17 0;
#X connect 19 0 20 0;
#X connect 19 1 20 1;
#X connect 20 0 21 1;
#X connect 21 0 10 1;
#X connect 22 0 23 0;
#X connect 22 1 19 0;
#X connect 22 2 4 0;
#X connect 23 0 21 0;
#X connect 24 0 23 1;
#X restore 21 349 pd tabread;
#X obj 186 227 s \$0-stop;
#N canvas 410 181 450 490 orginal-start/end-env 0;
#X obj 37 37 inlet~;
#X obj 37 366 outlet~;
#X obj 118 37 inlet~;
#X obj 118 67 -~ 0.5;
#X obj 118 91 *~ 0.5;
#X obj 118 114 cos~;
#X obj 118 282 clip~ 0 1;
#X obj 37 341 *~;
#X text 266 61 amp;
#X obj 199 57 inlet;
#X obj 118 230 *~, f 12;
#X obj 199 111 / 221;
#X obj 199 135 clip 1 200;
#X connect 0 0 7 0;
#X connect 2 0 3 0;
#X connect 3 0 4 0;
#X connect 4 0 5 0;
#X connect 5 0 10 0;
#X connect 6 0 7 1;
#X connect 7 0 1 0;
#X connect 9 0 11 0;
#X connect 10 0 6 0;
#X connect 11 0 12 0;
#X connect 12 0 10 1;
#X restore 21 384 pd orginal-start/end-env;
#N canvas 4 50 595 554 phasor-envelope 0;
#X obj 47 47 inlet~;
#X obj 47 376 outlet~;
#X obj 128 47 inlet~;
#X obj 128 77 -~ 0.5;
#X obj 128 101 *~ 0.5;
#X obj 128 124 cos~;
#X obj 128 292 clip~ 0 1;
#X obj 47 351 *~;
#X text 276 71 amp;
#X obj 209 67 inlet;
#X obj 128 240 *~, f 12;
#X obj 209 149 / 221;
#X obj 209 173 clip 1 200;
#X connect 0 0 7 0;
#X connect 2 0 3 0;
#X connect 3 0 4 0;
#X connect 4 0 5 0;
#X connect 5 0 10 0;
#X connect 6 0 7 1;
#X connect 7 0 1 0;
#X connect 9 0 11 0;
#X connect 10 0 6 0;
#X connect 11 0 12 0;
#X connect 12 0 10 1;
#X restore 22 408 pd phasor-envelope;
#X obj 334 404 0;
#X obj 21 196 t b b b b, f 24;
#X obj 131 254 s \$0-begin;
#X obj 245 379 r \$0-begin;
#X obj 245 403 1;
#X obj 478 209 s \$0-stop;
#X obj 369 183 t b b, f 16;
#X obj 334 350 r \$0-auto-end;
#X obj 369 207 s \$0-end;
#X obj 345 376 r \$0-end;
#X obj 22 473 hip~ 5;
#X obj 22 507 outlet~;
#X text 71 476 dc offset;
#X text 511 51 Arg1: default loop? 0=off 1=on;
#X text 512 83 Arg2: default array name;
#X obj 568 319 r \$0-2-switch;
#X obj 568 360 outlet;
#X obj 186 341 r \$0-convert-size;
#X connect 0 0 3 0;
#X connect 1 0 2 0;
#X connect 3 0 5 0;
#X connect 4 0 7 0;
#X connect 5 0 14 0;
#X connect 5 1 19 0;
#X connect 6 0 23 0;
#X connect 7 0 9 0;
#X connect 7 0 12 1;
#X connect 8 0 7 1;
#X connect 9 0 11 0;
#X connect 9 1 11 1;
#X connect 11 0 12 0;
#X connect 12 0 6 0;
#X connect 13 0 6 1;
#X connect 14 0 4 0;
#X connect 14 1 8 0;
#X connect 14 2 15 0;
#X connect 14 3 10 0;
#X connect 16 0 17 0;
#X connect 17 0 6 1;
#X connect 19 0 21 0;
#X connect 19 1 18 0;
#X connect 20 0 13 0;
#X connect 22 0 13 0;
#X connect 23 0 24 0;
#X connect 28 0 29 0;
#X connect 30 0 12 2;
#X connect 30 0 11 2;
