#N canvas 525 406 450 300 12;
#X obj 21 16 inlet;
#X text 63 15 bang;
#X obj 21 79 i \$1;
#X obj 21 110 t a b, f 13;
#X obj 21 141 max 1;
#X obj 21 172 until;
#X obj 21 203 f, f 7;
#X obj 95 203 + 1;
#X obj 91 147 0;
#X obj 21 234 t a a;
#X obj 53 265 outlet;
#X obj 21 47 route bang;
#X connect 0 0 11 0;
#X connect 2 0 3 0;
#X connect 3 0 4 0;
#X connect 3 1 8 0;
#X connect 4 0 5 0;
#X connect 5 0 6 0;
#X connect 6 0 9 0;
#X connect 7 0 6 1;
#X connect 8 0 6 1;
#X connect 9 0 7 0;
#X connect 9 1 10 0;
#X connect 11 0 2 0;
#X connect 11 1 3 0;
