#N canvas 836 325 450 649 12;
#X obj 42 32 inlet;
#X obj 94 204 moses;
#X obj 94 57 t a b;
#X obj 126 89 f \$1;
#X obj 126 140 - \$2;
#X obj 94 248 /;
#X obj 143 280 t b;
#X obj 143 304 f \$1;
#X obj 143 508 outlet;
#X obj 137 237 moses;
#X obj 228 138 + \$2;
#X obj 191 276 -;
#X obj 191 300 /, f 9;
#X obj 126 167 t a a a;
#X obj 94 302 * \$1;
#X obj 191 404 *, f 17;
#X obj 191 458 + \$1;
#X obj 282 204 swap 1;
#X obj 282 228 -;
#X obj 228 164 t a a a;
#X obj 125 112 t a a a, f 28;
#X obj 345 207 swap 1;
#X obj 345 231 -;
#X connect 0 0 2 0;
#X connect 1 0 5 0;
#X connect 1 1 9 0;
#X connect 2 0 1 0;
#X connect 2 1 3 0;
#X connect 3 0 20 0;
#X connect 4 0 13 0;
#X connect 5 0 14 0;
#X connect 6 0 7 0;
#X connect 7 0 8 0;
#X connect 9 0 6 0;
#X connect 9 1 11 0;
#X connect 10 0 19 0;
#X connect 11 0 12 0;
#X connect 12 0 15 0;
#X connect 13 0 1 1;
#X connect 13 1 5 1;
#X connect 14 0 8 0;
#X connect 15 0 16 0;
#X connect 16 0 8 0;
#X connect 17 0 18 0;
#X connect 17 1 18 1;
#X connect 18 0 12 1;
#X connect 19 0 9 1;
#X connect 19 1 11 1;
#X connect 19 2 17 0;
#X connect 20 0 4 0;
#X connect 20 1 10 0;
#X connect 20 2 21 0;
#X connect 21 0 22 0;
#X connect 21 1 22 1;
#X connect 22 0 15 1;
