#N canvas 730 149 921 674 12;
#X obj 32 15 inlet;
#X obj 322 15 inlet;
#N canvas 849 324 694 300 messages 0;
#X obj 37 37 inlet;
#X obj 37 215 s \$0-sample-size;
#X obj 85 139 s \$0-table;
#X obj 176 215 s \$0-speed;
#X obj 237 152 s \$0-start;
#X obj 326 239 s \$0-chunk;
#X obj 403 172 s \$0-loop;
#X obj 237 117 clip 0 1;
#X obj 404 150 clip 0 1;
#X obj 37 61 route sample table speed start chunk loop ramp, f 70
;
#X obj 477 122 s \$0-ramp;
#X obj 326 211 clip 0 1;
#X connect 0 0 9 0;
#X connect 7 0 4 0;
#X connect 8 0 6 0;
#X connect 9 0 1 0;
#X connect 9 1 2 0;
#X connect 9 2 3 0;
#X connect 9 3 7 0;
#X connect 9 4 11 0;
#X connect 9 5 8 0;
#X connect 9 6 10 0;
#X connect 11 0 5 0;
#X restore 322 44 pd messages;
#X obj 33 588 hip~ 5;
#N canvas 1083 153 646 597 tabread 0;
#X obj 74 465 +~ 1;
#X obj 162 438 list prepend set;
#X obj 162 462 list trim;
#X obj 162 404 r \$0-table;
#X obj 74 437 *~;
#X obj 92 387 - 2;
#X obj 74 558 outlet~;
#X obj 73 169 inlet~;
#X obj 74 292 +~, f 16;
#X obj 74 316 wrap~;
#X obj 338 538 outlet~;
#X obj 74 494 tabread4~ \$1;
#X obj 74 248 *~, f 11;
#X obj 92 363 r \$0-sample-size;
#X obj 148 211 r \$0-set-chunk;
#X obj 183 255 r \$0-set-start;
#X connect 0 0 11 0;
#X connect 1 0 2 0;
#X connect 2 0 11 0;
#X connect 3 0 1 0;
#X connect 4 0 0 0;
#X connect 5 0 4 1;
#X connect 7 0 12 0;
#X connect 8 0 9 0;
#X connect 9 0 4 0;
#X connect 9 0 10 0;
#X connect 11 0 6 0;
#X connect 12 0 8 0;
#X connect 13 0 5 0;
#X connect 14 0 12 1;
#X connect 15 0 8 1;
#X restore 33 433 pd tabread;
#X f 24;
#N canvas 348 71 1309 920 calculate 0;
#X obj 202 35 r \$0-chunk;
#X obj 163 11 inlet;
#X obj 163 35 t b;
#X obj 163 520 / 44.1;
#X text 215 516 convert to ms;
#X text 498 631 convert to hz;
#X obj 431 631 swap 1000;
#X obj 431 655 /, f 9;
#X obj 237 578 s \$0-length-ms;
#X obj 431 743 line~;
#X obj 431 888 outlet~;
#X obj 491 688 r \$0-ramp;
#X obj 431 719 pack 0 10;
#X obj 293 441 r \$0-sample-size;
#X obj 209 378 r \$0-speed;
#X obj 163 472 * 44100, f 19;
#X obj 163 420 / 1, f 7;
#X obj 163 61 f 1, f 6;
#X obj 279 113 s \$0-set-chunk;
#X obj 163 85 t a b a, f 17;
#X obj 221 202 s \$0-set-start;
#X obj 221 173 f;
#X obj 239 142 r \$0-start;
#X obj 431 818 phasor~;
#X obj 477 792 0;
#X obj 431 862 *~, f 29;
#X obj 631 807 1;
#X obj 313 690 0;
#X obj 163 684 vline~;
#X obj 163 634 pack 1 0;
#X obj 163 601 t b a;
#X msg 227 647 0 0;
#X obj 356 682 0;
#X obj 163 758 *~;
#X obj 291 651 1;
#X text 521 312 loop;
#X text 206 319 one shot;
#X obj 398 202 r \$0-loop;
#X obj 163 247 list prepend, f 34;
#X obj 163 271 list trim;
#X obj 163 295 route 0 1, f 77;
#X obj 431 515 / 44.1;
#X text 483 516 convert to ms;
#X obj 561 441 r \$0-sample-size;
#X obj 477 368 r \$0-speed;
#X obj 431 472 * 44100, f 19;
#X obj 431 443 / 1, f 7;
#X obj 477 392 t b a;
#X obj 163 335 t a b b b, f 28;
#X obj 431 336 t a b b b, f 28;
#X obj 163 551 t a b a, f 11;
#X obj 44 575 moses 0;
#X obj 44 599 t b;
#X obj 44 623 1;
#X obj 90 599 t b;
#X obj 90 623 0;
#X obj 44 657 sig~;
#X obj 44 681 -~, f 11;
#X obj 44 705 abs~;
#X obj 163 496 abs;
#N canvas 4 50 450 300 del-8 0;
#X obj 39 8 inlet;
#X obj 161 186 del;
#X obj 179 132 r \$0-length-ms;
#X obj 161 35 r \$0-stop;
#X msg 161 59 stop;
#X obj 161 210 0;
#X obj 161 234 s \$0-2-duck;
#X obj 179 156 - 8;
#X connect 0 0 1 0;
#X connect 1 0 5 0;
#X connect 2 0 7 0;
#X connect 3 0 4 0;
#X connect 4 0 1 0;
#X connect 5 0 6 0;
#X connect 7 0 1 1;
#X restore 217 607 pd del-8;
#X obj 163 444 t a a;
#X connect 0 0 17 1;
#X connect 1 0 2 0;
#X connect 2 0 17 0;
#X connect 3 0 50 0;
#X connect 6 0 7 0;
#X connect 6 1 7 1;
#X connect 7 0 12 0;
#X connect 9 0 23 0;
#X connect 11 0 12 1;
#X connect 12 0 9 0;
#X connect 13 0 15 1;
#X connect 14 0 16 1;
#X connect 15 0 59 0;
#X connect 16 0 61 0;
#X connect 17 0 19 0;
#X connect 19 0 38 0;
#X connect 19 1 21 0;
#X connect 19 2 18 0;
#X connect 21 0 20 0;
#X connect 22 0 21 1;
#X connect 23 0 25 0;
#X connect 24 0 23 1;
#X connect 25 0 10 0;
#X connect 26 0 25 1;
#X connect 27 0 33 1;
#X connect 28 0 57 1;
#X connect 29 0 28 0;
#X connect 30 0 29 0;
#X connect 30 1 29 1;
#X connect 31 0 28 0;
#X connect 32 0 25 1;
#X connect 33 0 10 0;
#X connect 34 0 33 1;
#X connect 37 0 38 1;
#X connect 38 0 39 0;
#X connect 39 0 40 0;
#X connect 40 0 48 0;
#X connect 40 1 49 0;
#X connect 41 0 6 0;
#X connect 43 0 45 1;
#X connect 44 0 47 0;
#X connect 45 0 41 0;
#X connect 46 0 45 0;
#X connect 47 0 46 0;
#X connect 47 1 46 1;
#X connect 48 0 16 0;
#X connect 48 1 31 0;
#X connect 48 2 34 0;
#X connect 48 3 32 0;
#X connect 49 0 46 0;
#X connect 49 1 24 0;
#X connect 49 2 26 0;
#X connect 49 3 27 0;
#X connect 50 0 30 0;
#X connect 50 1 60 0;
#X connect 50 2 8 0;
#X connect 51 0 52 0;
#X connect 51 1 54 0;
#X connect 52 0 53 0;
#X connect 53 0 56 0;
#X connect 54 0 55 0;
#X connect 55 0 56 0;
#X connect 56 0 57 0;
#X connect 57 0 58 0;
#X connect 58 0 33 0;
#X connect 59 0 3 0;
#X connect 61 0 51 0;
#X connect 61 1 15 0;
#X restore 32 331 pd calculate;
#N canvas 121 146 450 300 orginal-start/end-env 0;
#X obj 37 37 inlet~;
#X obj 37 246 outlet~;
#X obj 118 37 inlet~;
#X obj 118 67 -~ 0.5;
#X obj 118 91 *~ 0.5;
#X obj 118 114 cos~;
#X obj 118 162 clip~ 0 1;
#X obj 37 221 *~;
#X obj 118 138 *~ 1000;
#X obj 208 109 max 1;
#X obj 208 85 / 5;
#X obj 208 56 r \$0-length-ms;
#X connect 0 0 7 0;
#X connect 2 0 3 0;
#X connect 3 0 4 0;
#X connect 4 0 5 0;
#X connect 5 0 8 0;
#X connect 6 0 7 1;
#X connect 7 0 1 0;
#X connect 8 0 6 0;
#X connect 9 0 8 1;
#X connect 10 0 9 0;
#X connect 11 0 10 0;
#X restore 33 472 pd orginal-start/end-env;
#X obj 33 632 outlet~;
#X obj 32 182 sel 1 0, f 66;
#X obj 261 221 t b b;
#X obj 32 152 > 0;
#X text 333 116 Arg1: array name;
#N canvas 121 146 450 300 window 0;
#X obj 37 37 inlet~;
#X obj 37 246 outlet~;
#X obj 118 37 inlet~;
#X obj 118 67 -~ 0.5;
#X obj 118 91 *~ 0.5;
#X obj 118 114 cos~;
#X obj 118 162 clip~ 0 1;
#X obj 37 221 *~;
#X obj 118 138 *~ 1000;
#X obj 208 109 max 1;
#X obj 208 85 / 5;
#X obj 208 56 r \$0-length-ms;
#X connect 0 0 7 0;
#X connect 2 0 3 0;
#X connect 3 0 4 0;
#X connect 4 0 5 0;
#X connect 5 0 8 0;
#X connect 6 0 7 1;
#X connect 7 0 1 0;
#X connect 8 0 6 0;
#X connect 9 0 8 1;
#X connect 10 0 9 0;
#X connect 11 0 10 0;
#X restore 33 513 pd window;
#X f 11;
#N canvas 363 241 705 447 attack-release 0;
#X obj 37 37 inlet~;
#X obj 37 192 *~, f 12;
#X obj 118 157 vline~;
#X obj 118 38 inlet;
#X obj 37 246 outlet~;
#X obj 118 62 t a a;
#X obj 219 183 t b b;
#X msg 251 214 stop;
#X obj 288 171 r \$0-stop;
#X obj 219 318 s \$0-2-switch;
#X obj 219 277 0;
#X obj 219 119 sel 0 1, f 28;
#X obj 327 226 1;
#X obj 217 254 del 8;
#X obj 118 121 pack 0 8;
#X connect 0 0 1 0;
#X connect 1 0 4 0;
#X connect 2 0 1 1;
#X connect 3 0 5 0;
#X connect 5 0 14 0;
#X connect 5 1 11 0;
#X connect 6 0 13 0;
#X connect 6 1 7 0;
#X connect 7 0 13 0;
#X connect 8 0 7 0;
#X connect 10 0 9 0;
#X connect 11 0 6 0;
#X connect 11 1 12 0;
#X connect 12 0 9 0;
#X connect 13 0 10 0;
#X connect 14 0 2 0;
#X restore 33 557 pd attack-release;
#X f 36;
#X obj 465 530 switch~;
#X obj 465 445 r \$0-2-switch;
#X obj 245 298 s \$0-stop;
#X obj 245 460 0;
#X obj 560 528 outlet;
#X obj 465 489 t a a, f 14;
#X obj 32 219 t b b b, f 27;
#X obj 282 464 1;
#X obj 268 407 r \$0-2-duck;
#X connect 0 0 10 0;
#X connect 1 0 2 0;
#X connect 3 0 7 0;
#X connect 4 0 6 0;
#X connect 4 1 6 1;
#X connect 5 0 4 0;
#X connect 5 0 12 1;
#X connect 6 0 12 0;
#X connect 8 0 20 0;
#X connect 8 1 9 0;
#X connect 9 0 17 0;
#X connect 9 1 16 0;
#X connect 10 0 8 0;
#X connect 12 0 13 0;
#X connect 13 0 3 0;
#X connect 15 0 19 0;
#X connect 17 0 13 1;
#X connect 19 0 14 0;
#X connect 19 1 18 0;
#X connect 20 0 5 0;
#X connect 20 1 21 0;
#X connect 20 2 16 0;
#X connect 21 0 13 1;
#X connect 22 0 17 0;
