#N canvas 315 206 976 613 12;
#X obj 69 23 r~ inL;
#X obj 244 124 spigot 0;
#X obj 329 125 0;
#X obj 68 313 *~;
#X obj 86 260 vline~;
#X obj 86 285 sqrt~;
#X obj 86 229 pack 0 8;
#X obj 244 148 t b b b;
#X obj 68 365 tabwrite~ buffy;
#X obj 360 274 array define buffy 44100;
#X text 411 238 1 second buffer;
#X obj 279 493 soundfiler;
#X floatatom 354 402 5 0 0 0 - - -;
#X obj 373 351 bng 15 250 50 0 empty empty empty 17 7 0 10 -262144
-1 -1;
#X obj 414 371 + 1;
#X obj 323 430 f;
#X obj 305 397 bng 15 250 50 0 empty empty empty 17 7 0 10 -262144
-1 -1;
#X obj 459 12 bng 15 250 50 0 empty empty empty 17 7 0 10 -262144 -1
-1;
#X obj 459 32 t b b;
#X obj 456 91 1;
#X obj 257 227 delay 992;
#X obj 257 251 0;
#X obj 244 172 1;
#X obj 597 187 vline~;
#X msg 597 163 0 0 \, 1 1000 0;
#X obj 597 211 *~ 44098;
#X obj 597 235 +~ 1;
#X obj 598 294 *~ 0.8;
#X obj 598 318 throw~ outL;
#X obj 340 159 bng 15 250 50 0 empty empty empty 17 7 0 10 -262144
-1 -1;
#X obj 353 20 bng 15 250 50 0 empty empty empty 17 7 0 10 -262144 -1
-1;
#X obj 244 84 threshold~ 0.05 5 0.1715 5;
#X msg 409 154 \; buffy normalize;
#X obj 69 87 delwrite~ \$0-wow 15;
#X obj 67 172 delread~ \$0-wow 15;
#X obj 373 371 f 1;
#X msg 279 463 write -wave j-count/jeremy-\$1 buffy;
#X obj 598 274 tabread4~ buffy;
#X connect 0 0 31 0;
#X connect 0 0 33 0;
#X connect 1 0 7 0;
#X connect 2 0 1 1;
#X connect 3 0 8 0;
#X connect 4 0 5 0;
#X connect 5 0 3 1;
#X connect 6 0 4 0;
#X connect 7 0 22 0;
#X connect 7 1 8 0;
#X connect 7 2 2 0;
#X connect 7 2 20 0;
#X connect 7 2 29 0;
#X connect 12 0 15 1;
#X connect 13 0 35 0;
#X connect 14 0 35 1;
#X connect 15 0 36 0;
#X connect 16 0 15 0;
#X connect 17 0 18 0;
#X connect 18 0 19 0;
#X connect 19 0 1 1;
#X connect 20 0 21 0;
#X connect 21 0 6 0;
#X connect 22 0 6 0;
#X connect 23 0 25 0;
#X connect 24 0 23 0;
#X connect 25 0 26 0;
#X connect 26 0 37 0;
#X connect 27 0 28 0;
#X connect 31 0 1 0;
#X connect 31 0 30 0;
#X connect 34 0 3 0;
#X connect 35 0 14 0;
#X connect 35 0 12 0;
#X connect 36 0 11 0;
#X connect 37 0 27 0;
