#N canvas 324 349 1138 527 12;
#X obj 26 28 inlet;
#X obj 26 295 outlet;
#X obj 178 24 inlet;
#X text 235 23 wave sel;
#X text 69 27 0-1;
#X obj 26 82 list prepend;
#X obj 26 106 list trim;
#X text 31 231 sawtooth;
#N canvas 353 378 450 300 triangle 0;
#X obj 50 31 inlet;
#X obj 50 68 * 2;
#X obj 50 92 moses 1;
#X obj 106 152 swap 1;
#X obj 106 176 -;
#X obj 104 121 - 1;
#X obj 53 229 outlet;
#X connect 0 0 1 0;
#X connect 1 0 2 0;
#X connect 2 0 6 0;
#X connect 2 1 5 0;
#X connect 3 0 4 0;
#X connect 3 1 4 1;
#X connect 4 0 6 0;
#X connect 5 0 3 0;
#X restore 202 201 pd triangle;
#N canvas 382 407 450 300 inverse-saw 0;
#X obj 56 18 inlet;
#X obj 56 102 swap 1;
#X obj 56 126 -;
#X obj 56 150 outlet;
#X obj 145 46 r global-step;
#X obj 145 83 swap 1;
#X obj 145 107 -;
#X connect 0 0 1 0;
#X connect 1 0 2 0;
#X connect 1 1 2 1;
#X connect 2 0 3 0;
#X connect 4 0 5 0;
#X connect 5 0 6 0;
#X connect 5 1 6 1;
#X connect 6 0 1 1;
#X restore 87 204 pd inverse-saw;
#N canvas 411 436 450 300 square 0;
#X obj 44 17 inlet;
#X obj 44 65 moses 0.5;
#X obj 44 89 t b;
#X obj 44 113 0;
#X obj 103 89 t b;
#X obj 44 167 outlet;
#X obj 103 113 0.5;
#X connect 0 0 1 0;
#X connect 1 0 2 0;
#X connect 1 1 4 0;
#X connect 2 0 3 0;
#X connect 3 0 5 0;
#X connect 4 0 6 0;
#X connect 6 0 5 0;
#X restore 294 202 pd square;
#N canvas 411 436 450 300 random 0;
#X obj 44 17 inlet;
#X obj 44 167 outlet;
#X obj 44 65 t b;
#X obj 44 89 random 100;
#X obj 44 113 / 100;
#X connect 0 0 2 0;
#X connect 2 0 3 0;
#X connect 3 0 4 0;
#X connect 4 0 1 0;
#X restore 487 237 pd random;
#X obj 26 151 route 0 1 2 3 4 5, f 75;
#N canvas 4 50 450 300 sine 1;
#X obj 22 14 inlet;
#X obj 22 53 * 6.28319;
#X obj 22 147 + 0.5;
#X obj 22 123 * 0.5;
#X obj 22 82 sin;
#X obj 22 171 outlet;
#X connect 0 0 1 0;
#X connect 1 0 4 0;
#X connect 2 0 5 0;
#X connect 3 0 2 0;
#X connect 4 0 3 0;
#X restore 383 207 pd sine;
#X connect 0 0 5 0;
#X connect 2 0 5 1;
#X connect 5 0 6 0;
#X connect 6 0 12 0;
#X connect 8 0 1 0;
#X connect 9 0 1 0;
#X connect 10 0 1 0;
#X connect 11 0 1 0;
#X connect 12 0 1 0;
#X connect 12 1 9 0;
#X connect 12 2 8 0;
#X connect 12 3 10 0;
#X connect 12 4 13 0;
#X connect 12 5 11 0;
#X connect 13 0 1 0;
