#N canvas 372 121 991 885 12;
#X obj 16 8 inlet;
#X text 121 12 note pair;
#X obj 369 33 inlet;
#X text 410 36 messages;
#N canvas 224 50 1248 1007 calculate 0;
#X obj 365 132 tabread sample-bank-sizes;
#X obj 32 15 inlet;
#X text 73 15 note number 1-24;
#X obj 32 76 t a a, f 48;
#X obj 365 197 v \$0-sb-size;
#X obj 32 39 - 1;
#X obj 64 412 tabwrite sample-progress, f 32;
#X obj 32 120 t a a, f 32;
#X obj 32 378 t f f;
#X text 92 388 update progress;
#X text 85 152 get current progress;
#X obj 365 156 max 1;
#X obj 64 746 i;
#X obj 32 863 -;
#X obj 64 664 v \$0-sb-size;
#X obj 119 956 outlet;
#X obj 173 956 outlet;
#X text 240 942 outlets to target the 2 array players;
#X obj 32 950 outlet;
#X obj 32 293 moses 1;
#X obj 78 322 t b;
#X obj 78 346 0;
#X obj 173 899 %;
#X obj 229 828 v \$0-sb-size;
#X text 400 106 get size of bank;
#X obj 32 172 tabread sample-progress;
#X text 94 293 Loop it;
#X obj 32 199 t a b;
#X obj 32 259 +;
#X text 59 260 add it;
#X obj 32 907 abs;
#X obj 32 630 t a b;
#X obj 32 694 *;
#X obj 32 718 t a a;
#X obj 173 840 + 1;
#X obj 119 918 + 1;
#X obj 173 923 + 1;
#X text 84 638 scale to size;
#X msg 429 166 4;
#X obj 64 772 max 0;
#X obj 64 797 t a a a b, f 24;
#X obj 229 852 t a a;
#X obj 119 884 %;
#X obj 113 463 r global-phase;
#X text 128 499 set phase;
#X obj 32 526 wrap;
#X obj 32 502 + 0, f 12;
#N canvas 633 229 450 523 step 0;
#X obj 36 28 inlet;
#X obj 36 244 outlet;
#X obj 36 106 1;
#X text 97 127 sample amt;
#X text 69 192 step amt;
#X obj 36 130 / 2, f 7;
#X obj 36 194 / 1;
#X obj 82 98 v \$0-sb-size;
#X obj 36 59 t b b;
#X obj 54 159 r global-step;
#X connect 0 0 8 0;
#X connect 2 0 5 0;
#X connect 5 0 6 0;
#X connect 6 0 1 0;
#X connect 7 0 5 1;
#X connect 8 0 2 0;
#X connect 8 1 7 0;
#X connect 9 0 6 1;
#X restore 64 224 pd step;
#X obj 802 301 waveform-select;
#X obj 904 269 r global-wave-sel;
#X connect 0 0 11 0;
#X connect 1 0 5 0;
#X connect 3 0 7 0;
#X connect 3 1 0 0;
#X connect 5 0 3 0;
#X connect 7 0 25 0;
#X connect 7 1 6 1;
#X connect 8 0 46 0;
#X connect 8 1 6 0;
#X connect 11 0 4 0;
#X connect 12 0 39 0;
#X connect 13 0 30 0;
#X connect 14 0 32 1;
#X connect 19 0 8 0;
#X connect 19 1 20 0;
#X connect 20 0 21 0;
#X connect 21 0 8 0;
#X connect 22 0 36 0;
#X connect 23 0 41 0;
#X connect 25 0 27 0;
#X connect 27 0 28 0;
#X connect 27 1 47 0;
#X connect 28 0 19 0;
#X connect 30 0 18 0;
#X connect 31 0 32 0;
#X connect 31 1 14 0;
#X connect 32 0 33 0;
#X connect 33 0 13 0;
#X connect 33 1 12 0;
#X connect 34 0 22 0;
#X connect 35 0 15 0;
#X connect 36 0 16 0;
#X connect 38 0 4 0;
#X connect 39 0 40 0;
#X connect 40 0 13 1;
#X connect 40 1 42 0;
#X connect 40 2 34 0;
#X connect 40 3 23 0;
#X connect 41 0 42 1;
#X connect 41 1 22 1;
#X connect 42 0 35 0;
#X connect 43 0 46 1;
#X connect 45 0 31 0;
#X connect 46 0 45 0;
#X connect 47 0 28 1;
#X connect 49 0 48 1;
#X restore 97 274 pd calculate;
#X obj 369 57 s \$0-mess;
#X obj 623 475 r \$0-mess;
#X obj 623 530 list trim;
#X obj 129 234 s \$0-bank-number;
#X obj 540 128 r \$0-bank-number;
#X obj 540 219 list trim;
#X obj 540 195 list prepend set;
#X obj 572 356 makefilename;
#X obj 540 166 makefilename sounds-%d-%%d;
#X obj 540 243 t a a;
#X obj 48 782 outlet~;
#X obj 48 742 hip~ 5;
#X obj 716 472 list prepend sample;
#X obj 716 448 array size;
#X obj 572 380 t a a, f 21;
#X obj 716 416 t b a;
#X obj 201 457 r \$0-mess;
#X obj 201 512 list trim;
#X obj 150 338 makefilename;
#X obj 294 453 list prepend sample;
#X obj 294 429 array size;
#X obj 150 362 t a a, f 21;
#X obj 294 397 t b a;
#X obj 16 62 swap, f 20;
#X obj 16 86 sel 0;
#X obj 81 142 f, f 5;
#X obj 16 162 0;
#X obj 16 38 unpack 0 0, f 20;
#X obj 97 194 t a a;
#X obj 48 712 *~, f 44;
#X obj 352 632 pack 0 8;
#X obj 212 149 1;
#X obj 16 186 t a a;
#X obj 48 378 t a a;
#X obj 48 648 xfade~ 10, f 20;
#X obj 150 420 list prepend array;
#X obj 572 438 list prepend array;
#X obj 615 798 switch~;
#X obj 615 658 || 0;
#X obj 636 633 t b a;
#X obj 352 666 vline~;
#X obj 615 682 sel 0 1;
#X obj 615 768 0;
#X obj 615 744 del 8;
#X msg 532 695 stop;
#X obj 48 114 t a b b b, f 30;
#X obj 260 160 s \$0-stop;
#X obj 532 665 r \$0-stop;
#X obj 661 720 t b b;
#X obj 661 744 1;
#X obj 48 568 cg-basic-play-array~ 0;
#X obj 528 568 cg-basic-play-array~ 0;
#X connect 0 0 32 0;
#X connect 2 0 5 0;
#X connect 4 0 39 2;
#X connect 4 1 23 0;
#X connect 4 2 12 0;
#X connect 6 0 7 0;
#X connect 7 0 56 1;
#X connect 9 0 13 0;
#X connect 10 0 14 0;
#X connect 11 0 10 0;
#X connect 12 0 19 0;
#X connect 13 0 11 0;
#X connect 14 0 23 0;
#X connect 14 1 12 0;
#X connect 16 0 15 0;
#X connect 17 0 7 0;
#X connect 18 0 17 0;
#X connect 19 0 41 0;
#X connect 19 1 20 0;
#X connect 20 0 18 0;
#X connect 20 1 18 1;
#X connect 21 0 22 0;
#X connect 22 0 55 1;
#X connect 23 0 26 0;
#X connect 24 0 22 0;
#X connect 25 0 24 0;
#X connect 26 0 40 0;
#X connect 26 1 27 0;
#X connect 27 0 25 0;
#X connect 27 1 25 1;
#X connect 28 0 29 0;
#X connect 28 1 30 1;
#X connect 29 0 31 0;
#X connect 29 1 50 0;
#X connect 30 0 33 0;
#X connect 31 0 37 0;
#X connect 32 0 28 0;
#X connect 32 1 28 1;
#X connect 33 0 4 0;
#X connect 33 1 8 0;
#X connect 34 0 16 0;
#X connect 35 0 45 0;
#X connect 36 0 35 0;
#X connect 37 0 38 0;
#X connect 37 1 35 0;
#X connect 38 0 55 0;
#X connect 38 1 56 0;
#X connect 39 0 34 0;
#X connect 40 0 22 0;
#X connect 41 0 7 0;
#X connect 43 0 46 0;
#X connect 44 0 43 0;
#X connect 44 1 43 1;
#X connect 45 0 34 1;
#X connect 46 0 48 0;
#X connect 46 1 53 0;
#X connect 47 0 42 0;
#X connect 48 0 47 0;
#X connect 49 0 48 0;
#X connect 50 0 38 0;
#X connect 50 1 30 0;
#X connect 50 2 36 0;
#X connect 50 3 51 0;
#X connect 52 0 49 0;
#X connect 53 0 54 0;
#X connect 53 1 49 0;
#X connect 54 0 42 0;
#X connect 55 0 39 0;
#X connect 55 1 43 0;
#X connect 56 0 39 1;
#X connect 56 1 44 0;
