#N canvas 141 67 1468 896 10;
#X obj 29 87 bng 15 250 50 0 empty empty empty 17 7 0 10 -262144 -1
-1;
#X obj 429 87 bng 15 250 50 0 empty empty empty 17 7 0 10 -262144 -1
-1;
#X obj 226 86 bng 15 250 50 0 empty empty empty 17 7 0 10 -262144 -1
-1;
#X obj 621 89 bng 15 250 50 0 empty empty empty 17 7 0 10 -262144 -1
-1;
#X obj 819 88 bng 15 250 50 0 empty empty empty 17 7 0 10 -262144 -1
-1;
#X obj 1005 85 bng 15 250 50 0 empty empty empty 17 7 0 10 -262144
-1 -1;
#X obj 428 137 bng 15 250 50 0 empty empty empty 17 7 0 10 -262144
-1 -1;
#X obj 225 135 bng 15 250 50 0 empty empty empty 17 7 0 10 -262144
-1 -1;
#X obj 621 137 bng 15 250 50 0 empty empty empty 17 7 0 10 -262144
-1 -1;
#X obj 817 134 bng 15 250 50 0 empty empty empty 17 7 0 10 -262144
-1 -1;
#X obj 1007 133 bng 15 250 50 0 empty empty empty 17 7 0 10 -262144
-1 -1;
#X obj 430 185 bng 15 250 50 0 empty empty empty 17 7 0 10 -262144
-1 -1;
#X obj 225 188 bng 15 250 50 0 empty empty empty 17 7 0 10 -262144
-1 -1;
#X obj 621 186 bng 15 250 50 0 empty empty empty 17 7 0 10 -262144
-1 -1;
#X obj 817 187 bng 15 250 50 0 empty empty empty 17 7 0 10 -262144
-1 -1;
#X obj 1010 185 bng 15 250 50 0 empty empty empty 17 7 0 10 -262144
-1 -1;
#X obj 29 135 bng 15 250 50 0 empty empty empty 17 7 0 10 -262144 -1
-1;
#X obj 29 185 bng 15 250 50 0 empty empty empty 17 7 0 10 -262144 -1
-1;
#X obj 431 235 bng 15 250 50 0 empty empty empty 17 7 0 10 -262144
-1 -1;
#X obj 226 236 bng 15 250 50 0 empty empty empty 17 7 0 10 -262144
-1 -1;
#X obj 622 237 bng 15 250 50 0 empty empty empty 17 7 0 10 -262144
-1 -1;
#X obj 820 236 bng 15 250 50 0 empty empty empty 17 7 0 10 -262144
-1 -1;
#X obj 1010 239 bng 15 250 50 0 empty empty empty 17 7 0 10 -262144
-1 -1;
#X obj 29 234 bng 15 250 50 0 empty empty empty 17 7 0 10 -262144 -1
-1;
#X text 29 41 Sampler Manager;
#X text 292 10 -Each subpatch represents a key on the organelle. -Pass
the sound file name as an argument to sampler-voice \, this replaces
\$1 inside sampler-voice. -The sound files must be in the folder with
this patch.;
#X obj 37 518 sequencer2;
#X obj 529 668 throw~ outL;
#X obj 412 663 throw~ outR;
#X obj 358 466 catch~ samp_voice_out;
#X obj 36 345 loadbang;
#X obj 29 110 sampler-voice 1.wav 0;
#X obj 1228 465 i;
#X obj 1228 436 * 100;
#X obj 1228 409 moses 0.98;
#X msg 1302 456 bang;
#X obj 1228 487 change -1;
#X obj 1228 386 r knob2;
#X msg 1229 522 2: Decay \$1 %;
#X msg 1302 477 2: Decay Off;
#X obj 1228 543 s screenLine2;
#X obj 1301 498 s screenLine2;
#X obj 539 454 t f f;
#X obj 541 479 *;
#X obj 541 505 * 1000;
#X obj 538 429 r knob3;
#X obj 589 538 r knob4;
#X obj 1029 485 i;
#X obj 1029 507 change -1;
#X obj 1029 406 r knob3;
#X obj 1029 437 * 1000;
#X obj 1028 465 + 1;
#X obj 1029 555 s screenLine3;
#X msg 1030 532 3: Delay Time \$1 ms;
#X obj 1242 679 i;
#X obj 1242 701 change -1;
#X obj 1242 600 r knob4;
#X obj 1242 631 * 100;
#X obj 1241 659 + 0;
#X msg 1243 726 4: Feedback \$1 %;
#X obj 1242 749 s screenLine4;
#X obj 226 110 sampler-voice 2.wav 1;
#X obj 429 110 sampler-voice 3.wav 2;
#X obj 621 109 sampler-voice 4.wav 3;
#X obj 819 109 sampler-voice 5.wav 4;
#X obj 1005 108 sampler-voice 6.wav 5;
#X obj 29 158 sampler-voice 7.wav 6;
#X obj 225 157 sampler-voice 8.wav 7;
#X obj 428 159 sampler-voice 9.wav 8;
#X obj 621 160 sampler-voice 10.wav 9;
#X obj 817 158 sampler-voice 11.wav 10;
#X obj 1007 157 sampler-voice 12.wav 11;
#X obj 29 208 sampler-voice 13.wav 12;
#X obj 225 209 sampler-voice 14.wav 13;
#X obj 430 208 sampler-voice 15.wav 14;
#X obj 621 209 sampler-voice 16.wav 15;
#X obj 817 210 sampler-voice 17.wav 16;
#X obj 1010 211 sampler-voice 18.wav 17;
#X obj 29 260 sampler-voice 19.wav 18;
#X obj 226 259 sampler-voice 20.wav 19;
#X obj 431 262 sampler-voice 21.wav 20;
#X obj 622 260 sampler-voice 22.wav 21;
#X obj 820 260 sampler-voice 23.wav 22;
#X obj 1010 262 sampler-voice 24.wav 23;
#X obj 780 522 bang;
#X obj 803 600 - 0.5;
#X obj 803 622 * 200;
#X obj 803 650 i;
#X obj 734 609 - 0.5;
#X obj 734 631 * 200;
#X obj 734 659 i;
#X obj 734 687 abs;
#X obj 771 450 detent 0.075;
#X obj 771 416 r knob1;
#X obj 804 486 s knob1-detent;
#X obj 504 587 delay5sec 5;
#X msg 780 548 \; screenLine1 1: Samp Speed ORIG \;;
#X msg 803 678 \; screenLine1 1: Samp Speed +\$1 % \;;
#X msg 728 715 \; screenLine1 1: Samp Speed -\$1 % \;;
#X msg 36 385 \; screenLine1 1: Sample Speed % \; screenLine2 2: Decay
\; screenLine3 3: Delay Time \; screenLine4 4: Feedback \; screenLine5
Aux: Sequencer \;;
#X connect 0 0 31 0;
#X connect 1 0 62 0;
#X connect 2 0 61 0;
#X connect 3 0 63 0;
#X connect 4 0 64 0;
#X connect 5 0 65 0;
#X connect 6 0 68 0;
#X connect 7 0 67 0;
#X connect 8 0 69 0;
#X connect 9 0 70 0;
#X connect 10 0 71 0;
#X connect 11 0 74 0;
#X connect 12 0 73 0;
#X connect 13 0 75 0;
#X connect 14 0 76 0;
#X connect 15 0 77 0;
#X connect 16 0 66 0;
#X connect 17 0 72 0;
#X connect 18 0 80 0;
#X connect 19 0 79 0;
#X connect 20 0 81 0;
#X connect 21 0 82 0;
#X connect 22 0 83 0;
#X connect 23 0 78 0;
#X connect 29 0 95 0;
#X connect 30 0 99 0;
#X connect 32 0 36 0;
#X connect 33 0 32 0;
#X connect 34 0 33 0;
#X connect 34 1 35 0;
#X connect 35 0 39 0;
#X connect 36 0 38 0;
#X connect 37 0 34 0;
#X connect 38 0 40 0;
#X connect 39 0 41 0;
#X connect 42 0 43 0;
#X connect 42 1 43 1;
#X connect 43 0 44 0;
#X connect 44 0 95 1;
#X connect 45 0 42 0;
#X connect 46 0 95 2;
#X connect 47 0 48 0;
#X connect 48 0 53 0;
#X connect 49 0 50 0;
#X connect 50 0 51 0;
#X connect 51 0 47 0;
#X connect 53 0 52 0;
#X connect 54 0 55 0;
#X connect 55 0 59 0;
#X connect 56 0 57 0;
#X connect 57 0 58 0;
#X connect 58 0 54 0;
#X connect 59 0 60 0;
#X connect 84 0 96 0;
#X connect 85 0 86 0;
#X connect 86 0 87 0;
#X connect 87 0 97 0;
#X connect 88 0 89 0;
#X connect 89 0 90 0;
#X connect 90 0 91 0;
#X connect 91 0 98 0;
#X connect 92 0 88 0;
#X connect 92 0 94 0;
#X connect 92 1 84 0;
#X connect 92 1 94 0;
#X connect 92 2 85 0;
#X connect 92 2 94 0;
#X connect 93 0 92 0;
#X connect 95 0 27 0;
#X connect 95 0 28 0;
