#N canvas 64 24 1313 714 10;
#X obj 401 449 bng 15 250 50 0 empty empty empty 17 7 0 10 -262144
-1 -1;
#X obj 401 503 bng 15 250 50 0 empty empty empty 17 7 0 10 -262144
-1 -1;
#X obj 457 600 catch~ samp_voice_out;
#X obj 938 345 i;
#X obj 938 367 change;
#X obj 42 289 loadbang;
#X obj 401 472 sampler-voice metro1.wav 0;
#X obj 178 150 master-metronome;
#X obj 178 117 tgl 15 0 empty empty empty 17 7 0 10 -262144 -1 -1 0
1;
#X obj 443 75 r quarters;
#X floatatom 443 391 5 0 0 0 - - -, f 5;
#X obj 443 313 f 0;
#X obj 443 203 bng 15 250 50 0 empty empty empty 17 7 0 10 -262144
-1 -1;
#X obj 316 442 sel 0;
#X obj 816 76 vsl 15 128 0 1 0 0 empty empty empty 0 -9 0 10 -262144
-1 -1 0 1;
#X obj 940 67 vsl 15 128 0 1 0 0 empty empty empty 0 -9 0 10 -262144
-1 -1 0 1;
#X text 580 470 on click;
#X text 579 526 on accent;
#X obj 443 97 t b b;
#X obj 478 312 + 1;
#X floatatom 540 308 5 0 0 0 - - -, f 5;
#X obj 316 209 sel 0;
#X msg 316 249 0;
#X obj 184 209 r midi-clock-restart;
#X obj 184 259 print;
#X obj 443 346 % 4;
#X floatatom 332 118 5 0 0 0 - - -, f 5;
#X obj 223 43 loadbang;
#X msg 271 76 120;
#X obj 332 44 r knob1;
#X obj 332 66 * 250;
#X obj 332 92 + 10;
#X obj 816 217 s knob2;
#X obj 938 292 r knob3;
#X obj 940 208 s knob3;
#X obj 401 526 sampler-voice metro2.wav 6;
#X obj 1081 342 i;
#X obj 1081 364 change;
#X obj 1083 66 vsl 15 128 0 1 0 0 empty empty empty 0 -9 0 10 -262144
-1 -1 0 1;
#X obj 694 71 vsl 15 128 0 1 0 0 empty empty empty 0 -9 0 10 -262144
-1 -1 0 1;
#X obj 106 10 r aux;
#X obj 800 351 i;
#X obj 800 373 change;
#X msg 42 329 \; screenLine1 1: Tempo \; screenLine2 2: Accent \; screenLine3
3: Metro Tone \; screenLine4 4: Synth Tone \; screenLine5 Aux: Start
/ Stop \;;
#X obj 694 212 s knob1;
#X obj 800 298 r knob2;
#X obj 505 643 throw~ outL;
#X obj 581 642 throw~ outR;
#X msg 832 531 2: Accent \$1;
#X obj 832 556 s screenLine2;
#X obj 938 415 s screenLin3;
#X obj 1083 207 s knob4;
#X obj 1081 269 r knob4;
#X obj 1081 412 s screenLine4;
#X msg 938 393 3: Metro Tone \$1;
#X obj 938 317 * 100;
#X obj 1081 294 * 100;
#X msg 1081 390 4: Synth Tone \$1;
#X obj 800 323 * 11;
#X obj 765 406 expr if($f1 <= 1 \, 0 \, $f1);
#X obj 766 436 sel 0;
#X obj 742 557 s screenLine2;
#X msg 742 532 2: Accent Off;
#X msg 687 484 1e+07;
#X text 756 486 not really off \, just really long hahah;
#X msg 202 591 0;
#X obj 220 627 s led;
#X obj 130 72 bng 15 250 50 0 empty empty empty 17 7 0 10 -262144 -1
-1;
#X obj 107 33 sel 1;
#X obj 250 532 t b b;
#X msg 381 583 3;
#X msg 310 598 0;
#X obj 328 634 s led;
#X obj 358 539 t b b;
#X msg 273 576 7;
#X msg 91 193 0;
#X obj 91 221 s led;
#X obj 91 139 sel 0;
#X obj 91 161 delay 200;
#X obj 202 569 delay 50;
#X obj 310 576 delay 50;
#X text 917 608 always running so we can hear OG;
#N canvas 0 22 816 451 tuneup 0;
#X obj 213 336 throw~ outL;
#X obj 324 336 throw~ outR;
#X obj 56 75 r notes;
#X obj 56 128 pack 0 0 0, f 11;
#X obj 56 180 voice;
#X obj 56 101 poly 1 1, f 11;
#X obj 56 154 route 1, f 15;
#X connect 2 0 5 0;
#X connect 3 0 6 0;
#X connect 4 0 0 0;
#X connect 4 0 1 0;
#X connect 5 0 3 0;
#X connect 5 1 3 1;
#X connect 5 2 3 2;
#X connect 6 0 4 0;
#X restore 822 608 pd tuneup;
#X connect 0 0 6 0;
#X connect 1 0 35 0;
#X connect 2 0 46 0;
#X connect 2 0 47 0;
#X connect 3 0 4 0;
#X connect 4 0 54 0;
#X connect 5 0 43 0;
#X connect 8 0 7 0;
#X connect 8 0 21 0;
#X connect 8 0 77 0;
#X connect 9 0 18 0;
#X connect 10 0 0 0;
#X connect 10 0 13 0;
#X connect 11 0 19 0;
#X connect 11 0 25 0;
#X connect 12 0 11 0;
#X connect 13 0 1 0;
#X connect 13 0 69 0;
#X connect 13 1 73 0;
#X connect 14 0 32 0;
#X connect 15 0 34 0;
#X connect 18 0 12 0;
#X connect 19 0 11 1;
#X connect 20 0 25 1;
#X connect 21 0 22 0;
#X connect 22 0 11 1;
#X connect 23 0 22 0;
#X connect 23 0 24 0;
#X connect 25 0 10 0;
#X connect 26 0 7 1;
#X connect 27 0 28 0;
#X connect 28 0 26 0;
#X connect 29 0 30 0;
#X connect 30 0 31 0;
#X connect 31 0 26 0;
#X connect 33 0 55 0;
#X connect 36 0 37 0;
#X connect 37 0 57 0;
#X connect 38 0 51 0;
#X connect 39 0 44 0;
#X connect 40 0 68 0;
#X connect 41 0 42 0;
#X connect 42 0 59 0;
#X connect 45 0 58 0;
#X connect 48 0 49 0;
#X connect 52 0 56 0;
#X connect 54 0 50 0;
#X connect 55 0 3 0;
#X connect 56 0 36 0;
#X connect 57 0 53 0;
#X connect 58 0 41 0;
#X connect 59 0 60 0;
#X connect 60 0 62 0;
#X connect 60 0 63 0;
#X connect 60 1 20 0;
#X connect 60 1 48 0;
#X connect 62 0 61 0;
#X connect 63 0 20 0;
#X connect 65 0 66 0;
#X connect 67 0 8 0;
#X connect 68 0 67 0;
#X connect 69 0 79 0;
#X connect 69 1 74 0;
#X connect 70 0 72 0;
#X connect 71 0 72 0;
#X connect 73 0 80 0;
#X connect 73 1 70 0;
#X connect 74 0 66 0;
#X connect 75 0 76 0;
#X connect 77 0 78 0;
#X connect 78 0 75 0;
#X connect 79 0 65 0;
#X connect 80 0 71 0;
