#N canvas 427 102 1905 999 10;
#X obj 764 43 inlet;
#X obj 704 768 vline~;
#X obj 698 800 *~;
#X obj 728 660 + 100;
#X obj 728 612 *;
#X obj 728 636 * 60000;
#X obj 737 568 r knob3;
#X obj 766 894 *~;
#X text 720 546 rise & fall time;
#X obj 767 921 throw~ grainoutR;
#X obj 635 921 throw~ grainoutL;
#X obj 634 891 *~;
#X text 1685 908 phasor king;
#X msg 711 725 1 \$1;
#X msg 616 716 0 500;
#X obj 598 651 r alloff;
#X obj 710 690 f;
#N canvas 0 22 915 785 grain 0;
#X obj 321 523 vd~ del;
#X obj 404 242 phasor~ 1;
#X obj 512 532 tabread4~ hanning;
#X obj 513 498 *~ 256;
#X obj 389 598 *~;
#X obj 360 377 samphold~;
#X obj 262 263 sig~ 200;
#X obj 322 419 *~;
#X floatatom 446 112 5 0 0 0 - - -, f 5;
#X obj 442 186 expr 1 / ($f1 / 1000);
#X obj 362 184 / 1000;
#X floatatom 362 206 5 0 0 0 - - -, f 5;
#X obj 295 300 *~;
#X obj 261 228 * -1;
#X obj 261 196 - 1000;
#X floatatom 260 118 5 0 0 0 - - -, f 5;
#X obj 261 169 * 1000;
#X obj 261 142 clip 0.5 2;
#X obj 452 144 clip 10 500;
#X obj 501 263 noise~;
#X obj 501 291 *~ 0.5;
#X obj 501 320 +~ 0.5;
#X obj 501 348 *~ 4000;
#X obj 501 377 +~ 500;
#X obj 501 407 samphold~;
#X obj 321 488 +~;
#X text 557 306 location;
#X text 470 89 grain size;
#X text 209 145 speed;
#X obj 438 68 r grain-size;
#X obj 245 32 inlet;
#X obj 397 671 outlet~;
#X connect 0 0 4 0;
#X connect 1 0 3 0;
#X connect 1 0 5 1;
#X connect 1 0 7 0;
#X connect 1 0 24 1;
#X connect 2 0 4 1;
#X connect 3 0 2 0;
#X connect 4 0 31 0;
#X connect 5 0 7 1;
#X connect 6 0 12 0;
#X connect 7 0 25 0;
#X connect 8 0 18 0;
#X connect 9 0 1 0;
#X connect 10 0 11 0;
#X connect 11 0 12 1;
#X connect 12 0 5 0;
#X connect 13 0 6 0;
#X connect 14 0 13 0;
#X connect 15 0 17 0;
#X connect 16 0 14 0;
#X connect 17 0 16 0;
#X connect 18 0 9 0;
#X connect 18 0 10 0;
#X connect 19 0 20 0;
#X connect 20 0 21 0;
#X connect 21 0 22 0;
#X connect 22 0 23 0;
#X connect 23 0 24 0;
#X connect 24 0 25 1;
#X connect 25 0 0 0;
#X connect 29 0 8 0;
#X connect 30 0 15 0;
#X restore 430 300 pd grain;
#N canvas 0 22 915 785 grain 0;
#X obj 321 523 vd~ del;
#X obj 404 242 phasor~ 1;
#X obj 512 532 tabread4~ hanning;
#X obj 513 498 *~ 256;
#X obj 389 598 *~;
#X obj 360 377 samphold~;
#X obj 262 263 sig~ 200;
#X obj 322 419 *~;
#X floatatom 446 112 5 0 0 0 - - -, f 5;
#X obj 442 186 expr 1 / ($f1 / 1000);
#X obj 362 184 / 1000;
#X floatatom 362 206 5 0 0 0 - - -, f 5;
#X obj 295 300 *~;
#X obj 261 228 * -1;
#X obj 261 196 - 1000;
#X floatatom 260 118 5 0 0 0 - - -, f 5;
#X obj 261 169 * 1000;
#X obj 261 142 clip 0.5 2;
#X obj 452 144 clip 10 500;
#X obj 501 263 noise~;
#X obj 501 291 *~ 0.5;
#X obj 501 320 +~ 0.5;
#X obj 501 348 *~ 4000;
#X obj 501 377 +~ 500;
#X obj 501 407 samphold~;
#X obj 321 488 +~;
#X text 557 306 location;
#X text 470 89 grain size;
#X text 209 145 speed;
#X obj 438 68 r grain-size;
#X obj 245 32 inlet;
#X obj 397 671 outlet~;
#X connect 0 0 4 0;
#X connect 1 0 3 0;
#X connect 1 0 5 1;
#X connect 1 0 7 0;
#X connect 1 0 24 1;
#X connect 2 0 4 1;
#X connect 3 0 2 0;
#X connect 4 0 31 0;
#X connect 5 0 7 1;
#X connect 6 0 12 0;
#X connect 7 0 25 0;
#X connect 8 0 18 0;
#X connect 9 0 1 0;
#X connect 10 0 11 0;
#X connect 11 0 12 1;
#X connect 12 0 5 0;
#X connect 13 0 6 0;
#X connect 14 0 13 0;
#X connect 15 0 17 0;
#X connect 16 0 14 0;
#X connect 17 0 16 0;
#X connect 18 0 9 0;
#X connect 18 0 10 0;
#X connect 19 0 20 0;
#X connect 20 0 21 0;
#X connect 21 0 22 0;
#X connect 22 0 23 0;
#X connect 23 0 24 0;
#X connect 24 0 25 1;
#X connect 25 0 0 0;
#X connect 29 0 8 0;
#X connect 30 0 15 0;
#X restore 929 315 pd grain;
#X obj 619 519 r allon;
#X msg 637 584 1 500;
#X obj 692 173 mtof;
#X floatatom 665 251 50 0 0 0 - - -, f 50;
#X floatatom 704 136 5 0 0 0 - - -, f 5;
#X obj 683 215 / 523.251;
#X connect 0 0 23 0;
#X connect 1 0 2 1;
#X connect 1 0 2 0;
#X connect 2 0 7 1;
#X connect 2 0 11 0;
#X connect 3 0 16 1;
#X connect 4 0 5 0;
#X connect 5 0 3 0;
#X connect 6 0 4 1;
#X connect 6 0 4 0;
#X connect 7 0 9 0;
#X connect 11 0 10 0;
#X connect 13 0 1 0;
#X connect 14 0 1 0;
#X connect 15 0 14 0;
#X connect 16 0 13 0;
#X connect 17 0 11 1;
#X connect 18 0 7 0;
#X connect 19 0 20 0;
#X connect 20 0 1 0;
#X connect 21 0 24 0;
#X connect 22 0 18 0;
#X connect 22 0 17 0;
#X connect 23 0 21 0;
#X connect 24 0 22 0;
