#N canvas 614 50 1124 740 10;
#X obj 456 111 tgl 15 0 empty empty empty 17 7 0 10 -262144 -1 -1 1
1;
#N canvas 667 211 450 300 eighth-notes 0;
#X obj 73 41 inlet;
#X obj 75 120 outlet;
#X obj 76 86 sel 0 12;
#X connect 0 0 2 0;
#X connect 2 0 1 0;
#X connect 2 1 1 0;
#X restore 280 244 pd eighth-notes;
#N canvas 296 112 486 424 swing-eighths 0;
#X obj 51 52 inlet;
#X obj 51 235 outlet;
#X obj 52 115 sel 0;
#X obj 131 116 sel 12;
#X obj 132 155 delay 50;
#X obj 209 76 hsl 128 15 0.5 1 0 0 empty empty empty -2 -8 0 10 -262144
-1 -1 0 0;
#X floatatom 207 129 5 0 0 0 - - -, f 5;
#X obj 207 97 * 100;
#X connect 0 0 2 0;
#X connect 0 0 3 0;
#X connect 2 0 1 0;
#X connect 3 0 4 0;
#X connect 4 0 1 0;
#X connect 5 0 7 0;
#X connect 6 0 4 1;
#X connect 7 0 6 0;
#X restore 397 244 pd swing-eighths;
#N canvas 238 345 450 300 triplets 0;
#X obj 73 41 inlet;
#X obj 58 168 outlet;
#X obj 76 86 sel 0 8 16;
#X connect 0 0 2 0;
#X connect 2 0 1 0;
#X connect 2 1 1 0;
#X connect 2 2 1 0;
#X restore 535 245 pd triplets;
#N canvas 112 294 450 300 sixteenths 0;
#X obj 73 41 inlet;
#X obj 58 168 outlet;
#X obj 76 86 sel 0 6 12 18;
#X connect 0 0 2 0;
#X connect 2 0 1 0;
#X connect 2 1 1 0;
#X connect 2 2 1 0;
#X connect 2 3 1 0;
#X restore 631 246 pd sixteenths;
#N canvas 705 325 401 535 taptempo 0;
#X floatatom 71 220 5 0 0 0 - - -, f 5;
#X obj 97 165 t b b;
#X msg 117 137 0;
#X obj 68 112 +;
#X floatatom 97 110 5 0 0 0 - - -, f 5;
#X obj 71 272 timer;
#X msg 68 91 1;
#X floatatom 71 296 5 0 0 0 - - -, f 5;
#X obj 65 138 sel 3 4;
#X msg 64 188 3;
#X msg 97 188 4;
#X obj 71 245 sel 3 4;
#X text 106 298 ms.;
#X obj 71 348 outlet;
#X obj 71 323 / 24;
#X obj 50 33 r aux;
#X obj 50 60 sel 0 1;
#X connect 0 0 11 0;
#X connect 1 0 10 0;
#X connect 1 1 2 0;
#X connect 2 0 4 0;
#X connect 3 0 4 0;
#X connect 4 0 3 1;
#X connect 4 0 8 0;
#X connect 5 0 7 0;
#X connect 6 0 3 0;
#X connect 7 0 14 0;
#X connect 8 0 9 0;
#X connect 8 1 1 0;
#X connect 9 0 0 0;
#X connect 10 0 0 0;
#X connect 11 0 5 0;
#X connect 11 1 5 1;
#X connect 14 0 13 0;
#X connect 15 0 16 0;
#X connect 16 1 6 0;
#X restore 509 22 pd taptempo;
#X obj 397 272 s swing-eighths;
#X obj 535 272 s triplets;
#X obj 613 323 s sixteenths;
#X obj 751 318 s swing-sixteenths;
#N canvas 180 143 951 811 swing-sixteenths 1;
#X obj 54 30 inlet;
#X obj 63 337 outlet;
#X obj 249 173 sel 6 18;
#X obj 61 176 sel 0 12;
#X obj 334 102 hsl 128 15 0 1 0 0 empty empty empty -2 -8 0 10 -262144
-1 -1 3000 0;
#X floatatom 325 209 5 0 0 0 - - -, f 5;
#X obj 250 241 delay 0;
#X obj 154 331 timer;
#X floatatom 154 364 5 0 0 0 - - -, f 5;
#X obj 344 160 * 100;
#X obj 352 54 r swing;
#X obj 373 121 / 4;
#X obj 269 39 t b f;
#X connect 0 0 2 0;
#X connect 0 0 3 0;
#X connect 2 0 6 0;
#X connect 2 1 6 0;
#X connect 3 0 1 0;
#X connect 3 0 7 0;
#X connect 3 1 1 0;
#X connect 3 1 7 1;
#X connect 4 0 9 0;
#X connect 5 0 6 1;
#X connect 6 0 1 0;
#X connect 7 0 8 0;
#X connect 8 0 12 0;
#X connect 9 0 5 0;
#X connect 10 0 4 0;
#X connect 11 0 9 1;
#X connect 12 0 4 0;
#X connect 12 1 11 0;
#X restore 730 246 pd swing-sixteenths;
#X floatatom 585 122 5 0 0 0 - - -, f 5;
#X text 641 94 dial in bpm;
#N canvas 278 333 405 435 mstobpm 0;
#X obj 37 15 inlet;
#X obj 37 101 timer;
#X obj 37 191 outlet;
#X obj 37 128 expr 60000 / $f1;
#X obj 37 64 t b b;
#N canvas 602 161 450 300 sixteenths 0;
#X obj 73 41 inlet;
#X obj 58 168 outlet;
#X obj 76 86 sel 0 6 12 18;
#X connect 0 0 2 0;
#X connect 2 0 1 0;
#X connect 2 1 1 0;
#X connect 2 2 1 0;
#X connect 2 3 1 0;
#X restore 38 40 pd sixteenths;
#X obj 32 160 / 4;
#X connect 0 0 5 0;
#X connect 1 0 3 0;
#X connect 3 0 6 0;
#X connect 4 0 1 0;
#X connect 4 1 1 1;
#X connect 5 0 4 0;
#X connect 6 0 2 0;
#X restore 323 399 pd mstobpm;
#X floatatom 323 426 5 0 0 0 - - -, f 5;
#X text 361 426 tempo in bpm;
#N canvas 945 226 174 209 dialinbpm 0;
#X obj 29 41 inlet;
#X obj 29 72 expr 1000/($f1/60);
#X floatatom 29 121 5 0 0 0 - - -, f 5;
#X obj 29 96 / 24;
#X obj 30 150 outlet;
#X connect 0 0 1 0;
#X connect 1 0 3 0;
#X connect 2 0 4 0;
#X connect 3 0 2 0;
#X restore 589 153 pd dialinbpm;
#N canvas 489 50 1016 842 mainmetro 0;
#X obj 280 49 inlet;
#X obj 333 49 inlet;
#X obj 280 156 metro 50;
#X obj 389 438 + 1, f 5;
#X obj 280 462 f;
#X floatatom 280 581 5 0 0 0 - - -, f 5;
#X obj 280 607 outlet;
#X msg 565 496 0;
#X obj 350 484 >= 23;
#X obj 350 516 sel 1;
#X obj 427 43 midirealtimein;
#X obj 280 387 spigot 1;
#X obj 408 388 spigot 0;
#X obj 423 300 tgl 15 0 empty empty empty 17 7 0 10 -262144 -1 -1 0
1;
#X obj 333 323 ==;
#X obj 333 349 tgl 15 0 empty empty empty 17 7 0 10 -262144 -1 -1 1
1;
#X obj 461 350 tgl 15 0 empty empty empty 17 7 0 10 -262144 -1 -1 0
1;
#X obj 580 243 delay 1000;
#X msg 423 241 1;
#X obj 415 180 t b b b b, f 25;
#X msg 580 218 stop;
#X msg 580 267 0;
#X text 67 12 autoswitch between internal and MIDI clock;
#X text 561 117 MIDI 248 = clock \; 250 = start \; 251 = continue.
;
#X obj 578 348 s midi-clock-present;
#X obj 325 207 loadbang;
#X msg 325 229 0;
#X obj 214 162 sel 0;
#X obj 266 90 t f f;
#X text 7 115 reset back to 0 when metro stops;
#X obj 124 229 s reset-metronome;
#X obj 619 435 r reset-metronome;
#X obj 273 118 change;
#X obj 406 113 sel 248 250 251 252;
#X obj 503 157 s midi-stop;
#X connect 0 0 28 0;
#X connect 1 0 2 1;
#X connect 2 0 11 0;
#X connect 3 0 4 1;
#X connect 4 0 3 0;
#X connect 4 0 5 0;
#X connect 4 0 8 0;
#X connect 5 0 6 0;
#X connect 7 0 4 1;
#X connect 8 0 9 0;
#X connect 9 0 7 0;
#X connect 10 0 33 0;
#X connect 11 0 4 0;
#X connect 12 0 4 0;
#X connect 13 0 14 0;
#X connect 13 0 16 0;
#X connect 13 0 24 0;
#X connect 14 0 15 0;
#X connect 15 0 11 1;
#X connect 16 0 12 1;
#X connect 17 0 21 0;
#X connect 18 0 13 0;
#X connect 19 0 12 0;
#X connect 19 1 17 0;
#X connect 19 2 18 0;
#X connect 19 3 20 0;
#X connect 20 0 17 0;
#X connect 21 0 13 0;
#X connect 25 0 26 0;
#X connect 26 0 13 0;
#X connect 27 0 30 0;
#X connect 28 0 27 0;
#X connect 28 1 32 0;
#X connect 31 0 7 0;
#X connect 32 0 2 0;
#X connect 33 0 19 0;
#X connect 33 1 7 0;
#X connect 33 2 7 0;
#X connect 33 3 34 0;
#X restore 456 192 pd mainmetro;
#X obj 456 75 inlet;
#X obj 601 59 inlet;
#X obj 160 274 s quarters;
#X obj 280 273 s eighths;
#N canvas 238 388 450 300 quarter-notes 0;
#X obj 73 41 inlet;
#X obj 73 75 sel 0;
#X obj 73 111 outlet;
#X connect 0 0 1 0;
#X connect 1 0 2 0;
#X restore 160 244 pd quarter-notes;
#X obj 498 503 i;
#X obj 498 525 change -1;
#X obj 334 501 i;
#X obj 334 523 change -1;
#X obj 498 465 spigot 1;
#X obj 334 461 spigot 0;
#X obj 661 379 r midi-clock-present;
#X obj 661 403 ==;
#X obj 598 90 i;
#X msg 333 551 2: Tempo \$1 BPM MIDI;
#X obj 334 584 s screenLine2;
#X msg 499 553 2: Tempo \$1 BPM;
#X obj 498 585 s screenLine2;
#X connect 0 0 17 0;
#X connect 1 0 21 0;
#X connect 2 0 6 0;
#X connect 3 0 7 0;
#X connect 10 0 8 0;
#X connect 11 0 16 0;
#X connect 11 0 27 0;
#X connect 13 0 14 0;
#X connect 14 0 28 0;
#X connect 16 0 17 1;
#X connect 17 0 22 0;
#X connect 17 0 1 0;
#X connect 17 0 2 0;
#X connect 17 0 3 0;
#X connect 17 0 4 0;
#X connect 17 0 10 0;
#X connect 17 0 13 0;
#X connect 18 0 0 0;
#X connect 19 0 31 0;
#X connect 22 0 20 0;
#X connect 23 0 24 0;
#X connect 24 0 34 0;
#X connect 25 0 26 0;
#X connect 26 0 32 0;
#X connect 27 0 23 0;
#X connect 28 0 25 0;
#X connect 29 0 28 1;
#X connect 29 0 30 0;
#X connect 30 0 27 1;
#X connect 31 0 11 0;
#X connect 32 0 33 0;
#X connect 34 0 35 0;
