#N canvas 389 155 1348 761 10;
#X obj 49 54 loadbang;
#X obj 178 655 throw~ outL;
#X obj 266 655 throw~ outR;
#X obj 245 364 r~ inR;
#X obj 193 364 r~ inL;
#X obj 294 419 lop~ 5;
#X obj 275 465 *~;
#X obj 232 510 *~;
#X obj 807 212 stripnote;
#N canvas 1118 243 729 422 arrays 0;
#X obj 170 30 20secbuf 5;
#X obj 122 212 loadbang;
#X msg 180 277 \; lengths const 0 \;;
#X obj 144 246 t b b;
#X obj 73 307 s loadsamps;
#X obj 74 208 bng 15 250 50 0 empty empty empty 17 7 0 10 -262144 -1
-1;
#X obj 87 60 20secbuf 1;
#X obj 89 87 20secbuf 2;
#X obj 88 116 20secbuf 3;
#X obj 86 145 20secbuf 4;
#X obj 167 60 20secbuf 6;
#X obj 169 87 20secbuf 7;
#X obj 168 116 20secbuf 8;
#X obj 166 145 20secbuf 9;
#X obj 259 30 20secbuf 10;
#X obj 256 60 20secbuf 11;
#X obj 257 84 20secbuf 12;
#X obj 262 119 20secbuf 13;
#X obj 255 143 20secbuf 14;
#X obj 346 32 20secbuf 15;
#X obj 346 62 20secbuf 16;
#X obj 347 88 20secbuf 17;
#X obj 345 116 20secbuf 18;
#X obj 344 144 20secbuf 19;
#X obj 444 33 20secbuf 20;
#X obj 442 63 20secbuf 21;
#X obj 443 87 20secbuf 22;
#X obj 443 112 20secbuf 23;
#X obj 447 141 20secbuf 24;
#X connect 1 0 3 0;
#X connect 3 0 4 0;
#X connect 3 1 2 0;
#X connect 5 0 3 0;
#X restore 156 276 pd arrays;
#X obj 807 245 toggle-keys;
#X obj 702 158 t a a;
#N canvas 13 50 766 473 check-for-hold 0;
#X obj 149 29 inlet;
#X obj 141 408 outlet;
#X text 270 78 a bang goes out if a note is held alone without any
others being touched;
#X obj 146 306 f;
#X msg 228 233 stop;
#X obj 159 100 unpack;
#X obj 146 278 del 1000;
#X obj 145 172 sel 0;
#X obj 174 199 bang;
#X obj 152 227 t b f;
#X obj 187 132 t f b;
#X obj 141 331 bng 15 250 50 0 empty empty empty 17 7 0 10 -262144
-1 -1;
#X connect 0 0 5 0;
#X connect 3 0 11 0;
#X connect 4 0 6 0;
#X connect 5 1 10 0;
#X connect 6 0 3 0;
#X connect 7 1 8 0;
#X connect 8 0 9 0;
#X connect 9 0 6 0;
#X connect 9 1 3 1;
#X connect 10 0 7 0;
#X connect 10 1 4 0;
#X connect 11 0 1 0;
#X restore 622 212 pd check-for-hold;
#N canvas 19 50 644 348 save-and-zero 0;
#X msg 179 199 \; duration 0 \;;
#X obj 277 216 tabwrite lengths;
#X msg 287 152 0;
#X obj 387 187 r bufset;
#X msg 82 198 \; newsamp bang \;;
#X obj 261 24 inlet;
#X obj 268 106 t b b b b b;
#X obj 464 164 bng 15 250 50 0 empty empty empty 17 7 0 10 -262144
-1 -1;
#X obj 464 214 s state;
#X msg 464 189 0;
#X obj 269 53 t b b;
#X obj 269 82 delay 100;
#X obj 409 102 s flash-led;
#X connect 2 0 1 0;
#X connect 3 0 1 1;
#X connect 5 0 10 0;
#X connect 6 0 4 0;
#X connect 6 1 0 0;
#X connect 6 2 2 0;
#X connect 6 4 7 0;
#X connect 7 0 9 0;
#X connect 9 0 8 0;
#X connect 10 0 11 0;
#X connect 10 1 12 0;
#X connect 11 0 6 0;
#X restore 622 246 pd save-and-zero;
#N canvas 14 148 601 496 set-buf 0;
#X floatatom 140 172 5 0 0 0 - - -, f 5;
#X floatatom 225 273 5 0 0 0 - - -, f 5;
#X text 271 273 sample num;
#X obj 210 336 r duration;
#X obj 210 363 tabwrite lengths;
#X obj 377 349 s bufset;
#X obj 117 395 f;
#X obj 117 360 bng 15 250 50 0 empty empty empty 17 7 0 10 -262144
-1 -1;
#X obj 117 422 tabread lengths;
#X obj 117 450 s duration;
#X obj 73 316 s newsamp;
#X obj 73 291 bng 15 250 50 0 empty empty empty 17 7 0 10 -262144 -1
-1;
#X text 200 272 2;
#X text 143 359 3;
#X text 95 288 4;
#X floatatom 377 326 5 0 0 0 - - -, f 5;
#X obj 140 224 t b b f f, f 22;
#X obj 140 148 moses 0;
#X obj 140 196 change 0;
#X obj 141 63 inlet;
#X obj 140 104 - 59;
#X obj 142 126 moses 25;
#X connect 0 0 18 0;
#X connect 1 0 4 1;
#X connect 1 0 6 1;
#X connect 3 0 4 0;
#X connect 6 0 8 0;
#X connect 7 0 6 0;
#X connect 8 0 9 0;
#X connect 11 0 10 0;
#X connect 15 0 5 0;
#X connect 16 0 11 0;
#X connect 16 1 7 0;
#X connect 16 2 1 0;
#X connect 16 3 15 0;
#X connect 17 1 0 0;
#X connect 18 0 16 0;
#X connect 19 0 20 0;
#X connect 20 0 21 0;
#X connect 21 0 17 0;
#X restore 930 354 pd set-buf;
#X obj 702 93 r notes;
#N canvas 810 161 921 687 player 0;
#X obj 447 282 r duration;
#X obj 310 382 *~ 44100;
#X obj 229 -24 r duration;
#X obj 229 -2 / 1000;
#X floatatom 229 20 5 0 0 0 - - -, f 5;
#X obj 414 337 * 44.1;
#X obj 310 329 phasor~ 0.5;
#X floatatom 302 254 5 0 0 0 - - -, f 5;
#X obj 302 223 expr $f2 / $f1;
#X obj 302 198 pack 0 0;
#X floatatom 414 33 5 0 0 0 - - -, f 5;
#X obj 311 417 tabread4~ itake-1;
#X obj 594 214 r bufset;
#X msg 558 321 set itake-\$1;
#X floatatom 573 282 5 0 0 0 - - -, f 5;
#X floatatom 436 376 15 0 0 0 - - -, f 15;
#X msg 384 291 0;
#X obj 457 172 r startover;
#X obj 310 612 outlet~;
#X obj 416 -39 r knob4-detent;
#X obj 414 -13 * 4;
#X obj 414 11 - 2;
#X obj 129 377 threshold~ 0.9 1 0.5 1;
#X obj 198 488 bng 15 250 50 0 empty empty empty 17 7 0 10 -262144
-1 -1;
#X obj 198 512 s looped;
#X obj 378 106 t b f;
#X obj 311 279 sig~;
#X obj 372 516 line~;
#X obj 310 577 *~;
#X obj 410 77 line 1 5;
#X text 424 512 avoid clicks, f 21;
#X msg 408 54 \$1 40;
#X obj 243 166 f;
#X obj 180 102 delay 5;
#X msg 404 473 0 5;
#X msg 359 472 1 5;
#N canvas 4 50 450 300 delay5ms 0;
#X obj 145 46 inlet;
#X obj 133 86 t b f;
#X obj 133 108 delay 5;
#X obj 146 154 f;
#X obj 152 194 outlet;
#X connect 0 0 1 0;
#X connect 1 0 2 0;
#X connect 1 1 3 1;
#X connect 2 0 3 0;
#X connect 3 0 4 0;
#X restore 576 250 pd delay5ms;
#N canvas 4 50 450 300 delay5ms 0;
#X obj 145 46 inlet;
#X obj 133 86 t b f;
#X obj 133 108 delay 5;
#X obj 146 154 f;
#X obj 152 194 outlet;
#X connect 0 0 1 0;
#X connect 1 0 2 0;
#X connect 1 1 3 1;
#X connect 2 0 3 0;
#X connect 3 0 4 0;
#X restore 437 310 pd delay5ms;
#X obj 218 48 t b f b;
#X obj 169 137 t b b;
#X text 666 244 allow 5 ms rampout \, then update;
#X connect 0 0 37 0;
#X connect 1 0 11 0;
#X connect 2 0 3 0;
#X connect 3 0 4 0;
#X connect 4 0 38 0;
#X connect 5 0 1 1;
#X connect 5 0 15 0;
#X connect 6 0 1 0;
#X connect 6 0 22 0;
#X connect 7 0 26 0;
#X connect 8 0 7 0;
#X connect 9 0 8 0;
#X connect 10 0 31 0;
#X connect 11 0 28 0;
#X connect 12 0 36 0;
#X connect 13 0 11 0;
#X connect 14 0 13 0;
#X connect 16 0 6 1;
#X connect 17 0 16 0;
#X connect 19 0 20 0;
#X connect 20 0 21 0;
#X connect 21 0 10 0;
#X connect 22 1 23 0;
#X connect 23 0 24 0;
#X connect 25 0 9 0;
#X connect 25 1 9 1;
#X connect 26 0 6 0;
#X connect 27 0 28 1;
#X connect 28 0 18 0;
#X connect 29 0 25 0;
#X connect 31 0 29 0;
#X connect 32 0 9 0;
#X connect 33 0 39 0;
#X connect 34 0 27 0;
#X connect 35 0 27 0;
#X connect 36 0 14 0;
#X connect 37 0 5 0;
#X connect 38 0 33 0;
#X connect 38 1 32 1;
#X connect 38 2 34 0;
#X connect 39 0 35 0;
#X connect 39 1 32 0;
#X restore 47 355 pd player;
#X obj 879 301 t b a;
#N canvas 295 50 809 936 recorder 0;
#X obj 157 595 r~ inL;
#X obj 206 595 r~ inR;
#X msg 87 555 start \$1;
#X msg 108 607 stop;
#X obj 514 633 timer;
#X floatatom 514 655 5 0 0 0 - - -, f 5;
#X obj 514 761 +, f 5;
#X floatatom 585 696 5 0 0 0 - - -, f 5;
#X msg 587 646 0, f 5;
#X obj 567 726 f;
#X floatatom 514 804 10 0 0 0 - - -, f 10;
#X obj 275 85 r aux;
#X obj 322 318 sel 1 0;
#X obj 90 529 f;
#X obj 587 620 bng 15 250 50 0 empty empty empty 17 7 0 10 -262144
-1 -1;
#X obj 628 753 bng 15 250 50 0 empty empty empty 17 7 0 10 -262144
-1 -1;
#X obj 514 836 s duration;
#X obj 108 430 r duration;
#X obj 108 455 * 44.1;
#X obj 306 614 line~;
#X obj 156 697 *~;
#X obj 321 85 r fs;
#X obj 507 585 t b b;
#X obj 423 722 s done-rec;
#X msg 336 543 0;
#X obj 283 649 *~;
#X obj 279 404 delay 1;
#X obj 370 408 delay 5;
#X msg 285 546 1 5;
#X msg 373 573 0 5;
#X obj 279 426 t b b b;
#X obj 363 439 t b b;
#X obj 499 406 delay 5;
#X obj 127 859 tabwrite~ itake-1;
#X obj 585 505 r duration;
#X obj 567 527 f;
#X obj 567 478 r newsamp;
#X obj 514 687 t f b, f 8;
#X obj 250 713 r bufset;
#X msg 250 762 set itake-\$1;
#X floatatom 250 739 5 0 0 0 - - -, f 5;
#X obj 47 666 bang;
#X obj 438 406 s mute;
#X obj 499 438 s unmute;
#X msg 50 721 \; state 2 \;;
#X msg 45 781 \; state 1 \;;
#X obj 168 529 *~;
#X obj 218 314 r knob3;
#X obj 218 336 t f f;
#X obj 218 358 *;
#X obj 218 380 sig~;
#X obj 163 466 r~ feedback;
#X obj 218 402 lop~ 1;
#X obj 515 96 r duration;
#X obj 561 250 - 20000;
#X obj 561 272 abs;
#X floatatom 561 294 10 0 0 0 - - -, f 10;
#X obj 511 325 delay;
#X obj 304 353 t b b b;
#X obj 394 370 t b b b;
#X msg 497 287 stop;
#X text 454 195 auto stop;
#X obj 343 216 < 20000;
#X obj 343 243 sel 1;
#X obj 385 181 f;
#X obj 320 273 f;
#X obj 307 122 t b f;
#X text 310 151 dont rec if full;
#X obj 380 272 bng 15 250 50 0 empty empty empty 17 7 0 10 -262144
-1 -1;
#X connect 0 0 20 0;
#X connect 1 0 20 0;
#X connect 2 0 33 0;
#X connect 2 0 41 0;
#X connect 3 0 33 0;
#X connect 3 0 45 0;
#X connect 4 0 5 0;
#X connect 5 0 37 0;
#X connect 6 0 7 0;
#X connect 6 0 10 0;
#X connect 7 0 9 1;
#X connect 8 0 9 0;
#X connect 8 0 6 0;
#X connect 9 0 6 1;
#X connect 10 0 16 0;
#X connect 11 0 66 0;
#X connect 12 0 58 0;
#X connect 12 1 59 0;
#X connect 13 0 2 0;
#X connect 14 0 8 0;
#X connect 15 0 10 0;
#X connect 17 0 18 0;
#X connect 18 0 13 1;
#X connect 19 0 25 1;
#X connect 19 0 25 0;
#X connect 20 0 33 0;
#X connect 21 0 66 0;
#X connect 22 0 23 0;
#X connect 22 1 4 1;
#X connect 24 0 19 0;
#X connect 25 0 20 1;
#X connect 26 0 30 0;
#X connect 27 0 31 0;
#X connect 28 0 19 0;
#X connect 29 0 19 0;
#X connect 30 0 4 0;
#X connect 30 1 13 0;
#X connect 30 2 28 0;
#X connect 31 0 3 0;
#X connect 31 1 22 0;
#X connect 32 0 43 0;
#X connect 34 0 35 1;
#X connect 35 0 9 0;
#X connect 36 0 35 0;
#X connect 37 0 6 0;
#X connect 37 1 9 0;
#X connect 38 0 40 0;
#X connect 39 0 33 0;
#X connect 40 0 39 0;
#X connect 41 0 44 0;
#X connect 46 0 20 0;
#X connect 47 0 48 0;
#X connect 48 0 49 0;
#X connect 48 1 49 1;
#X connect 49 0 50 0;
#X connect 50 0 52 0;
#X connect 51 0 46 0;
#X connect 52 0 46 1;
#X connect 53 0 54 0;
#X connect 53 0 64 1;
#X connect 54 0 55 0;
#X connect 55 0 56 0;
#X connect 56 0 57 1;
#X connect 57 0 59 0;
#X connect 58 0 26 0;
#X connect 58 1 24 0;
#X connect 58 2 57 0;
#X connect 59 0 27 0;
#X connect 59 1 29 0;
#X connect 59 1 32 0;
#X connect 59 1 42 0;
#X connect 59 2 60 0;
#X connect 60 0 57 0;
#X connect 62 0 63 0;
#X connect 63 0 65 0;
#X connect 63 0 68 0;
#X connect 64 0 62 0;
#X connect 65 0 12 0;
#X connect 66 0 64 0;
#X connect 66 1 65 1;
#X restore 55 277 pd recorder;
#N canvas 10 50 1297 753 detent-knob-4 0;
#X obj 683 215 bang;
#X obj 751 360 i;
#X obj 610 400 i;
#X obj 610 428 abs;
#X obj 748 289 - 0.75;
#X obj 674 143 detent 0.075;
#X obj 245 248 bang;
#X obj 172 433 i;
#X obj 172 461 abs;
#X obj 435 48 moses 0.5;
#X obj 422 72 - 1;
#X obj 422 94 abs;
#X obj 317 388 i;
#X obj 314 317 - 0.75;
#X obj 314 344 * 400;
#X obj 319 366 + 100;
#X obj 748 316 * 400;
#X obj 753 338 + 101;
#X floatatom 973 133 5 0 0 0 - - -, f 5;
#X obj 245 152 detent 0.075;
#X obj 610 350 - 0.5;
#X obj 610 371 * 400;
#X obj 172 383 - 0.5;
#X obj 172 404 * 400;
#X obj 432 196 - 1;
#X obj 432 218 abs;
#X obj 973 111 r knob4-detent;
#X obj 439 16 r knob4;
#X msg 238 274 \; screenLine4 4: Samp Speed: ORIG \;;
#X obj 433 241 s knob4-detent;
#X msg 314 421 \; screenLine4 4: Samp Speed: \$1 % \;;
#X msg 172 496 \; screenLine4 4: Samp Speed: \$1 % \;;
#X obj 712 189 s knob4-detent;
#X msg 676 241 \; screenLine4 4: Samp Speed: ORIG \;;
#X msg 752 388 \; screenLine4 4: Samp Speed: \$1 % \;;
#X msg 610 463 \; screenLine4 4: Samp Speed: \$1 % \;;
#X connect 0 0 33 0;
#X connect 1 0 34 0;
#X connect 2 0 3 0;
#X connect 3 0 35 0;
#X connect 4 0 16 0;
#X connect 5 0 20 0;
#X connect 5 0 32 0;
#X connect 5 1 0 0;
#X connect 5 1 32 0;
#X connect 5 2 4 0;
#X connect 5 2 32 0;
#X connect 6 0 28 0;
#X connect 7 0 8 0;
#X connect 8 0 31 0;
#X connect 9 0 10 0;
#X connect 9 1 5 0;
#X connect 10 0 11 0;
#X connect 11 0 19 0;
#X connect 12 0 30 0;
#X connect 13 0 14 0;
#X connect 14 0 15 0;
#X connect 15 0 12 0;
#X connect 16 0 17 0;
#X connect 17 0 1 0;
#X connect 19 0 22 0;
#X connect 19 0 24 0;
#X connect 19 1 6 0;
#X connect 19 1 24 0;
#X connect 19 2 13 0;
#X connect 19 2 24 0;
#X connect 20 0 21 0;
#X connect 21 0 2 0;
#X connect 22 0 23 0;
#X connect 23 0 7 0;
#X connect 24 0 25 0;
#X connect 25 0 29 0;
#X connect 26 0 18 0;
#X connect 27 0 9 0;
#X restore 1152 449 pd detent-knob-4;
#X obj 106 430 lop~ 5;
#X obj 87 476 *~;
#X obj 44 521 *~;
#X obj 106 405 r knob2;
#X obj 294 394 r knob1;
#X obj 535 502 i;
#X obj 535 525 change -1;
#X obj 535 447 r knob1;
#X obj 807 505 i;
#X obj 807 528 change -1;
#X obj 807 450 r knob2;
#X msg 807 556 \; screenLine2 2: Output \$1 % \;;
#X obj 535 475 * 101;
#X obj 807 478 * 101;
#X obj 378 652 s~ out;
#X obj 396 481 line~;
#X obj 396 512 *~;
#X msg 363 447 0 5;
#X msg 396 447 1 5;
#X obj 371 409 r mute;
#X obj 421 409 r unmute;
#X obj 235 615 *~;
#X obj 10 436 s~ feedback;
#X msg 49 96 \; screenLine1 1: Input Monitor \; screenLine2 2: Output
\; screenLine3 3: Recycle \; screenLine4 4: Decay \; screenLine5 Aux:
Hold to Rec \; unmute bang \; newsamp bang \; bufset 1 \; state 0 \;
;
#X msg 760 345 \; state 0 \;;
#X msg 856 343 \; state 1 \;;
#X obj 1039 501 i;
#X obj 1039 524 change -1;
#X obj 1039 474 * 101;
#X msg 1039 552 \; screenLine3 3: Recycle \$1 % \;;
#X obj 1039 446 r knob3;
#X msg 535 557 \; screenLine1 1: Input Mon \$1 % \;;
#N canvas 0 50 450 250 (subpatch) 0;
#X array lengths 25 float 3;
#A 0 0 20004 590.658 684.989 1359.82 2152.2 20004 0 0 0 0 0 0 153.832
0 0 0 0 0 0 0 0 0 0 0;
#X coords 0 20000 25 0 200 140 1 0 0;
#X restore 1013 114 graph;
#N canvas 12 50 1618 830 states-and-led 0;
#X obj 704 76 r state;
#X msg 806 235 \; led 1;
#X obj 798 274 r bufset;
#X obj 782 348 f;
#X obj 1125 388 f;
#X msg 1129 409 \; screenLine5 Key \$1 Recording \;;
#X obj 607 357 f;
#X msg 582 404 \; screenLine5 Key \$1 Stopped \;;
#X obj 812 141 v state;
#X obj 699 138 sel 0 1 2 3;
#X msg 532 228 \; mute bang \; led 0 \;;
#X obj 808 407 tabread lengths;
#X obj 835 482 f;
#X obj 931 494 f;
#X obj 803 378 t f f f;
#X obj 834 435 sel 0;
#X obj 888 457 bang;
#X floatatom 782 455 5 0 0 0 - - -, f 5;
#X obj 704 100 t f f;
#X obj 801 299 + 0;
#X msg 755 560 \; screenLine5 Key \$1 Empty \;;
#X msg 681 233 \; unmute bang \; led 3 \;;
#X msg 972 205 \; screenLine5 Saving All... \; led 5 \; mute bang \;
save-all bang \;;
#X msg 189 274 \; led 7 \;;
#X obj 216 164 r looped;
#X msg 249 273 \; led 3 \;;
#X obj 216 190 v state;
#X obj 213 216 sel 1;
#X obj 249 242 delay 100;
#X obj 288 164 r state;
#X obj 288 186 bang;
#X msg 288 208 stop;
#X text 170 111 flash on loop but only while playing;
#X obj 119 161 r flash-led;
#X obj 1217 510 r duration;
#X obj 1217 532 > 20000;
#X obj 1139 606 spigot;
#X obj 1230 557 ==;
#X obj 1218 599 spigot;
#X msg 1282 706 \; screenLine5 Key \$1 Playing \;;
#X msg 1043 702 \; screenLine5 Key \$1 Playing Full \;;
#X connect 0 0 18 0;
#X connect 2 0 19 0;
#X connect 3 0 14 0;
#X connect 4 0 5 0;
#X connect 6 0 7 0;
#X connect 9 0 6 0;
#X connect 9 0 10 0;
#X connect 9 1 3 0;
#X connect 9 1 21 0;
#X connect 9 2 1 0;
#X connect 9 2 4 0;
#X connect 9 3 22 0;
#X connect 11 0 15 0;
#X connect 11 0 17 0;
#X connect 12 0 20 0;
#X connect 13 0 36 0;
#X connect 13 0 38 0;
#X connect 14 0 11 0;
#X connect 14 1 12 1;
#X connect 14 2 13 1;
#X connect 15 0 12 0;
#X connect 15 1 16 0;
#X connect 16 0 13 0;
#X connect 18 0 9 0;
#X connect 18 1 8 0;
#X connect 19 0 3 1;
#X connect 19 0 4 1;
#X connect 19 0 6 1;
#X connect 24 0 26 0;
#X connect 26 0 27 0;
#X connect 27 0 23 0;
#X connect 27 0 28 0;
#X connect 28 0 25 0;
#X connect 29 0 30 0;
#X connect 30 0 31 0;
#X connect 31 0 28 0;
#X connect 33 0 28 0;
#X connect 33 0 23 0;
#X connect 34 0 35 0;
#X connect 35 0 37 0;
#X connect 35 0 36 1;
#X connect 36 0 40 0;
#X connect 37 0 38 1;
#X connect 38 0 39 0;
#X restore 391 278 pd states-and-led;
#N canvas 182 240 851 768 auto-save-sounds 0;
#N canvas 5 50 450 250 (subpatch) 0;
#X array backupstat 24 float 2;
#X coords 0 2 25 0 200 100 1 0 0;
#X restore 207 61 graph;
#N canvas 1073 89 794 885 save-one 0;
#X msg 54 480 start;
#X obj 376 538 line~;
#X obj 306 832 writesf~;
#X floatatom 361 402 50 0 0 0 - - -, f 50;
#X msg 445 495 0;
#X obj 342 499 pack 0 0;
#X obj 346 465 * 44.1;
#X obj 373 427 t f f;
#X obj 250 213 bng 15 250 50 0 empty empty empty 17 7 0 10 -262144
-1 -1;
#X obj 377 577 tabread~ itake-1;
#X obj 537 515 delay;
#X obj 313 339 f;
#X obj 250 240 t b b b b b;
#X msg 533 647 stop;
#X obj 238 160 inlet;
#X obj 401 463 / 1;
#X obj 443 155 inlet;
#X obj 588 167 inlet;
#X text 340 62 backup a table. right is table to backup \, middle is
length \, left is go;
#X msg 590 241 set itake-\$1;
#X obj 228 391 i;
#X msg 101 480 open \$1;
#X obj 437 828 outlet;
#X obj 535 575 t b b;
#X msg 229 636 stop;
#X obj 234 505 r quitting;
#X obj 133 443 makefilename ./sound-%d.wav;
#X connect 0 0 2 0;
#X connect 1 0 9 0;
#X connect 3 0 7 0;
#X connect 4 0 1 0;
#X connect 5 0 1 0;
#X connect 6 0 5 0;
#X connect 7 0 6 0;
#X connect 7 1 15 0;
#X connect 8 0 12 0;
#X connect 9 0 2 0;
#X connect 10 0 23 0;
#X connect 11 0 3 0;
#X connect 12 0 11 0;
#X connect 12 1 0 0;
#X connect 12 2 20 0;
#X connect 12 3 4 0;
#X connect 12 4 10 0;
#X connect 13 0 2 0;
#X connect 14 0 8 0;
#X connect 15 0 5 1;
#X connect 16 0 11 1;
#X connect 16 0 10 1;
#X connect 17 0 19 0;
#X connect 17 0 20 1;
#X connect 19 0 9 0;
#X connect 20 0 26 0;
#X connect 21 0 2 0;
#X connect 23 0 22 0;
#X connect 23 1 13 0;
#X connect 24 0 2 0;
#X connect 25 0 24 0;
#X connect 26 0 21 0;
#X restore 326 503 pd save-one;
#X obj 322 461 bng 15 250 50 0 empty empty empty 17 7 0 10 -262144
-1 -1;
#X floatatom 422 474 5 0 0 0 - - -, f 5;
#X obj 310 536 bng 15 250 50 0 empty empty empty 17 7 0 10 -262144
-1 -1;
#X obj 67 343 tabwrite backupstat;
#X floatatom 173 312 5 0 0 0 - - -, f 5;
#X obj 173 286 r bufset;
#X msg 68 314 1;
#X obj 83 281 r done-rec;
#X obj 360 220 + 1;
#X msg 295 293 0;
#X obj 280 183 bng 15 250 50 0 empty empty empty 17 7 0 10 -262144
-1 -1;
#X obj 295 237 t f f f;
#X floatatom 351 264 5 0 0 0 - - -, f 5;
#X obj 294 213 i 0;
#X obj 346 318 tabread backupstat;
#X obj 344 348 sel 0 1;
#X obj 407 374 i;
#X obj 518 544 tabwrite backupstat;
#X floatatom 618 514 5 0 0 0 - - -, f 5;
#X obj 559 453 t b f;
#X msg 519 514 0;
#X obj 367 437 tabread lengths;
#X obj 249 577 delay 100;
#X floatatom 382 457 15 0 0 0 - - -, f 15;
#X obj 371 290 t f f;
#X obj 393 397 t b f f f;
#X obj 113 132 loadbang;
#X text 430 102 these flags get after rec button is released;
#X text 103 252 flag it...;
#X text 407 261 loop over all the sounds;
#X text 458 356 save sounds in Loops folder if flagged;
#X obj 290 263 sel 25;
#X connect 1 0 4 0;
#X connect 2 0 1 0;
#X connect 3 0 1 2;
#X connect 4 0 24 0;
#X connect 6 0 5 1;
#X connect 7 0 6 0;
#X connect 8 0 5 0;
#X connect 9 0 8 0;
#X connect 10 0 15 1;
#X connect 11 0 15 1;
#X connect 12 0 15 0;
#X connect 13 0 33 0;
#X connect 13 1 10 0;
#X connect 13 2 14 0;
#X connect 14 0 26 0;
#X connect 15 0 13 0;
#X connect 16 0 17 0;
#X connect 17 0 24 0;
#X connect 17 1 18 0;
#X connect 18 0 27 0;
#X connect 20 0 19 1;
#X connect 21 0 22 0;
#X connect 21 1 20 0;
#X connect 22 0 19 0;
#X connect 23 0 25 0;
#X connect 24 0 12 0;
#X connect 25 0 1 1;
#X connect 26 0 16 0;
#X connect 26 1 18 1;
#X connect 27 0 2 0;
#X connect 27 1 23 0;
#X connect 27 2 3 0;
#X connect 27 3 21 0;
#X connect 28 0 12 0;
#X connect 33 0 11 0;
#X restore 238 274 pd auto-save-sounds;
#X text 364 15 24 sample loops. a key selects one;
#X connect 0 0 43 0;
#X connect 3 0 7 0;
#X connect 4 0 7 0;
#X connect 5 0 6 0;
#X connect 5 0 6 1;
#X connect 6 0 7 1;
#X connect 7 0 41 0;
#X connect 8 0 10 0;
#X connect 10 0 44 0;
#X connect 10 1 17 0;
#X connect 11 0 12 0;
#X connect 11 1 8 0;
#X connect 12 0 13 0;
#X connect 15 0 11 0;
#X connect 16 0 22 0;
#X connect 16 0 42 0;
#X connect 17 0 45 0;
#X connect 17 1 14 0;
#X connect 20 0 21 0;
#X connect 20 0 21 1;
#X connect 21 0 22 1;
#X connect 22 0 41 0;
#X connect 23 0 20 0;
#X connect 24 0 5 0;
#X connect 25 0 26 0;
#X connect 26 0 51 0;
#X connect 27 0 32 0;
#X connect 28 0 29 0;
#X connect 29 0 31 0;
#X connect 30 0 33 0;
#X connect 32 0 25 0;
#X connect 33 0 28 0;
#X connect 35 0 36 0;
#X connect 35 0 36 1;
#X connect 36 0 41 1;
#X connect 37 0 35 0;
#X connect 38 0 35 0;
#X connect 39 0 37 0;
#X connect 40 0 38 0;
#X connect 41 0 2 0;
#X connect 41 0 1 0;
#X connect 41 0 34 0;
#X connect 46 0 47 0;
#X connect 47 0 49 0;
#X connect 48 0 46 0;
#X connect 50 0 48 0;
