#N canvas 11 50 764 836 10;
#X obj 306 37 inlet;
#X obj 317 600 vline~;
#X obj 311 632 *~;
#X obj 379 726 *~;
#X obj 380 753 throw~ grainoutR;
#X obj 248 753 throw~ grainoutL;
#X obj 247 723 *~;
#X msg 229 548 0 500;
#X obj 211 483 r alloff;
#X obj 213 326 r allon;
#X msg 250 416 1 500;
#X obj 303 110 mtof;
#X floatatom 276 188 50 0 0 0 - - -, f 50;
#X floatatom 315 73 5 0 0 0 - - -, f 5;
#X obj 294 152 / 523.251;
#X obj 337 326 bang;
#X obj 59 249 grain;
#X obj 540 252 grain;
#X connect 0 0 13 0;
#X connect 1 0 2 1;
#X connect 1 0 2 0;
#X connect 2 0 3 1;
#X connect 2 0 6 0;
#X connect 3 0 4 0;
#X connect 6 0 5 0;
#X connect 7 0 1 0;
#X connect 8 0 7 0;
#X connect 9 0 10 0;
#X connect 10 0 1 0;
#X connect 11 0 14 0;
#X connect 12 0 15 0;
#X connect 12 0 16 0;
#X connect 12 0 17 0;
#X connect 13 0 11 0;
#X connect 14 0 12 0;
#X connect 15 0 10 0;
#X connect 16 0 6 1;
#X connect 17 0 3 0;
