#N canvas 4 62 1406 917 10;
#X obj 969 42 loadbang;
#X obj 948 168 soundfiler;
#N canvas 0 50 450 300 (subpatch) 0;
#X array druma 44104 float 0;
#X coords 0 1.02 44103 -1.02 200 130 1;
#X restore 867 203 graph;
#X obj 1093 603 * 2;
#X obj 418 691 lop~ 5;
#X obj 417 660 sig~;
#N canvas 0 50 450 300 (subpatch) 0;
#X array drumb 44104 float 0;
#X coords 0 1.02 44103 -1.02 200 130 1 0 0;
#X restore 869 360 graph;
#N canvas 0 50 450 300 (subpatch) 0;
#X array drumc 44104 float 0;
#X coords 0 1.02 44103 -1.02 200 130 1 0 0;
#X restore 1093 199 graph;
#N canvas 0 50 450 300 (subpatch) 0;
#X array drumd 44104 float 0;
#X coords 0 1.02 44103 -1.02 200 130 1 0 0;
#X restore 1096 367 graph;
#X msg 1184 110 read ./d.wav drumd;
#X msg 1039 106 read ./c.wav drumc;
#X msg 900 107 read ./b.wav drumb;
#X msg 754 112 read ./a.wav druma;
#X obj 93 118 unpack 0 0;
#X obj 187 792 * 4;
#X obj 417 608 * 0.5;
#X obj 417 634 + 0.5;
#X obj 93 149 poly 4 1;
#X obj 93 180 pack 0 0 0;
#X obj 93 207 route 1 2 3 4, f 33;
#X obj 486 642 i;
#X obj 486 619 * 100;
#X obj 1238 621 i;
#X obj 1237 599 * 100;
#X obj 183 853 lop~ 5;
#X obj 183 820 sig~;
#X msg 686 734 set druma;
#X obj 761 618 * 4;
#X obj 761 656 i;
#X obj 761 684 sel 0 1 2 3;
#X msg 769 732 set drumb;
#X msg 854 734 set drumc;
#X msg 935 733 set drumd;
#X obj 1093 565 + 0.01;
#X text 359 19 Plays drum samples into a tuned delay line for pseudo
plucked string effect;
#X obj 111 569 / 100;
#X obj 111 591 mtof;
#X obj 111 613 / 8.1785;
#X obj 108 544 * 2400;
#X obj 63 691 i;
#X obj 175 735 /;
#X obj 179 686 t b f;
#X msg 179 708 1;
#X text 181 544 get delay time \, 'string length';
#X text 187 561 from cents;
#X obj 92 335 *~ 0.75;
#X obj 93 87 r tunedel-\$1-notes-in;
#X obj 92 361 s~ tunedel-\$1-out;
#X obj 105 519 r tunedel-\$1-dtime;
#X msg 28 734 Tune \$1 cents;
#X obj 28 770 s tunedel-\$1-dtime-label;
#X obj 183 890 s~ tunedel-\$1-dtime-local;
#X obj 416 757 s~ tunedel-\$1-fb-local;
#X obj 417 537 r tunedel-\$1-fb;
#X obj 486 691 s tunedel-\$1-fb-label;
#X msg 486 667 Feedback \$1 %;
#X obj 761 588 r tunedel-\$1-drums;
#X obj 841 824 s tunedel-\$1-drums-label;
#X obj 686 784 s tunedel-\$1-drums-local;
#X obj 1093 533 r tunedel-\$1-tone;
#X obj 1093 635 s tunedel-\$1-tone-local;
#X obj 1238 709 s tunedel-\$1-tone-label;
#X msg 1238 670 Tone \$1 units;
#X msg 910 785 Cymbol;
#X msg 841 783 Snare;
#X msg 993 784 TomTom;
#X msg 1076 785 Bass Drum;
#X obj 362 203 r tunedel-\$1-drums-local;
#X obj 310 288 stretchy \$1;
#X obj 241 249 stretchy \$1;
#X obj 167 289 stretchy \$1;
#X obj 93 249 stretchy \$1;
#X connect 0 0 12 0;
#X connect 0 0 11 0;
#X connect 0 0 10 0;
#X connect 0 0 9 0;
#X connect 3 0 60 0;
#X connect 4 0 52 0;
#X connect 5 0 4 0;
#X connect 9 0 1 0;
#X connect 10 0 1 0;
#X connect 11 0 1 0;
#X connect 12 0 1 0;
#X connect 13 0 17 0;
#X connect 13 1 17 1;
#X connect 14 0 25 0;
#X connect 15 0 16 0;
#X connect 16 0 5 0;
#X connect 17 0 18 0;
#X connect 17 1 18 1;
#X connect 17 2 18 2;
#X connect 18 0 19 0;
#X connect 19 0 71 0;
#X connect 19 1 70 0;
#X connect 19 2 69 0;
#X connect 19 3 68 0;
#X connect 20 0 55 0;
#X connect 21 0 20 0;
#X connect 22 0 62 0;
#X connect 23 0 22 0;
#X connect 24 0 51 0;
#X connect 25 0 24 0;
#X connect 26 0 58 0;
#X connect 27 0 28 0;
#X connect 28 0 29 0;
#X connect 29 0 26 0;
#X connect 29 0 64 0;
#X connect 29 1 30 0;
#X connect 29 1 63 0;
#X connect 29 2 31 0;
#X connect 29 2 65 0;
#X connect 29 3 32 0;
#X connect 29 3 66 0;
#X connect 30 0 58 0;
#X connect 31 0 58 0;
#X connect 32 0 58 0;
#X connect 33 0 3 0;
#X connect 33 0 23 0;
#X connect 35 0 36 0;
#X connect 36 0 37 0;
#X connect 37 0 41 0;
#X connect 38 0 35 0;
#X connect 38 0 39 0;
#X connect 39 0 49 0;
#X connect 40 0 14 0;
#X connect 41 0 42 0;
#X connect 41 1 40 1;
#X connect 42 0 40 0;
#X connect 45 0 47 0;
#X connect 46 0 13 0;
#X connect 48 0 38 0;
#X connect 49 0 50 0;
#X connect 53 0 21 0;
#X connect 53 0 15 0;
#X connect 55 0 54 0;
#X connect 56 0 27 0;
#X connect 59 0 33 0;
#X connect 62 0 61 0;
#X connect 63 0 57 0;
#X connect 64 0 57 0;
#X connect 65 0 57 0;
#X connect 66 0 57 0;
#X connect 67 0 68 1;
#X connect 67 0 69 1;
#X connect 67 0 70 1;
#X connect 67 0 71 1;
#X connect 68 0 45 0;
#X connect 69 0 45 0;
#X connect 70 0 45 0;
#X connect 71 0 45 0;
