#N canvas 554 121 1076 768 10;
#X declare -path ./rj;
#X floatatom 163 270 5 0 0 0 - - -, f 5;
#X obj 163 296 s num-down;
#X text 154 359 then play them!;
#N canvas 144 50 1100 963 arp 0;
#X obj 242 791 pack 0 100;
#X obj 254 892 outlet;
#X obj 136 610 tabread notes-increasing;
#X obj 169 576 random;
#X obj 141 479 spigot 0;
#X obj 219 398 r num-down;
#X obj 214 430 t f f;
#X obj 236 711 + 12;
#X obj 153 525 t b b;
#X obj 290 684 * 12;
#X obj 294 658 random 2;
#X obj 146 365 metro 100;
#X obj 289 168 snapshot~;
#X obj 219 125 metro 10;
#X obj 381 28 loadbang;
#X msg 268 59 1;
#X obj 290 129 osc~ 0.03;
#X obj 287 195 * 0.5;
#X obj 277 230 + 0.5;
#X obj 253 258 * 1000;
#X floatatom 296 314 5 0 0 0 - - -, f 5;
#X floatatom 316 81 5 0 0 0 - - -, f 5;
#X obj 569 805 pack 0 100;
#X obj 463 624 tabread notes-increasing;
#X obj 479 576 random;
#X obj 468 493 spigot 0;
#X obj 546 412 r num-down;
#X obj 541 444 t f f;
#X obj 550 749 + 12;
#X obj 480 539 t b b;
#X obj 617 698 * 12;
#X obj 621 672 random 2;
#X obj 473 379 metro 100;
#X obj 616 182 snapshot~;
#X obj 546 139 metro 10;
#X msg 552 86 1;
#X obj 614 209 * 0.5;
#X obj 604 244 + 0.5;
#X floatatom 547 690 5 0 0 0 - - -, f 5;
#X floatatom 643 95 5 0 0 0 - - -, f 5;
#X obj 617 143 osc~ 0.031;
#X obj 888 561 print;
#X obj 240 749 - 24;
#X obj 714 311 vsl 15 128 0 1 0 0 empty empty empty 0 -9 0 10 -262144
-1 -1 7161 1;
#X obj 583 286 * 500;
#X obj 785 81 * 0.5;
#X obj 507 48 * 0.5;
#X obj 391 340 vsl 15 128 0 1 0 0 empty empty empty 0 -9 0 10 -262144
-1 -1 12698 1;
#X obj 524 20 r knob1, f 14;
#X obj 785 59 r knob2;
#X obj 253 281 + 120;
#X obj 571 324 + 100;
#X obj 549 880 outlet;
#X connect 0 0 1 0;
#X connect 2 0 7 0;
#X connect 3 0 2 0;
#X connect 4 0 8 0;
#X connect 5 0 6 0;
#X connect 6 0 4 1;
#X connect 6 1 3 1;
#X connect 7 0 42 0;
#X connect 8 0 3 0;
#X connect 8 1 10 0;
#X connect 9 0 7 1;
#X connect 10 0 9 0;
#X connect 11 0 4 0;
#X connect 12 0 17 0;
#X connect 13 0 12 0;
#X connect 14 0 15 0;
#X connect 14 0 35 0;
#X connect 15 0 13 0;
#X connect 15 0 11 0;
#X connect 16 0 12 0;
#X connect 17 0 18 0;
#X connect 18 0 19 0;
#X connect 18 0 47 0;
#X connect 19 0 50 0;
#X connect 21 0 16 0;
#X connect 22 0 52 0;
#X connect 23 0 28 0;
#X connect 24 0 23 0;
#X connect 25 0 29 0;
#X connect 26 0 27 0;
#X connect 27 0 25 1;
#X connect 27 1 24 1;
#X connect 28 0 22 0;
#X connect 29 0 24 0;
#X connect 29 1 31 0;
#X connect 30 0 28 1;
#X connect 31 0 30 0;
#X connect 32 0 25 0;
#X connect 33 0 36 0;
#X connect 34 0 33 0;
#X connect 35 0 34 0;
#X connect 35 0 32 0;
#X connect 36 0 37 0;
#X connect 37 0 43 0;
#X connect 37 0 44 0;
#X connect 39 0 40 0;
#X connect 40 0 33 0;
#X connect 42 0 0 0;
#X connect 44 0 51 0;
#X connect 45 0 39 0;
#X connect 46 0 21 0;
#X connect 48 0 46 0;
#X connect 49 0 45 0;
#X connect 50 0 11 1;
#X connect 50 0 20 0;
#X connect 51 0 32 1;
#X restore 163 391 pd arp;
#N canvas 1003 50 533 527 countnotes 0;
#X obj 104 289 > 0;
#X obj 104 316 sel 1;
#X obj 158 352 + 1, f 4;
#X obj 110 353 f 0;
#X obj 141 130 until;
#X obj 142 174 f;
#X obj 174 173 + 1, f 4;
#X msg 319 198 0, f 2;
#X msg 142 105 8, f 2;
#X obj 143 35 r countem;
#X obj 89 395 f 0;
#X obj 89 458 outlet;
#X obj 83 200 t f f;
#X obj 36 244 sel 7;
#X obj 30 313 bng 15 250 50 0 empty empty empty 17 7 0 10 -262144 -1
-1;
#X obj 201 422 print;
#X obj 106 234 tabread notes-from-poly;
#X obj 143 81 t b b;
#X connect 0 0 1 0;
#X connect 1 0 3 0;
#X connect 2 0 3 1;
#X connect 2 0 10 1;
#X connect 3 0 2 0;
#X connect 4 0 5 0;
#X connect 5 0 6 0;
#X connect 5 0 12 0;
#X connect 6 0 5 1;
#X connect 7 0 5 1;
#X connect 7 0 3 1;
#X connect 7 0 10 1;
#X connect 8 0 4 0;
#X connect 9 0 17 0;
#X connect 10 0 11 0;
#X connect 12 0 13 0;
#X connect 12 1 16 0;
#X connect 13 0 10 0;
#X connect 14 0 10 0;
#X connect 16 0 0 0;
#X connect 17 0 8 0;
#X connect 17 1 7 0;
#X restore 163 244 pd countnotes;
#N canvas 12 50 1683 898 note-arrays 0;
#N canvas 0 50 450 278 (subpatch) 0;
#X array notes-from-poly 8 float 2;
#X coords 0 127 8 0 200 140 1 0 0;
#X restore 884 117 graph;
#N canvas 0 50 450 278 (subpatch) 0;
#X array notes-squashed 8 float 3;
#A 0 0 0 0 0 0 0 0 0;
#X coords 0 127 8 0 200 140 1 0 0;
#X restore 883 299 graph;
#N canvas 0 50 450 278 (subpatch) 0;
#X array notes-increasing 8 float 3;
#A 0 0 0 0 0 0 0 0 0;
#X coords 0 127 8 0 200 140 1 0 0;
#X restore 886 675 graph;
#N canvas 133 50 826 891 array-sort 0;
#X obj 263 111 until;
#X obj 263 153 f;
#X obj 296 154 + 1, f 4;
#X msg 321 91 0, f 2;
#X obj 296 21 bng 15 250 50 0 empty empty empty 17 7 0 10 -262144 -1
-1;
#X obj 312 267 f;
#X obj 264 232 t f b;
#X obj 262 182 t f f;
#X obj 249 452 f;
#X floatatom 240 515 5 0 0 0 - - -, f 5;
#X obj 306 399 sel 1;
#X obj 214 485 f;
#X obj 173 537 f;
#X obj 213 553 t b b;
#X obj 323 560 t b f;
#X obj 250 580 f;
#X obj 343 -90 until;
#X obj 344 -46 f;
#X obj 376 -47 + 1, f 4;
#X msg 401 -110 0, f 2;
#X obj 345 -139 t b b;
#X obj 329 -11 t b f;
#X obj 214 -206 r reorder;
#X obj 252 48 t b b b b;
#X msg 314 585 0, f 2;
#X msg 357 89 0;
#X obj 217 333 expr if ($f1 > $f2 \, $f1 \, $f2) \; if ($f1 > $f2 \,
1 \, 0);
#X msg 344 -115 8, f 2;
#X msg 263 83 8, f 2;
#X obj 170 -206 bng 15 250 50 0 empty empty empty 17 7 0 10 -262144
-1 -1;
#X obj 264 210 tabread notes-squashed;
#X obj 314 621 tabwrite notes-squashed;
#X obj 139 648 tabwrite notes-decreasing;
#X text 419 137 sort array a into b. a gets clobbered in the process
probably a much better way to do this ...;
#X obj 204 -173 t b b b;
#X connect 0 0 1 0;
#X connect 1 0 2 0;
#X connect 1 0 7 0;
#X connect 2 0 1 1;
#X connect 3 0 1 1;
#X connect 4 0 23 0;
#X connect 5 0 26 1;
#X connect 6 0 26 0;
#X connect 6 1 5 0;
#X connect 7 0 30 0;
#X connect 7 1 8 1;
#X connect 8 0 11 1;
#X connect 9 0 14 0;
#X connect 10 0 8 0;
#X connect 11 0 9 0;
#X connect 11 0 13 0;
#X connect 12 0 32 0;
#X connect 13 0 12 0;
#X connect 13 1 15 0;
#X connect 14 0 24 0;
#X connect 14 1 31 1;
#X connect 15 0 32 1;
#X connect 16 0 17 0;
#X connect 17 0 18 0;
#X connect 17 0 21 0;
#X connect 18 0 17 1;
#X connect 19 0 17 1;
#X connect 20 0 27 0;
#X connect 20 1 19 0;
#X connect 21 0 4 0;
#X connect 21 1 15 1;
#X connect 22 0 34 0;
#X connect 23 0 11 0;
#X connect 23 1 28 0;
#X connect 23 2 3 0;
#X connect 23 3 25 0;
#X connect 24 0 31 0;
#X connect 25 0 5 1;
#X connect 26 0 5 1;
#X connect 26 0 12 1;
#X connect 26 1 10 0;
#X connect 27 0 16 0;
#X connect 28 0 0 0;
#X connect 29 0 34 0;
#X connect 30 0 6 0;
#X connect 34 2 20 0;
#X restore 765 533 pd array-sort;
#X text 1125 180 array1 is raw data from poly (notes with 0 velocity
are given 0 pitch);
#X text 1100 554 here are the notes sorted...;
#N canvas 0 50 450 278 (subpatch) 0;
#X array notes-decreasing 8 float 2;
#X coords 0 127 8 0 200 140 1 0 0;
#X restore 884 492 graph;
#N canvas 167 50 726 731 increasing 0;
#X obj 156 260 until;
#X obj 157 304 f;
#X obj 189 303 + 1, f 4;
#X msg 214 240 0, f 2;
#X obj 155 236 f 0;
#X obj 156 357 - 0;
#X obj 157 408 abs;
#X obj 157 326 t f f;
#X obj 266 471 f;
#X obj 156 469 t f b;
#X obj 320 197 r num-down;
#X obj 156 379 + 1;
#X obj 416 331 until;
#X obj 416 373 f;
#X obj 449 374 + 1, f 4;
#X msg 474 311 0, f 2;
#X obj 416 276 t b b;
#X obj 424 398 t b f;
#X msg 415 423 0, f 2;
#X msg 416 303 8, f 2;
#X obj 155 197 t b b b;
#X obj 156 437 tabread notes-decreasing;
#X obj 152 508 tabwrite notes-increasing;
#X obj 413 448 tabwrite notes-increasing;
#X obj 153 67 inlet;
#X connect 0 0 1 0;
#X connect 1 0 2 0;
#X connect 1 0 7 0;
#X connect 2 0 1 1;
#X connect 3 0 1 1;
#X connect 4 0 0 0;
#X connect 5 0 11 0;
#X connect 6 0 21 0;
#X connect 7 0 5 0;
#X connect 7 1 8 1;
#X connect 8 0 22 1;
#X connect 9 0 22 0;
#X connect 9 1 8 0;
#X connect 10 0 4 1;
#X connect 10 0 5 1;
#X connect 11 0 6 0;
#X connect 12 0 13 0;
#X connect 13 0 14 0;
#X connect 13 0 17 0;
#X connect 14 0 13 1;
#X connect 15 0 13 1;
#X connect 16 0 19 0;
#X connect 16 1 15 0;
#X connect 17 0 18 0;
#X connect 17 1 23 1;
#X connect 18 0 23 0;
#X connect 19 0 12 0;
#X connect 20 0 4 0;
#X connect 20 1 3 0;
#X connect 20 2 16 0;
#X connect 21 0 9 0;
#X connect 24 0 20 0;
#X restore 767 736 pd increasing;
#N canvas 7 50 1000 647 array-copy 0;
#X obj 228 194 until;
#X obj 228 236 f;
#X obj 261 237 + 1, f 4;
#X msg 286 174 0, f 2;
#X obj 227 98 bng 15 250 50 0 empty empty empty 17 7 0 10 -262144 -1
-1;
#X obj 406 272 until;
#X obj 406 314 f;
#X obj 439 315 + 1, f 4;
#X msg 464 252 0, f 2;
#X obj 406 217 t b b;
#X obj 414 339 t b f;
#X msg 405 364 0, f 2;
#X obj 227 121 t b b b;
#X msg 228 166 8, f 2;
#X msg 406 244 8, f 2;
#X text 324 97 this removes 0 elements (or actually just moves the
following elements over 1 place);
#X text 508 296 first zero out the destination array;
#X obj 228 258 t f f;
#X obj 227 75 r copy;
#X obj 408 385 tabwrite notes-squashed;
#X obj 229 297 tabread notes-from-poly;
#X obj 247 410 tabwrite notes-squashed;
#X connect 0 0 1 0;
#X connect 1 0 2 0;
#X connect 1 0 17 0;
#X connect 2 0 1 1;
#X connect 3 0 1 1;
#X connect 4 0 12 0;
#X connect 5 0 6 0;
#X connect 6 0 7 0;
#X connect 6 0 10 0;
#X connect 7 0 6 1;
#X connect 8 0 6 1;
#X connect 9 0 14 0;
#X connect 9 1 8 0;
#X connect 10 0 11 0;
#X connect 10 1 19 1;
#X connect 11 0 19 0;
#X connect 12 0 13 0;
#X connect 12 1 3 0;
#X connect 12 2 9 0;
#X connect 13 0 0 0;
#X connect 14 0 5 0;
#X connect 17 0 20 0;
#X connect 17 1 21 1;
#X connect 18 0 4 0;
#X connect 20 0 21 0;
#X restore 762 357 pd array-copy;
#X text 1097 717 then increasing;
#X text 1110 354 array squash pulls out 0 notes. this array gets clobbered
by the sorting function so it always looks blank;
#X obj 767 709 r others;
#X obj 162 194 r notes;
#X obj 162 273 unpack 0 0;
#X obj 162 333 pack 0 0 0;
#X obj 162 390 unpack;
#X obj 190 524 s reorder;
#X obj 162 298 poly 8 1, f 10;
#X obj 123 524 s others;
#N canvas 10 50 740 589 format_for_array 0;
#X obj 111 44 inlet;
#X obj 102 128 f;
#X obj 144 151 sel 0;
#X msg 121 188 0;
#X obj 167 181 t b b;
#X obj 137 126 f;
#X obj 79 268 t f b;
#X obj 75 336 pack 0 0;
#X obj 85 75 unpack 0 0 0;
#X obj 41 132 t b f;
#X obj 117 304 f;
#X obj 78 389 outlet;
#X obj 133 274 - 1;
#X text 169 280 array index starts at 0 \, poly index starts at 1;
#X text 223 150 if the velocity is > 0 \, outputs note number. If =
0 \, it outputs 0 for note number;
#X connect 0 0 8 0;
#X connect 1 0 6 0;
#X connect 2 0 3 0;
#X connect 2 1 4 0;
#X connect 3 0 6 0;
#X connect 4 0 1 0;
#X connect 5 0 2 0;
#X connect 6 0 7 0;
#X connect 6 1 10 0;
#X connect 7 0 11 0;
#X connect 8 0 9 0;
#X connect 8 1 1 1;
#X connect 8 2 5 1;
#X connect 9 0 5 0;
#X connect 9 1 12 0;
#X connect 10 0 7 1;
#X connect 12 0 10 1;
#X restore 162 362 pd format_for_array;
#X obj 265 524 s copy;
#X obj 397 524 tabwrite notes-from-poly;
#X obj 162 443 t b b b b f, f 34;
#X obj 319 524 s countem;
#X obj 265 202 sel 1;
#X obj 265 158 r fs;
#X obj 314 172 r aux;
#N canvas 288 96 886 799 latch 0;
#X obj 43 371 latch-notes;
#X obj 263 200 bng 15 250 50 0 empty empty empty 17 7 0 10 -262144
-1 -1;
#X obj 263 232 tgl 15 0 empty empty empty 17 7 0 10 -262144 -1 -1 0
1;
#X obj 173 298 spigot 1;
#X obj 43 298 spigot 0;
#X obj 263 258 == 0;
#X obj 309 312 bng 15 250 50 0 empty empty empty 17 7 0 10 -262144
-1 -1;
#X obj 263 160 t b b, f 7;
#X obj 263 368 sel 0 1;
#X obj 263 134 inlet;
#X obj 43 626 outlet;
#X obj 43 106 inlet;
#X text 311 135 bang enable / disables latch;
#X text 44 53 incoming notes get sent through latch if enabled \, or
directly to output if disabled;
#X msg 286 458 \; screenLine5 Aux / FS: Latch OFF \;;
#X msg 263 579 \; screenLine5 Aux / FS: Latch ON \;;
#X text 323 367 Update Screen & LED;
#X msg 273 545 \; led 2;
#X msg 299 418 \; led 0;
#X connect 0 0 10 0;
#X connect 1 0 2 0;
#X connect 2 0 5 0;
#X connect 2 0 4 1;
#X connect 3 0 10 0;
#X connect 4 0 0 0;
#X connect 5 0 3 1;
#X connect 5 0 8 0;
#X connect 6 0 0 1;
#X connect 7 0 1 0;
#X connect 7 1 6 0;
#X connect 8 0 15 0;
#X connect 8 0 17 0;
#X connect 8 1 14 0;
#X connect 8 1 18 0;
#X connect 9 0 7 0;
#X connect 11 0 4 0;
#X connect 11 0 3 0;
#X restore 162 239 pd latch;
#X connect 11 0 7 0;
#X connect 12 0 27 0;
#X connect 13 0 17 0;
#X connect 13 1 17 1;
#X connect 14 0 19 0;
#X connect 15 0 22 0;
#X connect 15 1 21 1;
#X connect 17 0 14 0;
#X connect 17 1 14 1;
#X connect 17 2 14 2;
#X connect 19 0 15 0;
#X connect 22 0 18 0;
#X connect 22 1 16 0;
#X connect 22 2 20 0;
#X connect 22 3 23 0;
#X connect 22 4 21 0;
#X connect 24 0 27 1;
#X connect 25 0 24 0;
#X connect 26 0 24 0;
#X connect 27 0 13 0;
#X restore 164 212 pd note-arrays;
#N canvas 204 98 1167 764 synth 0;
#X text 344 466 final gain adjustment;
#X obj 219 66 inlet;
#X obj 219 150 t b a, f 15;
#X obj 321 175 unpack 0 0;
#X obj 321 273 pack 0 0 0;
#X obj 219 209 counter-up 6;
#X obj 219 237 + 1;
#X text 404 176 there are no note offs \, so just go around;
#X obj 219 93 stripnote;
#X obj 219 121 pack 0 0;
#X obj 323 348 voice;
#X text 848 473 final gain adjustment;
#X obj 723 73 inlet;
#X obj 723 157 t b a, f 15;
#X obj 825 182 unpack 0 0;
#X obj 825 280 pack 0 0 0;
#X obj 723 216 counter-up 6;
#X obj 723 244 + 1;
#X text 908 183 there are no note offs \, so just go around;
#X obj 723 100 stripnote;
#X obj 723 128 pack 0 0;
#X obj 198 312 route 1 2 3 4 5, f 34;
#X obj 702 319 route 1 2 3 4 5, f 34;
#X obj 319 581 outlet~;
#X obj 708 587 outlet~;
#X obj 291 467 *~ 0.8;
#X obj 795 474 *~ 0.8;
#X obj 272 348 voice;
#X obj 169 348 voice;
#X obj 375 348 voice;
#X obj 222 348 voice;
#X obj 776 355 voice;
#X obj 673 355 voice;
#X obj 827 355 voice;
#X obj 879 355 voice;
#X obj 726 355 voice;
#X connect 1 0 8 0;
#X connect 2 0 5 0;
#X connect 2 1 3 0;
#X connect 3 0 4 1;
#X connect 3 1 4 2;
#X connect 4 0 21 0;
#X connect 5 0 6 0;
#X connect 6 0 4 0;
#X connect 8 0 9 0;
#X connect 8 1 9 1;
#X connect 9 0 2 0;
#X connect 10 0 25 0;
#X connect 12 0 19 0;
#X connect 13 0 16 0;
#X connect 13 1 14 0;
#X connect 14 0 15 1;
#X connect 14 1 15 2;
#X connect 15 0 22 0;
#X connect 16 0 17 0;
#X connect 17 0 15 0;
#X connect 19 0 20 0;
#X connect 19 1 20 1;
#X connect 20 0 13 0;
#X connect 21 0 28 0;
#X connect 21 1 30 0;
#X connect 21 2 27 0;
#X connect 21 3 10 0;
#X connect 21 4 29 0;
#X connect 22 0 32 0;
#X connect 22 1 35 0;
#X connect 22 2 31 0;
#X connect 22 3 33 0;
#X connect 22 4 34 0;
#X connect 25 0 23 0;
#X connect 26 0 24 0;
#X connect 27 0 25 0;
#X connect 28 0 25 0;
#X connect 29 0 25 0;
#X connect 30 0 25 0;
#X connect 31 0 26 0;
#X connect 32 0 26 0;
#X connect 33 0 26 0;
#X connect 34 0 26 0;
#X connect 35 0 26 0;
#X restore 158 438 pd synth;
#X obj 219 667 throw~ outL;
#X obj 312 667 throw~ outR;
#N canvas 7 50 803 430 midi 0;
#X obj 61 153 noteout 2;
#X obj 45 78 unpack 0 0;
#X obj 70 121 makenote 100 100;
#X obj 143 68 r decay;
#X text 217 118 send arp notes out ch 2;
#X obj 82 23 inlet;
#X obj 441 70 unpack 0 0;
#X obj 466 113 makenote 100 100;
#X obj 539 60 r decay;
#X obj 478 15 inlet;
#X obj 457 145 noteout 3;
#X text 613 110 send arp notes out ch 3;
#X connect 1 0 2 0;
#X connect 2 0 0 0;
#X connect 2 1 0 1;
#X connect 3 0 2 2;
#X connect 5 0 1 0;
#X connect 6 0 7 0;
#X connect 7 0 10 0;
#X connect 7 1 10 1;
#X connect 8 0 7 2;
#X connect 9 0 6 0;
#X restore 278 430 pd midi;
#X obj 265 573 e_circlepan;
#X obj 611 124 declare -path ./rj;
#X obj 302 480 phasor~ 0.1;
#X obj 154 573 e_circlepan;
#X obj 354 540 abs~;
#X obj 354 518 -~ 0.5;
#N canvas 173 145 323 359 unused-drone 0;
#X obj 97 27 r num-down;
#X obj 97 49 sel 0;
#X obj 133 70 bang;
#X msg 110 126 0;
#X obj 94 163 tabread notes-increasing;
#X obj 119 93 delay 5;
#X obj 94 292 *~ 0.01;
#X obj 101 266 dronevoice;
#X floatatom 107 200 5 0 0 0 - - -, f 5;
#X obj 103 227 - 24;
#X connect 0 0 1 0;
#X connect 1 1 2 0;
#X connect 2 0 5 0;
#X connect 3 0 4 0;
#X connect 4 0 8 0;
#X connect 5 0 3 0;
#X connect 7 0 6 0;
#X connect 8 0 9 0;
#X connect 9 0 7 0;
#X restore 385 615 pd unused-drone;
#X text 402 476 circle them around constantly;
#X text 357 423 Arp notes sent out ch 2 and 3;
#X text 111 116 notes are put into an array and then sorted in increasing
/ decreasing order. the 'arp' subpatch then cycles randomly through
them;
#X text 757 124 include rjdj circular panner;
#N canvas 107 468 1197 329 oled-display 0;
#X obj 66 106 loadbang;
#X obj 847 105 sig~;
#X obj 847 127 lop~ 5;
#X obj 846 83 r knob3;
#X obj 779 179 i;
#X obj 779 201 change -1;
#X obj 778 151 * 100;
#X obj 779 262 s screenLine3;
#X msg 780 228 3: Tone \$1;
#X obj 986 140 i;
#X obj 986 162 change -1;
#X obj 986 212 s screenLine4;
#X obj 986 66 r knob4;
#X obj 986 87 * 2000;
#X obj 986 109 + 20;
#X msg 986 189 4: Decay \$1 ms;
#X obj 1094 158 s decay;
#X msg 66 137 \; screenLine1 1: LFO Rate 1 \; screenLine2 2: LFO Rate
2 \; screenLine3 3: Tone \; screenLine4 4: Decay \; screenLine5 Aux
/ FS: Latch OFF \;;
#X obj 847 149 s~ buzz-tone;
#X obj 568 111 * 0.5;
#X obj 568 247 s screenLine2;
#X obj 568 84 r knob2;
#X obj 568 139 * 100;
#X obj 568 167 i;
#X obj 568 191 change -1;
#X obj 423 111 * 0.5;
#X obj 423 139 * 100;
#X obj 423 167 i;
#X obj 423 191 change -1;
#X obj 423 247 s screenLine1;
#X obj 423 84 r knob1;
#X msg 569 221 2: Rate 2 \$1 cHz;
#X msg 423 221 1: Rate 1 \$1 cHz;
#X connect 0 0 17 0;
#X connect 1 0 2 0;
#X connect 2 0 18 0;
#X connect 3 0 1 0;
#X connect 3 0 6 0;
#X connect 4 0 5 0;
#X connect 5 0 8 0;
#X connect 6 0 4 0;
#X connect 8 0 7 0;
#X connect 9 0 10 0;
#X connect 10 0 15 0;
#X connect 12 0 13 0;
#X connect 13 0 14 0;
#X connect 14 0 9 0;
#X connect 14 0 16 0;
#X connect 15 0 11 0;
#X connect 19 0 22 0;
#X connect 21 0 19 0;
#X connect 22 0 23 0;
#X connect 23 0 24 0;
#X connect 24 0 31 0;
#X connect 25 0 26 0;
#X connect 26 0 27 0;
#X connect 27 0 28 0;
#X connect 28 0 32 0;
#X connect 30 0 25 0;
#X connect 31 0 20 0;
#X connect 32 0 29 0;
#X restore 611 165 pd oled-display;
#X connect 0 0 1 0;
#X connect 3 0 6 0;
#X connect 3 0 9 0;
#X connect 3 1 6 1;
#X connect 3 1 9 1;
#X connect 4 0 0 0;
#X connect 6 0 13 0;
#X connect 6 1 10 0;
#X connect 10 0 7 0;
#X connect 10 1 8 0;
#X connect 12 0 15 0;
#X connect 12 0 13 1;
#X connect 13 0 7 0;
#X connect 13 1 8 0;
#X connect 14 0 10 1;
#X connect 15 0 14 0;
