#N canvas 329 103 712 822 10;
#X obj 249 74 stripnote;
#X msg 230 490 0;
#X obj 206 707 *~ 0.25;
#X obj 206 677 *~;
#X text 338 54 get yer notes;
#X obj 249 74 stripnote;
#X text 407 233 scale playback speed;
#X obj 254 40 inlet;
#X obj 206 771 outlet~;
#X obj 207 602 tabread4~ newsample;
#X obj 239 244 / 261.626;
#X obj 239 266 / 2;
#X obj 182 295 r dur;
#X obj 173 459 /;
#X obj 148 492 pack 0 0;
#X obj 244 332 * 1;
#X obj 147 431 / 44.1;
#X obj 145 330 f 88200;
#X obj 214 187 t b f b;
#X obj 111 389 t f f b b;
#X obj 373 629 vline~;
#X msg 366 511 0 2;
#X obj 150 253 delay 3;
#X obj 526 364 r dur;
#X obj 526 386 / 44.1;
#X obj 482 471 /;
#X obj 464 411 t b f;
#X obj 470 444 f;
#X obj 359 244 / 100;
#X obj 359 266 mtof;
#X obj 359 288 / 8.1785;
#X obj 359 194 r knob1-detent;
#X obj 359 217 * 2400;
#X obj 207 737 hip~ 5;
#X obj 233 113 t f f;
#X obj 146 64 r are-you-on?;
#X obj 168 142 ==;
#X obj 146 85 stripnote;
#X obj 168 163 sel 1;
#X obj 254 143 mtof;
#X obj 352 663 pow~ 2;
#X obj 207 567 vline~;
#X obj 571 512 r knob3-local;
#X obj 603 541 r knob4-local;
#X obj 530 481 r knob2-local;
#N canvas 8 50 902 744 note-shape 0;
#X obj 378 330 * 1;
#X obj 378 356 t f f;
#X obj 456 506 -;
#X obj 502 406 * 0.5;
#X obj 325 175 inlet;
#X obj 207 79 inlet;
#X text 191 46 bang to go;
#X text 398 190 duration of max ( 0 - 1);
#X obj 426 210 inlet;
#X text 329 152 max duration in ms;
#X obj 426 260 f;
#X obj 529 293 f;
#X obj 326 235 f;
#X text 287 46 comment;
#X obj 269 714 outlet;
#X text 331 714 to vline~;
#X obj 529 238 inlet att;
#X obj 653 240 inlet deca;
#X obj 653 371 f;
#X obj 502 427 t f f;
#X obj 352 522 + 5;
#X text 637 583 go to 0 in 5ms after 583ms(no decay);
#X msg 269 674 \$1 \$2 \, 0 \$3 \$4;
#X obj 268 646 pack 0.95 0 0 0, f 27;
#X obj 219 120 t b b b b b, f 33;
#X obj 456 579 *;
#X obj 456 547 t f f, f 11;
#X msg 562 501 1 \$1;
#X obj 562 542 -;
#X obj 653 392 t f f;
#X obj 519 577 *;
#X obj 493 627 + 5;
#X obj 456 600 + 5;
#X floatatom 330 402 5 0 0 0 - - -;
#X obj 352 543 t f f;
#X connect 0 0 1 0;
#X connect 0 0 33 0;
#X connect 1 0 2 0;
#X connect 1 1 3 0;
#X connect 2 0 26 0;
#X connect 3 0 19 0;
#X connect 4 0 12 0;
#X connect 5 0 24 0;
#X connect 8 0 10 0;
#X connect 10 0 0 1;
#X connect 11 0 3 1;
#X connect 12 0 0 0;
#X connect 16 0 11 0;
#X connect 17 0 18 0;
#X connect 18 0 29 0;
#X connect 19 0 20 0;
#X connect 19 1 2 1;
#X connect 20 0 34 0;
#X connect 22 0 14 0;
#X connect 23 0 22 0;
#X connect 24 0 23 0;
#X connect 24 1 12 0;
#X connect 24 2 10 0;
#X connect 24 3 11 0;
#X connect 24 4 18 0;
#X connect 25 0 32 0;
#X connect 26 0 25 0;
#X connect 26 1 30 0;
#X connect 27 0 28 0;
#X connect 28 0 30 1;
#X connect 29 0 25 1;
#X connect 29 1 27 0;
#X connect 30 0 31 0;
#X connect 31 0 23 3;
#X connect 32 0 23 2;
#X connect 34 0 23 1;
#X connect 34 1 31 1;
#X restore 440 580 pd note-shape - - - - - - - -;
#X connect 0 0 34 0;
#X connect 1 0 41 0;
#X connect 2 0 33 0;
#X connect 3 0 2 0;
#X connect 5 0 34 0;
#X connect 7 0 5 0;
#X connect 9 0 3 0;
#X connect 10 0 11 0;
#X connect 11 0 15 0;
#X connect 12 0 17 1;
#X connect 13 0 14 1;
#X connect 14 0 41 0;
#X connect 15 0 13 1;
#X connect 15 0 26 0;
#X connect 16 0 13 0;
#X connect 17 0 19 0;
#X connect 18 0 22 0;
#X connect 18 1 10 0;
#X connect 18 2 21 0;
#X connect 19 0 14 0;
#X connect 19 1 16 0;
#X connect 19 2 1 0;
#X connect 19 3 45 0;
#X connect 20 0 40 0;
#X connect 21 0 20 0;
#X connect 22 0 17 0;
#X connect 23 0 24 0;
#X connect 24 0 27 1;
#X connect 25 0 45 1;
#X connect 26 0 27 0;
#X connect 26 1 25 1;
#X connect 27 0 25 0;
#X connect 28 0 29 0;
#X connect 29 0 30 0;
#X connect 30 0 15 1;
#X connect 31 0 32 0;
#X connect 32 0 28 0;
#X connect 33 0 8 0;
#X connect 34 0 36 1;
#X connect 34 1 39 0;
#X connect 35 0 37 0;
#X connect 36 0 38 0;
#X connect 37 0 36 0;
#X connect 38 0 21 0;
#X connect 39 0 18 0;
#X connect 40 0 3 1;
#X connect 41 0 9 0;
#X connect 42 0 45 3;
#X connect 43 0 45 4;
#X connect 44 0 45 2;
#X connect 45 0 20 0;
