#N canvas 12 80 1895 964 10;
#X obj 202 753 line~;
#X obj 140 219 inlet;
#X obj 140 285 bng 15 250 50 0 empty empty empty 17 7 0 10 -262144
-1 -1;
#X msg 280 383 0 0;
#X obj 140 615 pack 0 0;
#X floatatom 171 454 5 0 0 0 - - -, f 5;
#X floatatom 175 407 5 0 0 0 - - -, f 5;
#X obj 121 430 f;
#X obj 107 482 * 44.1;
#X obj 171 430 r \$1-duration;
#X obj 175 382 r \$1-duration;
#X obj 235 104 stripnote;
#X obj 226 244 sel \$2;
#X obj 226 218 % 24;
#X obj 203 903 throw~ samp_voice_out;
#X obj 201 551 f;
#X obj 295 514 t b f;
#X obj 226 192 abs;
#X text 298 246 second argument (key number);
#X obj 226 153 expr if ($f1 > 59 \, $f1 - 60 \, $f1 - 12);
#X text 338 177 allow all midi notes to trigger samples...;
#X obj 372 748 vline~;
#X obj 367 778 *~;
#X obj 372 595 f 1000;
#X obj 567 473 r \$1-duration;
#X obj 478 570 *;
#X obj 478 485 *;
#X obj 478 463 t f f;
#X obj 202 824 *~;
#X obj 478 399 t f f;
#X text 548 420 if knob all the way up \, never decay;
#X text 559 366 do a simple amplitude decay;
#X obj 547 448 expr if($f1 > 0.98 \, 1 \, 0);
#X obj 203 858 hip~ 5;
#X text 283 860 cut DC;
#X obj 535 551 * 2;
#X text 404 345 scale playback speed;
#X obj 356 356 / 100;
#X obj 356 378 mtof;
#X obj 356 400 / 8.1785;
#X obj 356 331 * 2400;
#X obj 340 439 / 2;
#X obj 198 579 / 1;
#X text 926 112 construct the read message using the sound file name
(\$1);
#X text 696 17 loads and plays sound file;
#X obj 1242 281 folder_list;
#N canvas 7 50 450 278 (subpatch) 0;
#X array \$1-array-1 96220 float 2;
#X coords 0 1 96220 -1 100 100 1 0 0;
#X restore 1063 305 graph;
#X obj 1215 540 soundfiler;
#X floatatom 1215 565 10 0 0 0 - - -, f 10;
#X floatatom 1215 611 10 0 0 0 - - -, f 10;
#X obj 1215 586 / 44.1;
#X text 1282 586 sample rate / 1000;
#X obj 1076 880 s \$1-duration;
#X obj 1215 428 list prepend -resize;
#X obj 1215 453 list prepend read;
#X obj 1215 514 list trim;
#X text 1291 610 milliseconds;
#N canvas 4 50 450 278 (subpatch) 0;
#X array \$1-array-2 96219 float 2;
#X coords 0 1 96219 -1 100 100 1 0 0;
#X restore 1062 427 graph;
#N canvas 5 50 450 278 (subpatch) 0;
#X array \$1-array-3 19982 float 2;
#X coords 0 1 19982 -1 100 100 1 0 0;
#X restore 1063 547 graph;
#N canvas 5 50 450 278 (subpatch) 0;
#X array \$1-array-0 96219 float 2;
#X coords 0 1 96219 -1 100 100 1 0 0;
#X restore 1063 181 graph;
#X msg 1203 159 symbol ./1/*.wav;
#X obj 1277 348 i 0;
#X obj 1335 350 + 1;
#X obj 1278 372 % 4;
#X obj 1245 311 t a b;
#X obj 1246 252 t a b;
#X msg 1300 316 0;
#X obj 1425 432 + 1;
#X floatatom 1425 454 5 0 0 0 - - -, f 5;
#X obj 1344 139 bng 15 250 50 0 empty empty empty 17 7 0 10 -262144
-1 -1;
#X obj 1344 167 f \$1;
#X obj 841 685 random;
#X obj 1425 478 s \$1-num-sounds;
#X obj 880 659 r \$1-num-sounds;
#X obj 838 645 bng 15 250 50 0 empty empty empty 17 7 0 10 -262144
-1 -1;
#X floatatom 841 719 5 0 0 0 - - -, f 5;
#X obj 1352 112 loadbang;
#X text 799 33 argument 1: folder / key number;
#X obj 1106 748 v \$1-dur-0;
#X obj 1118 778 v \$1-dur-1;
#X obj 1138 810 v \$1-dur-3;
#X obj 1170 842 v \$1-dur-4;
#X obj 1196 681 pack 0 0;
#X obj 957 763 sel 0 1 2 3;
#X obj 1218 651 swap;
#X obj 1202 716 route 0 1 2 3;
#X floatatom 1250 785 5 0 0 0 - - -, f 5;
#X floatatom 1293 785 5 0 0 0 - - -, f 5;
#X floatatom 1334 787 5 0 0 0 - - -, f 5;
#X floatatom 1377 789 5 0 0 0 - - -, f 5;
#X obj 847 748 t f f;
#X obj 1296 402 makefilename \$1-array-%d;
#X obj 1215 482 list append \$1-array-1;
#X obj 774 830 makefilename \$1-array-%d;
#X msg 758 858 set \$1;
#X obj 1316 195 makefilename ./%d/*;
#X obj 562 497 t b f;
#X obj 471 528 f;
#X obj 203 780 tabread4~ \$1-array-0;
#X obj 404 457 / 127;
#X msg 372 652 \$3 1 \, \$2 \$1 1;
#X obj 372 623 pack 0 0 0;
#X obj 192 332 t b b b b;
#X obj 223 271 t b b;
#X text 479 25 comment;
#X text 797 50 argument 2: key number to play;
#X obj 223 298 delay 2;
#X msg 326 599 0 2;
#X msg 500 654 0 2;
#X msg 620 654 1 2;
#X text 1280 71 basic sampler with recording;
#X text 1278 94 sample is transposed by keys;
#X obj 358 308 r hr-\$3-knob-detent;
#X obj 478 368 r hr-\$3-decay;
#X obj 182 54 r hr-\$3-notes-in-local;
#X obj 619 623 r hr-\$3-allon;
#X obj 500 623 r hr-\$3-alloff;
#X connect 0 0 98 0;
#X connect 1 0 2 0;
#X connect 2 0 102 0;
#X connect 3 0 0 0;
#X connect 4 0 0 0;
#X connect 5 0 15 0;
#X connect 6 0 7 1;
#X connect 7 0 8 0;
#X connect 8 0 4 0;
#X connect 9 0 5 0;
#X connect 10 0 6 0;
#X connect 11 0 19 0;
#X connect 11 1 99 0;
#X connect 12 0 103 0;
#X connect 13 0 12 0;
#X connect 15 0 42 0;
#X connect 16 0 15 0;
#X connect 16 1 42 1;
#X connect 17 0 13 0;
#X connect 19 0 17 0;
#X connect 21 0 22 1;
#X connect 21 0 22 0;
#X connect 22 0 28 1;
#X connect 23 0 101 0;
#X connect 24 0 96 0;
#X connect 25 0 23 1;
#X connect 26 0 97 0;
#X connect 27 0 26 0;
#X connect 27 1 26 1;
#X connect 28 0 33 0;
#X connect 29 0 27 0;
#X connect 29 1 32 0;
#X connect 32 0 101 1;
#X connect 33 0 14 0;
#X connect 35 0 25 1;
#X connect 37 0 38 0;
#X connect 38 0 39 0;
#X connect 39 0 41 0;
#X connect 40 0 37 0;
#X connect 41 0 16 0;
#X connect 42 0 4 1;
#X connect 45 0 64 0;
#X connect 47 0 48 0;
#X connect 48 0 50 0;
#X connect 49 0 84 0;
#X connect 50 0 49 0;
#X connect 53 0 54 0;
#X connect 54 0 92 0;
#X connect 55 0 47 0;
#X connect 60 0 65 0;
#X connect 61 0 62 0;
#X connect 61 0 63 0;
#X connect 61 0 67 0;
#X connect 62 0 61 1;
#X connect 63 0 84 1;
#X connect 63 0 91 0;
#X connect 64 0 53 0;
#X connect 64 1 61 0;
#X connect 65 0 45 0;
#X connect 65 1 66 0;
#X connect 66 0 61 1;
#X connect 67 0 68 0;
#X connect 68 0 72 0;
#X connect 69 0 70 0;
#X connect 70 0 95 0;
#X connect 71 0 75 0;
#X connect 73 0 71 1;
#X connect 74 0 71 0;
#X connect 75 0 90 0;
#X connect 76 0 69 0;
#X connect 78 0 52 0;
#X connect 79 0 52 0;
#X connect 80 0 52 0;
#X connect 81 0 52 0;
#X connect 82 0 85 0;
#X connect 83 0 78 0;
#X connect 83 1 79 0;
#X connect 83 2 80 0;
#X connect 83 3 81 0;
#X connect 84 0 82 0;
#X connect 84 1 82 1;
#X connect 85 0 78 0;
#X connect 85 0 86 0;
#X connect 85 1 79 0;
#X connect 85 1 87 0;
#X connect 85 2 80 0;
#X connect 85 2 88 0;
#X connect 85 3 81 0;
#X connect 85 3 89 0;
#X connect 90 0 93 0;
#X connect 90 1 83 0;
#X connect 91 0 92 1;
#X connect 92 0 55 0;
#X connect 93 0 94 0;
#X connect 94 0 98 0;
#X connect 95 0 65 0;
#X connect 96 0 97 0;
#X connect 96 1 35 0;
#X connect 97 0 25 0;
#X connect 98 0 28 0;
#X connect 99 0 101 2;
#X connect 100 0 21 0;
#X connect 101 0 100 0;
#X connect 102 0 7 0;
#X connect 102 1 3 0;
#X connect 102 2 23 0;
#X connect 102 3 74 0;
#X connect 103 0 106 0;
#X connect 103 1 107 0;
#X connect 106 0 102 0;
#X connect 107 0 21 0;
#X connect 108 0 21 0;
#X connect 109 0 21 0;
#X connect 112 0 40 0;
#X connect 113 0 29 0;
#X connect 114 0 11 0;
#X connect 115 0 109 0;
#X connect 116 0 108 0;
