#N canvas 7 50 450 300 10;
#X obj 133 158 list prepend;
#X obj 133 104 t a b;
#X obj 133 192 list trim;
#X obj 133 222 outlet;
#X obj 133 67 inlet;
#X obj 203 126 symbol \$1;
#X text 91 26 adds event type to incomming list;
#X connect 0 0 2 0;
#X connect 1 0 0 0;
#X connect 1 1 5 0;
#X connect 2 0 3 0;
#X connect 4 0 1 0;
#X connect 5 0 0 1;
