#N canvas 578 133 1233 750 10;
#X text 708 188 counts the amount of loop-#.wav in the sounds folder
;
#X obj 87 29 inlet bang;
#X obj 166 32 bng 15 250 50 0 empty empty empty 17 7 0 10 -262144 -1
-1;
#X obj 463 210 folder_list;
#X text 550 48 look for all loop-\$1.wavs made by this patch than find
the highest number. start the recording number from that point;
#X text 555 23 Arg 1: path to sounds folder (Sounds);
#X obj 463 176 symbol \$1/loop-*.wav;
#X obj 713 152 text define \$0-short;
#X msg 713 120 clear;
#X obj 87 85 t b b b b b b, f 105;
#X msg 606 178 0;
#X obj 463 282 f;
#X obj 496 282 + 1;
#X obj 463 231 t b;
#X obj 528 360 outlet;
#X obj 496 303 t f f;
#X obj 426 330 f;
#X obj 426 351 sel 0;
#X msg 426 372 0;
#X connect 1 0 9 0;
#X connect 2 0 9 0;
#X connect 3 0 13 0;
#X connect 6 0 3 0;
#X connect 8 0 7 0;
#X connect 9 2 16 0;
#X connect 9 3 6 0;
#X connect 9 4 10 0;
#X connect 9 5 8 0;
#X connect 10 0 11 1;
#X connect 11 0 12 0;
#X connect 12 0 11 1;
#X connect 12 0 15 0;
#X connect 13 0 11 0;
#X connect 15 0 16 1;
#X connect 15 1 14 0;
#X connect 16 0 17 0;
#X connect 17 0 18 0;
#X connect 18 0 14 0;
