#N canvas 392 223 921 689 10;
#X declare -path CG-Pd-Library-Local/sequencer;
#X declare -path CG-Pd-Library-Local/metronome;
#X declare -path CG-Pd-Library-Local/sampling;
#X declare -path CG-Pd-Library-Local/externals;
#N canvas 4 50 1524 893 knobs 0;
#X obj 73 14 r knob2;
#X obj 73 481 s screenLine2;
#X obj 837 469 s screenLine3;
#X obj 1116 44 r knob4;
#X obj 1143 329 s screenLine4;
#X obj 1143 256 i;
#X obj 1143 235 * 100;
#X obj 1116 205 t a a;
#X obj 187 179 r loOpsize-ms;
#X obj 187 200 t b a;
#X obj 73 56 i;
#X obj 169 245 * 1, f 8;
#X obj 72 187 t f f;
#X obj 38 246 i;
#X obj 38 267 * 0.01;
#X obj 38 225 * 100;
#X obj 169 269 s fx-length-local;
#X obj 1116 357 s fx-vol-local;
#X obj 945 390 s fx-density-local;
#X obj 837 274 * 100;
#X obj 837 295 i;
#X obj 945 260 pow 2;
#X obj 945 360 -;
#X obj 945 314 + 0.8;
#X obj 945 292 * 7.1;
#X msg 945 335 8 \$1;
#X obj 73 98 / 200;
#X obj 73 77 + 2;
#X obj 72 35 * 98;
#X obj 88 386 shortcut-mute-list 1;
#X obj 837 445 shortcut-mute-list 1;
#X obj 1143 305 shortcut-mute-list 1;
#X obj 42 537 r~ inL;
#X obj 113 537 r~ inR;
#X obj 113 558 *~ 0.707;
#X obj 42 559 *~ 0.707;
#X obj 43 759 *~;
#X obj 352 624 * 100;
#X obj 352 666 i;
#X obj 217 644 pow 2;
#X obj 352 740 s screenLine1;
#X msg 352 688 1: Input Vol: \$1%;
#X obj 217 605 t a a, f 18;
#X obj 44 814 outlet~;
#X obj 217 711 vline~;
#X msg 217 665 \$1 10;
#X obj 352 713 shortcut-mute-list 1;
#X obj 519 705 s cgSc-1-5label;
#X obj 572 787 *~;
#X obj 519 611 sel 0 1, f 29;
#X obj 519 523 r cgSc-1-5;
#X obj 519 544 sel 100;
#X obj 555 567 + 1;
#X obj 519 586 % 2;
#X obj 519 565 f 1;
#X obj 519 631 t b b;
#X obj 604 636 t b b;
#X obj 602 759 line~;
#X msg 602 733 0 10;
#X msg 640 734 1 10;
#X msg 604 665 Monitr:On;
#X msg 519 660 Monitr:Off;
#X obj 837 43 r knob3;
#X obj 837 203 f;
#X obj 1172 13 r SAVE-it-return;
#X obj 1225 44 r mute-Fx;
#X msg 1225 65 0;
#X obj 1172 34 sel 0;
#X obj 1116 175 f;
#X obj 217 484 r knob1;
#X obj 217 544 f;
#X obj 1116 145 spigot 1, f 19;
#X obj 1225 86 t f f;
#X obj 1172 55 t b b;
#X obj 903 33 r SAVE-it-return;
#X obj 983 78 r mute-Fx;
#X msg 983 99 0;
#X obj 903 54 sel 0;
#X obj 983 120 t f f;
#X obj 903 79 t b b;
#X msg 1188 93 1;
#X msg 930 109 1;
#X obj 837 174 spigot 1, f 28;
#X obj 283 435 r SAVE-it-return;
#X obj 355 480 r mute-Fx;
#X msg 355 501 0;
#X obj 283 456 sel 0;
#X obj 355 522 t f f;
#X obj 283 482 t b b;
#X msg 310 511 1;
#X obj 217 576 spigot 1, f 28;
#X obj 139 5 r SAVE-it-return;
#X obj 211 50 r mute-Fx;
#X msg 211 71 0;
#X obj 139 26 sel 0;
#X obj 211 92 t f f;
#X obj 139 52 t b b;
#X msg 166 81 1;
#X obj 73 146 spigot 1, f 28;
#X obj 73 167 f;
#X obj 172 439 r sound-switch;
#X obj 720 659 loadbang;
#X msg 720 680 0 0;
#X obj 572 808 outlet~;
#X msg 837 420 3: FX-Density: \$1%;
#X msg 1143 280 4: FX-Volume: \$1%;
#X msg 88 361 2: FX-Length: \$1x;
#X obj 42 670 *~ 0.9;
#X connect 0 0 28 0;
#X connect 3 0 71 0;
#X connect 5 0 105 0;
#X connect 6 0 5 0;
#X connect 7 0 17 0;
#X connect 7 1 6 0;
#X connect 8 0 9 0;
#X connect 9 0 11 0;
#X connect 9 1 11 1;
#X connect 10 0 27 0;
#X connect 11 0 16 0;
#X connect 12 0 15 0;
#X connect 12 1 11 0;
#X connect 13 0 14 0;
#X connect 14 0 106 0;
#X connect 15 0 13 0;
#X connect 19 0 20 0;
#X connect 20 0 104 0;
#X connect 21 0 24 0;
#X connect 22 0 18 0;
#X connect 23 0 25 0;
#X connect 24 0 23 0;
#X connect 25 0 22 0;
#X connect 26 0 98 0;
#X connect 27 0 26 0;
#X connect 28 0 10 0;
#X connect 29 0 1 0;
#X connect 30 0 2 0;
#X connect 31 0 4 0;
#X connect 32 0 35 0;
#X connect 33 0 34 0;
#X connect 34 0 107 0;
#X connect 35 0 107 0;
#X connect 36 0 43 0;
#X connect 37 0 38 0;
#X connect 38 0 41 0;
#X connect 39 0 45 0;
#X connect 41 0 46 0;
#X connect 42 0 39 0;
#X connect 42 1 37 0;
#X connect 44 0 36 1;
#X connect 45 0 44 0;
#X connect 46 0 40 0;
#X connect 48 0 103 0;
#X connect 49 0 55 0;
#X connect 49 1 56 0;
#X connect 50 0 51 0;
#X connect 51 0 54 0;
#X connect 52 0 54 1;
#X connect 53 0 49 0;
#X connect 54 0 52 0;
#X connect 54 0 53 0;
#X connect 55 0 61 0;
#X connect 55 1 58 0;
#X connect 56 0 60 0;
#X connect 56 1 59 0;
#X connect 57 0 48 1;
#X connect 58 0 57 0;
#X connect 59 0 57 0;
#X connect 60 0 47 0;
#X connect 61 0 47 0;
#X connect 62 0 82 0;
#X connect 63 0 19 0;
#X connect 63 0 21 0;
#X connect 64 0 67 0;
#X connect 65 0 66 0;
#X connect 66 0 72 0;
#X connect 67 0 73 0;
#X connect 68 0 7 0;
#X connect 69 0 70 0;
#X connect 70 0 90 0;
#X connect 71 0 68 0;
#X connect 72 0 7 0;
#X connect 72 1 71 1;
#X connect 73 0 68 0;
#X connect 73 1 80 0;
#X connect 74 0 77 0;
#X connect 75 0 76 0;
#X connect 76 0 78 0;
#X connect 77 0 79 0;
#X connect 78 0 19 0;
#X connect 78 0 21 0;
#X connect 78 1 82 1;
#X connect 79 0 63 0;
#X connect 79 1 81 0;
#X connect 80 0 71 1;
#X connect 81 0 82 1;
#X connect 82 0 63 0;
#X connect 83 0 86 0;
#X connect 84 0 85 0;
#X connect 85 0 87 0;
#X connect 86 0 88 0;
#X connect 87 0 42 0;
#X connect 87 1 90 1;
#X connect 88 0 70 0;
#X connect 88 1 89 0;
#X connect 89 0 90 1;
#X connect 90 0 42 0;
#X connect 91 0 94 0;
#X connect 92 0 93 0;
#X connect 93 0 95 0;
#X connect 94 0 96 0;
#X connect 95 0 12 0;
#X connect 95 1 98 1;
#X connect 96 0 99 0;
#X connect 96 1 97 0;
#X connect 97 0 98 1;
#X connect 98 0 99 0;
#X connect 99 0 12 0;
#X connect 100 0 42 0;
#X connect 101 0 102 0;
#X connect 102 0 57 0;
#X connect 104 0 30 0;
#X connect 105 0 31 0;
#X connect 106 0 29 0;
#X connect 107 0 36 0;
#X connect 107 0 48 0;
#X restore 326 266 pd knobs;
#N canvas 4 50 1770 946 do-this-with-delays 0;
#X obj 62 23 inlet~;
#X obj 622 49 inlet;
#X obj 62 574 *~, f 10;
#X obj 118 536 vline~;
#X msg 1284 211 0 10;
#X obj 326 468 sig~;
#X obj 466 871 outlet~;
#X obj 1162 38 inlet;
#X obj 1162 59 sel 0 1, f 32;
#X msg 1256 83 1;
#X msg 1223 181 stop;
#X obj 1162 233 del 10;
#X msg 1162 255 0;
#X obj 260 430 *~;
#N canvas 4 65 1712 823 effects 0;
#X obj 46 487 effects, f 44;
#X obj 23 11 inlet~;
#X obj 46 508 outlet~;
#X obj 293 546 outlet~ monitor effects;
#X obj 77 11 inlet;
#X msg 305 237 shift bang;
#X msg 220 237 silence bang;
#X msg 146 234 clip bang;
#X msg 78 234 noise bang;
#X obj 509 66 inlet kill;
#X msg 509 176 kill bang;
#X obj 509 87 t b;
#X msg 381 237 filter bang;
#X obj 77 31 random 5;
#X obj 639 78 r cgSc-1-6;
#X obj 639 99 sel 100;
#X obj 669 136 + 1;
#X obj 639 155 % 2;
#X obj 639 134 f 0;
#X obj 771 47 text define fx-bank;
#X obj 639 176 sel 0 1, f 17;
#X obj 893 702 text set fx-bank;
#X obj 639 218 s \$0-fx-tracck;
#X obj 741 476 r \$0-fx-tracck;
#X obj 741 497 unpack 0 0, f 18;
#X msg 638 197 0 0;
#X obj 741 553 sel 0 100, f 45;
#X msg 688 198 100 0;
#X obj 774 730 text delete fx-bank;
#X obj 962 416 f;
#X obj 993 417 + 1;
#X obj 962 382 t b a;
#X msg 913 623 1;
#X obj 962 356 r \$0-2-fx-count;
#X obj 993 486 s \$0-fx-count;
#X obj 924 673 r \$0-fx-count;
#X obj 846 520 t f f;
#X obj 741 581 f;
#X obj 874 580 f;
#X obj 874 601 t b f b;
#X obj 741 602 t f b;
#X obj 741 686 text search fx-bank;
#X obj 741 707 sel -1;
#X msg 768 629 -1;
#X obj 913 644 s \$0-2-fx-count;
#X obj 768 650 s \$0-2-fx-count;
#X obj 993 443 clip 0 4;
#X obj 769 99 sel 100;
#X obj 799 136 + 1;
#X obj 769 155 % 2;
#X obj 769 134 f 0;
#X obj 769 176 sel 0 1, f 17;
#X obj 769 218 s \$0-fx-tracck;
#X obj 769 78 r cgSc-1-7;
#X obj 632 270 sel 100;
#X obj 662 307 + 1;
#X obj 632 326 % 2;
#X obj 632 305 f 0;
#X obj 632 347 sel 0 1, f 17;
#X obj 632 389 s \$0-fx-tracck;
#X obj 762 270 sel 100;
#X obj 792 307 + 1;
#X obj 762 326 % 2;
#X obj 762 305 f 0;
#X obj 762 347 sel 0 1, f 17;
#X obj 762 389 s \$0-fx-tracck;
#X obj 633 249 r cgSc-1-8;
#X obj 762 250 r cgSc-1-9;
#X obj 899 99 sel 100;
#X obj 929 136 + 1;
#X obj 899 155 % 2;
#X obj 899 134 f 0;
#X obj 899 176 sel 0 1, f 17;
#X obj 899 218 s \$0-fx-tracck;
#X obj 899 78 r cgSc-1-10, f 12;
#X msg 768 197 0 1;
#X msg 818 198 100 1;
#X msg 631 368 0 2;
#X msg 681 369 100 2;
#X msg 762 368 0 3;
#X msg 811 369 100 3;
#X msg 899 197 0 4;
#X msg 948 198 100 4;
#X obj 1123 45 r \$0-fx-tracck;
#X obj 122 3 r \$0-fx-count;
#X obj 77 52 text get fx-bank;
#X obj 77 103 sel 0 1 2 3 4, f 64;
#X obj 1123 66 unpack, f 7;
#X obj 1123 87 swap, f 7;
#X obj 1106 227 sel 0 100;
#X obj 1106 206 route 0, f 10;
#X obj 1123 135 s \$0-roUted;
#X obj 1106 178 r \$0-roUted;
#X obj 1234 229 sel 0 100;
#X obj 1234 180 r \$0-roUted;
#X obj 1234 208 route 1, f 10;
#X obj 1366 231 sel 0 100;
#X obj 1366 182 r \$0-roUted;
#X obj 1524 233 sel 0 100;
#X obj 1524 184 r \$0-roUted;
#X obj 1127 472 sel 0 100, f 22;
#X obj 1127 569 s cgSc-1-10label;
#X obj 1127 423 r \$0-roUted;
#X obj 1366 210 route 2, f 10;
#X obj 1524 212 route 3, f 10;
#X obj 1127 448 route 4, f 10;
#X obj 1123 108 pack, f 7;
#X obj 1106 354 s cgSc-1-6label;
#X obj 1234 316 s cgSc-1-7label;
#X obj 1366 318 s cgSc-1-8label;
#X obj 1524 320 s cgSc-1-9label;
#X obj 487 455 loadbang;
#X msg 487 476 100 0 \, 100 1 \, 100 2 \, 100 3 \, 100 4;
#X obj 488 497 s \$0-fx-tracck;
#X msg 1175 288 Noise:On;
#X msg 1106 285 Noise:Off;
#X msg 1234 278 Clip:Off;
#X msg 1301 280 Clip:On;
#X msg 1366 280 Silnce:Off;
#X msg 1440 279 Silnce:On;
#X msg 1524 282 Shift:Off;
#X msg 1591 284 Shift:On;
#X msg 1127 521 Filter:Off;
#X msg 1207 521 Filter:On;
#X obj 77 73 route bang;
#X connect 0 0 2 0;
#X connect 0 1 3 0;
#X connect 1 0 0 0;
#X connect 4 0 13 0;
#X connect 5 0 0 1;
#X connect 6 0 0 1;
#X connect 7 0 0 1;
#X connect 8 0 0 1;
#X connect 9 0 11 0;
#X connect 10 0 0 1;
#X connect 11 0 10 0;
#X connect 12 0 0 1;
#X connect 13 0 85 0;
#X connect 14 0 15 0;
#X connect 15 0 18 0;
#X connect 16 0 18 1;
#X connect 17 0 20 0;
#X connect 18 0 16 0;
#X connect 18 0 17 0;
#X connect 20 0 25 0;
#X connect 20 1 27 0;
#X connect 23 0 24 0;
#X connect 24 0 26 0;
#X connect 24 1 36 0;
#X connect 25 0 22 0;
#X connect 26 0 37 0;
#X connect 26 1 38 0;
#X connect 27 0 22 0;
#X connect 29 0 30 0;
#X connect 30 0 46 0;
#X connect 31 0 29 0;
#X connect 31 1 30 1;
#X connect 32 0 44 0;
#X connect 33 0 31 0;
#X connect 35 0 21 1;
#X connect 36 0 37 1;
#X connect 36 1 38 1;
#X connect 37 0 40 0;
#X connect 38 0 39 0;
#X connect 39 1 21 0;
#X connect 39 2 32 0;
#X connect 40 0 41 0;
#X connect 40 1 43 0;
#X connect 41 0 42 0;
#X connect 42 1 28 0;
#X connect 43 0 45 0;
#X connect 46 0 29 1;
#X connect 46 0 34 0;
#X connect 47 0 50 0;
#X connect 48 0 50 1;
#X connect 49 0 51 0;
#X connect 50 0 48 0;
#X connect 50 0 49 0;
#X connect 51 0 75 0;
#X connect 51 1 76 0;
#X connect 53 0 47 0;
#X connect 54 0 57 0;
#X connect 55 0 57 1;
#X connect 56 0 58 0;
#X connect 57 0 55 0;
#X connect 57 0 56 0;
#X connect 58 0 77 0;
#X connect 58 1 78 0;
#X connect 60 0 63 0;
#X connect 61 0 63 1;
#X connect 62 0 64 0;
#X connect 63 0 61 0;
#X connect 63 0 62 0;
#X connect 64 0 79 0;
#X connect 64 1 80 0;
#X connect 66 0 54 0;
#X connect 67 0 60 0;
#X connect 68 0 71 0;
#X connect 69 0 71 1;
#X connect 70 0 72 0;
#X connect 71 0 69 0;
#X connect 71 0 70 0;
#X connect 72 0 81 0;
#X connect 72 1 82 0;
#X connect 74 0 68 0;
#X connect 75 0 52 0;
#X connect 76 0 52 0;
#X connect 77 0 59 0;
#X connect 78 0 59 0;
#X connect 79 0 65 0;
#X connect 80 0 65 0;
#X connect 81 0 73 0;
#X connect 82 0 73 0;
#X connect 83 0 87 0;
#X connect 84 0 13 1;
#X connect 85 0 124 0;
#X connect 86 0 8 0;
#X connect 86 1 7 0;
#X connect 86 2 6 0;
#X connect 86 3 5 0;
#X connect 86 4 12 0;
#X connect 87 0 88 0;
#X connect 87 1 88 1;
#X connect 88 0 106 0;
#X connect 88 1 106 1;
#X connect 89 0 115 0;
#X connect 89 1 114 0;
#X connect 90 0 89 0;
#X connect 92 0 90 0;
#X connect 93 0 116 0;
#X connect 93 1 117 0;
#X connect 94 0 95 0;
#X connect 95 0 93 0;
#X connect 96 0 118 0;
#X connect 96 1 119 0;
#X connect 97 0 103 0;
#X connect 98 0 120 0;
#X connect 98 1 121 0;
#X connect 99 0 104 0;
#X connect 100 0 122 0;
#X connect 100 1 123 0;
#X connect 102 0 105 0;
#X connect 103 0 96 0;
#X connect 104 0 98 0;
#X connect 105 0 100 0;
#X connect 106 0 91 0;
#X connect 111 0 112 0;
#X connect 112 0 113 0;
#X connect 114 0 107 0;
#X connect 115 0 107 0;
#X connect 116 0 108 0;
#X connect 117 0 108 0;
#X connect 118 0 109 0;
#X connect 119 0 109 0;
#X connect 120 0 110 0;
#X connect 121 0 110 0;
#X connect 122 0 101 0;
#X connect 123 0 101 0;
#X connect 124 1 86 0;
#X restore 259 664 pd effects;
#X f 104;
#X obj 118 507 r \$0-2-vline1;
#X obj 1284 239 s \$0-2-vline1;
#X obj 276 405 vline~;
#X obj 276 375 r \$0-2-vline2;
#X obj 1256 108 s \$0-2-switch;
#X obj 1231 524 r \$0-2-switch;
#X obj 1162 281 s \$0-2-switch;
#X obj 103 614 r \$0-2-tabwritE;
#X obj 86 649 tabwrite~ storage;
#N canvas 431 141 901 808 play-stored-loop 0;
#X obj 27 655 tabread4~ storage;
#X obj 28 581 vline~;
#X obj 28 602 *~, f 22;
#X obj 43 476 r loOpsize-ms;
#X obj 28 500 f;
#X obj 28 623 +~ 1;
#X obj 157 579 - 2;
#X obj 27 737 outlet~;
#X msg 28 554 0 0 \, 1 \$1 0;
#X msg 93 381 1 10;
#X msg 195 254 clear;
#X obj 195 282 s \$0-2-delwrite;
#X obj 93 406 s \$0-2-vline1;
#X obj 348 276 s \$0-2-vline2;
#X msg 348 248 0 10;
#X msg 297 285 1;
#X obj 297 310 s \$0-2-switch;
#X obj 207 424 s \$0-2-vd;
#X obj 159 317 r loOpsize-ms;
#X obj 144 346 f;
#X obj 93 224 t b b b b b b, f 43;
#X msg 628 592 0 10;
#X obj 628 620 s \$0-2-vline1;
#X msg 588 629 1 10;
#X obj 588 657 s \$0-2-vline2;
#X obj 549 410 t b b;
#X msg 576 430 stop;
#X obj 549 481 del, f 11;
#X obj 622 418 r loOpsize-ms;
#X msg 226 554 6;
#X obj 226 575 s led;
#X obj 549 675 s led;
#X msg 549 654 0;
#X obj 622 439 - 10;
#X obj 668 598 s \$0-2-metro;
#X msg 668 572 1;
#X obj 27 687 *~, f 17;
#X obj 432 602 vline~;
#X msg 350 68 0 8;
#X msg 189 68 stop;
#X obj 28 124 del 8, f 6;
#X msg 505 183 1 8;
#X obj 28 521 t f f b b, f 50;
#X obj 325 585 s \$0-close-it;
#X msg 325 549 0;
#X obj 708 562 s \$0-close-it;
#X obj 549 502 t b b b b b, f 27;
#X msg 708 526 1;
#X obj 117 623 r \$0-2-tabread4;
#X msg 271 357 20000;
#X obj 28 6 inlet;
#X obj 769 119 s filL-array;
#X obj 511 121 s \$0-2-tabread4;
#X msg 511 98 set storage;
#X obj 749 143 v ping-pong-arr;
#X obj 749 164 ==;
#X obj 749 186 v ping-pong-arr;
#X text 783 165 flip it!;
#X obj 28 155 t b b b b, f 79;
#X obj 730 224 v ping-pong-arr;
#N canvas 4 50 450 300 ping 0;
#X obj 36 13 inlet;
#X obj 36 125 symbol current-loop1;
#X obj 36 34 sel 0 1, f 20;
#X obj 89 81 symbol current-loop2;
#X obj 60 225 outlet;
#X connect 0 0 2 0;
#X connect 1 0 4 0;
#X connect 2 0 1 0;
#X connect 2 1 3 0;
#X connect 3 0 4 0;
#X restore 730 246 pd ping;
#X obj 730 321 s \$0-2-tabread4;
#X obj 730 267 list prepend set;
#X obj 730 288 list trim;
#X obj 602 9 r cancel-playback;
#X obj 602 30 t b b b;
#X obj 767 38 s led;
#X msg 767 13 0;
#X obj 28 46 t b b b a, f 81;
#X obj 511 71 route -1, f 37;
#X obj 730 96 t b b a;
#X obj 155 558 * 44.1;
#X connect 0 0 36 0;
#X connect 1 0 2 0;
#X connect 2 0 5 0;
#X connect 3 0 4 1;
#X connect 4 0 42 0;
#X connect 5 0 0 0;
#X connect 6 0 2 1;
#X connect 8 0 1 0;
#X connect 9 0 12 0;
#X connect 10 0 11 0;
#X connect 14 0 13 0;
#X connect 15 0 16 0;
#X connect 18 0 19 1;
#X connect 19 0 17 0;
#X connect 20 0 9 0;
#X connect 20 1 19 0;
#X connect 20 2 10 0;
#X connect 20 3 49 0;
#X connect 20 4 15 0;
#X connect 20 5 14 0;
#X connect 21 0 22 0;
#X connect 23 0 24 0;
#X connect 25 0 27 0;
#X connect 25 1 26 0;
#X connect 26 0 27 0;
#X connect 27 0 46 0;
#X connect 28 0 33 0;
#X connect 29 0 30 0;
#X connect 32 0 31 0;
#X connect 33 0 27 1;
#X connect 35 0 34 0;
#X connect 36 0 7 0;
#X connect 37 0 36 1;
#X connect 38 0 37 0;
#X connect 39 0 40 0;
#X connect 40 0 58 0;
#X connect 41 0 37 0;
#X connect 42 0 8 0;
#X connect 42 1 71 0;
#X connect 42 2 29 0;
#X connect 42 3 44 0;
#X connect 44 0 43 0;
#X connect 46 0 32 0;
#X connect 46 1 23 0;
#X connect 46 2 21 0;
#X connect 46 3 35 0;
#X connect 46 4 47 0;
#X connect 47 0 45 0;
#X connect 48 0 0 0;
#X connect 49 0 17 0;
#X connect 50 0 68 0;
#X connect 53 0 52 0;
#X connect 54 0 55 0;
#X connect 55 0 56 0;
#X connect 58 0 4 0;
#X connect 58 1 20 0;
#X connect 58 2 25 0;
#X connect 58 3 41 0;
#X connect 59 0 60 0;
#X connect 60 0 62 0;
#X connect 62 0 63 0;
#X connect 63 0 61 0;
#X connect 64 0 65 0;
#X connect 65 0 38 0;
#X connect 65 1 67 0;
#X connect 65 2 26 0;
#X connect 67 0 66 0;
#X connect 68 0 40 0;
#X connect 68 1 39 0;
#X connect 68 2 38 0;
#X connect 68 3 69 0;
#X connect 69 0 53 0;
#X connect 69 1 70 0;
#X connect 70 0 59 0;
#X connect 70 1 54 0;
#X connect 70 2 51 0;
#X connect 71 0 6 0;
#X restore 125 463 pd play-stored-loop;
#X obj 114 415 r trigger-stor-loop;
#X obj 326 441 r \$0-2-vd;
#N canvas 430 194 1280 737 save-stuff 0;
#X obj 73 510 soundfiler;
#X obj 858 123 f 20000;
#X msg 858 165 resize \$1;
#X obj 858 339 array define storage;
#X obj 73 560 s loOpsize-ms;
#X obj 348 234 r save-cloop-to-drive;
#X obj 363 315 r loOpsize-ms;
#X obj 348 338 f;
#X obj 72 270 r filL-array;
#X obj 879 62 array define og-size 1;
#X obj 520 90 r loOpsize-ms;
#X obj 505 115 f;
#X obj 505 136 t a b, f 16;
#X obj 505 187 tabwrite og-size;
#X msg 598 158 0;
#X obj 533 -4 r save-og-size;
#X obj 553 22 t b;
#X obj 837 42 tabread og-size;
#X floatatom 837 63 5 0 0 0 - - -;
#X msg 837 19 0;
#X obj 100 341 symbol \$2;
#X obj 464 404 symbol \$2;
#X obj 464 374 loadbang;
#X obj 875 308 array define current-loop1;
#X obj 892 277 array define current-loop2;
#X obj 858 186 t a a a b;
#X obj 909 234 v ping-pong-arr;
#X msg 909 212 0;
#X obj 555 308 v ping-pong-arr;
#X obj 348 439 pack 0 0 s s, f 35;
#N canvas 4 50 450 300 ping 0;
#X obj 36 13 inlet;
#X obj 36 125 symbol current-loop1;
#X obj 36 34 sel 0 1, f 20;
#X obj 89 81 symbol current-loop2;
#X obj 60 225 outlet;
#X connect 0 0 2 0;
#X connect 1 0 4 0;
#X connect 2 0 1 0;
#X connect 2 1 3 0;
#X connect 3 0 4 0;
#X restore 555 367 pd ping;
#X obj 555 329 ==;
#X obj 171 314 v ping-pong-arr;
#N canvas 4 50 450 300 ping 0;
#X obj 36 13 inlet;
#X obj 36 125 symbol current-loop1;
#X obj 36 34 sel 0 1, f 20;
#X obj 89 81 symbol current-loop2;
#X obj 60 225 outlet;
#X connect 0 0 2 0;
#X connect 1 0 4 0;
#X connect 2 0 1 0;
#X connect 2 1 3 0;
#X connect 3 0 4 0;
#X restore 171 356 pd ping;
#X obj 171 335 ==;
#X obj 73 383 pack s s s, f 17;
#X msg 73 411 read \$2/\$1 \$3;
#X obj 650 483 + 1;
#X obj 665 432 r highest-loop.wav;
#X obj 650 459 f;
#X obj 650 504 s highest-loop.wav;
#X obj 417 349 r highest-loop.wav;
#X obj 348 460 t a a;
#X obj 73 477 r \$0-2-soundFiler;
#X obj 73 433 s \$0-2-soundFiler;
#X obj 346 666 s \$0-2-soundFiler;
#X obj 72 291 t a b b, f 17;
#X obj 681 371 + 1;
#X obj 681 347 f;
#X obj 696 320 r wav-count;
#X obj 681 392 s wav-count;
#X obj 348 255 t b b b b, f 56;
#X obj 348 362 * 44.1;
#X obj 858 144 * 44.1;
#X obj 73 531 / 44.1;
#X obj 362 47 t b b b b, f 51;
#X obj 361 14 r loadbangeR;
#N canvas 4 55 758 773 read-the-files 0;
#X obj 282 407 s highest-loop.wav;
#X obj 301 382 s wav-count;
#X obj 282 296 cg-save-files \$2;
#X obj 282 143 inlet bang;
#X obj 282 164 t b;
#X obj 282 352 t a a b;
#X connect 2 0 5 0;
#X connect 3 0 4 0;
#X connect 4 0 2 0;
#X connect 5 0 0 0;
#X connect 5 1 1 0;
#X restore 342 103 pd read-the-files;
#X msg 346 640 write -wave -nframes \$1 \$3/loop-\$2.wav \$4;
#X obj 73 53 r saveState;
#X obj 88 80 r loOpsize-ms;
#X obj 73 103 f;
#X msg 73 201 write -wave -nframes \$1 \$2/storage.wav storage;
#X obj 73 179 pack 0 s;
#X obj 118 159 symbol \$2;
#X obj 633 105 symbol \$2;
#X obj 73 124 t f b, f 8;
#X msg 633 134 read \$1/storage.wav storage;
#X obj 633 159 s \$0-2-soundFiler;
#X obj 73 225 s \$0-2-soundFiler;
#X obj 73 158 * 44.1;
#X connect 0 0 54 0;
#X connect 1 0 53 0;
#X connect 2 0 25 0;
#X connect 5 0 51 0;
#X connect 6 0 7 1;
#X connect 7 0 52 0;
#X connect 8 0 46 0;
#X connect 10 0 11 1;
#X connect 11 0 12 0;
#X connect 12 0 13 0;
#X connect 12 1 14 0;
#X connect 14 0 13 1;
#X connect 15 0 16 0;
#X connect 16 0 11 0;
#X connect 17 0 18 0;
#X connect 19 0 17 0;
#X connect 20 0 35 1;
#X connect 21 0 29 2;
#X connect 22 0 21 0;
#X connect 25 0 3 0;
#X connect 25 1 23 0;
#X connect 25 2 24 0;
#X connect 25 3 27 0;
#X connect 27 0 26 0;
#X connect 28 0 31 0;
#X connect 29 0 42 0;
#X connect 30 0 29 3;
#X connect 31 0 30 0;
#X connect 32 0 34 0;
#X connect 33 0 35 2;
#X connect 34 0 33 0;
#X connect 35 0 36 0;
#X connect 36 0 44 0;
#X connect 37 0 40 0;
#X connect 38 0 39 1;
#X connect 39 0 37 0;
#X connect 41 0 29 1;
#X connect 42 0 58 0;
#X connect 43 0 0 0;
#X connect 46 0 35 0;
#X connect 46 1 20 0;
#X connect 46 2 32 0;
#X connect 47 0 50 0;
#X connect 48 0 47 0;
#X connect 49 0 48 1;
#X connect 51 0 7 0;
#X connect 51 1 28 0;
#X connect 51 2 39 0;
#X connect 51 3 48 0;
#X connect 52 0 29 0;
#X connect 53 0 2 0;
#X connect 54 0 4 0;
#X connect 55 0 57 0;
#X connect 55 1 11 0;
#X connect 55 2 65 0;
#X connect 55 3 1 0;
#X connect 56 0 55 0;
#X connect 58 0 45 0;
#X connect 59 0 61 0;
#X connect 60 0 61 1;
#X connect 61 0 66 0;
#X connect 62 0 69 0;
#X connect 63 0 62 0;
#X connect 64 0 63 1;
#X connect 65 0 67 0;
#X connect 66 0 70 0;
#X connect 66 1 64 0;
#X connect 67 0 68 0;
#X connect 70 0 63 0;
#X restore 622 129 pd save-stuff;
#X obj 1231 545 switch~ 64 1 1;
#X obj 569 610 metro 500, f 16;
#X obj 512 414 sel 0 1, f 24;
#X obj 512 435 t b b, f 10;
#X msg 569 561 0;
#X msg 599 561 1;
#X obj 512 382 r \$0-2-metro;
#X obj 662 336 r fx-length-local;
#X obj 1085 760 s \$0-2-metro;
#X msg 1085 733 0;
#X obj 1196 719 s \$0-2-vline1;
#X msg 1196 694 0 8;
#X obj 1140 738 s \$0-2-vline2;
#X msg 1140 710 0 8;
#X obj 326 594 *~, f 13;
#X obj 402 566 vline~;
#X obj 402 542 r \$0-2-vline2;
#X obj 662 486 * 4, f 12;
#X obj 704 373 r fx-density-local;
#X obj 704 460 t b a;
#X obj 1162 133 t b b b b, f 31;
#X obj 1345 196 s \$0-2-metro;
#X msg 1345 167 0;
#X obj 1085 670 t b b b, f 19;
#X obj 1085 634 r \$0-avoid-clicks;
#X obj 258 787 *~;
#X obj 272 758 vline~;
#X obj 272 734 r \$0-2-vline2;
#X obj 623 825 r \$0-2-tabwritE-cloop;
#X obj 467 787 *~ 1;
#N canvas 4 51 1519 927 start/stop-loop-trigger-saved-loops 0;
#X msg 91 530 1 10;
#X msg 723 375 stop;
#X obj 645 416 del 10;
#X obj 247 545 timer;
#X msg 299 423 clear;
#X obj 335 642 s loOpsize-ms;
#X obj 299 445 s \$0-2-delwrite;
#X obj 91 555 s \$0-2-vline1;
#X msg 880 353 1 10;
#X obj 880 381 s \$0-2-vline2;
#X msg 403 438 1;
#X obj 403 463 s \$0-2-switch;
#X msg 783 636 stop;
#X obj 668 838 s \$0-auto-stop;
#X obj 645 299 r \$0-auto-stop;
#X obj 1037 408 s sound-switch;
#X msg 1037 380 0;
#X obj 455 431 s sound-switch;
#X msg 455 405 1;
#X obj 708 489 s \$0-2-tabwritE;
#X msg 708 462 stop;
#X obj 424 607 s \$0-2-vd;
#X obj 668 817 del 19990;
#X obj 328 180 s \$0-2-metro;
#X msg 328 151 0;
#X obj 1116 375 s \$0-2-metro;
#X obj 645 327 t b b b b b b b, f 79;
#X msg 1116 353 1;
#X obj 686 198 s \$0-avoid-clicks;
#X obj 170 191 s \$0-avoid-clicks;
#X msg 249 118 stop;
#X obj 91 202 del 8;
#X obj 143 525 s \$0-2-tabwritE;
#X obj 91 370 t b b b b b b b b b, f 70;
#X msg 468 504 20000;
#N canvas 589 154 844 672 store-current-loop 0;
#X obj 25 12 inlet;
#X obj 25 78 metro, f 18;
#X obj 130 44 r loOpsize-ms;
#X obj 144 259 s \$0-2-tabwritE-cloop;
#X obj 25 280 t b b;
#X msg 52 300 stop;
#X obj 25 351 del, f 18;
#X obj 130 303 r loOpsize-ms;
#X obj 130 324 - 10;
#X msg 143 546 stop;
#X obj 143 569 s \$0-2-tabwritE-cloop;
#X obj 293 280 s led;
#X msg 293 257 7;
#X obj 202 535 s led;
#X msg 202 512 0;
#X obj 25 623 s save-cloop-to-drive;
#X obj 25 155 r SAVE-it;
#X obj 383 326 s SAVE-it-return;
#X msg 383 301 1;
#X obj 262 530 s SAVE-it-return;
#X msg 262 508 0;
#X obj 25 482 t b b b b b, f 40;
#X obj 84 594 s update-loop-count;
#X obj 252 129 s \$0-2-tabwritE-cloop;
#X obj 252 17 v ping-pong-arr;
#N canvas 4 50 450 300 ping 0;
#X obj 36 13 inlet;
#X obj 36 125 symbol current-loop1;
#X obj 36 34 sel 0 1, f 20;
#X obj 89 81 symbol current-loop2;
#X obj 60 225 outlet;
#X connect 0 0 2 0;
#X connect 1 0 4 0;
#X connect 2 0 1 0;
#X connect 2 1 3 0;
#X connect 3 0 4 0;
#X restore 252 59 pd ping;
#X obj 252 80 list prepend set;
#X obj 252 38 ==;
#X obj 252 101 list trim;
#X obj 25 33 t b b;
#X msg 92 409 stop;
#X obj 25 453 del 10;
#X obj 25 372 t b b b, f 23;
#X obj 502 311 s 2line-cloop;
#X msg 502 284 1 10;
#X obj 160 441 s 2line-cloop;
#X msg 160 414 0 10;
#X obj 25 108 s track-metty;
#X obj 622 283 s offset-the-capture;
#X obj 25 201 t b b b b b b, f 100;
#X connect 0 0 29 0;
#X connect 1 0 37 0;
#X connect 2 0 1 1;
#X connect 4 0 6 0;
#X connect 4 1 5 0;
#X connect 5 0 6 0;
#X connect 6 0 32 0;
#X connect 7 0 8 0;
#X connect 8 0 6 1;
#X connect 9 0 10 0;
#X connect 12 0 11 0;
#X connect 14 0 13 0;
#X connect 16 0 39 0;
#X connect 18 0 17 0;
#X connect 20 0 19 0;
#X connect 21 0 15 0;
#X connect 21 1 22 0;
#X connect 21 2 9 0;
#X connect 21 3 14 0;
#X connect 21 4 20 0;
#X connect 24 0 27 0;
#X connect 25 0 26 0;
#X connect 26 0 28 0;
#X connect 27 0 25 0;
#X connect 28 0 23 0;
#X connect 29 0 1 0;
#X connect 29 1 24 0;
#X connect 30 0 31 0;
#X connect 31 0 21 0;
#X connect 32 0 31 0;
#X connect 32 1 30 0;
#X connect 32 2 36 0;
#X connect 34 0 33 0;
#X connect 36 0 35 0;
#X connect 39 0 4 0;
#X connect 39 1 3 0;
#X connect 39 2 12 0;
#X connect 39 3 18 0;
#X connect 39 4 34 0;
#X connect 39 5 38 0;
#X restore 247 780 pd store-current-loop;
#X msg 802 376 0 10;
#X obj 802 404 s \$0-2-vline1;
#X obj 91 27 inlet;
#X obj 937 143 s \$0-avoid-clicks;
#X obj 91 61 route 1 0 2 3, f 168;
#X obj 593 227 s trigger-play-loop;
#X obj 844 192 s trigger-play-loop;
#X text 606 78 revert;
#X msg 593 196 -1;
#X text 850 93 play from slot storage;
#X obj 247 566 t b a a, f 30;
#X obj 645 510 s save-og-size;
#X obj 645 436 t b b b, f 11;
#X obj 686 138 tabread og-size;
#X obj 593 95 t b b b, f 16;
#X msg 686 117 0;
#X obj 686 158 s loOpsize-ms;
#X obj 135 613 r trigger-start;
#X obj 135 634 t b b;
#X msg 162 658 stop;
#X obj 135 685 del 8;
#X obj 890 165 s trigger-start;
#X obj 91 94 t b b b b, f 40;
#X obj 745 306 s led;
#X msg 745 284 0;
#X obj 668 555 t b b b, f 39;
#X obj 844 119 t a b b, f 16;
#X msg 173 452 set storage;
#X connect 0 0 7 0;
#X connect 1 0 2 0;
#X connect 2 0 48 0;
#X connect 3 0 46 0;
#X connect 4 0 6 0;
#X connect 8 0 9 0;
#X connect 10 0 11 0;
#X connect 12 0 22 0;
#X connect 14 0 26 0;
#X connect 14 0 60 0;
#X connect 16 0 15 0;
#X connect 18 0 17 0;
#X connect 20 0 19 0;
#X connect 22 0 13 0;
#X connect 24 0 23 0;
#X connect 26 0 2 0;
#X connect 26 1 1 0;
#X connect 26 2 36 0;
#X connect 26 3 8 0;
#X connect 26 4 12 0;
#X connect 26 5 16 0;
#X connect 26 6 27 0;
#X connect 27 0 25 0;
#X connect 30 0 31 0;
#X connect 31 0 33 0;
#X connect 33 0 0 0;
#X connect 33 1 32 0;
#X connect 33 2 63 0;
#X connect 33 3 3 0;
#X connect 33 4 4 0;
#X connect 33 5 34 0;
#X connect 33 6 10 0;
#X connect 33 7 18 0;
#X connect 33 8 61 0;
#X connect 34 0 21 0;
#X connect 36 0 37 0;
#X connect 38 0 40 0;
#X connect 40 0 58 0;
#X connect 40 1 26 0;
#X connect 40 2 50 0;
#X connect 40 3 62 0;
#X connect 44 0 41 0;
#X connect 46 0 35 0;
#X connect 46 1 5 0;
#X connect 46 2 21 0;
#X connect 48 0 47 0;
#X connect 48 1 3 1;
#X connect 48 2 20 0;
#X connect 49 0 52 0;
#X connect 50 0 44 0;
#X connect 50 1 28 0;
#X connect 50 2 51 0;
#X connect 51 0 49 0;
#X connect 53 0 54 0;
#X connect 54 0 56 0;
#X connect 54 1 55 0;
#X connect 55 0 56 0;
#X connect 56 0 35 0;
#X connect 58 0 31 0;
#X connect 58 1 29 0;
#X connect 58 2 30 0;
#X connect 58 3 24 0;
#X connect 60 0 59 0;
#X connect 61 0 22 0;
#X connect 61 1 12 0;
#X connect 62 0 42 0;
#X connect 62 1 57 0;
#X connect 62 2 39 0;
#X connect 63 0 32 0;
#X restore 622 93 pd start/stop-loop-trigger-saved-loops;
#X obj 129 437 r trigger-play-loop;
#X obj 603 873 tabwrite~ current-loop1;
#X obj 584 811 *~;
#X obj 599 787 vline~;
#X obj 632 741 r 2line-cloop;
#N canvas 567 188 920 780 auto-delay 0;
#X obj 53 32 inlet~;
#X obj 52 82 delwrite~ scrubb 20000;
#X obj 353 98 timer;
#X obj 353 132 delread~ scrubb;
#X obj 353 153 outlet~;
#X obj 449 42 r offset-the-capture;
#X obj 449 63 t b;
#X obj 353 28 r track-metty;
#X connect 0 0 1 0;
#X connect 2 0 3 0;
#X connect 3 0 4 0;
#X connect 5 0 6 0;
#X connect 6 0 2 1;
#X connect 7 0 2 0;
#X restore 525 719 pd auto-delay;
#X obj 704 394 sel 0, f 9;
#X msg 704 415 0;
#X obj 755 416 t a b;
#X msg 782 446 1;
#X obj 755 500 change -1;
#X obj 58 701 catch~ to-delwrite;
#X obj 259 812 throw~ to-delwrite;
#X obj 61 670 throw~ to-delwrite;
#X obj 326 515 delread4~ delayz;
#X obj 57 832 delwrite~ delayz 20000;
#X obj 96 770 r \$0-2-delwrite;
#X text 303 695 dc offset;
#X obj 430 113 r highest-loop.wav;
#X floatatom 430 133 5 0 0 0 - - -;
#X connect 0 0 13 0;
#X connect 0 0 2 0;
#X connect 1 0 58 0;
#X connect 2 0 23 0;
#X connect 2 0 72 0;
#X connect 3 0 2 1;
#X connect 4 0 16 0;
#X connect 5 0 73 0;
#X connect 7 0 8 0;
#X connect 8 0 48 0;
#X connect 8 1 9 0;
#X connect 9 0 19 0;
#X connect 10 0 11 0;
#X connect 11 0 12 0;
#X connect 12 0 21 0;
#X connect 13 0 14 0;
#X connect 14 0 53 0;
#X connect 14 1 57 0;
#X connect 15 0 3 0;
#X connect 17 0 13 1;
#X connect 18 0 17 0;
#X connect 20 0 28 0;
#X connect 22 0 23 0;
#X connect 24 0 2 0;
#X connect 24 0 57 0;
#X connect 25 0 24 0;
#X connect 26 0 5 0;
#X connect 29 0 14 1;
#X connect 30 0 31 0;
#X connect 30 1 33 0;
#X connect 31 0 14 2;
#X connect 31 1 32 0;
#X connect 32 0 29 0;
#X connect 33 0 29 0;
#X connect 34 0 30 0;
#X connect 35 0 45 0;
#X connect 37 0 36 0;
#X connect 39 0 38 0;
#X connect 41 0 40 0;
#X connect 42 0 57 0;
#X connect 42 0 14 0;
#X connect 43 0 42 1;
#X connect 44 0 43 0;
#X connect 45 0 29 1;
#X connect 46 0 65 0;
#X connect 47 0 45 0;
#X connect 47 1 45 1;
#X connect 48 0 11 0;
#X connect 48 1 10 0;
#X connect 48 2 4 0;
#X connect 48 3 50 0;
#X connect 50 0 49 0;
#X connect 51 0 37 0;
#X connect 51 1 41 0;
#X connect 51 2 39 0;
#X connect 52 0 51 0;
#X connect 53 0 71 0;
#X connect 54 0 53 1;
#X connect 55 0 54 0;
#X connect 56 0 60 0;
#X connect 57 0 6 0;
#X connect 57 0 64 0;
#X connect 59 0 24 0;
#X connect 61 0 60 0;
#X connect 62 0 61 1;
#X connect 63 0 62 0;
#X connect 64 0 61 0;
#X connect 65 0 66 0;
#X connect 65 1 67 0;
#X connect 66 0 69 0;
#X connect 67 0 47 0;
#X connect 67 1 68 0;
#X connect 68 0 69 0;
#X connect 69 0 29 0;
#X connect 70 0 74 0;
#X connect 73 0 42 0;
#X connect 75 0 74 0;
#X connect 77 0 78 0;
#X restore 326 389 pd do-this-with-delays;
#X obj 326 518 throw~ outL;
#X obj 346 491 throw~ outR;
#X obj 455 341 r clear-all;
#X msg 455 362 0;
#X obj 531 119 r aux;
#X obj 600 122 r notes;
#X obj 531 148 shortcut 1 1;
#N canvas 153 157 1620 855 shorcut-commands 0;
#X obj 275 18 r fs;
#X obj 353 470 t b;
#X obj 851 1119 s led;
#X obj 1003 982 s clear-all;
#X obj 876 979 t b b b;
#X obj 947 1064 + 1;
#X obj 916 1084 % 2;
#X obj 916 1063 f 1;
#X msg 915 1007 1;
#X msg 850 1065 0;
#X msg 877 1016 stop;
#X obj 853 1044 del 1000;
#X obj 851 1087 t f f;
#X obj 916 1035 metro 200;
#X obj 1095 462 r \$0-close-it;
#X msg 380 723 1;
#X msg 353 702 1;
#X msg 625 629 0;
#X msg 676 608 0;
#X obj 1095 493 sel 0 1, f 11;
#X msg 1126 524 0;
#X msg 727 585 0;
#X msg 492 714 4;
#X obj 353 23 r cgSc-1-1;
#N canvas 4 50 450 300 any-key-press-ends-loop-rec 0;
#X obj 145 66 r aux;
#X obj 145 87 sel 1;
#X obj 95 136 t b;
#X obj 95 157 spigot 0;
#X obj 95 178 t b b;
#X msg 168 162 0;
#X obj 95 199 outlet;
#X obj 263 39 inlet;
#X obj 263 60 t b;
#X msg 263 81 1;
#X obj 321 44 inlet stop;
#X obj 321 65 t b;
#X connect 0 0 1 0;
#X connect 1 0 2 0;
#X connect 2 0 3 0;
#X connect 3 0 4 0;
#X connect 4 0 6 0;
#X connect 4 1 5 0;
#X connect 5 0 3 1;
#X connect 7 0 8 0;
#X connect 8 0 9 0;
#X connect 9 0 3 1;
#X connect 10 0 11 0;
#X connect 11 0 5 0;
#X restore 753 743 pd any-key-press-ends-loop-rec;
#X f 28;
#X obj 855 864 r cgSc-1-4;
#X obj 855 885 sel 0;
#X obj 882 905 t b;
#X obj 562 738 s cgSc-1-1label;
#X obj 353 681 t b b b b b, f 47;
#X obj 353 44 sel 100;
#X obj 275 39 sel 0;
#X obj 302 62 t b;
#X obj 993 1087 s cgSc-1-4label;
#X obj 778 700 s cgSc-1-4label;
#X msg 993 1065 Empty;
#X obj 878 942 t b b b, f 22;
#X obj 433 44 sel 100;
#X obj 433 23 r cgSc-1-2;
#X obj 513 44 sel 100;
#X obj 593 44 sel 100;
#X obj 513 23 r cgSc-1-3;
#X obj 593 23 r cgSc-1-4;
#X obj 710 99 list prepend 5;
#X msg 353 65 1;
#X msg 433 65 2;
#X msg 513 65 3;
#X msg 593 65 4;
#X obj 353 126 route 1 2 3 4 5, f 189;
#X obj 380 746 v \$0-localv;
#X obj 676 635 v \$0-localv;
#X obj 1126 547 v \$0-localv;
#X msg 302 83 1;
#X obj 492 744 s led;
#X obj 579 166 t b;
#X obj 829 650 s cgSc-1-1label;
#X obj 625 657 s the-commands;
#X obj 353 792 s the-commands;
#X obj 727 608 s led;
#X obj 579 492 s SAVE-it;
#X obj 610 399 s mute-Fx;
#X obj 353 498 v \$0-localv;
#X obj 579 195 v \$0-localv;
#X obj 672 298 v \$0-localv;
#X msg 672 277 2;
#N canvas 4 51 686 842 init 0;
#X text 523 175 init-variable;
#X obj 464 220 v \$0-localv;
#X obj 137 127 loadbang;
#X obj 308 297 s cgSc-1-1label;
#X obj 251 346 s cgSc-1-2label;
#X msg 251 325 SaveLoop;
#X msg 196 361 Revert;
#X obj 137 415 s cgSc-1-4label;
#X obj 196 382 s cgSc-1-3label;
#X text 197 128 init shortcut labels;
#X msg 464 197 4;
#X obj 364 243 s cgSc-1-5label;
#X msg 365 214 Monitr:Off;
#X obj 463 323 s \$0-2-scrnline5;
#X obj 568 246 r clear-all;
#X obj 568 267 t b;
#X msg 137 394 Stop;
#X msg 308 268 Record;
#X obj 137 148 t b b b b b b b b, f 48;
#X obj 79 222 s loadbangeR;
#X msg 463 296 Record or PlayKey;
#X connect 2 0 18 0;
#X connect 5 0 4 0;
#X connect 6 0 8 0;
#X connect 10 0 1 0;
#X connect 12 0 11 0;
#X connect 14 0 15 0;
#X connect 15 0 20 0;
#X connect 16 0 7 0;
#X connect 17 0 3 0;
#X connect 18 0 19 0;
#X connect 18 1 16 0;
#X connect 18 2 6 0;
#X connect 18 3 5 0;
#X connect 18 4 17 0;
#X connect 18 5 12 0;
#X connect 18 6 20 0;
#X connect 18 7 10 0;
#X connect 20 0 13 0;
#X restore 58 29 pd init;
#X text 39 322 1 loop-rec-on;
#X text 39 343 2 save current loop;
#X text 39 364 3 reverting;
#X text 39 386 4 clear everything and stop;
#X obj 579 250 t b b b b, f 16;
#X obj 381 174 r SAVE-it-return;
#X obj 381 195 sel 0 1, f 21;
#X obj 420 313 v \$0-localv;
#X msg 420 292 0;
#X text 39 302 0 loop-rec-off \, sound looping;
#X msg 562 716 Record:On;
#X msg 829 625 Record:Off;
#X msg 877 578 Looping;
#X obj 856 433 s the-commands;
#X obj 805 169 t b;
#X obj 805 248 v \$0-localv;
#N canvas 4 50 1132 713 print-the-rec-current 0;
#X obj 415 483 s oscOut;
#X msg 257 407 /oled/gFlip 3;
#X obj 551 61 r SAVE-it-return;
#X obj 321 25 r mute-Fx;
#X obj 551 82 sel 0;
#X obj 321 243 t b b b b b, f 42;
#X msg 410 309 /oled/gFillArea 3 14 14 100 43 0;
#X msg 385 341 /oled/gBox 3 14 14 100 43 1;
#X msg 498 283 /oled/gBox 3 15 15 100 43 1;
#X obj 321 46 t b b;
#X msg 360 72 1;
#X msg 551 103 0;
#X obj 350 180 metro 200, f 29;
#X msg 328 367 /oled/gPrintln 3 21 26 16 1 Storing!;
#X connect 1 0 0 0;
#X connect 2 0 4 0;
#X connect 3 0 9 0;
#X connect 4 0 11 0;
#X connect 5 0 1 0;
#X connect 5 1 13 0;
#X connect 5 2 7 0;
#X connect 5 3 6 0;
#X connect 5 4 8 0;
#X connect 6 0 0 0;
#X connect 7 0 0 0;
#X connect 8 0 0 0;
#X connect 9 0 5 0;
#X connect 9 1 10 0;
#X connect 10 0 12 0;
#X connect 11 0 12 0;
#X connect 12 0 5 0;
#X connect 13 0 0 0;
#X restore 81 484 pd print-the-rec-current;
#X msg 856 375 2;
#X msg 896 376 3;
#X obj 896 397 v \$0-localv;
#X text 30 280 v \$0-localv numbers:;
#X text 38 115 numbers in:;
#X text 47 133 1: start/stop rec-loop;
#X text 47 153 2: save current loop(lock everything);
#X text 47 173 3: revert to original rec loop of session;
#X text 47 193 4: clear all;
#X obj 1031 167 t b;
#X obj 1031 196 v \$0-localv;
#X text 47 213 5: shortcut slot numbers call back loop;
#X obj 1106 252 t b b;
#X msg 1133 277 4;
#X obj 1133 303 v \$0-localv;
#X obj 1106 324 s clear-all;
#X text 808 148 if not saving or reverting \, revert;
#X text 1039 147 if not cleared \, clear;
#X text 589 149 if looping (0) rec loop;
#X obj 1257 180 v \$0-localv;
#X obj 1332 236 t b b;
#X obj 1257 153 t b f, f 33;
#X obj 1332 317 f, f 20;
#X text 39 406 5 playing saved loop;
#X obj 1359 283 v \$0-localv;
#X msg 1359 257 5;
#X obj 1031 225 sel 2 3 4 5, f 13;
#X obj 805 277 sel 2 3 5;
#X obj 1360 704 s the-commands;
#X obj 1360 681 list prepend 3;
#X obj 381 469 s update-loop-count;
#X obj 381 266 t b b b;
#X obj 594 426 r start-loop-count;
#X obj 579 467 f;
#X obj 594 447 + 1;
#X obj 353 519 sel 0 5 4 1, f 61;
#X obj 1111 743 s screenLine5;
#X obj 1111 723 shortcut-mute-list 1;
#X obj 456 436 s \$0-2-scrnline5;
#X obj 1111 695 r \$0-2-scrnline5;
#X obj 1333 752 s \$0-2-scrnline5;
#X obj 400 380 f;
#X obj 876 602 s \$0-2-scrnline5;
#X obj 856 314 t b b b, f 14;
#X obj 937 364 s \$0-2-scrnline5;
#X msg 937 338 Original Sample;
#X obj 415 357 + 1;
#X obj 381 287 del 1;
#X msg 641 325 Storing .;
#X msg 442 272 Storing ...;
#X msg 778 679 EmptyLoop;
#X obj 710 34 stripnote;
#X obj 710 55 - 60;
#X obj 710 4 inlet notes from shortcut;
#X obj 710 77 m_speedlimit 20;
#X obj 1257 209 sel 1 2 3, f 13;
#X obj 439 626 s cancel-playback;
#X obj 412 583 t b b;
#X msg 1413 514 Slot is Empty!;
#X obj 1413 535 s \$0-2-scrnline5;
#X obj 157 536 bng 15 250 50 0 empty empty empty 17 7 0 10 -262144
-1 -1;
#X obj 157 556 v \$0-localv;
#X floatatom 157 577 5 0 0 0 - - -;
#X obj 415 336 r highest-loop.wav;
#X obj 1333 651 t a a;
#X obj 1333 731 list prepend Playing:;
#X msg 401 403 Stored loop-\$1.wav;
#X obj 1333 438 moses, f 24;
#X obj 1474 407 r wav-count;
#X obj 1413 490 t b;
#X obj 1333 459 + 1;
#X msg 1333 591 loop-\$1.wav;
#X obj 1332 500 swap;
#X obj 1332 521 pack;
#X obj 1332 542 -;
#X obj 1371 478 + 1;
#X obj 579 216 sel 0 5;
#X obj 805 190 spigot 0;
#X obj 625 554 t b b b b b b b b, f 51;
#X obj 989 577 s \$0-start-revert;
#X msg 974 552 1;
#X obj 848 164 r \$0-start-revert;
#X connect 0 0 31 0;
#X connect 1 0 61 0;
#X connect 4 0 11 0;
#X connect 4 1 10 0;
#X connect 4 2 8 0;
#X connect 5 0 7 1;
#X connect 6 0 2 0;
#X connect 7 0 5 0;
#X connect 7 0 6 0;
#X connect 8 0 13 0;
#X connect 9 0 12 0;
#X connect 10 0 11 0;
#X connect 11 0 9 0;
#X connect 12 0 2 0;
#X connect 12 1 13 0;
#X connect 13 0 7 0;
#X connect 14 0 19 0;
#X connect 15 0 49 0;
#X connect 16 0 57 0;
#X connect 17 0 56 0;
#X connect 18 0 50 0;
#X connect 19 1 20 0;
#X connect 20 0 51 0;
#X connect 21 0 58 0;
#X connect 22 0 53 0;
#X connect 23 0 30 0;
#X connect 24 0 161 0;
#X connect 25 0 26 0;
#X connect 26 1 27 0;
#X connect 27 0 36 0;
#X connect 29 0 16 0;
#X connect 29 1 15 0;
#X connect 29 2 22 0;
#X connect 29 3 76 0;
#X connect 29 4 24 0;
#X connect 30 0 44 0;
#X connect 31 1 32 0;
#X connect 32 0 52 0;
#X connect 35 0 33 0;
#X connect 36 0 4 0;
#X connect 36 1 35 0;
#X connect 36 2 3 0;
#X connect 37 0 45 0;
#X connect 38 0 37 0;
#X connect 39 0 46 0;
#X connect 40 0 47 0;
#X connect 41 0 39 0;
#X connect 42 0 40 0;
#X connect 43 0 48 0;
#X connect 44 0 48 0;
#X connect 45 0 48 0;
#X connect 46 0 48 0;
#X connect 47 0 48 0;
#X connect 48 0 1 0;
#X connect 48 1 54 0;
#X connect 48 2 80 0;
#X connect 48 3 92 0;
#X connect 48 4 104 0;
#X connect 52 0 48 0;
#X connect 54 0 62 0;
#X connect 61 0 118 0;
#X connect 62 0 159 0;
#X connect 64 0 63 0;
#X connect 70 0 116 0;
#X connect 70 1 60 0;
#X connect 70 2 131 0;
#X connect 70 3 64 0;
#X connect 71 0 72 0;
#X connect 72 0 114 0;
#X connect 72 1 132 0;
#X connect 74 0 73 0;
#X connect 76 0 28 0;
#X connect 77 0 55 0;
#X connect 78 0 125 0;
#X connect 80 0 160 0;
#X connect 81 0 110 0;
#X connect 83 0 79 0;
#X connect 84 0 85 0;
#X connect 92 0 93 0;
#X connect 93 0 109 0;
#X connect 95 0 98 0;
#X connect 95 1 96 0;
#X connect 96 0 97 0;
#X connect 102 0 138 0;
#X connect 103 0 105 0;
#X connect 103 1 108 0;
#X connect 104 0 102 0;
#X connect 104 1 105 1;
#X connect 105 0 150 0;
#X connect 108 0 107 0;
#X connect 109 4 95 0;
#X connect 110 3 126 0;
#X connect 112 0 111 0;
#X connect 114 0 130 0;
#X connect 114 1 124 0;
#X connect 114 2 74 0;
#X connect 115 0 117 0;
#X connect 116 0 59 0;
#X connect 117 0 116 1;
#X connect 118 0 29 0;
#X connect 118 1 140 0;
#X connect 118 2 29 0;
#X connect 118 3 161 0;
#X connect 120 0 119 0;
#X connect 122 0 120 0;
#X connect 124 0 149 0;
#X connect 126 0 83 0;
#X connect 126 1 84 0;
#X connect 126 2 128 0;
#X connect 128 0 127 0;
#X connect 129 0 124 1;
#X connect 130 0 113 0;
#X connect 131 0 121 0;
#X connect 132 0 121 0;
#X connect 133 0 34 0;
#X connect 134 0 135 0;
#X connect 135 0 137 0;
#X connect 136 0 134 0;
#X connect 137 0 43 0;
#X connect 138 3 103 0;
#X connect 140 0 29 0;
#X connect 140 1 139 0;
#X connect 141 0 142 0;
#X connect 143 0 144 0;
#X connect 144 0 145 0;
#X connect 146 0 129 0;
#X connect 147 0 148 0;
#X connect 147 1 112 0;
#X connect 148 0 123 0;
#X connect 149 0 121 0;
#X connect 150 0 153 0;
#X connect 150 1 152 0;
#X connect 151 0 150 1;
#X connect 151 0 158 0;
#X connect 152 0 141 0;
#X connect 153 0 155 0;
#X connect 154 0 147 0;
#X connect 155 0 156 0;
#X connect 155 1 156 1;
#X connect 156 0 157 0;
#X connect 157 0 154 0;
#X connect 158 0 155 1;
#X connect 159 0 70 0;
#X connect 159 1 70 0;
#X connect 160 0 81 0;
#X connect 161 0 17 0;
#X connect 161 1 18 0;
#X connect 161 2 21 0;
#X connect 161 3 133 0;
#X connect 161 4 77 0;
#X connect 161 5 78 0;
#X connect 161 6 24 1;
#X connect 161 7 163 0;
#X connect 163 0 162 0;
#X connect 164 0 160 1;
#X restore 531 181 pd shorcut-commands;
#X obj 390 305 r the-commands;
#N canvas 4 50 450 300 pathz 0;
#X obj 50 50 declare -path CG-Pd-Library-Local/sequencer;
#X obj 50 100 declare -path CG-Pd-Library-Local/metronome;
#X obj 50 150 declare -path CG-Pd-Library-Local/sampling;
#X obj 50 200 declare -path CG-Pd-Library-Local/externals;
#X restore 20 71 pd pathz;
#X obj 21 47 cg-path-gen pathz \$1;
#X obj 325 466 *~ 0.9;
#X obj 325 426 hip~ 1;
#X text 374 426 dc offset;
#X connect 0 0 1 0;
#X connect 0 1 14 0;
#X connect 1 0 14 0;
#X connect 4 0 5 0;
#X connect 5 0 1 2;
#X connect 6 0 8 0;
#X connect 7 0 8 1;
#X connect 8 0 9 0;
#X connect 10 0 1 1;
#X connect 13 0 2 0;
#X connect 13 0 3 0;
#X connect 14 0 13 0;
