#N canvas 4 50 1056 810 10;
#X obj 160 191 random 100;
#X obj 160 212 / 100;
#X obj 160 233 pow 2;
#X obj 241 284 / 2;
#X obj 160 334 *, f 14;
#X obj 214 254 t b a;
#X obj 241 305 t a a;
#X obj 234 412 f, f 12;
#X obj 160 376 t a b a, f 19;
#X obj 234 433 pack, f 10;
#X obj 234 454 -;
#X text 134 411 attack;
#X obj 456 194 random 100;
#X obj 456 215 / 100;
#X obj 456 236 pow 2;
#X obj 537 287 / 2;
#X obj 456 337 *, f 14;
#X obj 510 257 t b a;
#X obj 537 308 t a a;
#X obj 530 416 f, f 13;
#X obj 456 380 t a b a, f 19;
#X obj 530 437 pack, f 10;
#X obj 530 458 -;
#X msg 456 264 1 \$1;
#X obj 456 285 -;
#X text 404 396 release;
#X text 553 462 2nd half of the sustain;
#X text 257 458 1st half of the sustain;
#X obj 510 236 - 16;
#X obj 214 233 - 16;
#X obj 456 401 + 8;
#X obj 160 397 + 8;
#X obj 234 515 +, f 49;
#X obj 76 105 inlet bang;
#X text 659 96 Arg1: receive for the master length;
#X obj 137 626 outlet;
#X obj 510 215 r \$1, f 7;
#X obj 214 211 r \$1;
#X obj 76 126 t b b b, f 72;
#X obj 137 575 pack 0 0 0 0, f 53;
#X msg 76 147 69;
#X obj 137 596 route 69;
#X connect 0 0 1 0;
#X connect 1 0 2 0;
#X connect 2 0 4 0;
#X connect 3 0 6 0;
#X connect 4 0 8 0;
#X connect 5 0 4 0;
#X connect 5 1 3 0;
#X connect 6 0 4 1;
#X connect 6 1 7 1;
#X connect 7 0 9 0;
#X connect 8 0 31 0;
#X connect 8 1 7 0;
#X connect 8 2 9 1;
#X connect 9 0 10 0;
#X connect 10 0 32 0;
#X connect 12 0 13 0;
#X connect 13 0 14 0;
#X connect 14 0 23 0;
#X connect 15 0 18 0;
#X connect 16 0 20 0;
#X connect 17 0 16 0;
#X connect 17 1 15 0;
#X connect 18 0 16 1;
#X connect 18 1 19 1;
#X connect 19 0 21 0;
#X connect 20 0 30 0;
#X connect 20 1 19 0;
#X connect 20 2 21 1;
#X connect 21 0 22 0;
#X connect 22 0 32 1;
#X connect 23 0 24 0;
#X connect 24 0 16 0;
#X connect 28 0 17 0;
#X connect 29 0 5 0;
#X connect 30 0 39 3;
#X connect 31 0 39 1;
#X connect 32 0 39 2;
#X connect 33 0 38 0;
#X connect 36 0 28 0;
#X connect 37 0 29 0;
#X connect 38 0 40 0;
#X connect 38 1 0 0;
#X connect 38 2 12 0;
#X connect 39 0 41 0;
#X connect 40 0 39 0;
#X connect 41 0 35 0;
