#N canvas 424 50 1336 942 10;
#X obj 309 225 mtof;
#X text 254 74 note messages;
#X text 349 228 outputs midi note number from left outlet;
#X obj 592 539 f;
#X obj 308 696 *~;
#X text 347 181 selects note off messages so we can set decay time
later;
#X text 379 261 convert it to signal so frequency will be constantly
updated;
#X obj 277 98 inlet;
#X obj 308 748 outlet~;
#X obj 309 595 s_buzz;
#X obj 591 659 *~;
#X obj 349 379 -~ 1;
#X obj 349 401 abs~;
#X obj 348 445 *~;
#X obj 347 533 *~;
#X obj 349 324 /~ 5000;
#X obj 348 349 clip~ 0 5000;
#X text 412 312 sorta arbitrary scale of harmonic content amount to
avoid aliasing... assumes 44.1k sampling rate .....;
#X obj 425 438 r~ knob3-smooth;
#X obj 426 469 *~ 0.8;
#X obj 277 128 stripnote;
#X obj 592 596 vline~;
#X obj 277 150 t b f;
#X obj 308 285 *~ 1;
#X obj 309 180 - 0;
#X text 23 16 Synth Voice;
#X obj 709 493 r decay;
#X obj 308 718 *~ 0.45;
#X obj 277 466 t b;
#X obj 309 259 lop~ 1000;
#X msg 592 566 0 2 \, 1 5 2 \, 0 \$1 7;
#X connect 0 0 29 0;
#X connect 3 0 30 0;
#X connect 4 0 27 0;
#X connect 7 0 20 0;
#X connect 9 0 4 0;
#X connect 10 0 4 1;
#X connect 11 0 12 0;
#X connect 12 0 13 1;
#X connect 12 0 13 0;
#X connect 13 0 14 0;
#X connect 14 0 9 1;
#X connect 15 0 16 0;
#X connect 16 0 11 0;
#X connect 18 0 19 0;
#X connect 19 0 14 1;
#X connect 20 0 22 0;
#X connect 21 0 10 1;
#X connect 21 0 10 0;
#X connect 22 0 28 0;
#X connect 22 1 24 0;
#X connect 23 0 9 0;
#X connect 23 0 15 0;
#X connect 24 0 0 0;
#X connect 26 0 3 1;
#X connect 27 0 8 0;
#X connect 28 0 3 0;
#X connect 29 0 23 0;
#X connect 30 0 21 0;
