#N canvas 12 50 454 468 10;
#X obj 73 24 inlet;
#X obj 180 384 outlet~;
#X obj 215 73 + 1;
#X obj 182 73 f 0;
#X obj 182 95 % 2;
#X obj 182 117 sel 0 1, f 29;
#X obj 73 221 spigot;
#X obj 73 47 t a a b, f 16;
#X obj 127 221 spigot;
#X msg 182 162 1;
#X obj 182 139 t b b b;
#X msg 212 162 0;
#X msg 281 162 1;
#X obj 281 139 t b b b;
#X msg 311 162 0;
#X obj 264 294 voice;
#X obj 180 345 *~ 0.45;
#X obj 180 292 voice;
#X connect 0 0 7 0;
#X connect 2 0 3 1;
#X connect 3 0 2 0;
#X connect 3 0 4 0;
#X connect 4 0 5 0;
#X connect 5 0 10 0;
#X connect 5 1 13 0;
#X connect 6 0 17 0;
#X connect 7 0 6 0;
#X connect 7 1 8 0;
#X connect 7 2 3 0;
#X connect 8 0 15 0;
#X connect 9 0 6 1;
#X connect 10 0 9 0;
#X connect 10 1 11 0;
#X connect 10 2 15 1;
#X connect 11 0 8 1;
#X connect 12 0 8 1;
#X connect 13 0 12 0;
#X connect 13 1 14 0;
#X connect 13 2 17 1;
#X connect 14 0 6 1;
#X connect 15 0 16 0;
#X connect 16 0 1 0;
#X connect 17 0 16 0;
