#N canvas 597 50 688 566 10;
#X declare -path patchmenu;
#X obj 440 169 throw~ outL;
#X obj 530 169 throw~ outR;
#X obj 441 127 *~ 1;
#X obj 442 100 vektor 1;
#X obj 75 19 declare -path patchmenu;
#X obj 75 180 patchmenu;
#X obj 107 143 s enableSubMenu;
#X obj 75 41 loadbang;
#X msg 75 143 0;
#X obj 75 120 t b b;
#N canvas 651 65 1251 576 mapping 0;
#X obj 139 460 map-aux 2 vek-1-aux;
#X obj 91 99 r knob1;
#X obj 91 146 f;
#X obj 207 16 r page-ready;
#X obj 91 170 s vek-1-knob1;
#X obj 210 41 bang;
#X obj 78 262 r vek-1-knob1-label;
#X obj 78 337 s p2s1;
#X obj 78 305 list prepend 1:;
#X obj 270 147 f;
#X obj 467 149 f;
#X obj 662 157 f;
#X obj 257 338 s p2s2;
#X obj 454 340 s p2s3;
#X obj 649 348 s p2s4;
#X obj 270 171 s vek-1-knob2;
#X obj 467 173 s vek-1-knob3;
#X obj 662 181 s vek-1-knob4;
#X text 321 19 resend values when coming to new page;
#X text 361 238 show values on page 2;
#X obj 270 100 r knob2;
#X obj 467 102 r knob3;
#X obj 662 110 r knob4;
#X obj 257 263 r vek-1-knob2-label;
#X obj 455 265 r vek-1-knob3-label;
#X obj 649 273 r vek-1-knob4-label;
#X obj 257 306 list prepend 2:;
#X obj 454 308 list prepend 3:;
#X obj 649 316 list prepend 4:;
#X obj 969 275 s p2s5;
#X msg 969 234 Latch ON (Hold Aux) \;;
#X msg 1013 211 Latch OFF (Hold Aux) \;;
#X obj 990 138 bng 15 250 50 0 empty empty empty 17 7 0 10 -262144
-1 -1;
#X obj 990 188 sel 1 0;
#X obj 990 163 value latchstate;
#X obj 990 112 r latchbang;
#X text 904 92 control the printing of Latch state;
#X connect 1 0 2 0;
#X connect 2 0 4 0;
#X connect 3 0 5 0;
#X connect 5 0 2 0;
#X connect 5 0 9 0;
#X connect 5 0 10 0;
#X connect 5 0 11 0;
#X connect 5 0 34 0;
#X connect 6 0 8 0;
#X connect 8 0 7 0;
#X connect 9 0 15 0;
#X connect 10 0 16 0;
#X connect 11 0 17 0;
#X connect 20 0 9 0;
#X connect 21 0 10 0;
#X connect 22 0 11 0;
#X connect 23 0 26 0;
#X connect 24 0 27 0;
#X connect 25 0 28 0;
#X connect 26 0 12 0;
#X connect 27 0 13 0;
#X connect 28 0 14 0;
#X connect 30 0 29 0;
#X connect 31 0 29 0;
#X connect 32 0 34 0;
#X connect 33 0 30 0;
#X connect 33 1 31 0;
#X connect 34 0 33 0;
#X connect 35 0 32 0;
#X restore 442 251 pd mapping;
#X obj 75 63 b;
#X obj 75 95 versioncheck 2;
#X obj 442 71 r notes;
#X text 453 227 Map the Knobs;
#X msg 75 212 \; screenLine1 1) Waveform Display \; screenLine2 2)
Parameter Display \; screenLine3 <-- HOME \;;
#X connect 2 0 0 0;
#X connect 2 0 1 0;
#X connect 3 0 2 0;
#X connect 5 0 15 0;
#X connect 7 0 11 0;
#X connect 8 0 5 0;
#X connect 9 0 8 0;
#X connect 9 1 6 0;
#X connect 11 0 12 0;
#X connect 12 0 9 0;
#X connect 13 0 3 0;
