#N canvas 327 50 1486 961 10;
#N canvas 0 50 450 250 (subpatch) 0;
#X array waveshape 8195 float 2;
#X coords 0 1 8195 -1 200 140 1;
#X restore -39 47 graph;
#X obj 648 102 tabosc4~ waveshape;
#X obj 648 170 *~;
#X obj 697 21 hsl 128 15 0 1 0 0 empty empty empty -2 -8 0 10 -262144
-1 -1 0 1;
#X floatatom 686 40 5 0 0 0 - - -, f 5;
#X obj 648 196 throw~ outL;
#X obj 658 220 throw~ outR;
#X floatatom 571 42 5 0 0 0 - - -, f 5;
#X obj 571 61 lop~ 50;
#X obj 686 59 lop~ 10;
#X obj 648 124 hip~ 10;
#X obj 648 146 lop~ 18000;
#X msg 312 325 \; waveshape sinesum 8192 10 33 54 71 92 71 44 \; waveshape
normalize \;;
#X obj 704 354 t f b;
#X obj 704 376 until;
#X obj 704 398 f;
#X obj 733 398 + 1;
#X obj 705 564 tabwrite numbers;
#X msg 754 377 0;
#X obj 725 454 + 1;
#X obj 492 529 array get numbers;
#X obj 492 551 list prepend add;
#X obj 492 573 route list;
#X obj 501 494 bng 15 250 50 0 empty empty empty 17 7 0 10 -262144
-1 -1;
#X obj 704 495 expr 1 / $f1;
#X msg 34 683 \; waveshape sinesum 8192 1 0.25 0.111111 0.0625 0.04
0.0277778 0.0204082 0.015625 0.0123457 0.01 0.00826446 0.00694444 0.00591716
0.00510204 0.00444445 0.00390625 0.00346021 0.00308642 0.00277008 0.0025
0.00226757 0.00206612 0.00189036 0.00173611 0.0016 0.00147929 0.00137174
0.00127551 0.00118906 0.00111111 0.00104058 0.000976562 0.000918274
0.000865052 0.000816327 0.000771605 0.00073046 0.000692521 0.000657462
0.000625 0.000594884 0.000566893 0.000540833 0.000516529 0.000493827
0.00047259 0.000452693 0.000434028 0.000416493 0.0004 0.000384468 0.000369823
0.000355999 0.000342936 0.000330578 0.000318878 0.000307787 0.000297265
0.000287274 0.000277778 0.000268745 0.000260146 0.000251953 0.000244141
\; waveshape normalize \;;
#X obj 704 420 t f f f;
#X msg 38 889 \; waveshape sinesum 8192 1 0 0.111111 0 0.04 0 0.0204082
0 0.0123457 0 0.00826446 0 0.00591716 0 0.00444445 0 0.00346021 0 0.00277008
0 0.00226757 0 0.00189036 0 0.0016 0 0.00137174 0 0.00118906 0 0.00104058
0 0.000918274 0 0.000816327 0 0.00073046 0 0.000657462 0 0.000594884
0 0.000540833 0 0.000493827 0 0.000452693 0 0.000416493 0 0.000384468
0 0.000355999 0 0.000330578 0 0.000307787 0 0.000287274 0 0.000268745
0 0.000251953 0 \; waveshape normalize \;;
#X msg 522 1741 \; waveshape sinesum 8192 1 0 0.19245 0 0.0894427 0
0.0539949 0 0.037037 0 0.0274101 0 0.0213346 0 0.0172133 0 0.0142668
0 0.0120745 0 0.0103913 0 0.00906585 0 0.008 0 0.00712778 0 0.00640329
0 0.00579372 0 0.00527508 0 0.00482945 0 0.00444322 0 0.00410585 0
0.00380912 0 0.00354648 0 0.00331269 0 0.00310351 0 0.00291545 0 0.00274565
0 0.00259171 0 0.00245164 0 0.00232374 0 0.00220659 0 0.00209896 0
0.00199981 0 \; waveshape normalize \;;
#X obj 934 444 t f b;
#X obj 934 466 until;
#X obj 934 488 f;
#X obj 963 488 + 1;
#X obj 1051 805 tabwrite numbers;
#X msg 984 467 0;
#X obj 934 510 t f f f f;
#X msg 519 1535 \; waveshape sinesum 8192 1 -0.353553 0.19245 -0.125
0.0894427 -0.0680414 0.0539949 -0.0441942 0.037037 -0.0316228 0.0274101
-0.0240563 0.0213346 -0.0190901 0.0172133 -0.015625 0.0142668 -0.0130946
0.0120745 -0.0111803 0.0103913 -0.00969094 0.00906585 -0.00850517 0.008
-0.00754293 0.00712778 -0.00674937 0.00640329 -0.00608581 0.00579372
-0.00552427 0.00527508 -0.00504408 0.00482945 -0.00462963 0.00444322
-0.00426898 0.00410585 -0.00395285 0.00380912 -0.00367389 0.00354648
-0.00342627 0.00331269 -0.00320526 0.00310351 -0.00300703 0.00291545
-0.00282843 0.00274565 -0.00266683 0.00259171 -0.00252005 0.00245164
-0.00238626 0.00232374 -0.0022639 0.00220659 -0.00215166 0.00209896
-0.00204839 0.00199981 -0.00195312 \; waveshape normalize \;;
#X msg 34 311 \; waveshape sinesum 8192 7 2 3 1 \; waveshape normalize
\;;
#X msg 283 103 \; waveshape sinesum 8192 20 0 0 0 3 2 1 1.5 1.25 \;
waveshape normalize \;;
#X msg 516 1410 \; waveshape sinesum 8192 1 0.353553 0 0.125 0 0.0680414
0 0.0441942 0 0.0316228 0 0.0240563 0 0.0190901 0 0.015625 0 0.0130946
0 0.0111803 0 0.00969094 0 0.00850517 0 0.00754293 0 0.00674937 0 0.00608581
0 0.00552427 0 0.00504408 0 0.00462963 0 0.00426898 0 0.00395285 0
0.00367389 0 0.00342627 0 0.00320526 0 0.00300703 0 0.00282843 0 0.00266683
0 0.00252005 0 0.00238626 0 0.0022639 0 0.00215166 0 0.00204839 0 0.00195312
\; waveshape normalize \;;
#X msg -120 1243 \; waveshape sinesum 8192 1 0.5 0 0.25 0 0.166667
0 0.125 0 0.1 0 0.0833333 0 0.0714286 0 0.0625 0 0.0555556 0 0.05 0
0.0454545 0 0.0416667 0 0.0384615 0 0.0357143 0 0.0333333 0 0.03125
0 0.0294118 0 0.0277778 0 0.0263158 0 0.025 0 0.0238095 0 0.0227273
0 0.0217391 0 0.0208333 0 0.02 0 0.0192308 0 0.0185185 0 0.0178571
0 0.0172414 0 0.0166667 0 0.016129 0 0.015625 \; waveshape normalize
\;;
#X msg 872 96 \; waveshape sinesum 8192 1 0.5 0.333333 -0.25 0.2 0.166667
0.142857 -0.125 0.111111 0.1 0.0909091 -0.0833333 0.0769231 0.0714286
0.0666667 -0.0625 0.0588235 0.0555556 0.0526316 -0.05 0.047619 0.0454545
0.0434783 -0.0416667 0.04 0.0384615 0.037037 -0.0357143 0.0344828 0.0333333
0.0322581 -0.03125 0.030303 0.0294118 0.0285714 -0.0277778 0.027027
0.0263158 0.025641 -0.025 0.0243902 0.0238095 0.0232558 -0.0227273
0.0222222 0.0217391 0.0212766 -0.0208333 0.0204082 0.02 0.0196078 -0.0192308
0.0188679 0.0185185 0.0181818 -0.0178571 0.0175439 0.0172414 0.0169492
-0.0166667 0.0163934 0.016129 0.015873 -0.015625 \; waveshape normalize
\;;
#X msg 975 810 \; waveshape sinesum 8192 1 0.25 0.111111 -0.0625 0.04
0.0277778 0.0204082 -0.015625 0.0123457 0.01 0.00826446 -0.00694444
0.00591716 0.00510204 0.00444445 -0.00390625 0.00346021 0.00308642
0.00277008 -0.0025 0.00226757 0.00206612 0.00189036 -0.00173611 0.0016
0.00147929 0.00137174 -0.00127551 0.00118906 0.00111111 0.00104058
-0.000976562 0.000918274 0.000865052 0.000816327 -0.000771605 0.00073046
0.000692521 0.000657462 -0.000625 0.000594884 0.000566893 0.000540833
-0.000516529 0.000493827 0.00047259 0.000452693 -0.000434028 0.000416493
0.0004 0.000384468 -0.000369823 0.000355999 0.000342936 0.000330578
-0.000318878 0.000307787 0.000297265 0.000287274 -0.000277778 0.000268745
0.000260146 0.000251953 -0.000244141 \; waveshape normalize \;;
#X msg 45 493 \; waveshape sinesum 8192 1 0.5 0.333333 0.25 0.2 0.166667
0.142857 0.125 0.111111 0.1 0.0909091 0.0833333 0.0769231 0.0714286
0.0666667 0.0625 0.0588235 0.0555556 0.0526316 0.05 0.047619 0.0454545
0.0434783 0.0416667 0.04 0.0384615 0.037037 0.0357143 0.0344828 0.0333333
0.0322581 0.03125 0.030303 0.0294118 0.0285714 0.0277778 0.027027 0.0263158
0.025641 0.025 0.0243902 0.0238095 0.0232558 0.0227273 0.0222222 0.0217391
0.0212766 0.0208333 0.0204082 0.02 0.0196078 0.0192308 0.0188679 0.0185185
0.0181818 0.0178571 0.0175439 0.0172414 0.0169492 0.0166667 0.0163934
0.016129 0.015873 0.015625 \; waveshape normalize \;;
#X msg 1229 754 \; waveshape sinesum 8192 0 0.5 0 0.25 0 0.166667 0
0.125 0 0.1 0 0.0833333 0 0.0714286 0 0.0625 0 0.0555556 0 0.05 0 0.0454545
0 0.0416667 0 0.0384615 0 0.0357143 0 0.0333333 0 0.03125 0 0.0294118
0 0.0277778 0 0.0263158 0 0.025 0 0.0238095 0 0.0227273 0 0.0217391
0 0.0208333 0 0.02 0 0.0192308 0 0.0185185 0 0.0178571 0 0.0172414
0 0.0166667 0 0.016129 0 0.015625 \; waveshape normalize \;;
#X obj 820 321 soundfiler;
#X msg 845 287 write -wave waveforms/wave\$1.wav waveshape;
#X obj 799 251 f;
#X floatatom 817 209 5 0 0 0 - - -, f 5;
#X obj 791 213 bng 15 250 50 0 empty empty empty 17 7 0 10 -262144
-1 -1;
#X msg 33 373 \; waveshape sinesum 8192 1 0.5 0.3333 0.25 \; waveshape
normalize \;;
#X msg 1251 365 \; waveshape sinesum 8192 1 0.25 0.111111 0.0625 0.04
0.0277778 0.0204082 0.015625 0.0123457 0.01 0.00826446 0.00694444 0.00591716
0.00510204 0.00444445 0.00390625 0.00346021 0.00308642 0.00277008 0.0025
0.00226757 0.00206612 0.00189036 0.00173611 0.0016 0.00147929 0.00137174
0.00127551 0.00118906 0.00111111 0.00104058 0.000976562 0.000918274
0.000865052 0.000816327 0.000771605 0.00073046 0.000692521 0.000657462
0.000625 0.000594884 0.000566893 0.000540833 0.000516529 0.000493827
0.00047259 0.000452693 0.000434028 0.000416493 0.0004 0.000384468 0.000369823
0.000355999 0.000342936 0.000330578 0.000318878 0.000307787 0.000297265
0.000287274 0.000277778 0.000268745 0.000260146 0.000251953 0.000244141
0.000236686 0.000229568 0.000222767 0.000216263 0.00021004 0.000204082
0.000198373 0.000192901 0.000187652 0.000182615 0.000177778 0.00017313
0.000168663 0.000164366 0.000160231 0.00015625 0.000152416 0.000148721
0.000145159 0.000141723 0.000138408 0.000135208 0.000132118 0.000129132
0.000126247 0.000123457 0.000120758 0.000118147 0.00011562 0.000113173
0.000110803 0.000108507 0.000106281 0.000104123 0.00010203 0.0001 9.80296e-05
9.61169e-05 9.42596e-05 9.24556e-05 9.0703e-05 8.89996e-05 8.73439e-05
8.57339e-05 8.4168e-05 8.26446e-05 8.11622e-05 7.97194e-05 7.83147e-05
7.69468e-05 7.56144e-05 7.43163e-05 7.30514e-05 7.18184e-05 7.06165e-05
6.94445e-05 6.83013e-05 6.71862e-05 6.60982e-05 6.10352e-05 \; waveshape
normalize \;;
#X msg 935 420 128;
#X msg 1532 665 \; waveshape sinesum 8192 1 0 0.333333 0 0.2 0 0.142857
0 0.111111 0 0.0909091 0 0.0769231 0 0.0666667 0 0.0588235 0 0.0526316
0 0.047619 0 0.0434783 0 0.04 0 0.037037 0 0.0344828 0 0.0322581 0
0.030303 0 0.0285714 0 0.027027 0 0.025641 0 0.0243902 0 0.0232558
0 0.0222222 0 0.0212766 0 0.0204082 0 0.0196078 0 0.0188679 0 0.0181818
0 0.0175439 0 0.0169492 0 0.0163934 0 0.015873 0 0.0153846 0 0.0149254
0 0.0144928 0 0.0140845 0 0.0136986 0 0.0133333 0 0.012987 0 0.0126582
0 0.0123457 0 0.0120482 0 0.0117647 0 0.0114943 0 0.011236 0 0.010989
0 0.0107527 0 0.0105263 0 0.0103093 0 0.010101 0 0.00990099 0 0.00970874
0 0.00952381 0 0.00934579 0 0.00917431 0 0.00900901 0 0.00884956 0
0.00869565 0 0.00854701 0 0.00840336 0 0.00826446 0 0.00813008 0 \;
waveshape normalize \;;
#X msg 38 1058 \; waveshape sinesum 8192 1 0 0.19245 0 0.0894427 0
0.0539949 0 0.037037 0 0.0274101 0 0.0213346 0 0.0172133 0 0.0142668
0 0.0120745 0 0.0103913 0 0.00906585 0 0.008 0 0.00712778 0 0.00640329
0 0.00579372 0 0.00527508 0 0.00482945 0 0.00444322 0 0.00410585 0
0.00380912 0 0.00354648 0 0.00331269 0 0.00310351 0 0.00291545 0 0.00274565
0 0.00259171 0 0.00245164 0 0.00232374 0 0.00220659 0 0.00209896 0
0.00199981 0 0.00190823 0 0.00182342 0 0.00174472 0 0.00167152 0 0.0016033
0 0.0015396 0 0.00148001 0 0.00142416 0 0.00137174 0 0.00132246 0 0.00127606
0 0.00123231 0 0.00119101 0 0.00115196 0 0.001115 0 0.00107998 0 0.00104675
0 0.00101519 0 0.000985185 0 0.00095663 0 0.000929429 0 0.000903492
0 0.00087874 0 0.000855097 0 0.000832496 0 0.000810874 0 0.000790171
0 0.000770335 0 0.000751315 0 0.000733065 0 \; waveshape normalize
\;;
#X msg 998 1055 \; waveshape sinesum 8192 1 0 0.037037 0 0.008 0 0.00291545
0 0.00137174 0 0.000751315 0 0.000455166 0 0.000296296 0 0.000203542
0 0.000145794 0 0.00010798 0 8.21895e-05 0 6.4e-05 0 5.08053e-05 0
4.10021e-05 0 3.35672e-05 0 2.78265e-05 0 2.33236e-05 0 1.97422e-05
0 1.6858e-05 0 1.45094e-05 0 1.25775e-05 0 1.09739e-05 0 9.63178e-06
0 8.49986e-06 0 7.53858e-06 0 6.71695e-06 0 6.01052e-06 0 5.39977e-06
0 4.86905e-06 0 4.40565e-06 0 3.99925e-06 0 3.64133e-06 0 3.32488e-06
0 3.04406e-06 0 2.79399e-06 0 2.57058e-06 0 2.37037e-06 0 2.19042e-06
0 2.02824e-06 0 1.88168e-06 0 1.7489e-06 0 1.62833e-06 0 1.5186e-06
0 1.4185e-06 0 1.32702e-06 0 1.24323e-06 0 1.16635e-06 0 1.09568e-06
0 1.03061e-06 0 9.7059e-07 0 9.15142e-07 0 8.63838e-07 0 8.16298e-07
0 7.72183e-07 0 7.31191e-07 0 6.9305e-07 0 6.57516e-07 0 6.24371e-07
0 5.93416e-07 0 5.64474e-07 0 5.37384e-07 0 \; waveshape normalize
\;;
#X msg 380 221 \; waveshape sinesum 8192 1 \; waveshape normalize \;
;
#X obj 652 495 t f f;
#X obj 652 517 *;
#X msg 355 380 \; waveshape sinesum 8192 1 0.5 0.333333 \; waveshape
normalize \;;
#X msg 705 330 10;
#X msg 259 432 \; waveshape sinesum 8192 1 0.5 0.333333 0.25 0.2 0.166667
0.142857 0.125 0.111111 0.1 \; waveshape normalize \;;
#X msg 388 275 \; waveshape sinesum 8192 20 1 1.333 -2 0 -0.93 \; waveshape
normalize \;;
#X msg 223 158 \; waveshape sinesum 8192 300 0 0 0 0 1 2 3 4 4 3 2
1 0.5 0.4 0.3 0.2 0.1 \; waveshape normalize \;;
#X obj 1028 376 f;
#X floatatom 1046 334 5 0 0 0 - - -, f 5;
#X obj 1020 338 bng 15 250 50 0 empty empty empty 17 7 0 10 -262144
-1 -1;
#X msg 937 402 read -resize waveforms/wave\$1.wav waveshape;
#X obj 938 538 + 1;
#X obj 1005 551 + 1;
#X obj 1005 573 expr 1/$f1;
#X obj 960 728 *;
#X msg 28 929 \; waveshape sinesum 8192 1 -0.5 0.333333 -0.25 0.2 -0.166667
0.142857 -0.125 0.111111 -0.1 0.0909091 -0.0833333 0.0769231 -0.0714286
0.0666667 -0.0625 0.0588235 -0.0555556 0.0526316 -0.05 0.047619 -0.0454545
0.0434783 -0.0416667 0.04 -0.0384615 0.037037 -0.0357143 0.0344828
-0.0333333 0.0322581 -0.03125 0.030303 -0.0294118 0.0285714 -0.0277778
0.027027 -0.0263158 0.025641 -0.025 0.0243902 -0.0238095 0.0232558
-0.0227273 0.0222222 -0.0217391 0.0212766 -0.0208333 0.0204082 -0.02
0.0196078 -0.0192308 0.0188679 -0.0185185 0.0181818 -0.0178571 0.0175439
-0.0172414 0.0169492 -0.0166667 0.0163934 -0.016129 0.015873 -0.015625
0.0153846 -0.0151515 0.0149254 -0.0147059 0.0144928 -0.0142857 0.0140845
-0.0138889 0.0136986 -0.0135135 0.0133333 -0.0131579 0.012987 -0.0128205
0.0126582 -0.0125 0.0123457 -0.0121951 0.0120482 -0.0119048 0.0117647
-0.0116279 0.0114943 -0.0113636 0.011236 -0.0111111 0.010989 -0.0108696
0.0107527 -0.0106383 0.0105263 -0.0104167 0.0103093 -0.0102041 0.010101
-0.01 0.00990099 -0.00980392 0.00970874 -0.00961538 0.00952381 -0.00943396
0.00934579 -0.00925926 0.00917431 -0.00909091 0.00900901 -0.00892857
0.00884956 -0.00877193 0.00869565 -0.00862069 0.00854701 -0.00847458
0.00840336 -0.00833333 0.00826446 -0.00819672 0.00813008 -0.0078125
\; waveshape normalize \;;
#X obj 938 559 % 2;
#X obj 938 582 sel 0 1;
#X obj 955 703 *;
#X msg 970 602 1;
#X msg 933 605 0;
#X obj 873 351 table numbers 128;
#X msg 533 889 \; waveshape sinesum 8192 -1 -0 0.333333 0 -0.2 -0 0.142857
0 -0.111111 -0 0.0909091 0 -0.0769231 -0 0.0666667 0 -0.0588235 -0
0.0526316 0 -0.047619 -0 0.0434783 0 -0.04 -0 0.037037 0 -0.0344828
-0 0.0322581 0 -0.030303 -0 0.0285714 0 -0.027027 -0 0.025641 0 -0.0243902
-0 0.0232558 0 -0.0222222 -0 0.0212766 0 -0.0204082 -0 0.0196078 0
-0.0188679 -0 0.0181818 0 -0.0175439 -0 0.0169492 0 -0.0163934 -0 0.015873
0 -0.0153846 -0 0.0149254 0 -0.0144928 -0 0.0140845 0 -0.0136986 -0
0.0133333 0 -0.012987 -0 0.0126582 0 -0.0123457 -0 0.0120482 0 -0.0117647
-0 0.0114943 0 -0.011236 -0 0.010989 0 -0.0107527 -0 0.0105263 0 -0.0103093
-0 0.010101 0 -0.00990099 -0 0.00970874 0 -0.00952381 -0 0.00934579
0 -0.00917431 -0 0.00900901 0 -0.00884956 -0 0.00869565 0 -0.00854701
-0 0.00840336 0 -0.00826446 -0 0.00813008 0 -0.008 -0 0.00787402 0
\; waveshape normalize \;;
#X msg 333 884 \; waveshape sinesum 8192 1 0 0.111111 0 0.04 0 0.0204082
0 0.0123457 0 0.00826446 0 0.00591716 0 0.00444445 0 0.00346021 0 0.00277008
0 0.00226757 0 0.00189036 0 0.0016 0 0.00137174 0 0.00118906 0 0.00104058
0 0.000918274 0 0.000816327 0 0.00073046 0 0.000657462 0 0.000594884
0 0.000540833 0 0.000493827 0 0.000452693 0 0.000416493 0 0.000384468
0 0.000355999 0 0.000330578 0 0.000307787 0 0.000287274 0 0.000268745
0 0.000251953 0 0.000236686 0 0.000222767 0 0.00021004 0 0.000198373
0 0.000187652 0 0.000177778 0 0.000168663 0 0.000160231 0 0.000152416
0 0.000145159 0 0.000138408 0 0.000132118 0 0.000126247 0 0.000120758
0 0.00011562 0 0.000110803 0 0.000106281 0 0.00010203 0 9.80296e-05
0 9.42596e-05 0 9.0703e-05 0 8.73439e-05 0 8.4168e-05 0 8.11622e-05
0 7.83147e-05 0 7.56144e-05 0 7.30514e-05 0 7.06165e-05 0 6.83013e-05
0 6.60982e-05 0 6.4e-05 0 6.20001e-05 0 \; waveshape normalize \;;
#X obj 1095 592 + 1;
#X msg 1090 659 -1;
#X obj 1095 636 sel 3;
#X obj 1130 664 b;
#X msg 1131 694 1;
#X obj 1095 613 % 4;
#X msg -96 230 \; waveshape sinesum 8192 100 0 -33 0 20 0 -14.2857
0 11.1 0 -9 0 7.6 0 -6.666 0 5.5 0 -5 0 4 0 -3 \; waveshape normalize
\;;
#X obj 1034 598 t f f;
#X obj 1016 642 *;
#X msg -494 958 \; waveshape sinesum 8192 1 0 -0.111111 0 0.04 0 -0.0204082
0 0.0123457 0 -0.00826446 0 0.00591716 0 -0.00444445 0 0.00346021 0
-0.00277008 0 0.00226757 0 -0.00189036 0 0.0016 0 -0.00137174 0 0.00118906
0 -0.00104058 0 0.000918274 0 -0.000816327 0 0.00073046 0 -0.000657462
0 0.000594884 0 -0.000540833 0 0.000493827 0 -0.000452693 0 0.000416493
0 -0.000384468 0 0.000355999 0 -0.000330578 0 0.000307787 0 -0.000287274
0 0.000268745 0 -0.000251953 0 0.000236686 0 -0.000222767 0 0.00021004
0 -0.000198373 0 0.000187652 0 -0.000177778 0 0.000168663 0 -0.000160231
0 0.000152416 0 -0.000145159 0 0.000138408 0 -0.000132118 0 0.000126247
0 -0.000120758 0 0.00011562 0 -0.000110803 0 0.000106281 0 -0.00010203
0 9.80296e-05 0 -9.42596e-05 0 9.0703e-05 0 -8.73439e-05 0 8.4168e-05
0 -8.11622e-05 0 7.83147e-05 0 -7.56144e-05 0 7.30514e-05 0 -7.06165e-05
0 6.83013e-05 0 -6.60982e-05 0 6.4e-05 0 -6.20001e-05 0 \; waveshape
normalize \;;
#X text -447 619 beautiful triangle wave!!!!;
#X msg -590 681 \; waveshape sinesum 8192 1 0 -0.19245 0 0.0894427
0 -0.0539949 0 0.037037 0 -0.0274101 0 0.0213346 0 -0.0172133 0 0.0142668
0 -0.0120745 0 0.0103913 0 -0.00906585 0 0.008 0 -0.00712778 0 0.00640329
0 -0.00579372 0 0.00527508 0 -0.00482945 0 0.00444322 0 -0.00410585
0 0.00380912 0 -0.00354648 0 0.00331269 0 -0.00310351 0 0.00291545
0 -0.00274565 0 0.00259171 0 -0.00245164 0 0.00232374 0 -0.00220659
0 0.00209896 0 -0.00199981 0 0.00190823 0 -0.00182342 0 0.00174472
0 -0.00167152 0 0.0016033 0 -0.0015396 0 0.00148001 0 -0.00142416 0
0.00137174 0 -0.00132246 0 0.00127606 0 -0.00123231 0 0.00119101 0
-0.00115196 0 0.001115 0 -0.00107998 0 0.00104675 0 -0.00101519 0 0.000985185
0 -0.00095663 0 0.000929429 0 -0.000903492 0 0.00087874 0 -0.000855097
0 0.000832496 0 -0.000810874 0 0.000790171 0 -0.000770335 0 0.000751315
0 -0.000733065 0 0.000715542 0 -0.000698706 0 \; waveshape normalize
\;;
#X obj 1016 664 t f f;
#X obj 1016 686 *;
#X obj 1045 715 sqrt;
#X msg 492 595 \; waveshape sinesum 8192 1 0 -0.037037 0 0.008 0 -0.00291545
0 0.00137174 0 -0.000751315 0 0.000455166 0 -0.000296296 0 0.000203542
0 -0.000145794 0 0.00010798 0 -8.21895e-05 0 6.4e-05 0 -5.08053e-05
0 4.10021e-05 0 -3.35672e-05 0 2.78265e-05 0 -2.33236e-05 0 1.97422e-05
0 -1.6858e-05 0 1.45094e-05 0 -1.25775e-05 0 1.09739e-05 0 -9.63178e-06
0 8.49986e-06 0 -7.53858e-06 0 6.71695e-06 0 -6.01052e-06 0 5.39977e-06
0 -4.86905e-06 0 4.40565e-06 0 -3.99925e-06 0 3.64133e-06 0 -3.32488e-06
0 3.04406e-06 0 -2.79399e-06 0 2.57058e-06 0 -2.37037e-06 0 2.19042e-06
0 -2.02824e-06 0 1.88168e-06 0 -1.7489e-06 0 1.62833e-06 0 -1.5186e-06
0 1.4185e-06 0 -1.32702e-06 0 1.24323e-06 0 -1.16635e-06 0 1.09568e-06
0 -1.03061e-06 0 9.7059e-07 0 -9.15142e-07 0 8.63838e-07 0 -8.16298e-07
0 7.72183e-07 0 -7.31191e-07 0 6.9305e-07 0 -6.57516e-07 0 6.24371e-07
0 -5.93416e-07 0 5.64474e-07 0 -5.37384e-07 0 5.12e-07 0 -4.8819e-07
0 \; waveshape normalize \;;
#X connect 1 0 10 0;
#X connect 2 0 5 0;
#X connect 2 0 6 0;
#X connect 3 0 4 0;
#X connect 4 0 9 0;
#X connect 7 0 8 0;
#X connect 8 0 1 0;
#X connect 9 0 2 1;
#X connect 10 0 11 0;
#X connect 11 0 2 0;
#X connect 13 0 14 0;
#X connect 13 1 18 0;
#X connect 14 0 15 0;
#X connect 15 0 16 0;
#X connect 15 0 26 0;
#X connect 16 0 15 1;
#X connect 18 0 15 1;
#X connect 19 0 24 0;
#X connect 20 0 21 0;
#X connect 21 0 22 0;
#X connect 22 0 96 0;
#X connect 23 0 20 0;
#X connect 24 0 17 0;
#X connect 26 1 19 0;
#X connect 26 2 17 1;
#X connect 29 0 30 0;
#X connect 29 1 34 0;
#X connect 30 0 31 0;
#X connect 31 0 32 0;
#X connect 31 0 35 0;
#X connect 32 0 31 1;
#X connect 34 0 31 1;
#X connect 35 0 69 0;
#X connect 35 1 81 0;
#X connect 35 2 68 0;
#X connect 35 3 33 1;
#X connect 46 0 45 0;
#X connect 47 0 46 0;
#X connect 48 0 47 1;
#X connect 49 0 47 0;
#X connect 52 0 29 0;
#X connect 57 0 58 0;
#X connect 57 1 58 1;
#X connect 60 0 13 0;
#X connect 64 0 67 0;
#X connect 65 0 64 0;
#X connect 66 0 64 0;
#X connect 67 0 45 0;
#X connect 68 0 73 0;
#X connect 69 0 70 0;
#X connect 70 0 88 0;
#X connect 71 0 33 0;
#X connect 73 0 74 0;
#X connect 74 0 77 0;
#X connect 74 1 76 0;
#X connect 75 0 71 0;
#X connect 76 0 75 1;
#X connect 77 0 75 1;
#X connect 81 0 86 0;
#X connect 82 0 71 1;
#X connect 83 0 82 0;
#X connect 83 1 84 0;
#X connect 84 0 85 0;
#X connect 85 0 71 1;
#X connect 86 0 83 0;
#X connect 88 0 89 0;
#X connect 88 1 89 1;
#X connect 89 0 93 0;
#X connect 93 0 94 0;
#X connect 93 1 95 0;
#X connect 94 0 75 0;
#X connect 95 0 94 1;
