#N canvas 745 252 535 325 10;
#X obj 140 183 cos~;
#X obj 243 152 snapshot~;
#X obj 141 137 +~;
#X obj 283 106 vline~;
#X obj 243 174 expr $f2 - $f1;
#X obj 141 159 wrap~;
#X obj 140 29 phasor~ 400;
#X obj 140 5 inlet~ freq;
#X obj 392 5 inlet phase;
#X obj 283 61 pack 0 \$1;
#X msg 283 84 \$1 \$2;
#X obj 140 245 outlet~;
#X obj 392 110 t b f;
#X connect 0 0 11 0;
#X connect 1 0 4 0;
#X connect 2 0 5 0;
#X connect 3 0 2 1;
#X connect 4 0 9 0;
#X connect 5 0 0 0;
#X connect 6 0 2 0;
#X connect 6 0 1 0;
#X connect 7 0 6 0;
#X connect 8 0 12 0;
#X connect 9 0 10 0;
#X connect 10 0 3 0;
#X connect 12 0 1 0;
#X connect 12 1 4 1;
