#N canvas 324 70 958 732 10;
#X obj 239 618 outlet~;
#X obj 239 498 *~;
#X obj 398 283 / 127;
#X obj 366 397 *~;
#X obj 366 419 *~;
#X obj 477 297 r vek-\$1-a;
#X obj 517 327 r vek-\$1-d, f 14;
#X obj 147 74 unpack, f 13;
#X obj 147 35 inlet;
#X obj 235 107 s \$0-trigger;
#X obj 366 375 c_adsr 1 \$2 300 90 \$3;
#X obj 147 96 mtof;
#X obj 166 305 r~ \$0-freq;
#X obj 114 373 sig~ 1;
#X obj 114 395 -~, f 8;
#X obj 166 327 /~ 11025;
#X obj 166 349 sqrt~;
#X obj 166 371 sqrt~;
#X obj 239 468 *~;
#X obj 239 570 hip~ 5;
#X obj 147 152 s~ \$0-freq;
#X obj 366 261 t f f;
#X obj 147 118 lop~ 200;
#X obj 398 305 sqrt;
#X obj 399 327 sqrt;
#N canvas 242 147 1412 844 sound 0;
#X obj 208 286 r~ vek-\$1-pointx;
#X obj 234 306 r~ vek-\$1-pointy;
#X obj 262 579 tabosc4~ vek-\$1-wav1;
#X obj 290 601 tabosc4~ vek-\$1-wav2;
#X obj 318 628 tabosc4~ vek-\$1-wav3;
#X obj 346 651 tabosc4~ vek-\$1-wav4;
#X obj 365 251 r~ \$0-freq;
#X obj 208 679 vek-sound, f 20;
#X obj 399 347 route list;
#X obj 208 801 outlet~;
#X obj 399 325 list prepend set;
#X msg 399 302 vek-\$2-wav\$1;
#X obj 479 397 route list;
#X obj 479 375 list prepend set;
#X msg 479 352 vek-\$2-wav\$1;
#X obj 559 457 route list;
#X obj 559 435 list prepend set;
#X msg 559 412 vek-\$2-wav\$1;
#X obj 619 527 route list;
#X obj 619 505 list prepend set;
#X msg 619 482 vek-\$2-wav\$1;
#X obj 399 279 pack 0 \$1;
#X obj 523 322 pack 0 \$1;
#X obj 602 384 pack 0 \$1;
#X obj 670 459 pack 0 \$1;
#X obj 565 203 unpack 0 0 0 0;
#X obj 648 34 r vek-\$1-table-change;
#X connect 0 0 7 0;
#X connect 1 0 7 1;
#X connect 2 0 7 2;
#X connect 3 0 7 3;
#X connect 4 0 7 4;
#X connect 5 0 7 5;
#X connect 6 0 2 0;
#X connect 6 0 3 0;
#X connect 6 0 4 0;
#X connect 6 0 5 0;
#X connect 7 0 9 0;
#X connect 8 0 2 0;
#X connect 10 0 8 0;
#X connect 11 0 10 0;
#X connect 12 0 3 0;
#X connect 13 0 12 0;
#X connect 14 0 13 0;
#X connect 15 0 4 0;
#X connect 16 0 15 0;
#X connect 17 0 16 0;
#X connect 18 0 5 0;
#X connect 19 0 18 0;
#X connect 20 0 19 0;
#X connect 21 0 11 0;
#X connect 22 0 14 0;
#X connect 23 0 17 0;
#X connect 24 0 20 0;
#X connect 25 0 21 0;
#X connect 25 1 22 0;
#X connect 25 2 23 0;
#X connect 25 3 24 0;
#X connect 26 0 25 0;
#X restore 258 396 pd sound;
#X obj 239 520 lop~ 22050;
#X obj 366 235 r \$0-trigger;
#X obj 239 594 *~ 0.6;
#X connect 1 0 26 0;
#X connect 2 0 23 0;
#X connect 3 0 4 0;
#X connect 3 0 4 1;
#X connect 4 0 1 1;
#X connect 5 0 10 2;
#X connect 6 0 10 5;
#X connect 7 0 11 0;
#X connect 7 1 9 0;
#X connect 8 0 7 0;
#X connect 10 0 3 0;
#X connect 10 0 3 1;
#X connect 11 0 22 0;
#X connect 12 0 15 0;
#X connect 13 0 14 0;
#X connect 14 0 18 0;
#X connect 15 0 16 0;
#X connect 16 0 17 0;
#X connect 17 0 14 1;
#X connect 18 0 1 0;
#X connect 19 0 28 0;
#X connect 21 0 10 0;
#X connect 21 1 2 0;
#X connect 22 0 20 0;
#X connect 23 0 24 0;
#X connect 24 0 10 1;
#X connect 25 0 18 1;
#X connect 26 0 19 0;
#X connect 27 0 21 0;
#X connect 28 0 0 0;
