#N canvas 444 159 619 598 10;
#N canvas 197 138 1025 591 tables 0;
#X obj 263 272 vek-table-read \$1 19 19;
#X obj 81 131 vek-table-read \$1 1 1;
#X obj 80 153 vek-table-read \$1 2 2;
#X obj 81 175 vek-table-read \$1 3 3;
#X obj 80 197 vek-table-read \$1 4 4;
#X obj 80 221 vek-table-read \$1 5 5;
#X obj 79 243 vek-table-read \$1 6 6;
#X obj 80 265 vek-table-read \$1 7 7;
#X obj 79 287 vek-table-read \$1 8 8;
#X obj 81 309 vek-table-read \$1 9 9;
#X obj 80 331 vek-table-read \$1 10 10;
#X obj 80 355 vek-table-read \$1 11 11;
#X obj 79 377 vek-table-read \$1 12 12;
#X obj 260 137 vek-table-read \$1 13 13;
#X obj 259 159 vek-table-read \$1 14 14;
#X obj 260 181 vek-table-read \$1 15 15;
#X obj 260 203 vek-table-read \$1 16 16;
#X obj 260 227 vek-table-read \$1 17 17;
#X obj 259 249 vek-table-read \$1 18 18;
#X restore 239 147 pd tables;
#X text 314 145 waveforms;
#N canvas 344 55 1417 949 knobs 0;
#X obj 418 194 wrap;
#X obj 375 93 t f f;
#X obj 375 118 *;
#X obj 375 144 * 8;
#X obj 499 340 s~ vek-\$1-pointy;
#X obj 152 308 s~ vek-\$1-pointx;
#X obj 418 168 * 4;
#X obj 152 286 vek-lfo 50, f 29;
#X obj 608 89 *;
#X obj 608 65 t f f;
#X obj 460 455 * 100;
#X obj 460 477 int;
#X obj 291 453 * 100;
#X obj 291 475 int;
#X msg 290 500 Y Position: \$1 %;
#X obj 106 444 * 100;
#X obj 106 469 int;
#X obj 650 463 * 100;
#X obj 649 485 int;
#X msg 650 507 LFO Depth: \$1 %;
#X obj 106 513 s vek-\$1-knob1-label;
#X msg 106 491 X Position: \$1 %;
#X msg 459 501 LFO Rate: \$1 %;
#X obj 289 521 s vek-\$1-knob2-label;
#X obj 650 531 s vek-\$1-knob4-label;
#X obj 459 523 s vek-\$1-knob3-label;
#X obj 149 187 r vek-\$1-knob1;
#X obj 375 71 r vek-\$1-knob3;
#X obj 608 45 r vek-\$1-knob4;
#X obj 499 163 r vek-\$1-knob2;
#X obj 499 288 vek-lfo 50, f 29;
#X obj 722 145 r restart-phase;
#X msg 722 166 0;
#X connect 0 0 30 1;
#X connect 1 0 2 0;
#X connect 1 1 2 1;
#X connect 2 0 3 0;
#X connect 2 0 10 0;
#X connect 3 0 6 0;
#X connect 3 0 7 1;
#X connect 6 0 0 0;
#X connect 7 0 5 0;
#X connect 8 0 17 0;
#X connect 8 0 7 2;
#X connect 8 0 30 2;
#X connect 9 0 8 0;
#X connect 9 1 8 1;
#X connect 10 0 11 0;
#X connect 11 0 22 0;
#X connect 12 0 13 0;
#X connect 13 0 14 0;
#X connect 14 0 23 0;
#X connect 15 0 16 0;
#X connect 16 0 21 0;
#X connect 17 0 18 0;
#X connect 18 0 19 0;
#X connect 19 0 24 0;
#X connect 21 0 20 0;
#X connect 22 0 25 0;
#X connect 26 0 15 0;
#X connect 26 0 7 0;
#X connect 27 0 1 0;
#X connect 28 0 9 0;
#X connect 29 0 12 0;
#X connect 29 0 30 0;
#X connect 30 0 4 0;
#X connect 31 0 32 0;
#X connect 32 0 7 3;
#X connect 32 0 30 3;
#X restore 240 182 pd knobs;
#X text 316 182 knobs and the LFOs;
#N canvas 774 372 517 354 draw 0;
#X obj 112 222 vek-print;
#X obj 111 70 r~ vek-\$1-pointx;
#X obj 142 90 r~ vek-\$1-pointy;
#X text 176 30 draw cursor;
#X obj 162 147 r \$0-2draw;
#X obj 256 107 r page-ready;
#X obj 256 129 sel 1;
#X msg 256 151 1;
#X msg 296 151 0;
#X obj 304 214 r cgSc-1-mute-print;
#X obj 304 235 ==;
#X floatatom 304 256 5 0 0 0 - - -;
#X connect 1 0 0 0;
#X connect 2 0 0 1;
#X connect 4 0 0 2;
#X connect 5 0 6 0;
#X connect 6 0 7 0;
#X connect 6 1 8 0;
#X connect 7 0 0 2;
#X connect 8 0 0 2;
#X connect 9 0 10 0;
#X connect 10 0 11 0;
#X connect 10 0 0 2;
#X restore 238 217 pd draw the cursor;
#N canvas 29 53 1641 991 change 0;
#X obj 806 900 s oscOut;
#X msg 595 841 /oled/gFlip 3;
#X obj 696 728 t b b, f 7;
#X obj 1193 614 text get vek-\$1-table-combos;
#X obj 798 723 t b b;
#X obj 1193 636 unpack 0 0 0 0;
#X obj 780 755 del 25;
#X obj 696 783 del 25;
#X obj 593 267 f;
#X obj 627 266 + 1;
#X obj 731 163 loadbang;
#X obj 830 755 draw-scaled-wave \$1 0 0 64 31;
#X obj 665 349 textfile;
#X msg 665 320 set \$1;
#X obj 729 280 r saveState;
#X text 813 277 recalls what aux preset when saved;
#X msg 1068 634 0;
#X msg 545 656 1;
#X msg 936 626 /oled/gClear 3 1;
#X obj 936 648 s oscOut;
#X msg 681 636 /oled/gLine 3 64 0 64 63 1;
#X msg 660 662 /oled/gLine 3 0 32 127 32 1;
#X obj 595 582 t b b b b b f, f 63;
#X obj 660 609 t b b;
#X obj 660 684 s oscOut;
#X obj 543 680 s \$0-2draw;
#X obj 1067 656 s \$0-2draw;
#X msg 720 241 rewind \, bang;
#X obj 595 364 f;
#X obj 509 307 r \$0-rebang;
#X obj 509 329 b;
#X obj 643 420 s \$0-bang-change;
#X obj 696 706 del 50;
#X obj 595 332 % 7;
#X obj 595 604 del 100;
#X msg 718 320 write vek-save.txt;
#X obj 731 185 t b b;
#X msg 767 216 read vek-save.txt;
#X obj 1014 711 s \$0-table-number;
#X obj 1014 690 + 1;
#X msg 782 413 Table Combo: \$1;
#X obj 782 386 + 1;
#X obj 782 443 s vek-\$1-aux-label;
#X obj 634 450 r page-ready;
#X msg 650 522 1;
#X msg 683 524 0;
#X obj 618 494 t b b;
#X obj 561 522 s \$0-rebang;
#X obj 678 494 t b b;
#X obj 724 542 s oscOut;
#X msg 789 495 /oled/gShowInfoBar 3 1;
#X msg 726 471 /oled/gShowInfoBar 3 0;
#X obj 595 547 spigot 0;
#X obj 634 472 sel 0 1;
#X obj 1051 436 t f f;
#X obj 833 856 draw-scaled-wave \$1 65 33 63 31;
#X obj 818 817 draw-scaled-wave \$1 0 33 63 31;
#X obj 822 780 draw-scaled-wave \$1 65 0 63 32;
#X obj 595 395 t f f f;
#X obj 593 136 r change-wave;
#X obj 1008 551 s cgSc-1-6label;
#X msg 1010 503 WavTab:\$1;
#X obj 1050 471 + 1;
#X connect 1 0 0 0;
#X connect 2 0 7 0;
#X connect 2 1 56 0;
#X connect 3 0 5 0;
#X connect 4 0 6 0;
#X connect 4 1 11 0;
#X connect 5 0 11 1;
#X connect 5 1 57 1;
#X connect 5 2 56 1;
#X connect 5 3 55 1;
#X connect 6 0 57 0;
#X connect 7 0 55 0;
#X connect 8 0 9 0;
#X connect 8 0 13 0;
#X connect 8 0 33 0;
#X connect 9 0 8 1;
#X connect 10 0 36 0;
#X connect 11 0 0 0;
#X connect 12 0 8 0;
#X connect 13 0 12 0;
#X connect 14 0 35 0;
#X connect 16 0 26 0;
#X connect 17 0 25 0;
#X connect 18 0 19 0;
#X connect 20 0 24 0;
#X connect 21 0 24 0;
#X connect 22 0 17 0;
#X connect 22 0 34 0;
#X connect 22 1 23 0;
#X connect 22 2 32 0;
#X connect 22 3 4 0;
#X connect 22 4 18 0;
#X connect 22 5 16 0;
#X connect 22 5 39 0;
#X connect 23 0 21 0;
#X connect 23 1 20 0;
#X connect 27 0 12 0;
#X connect 28 0 58 0;
#X connect 29 0 30 0;
#X connect 30 0 28 0;
#X connect 32 0 2 0;
#X connect 33 0 28 0;
#X connect 33 0 41 0;
#X connect 34 0 1 0;
#X connect 35 0 12 0;
#X connect 36 0 27 0;
#X connect 36 1 37 0;
#X connect 37 0 12 0;
#X connect 39 0 38 0;
#X connect 40 0 42 0;
#X connect 41 0 40 0;
#X connect 43 0 53 0;
#X connect 44 0 52 1;
#X connect 45 0 52 1;
#X connect 46 0 47 0;
#X connect 46 1 44 0;
#X connect 46 1 51 0;
#X connect 48 0 50 0;
#X connect 48 1 45 0;
#X connect 50 0 49 0;
#X connect 51 0 49 0;
#X connect 52 0 22 0;
#X connect 53 1 46 0;
#X connect 53 2 48 0;
#X connect 54 0 62 0;
#X connect 54 1 3 0;
#X connect 55 0 0 0;
#X connect 56 0 0 0;
#X connect 57 0 0 0;
#X connect 58 0 52 0;
#X connect 58 1 54 0;
#X connect 58 2 31 0;
#X connect 59 0 8 0;
#X connect 61 0 60 0;
#X connect 62 0 61 0;
#X restore 236 246 pd change the tables;
#N canvas 138 50 1119 802 the 0;
#X obj 34 266 pack 0 0 0;
#X obj 35 714 outlet~;
#X obj 34 288 route 1 2 3 4 5 6, f 66;
#X obj 378 470 f, f 9;
#X obj 378 420 t b f b, f 19;
#X msg 515 444 stop;
#X obj 378 497 text get vek-\$1-table-combos;
#X obj 416 567 vline~;
#X obj 35 652 *~;
#X obj 378 519 s vek-\$1-table-change;
#X obj 378 398 r \$0-bang-change;
#X obj 378 448 del 10.5;
#X msg 501 470 0 10 \, 1 10 11;
#X text 545 403 Clickless table change;
#X obj 34 184 unpack 0 0;
#X obj 34 234 poly 6 1, f 10;
#X obj 34 37 inlet;
#X obj 62 338 vektor-voice \$1 10 700;
#X obj 397 335 vektor-voice \$1 10 700;
#X obj 225 338 vektor-voice \$1 10 700;
#X obj 34 315 vektor-voice \$1 10 700;
#X obj 197 315 vektor-voice \$1 10 700;
#X obj 370 312 vektor-voice \$1 10 700;
#X obj 34 58 t a a;
#X obj 63 90 stripnote;
#X obj 63 111 t b;
#X obj 63 152 s restart-phase;
#X obj 63 132 spigot 0;
#X obj 157 86 r phase-lock;
#X connect 0 0 2 0;
#X connect 2 0 20 0;
#X connect 2 1 17 0;
#X connect 2 2 21 0;
#X connect 2 3 19 0;
#X connect 2 4 22 0;
#X connect 2 5 18 0;
#X connect 3 0 6 0;
#X connect 4 0 11 0;
#X connect 4 1 3 1;
#X connect 4 2 12 0;
#X connect 4 2 5 0;
#X connect 5 0 11 0;
#X connect 6 0 9 0;
#X connect 7 0 8 1;
#X connect 8 0 1 0;
#X connect 10 0 4 0;
#X connect 11 0 3 0;
#X connect 12 0 7 0;
#X connect 14 0 15 0;
#X connect 14 1 15 1;
#X connect 15 0 0 0;
#X connect 15 1 0 1;
#X connect 15 2 0 2;
#X connect 16 0 23 0;
#X connect 17 0 8 0;
#X connect 18 0 8 0;
#X connect 19 0 8 0;
#X connect 20 0 8 0;
#X connect 21 0 8 0;
#X connect 22 0 8 0;
#X connect 23 0 14 0;
#X connect 23 1 24 0;
#X connect 24 0 25 0;
#X connect 25 0 27 0;
#X connect 27 0 26 0;
#X connect 28 0 27 1;
#X restore 77 179 pd the synth;
#X obj 77 201 outlet~;
#N canvas 464 261 769 326 init 0;
#X obj 131 182 s vek-\$1-a;
#X obj 214 183 s vek-\$1-d, f 14;
#X obj 131 122 loadbang;
#X obj 352 189 text define vek-\$1-table-combos;
#X msg 352 142 write table-combos.txt;
#X obj 516 116 loadbang;
#X msg 516 142 read table-combos.txt;
#X msg 214 156 900;
#X text 132 207 attack;
#X text 215 207 release;
#X msg 263 154 200;
#X msg 131 155 25;
#X connect 2 0 11 0;
#X connect 2 0 7 0;
#X connect 4 0 3 0;
#X connect 5 0 6 0;
#X connect 6 0 3 0;
#X connect 7 0 1 0;
#X connect 10 0 1 0;
#X connect 11 0 0 0;
#X restore 237 272 pd init and texts;
#X obj 77 156 inlet;
#X connect 6 0 7 0;
#X connect 9 0 6 0;
