#N canvas 4 50 938 698 10;
#X obj 36 13 inlet;
#X obj 36 34 * 6;
#X obj 36 55 - 3;
#X obj 36 83 moses 0, f 77;
#X obj 36 114 abs;
#X obj 36 135 / 3;
#X obj 36 186 moses 0.3;
#X obj 87 213 moses 0.6;
#X obj 36 207 / 0.3;
#X obj 138 265 / 0.4;
#X obj 138 236 - 0.6;
#X obj 87 234 t b;
#X msg 87 295 -1;
#X obj 87 366 f;
#X obj 138 286 * -2;
#X obj 138 307 + -1;
#X obj 36 228 * -1;
#X obj 495 137 / 3;
#X obj 495 188 moses 0.3;
#X obj 546 215 moses 0.6;
#X obj 495 209 / 0.3;
#X obj 597 267 / 0.4;
#X obj 597 238 - 0.6;
#X obj 546 236 t b;
#X obj 546 368 f;
#X obj 597 288 * 2;
#X obj 597 309 + 1;
#X msg 546 297 1;
#X obj 495 230 * 1;
#X obj 305 516 outlet;
#X connect 0 0 1 0;
#X connect 1 0 2 0;
#X connect 2 0 3 0;
#X connect 3 0 4 0;
#X connect 3 1 17 0;
#X connect 4 0 5 0;
#X connect 5 0 6 0;
#X connect 6 0 8 0;
#X connect 6 1 7 0;
#X connect 7 0 11 0;
#X connect 7 1 10 0;
#X connect 8 0 16 0;
#X connect 9 0 14 0;
#X connect 10 0 9 0;
#X connect 11 0 12 0;
#X connect 12 0 13 0;
#X connect 13 0 29 0;
#X connect 14 0 15 0;
#X connect 15 0 13 0;
#X connect 16 0 13 0;
#X connect 17 0 18 0;
#X connect 18 0 20 0;
#X connect 18 1 19 0;
#X connect 19 0 23 0;
#X connect 19 1 22 0;
#X connect 20 0 28 0;
#X connect 21 0 25 0;
#X connect 22 0 21 0;
#X connect 23 0 27 0;
#X connect 24 0 29 0;
#X connect 25 0 26 0;
#X connect 26 0 24 0;
#X connect 27 0 24 0;
#X connect 28 0 24 0;
