#N canvas 36 109 1326 623 10;
#X declare -path cg-pd-library-local/sampling;
#X declare -path cg-pd-library-local/sequencer;
#X declare -path cg-pd-library-local/externals;
#X declare -path cg-pd-library-local/metronome;
#N canvas 337 240 1426 646 param-editor 0;
#X obj 153 113 r edit-note;
#X obj 26 31 r knob1;
#X obj 51 116 spigot 0;
#X obj 53 167 tabwrite param1;
#X obj 357 152 r edit-note;
#X obj 255 115 spigot 0;
#X obj 145 306 r edit-note;
#X obj 43 309 spigot 0;
#X obj 349 305 r edit-note;
#X obj 247 308 spigot 0;
#X obj 257 206 tabwrite param2;
#X obj 45 360 tabwrite param3;
#X obj 249 355 tabwrite param4;
#X obj 229 26 r knob2;
#X obj 994 219 stripnote;
#X obj 670 275 s edit-note;
#N canvas 6 50 450 300 lock-knobs 0;
#X obj 160 78 s knob1Override;
#X obj 171 101 s knob2Override;
#X obj 188 124 s knob3Override;
#X obj 201 148 s knob4Override;
#X obj 234 17 inlet;
#X connect 4 0 0 0;
#X connect 4 0 1 0;
#X connect 4 0 2 0;
#X connect 4 0 3 0;
#X restore 1087 329 pd lock-knobs;
#X obj 960 391 bag;
#X msg 994 284 flush;
#X text 513 97 <-- output them;
#X msg 921 189 clear;
#X obj 867 536 tabwrite param1;
#X obj 868 505 tabread param1;
#X obj 986 536 tabwrite param2;
#X obj 1101 533 tabwrite param3;
#X obj 1215 533 tabwrite param4;
#X obj 1220 502 tabread param4;
#X obj 1098 506 tabread param3;
#X obj 985 507 tabread param2;
#X text 1001 148 copy params from one key to another;
#X obj 670 208 stripnote;
#X obj 670 160 t a a;
#X obj 839 121 spigot 0;
#X obj 94 40 r key-edit-state;
#X obj 91 242 r key-edit-state;
#X obj 304 237 r key-edit-state;
#X obj 298 37 r key-edit-state;
#X obj 884 78 r key-edit-state;
#X obj 839 145 t a a b a, f 21;
#X obj 794 293 s key-just-copied;
#X obj 953 414 t f b;
#X obj 994 249 t b f f, f 16;
#X obj 1087 273 change;
#X obj 1087 300 bang;
#X obj 48 88 shortcut-mute-f 1;
#X obj 254 85 shortcut-mute-f 1;
#X obj 38 285 shortcut-mute-f 1;
#X obj 248 274 shortcut-mute-f 1;
#X obj 229 47 spigot 0;
#X obj 26 52 spigot 0;
#X obj 22 208 r knob3;
#X obj 33 249 spigot 0;
#X obj 193 215 r knob4;
#X obj 234 247 spigot 0;
#X obj 757 57 r cgSc-1-aux;
#X obj 670 100 spigot 0, f 15;
#X obj 757 78 ==;
#X obj 670 33 r local-notes;
#X obj 1118 409 f;
#X obj 954 451 f;
#N canvas 605 423 869 512 copy-params-in-edit-mode 0;
#X text 341 43 is there one note being held?;
#X text 346 94 copy over params;
#X obj 76 31 r local-notes;
#X restore 670 398 pd copy-params-in-edit-mode;
#X connect 0 0 3 1;
#X connect 1 0 49 0;
#X connect 2 0 3 0;
#X connect 4 0 10 1;
#X connect 5 0 10 0;
#X connect 6 0 11 1;
#X connect 7 0 11 0;
#X connect 8 0 12 1;
#X connect 9 0 12 0;
#X connect 13 0 48 0;
#X connect 14 0 41 0;
#X connect 17 0 40 0;
#X connect 18 0 17 0;
#X connect 20 0 17 0;
#X connect 22 0 21 0;
#X connect 26 0 25 0;
#X connect 27 0 24 0;
#X connect 28 0 23 0;
#X connect 30 0 15 0;
#X connect 31 0 30 0;
#X connect 31 1 32 0;
#X connect 32 0 38 0;
#X connect 33 0 2 1;
#X connect 33 0 49 1;
#X connect 34 0 7 1;
#X connect 34 0 51 1;
#X connect 35 0 9 1;
#X connect 35 0 53 1;
#X connect 36 0 5 1;
#X connect 36 0 48 1;
#X connect 37 0 32 1;
#X connect 38 0 39 0;
#X connect 38 1 17 0;
#X connect 38 2 20 0;
#X connect 38 3 14 0;
#X connect 40 0 59 0;
#X connect 41 0 18 0;
#X connect 41 1 58 0;
#X connect 41 2 42 0;
#X connect 42 0 43 0;
#X connect 43 0 16 0;
#X connect 44 0 2 0;
#X connect 45 0 5 0;
#X connect 46 0 7 0;
#X connect 47 0 9 0;
#X connect 48 0 45 0;
#X connect 49 0 44 0;
#X connect 50 0 51 0;
#X connect 51 0 46 0;
#X connect 52 0 53 0;
#X connect 53 0 47 0;
#X connect 54 0 56 0;
#X connect 55 0 31 0;
#X connect 56 0 55 1;
#X connect 57 0 55 0;
#X connect 58 0 25 1;
#X connect 58 0 24 1;
#X connect 58 0 23 1;
#X connect 58 0 21 1;
#X connect 59 0 22 0;
#X connect 59 0 28 0;
#X connect 59 0 27 0;
#X connect 59 0 26 0;
#X restore 292 311 pd param-editor;
#N canvas 23 50 1160 286 knob-to-fx 0;
#X obj 58 36 r knob1;
#X obj 72 115 spigot 1;
#X obj 196 104 ==;
#X obj 71 147 s eparam1;
#X obj 344 123 spigot 1;
#X obj 480 115 ==;
#X obj 570 114 spigot 1;
#X obj 679 113 ==;
#X obj 782 118 spigot 1;
#X obj 932 105 ==;
#X obj 340 70 r knob2;
#X obj 778 65 r knob4;
#X obj 343 155 s eparam2;
#X obj 569 146 s eparam3;
#X obj 781 150 s eparam4;
#X text 261 17 if not in key edit state \, send effect params;
#X obj 189 57 r key-edit-state;
#X obj 473 44 r key-edit-state;
#X obj 692 20 r key-edit-state;
#X obj 927 72 r key-edit-state;
#X obj 70 88 shortcut-mute-f 1;
#X obj 340 92 shortcut-mute-f 1;
#X obj 566 83 shortcut-mute-f 1;
#X obj 778 87 shortcut-mute-f 1;
#X obj 78 65 r seq3-1-k1;
#X obj 794 41 r seq3-1-k4;
#X obj 566 61 r knob3;
#X obj 619 60 r seq3-1-k3;
#X obj 393 72 r seq3-1-k2;
#X connect 0 0 20 0;
#X connect 1 0 3 0;
#X connect 2 0 1 1;
#X connect 4 0 12 0;
#X connect 5 0 4 1;
#X connect 6 0 13 0;
#X connect 7 0 6 1;
#X connect 8 0 14 0;
#X connect 9 0 8 1;
#X connect 10 0 21 0;
#X connect 11 0 23 0;
#X connect 16 0 2 0;
#X connect 17 0 5 0;
#X connect 18 0 7 0;
#X connect 19 0 9 0;
#X connect 20 0 1 0;
#X connect 21 0 4 0;
#X connect 22 0 6 0;
#X connect 23 0 8 0;
#X connect 24 0 20 0;
#X connect 25 0 23 0;
#X connect 26 0 22 0;
#X connect 27 0 22 0;
#X connect 28 0 21 0;
#X restore 292 336 pd knob-to-fx;
#N canvas 4 50 1912 998 states-and-leds 0;
#N canvas 82 127 1783 760 led-screen 0;
#X obj 325 167 r edit-note;
#X obj 283 225 f;
#X obj 225 92 r state;
#X msg 283 271 \; screenLine5 Editing Key \$1 \; led 7 \;;
#X obj 285 532 r edit-note;
#X obj 314 600 spigot 0;
#X msg 315 629 \; screenLine5 Editing Key \$1 \; led 7 \;;
#X obj 225 114 sel 0 1 2 3 4 5;
#N canvas 21 50 1583 859 param-disp 0;
#X obj 97 217 tabread param1;
#X obj 100 114 r edit-note;
#X obj 104 185 f;
#X obj 102 292 spigot 0;
#X obj 35 216 r knob1;
#X obj 320 65 r state;
#X obj 315 101 sel 4;
#X obj 347 172 bang;
#X msg 311 223 0;
#X msg 211 215 1;
#X obj 294 142 t b b;
#X text 371 114 state 4 key edit;
#X obj 92 472 outlet;
#X obj 102 331 cg-2-way-detent;
#X obj 102 370 * 100;
#X obj 102 391 i;
#X obj 207 391 r cgSc-1-mute-print;
#X obj 207 412 ==;
#X obj 106 424 spigot 0;
#X connect 0 0 3 0;
#X connect 1 0 2 0;
#X connect 2 0 0 0;
#X connect 3 0 13 0;
#X connect 4 0 3 0;
#X connect 5 0 6 0;
#X connect 6 0 10 0;
#X connect 6 1 7 0;
#X connect 7 0 8 0;
#X connect 8 0 3 1;
#X connect 9 0 3 1;
#X connect 10 0 2 0;
#X connect 10 1 9 0;
#X connect 13 0 14 0;
#X connect 14 0 15 0;
#X connect 15 0 18 0;
#X connect 16 0 17 0;
#X connect 17 0 18 1;
#X connect 18 0 12 0;
#X restore 719 585 pd param-disp;
#N canvas 15 51 610 567 param-disp 0;
#X obj 100 114 r edit-note;
#X obj 104 185 f;
#X obj 102 292 spigot 0;
#X obj 320 65 r state;
#X obj 315 101 sel 4;
#X obj 347 172 bang;
#X msg 311 223 0;
#X msg 211 215 1;
#X obj 294 142 t b b;
#X text 371 114 state 4 key edit;
#X obj 191 462 outlet;
#X obj 35 216 r knob2;
#X obj 97 217 tabread param2;
#X obj 181 391 i;
#X obj 174 367 * 100;
#X obj 288 395 r cgSc-1-mute-print;
#X obj 288 416 ==;
#X obj 187 428 spigot 0;
#X connect 0 0 1 0;
#X connect 1 0 12 0;
#X connect 2 0 14 0;
#X connect 3 0 4 0;
#X connect 4 0 8 0;
#X connect 4 1 5 0;
#X connect 5 0 6 0;
#X connect 6 0 2 1;
#X connect 7 0 2 1;
#X connect 8 0 1 0;
#X connect 8 1 7 0;
#X connect 11 0 2 0;
#X connect 12 0 2 0;
#X connect 13 0 17 0;
#X connect 14 0 13 0;
#X connect 15 0 16 0;
#X connect 16 0 17 1;
#X connect 17 0 10 0;
#X restore 960 587 pd param-disp;
#N canvas 18 50 1027 672 param-disp 0;
#X obj 100 114 r edit-note;
#X obj 104 185 f;
#X obj 102 292 spigot 0;
#X obj 320 65 r state;
#X obj 315 101 sel 4;
#X obj 347 172 bang;
#X msg 311 223 0;
#X msg 211 215 1;
#X obj 294 142 t b b;
#X text 371 114 state 4 key edit;
#X obj 198 476 outlet;
#X obj 35 216 r knob3;
#X obj 97 217 tabread param3;
#X obj 288 395 r cgSc-1-mute-print;
#X obj 288 416 ==;
#X obj 187 428 spigot 0;
#X connect 0 0 1 0;
#X connect 1 0 12 0;
#X connect 2 0 15 0;
#X connect 3 0 4 0;
#X connect 4 0 8 0;
#X connect 4 1 5 0;
#X connect 5 0 6 0;
#X connect 6 0 2 1;
#X connect 7 0 2 1;
#X connect 8 0 1 0;
#X connect 8 1 7 0;
#X connect 11 0 2 0;
#X connect 12 0 2 0;
#X connect 13 0 14 0;
#X connect 14 0 15 1;
#X connect 15 0 10 0;
#X restore 1211 537 pd param-disp;
#N canvas 16 50 610 568 param-disp 0;
#X obj 100 114 r edit-note;
#X obj 104 185 f;
#X obj 102 292 spigot 0;
#X obj 320 65 r state;
#X obj 315 101 sel 4;
#X obj 347 172 bang;
#X msg 311 223 0;
#X msg 211 215 1;
#X obj 294 142 t b b;
#X text 371 114 state 4 key edit;
#X obj 101 419 outlet;
#X obj 35 216 r knob4;
#X obj 97 217 tabread param4;
#X obj 147 318 r cgSc-1-mute-print;
#X obj 147 339 ==;
#X obj 102 364 spigot 0;
#X connect 0 0 1 0;
#X connect 1 0 12 0;
#X connect 2 0 15 0;
#X connect 3 0 4 0;
#X connect 4 0 8 0;
#X connect 4 1 5 0;
#X connect 5 0 6 0;
#X connect 6 0 2 1;
#X connect 7 0 2 1;
#X connect 8 0 1 0;
#X connect 8 1 7 0;
#X connect 11 0 2 0;
#X connect 12 0 2 0;
#X connect 13 0 14 0;
#X connect 14 0 15 1;
#X connect 15 0 10 0;
#X restore 1356 523 pd param-disp;
#X text 975 559 display edit params in key edit mode;
#X obj 392 533 r key-edit-state;
#N canvas 124 235 1064 550 e-param-disp 0;
#X obj 317 39 r eparam1;
#X obj 269 307 f;
#X obj 502 309 f;
#X obj 356 314 f;
#X obj 431 318 f;
#X obj 343 507 outlet;
#X obj 425 504 outlet;
#X obj 511 503 outlet;
#X obj 580 495 outlet;
#X obj 401 37 r eparam2;
#X obj 479 40 r eparam3;
#X obj 559 40 r eparam4;
#X obj 283 421 i;
#X obj 373 394 i;
#X obj 450 417 i;
#X obj 709 3 r state;
#X obj 290 236 spigot;
#X obj 368 243 spigot;
#X obj 542 245 spigot;
#X obj 465 249 spigot;
#X obj 646 88 t b b;
#X msg 762 100 0;
#X msg 447 158 1;
#X text 689 189 allow screen messages only in states 0 1 2 3;
#X obj 588 388 i;
#X obj 587 367 * 99;
#X obj 449 392 * 1000;
#X obj 282 399 * 100;
#X obj 431 339 pow 2;
#X obj 373 372 * 99;
#X obj 373 415 + 1;
#X obj 705 39 sel 0 1 2 3 4 5;
#X connect 0 0 16 0;
#X connect 1 0 27 0;
#X connect 2 0 25 0;
#X connect 3 0 29 0;
#X connect 4 0 28 0;
#X connect 9 0 17 0;
#X connect 10 0 19 0;
#X connect 11 0 18 0;
#X connect 12 0 5 0;
#X connect 13 0 30 0;
#X connect 14 0 7 0;
#X connect 15 0 31 0;
#X connect 16 0 1 0;
#X connect 17 0 3 0;
#X connect 18 0 2 0;
#X connect 19 0 4 0;
#X connect 20 0 2 0;
#X connect 20 0 4 0;
#X connect 20 0 3 0;
#X connect 20 0 1 0;
#X connect 20 1 22 0;
#X connect 21 0 18 1;
#X connect 21 0 19 1;
#X connect 21 0 17 1;
#X connect 21 0 16 1;
#X connect 22 0 18 1;
#X connect 22 0 19 1;
#X connect 22 0 17 1;
#X connect 22 0 16 1;
#X connect 24 0 8 0;
#X connect 25 0 24 0;
#X connect 26 0 14 0;
#X connect 27 0 12 0;
#X connect 28 0 26 0;
#X connect 29 0 13 0;
#X connect 30 0 6 0;
#X connect 31 0 20 0;
#X connect 31 1 20 0;
#X connect 31 2 20 0;
#X connect 31 3 20 0;
#X connect 31 4 21 0;
#X connect 31 5 21 0;
#X restore 517 92 pd e-param-disp;
#X f 78;
#X obj 206 645 s editing-key;
#X obj 1197 681 spigot 0;
#X obj 1365 682 spigot 0;
#X obj 1478 510 r state;
#X obj 1478 532 sel 5;
#X msg 1478 554 0;
#X obj 1510 554 t b;
#X msg 1510 576 1;
#X obj 1483 601 f;
#X msg 962 620 \; screenLine2 2: Level \$1% \;;
#X msg 719 620 \; screenLine1 1: Speed \$1% \;;
#X obj 1206 656 int;
#X obj 1363 652 int;
#X obj 1363 608 * 100;
#X msg 1370 711 \; screenLine4 4: Length \$1% \;;
#X msg 672 229 \; screenLine2 2: Global Length \$1% \;;
#X msg 517 268 \; screenLine1 1: Global Start \$1% \;;
#X msg 827 187 \; screenLine3 3: Del. Time \$1ms;
#X msg 982 138 \; screenLine4 4: Del. Feedback \$1%;
#X obj 1209 613 * 100;
#X msg 1169 708 \; screenLine3 3: Start \$1% \;;
#X obj 1356 544 pow 2;
#X obj 283 246 + 1;
#X obj 285 553 + 1;
#X connect 0 0 1 1;
#X connect 1 0 37 0;
#X connect 2 0 7 0;
#X connect 4 0 38 0;
#X connect 5 0 6 0;
#X connect 5 0 15 0;
#X connect 7 4 1 0;
#X connect 8 0 25 0;
#X connect 9 0 24 0;
#X connect 10 0 34 0;
#X connect 11 0 36 0;
#X connect 13 0 5 1;
#X connect 14 0 31 0;
#X connect 14 1 30 0;
#X connect 14 2 32 0;
#X connect 14 3 33 0;
#X connect 16 0 35 0;
#X connect 17 0 29 0;
#X connect 18 0 19 0;
#X connect 19 0 20 0;
#X connect 19 1 21 0;
#X connect 20 0 23 0;
#X connect 21 0 22 0;
#X connect 22 0 23 0;
#X connect 23 0 17 1;
#X connect 23 0 16 1;
#X connect 26 0 16 0;
#X connect 27 0 17 0;
#X connect 28 0 27 0;
#X connect 34 0 26 0;
#X connect 36 0 28 0;
#X connect 37 0 3 0;
#X connect 38 0 5 0;
#X restore 959 32 pd led-screen;
#X obj 860 25 r state;
#X obj 860 47 v state;
#N canvas 6 50 450 300 lock-knobs 0;
#X obj 160 78 s knob1Override;
#X obj 171 101 s knob2Override;
#X obj 188 124 s knob3Override;
#X obj 201 148 s knob4Override;
#X obj 234 17 inlet;
#X connect 4 0 0 0;
#X connect 4 0 1 0;
#X connect 4 0 2 0;
#X connect 4 0 3 0;
#X restore 920 589 pd lock-knobs;
#X obj 586 445 r state;
#X msg 901 627 1;
#X msg 824 628 0;
#X obj 901 547 t b b b;
#X obj 586 490 sel 0 1 2 3 4 5, f 68;
#X obj 1200 340 s state;
#X text 493 411 dispatch events on state changes;
#X obj 824 701 s key-edit-state;
#X msg 426 363 4;
#X obj 426 395 s state;
#X obj 351 302 sel 0, f 7;
#X text 461 33 states: 0 stopped \, 1 playing \, 2 rec enabled \, 3
recording \, 4 key edit \, 5 info screen;
#X obj 351 275 v seq3-1-state;
#X obj 263 598 f, f 16;
#X obj 356 576 r seq-3-led;
#X obj 263 638 s led;
#X obj 227 120 sel 0;
#X obj 293 181 + 1;
#X obj 293 202 == 1;
#X obj 254 181 f 1;
#X obj 254 242 sel 0 1, f 33;
#X msg 351 352 Edit:ON;
#X msg 144 336 Edit:OFF;
#X obj 144 198 loadbang;
#X text 406 301 <--- only allow key editing from stopped state;
#X obj 947 357 s screenLine1;
#X msg 947 332 Edit Mode ON!;
#X obj 974 309 s screenLine2;
#X msg 974 286 Select Key;
#X obj 948 101 r cgSc-1-mute-print;
#X obj 948 122 sel 0;
#X obj 947 262 t b b;
#X obj 948 143 del 5;
#X obj 948 170 v state;
#X obj 948 191 sel 4;
#X msg 352 424 0;
#X obj 352 446 s state;
#X msg 290 431 0;
#X obj 290 474 s key-edit-state;
#X obj 263 401 t b b b b;
#X obj 717 557 t b;
#X obj 358 70 r seq3-1-actions;
#X obj 351 325 t b b b, f 13;
#X obj 358 123 sel 5 7 8;
#X obj 358 99 spigot 0;
#X obj 409 146 t b b;
#X msg 436 168 0;
#X obj 254 145 t b, f 4;
#X msg 332 144 0;
#X msg 488 180 1;
#X obj 1200 285 loadbang;
#X obj 227 99 r cgSc-1-7;
#X obj 144 437 s cgSc-1-7label;
#N canvas 792 623 450 300 sc-7-aux-press-return 0;
#X obj 142 6 r state;
#X obj 142 27 sel 4;
#X obj 40 96 r aux;
#X obj 40 117 spigot 0;
#X obj 40 138 sel 1;
#X obj 40 159 t b b;
#X msg 117 128 0;
#X msg 142 48 1;
#X obj 40 200 s \$0-auto-7-off;
#X connect 0 0 1 0;
#X connect 1 0 7 0;
#X connect 2 0 3 0;
#X connect 3 0 4 0;
#X connect 4 0 5 0;
#X connect 5 0 8 0;
#X connect 5 1 6 0;
#X connect 6 0 3 1;
#X connect 7 0 3 1;
#X restore 54 542 pd sc-7-aux-press-return;
#X obj 218 290 r \$0-auto-7-off;
#X obj 218 311 t b;
#X msg 1200 318 0;
#X obj 305 39 r \$0-auto-7-off;
#X msg 305 60 0;
#X connect 1 0 2 0;
#X connect 4 0 8 0;
#X connect 5 0 11 0;
#X connect 6 0 11 0;
#X connect 7 0 5 0;
#X connect 7 1 3 0;
#X connect 8 0 44 0;
#X connect 8 1 44 0;
#X connect 8 2 44 0;
#X connect 8 3 44 0;
#X connect 8 4 7 0;
#X connect 8 5 6 0;
#X connect 12 0 13 0;
#X connect 14 0 46 0;
#X connect 16 0 14 0;
#X connect 17 0 19 0;
#X connect 18 0 17 1;
#X connect 20 1 51 0;
#X connect 21 0 22 0;
#X connect 22 0 23 1;
#X connect 23 0 21 0;
#X connect 23 0 24 0;
#X connect 24 0 43 0;
#X connect 24 1 16 0;
#X connect 25 0 56 0;
#X connect 26 0 56 0;
#X connect 27 0 26 0;
#X connect 30 0 29 0;
#X connect 32 0 31 0;
#X connect 33 0 34 0;
#X connect 34 0 36 0;
#X connect 35 0 30 0;
#X connect 35 1 32 0;
#X connect 36 0 37 0;
#X connect 37 0 38 0;
#X connect 38 0 35 0;
#X connect 39 0 40 0;
#X connect 41 0 42 0;
#X connect 43 0 17 0;
#X connect 43 1 41 0;
#X connect 43 2 39 0;
#X connect 43 3 26 0;
#X connect 44 0 6 0;
#X connect 45 0 48 0;
#X connect 46 0 25 0;
#X connect 46 1 12 0;
#X connect 46 2 53 0;
#X connect 47 3 49 0;
#X connect 48 0 47 0;
#X connect 49 0 52 0;
#X connect 49 1 50 0;
#X connect 50 0 48 1;
#X connect 51 0 23 0;
#X connect 52 0 23 0;
#X connect 53 0 48 1;
#X connect 54 0 60 0;
#X connect 55 0 20 0;
#X connect 58 0 59 0;
#X connect 59 0 43 0;
#X connect 60 0 9 0;
#X connect 61 0 62 0;
#X connect 62 0 23 0;
#X restore 292 386 pd states-and-leds;
#N canvas 0 50 1920 998 save-params 0;
#X obj 122 42 r key-edit-state;
#X obj 122 105 sel 0;
#X obj 122 74 change;
#X obj 471 42 loadbang;
#X msg 455 92 \; param1 read param1.txt \; param2 read param2.txt \;
param3 read param3.txt \; param4 read param4.txt \;;
#X msg 123 140 \; param1 write /tmp/state/param1.txt \; param2 write
/tmp/state/param2.txt \; param3 write /tmp/state/param3.txt \; param4
write /tmp/state/param4.txt \;;
#X connect 0 0 2 0;
#X connect 1 0 5 0;
#X connect 2 0 1 0;
#X connect 3 0 4 0;
#X restore 292 411 pd save-params;
#N canvas 18 50 1057 809 metro-here 0;
#X obj 486 457 r seq3-1-actions;
#X obj 528 552 f;
#X msg 609 447 0;
#X obj 654 448 t b b;
#X msg 659 475 1;
#X obj 609 419 sel 1, f 8;
#X obj 528 509 del 1;
#X obj 307 506 s beat-clock;
#X obj 412 256 loadbang;
#X obj 500 391 r rec-state;
#X obj 500 413 sel 0;
#X msg 307 325 1;
#X obj 412 620 list, f 7;
#X obj 412 642 route 69;
#X obj 412 488 t b a;
#X msg 412 590 69;
#X msg 412 298 120;
#X obj 412 428 pack, f 10;
#X obj 447 396 t b a;
#X obj 307 354 metronome360 0, f 18;
#X obj 531 311 s seq3-1-quan;
#X obj 523 218 sel 1 2 3 4;
#X msg 523 270 0;
#X msg 557 268 1;
#X obj 609 545 f;
#X obj 412 664 spigot 1;
#X obj 528 574 spigot 1, f 14;
#X obj 658 646 r cgSc-1-slots;
#X obj 658 672 + 1;
#X obj 412 709 print-line5 1, f 62;
#X obj 609 396 r cgSc-1-mute-print;
#X obj 731 438 loadbang;
#X obj 731 460 del 1;
#X obj 731 482 t b b;
#X obj 781 533 r rec-state;
#X obj 781 554 sel 0, f 13;
#X msg 781 664 1;
#X msg 856 665 0;
#X obj 856 604 t b b;
#X obj 781 625 spigot 1;
#X obj 781 575 t b b;
#X msg 781 596 1;
#X msg 883 634 0;
#X connect 0 0 1 0;
#X connect 1 0 26 0;
#X connect 2 0 24 0;
#X connect 3 0 6 0;
#X connect 3 1 4 0;
#X connect 4 0 24 0;
#X connect 5 0 2 0;
#X connect 5 1 3 0;
#X connect 6 0 1 0;
#X connect 6 0 15 0;
#X connect 8 0 16 0;
#X connect 8 0 11 0;
#X connect 9 0 10 0;
#X connect 10 0 1 0;
#X connect 10 0 15 0;
#X connect 11 0 19 0;
#X connect 12 0 13 0;
#X connect 13 0 25 0;
#X connect 14 0 15 0;
#X connect 14 1 12 1;
#X connect 15 0 12 0;
#X connect 16 0 19 1;
#X connect 17 0 14 0;
#X connect 18 0 17 0;
#X connect 18 1 17 1;
#X connect 19 0 7 0;
#X connect 19 1 18 0;
#X connect 19 2 17 0;
#X connect 19 2 21 0;
#X connect 21 0 22 0;
#X connect 21 1 23 0;
#X connect 21 2 23 0;
#X connect 21 3 22 0;
#X connect 22 0 20 0;
#X connect 23 0 20 0;
#X connect 24 0 25 1;
#X connect 24 0 26 1;
#X connect 25 0 29 0;
#X connect 26 0 29 1;
#X connect 27 0 28 0;
#X connect 28 0 29 2;
#X connect 30 0 5 0;
#X connect 31 0 32 0;
#X connect 32 0 33 0;
#X connect 33 0 1 0;
#X connect 33 1 28 0;
#X connect 34 0 35 0;
#X connect 35 0 40 0;
#X connect 35 1 38 0;
#X connect 36 0 29 3;
#X connect 37 0 29 3;
#X connect 38 0 37 0;
#X connect 38 1 42 0;
#X connect 39 0 36 0;
#X connect 40 0 41 0;
#X connect 40 1 39 0;
#X connect 41 0 39 1;
#X connect 42 0 39 1;
#X restore 295 41 pd metro-here;
#N canvas 13 50 450 300 CG-PdLibrary-Local 0;
#X obj 502 35 r cgSc-1-slots;
#X obj 60 68 declare -path cg-pd-library-local/sampling;
#X obj 60 98 declare -path cg-pd-library-local/sequencer;
#X obj 58 130 declare -path cg-pd-library-local/externals;
#X obj 59 165 declare -path cg-pd-library-local/metronome;
#X restore 294 62 pd CG-PdLibrary-Local;
#X obj 483 284 s local-notes;
#X obj 291 460 r seq3-1-led;
#X obj 291 482 s led;
#N canvas 4 50 451 300 slot-saver 0;
#X obj 62 102 loadbang;
#X obj 62 123 t b b;
#X msg 62 144 0;
#X obj 62 165 tabread \$0-slot;
#X obj 62 186 s cgSc-1-slots;
#X obj 192 13 r cgSc-1-slots;
#X obj 192 34 t a b;
#X obj 192 85 tabwrite \$0-slot;
#X msg 247 50 0;
#X msg 158 150 read slot.txt;
#X obj 232 197 r saveState;
#X msg 232 218 write slot.txt;
#X obj 232 239 array define \$0-slot;
#X connect 0 0 1 0;
#X connect 1 0 2 0;
#X connect 1 1 9 0;
#X connect 2 0 3 0;
#X connect 3 0 4 0;
#X connect 5 0 6 0;
#X connect 6 0 7 0;
#X connect 6 1 8 0;
#X connect 8 0 7 1;
#X connect 9 0 12 0;
#X connect 10 0 11 0;
#X connect 11 0 12 0;
#X restore 292 199 pd slot-saver;
#X obj 31 352 pack 0 0 0;
#X obj 31 47 r local-notes;
#X obj 31 198 spigot 1;
#X obj 76 78 r rec-state;
#X obj 76 99 sel 3, f 9;
#X obj 127 127 t b;
#X msg 76 129 0;
#X msg 127 148 1;
#N canvas 266 451 1056 593 sound-out-delay 0;
#X obj 435 523 throw~ outL;
#X obj 566 524 throw~ outR;
#X obj 729 134 f;
#X obj 630 79 r seq3-1-k3;
#X obj 630 125 f;
#X obj 729 77 r seq3-1-k4;
#X obj 434 490 *~ 1;
#X obj 645 102 r eparam3;
#X obj 745 105 r eparam4;
#X obj 433 247 inlet~;
#X obj 630 276 * 1000;
#X obj 729 306 f;
#X obj 599 358 delay5sec 5;
#X obj 502 204 lop~ 5;
#X obj 502 110 r key-edit-state;
#X obj 729 284 * 0.98;
#X obj 729 261 clip 0 1;
#X obj 630 146 t f f;
#X obj 729 166 t f f;
#X obj 630 250 pow 2;
#X obj 872 395 lop~ 15;
#X obj 567 430 *~, f 20;
#X obj 797 260 sel 0;
#X obj 872 262 sel 0;
#X obj 924 283 t b;
#X obj 828 279 t b;
#X msg 910 342 1;
#X msg 872 341 0;
#X obj 502 145 ==;
#X obj 566 491 *~ 1;
#X obj 477 292 *~ 0.7;
#X obj 567 405 *~, f 6;
#X obj 433 364 *~ 0.98;
#X obj 599 379 *~ 0.8;
#X connect 2 0 18 0;
#X connect 3 0 4 0;
#X connect 4 0 17 0;
#X connect 5 0 2 0;
#X connect 6 0 0 0;
#X connect 7 0 4 0;
#X connect 8 0 2 0;
#X connect 9 0 30 0;
#X connect 9 0 32 0;
#X connect 10 0 12 1;
#X connect 11 0 12 2;
#X connect 12 0 33 0;
#X connect 13 0 31 0;
#X connect 14 0 28 0;
#X connect 15 0 11 0;
#X connect 16 0 15 0;
#X connect 17 0 19 0;
#X connect 17 1 22 0;
#X connect 18 0 16 0;
#X connect 18 1 23 0;
#X connect 19 0 10 0;
#X connect 20 0 21 1;
#X connect 21 0 6 0;
#X connect 21 0 29 0;
#X connect 22 0 27 0;
#X connect 22 1 25 0;
#X connect 23 0 27 0;
#X connect 23 1 24 0;
#X connect 24 0 26 0;
#X connect 25 0 26 0;
#X connect 26 0 20 0;
#X connect 27 0 20 0;
#X connect 28 0 13 0;
#X connect 29 0 1 0;
#X connect 30 0 12 0;
#X connect 31 0 21 0;
#X connect 32 0 6 0;
#X connect 32 0 29 0;
#X connect 33 0 31 1;
#X restore 29 479 pd sound-out-delay;
#X obj 576 430 s global-length;
#X obj 475 431 s global-start;
#X obj 576 343 r eparam2;
#X obj 475 344 r eparam1;
#X obj 31 331 poly 8 0, f 10;
#X obj 31 378 clone -s 1 child-samp-voice 8;
#N canvas 175 50 1033 682 record-load-sample 0;
#X obj 615 88 r~ inL;
#X obj 685 87 r~ inR;
#X obj 685 226 *~ 1;
#X obj 615 110 *~ 0.707;
#X obj 685 109 *~ 0.707;
#X obj 427 840 throw~ outL;
#X obj 444 815 throw~ outR;
#X obj 91 35 sel 0;
#X obj 118 61 t b;
#X obj 154 84 + 1;
#X obj 118 82 f 1;
#X obj 426 776 *~, f 34;
#X obj 329 535 lop~ 10;
#X obj 244 102 loadbang;
#X msg 244 123 0;
#X text 736 82 Audio In;
#X text 727 190 load and record sample;
#X obj 118 287 sel 0 1 2 3 4;
#X msg 154 126 0;
#X obj 154 147 f;
#X msg 133 382 25;
#X msg 148 359 50;
#X msg 163 332 75;
#X msg 178 311 100;
#N canvas 4 50 583 463 aux 0;
#X obj 75 309 s samp-1-kill;
#X obj 75 208 r aux;
#X obj 75 259 sel 1;
#X obj 75 229 spigot 0;
#X obj 75 280 t b b;
#X msg 159 243 0;
#X text 289 86 aux press cancels rec;
#X obj 105 89 r samp-states;
#X obj 105 114 route 1;
#X obj 105 135 sel 0 1 2 3, f 22;
#X msg 137 169 1;
#X msg 105 169 0;
#X connect 1 0 3 0;
#X connect 2 0 4 0;
#X connect 3 0 2 0;
#X connect 4 0 0 0;
#X connect 4 1 5 0;
#X connect 5 0 3 1;
#X connect 7 0 8 0;
#X connect 8 0 9 0;
#X connect 9 0 11 0;
#X connect 9 1 10 0;
#X connect 9 2 10 0;
#X connect 10 0 3 1;
#X connect 11 0 3 1;
#X restore 705 391 pd aux press cancels rec;
#N canvas 106 50 1256 682 shortcut-6 0;
#X obj 261 161 r samp-states;
#X obj 261 186 route 1;
#X obj 352 117 s samp-1-arm;
#X obj 261 207 sel 0 1 2 3, f 22;
#X obj 325 63 sel 0;
#X obj 352 89 t b;
#X msg 319 340 Rec:ARMED;
#X obj 319 415 s cgSc-1-6label;
#X obj 325 42 r cgSc-1-6;
#X msg 395 361 RECRDING..;
#X msg 261 359 Rec:OFF;
#X obj 442 286 s led;
#X msg 442 255 1;
#X obj 315 284 s led;
#X msg 315 253 6;
#X obj 210 280 s led;
#X msg 210 249 0;
#X obj 106 256 loadbang;
#X obj 564 320 r samp-live-time;
#X obj 564 341 route 1;
#X obj 875 175 r samp-states;
#X obj 875 200 route 1;
#X obj 875 291 sel 0 1 2 3, f 22;
#X msg 959 571 /oled/gFillArea 3 0 0 128 50 0;
#X msg 682 460 /oled/gFillArea 3 0 0 128 50 0;
#X msg 549 548 /oled/gFlip 3;
#X obj 535 428 t b f b b;
#X obj 943 462 t b b b;
#X obj 729 705 s oscOut;
#X obj 816 620 t a;
#X obj 1019 54 r cgSc-1-mute-print;
#X obj 1019 155 spigot 0;
#X obj 1019 176 sel 0;
#X obj 1105 85 r samp-states;
#X obj 1105 110 route 1;
#X obj 875 261 f;
#X msg 566 516 /oled/gPrintln 3 40 25 16 1 \$1 sec;
#X obj 1079 237 s cgSc-1-mute-print;
#X msg 1084 192 0;
#X obj 1105 131 t f f;
#X obj 1106 171 sel 0;
#X msg 605 488 /oled/gPrintln 3 15 10 16 1 RECORDING;
#X msg 920 506 /oled/gPrintln 3 13 10 16 1 REC:ARMED;
#X obj 895 654 r cgSc-1-mute-print;
#X obj 806 647 spigot 0;
#X obj 895 675 ==;
#X obj 1019 197 del 10;
#X obj 451 42 r fs;
#X obj 451 63 sel 1;
#X text 369 16 Arm Recording;
#X text 480 44 Footswitch;
#X text 211 43 Aux Menu Selection;
#X connect 0 0 1 0;
#X connect 1 0 3 0;
#X connect 3 0 10 0;
#X connect 3 0 16 0;
#X connect 3 1 6 0;
#X connect 3 1 14 0;
#X connect 3 2 9 0;
#X connect 3 2 12 0;
#X connect 4 1 5 0;
#X connect 5 0 2 0;
#X connect 6 0 7 0;
#X connect 8 0 4 0;
#X connect 9 0 7 0;
#X connect 10 0 7 0;
#X connect 12 0 11 0;
#X connect 14 0 13 0;
#X connect 16 0 15 0;
#X connect 17 0 10 0;
#X connect 18 0 19 0;
#X connect 19 0 26 0;
#X connect 20 0 21 0;
#X connect 21 0 35 0;
#X connect 22 1 27 0;
#X connect 23 0 29 0;
#X connect 24 0 29 0;
#X connect 25 0 29 0;
#X connect 26 0 25 0;
#X connect 26 1 36 0;
#X connect 26 2 41 0;
#X connect 26 3 24 0;
#X connect 27 0 25 0;
#X connect 27 1 42 0;
#X connect 27 2 23 0;
#X connect 29 0 44 0;
#X connect 30 0 31 0;
#X connect 31 0 32 0;
#X connect 32 0 46 0;
#X connect 33 0 34 0;
#X connect 34 0 39 0;
#X connect 35 0 22 0;
#X connect 36 0 29 0;
#X connect 38 0 37 0;
#X connect 39 0 40 0;
#X connect 39 1 31 1;
#X connect 40 0 38 0;
#X connect 41 0 29 0;
#X connect 42 0 29 0;
#X connect 43 0 45 0;
#X connect 44 0 28 0;
#X connect 45 0 44 1;
#X connect 46 0 35 0;
#X connect 47 0 48 0;
#X connect 48 0 2 0;
#X restore 705 360 pd shortcut-6 and the printing;
#X obj 704 320 clone -s 1 load-rec-sample 1 samp 10000 sounds 1, f
28;
#X msg 118 426 10;
#X obj 91 13 r cgSc-1-9;
#X obj 379 190 sel 0;
#X obj 406 216 t b;
#X obj 442 259 + 1;
#X obj 406 256 f 1;
#X obj 442 280 == 1;
#X obj 406 352 sel 0 1, f 15;
#X obj 379 168 r cgSc-1-8;
#X obj 510 158 loadbang;
#X obj 406 464 s cgSc-1-8label;
#X obj 406 307 t f f, f 28;
#X msg 406 383 Monitr:OFF;
#X msg 449 407 Monitr:ON;
#X msg 510 179 0;
#X obj 329 656 *~, f 25;
#X obj 475 629 lop~ 4;
#X text 518 628 Monitor ON/OFF;
#X text 342 576 Monitor Level;
#X msg 118 499 mLvl:\$1%;
#X obj 118 526 s cgSc-1-9label;
#X obj 118 469 t f f, f 26;
#X obj 118 206 t f;
#X obj 271 497 / 100;
#X obj 154 105 sel 5;
#X connect 0 0 3 0;
#X connect 1 0 4 0;
#X connect 2 0 11 1;
#X connect 2 0 26 0;
#X connect 2 0 26 1;
#X connect 3 0 2 0;
#X connect 4 0 2 0;
#X connect 7 1 8 0;
#X connect 8 0 10 0;
#X connect 9 0 51 0;
#X connect 10 0 9 0;
#X connect 10 0 49 0;
#X connect 11 0 6 0;
#X connect 11 0 5 0;
#X connect 12 0 42 0;
#X connect 13 0 14 0;
#X connect 14 0 49 0;
#X connect 17 0 27 0;
#X connect 17 1 20 0;
#X connect 17 2 21 0;
#X connect 17 3 22 0;
#X connect 17 4 23 0;
#X connect 18 0 19 0;
#X connect 19 0 10 1;
#X connect 20 0 48 0;
#X connect 21 0 48 0;
#X connect 22 0 48 0;
#X connect 23 0 48 0;
#X connect 27 0 48 0;
#X connect 28 0 7 0;
#X connect 29 1 30 0;
#X connect 30 0 32 0;
#X connect 31 0 33 0;
#X connect 32 0 31 0;
#X connect 32 0 38 0;
#X connect 33 0 32 1;
#X connect 34 0 39 0;
#X connect 34 1 40 0;
#X connect 35 0 29 0;
#X connect 36 0 41 0;
#X connect 38 0 34 0;
#X connect 38 1 43 0;
#X connect 39 0 37 0;
#X connect 40 0 37 0;
#X connect 41 0 32 0;
#X connect 42 0 11 0;
#X connect 43 0 42 1;
#X connect 46 0 47 0;
#X connect 48 0 46 0;
#X connect 48 1 50 0;
#X connect 49 0 17 0;
#X connect 50 0 12 0;
#X connect 51 0 18 0;
#X connect 51 1 19 0;
#X restore 292 160 pd record-load-sample;
#X obj 29 442 catch~ voice-out;
#X obj 483 18 r aux;
#X obj 549 95 r cgSc-1-slots;
#X obj 600 18 r \$0-reprint-port;
#X obj 582 116 r beat-clock;
#N canvas 100 74 1124 789 seq3-5option-control 0;
#X obj 139 278 outlet;
#X obj 65 121 t b;
#X msg 65 143 2;
#X obj 298 126 t b;
#X msg 298 148 3;
#X text 437 5 when aux is pressed after recording starts immediatley
end the rec and play the loop;
#X obj 170 70 sel 0;
#X obj 202 94 t b;
#X msg 202 116 1;
#X obj 33 66 r cgSc-1-2;
#X obj 171 48 r cgSc-1-1;
#X obj 33 88 sel 0;
#X obj 266 99 sel 0;
#X obj 317 272 r seq3-1-actions;
#X obj 317 294 sel 1, f 12;
#X obj 398 327 t b, f 4;
#X obj 317 445 s cgSc-1-1label;
#X obj 507 308 r seq3-1-actions;
#X obj 588 353 t b, f 4;
#X obj 507 329 sel 2 3, f 12;
#X obj 978 320 t b, f 4;
#X msg 978 355 Latch:Off;
#X msg 896 355 Latch:On;
#X obj 507 441 s cgSc-1-2label;
#X text 521 279 print to the shortcut menu;
#X obj 378 141 f 0;
#X obj 130 0 r midi-start;
#X msg 130 22 4;
#X obj 373 105 r midi-stop;
#X obj 507 125 t b;
#X obj 475 98 sel 0;
#X msg 507 147 5;
#X obj 192 487 r seq3-1-actions;
#X obj 273 532 t b, f 4;
#X obj 192 508 sel 5, f 12;
#X obj 317 373 f;
#X msg 317 403 \$1Seq:Stop;
#X obj 398 372 f;
#X msg 398 402 \$1Seq:Play;
#X msg 507 399 \$1Rec:Armd;
#X msg 588 397 \$1Rec:On;
#X msg 659 398 \$1Rec:Off;
#X obj 507 374 f;
#X obj 582 373 f;
#X obj 649 370 f;
#X obj 273 554 f;
#X obj 192 560 f;
#X msg 192 607 \$1Dub:On;
#X obj 201 286 r cgSc-1-slots;
#X obj 201 329 t b f f;
#X obj 166 439 s seq3-1-actions;
#X obj 166 415 v seq3-1-state;
#X obj 201 309 + 1;
#X obj 668 299 + 1;
#X obj 668 251 r cgSc-1-slots;
#X obj 321 507 + 1;
#X obj 321 483 r cgSc-1-slots;
#X obj 559 76 sel 1;
#X obj 612 80 r seq3-1-actions;
#X obj 559 174 t b b;
#X msg 640 152 0;
#X obj 559 152 spigot 0;
#X msg 612 129 1;
#X msg 559 196 1;
#X obj 192 650 s cgSc-1-3label;
#X obj 475 71 r cgSc-1-3;
#X obj 559 52 r cgSc-1-aux;
#X obj 896 398 s cgSc-1-5label;
#X obj 267 72 r cgSc-1-5;
#X obj 358 53 t b;
#X obj 326 26 sel 0;
#X obj 326 2 r cgSc-1-4;
#X msg 358 75 6;
#X obj 465 480 r seq3-1-actions;
#X obj 507 558 f;
#X obj 584 501 + 1;
#X obj 584 477 r cgSc-1-slots;
#X obj 465 643 s cgSc-1-4label;
#X obj 612 104 sel 3, f 12;
#X msg 273 607 \$1Dub:Off;
#X obj 465 501 sel 6, f 10;
#X obj 532 526 t b;
#X obj 465 585 spigot 1;
#X obj 552 582 spigot 0;
#X obj 675 510 r seq3-1-actions;
#X obj 675 532 sel 3;
#X obj 591 537 ==;
#X obj 637 564 f;
#X msg 637 533 1;
#X msg 708 615 0;
#X msg 552 607 \$1:Undo;
#X msg 465 610 \$1:Undid;
#X obj 465 523 t b b;
#X obj 31 189 loadbang;
#X msg 70 229 0;
#X obj 23 341 r init-1-slot;
#X obj 23 363 s cgSc-1-slots;
#X obj 896 255 r seq3-1-togLatch;
#X obj 896 296 sel 1, f 12;
#X obj 104 167 r kill-seq;
#X obj 211 138 r kill-latch;
#X msg 211 159 7;
#X connect 1 0 2 0;
#X connect 2 0 0 0;
#X connect 3 0 4 0;
#X connect 4 0 0 0;
#X connect 6 1 7 0;
#X connect 7 0 8 0;
#X connect 8 0 0 0;
#X connect 9 0 11 0;
#X connect 10 0 6 0;
#X connect 11 1 1 0;
#X connect 12 1 3 0;
#X connect 13 0 14 0;
#X connect 14 0 35 0;
#X connect 14 1 15 0;
#X connect 15 0 37 0;
#X connect 17 0 19 0;
#X connect 18 0 44 0;
#X connect 19 0 42 0;
#X connect 19 1 43 0;
#X connect 19 2 18 0;
#X connect 20 0 21 0;
#X connect 21 0 67 0;
#X connect 22 0 67 0;
#X connect 25 0 0 0;
#X connect 26 0 27 0;
#X connect 27 0 0 0;
#X connect 28 0 25 0;
#X connect 29 0 31 0;
#X connect 30 1 29 0;
#X connect 31 0 0 0;
#X connect 32 0 34 0;
#X connect 33 0 45 0;
#X connect 34 0 46 0;
#X connect 34 1 33 0;
#X connect 35 0 36 0;
#X connect 36 0 16 0;
#X connect 37 0 38 0;
#X connect 38 0 16 0;
#X connect 39 0 23 0;
#X connect 40 0 23 0;
#X connect 41 0 23 0;
#X connect 42 0 39 0;
#X connect 43 0 40 0;
#X connect 44 0 41 0;
#X connect 45 0 79 0;
#X connect 46 0 47 0;
#X connect 47 0 64 0;
#X connect 48 0 52 0;
#X connect 49 0 51 0;
#X connect 49 1 35 1;
#X connect 49 2 37 1;
#X connect 51 0 50 0;
#X connect 52 0 49 0;
#X connect 53 0 44 1;
#X connect 53 0 43 1;
#X connect 53 0 42 1;
#X connect 54 0 53 0;
#X connect 55 0 45 1;
#X connect 55 0 46 1;
#X connect 56 0 55 0;
#X connect 57 0 61 0;
#X connect 58 0 78 0;
#X connect 59 0 63 0;
#X connect 59 1 60 0;
#X connect 60 0 61 1;
#X connect 61 0 59 0;
#X connect 62 0 61 1;
#X connect 63 0 0 0;
#X connect 65 0 30 0;
#X connect 66 0 57 0;
#X connect 68 0 12 0;
#X connect 69 0 72 0;
#X connect 70 1 69 0;
#X connect 71 0 70 0;
#X connect 72 0 0 0;
#X connect 73 0 80 0;
#X connect 74 0 82 0;
#X connect 74 0 83 0;
#X connect 75 0 74 1;
#X connect 76 0 75 0;
#X connect 78 0 62 0;
#X connect 79 0 64 0;
#X connect 80 0 92 0;
#X connect 80 1 81 0;
#X connect 81 0 74 0;
#X connect 82 0 91 0;
#X connect 83 0 90 0;
#X connect 84 0 85 0;
#X connect 85 0 88 0;
#X connect 86 0 82 1;
#X connect 87 0 86 0;
#X connect 87 0 83 1;
#X connect 88 0 87 0;
#X connect 89 0 87 0;
#X connect 90 0 77 0;
#X connect 91 0 77 0;
#X connect 92 0 74 0;
#X connect 92 1 89 0;
#X connect 93 0 94 0;
#X connect 94 0 0 0;
#X connect 95 0 96 0;
#X connect 97 0 98 0;
#X connect 98 0 22 0;
#X connect 98 1 20 0;
#X connect 99 0 94 0;
#X connect 100 0 101 0;
#X connect 101 0 0 0;
#X restore 516 74 pd seq3-5option-control;
#X obj 483 137 seq3 1 0 ../../sequences 1 0 1, f 17;
#X obj 483 49 cg-shortcut 1 1, f 20;
#X obj 576 364 pow 2;
#X obj 576 406 + 0.001;
#X obj 576 385 * 0.999;
#N canvas 4 50 450 300 parameter-arrays 0;
#X obj 45 121 array define param4 24;
#X obj 45 92 array define param3 24;
#X obj 44 61 array define param2 24;
#X obj 45 31 array define param1 24;
#X restore 293 127 pd parameter-arrays;
#X obj 483 197 unpack 0 0, f 18;
#X obj 483 238 % 24;
#X obj 483 218 - 12;
#X obj 483 259 pack 0 0, f 18;
#X text 542 177 keep in 0-23 range;
#X connect 7 0 8 0;
#X connect 10 0 24 0;
#X connect 11 0 12 0;
#X connect 12 0 23 0;
#X connect 13 0 14 0;
#X connect 14 0 16 0;
#X connect 14 1 15 0;
#X connect 15 0 17 0;
#X connect 16 0 12 1;
#X connect 17 0 12 1;
#X connect 21 0 34 0;
#X connect 22 0 20 0;
#X connect 23 0 10 0;
#X connect 23 1 10 1;
#X connect 23 2 10 2;
#X connect 26 0 18 0;
#X connect 27 0 33 0;
#X connect 28 0 32 2;
#X connect 29 0 33 1;
#X connect 30 0 32 3;
#X connect 31 0 32 1;
#X connect 32 0 38 0;
#X connect 33 0 32 0;
#X connect 34 0 36 0;
#X connect 35 0 19 0;
#X connect 36 0 35 0;
#X connect 38 0 40 0;
#X connect 38 1 41 1;
#X connect 39 0 41 0;
#X connect 40 0 39 0;
#X connect 41 0 6 0;
