#N canvas 498 295 1056 749 10;
#X obj 463 202 % 24;
#X obj 463 176 abs;
#X obj 463 131 expr if ($f1 > 59 \, $f1 - 60 \, $f1 - 12);
#X text 476 155 allow all midi notes to trigger samples...;
#X text 486 253 argument (key number);
#X obj 507 34 r key-just-copied;
#X obj 572 275 r key-edit-state;
#X obj 572 356 sel 1;
#X obj 572 302 t f f, f 11;
#X obj 617 392 ==;
#X obj 520 396 spigot 1;
#X text 665 386 mute in edit mode;
#X obj 463 35 inlet;
#X obj 520 695 throw~ voice-out;
#X obj 521 675 hip~ 5;
#X obj 521 623 *~ 0.7;
#X obj 181 272 r are-you-on?;
#X obj 181 293 stripnote;
#X obj 181 365 % 24;
#X obj 181 339 abs;
#X obj 181 316 expr if ($f1 > 59 \, $f1 - 60 \, $f1 - 12);
#X obj 181 405 ==, f 25;
#X obj 297 445 sel 1;
#X obj 831 600 sel 0;
#X msg 831 621 -1;
#X obj 463 89 stripnote;
#X obj 520 568 sampler-new, f 43;
#X obj 463 223 t f f, f 10;
#X floatatom 777 652 5 0 0 0 - - -;
#X msg 550 488 -1;
#X connect 0 0 27 0;
#X connect 1 0 0 0;
#X connect 2 0 1 0;
#X connect 5 0 25 0;
#X connect 6 0 8 0;
#X connect 7 0 29 0;
#X connect 8 0 7 0;
#X connect 8 1 9 0;
#X connect 9 0 10 1;
#X connect 10 0 26 0;
#X connect 12 0 25 0;
#X connect 14 0 13 0;
#X connect 15 0 14 0;
#X connect 16 0 17 0;
#X connect 17 0 20 0;
#X connect 18 0 21 0;
#X connect 19 0 18 0;
#X connect 20 0 19 0;
#X connect 21 0 22 0;
#X connect 22 0 29 0;
#X connect 23 0 24 0;
#X connect 24 0 21 1;
#X connect 25 0 2 0;
#X connect 26 0 15 0;
#X connect 26 1 23 0;
#X connect 26 1 28 0;
#X connect 27 0 21 1;
#X connect 27 1 10 0;
#X connect 29 0 26 0;
