#N canvas 130 50 1786 959 10;
#X obj 442 897 *~;
#X obj 991 552 s \$0-start;
#X obj 1114 609 s \$0-end;
#X obj 219 50 inlet;
#X obj 442 919 outlet~;
#X text 290 21 play stop;
#X text 513 25 speed (-3 to 3);
#X text 785 40 start and duration as % of sample duration;
#X obj 456 853 tabread4~ newsample;
#X obj 457 806 *~, f 9;
#X obj 508 760 r dur;
#X obj 508 781 - 2;
#X obj 223 770 vline~;
#X obj 457 827 +~ 1;
#X obj 991 490 max 0;
#X obj 991 511 min 1;
#X obj 1114 405 min 1;
#X obj 457 738 wrap~;
#X obj 1267 456 r \$0-end;
#X obj 1114 384 max 0;
#X text 1322 620 convert to ms;
#X obj 1267 483 t b a;
#X obj 1254 621 / 44.1;
#X obj 1255 509 * 1, f 7;
#X obj 1255 412 r dur;
#X obj 745 529 s \$0-speed;
#X obj 907 756 r \$0-switch;
#X obj 223 532 f;
#X obj 907 826 outlet vorbei;
#X obj 1114 426 t f f;
#X obj 1114 447 *;
#X obj 457 660 vline~;
#X text 540 617 go to end of sample in x ms;
#X text 496 738 wrap around if chunk exceeds sample length;
#X obj 868 376 max 0;
#X obj 868 397 min 1;
#X obj 868 427 s \$0-vol;
#X obj 268 642 r \$0-vol;
#X obj 223 693 pack 0 0;
#X obj 1268 573 t b a;
#X obj 1268 547 r \$0-speed;
#X obj 1255 599 / 1, f 7;
#N canvas 32 50 652 507 detent-speed 0;
#X obj 17 37 inlet;
#X obj 70 310 outlet;
#X obj 17 73 moses 0.5;
#X obj 137 123 - 0.5;
#X obj 137 145 * 2;
#X obj 17 104 - 0.5;
#X obj 17 126 * 2;
#X obj 17 148 abs;
#X obj 140 212 * 2;
#X obj 67 217 * -2;
#X obj 17 183 detent 0.075;
#X obj 137 170 detent 0.075, f 14;
#X obj 67 282 f;
#X connect 0 0 2 0;
#X connect 2 0 5 0;
#X connect 2 1 3 0;
#X connect 3 0 4 0;
#X connect 4 0 11 0;
#X connect 5 0 6 0;
#X connect 6 0 7 0;
#X connect 7 0 10 0;
#X connect 8 0 12 0;
#X connect 9 0 12 0;
#X connect 10 0 9 0;
#X connect 10 1 9 0;
#X connect 10 2 9 0;
#X connect 11 0 8 0;
#X connect 11 1 8 0;
#X connect 11 2 8 0;
#X connect 12 0 1 0;
#X restore 745 382 pd detent-speed;
#X text 130 460 amplitude envelope;
#X obj 1254 696 s \$0-local-dur;
#X text 1335 484 caluculate based on chunk size;
#X text 1362 558 than calculate relative length to speed;
#X obj 745 403 t f f, f 12;
#X obj 745 424 abs;
#X obj 790 431 moses 0;
#X msg 790 452 -1;
#X msg 823 452 1;
#X obj 790 493 s \$0-local-direction;
#X obj 502 549 r \$0-local-direction;
#X obj 472 483 r \$0-local-dur;
#X obj 457 504 f;
#X msg 8 361 0 10;
#X obj 517 349 r \$0-local-dur;
#X obj 502 374 del;
#X msg 622 292 stop;
#X msg 502 395 0;
#X obj 502 416 s \$0-switch;
#X obj 294 429 r \$0-local-dur;
#X obj 533 265 s \$0-switch;
#X msg 533 244 1;
#X obj 268 663 sqrt 2;
#X obj 223 808 pow~ 2;
#X obj 907 777 t f f;
#X obj 745 353 tabread param1;
#X obj 868 353 tabread param2;
#X obj 991 352 tabread param3;
#X obj 1114 348 tabread param4;
#X obj 745 302 t f f f f, f 62;
#X obj 934 798 v \$0-yo;
#X obj 457 580 pack 0 0;
#X obj 457 681 *~, f 10;
#X obj 548 640 r \$0-end;
#X obj 457 712 +~, f 17;
#X obj 556 686 r \$0-start;
#X obj 548 661 sig~;
#X obj 373 212 t b b b b b f b, f 54;
#X obj 991 466 wrap;
#X obj 991 443 +;
#X obj 1006 388 r global-start;
#X obj 1132 491 r global-length;
#X obj 1114 538 *;
#X obj 219 85 sel -1, f 11;
#X obj 1245 294 r key-edit-state;
#X obj 1245 315 sel 1;
#X obj 1245 336 t b b;
#X msg 1263 373 1;
#X msg 1211 375 0;
#X msg 694 329 0 0;
#X msg 457 619 \$2 \$1;
#X obj 172 323 del 10;
#X msg 200 292 stop;
#X msg 172 344 0 0;
#X obj 172 260 t b b b;
#X obj 223 553 + 10;
#X msg 223 730 0 0 \, \$2 10 0 \, 0 10 \$1;
#X obj 294 454 - 10;
#X obj 1114 568 max 0.001;
#X text 1302 646 minimum of 20 ms;
#X connect 0 0 4 0;
#X connect 3 0 86 0;
#X connect 8 0 0 1;
#X connect 9 0 13 0;
#X connect 10 0 11 0;
#X connect 11 0 9 1;
#X connect 12 0 66 0;
#X connect 13 0 8 0;
#X connect 14 0 15 0;
#X connect 15 0 1 0;
#X connect 16 0 29 0;
#X connect 17 0 9 0;
#X connect 18 0 21 0;
#X connect 19 0 16 0;
#X connect 21 0 23 0;
#X connect 21 1 23 1;
#X connect 22 0 44 0;
#X connect 23 0 41 0;
#X connect 24 0 23 0;
#X connect 26 0 67 0;
#X connect 27 0 98 0;
#X connect 29 0 30 0;
#X connect 29 1 30 1;
#X connect 30 0 85 0;
#X connect 31 0 75 0;
#X connect 34 0 35 0;
#X connect 35 0 36 0;
#X connect 37 0 65 0;
#X connect 38 0 99 0;
#X connect 39 0 41 0;
#X connect 39 1 41 1;
#X connect 40 0 39 0;
#X connect 41 0 22 0;
#X connect 42 0 47 0;
#X connect 47 0 48 0;
#X connect 47 1 49 0;
#X connect 48 0 25 0;
#X connect 49 0 50 0;
#X connect 49 1 51 0;
#X connect 50 0 52 0;
#X connect 51 0 52 0;
#X connect 53 0 74 1;
#X connect 54 0 55 1;
#X connect 55 0 74 0;
#X connect 56 0 12 0;
#X connect 57 0 58 1;
#X connect 58 0 60 0;
#X connect 59 0 58 0;
#X connect 60 0 61 0;
#X connect 62 0 100 0;
#X connect 64 0 63 0;
#X connect 65 0 38 1;
#X connect 66 0 0 0;
#X connect 67 0 28 0;
#X connect 67 1 73 0;
#X connect 68 0 42 0;
#X connect 69 0 34 0;
#X connect 70 0 82 0;
#X connect 71 0 19 0;
#X connect 72 0 68 0;
#X connect 72 1 69 0;
#X connect 72 2 70 0;
#X connect 72 3 71 0;
#X connect 74 0 93 0;
#X connect 75 0 77 0;
#X connect 76 0 79 0;
#X connect 77 0 17 0;
#X connect 78 0 77 1;
#X connect 79 0 75 1;
#X connect 80 0 27 0;
#X connect 80 1 55 0;
#X connect 80 2 58 0;
#X connect 80 3 64 0;
#X connect 80 4 59 0;
#X connect 80 5 72 0;
#X connect 80 6 92 0;
#X connect 81 0 14 0;
#X connect 82 0 81 0;
#X connect 83 0 82 1;
#X connect 84 0 85 1;
#X connect 85 0 101 0;
#X connect 86 0 97 0;
#X connect 86 1 80 0;
#X connect 87 0 88 0;
#X connect 88 0 89 0;
#X connect 89 0 91 0;
#X connect 89 1 90 0;
#X connect 90 0 85 1;
#X connect 91 0 82 1;
#X connect 92 0 31 0;
#X connect 93 0 31 0;
#X connect 94 0 96 0;
#X connect 94 0 60 0;
#X connect 95 0 94 0;
#X connect 96 0 31 0;
#X connect 97 0 94 0;
#X connect 97 1 56 0;
#X connect 97 2 95 0;
#X connect 98 0 38 0;
#X connect 99 0 12 0;
#X connect 100 0 27 1;
#X connect 101 0 2 0;
