#N canvas 867 214 431 379 10;
#X text 98 160 FX13 module in;
#X text 118 185 to specific module in FX13;
#X text 164 217 From specific module in FX13;
#X text 156 261 Print specific module in FX13 by sending label out
, f 25;
#X obj 38 4 r \$1-knob\$2;
#X obj 38 156 spigot;
#X msg 77 107 1;
#X msg 116 107 0;
#X obj 77 28 r \$1-Fxs;
#X text 209 7 arg1: instance number;
#X text 209 27 arg2: knob number;
#X text 209 47 arg3: module shortcut name;
#X text 209 67 arg4: module shortcut parameter;
#X obj 38 186 s \$3-\$1-\$4;
#X obj 38 216 r \$3-\$1-\$4-label;
#X obj 38 291 s fx13-\$1-knob\$2-label;
#X obj 77 55 sel \$3;
#X obj 38 106 f;
#X obj 57 77 t b b;
#X connect 4 0 17 0;
#X connect 5 0 13 0;
#X connect 6 0 5 1;
#X connect 7 0 5 1;
#X connect 8 0 16 0;
#X connect 14 0 15 0;
#X connect 16 0 18 0;
#X connect 16 1 7 0;
#X connect 17 0 5 0;
#X connect 18 0 17 0;
#X connect 18 1 6 0;
