#N canvas 287 50 1082 940 10;
#X obj 198 131 mtof;
#X obj 198 167 sig~;
#X text 275 38 note messages;
#X text 244 132 outputs midi note number from left outlet;
#X obj 847 593 bng 15 250 50 0 empty empty empty 17 7 0 10 -262144
-1 -1;
#X obj 270 831 *~;
#X obj 890 692 line~;
#X msg 847 637 0 \$1;
#X obj 198 70 unpack;
#X obj 847 130 sel 0;
#X text 245 95 selects note off messages so we can set decay time later
;
#X text 244 166 convert it to signal so frequency will be constantly
updated;
#X obj 198 32 inlet;
#X obj 271 885 outlet~;
#X text 762 614 decay time;
#X obj 949 790 *~;
#X msg 913 637 1 5;
#X obj 913 598 bng 15 250 50 0 empty empty empty 17 7 0 10 -262144
-1 -1;
#X obj 198 95 - 24;
#X obj 44 577 s_blsquare;
#X obj 445 664 s_blsquare;
#X obj 437 513 phasor~;
#X obj 78 546 sig~ 0.5;
#X obj 235 421 *~;
#X obj 240 689 s_blsquare;
#X obj 273 650 sig~ 0.5;
#X obj 847 613 f 100;
#X obj 477 629 sig~ 0.5;
#X text 429 364 rate;
#X text 558 458 depth;
#X obj 684 390 sig~, f 7;
#X text 684 195 rate;
#X obj 625 245 bng 15 250 50 0 empty empty empty 17 7 0 10 -262144
-1 -1;
#X obj 271 857 *~ 0.25;
#X obj 159 324 sig~;
#X obj 158 351 lop~ 5;
#X obj 688 365 random 100;
#X obj 700 535 * 500, f 9;
#X text 339 579 decay time;
#X obj 263 534 bng 15 250 50 0 empty empty empty 17 7 0 10 -262144
-1 -1;
#X obj 232 614 vline~;
#X obj 645 528 bng 15 250 50 0 empty empty empty 17 7 0 10 -262144
-1 -1;
#X obj 576 714 vline~;
#X obj 503 740 *~;
#X msg 222 575 1 2 \, 0 200 2;
#X obj 593 185 loadbang;
#X obj 47 363 *~;
#X obj 187 492 lop~ 5;
#X obj 424 263 *~ 10;
#X obj 685 294 metro 200;
#X obj 648 605 f, f 9;
#X msg 566 675 1 2 \, 0 \$1 2;
#X obj 444 565 *~ 1200;
#X obj 929 76 - 1;
#X obj 929 98 abs;
#X obj 931 126 t f f;
#X obj 931 148 *;
#X obj 931 223 * 100;
#X obj 928 185 + 0.001;
#X obj 359 366 lop~ 5;
#X floatatom 262 283 5 0 0 0 - - -;
#X obj 267 227 * 100;
#X obj 262 261 % 12;
#X obj 269 201 r knob1-local;
#X obj 929 50 r knob4-local;
#X obj 424 219 r knob2-local;
#X obj 424 240 sig~;
#X obj 699 505 r knob3-local;
#X connect 0 0 1 0;
#X connect 1 0 23 0;
#X connect 4 0 26 0;
#X connect 5 0 33 0;
#X connect 6 0 15 1;
#X connect 6 0 15 0;
#X connect 7 0 6 0;
#X connect 8 0 18 0;
#X connect 8 1 9 0;
#X connect 9 0 4 0;
#X connect 9 1 17 0;
#X connect 9 1 39 0;
#X connect 9 1 41 0;
#X connect 12 0 8 0;
#X connect 15 0 5 1;
#X connect 16 0 6 0;
#X connect 17 0 16 0;
#X connect 18 0 0 0;
#X connect 19 0 5 0;
#X connect 20 0 43 0;
#X connect 21 0 52 0;
#X connect 22 0 19 1;
#X connect 23 0 47 0;
#X connect 23 0 46 0;
#X connect 24 0 5 0;
#X connect 25 0 24 1;
#X connect 26 0 7 0;
#X connect 27 0 20 1;
#X connect 30 0 21 0;
#X connect 32 0 49 0;
#X connect 33 0 13 0;
#X connect 34 0 35 0;
#X connect 35 0 46 1;
#X connect 36 0 30 0;
#X connect 37 0 50 1;
#X connect 39 0 44 0;
#X connect 41 0 50 0;
#X connect 42 0 43 1;
#X connect 43 0 5 0;
#X connect 44 0 40 0;
#X connect 45 0 32 0;
#X connect 46 0 19 0;
#X connect 47 0 24 0;
#X connect 48 0 59 0;
#X connect 49 0 36 0;
#X connect 50 0 51 0;
#X connect 51 0 42 0;
#X connect 52 0 20 0;
#X connect 53 0 54 0;
#X connect 54 0 55 0;
#X connect 55 0 56 0;
#X connect 55 1 56 1;
#X connect 56 0 58 0;
#X connect 57 0 35 1;
#X connect 57 0 47 1;
#X connect 57 0 59 1;
#X connect 58 0 57 0;
#X connect 59 0 23 1;
#X connect 60 0 34 0;
#X connect 61 0 62 0;
#X connect 62 0 60 0;
#X connect 63 0 61 0;
#X connect 64 0 53 0;
#X connect 65 0 66 0;
#X connect 66 0 48 0;
#X connect 67 0 37 0;
