#N canvas 1003 92 828 693 10;
#X obj 82 112 * 127;
#X obj 82 137 mtof;
#X obj 82 168 int;
#X obj 403 118 * 100;
#X obj 403 140 i;
#X obj 218 168 int;
#X obj 202 82 t f f;
#X obj 202 104 *;
#X msg 218 190 Time \$1 Ms;
#X obj 593 148 int;
#X msg 593 170 Dry / Wet \$1 %;
#X msg 403 162 Feedback \$1 %;
#X obj 22 171 hip~;
#X msg 82 190 HiPass \$1 Hz;
#X obj 82 90 r dly-hip;
#X obj 202 132 * 3000;
#X text 33 2 Simple 3 sec Delay Module with a hi-pass filter;
#X obj 20 62 r~ dly-\$1-in;
#X obj 202 60 r dly-\$1-time;
#X obj 383 86 r dly-\$1-fb;
#X obj 532 89 r dly-\$1-dw;
#X obj 593 192 s dly-\$1-dw-label;
#X obj 403 184 s dly-\$1-fb-label;
#X obj 218 212 s dly-\$1-time-label;
#X obj 82 212 s dly-\$1-hip-label;
#X obj 81 480 hip~ 5;
#X obj 82 625 *~;
#N canvas 14 50 526 600 switcher 0;
#X obj 113 261 t b b;
#X obj 113 295 delay 5;
#X obj 263 387 line~;
#X msg 176 296 0 4;
#X obj 133 476 *~;
#X msg 113 327 0;
#X obj 113 220 bang;
#X msg 406 229 1;
#X msg 359 193 1 4;
#X obj 352 143 t b b b;
#X obj 139 506 outlet~;
#X obj 371 507 outlet;
#X obj 112 48 inlet;
#X obj 353 50 inlet;
#X connect 0 0 1 0;
#X connect 0 1 3 0;
#X connect 1 0 5 0;
#X connect 2 0 4 0;
#X connect 2 0 4 1;
#X connect 3 0 2 0;
#X connect 4 0 10 0;
#X connect 5 0 11 0;
#X connect 6 0 0 0;
#X connect 7 0 11 0;
#X connect 8 0 2 0;
#X connect 9 1 8 0;
#X connect 9 2 7 0;
#X connect 12 0 6 0;
#X connect 13 0 9 0;
#X restore 214 576 pd switcher;
#X obj 146 624 *~;
#X obj 214 547 sel 0 1;
#X obj 214 524 tgl 15 0 empty empty empty 17 7 0 10 -262144 -1 -1 1
1;
#X obj 288 600 switch~ 64 1 1;
#X obj 214 495 r dly-\$1-switch;
#X obj 253 517 r \$1-kill-switch;
#X obj 82 659 s~ dly-\$1-outL;
#X obj 222 659 s~ dly-\$1-outR;
#X obj 22 347 delay3sec 5 \$1, f 52;
#X obj 593 126 * 100;
#X obj 81 458 c_xfade, f 65;
#X obj 532 271 lop~ 10;
#X connect 0 0 1 0;
#X connect 1 0 2 0;
#X connect 1 0 12 1;
#X connect 2 0 13 0;
#X connect 3 0 4 0;
#X connect 4 0 11 0;
#X connect 5 0 8 0;
#X connect 6 0 7 0;
#X connect 6 1 7 1;
#X connect 7 0 15 0;
#X connect 8 0 23 0;
#X connect 9 0 10 0;
#X connect 10 0 21 0;
#X connect 11 0 22 0;
#X connect 12 0 36 0;
#X connect 13 0 24 0;
#X connect 14 0 0 0;
#X connect 15 0 5 0;
#X connect 15 0 36 1;
#X connect 17 0 12 0;
#X connect 17 0 38 0;
#X connect 18 0 6 0;
#X connect 19 0 3 0;
#X connect 19 0 36 2;
#X connect 20 0 37 0;
#X connect 20 0 39 0;
#X connect 25 0 26 0;
#X connect 25 0 28 0;
#X connect 26 0 34 0;
#X connect 27 0 26 1;
#X connect 27 0 28 1;
#X connect 27 1 31 0;
#X connect 28 0 35 0;
#X connect 29 0 27 0;
#X connect 29 1 27 1;
#X connect 30 0 29 0;
#X connect 32 0 30 0;
#X connect 33 0 30 0;
#X connect 36 0 38 1;
#X connect 37 0 9 0;
#X connect 38 0 25 0;
#X connect 39 0 38 2;
