#N canvas 286 107 1592 880 10;
#X obj 24 101 r~ inL;
#X obj 82 102 r~ inR;
#X floatatom 883 329 5 0 0 0 - - -, f 5;
#X obj 883 356 s squelch;
#N canvas 6 50 690 470 fft-analysis 0;
#X obj 275 314 *~;
#X obj 257 348 *~;
#X obj 218 348 *~;
#X obj 105 163 *~;
#X obj 66 156 *~;
#X obj 66 182 +~;
#X obj 216 104 *~;
#X obj 253 104 inlet~;
#X obj 216 130 rfft~;
#X obj 42 371 *~;
#X floatatom 458 208 0 0 0 0 - - -;
#X obj 334 177 *~;
#X obj 66 104 *~;
#X obj 103 104 inlet~;
#X obj 45 65 tabreceive~ hanning;
#X obj 66 130 rfft~;
#X obj 218 374 rifft~;
#X obj 42 397 outlet~;
#X obj 297 177 *~;
#X obj 297 203 +~;
#X obj 307 314 sig~ 0.001;
#X text 122 214 modulus;
#X obj 66 208 sqrt~;
#X obj 275 288 *~;
#X obj 457 58 r squelch;
#X obj 329 418 block~ 1024 4;
#X obj 297 229 rsqrt~;
#X obj 341 203 sig~ 1e-20;
#X obj 297 255 clip~;
#X obj 458 130 t f f;
#X obj 458 156 *;
#X obj 458 182 * 0.01;
#X obj 456 94 max 1;
#X obj 559 58 loadbang;
#X obj 458 234 max 0;
#X connect 0 0 1 1;
#X connect 0 0 2 1;
#X connect 1 0 16 1;
#X connect 2 0 16 0;
#X connect 3 0 5 1;
#X connect 4 0 5 0;
#X connect 5 0 22 0;
#X connect 6 0 8 0;
#X connect 7 0 6 1;
#X connect 8 0 18 0;
#X connect 8 0 18 1;
#X connect 8 0 2 0;
#X connect 8 1 11 0;
#X connect 8 1 11 1;
#X connect 8 1 1 0;
#X connect 9 0 17 0;
#X connect 10 0 34 0;
#X connect 11 0 19 1;
#X connect 12 0 15 0;
#X connect 13 0 12 1;
#X connect 14 0 12 0;
#X connect 14 0 6 0;
#X connect 14 0 9 0;
#X connect 15 0 4 0;
#X connect 15 0 4 1;
#X connect 15 1 3 0;
#X connect 15 1 3 1;
#X connect 16 0 9 1;
#X connect 18 0 19 0;
#X connect 19 0 26 0;
#X connect 20 0 0 1;
#X connect 22 0 23 0;
#X connect 23 0 0 0;
#X connect 24 0 32 0;
#X connect 26 0 28 0;
#X connect 27 0 26 0;
#X connect 28 0 23 1;
#X connect 29 0 30 0;
#X connect 29 0 30 1;
#X connect 30 0 31 0;
#X connect 31 0 10 0;
#X connect 32 0 29 0;
#X connect 33 0 32 0;
#X connect 34 0 28 2;
#X restore 114 423 pd fft-analysis;
#X obj 158 65 r notes;
#X obj 597 339 sig~;
#X obj 596 370 lop~ 5;
#X obj 597 268 / 100;
#X obj 597 290 mtof;
#X obj 597 312 / 8.1785;
#X obj 597 243 * 2400;
#X obj 597 218 r knob1;
#X obj 497 580 loadbang;
#N canvas 46 50 723 534 hanning-window 0;
#X obj 122 273 phasor~;
#X obj 122 311 cos~;
#X obj 31 436 tabwrite~ hanning;
#X obj 40 336 -~;
#X obj 37 290 sig~ 1;
#X msg 50 240 0;
#X text 188 18 CALCULATE HANNING;
#X text 188 36 WINDOW TABLE;
#N canvas 0 50 450 300 (subpatch) 0;
#X array hanning 1024 float 0;
#X coords 0 1 1023 -1 400 300 1;
#X restore 342 235 graph;
#X obj 123 227 sig~;
#X text 156 173 sample rate / window size;
#X msg 31 191 bang;
#X obj 88 357 sig~ 0.5;
#X obj 66 399 *~;
#X obj 124 106 samplerate~;
#X obj 33 31 r window-size;
#X obj 123 175 /;
#X msg 262 106 \; hanning resize \$1;
#X obj 31 70 t b f f;
#X connect 0 0 1 0;
#X connect 1 0 3 1;
#X connect 3 0 13 0;
#X connect 4 0 3 0;
#X connect 5 0 0 1;
#X connect 9 0 0 0;
#X connect 11 0 2 0;
#X connect 11 0 5 0;
#X connect 12 0 13 1;
#X connect 13 0 2 0;
#X connect 14 0 16 0;
#X connect 15 0 18 0;
#X connect 16 0 9 0;
#X connect 18 0 14 0;
#X connect 18 0 11 0;
#X connect 18 1 16 1;
#X connect 18 2 17 0;
#X restore 494 645 pd hanning-window;
#X msg 497 602 \; window-size 1024 \;;
#X obj 72 575 *~ 1;
#X obj 883 223 r knob2;
#X obj 883 299 * 50;
#X obj 883 271 *;
#X obj 883 245 t f f;
#X obj 595 405 s~ tune;
#X obj 158 127 unpack;
#X obj 158 164 poly 4 1;
#X obj 158 202 pack 0 0 0;
#X obj 158 240 route 1 2 3 4;
#X obj 201 277 tone;
#X obj 158 277 tone;
#X obj 247 275 tone;
#X obj 288 275 tone;
#X obj 308 56 sel 1;
#X obj 308 12 r fs;
#X obj 357 26 r aux;
#N canvas 291 87 886 799 latch 0;
#X obj 43 371 latch-notes;
#X obj 263 200 bng 15 250 50 0 empty empty empty 17 7 0 10 -262144
-1 -1;
#X obj 263 232 tgl 15 0 empty empty empty 17 7 0 10 -262144 -1 -1 1
1;
#X obj 173 298 spigot 1;
#X obj 43 298 spigot 0;
#X obj 263 258 == 0;
#X obj 309 312 bng 15 250 50 0 empty empty empty 17 7 0 10 -262144
-1 -1;
#X obj 263 160 t b b, f 7;
#X obj 263 368 sel 0 1;
#X obj 263 134 inlet;
#X obj 43 626 outlet;
#X obj 43 106 inlet;
#X text 311 135 bang enable / disables latch;
#X text 44 53 incoming notes get sent through latch if enabled \, or
directly to output if disabled;
#X msg 286 458 \; screenLine5 Aux / FS: Latch OFF \;;
#X msg 263 579 \; screenLine5 Aux / FS: Latch ON \;;
#X text 323 367 Update Screen & LED;
#X msg 273 545 \; led 2;
#X msg 299 418 \; led 0;
#X connect 0 0 10 0;
#X connect 1 0 2 0;
#X connect 2 0 5 0;
#X connect 2 0 4 1;
#X connect 3 0 10 0;
#X connect 4 0 0 0;
#X connect 5 0 3 1;
#X connect 5 0 8 0;
#X connect 6 0 0 1;
#X connect 7 0 1 0;
#X connect 7 1 6 0;
#X connect 8 0 15 0;
#X connect 8 0 17 0;
#X connect 8 1 14 0;
#X connect 8 1 18 0;
#X connect 9 0 7 0;
#X connect 11 0 4 0;
#X connect 11 0 3 0;
#X restore 158 96 pd latch;
#X obj 688 561 loadbang;
#X obj 230 497 r wetdry;
#X obj 516 308 - 1200;
#X obj 516 330 i;
#X obj 516 352 change -1;
#X msg 516 426 \; screenLine1 1: Tune \$1 cents \;;
#X text 503 19 4 voice vocoder;
#X obj 811 268 * 100;
#X obj 811 290 i;
#X obj 811 312 change -1;
#X msg 811 416 \; screenLine2 2: Squelch \$1 % \;;
#X obj 1047 261 * 100;
#X obj 1047 283 i;
#X obj 1047 305 change -1;
#X obj 1119 349 s wetdry;
#X msg 1047 421 \; screenLine3 3: Wet / Dry \$1 % \;;
#X obj 1119 216 r knob3;
#X text 240 409 vocoder processes microphone input against up to 4
tone voices, f 26;
#X obj 147 839 throw~ outR;
#X obj 38 836 throw~ outL;
#X obj 1327 168 r knob4;
#X obj 1327 385 change -1;
#X obj 1327 439 s screenLine4;
#X msg 107 690 wet \$1;
#X msg 121 740 dry \$1;
#X obj 1327 336 * 100;
#X obj 1327 358 i;
#X obj 76 787 freeverb~;
#X msg 1327 417 4: Reverb \$1 %;
#X msg 688 586 \; screenLine1 1: Tune \; screenLine2 2: Squelch \;
screenLine3 3: Wet / Dry \; screenLine4 4: Reverb \; screenLine5 Aux
/ Fs: Latch \;;
#X obj 1275 306 - 1;
#X obj 1275 333 abs;
#X obj 134 591 r rwet;
#X obj 206 624 r rdry;
#X obj 1275 360 s rdry;
#X obj 1350 247 s rwet;
#X obj 1350 215 * 0.5;
#X msg 126 617 \$1 40;
#X msg 227 656 \$1 40;
#X obj 224 686 line 0 1;
#X obj 123 647 line 0 1;
#X obj 9 664 loadbang;
#X obj 57 184 lop~ 500;
#N canvas 6 50 612 483 crossfade 0;
#X obj 33 48 inlet~;
#X obj 211 67 inlet;
#X obj 39 327 outlet~;
#X obj 49 194 expr cos($f1 * 3.14159 / 2);
#X obj 244 194 expr sin($f1 * 3.14159 / 2);
#X obj 211 143 clip 0 1;
#N canvas 7 50 594 632 pan_core 0;
#X obj 21 106 inlet~;
#X obj 226 126 inlet;
#X obj 59 259 *~;
#X obj 123 303 outlet~;
#X obj 189 258 *~;
#X obj 205 234 line~;
#X obj 75 234 line~;
#X obj 96 127 inlet;
#X obj 179 104 inlet~;
#X text 223 350 comment;
#X obj 75 195 pack f 5;
#X obj 205 195 pack f 5;
#X text 202 346 Hans-Christoph Steiner \, 2004;
#X text 202 332 Adapted from [pan_core~];
#X connect 0 0 2 0;
#X connect 1 0 11 0;
#X connect 2 0 3 0;
#X connect 4 0 3 0;
#X connect 5 0 4 1;
#X connect 6 0 2 1;
#X connect 7 0 10 0;
#X connect 8 0 4 0;
#X connect 10 0 6 0;
#X connect 11 0 5 0;
#X restore 39 266 pd pan_core;
#X text 165 300 Adapted from [equal_power_pan~] \, Hans-Christoph Steiner
\, 2004;
#X text 320 312 comment;
#X obj 128 46 inlet~;
#X connect 0 0 6 0;
#X connect 1 0 5 0;
#X connect 3 0 6 1;
#X connect 4 0 6 3;
#X connect 5 0 3 0;
#X connect 5 0 4 0;
#X connect 6 0 2 0;
#X connect 9 0 6 2;
#X restore 65 525 pd crossfade;
#X msg 10 701 roomsize 0.6;
#X text 506 46 Based on the fft example from Pd. Available from the
help browser: Help -> Browser -> Pure Data -> 1.stuff -> soundfile-tools
-> 6.vocoder, f 144;
#X connect 0 0 76 0;
#X connect 1 0 76 0;
#X connect 2 0 3 0;
#X connect 4 0 77 1;
#X connect 5 0 33 0;
#X connect 6 0 7 0;
#X connect 7 0 21 0;
#X connect 8 0 9 0;
#X connect 9 0 10 0;
#X connect 10 0 6 0;
#X connect 11 0 8 0;
#X connect 11 0 36 0;
#X connect 12 0 11 0;
#X connect 13 0 15 0;
#X connect 16 0 61 1;
#X connect 16 0 61 0;
#X connect 17 0 20 0;
#X connect 17 0 41 0;
#X connect 18 0 2 0;
#X connect 19 0 18 0;
#X connect 20 0 19 0;
#X connect 20 1 19 1;
#X connect 22 0 23 0;
#X connect 22 1 23 1;
#X connect 23 0 24 0;
#X connect 23 1 24 1;
#X connect 23 2 24 2;
#X connect 24 0 25 0;
#X connect 25 0 27 0;
#X connect 25 1 26 0;
#X connect 25 2 28 0;
#X connect 25 3 29 0;
#X connect 26 0 4 1;
#X connect 27 0 4 1;
#X connect 28 0 4 1;
#X connect 29 0 4 1;
#X connect 30 0 33 1;
#X connect 31 0 30 0;
#X connect 32 0 30 0;
#X connect 33 0 22 0;
#X connect 34 0 63 0;
#X connect 35 0 77 2;
#X connect 36 0 37 0;
#X connect 37 0 38 0;
#X connect 38 0 39 0;
#X connect 41 0 42 0;
#X connect 42 0 43 0;
#X connect 43 0 44 0;
#X connect 45 0 46 0;
#X connect 46 0 47 0;
#X connect 47 0 49 0;
#X connect 50 0 45 0;
#X connect 50 0 48 0;
#X connect 54 0 59 0;
#X connect 54 0 70 0;
#X connect 55 0 62 0;
#X connect 57 0 61 0;
#X connect 58 0 61 0;
#X connect 59 0 60 0;
#X connect 60 0 55 0;
#X connect 61 0 53 0;
#X connect 61 1 52 0;
#X connect 62 0 56 0;
#X connect 64 0 65 0;
#X connect 65 0 68 0;
#X connect 66 0 71 0;
#X connect 67 0 72 0;
#X connect 70 0 69 0;
#X connect 70 0 64 0;
#X connect 71 0 74 0;
#X connect 72 0 73 0;
#X connect 73 0 58 0;
#X connect 74 0 57 0;
#X connect 75 0 78 0;
#X connect 76 0 4 0;
#X connect 76 0 77 0;
#X connect 77 0 16 0;
#X connect 78 0 61 0;
