#N canvas 109 129 908 540 10;
#X obj 76 31 inlet;
#X obj 693 42 inlet;
#X obj 693 64 s \$0-set-y;
#X obj 402 162 r \$0-set-y;
#X obj 403 183 r \$0-set-y;
#X obj 402 207 r \$0-set-y;
#X obj 403 228 r \$0-set-y;
#X obj 402 252 r \$0-set-y;
#X obj 403 273 r \$0-set-y;
#X obj 402 297 r \$0-set-y;
#X obj 403 318 r \$0-set-y;
#X obj 402 342 r \$0-set-y;
#X obj 403 363 r \$0-set-y;
#X obj 422 387 r \$0-set-y;
#X obj 423 408 r \$0-set-y;
#X obj 422 432 r \$0-set-y;
#X obj 423 453 r \$0-set-y;
#X obj 422 477 r \$0-set-y;
#X msg 76 101 /oled/gFlip 3;
#X obj 76 124 s oscOut;
#X obj 75 75 del 1;
#X obj 218 319 list-split-print 7 \$1 \$2;
#X obj 218 162 list-split-print 0 \$1 \$2;
#X obj 218 184 list-split-print 1 \$1 \$2;
#X obj 218 207 list-split-print 2 \$1 \$2;
#X obj 218 229 list-split-print 3 \$1 \$2;
#X obj 218 252 list-split-print 4 \$1 \$2;
#X obj 218 274 list-split-print 5 \$1 \$2;
#X obj 219 297 list-split-print 6 \$1 \$2;
#X obj 218 342 list-split-print 8 \$1 \$2;
#X obj 218 364 list-split-print 9 \$1 \$2;
#X obj 218 387 list-split-print 10 \$1 \$2;
#X obj 218 409 list-split-print 11 \$1 \$2;
#X obj 218 432 list-split-print 12 \$1 \$2;
#X obj 217 455 list-split-print 13 \$1 \$2;
#X obj 219 478 list-split-print 14 \$1 \$2;
#X obj 76 53 t b a, f 23;
#X connect 0 0 36 0;
#X connect 1 0 2 0;
#X connect 3 0 22 1;
#X connect 4 0 23 1;
#X connect 5 0 24 1;
#X connect 6 0 25 1;
#X connect 7 0 26 1;
#X connect 8 0 27 1;
#X connect 9 0 28 1;
#X connect 10 0 21 1;
#X connect 11 0 29 1;
#X connect 12 0 30 1;
#X connect 13 0 31 1;
#X connect 14 0 32 1;
#X connect 15 0 33 1;
#X connect 16 0 34 1;
#X connect 17 0 35 1;
#X connect 18 0 19 0;
#X connect 20 0 18 0;
#X connect 21 0 29 0;
#X connect 22 0 23 0;
#X connect 23 0 24 0;
#X connect 24 0 25 0;
#X connect 25 0 26 0;
#X connect 26 0 27 0;
#X connect 27 0 28 0;
#X connect 28 0 21 0;
#X connect 29 0 30 0;
#X connect 30 0 31 0;
#X connect 31 0 32 0;
#X connect 32 0 33 0;
#X connect 33 0 34 0;
#X connect 34 0 35 0;
#X connect 36 0 20 0;
#X connect 36 1 22 0;
