#N canvas 617 129 1131 606 10;
#X obj 121 85 r~ inL;
#X obj 167 466 throw~ filtWolf-bus;
#X obj 241 29 r wolf-action;
#X obj 241 51 route \$1;
#X text 544 55 1: number;
#X text 543 75 2: bp center freq;
#X text 543 91 3: bp q;
#X obj 187 266 *~;
#X obj 241 180 vline~;
#X obj 300 219 r wolf-list-sum;
#X msg 300 242 1 \$1;
#X obj 233 262 loadbang;
#X obj 233 284 \$2;
#X obj 188 336 vcf~ \$3;
#X obj 300 264 /;
#X obj 300 286 rmstodb;
#X obj 300 308 / 100;
#X obj 188 358 vcf~ \$3, f 9;
#X obj 52 352 tabread~ skel-band-table, f 16;
#X obj 233 306 lop~ 5;
#X obj 168 435 *~;
#X obj 241 73 sel 0 1;
#X obj 241 202 *~;
#X obj 364 88 r wolf-filter-ramp;
#X msg 241 95 0;
#X msg 272 95 1;
#X obj 241 224 *~;
#X obj 187 403 *~, f 15;
#X obj 240 121 pack 0 5;
#X obj 261 142 pack 0 5;
#X obj 558 123 r notes;
#X obj 558 220 abs;
#X obj 558 199 expr if ($f1 > 59 \, $f1 - 60 \, $f1 - 12);
#X obj 558 286 sel \$1;
#X obj 560 312 tgl 15 0 empty empty empty 17 7 0 10 -262144 -1 -1 0
1;
#X obj 558 177 stripnote;
#X obj 187 84 r~ inR;
#X obj 558 241 % 15;
#X connect 0 0 7 0;
#X connect 2 0 3 0;
#X connect 3 0 21 0;
#X connect 7 0 13 0;
#X connect 8 0 22 0;
#X connect 8 0 22 1;
#X connect 9 0 10 0;
#X connect 10 0 14 0;
#X connect 11 0 12 0;
#X connect 12 0 19 0;
#X connect 13 0 17 0;
#X connect 14 0 15 0;
#X connect 15 0 16 0;
#X connect 16 0 27 1;
#X connect 17 0 27 0;
#X connect 18 0 20 0;
#X connect 19 0 13 1;
#X connect 19 0 17 1;
#X connect 19 0 18 0;
#X connect 20 0 1 0;
#X connect 21 0 24 0;
#X connect 21 1 25 0;
#X connect 22 0 26 0;
#X connect 22 0 26 1;
#X connect 23 0 29 1;
#X connect 24 0 29 0;
#X connect 25 0 28 0;
#X connect 26 0 7 1;
#X connect 27 0 20 1;
#X connect 28 0 8 0;
#X connect 29 0 8 0;
#X connect 30 0 35 0;
#X connect 31 0 37 0;
#X connect 32 0 31 0;
#X connect 33 0 34 0;
#X connect 34 0 21 0;
#X connect 35 0 32 0;
#X connect 36 0 7 0;
#X connect 37 0 33 0;
