#N canvas 545 273 1190 695 12;
#X obj 138 22 inlet;
#X obj 345 425 tabwrite drawbar-tab;
#X obj 482 394 i \$1;
#X obj 345 354 t a b;
#X obj 138 308 t a a a, f 30;
#X obj 350 279 tabread drawbar-tab;
#X obj 702 134 i \$1;
#X obj 702 100 r init-bars;
#X obj 138 46 route bar wave, f 48;
#X obj 940 393 i \$1;
#X obj 803 353 t a b;
#X obj 596 307 t a a a, f 30;
#X obj 808 278 tabread wave-tab;
#X obj 803 424 tabwrite wave-tab;
#X obj 702 158 t a a;
#X obj 651 384 makefilename wave-%d;
#X obj 231 154 r cc-db-set-\$1;
#X obj 598 38 r cc-wave-set-\$1;
#X obj 231 198 / 127;
#X obj 598 123 * 7;
#X obj 598 180 i;
#X obj 598 147 + 0.4999;
#X obj 598 82 / 127;
#X obj 598 277 change -1;
#X obj 688 576 s wave-read-set;
#X obj 708 497 i \$1;
#X obj 713 457 t b a;
#X obj 708 525 pack 0 s;
#X obj 238 462 pack 0 0;
#X obj 238 434 i \$1;
#X obj 243 394 t b a;
#X obj 241 541 s drawbar-ctl;
#X obj 74 488 s draw-single-\$1;
#X obj 517 535 s draw-single-wave-\$1;
#X connect 0 0 8 0;
#X connect 2 0 1 1;
#X connect 3 0 1 0;
#X connect 3 1 2 0;
#X connect 4 0 32 0;
#X connect 4 1 30 0;
#X connect 4 2 3 0;
#X connect 5 0 30 0;
#X connect 6 0 14 0;
#X connect 7 0 6 0;
#X connect 8 0 4 0;
#X connect 8 1 23 0;
#X connect 9 0 13 1;
#X connect 10 0 13 0;
#X connect 10 1 9 0;
#X connect 11 0 33 0;
#X connect 11 1 15 0;
#X connect 11 2 10 0;
#X connect 12 0 15 0;
#X connect 14 0 5 0;
#X connect 14 1 12 0;
#X connect 15 0 26 0;
#X connect 16 0 18 0;
#X connect 17 0 22 0;
#X connect 18 0 4 0;
#X connect 19 0 21 0;
#X connect 20 0 23 0;
#X connect 21 0 20 0;
#X connect 22 0 19 0;
#X connect 23 0 11 0;
#X connect 25 0 27 0;
#X connect 26 0 25 0;
#X connect 26 1 27 1;
#X connect 27 0 24 0;
#X connect 28 0 31 0;
#X connect 29 0 28 0;
#X connect 30 0 29 0;
#X connect 30 1 28 1;
