#N canvas 360 207 1471 807 12;
#X obj 184 600 vline~;
#X obj 184 634 *~;
#X obj 127 65 r \$0-vel;
#X obj 184 688 outlet~;
#X obj 1097 650 outlet;
#X text 699 593 2 switch~;
#X msg 523 533 stop;
#X obj 382 494 t b b;
#X obj 1052 477 t b b;
#X obj 60 345 t b b b, f 52;
#X msg 958 574 stop;
#X obj 896 520 t b b;
#X obj 915 658 del 8;
#X msg 59 395 0 8;
#X obj 480 617 delay 10;
#N canvas 4 50 450 300 live-sustain 0;
#X obj 58 219 outlet;
#X obj 58 170 pack 0 10;
#X obj 58 66 spigot 0, f 17;
#X obj 260 29 inlet;
#X obj 58 37 r \$0-s;
#X connect 1 0 0 0;
#X connect 2 0 1 0;
#X connect 3 0 2 1;
#X connect 4 0 2 0;
#X restore 326 313 pd live-sustain;
#X obj 184 238 i 0;
#X obj 480 646 i 0;
#X obj 1097 563 i 1;
#X obj 184 267 t a a;
#X obj 915 687 i 0;
#X obj 100 33 inlet;
#X obj 331 40 inlet;
#X obj 402 37 inlet;
#X obj 469 38 inlet;
#X obj 617 38 inlet;
#X obj 331 71 s \$0-a;
#X obj 402 72 s \$0-d;
#X obj 469 100 s \$0-s;
#X obj 617 74 s \$0-r;
#X obj 469 72 clip 0 1;
#X obj 184 304 pack 0 \$4;
#X obj 310 212 r \$0-r;
#X obj 518 325 r \$0-d;
#X obj 540 571 r \$0-r;
#X obj 100 109 sel -1 0, f 27;
#X obj 497 260 pack 0 0;
#X obj 550 231 r \$0-a;
#X obj 451 228 t a b a;
#X obj 474 335 f;
#X obj 562 347 r \$0-a;
#X obj 492 297 r \$0-s;
#X obj 474 379 pack \$3 \$2 \$1;
#X obj 421 446 s \$0-stop;
#X obj 1111 532 s \$0-stop;
#X obj 523 501 r \$0-stop;
#X obj 947 495 r \$0-stop;
#X obj 184 209 t b b b;
#X obj 240 239 s \$0-stop;
#X obj 451 170 t a b b, f 45;
#X obj 730 37 inlet;
#X obj 731 61 route lfo-rate lfo-depth;
#X obj 730 85 s \$0-lfo-time;
#X obj 812 115 s \$0-lfo-depth;
#X connect 0 0 1 0;
#X connect 0 0 1 1;
#X connect 1 0 3 0;
#X connect 2 0 35 0;
#X connect 6 0 14 0;
#X connect 7 0 14 0;
#X connect 7 1 6 0;
#X connect 8 0 18 0;
#X connect 8 1 44 0;
#X connect 9 0 13 0;
#X connect 9 1 11 0;
#X connect 9 2 43 0;
#X connect 10 0 12 0;
#X connect 11 0 12 0;
#X connect 11 1 10 0;
#X connect 12 0 20 0;
#X connect 13 0 0 0;
#X connect 14 0 17 0;
#X connect 15 0 0 0;
#X connect 16 0 19 0;
#X connect 17 0 4 0;
#X connect 18 0 4 0;
#X connect 19 0 31 0;
#X connect 19 1 15 0;
#X connect 20 0 4 0;
#X connect 21 0 35 0;
#X connect 22 0 26 0;
#X connect 23 0 27 0;
#X connect 24 0 30 0;
#X connect 25 0 29 0;
#X connect 30 0 28 0;
#X connect 31 0 0 0;
#X connect 32 0 31 1;
#X connect 33 0 42 1;
#X connect 34 0 14 1;
#X connect 35 0 9 0;
#X connect 35 1 47 0;
#X connect 35 2 49 0;
#X connect 36 0 0 0;
#X connect 37 0 36 1;
#X connect 38 0 15 0;
#X connect 38 1 39 0;
#X connect 38 2 36 0;
#X connect 39 0 42 0;
#X connect 40 0 42 2;
#X connect 41 0 39 1;
#X connect 42 0 0 0;
#X connect 45 0 6 0;
#X connect 46 0 10 0;
#X connect 47 0 16 0;
#X connect 47 1 7 0;
#X connect 47 2 48 0;
#X connect 49 0 38 0;
#X connect 49 2 8 0;
#X connect 50 0 51 0;
#X connect 51 0 52 0;
#X connect 51 1 53 0;
