#N canvas 212 202 765 579 12;
#X obj 31 28 inlet;
#X text 232 26 Arg 1: attack ms;
#X text 233 54 Arg 2: Decay ms;
#X obj 81 357 vline~;
#X obj 436 359 vline~;
#X obj 436 383 *~;
#X obj 436 407 *~;
#X obj 220 224 r \$0-a;
#X obj 183 261 pack 0 \$1 0;
#X obj 155 219 r \$0-a;
#X obj 80 490 outlet~;
#X obj 81 174 t b b b, f 25;
#X obj 517 236 r \$0-a;
#X obj 476 204 r \$0-d;
#X obj 436 268 pack 0 \$2 \$1;
#X obj 653 246 r \$0-a;
#X obj 579 278 pack 1 0 \$1;
#X obj 436 153 t b b, f 18;
#X obj 81 96 t b b;
#X obj 295 262 pack 0 0;
#X obj 81 381 sqrt~;
#X obj 81 405 sqrt~;
#X obj 81 256 pack 0 0 \$1;
#X connect 0 0 18 0;
#X connect 3 0 20 0;
#X connect 4 0 5 0;
#X connect 4 0 5 1;
#X connect 5 0 6 0;
#X connect 5 0 6 1;
#X connect 6 0 10 0;
#X connect 7 0 8 1;
#X connect 8 0 3 0;
#X connect 9 0 22 2;
#X connect 11 0 22 0;
#X connect 11 1 8 0;
#X connect 11 2 19 0;
#X connect 12 0 14 2;
#X connect 13 0 14 1;
#X connect 14 0 4 0;
#X connect 15 0 16 2;
#X connect 16 0 4 0;
#X connect 17 0 14 0;
#X connect 17 1 16 0;
#X connect 18 0 11 0;
#X connect 18 1 17 0;
#X connect 19 0 3 0;
#X connect 20 0 21 0;
#X connect 21 0 10 0;
#X connect 22 0 3 0;
