#N canvas 225 50 1107 847 12;
#X text 542 18 arg1: xPosition;
#X text 542 37 arg2: yPosition;
#X text 542 57 arg3: width;
#X text 542 77 arg4: height;
#X text 542 95 arg5: default name;
#X text 542 111 arg6: sample length in samples;
#X obj 25 21 inlet;
#X text 77 18 bang;
#X obj 25 392 tabread \$5;
#X obj 25 316 t a a, f 21;
#N canvas 635 296 387 574 calculate-y 0;
#X obj 37 37 inlet;
#X obj 37 61 clip -1 1;
#X obj 37 85 / 2;
#X obj 37 109 + 0.5;
#X obj 37 144 swap 1;
#X obj 37 168 -;
#X obj 37 212 * \$4;
#X obj 37 236 + 0.49999;
#X obj 37 260 i;
#X obj 37 364 outlet;
#X obj 37 314 + \$2;
#X obj 77 281 r \$0-yPos;
#X connect 0 0 1 0;
#X connect 1 0 2 0;
#X connect 2 0 3 0;
#X connect 3 0 4 0;
#X connect 4 0 5 0;
#X connect 4 1 5 1;
#X connect 5 0 6 0;
#X connect 6 0 7 0;
#X connect 7 0 8 0;
#X connect 8 0 10 0;
#X connect 10 0 9 0;
#X connect 11 0 10 1;
#X restore 25 431 pd calculate-y;
#X obj 25 818 list trim;
#X obj 25 466 swap 0 0, f 21;
#X obj 340 25 inlet;
#N canvas 4 50 450 300 messages 0;
#X obj 37 37 inlet;
#X obj 37 61 route name;
#X obj 37 85 s \$0-name;
#X connect 0 0 1 0;
#X connect 1 0 2 0;
#X restore 340 49 pd messages;
#X obj 240 289 r \$0-name;
#X obj 240 313 list prepend set;
#X obj 240 337 list trim;
#X obj 25 852 s oscOut;
#X obj 25 109 f \$3;
#N canvas 564 247 450 300 calculate-step 0;
#X obj 29 165 i;
#X obj 29 141 + 0.49999;
#X obj 29 30 inlet;
#X obj 29 236 outlet;
#X obj 29 54 t b;
#X obj 82 42 r \$0-sample;
#X obj 29 83 f \$6;
#X obj 29 117 / \$3;
#X obj 80 79 r \$0-width;
#X obj 80 103 / 2;
#X connect 0 0 3 0;
#X connect 1 0 0 0;
#X connect 2 0 4 0;
#X connect 4 0 6 0;
#X connect 5 0 6 1;
#X connect 6 0 7 0;
#X connect 7 0 1 0;
#X connect 8 0 9 0;
#X connect 9 0 7 1;
#X restore 122 219 pd calculate-step;
#X obj 25 340 *, f 15;
#X obj 50 82 r \$0-width;
#X obj 169 409 + \$1;
#X obj 194 379 r \$0-xPos;
#X obj 25 184 t a b, f 14;
#X obj 25 794 list prepend /oled/gLine 3;
#X obj 99 625 list store, f 28;
#X obj 25 562 t a a b, f 11;
#X obj 25 663 list prepend;
#X obj 25 767 list append 1;
#X obj 25 538 pack 0 50, f 21;
#X obj 25 61 t b b, f 48;
#X obj 25 743 spigot 0;
#X obj 25 687 t b a;
#X obj 25 711 1;
#X obj 326 576 t b b;
#X obj 323 689 0;
#X obj 129 25 bng 15 250 50 0 empty empty empty 17 7 0 10 -262144 -1
-1;
#X obj 25 269 cg-burst-delay 0.5 1;
#X connect 6 0 32 0;
#X connect 8 0 10 0;
#X connect 9 0 21 0;
#X connect 9 1 23 0;
#X connect 10 0 12 0;
#X connect 11 0 18 0;
#X connect 12 0 31 0;
#X connect 12 1 31 1;
#X connect 13 0 14 0;
#X connect 15 0 16 0;
#X connect 16 0 17 0;
#X connect 17 0 8 0;
#X connect 19 0 25 0;
#X connect 20 0 21 1;
#X connect 21 0 8 0;
#X connect 22 0 19 1;
#X connect 23 0 12 1;
#X connect 24 0 23 1;
#X connect 25 0 39 0;
#X connect 25 1 20 0;
#X connect 26 0 11 0;
#X connect 27 0 29 1;
#X connect 28 0 29 0;
#X connect 28 1 27 1;
#X connect 28 2 27 0;
#X connect 29 0 34 0;
#X connect 30 0 26 0;
#X connect 31 0 28 0;
#X connect 32 0 19 0;
#X connect 32 1 36 0;
#X connect 33 0 30 0;
#X connect 34 0 35 0;
#X connect 34 1 33 0;
#X connect 35 0 33 1;
#X connect 36 0 27 1;
#X connect 36 1 37 0;
#X connect 37 0 33 1;
#X connect 38 0 32 0;
#X connect 39 0 9 0;
