#N canvas 726 320 738 547 12;
#X obj 71 23 inlet~;
#X obj 282 25 inlet;
#X text 320 21 0-1 float;
#X text 129 24 mono signal;
#X obj 70 331 *~, f 11;
#X obj 277 338 *~, f 15;
#X obj 282 49 t a a, f 19;
#X obj 282 97 swap 1;
#X obj 282 121 -;
#X obj 282 146 sqrt;
#X obj 412 146 sqrt;
#X obj 282 170 pack 0 10;
#X obj 412 170 pack 0 10;
#X obj 412 194 vline~;
#X obj 282 194 vline~;
#X obj 70 405 outlet~;
#X obj 277 402 outlet~;
#X connect 0 0 4 0;
#X connect 0 0 5 0;
#X connect 1 0 6 0;
#X connect 4 0 15 0;
#X connect 5 0 16 0;
#X connect 6 0 7 0;
#X connect 6 1 10 0;
#X connect 7 0 8 0;
#X connect 7 1 8 1;
#X connect 8 0 9 0;
#X connect 9 0 11 0;
#X connect 10 0 12 0;
#X connect 11 0 14 0;
#X connect 12 0 13 0;
#X connect 13 0 5 1;
#X connect 14 0 4 1;
