#N canvas 181 137 1097 768 16;
#X obj 232 50 inlet;
#X text 334 43 8th;
#X obj 41 56 inlet;
#X text 100 61 ticks;
#X obj 101 616 cg-tick-counter;
#X msg 248 487 syncStart;
#X obj 436 492 list prepend length;
#X obj 436 521 list trim;
#X msg 360 486 stop;
#X obj 232 108 s \$0-length;
#X obj 436 453 r \$0-length;
#X obj 101 665 sel 0;
#X obj 358 114 s \$0-reset;
#X obj 232 79 route length reset stop, f 27;
#X obj 475 116 s \$0-stop;
#X obj 360 411 r \$0-stop;
#X obj 241 416 r \$0-reset;
#X obj 101 694 outlet;
#X connect 0 0 13 0;
#X connect 2 0 4 0;
#X connect 4 0 11 0;
#X connect 5 0 4 1;
#X connect 6 0 7 0;
#X connect 7 0 4 1;
#X connect 8 0 4 1;
#X connect 10 0 6 0;
#X connect 11 0 17 0;
#X connect 13 0 9 0;
#X connect 13 1 12 0;
#X connect 13 2 14 0;
#X connect 15 0 8 0;
#X connect 16 0 5 0;
