#N canvas 837 104 916 734 12;
#X obj 20 20 inlet~;
#X obj 126 20 inlet~;
#X obj 20 424 *~;
#X obj 126 471 *~;
#X obj 20 508 outlet~;
#X text 340 1 a linear crossfader with steepness control;
#X text 340 28 Arg 1: steepness ( 1 - inf ) 10 is pretty steep;
#X obj 221 44 inlet~;
#X obj 221 88 clip~ 0 1;
#X obj 221 405 clip~ 0 1;
#X obj 331 315 clip~ 0 1;
#X obj 295 113 sig~ 1;
#X obj 295 137 -~;
#X connect 0 0 2 0;
#X connect 1 0 3 0;
#X connect 2 0 4 0;
#X connect 3 0 4 0;
#X connect 7 0 8 0;
#X connect 8 0 12 1;
#X connect 8 0 9 0;
#X connect 9 0 3 1;
#X connect 10 0 2 1;
#X connect 11 0 12 0;
#X connect 12 0 10 0;
