#N canvas 56 124 837 585 12;
#X obj 68 49 inlet~;
#X obj 68 103 *~ \$1;
#X obj 198 42 inlet;
#X obj 198 66 route init;
#X obj 198 90 i \$1;
#X obj 198 114 + 1;
#X obj 68 197 /~ \$1;
#X obj 234 206 tabread~ main-org;
#X obj 234 141 sig~ \$1;
#X obj 68 381 *~;
#X obj 67 462 outlet~;
#X obj 234 165 -~ 1;
#X obj 67 166 osc~;
#X connect 0 0 1 0;
#X connect 1 0 12 0;
#X connect 2 0 3 0;
#X connect 3 0 4 0;
#X connect 4 0 5 0;
#X connect 6 0 9 0;
#X connect 7 0 9 1;
#X connect 8 0 11 0;
#X connect 9 0 10 0;
#X connect 11 0 7 0;
#X connect 12 0 6 0;
