#N canvas 29 62 785 905 12;
#X obj 180 26 inlet;
#X obj 24 347 wave-read~ \$1;
#X obj 25 461 *~, f 7;
#X obj 180 50 route init phase vel;
#N canvas 571 189 520 416 numbers 0;
#X obj 180 108 i \$1;
#X obj 180 74 t b;
#X obj 180 26 inlet;
#X obj 222 296 outlet;
#X obj 154 296 outlet;
#X obj 294 297 outlet;
#X obj 180 152 text get partial-tune;
#X obj 180 176 unpack 0 0 0;
#X connect 0 0 6 0;
#X connect 1 0 0 0;
#X connect 2 0 1 0;
#X connect 6 0 7 0;
#X connect 7 0 4 0;
#X connect 7 1 3 0;
#X connect 7 2 5 0;
#X restore 180 175 pd numbers;
#N canvas 21 50 874 767 numbers 0;
#X obj 160 132 i \$1;
#X obj 160 156 sel 0 1 2 3 4 5 6 7 8, f 40;
#X obj 161 231 f 1.5;
#X obj 196 206 i 1;
#X obj 160 98 t b;
#X obj 160 50 inlet;
#X obj 349 236 f 6;
#X obj 124 224 f 2;
#X obj 216 234 f 2;
#X obj 243 209 i 3;
#X obj 276 236 f 4;
#X obj 302 208 f 5;
#X obj 391 213 f 7;
#X obj 174 388 /;
#X obj 174 567 outlet;
#X obj 174 314 f;
#X obj 174 352 swap 1;
#X obj 232 72 bng 15 250 50 0 empty empty empty 17 7 0 10 -262144 -1
-1;
#X obj 174 413 t a a;
#X obj 206 446 swap 1;
#X obj 206 482 -;
#X obj 174 530 +;
#X obj 206 507 * 1, f 12;
#X obj 287 343 r displace;
#X obj 287 367 t b a;
#X connect 0 0 1 0;
#X connect 1 0 7 0;
#X connect 1 1 2 0;
#X connect 1 2 3 0;
#X connect 1 3 8 0;
#X connect 1 4 9 0;
#X connect 1 5 10 0;
#X connect 1 6 11 0;
#X connect 1 7 6 0;
#X connect 1 8 12 0;
#X connect 2 0 15 0;
#X connect 3 0 15 0;
#X connect 4 0 0 0;
#X connect 5 0 4 0;
#X connect 6 0 15 0;
#X connect 7 0 15 0;
#X connect 8 0 15 0;
#X connect 9 0 15 0;
#X connect 10 0 15 0;
#X connect 11 0 15 0;
#X connect 12 0 15 0;
#X connect 13 0 18 0;
#X connect 15 0 16 0;
#X connect 16 0 13 0;
#X connect 16 1 13 1;
#X connect 17 0 4 0;
#X connect 18 0 21 0;
#X connect 18 1 19 0;
#X connect 19 0 20 0;
#X connect 19 1 20 1;
#X connect 20 0 22 0;
#X connect 21 0 14 0;
#X connect 22 0 21 1;
#X connect 23 0 24 0;
#X connect 24 0 0 0;
#X connect 24 1 22 1;
#X restore 355 107 pd numbers;
#X obj 24 665 *~ 0.7;
#X obj 25 779 outlet~;
#X obj 24 391 /~;
#X obj 494 426 r global-r;
#X obj 333 314 r global-a;
#X obj 384 347 r global-d;
#X obj 456 381 r global-s;
#X obj 271 173 / 127;
#X obj 271 202 sqrt;
#X obj 294 491 cg-adsr~ 10 200 0.2 10, f 24;
#X obj 25 535 *~;
#X obj 333 338 *;
#X obj 384 371 *, f 7;
#X obj 494 450 *, f 9;
#X obj 456 405 * 1;
#X obj 340 290 t b a;
#X obj 355 242 t a a a, f 24;
#X obj 424 319 t b a;
#X obj 534 401 t b a;
#X obj 24 276 mtof~;
#X obj 24 29 inlet;
#X obj 24 61 +;
#X obj 24 85 sig~;
#X obj 24 139 +~;
#X obj 43 108 r~ transpose;
#X obj 532 549 list prepend lfo-rate;
#X obj 575 510 list prepend lfo-rate;
#X obj 532 573 list trim;
#X obj 532 479 r global-lfo-rate;
#X obj 598 442 r global-lfo-depth;
#X obj 183 545 osc~ 1;
#X obj 185 570 *~ 0.5;
#X obj 185 594 +~ 0.5;
#X obj 186 674 +~;
#X obj 186 650 *~;
#X obj 535 631 r displace;
#X obj 567 748 i \$1;
#X obj 567 772 *;
#X obj 549 799 +;
#X obj 633 694 swap 1;
#X obj 633 718 -;
#X obj 402 637 r global-lfo-rate;
#X obj 253 634 sig~ 1;
#X obj 253 658 -~;
#X obj 270 581 *~;
#X obj 409 561 pack 0 0;
#X obj 409 585 vline~;
#X obj 535 655 t b b a;
#X obj 180 74 t b b b, f 24;
#X obj 333 362 max 1;
#X obj 25 500 *~;
#X obj 270 533 r~ global-lfo-depth;
#X obj 154 334 r drawbar-ctl;
#X obj 154 358 route \$1;
#X obj 154 412 lop~ 5;
#X connect 0 0 3 0;
#X connect 1 0 8 0;
#X connect 2 0 56 0;
#X connect 3 0 54 0;
#X connect 3 1 1 1;
#X connect 3 2 13 0;
#X connect 4 1 8 1;
#X connect 4 2 27 1;
#X connect 5 0 22 0;
#X connect 6 0 7 0;
#X connect 8 0 2 0;
#X connect 9 0 19 0;
#X connect 10 0 17 0;
#X connect 11 0 18 0;
#X connect 12 0 20 0;
#X connect 13 0 14 0;
#X connect 14 0 15 0;
#X connect 15 0 16 1;
#X connect 15 1 51 0;
#X connect 16 0 6 0;
#X connect 17 0 55 0;
#X connect 18 0 15 2;
#X connect 18 0 51 1;
#X connect 19 0 15 4;
#X connect 20 0 15 3;
#X connect 21 0 17 0;
#X connect 21 1 17 1;
#X connect 22 0 21 0;
#X connect 22 1 23 0;
#X connect 22 2 24 0;
#X connect 23 0 18 0;
#X connect 23 1 18 1;
#X connect 24 0 19 0;
#X connect 24 1 19 1;
#X connect 25 0 1 0;
#X connect 26 0 27 0;
#X connect 27 0 28 0;
#X connect 28 0 29 0;
#X connect 29 0 25 0;
#X connect 30 0 29 1;
#X connect 31 0 33 0;
#X connect 32 0 33 0;
#X connect 33 0 15 5;
#X connect 34 0 31 0;
#X connect 35 0 32 0;
#X connect 36 0 37 0;
#X connect 37 0 38 0;
#X connect 38 0 40 0;
#X connect 39 0 56 1;
#X connect 40 0 39 0;
#X connect 41 0 53 0;
#X connect 42 0 43 0;
#X connect 43 0 44 1;
#X connect 44 0 36 0;
#X connect 45 0 46 0;
#X connect 45 1 46 1;
#X connect 46 0 43 1;
#X connect 47 0 44 0;
#X connect 48 0 49 0;
#X connect 49 0 39 1;
#X connect 50 0 40 1;
#X connect 50 0 49 1;
#X connect 51 0 52 0;
#X connect 52 0 50 1;
#X connect 53 0 44 0;
#X connect 53 1 42 0;
#X connect 53 2 45 0;
#X connect 54 0 4 0;
#X connect 54 2 5 0;
#X connect 55 0 15 1;
#X connect 56 0 16 0;
#X connect 57 0 50 0;
#X connect 58 0 59 0;
#X connect 59 0 60 0;
#X connect 60 0 2 1;
