#N canvas 45 217 1634 650 12;
#X obj 30 26 inlet~;
#X obj 29 272 /~ 2;
#X obj 29 362 *~, f 7;
#X obj 76 291 r~ drawbar-ctl-0;
#X obj 29 386 *~ 0.7;
#X obj 420 530 outlet~;
#X obj 218 364 *~, f 7;
#X obj 218 388 *~ 0.7;
#X obj 421 370 *~, f 7;
#X obj 421 394 *~ 0.7;
#X obj 421 280 *~ 1;
#X obj 218 274 *~ 1.5;
#X obj 265 293 r~ drawbar-ctl-1;
#X obj 468 299 r~ drawbar-ctl-2;
#X obj 642 373 *~, f 7;
#X obj 642 397 *~ 0.7;
#X obj 827 378 *~, f 7;
#X obj 827 402 *~ 0.7;
#X obj 1016 380 *~, f 7;
#X obj 1016 404 *~ 0.7;
#X obj 1219 386 *~, f 7;
#X obj 1219 410 *~ 0.7;
#X obj 1440 389 *~, f 7;
#X obj 1440 413 *~ 0.7;
#X obj 1232 143 *~, f 7;
#X obj 1232 167 *~ 0.7;
#X obj 827 288 *~ 3;
#X obj 1016 290 *~ 4;
#X obj 1440 299 *~ 6;
#X obj 1232 53 *~ 8;
#X obj 689 302 r~ drawbar-ctl-3;
#X obj 874 307 r~ drawbar-ctl-4;
#X obj 1063 309 r~ drawbar-ctl-5;
#X obj 1266 315 r~ drawbar-ctl-6;
#X obj 1487 318 r~ drawbar-ctl-7;
#X obj 1280 72 r~ drawbar-ctl-8;
#X obj 642 283 *~ 2.01;
#X obj 1219 296 *~ 4.999;
#X obj 901 121 inlet;
#X obj 218 310 wave-read~;
#X obj 421 316 wave-read~;
#X obj 642 319 wave-read~;
#X obj 827 324 wave-read~;
#X obj 1016 326 wave-read~;
#X obj 1219 332 wave-read~;
#X obj 1440 335 wave-read~;
#X obj 1232 89 wave-read~;
#X obj 29 308 wave-read~ 0;
#X connect 0 0 1 0;
#X connect 0 0 10 0;
#X connect 0 0 11 0;
#X connect 0 0 26 0;
#X connect 0 0 27 0;
#X connect 0 0 28 0;
#X connect 0 0 29 0;
#X connect 0 0 36 0;
#X connect 0 0 37 0;
#X connect 1 0 47 0;
#X connect 2 0 4 0;
#X connect 3 0 2 1;
#X connect 4 0 5 0;
#X connect 6 0 7 0;
#X connect 7 0 5 0;
#X connect 8 0 9 0;
#X connect 9 0 5 0;
#X connect 10 0 40 0;
#X connect 11 0 39 0;
#X connect 12 0 6 1;
#X connect 13 0 8 1;
#X connect 14 0 15 0;
#X connect 15 0 5 0;
#X connect 16 0 17 0;
#X connect 17 0 5 0;
#X connect 18 0 19 0;
#X connect 19 0 5 0;
#X connect 20 0 21 0;
#X connect 21 0 5 0;
#X connect 22 0 23 0;
#X connect 23 0 5 0;
#X connect 24 0 25 0;
#X connect 25 0 5 0;
#X connect 26 0 42 0;
#X connect 27 0 43 0;
#X connect 28 0 45 0;
#X connect 29 0 46 0;
#X connect 30 0 14 1;
#X connect 31 0 16 1;
#X connect 32 0 18 1;
#X connect 33 0 20 1;
#X connect 34 0 22 1;
#X connect 35 0 24 1;
#X connect 36 0 41 0;
#X connect 37 0 44 0;
#X connect 38 0 39 1;
#X connect 38 0 40 1;
#X connect 38 0 41 1;
#X connect 38 0 42 1;
#X connect 38 0 43 1;
#X connect 38 0 44 1;
#X connect 38 0 45 1;
#X connect 38 0 46 1;
#X connect 38 0 47 1;
#X connect 39 0 6 0;
#X connect 40 0 8 0;
#X connect 41 0 14 0;
#X connect 42 0 16 0;
#X connect 43 0 18 0;
#X connect 44 0 20 0;
#X connect 45 0 22 0;
#X connect 46 0 24 0;
#X connect 47 0 2 0;
