#N canvas 4 50 450 736 12;
#X obj 26 32 inlet~;
#X obj 26 126 phasor~;
#X obj 26 150 *~ 1025;
#X obj 26 174 +~ 1;
#X obj 25 561 outlet~;
#X obj 156 44 inlet;
#X obj 160 158 list prepend set;
#X obj 160 182 list trim;
#X obj 26 397 tabread4~ wave-1;
#X obj 26 522 *~;
#X obj 157 468 vline~;
#X obj 128 270 list store;
#X obj 128 294 list trim;
#X msg 183 322 0 8 \, 1 8 8;
#X obj 128 246 del 8;
#X obj 160 207 t b b a b;
#X msg 222 243 stop;
#X obj 160 98 route \$1;
#X obj 160 74 r wave-read-set;
#X connect 0 0 1 0;
#X connect 1 0 2 0;
#X connect 2 0 3 0;
#X connect 3 0 8 0;
#X connect 5 0 1 1;
#X connect 6 0 7 0;
#X connect 7 0 15 0;
#X connect 8 0 9 0;
#X connect 9 0 4 0;
#X connect 10 0 9 1;
#X connect 11 0 12 0;
#X connect 12 0 8 0;
#X connect 13 0 10 0;
#X connect 14 0 11 0;
#X connect 15 0 14 0;
#X connect 15 1 13 0;
#X connect 15 2 11 1;
#X connect 15 3 16 0;
#X connect 16 0 14 0;
#X connect 17 0 6 0;
#X connect 18 0 17 0;
