#N canvas 514 391 450 302 12;
#X obj 27 27 inlet;
#X obj 27 51 route init;
#X obj 27 250 array define wave-\$1 1027;
#X obj 27 183 list prepend read;
#X obj 27 207 list trim;
#X obj 27 95 i \$1;
#X obj 27 137 makefilename waves/wave-%d.txt;
#X connect 0 0 1 0;
#X connect 1 0 5 0;
#X connect 3 0 4 0;
#X connect 4 0 2 0;
#X connect 5 0 6 0;
#X connect 6 0 3 0;
