#N canvas 493 50 1423 923 12;
#X obj 44 20 inlet;
#X text 123 18 note;
#X obj 44 54 unpack;
#X obj 44 98 swap, f 14;
#X obj 79 212 s \$0-vel;
#X obj 192 765 outlet~;
#X obj 44 127 sel -1;
#X obj 39 260 s \$0-cancel;
#X obj 181 130 sel -1;
#X text 709 787 depth;
#X obj 220 560 clone organ-bank-voice~ 9;
#X obj 392 399 r init-bank;
#X obj 392 494 list trim;
#X obj 392 465 list prepend all;
#X msg 392 428 init bang;
#X obj 580 405 r \$0-vel;
#X obj 580 502 list trim;
#X obj 580 473 list prepend all vel;
#X obj 220 478 list prepend all;
#X obj 220 502 list trim;
#X connect 0 0 2 0;
#X connect 2 0 3 0;
#X connect 2 1 3 1;
#X connect 3 0 6 0;
#X connect 3 1 8 0;
#X connect 6 0 7 0;
#X connect 6 1 4 0;
#X connect 8 1 18 0;
#X connect 10 0 5 0;
#X connect 11 0 14 0;
#X connect 12 0 10 1;
#X connect 13 0 12 0;
#X connect 14 0 13 0;
#X connect 15 0 17 0;
#X connect 16 0 10 1;
#X connect 17 0 16 0;
#X connect 18 0 19 0;
#X connect 19 0 10 0;
