#N canvas 561 102 862 799 16;
#X obj 48 16 inlet;
#X text 117 20 note;
#X obj 165 191 f 1;
#X obj 215 191 + 1;
#X obj 215 220 == 1;
#X obj 48 234 list prepend;
#X obj 48 263 list trim;
#X obj 48 303 route 0 1, f 32;
#X msg 95 437 -1 -1;
#X obj 48 491 wave-voice~;
#X obj 244 495 wave-voice~;
#X obj 48 550 outlet~;
#X obj 48 45 t a a;
#X obj 105 78 stripnote;
#X obj 105 107 t b;
#X obj 49 338 t a a;
#X obj 95 371 stripnote;
#X obj 95 400 t b;
#X msg 291 449 -1 -1;
#X obj 291 383 stripnote;
#X obj 291 412 t b;
#X obj 244 349 t a a;
#X connect 0 0 12 0;
#X connect 2 0 3 0;
#X connect 2 0 5 1;
#X connect 3 0 4 0;
#X connect 4 0 2 1;
#X connect 5 0 6 0;
#X connect 6 0 7 0;
#X connect 7 0 15 0;
#X connect 7 1 21 0;
#X connect 8 0 10 0;
#X connect 9 0 11 0;
#X connect 10 0 11 0;
#X connect 12 0 5 0;
#X connect 12 1 13 0;
#X connect 13 0 14 0;
#X connect 14 0 2 0;
#X connect 15 0 9 0;
#X connect 15 1 16 0;
#X connect 16 0 17 0;
#X connect 17 0 8 0;
#X connect 18 0 9 0;
#X connect 19 0 20 0;
#X connect 20 0 18 0;
#X connect 21 0 10 0;
#X connect 21 1 19 0;
