#N canvas 187 50 1385 860 10;
#X obj 107 440 *~;
#X obj 276 318 vline~;
#X obj 276 340 *~;
#X obj 107 532 hip~ 5;
#X obj 276 293 r \$0-2-vline;
#X obj 107 566 throw~ jam-loop-bus;
#X obj 244 269 r \$0-2-phase;
#X obj 107 271 r \$0-2-looper;
#X obj 583 156 r jam-loop-2-voices;
#X obj 583 188 route \$2;
#X obj 583 471 sel 0, f 24;
#X obj 583 625 t b b b;
#X msg 629 703 stop;
#X msg 606 771 0;
#X msg 606 795 switch \$1;
#X obj 606 816 s \$0-2-looper;
#X obj 583 726 s \$0-2-vline;
#X msg 362 474 1;
#X msg 362 496 switch \$1;
#X obj 362 517 s \$0-2-looper;
#X obj 748 649 / 127;
#X obj 748 671 sqrt;
#X msg 810 704 0;
#X obj 748 773 s \$0-2-vline;
#X obj 810 726 s \$0-2-phase;
#X msg 748 747 \$1 5;
#X obj 606 749 del 100;
#X msg 583 703 0 100;
#X msg 114 46 speed \$1;
#X obj 114 73 s \$0-2-looper;
#X msg 324 73 length \$1;
#X obj 3 75 s \$0-2-looper;
#X obj 324 95 s \$0-2-looper;
#X obj 324 48 change -1;
#X msg 3 53 read 0;
#X obj 3 30 loadbang;
#X obj 114 21 r jam-loop-global-speed;
#X obj 324 23 r jam-loop-global-length;
#X obj 362 451 loadbang;
#X msg 873 672 switch \$1;
#X obj 873 693 s \$0-2-looper;
#X msg 873 648 1;
#X obj 583 293 spigot 1;
#X obj 656 293 spigot 0;
#X obj 656 315 sel 0;
#X obj 688 362 f;
#X obj 725 362 + 1;
#X obj 725 387 % 2;
#X obj 725 409 sel 0 1, f 11;
#X msg 725 431 0;
#X obj 688 341 t b f, f 10;
#X obj 762 432 f;
#X obj 601 575 list prepend \$2;
#X obj 601 599 s jam-loop-print-the-voices;
#X msg 601 495 0;
#X obj 601 552 f;
#X obj 642 495 r jam-loop-print-the-voices-bang;
#X obj 452 347 r jam-loop-kill;
#X msg 452 369 0;
#X obj 748 625 t a b b b b, f 36;
#X obj 997 708 s \$0-2-looper;
#X msg 997 680 point \$1;
#X obj 401 237 r jam-loop-rec-enabled;
#X obj 401 258 sel 1;
#X msg 401 280 0;
#X obj 691 185 r jam-loop-state;
#X obj 691 207 sel 0 1 2;
#X obj 729 270 ==;
#X msg 691 229 1;
#X msg 732 228 0;
#X obj 691 251 f;
#X obj 997 651 \$2;
#X obj 107 325 cg-looper \$1-\$2, f 20;
#X obj 989 16 cg-rec-array \$1 \$2 1 2000;
#X msg 175 446 1 \$1;
#X obj 175 468 /;
#X obj 175 490 rmstodb;
#X obj 175 512 / 100;
#X obj 175 425 r jam-loop-voice-sum;
#X obj 107 462 *~;
#X connect 0 0 79 0;
#X connect 1 0 2 0;
#X connect 1 0 2 1;
#X connect 2 0 0 1;
#X connect 3 0 5 0;
#X connect 4 0 1 0;
#X connect 6 0 72 1;
#X connect 7 0 72 0;
#X connect 8 0 9 0;
#X connect 9 0 42 0;
#X connect 9 0 43 0;
#X connect 10 0 11 0;
#X connect 10 0 54 0;
#X connect 10 1 55 0;
#X connect 10 1 59 0;
#X connect 11 0 27 0;
#X connect 11 1 26 0;
#X connect 11 2 12 0;
#X connect 12 0 26 0;
#X connect 13 0 14 0;
#X connect 14 0 15 0;
#X connect 17 0 18 0;
#X connect 18 0 19 0;
#X connect 20 0 21 0;
#X connect 21 0 25 0;
#X connect 22 0 24 0;
#X connect 25 0 23 0;
#X connect 26 0 13 0;
#X connect 27 0 16 0;
#X connect 28 0 29 0;
#X connect 30 0 32 0;
#X connect 33 0 30 0;
#X connect 34 0 31 0;
#X connect 35 0 34 0;
#X connect 36 0 28 0;
#X connect 37 0 33 0;
#X connect 38 0 17 0;
#X connect 39 0 40 0;
#X connect 41 0 39 0;
#X connect 42 0 10 0;
#X connect 43 0 44 0;
#X connect 44 1 50 0;
#X connect 45 0 46 0;
#X connect 46 0 45 1;
#X connect 46 0 47 0;
#X connect 47 0 48 0;
#X connect 48 0 49 0;
#X connect 48 1 51 0;
#X connect 49 0 10 0;
#X connect 50 0 45 0;
#X connect 50 1 51 1;
#X connect 51 0 10 0;
#X connect 52 0 53 0;
#X connect 54 0 55 0;
#X connect 55 0 52 0;
#X connect 56 0 55 0;
#X connect 57 0 58 0;
#X connect 58 0 10 0;
#X connect 59 0 20 0;
#X connect 59 1 22 0;
#X connect 59 2 41 0;
#X connect 59 3 12 0;
#X connect 59 4 71 0;
#X connect 61 0 60 0;
#X connect 62 0 63 0;
#X connect 63 0 64 0;
#X connect 64 0 10 0;
#X connect 65 0 66 0;
#X connect 66 0 68 0;
#X connect 66 1 68 0;
#X connect 66 2 69 0;
#X connect 67 0 43 1;
#X connect 68 0 70 0;
#X connect 69 0 70 0;
#X connect 70 0 67 0;
#X connect 70 0 42 1;
#X connect 71 0 61 0;
#X connect 72 0 0 0;
#X connect 74 0 75 0;
#X connect 75 0 76 0;
#X connect 76 0 77 0;
#X connect 77 0 79 1;
#X connect 78 0 74 0;
#X connect 79 0 3 0;
