#N canvas 1223 138 574 753 12;
#X obj 143 111 adc~;
#X obj 246 137 r messages;
#X obj 362 376 stdout;
#X obj 146 362 dac~;
#X obj 246 171 route init;
#X msg 360 227 \; pd dsp 1;
#X obj 246 195 t b b;
#X msg 246 219 init bang;
#X obj 133 260 cg-phase-voc-freeze~ 4096;
#X connect 0 0 8 0;
#X connect 1 0 4 0;
#X connect 4 0 6 0;
#X connect 4 1 8 1;
#X connect 6 0 7 0;
#X connect 6 1 5 0;
#X connect 7 0 8 1;
#X connect 8 0 3 0;
#X connect 8 1 2 0;
