#N canvas 152 58 1248 850 10;
#X obj 277 73 loadbang;
#X msg 277 98 vibrato 50 0.5;
#X obj 182 43 inlet~;
#X obj 422 654 outlet~;
#X obj 187 718 outlet~;
#X text 433 676 global volume;
#X text 160 735 pitch(midi);
#X obj 342 325 -~ 40;
#X obj 249 314 unpack 0 0;
#X obj 421 557 clip~ 0 1;
#X msg 324 139 npartial 9;
#X msg 297 119 amp-range 10 20;
#X obj 184 103 hip~ 40;
#X obj 182 76 lop~ 2000;
#X obj 342 297 lop~ 50;
#X obj 343 358 *~ 0.02;
#X obj 510 508 snapshot~;
#X floatatom 510 537 5 0 0 0 - - -, f 5;
#X obj 301 710 vline~;
#X msg 287 677 1 10;
#X obj 295 772 outlet~;
#X obj 295 735 *~;
#X msg 336 676 0 10;
#X obj 245 612 bng 15 250 50 0 empty empty empty 17 7 0 10 -262144
-1 -1;
#X obj 331 613 bng 15 250 50 0 empty empty empty 17 7 0 10 -262144
-1 -1;
#X obj 163 443 lop~ 10;
#X obj 763 111 r knob2;
#X obj 532 444 + 0.1;
#X obj 759 140 - 1;
#X obj 759 162 abs;
#X obj 183 266 fiddle~ 2048 1 20 3, f 31;
#X obj 106 367 t b b;
#X obj 106 389 timer;
#X floatatom 106 411 5 0 0 0 - - -, f 5;
#X obj 776 218 *;
#X floatatom 763 342 50 0 0 0 - - -, f 50;
#X obj 768 189 t f f;
#X obj 776 244 t f f;
#X obj 765 271 *;
#X obj 531 407 * 200;
#X obj 609 476 metro 100;
#X obj 664 444 tgl 15 0 empty empty empty 17 7 0 10 -262144 -1 -1 1
1;
#X floatatom 467 276 50 0 0 0 - - -, f 50;
#X obj 467 301 bang;
#X obj 467 323 t b b;
#X obj 483 363 timer;
#X floatatom 483 385 5 0 0 0 - - -, f 5;
#X obj 472 243 pvu~ 5;
#X text 402 204 note \, this depends on organelle built in pvu~ \,
modified to output raw signal value (not db);
#X obj 441 445 lop~ 100;
#X obj 441 423 sig~;
#X obj 202 553 threshold~ 0.3 100 0.01 100;
#X connect 0 0 1 0;
#X connect 0 0 11 0;
#X connect 0 0 10 0;
#X connect 1 0 30 0;
#X connect 2 0 13 0;
#X connect 8 0 25 0;
#X connect 8 0 31 0;
#X connect 9 0 3 0;
#X connect 10 0 30 0;
#X connect 11 0 30 0;
#X connect 12 0 30 0;
#X connect 12 0 47 0;
#X connect 13 0 12 0;
#X connect 14 0 7 0;
#X connect 16 0 17 0;
#X connect 18 0 21 1;
#X connect 18 0 21 0;
#X connect 19 0 18 0;
#X connect 21 0 20 0;
#X connect 22 0 18 0;
#X connect 25 0 4 0;
#X connect 26 0 28 0;
#X connect 27 0 25 1;
#X connect 28 0 29 0;
#X connect 29 0 36 0;
#X connect 30 2 8 0;
#X connect 30 3 14 0;
#X connect 31 0 32 0;
#X connect 31 1 32 1;
#X connect 32 0 33 0;
#X connect 34 0 37 0;
#X connect 36 0 34 0;
#X connect 36 1 34 1;
#X connect 37 0 38 0;
#X connect 37 1 38 1;
#X connect 38 0 35 0;
#X connect 38 0 39 0;
#X connect 39 0 27 0;
#X connect 40 0 16 0;
#X connect 41 0 40 0;
#X connect 42 0 43 0;
#X connect 42 0 50 0;
#X connect 43 0 44 0;
#X connect 44 0 45 0;
#X connect 44 1 45 1;
#X connect 45 0 46 0;
#X connect 47 0 42 0;
#X connect 49 0 9 0;
#X connect 49 0 51 0;
#X connect 50 0 49 0;
#X connect 51 0 19 0;
#X connect 51 0 23 0;
#X connect 51 1 22 0;
#X connect 51 1 24 0;
