#N canvas 240 53 1471 580 10;
#N canvas 0 50 450 300 (subpatch) 0;
#X array itake-\$1 441000 float 0;
#X coords 0 1 440999 -1 400 130 1 0 0;
#X restore 75 21 graph;
#X obj 555 200 soundfiler;
#X obj 555 264 / 44.1;
#X obj 555 61 i \$1;
#X msg 555 170 read \$1 itake-\$2;
#X obj 555 125 pack s \$1;
#X obj 555 392 tabwrite lengths;
#X obj 664 343 i \$1;
#X obj 555 19 r loadsamps;
#X obj 555 314 t f b;
#X obj 821 408 soundfiler;
#X obj 821 69 r saveState;
#X obj 937 280 loadbang;
#X obj 821 91 b;
#X obj 664 365 - 1;
#X obj 937 309 symbol itake-\$1;
#X obj 821 140 tabread lengths;
#X obj 821 114 \$1;
#X obj 821 173 * 44.1;
#X obj 821 338 pack 0 \$1 s, f 17;
#X obj 821 195 i;
#X msg 821 377 write -nframes \$1 sounds/\$2.wav \$3;
#X obj 555 92 makefilename sounds/%d.wav;
#X obj 853 265 sel 0 1;
#X obj 814 215 t f f;
#X obj 803 309 f;
#X msg 876 290 1;
#X obj 853 243 <= 1;
#X connect 1 0 2 0;
#X connect 2 0 9 0;
#X connect 3 0 22 0;
#X connect 4 0 1 0;
#X connect 5 0 4 0;
#X connect 7 0 14 0;
#X connect 8 0 3 0;
#X connect 9 0 6 0;
#X connect 9 1 7 0;
#X connect 11 0 13 0;
#X connect 12 0 15 0;
#X connect 13 0 17 0;
#X connect 14 0 6 1;
#X connect 15 0 19 2;
#X connect 16 0 18 0;
#X connect 17 0 16 0;
#X connect 18 0 20 0;
#X connect 19 0 21 0;
#X connect 20 0 24 0;
#X connect 21 0 10 0;
#X connect 22 0 5 0;
#X connect 23 0 25 0;
#X connect 23 1 26 0;
#X connect 24 0 27 0;
#X connect 24 1 25 1;
#X connect 25 0 19 0;
#X connect 26 0 19 0;
#X connect 27 0 23 0;
