#N canvas 14 50 1842 913 10;
#X obj 1150 721 s oscOut;
#X obj 1234 315 until;
#X obj 1234 343 f;
#X obj 1267 343 + 1;
#X msg 1282 311 0;
#X obj 1234 260 t b b;
#X msg 1234 284 14;
#X obj 1234 457 * 9;
#X obj 1020 266 until;
#X obj 1020 292 f;
#X obj 1053 292 + 1;
#X msg 1068 262 0;
#X obj 1020 398 * 9;
#X msg 1020 235 14;
#X obj 1020 336 sel 2 6 9 13 14;
#X obj 997 183 t b b b, f 41;
#X obj 1281 280 s oscOut;
#X obj 14 69 text define keys-diagram;
#X msg 14 41 read keys-diagram.txt;
#X obj 115 815 s oscOut;
#X obj 14 16 loadbang;
#X msg 95 787 /oled/gFlip 3;
#X obj 997 211 t b b b;
#X obj 997 152 b;
#X msg 997 623 /oled/gFlip 3;
#X obj 1184 475 + 10;
#X obj 1020 457 pack 0 0;
#X obj 1073 404 loadbang;
#X msg 189 40 write keys-diagram.txt;
#X obj 1234 512 pack 0 0;
#X obj 997 123 inlet bang to redraw;
#X msg 1281 251 /oled/gFillArea 3 0 \$1 128 20 0;
#X obj 1281 208 \$1;
#X obj 1073 426 \$1;
#X obj 1234 480 + 4;
#X obj 1020 424 + 9;
#X obj 1281 230 - 2;
#X obj 84 102 inlet key number;
#X text 204 724 playing;
#X obj 369 811 s oscOut;
#X msg 369 785 /oled/gFlip 3;
#X text 474 784 recording;
#X obj 421 21 r state;
#X obj 421 46 v state;
#X obj 203 543 loadbang;
#X obj 1139 455 <= 0;
#X obj 1020 314 t f f, f 21;
#N canvas 1321 468 450 300 comp-blk 0;
#X obj 60 96 sel 0 1 3 4 5 7 8 10 11 12, f 32;
#X obj 60 68 inlet;
#X msg 60 118 1;
#X msg 77 138 3;
#X msg 100 118 6;
#X msg 117 138 8;
#X msg 147 118 10;
#X msg 156 138 13;
#X msg 188 117 15;
#X msg 204 137 18;
#X msg 234 118 20;
#X msg 257 139 22;
#X obj 78 206 outlet;
#X connect 0 0 2 0;
#X connect 0 1 3 0;
#X connect 0 2 4 0;
#X connect 0 3 5 0;
#X connect 0 4 6 0;
#X connect 0 5 7 0;
#X connect 0 6 8 0;
#X connect 0 7 9 0;
#X connect 0 8 10 0;
#X connect 0 9 11 0;
#X connect 1 0 0 0;
#X connect 2 0 12 0;
#X connect 3 0 12 0;
#X connect 4 0 12 0;
#X connect 5 0 12 0;
#X connect 6 0 12 0;
#X connect 7 0 12 0;
#X connect 8 0 12 0;
#X connect 9 0 12 0;
#X connect 10 0 12 0;
#X connect 11 0 12 0;
#X restore 1139 337 pd comp-blk;
#X obj 1139 359 tabread lengths, f 8;
#X obj 1234 372 t f f, f 21;
#N canvas 1321 468 450 300 comp-white 0;
#X obj 60 68 inlet;
#X obj 78 206 outlet;
#X msg 60 118 0;
#X msg 78 138 2;
#X msg 100 118 4;
#X msg 117 138 5;
#X msg 147 118 7;
#X msg 156 138 9;
#X msg 188 117 11;
#X msg 204 137 12;
#X msg 234 118 14;
#X msg 257 139 16;
#X msg 284 119 17;
#X msg 301 142 19;
#X msg 344 120 21;
#X msg 384 148 23;
#X obj 60 96 sel 0 1 2 3 4 5 6 7 8 9 10 11 12 13, f 49;
#X connect 0 0 16 0;
#X connect 2 0 1 0;
#X connect 3 0 1 0;
#X connect 4 0 1 0;
#X connect 5 0 1 0;
#X connect 6 0 1 0;
#X connect 7 0 1 0;
#X connect 8 0 1 0;
#X connect 9 0 1 0;
#X connect 10 0 1 0;
#X connect 11 0 1 0;
#X connect 12 0 1 0;
#X connect 13 0 1 0;
#X connect 14 0 1 0;
#X connect 15 0 1 0;
#X connect 16 0 2 0;
#X connect 16 1 3 0;
#X connect 16 2 4 0;
#X connect 16 3 5 0;
#X connect 16 4 6 0;
#X connect 16 5 7 0;
#X connect 16 6 8 0;
#X connect 16 7 9 0;
#X connect 16 8 10 0;
#X connect 16 9 11 0;
#X connect 16 10 12 0;
#X connect 16 11 13 0;
#X connect 16 12 14 0;
#X connect 16 13 15 0;
#X restore 1336 400 pd comp-white;
#X obj 1335 509 <= 0;
#X obj 1336 422 tabread lengths, f 8;
#X obj 1078 515 spigot;
#X obj 1020 514 spigot;
#X obj 1059 491 ==;
#X obj 1296 560 spigot;
#X obj 1234 559 spigot;
#X obj 1273 536 ==;
#X obj 85 433 route 0 1 2 3, f 104;
#X obj 652 810 s oscOut;
#X msg 628 785 /oled/gFlip 3;
#X obj 85 154 t f f, f 9;
#X obj 145 176 s the-key-number;
#X obj 85 321 f;
#X obj 177 257 r state;
#X obj 85 176 t b f;
#X obj 85 346 pack 0 0, f 14;
#X obj 375 708 pack;
#X obj 398 579 text get keys-diagram;
#X obj 398 601 unpack;
#X obj 447 623 + \$1;
#X obj 398 623 + 1;
#X obj 185 590 f;
#X msg 203 565 0;
#X obj 115 644 text get keys-diagram;
#X obj 115 666 unpack;
#X obj 154 688 + \$1;
#X obj 115 688 + 1;
#X obj 115 715 pack;
#X obj 95 545 t b f f b;
#X obj 369 496 t b f f b, f 13;
#X obj 475 477 loadbang;
#X obj 457 524 f;
#X msg 475 499 0;
#X obj 628 482 t b f f b, f 11;
#X obj 720 477 loadbang;
#X obj 702 524 f;
#X msg 720 499 0;
#X text 101 494 stopped;
#X obj 652 618 text get keys-diagram;
#X obj 652 640 unpack;
#X obj 691 662 + \$1;
#X obj 652 662 + 1;
#X obj 652 685 pack;
#X obj 652 707 t a a;
#X obj 115 737 t a b;
#X text 601 65 printing to keyboard;
#X msg 280 540 \; led 0 \;;
#X msg 281 466 \; led 3 \;;
#X obj 420 110 text get keys-diagram;
#X obj 420 132 unpack;
#X obj 459 154 + \$1;
#X obj 420 157 + 1;
#X obj 420 180 pack, f 6;
#X obj 420 76 r the-key-number;
#X obj 466 272 list;
#X msg 466 237 1;
#X obj 466 294 route 1;
#X obj 420 389 s oscOut;
#X msg 319 281 /oled/gFlip 3;
#X obj 420 203 t b a a b;
#X obj 376 688 - 2;
#X obj 405 686 - 2;
#X obj 1296 583 draw-an-x;
#X obj 1079 539 draw-an-x;
#X obj 684 731 draw-an-x;
#X msg 115 757 /oled/gFilledCircle 3 \$1 \$2 3 1;
#X msg 1234 616 /oled/gCircle 3 \$1 \$2 3 1;
#X msg 1020 599 /oled/gCircle 3 \$1 \$2 3 1;
#X obj 85 463 erase-return \$1;
#X msg 466 316 /oled/gCircle 3 \$1 \$2 4 0;
#X msg 420 349 /oled/gCircle 3 \$1 \$2 4 1;
#X obj 702 551 erase-return \$1;
#X obj 185 617 erase-return \$1;
#X obj 457 551 erase-return \$1;
#X msg 398 757 /oled/gFillArea 3 \$1 \$2 5 5 1;
#X msg 442 701 /oled/gFilledCircle 3 \$1 \$2 3 0;
#X obj 398 645 t a a;
#X obj 447 645 t a a;
#X obj 454 675 pack;
#X connect 1 0 2 0;
#X connect 2 0 3 0;
#X connect 2 0 49 0;
#X connect 3 0 2 1;
#X connect 4 0 2 1;
#X connect 5 0 6 0;
#X connect 5 1 4 0;
#X connect 6 0 1 0;
#X connect 7 0 34 0;
#X connect 8 0 9 0;
#X connect 9 0 10 0;
#X connect 9 0 46 0;
#X connect 10 0 9 1;
#X connect 11 0 9 1;
#X connect 12 0 35 0;
#X connect 13 0 8 0;
#X connect 14 5 12 0;
#X connect 15 0 22 0;
#X connect 15 1 5 0;
#X connect 15 2 32 0;
#X connect 18 0 17 0;
#X connect 20 0 18 0;
#X connect 21 0 19 0;
#X connect 22 0 24 0;
#X connect 22 1 13 0;
#X connect 22 2 11 0;
#X connect 23 0 15 0;
#X connect 24 0 0 0;
#X connect 25 0 29 1;
#X connect 26 0 54 0;
#X connect 26 0 53 0;
#X connect 27 0 33 0;
#X connect 29 0 57 0;
#X connect 29 0 56 0;
#X connect 30 0 23 0;
#X connect 31 0 16 0;
#X connect 32 0 36 0;
#X connect 33 0 26 1;
#X connect 33 0 25 0;
#X connect 34 0 29 0;
#X connect 35 0 26 0;
#X connect 36 0 31 0;
#X connect 37 0 62 0;
#X connect 40 0 39 0;
#X connect 42 0 43 0;
#X connect 44 0 74 0;
#X connect 45 0 53 1;
#X connect 45 0 55 0;
#X connect 46 0 14 0;
#X connect 46 1 47 0;
#X connect 47 0 48 0;
#X connect 48 0 45 0;
#X connect 49 0 7 0;
#X connect 49 1 50 0;
#X connect 50 0 52 0;
#X connect 51 0 58 0;
#X connect 51 0 56 1;
#X connect 52 0 51 0;
#X connect 53 0 115 0;
#X connect 54 0 119 0;
#X connect 55 0 54 1;
#X connect 56 0 114 0;
#X connect 57 0 118 0;
#X connect 58 0 57 1;
#X connect 59 0 98 0;
#X connect 59 0 120 0;
#X connect 59 1 80 0;
#X connect 59 1 99 0;
#X connect 59 2 81 0;
#X connect 59 3 85 0;
#X connect 59 3 98 0;
#X connect 61 0 60 0;
#X connect 62 0 66 0;
#X connect 62 1 63 0;
#X connect 64 0 67 0;
#X connect 65 0 64 0;
#X connect 66 0 64 0;
#X connect 66 1 67 1;
#X connect 67 0 59 0;
#X connect 68 0 126 0;
#X connect 69 0 70 0;
#X connect 70 0 72 0;
#X connect 70 1 71 0;
#X connect 71 0 129 0;
#X connect 72 0 128 0;
#X connect 73 0 124 0;
#X connect 74 0 73 1;
#X connect 75 0 76 0;
#X connect 76 0 78 0;
#X connect 76 1 77 0;
#X connect 77 0 79 1;
#X connect 78 0 79 0;
#X connect 79 0 96 0;
#X connect 80 0 21 0;
#X connect 80 1 75 0;
#X connect 80 2 73 1;
#X connect 80 3 73 0;
#X connect 81 0 40 0;
#X connect 81 1 69 0;
#X connect 81 2 83 1;
#X connect 81 3 83 0;
#X connect 82 0 84 0;
#X connect 83 0 125 0;
#X connect 84 0 83 1;
#X connect 85 0 61 0;
#X connect 85 1 90 0;
#X connect 85 2 87 1;
#X connect 85 3 87 0;
#X connect 86 0 88 0;
#X connect 87 0 123 0;
#X connect 88 0 87 1;
#X connect 90 0 91 0;
#X connect 91 0 93 0;
#X connect 91 1 92 0;
#X connect 92 0 94 1;
#X connect 93 0 94 0;
#X connect 94 0 95 0;
#X connect 95 1 116 0;
#X connect 96 0 117 0;
#X connect 100 0 101 0;
#X connect 101 0 103 0;
#X connect 101 1 102 0;
#X connect 102 0 104 1;
#X connect 103 0 104 0;
#X connect 104 0 111 0;
#X connect 105 0 100 0;
#X connect 106 0 108 0;
#X connect 107 0 106 0;
#X connect 108 0 121 0;
#X connect 110 0 109 0;
#X connect 111 0 110 0;
#X connect 111 1 122 0;
#X connect 111 2 106 1;
#X connect 111 3 107 0;
#X connect 112 0 68 0;
#X connect 113 0 68 1;
#X connect 114 0 0 0;
#X connect 115 0 0 0;
#X connect 116 0 60 0;
#X connect 117 0 19 0;
#X connect 118 0 0 0;
#X connect 119 0 0 0;
#X connect 121 0 109 0;
#X connect 122 0 109 0;
#X connect 126 0 39 0;
#X connect 127 0 39 0;
#X connect 128 0 112 0;
#X connect 128 1 130 0;
#X connect 129 0 113 0;
#X connect 129 1 130 1;
#X connect 130 0 127 0;
