#N canvas 130 50 1484 882 10;
#X obj 92 232 phasor~;
#X text 202 196 TAPE;
#X obj 617 88 r \$0-pitch-shift;
#X obj 617 152 t b f;
#X obj 617 268 phasor~;
#X obj 617 310 +~ 0.5;
#X obj 617 384 -~ 0.5;
#X obj 617 406 *~ 0.5;
#X obj 617 428 cos~;
#X obj 617 450 *~, f 8;
#X obj 617 332 wrap~;
#X obj 719 359 *~ 2205;
#X obj 719 411 tabread4~;
#X obj 729 381 r~ \$0-index;
#X obj 92 436 s~ \$0-index;
#X obj 450 314 +~ 0;
#X obj 392 350 -~ 0.5;
#X obj 392 372 *~ 0.5;
#X obj 392 394 cos~;
#X obj 450 336 *~ 2205;
#X obj 451 397 tabread4~;
#X obj 461 367 r~ \$0-index;
#X obj 432 443 *~;
#X obj 432 495 +~, f 22;
#X obj 155 -58 inlet;
#X obj 1018 -20 inlet;
#X obj 439 -3 s \$0-pointer;
#X obj 1073 437 r \$0-pointer;
#X obj 432 753 outlet~;
#X obj 432 733 hip~ 5;
#X obj 353 15 s \$0-speed;
#X text 1059 -19 0-1 floating point;
#X text 520 31 0/1 off/on;
#X text 199 -59 control arguments;
#X text 973 717 playhead 0-1;
#X obj 451 655 vline~;
#X obj 433 709 *~;
#X obj 451 607 r \$0-duck;
#X obj 1168 485 s \$0-duck;
#X obj 1165 515 symbol;
#X obj 1073 459 t b a b, f 14;
#X obj 1073 714 outlet sample size, f 12;
#X msg 1127 516 stop;
#X obj 451 677 *~;
#X obj 546 -10 switch~;
#X obj 647 -10 s \$0-decay;
#X obj 1105 546 symbol, f 9;
#X obj 1073 514 t b b;
#X obj 1073 578 array size \$1;
#X text 495 -72 Time Compression Looper;
#X text 1129 623 get size of sample in ms;
#X obj 154 9 max 0.01;
#X obj 1189 665 s \$0-sample-length;
#X obj 1131 666 / 44.1;
#X obj 1131 692 s \$0-sample-length-ms;
#X obj 1073 642 t f f f, f 17;
#X obj 769 271 r \$0-pointer;
#X obj 769 293 list prepend set;
#X obj 769 315 route list;
#X obj 751 0 s \$0-pitch-shift;
#X obj 110 370 r \$0-sample-length;
#X obj 92 284 *~;
#X obj 92 306 +~;
#X obj 130 284 r \$0-chunk-size;
#X obj 130 306 r \$0-read;
#X obj 92 328 wrap~;
#X obj 92 394 *~;
#X obj 101 495 r \$0-chunk-size;
#X obj 101 623 /;
#X obj 115 531 r \$0-sample-length-ms;
#X obj 101 577 *, f 7;
#X obj 115 553 t b a;
#X obj 101 685 f;
#X obj 129 642 r \$0-speed;
#X obj 129 664 t b a;
#X obj 101 707 *, f 4;
#X obj 101 729 s \$0-playback;
#X obj 92 188 r \$0-playback;
#X msg 101 601 1000 \$1;
#X obj 535 139 -, f 5;
#X obj 617 216 * 20;
#X obj 617 174 +;
#X msg 535 111 1 \$1;
#X obj 535 88 r \$0-speed;
#X text 11 475 caluculate playback speed based on loop length;
#X obj 240 8 wrap;
#X obj 154 -32 route length read speed point switch decay pitch, f
100;
#X text 436 108 speed make up;
#X text 664 123 over all shift;
#X obj 112 256 s~ \$0-master-phase;
#X obj 432 577 *~;
#X obj 165 69 s \$0-duck;
#X msg 133 95 stop;
#X obj 70 43 t b f b, f 14;
#X obj 70 97 f;
#X obj 70 121 s \$0-chunk-size;
#X obj 335 69 s \$0-duck;
#X msg 303 95 stop;
#X obj 240 43 t b f b, f 14;
#X obj 240 97 f;
#X obj 240 121 s \$0-read;
#X obj 617 238 lop~ 500;
#X obj 703 227 r \$0-retrigger;
#X obj 136 212 r \$0-retrigger;
#X obj 240 67 del 5.5;
#X obj 546 756 outlet~;
#X text 608 757 outlet phase;
#X obj 547 729 r~ \$0-master-phase;
#X obj 1018 78 s \$0-retrigger;
#X obj 1084 32 s \$0-duck;
#X msg 1080 56 stop;
#X obj 1018 7 t b b b, f 14;
#X msg 1018 53 0;
#X obj 821 376 r~ \$0-master-phase;
#X obj 836 605 -~ 0.5;
#X obj 836 627 *~ 0.5;
#X obj 836 649 cos~;
#X obj 836 529 r~ \$0-index;
#X obj 836 581 /~;
#X obj 854 558 r \$0-sample-length;
#X obj 836 693 clip~ 0 1;
#X obj 836 671 *~ 1000;
#X obj 988 316 r \$0-chunk-size;
#X obj 988 398 *;
#X obj 1010 341 r \$0-sample-length;
#X obj 1010 363 t b a;
#X obj 824 417 -~ 0.5;
#X obj 824 439 *~ 0.5;
#X obj 824 461 cos~;
#X obj 824 505 clip~ 0 1;
#X obj 824 483 *~ 1000;
#X obj 1053 383 r \$0-speed;
#X obj 988 433 *;
#X obj 1028 408 t b a;
#X obj 988 455 abs;
#X obj 988 492 / 44.1;
#X obj 432 517 *~;
#X obj 1018 31 del 5;
#X obj 1073 492 del 5;
#X obj 70 67 del 5;
#X msg 451 632 0 5 \, 1 5 5;
#X connect 0 0 61 0;
#X connect 0 0 89 0;
#X connect 2 0 3 0;
#X connect 3 0 81 0;
#X connect 3 1 81 1;
#X connect 4 0 5 0;
#X connect 4 0 15 0;
#X connect 5 0 10 0;
#X connect 6 0 7 0;
#X connect 7 0 8 0;
#X connect 8 0 9 0;
#X connect 9 0 23 1;
#X connect 10 0 6 0;
#X connect 10 0 11 0;
#X connect 11 0 12 0;
#X connect 12 0 9 1;
#X connect 13 0 12 0;
#X connect 15 0 16 0;
#X connect 15 0 19 0;
#X connect 16 0 17 0;
#X connect 17 0 18 0;
#X connect 18 0 22 0;
#X connect 19 0 20 0;
#X connect 20 0 22 1;
#X connect 21 0 20 0;
#X connect 22 0 23 0;
#X connect 23 0 136 0;
#X connect 24 0 86 0;
#X connect 25 0 111 0;
#X connect 27 0 40 0;
#X connect 29 0 28 0;
#X connect 35 0 43 0;
#X connect 35 0 43 1;
#X connect 36 0 29 0;
#X connect 37 0 140 0;
#X connect 39 0 46 1;
#X connect 40 0 138 0;
#X connect 40 1 39 0;
#X connect 40 2 38 0;
#X connect 40 2 42 0;
#X connect 42 0 138 0;
#X connect 43 0 36 1;
#X connect 46 0 48 1;
#X connect 47 0 48 0;
#X connect 47 1 46 0;
#X connect 48 0 55 0;
#X connect 51 0 93 0;
#X connect 53 0 54 0;
#X connect 55 0 41 0;
#X connect 55 1 53 0;
#X connect 55 2 52 0;
#X connect 56 0 57 0;
#X connect 57 0 58 0;
#X connect 58 0 12 0;
#X connect 58 0 20 0;
#X connect 60 0 66 1;
#X connect 61 0 62 0;
#X connect 62 0 65 0;
#X connect 63 0 61 1;
#X connect 64 0 62 1;
#X connect 65 0 66 0;
#X connect 66 0 14 0;
#X connect 67 0 70 0;
#X connect 68 0 72 0;
#X connect 69 0 71 0;
#X connect 70 0 78 0;
#X connect 71 0 70 0;
#X connect 71 1 70 1;
#X connect 72 0 75 0;
#X connect 73 0 74 0;
#X connect 74 0 72 0;
#X connect 74 1 75 1;
#X connect 75 0 76 0;
#X connect 77 0 0 0;
#X connect 78 0 68 0;
#X connect 79 0 81 0;
#X connect 80 0 101 0;
#X connect 81 0 80 0;
#X connect 82 0 79 0;
#X connect 83 0 82 0;
#X connect 85 0 98 0;
#X connect 86 0 51 0;
#X connect 86 1 85 0;
#X connect 86 2 30 0;
#X connect 86 3 26 0;
#X connect 86 4 44 0;
#X connect 86 5 45 0;
#X connect 86 6 59 0;
#X connect 90 0 36 0;
#X connect 92 0 139 0;
#X connect 93 0 139 0;
#X connect 93 1 94 1;
#X connect 93 2 91 0;
#X connect 93 2 92 0;
#X connect 94 0 95 0;
#X connect 97 0 104 0;
#X connect 98 0 104 0;
#X connect 98 1 99 1;
#X connect 98 2 96 0;
#X connect 98 2 97 0;
#X connect 99 0 100 0;
#X connect 101 0 4 0;
#X connect 102 0 4 1;
#X connect 103 0 0 1;
#X connect 104 0 99 0;
#X connect 107 0 105 0;
#X connect 110 0 137 0;
#X connect 111 0 137 0;
#X connect 111 1 109 0;
#X connect 111 2 110 0;
#X connect 112 0 108 0;
#X connect 113 0 126 0;
#X connect 114 0 115 0;
#X connect 115 0 116 0;
#X connect 116 0 121 0;
#X connect 117 0 118 0;
#X connect 118 0 114 0;
#X connect 119 0 118 1;
#X connect 120 0 136 1;
#X connect 121 0 120 0;
#X connect 122 0 123 0;
#X connect 123 0 132 0;
#X connect 124 0 125 0;
#X connect 125 0 123 0;
#X connect 125 1 123 1;
#X connect 126 0 127 0;
#X connect 127 0 128 0;
#X connect 128 0 130 0;
#X connect 129 0 90 1;
#X connect 130 0 129 0;
#X connect 131 0 133 0;
#X connect 132 0 134 0;
#X connect 133 0 132 0;
#X connect 133 1 132 1;
#X connect 134 0 135 0;
#X connect 135 0 121 1;
#X connect 135 0 130 1;
#X connect 136 0 90 0;
#X connect 137 0 112 0;
#X connect 138 0 47 0;
#X connect 139 0 94 0;
#X connect 140 0 35 0;
