#N canvas 11 50 821 539 10;
#X obj 103 46 t a a;
#X obj 135 72 unpack, f 9;
#X msg 130 193 /oled/gLine 3 \$1 \$2 \$3 \$4 1;
#X obj 128 166 pack 0 0 0 0, f 16;
#X obj 205 118 t f f;
#X obj 103 14 inlet x-y list;
#X obj 135 118 t f f;
#X obj 45 199 unpack, f 9;
#X obj 38 293 pack 0 0 0 0, f 16;
#X obj 115 245 t f f;
#X obj 45 245 t f f;
#X obj 122 373 outlet;
#X msg 38 316 /oled/gLine 3 \$1 \$2 \$3 \$4 1;
#X obj 135 94 - 2;
#X obj 195 94 - 2;
#X obj 200 140 + 4;
#X obj 237 140 + 4;
#X obj 77 266 + 4;
#X obj 115 267 + 4;
#X obj 106 221 - 2;
#X obj 45 221 - 2;
#X connect 0 0 7 0;
#X connect 0 1 1 0;
#X connect 1 0 13 0;
#X connect 1 1 14 0;
#X connect 2 0 11 0;
#X connect 3 0 2 0;
#X connect 4 0 3 1;
#X connect 4 1 16 0;
#X connect 5 0 0 0;
#X connect 6 0 3 0;
#X connect 6 1 15 0;
#X connect 7 0 20 0;
#X connect 7 1 19 0;
#X connect 8 0 12 0;
#X connect 9 0 18 0;
#X connect 9 1 8 3;
#X connect 10 0 8 0;
#X connect 10 1 17 0;
#X connect 12 0 11 0;
#X connect 13 0 6 0;
#X connect 14 0 4 0;
#X connect 15 0 3 2;
#X connect 16 0 3 3;
#X connect 17 0 8 2;
#X connect 18 0 8 1;
#X connect 19 0 9 0;
#X connect 20 0 10 0;
