#N canvas 660 66 1256 809 10;
#X text 153 17 argument 1: Add-Synth Number;
#X text 152 37 argument 2: voice number;
#X text 152 57 argument 3: Partial Number;
#X obj 84 293 *~;
#X text 237 122 fundamental;
#X text 115 295 times to create partial distance;
#X obj 83 715 throw~ addsyn-\$1-bus\$2;
#X obj 84 556 *~;
#X obj 84 453 *~;
#X obj 84 675 *~, f 7;
#X obj 102 533 r addsyn-\$1-level-\$3;
#X obj 138 221 list split 1;
#X obj 94 197 list split \$3;
#X obj 102 265 lop~ 2;
#N canvas 69 50 1229 909 filter-math 0;
#X obj 301 129 moses 0, f 14;
#X obj 301 220 expr 1 / $f1;
#X obj 301 190 abs;
#X obj 396 220 expr 1 / $f1;
#X obj 396 178 + 1;
#X obj 301 151 - 1;
#X obj 327 864 lop~ 8;
#X obj 301 98 expr \$3 - $f1;
#X obj 301 76 inlet;
#X text 577 104 imitates a bandpass filter. left inlet is target frequency
and right is the sharpness/resonance;
#X obj 327 886 outlet~;
#X obj 301 380 f;
#X obj 326 520 *;
#X obj 326 500 t f f;
#X obj 294 502 * 1;
#X obj 557 325 * 3;
#X obj 376 520 *;
#X obj 376 500 t f f;
#X obj 376 560 *;
#X obj 376 540 t f f;
#X obj 426 520 *;
#X obj 426 500 t f f;
#X obj 426 561 *;
#X obj 426 541 t f f;
#X obj 426 602 *;
#X obj 426 582 t f f;
#X obj 557 288 min 0.3333;
#X obj 557 347 expr 1 - $f1;
#X obj 663 327 * 3;
#X obj 663 290 min 0.3333;
#X obj 765 306 - 0.33333;
#X obj 765 329 * 3;
#X obj 765 284 clip 0.33333 0.666666;
#X obj 720 377 t b a;
#X obj 720 399 -;
#X obj 976 334 * 3;
#X obj 976 363 t b a;
#X obj 967 387 -;
#X obj 976 290 clip 0.666667 1;
#X obj 976 312 - 0.666667;
#X obj 444 646 t b a;
#X obj 384 646 t b a;
#X obj 335 646 t b a;
#X obj 275 646 t b a;
#X obj 257 674 *;
#X obj 317 674 *;
#X obj 366 674 *;
#X obj 426 674 *;
#X obj 299 733 +;
#X obj 370 732 +;
#X obj 322 800 +;
#X obj 403 696 t b a;
#X obj 310 707 t b a;
#X obj 370 754 t b a;
#X obj 663 223 inlet;
#X obj 566 542 *;
#X obj 566 522 t f f;
#X obj 566 583 *;
#X obj 566 563 t f f;
#X obj 566 624 *;
#X obj 566 604 t f f;
#X text 619 651 extra boost;
#X obj 322 822 +;
#X obj 566 728 t b a;
#X obj 301 278 t f f;
#X obj 301 300 *;
#X obj 301 323 expr 1 - $f1;
#X text 145 268 inverse parabola for accurate mxing between partials
, f 20;
#X obj 301 255 expr 1 - $f1;
#X obj 566 646 * 0.125;
#X obj 642 547 f \$3;
#X obj 642 527 loadbang;
#X obj 642 592 t f f;
#X obj 642 614 *;
#X obj 642 569 expr $f1 * (1/12);
#X connect 0 0 5 0;
#X connect 0 1 4 0;
#X connect 1 0 68 0;
#X connect 2 0 1 0;
#X connect 3 0 68 0;
#X connect 4 0 3 0;
#X connect 5 0 2 0;
#X connect 6 0 10 0;
#X connect 7 0 0 0;
#X connect 8 0 7 0;
#X connect 11 0 13 0;
#X connect 11 0 14 0;
#X connect 11 0 17 0;
#X connect 11 0 21 0;
#X connect 11 0 56 0;
#X connect 12 0 45 0;
#X connect 13 0 12 0;
#X connect 13 1 12 1;
#X connect 14 0 44 0;
#X connect 15 0 27 0;
#X connect 16 0 19 0;
#X connect 17 0 16 0;
#X connect 17 1 16 1;
#X connect 18 0 46 0;
#X connect 19 0 18 0;
#X connect 19 1 18 1;
#X connect 20 0 23 0;
#X connect 21 0 20 0;
#X connect 21 1 20 1;
#X connect 22 0 25 0;
#X connect 23 0 22 0;
#X connect 23 1 22 1;
#X connect 24 0 47 0;
#X connect 25 0 24 0;
#X connect 25 1 24 1;
#X connect 26 0 15 0;
#X connect 27 0 43 0;
#X connect 28 0 34 0;
#X connect 29 0 28 0;
#X connect 30 0 31 0;
#X connect 31 0 33 0;
#X connect 31 0 37 0;
#X connect 32 0 30 0;
#X connect 33 0 34 0;
#X connect 33 1 34 1;
#X connect 34 0 42 0;
#X connect 35 0 36 0;
#X connect 35 0 40 0;
#X connect 36 0 37 0;
#X connect 36 1 37 1;
#X connect 37 0 41 0;
#X connect 38 0 39 0;
#X connect 39 0 35 0;
#X connect 40 0 47 0;
#X connect 40 1 47 1;
#X connect 41 0 46 0;
#X connect 41 1 46 1;
#X connect 42 0 45 0;
#X connect 42 1 45 1;
#X connect 43 0 44 0;
#X connect 43 1 44 1;
#X connect 44 0 48 0;
#X connect 45 0 52 0;
#X connect 46 0 49 0;
#X connect 47 0 51 0;
#X connect 48 0 50 0;
#X connect 49 0 53 0;
#X connect 50 0 62 0;
#X connect 51 0 49 0;
#X connect 51 1 49 1;
#X connect 52 0 48 0;
#X connect 52 1 48 1;
#X connect 53 0 50 0;
#X connect 53 1 50 1;
#X connect 54 0 26 0;
#X connect 54 0 29 0;
#X connect 54 0 32 0;
#X connect 54 0 38 0;
#X connect 55 0 58 0;
#X connect 56 0 55 0;
#X connect 56 1 55 1;
#X connect 57 0 60 0;
#X connect 58 0 57 0;
#X connect 58 1 57 1;
#X connect 59 0 69 0;
#X connect 60 0 59 0;
#X connect 60 1 59 1;
#X connect 62 0 6 0;
#X connect 63 0 62 0;
#X connect 63 1 62 1;
#X connect 64 0 65 0;
#X connect 64 1 65 1;
#X connect 65 0 66 0;
#X connect 66 0 11 0;
#X connect 68 0 64 0;
#X connect 69 0 63 0;
#X connect 70 0 74 0;
#X connect 71 0 70 0;
#X connect 72 0 73 0;
#X connect 72 1 73 1;
#X connect 73 0 69 1;
#X connect 74 0 72 0;
#X restore 131 642 pd filter-math;
#X obj 94 172 r addsyn-\$1-freqset-local;
#X obj 226 619 r addsyn-\$1-filterRez-local;
#X obj 131 590 r addsyn-\$1-filterPole-local;
#X obj 607 338 r addsyn-\$1-r-\$3, f 14;
#X obj 486 354 / 127;
#X obj 516 302 r addsyn-\$1-a-\$3;
#X obj 456 386 c_adsr 1 20 300 90 500;
#X obj 456 408 *~;
#X obj 456 430 *~;
#X obj 84 396 osc~;
#X obj 456 272 t f f b;
#X obj 456 233 r addsyn-\$1-trig\$2;
#X obj 84 123 r~ addsyn-\$1-root\$2;
#X obj 85 352 clip~ 0 22050;
#X connect 3 0 28 0;
#X connect 7 0 9 0;
#X connect 8 0 7 0;
#X connect 9 0 6 0;
#X connect 10 0 7 1;
#X connect 11 0 13 0;
#X connect 12 1 11 0;
#X connect 13 0 3 1;
#X connect 14 0 9 1;
#X connect 15 0 12 0;
#X connect 16 0 14 1;
#X connect 17 0 14 0;
#X connect 18 0 21 5;
#X connect 19 0 21 1;
#X connect 20 0 21 2;
#X connect 21 0 22 0;
#X connect 21 0 22 1;
#X connect 22 0 23 0;
#X connect 22 0 23 1;
#X connect 23 0 8 1;
#X connect 24 0 8 0;
#X connect 25 0 21 0;
#X connect 25 1 19 0;
#X connect 26 0 25 0;
#X connect 27 0 3 0;
#X connect 28 0 24 0;
