#N canvas 953 50 913 708 10;
#X obj 127 15 inlet;
#X obj 127 37 unpack 0 0, f 23;
#X obj 125 456 catch~ addsyn-\$1-bus\$2;
#X obj 125 598 outlet~;
#X text 189 599 sound out;
#X obj 127 343 mtof~;
#X obj 146 235 r addsyn-\$1-tune-local;
#X obj 127 74 sig~;
#X obj 127 289 +~;
#X obj 146 258 lop~ 10;
#X obj 12 375 sig~ 1;
#X obj 42 413 -~;
#X obj 125 518 *~;
#X obj 128 392 s~ addsyn-\$1-root\$2;
#X obj 42 485 lop~ 50;
#X obj 61 374 /~ 22050;
#X obj 285 71 s addsyn-\$1-trig\$2;
#X obj 713 201 addsyn-partial \$1 \$2 8;
#X obj 713 261 addsyn-partial \$1 \$2 11;
#X obj 713 41 addsyn-partial \$1 \$2 0;
#X obj 713 81 addsyn-partial \$1 \$2 2;
#X obj 713 241 addsyn-partial \$1 \$2 10;
#X obj 713 61 addsyn-partial \$1 \$2 1;
#X obj 713 121 addsyn-partial \$1 \$2 4;
#X obj 713 181 addsyn-partial \$1 \$2 7;
#X obj 713 221 addsyn-partial \$1 \$2 9;
#X obj 713 101 addsyn-partial \$1 \$2 3;
#X obj 713 141 addsyn-partial \$1 \$2 5;
#X obj 713 161 addsyn-partial \$1 \$2 6;
#X obj 42 435 *~;
#X obj 42 457 *~;
#X connect 0 0 1 0;
#X connect 1 0 7 0;
#X connect 1 1 16 0;
#X connect 2 0 12 0;
#X connect 5 0 13 0;
#X connect 5 0 15 0;
#X connect 6 0 9 0;
#X connect 7 0 8 0;
#X connect 8 0 5 0;
#X connect 9 0 8 1;
#X connect 10 0 11 0;
#X connect 11 0 29 0;
#X connect 11 0 29 1;
#X connect 12 0 3 0;
#X connect 14 0 12 1;
#X connect 15 0 11 1;
#X connect 29 0 30 0;
#X connect 29 0 30 1;
#X connect 30 0 14 0;
