#N canvas 525 62 891 726 10;
#X obj 292 80 r notes;
#X obj 210 298 throw~ outL;
#X obj 296 298 throw~ outR;
#X obj 694 520 s addsyn-1-filterPole;
#X obj 481 504 s addsyn-1-filterRez;
#X obj 286 491 s addsyn-1-freqset;
#X obj 286 462 r knob2;
#X obj 481 476 r knob3;
#X obj 694 498 r knob4;
#X obj 282 528 r addsyn-1-freqset-label;
#X obj 282 584 s screenLine2;
#X obj 481 575 s screenLine3;
#X obj 481 533 r addsyn-1-filterRez-label;
#X obj 691 588 s screenLine4;
#X obj 691 546 r addsyn-1-filterPole-label;
#X obj 60 466 r knob1;
#X obj 60 577 s screenLine1;
#X obj 60 525 r addsyn-1-tune-label;
#X obj 60 492 s addsyn-1-tune;
#X obj 276 258 rev3~ 100 75 3000 20;
#X obj 211 199 AddSynth 1;
#X obj 60 547 list prepend 1:;
#X obj 692 568 list prepend 4:;
#X obj 481 555 list prepend 3:;
#X obj 282 555 list prepend 2:;
#X obj 211 145 Sequencer2 1;
#X obj 182 77 r aux;
#X obj 229 78 r fs;
#X obj 70 375 s led;
#X obj 70 353 r seq2-1-led;
#X obj 184 357 r seq2-1-aux-label;
#X obj 184 382 s screenLine5;
#X text 330 144 sequencer;
#X text 304 197 The additive synth;
#X text 429 258 some reverb;
#X text 386 300 sound out;
#X obj 212 251 *~ 1;
#X connect 0 0 25 1;
#X connect 6 0 5 0;
#X connect 7 0 4 0;
#X connect 8 0 3 0;
#X connect 9 0 24 0;
#X connect 12 0 23 0;
#X connect 14 0 22 0;
#X connect 15 0 18 0;
#X connect 17 0 21 0;
#X connect 19 0 1 0;
#X connect 19 1 2 0;
#X connect 19 2 1 0;
#X connect 19 3 2 0;
#X connect 20 0 36 0;
#X connect 20 0 19 0;
#X connect 21 0 16 0;
#X connect 22 0 13 0;
#X connect 23 0 11 0;
#X connect 24 0 10 0;
#X connect 25 0 20 0;
#X connect 26 0 25 0;
#X connect 27 0 25 0;
#X connect 29 0 28 0;
#X connect 30 0 31 0;
#X connect 36 0 1 0;
#X connect 36 0 2 0;
