#N canvas 520 117 1286 843 10;
#N canvas 668 75 450 300 press-n-hold 0;
#X obj 135 147 f;
#X obj 135 94 sel 1;
#X obj 120 54 t f f;
#X obj 135 173 sel 1;
#X obj 135 119 del 500;
#X obj 108 7 inlet;
#X obj 131 225 outlet;
#X text 184 17 aux button in;
#X text 200 213 bang if held for 1/2 second;
#X connect 0 0 3 0;
#X connect 1 0 4 0;
#X connect 2 0 1 0;
#X connect 2 1 0 1;
#X connect 3 0 6 0;
#X connect 4 0 0 0;
#X connect 5 0 2 0;
#X restore 887 63 pd press-n-hold;
#X text 184 352 check every quater note how many sounding;
#X msg 182 415 0;
#X obj 283 487 + 1;
#X obj 109 572 i, f 4;
#X obj 283 459 i 0;
#X obj 109 352 t b b b;
#X obj 109 319 metro 300;
#X obj 109 289 loadbang;
#X obj 981 675 delay 100;
#X obj 794 634 delay 100;
#X obj 896 542 sel 0 1 2 3;
#X obj 896 495 counter-up 4;
#X obj 723 718 delay 300;
#X obj 896 576 b;
#X obj 981 594 b;
#X obj 745 580 b;
#X obj 109 604 s pb-\$1-number-playing-local;
#X obj 106 486 s pb-\$1-are-you-playing;
#X obj 283 412 r pb-\$1-i-am-playing;
#X obj 887 87 s pb-\$1-cancel;
#X obj 887 36 r pb-\$1-aux;
#X msg 799 712 1;
#X msg 745 652 0;
#X obj 864 796 s pb-\$1-led;
#X msg 794 657 0;
#X msg 872 637 6;
#X msg 981 698 0;
#X msg 1015 638 7;
#X obj 860 322 r master-ticks;
#X obj 772 439 r pb-\$1-cancel;
#X obj 896 462 sel 0;
#X obj 532 22 r pb-\$1-div;
#X obj 683 59 r pb-\$1-note-len;
#X obj 278 71 pb-notes 17 \$1;
#X obj 686 83 * 1000;
#X obj 728 176 s pb-\$1-note-len-local;
#X obj 694 177 i;
#X obj 697 243 s pb-\$1-note-len-label;
#X msg 697 210 Note Length \$1;
#X obj 527 54 * 32;
#X obj 530 102 i;
#X msg 534 135 Division \$1;
#X obj 533 167 s pb-\$1-div-label;
#X obj 489 220 s pb-\$1-div-local;
#X msg 794 577 stop;
#X obj 881 376 spigot 0;
#X obj 1013 315 r pb-\$1-notes-in;
#X obj 1013 340 stripnote;
#X obj 1013 362 t b;
#X msg 998 385 1;
#X obj 771 476 t b b b;
#X msg 841 514 0;
#X obj 530 78 + 1;
#X obj 276 229 pb-notes 23 \$1;
#X obj 51 45 pb-notes 0 \$1;
#X obj 275 44 pb-notes 16 \$1;
#X obj 52 72 pb-notes 1 \$1;
#X obj 52 99 pb-notes 2 \$1;
#X obj 53 126 pb-notes 3 \$1;
#X obj 52 152 pb-notes 4 \$1;
#X obj 53 181 pb-notes 5 \$1;
#X obj 50 204 pb-notes 6 \$1;
#X obj 51 231 pb-notes 7 \$1;
#X obj 160 232 pb-notes 15 \$1;
#X obj 158 205 pb-notes 14 \$1;
#X obj 162 182 pb-notes 13 \$1;
#X obj 160 153 pb-notes 12 \$1;
#X obj 161 127 pb-notes 11 \$1;
#X obj 160 100 pb-notes 10 \$1;
#X obj 160 73 pb-notes 9 \$1;
#X obj 159 46 pb-notes 8 \$1;
#X obj 277 98 pb-notes 18 \$1;
#X obj 278 125 pb-notes 19 \$1;
#X obj 277 151 pb-notes 20 \$1;
#X obj 278 180 pb-notes 21 \$1;
#X obj 275 203 pb-notes 22 \$1;
#X obj 1036 17 r pb-\$1-vel;
#X obj 1058 50 * 127;
#X obj 1084 120 s pb-\$1-vel-local;
#X obj 1008 185 s pb-\$1-vel-label;
#X obj 1012 98 * 101;
#X obj 1012 120 i;
#X msg 1008 152 Note Velocity \$1;
#X obj 690 143 + 10;
#X obj 909 173 tgl 15 0 empty empty empty 17 7 0 10 -262144 -1 -1 1
1;
#X obj 844 111 sel 1;
#N canvas 10 50 604 357 swing-sixteenths 0;
#X obj 162 54 inlet;
#X obj 161 128 sel 0 12;
#X obj 207 318 outlet;
#X obj 269 189 timer;
#X obj 338 40 t b f;
#X obj 438 175 * 100;
#X obj 457 98 / 4;
#X obj 412 103 f;
#X obj 356 200 sel 6 18;
#X obj 365 246 delay 0;
#X obj 465 41 inlet;
#X connect 0 0 1 0;
#X connect 0 0 8 0;
#X connect 1 0 2 0;
#X connect 1 0 3 0;
#X connect 1 1 2 0;
#X connect 1 1 3 1;
#X connect 3 0 4 0;
#X connect 4 0 7 0;
#X connect 4 1 6 0;
#X connect 5 0 9 1;
#X connect 6 0 5 1;
#X connect 7 0 5 0;
#X connect 8 0 9 0;
#X connect 8 1 9 0;
#X connect 9 0 2 0;
#X connect 10 0 7 1;
#X restore 535 531 pd swing-sixteenths;
#X obj 549 407 i;
#X obj 646 303 r pb-\$1-swing;
#X obj 557 378 * 101;
#X obj 543 470 s pb-\$1-swing-label;
#X obj 518 598 s pb-\$1-ticks;
#X msg 544 436 Swing \$1 %;
#X msg 60 660 [ \$1 ] Notes Latched;
#X obj 60 686 s pb-\$1-aux-label;
#X connect 0 0 20 0;
#X connect 2 0 5 1;
#X connect 2 0 4 1;
#X connect 3 0 5 1;
#X connect 3 0 4 1;
#X connect 4 0 17 0;
#X connect 4 0 94 0;
#X connect 5 0 3 0;
#X connect 6 0 4 0;
#X connect 6 1 18 0;
#X connect 6 2 2 0;
#X connect 7 0 6 0;
#X connect 8 0 7 0;
#X connect 9 0 27 0;
#X connect 10 0 25 0;
#X connect 11 0 14 0;
#X connect 11 1 15 0;
#X connect 11 2 15 0;
#X connect 11 3 15 0;
#X connect 12 0 11 0;
#X connect 13 0 23 0;
#X connect 14 0 10 0;
#X connect 14 0 26 0;
#X connect 15 0 9 0;
#X connect 15 0 28 0;
#X connect 16 0 13 0;
#X connect 16 0 22 0;
#X connect 19 0 5 0;
#X connect 21 0 0 0;
#X connect 21 0 86 0;
#X connect 22 0 24 0;
#X connect 23 0 24 0;
#X connect 25 0 24 0;
#X connect 26 0 24 0;
#X connect 27 0 24 0;
#X connect 28 0 24 0;
#X connect 29 0 46 0;
#X connect 30 0 51 0;
#X connect 31 0 12 0;
#X connect 32 0 40 0;
#X connect 33 0 35 0;
#X connect 35 0 84 0;
#X connect 37 0 39 0;
#X connect 39 0 38 0;
#X connect 40 0 53 0;
#X connect 41 0 42 0;
#X connect 41 0 44 0;
#X connect 42 0 43 0;
#X connect 45 0 10 0;
#X connect 45 0 9 0;
#X connect 46 0 31 0;
#X connect 46 0 87 0;
#X connect 47 0 48 0;
#X connect 48 0 49 0;
#X connect 49 0 50 0;
#X connect 50 0 85 0;
#X connect 51 0 16 0;
#X connect 51 1 45 0;
#X connect 51 2 52 0;
#X connect 52 0 46 1;
#X connect 53 0 41 0;
#X connect 77 0 78 0;
#X connect 77 0 81 0;
#X connect 78 0 79 0;
#X connect 81 0 82 0;
#X connect 82 0 83 0;
#X connect 83 0 80 0;
#X connect 84 0 37 0;
#X connect 84 0 36 0;
#X connect 85 0 46 1;
#X connect 86 0 85 0;
#X connect 87 0 92 0;
#X connect 88 0 93 0;
#X connect 89 0 87 1;
#X connect 89 0 90 0;
#X connect 90 0 88 0;
#X connect 93 0 91 0;
#X connect 94 0 95 0;
