#N canvas 0 22 1440 799 10;
#N canvas 0 50 450 278 (subpatch) 0;
#X array \$1-array 149337 float 2;
#X coords 0 1 149337 -1 335 251 1 0 0;
#X restore 882 260 graph;
#X obj 1238 395 soundfiler;
#X floatatom 1238 426 10 0 0 0 - - -, f 10;
#X floatatom 1238 485 10 0 0 0 - - -, f 10;
#X obj 1238 454 / 44.1;
#X text 1294 454 sample rate / 1000;
#X obj 202 693 line~;
#X obj 140 219 inlet;
#X obj 140 285 bng 15 250 50 0 empty empty empty 17 7 0 10 -262144
-1 -1;
#X msg 266 417 0 0;
#X obj 152 637 pack 0 0;
#X floatatom 167 474 5 0 0 0 - - -, f 5;
#X floatatom 175 407 5 0 0 0 - - -, f 5;
#X obj 121 430 f;
#X obj 107 482 * 44.1;
#X obj 1238 516 s \$1-duration;
#X obj 203 720 tabread4~ \$1-array;
#X obj 166 443 r \$1-duration;
#X obj 175 382 r \$1-duration;
#X obj 1238 197 bng 15 250 50 0 empty empty empty 17 7 0 10 -262144
-1 -1;
#X obj 1238 223 symbol \$1-array;
#X obj 1238 309 list prepend -resize;
#X obj 1238 337 list prepend read;
#X obj 1238 365 list trim;
#X obj 1238 170 loadbang;
#X text 1118 125 construct the read message using the sound file name
(\$1);
#X obj 1238 245 list;
#X obj 1238 276 list prepend \$1;
#X obj 186 101 r notes;
#X obj 230 175 stripnote;
#X obj 230 288 sel \$2;
#X obj 261 103 r notes_seq;
#X obj 362 104 r zero_notes;
#X obj 230 262 % 24;
#X obj 203 843 throw~ samp_voice_out;
#X obj 203 555 f;
#X obj 295 514 t b f;
#X obj 230 236 abs;
#X text 302 289 second argument (key number);
#X text 416 27 loads and plays sound file;
#X text 417 49 argument 1: soundfile to load;
#X text 418 70 argument 2: key number to play;
#X obj 230 197 expr if ($f1 > 59 \, $f1 - 60 \, $f1 - 12);
#X text 342 221 allow all midi notes to trigger samples...;
#X obj 217 327 t b b b;
#X obj 429 693 vline~;
#X obj 424 723 *~;
#X obj 429 600 f 1000;
#X obj 487 507 r \$1-duration;
#X text 1314 484 milliseconds;
#X obj 469 362 r knob4;
#X obj 469 564 *;
#X obj 469 479 *;
#X obj 469 457 t f f;
#X obj 202 764 *~;
#X obj 429 628 pack 0 0;
#X obj 469 393 t f f;
#X text 539 414 if knob all the way up \, never decay;
#X text 541 365 do a simple amplitude decay;
#X floatatom 651 560 5 0 0 0 - - -, f 5;
#X obj 538 442 expr if($f1 > 0.98 \, 1 \, 0);
#X obj 203 798 hip~ 5;
#X text 283 800 cut DC;
#X obj 487 532 * 2;
#X text 438 312 scale playback speed;
#X obj 350 382 / 100;
#X obj 350 404 mtof;
#X obj 350 426 / 8.1785;
#X obj 350 357 * 2400;
#X obj 334 465 / 2;
#X obj 193 605 / 1;
#X obj 351 333 r knob1-detent;
#X msg 429 657 0 2 \, 1 2 2 \, \$2 \$1 4;
#X obj 243 357 delay 2;
#X obj 149 358 delay 2;
#X connect 1 0 2 0;
#X connect 2 0 4 0;
#X connect 3 0 15 0;
#X connect 4 0 3 0;
#X connect 6 0 16 0;
#X connect 7 0 8 0;
#X connect 8 0 44 0;
#X connect 9 0 6 0;
#X connect 10 0 6 0;
#X connect 11 0 35 0;
#X connect 12 0 13 1;
#X connect 13 0 14 0;
#X connect 14 0 10 0;
#X connect 16 0 54 0;
#X connect 17 0 11 0;
#X connect 18 0 12 0;
#X connect 19 0 20 0;
#X connect 20 0 26 0;
#X connect 21 0 22 0;
#X connect 22 0 23 0;
#X connect 23 0 1 0;
#X connect 24 0 19 0;
#X connect 26 0 27 0;
#X connect 27 0 21 0;
#X connect 28 0 29 0;
#X connect 29 0 42 0;
#X connect 30 0 44 0;
#X connect 31 0 29 0;
#X connect 32 0 29 0;
#X connect 33 0 30 0;
#X connect 35 0 70 0;
#X connect 36 0 35 0;
#X connect 36 1 70 1;
#X connect 37 0 33 0;
#X connect 42 0 37 0;
#X connect 44 0 74 0;
#X connect 44 1 73 0;
#X connect 44 2 47 0;
#X connect 45 0 46 1;
#X connect 45 0 46 0;
#X connect 46 0 54 1;
#X connect 47 0 55 0;
#X connect 48 0 63 0;
#X connect 50 0 56 0;
#X connect 51 0 47 1;
#X connect 52 0 51 0;
#X connect 53 0 52 0;
#X connect 53 1 52 1;
#X connect 54 0 61 0;
#X connect 55 0 72 0;
#X connect 56 0 53 0;
#X connect 56 1 60 0;
#X connect 60 0 55 1;
#X connect 60 0 59 0;
#X connect 61 0 34 0;
#X connect 63 0 51 1;
#X connect 65 0 66 0;
#X connect 66 0 67 0;
#X connect 67 0 69 0;
#X connect 68 0 65 0;
#X connect 69 0 36 0;
#X connect 70 0 10 1;
#X connect 71 0 68 0;
#X connect 72 0 45 0;
#X connect 73 0 9 0;
#X connect 74 0 13 0;
