#N canvas 234 149 1433 898 10;
#X obj 251 379 soundfiler;
#X obj 325 254 symbol \$1;
#X text 396 252 get name of array;
#X text 499 93 this is the array \, automatically named by the first
argument (look in properties for this object);
#X text 317 310 pack it together;
#X text 482 346 compose the request for soundfiler;
#X text 471 31 ***use this object with cg-looper***;
#X text 7 31 arg 1: name of array for refencing with tabread~/tabread4~
(example: array);
#X text 12 84 arg 3: normalize on:1 off:0;
#X text 16 64 arg 2: number;
#X obj 251 190 \$2;
#X obj 325 276 makefilename %s-\$2;
#X obj 251 311 pack f s;
#X obj 251 219 t f b, f 11;
#X text 22 105 arg 4: max length in ms;
#N canvas 242 51 1327 908 record-guts 0;
#X obj 130 134 r~ inL;
#X obj 602 138 r~ inR;
#X obj 163 377 threshold~ 0.01 5 0.1 5;
#X obj 163 352 *~;
#X obj 163 398 t b b, f 8;
#X msg 181 320 0;
#X msg 232 319 1;
#X text 193 352 incoming signal above 0.01 triggers record.;
#X text 230 399 than immediatley disable;
#X obj 162 749 r \$0-2-tabwrite;
#X obj 181 260 r \$0-rec-switch;
#X obj 181 282 sel 0 1, f 15;
#X obj 216 431 r \$0-rec-switch;
#X obj 145 671 *~;
#X obj 163 550 spigot 0;
#X obj 163 624 vline~;
#X obj 216 453 sel 0 1, f 21;
#X obj 216 475 t b b;
#X msg 216 501 0;
#X msg 288 476 1;
#X obj 240 602 s \$0-record!;
#X obj 163 646 *~;
#X obj 62 368 hip~ 5;
#X obj 145 693 hip~ 5;
#X obj 145 715 lop~ 20000;
#X obj 131 300 *~ 0.9;
#X obj 1070 700 timer;
#X obj 1070 730 * 44.1;
#X text 1119 777 time length of recording in samples;
#X msg 1286 600 stop;
#X obj 1070 754 expr if($f1 < 4410 \, 4410 \, $f1);
#X text 1122 793 it must be at least 4410 cause this;
#X text 1125 811 is what the player assumes;
#X obj 1070 837 s \$0-dur;
#X obj 1176 463 r \$0-record!;
#X obj 1062 392 sel 0 1, f 33;
#X obj 1176 439 s \$0-rec-switch;
#X msg 1176 416 1;
#X obj 1122 591 s \$0-rec-switch;
#X msg 1122 568 0;
#X obj 1062 484 t b b b b;
#X obj 1134 668 s \$0-stop-record!;
#X obj 1225 565 s \$0-2-tabwrite;
#X obj 1102 638 t b b;
#X obj 1286 625 delay \$4;
#X obj 1286 672 s \$0-autostop;
#X text 1356 626 maximum record time arg 4;
#X obj 1176 490 t b b b b, f 18;
#X obj 948 592 s \$1-done-recording;
#X msg 335 621 \; \$1 const 0;
#X text 955 610 clear the array;
#X obj 163 575 t b b b b, f 25;
#X msg 248 541 0 5;
#X msg 163 602 0 \, 1 5 0;
#X obj 1062 278 inlet;
#X text 1116 202 toggle arm recording \, turn off recording;
#X obj 1125 311 r \$0-autostop;
#X msg 1125 335 0;
#X obj 1361 556 outlet;
#X obj 633 377 threshold~ 0.01 5 0.1 5;
#X obj 633 352 *~;
#X obj 633 398 t b b, f 8;
#X msg 651 320 0;
#X msg 702 319 1;
#X text 663 352 incoming signal above 0.01 triggers record.;
#X text 700 399 than immediatley disable;
#X obj 632 749 r \$0-2-tabwrite;
#X obj 651 260 r \$0-rec-switch;
#X obj 651 282 sel 0 1, f 15;
#X obj 686 431 r \$0-rec-switch;
#X obj 615 671 *~;
#X obj 633 550 spigot 0;
#X obj 633 624 vline~;
#X obj 686 453 sel 0 1, f 21;
#X obj 686 475 t b b;
#X msg 686 501 0;
#X msg 758 476 1;
#X obj 710 602 s \$0-record!;
#X obj 633 646 *~;
#X obj 532 368 hip~ 5;
#X obj 615 693 hip~ 5;
#X obj 615 715 lop~ 20000;
#X obj 601 300 *~ 0.9;
#X msg 805 620 \; \$1 const 0;
#X obj 633 575 t b b b b, f 25;
#X msg 718 541 0 5;
#X msg 633 602 0 \, 1 5 0;
#X obj 532 425 delwrite~ \$0-delR 5;
#X obj 530 450 delread~ \$0-delR 5;
#X obj 63 425 delwrite~ \$0-delL 5;
#X obj 60 450 delread~ \$0-delL 5;
#X obj 146 774 tabwrite~ \$1-\$2L;
#X obj 616 774 tabwrite~ \$1-\$2R;
#X obj 335 598 symbol \$1-\$2L;
#X obj 805 598 symbol \$1-\$2R;
#X connect 0 0 25 0;
#X connect 1 0 82 0;
#X connect 2 0 4 0;
#X connect 3 0 2 0;
#X connect 4 0 14 0;
#X connect 4 1 5 0;
#X connect 5 0 3 1;
#X connect 6 0 3 1;
#X connect 9 0 91 0;
#X connect 10 0 11 0;
#X connect 11 0 5 0;
#X connect 11 1 6 0;
#X connect 12 0 16 0;
#X connect 13 0 23 0;
#X connect 14 0 51 0;
#X connect 15 0 21 0;
#X connect 15 0 21 1;
#X connect 16 0 17 0;
#X connect 16 1 19 0;
#X connect 17 0 18 0;
#X connect 17 1 52 0;
#X connect 18 0 14 1;
#X connect 19 0 14 1;
#X connect 21 0 13 1;
#X connect 22 0 89 0;
#X connect 23 0 24 0;
#X connect 24 0 91 0;
#X connect 25 0 3 0;
#X connect 25 0 22 0;
#X connect 26 0 27 0;
#X connect 27 0 30 0;
#X connect 29 0 44 0;
#X connect 30 0 33 0;
#X connect 34 0 47 0;
#X connect 35 0 40 0;
#X connect 35 1 37 0;
#X connect 37 0 36 0;
#X connect 39 0 38 0;
#X connect 40 0 48 0;
#X connect 40 1 29 0;
#X connect 40 2 43 0;
#X connect 40 3 39 0;
#X connect 43 0 26 1;
#X connect 43 1 41 0;
#X connect 44 0 45 0;
#X connect 47 0 26 0;
#X connect 47 1 44 0;
#X connect 47 2 42 0;
#X connect 47 3 29 0;
#X connect 47 3 58 0;
#X connect 51 0 53 0;
#X connect 51 1 20 0;
#X connect 51 3 93 0;
#X connect 52 0 15 0;
#X connect 53 0 15 0;
#X connect 54 0 35 0;
#X connect 56 0 57 0;
#X connect 57 0 35 0;
#X connect 59 0 61 0;
#X connect 60 0 59 0;
#X connect 61 0 71 0;
#X connect 61 1 62 0;
#X connect 62 0 60 1;
#X connect 63 0 60 1;
#X connect 66 0 92 0;
#X connect 67 0 68 0;
#X connect 68 0 62 0;
#X connect 68 1 63 0;
#X connect 69 0 73 0;
#X connect 70 0 80 0;
#X connect 71 0 84 0;
#X connect 72 0 78 0;
#X connect 72 0 78 1;
#X connect 73 0 74 0;
#X connect 73 1 76 0;
#X connect 74 0 75 0;
#X connect 74 1 85 0;
#X connect 75 0 71 1;
#X connect 76 0 71 1;
#X connect 78 0 70 1;
#X connect 79 0 87 0;
#X connect 80 0 81 0;
#X connect 81 0 92 0;
#X connect 82 0 60 0;
#X connect 82 0 79 0;
#X connect 84 0 86 0;
#X connect 84 1 77 0;
#X connect 84 3 94 0;
#X connect 85 0 72 0;
#X connect 86 0 72 0;
#X connect 88 0 70 0;
#X connect 90 0 13 0;
#X connect 93 0 49 0;
#X connect 94 0 83 0;
#X restore 54 573 pd record-guts;
#X msg 689 577 stop;
#X obj 471 823 soundfiler;
#X obj 471 530 t b b, f 16;
#X obj 689 603 s \$0-2-tabwrite;
#X obj 657 475 r \$0-stop-record!;
#X obj 471 662 f;
#X obj 489 630 r \$0-dur;
#X obj 471 494 r saveState;
#X obj 529 670 loadbang;
#X obj 529 692 symbol \$1;
#X obj 471 722 pack 0 s \$2, f 17;
#X obj 657 709 symbol \$1-\$2;
#X obj 657 686 spigot 0;
#X obj 710 637 loadbang;
#X text 744 660 call arg2 for nomarlize off/on;
#X text 528 448 when save is triggered save the array;
#X obj 251 416 outlet;
#X obj 870 302 r \$0-dur;
#X msg 710 530 stop;
#X obj 710 660 \$3;
#X obj 870 330 t a b;
#X obj 909 357 \$2;
#X obj 870 386 tabwrite \$1-lengths;
#X obj 657 554 t b b;
#X obj 657 530 del 5;
#X msg 524 224 resize \$1;
#X obj 524 177 \$4;
#X obj 524 199 * 44.1;
#X text 305 416 files size in samples;
#X obj 54 481 inlet;
#X text 103 483 rec control;
#X text 922 328 store length in array outside of this object;
#X obj 813 141 loadbang;
#X obj 524 155 r \$0-size-loadbang;
#X obj 251 148 r \$0-read-loadbang;
#X obj 657 505 t b b, f 8;
#X obj 813 163 t b b;
#X obj 845 185 s \$0-size-loadbang;
#X obj 813 207 s \$0-read-loadbang;
#X obj 54 595 outlet;
#X obj 732 684 bng 15 250 50 0 empty empty empty 17 7 0 10 -262144
-1 -1;
#X obj 207 428 b;
#X obj 207 452 s segmenty-1-print-new;
#X obj 251 170 del 20;
#X obj 524 272 array define \$1-\$2L;
#X obj 682 272 array define \$1-\$2R;
#X obj 524 246 t a a, f 23;
#X msg 251 346 read sounds/\$1.wav \$2L \$2R;
#X msg 471 791 write -nframes \$1 sounds/\$3.wav \$2-\$3L \$2-\$3L
;
#X msg 657 731 \; \$1L normalize \; \$1R normalize \;;
#X connect 0 0 32 0;
#X connect 0 0 57 0;
#X connect 1 0 11 0;
#X connect 10 0 13 0;
#X connect 11 0 12 1;
#X connect 12 0 63 0;
#X connect 13 0 12 0;
#X connect 13 1 1 0;
#X connect 15 0 55 0;
#X connect 16 0 19 0;
#X connect 18 0 21 0;
#X connect 18 1 16 0;
#X connect 20 0 51 0;
#X connect 21 0 26 0;
#X connect 22 0 21 1;
#X connect 23 0 18 0;
#X connect 24 0 25 0;
#X connect 25 0 26 1;
#X connect 26 0 64 0;
#X connect 27 0 65 0;
#X connect 28 0 27 0;
#X connect 29 0 35 0;
#X connect 33 0 36 0;
#X connect 34 0 40 0;
#X connect 35 0 28 1;
#X connect 36 0 38 0;
#X connect 36 1 37 0;
#X connect 37 0 38 1;
#X connect 39 0 28 0;
#X connect 39 1 16 0;
#X connect 40 0 39 0;
#X connect 41 0 62 0;
#X connect 42 0 43 0;
#X connect 43 0 41 0;
#X connect 45 0 15 0;
#X connect 48 0 52 0;
#X connect 49 0 42 0;
#X connect 50 0 59 0;
#X connect 51 0 40 0;
#X connect 51 1 34 0;
#X connect 52 0 54 0;
#X connect 52 1 53 0;
#X connect 56 0 27 0;
#X connect 57 0 58 0;
#X connect 59 0 10 0;
#X connect 62 0 60 0;
#X connect 62 1 61 0;
#X connect 63 0 0 0;
#X connect 64 0 17 0;
