#N canvas 52 50 1694 945 10;
#X declare -path patchmenu;
#X obj 169 399 unpack 0 0;
#X obj 169 459 pack 0 0 0;
#N canvas 0 50 450 278 (subpatch) 0;
#X array \$0-notes-from-poly 8 float 2;
#X coords 0 127 8 0 200 140 1 0 0;
#X restore 656 86 graph;
#X obj 169 508 unpack, f 10;
#N canvas 0 50 450 278 (subpatch) 0;
#X array \$0-notes-squashed 8 float 3;
#A 0 0 0 0 0 0 0 0 0;
#X coords 0 127 8 0 200 140 1 0 0;
#X restore 655 268 graph;
#N canvas 0 50 450 278 (subpatch) 0;
#X array \$0-notes-increasing 8 float 3;
#A 0 63 0 0 0 0 0 0 0;
#X coords 0 127 8 0 200 140 1 0 0;
#X restore 658 644 graph;
#X obj 187 649 s reorder;
#N canvas 134 50 826 891 array-sort 0;
#X obj 234 329 until;
#X obj 234 363 f, f 7;
#X obj 307 364 + 1, f 4;
#X msg 292 309 0, f 2;
#X obj 282 477 f;
#X obj 234 442 t f b;
#X obj 234 392 t f f, f 18;
#X obj 257 662 f;
#X obj 314 609 sel 1;
#X obj 222 695 f;
#X obj 221 822 f, f 8;
#X obj 221 763 t b b;
#X obj 331 750 t b f;
#X obj 253 789 f;
#X obj 237 169 until;
#X obj 237 199 f;
#X obj 269 198 + 1, f 4;
#X msg 295 149 0, f 2;
#X obj 237 120 t b b;
#X obj 222 234 t b f, f 34;
#X obj 237 63 r reorder;
#X obj 222 258 t b b b b, f 21;
#X msg 322 785 0, f 2;
#X msg 327 299 0;
#X obj 187 543 expr if ($f1 > $f2 \, $f1 \, $f2) \; if ($f1 > $f2 \,
1 \, 0);
#X msg 237 144 8, f 2;
#X msg 234 301 8, f 2;
#X text 389 347 sort array a into b. a gets clobbered in the process
probably a much better way to do this ...;
#X obj 237 95 b;
#X obj 322 811 tabwrite \$0-notes-squashed;
#X obj 221 853 tabwrite \$0-notes-decreasing;
#X obj 234 420 tabread \$0-notes-squashed;
#X connect 0 0 1 0;
#X connect 1 0 2 0;
#X connect 1 0 6 0;
#X connect 2 0 1 1;
#X connect 3 0 1 1;
#X connect 4 0 24 1;
#X connect 5 0 24 0;
#X connect 5 1 4 0;
#X connect 6 0 31 0;
#X connect 6 1 7 1;
#X connect 7 0 9 1;
#X connect 8 0 7 0;
#X connect 9 0 11 0;
#X connect 9 0 12 0;
#X connect 10 0 30 0;
#X connect 11 0 10 0;
#X connect 11 1 13 0;
#X connect 12 0 22 0;
#X connect 12 1 29 1;
#X connect 13 0 30 1;
#X connect 14 0 15 0;
#X connect 15 0 16 0;
#X connect 15 0 19 0;
#X connect 16 0 15 1;
#X connect 17 0 15 1;
#X connect 18 0 25 0;
#X connect 18 1 17 0;
#X connect 19 0 21 0;
#X connect 19 1 13 1;
#X connect 20 0 28 0;
#X connect 21 0 9 0;
#X connect 21 1 26 0;
#X connect 21 2 3 0;
#X connect 21 3 23 0;
#X connect 22 0 29 0;
#X connect 23 0 4 1;
#X connect 24 0 4 1;
#X connect 24 0 10 1;
#X connect 24 1 8 0;
#X connect 25 0 14 0;
#X connect 26 0 0 0;
#X connect 28 0 18 0;
#X connect 31 0 5 0;
#X restore 542 506 pd array-sort;
#X text 877 149 array1 is raw data from poly (notes with 0 velocity
are given 0 pitch), f 15;
#X text 872 523 here are the notes sorted..., f 11;
#N canvas 0 50 450 278 (subpatch) 0;
#X array \$0-notes-decreasing 8 float 2;
#X coords 0 127 8 0 200 140 1 0 0;
#X restore 656 461 graph;
#N canvas 168 50 726 731 increasing 0;
#X obj 156 260 until;
#X obj 157 304 f;
#X obj 189 303 + 1, f 4;
#X msg 214 240 0, f 2;
#X obj 155 236 f 0;
#X obj 156 357 - 0;
#X obj 157 408 abs;
#X obj 157 326 t f f;
#X obj 266 471 f;
#X obj 157 469 t f b;
#X obj 320 197 r num-down;
#X obj 156 379 + 1;
#X obj 416 331 until;
#X obj 416 373 f;
#X obj 449 374 + 1, f 4;
#X msg 474 311 0, f 2;
#X obj 416 276 t b b;
#X obj 424 398 t b f;
#X msg 415 423 0, f 2;
#X msg 416 303 8, f 2;
#X obj 155 197 t b b b;
#X obj 153 67 inlet;
#X obj 157 437 tabread \$0-notes-decreasing;
#X obj 157 505 tabwrite \$0-notes-increasing;
#X obj 413 448 tabwrite \$0-notes-increasing;
#X connect 0 0 1 0;
#X connect 1 0 2 0;
#X connect 1 0 7 0;
#X connect 2 0 1 1;
#X connect 3 0 1 1;
#X connect 4 0 0 0;
#X connect 5 0 11 0;
#X connect 6 0 22 0;
#X connect 7 0 5 0;
#X connect 7 1 8 1;
#X connect 8 0 23 1;
#X connect 9 0 23 0;
#X connect 9 1 8 0;
#X connect 10 0 4 1;
#X connect 10 0 5 1;
#X connect 11 0 6 0;
#X connect 12 0 13 0;
#X connect 13 0 14 0;
#X connect 13 0 17 0;
#X connect 14 0 13 1;
#X connect 15 0 13 1;
#X connect 16 0 19 0;
#X connect 16 1 15 0;
#X connect 17 0 18 0;
#X connect 17 1 24 1;
#X connect 18 0 24 0;
#X connect 19 0 12 0;
#X connect 20 0 4 0;
#X connect 20 1 3 0;
#X connect 20 2 16 0;
#X connect 21 0 20 0;
#X connect 22 0 9 0;
#X restore 544 713 pd increasing;
#X obj 64 179 s num-down;
#X obj 169 424 poly 8 1, f 10;
#X obj 169 677 s others;
#N canvas 9 62 588 574 format_for_array 0;
#X obj 111 44 inlet;
#X obj 102 128 f;
#X obj 144 151 sel 0;
#X msg 121 188 0;
#X obj 167 181 t b b;
#X obj 137 126 f;
#X obj 79 268 t f b;
#X obj 75 336 pack 0 0;
#X obj 85 75 unpack 0 0 0;
#X obj 41 132 t b f;
#X obj 117 304 f;
#X obj 78 389 outlet;
#X obj 133 274 - 1;
#X text 169 280 array index starts at 0 \, poly index starts at 1;
#X text 223 150 if the velocity is > 0 \, outputs note number. If =
0 \, it outputs 0 for note number;
#X connect 0 0 8 0;
#X connect 1 0 6 0;
#X connect 2 0 3 0;
#X connect 2 1 4 0;
#X connect 3 0 6 0;
#X connect 4 0 1 0;
#X connect 5 0 2 0;
#X connect 6 0 7 0;
#X connect 6 1 10 0;
#X connect 7 0 11 0;
#X connect 8 0 9 0;
#X connect 8 1 1 1;
#X connect 8 2 5 1;
#X connect 9 0 5 0;
#X connect 9 1 12 0;
#X connect 10 0 7 1;
#X connect 12 0 10 1;
#X restore 169 487 pd format_for_array;
#N canvas 9 50 1000 647 array-copy 0;
#X obj 227 194 until;
#X obj 227 236 f;
#X obj 260 237 + 1, f 4;
#X msg 285 174 0, f 2;
#X obj 436 272 until;
#X obj 436 314 f;
#X obj 469 315 + 1, f 4;
#X msg 494 252 0, f 2;
#X obj 436 217 t b b;
#X obj 436 339 t b f;
#X msg 436 364 0, f 2;
#X obj 227 121 t b b b;
#X msg 227 166 8, f 2;
#X msg 436 244 8, f 2;
#X text 324 97 this removes 0 elements (or actually just moves the
following elements over 1 place);
#X text 538 296 first zero out the destination array;
#X obj 227 258 t f f;
#X obj 227 75 r copy;
#X obj 227 297 tabread \$0-notes-from-poly, f 18;
#X obj 436 405 tabwrite \$0-notes-squashed;
#X obj 227 410 tabwrite \$0-notes-squashed, f 18;
#X obj 227 97 b;
#X connect 0 0 1 0;
#X connect 1 0 2 0;
#X connect 1 0 16 0;
#X connect 2 0 1 1;
#X connect 3 0 1 1;
#X connect 4 0 5 0;
#X connect 5 0 6 0;
#X connect 5 0 9 0;
#X connect 6 0 5 1;
#X connect 7 0 5 1;
#X connect 8 0 13 0;
#X connect 8 1 7 0;
#X connect 9 0 10 0;
#X connect 9 1 19 1;
#X connect 10 0 19 0;
#X connect 11 0 12 0;
#X connect 11 1 3 0;
#X connect 11 2 8 0;
#X connect 12 0 0 0;
#X connect 13 0 4 0;
#X connect 16 0 18 0;
#X connect 16 1 20 1;
#X connect 17 0 21 0;
#X connect 18 0 20 0;
#X connect 21 0 11 0;
#X restore 539 330 pd array-copy;
#X obj 206 623 s copy;
#X text 869 716 then increasing;
#X text 253 457 first put up to 8 notes into array, f 17;
#X text 873 323 array squash pulls out 0 notes. this array gets clobbered
by the sorting function so it always looks blank, f 22;
#X obj 169 537 t b b b b f;
#N canvas 1219 97 533 527 countnotes 0;
#X obj 104 289 > 0;
#X obj 104 316 sel 1;
#X obj 158 352 + 1, f 4;
#X obj 110 353 f 0;
#X obj 141 130 until;
#X obj 142 174 f;
#X obj 174 173 + 1, f 4;
#X msg 276 125 0, f 2;
#X msg 142 105 8, f 2;
#X obj 143 35 r countem;
#X obj 89 395 f 0;
#X obj 86 423 outlet;
#X obj 83 200 t f f;
#X obj 36 244 sel 7;
#X obj 143 81 t b b;
#X obj 106 234 tabread \$0-notes-from-poly;
#X connect 0 0 1 0;
#X connect 1 0 3 0;
#X connect 2 0 3 1;
#X connect 2 0 10 1;
#X connect 3 0 2 0;
#X connect 4 0 5 0;
#X connect 5 0 6 0;
#X connect 5 0 12 0;
#X connect 6 0 5 1;
#X connect 7 0 5 1;
#X connect 7 0 3 1;
#X connect 7 0 10 1;
#X connect 8 0 4 0;
#X connect 9 0 14 0;
#X connect 10 0 11 0;
#X connect 12 0 13 0;
#X connect 12 1 15 0;
#X connect 13 0 10 0;
#X connect 14 0 8 0;
#X connect 14 1 7 0;
#X connect 15 0 0 0;
#X restore 64 132 pd countnotes;
#X obj 544 682 r others;
#X obj 224 602 s countem;
#X text 44 100 number notes currently held down;
#X text 141 14 notes are put into an array and then sorted in increasing
/ decreasing order. the 'arp' subpatch then counts through the arrays
in various patterns;
#X text 1101 435 run the arp;
#X text 986 510 PlAY THE SAMPLES!;
#X obj 1037 175 cg-rec-array segmenty 1 1 24000;
#X obj 1119 537 throw~ outL;
#X obj 1109 562 throw~ outR;
#X obj 1357 45 declare -path patchmenu;
#X obj 1357 206 patchmenu;
#X obj 1389 169 s enableSubMenu;
#X obj 1357 67 loadbang;
#X msg 1357 169 0;
#X obj 1357 146 t b b;
#X obj 1357 89 b;
#X obj 1357 121 versioncheck 2;
#N canvas 18 62 1865 982 the-knobs 0;
#X obj 451 52 sel 1, f 11;
#X obj 451 74 t b b;
#X msg 483 95 1;
#X msg 557 95 0;
#X obj 451 30 r page-ready;
#X obj 525 74 t b b;
#X obj 451 545 s segmenty-sample-in;
#X obj 676 545 s segmenty-sample-out;
#X obj 229 388 f;
#X obj 676 408 f;
#X obj 168 697 r knob3;
#X obj 1594 191 f;
#X obj 525 125 s \$0-re-bang;
#X obj 259 254 r \$0-re-bang;
#X obj 732 241 r \$0-re-bang;
#X obj 264 698 r \$0-re-bang;
#X obj 1608 157 r \$0-re-bang;
#X obj 431 247 b;
#X obj 431 223 r segmenty-1-print-new;
#X obj 231 767 t b b;
#X msg 263 788 1;
#X obj 368 772 b;
#X msg 368 794 0;
#X obj 231 723 r page-ready;
#X obj 1329 319 bang;
#X obj 1378 317 i;
#X obj 1282 338 i;
#X obj 1282 366 abs;
#X obj 1594 122 r knob4-detent;
#X obj 1283 213 detent 0.075, f 14;
#X obj 1258 282 s knob4-detent;
#X obj 1020 50 r knob4;
#X obj 1020 124 moses 0.5;
#X obj 1283 166 - 0.5;
#X obj 1283 188 * 2;
#X obj 1007 634 s p2s4;
#X obj 1020 145 - 0.5;
#X obj 1020 167 * 2;
#X obj 1020 189 abs;
#X obj 1378 247 - 0.5;
#X obj 1378 269 * 200;
#X obj 1378 291 + 100;
#X obj 1282 310 * 200;
#X obj 1258 255 * 2;
#X obj 41 32 r segmenty-action;
#X obj 41 55 sel 0;
#X obj 73 75 b;
#X msg 73 97 0;
#X msg 41 76 1;
#X obj 73 127 s \$0-action-mute;
#X obj 1073 82 r \$0-action-mute;
#X obj 221 677 r \$0-action-mute;
#X obj 1020 80 f;
#X obj 1086 49 r \$0-re-bang;
#X obj 1020 103 spigot 1;
#X obj 676 218 spigot 1;
#X obj 229 218 spigot 1;
#X obj 168 719 spigot 1;
#N canvas 848 95 930 867 print 0;
#X msg 293 723 /oled/gFlip 3;
#X obj 380 758 s oscOut;
#X msg 381 562 /oled/gFillArea 3 0 31 128 8 0;
#X msg 409 427 38;
#X msg 446 427 32;
#X msg 363 589 /oled/gPrintln 3 2 32 8 1 3: Env:;
#X obj 277 303 i;
#X obj 277 281 * 84;
#X obj 277 324 + 48;
#X obj 351 347 i;
#X obj 351 325 * 82;
#X obj 351 390 max 46;
#X obj 351 368 + 43;
#X obj 277 213 moses 0.605;
#X obj 277 256 * 1.65289;
#X obj 351 299 * 2.53164;
#X obj 351 276 - 0.605;
#X text 539 691 44 \, \$1;
#X text 550 651 \$1 \, \$2;
#X obj 278 123 moses 0.5, f 14;
#X obj 485 281 i;
#X obj 485 259 * 84;
#X obj 485 302 + 48;
#X obj 559 325 i;
#X obj 559 303 * 82;
#X obj 559 368 max 46;
#X obj 559 346 + 43;
#X obj 485 191 moses 0.605;
#X obj 485 234 * 1.65289;
#X obj 559 277 * 2.53164;
#X obj 559 254 - 0.605;
#X obj 278 189 * 2;
#X obj 373 168 - 0.5;
#X obj 373 191 * 2;
#X obj 293 539 t b a a a b b;
#X obj 278 145 t f b;
#X msg 251 394 46;
#X obj 368 468 t b a;
#X obj 373 145 t f b;
#X msg 286 462 38;
#X obj 559 212 t f b b, f 10;
#X msg 310 687 /oled/gLine 3 44 38 \$1 \$2 1;
#X msg 328 655 /oled/gLine 3 \$1 \$2 \$3 \$4 1;
#X msg 345 621 /oled/gLine 3 \$3 \$4 127 38 1;
#X obj 293 507 pack 0 0 0 0, f 26;
#X msg 322 463 32;
#X obj 485 212 t f b b;
#X obj 278 91 inlet;
#X obj 277 234 t f b b;
#X obj 351 234 t f b b, f 10;
#X obj 351 435 min 123;
#X obj 293 436 min 123;
#X msg 425 461 126;
#X obj 501 744 r oscOut;
#X obj 537 398 loadbang;
#X connect 0 0 1 0;
#X connect 2 0 1 0;
#X connect 3 0 44 3;
#X connect 4 0 44 3;
#X connect 5 0 1 0;
#X connect 6 0 8 0;
#X connect 7 0 6 0;
#X connect 8 0 50 0;
#X connect 9 0 12 0;
#X connect 10 0 9 0;
#X connect 11 0 50 0;
#X connect 12 0 11 0;
#X connect 13 0 48 0;
#X connect 13 1 49 0;
#X connect 14 0 7 0;
#X connect 15 0 10 0;
#X connect 16 0 15 0;
#X connect 19 0 35 0;
#X connect 19 1 38 0;
#X connect 20 0 22 0;
#X connect 21 0 20 0;
#X connect 22 0 51 0;
#X connect 23 0 26 0;
#X connect 24 0 23 0;
#X connect 25 0 51 0;
#X connect 26 0 25 0;
#X connect 27 0 46 0;
#X connect 27 1 40 0;
#X connect 28 0 21 0;
#X connect 29 0 24 0;
#X connect 30 0 29 0;
#X connect 31 0 13 0;
#X connect 32 0 33 0;
#X connect 33 0 27 0;
#X connect 34 0 0 0;
#X connect 34 1 41 0;
#X connect 34 2 42 0;
#X connect 34 3 43 0;
#X connect 34 4 5 0;
#X connect 34 5 2 0;
#X connect 35 0 31 0;
#X connect 35 1 36 0;
#X connect 36 0 51 0;
#X connect 37 0 44 0;
#X connect 37 1 44 2;
#X connect 38 0 32 0;
#X connect 38 1 52 0;
#X connect 39 0 44 1;
#X connect 40 0 30 0;
#X connect 40 1 4 0;
#X connect 40 2 39 0;
#X connect 41 0 1 0;
#X connect 42 0 1 0;
#X connect 43 0 1 0;
#X connect 44 0 34 0;
#X connect 45 0 44 1;
#X connect 46 0 28 0;
#X connect 46 1 4 0;
#X connect 46 2 45 0;
#X connect 47 0 19 0;
#X connect 48 0 14 0;
#X connect 48 1 3 0;
#X connect 48 2 45 0;
#X connect 49 0 16 0;
#X connect 49 1 4 0;
#X connect 49 2 45 0;
#X connect 50 0 37 0;
#X connect 51 0 44 0;
#X connect 52 0 44 2;
#X connect 54 0 4 0;
#X connect 54 0 52 0;
#X connect 54 0 45 0;
#X restore 168 849 pd print knob-3;
#X obj 1007 580 spigot;
#X obj 1121 710 spigot;
#X obj 1180 584 spigot;
#X obj 1494 719 spigot;
#X obj 1160 449 r page-ready;
#X obj 1160 684 ==;
#X msg 1206 515 1;
#X obj 1206 492 b;
#X obj 1160 471 sel 1, f 7;
#X obj 1160 516 f;
#X obj 1533 695 ==;
#X obj 1180 628 s p2s4;
#X msg 1160 493 0;
#X msg 1329 346 100;
#X obj 1337 424 f;
#X obj 231 745 sel 2 1, f 20;
#X msg 299 788 0;
#X obj 328 875 ==;
#N canvas 556 319 973 631 print-inverse 0;
#X obj 117 81 * 128;
#X obj 117 103 i;
#X obj 117 55 inlet;
#X obj 147 165 pack 0 0;
#X obj 200 132 t b a;
#X obj 200 38 * 128;
#X obj 200 12 inlet;
#X obj 200 60 i;
#X obj 164 462 s oscOut;
#X obj 193 297 list;
#X obj 164 429 t a a, f 18;
#X obj 193 319 route list;
#X obj 218 246 loadbang;
#X msg 218 270 0;
#X text 275 447 previous area to invert(erase);
#X text 252 271 erase old session list;
#X msg 57 402 /oled/gFlip 3;
#X obj 147 265 t a b, f 7;
#X obj 132 304 t b a;
#X obj 193 208 r page-ready;
#X obj 311 195 r state;
#X obj 311 218 b;
#X obj 193 230 b;
#X msg 164 402 /oled/gInvertArea 3 \$1 10 \$2 43;
#X obj 200 112 max 1;
#X obj 200 82 min 127;
#X obj 322 162 b;
#X obj 322 131 r segmenty-1-print-new;
#X obj 232 158 change -1;
#X obj 117 125 change -1;
#X connect 0 0 1 0;
#X connect 1 0 29 0;
#X connect 2 0 0 0;
#X connect 3 0 17 0;
#X connect 4 0 3 0;
#X connect 4 1 28 0;
#X connect 5 0 7 0;
#X connect 6 0 5 0;
#X connect 7 0 25 0;
#X connect 9 0 11 0;
#X connect 10 0 8 0;
#X connect 10 1 9 1;
#X connect 11 0 8 0;
#X connect 12 0 13 0;
#X connect 13 0 9 1;
#X connect 16 0 8 0;
#X connect 17 0 18 0;
#X connect 17 1 9 0;
#X connect 18 0 16 0;
#X connect 18 1 23 0;
#X connect 19 0 22 0;
#X connect 20 0 21 0;
#X connect 21 0 13 0;
#X connect 22 0 13 0;
#X connect 23 0 10 0;
#X connect 24 0 4 0;
#X connect 25 0 24 0;
#X connect 26 0 13 0;
#X connect 27 0 26 0;
#X connect 28 0 3 1;
#X connect 29 0 3 0;
#X restore 484 484 pd print-inverse;
#X msg 1179 817 /oled/gFlip 3;
#X obj 1227 866 s oscOut;
#X obj 1121 784 del 500;
#X msg 1144 759 stop;
#X obj 1121 734 t b b b a b, f 17;
#X msg 1552 827 /oled/gFlip 3;
#X obj 1600 867 s oscOut;
#X obj 1494 794 del 500;
#X msg 1517 769 stop;
#X obj 1494 744 t b b b a b, f 17;
#X obj 1494 890 s segementy-reprint-line5;
#X obj 1121 806 t b b;
#X obj 1494 816 t b b;
#X msg 1610 772 /oled/gFillArea 3 2 54 127 10 0;
#X msg 1237 762 /oled/gFillArea 3 2 54 127 10 0;
#N canvas 852 83 930 867 print-knob-3-at-bottom 0;
#X msg 293 723 /oled/gFlip 3;
#X obj 380 758 s oscOut;
#X obj 277 303 i;
#X obj 277 281 * 84;
#X obj 277 324 + 48;
#X obj 351 347 i;
#X obj 351 325 * 82;
#X obj 351 390 max 46;
#X obj 351 368 + 43;
#X obj 277 213 moses 0.605;
#X obj 277 256 * 1.65289;
#X obj 351 299 * 2.53164;
#X obj 351 276 - 0.605;
#X text 539 691 44 \, \$1;
#X text 550 651 \$1 \, \$2;
#X obj 278 123 moses 0.5, f 14;
#X obj 485 281 i;
#X obj 485 259 * 84;
#X obj 485 302 + 48;
#X obj 559 325 i;
#X obj 559 303 * 82;
#X obj 559 368 max 46;
#X obj 559 346 + 43;
#X obj 485 191 moses 0.605;
#X obj 485 234 * 1.65289;
#X obj 559 277 * 2.53164;
#X obj 559 254 - 0.605;
#X obj 278 189 * 2;
#X obj 373 168 - 0.5;
#X obj 373 191 * 2;
#X obj 293 539 t b a a a b b;
#X obj 278 145 t f b;
#X msg 251 394 46;
#X obj 368 468 t b a;
#X obj 351 435 min 123;
#X obj 293 436 min 123;
#X obj 373 145 t f b;
#X obj 559 212 t f b b, f 10;
#X msg 328 655 /oled/gLine 3 \$1 \$2 \$3 \$4 1;
#X obj 293 507 pack 0 0 0 0, f 26;
#X obj 485 212 t f b b;
#X obj 278 91 inlet;
#X obj 199 594 del 500;
#X msg 255 569 stop;
#X obj 199 616 t b b;
#X msg 381 562 /oled/gFillArea 3 0 54 128 8 0;
#X msg 363 589 /oled/gPrintln 3 2 54 8 1 3: Env:;
#X msg 310 686 /oled/gLine 3 44 60 \$1 \$2 1;
#X msg 344 620 /oled/gLine 3 \$3 \$4 127 60 1;
#X msg 408 426 60;
#X msg 284 462 60;
#X msg 322 462 54;
#X msg 446 427 54;
#X obj 351 234 t f b b, f 10;
#X obj 277 234 t f b b;
#X msg 425 461 126;
#X obj 346 76 loadbang;
#X msg 346 98 0.5;
#X obj 76 736 s segmenty-reprint-line5;
#X connect 0 0 1 0;
#X connect 2 0 4 0;
#X connect 3 0 2 0;
#X connect 4 0 34 0;
#X connect 5 0 8 0;
#X connect 6 0 5 0;
#X connect 7 0 34 0;
#X connect 8 0 7 0;
#X connect 9 0 54 0;
#X connect 9 1 53 0;
#X connect 10 0 3 0;
#X connect 11 0 6 0;
#X connect 12 0 11 0;
#X connect 15 0 31 0;
#X connect 15 1 36 0;
#X connect 16 0 18 0;
#X connect 17 0 16 0;
#X connect 18 0 35 0;
#X connect 19 0 22 0;
#X connect 20 0 19 0;
#X connect 21 0 35 0;
#X connect 22 0 21 0;
#X connect 23 0 40 0;
#X connect 23 1 37 0;
#X connect 24 0 17 0;
#X connect 25 0 20 0;
#X connect 26 0 25 0;
#X connect 27 0 9 0;
#X connect 28 0 29 0;
#X connect 29 0 23 0;
#X connect 30 0 0 0;
#X connect 30 0 42 0;
#X connect 30 1 47 0;
#X connect 30 2 38 0;
#X connect 30 3 48 0;
#X connect 30 4 46 0;
#X connect 30 5 45 0;
#X connect 30 5 43 0;
#X connect 31 0 27 0;
#X connect 31 1 32 0;
#X connect 32 0 35 0;
#X connect 33 0 39 0;
#X connect 33 1 39 2;
#X connect 34 0 33 0;
#X connect 35 0 39 0;
#X connect 36 0 28 0;
#X connect 36 1 55 0;
#X connect 37 0 26 0;
#X connect 37 1 52 0;
#X connect 37 2 50 0;
#X connect 38 0 1 0;
#X connect 39 0 30 0;
#X connect 40 0 24 0;
#X connect 40 1 52 0;
#X connect 40 2 51 0;
#X connect 41 0 15 0;
#X connect 42 0 44 0;
#X connect 43 0 42 0;
#X connect 44 0 58 0;
#X connect 44 1 45 0;
#X connect 45 0 1 0;
#X connect 46 0 1 0;
#X connect 47 0 1 0;
#X connect 48 0 1 0;
#X connect 49 0 39 3;
#X connect 50 0 39 1;
#X connect 51 0 39 1;
#X connect 52 0 39 3;
#X connect 53 0 12 0;
#X connect 53 1 52 0;
#X connect 53 2 51 0;
#X connect 54 0 10 0;
#X connect 54 1 49 0;
#X connect 54 2 51 0;
#X connect 55 0 39 2;
#X connect 56 0 57 0;
#X connect 57 0 15 0;
#X restore 275 956 pd print-knob-3-at-bottom;
#X obj 292 196 r \$0-action-mute;
#X obj 739 197 r \$0-action-mute;
#X obj 676 451 f;
#X obj 451 450 f;
#X obj 168 821 spigot 1, f 14;
#X obj 451 429 spigot 1;
#X obj 676 429 spigot 1;
#X obj 275 928 spigot 1;
#X msg 1007 607 4: Loop Speed -\$1 % \;;
#X msg 1180 606 4: Loop Speed +\$1 % \;;
#X obj 431 269 del 21;
#X obj 451 124 del 20;
#X obj 35 912 s segmenty-knob3-local;
#X obj 1121 890 s segmenty-reprint-line5;
#X obj 1594 220 s segmenty-knob4-local;
#X obj 1095 321 bang;
#X obj 1150 313 - 0.5;
#X obj 1150 383 i;
#X obj 1020 269 i;
#X obj 1020 292 abs;
#X obj 1020 213 detent 0.075, f 19;
#X obj 1065 270 s knob4-detent;
#X obj 1065 245 * -2;
#X obj 1056 424 f;
#X msg 1095 347 100;
#X obj 1020 248 * 200;
#X obj 1150 335 * 200;
#X obj 1150 357 + 100;
#X obj 53 229 loadbang;
#X obj 229 466 textfile;
#X msg 229 437 set \$1 \$2;
#X obj 229 414 pack, f 13;
#X obj 285 388 t b a;
#X obj 229 488 unpack;
#X obj 27 363 r saveState;
#X msg 27 385 write knobberz.txt;
#X msg 85 273 read knobberz.txt;
#X obj 53 251 t b b;
#X msg 53 298 rewind \, bang;
#X obj 168 799 f 0.5;
#X obj 168 755 f 0.5;
#X msg 1581 806 /oled/gPrintln 3 2 54 8 1 Spd: +\$1%;
#X msg 1208 796 /oled/gPrintln 3 2 54 8 1 Spd: -\$1%;
#X text 52 667 Knob3;
#X text 993 16 Knob4;
#X text 227 165 Knob1;
#X text 671 164 Knob2;
#X obj 229 196 r p1k1;
#X obj 677 196 r p1k2;
#X connect 0 0 1 0;
#X connect 0 1 5 0;
#X connect 1 0 105 0;
#X connect 1 1 2 0;
#X connect 2 0 99 1;
#X connect 2 0 100 1;
#X connect 3 0 99 1;
#X connect 3 0 100 1;
#X connect 4 0 0 0;
#X connect 5 0 12 0;
#X connect 5 1 3 0;
#X connect 8 0 99 0;
#X connect 8 0 125 0;
#X connect 9 0 100 0;
#X connect 9 0 126 0;
#X connect 10 0 57 0;
#X connect 11 0 108 0;
#X connect 13 0 8 0;
#X connect 14 0 9 0;
#X connect 15 0 134 0;
#X connect 16 0 11 0;
#X connect 17 0 104 0;
#X connect 18 0 17 0;
#X connect 19 0 133 0;
#X connect 19 1 20 0;
#X connect 20 0 76 0;
#X connect 20 0 98 1;
#X connect 21 0 22 0;
#X connect 22 0 98 1;
#X connect 22 0 101 1;
#X connect 23 0 74 0;
#X connect 24 0 72 0;
#X connect 25 0 73 0;
#X connect 26 0 27 0;
#X connect 27 0 73 0;
#X connect 28 0 11 0;
#X connect 29 0 42 0;
#X connect 29 0 43 0;
#X connect 29 1 24 0;
#X connect 29 1 43 0;
#X connect 29 2 39 0;
#X connect 29 2 43 0;
#X connect 31 0 52 0;
#X connect 32 0 36 0;
#X connect 32 1 33 0;
#X connect 33 0 34 0;
#X connect 34 0 29 0;
#X connect 36 0 37 0;
#X connect 37 0 38 0;
#X connect 38 0 114 0;
#X connect 39 0 40 0;
#X connect 40 0 41 0;
#X connect 41 0 25 0;
#X connect 42 0 26 0;
#X connect 43 0 30 0;
#X connect 44 0 45 0;
#X connect 45 0 48 0;
#X connect 45 1 46 0;
#X connect 46 0 47 0;
#X connect 47 0 49 0;
#X connect 48 0 49 0;
#X connect 50 0 54 1;
#X connect 51 0 57 1;
#X connect 52 0 54 0;
#X connect 53 0 52 0;
#X connect 54 0 32 0;
#X connect 55 0 9 0;
#X connect 56 0 8 0;
#X connect 57 0 134 0;
#X connect 59 0 102 0;
#X connect 60 0 82 0;
#X connect 61 0 103 0;
#X connect 62 0 87 0;
#X connect 63 0 67 0;
#X connect 64 0 60 1;
#X connect 65 0 68 0;
#X connect 66 0 65 0;
#X connect 67 0 71 0;
#X connect 67 1 66 0;
#X connect 68 0 64 0;
#X connect 68 0 69 0;
#X connect 68 0 59 1;
#X connect 68 0 61 1;
#X connect 69 0 62 1;
#X connect 71 0 68 0;
#X connect 72 0 73 0;
#X connect 73 0 61 0;
#X connect 73 0 62 0;
#X connect 74 0 19 0;
#X connect 74 1 75 0;
#X connect 74 2 21 0;
#X connect 75 0 76 0;
#X connect 75 0 98 1;
#X connect 76 0 101 1;
#X connect 78 0 79 0;
#X connect 80 0 89 0;
#X connect 81 0 80 0;
#X connect 82 0 80 0;
#X connect 82 1 81 0;
#X connect 82 2 78 0;
#X connect 82 3 136 0;
#X connect 82 4 92 0;
#X connect 83 0 84 0;
#X connect 85 0 90 0;
#X connect 86 0 85 0;
#X connect 87 0 85 0;
#X connect 87 1 86 0;
#X connect 87 2 83 0;
#X connect 87 3 135 0;
#X connect 87 4 91 0;
#X connect 89 0 107 0;
#X connect 89 1 92 0;
#X connect 90 0 88 0;
#X connect 90 1 91 0;
#X connect 91 0 84 0;
#X connect 92 0 79 0;
#X connect 94 0 56 1;
#X connect 95 0 55 1;
#X connect 96 0 7 0;
#X connect 96 0 77 1;
#X connect 97 0 6 0;
#X connect 97 0 77 0;
#X connect 98 0 58 0;
#X connect 99 0 97 0;
#X connect 100 0 96 0;
#X connect 101 0 93 0;
#X connect 102 0 35 0;
#X connect 103 0 70 0;
#X connect 104 0 8 0;
#X connect 104 0 9 0;
#X connect 105 0 97 0;
#X connect 105 0 96 0;
#X connect 109 0 118 0;
#X connect 110 0 120 0;
#X connect 111 0 117 0;
#X connect 112 0 113 0;
#X connect 113 0 117 0;
#X connect 114 0 116 0;
#X connect 114 0 119 0;
#X connect 114 1 109 0;
#X connect 114 1 116 0;
#X connect 114 2 110 0;
#X connect 114 2 116 0;
#X connect 116 0 115 0;
#X connect 117 0 59 0;
#X connect 117 0 60 0;
#X connect 118 0 117 0;
#X connect 119 0 112 0;
#X connect 120 0 121 0;
#X connect 121 0 111 0;
#X connect 122 0 131 0;
#X connect 123 0 127 0;
#X connect 124 0 123 0;
#X connect 125 0 124 0;
#X connect 126 0 125 0;
#X connect 126 1 125 1;
#X connect 127 0 97 0;
#X connect 127 1 96 0;
#X connect 128 0 129 0;
#X connect 129 0 123 0;
#X connect 130 0 123 0;
#X connect 131 0 132 0;
#X connect 131 1 130 0;
#X connect 132 0 123 0;
#X connect 133 0 98 0;
#X connect 133 0 101 0;
#X connect 134 0 106 0;
#X connect 134 0 133 0;
#X connect 135 0 84 0;
#X connect 136 0 79 0;
#X connect 141 0 56 0;
#X connect 142 0 55 0;
#X restore 1357 312 pd the-knobs;
#X obj 169 208 r notes;
#X obj 205 266 r aux;
#X obj 228 288 r fs;
#X obj 205 320 spigot 0;
#X obj 269 210 r page-ready;
#X msg 269 284 1;
#X msg 350 278 0;
#X obj 269 254 t b b;
#X obj 288 327 del 10;
#X obj 222 122 r segmenty-action;
#X obj 254 165 b;
#X msg 254 187 0;
#X msg 222 166 1;
#X obj 169 230 spigot 1;
#X obj 350 255 b;
#X obj 383 270 r segmenty-action;
#X obj 383 316 sel 1;
#X obj 269 232 sel 0 2, f 12;
#X obj 169 354 cg-seqq segmenty, f 25;
#X msg 1356 227 \; screenLine1 1) Sample View/Rec \; screenLine2 2)
Parameter Display \; screenLine3 <-- HOME \;;
#X obj 222 144 sel 0;
#N canvas 475 244 774 646 the-synth 0;
#X obj 29 391 catch~ segmenty-bus;
#X obj 29 413 outlet~;
#X obj 32 4 inlet;
#X obj 32 293 pack 0 0 0;
#X obj 272 276 s segmenty-voice-sum;
#X obj 32 26 t a a;
#X obj 131 83 sel 0, f 21;
#X obj 272 196 + 1;
#X msg 264 168 -1;
#X obj 275 107 t b b;
#X obj 131 109 t b b;
#X msg 307 168 1;
#X obj 64 50 unpack 0 0;
#X obj 170 195 f 0;
#X obj 32 325 route 1 2 3 4, f 64;
#X obj 32 271 poly 4 1, f 10;
#X obj 272 223 min 4;
#X obj 272 245 max 1;
#X obj 143 354 segmenty-voice;
#X obj 254 354 segmenty-voice;
#X obj 365 354 segmenty-voice;
#X obj 32 354 segmenty-voice;
#X connect 0 0 1 0;
#X connect 2 0 5 0;
#X connect 3 0 14 0;
#X connect 5 0 15 0;
#X connect 5 1 12 0;
#X connect 6 0 10 0;
#X connect 6 1 9 0;
#X connect 7 0 16 0;
#X connect 8 0 7 1;
#X connect 9 0 13 0;
#X connect 9 1 11 0;
#X connect 10 0 13 0;
#X connect 10 1 8 0;
#X connect 11 0 7 1;
#X connect 12 1 6 0;
#X connect 13 0 7 0;
#X connect 14 0 21 0;
#X connect 14 1 18 0;
#X connect 14 2 19 0;
#X connect 14 3 20 0;
#X connect 15 0 3 0;
#X connect 15 1 3 1;
#X connect 15 2 3 2;
#X connect 16 0 17 0;
#X connect 17 0 13 1;
#X connect 17 0 4 0;
#X restore 1108 510 pd the-synth;
#X obj 1121 241 loadbang;
#X msg 1121 305 read lengths.txt;
#X msg 1174 357 write lengths.txt;
#X obj 1174 333 r saveState;
#X obj 1121 399 array define segmenty-lengths;
#X obj 1037 199 s segmenty-thresh-passed;
#X obj 1037 52 r segmenty-action;
#X msg 1037 128 1;
#X obj 1037 104 sel 1 0;
#X msg 1077 128 0;
#X obj 1037 150 change 0;
#N canvas 50 50 959 860 print-waveform 0;
#N canvas 354 145 888 801 display-waveform 0;
#X obj 368 256 / 128;
#X obj 347 314 + 1;
#X obj 310 317 f 0;
#X obj 311 353 i;
#X obj 269 257 until;
#X msg 275 232 128;
#X msg 336 245 0;
#X obj 314 409 * 0.5;
#X obj 314 431 + 0.5;
#X obj 314 460 * 64;
#X obj 314 505 i;
#X obj 261 104 inlet;
#X obj 371 553 t l;
#X obj 230 642 list append;
#X obj 230 667 list trim;
#X obj 274 549 list prepend;
#X text 444 289 step through table at duration / 128;
#X obj 261 171 t b b b f b b, f 26;
#X msg 54 547 sendtyped /oled/gWaveform ib 3;
#X obj 230 689 outlet;
#X obj 312 387 tabread segmenty-1;
#X obj 261 131 tabread segmenty-lengths;
#X connect 0 0 1 1;
#X connect 1 0 2 1;
#X connect 2 0 1 0;
#X connect 2 0 3 0;
#X connect 3 0 20 0;
#X connect 4 0 2 0;
#X connect 5 0 4 0;
#X connect 6 0 2 1;
#X connect 7 0 8 0;
#X connect 8 0 9 0;
#X connect 9 0 10 0;
#X connect 10 0 15 0;
#X connect 11 0 21 0;
#X connect 12 0 15 1;
#X connect 13 0 14 0;
#X connect 14 0 19 0;
#X connect 15 0 13 1;
#X connect 15 0 12 0;
#X connect 17 0 18 0;
#X connect 17 1 5 0;
#X connect 17 2 6 0;
#X connect 17 3 0 0;
#X connect 17 4 15 0;
#X connect 17 5 15 1;
#X connect 18 0 13 0;
#X connect 20 0 7 0;
#X connect 21 0 17 0;
#X restore 342 377 pd display-waveform;
#X msg 362 352 /oled/gClear 3 1;
#X msg 322 412 /oled/gFlip 3;
#X obj 322 444 s oscOut;
#X obj 322 162 b;
#X obj 427 180 sel 1, f 11;
#X obj 427 202 t b b;
#X msg 459 223 1;
#X obj 501 207 b;
#X msg 501 229 0;
#X obj 322 266 spigot 0, f 15;
#X obj 427 158 r page-ready;
#X obj 322 131 r segmenty-1-print-new;
#X msg 613 314 /oled/gClear 3 1;
#X msg 567 394 /oled/gFlip 3;
#X obj 567 426 s oscOut;
#X obj 567 287 t b b b;
#X msg 585 348 /oled/gLine 3 0 32 127 32 1;
#X obj 567 205 r segmenty-action;
#X obj 567 264 sel 1;
#X msg 322 233 1;
#X obj 322 307 t b f b b;
#X obj 322 185 del 20;
#X connect 0 0 3 0;
#X connect 1 0 3 0;
#X connect 2 0 3 0;
#X connect 4 0 22 0;
#X connect 5 0 6 0;
#X connect 5 1 8 0;
#X connect 6 0 20 0;
#X connect 6 1 7 0;
#X connect 7 0 10 1;
#X connect 8 0 9 0;
#X connect 9 0 10 1;
#X connect 10 0 21 0;
#X connect 11 0 5 0;
#X connect 12 0 4 0;
#X connect 13 0 15 0;
#X connect 14 0 15 0;
#X connect 16 0 14 0;
#X connect 16 1 17 0;
#X connect 16 2 13 0;
#X connect 17 0 15 0;
#X connect 18 0 19 0;
#X connect 19 0 16 0;
#X connect 20 0 10 0;
#X connect 21 0 2 0;
#X connect 21 1 0 0;
#X connect 21 2 1 0;
#X connect 22 0 20 0;
#X restore 1351 340 pd print-waveform;
#X obj 415 77 r aux;
#X obj 459 77 r fs;
#N canvas 165 57 1658 987 states 0;
#X text 90 68 Controls State With Aux Button;
#X obj 258 87 inlet;
#X obj 258 492 sel 1, f 12;
#X obj 327 334 f, f 10;
#X obj 327 281 sel 1;
#X obj 327 241 t f f, f 7;
#X obj 327 360 sel 1;
#X obj 327 306 del 500;
#X msg 997 103 stop;
#X msg 938 102 0;
#X text 973 104 =;
#X text 973 134 =;
#X msg 938 132 1;
#X text 973 164 =;
#X msg 938 162 2;
#X obj 258 517 v segmenty-v;
#X obj 327 438 v segmenty-v;
#X msg 327 382 1;
#X msg 997 133 recenable;
#X msg 997 163 record;
#X obj 258 738 v segmenty-v;
#X msg 258 660 0;
#X obj 644 547 r segmenty-done-recording;
#X obj 799 280 r segmenty-thresh-passed;
#X obj 258 683 t f f f;
#X obj 304 708 s segmenty-action;
#X obj 644 697 v segmenty-v;
#X msg 644 579 0;
#X obj 644 622 t f f f;
#X obj 690 647 s segmenty-action;
#X text 410 286 hold for arming record;
#X text 357 521 any state when called should turn off record;
#X text 502 407 arm the recording \, wait for thresh;
#X obj 799 407 v segmenty-v;
#X obj 831 357 s segmenty-action;
#X msg 799 309 2;
#X text 914 312 send out a 2;
#X obj 327 407 t f f f, f 21;
#X obj 471 436 s segmenty-action;
#X obj 928 406 r segmenty-action;
#X obj 928 498 sel 0 1 2, f 58;
#X msg 949 724 0;
#X obj 949 746 s led;
#X obj 1062 599 s led;
#X msg 1062 577 6;
#X obj 1322 658 s led;
#X msg 1322 636 1;
#X msg 928 771 \; screenLine5 Hold Aux to Record;
#X obj 1229 642 + 1;
#X msg 1196 576 1;
#X obj 1234 558 t b b;
#X msg 1266 580 0;
#X msg 1234 581 0;
#X obj 1196 613 metro 100;
#X obj 1196 670 * 0.1;
#X msg 1196 703 \; screenLine5 Recording: \$1 secs;
#X obj 1196 528 t b b, f 15;
#X obj 1196 642 f 0;
#X msg 976 657 \; screenLine5 Waiting For Sound;
#X obj 928 444 f;
#X obj 521 263 v segmenty-v;
#X obj 521 188 t f f f;
#X obj 567 213 s segmenty-action;
#X obj 521 146 v segmenty-v;
#X obj 433 30 r page-ready;
#X obj 258 219 spigot 0;
#X msg 433 104 1;
#X msg 514 98 0;
#X obj 433 74 t b b;
#X text 597 175 rebangs this stuff;
#X obj 433 52 sel 1, f 12;
#X obj 514 75 t b b;
#X obj 799 332 t f f;
#X obj 653 774 s segmenty-1-print-new;
#X obj 653 748 b;
#X obj 258 572 sel 1 2, f 16;
#X obj 928 466 change -1;
#X obj 1066 406 r segmenty-reprint-line5;
#X obj 470 203 del 5;
#X obj 1009 606 del 5;
#X connect 1 0 65 0;
#X connect 2 0 15 0;
#X connect 3 0 6 0;
#X connect 4 0 7 0;
#X connect 5 0 4 0;
#X connect 5 1 3 1;
#X connect 6 0 17 0;
#X connect 7 0 3 0;
#X connect 15 0 75 0;
#X connect 17 0 37 0;
#X connect 21 0 24 0;
#X connect 22 0 27 0;
#X connect 23 0 35 0;
#X connect 24 0 20 0;
#X connect 24 2 25 0;
#X connect 27 0 28 0;
#X connect 28 0 26 0;
#X connect 28 2 29 0;
#X connect 28 2 74 0;
#X connect 35 0 72 0;
#X connect 37 0 16 0;
#X connect 37 2 38 0;
#X connect 39 0 59 0;
#X connect 40 0 47 0;
#X connect 40 0 41 0;
#X connect 40 0 50 0;
#X connect 40 1 44 0;
#X connect 40 1 50 0;
#X connect 40 1 79 0;
#X connect 40 2 56 0;
#X connect 41 0 42 0;
#X connect 44 0 43 0;
#X connect 46 0 45 0;
#X connect 48 0 57 1;
#X connect 49 0 53 0;
#X connect 50 0 52 0;
#X connect 50 1 51 0;
#X connect 51 0 57 1;
#X connect 52 0 53 0;
#X connect 53 0 57 0;
#X connect 54 0 55 0;
#X connect 56 0 49 0;
#X connect 56 1 46 0;
#X connect 57 0 48 0;
#X connect 57 0 54 0;
#X connect 59 0 76 0;
#X connect 61 0 60 0;
#X connect 61 2 62 0;
#X connect 63 0 61 0;
#X connect 64 0 70 0;
#X connect 65 0 2 0;
#X connect 65 0 5 0;
#X connect 66 0 65 1;
#X connect 67 0 65 1;
#X connect 68 0 66 0;
#X connect 68 1 78 0;
#X connect 70 0 68 0;
#X connect 70 1 71 0;
#X connect 71 0 67 0;
#X connect 72 0 33 0;
#X connect 72 1 34 0;
#X connect 74 0 73 0;
#X connect 75 0 21 0;
#X connect 75 1 21 0;
#X connect 76 0 40 0;
#X connect 77 0 59 0;
#X connect 78 0 47 0;
#X connect 79 0 58 0;
#X restore 415 116 pd states;
#X obj 1245 464 r~ inL;
#X obj 1293 464 r~ inR;
#X obj 1245 508 *~ 0.7;
#X obj 1245 560 throw~ outL;
#X obj 1255 540 throw~ outR;
#X text 1333 513 sound through;
#X obj 243 568 tabwrite \$0-notes-from-poly;
#X obj 1073 871 s seg-step-3down;
#X obj 1073 824 loadbang;
#X obj 1073 755 loadbang;
#X obj 1073 685 loadbang;
#X obj 1203 685 loadbang;
#X obj 1333 824 loadbang;
#X obj 1333 755 loadbang;
#X obj 1333 685 loadbang;
#X obj 1073 802 s seg-step-2down;
#X obj 1073 732 s seg-step-1down;
#X obj 1203 732 s seg-step-root;
#X obj 1332 733 s seg-step-1up;
#X obj 1333 802 s seg-step-2up;
#X obj 1333 872 s seg-step-3up;
#X msg 1073 779 -4;
#X msg 1073 848 -8;
#X msg 1203 709 0;
#X msg 1333 779 4;
#X msg 1333 849 8;
#X text 1089 640 load the midi note steps when arppegiating;
#N canvas 24 50 1801 977 arp 0;
#N canvas 37 50 1242 820 double-double 0;
#X floatatom 422 282 5 0 0 0 - - -, f 5;
#X obj 306 623 + 0;
#X obj 378 338 sel 0;
#X obj 422 301 t f f;
#X msg 506 462 0;
#X obj 247 467 % 1;
#X obj 678 577 + 0;
#X obj 750 292 sel 0;
#X obj 794 255 t f f;
#X msg 878 416 0;
#X obj 619 421 % 1;
#X obj 487 756 outlet;
#X obj 327 176 spigot 0;
#X obj 592 158 spigot 0;
#X obj 459 91 inlet;
#X obj 234 516 tabread \$0-notes-increasing;
#X obj 606 470 tabread \$0-notes-increasing;
#X obj 792 209 r num-down;
#X obj 420 255 r num-down;
#X obj 255 394 counter-up 0;
#X obj 480 427 counter-up 2;
#X obj 627 348 counter-up 0;
#X obj 852 385 counter-up 2;
#X obj 725 403 b;
#X obj 845 445 f;
#X obj 480 479 f;
#X obj 351 455 b;
#X obj 269 79 r sixteenths;
#X obj 624 67 r eighths;
#X obj 857 467 * 24;
#X obj 485 513 * 24;
#X connect 0 0 3 0;
#X connect 1 0 11 0;
#X connect 2 0 4 0;
#X connect 2 0 19 1;
#X connect 2 0 20 1;
#X connect 3 0 2 0;
#X connect 3 0 5 1;
#X connect 3 1 19 2;
#X connect 4 0 25 0;
#X connect 5 0 15 0;
#X connect 6 0 11 0;
#X connect 7 0 9 0;
#X connect 7 0 21 1;
#X connect 7 0 22 1;
#X connect 8 0 7 0;
#X connect 8 0 10 1;
#X connect 8 1 21 2;
#X connect 9 0 24 0;
#X connect 10 0 16 0;
#X connect 12 0 19 0;
#X connect 13 0 21 0;
#X connect 14 0 12 1;
#X connect 14 0 13 1;
#X connect 15 0 1 0;
#X connect 16 0 6 0;
#X connect 17 0 8 0;
#X connect 18 0 0 0;
#X connect 19 0 5 0;
#X connect 19 1 26 0;
#X connect 20 0 25 0;
#X connect 21 0 10 0;
#X connect 21 1 23 0;
#X connect 22 0 24 0;
#X connect 23 0 22 0;
#X connect 24 0 29 0;
#X connect 25 0 30 0;
#X connect 26 0 20 0;
#X connect 27 0 12 0;
#X connect 28 0 13 0;
#X connect 29 0 6 1;
#X connect 30 0 1 1;
#X restore 657 620 pd double-double;
#X obj 283 200 t f b, f 17;
#X msg 48 488 0;
#X msg 283 257 1;
#X msg 356 255 1;
#X msg 430 254 1;
#X msg 503 252 1;
#N canvas 41 50 1242 820 double-randoms 0;
#X floatatom 451 564 5 0 0 0 - - -, f 5;
#X obj 247 642 + 0;
#X obj 420 330 sel 0;
#X obj 420 301 t f f;
#X msg 473 532 0;
#X obj 247 467 % 1;
#X floatatom 822 528 5 0 0 0 - - -, f 5;
#X obj 606 617 + 0;
#X obj 750 292 sel 0;
#X obj 721 246 t f f;
#X msg 844 496 0;
#X obj 606 441 % 1;
#X obj 487 756 outlet;
#X obj 255 185 spigot 0;
#X obj 627 158 spigot 0;
#X obj 459 91 inlet;
#X obj 451 495 random 3;
#X obj 255 394 random;
#X obj 606 470 tabread \$0-notes-increasing;
#X obj 247 496 tabread \$0-notes-increasing;
#X obj 451 452 b;
#X obj 255 351 b;
#X obj 708 388 b;
#X obj 420 255 r num-down;
#X obj 721 219 r num-down;
#X obj 627 348 counter-up 0;
#X obj 822 465 counter-up 2;
#X obj 255 87 r sixteenths;
#X obj 627 97 r eighths;
#X obj 822 547 * 24;
#X obj 451 584 * 24;
#X connect 0 0 30 0;
#X connect 1 0 12 0;
#X connect 2 0 4 0;
#X connect 3 0 2 0;
#X connect 3 0 5 1;
#X connect 4 0 0 0;
#X connect 5 0 19 0;
#X connect 6 0 29 0;
#X connect 7 0 12 0;
#X connect 8 0 10 0;
#X connect 8 0 25 1;
#X connect 8 0 26 1;
#X connect 9 0 8 0;
#X connect 9 0 11 1;
#X connect 9 1 25 2;
#X connect 10 0 6 0;
#X connect 11 0 18 0;
#X connect 13 0 21 0;
#X connect 14 0 25 0;
#X connect 15 0 13 1;
#X connect 15 0 14 1;
#X connect 16 0 0 0;
#X connect 17 0 5 0;
#X connect 18 0 7 0;
#X connect 19 0 1 0;
#X connect 20 0 16 0;
#X connect 21 0 20 0;
#X connect 21 0 17 0;
#X connect 22 0 26 0;
#X connect 23 0 17 1;
#X connect 23 0 3 0;
#X connect 24 0 9 0;
#X connect 25 0 11 0;
#X connect 25 1 22 0;
#X connect 26 0 6 0;
#X connect 27 0 13 0;
#X connect 28 0 14 0;
#X connect 29 0 7 1;
#X connect 30 0 1 1;
#X restore 526 622 pd double-randoms;
#N canvas 31 50 1242 820 singleup4 0;
#X floatatom 484 494 5 0 0 0 - - -, f 5;
#X obj 306 623 + 0;
#X obj 378 338 sel 0;
#X obj 422 301 t f f;
#X msg 506 462 0;
#X obj 247 467 % 1;
#X obj 487 756 outlet;
#X obj 327 176 spigot 0;
#X obj 459 91 inlet;
#X obj 234 516 tabread \$0-notes-increasing;
#X obj 420 255 r num-down;
#X obj 255 394 counter-up 0;
#X obj 480 427 counter-up 4;
#X obj 268 79 r sixteenths;
#X obj 485 514 * 24;
#X obj 352 446 b;
#X connect 0 0 14 0;
#X connect 1 0 6 0;
#X connect 2 0 4 0;
#X connect 2 0 11 1;
#X connect 2 0 12 1;
#X connect 3 0 2 0;
#X connect 3 0 5 1;
#X connect 3 1 11 2;
#X connect 4 0 0 0;
#X connect 5 0 9 0;
#X connect 7 0 11 0;
#X connect 8 0 7 1;
#X connect 9 0 1 0;
#X connect 10 0 3 0;
#X connect 11 0 5 0;
#X connect 11 1 15 0;
#X connect 12 0 0 0;
#X connect 13 0 7 0;
#X connect 14 0 1 1;
#X connect 15 0 12 0;
#X restore 310 624 pd singleup4;
#N canvas 34 50 1242 820 singledown4 0;
#X floatatom 484 494 5 0 0 0 - - -, f 5;
#X obj 306 623 + 0;
#X obj 378 338 sel 0;
#X obj 422 301 t f f;
#X msg 506 462 0;
#X obj 247 467 % 1;
#X obj 487 756 outlet;
#X obj 327 176 spigot 0;
#X obj 459 91 inlet;
#X obj 234 516 tabread \$0-notes-increasing;
#X obj 350 423 b;
#X obj 417 259 r num-down;
#X obj 255 394 counter-down 0;
#X obj 268 80 r sixteenths;
#X obj 484 533 * 24;
#X obj 481 427 counter-down 4, f 15;
#X obj 484 513 - 2;
#X connect 0 0 16 0;
#X connect 1 0 6 0;
#X connect 2 0 4 0;
#X connect 2 0 12 1;
#X connect 2 0 15 1;
#X connect 3 0 2 0;
#X connect 3 0 5 1;
#X connect 3 1 12 2;
#X connect 4 0 0 0;
#X connect 5 0 9 0;
#X connect 7 0 12 0;
#X connect 8 0 7 1;
#X connect 9 0 1 0;
#X connect 10 0 15 0;
#X connect 11 0 3 0;
#X connect 12 0 5 0;
#X connect 12 1 10 0;
#X connect 13 0 7 0;
#X connect 14 0 1 1;
#X connect 15 0 0 0;
#X connect 16 0 14 0;
#X restore 413 622 pd singledown4;
#X msg 577 254 1;
#X msg 650 254 1;
#X msg 724 254 1;
#X msg 793 254 1;
#N canvas 44 50 1242 820 singleup2 0;
#X obj 255 511 + 0;
#X obj 425 223 sel 0;
#X msg 506 400 0;
#X obj 255 355 % 1, f 8;
#X obj 255 544 outlet;
#X obj 255 116 spigot 0, f 15;
#X obj 357 47 inlet;
#X obj 389 362 b;
#X obj 255 282 counter-up 0, f 23;
#X obj 255 404 tabread \$0-notes-increasing, f 19;
#X obj 357 167 r num-down;
#X obj 357 190 t f f f, f 19;
#X obj 480 427 f;
#X obj 480 365 counter-up 2;
#X obj 255 46 r sixteenths;
#X obj 480 454 * 24;
#X connect 0 0 4 0;
#X connect 1 0 2 0;
#X connect 1 0 8 1;
#X connect 1 0 13 1;
#X connect 2 0 12 0;
#X connect 3 0 9 0;
#X connect 5 0 8 0;
#X connect 6 0 5 1;
#X connect 7 0 13 0;
#X connect 8 0 3 0;
#X connect 8 1 7 0;
#X connect 9 0 0 0;
#X connect 10 0 11 0;
#X connect 11 0 3 1;
#X connect 11 1 1 0;
#X connect 11 2 8 2;
#X connect 12 0 15 0;
#X connect 13 0 12 0;
#X connect 14 0 5 0;
#X connect 15 0 0 1;
#X restore 107 624 pd singleup2;
#N canvas 38 50 1242 820 singledown2 0;
#X floatatom 484 494 5 0 0 0 - - -, f 5;
#X obj 378 338 sel 0;
#X obj 422 301 t f f;
#X msg 506 462 0;
#X obj 247 467 % 1;
#X obj 487 756 outlet;
#X obj 327 176 spigot 0;
#X obj 459 91 inlet;
#X obj 255 394 counter-down 0;
#X obj 234 516 tabread \$0-notes-increasing;
#X obj 369 480 b;
#X obj 420 255 r num-down;
#X obj 480 427 counter-down 2;
#X obj 305 623 - 0;
#X floatatom 394 638 5 0 0 0 - - -, f 5;
#X obj 266 80 r sixteenths;
#X obj 485 513 * 24;
#X connect 0 0 16 0;
#X connect 1 0 3 0;
#X connect 1 0 8 1;
#X connect 1 0 12 1;
#X connect 2 0 1 0;
#X connect 2 0 4 1;
#X connect 2 1 8 2;
#X connect 3 0 0 0;
#X connect 4 0 9 0;
#X connect 6 0 8 0;
#X connect 7 0 6 1;
#X connect 8 0 4 0;
#X connect 8 1 10 0;
#X connect 9 0 13 0;
#X connect 10 0 12 0;
#X connect 11 0 2 0;
#X connect 12 0 0 0;
#X connect 13 0 5 0;
#X connect 13 0 14 0;
#X connect 15 0 6 0;
#X connect 16 0 13 1;
#X restore 204 625 pd singledown2;
#N canvas 474 224 1242 820 updown2 0;
#X obj 363 385 outlet;
#N canvas 42 50 1242 820 singleup2 0;
#X obj 306 623 + 0;
#X obj 441 352 sel 0;
#X obj 444 303 t f f;
#X msg 506 462 0;
#X obj 247 467 % 1;
#X obj 487 756 outlet;
#X obj 631 661 outlet;
#X obj 225 164 inlet;
#X obj 246 507 tabread \$0-notes-increasing;
#X obj 420 255 r num-down;
#X obj 340 470 b;
#X obj 486 488 f;
#X obj 255 394 counter-up 0;
#X obj 480 427 counter-up 2;
#X obj 485 514 * 24;
#X connect 0 0 5 0;
#X connect 1 0 3 0;
#X connect 1 0 12 1;
#X connect 1 0 13 1;
#X connect 2 0 1 0;
#X connect 2 0 4 1;
#X connect 2 1 12 2;
#X connect 3 0 11 0;
#X connect 4 0 8 0;
#X connect 7 0 12 0;
#X connect 8 0 0 0;
#X connect 9 0 2 0;
#X connect 10 0 13 0;
#X connect 11 0 14 0;
#X connect 12 0 4 0;
#X connect 12 1 10 0;
#X connect 13 0 11 0;
#X connect 13 1 6 0;
#X connect 14 0 0 1;
#X restore 301 220 pd singleup2;
#X obj 301 151 spigot 0;
#X obj 354 66 inlet;
#N canvas 34 50 1242 820 singledown2 0;
#X obj 306 623 + 0;
#X obj 378 338 sel 0;
#X obj 422 301 t f f;
#X msg 506 462 0;
#X obj 247 467 % 1;
#X obj 487 756 outlet;
#X obj 678 572 outlet;
#X obj 327 176 inlet;
#X obj 234 517 tabread \$0-notes-increasing;
#X obj 420 255 r num-down;
#X obj 389 399 b;
#X obj 485 491 f;
#X obj 255 394 counter-down 0;
#X obj 480 427 counter-down 2;
#X obj 485 513 * 24;
#X connect 0 0 5 0;
#X connect 1 0 3 0;
#X connect 1 0 12 1;
#X connect 1 0 13 1;
#X connect 2 0 1 0;
#X connect 2 0 4 1;
#X connect 2 1 12 2;
#X connect 3 0 11 0;
#X connect 4 0 8 0;
#X connect 7 0 12 0;
#X connect 8 0 0 0;
#X connect 9 0 2 0;
#X connect 10 0 13 0;
#X connect 11 0 14 0;
#X connect 12 0 4 0;
#X connect 12 1 10 0;
#X connect 13 0 11 0;
#X connect 13 1 6 0;
#X connect 14 0 0 1;
#X restore 436 223 pd singledown2;
#X obj 301 34 r sixteenths;
#X obj 301 173 t b b;
#X connect 1 0 0 0;
#X connect 2 0 6 0;
#X connect 3 0 2 1;
#X connect 4 0 0 0;
#X connect 5 0 2 0;
#X connect 6 0 1 0;
#X connect 6 1 4 0;
#X restore 781 621 pd updown2;
#X text 13 -24 Controls Arpeggiation;
#X obj 471 771 pack 0 0, f 16;
#X obj 471 742 makenote 100 100;
#X msg 990 330 All;
#X msg 985 365 Up Down;
#X msg 989 403 Double Double;
#X msg 991 440 Double Randoms;
#N canvas 219 140 1242 820 straight 0;
#X obj 301 515 outlet;
#X obj 301 101 spigot 0;
#X obj 354 74 inlet;
#X obj 341 301 r num-down;
#X obj 341 357 sel 0;
#X obj 341 323 t f f, f 8;
#X obj 301 439 % 2;
#X obj 301 470 tabread \$0-notes-increasing;
#X obj 301 387 counter-up 0;
#X obj 301 34 r sixteenths;
#X connect 1 0 8 0;
#X connect 2 0 1 1;
#X connect 3 0 5 0;
#X connect 4 0 8 1;
#X connect 5 0 4 0;
#X connect 5 0 6 1;
#X connect 5 1 8 2;
#X connect 6 0 7 0;
#X connect 7 0 0 0;
#X connect 8 0 6 0;
#X connect 9 0 1 0;
#X restore 871 621 pd straight;
#X obj 283 226 sel 1 2 3 4 5 6 7 8 0, f 95;
#X msg 989 299 OFF;
#X obj 283 150 i;
#X obj 283 177 change -1;
#X text 246 22 Sets the pattern;
#X obj 97 90 r page-ready;
#X msg 97 114 set -1;
#X obj 416 3 r page-ready;
#X msg 416 47 0;
#X obj 416 119 f;
#X obj 448 47 t b b;
#X msg 480 72 1;
#X obj 416 25 sel 1 2, f 10;
#X obj 283 105 f;
#X obj 283 128 * 8;
#X obj 283 83 spigot 1;
#X obj 1156 66 expr 1000/($f1/60);
#X obj 1156 118 s step;
#X obj 1156 11 r bpm;
#X obj 1156 38 int;
#X obj 1384 360 master-metronome;
#X obj 1384 325 tgl 15 0 empty empty empty 17 7 0 10 -262144 -1 -1
1 1;
#X obj 1384 258 loadbang;
#X msg 1384 290 1;
#X obj 1493 332 + 10;
#X obj 1466 524 i;
#X obj 1384 392 i;
#X obj 1493 306 * 250;
#X obj 1418 463 i;
#X msg 1418 490 1: Tempo \$1 BPM LINK \;;
#X msg 1384 414 1: Tempo \$1 BPM MIDI \;;
#X msg 1466 550 1: Tempo \$1 BPM \;;
#X obj 1411 605 s p2s1;
#X obj 1493 281 change -1;
#X obj 1443 155 r page-ready;
#X msg 1443 178 set -1;
#X obj 1615 47 r page-ready;
#X msg 1615 91 0;
#X obj 1615 163 f;
#X obj 1647 91 t b b;
#X msg 1679 116 1;
#X obj 1615 69 sel 1 2, f 10;
#X obj 1493 260 f;
#X obj 1494 227 spigot 1;
#X obj 471 862 outlet;
#X obj 659 796 r midiCh;
#X obj 599 817 noteout 1, f 8;
#X obj 580 721 r step;
#X msg 871 255 1;
#X obj 1118 637 s p2s2;
#X obj 1118 611 list prepend 2:;
#X msg 992 474 Down 4;
#X msg 995 568 Up 2;
#X msg 992 503 Up 4;
#X msg 994 538 Down 2;
#X text 1197 97 16 length;
#X obj 471 717 spigot 1;
#X obj 1493 204 r p2k1;
#X obj 283 61 r p2k2;
#X connect 0 0 81 0;
#X connect 1 0 25 0;
#X connect 1 1 2 0;
#X connect 2 0 8 0;
#X connect 2 0 9 0;
#X connect 2 0 7 0;
#X connect 2 0 0 0;
#X connect 2 0 14 0;
#X connect 2 0 15 0;
#X connect 2 0 16 0;
#X connect 2 0 24 0;
#X connect 3 0 14 0;
#X connect 4 0 15 0;
#X connect 5 0 8 0;
#X connect 6 0 9 0;
#X connect 7 0 81 0;
#X connect 8 0 81 0;
#X connect 9 0 81 0;
#X connect 10 0 7 0;
#X connect 11 0 0 0;
#X connect 12 0 16 0;
#X connect 13 0 14 0;
#X connect 13 0 15 0;
#X connect 13 0 9 0;
#X connect 13 0 8 0;
#X connect 13 0 7 0;
#X connect 14 0 81 0;
#X connect 15 0 81 0;
#X connect 16 0 81 0;
#X connect 18 0 69 0;
#X connect 19 0 18 0;
#X connect 19 0 71 0;
#X connect 19 1 18 1;
#X connect 19 1 71 1;
#X connect 20 0 75 0;
#X connect 21 0 75 0;
#X connect 22 0 75 0;
#X connect 23 0 75 0;
#X connect 24 0 81 0;
#X connect 25 0 3 0;
#X connect 25 0 77 0;
#X connect 25 1 4 0;
#X connect 25 1 79 0;
#X connect 25 2 5 0;
#X connect 25 2 78 0;
#X connect 25 3 6 0;
#X connect 25 3 76 0;
#X connect 25 4 10 0;
#X connect 25 4 23 0;
#X connect 25 5 11 0;
#X connect 25 5 22 0;
#X connect 25 6 12 0;
#X connect 25 6 21 0;
#X connect 25 7 13 0;
#X connect 25 7 20 0;
#X connect 25 8 26 0;
#X connect 25 8 73 0;
#X connect 26 0 75 0;
#X connect 27 0 28 0;
#X connect 28 0 1 0;
#X connect 30 0 31 0;
#X connect 31 0 28 0;
#X connect 32 0 37 0;
#X connect 33 0 34 0;
#X connect 34 0 40 1;
#X connect 35 0 38 0;
#X connect 35 1 36 0;
#X connect 36 0 34 0;
#X connect 37 0 33 0;
#X connect 37 1 35 0;
#X connect 37 2 35 0;
#X connect 38 0 39 0;
#X connect 39 0 27 0;
#X connect 40 0 38 0;
#X connect 41 0 42 0;
#X connect 43 0 44 0;
#X connect 44 0 41 0;
#X connect 45 0 51 0;
#X connect 45 1 50 0;
#X connect 45 2 53 0;
#X connect 46 0 45 0;
#X connect 47 0 48 0;
#X connect 48 0 46 0;
#X connect 49 0 45 1;
#X connect 50 0 56 0;
#X connect 51 0 55 0;
#X connect 52 0 49 0;
#X connect 53 0 54 0;
#X connect 54 0 57 0;
#X connect 55 0 57 0;
#X connect 56 0 57 0;
#X connect 58 0 52 0;
#X connect 59 0 60 0;
#X connect 60 0 58 0;
#X connect 61 0 66 0;
#X connect 62 0 63 0;
#X connect 63 0 68 1;
#X connect 64 0 67 0;
#X connect 64 1 65 0;
#X connect 65 0 63 0;
#X connect 66 0 62 0;
#X connect 66 1 64 0;
#X connect 66 2 64 0;
#X connect 67 0 58 0;
#X connect 68 0 67 0;
#X connect 70 0 71 2;
#X connect 72 0 19 2;
#X connect 73 0 24 0;
#X connect 75 0 74 0;
#X connect 76 0 75 0;
#X connect 77 0 75 0;
#X connect 78 0 75 0;
#X connect 79 0 75 0;
#X connect 81 0 19 0;
#X connect 82 0 68 0;
#X connect 83 0 40 0;
#X restore 1109 483 pd arp;
#X msg 1073 710 -2;
#X msg 1334 710 2;
#X connect 0 0 13 0;
#X connect 0 1 13 1;
#X connect 1 0 15 0;
#X connect 3 0 21 0;
#X connect 3 1 84 1;
#X connect 13 0 1 0;
#X connect 13 1 1 1;
#X connect 13 2 1 2;
#X connect 15 0 3 0;
#X connect 21 0 14 0;
#X connect 21 1 6 0;
#X connect 21 2 17 0;
#X connect 21 3 24 0;
#X connect 21 4 84 0;
#X connect 22 0 12 0;
#X connect 23 0 11 0;
#X connect 29 0 68 0;
#X connect 33 0 60 0;
#X connect 35 0 38 0;
#X connect 36 0 33 0;
#X connect 37 0 36 0;
#X connect 37 1 34 0;
#X connect 38 0 39 0;
#X connect 39 0 37 0;
#X connect 41 0 54 0;
#X connect 42 0 44 0;
#X connect 43 0 44 0;
#X connect 44 0 59 1;
#X connect 45 0 58 0;
#X connect 46 0 44 1;
#X connect 47 0 44 1;
#X connect 48 0 46 0;
#X connect 48 1 49 0;
#X connect 49 0 59 3;
#X connect 50 0 61 0;
#X connect 51 0 52 0;
#X connect 52 0 54 1;
#X connect 53 0 54 1;
#X connect 54 0 59 0;
#X connect 55 0 47 0;
#X connect 56 0 57 0;
#X connect 57 0 59 4;
#X connect 58 0 48 0;
#X connect 58 1 48 0;
#X connect 58 2 55 0;
#X connect 59 0 0 0;
#X connect 61 0 53 0;
#X connect 61 1 51 0;
#X connect 62 0 30 0;
#X connect 62 0 31 0;
#X connect 63 0 64 0;
#X connect 64 0 67 0;
#X connect 65 0 67 0;
#X connect 66 0 65 0;
#X connect 69 0 71 0;
#X connect 70 0 73 0;
#X connect 71 0 70 0;
#X connect 71 1 72 0;
#X connect 72 0 73 0;
#X connect 73 0 29 0;
#X connect 75 0 77 0;
#X connect 76 0 77 0;
#X connect 78 0 80 0;
#X connect 79 0 80 0;
#X connect 80 0 81 0;
#X connect 80 0 82 0;
#X connect 86 0 100 0;
#X connect 87 0 99 0;
#X connect 88 0 106 0;
#X connect 89 0 101 0;
#X connect 90 0 103 0;
#X connect 91 0 102 0;
#X connect 92 0 107 0;
#X connect 99 0 93 0;
#X connect 100 0 85 0;
#X connect 101 0 95 0;
#X connect 102 0 97 0;
#X connect 103 0 98 0;
#X connect 105 0 62 0;
#X connect 106 0 94 0;
#X connect 107 0 96 0;
