#N canvas 316 78 1070 788 10;
#N canvas 0 50 450 278 (subpatch) 0;
#X array \$1-array 15043 float 2;
#X coords 0 1 15043 -1 335 251 1 0 0;
#X restore 478 153 graph;
#X obj 842 289 soundfiler;
#X floatatom 842 320 10 0 0 0 - - -, f 10;
#X floatatom 842 379 10 0 0 0 - - -, f 10;
#X obj 842 348 / 44.1;
#X text 898 348 sample rate / 1000;
#X obj 842 410 s \$1-duration;
#X obj 842 91 bng 15 250 50 0 empty empty empty 17 7 0 10 -262144 -1
-1;
#X obj 842 117 symbol \$1-array;
#X obj 842 203 list prepend -resize;
#X obj 842 231 list prepend read;
#X obj 842 259 list trim;
#X obj 842 64 loadbang;
#X text 492 27 construct the read message using the sound file name
(\$1);
#X obj 842 139 list;
#X obj 842 170 list prepend \$1;
#X text 918 378 milliseconds;
#X obj 50 470 phasor~;
#X obj 51 425 line~;
#X obj 53 668 hip~ 5;
#X obj 51 548 tabread4~ \$1-array;
#X obj 52 719 throw~ samp_voice_out;
#X obj 50 519 *~ 140688;
#X floatatom 110 458 5 0 0 0 - - -, f 5;
#X obj 110 436 r \$1-duration;
#X obj 110 477 * 44.1;
#X obj 69 213 r \$1-duration, f 11;
#X obj 51 360 f;
#X msg -5 265 0;
#X obj 52 643 *~;
#X obj 336 504 vline~;
#X obj 336 526 *~;
#X obj 336 548 *~;
#X msg 370 450 1 3;
#X obj 104 372 r ramp-time;
#X obj 51 398 pack 0 0;
#X floatatom 164 204 5 0 0 0 - - -, f 5;
#X obj 69 288 expr $f2 / $f1;
#X obj 69 258 f;
#X obj 190 519 *~ 22050;
#X obj 51 620 *~;
#X obj 191 548 tabread4~ crown;
#X obj 26 -130 r arp-notes;
#X obj 164 62 / 12;
#X obj 164 84 int;
#X obj 164 105 - 3;
#X obj 164 127 sel -3 -2 -1 0 1 2 3;
#X msg 237 175 1000;
#X msg 260 148 2000;
#X msg 280 175 4000;
#X msg 218 148 500;
#X msg 199 174 250;
#X msg 174 153 125;
#X floatatom 69 309 5 0 0 0 - - -, f 5;
#X obj 26 -70 % 12;
#X obj 26 -49 sel \$2;
#X obj 26 -93 t f f, f 9;
#X obj 72 14 f;
#X obj 26 -27 t b b b;
#X obj 164 223 t b f;
#X obj 58 135 del;
#X obj 76 110 r step;
#X obj 26 39 t b b;
#X obj 331 425 bng 15 250 50 0 empty empty empty 17 7 0 10 -262144
-1 -1;
#X msg 158 175 63;
#X msg 336 451 0 15;
#X connect 1 0 2 0;
#X connect 2 0 4 0;
#X connect 3 0 6 0;
#X connect 4 0 3 0;
#X connect 7 0 8 0;
#X connect 8 0 14 0;
#X connect 9 0 10 0;
#X connect 10 0 11 0;
#X connect 11 0 1 0;
#X connect 12 0 7 0;
#X connect 14 0 15 0;
#X connect 15 0 9 0;
#X connect 17 0 22 0;
#X connect 17 0 39 0;
#X connect 18 0 17 0;
#X connect 19 0 21 0;
#X connect 20 0 40 0;
#X connect 22 0 20 0;
#X connect 23 0 25 0;
#X connect 24 0 23 0;
#X connect 25 0 22 1;
#X connect 26 0 38 0;
#X connect 27 0 35 0;
#X connect 28 0 35 0;
#X connect 28 0 63 0;
#X connect 29 0 19 0;
#X connect 30 0 31 0;
#X connect 30 0 31 1;
#X connect 31 0 32 0;
#X connect 31 0 32 1;
#X connect 32 0 29 1;
#X connect 33 0 30 0;
#X connect 34 0 35 1;
#X connect 35 0 18 0;
#X connect 36 0 59 0;
#X connect 37 0 53 0;
#X connect 38 0 37 0;
#X connect 39 0 41 0;
#X connect 40 0 29 0;
#X connect 41 0 40 1;
#X connect 42 0 56 0;
#X connect 43 0 44 0;
#X connect 44 0 45 0;
#X connect 45 0 46 0;
#X connect 46 0 64 0;
#X connect 46 1 52 0;
#X connect 46 2 51 0;
#X connect 46 3 50 0;
#X connect 46 4 47 0;
#X connect 46 5 48 0;
#X connect 46 6 49 0;
#X connect 47 0 36 0;
#X connect 48 0 36 0;
#X connect 49 0 36 0;
#X connect 50 0 36 0;
#X connect 51 0 36 0;
#X connect 52 0 36 0;
#X connect 53 0 27 1;
#X connect 54 0 55 0;
#X connect 55 0 58 0;
#X connect 56 0 54 0;
#X connect 56 1 57 1;
#X connect 57 0 43 0;
#X connect 58 0 62 0;
#X connect 58 1 33 0;
#X connect 58 2 57 0;
#X connect 59 0 38 0;
#X connect 59 1 37 1;
#X connect 60 0 28 0;
#X connect 61 0 60 1;
#X connect 62 0 27 0;
#X connect 62 1 60 0;
#X connect 63 0 65 0;
#X connect 64 0 36 0;
#X connect 65 0 30 0;
