#N canvas 52 128 1406 884 10;
#X obj 15 143 s \$0-2-looper;
#X obj 58 525 r \$0-2-looper;
#X obj 58 658 throw~ segmenty-bus;
#X obj 409 46 unpack, f 7;
#X obj 409 22 inlet;
#X obj 409 68 swap, f 7;
#X obj 455 120 change -1;
#X obj 15 45 loadbang;
#X obj 455 386 s \$0-2-looper;
#X msg 455 363 read \$1;
#X obj 634 348 s \$0-2-looper;
#X msg 634 325 length \$1;
#X obj 455 320 * 0.0416667;
#X obj 276 516 vline~;
#X obj 167 523 r \$0-2-phase;
#X obj 409 418 sel 0, f 24;
#X obj 409 561 s \$0-2-vline;
#X obj 574 484 / 127;
#X obj 620 561 s \$0-2-phase;
#X obj 58 606 *~;
#X msg 13 211 decay \$1;
#X obj 13 233 s \$0-2-looper;
#X msg 139 100 speed 1;
#X obj 14 341 s \$0-2-looper;
#X msg 14 319 speed \$1;
#X obj 634 187 r segmenty-sample-out;
#X obj 473 189 r segmenty-sample-in;
#X text 701 210 (size);
#X obj 473 211 min 0.98;
#X obj 455 342 +;
#X text 484 344 read point;
#X text 554 389 send as in and out points;
#X obj 543 136 s \$0-2-looper;
#X obj 473 233 t b a;
#X obj 276 493 r \$0-2-vline;
#X obj 574 608 s \$0-2-vline;
#X obj 574 506 sqrt;
#X obj 276 540 *~;
#X obj 135 316 moses 0;
#X obj 181 339 b;
#X obj 135 340 b;
#X obj 14 289 t f f, f 7;
#X msg 181 361 0;
#X msg 135 362 0.25;
#X obj 135 384 v \$0-v;
#X obj 620 518 v \$0-v;
#X obj 455 92 t f b f, f 28;
#X obj 432 181 abs;
#X obj 432 160 expr if ($f1 > 59 \, $f1 - 60 \, $f1 - 12);
#X obj 792 39 int;
#X obj 792 124 sel -3 -2 -1 0 1 2 3, f 74;
#X obj 815 286 r \$0-ocatve;
#X msg 815 334 pitch \$1;
#X obj 815 356 s \$0-2-looper;
#X obj 815 309 * 0.0833333;
#X msg 543 113 point 1;
#X obj 58 554 cg-springer segmenty;
#X msg 15 100 point 1;
#X obj 13 189 r segmenty-knob3-local;
#X obj 14 257 r segmenty-knob4-local;
#X obj 634 209 max 0.001;
#X obj 432 224 t f f;
#X obj 304 277 s \$0-midi-note;
#X obj 574 460 t a b, f 7;
#X obj 982 253 s \$0-ocatve;
#X obj 982 231 f;
#X msg 221 346 1 \$1;
#X obj 221 368 /;
#X obj 221 395 rmstodb;
#X obj 221 417 / 100;
#X obj 58 576 *~;
#X obj 221 305 r segmenty-voice-sum;
#X obj 432 202 % 24;
#X obj 634 234 / 24;
#X obj 792 17 / 24;
#X obj 792 60 - 2;
#X obj 792 -28 - 12;
#X obj 792 -7 abs;
#X msg 409 538 0 50;
#X msg 574 582 \$1 9;
#X obj 221 439 lop~ 1000;
#X obj 810 147 r seg-step-3down;
#X obj 792 169 f;
#X obj 1324 149 f;
#X obj 840 191 f;
#X obj 982 169 f;
#X obj 1030 191 f;
#X obj 1172 169 f;
#X obj 1220 191 f;
#X obj 858 169 r seg-step-2down;
#X obj 1000 147 r seg-step-1down;
#X obj 1048 169 r seg-step-root;
#X obj 1190 146 r seg-step-1up;
#X obj 1238 165 r seg-step-2up;
#X obj 1342 128 r seg-step-3up;
#X obj 221 327 * 4;
#X obj 58 636 *~ 1;
#X msg 75 99 switch 1;
#X obj 634 256 t b a a;
#X obj 792 82 min 3;
#X obj 792 104 max -3;
#X connect 1 0 56 0;
#X connect 3 0 5 0;
#X connect 3 1 5 1;
#X connect 4 0 3 0;
#X connect 5 0 15 0;
#X connect 5 1 46 0;
#X connect 6 0 48 0;
#X connect 7 0 57 0;
#X connect 7 0 22 0;
#X connect 7 0 97 0;
#X connect 9 0 8 0;
#X connect 11 0 10 0;
#X connect 12 0 29 0;
#X connect 13 0 37 0;
#X connect 13 0 37 1;
#X connect 14 0 56 1;
#X connect 15 0 78 0;
#X connect 15 1 63 0;
#X connect 17 0 36 0;
#X connect 19 0 96 0;
#X connect 20 0 21 0;
#X connect 22 0 0 0;
#X connect 24 0 23 0;
#X connect 25 0 60 0;
#X connect 26 0 28 0;
#X connect 28 0 33 0;
#X connect 29 0 9 0;
#X connect 33 0 12 0;
#X connect 33 1 29 1;
#X connect 34 0 13 0;
#X connect 36 0 79 0;
#X connect 37 0 19 1;
#X connect 38 0 40 0;
#X connect 38 1 39 0;
#X connect 39 0 42 0;
#X connect 40 0 43 0;
#X connect 41 0 24 0;
#X connect 41 1 38 0;
#X connect 42 0 44 0;
#X connect 43 0 44 0;
#X connect 45 0 18 0;
#X connect 46 0 6 0;
#X connect 46 1 55 0;
#X connect 46 2 76 0;
#X connect 47 0 72 0;
#X connect 48 0 47 0;
#X connect 49 0 75 0;
#X connect 50 0 82 0;
#X connect 50 1 84 0;
#X connect 50 2 85 0;
#X connect 50 3 86 0;
#X connect 50 4 87 0;
#X connect 50 5 88 0;
#X connect 50 6 83 0;
#X connect 51 0 54 0;
#X connect 52 0 53 0;
#X connect 54 0 52 0;
#X connect 55 0 32 0;
#X connect 56 0 70 0;
#X connect 57 0 0 0;
#X connect 58 0 20 0;
#X connect 59 0 41 0;
#X connect 60 0 73 0;
#X connect 61 0 62 0;
#X connect 61 1 12 0;
#X connect 63 0 17 0;
#X connect 63 1 45 0;
#X connect 65 0 64 0;
#X connect 66 0 67 0;
#X connect 67 0 68 0;
#X connect 68 0 69 0;
#X connect 69 0 80 0;
#X connect 70 0 19 0;
#X connect 71 0 95 0;
#X connect 72 0 61 0;
#X connect 73 0 98 0;
#X connect 74 0 49 0;
#X connect 75 0 99 0;
#X connect 76 0 77 0;
#X connect 77 0 74 0;
#X connect 78 0 16 0;
#X connect 79 0 35 0;
#X connect 80 0 70 1;
#X connect 81 0 82 1;
#X connect 82 0 65 0;
#X connect 83 0 65 0;
#X connect 84 0 65 0;
#X connect 85 0 65 0;
#X connect 86 0 65 0;
#X connect 87 0 65 0;
#X connect 88 0 65 0;
#X connect 89 0 84 1;
#X connect 90 0 85 1;
#X connect 91 0 86 1;
#X connect 92 0 87 1;
#X connect 93 0 88 1;
#X connect 94 0 83 1;
#X connect 95 0 66 0;
#X connect 96 0 2 0;
#X connect 97 0 0 0;
#X connect 98 0 12 0;
#X connect 98 1 12 1;
#X connect 98 2 11 0;
#X connect 99 0 100 0;
#X connect 100 0 50 0;
