#N canvas 671 212 943 681 10;
#X obj 13 9 inlet 360-ticks;
#X obj 76 150 t f f;
#X obj 77 177 <;
#X obj 76 198 sel 1;
#X obj 76 319 f 0, f 9;
#X obj 144 280 + 1;
#X obj 76 340 * 360;
#X obj 13 371 +, f 11;
#X obj 13 402 i;
#X obj 13 433 t f f;
#X obj 13 484 outlet;
#X obj 40 458 s \$0-check;
#X obj 246 157 r \$0-check;
#X obj 327 100 - 1;
#X obj 246 229 sel 1;
#X obj 522 417 outlet new loop;
#X obj 156 326 t a a;
#X obj 513 49 inlet restart;
#X obj 513 91 t b;
#X obj 327 121 i;
#X obj 327 49 inlet loop in ticks;
#X text 621 204 Arg1: loop in ticks;
#X obj 246 208 >=, f 14;
#X obj 246 178 t f b;
#X obj 327 70 f \$1;
#X obj 327 142 change -1;
#X obj 583 98 s \$0-set;
#X obj 246 306 f 0, f 12;
#X obj 246 250 t b b b, f 23;
#X obj 142 146 sel 0;
#X obj 142 116 spigot 0;
#X msg 513 112 1;
#X msg 222 140 0;
#X obj 13 56 spigot 0, f 13;
#X obj 142 167 t b b b;
#X msg 142 188 1;
#X obj 88 35 r \$0-switch;
#X obj 142 216 s \$0-switch;
#X msg 343 285 0;
#X obj 264 274 r \$0-set;
#X obj 13 30 t f f;
#X obj 13 90 t f f, f 11;
#X obj 548 136 t b b;
#X obj 548 157 s \$0-switch;
#X obj 513 70 route sync free set stop;
#X obj 663 140 s \$0-switch;
#X msg 663 119 0;
#X connect 0 0 40 0;
#X connect 1 0 2 1;
#X connect 1 1 2 0;
#X connect 2 0 3 0;
#X connect 3 0 4 0;
#X connect 4 0 5 0;
#X connect 4 0 6 0;
#X connect 5 0 4 1;
#X connect 6 0 7 1;
#X connect 7 0 8 0;
#X connect 8 0 9 0;
#X connect 9 0 10 0;
#X connect 9 1 11 0;
#X connect 12 0 23 0;
#X connect 13 0 19 0;
#X connect 14 0 28 0;
#X connect 16 0 4 1;
#X connect 16 1 7 1;
#X connect 17 0 44 0;
#X connect 18 0 31 0;
#X connect 19 0 25 0;
#X connect 20 0 24 0;
#X connect 22 0 14 0;
#X connect 23 0 22 0;
#X connect 23 1 24 0;
#X connect 24 0 13 0;
#X connect 25 0 22 1;
#X connect 27 0 16 0;
#X connect 28 0 27 0;
#X connect 28 1 38 0;
#X connect 28 2 15 0;
#X connect 29 0 34 0;
#X connect 30 0 29 0;
#X connect 31 0 30 1;
#X connect 32 0 30 1;
#X connect 33 0 41 0;
#X connect 34 0 35 0;
#X connect 34 1 27 0;
#X connect 34 2 32 0;
#X connect 35 0 37 0;
#X connect 36 0 33 1;
#X connect 38 0 27 1;
#X connect 39 0 27 1;
#X connect 40 0 33 0;
#X connect 40 1 30 0;
#X connect 41 0 7 0;
#X connect 41 1 1 0;
#X connect 42 0 43 0;
#X connect 42 1 27 0;
#X connect 44 0 18 0;
#X connect 44 1 42 0;
#X connect 44 2 26 0;
#X connect 44 3 46 0;
#X connect 46 0 45 0;
