#N canvas 712 144 1204 737 10;
#N canvas 601 50 1241 942 mapping 0;
#X text 35 19 MultiSynth Mapping;
#X obj 183 49 r ms-\$1-knob1;
#X obj 183 115 s ms-\$1-knob1-local;
#X obj 340 49 r ms-\$1-knob2;
#X obj 340 115 s ms-\$1-knob2-local;
#X obj 497 115 s ms-\$1-knob3-local;
#X obj 497 49 r ms-\$1-knob3;
#X obj 659 46 r ms-\$1-knob4;
#X obj 659 112 s ms-\$1-knob4-local;
#X obj 587 665 map-knob-ms-X \$1 3 trans;
#X obj 587 695 map-knob-ms-X \$1 4 trans;
#X obj 241 162 map-knob-ms-fixed \$1 as tune 0;
#X obj 241 186 map-knob-ms \$1 2 as osc-ratio 0;
#X obj 241 206 map-knob-ms \$1 3 as reso 1;
#X obj 240 226 map-knob-ms \$1 4 as cutoff 2;
#X obj 240 267 map-knob-ms \$1 2 bp wave 3;
#X obj 240 290 map-knob-ms \$1 3 bp vrate 4;
#X obj 240 312 map-knob-ms \$1 4 bp vdepth 5;
#X obj 240 333 map-knob-ms-fixed \$1 bp decay 0.01 0;
#X obj 240 367 map-knob-ms \$1 2 czz attack 6;
#X obj 240 389 map-knob-ms \$1 3 czz decay 7;
#X obj 240 434 map-knob-ms \$1 4 czz release 8;
#X obj 240 508 map-knob-ms \$1 2 rampsyn rampd 9;
#X obj 235 531 map-knob-ms \$1 3 rampsyn rampamt 10;
#X obj 240 553 map-knob-ms \$1 4 rampsyn decay 11;
#X obj 240 627 map-knob-ms \$1 2 rhodey tone 12;
#X obj 240 605 map-knob-ms-fixed \$1 rhodey trans 0.3;
#X obj 240 486 map-knob-ms-fixed \$1 rampsyn rampd 0.25;
#X obj 240 410 map-knob-ms-fixed \$1 czz sustain 0.8;
#X obj 240 650 map-knob-ms \$1 3 rhodey mod 13;
#X obj 240 672 map-knob-ms \$1 4 rhodey decay 14;
#X obj 588 164 map-knob-ms-fixed \$1 tunedel dtime 0.5;
#X obj 588 186 map-knob-ms \$1 2 tunedel fb 15;
#X obj 588 209 map-knob-ms \$1 3 tunedel drums 16;
#X obj 589 231 map-knob-ms \$1 4 tunedel tone 17;
#X obj 588 279 map-knob-ms-fixed \$1 wavs vcf 0.5;
#X obj 588 301 map-knob-ms \$1 2 wavs width 18;
#X obj 587 324 map-knob-ms \$1 3 wavs position 19;
#X obj 587 349 map-knob-ms \$1 4 wavs decay 20;
#X obj 587 405 map-knob-ms \$1 2 bsamp speed 21;
#X obj 586 429 map-knob-ms \$1 3 bsamp duration 22;
#X obj 587 450 map-knob-ms \$1 4 bsamp envelope 23;
#X obj 587 515 map-knob-ms \$1 2 s24 speed 24;
#X obj 587 540 map-knob-ms \$1 3 s24 decay 25;
#X obj 589 560 map-knob-ms \$1 4 s24 lopass 26;
#X obj 587 635 map-knob-ms \$1 2 trans transpose 27;
#X obj 846 69 loadbang;
#X obj 910 216 r saveState;
#X obj 846 90 t b b;
#X obj 846 161 f \$1;
#X obj 841 128 s \$1-read-the-knobz;
#X obj 910 237 f \$1;
#X msg 844 195 read ../save-the-knobbers\$1.txt;
#X msg 910 264 write ../save-the-knobbers\$1.txt;
#X obj 846 325 array define \$1-save-the-knobz 29;
#X obj 18 155 r ms-\$1-knob1-local;
#X obj 18 387 s sp-\$1-picker;
#X obj 52 333 tabwrite \$1-save-the-knobz;
#X msg 101 286 28;
#X obj 18 256 t a a b;
#X obj 18 334 f;
#X obj 82 190 r \$1-read-the-knobz;
#X obj 82 251 tabread \$1-save-the-knobz;
#X msg 82 231 28;
#X obj 82 211 del 5;
#X connect 1 0 2 0;
#X connect 3 0 4 0;
#X connect 6 0 5 0;
#X connect 7 0 8 0;
#X connect 46 0 48 0;
#X connect 47 0 51 0;
#X connect 48 0 50 0;
#X connect 48 1 49 0;
#X connect 49 0 52 0;
#X connect 51 0 53 0;
#X connect 52 0 54 0;
#X connect 53 0 54 0;
#X connect 55 0 59 0;
#X connect 58 0 57 1;
#X connect 59 0 60 0;
#X connect 59 1 57 0;
#X connect 59 2 58 0;
#X connect 60 0 56 0;
#X connect 61 0 64 0;
#X connect 62 0 60 0;
#X connect 63 0 62 0;
#X connect 64 0 63 0;
#X restore 259 102 pd mapping;
#X text 335 98 map the knobs and where they print;
#N canvas 395 192 450 300 DSP-switch 0;
#X msg 28 183 \; \$2-\$3-switch \$1;
#X obj 28 155 pack 0 s \$1;
#X msg 82 89 0;
#X msg 28 121 1;
#X text 158 57 module's dsp on/off;
#X obj 28 81 del 10;
#X obj 82 115 s ms-\$1-kill-switch;
#X obj 26 36 r ms-\$1-Fxs;
#X obj 28 59 t b b s s, f 16;
#X obj 133 86 s \$0-selector;
#X connect 1 0 0 0;
#X connect 2 0 6 0;
#X connect 3 0 1 0;
#X connect 5 0 3 0;
#X connect 7 0 8 0;
#X connect 8 0 5 0;
#X connect 8 1 2 0;
#X connect 8 2 1 1;
#X connect 8 3 9 0;
#X restore 260 241 pd DSP-switch;
#X text 366 239 turn dsp on for specified module;
#X text 356 354 audio out;
#X text 418 11 arg1: MultiSynth instance #;
#X text 370 183 Knob1 selects Synth/Sampler;
#N canvas 460 51 721 660 select-synth 0;
#X obj 7 119 int;
#X obj 7 246 unpack s s;
#X obj 7 145 f;
#X obj 7 275 symbol;
#X obj 243 189 r page-ready;
#X text 185 366 send effect name to print main menu;
#X text 188 159 update label with new page;
#X msg 7 308 \$1;
#X obj 69 23 r ms-\$1-knob1bang;
#X obj 87 276 s ms-\$1-Fxs;
#X obj 7 339 s ms-\$1-knob1-label;
#X obj 71 366 s ms-\$1-menu;
#X obj 7 210 text get \$1-ms;
#X obj 7 92 * 9;
#X msg 56 142 set -1;
#X obj 57 96 r ms-\$1-reload;
#X obj 57 118 t b;
#X obj 253 93 text define \$1-ms;
#X msg 253 65 read MultiSynth.txt;
#X obj 250 32 loadbang;
#X obj 7 60 r sp-\$1-picker;
#X obj 243 218 t b;
#X obj 7 175 change -1;
#X connect 0 0 2 0;
#X connect 1 0 3 0;
#X connect 1 0 11 0;
#X connect 1 1 9 0;
#X connect 2 0 22 0;
#X connect 3 0 7 0;
#X connect 4 0 21 0;
#X connect 7 0 10 0;
#X connect 8 0 2 0;
#X connect 12 0 1 0;
#X connect 13 0 0 0;
#X connect 15 0 16 0;
#X connect 16 0 14 0;
#X connect 18 0 17 0;
#X connect 19 0 18 0;
#X connect 20 0 13 0;
#X connect 21 0 3 0;
#X connect 22 0 12 0;
#X restore 254 187 pd select-synth;
#X text 350 306 map the notes coming from OG;
#N canvas 685 175 966 727 map-notes 0;
#X obj 28 204 pack 0 s \$1;
#X msg 82 138 0;
#X msg 28 170 1;
#X obj 28 130 del 10;
#X msg 28 232 \; \$2-\$3-notesswitch \$1;
#X text 158 106 module's incoming notes on/off;
#X obj 28 86 r ms-\$1-Fxs;
#X obj 82 164 s ms-\$1-noteskill-switch;
#X obj 422 371 s ms-\$1-notes-in;
#X obj 422 47 r ms-\$1-master-notes;
#X obj 422 179 unpack 0 0;
#X obj 422 221 +;
#X obj 422 253 pack 0 0;
#X obj 422 275 t a a;
#X obj 454 313 bag;
#X obj 454 335 pack 0 0;
#X msg 484 287 flush;
#X obj 524 143 i;
#X obj 524 165 t b a;
#X obj 727 240 moses 0;
#X msg 823 327 Transpose: +\$1;
#X msg 727 361 Transpose: \$1;
#X obj 773 271 sel 0, f 15;
#X msg 773 293 0;
#X obj 727 406 s trans-\$1-transpose-label;
#X obj 524 121 - 32;
#X obj 524 77 r trans-\$1-local;
#X obj 524 99 * 64;
#X obj 28 108 t b b s, f 16;
#X connect 0 0 4 0;
#X connect 1 0 7 0;
#X connect 2 0 0 0;
#X connect 3 0 2 0;
#X connect 6 0 28 0;
#X connect 9 0 10 0;
#X connect 10 0 11 0;
#X connect 10 1 12 1;
#X connect 11 0 12 0;
#X connect 12 0 13 0;
#X connect 13 0 8 0;
#X connect 13 1 14 0;
#X connect 14 0 15 0;
#X connect 15 0 8 0;
#X connect 16 0 14 0;
#X connect 17 0 18 0;
#X connect 18 0 16 0;
#X connect 18 1 11 1;
#X connect 18 1 19 0;
#X connect 19 0 21 0;
#X connect 19 1 22 0;
#X connect 20 0 24 0;
#X connect 21 0 24 0;
#X connect 22 0 23 0;
#X connect 22 1 20 0;
#X connect 23 0 21 0;
#X connect 25 0 17 0;
#X connect 26 0 27 0;
#X connect 27 0 25 0;
#X connect 28 0 3 0;
#X connect 28 1 1 0;
#X connect 28 2 0 1;
#X restore 253 301 pd map-notes;
#X text 47 68 make this using the load module thiung??;
#N canvas 1180 425 450 300 sound-here\$1 0;
#X obj 50 50 TunedDelay 3;
#X obj 200 50 s~ ms-3-out;
#X connect 0 0 1 0;
#X restore 322 493 pd sound-here\$1;
#X msg 831 239 \; pd-sound-here\$1 clear;
#X obj 747 192 t a a;
#X obj 747 170 pack s \$1;
#X obj 774 213 unpack s 0;
#X obj 728 111 r ms-\$1-menu;
#X text 19 6 MultiSynth3. Updated 5/6/2019;
#X obj 865 147 bng 15 250 50 0 empty empty empty 17 7 0 10 -262144
-1 -1;
#X msg 747 286 \; pd-sound-here\$2 obj 50 50 \$1 \$2 \; pd-sound-here\$2
obj 200 50 s~ ms-\$2-out \; pd-sound-here\$2 connect 0 0 1 0 \;;
#X connect 13 0 19 0;
#X connect 13 1 15 0;
#X connect 14 0 13 0;
#X connect 15 1 12 0;
#X connect 16 0 14 0;
#X connect 18 0 15 0;
