#N canvas 517 302 858 579 10;
#X obj 240 262 spigot 0;
#X obj 273 131 r page-ready;
#X obj 333 176 t b b;
#X obj 273 175 t b b;
#X msg 299 197 1;
#X msg 365 203 0;
#X obj 223 53 inlet;
#X text 421 80 arg 1: which page to activate;
#X obj 240 324 outlet;
#X obj 273 153 sel \$1 0, f 9;
#X obj 323 327 outlet on;
#X obj 419 326 outlet off;
#X connect 0 0 8 0;
#X connect 1 0 9 0;
#X connect 2 0 11 0;
#X connect 2 1 5 0;
#X connect 3 0 10 0;
#X connect 3 1 4 0;
#X connect 4 0 0 1;
#X connect 5 0 0 1;
#X connect 6 0 0 0;
#X connect 9 0 3 0;
#X connect 9 2 2 0;
