#N canvas 65 333 602 515 10;
#X obj 96 55 loadbang, f 12;
#X obj 106 368 hip~ 5;
#X obj 109 334 *~;
#X obj 350 191 r knob1;
#X obj 24 113 del 100;
#X obj 349 246 *;
#X obj 349 219 t f f;
#X obj 349 274 sig~;
#X obj 349 300 lop~ 5;
#X msg 26 137 1;
#X obj 89 79 t b b;
#X msg 116 119 open background.wav;
#X obj 87 226 readsf~ 2;
#X obj 242 380 hip~ 5;
#X text 297 378 cut DC;
#X obj 245 346 *~;
#X obj 109 446 throw~ bgL;
#X obj 240 446 throw~ bgR;
#X text 316 45 loads and loops a background track;
#X connect 0 0 10 0;
#X connect 1 0 16 0;
#X connect 2 0 1 0;
#X connect 3 0 6 0;
#X connect 4 0 9 0;
#X connect 5 0 7 0;
#X connect 6 0 5 0;
#X connect 6 1 5 1;
#X connect 7 0 8 0;
#X connect 8 0 2 1;
#X connect 8 0 15 1;
#X connect 9 0 12 0;
#X connect 10 0 4 0;
#X connect 10 1 11 0;
#X connect 11 0 12 0;
#X connect 12 0 2 0;
#X connect 12 1 15 0;
#X connect 12 2 10 0;
#X connect 13 0 17 0;
#X connect 15 0 13 0;
