#N canvas 24 50 997 848 10;
#X obj 513 371 *~;
#X obj 157 111 inlet~;
#X obj 363 117 inlet;
#X obj 529 134 inlet;
#X obj 512 645 *~ 1;
#X obj 511 712 outlet~;
#X obj 363 264 lop~ \$1;
#X text 166 157 signal;
#X text 395 162 Time in ms;
#X text 554 180 feedback 0-1;
#X obj 529 263 lop~ \$1;
#X obj 363 325 vd~ \$0del 3000;
#X obj 157 558 delwrite~ \$0del 3000;
#X text 665 312 \$1: lop~ argument;
#X obj 247 496 *~ 0.707;
#X obj 157 132 *~ 0.707;
#X obj 529 155 clip 0 0.999999;
#X connect 0 0 4 0;
#X connect 0 0 14 0;
#X connect 1 0 15 0;
#X connect 2 0 6 0;
#X connect 3 0 16 0;
#X connect 4 0 5 0;
#X connect 6 0 11 0;
#X connect 10 0 0 1;
#X connect 11 0 0 0;
#X connect 14 0 12 0;
#X connect 15 0 12 0;
#X connect 16 0 10 0;
