#N canvas 410 167 1044 750 10;
#X obj 246 493 osc~;
#X obj 248 402 line~;
#X obj 407 162 * 1000;
#X obj 267 289 f, f 2;
#X obj 391 378 noise~;
#X obj 516 157 t f f;
#X obj 459 408 line~;
#X obj 431 478 *~;
#X obj 318 614 *~;
#X obj 270 320 pack 0 0;
#X obj 672 120 * 1000;
#X obj 653 364 f;
#X msg 254 366 \$1 \, 0 \$2;
#X obj 221 92 inlet;
#X obj 482 300 f;
#X obj 516 179 *;
#X msg 466 336 \$1 \, 0 25;
#X obj 518 103 inlet;
#X text 562 103 noise lev;
#X obj 673 98 inlet;
#X text 734 96 decay;
#X obj 403 92 inlet;
#X obj 305 97 inlet;
#X obj 316 168 * 4000;
#X text 294 77 start freq;
#X text 452 84 ramp time;
#X obj 282 689 outlet~;
#X obj 262 164 t b b;
#X obj 245 193 delay 2;
#X obj 246 220 t b b b;
#X msg 578 319 0 2;
#X obj 645 437 vline~;
#X msg 675 399 1 2 \, 0 \$1 2;
#X obj 146 399 r~ lfo;
#X obj 207 443 +~;
#X obj 308 122 t f f;
#X obj 308 144 *;
#X obj 407 118 t f f;
#X obj 407 140 *;
#X connect 0 0 8 0;
#X connect 1 0 34 1;
#X connect 2 0 9 1;
#X connect 3 0 9 0;
#X connect 4 0 7 0;
#X connect 5 0 15 0;
#X connect 5 1 15 1;
#X connect 6 0 7 1;
#X connect 7 0 8 0;
#X connect 8 0 26 0;
#X connect 9 0 12 0;
#X connect 10 0 11 1;
#X connect 11 0 32 0;
#X connect 12 0 1 0;
#X connect 13 0 27 0;
#X connect 14 0 16 0;
#X connect 15 0 14 1;
#X connect 16 0 6 0;
#X connect 17 0 5 0;
#X connect 19 0 10 0;
#X connect 21 0 37 0;
#X connect 22 0 35 0;
#X connect 23 0 3 1;
#X connect 27 0 28 0;
#X connect 27 1 30 0;
#X connect 28 0 29 0;
#X connect 29 0 11 0;
#X connect 29 1 3 0;
#X connect 29 2 14 0;
#X connect 30 0 31 0;
#X connect 31 0 8 1;
#X connect 32 0 31 0;
#X connect 33 0 34 0;
#X connect 34 0 0 0;
#X connect 35 0 36 0;
#X connect 35 1 36 1;
#X connect 36 0 23 0;
#X connect 37 0 38 0;
#X connect 37 1 38 1;
#X connect 38 0 2 0;
