#N canvas 165 102 1450 853 10;
#X obj 506 338 bng 15 250 50 0 empty empty empty 17 7 0 10 -262144
-1 -1;
#X obj 506 438 qlist;
#X obj 564 338 bng 15 250 50 0 empty empty empty 17 7 0 10 -262144
-1 -1;
#X msg 564 377 rewind;
#X obj 574 439 bng 15 250 50 0 empty empty empty 17 7 0 10 -262144
-1 -1;
#X obj 776 96 r notes;
#X obj 712 391 timer;
#X obj 752 265 unpack;
#X obj 688 555 pack s 0 s 0 0;
#X msg 657 435 add;
#X obj 688 594 route list;
#X obj 712 309 t b b b b f;
#X obj 776 182 spigot 0;
#X obj 859 152 tgl 15 0 empty empty empty 17 7 0 10 -262144 -1 -1 0
1;
#X msg 623 391 clear;
#X obj 909 259 f;
#X obj 1007 263 + 1;
#X obj 889 224 bng 15 250 50 0 empty empty empty 17 7 0 10 -262144
-1 -1;
#X floatatom 909 303 5 0 0 0 - - -, f 5;
#X obj 927 194 sel 1;
#X msg 927 219 0;
#X obj 909 338 sel 0;
#X obj 812 309 t f b;
#X obj 691 153 bng 15 250 50 0 empty empty empty 17 7 0 10 -262144
-1 -1;
#X msg 691 178 0 0;
#X msg 859 123 1;
#X msg 1056 96 0;
#X obj 141 649 bag;
#X msg 155 621 flush;
#X obj 141 673 pack 0 0;
#X text 646 49 Record Notes To List. First note starts recording.;
#X text 116 548 Kills notes left on by sequence.;
#X msg 960 468 1;
#X obj 504 278 spigot 0;
#X text 486 206 avoid playing 0 len seq;
#X msg 258 261 tempo \$1;
#X obj 656 122 t b b;
#X obj 146 286 loadbang;
#X obj 146 313 t b b;
#X msg 146 380 1;
#N canvas 6 50 450 300 midi-out 0;
#X obj 99 100 r notes_seq;
#X obj 114 172 noteout 1;
#X obj 114 132 unpack;
#X obj 195 104 r zero_notes;
#X text 120 22 send the sequence out ch 1;
#X connect 0 0 2 0;
#X connect 2 0 1 0;
#X connect 2 1 1 1;
#X connect 3 0 2 0;
#X restore 143 161 pd midi-out;
#X obj 337 581 r quitting;
#X msg 188 350 read ./layer1.txt;
#X msg 347 236 write ./layer1.txt;
#X obj 471 510 s seq-looped;
#X obj 909 370 t b b;
#X obj 1102 60 r seq-stop;
#X obj 564 300 r seq-stop;
#X obj 1053 37 r seq-start;
#X obj 487 233 r seq-start;
#X obj 258 235 r seq-tempo;
#X msg 758 425 symbol seq-notes;
#X obj 134 567 r seq-notes;
#X obj 239 582 r seq-stop;
#X obj 141 699 s seq-notes-flush;
#X obj 859 96 r seq-recenable;
#X obj 961 501 s seq-something-recorded;
#X obj 574 232 r seq-something-recorded;
#X obj 146 402 s seq-something-recorded;
#X obj 656 73 r seq-end-recording;
#X obj 705 729 s seq-end-recording;
#X obj 709 661 bng 15 250 50 0 empty empty empty 17 7 0 10 -262144
-1 -1;
#X obj 914 678 s seq-start;
#X obj 917 654 bng 15 250 50 0 empty empty empty 17 7 0 10 -262144
-1 -1;
#X obj 707 703 bng 15 250 50 0 empty empty empty 17 7 0 10 -262144
-1 -1;
#X obj 709 682 s seq-recenable;
#X obj 536 676 r seq-record-start;
#X obj 942 403 s seq-record-start;
#X obj 539 706 bng 15 250 50 0 empty empty empty 17 7 0 10 -262144
-1 -1;
#X text 124 72 sends: seq-record-start \, seq-notes \, seq-notes-flush
\, seq-looped;
#X obj 1186 311 r seq-record-start;
#X msg 1186 333 1;
#X obj 1186 374 v seq-rec-stat;
#X obj 1155 279 r seq-stop;
#X obj 1134 343 bang;
#X obj 1180 412 sel 1;
#X obj 1185 461 t b b;
#X msg 1220 490 0;
#X obj 1153 525 s seq-end-recording;
#X text 125 22 receives: seq-play \, seq-recenable \, seq-stop \, seq-tempo
\, notes;
#X obj 709 486 + 1;
#X text 737 482 hack to avoid 0 ms len seq;
#X connect 0 0 1 0;
#X connect 1 1 4 0;
#X connect 2 0 3 0;
#X connect 3 0 1 0;
#X connect 4 0 0 0;
#X connect 4 0 44 0;
#X connect 5 0 12 0;
#X connect 6 0 80 0;
#X connect 7 0 11 0;
#X connect 7 1 22 0;
#X connect 8 0 10 0;
#X connect 9 0 8 0;
#X connect 10 0 1 0;
#X connect 11 0 6 0;
#X connect 11 1 9 0;
#X connect 11 2 6 1;
#X connect 11 3 51 0;
#X connect 11 4 8 3;
#X connect 12 0 7 0;
#X connect 13 0 12 1;
#X connect 13 0 19 0;
#X connect 14 0 1 0;
#X connect 15 0 16 0;
#X connect 15 0 18 0;
#X connect 16 0 15 1;
#X connect 17 0 15 0;
#X connect 18 0 21 0;
#X connect 19 0 20 0;
#X connect 20 0 15 1;
#X connect 21 0 6 0;
#X connect 21 0 14 0;
#X connect 21 0 45 0;
#X connect 22 0 8 4;
#X connect 22 1 17 0;
#X connect 23 0 24 0;
#X connect 24 0 7 0;
#X connect 25 0 13 0;
#X connect 26 0 13 0;
#X connect 27 0 29 0;
#X connect 28 0 27 0;
#X connect 29 0 54 0;
#X connect 32 0 56 0;
#X connect 33 0 0 0;
#X connect 35 0 1 0;
#X connect 36 0 43 0;
#X connect 36 1 23 0;
#X connect 37 0 38 0;
#X connect 38 0 39 0;
#X connect 38 1 42 0;
#X connect 39 0 58 0;
#X connect 41 0 28 0;
#X connect 42 0 1 0;
#X connect 43 0 1 0;
#X connect 45 0 32 0;
#X connect 45 1 67 0;
#X connect 46 0 26 0;
#X connect 47 0 2 0;
#X connect 48 0 26 0;
#X connect 49 0 33 0;
#X connect 50 0 35 0;
#X connect 51 0 8 2;
#X connect 52 0 27 0;
#X connect 53 0 28 0;
#X connect 55 0 25 0;
#X connect 57 0 33 1;
#X connect 59 0 36 0;
#X connect 61 0 65 0;
#X connect 63 0 62 0;
#X connect 64 0 60 0;
#X connect 66 0 68 0;
#X connect 70 0 71 0;
#X connect 71 0 72 0;
#X connect 72 0 75 0;
#X connect 73 0 74 0;
#X connect 74 0 72 0;
#X connect 75 0 76 0;
#X connect 76 0 78 0;
#X connect 76 1 77 0;
#X connect 77 0 72 0;
#X connect 80 0 8 1;
