#N canvas 83 50 922 704 10;
#X obj 144 109 stripnote;
#X obj 139 223 % 24;
#X obj 139 197 abs;
#X obj 144 131 expr if ($f1 > 59 \, $f1 - 60 \, $f1 - 12);
#X text 256 155 allow all midi notes to trigger samples...;
#X obj 231 363 t b f;
#N canvas 4 50 693 312 get-params 0;
#X obj 82 140 tabread param1;
#X floatatom 81 166 5 0 0 0 - - -;
#X floatatom 187 172 5 0 0 0 - - -;
#X floatatom 296 164 5 0 0 0 - - -;
#X floatatom 404 162 5 0 0 0 - - -;
#X obj 189 140 tabread param2;
#X obj 297 138 tabread param3;
#X obj 406 135 tabread param4;
#X obj 83 99 inlet;
#X obj 82 186 outlet;
#X obj 187 198 outlet;
#X obj 285 194 outlet;
#X obj 398 187 outlet;
#X connect 0 0 1 0;
#X connect 1 0 9 0;
#X connect 2 0 10 0;
#X connect 3 0 11 0;
#X connect 4 0 12 0;
#X connect 5 0 2 0;
#X connect 6 0 3 0;
#X connect 7 0 4 0;
#X connect 8 0 0 0;
#X connect 8 0 5 0;
#X connect 8 0 6 0;
#X connect 8 0 7 0;
#X restore 326 441 pd get-params;
#X obj 264 534 drum1, f 28;
#X text 216 223 argument (key number);
#X obj 139 249 sel \$1;
#X obj 210 305 f;
#X obj 160 166 t f f;
#X obj 264 652 throw~ voice-out;
#X obj 478 44 r key-just-copied;
#X obj 100 35 r local-notes;
#X connect 0 0 3 0;
#X connect 0 1 7 5;
#X connect 1 0 9 0;
#X connect 2 0 1 0;
#X connect 3 0 11 0;
#X connect 5 0 7 0;
#X connect 5 1 6 0;
#X connect 6 0 7 1;
#X connect 6 1 7 2;
#X connect 6 2 7 3;
#X connect 6 3 7 4;
#X connect 7 0 12 0;
#X connect 9 0 10 0;
#X connect 10 0 5 0;
#X connect 11 0 2 0;
#X connect 11 1 10 1;
#X connect 13 0 0 0;
#X connect 14 0 0 0;
