#N canvas 74 50 1335 731 10;
#X obj 705 561 s oscOut;
#X obj 942 354 until;
#X obj 942 382 f;
#X obj 975 382 + 1;
#X msg 990 350 0;
#X obj 942 299 t b b;
#X msg 942 323 14;
#X obj 942 406 * 9;
#X obj 728 305 until;
#X obj 728 333 f;
#X obj 761 333 + 1;
#X msg 776 301 0;
#X obj 728 387 * 9;
#X msg 728 274 14;
#X obj 728 355 sel 2 6 9 13 14;
#X obj 705 222 t b b b, f 41;
#X obj 989 319 s oscOut;
#X obj 20 160 unpack, f 14;
#X obj 14 69 text define keys-diagram;
#X msg 14 41 read keys-diagram.txt;
#X obj 20 304 text get keys-diagram;
#X obj 20 326 unpack;
#X obj 20 527 s oscOut;
#X obj 14 16 loadbang;
#X obj 20 426 t b a;
#X msg 20 489 /oled/gFlip 3;
#X obj 705 250 t b b b;
#X obj 705 191 b;
#X msg 705 532 /oled/gFlip 3;
#X obj 868 421 + 10;
#X obj 728 446 pack 0 0;
#X obj 781 393 loadbang;
#X msg 189 40 write keys-diagram.txt;
#X obj 942 450 pack 0 0;
#X obj 20 132 inlet;
#X obj 705 164 inlet bang to redraw;
#X msg 1066 371 /oled/gClear 3 1;
#X msg 989 290 /oled/gFillArea 3 0 \$1 128 20 0;
#X obj 59 350 + \$1;
#X obj 989 247 \$1;
#X obj 781 415 \$1;
#X msg 728 507 /oled/gCircle 3 \$1 \$2 3 1;
#X msg 942 507 /oled/gCircle 3 \$1 \$2 3 1;
#X obj 20 232 - 1;
#X obj 20 348 + 1;
#X obj 943 428 + 4;
#X obj 728 413 + 9;
#X obj 989 269 - 2;
#X obj 115 215 sel 0 1, f 38;
#X obj 20 404 pack 0 0, f 14;
#X msg 51 460 /oled/gFilledCircle 3 \$1 \$2 2 0;
#X obj 20 254 t f f, f 51;
#X obj 20 282 f;
#X obj 20 190 swap, f 14;
#X obj 407 237 * 127;
#X obj 407 259 i;
#X obj 407 281 moses 0;
#X obj 358 412 unpack;
#X obj 443 657 s oscOut;
#X obj 443 556 t b a;
#X msg 443 619 /oled/gFlip 3;
#X obj 397 436 + \$1;
#X obj 358 434 + 1;
#X obj 358 384 text get keys-diagram;
#X obj 358 359 f;
#X obj 358 456 t b a;
#X obj 357 481 pack 0 0 0 0, f 14;
#X obj 357 505 list split 1;
#X obj 220 668 s oscOut;
#X obj 220 567 t b a;
#X msg 220 630 /oled/gFlip 3;
#X msg 474 590 /oled/gFilledCircle 3 \$2 \$3 \$1 1;
#X msg 252 598 /oled/gSetPixel 3 \$1 \$2 1;
#X msg 506 352 1;
#X msg 550 355 2;
#X msg 453 326 0;
#X obj 397 529 route 0;
#X obj 506 330 moses 100;
#X obj 453 304 moses 69;
#X obj 407 215 r knob2;
#X connect 1 0 2 0;
#X connect 2 0 3 0;
#X connect 2 0 7 0;
#X connect 3 0 2 1;
#X connect 4 0 2 1;
#X connect 5 0 6 0;
#X connect 5 1 4 0;
#X connect 6 0 1 0;
#X connect 7 0 45 0;
#X connect 8 0 9 0;
#X connect 9 0 10 0;
#X connect 9 0 14 0;
#X connect 10 0 9 1;
#X connect 11 0 9 1;
#X connect 12 0 46 0;
#X connect 13 0 8 0;
#X connect 14 5 12 0;
#X connect 15 0 26 0;
#X connect 15 1 5 0;
#X connect 15 2 39 0;
#X connect 17 0 53 0;
#X connect 17 1 53 1;
#X connect 19 0 18 0;
#X connect 20 0 21 0;
#X connect 21 0 44 0;
#X connect 21 1 38 0;
#X connect 23 0 19 0;
#X connect 24 0 25 0;
#X connect 24 1 50 0;
#X connect 25 0 22 0;
#X connect 26 0 28 0;
#X connect 26 1 13 0;
#X connect 26 2 11 0;
#X connect 27 0 15 0;
#X connect 28 0 0 0;
#X connect 29 0 33 1;
#X connect 30 0 41 0;
#X connect 31 0 40 0;
#X connect 33 0 42 0;
#X connect 34 0 17 0;
#X connect 35 0 27 0;
#X connect 36 0 0 0;
#X connect 37 0 16 0;
#X connect 38 0 49 1;
#X connect 39 0 47 0;
#X connect 40 0 30 1;
#X connect 40 0 29 0;
#X connect 41 0 0 0;
#X connect 42 0 0 0;
#X connect 43 0 51 0;
#X connect 44 0 49 0;
#X connect 45 0 33 0;
#X connect 46 0 30 0;
#X connect 47 0 37 0;
#X connect 48 0 52 0;
#X connect 48 1 64 0;
#X connect 49 0 24 0;
#X connect 50 0 22 0;
#X connect 51 0 52 1;
#X connect 51 1 64 1;
#X connect 52 0 20 0;
#X connect 53 0 48 0;
#X connect 53 1 43 0;
#X connect 54 0 55 0;
#X connect 55 0 56 0;
#X connect 56 1 78 0;
#X connect 57 0 62 0;
#X connect 57 1 61 0;
#X connect 59 0 60 0;
#X connect 59 1 71 0;
#X connect 60 0 58 0;
#X connect 61 0 66 3;
#X connect 62 0 65 0;
#X connect 63 0 57 0;
#X connect 64 0 63 0;
#X connect 65 0 66 0;
#X connect 65 1 66 2;
#X connect 66 0 67 0;
#X connect 67 1 76 0;
#X connect 69 0 70 0;
#X connect 69 1 72 0;
#X connect 70 0 68 0;
#X connect 71 0 58 0;
#X connect 72 0 68 0;
#X connect 73 0 66 1;
#X connect 74 0 66 1;
#X connect 75 0 66 1;
#X connect 76 0 69 0;
#X connect 76 1 59 0;
#X connect 77 0 73 0;
#X connect 77 1 74 0;
#X connect 78 0 75 0;
#X connect 78 1 77 0;
#X connect 79 0 54 0;
