#N canvas 56 50 1436 824 10;
#X text 94 44 Sampler Manager;
#X obj 379 410 throw~ outL;
#X obj 367 434 throw~ outR;
#X obj 368 344 catch~ samp_voice_out;
#X obj 367 381 *~ 1;
#X obj 104 400 s midiOutGate;
#X obj 104 320 loadbang;
#X obj 104 346 delay 20;
#X msg 104 372 0;
#X obj 212 244 sampler-voice 16.wav 15;
#X obj 1219 600 i;
#X obj 1219 501 * 100;
#X obj 651 576 + 1;
#X obj 650 603 i;
#X obj 746 668 s num-sixteenths;
#X obj 651 667 change -1;
#X obj 755 16 r aux;
#X obj 755 83 sel 1;
#X msg 644 113 0;
#X text 871 13 loop samples \, 1 per key \, at a specified multiple
of beat. leads to interesting polyrythms.;
#X obj 65 563 s are-you-playing;
#X obj 229 533 r i-am-playing;
#X text 127 488 check every quater note how many sounding;
#X msg 191 535 0;
#X obj 228 608 + 1;
#X obj 166 647 i, f 4;
#X obj 228 580 i 0;
#X obj 42 525 t b b b;
#X obj 42 501 metro 300;
#X obj 42 478 loadbang;
#X obj 895 481 bng 15 250 50 0 empty empty empty 17 7 0 10 -262144
-1 -1;
#X obj 790 443 unpack 0 0;
#X obj 790 465 + 1;
#X obj 790 487 pack 0 0;
#X obj 923 449 loadbang;
#X obj 923 471 del 20;
#X obj 790 417 r ppb-tracker;
#X obj 166 692 s pb2-voice-sum;
#X obj 1276 521 bang;
#X obj 166 669 + 1;
#X text 804 39 aux tap pauses/plays the jam;
#X text 801 59 aux hold kills the jam;
#N canvas 669 72 450 300 press-n-hold 0;
#X obj 135 147 f;
#X obj 135 94 sel 1;
#X obj 120 54 t f f;
#X obj 135 173 sel 1;
#X obj 135 119 del 500;
#X obj 108 7 inlet;
#X obj 131 225 outlet;
#X text 184 17 aux button in;
#X text 200 213 bang if held for 1/2 second;
#X connect 0 0 3 0;
#X connect 1 0 4 0;
#X connect 2 0 1 0;
#X connect 2 1 0 1;
#X connect 3 0 6 0;
#X connect 4 0 0 0;
#X connect 5 0 2 0;
#X restore 621 64 pd press-n-hold;
#X obj 621 143 s cancel;
#X obj 755 327 s pause;
#X obj 755 286 tgl 15 0 empty empty empty 17 7 0 10 -262144 -1 -1 0
1;
#X obj 621 89 t b b b;
#X obj 786 217 t b b, f 9;
#X msg 786 239 1;
#X msg 850 239 0;
#X msg 885 165 1;
#X obj 786 195 spigot 1;
#X obj 895 83 r notes;
#X obj 895 105 stripnote;
#X obj 800 306 sel 0;
#X obj 780 121 r pb2-voice-sum;
#X obj 780 143 - 1;
#X obj 741 164 spigot;
#N canvas 8 50 1083 614 metronome 0;
#X obj 289 49 inlet;
#X obj 180 190 master-metronome;
#X obj 289 79 * 250;
#X obj 289 105 + 10;
#X obj 269 381 i;
#X obj 269 403 change -1;
#X obj 180 464 i;
#X obj 180 486 change -1;
#X obj 362 279 i;
#X obj 362 301 change -1;
#X obj 180 142 loadbang;
#X msg 180 165 1;
#X msg 214 166 0;
#X msg 180 510 \; screenLine3 4: Tempo \$1 BPM MIDI \;;
#X msg 269 427 \; screenLine3 4: Tempo \$1 BPM \;;
#X msg 362 326 \; screenLine3 4: Tempo \$1 BPM LINK \;;
#X connect 0 0 2 0;
#X connect 1 0 6 0;
#X connect 1 1 4 0;
#X connect 1 2 8 0;
#X connect 2 0 3 0;
#X connect 3 0 1 1;
#X connect 4 0 5 0;
#X connect 5 0 14 0;
#X connect 6 0 7 0;
#X connect 7 0 13 0;
#X connect 8 0 9 0;
#X connect 9 0 15 0;
#X connect 10 0 11 0;
#X connect 11 0 1 0;
#X connect 12 0 1 0;
#X restore 512 577 pd metronome;
#N canvas 6 50 1279 803 led-flasher 0;
#X obj 435 235 r quarters;
#X obj 475 261 r reset-metronome;
#X msg 435 615 \; led 0;
#X obj 435 346 sel 0 1 2 3, f 21;
#X text 530 297 flash led on quarter and half notes;
#X obj 516 318 s halfnotes;
#X obj 435 292 counter-up 4;
#X obj 435 468 t b b;
#X obj 526 407 r pause;
#X obj 467 495 spigot;
#X obj 519 497 spigot;
#X obj 511 462 ==;
#X msg 519 536 \; led 3;
#X msg 467 534 \; led 1;
#X obj 435 590 delay 180;
#X connect 0 0 6 0;
#X connect 1 0 6 1;
#X connect 3 0 7 0;
#X connect 6 0 3 0;
#X connect 6 1 5 0;
#X connect 7 0 14 0;
#X connect 7 1 9 0;
#X connect 7 1 10 0;
#X connect 8 0 11 0;
#X connect 8 0 10 1;
#X connect 9 0 13 0;
#X connect 10 0 12 0;
#X connect 11 0 9 1;
#X connect 14 0 2 0;
#X restore 496 475 pd led-flasher;
#X obj 1054 541 * 100;
#X obj 1054 563 int;
#X obj 651 555 * 31;
#X obj 1276 499 change -1;
#X obj 790 514 cg-print-kb-vel 47;
#X msg 1276 543 100;
#X obj 418 246 sampler-voice 24.wav 23;
#X obj 418 222 sampler-voice 23.wav 22;
#X obj 39 78 sampler-voice 1.wav 0;
#X obj 39 196 sampler-voice 6.wav 5;
#X obj 39 149 sampler-voice 4.wav 3;
#X obj 39 102 sampler-voice 2.wav 1;
#X obj 39 125 sampler-voice 3.wav 2;
#X obj 39 173 sampler-voice 5.wav 4;
#X obj 39 219 sampler-voice 7.wav 6;
#X obj 38 242 sampler-voice 8.wav 7;
#X obj 216 80 sampler-voice 9.wav 8;
#X obj 215 102 sampler-voice 10.wav 9;
#X obj 215 125 sampler-voice 11.wav 10;
#X obj 214 148 sampler-voice 12.wav 11;
#X obj 214 171 sampler-voice 13.wav 12;
#X obj 213 195 sampler-voice 14.wav 13;
#X obj 212 220 sampler-voice 15.wav 14;
#X obj 420 78 sampler-voice 17.wav 16;
#X obj 419 102 sampler-voice 18.wav 17;
#X obj 419 126 sampler-voice 19.wav 18;
#X obj 419 150 sampler-voice 20.wav 19;
#X obj 418 174 sampler-voice 21.wav 20;
#X obj 418 198 sampler-voice 22.wav 21;
#X obj 651 532 r knob1;
#X msg 651 695 \; screenLine1 1: Div \$1 Sixteenths \;;
#X obj 512 553 r knob4;
#X obj 1054 519 r knob2;
#X obj 1220 451 r knob3;
#X obj 1055 633 cg-2items-print 21 2:Vol: Dec:;
#X obj 1136 427 i;
#X obj 1136 328 * 100;
#X obj 1193 348 bang;
#X obj 1136 301 moses 0.95;
#X obj 1193 326 change -1;
#X msg 1193 370 100;
#X obj 1132 209 r knob3;
#X obj 1219 474 moses 0.94;
#X connect 3 0 4 0;
#X connect 4 0 1 0;
#X connect 4 0 2 0;
#X connect 6 0 7 0;
#X connect 7 0 8 0;
#X connect 8 0 5 0;
#X connect 10 0 94 1;
#X connect 11 0 10 0;
#X connect 12 0 13 0;
#X connect 13 0 15 0;
#X connect 13 0 14 0;
#X connect 15 0 90 0;
#X connect 16 0 17 0;
#X connect 16 0 42 0;
#X connect 17 0 57 0;
#X connect 18 0 45 0;
#X connect 21 0 26 0;
#X connect 23 0 26 1;
#X connect 23 0 25 1;
#X connect 24 0 26 1;
#X connect 24 0 25 1;
#X connect 25 0 39 0;
#X connect 26 0 24 0;
#X connect 27 0 25 0;
#X connect 27 1 20 0;
#X connect 27 2 23 0;
#X connect 28 0 27 0;
#X connect 29 0 28 0;
#X connect 30 0 64 1;
#X connect 31 0 32 0;
#X connect 31 1 33 1;
#X connect 32 0 33 0;
#X connect 33 0 64 0;
#X connect 34 0 35 0;
#X connect 35 0 64 1;
#X connect 36 0 31 0;
#X connect 38 0 65 0;
#X connect 39 0 37 0;
#X connect 42 0 46 0;
#X connect 45 0 44 0;
#X connect 45 0 54 0;
#X connect 46 0 43 0;
#X connect 46 1 18 0;
#X connect 47 0 48 0;
#X connect 47 1 49 0;
#X connect 48 0 45 0;
#X connect 49 0 51 1;
#X connect 50 0 51 1;
#X connect 51 0 47 0;
#X connect 52 0 53 0;
#X connect 53 0 51 0;
#X connect 54 0 50 0;
#X connect 55 0 56 0;
#X connect 56 0 57 1;
#X connect 57 0 45 0;
#X connect 60 0 61 0;
#X connect 61 0 94 0;
#X connect 62 0 12 0;
#X connect 63 0 38 0;
#X connect 65 0 10 0;
#X connect 89 0 62 0;
#X connect 91 0 58 0;
#X connect 92 0 60 0;
#X connect 93 0 102 0;
#X connect 96 0 95 0;
#X connect 97 0 100 0;
#X connect 98 0 96 0;
#X connect 98 1 99 0;
#X connect 99 0 97 0;
#X connect 100 0 95 0;
#X connect 101 0 98 0;
#X connect 102 0 11 0;
#X connect 102 1 63 0;
