#N canvas 46 50 1507 994 10;
#N canvas 0 50 450 278 (subpatch) 0;
#X array \$1-array 84000 float 2;
#X coords 0 1 84000 -1 335 251 1 0 0;
#X restore 882 260 graph;
#X obj 1238 395 soundfiler;
#X floatatom 1238 426 10 0 0 0 - - -, f 10;
#X floatatom 1238 485 10 0 0 0 - - -, f 10;
#X obj 1238 454 / 44.1;
#X text 1294 454 sample rate / 1000;
#X msg 346 512 0 0;
#X obj 281 712 pack 0 0;
#X obj 187 559 f;
#X obj 173 611 * 44.1;
#X obj 1238 516 s \$1-duration;
#X obj 302 764 tabread4~ \$1-array;
#X obj 336 572 r \$1-duration;
#X obj 241 514 r \$1-duration;
#X obj 1238 197 bng 15 250 50 0 empty empty empty 17 7 0 10 -262144
-1 -1;
#X obj 1238 223 symbol \$1-array;
#X obj 1238 309 list prepend -resize;
#X obj 1238 337 list prepend read;
#X obj 1238 365 list trim;
#X obj 1238 170 loadbang;
#X text 1118 125 construct the read message using the sound file name
(\$1);
#X obj 1238 245 list;
#X obj 1238 276 list prepend \$1;
#X obj 291 -132 r notes;
#X obj 291 -101 stripnote;
#X obj 291 12 sel \$2;
#X obj 291 -14 % 24;
#X obj 304 906 throw~ samp_voice_out;
#X obj 334 647 f;
#X obj 362 617 t b f;
#X obj 291 -40 abs;
#X text 352 20 second argument (key number);
#X text 918 48 loads and plays sound file;
#X text 1021 64 argument 1: soundfile to load;
#X text 1022 85 argument 2: key number to play;
#X obj 291 -79 expr if ($f1 > 59 \, $f1 - 60 \, $f1 - 12);
#X obj 300 397 t b b b;
#X obj 471 762 vline~;
#X obj 466 792 *~;
#X obj 471 669 f 1000;
#X obj 529 576 r \$1-duration;
#X text 1314 484 milliseconds;
#X obj 511 633 *;
#X obj 511 548 *;
#X obj 511 526 t f f;
#X obj 303 838 *~;
#X obj 471 697 pack 0 0;
#X msg 471 726 1 1 \, \$2 \$1 1;
#X obj 511 462 t f f;
#X text 581 483 if knob all the way up \, never decay;
#X text 564 433 do a simple amplitude decay;
#X obj 580 511 expr if($f1 > 0.98 \, 1 \, 0);
#X obj 303 866 hip~ 5;
#X text 366 870 cut DC;
#X obj 529 601 * 2;
#X obj 177 15 r sixteenths;
#X obj 294 127 tgl 15 0 empty empty empty 17 7 0 10 -262144 -1 -1 0
1;
#X obj 193 214 spigot;
#X obj 221 318 counter-up 16;
#X obj 276 216 sel 1;
#X obj 280 188 t f f;
#X obj 255 246 t b b;
#X obj 322 248 r num-sixteenths;
#X obj 306 278 i;
#X obj 305 364 bng 15 250 50 0 empty empty empty 17 7 0 10 -262144
-1 -1;
#X obj 332 51 r cancel;
#X msg 332 87 0;
#X obj 125 210 sel 1;
#X obj 101 291 s start-metro;
#X obj 273 154 t f f;
#X text 362 131 loop the sound the presc;
#X text 576 -79 allow all midi notes to trigger;
#X obj 355 185 i;
#X obj 408 214 sel 1;
#X obj 470 251 s i-am-playing;
#X obj 391 152 r are-you-playing;
#X text 467 391 scale playback speed;
#X obj 419 402 / 100;
#X obj 419 424 mtof;
#X obj 419 446 / 8.1785;
#X obj 419 377 * 2400;
#X obj 403 485 / 2;
#X obj 334 686 / 1;
#X obj 122 437 f \$2;
#X obj 89 493 makenote 100 200;
#X obj 110 462 + 60;
#X obj 73 548 noteout 1;
#X obj 621 611 vline~;
#X msg 661 565 \$1 20;
#X obj 610 643 *~;
#X obj 304 787 *~, f 6;
#X obj 569 312 loadbang;
#X msg 569 334 0.5;
#X obj 745 357 f;
#X obj 565 204 s ppb-tracker;
#X obj 565 177 list prepend \$2;
#X obj 211 53 r pause;
#X obj 190 146 spigot;
#X msg 600 728 1 \$1;
#X obj 600 750 /;
#X obj 600 772 rmstodb;
#X obj 600 794 / 100;
#X obj 600 707 r pb2-voice-sum;
#X obj 600 816 lop~ 100;
#X obj 302 816 *~;
#X obj 301 737 vline~;
#X obj 119 523 r midiCh;
#X obj 745 383 sqrt;
#X obj 511 431 r knob3;
#X obj 763 276 r knob2;
#X text 747 260 volume;
#X connect 1 0 2 0;
#X connect 2 0 4 0;
#X connect 3 0 10 0;
#X connect 4 0 3 0;
#X connect 6 0 105 0;
#X connect 7 0 105 0;
#X connect 8 0 9 0;
#X connect 9 0 7 0;
#X connect 11 0 90 0;
#X connect 12 0 28 0;
#X connect 13 0 8 1;
#X connect 14 0 15 0;
#X connect 15 0 21 0;
#X connect 16 0 17 0;
#X connect 17 0 18 0;
#X connect 18 0 1 0;
#X connect 19 0 14 0;
#X connect 21 0 22 0;
#X connect 22 0 16 0;
#X connect 23 0 24 0;
#X connect 24 0 35 0;
#X connect 25 0 56 0;
#X connect 25 0 93 0;
#X connect 26 0 25 0;
#X connect 28 0 82 0;
#X connect 29 0 28 0;
#X connect 29 1 82 1;
#X connect 30 0 26 0;
#X connect 35 0 30 0;
#X connect 36 0 8 0;
#X connect 36 1 6 0;
#X connect 36 2 39 0;
#X connect 37 0 38 1;
#X connect 37 0 38 0;
#X connect 38 0 45 1;
#X connect 39 0 46 0;
#X connect 40 0 54 0;
#X connect 42 0 39 1;
#X connect 43 0 42 0;
#X connect 44 0 43 0;
#X connect 44 1 43 1;
#X connect 45 0 52 0;
#X connect 46 0 47 0;
#X connect 47 0 37 0;
#X connect 48 0 44 0;
#X connect 48 1 51 0;
#X connect 51 0 46 1;
#X connect 52 0 27 0;
#X connect 54 0 42 1;
#X connect 55 0 97 0;
#X connect 56 0 69 0;
#X connect 56 0 72 1;
#X connect 56 0 95 0;
#X connect 57 0 58 0;
#X connect 58 1 64 0;
#X connect 59 0 61 0;
#X connect 60 0 57 1;
#X connect 60 1 59 0;
#X connect 61 0 58 1;
#X connect 61 1 63 0;
#X connect 62 0 63 1;
#X connect 63 0 58 2;
#X connect 64 0 36 0;
#X connect 64 0 83 0;
#X connect 65 0 66 0;
#X connect 66 0 56 0;
#X connect 67 0 68 0;
#X connect 69 0 67 0;
#X connect 69 1 60 0;
#X connect 72 0 73 0;
#X connect 73 0 74 0;
#X connect 75 0 72 0;
#X connect 77 0 78 0;
#X connect 78 0 79 0;
#X connect 79 0 81 0;
#X connect 80 0 77 0;
#X connect 81 0 29 0;
#X connect 82 0 7 1;
#X connect 83 0 85 0;
#X connect 84 0 86 0;
#X connect 84 1 86 1;
#X connect 85 0 84 0;
#X connect 87 0 89 1;
#X connect 87 0 89 0;
#X connect 88 0 87 0;
#X connect 89 0 90 1;
#X connect 90 0 104 0;
#X connect 91 0 92 0;
#X connect 92 0 80 0;
#X connect 93 0 107 0;
#X connect 95 0 94 0;
#X connect 96 0 97 1;
#X connect 97 0 57 0;
#X connect 98 0 99 0;
#X connect 99 0 100 0;
#X connect 100 0 101 0;
#X connect 101 0 103 0;
#X connect 102 0 98 0;
#X connect 103 0 104 1;
#X connect 104 0 45 0;
#X connect 105 0 11 0;
#X connect 106 0 86 2;
#X connect 107 0 88 0;
#X connect 108 0 48 0;
#X connect 109 0 93 1;
