#N canvas 834 371 685 553 10;
#X obj 307 211 sel \$1;
#X obj 214 86 r knob\$2;
#X obj 214 298 spigot 0;
#X msg 307 264 1;
#X obj 307 172 t f b;
#X msg 267 230 0;
#X obj 307 147 r knob-page-sel;
#X obj 267 115 r disable-all-in;
#X obj 307 236 t b b;
#X obj 339 264 v p\$1k\$2;
#X obj 282 330 s p\$1k\$2;
#X obj 214 330 v p\$1k\$2;
#X connect 0 0 8 0;
#X connect 1 0 2 0;
#X connect 2 0 11 0;
#X connect 2 0 10 0;
#X connect 3 0 2 1;
#X connect 4 0 0 0;
#X connect 4 1 5 0;
#X connect 5 0 2 1;
#X connect 6 0 4 0;
#X connect 7 0 5 0;
#X connect 8 0 3 0;
#X connect 8 1 9 0;
#X connect 9 0 10 0;
