#N canvas 45 50 1204 882 10;
#X obj 453 349 tgl 15 0 empty empty empty 17 7 0 10 -262144 -1 -1 0
1;
#N canvas 382 50 1126 994 seqplayer 0;
#X obj 115 701 delay;
#X obj 180 442 tgl 15 0 empty empty empty 17 7 0 10 -262144 -1 -1 1
1;
#X msg 179 393 1;
#X obj 283 584 ==;
#X obj 252 520 t b f;
#X obj 116 672 spigot 0;
#X obj 137 -9 stripnote;
#X obj 130 191 spigot;
#X obj 39 128 tgl 15 0 empty empty empty 17 7 0 10 -262144 -1 -1 1
1;
#X obj 236 488 counter-up 16;
#X obj 283 562 == 15;
#X obj 413 801 + 60;
#X obj 413 857 pack 0 100;
#X obj 137 -63 inlet;
#X obj 39 73 inlet;
#X obj 341 74 inlet;
#X obj 365 418 - 1;
#X obj 413 878 outlet;
#X obj 680 73 inlet;
#X text 36 39 enable;
#X text 189 -61 note;
#X text 328 47 length;
#X text 689 41 speed;
#X obj 255 15 unpack;
#X obj 299 181 tgl 15 0 empty empty empty 17 7 0 10 -262144 -1 -1 1
1;
#X obj 299 214 ==;
#X obj 283 610 spigot 1, f 16;
#X obj 237 715 tgl 15 0 empty empty empty 17 7 0 10 -262144 -1 -1 1
1;
#N canvas 1232 509 450 297 switch 0;
#X obj 145 49 inlet;
#X obj 147 184 outlet;
#X obj 266 178 outlet;
#X obj 320 50 inlet;
#X obj 281 84 ==;
#X obj 150 128 spigot 1;
#X obj 258 124 spigot 0;
#X obj 230 49 inlet;
#X connect 0 0 5 0;
#X connect 3 0 4 0;
#X connect 3 0 6 1;
#X connect 4 0 5 1;
#X connect 5 0 1 0;
#X connect 6 0 2 0;
#X connect 7 0 6 0;
#X restore 149 289 pd switch;
#N canvas 233 116 450 297 switch 0;
#X obj 145 49 inlet;
#X obj 147 184 outlet;
#X obj 266 178 outlet;
#X obj 320 50 inlet;
#X obj 249 81 ==;
#X obj 150 128 spigot 1;
#X obj 258 124 spigot 0;
#X connect 0 0 5 0;
#X connect 0 0 6 0;
#X connect 3 0 4 0;
#X connect 3 0 6 1;
#X connect 4 0 5 1;
#X connect 5 0 1 0;
#X connect 6 0 2 0;
#X restore 67 553 pd switch;
#X obj 164 359 t b b b f b;
#X obj 224 309 t f b;
#X msg 120 511 0;
#X msg 157 513 1;
#X obj 206 331 f;
#X obj 143 257 t a a;
#X obj 204 134 f;
#X obj 274 78 sel 0;
#X obj 303 100 bang;
#X msg 304 123 1;
#X obj 137 -40 t a a;
#X obj 260 44 swap;
#X obj 259 128 f;
#X obj 229 105 t b b;
#X obj 227 158 ==;
#X obj 225 182 sel 1;
#X msg 225 204 0;
#X obj 413 826 - 60;
#X obj 367 736 moses 1;
#X text 440 757 filter out notes that are 0;
#X obj 367 654 t f f, f 14;
#X obj 192 231 r \$0-is-playing;
#X obj 480 707 tabread \$0-seqvel;
#X obj 367 708 tabread \$0-seq;
#X obj 236 459 b;
#X obj 237 750 s \$0-is-playing;
#X obj 681 211 max 10;
#X connect 0 0 29 0;
#X connect 1 0 5 1;
#X connect 1 0 27 0;
#X connect 2 0 1 0;
#X connect 3 0 26 0;
#X connect 4 0 5 0;
#X connect 4 1 10 0;
#X connect 4 1 50 0;
#X connect 5 0 0 0;
#X connect 6 0 7 0;
#X connect 6 0 36 1;
#X connect 7 0 35 0;
#X connect 8 0 7 1;
#X connect 9 0 4 0;
#X connect 10 0 3 0;
#X connect 11 0 47 0;
#X connect 12 0 17 0;
#X connect 13 0 40 0;
#X connect 14 0 8 0;
#X connect 15 0 9 2;
#X connect 15 0 16 0;
#X connect 16 0 10 1;
#X connect 18 0 56 0;
#X connect 23 0 41 0;
#X connect 23 1 41 1;
#X connect 24 0 25 0;
#X connect 25 0 26 1;
#X connect 26 0 5 1;
#X connect 26 0 27 0;
#X connect 27 0 55 0;
#X connect 28 0 30 0;
#X connect 28 1 31 0;
#X connect 29 0 54 0;
#X connect 29 1 34 0;
#X connect 30 0 54 0;
#X connect 30 1 2 0;
#X connect 30 2 9 1;
#X connect 30 3 11 1;
#X connect 30 4 32 0;
#X connect 31 0 34 1;
#X connect 31 1 33 0;
#X connect 32 0 29 1;
#X connect 33 0 29 1;
#X connect 34 0 30 0;
#X connect 35 0 28 0;
#X connect 35 1 28 1;
#X connect 36 0 44 0;
#X connect 37 0 43 0;
#X connect 37 1 38 0;
#X connect 38 0 39 0;
#X connect 39 0 24 0;
#X connect 40 0 6 0;
#X connect 40 1 23 0;
#X connect 41 0 37 0;
#X connect 41 1 42 1;
#X connect 42 0 44 1;
#X connect 43 0 36 0;
#X connect 43 1 42 0;
#X connect 44 0 45 0;
#X connect 45 0 46 0;
#X connect 46 0 24 0;
#X connect 47 0 12 0;
#X connect 48 1 11 0;
#X connect 50 0 53 0;
#X connect 50 1 52 0;
#X connect 51 0 28 2;
#X connect 52 0 12 1;
#X connect 53 0 48 0;
#X connect 54 0 9 0;
#X connect 56 0 0 1;
#X restore 117 427 pd seqplayer;
#X obj 25 318 tgl 15 0 empty empty empty 17 7 0 10 -262144 -1 -1 1
1;
#N canvas 435 386 1208 658 states 0;
#X obj 209 279 f;
#X obj 209 226 sel 1;
#X obj 131 242 sel 1;
#X obj 209 186 t f f, f 12;
#X obj 209 305 sel 1;
#X text 537 82 Controls LED & Screen Infomation:;
#X obj 209 251 del 500;
#X text 104 4 Controls State With Aux Button;
#X msg 607 216 1;
#X msg 209 339 1;
#X msg 222 450 0;
#X obj 408 69 loadbang;
#X msg 408 91 0;
#X obj 131 415 sel 0 1 2, f 27;
#X text 528 11 states are: 0 = play mode \, 1 = punch in \, 2 = play
w latch, f 70;
#X obj 530 172 sel 0 1 2, f 53;
#X msg 131 458 2;
#X msg 311 465 0;
#X msg 539 220 0;
#X msg 862 227 2;
#X msg 530 301 Aux: Play Mode;
#X msg 714 293 Aux: Punch Mode;
#X msg 894 303 Aux: Play Mode Latch;
#X obj 131 27 r punchy-\$1-aux-in;
#X obj 209 367 s \$0-state;
#X obj 131 301 v \$0-state;
#X obj 402 198 r \$0-state;
#X obj 402 220 v \$0-state;
#X obj 408 121 s \$0-state;
#X obj 530 130 r \$0-state;
#X obj 539 244 s led;
#X obj 608 241 s led;
#X obj 863 252 s led;
#X obj 131 489 s \$0-state;
#X obj 222 490 s \$0-state;
#X obj 309 500 s \$0-state;
#X obj 634 387 s punchy-\$1-knob5-label;
#X obj 131 145 spigot;
#X msg 170 70 0;
#X msg 188 114 1;
#X obj 170 48 r punchy-\$1-disable;
#X obj 188 92 r punchy-\$1-enable;
#X msg 234 149 1 \, bang;
#X connect 0 0 4 0;
#X connect 1 0 6 0;
#X connect 2 0 25 0;
#X connect 3 0 1 0;
#X connect 3 1 0 1;
#X connect 4 0 9 0;
#X connect 6 0 0 0;
#X connect 8 0 31 0;
#X connect 9 0 24 0;
#X connect 10 0 34 0;
#X connect 11 0 12 0;
#X connect 12 0 28 0;
#X connect 13 0 16 0;
#X connect 13 1 10 0;
#X connect 13 2 17 0;
#X connect 15 0 18 0;
#X connect 15 0 20 0;
#X connect 15 1 8 0;
#X connect 15 1 21 0;
#X connect 15 2 19 0;
#X connect 15 2 22 0;
#X connect 16 0 33 0;
#X connect 17 0 35 0;
#X connect 18 0 30 0;
#X connect 19 0 32 0;
#X connect 20 0 36 0;
#X connect 21 0 36 0;
#X connect 22 0 36 0;
#X connect 23 0 37 0;
#X connect 25 0 13 0;
#X connect 26 0 27 0;
#X connect 29 0 15 0;
#X connect 37 0 3 0;
#X connect 37 0 2 0;
#X connect 38 0 37 1;
#X connect 39 0 37 1;
#X connect 40 0 38 0;
#X connect 40 0 42 0;
#X connect 41 0 39 0;
#X connect 41 0 42 0;
#X connect 42 0 25 0;
#X restore 706 44 pd states;
#X msg 453 314 0;
#X msg 489 315 1;
#X msg 25 274 1;
#X msg 71 275 0;
#X obj 453 271 sel 0 1 2;
#X obj 25 241 sel 0 1 2;
#X msg 115 274 1;
#X msg 524 314 0;
#X obj 364 684 loadbang;
#X msg 792 406 32;
#X obj 760 373 t f b;
#X obj 364 720 t b b;
#X msg 364 754 32;
#X obj 557 540 t f b;
#X obj 589 585 f;
#X obj 589 608 == 1;
#X obj 589 632 sel 1;
#X text 630 581 when done recording;
#X obj 117 548 makenote 100 100;
#X text 438 11 states are: 0 = play mode \, 1 = punch in \, 2 = play
w latch, f 70;
#N canvas 39 50 919 857 seqpuncher 0;
#X obj 220 132 tgl 15 0 empty empty empty 17 7 0 10 -262144 -1 -1 0
1;
#X obj 351 334 spigot 0;
#X obj 401 264 t f b;
#X obj 444 566 sel 1;
#X obj 321 169 t f f;
#X obj 321 138 stripnote;
#X obj 444 627 outlet;
#X obj 321 107 inlet;
#X obj 220 103 inlet;
#X text 544 263 writes notes to sequence;
#X text 508 577 bang at end, f 12;
#X obj 654 136 inlet;
#X obj 556 421 - 1;
#X text 647 104 len;
#X obj 631 618 outlet;
#X text 674 593 len, f 4;
#X obj 631 589 + 1;
#X obj 399 480 counter-up 32;
#X obj 444 540 == 31;
#X obj 145 388 * 127;
#X obj 145 465 f;
#X obj 338 443 t b f b;
#X obj 188 778 outlet;
#X obj 188 731 swap;
#X obj 188 753 pack;
#X obj 145 359 f;
#X obj 391 628 + 1;
#X obj 251 547 tabwrite \$0-seq;
#X obj 82 639 tabwrite \$0-seqvel;
#X obj 391 692 s genny-\$1-knob5-label;
#X msg 391 659 Punching \$1;
#X msg 34 520 Note Vel \$1 \;;
#X obj 34 542 s punchy-\$1-velo-label;
#X obj 145 333 r punchy-\$1-velo;
#X obj 145 410 i;
#X connect 0 0 2 0;
#X connect 1 0 21 0;
#X connect 2 0 1 1;
#X connect 2 1 17 1;
#X connect 3 0 6 0;
#X connect 4 0 1 0;
#X connect 5 0 4 0;
#X connect 7 0 5 0;
#X connect 8 0 0 0;
#X connect 11 0 12 0;
#X connect 11 0 17 2;
#X connect 12 0 18 1;
#X connect 16 0 14 0;
#X connect 17 0 16 0;
#X connect 17 0 18 0;
#X connect 17 0 26 0;
#X connect 17 0 27 1;
#X connect 17 0 28 1;
#X connect 18 0 3 0;
#X connect 19 0 34 0;
#X connect 20 0 23 0;
#X connect 20 0 28 0;
#X connect 21 0 20 0;
#X connect 21 1 23 1;
#X connect 21 1 27 0;
#X connect 21 2 17 0;
#X connect 23 0 24 0;
#X connect 23 1 24 1;
#X connect 24 0 22 0;
#X connect 25 0 19 0;
#X connect 26 0 30 0;
#X connect 30 0 29 0;
#X connect 31 0 32 0;
#X connect 33 0 25 0;
#X connect 34 0 31 0;
#X connect 34 0 20 1;
#X restore 453 396 pd seqpuncher;
#X text 500 471 seq saving and recalling;
#X text 763 85 up to 32 notes long \, len is stashed as last entry
;
#X text 697 325 stash length as last entry;
#X obj 283 308 expr 1000/($f1/60);
#X obj 117 516 unpack, f 8;
#X obj 117 573 pack, f 16;
#X obj 117 605 s punchy-\$1-notes-out;
#X obj 283 254 r master-bpm;
#X obj 171 367 r \$0-len;
#X obj 118 829 s led;
#X msg 118 806 0;
#X obj 86 752 sel 0 1, f 16;
#X obj 86 774 t b b;
#X obj 86 726 tgl 15 0 empty empty empty 17 7 0 10 -262144 -1 -1 1
1;
#X obj 136 697 r mseq-\$1-kill-switch;
#X obj 86 675 r punchy-\$1-switch;
#X obj 140 779 s punchy-\$1-enable;
#X obj 86 852 s punchy-\$1-disable;
#X obj 144 11 spigot;
#X msg 247 -43 0;
#X msg 283 -19 1;
#N canvas 757 99 886 799 latch 0;
#X obj 43 421 latch-notes;
#X obj 263 252 tgl 15 0 empty empty empty 17 7 0 10 -262144 -1 -1 0
1;
#X obj 123 368 spigot 1;
#X obj 43 368 spigot 0;
#X obj 263 278 == 0;
#X obj 263 368 sel 0 1;
#X obj 263 134 inlet;
#X obj 43 626 outlet;
#X obj 43 106 inlet;
#X text 44 53 incoming notes get sent through latch if enabled \, or
directly to output if disabled;
#X text 323 367 Update Screen & LED;
#X msg 289 534 \; led 2;
#X msg 298 408 \; led 0;
#X msg 286 458 Aux: Latch OFF \;;
#X msg 263 579 Aux: Latch ON \;;
#X obj 448 672 s genny-\$1-knob5-label, f 16;
#X text 311 135 1-0 enable / disables latch;
#X obj 263 160 t f b, f 7;
#X obj 309 314 b;
#X connect 0 0 7 0;
#X connect 1 0 4 0;
#X connect 1 0 3 1;
#X connect 2 0 7 0;
#X connect 3 0 0 0;
#X connect 4 0 2 1;
#X connect 4 0 5 0;
#X connect 5 0 14 0;
#X connect 5 0 11 0;
#X connect 5 1 13 0;
#X connect 5 1 12 0;
#X connect 6 0 17 0;
#X connect 8 0 3 0;
#X connect 8 0 2 0;
#X connect 13 0 15 0;
#X connect 14 0 15 0;
#X connect 17 0 1 0;
#X connect 17 1 18 0;
#X connect 18 0 0 1;
#X restore 144 313 pd latch;
#X obj 144 -89 r punchy-\$1-notes-in;
#X obj 283 -41 r punchy-\$1-enable;
#X msg 243 190 0;
#X obj 197 156 sel 0 1 2;
#X msg 287 189 1;
#X msg 197 189 0;
#X obj 197 230 tgl 15 0 empty empty empty 17 7 0 10 -262144 -1 -1 0
1;
#X obj 197 134 r \$0-state;
#X obj 25 219 r \$0-state;
#X obj 461 424 s \$0-state;
#X obj 541 425 s \$0-len;
#X obj 497 344 r \$0-notes;
#X obj 58 159 s \$0-notes;
#X obj 453 240 r \$0-state;
#X obj 760 347 r \$0-len;
#X obj 557 512 r \$0-state;
#X obj 493 755 f \$0;
#X obj 364 781 tabread \$0-seq;
#X obj 589 654 f \$0;
#X obj 364 808 s \$0-len;
#X msg 493 798 \; \$1-seq read punchy-seq.txt \;;
#X msg 459 834 \; \$1-seqvel read punchy-seqvel.txt \;;
#X msg 589 719 \; \$1-seqvel write /tmp/state/punchy-seqvel.txt \;
;
#X msg 627 680 \; \$1-seq write /tmp/state/punchy-seq.txt \;;
#X obj 820 131 table \$0-seq 33;
#X obj 812 177 table \$0-seqvel 33;
#X obj 760 456 tabwrite \$0-seq;
#X obj 226 454 r punchy-\$1-length;
#X obj 247 -65 r punchy-\$1-disable;
#X obj 226 498 + 1;
#X obj 226 476 * 999;
#X obj 226 520 i;
#X obj 260 570 s punchy-\$1-length-label;
#X msg 260 548 Length \$1 ms;
#X obj 394 274 t b a;
#X obj 396 64 r punchy-\$1-beat;
#X obj 283 358 * 4;
#X obj 396 133 i;
#X obj 396 155 * 0.25;
#X obj 396 108 + 1;
#X obj 283 330 / 4;
#X obj 396 86 * 8;
#X obj 445 184 s punchy-\$1-beat-label;
#X msg 479 152 Beat Div. \$1x;
#X obj 186 76 bag;
#X obj 186 98 pack 0 0;
#X msg 186 49 flush;
#X connect 0 0 24 0;
#X connect 1 0 29 0;
#X connect 2 0 1 0;
#X connect 4 0 0 0;
#X connect 5 0 0 0;
#X connect 6 0 2 0;
#X connect 7 0 2 0;
#X connect 8 0 4 0;
#X connect 8 1 5 0;
#X connect 8 2 11 0;
#X connect 9 0 6 0;
#X connect 9 1 7 0;
#X connect 9 2 10 0;
#X connect 10 0 2 0;
#X connect 11 0 0 0;
#X connect 12 0 15 0;
#X connect 13 0 73 1;
#X connect 14 0 73 0;
#X connect 14 1 13 0;
#X connect 15 0 16 0;
#X connect 15 1 63 0;
#X connect 16 0 64 0;
#X connect 17 0 18 1;
#X connect 17 1 18 0;
#X connect 18 0 19 0;
#X connect 19 0 20 0;
#X connect 20 0 65 0;
#X connect 22 0 30 0;
#X connect 22 1 30 1;
#X connect 24 0 29 0;
#X connect 24 1 56 0;
#X connect 24 2 57 0;
#X connect 28 0 87 0;
#X connect 29 0 22 0;
#X connect 29 1 22 1;
#X connect 30 0 31 0;
#X connect 32 0 28 0;
#X connect 33 0 1 2;
#X connect 35 0 34 0;
#X connect 36 0 37 0;
#X connect 36 1 41 0;
#X connect 37 0 42 0;
#X connect 37 1 35 0;
#X connect 38 0 36 0;
#X connect 39 0 38 0;
#X connect 40 0 38 0;
#X connect 43 0 46 0;
#X connect 43 0 59 0;
#X connect 43 0 91 0;
#X connect 44 0 43 1;
#X connect 45 0 43 1;
#X connect 46 0 1 1;
#X connect 47 0 43 0;
#X connect 48 0 45 0;
#X connect 48 0 93 0;
#X connect 49 0 53 0;
#X connect 50 0 52 0;
#X connect 50 1 49 0;
#X connect 50 2 51 0;
#X connect 51 0 53 0;
#X connect 52 0 53 0;
#X connect 53 0 46 1;
#X connect 54 0 50 0;
#X connect 55 0 9 0;
#X connect 58 0 24 1;
#X connect 60 0 8 0;
#X connect 61 0 14 0;
#X connect 62 0 17 0;
#X connect 63 0 67 0;
#X connect 63 0 68 0;
#X connect 64 0 66 0;
#X connect 65 0 70 0;
#X connect 65 0 69 0;
#X connect 74 0 77 0;
#X connect 75 0 44 0;
#X connect 75 0 93 0;
#X connect 76 0 78 0;
#X connect 77 0 76 0;
#X connect 78 0 22 2;
#X connect 78 0 80 0;
#X connect 80 0 79 0;
#X connect 81 0 28 0;
#X connect 81 1 83 1;
#X connect 82 0 88 0;
#X connect 83 0 1 3;
#X connect 84 0 85 0;
#X connect 85 0 81 0;
#X connect 85 0 90 0;
#X connect 86 0 84 0;
#X connect 87 0 83 0;
#X connect 88 0 86 0;
#X connect 90 0 89 0;
#X connect 91 0 92 0;
#X connect 92 0 46 0;
#X connect 93 0 91 0;
