#N canvas 4 112 639 427 10;
#X obj 70 14 inlet;
#X text 484 250 <--- drop these as receives in the parent patches knobs!
;
#X obj 69 303 s seq3-\$1-p\$2k1;
#X obj 182 281 s seq3-\$1-p\$2k2;
#X obj 314 259 s seq3-\$1-p\$2k3;
#X obj 406 231 s seq3-\$1-p\$2k4;
#X obj 70 128 route p\$2k1 p\$2k2 p\$2k3 p\$2k4, f 64;
#X text 376 37 arg 1: seq3 number;
#X text 376 70 arg2: page number;
#X connect 0 0 6 0;
#X connect 6 0 2 0;
#X connect 6 1 3 0;
#X connect 6 2 4 0;
#X connect 6 3 5 0;
