#N canvas 440 81 1170 457 10;
#X declare -path patchmenu-kein-detent;
#X declare -path CG-Pd-Library-Local/sequencer;
#X declare -path CG-Pd-Library-Local/externals;
#X declare -path CG-Pd-Library-Local/metronome;
#X declare -path /sdcard/CG-Pd-Library/sequencer;
#X declare -path /sdcard/CG-Pd-Library/externals;
#X declare -path /sdcard/CG-Pd-Library/metronome;
#X text 94 44 Sampler Manager;
#N canvas 18 50 1279 803 led-flasher 0;
#X obj 435 135 r quarters;
#X obj 475 161 r reset-metronome;
#X obj 435 346 sel 0 1 2 3, f 21;
#X obj 516 218 s halfnotes;
#X obj 435 192 counter-up 4;
#X obj 435 468 t b b;
#X obj 506 409 r pause;
#X obj 467 495 spigot;
#X obj 529 497 spigot;
#X obj 506 464 ==;
#X text 530 197 flash led on begining of measure;
#X obj 435 590 delay 170;
#X obj 640 286 r pb2-voice-sum;
#X obj 640 338 sel 1, f 14;
#X obj 640 360 t b b;
#X msg 640 382 0;
#X obj 640 412 f;
#X msg 734 384 1;
#X obj 640 434 change -1;
#X obj 638 313 change -1;
#X obj 606 643 s led;
#X obj 659 518 r page-ready;
#X obj 659 540 sel 1;
#X msg 659 562 0;
#X obj 691 562 t b;
#X msg 691 584 1;
#X obj 606 618 spigot 0;
#X msg 532 543 3;
#X msg 467 534 1;
#X msg 435 612 0;
#X msg 672 384 0;
#X floatatom 761 576 5 0 0 0 - - -, f 5;
#X connect 0 0 4 0;
#X connect 1 0 4 1;
#X connect 2 0 5 0;
#X connect 4 0 2 0;
#X connect 4 1 3 0;
#X connect 5 0 11 0;
#X connect 5 1 7 0;
#X connect 5 1 8 0;
#X connect 6 0 9 0;
#X connect 6 0 8 1;
#X connect 7 0 28 0;
#X connect 8 0 27 0;
#X connect 9 0 7 1;
#X connect 11 0 29 0;
#X connect 12 0 19 0;
#X connect 13 0 14 0;
#X connect 13 1 17 0;
#X connect 14 0 15 0;
#X connect 14 1 30 0;
#X connect 15 0 16 0;
#X connect 16 0 18 0;
#X connect 17 0 16 0;
#X connect 18 0 8 1;
#X connect 18 0 7 1;
#X connect 19 0 13 0;
#X connect 21 0 22 0;
#X connect 21 0 31 0;
#X connect 22 0 23 0;
#X connect 22 1 24 0;
#X connect 23 0 26 1;
#X connect 24 0 25 0;
#X connect 25 0 26 1;
#X connect 26 0 20 0;
#X connect 27 0 26 0;
#X connect 28 0 26 0;
#X connect 29 0 26 0;
#X connect 30 0 26 0;
#X restore 574 136 pd led-flasher;
#N canvas 323 66 1023 737 aux-control 0;
#X obj 366 266 sel 1;
#X msg 315 374 0;
#N canvas 670 69 450 300 press-n-hold 0;
#X obj 135 147 f;
#X obj 135 94 sel 1;
#X obj 120 54 t f f;
#X obj 135 173 sel 1;
#X obj 135 119 del 500;
#X obj 108 7 inlet;
#X obj 131 225 outlet;
#X text 184 17 aux button in;
#X text 200 213 bang if held for 1/2 second;
#X connect 0 0 3 0;
#X connect 1 0 4 0;
#X connect 2 0 1 0;
#X connect 2 1 0 1;
#X connect 3 0 6 0;
#X connect 4 0 0 0;
#X connect 5 0 2 0;
#X restore 246 323 pd press-n-hold;
#X obj 246 374 s cancel;
#X obj 366 706 s pause;
#X obj 366 635 tgl 15 0 empty empty empty 17 7 0 10 -262144 -1 -1 0
1;
#X obj 494 546 t b b, f 9;
#X msg 494 568 1;
#X msg 619 536 0;
#X msg 619 512 1;
#X obj 494 524 spigot 1;
#X obj 494 458 r notes;
#X obj 494 480 stripnote;
#X obj 522 670 sel 0;
#X obj 399 378 r pb2-voice-sum;
#X obj 399 400 - 1;
#X obj 366 423 spigot;
#X obj 246 348 t b b, f 12;
#X obj 366 86 r aux;
#X obj 366 235 spigot 0;
#X obj 447 283 spigot 0;
#X obj 492 260 ==;
#X obj 366 127 t a a, f 14;
#X obj 557 182 f;
#X msg 628 477 0;
#X obj 494 501 spigot 0, f 11;
#X text 660 476 pause polybeats when recording;
#N canvas 12 50 1738 905 states 0;
#X text 90 68 Controls State With Aux Button;
#X obj 258 87 inlet;
#X obj 258 492 sel 1, f 12;
#X obj 287 344 f, f 10;
#X obj 287 294 sel 1;
#X obj 287 271 t f f, f 11;
#X obj 287 370 sel 1;
#X obj 287 319 del 500;
#X msg 1082 105 stop;
#X msg 1023 104 0;
#X text 1058 106 =;
#X text 1058 136 =;
#X msg 1023 134 1;
#X text 1058 166 =;
#X msg 1023 164 2;
#X msg 287 392 1;
#X msg 1082 135 recenable;
#X msg 1082 165 record;
#X msg 258 660 0;
#X msg 534 599 0;
#X obj 534 642 t f f f;
#X text 370 296 hold for arming record;
#X text 357 521 any state when called should turn off record;
#X text 441 417 arm the recording \, wait for thresh;
#X msg 800 298 2;
#X text 849 298 send out a 2;
#X obj 928 498 sel 0 1 2, f 71;
#X msg 879 553 0;
#X obj 879 575 s led;
#X obj 1069 578 s led;
#X msg 1069 556 6;
#X obj 1333 581 s led;
#X msg 1333 559 1;
#X msg 928 771 \; screenLine5 Hold Aux to Record;
#X obj 1243 642 + 1;
#X msg 1210 576 1;
#X obj 1248 558 t b b;
#X msg 1280 580 0;
#X msg 1248 581 0;
#X obj 1210 613 metro 100;
#X obj 1210 670 * 0.1;
#X msg 1210 703 \; screenLine5 Recording: \$1 secs;
#X obj 1210 528 t b b, f 21;
#X obj 1210 642 f 0;
#X msg 976 657 \; screenLine5 Waiting For Sound;
#X obj 928 454 f;
#X obj 303 44 r page-ready;
#X obj 258 219 spigot 0;
#X msg 303 118 1;
#X msg 420 112 0;
#X obj 303 88 t b b, f 11;
#X text 637 147 rebangs this stuff;
#X obj 303 66 sel 1, f 20;
#X obj 800 321 t f f;
#X obj 553 698 b;
#X obj 258 572 sel 1 2, f 16;
#X obj 928 476 change -1;
#X obj 701 356 del 5;
#X obj 287 417 t f f, f 21;
#X obj 258 683 t f f;
#X obj 592 150 t f f;
#X obj 420 89 t b;
#X obj 783 45 inlet kill;
#X msg 783 66 0;
#X obj 783 86 t f f, f 19;
#X obj 258 517 v segmenti-v;
#X obj 592 202 v segmenti-v;
#X obj 783 141 v segmenti-v;
#X obj 800 366 v segmenti-v;
#X obj 827 346 s segmenti-action;
#X obj 928 386 r segmenti-action;
#X obj 950 422 r segmenti-reprint-line5;
#X obj 534 567 r segmenti-done-recording;
#X obj 410 446 s segmenti-action;
#X obj 287 448 v segmenti-v;
#X obj 619 178 s segmenti-action;
#X obj 884 115 s segmenti-action;
#X obj 258 738 v segmenti-v;
#X obj 534 757 v segmenti-v;
#X obj 573 673 s segmenti-action;
#X obj 285 708 s segmenti-action;
#X obj 800 269 r segmenti-thresh-passed;
#X obj 592 115 v segmenti-v;
#X obj 553 724 s segmenti-print-new;
#X connect 1 0 47 0;
#X connect 2 0 65 0;
#X connect 3 0 6 0;
#X connect 4 0 7 0;
#X connect 5 0 4 0;
#X connect 5 1 3 1;
#X connect 6 0 15 0;
#X connect 7 0 3 0;
#X connect 15 0 58 0;
#X connect 18 0 59 0;
#X connect 19 0 20 0;
#X connect 20 0 78 0;
#X connect 20 1 54 0;
#X connect 20 2 79 0;
#X connect 24 0 53 0;
#X connect 26 0 33 0;
#X connect 26 0 27 0;
#X connect 26 0 36 0;
#X connect 26 1 30 0;
#X connect 26 1 36 0;
#X connect 26 1 44 0;
#X connect 26 2 42 0;
#X connect 27 0 28 0;
#X connect 30 0 29 0;
#X connect 32 0 31 0;
#X connect 34 0 43 1;
#X connect 35 0 39 0;
#X connect 36 0 38 0;
#X connect 36 1 37 0;
#X connect 37 0 43 1;
#X connect 38 0 39 0;
#X connect 39 0 43 0;
#X connect 40 0 41 0;
#X connect 42 0 35 0;
#X connect 42 1 32 0;
#X connect 43 0 34 0;
#X connect 43 0 40 0;
#X connect 45 0 56 0;
#X connect 46 0 52 0;
#X connect 47 0 2 0;
#X connect 47 0 5 0;
#X connect 48 0 47 1;
#X connect 49 0 47 1;
#X connect 50 0 48 0;
#X connect 50 1 57 0;
#X connect 52 0 50 0;
#X connect 52 1 61 0;
#X connect 53 0 68 0;
#X connect 53 1 69 0;
#X connect 54 0 83 0;
#X connect 55 0 18 0;
#X connect 55 1 18 0;
#X connect 56 0 26 0;
#X connect 57 0 33 0;
#X connect 58 0 74 0;
#X connect 58 1 73 0;
#X connect 59 0 77 0;
#X connect 59 1 80 0;
#X connect 60 0 66 0;
#X connect 60 1 75 0;
#X connect 61 0 49 0;
#X connect 62 0 63 0;
#X connect 63 0 64 0;
#X connect 64 0 67 0;
#X connect 64 1 76 0;
#X connect 65 0 55 0;
#X connect 70 0 45 0;
#X connect 71 0 45 0;
#X connect 72 0 19 0;
#X connect 81 0 24 0;
#X connect 82 0 60 0;
#X restore 447 305 pd states;
#X obj 413 86 r fs;
#X obj 628 453 r segmenti-thresh-passed;
#X obj 557 56 r page-ready;
#X obj 626 122 t b;
#X msg 557 140 0;
#X obj 557 96 sel 1, f 12;
#X msg 626 143 1;
#X obj 72 541 r midi-start;
#X obj 165 541 r midi-stop;
#X msg 72 563 1;
#X msg 165 563 0;
#X connect 0 0 16 0;
#X connect 1 0 5 0;
#X connect 2 0 17 0;
#X connect 5 0 4 0;
#X connect 5 0 13 0;
#X connect 6 0 7 0;
#X connect 6 1 8 0;
#X connect 7 0 5 0;
#X connect 8 0 10 1;
#X connect 9 0 10 1;
#X connect 10 0 6 0;
#X connect 11 0 12 0;
#X connect 12 0 25 0;
#X connect 13 0 9 0;
#X connect 14 0 15 0;
#X connect 15 0 16 1;
#X connect 16 0 5 0;
#X connect 17 0 3 0;
#X connect 17 1 1 0;
#X connect 18 0 22 0;
#X connect 19 0 0 0;
#X connect 19 0 2 0;
#X connect 20 0 27 0;
#X connect 21 0 20 1;
#X connect 22 0 19 0;
#X connect 22 1 20 0;
#X connect 23 0 21 0;
#X connect 23 0 19 1;
#X connect 23 0 25 1;
#X connect 24 0 5 0;
#X connect 25 0 10 0;
#X connect 28 0 22 0;
#X connect 29 0 24 0;
#X connect 30 0 33 0;
#X connect 31 0 34 0;
#X connect 32 0 23 0;
#X connect 33 0 32 0;
#X connect 33 1 31 0;
#X connect 34 0 23 0;
#X connect 35 0 37 0;
#X connect 36 0 38 0;
#X connect 37 0 5 0;
#X connect 38 0 5 0;
#X restore 573 107 pd aux-control;
#N canvas 111 159 1179 739 voice-sum 0;
#X obj 392 358 s are-you-playing;
#X obj 580 337 r i-am-playing;
#X text 454 283 check every quater note how many sounding;
#X msg 524 358 0;
#X obj 545 413 + 1;
#X obj 487 442 i, f 4;
#X obj 545 385 i 0;
#X obj 373 320 t b b b, f 16;
#X obj 373 294 metro 300;
#X obj 373 271 loadbang;
#X obj 487 487 s pb2-voice-sum;
#X obj 487 464 + 1;
#X connect 1 0 6 0;
#X connect 3 0 6 1;
#X connect 3 0 5 1;
#X connect 4 0 6 1;
#X connect 4 0 5 1;
#X connect 5 0 11 0;
#X connect 6 0 4 0;
#X connect 7 0 5 0;
#X connect 7 1 0 0;
#X connect 7 2 3 0;
#X connect 8 0 7 0;
#X connect 9 0 8 0;
#X connect 11 0 10 0;
#X restore 576 169 pd voice-sum;
#X obj 335 362 throw~ outR;
#X obj 178 362 throw~ outL;
#X obj 335 328 catch~ segmenti-busR;
#X obj 178 328 catch~ segmenti-busL;
#N canvas 382 71 1287 832 knobs+printing 0;
#X obj 838 384 + 1;
#X obj 870 455 s num-sixteenths;
#X obj 258 364 change -1;
#N canvas 31 50 1162 897 metronome 0;
#X obj 333 -11 inlet;
#X obj 180 122 loadbang;
#X msg 180 145 1;
#X obj 458 42 r page-ready;
#X obj 452 92 sel 2, f 9;
#X msg 452 114 1;
#X obj 536 119 t b;
#X msg 536 141 0;
#X obj 503 176 f;
#X obj 361 584 s screenLine3;
#X msg 197 477 Tempo \$1 BPM;
#X obj 360 560 spigot 1;
#X obj 178 194 metronome360 1, f 26;
#X obj 260 392 t b;
#X msg 260 414 0;
#X msg 228 391 1;
#X obj 227 331 t f f f;
#X obj 228 369 sel 1 4;
#X obj 123 396 t b;
#X msg 123 418 0;
#X msg 91 395 1;
#X obj 69 435 spigot;
#X obj 91 373 sel 3;
#X obj 412 392 t b;
#X msg 412 417 0;
#X msg 380 391 1;
#X obj 341 451 spigot;
#X obj 380 369 sel 2;
#X obj 91 265 s master-clock;
#X obj 383 152 s bpm;
#X obj 340 155 f;
#X obj 333 80 + 20;
#X obj 334 54 * 240;
#X obj 330 329 t b f f f;
#X obj 206 431 spigot 1;
#X obj 251 268 f;
#X obj 452 136 t b b f;
#X floatatom 384 262 5 0 0 0 - - -, f 5;
#X obj 409 450 tgl 15 0 empty empty empty 17 7 0 10 -262144 -1 -1 1
1;
#X msg 342 478 Tempo \$1 BPM MIDI;
#X msg 60 468 Tempo \$1 BPM LINK;
#X connect 0 0 32 0;
#X connect 1 0 2 0;
#X connect 2 0 12 0;
#X connect 3 0 4 0;
#X connect 4 0 5 0;
#X connect 4 1 6 0;
#X connect 5 0 36 0;
#X connect 6 0 7 0;
#X connect 7 0 8 0;
#X connect 8 0 11 1;
#X connect 10 0 11 0;
#X connect 11 0 9 0;
#X connect 12 0 28 0;
#X connect 12 1 35 0;
#X connect 12 2 33 0;
#X connect 12 2 37 0;
#X connect 13 0 14 0;
#X connect 14 0 34 1;
#X connect 15 0 34 1;
#X connect 16 0 34 0;
#X connect 16 1 21 0;
#X connect 16 2 26 0;
#X connect 17 0 15 0;
#X connect 17 1 15 0;
#X connect 17 2 13 0;
#X connect 18 0 19 0;
#X connect 19 0 21 1;
#X connect 20 0 21 1;
#X connect 21 0 40 0;
#X connect 22 0 20 0;
#X connect 22 1 18 0;
#X connect 23 0 24 0;
#X connect 24 0 26 1;
#X connect 24 0 38 0;
#X connect 25 0 26 1;
#X connect 25 0 38 0;
#X connect 26 0 39 0;
#X connect 27 0 25 0;
#X connect 27 1 23 0;
#X connect 30 0 12 1;
#X connect 31 0 29 0;
#X connect 31 0 30 0;
#X connect 32 0 31 0;
#X connect 33 0 35 0;
#X connect 33 1 22 0;
#X connect 33 2 17 0;
#X connect 33 3 27 0;
#X connect 34 0 10 0;
#X connect 35 0 16 0;
#X connect 36 0 35 0;
#X connect 36 2 8 0;
#X connect 39 0 11 0;
#X connect 40 0 11 0;
#X restore 78 303 pd metronome;
#X obj 838 363 * 31;
#X obj 838 431 t f f;
#X obj 258 264 t f f, f 10;
#X obj 325 294 s segpow-vel;
#X obj 258 197 * 126;
#X obj 258 220 + 1;
#X obj 258 242 i;
#X obj 258 286 / 127;
#X obj 258 308 * 100;
#X obj 258 333 i;
#X obj 838 406 i;
#X obj 712 367 bang;
#X obj 645 315 moses 0.95;
#X msg 712 389 100;
#X msg 838 480 \$1/32;
#X obj 645 432 i;
#X msg 645 454 \$1%;
#X obj 664 206 s segpow-length;
#X obj 202 696 bng 15 250 50 0 empty empty empty 17 7 0 10 -262144
-1 -1;
#X obj 97 658 unpack 0 0;
#X obj 97 680 + 1;
#X obj 97 702 pack 0 0;
#X obj 97 422 r ppb-tracker;
#X obj 97 729 cg-print-kb-vel 47;
#X obj 231 686 del 1;
#X obj 485 942 s oscOut;
#X msg 423 856 /oled/gFlip 3, f 11;
#X obj 453 738 t b b b;
#X obj 453 546 r pause;
#X obj 453 568 sel 0 1;
#X msg 516 900 /oled/gPrintln 3 45 54 8 1 PAUSED;
#X msg 509 805 /oled/gFillArea 3 35 54 56 8 0, f 17;
#X obj 476 633 t b b;
#X obj 732 605 r cancel;
#X obj 755 782 s oscOut;
#X msg 664 695 /oled/gFlip 3, f 11;
#X obj 732 650 t b b b;
#X msg 778 687 /oled/gFillArea 3 35 54 64 8 0, f 17;
#X msg 755 733 /oled/gPrintln 3 40 54 8 1 CANCELLED;
#X obj 732 627 del 5;
#X obj 508 661 s segpow-reprint-kb;
#X obj 476 684 s segpow-reprint-voice;
#X obj 251 547 r segpow-reprint-kb;
#X obj 187 445 r page-ready;
#X obj 187 568 sel 2;
#X obj 429 286 sel 0;
#X msg 429 308 set -1;
#X obj 429 263 r page-ready;
#X obj 97 574 spigot 0;
#X obj 216 468 sel 2;
#X msg 216 490 1;
#X obj 248 489 t b;
#X msg 248 511 0;
#X obj 530 541 r page-ready;
#X obj 530 563 sel 2;
#X obj 530 585 del 10;
#X obj 220 633 spigot 0;
#X obj 201 539 f;
#X obj 664 185 i;
#X obj 664 163 + 10;
#X obj 645 342 * 99;
#X obj 645 364 + 1;
#X obj 604 277 change -1;
#X obj 520 172 sel 0;
#X msg 520 194 set -1;
#X obj 520 149 r page-ready;
#X obj 79 125 r p2k4;
#X obj 645 -29 r p2k2;
#X obj 645 556 cg-2items-print 10 Div: Len:;
#X obj 838 340 r p2k1;
#X obj 258 154 r p2k3;
#X msg 280 422 \; screenLine2 Voice Volume: \$1% \;;
#X obj 258 386 max 1;
#X obj 701 7 r bpm;
#X obj 701 37 expr 1000/($f1/60);
#X obj 668 97 *;
#X obj 701 59 t b a;
#X obj 946 143 r p3k1;
#X obj 1002 174 s monitor-level;
#X obj 947 189 i;
#X obj 947 167 * 100;
#X msg 947 211 Monitor Level \$1%;
#X obj 950 233 s p3s1;
#X obj 363 43 r sixteenths;
#X obj 362 65 f;
#X obj 400 66 + 1;
#X obj 362 87 % 32;
#X obj 362 109 s master-count;
#X obj 98 174 r master-clock;
#X obj 98 218 sel 0;
#X obj 98 240 s sixteenths;
#X obj 98 196 % 90;
#X connect 0 0 14 0;
#X connect 2 0 76 0;
#X connect 4 0 0 0;
#X connect 5 0 18 0;
#X connect 5 1 1 0;
#X connect 6 0 11 0;
#X connect 6 1 7 0;
#X connect 8 0 9 0;
#X connect 9 0 10 0;
#X connect 10 0 6 0;
#X connect 11 0 12 0;
#X connect 12 0 13 0;
#X connect 13 0 2 0;
#X connect 14 0 5 0;
#X connect 15 0 17 0;
#X connect 16 0 64 0;
#X connect 16 1 15 0;
#X connect 17 0 19 0;
#X connect 18 0 72 0;
#X connect 19 0 20 0;
#X connect 20 0 72 1;
#X connect 22 0 27 1;
#X connect 23 0 24 0;
#X connect 23 1 25 1;
#X connect 24 0 25 0;
#X connect 25 0 27 0;
#X connect 26 0 52 0;
#X connect 28 0 27 1;
#X connect 30 0 29 0;
#X connect 31 0 30 0;
#X connect 31 1 34 0;
#X connect 31 2 35 0;
#X connect 32 0 33 0;
#X connect 33 0 31 0;
#X connect 33 1 36 0;
#X connect 34 0 29 0;
#X connect 35 0 29 0;
#X connect 36 0 45 0;
#X connect 36 1 44 0;
#X connect 37 0 43 0;
#X connect 39 0 38 0;
#X connect 40 0 39 0;
#X connect 40 1 42 0;
#X connect 40 2 41 0;
#X connect 41 0 38 0;
#X connect 42 0 38 0;
#X connect 43 0 40 0;
#X connect 46 0 60 0;
#X connect 47 0 48 0;
#X connect 47 0 53 0;
#X connect 48 0 28 0;
#X connect 49 0 50 0;
#X connect 50 0 2 0;
#X connect 51 0 49 0;
#X connect 52 0 23 0;
#X connect 53 0 54 0;
#X connect 53 1 55 0;
#X connect 54 0 61 0;
#X connect 55 0 56 0;
#X connect 56 0 61 0;
#X connect 57 0 58 0;
#X connect 58 0 59 0;
#X connect 59 0 36 0;
#X connect 60 0 27 1;
#X connect 61 0 60 1;
#X connect 61 0 52 1;
#X connect 62 0 21 0;
#X connect 63 0 62 0;
#X connect 64 0 65 0;
#X connect 65 0 19 0;
#X connect 66 0 16 0;
#X connect 67 0 68 0;
#X connect 68 0 66 0;
#X connect 69 0 67 0;
#X connect 70 0 3 0;
#X connect 71 0 79 0;
#X connect 71 0 66 0;
#X connect 73 0 4 0;
#X connect 74 0 8 0;
#X connect 76 0 75 0;
#X connect 77 0 78 0;
#X connect 78 0 80 0;
#X connect 79 0 63 0;
#X connect 80 0 79 0;
#X connect 80 1 79 1;
#X connect 81 0 82 0;
#X connect 81 0 84 0;
#X connect 83 0 85 0;
#X connect 84 0 83 0;
#X connect 85 0 86 0;
#X connect 87 0 88 0;
#X connect 88 0 89 0;
#X connect 88 0 90 0;
#X connect 89 0 88 1;
#X connect 90 0 91 0;
#X connect 92 0 95 0;
#X connect 93 0 94 0;
#X connect 95 0 93 0;
#X restore 574 79 pd knobs+printing;
#N canvas 43 50 1253 698 save-arrays 0;
#X obj 450 315 array define segmenti-rec-stereo;
#X obj 450 439 array define segmenti-rec-lengths;
#X obj 485 384 r saveState;
#X msg 485 405 write rec-lengths.txt;
#X obj 488 252 r saveState;
#X msg 488 273 write rec-stereo.txt;
#X msg 450 228 read rec-stereo.txt;
#X msg 450 361 read rec-lengths.txt;
#X obj 450 207 loadbang;
#X obj 450 341 loadbang;
#X obj 40 464 cg-rec-array-2 segmenti 1 1 24000;
#X obj 40 534 s segmenti-thresh-passed;
#X obj 40 421 change -1;
#X obj 8 370 r segmenti-action;
#X obj 8 392 sel 2;
#X obj 40 486 sel 2;
#X obj 163 349 r page-ready;
#X obj 163 371 sel 1;
#X obj 195 404 t b;
#X msg 195 426 0;
#X connect 2 0 3 0;
#X connect 3 0 1 0;
#X connect 4 0 5 0;
#X connect 5 0 0 0;
#X connect 6 0 0 0;
#X connect 7 0 1 0;
#X connect 8 0 6 0;
#X connect 9 0 7 0;
#X connect 10 0 15 0;
#X connect 12 0 10 0;
#X connect 13 0 14 0;
#X connect 14 1 12 0;
#X connect 15 0 11 0;
#X connect 16 0 17 0;
#X connect 17 1 18 0;
#X connect 18 0 19 0;
#X connect 19 0 10 0;
#X restore 576 195 pd save-arrays;
#X obj 904 174 s enableSubMenu;
#X obj 872 72 loadbang;
#X msg 872 174 0;
#X obj 872 151 t b b;
#X obj 872 94 b;
#N canvas 313 50 1479 924 print-waveform 0;
#N canvas 359 130 888 801 display-waveform 0;
#X obj 368 256 / 128;
#X obj 347 314 + 1;
#X obj 310 317 f 0;
#X obj 311 353 i;
#X obj 269 257 until;
#X msg 275 232 128;
#X msg 336 245 0;
#X obj 314 409 * 0.5;
#X obj 314 431 + 0.5;
#X obj 314 460 * 64;
#X obj 314 505 i;
#X obj 261 104 inlet;
#X obj 371 553 t l;
#X obj 230 642 list append;
#X obj 230 667 list trim;
#X obj 274 549 list prepend;
#X text 444 289 step through table at duration / 128;
#X obj 261 171 t b b b f b b, f 26;
#X msg 54 547 sendtyped /oled/gWaveform ib 3;
#X obj 230 689 outlet;
#X obj 261 131 tabread segmenti-rec-lengths;
#X obj 311 387 tabread segmenti1-L;
#X connect 0 0 1 1;
#X connect 1 0 2 1;
#X connect 2 0 1 0;
#X connect 2 0 3 0;
#X connect 3 0 21 0;
#X connect 4 0 2 0;
#X connect 5 0 4 0;
#X connect 6 0 2 1;
#X connect 7 0 8 0;
#X connect 8 0 9 0;
#X connect 9 0 10 0;
#X connect 10 0 15 0;
#X connect 11 0 20 0;
#X connect 12 0 15 1;
#X connect 13 0 14 0;
#X connect 14 0 19 0;
#X connect 15 0 13 1;
#X connect 15 0 12 0;
#X connect 17 0 18 0;
#X connect 17 1 5 0;
#X connect 17 2 6 0;
#X connect 17 3 0 0;
#X connect 17 4 15 0;
#X connect 17 5 15 1;
#X connect 18 0 13 0;
#X connect 20 0 17 0;
#X connect 21 0 7 0;
#X restore 342 397 pd display-waveform;
#X msg 362 372 /oled/gClear 3 1;
#X msg 322 432 /oled/gFlip 3;
#X obj 322 464 s oscOut;
#X obj 427 200 sel 1, f 11;
#X obj 427 222 t b b;
#X msg 459 243 1;
#X obj 501 237 b;
#X msg 501 259 0;
#X obj 322 286 spigot 0, f 15;
#X obj 427 178 r page-ready;
#X msg 673 161 /oled/gClear 3 1;
#X msg 627 241 /oled/gFlip 3;
#X obj 627 273 s oscOut;
#X msg 647 195 /oled/gLine 3 0 32 127 32 1;
#X msg 322 253 1;
#X obj 322 327 t b f b b;
#X obj 322 195 del 20;
#X obj 322 40 r segmenti-done-recording;
#X obj 445 499 sel 1, f 11;
#X obj 445 521 t b b;
#X msg 477 542 1;
#X msg 551 547 0;
#X obj 445 477 r page-ready;
#X obj 519 526 t b b;
#X obj 350 665 f;
#X obj 607 722 f;
#X obj 519 572 s \$0-re-bang;
#N canvas 930 311 973 631 print-inverse 0;
#X obj 117 81 * 128;
#X obj 117 103 i;
#X obj 117 55 inlet;
#X obj 147 165 pack 0 0;
#X obj 200 132 t b a;
#X obj 200 38 * 128;
#X obj 200 12 inlet;
#X obj 200 60 i;
#X obj 164 462 s oscOut;
#X obj 193 297 list;
#X obj 164 429 t a a, f 18;
#X obj 193 319 route list;
#X obj 218 246 loadbang;
#X msg 218 270 0;
#X text 275 447 previous area to invert(erase);
#X text 252 271 erase old session list;
#X msg 57 402 /oled/gFlip 3;
#X obj 147 265 t a b, f 7;
#X obj 132 304 t b a;
#X obj 446 177 r page-ready;
#X obj 446 199 b;
#X msg 164 402 /oled/gInvertArea 3 \$1 10 \$2 43;
#X obj 200 112 max 1;
#X obj 200 82 min 127;
#X obj 232 158 change -1;
#X obj 117 125 change -1;
#X obj 400 62 r segmenti-done-recording;
#X obj 400 145 spigot 0;
#X obj 400 167 t b b;
#X msg 477 145 0;
#X obj 590 56 r segmenti-thresh-passed;
#X msg 590 100 1;
#X connect 0 0 1 0;
#X connect 1 0 25 0;
#X connect 2 0 0 0;
#X connect 3 0 17 0;
#X connect 4 0 3 0;
#X connect 4 1 24 0;
#X connect 5 0 7 0;
#X connect 6 0 5 0;
#X connect 7 0 23 0;
#X connect 9 0 11 0;
#X connect 10 0 8 0;
#X connect 10 1 9 1;
#X connect 11 0 8 0;
#X connect 12 0 13 0;
#X connect 13 0 9 1;
#X connect 16 0 8 0;
#X connect 17 0 18 0;
#X connect 17 1 9 0;
#X connect 18 0 16 0;
#X connect 18 1 21 0;
#X connect 19 0 20 0;
#X connect 20 0 13 0;
#X connect 21 0 10 0;
#X connect 22 0 4 0;
#X connect 23 0 22 0;
#X connect 24 0 3 1;
#X connect 25 0 3 0;
#X connect 26 0 27 0;
#X connect 27 0 28 0;
#X connect 28 0 13 0;
#X connect 28 1 29 0;
#X connect 29 0 27 1;
#X connect 30 0 31 0;
#X connect 31 0 27 1;
#X restore 493 810 pd print-inverse;
#X obj 607 765 f;
#X obj 422 777 f;
#X obj 422 756 spigot 1;
#X obj 607 743 spigot 1;
#X obj 445 564 del 20;
#X obj 607 642 r p1k2;
#X obj 350 569 r p1k1;
#X obj 419 832 s segmenti-sample-in;
#X obj 645 825 s segmenti-sample-out;
#X obj 322 123 spigot 0;
#X obj 322 145 t b b;
#X msg 399 123 0;
#X msg 375 96 1;
#X obj 627 84 r segmenti-thresh-passed;
#X obj 627 134 t b b b b;
#X obj 641 541 r segmenti-done-recording;
#X obj 641 563 del 21;
#X obj 641 585 t b b;
#X msg 641 607 0;
#X msg 681 607 1;
#X connect 0 0 3 0;
#X connect 1 0 3 0;
#X connect 2 0 3 0;
#X connect 4 0 5 0;
#X connect 4 1 7 0;
#X connect 5 0 15 0;
#X connect 5 1 6 0;
#X connect 6 0 9 1;
#X connect 7 0 8 0;
#X connect 8 0 9 1;
#X connect 9 0 16 0;
#X connect 10 0 4 0;
#X connect 11 0 13 0;
#X connect 12 0 13 0;
#X connect 14 0 13 0;
#X connect 15 0 9 0;
#X connect 16 0 2 0;
#X connect 16 1 0 0;
#X connect 16 2 1 0;
#X connect 17 0 15 0;
#X connect 18 0 38 0;
#X connect 19 0 20 0;
#X connect 19 1 24 0;
#X connect 20 0 33 0;
#X connect 20 1 21 0;
#X connect 21 0 31 1;
#X connect 21 0 32 1;
#X connect 22 0 31 1;
#X connect 22 0 32 1;
#X connect 23 0 19 0;
#X connect 24 0 27 0;
#X connect 24 1 22 0;
#X connect 25 0 31 0;
#X connect 26 0 32 0;
#X connect 29 0 28 1;
#X connect 29 0 37 0;
#X connect 30 0 28 0;
#X connect 30 0 36 0;
#X connect 31 0 30 0;
#X connect 32 0 29 0;
#X connect 33 0 30 0;
#X connect 33 0 29 0;
#X connect 34 0 26 0;
#X connect 35 0 25 0;
#X connect 38 0 39 0;
#X connect 39 0 17 0;
#X connect 39 1 40 0;
#X connect 40 0 38 1;
#X connect 41 0 38 1;
#X connect 42 0 43 0;
#X connect 43 0 12 0;
#X connect 43 1 14 0;
#X connect 43 2 11 0;
#X connect 43 3 41 0;
#X connect 44 0 45 0;
#X connect 45 0 46 0;
#X connect 46 0 47 0;
#X connect 46 1 48 0;
#X connect 47 0 30 0;
#X connect 48 0 29 0;
#X restore 575 226 pd print-waveform;
#X obj 872 211 patchmenu-kein-detent;
#X obj 872 50 declare -path patchmenu-kein-detent;
#X obj 27 327 loadbang;
#X msg 27 349 0;
#X obj 443 184 r~ inL;
#X obj 501 184 r~ inR;
#X obj 871 128 versioncheck 3;
#X msg 872 243 \; screenLine1 1) Sample View/Rec \; screenLine2 2)
PolyBeats \; screenLine3 3) Monitor Level \; screenLine4 <-- HOME \;
;
#X obj 535 292 r monitor-level;
#X obj 535 314 lop~ 5;
#X obj 535 336 *~;
#X obj 443 285 *~;
#X obj 443 206 *~ 0.7;
#X obj 501 206 *~ 0.7;
#N canvas 8 50 932 742 state-saver 0;
#X obj 535 395 text define the-states;
#X obj 479 213 loadbang;
#X msg 535 284 read the-states.txt;
#X msg 608 357 write the-states.txt;
#X obj 608 312 r saveState;
#X obj 608 334 del 5;
#X obj 50 96 r ppb-saver;
#X obj 50 202 text set the-states;
#X obj 50 118 t a a;
#X obj 93 153 list split 1;
#X obj 398 349 t b b;
#X msg 430 377 0;
#X msg 398 379 24;
#X obj 398 401 until;
#X obj 398 423 f;
#X obj 433 425 + 1;
#X obj 398 465 text get the-states;
#X obj 398 507 s ppb-recall;
#X obj 479 235 t b b;
#X connect 1 0 18 0;
#X connect 2 0 0 0;
#X connect 3 0 0 0;
#X connect 4 0 5 0;
#X connect 5 0 3 0;
#X connect 6 0 8 0;
#X connect 8 0 7 0;
#X connect 8 1 9 0;
#X connect 9 0 7 1;
#X connect 10 0 12 0;
#X connect 10 1 11 0;
#X connect 11 0 14 1;
#X connect 12 0 13 0;
#X connect 13 0 14 0;
#X connect 14 0 15 0;
#X connect 14 0 16 0;
#X connect 15 0 14 1;
#X connect 16 0 17 0;
#X connect 18 0 10 0;
#X connect 18 1 2 0;
#X restore 582 41 pd state-saver;
#N canvas 5 50 1579 892 synth 0;
#X obj 422 327 seg-voice;
#X obj 502 329 seg-voice;
#X obj 573 332 seg-voice;
#X obj 655 333 seg-voice;
#X obj 739 336 seg-voice;
#X obj 815 340 seg-voice;
#X obj 893 344 seg-voice;
#X obj 990 337 seg-voice;
#X obj 387 144 r segmenti-notes;
#X obj 387 166 poly 8 1, f 10;
#X obj 387 188 pack 0 0 0;
#X obj 387 210 route 1 2 3 4 5 6 7 8, f 95;
#X connect 8 0 9 0;
#X connect 9 0 10 0;
#X connect 9 1 10 1;
#X connect 9 2 10 2;
#X connect 10 0 11 0;
#X connect 11 0 0 0;
#X connect 11 1 1 0;
#X connect 11 2 2 0;
#X connect 11 3 3 0;
#X connect 11 4 4 0;
#X connect 11 5 5 0;
#X connect 11 6 6 0;
#X connect 11 7 7 0;
#X restore 574 252 pd synth;
#X obj 300 78 sampler-voice 16;
#X obj 27 371 s midiInGate;
#N canvas 13 50 450 300 CG-PdLibrary-Local 0;
#X obj 502 35 r cgSc-1-slots;
#X obj 60 98 declare -path CG-Pd-Library-Local/sequencer;
#X obj 58 130 declare -path CG-Pd-Library-Local/externals;
#X obj 59 165 declare -path CG-Pd-Library-Local/metronome;
#X restore 863 353 pd CG-PdLibrary-Local;
#N canvas 12 50 450 300 CG-PdLibrary-SDcard 0;
#X obj 60 98 declare -path /sdcard/CG-Pd-Library/sequencer;
#X obj 58 130 declare -path /sdcard/CG-Pd-Library/externals;
#X obj 59 165 declare -path /sdcard/CG-Pd-Library/metronome;
#X obj 502 35 r cgSc-1-slots;
#X restore 863 382 pd CG-PdLibrary-SDcard;
#X obj 165 243 sampler-voice 15;
#X obj 37 243 sampler-voice 7;
#X obj 39 78 sampler-voice 0;
#X obj 298 246 sampler-voice 23;
#X obj 169 78 sampler-voice 8;
#X obj 298 198 sampler-voice 21;
#X obj 298 174 sampler-voice 20;
#X obj 299 150 sampler-voice 19;
#X obj 299 126 sampler-voice 18;
#X obj 39 102 sampler-voice 1;
#X obj 39 125 sampler-voice 2;
#X obj 39 149 sampler-voice 3;
#X obj 39 173 sampler-voice 4;
#X obj 39 196 sampler-voice 5;
#X obj 39 219 sampler-voice 6;
#X obj 165 219 sampler-voice 14;
#X obj 166 194 sampler-voice 13;
#X obj 167 170 sampler-voice 12;
#X obj 167 147 sampler-voice 11;
#X obj 168 124 sampler-voice 10;
#X obj 168 101 sampler-voice 9;
#X obj 299 102 sampler-voice 17;
#X obj 298 222 sampler-voice 22;
#X connect 6 0 4 0;
#X connect 7 0 5 0;
#X connect 11 0 14 0;
#X connect 12 0 16 0;
#X connect 13 0 12 0;
#X connect 13 1 10 0;
#X connect 14 0 22 0;
#X connect 16 0 23 0;
#X connect 18 0 19 0;
#X connect 19 0 33 0;
#X connect 20 0 28 0;
#X connect 21 0 29 0;
#X connect 22 0 13 0;
#X connect 24 0 25 0;
#X connect 25 0 26 0;
#X connect 25 0 26 1;
#X connect 26 0 27 1;
#X connect 27 0 5 0;
#X connect 27 0 4 0;
#X connect 28 0 27 0;
#X connect 29 0 27 0;
