#N canvas 759 244 1421 750 10;
#X declare -path cg-pd-library-local/sampling;
#X declare -path cg-pd-library-local/sequencer;
#X declare -path cg-pd-library-local/externals;
#X declare -path cg-pd-library-local/metronome;
#X obj 284 650 throw~ outL;
#X obj 301 629 throw~ outR;
#X obj 859 545 s glob-record;
#X obj 792 650 v record;
#N canvas 4 50 450 300 load 0;
#X obj 52 14 loadbang;
#X obj 52 35 t b b b b;
#X obj 103 60 s load-number;
#X obj 91 84 s load-place;
#X obj 41 186 s plug-track;
#X obj 74 122 s load-step-knob;
#X connect 0 0 1 0;
#X connect 1 0 4 0;
#X connect 1 1 5 0;
#X connect 1 2 3 0;
#X connect 1 3 2 0;
#X restore 19 284 pd load;
#X obj 792 82 v record;
#X obj 792 103 sel 0 1, f 21;
#X obj 792 124 f 1;
#X obj 853 125 f 0;
#X obj 927 469 v record-number;
#X obj 927 490 + 1;
#X obj 927 516 v record-number;
#X obj 887 233 v record;
#X obj 904 172 s glob-record;
#X obj 870 257 v record-number;
#X obj 870 278 v place;
#X obj 283 251 v place;
#X obj 283 26 r play;
#X obj 106 247 f;
#X obj 282 556 *~ 0.9;
#X obj 283 583 hip~ 4;
#X obj 460 400 s screenLine5;
#X msg 460 347 Playing: \$1.wav;
#N canvas 4 50 716 496 led 0;
#X obj 240 138 r glob-record;
#X obj 240 422 s led;
#X obj 327 49 r play;
#X obj 327 70 sel 1 0, f 16;
#X obj 589 295 f 0;
#X obj 398 333 f 3;
#X obj 369 298 sel 0 1;
#X obj 369 333 f 5;
#X obj 449 30 r knob2-state;
#X obj 327 165 f, f 4;
#X obj 449 108 spigot 0;
#X obj 511 58 cg-one-bang;
#X msg 511 79 1;
#X obj 327 91 t b b;
#X obj 369 267 f;
#X obj 327 218 f;
#X obj 327 186 t b f, f 10;
#X obj 240 159 t f f;
#X obj 327 239 sel 1 0;
#X obj 327 260 f 1;
#X text 366 220 if recording \, return to red led;
#X connect 0 0 17 0;
#X connect 2 0 3 0;
#X connect 3 0 13 0;
#X connect 3 1 4 0;
#X connect 4 0 1 0;
#X connect 5 0 1 0;
#X connect 6 0 7 0;
#X connect 6 1 5 0;
#X connect 7 0 1 0;
#X connect 8 0 10 0;
#X connect 9 0 16 0;
#X connect 10 0 9 0;
#X connect 11 0 12 0;
#X connect 12 0 10 1;
#X connect 13 0 9 0;
#X connect 13 1 11 0;
#X connect 14 0 6 0;
#X connect 15 0 18 0;
#X connect 16 0 15 0;
#X connect 16 1 14 1;
#X connect 17 0 1 0;
#X connect 17 1 15 1;
#X connect 18 0 19 0;
#X connect 18 1 14 0;
#X connect 19 0 1 0;
#X restore 22 357 pd led;
#N canvas 4 50 978 755 count-recs 0;
#X obj 305 282 folder_list;
#X msg 305 257 symbol recordings/*.wav;
#X obj 305 306 t b;
#X obj 277 193 t b b b;
#X obj 305 327 f;
#X obj 339 330 + 1;
#X msg 346 225 1;
#X obj 277 434 v record-number;
#X obj 277 169 r load-number;
#X obj 581 202 t b b;
#X obj 581 223 f 0;
#X obj 581 282 text get place;
#X obj 648 254 text define place;
#X msg 648 226 read place.txt;
#X obj 581 386 v place;
#X obj 581 181 r load-place;
#X obj 708 89 r saveState;
#X msg 708 199 write place.txt;
#X obj 708 110 t b b;
#X obj 771 167 text set place;
#X obj 771 137 v place;
#X obj 277 363 f 0;
#X text 366 167 this inits first;
#X obj 581 353 min;
#X obj 581 303 t a b;
#X obj 608 328 v record-number;
#X text 615 355 if recording number changes and place is above the
total make the max;
#X connect 0 0 2 0;
#X connect 1 0 0 0;
#X connect 2 0 4 0;
#X connect 3 0 21 0;
#X connect 3 1 1 0;
#X connect 3 2 6 0;
#X connect 4 0 5 0;
#X connect 4 0 21 1;
#X connect 5 0 4 1;
#X connect 6 0 4 1;
#X connect 8 0 3 0;
#X connect 9 0 10 0;
#X connect 9 1 13 0;
#X connect 10 0 11 0;
#X connect 11 0 24 0;
#X connect 13 0 12 0;
#X connect 15 0 9 0;
#X connect 16 0 18 0;
#X connect 17 0 12 0;
#X connect 18 0 17 0;
#X connect 18 1 20 0;
#X connect 20 0 19 0;
#X connect 21 0 7 0;
#X connect 23 0 14 0;
#X connect 24 0 23 0;
#X connect 24 1 25 0;
#X connect 25 0 23 1;
#X restore 16 400 pd count-recs;
#X f 16;
#N canvas 1006 115 882 801 record 1;
#X obj 173 606 writesf~;
#X msg 216 481 open recordings/\$1.wav;
#X obj 173 137 r glob-record;
#X msg 173 290 start;
#X obj 173 158 sel 1 0, f 100;
#X msg 564 406 stop;
#X obj 18 252 r~ inL;
#X obj 18 364 *~;
#X obj 105 307 vline~;
#X obj 471 193 t b b b, f 13;
#X obj 546 216 f 0;
#X obj 260 220 f 1;
#X msg 508 215 stop;
#X obj 657 355 v record;
#X obj 657 330 f 0;
#X obj 800 452 metro 100;
#X obj 800 405 t b b;
#X msg 800 426 1;
#X obj 830 474 + 1;
#X obj 800 473 f 0;
#X msg 827 426 0;
#X msg 750 406 0, f 5;
#X obj 800 494 * 0.1;
#X obj 710 563 v record-number;
#X obj 710 584 pack 0 0, f 20;
#X obj 800 522 t b a;
#X obj 710 639 s screenLine5;
#X obj 216 353 v record-number;
#X obj 216 375 t a b;
#X msg 710 610 Rec: \$1.wav \$2 sec;
#X obj 348 338 s play;
#X obj 392 258 v record;
#X obj 173 189 t b b b b b b, f 37;
#X obj 392 224 f 1;
#X obj 348 303 f 0;
#X obj 471 282 del 8;
#X msg 105 281 \$1 8;
#X obj 471 383 s play;
#X obj 471 362 f 1;
#X obj 471 303 t b b b b, f 47;
#X connect 1 0 0 0;
#X connect 2 0 4 0;
#X connect 3 0 0 0;
#X connect 4 0 32 0;
#X connect 4 1 9 0;
#X connect 5 0 0 0;
#X connect 6 0 7 0;
#X connect 7 0 0 0;
#X connect 8 0 7 1;
#X connect 9 0 35 0;
#X connect 9 1 12 0;
#X connect 9 2 10 0;
#X connect 10 0 36 0;
#X connect 11 0 36 0;
#X connect 12 0 35 0;
#X connect 14 0 13 0;
#X connect 15 0 19 0;
#X connect 16 0 17 0;
#X connect 16 1 20 0;
#X connect 17 0 15 0;
#X connect 18 0 19 1;
#X connect 19 0 18 0;
#X connect 19 0 22 0;
#X connect 20 0 19 1;
#X connect 21 0 15 0;
#X connect 22 0 25 0;
#X connect 23 0 24 0;
#X connect 24 0 29 0;
#X connect 25 0 23 0;
#X connect 25 1 24 1;
#X connect 27 0 28 0;
#X connect 28 0 1 0;
#X connect 28 1 23 0;
#X connect 29 0 26 0;
#X connect 32 0 3 0;
#X connect 32 1 27 0;
#X connect 32 2 11 0;
#X connect 32 3 16 0;
#X connect 32 4 34 0;
#X connect 32 5 33 0;
#X connect 33 0 31 0;
#X connect 34 0 30 0;
#X connect 35 0 39 0;
#X connect 36 0 8 0;
#X connect 38 0 37 0;
#X connect 39 0 38 0;
#X connect 39 1 5 0;
#X connect 39 2 14 0;
#X connect 39 3 21 0;
#X restore 22 438 pd record;
#X obj 853 148 t b b b f;
#X msg 887 199 2;
#N canvas 4 50 1530 846 track 0;
#X obj 265 89 r notes;
#X obj 265 110 stripnote;
#X obj 292 376 v place;
#X obj 331 438 - 1;
#X obj 331 488 v place;
#X obj 265 352 t b b;
#X obj 265 545 1;
#X obj 265 565 s play;
#X obj 606 398 v place;
#X obj 606 499 v place;
#X obj 606 449 + 1;
#X obj 606 419 moses, f 12;
#X obj 675 380 v record-number;
#X obj 569 347 t b b b, f 13;
#X obj 292 402 moses 2;
#X obj 292 460 v record-number;
#X obj 675 464 f 1;
#X obj 292 423 t b;
#X obj 675 444 t b;
#X obj 569 564 1;
#X obj 569 584 s play;
#X obj 265 251 sel 82 83, f 102;
#X obj 911 666 v place;
#X obj 949 571 v record-number;
#X obj 874 755 1;
#X obj 874 775 s play;
#X obj 874 538 t b f b, f 13;
#X obj 911 636 +;
#X obj 874 364 + 1;
#X obj 949 616 max 0;
#X obj 913 426 v record-number;
#X obj 874 405 t a b;
#X obj 874 476 moses, f 7;
#X obj 913 447 + 1;
#X obj 265 173 v record;
#X obj 265 151 t b f, f 15;
#X obj 265 216 f, f 17;
#X obj 265 194 sel 0;
#X text 339 94 incoming notes;
#X text 389 168 if no recording pass the note number;
#X text 615 309 up one recording;
#X text 281 315 down one recording;
#X text 82 270 notes 82 and 83 scrub the recordings;
#X obj 874 334 % 22;
#X obj 874 282 - 60;
#X text 924 281 make 1-22 range;
#X obj 949 595 - 22;
#X text 1022 424 latest 22 of the recorded number;
#X obj 874 303 clip 0 21;
#X connect 0 0 1 0;
#X connect 1 0 35 0;
#X connect 2 0 14 0;
#X connect 3 0 4 0;
#X connect 5 0 6 0;
#X connect 5 1 2 0;
#X connect 6 0 7 0;
#X connect 8 0 11 0;
#X connect 10 0 9 0;
#X connect 11 0 10 0;
#X connect 11 1 18 0;
#X connect 12 0 11 1;
#X connect 13 0 19 0;
#X connect 13 1 8 0;
#X connect 13 2 12 0;
#X connect 14 0 17 0;
#X connect 14 1 3 0;
#X connect 15 0 4 0;
#X connect 16 0 9 0;
#X connect 17 0 15 0;
#X connect 18 0 16 0;
#X connect 19 0 20 0;
#X connect 21 0 5 0;
#X connect 21 1 13 0;
#X connect 21 2 44 0;
#X connect 23 0 46 0;
#X connect 24 0 25 0;
#X connect 26 0 24 0;
#X connect 26 1 27 0;
#X connect 26 2 23 0;
#X connect 27 0 22 0;
#X connect 28 0 31 0;
#X connect 29 0 27 1;
#X connect 30 0 33 0;
#X connect 31 0 32 0;
#X connect 31 1 30 0;
#X connect 32 0 26 0;
#X connect 33 0 32 1;
#X connect 34 0 37 0;
#X connect 35 0 34 0;
#X connect 35 1 36 1;
#X connect 36 0 21 0;
#X connect 37 0 36 0;
#X connect 43 0 28 0;
#X connect 44 0 48 0;
#X connect 46 0 29 0;
#X connect 48 0 43 0;
#X restore 19 322 pd track;
#X obj 283 57 sel 1 0, f 18;
#X obj 335 87 f 0;
#X obj 354 181 v play;
#X obj 283 88 t b b b;
#X msg 322 143 1;
#X obj 568 274 r update-track;
#X obj 283 272 t a a, f 30;
#X msg 568 355 Stopped: \$1.wav;
#X obj 568 324 v place;
#X obj 374 134 s update-track;
#X obj 335 108 t f f b;
#X obj 592 296 r plug-track;
#X obj 894 7 r fs;
#X obj 894 28 sel 0;
#X obj 921 49 t b;
#N canvas 4 50 1356 796 speed-knob 0;
#X obj 306 64 r knob1;
#X obj 459 612 s screenLine1;
#X obj 459 547 * 100;
#X obj 459 568 i;
#X msg 459 589 1: Speed: \$1%;
#N canvas 986 346 575 396 detent 0;
#X obj 55 8 inlet;
#X text 103 11 0 - 1 float;
#X obj 55 141 -;
#X obj 55 183 * -1;
#X obj 178 348 outlet;
#X obj 55 162 + 1;
#X obj 493 228 + 1;
#X msg 388 155 1;
#X msg 178 103 -1;
#X obj 283 171 * 2;
#X obj 283 192 - 1;
#X obj 493 164 - 0.7;
#X obj 55 56 moses 0.25, f 21;
#X obj 178 82 moses 0.3, f 18;
#X obj 55 78 / 0.25;
#X obj 283 129 - 0.3;
#X obj 388 134 moses 0.75, f 18;
#X obj 283 108 moses 0.7, f 18;
#X obj 283 150 / 0.4;
#X obj 55 120 swap 2;
#X obj 55 100 * 2;
#X obj 493 186 / 0.3;
#X obj 493 207 * 2;
#X connect 0 0 12 0;
#X connect 2 0 5 0;
#X connect 3 0 4 0;
#X connect 5 0 3 0;
#X connect 6 0 4 0;
#X connect 7 0 4 0;
#X connect 8 0 4 0;
#X connect 9 0 10 0;
#X connect 10 0 4 0;
#X connect 11 0 21 0;
#X connect 12 0 14 0;
#X connect 12 1 13 0;
#X connect 13 0 8 0;
#X connect 13 1 17 0;
#X connect 14 0 20 0;
#X connect 15 0 18 0;
#X connect 16 0 7 0;
#X connect 16 1 11 0;
#X connect 17 0 15 0;
#X connect 17 1 16 0;
#X connect 18 0 9 0;
#X connect 19 0 2 0;
#X connect 19 1 2 1;
#X connect 20 0 19 0;
#X connect 21 0 22 0;
#X connect 22 0 6 0;
#X restore 306 158 pd detent;
#X obj 306 744 outlet;
#X obj 306 331 f;
#X obj 306 434 spigot;
#X obj 576 85 f 1;
#X obj 306 714 line 1 10;
#X msg 306 690 \$1 100;
#X obj 576 144 sel 0 1, f 16;
#X obj 306 85 t a a, f 24;
#X obj 306 518 t a a, f 26;
#X obj 576 165 t b b;
#X msg 603 242 0;
#X obj 465 337 t f f, f 13;
#X obj 339 405 ==;
#X obj 447 434 spigot, f 16;
#X obj 447 411 f;
#X obj 622 165 t b b;
#X msg 649 241 1;
#X obj 603 283 f;
#N canvas 4 50 1255 793 stepped 0;
#X obj 26 15 inlet;
#X obj 26 409 outlet;
#X obj 26 73 i;
#X obj 398 185 text define stepped-steps;
#X msg 460 153 write steps.txt;
#X msg 398 119 read steps.txt;
#X obj 26 272 text get stepped-steps;
#X obj 26 94 t a a;
#X obj 181 171 f 1;
#X obj 131 166 f -1;
#X obj 131 146 t b;
#X obj 179 147 t b;
#X obj 26 312 mtof;
#X obj 26 367 *, f 18;
#X obj 398 84 inlet;
#X obj 26 346 / 261.625;
#X obj 328 49 loadbang;
#X obj 71 225 -;
#X obj 131 124 moses 11;
#X obj 26 53 * 23;
#X obj 71 204 swap 12;
#X obj 26 155 moses 12;
#X obj 71 177 - 11;
#X connect 0 0 19 0;
#X connect 2 0 7 0;
#X connect 5 0 3 0;
#X connect 6 0 12 0;
#X connect 7 0 21 0;
#X connect 7 1 18 0;
#X connect 8 0 13 1;
#X connect 9 0 13 1;
#X connect 10 0 9 0;
#X connect 11 0 8 0;
#X connect 12 0 15 0;
#X connect 13 0 1 0;
#X connect 14 0 5 0;
#X connect 15 0 13 0;
#X connect 16 0 5 0;
#X connect 17 0 6 0;
#X connect 18 0 10 0;
#X connect 18 1 11 0;
#X connect 19 0 2 0;
#X connect 20 0 17 0;
#X connect 20 1 17 1;
#X connect 21 0 6 0;
#X connect 21 1 22 0;
#X connect 22 0 20 0;
#X restore 447 155 pd stepped;
#X obj 576 4 r knob2;
#X obj 576 25 * 2;
#X obj 576 57 i;
#X obj 700 312 s screenLine2;
#X msg 700 275 2: Speed: Stepped;
#X msg 745 252 2: Speed: Continuous;
#X obj 325 546 r LFO!;
#X obj 306 659 +;
#X obj 325 587 t b a;
#X obj 352 623 * 0.5;
#X obj 382 550 r knob4;
#X obj 487 688 * 100;
#X obj 487 709 i;
#X msg 487 752 4: LFO Depth: \$1%;
#X obj 487 774 s screenLine4;
#X obj 576 106 t f f, f 27;
#X obj 735 136 s knob2-state;
#X obj 382 592 t b a a;
#X obj 306 493 clip -3 3;
#X connect 0 0 13 0;
#X connect 2 0 3 0;
#X connect 3 0 4 0;
#X connect 4 0 1 0;
#X connect 5 0 7 0;
#X connect 7 0 8 0;
#X connect 8 0 43 0;
#X connect 9 0 40 0;
#X connect 10 0 6 0;
#X connect 11 0 10 0;
#X connect 12 0 15 0;
#X connect 12 1 21 0;
#X connect 13 0 5 0;
#X connect 13 1 24 0;
#X connect 14 0 32 0;
#X connect 14 1 2 0;
#X connect 15 0 7 0;
#X connect 15 1 16 0;
#X connect 15 1 30 0;
#X connect 16 0 23 0;
#X connect 17 0 18 0;
#X connect 17 1 19 1;
#X connect 18 0 8 1;
#X connect 19 0 43 0;
#X connect 20 0 19 0;
#X connect 21 0 20 0;
#X connect 21 1 22 0;
#X connect 21 1 29 0;
#X connect 22 0 23 0;
#X connect 23 0 17 0;
#X connect 24 0 20 0;
#X connect 25 0 26 0;
#X connect 26 0 27 0;
#X connect 27 0 9 0;
#X connect 29 0 28 0;
#X connect 30 0 28 0;
#X connect 31 0 33 0;
#X connect 32 0 11 0;
#X connect 33 0 32 0;
#X connect 33 1 34 0;
#X connect 34 0 32 1;
#X connect 35 0 42 0;
#X connect 36 0 37 0;
#X connect 37 0 38 0;
#X connect 38 0 39 0;
#X connect 40 0 12 0;
#X connect 40 1 41 0;
#X connect 42 0 34 0;
#X connect 42 1 34 1;
#X connect 42 2 36 0;
#X connect 43 0 14 0;
#X restore 106 121 pd speed-knob;
#X obj 792 12 r aux;
#X obj 792 43 sel 1;
#N canvas 661 242 711 701 LFO 0;
#X obj 173 643 s LFO!;
#X obj 173 488 cg-loop 515 1, f 23;
#X obj 173 601 tabread Sine;
#X obj 173 457 metro 1;
#X obj 224 418 * 1.941;
#X obj 224 394 /, f 6;
#X obj 224 373 swap 1;
#X text 276 375 convert to hz;
#X obj 185 225 sel 0, f 16;
#X obj 185 246 f 0;
#X obj 278 249 t b f, f 29;
#X obj 278 277 v lfo-metro;
#X obj 278 299 sel 0;
#X obj 146 365 t f f;
#X obj 95 434 v lfo-metro;
#X obj 278 320 f 1;
#X obj 185 23 r knob3;
#X obj 185 104 t a a, f 21;
#X obj 185 44 pow 2;
#X obj 308 209 s screenLine3;
#X msg 308 187 3: LFO Rate: \$1hz;
#X obj 308 124 * 100;
#X obj 308 145 i;
#X obj 308 166 * 0.01;
#X obj 185 267 t f f f;
#X obj 28 456 f;
#X obj 185 65 * 20;
#X connect 1 0 2 0;
#X connect 2 0 0 0;
#X connect 3 0 1 0;
#X connect 4 0 3 1;
#X connect 5 0 4 0;
#X connect 6 0 5 0;
#X connect 6 1 5 1;
#X connect 8 0 9 0;
#X connect 8 1 10 0;
#X connect 9 0 24 0;
#X connect 10 0 11 0;
#X connect 10 1 6 0;
#X connect 11 0 12 0;
#X connect 12 0 15 0;
#X connect 13 0 14 0;
#X connect 13 1 3 0;
#X connect 15 0 13 0;
#X connect 16 0 18 0;
#X connect 17 0 8 0;
#X connect 17 1 21 0;
#X connect 18 0 26 0;
#X connect 20 0 19 0;
#X connect 21 0 22 0;
#X connect 22 0 23 0;
#X connect 23 0 20 0;
#X connect 24 0 25 0;
#X connect 24 1 13 0;
#X connect 24 2 6 0;
#X connect 25 0 0 0;
#X connect 26 0 17 0;
#X restore 26 481 pd LFO;
#N canvas 669 323 585 438 waveform-tables 0;
#X obj 274 47 loadbang;
#X text 370 34 read the 4 waveform txt files;
#X text 69 24 the arrays for the LFO waveforms;
#X obj 60 147 array define Sine 515;
#X msg 278 88 \; Sine read sineWave.txt \;;
#X connect 0 0 4 0;
#X restore 13 65 pd waveform-tables;
#N canvas 13 50 450 300 cg-pd-library-local 0;
#X obj 502 35 r cgSc-1-slots;
#X obj 60 68 declare -path cg-pd-library-local/sampling;
#X obj 60 98 declare -path cg-pd-library-local/sequencer;
#X obj 58 130 declare -path cg-pd-library-local/externals;
#X obj 59 165 declare -path cg-pd-library-local/metronome;
#X restore 15 24 pd cg-pd-library-local;
#X text 296 527 custom waveplayer object;
#X text 334 21 global playback control;
#X text 935 14 aux and footswitch trigger recording;
#X obj 208 355 v record;
#X obj 163 332 t a b;
#X obj 208 376 sel 0;
#X obj 208 399 f 1;
#X obj 235 399 t b;
#X obj 235 420 f 0;
#X obj 792 442 t b f b, f 23;
#X obj 792 601 del 25;
#X obj 792 622 f 1;
#X obj 792 549 t b b b, f 9;
#X msg 811 574 stop;
#X obj 869 602 f 2;
#N canvas 569 294 841 706 clickless 0;
#X obj 18 16 inlet;
#X obj 40 362 waveplayer~;
#X obj 139 67 f 1;
#X obj 203 68 + 1;
#X obj 203 89 == 1;
#X obj 139 25 inlet;
#X text 178 22 bang;
#X obj 40 142 route 0 1, f 77;
#X obj 42 497 *~;
#X obj 56 465 vline~;
#X obj 56 440 pack 0 8;
#X obj 277 510 *~;
#X obj 292 486 vline~;
#X obj 292 461 pack 0 8;
#X obj 277 642 outlet~;
#X obj 139 90 t a a;
#X obj 166 114 s \$0-bounce;
#X obj 56 386 r \$0-bounce;
#X obj 141 328 v \$0-speed;
#X obj 40 211 route start, f 18;
#X obj 145 265 t a a;
#X obj 172 291 sel 0;
#X obj 292 416 r \$0-bounce;
#X obj 40 264 t a b;
#X obj 9 299 r \$0-bounce;
#X obj 8 342 f 0;
#X obj 276 354 waveplayer~;
#X obj 377 320 v \$0-speed;
#X obj 276 203 route start, f 18;
#X obj 381 257 t a a;
#X obj 408 283 sel 0;
#X obj 276 256 t a b;
#X obj 241 281 r \$0-bounce;
#X obj 241 324 f 0;
#X obj 9 320 sel 1;
#X obj 241 302 sel 0;
#X obj 56 407 == 0;
#X obj 40 121 list prepend 1;
#X connect 0 0 37 0;
#X connect 1 0 8 0;
#X connect 2 0 3 0;
#X connect 2 0 15 0;
#X connect 3 0 4 0;
#X connect 4 0 2 1;
#X connect 5 0 2 0;
#X connect 7 0 19 0;
#X connect 7 1 28 0;
#X connect 8 0 14 0;
#X connect 9 0 8 1;
#X connect 10 0 9 0;
#X connect 11 0 14 0;
#X connect 12 0 11 1;
#X connect 13 0 12 0;
#X connect 15 0 37 1;
#X connect 15 1 16 0;
#X connect 17 0 36 0;
#X connect 18 0 1 0;
#X connect 19 0 23 0;
#X connect 19 1 20 0;
#X connect 20 0 1 0;
#X connect 20 1 21 0;
#X connect 21 1 18 0;
#X connect 22 0 13 0;
#X connect 23 0 1 0;
#X connect 23 1 18 0;
#X connect 24 0 34 0;
#X connect 25 0 1 0;
#X connect 26 0 11 0;
#X connect 27 0 26 0;
#X connect 28 0 31 0;
#X connect 28 1 29 0;
#X connect 29 0 26 0;
#X connect 29 1 30 0;
#X connect 30 1 27 0;
#X connect 31 0 26 0;
#X connect 31 1 27 0;
#X connect 32 0 35 0;
#X connect 33 0 26 0;
#X connect 34 0 25 0;
#X connect 35 0 33 0;
#X connect 36 0 10 0;
#X connect 37 0 7 0;
#X restore 283 487 pd clickless;
#X f 21;
#X obj 283 445 t a b, f 14;
#X msg 283 297 start open recordings/\$1.wav;
#X obj 163 453 spigot 0;
#X connect 5 0 6 0;
#X connect 6 0 7 0;
#X connect 6 1 8 0;
#X connect 7 0 59 0;
#X connect 8 0 26 0;
#X connect 9 0 10 0;
#X connect 10 0 11 0;
#X connect 14 0 15 0;
#X connect 16 0 35 0;
#X connect 17 0 29 0;
#X connect 18 0 54 0;
#X connect 19 0 20 0;
#X connect 20 0 0 0;
#X connect 20 0 1 0;
#X connect 22 0 21 0;
#X connect 26 1 14 0;
#X connect 26 2 27 0;
#X connect 26 3 13 0;
#X connect 27 0 12 0;
#X connect 29 0 32 0;
#X connect 29 1 30 0;
#X connect 30 0 39 0;
#X connect 32 0 16 0;
#X connect 32 1 18 0;
#X connect 32 2 33 0;
#X connect 33 0 31 0;
#X connect 34 0 37 0;
#X connect 35 0 67 0;
#X connect 35 1 22 0;
#X connect 36 0 21 0;
#X connect 37 0 36 0;
#X connect 39 0 66 0;
#X connect 39 1 31 0;
#X connect 39 2 38 0;
#X connect 40 0 37 0;
#X connect 41 0 42 0;
#X connect 42 1 43 0;
#X connect 43 0 5 0;
#X connect 44 0 18 0;
#X connect 45 0 46 0;
#X connect 46 0 5 0;
#X connect 53 0 55 0;
#X connect 54 0 68 0;
#X connect 54 1 53 0;
#X connect 55 0 56 0;
#X connect 55 1 57 0;
#X connect 56 0 68 1;
#X connect 57 0 58 0;
#X connect 58 0 68 1;
#X connect 59 0 62 0;
#X connect 59 1 2 0;
#X connect 59 2 9 0;
#X connect 60 0 61 0;
#X connect 61 0 3 0;
#X connect 62 0 60 0;
#X connect 62 1 63 0;
#X connect 62 2 64 0;
#X connect 63 0 60 0;
#X connect 64 0 3 0;
#X connect 65 0 19 0;
#X connect 66 0 65 0;
#X connect 66 1 65 1;
#X connect 67 0 66 0;
#X connect 68 0 65 0;
