#N canvas 740 426 671 515 12;
#X obj 32 28 inlet~;
#X obj 404 29 inlet;
#X obj 29 172 cg-switch~, f 54;
#X obj 404 301 switch~;
#X obj 448 264 list trim;
#X obj 448 240 list prepend set 512 2;
#X obj 404 53 == \$1;
#X obj 455 138 i \$1;
#X obj 455 162 swap 1;
#X obj 455 186 /;
#X obj 33 277 outlet~;
#X obj 457 80 inlet;
#X connect 0 0 2 0;
#X connect 1 0 6 0;
#X connect 2 0 10 0;
#X connect 2 2 3 0;
#X connect 4 0 3 0;
#X connect 5 0 4 0;
#X connect 6 0 2 2;
#X connect 7 0 8 0;
#X connect 8 0 9 0;
#X connect 8 1 9 1;
#X connect 9 0 5 0;
#X connect 11 0 7 0;
