#N canvas 302 250 1260 729 12;
#X obj 44 34 adc~ 1;
#X obj 204 188 fx-reverb;
#X obj 203 243 throw~ busL;
#X obj 263 215 throw~ busR;
#X obj 401 245 throw~ busL;
#X obj 456 217 throw~ busR;
#X obj 402 190 fx-delay;
#X obj 582 245 throw~ busL;
#X obj 649 219 throw~ busR;
#X obj 582 190 fx-ringMod;
#X obj 259 440 throw~ busL;
#X obj 335 412 throw~ busR;
#X obj 260 385 fx-envelope;
#X obj 447 441 throw~ busL;
#X obj 502 413 throw~ busR;
#X obj 448 386 fx-sines;
#X obj 699 449 throw~ busL;
#X obj 775 421 throw~ busR;
#X obj 810 249 throw~ busL;
#X obj 878 221 throw~ busR;
#X obj 913 458 throw~ busL;
#X obj 981 430 throw~ busR;
#X obj 914 395 fx-chorus;
#X obj 842 169 fx-comb;
#X obj 258 578 throw~ busL;
#X obj 320 549 throw~ busR;
#X obj 259 521 fx-freeze;
#X obj 461 584 throw~ busL;
#X obj 523 555 throw~ busR;
#X obj 462 527 fx-pitchshift;
#X obj 697 381 fx-distort;
#X obj 705 575 throw~ busL;
#X obj 767 546 throw~ busR;
#X obj 706 518 fx-constant;
#X obj 44 58 s~ \$0-in-bus;
#X obj 206 133 r~ \$0-in-bus;
#X obj 404 132 r~ \$0-in-bus;
#X obj 584 133 r~ \$0-in-bus;
#X obj 833 125 r~ \$0-in-bus;
#X obj 261 330 r~ \$0-in-bus;
#X obj 449 331 r~ \$0-in-bus;
#X obj 701 339 r~ \$0-in-bus;
#X obj 916 342 r~ \$0-in-bus;
#X obj 706 483 r~ \$0-in-bus;
#X obj 462 492 r~ \$0-in-bus;
#X obj 259 487 r~ \$0-in-bus;
#X obj 350 38 r time-in;
#X obj 350 71 s fx-time;
#X obj 248 37 r vol-in;
#X obj 247 71 s fx-vol;
#X obj 508 637 catch~ busL;
#X obj 627 637 catch~ busR;
#X obj 542 684 dac~ 1 2;
#X obj 815 41 loadbang;
#X msg 815 71 \; pd dsp 1 \;;
#N canvas 588 212 1328 744 switches 0;
#X obj 830 353 s ringMod-switch;
#X obj 425 310 s delay-switch;
#X obj 747 311 s reverb-switch;
#X obj 503 340 s envelope-switch;
#X obj 926 308 s sines-switch;
#X obj 254 312 s chorus-switch;
#X obj 336 341 s comb-switch;
#X obj 657 350 s pitchshift-switch;
#X obj 588 306 s freeze-switch;
#X obj 132 71 r set-switches;
#X obj 136 338 s distort-switch;
#X obj 171 293 tgl 15 0 empty empty empty 17 7 0 10 -262144 -1 -1 0
1;
#X obj 524 78 until;
#X obj 524 50 max 1;
#X obj 524 102 i;
#X obj 574 105 + 1;
#X obj 584 71 i 0;
#X obj 524 11 t a b;
#X obj 524 126 pack 0 0;
#X obj 945 267 s constant-switch;
#X obj 441 280 tgl 15 0 empty empty empty 17 7 0 10 -262144 -1 -1 0
1;
#X obj 374 287 tgl 15 0 empty empty empty 17 7 0 10 -262144 -1 -1 0
1;
#X obj 136 206 route 0 1 2 3 4 5 6 7 8 9 10 11, f 128;
#X msg 454 34 12;
#X obj 958 238 s bitcrush-switch;
#X obj 1088 165 tgl 15 0 empty empty empty 17 7 0 10 -262144 -1 -1
0 1;
#X connect 9 0 22 0;
#X connect 11 0 10 0;
#X connect 12 0 14 0;
#X connect 13 0 12 0;
#X connect 14 0 15 0;
#X connect 14 0 18 0;
#X connect 15 0 14 1;
#X connect 16 0 14 1;
#X connect 17 0 13 0;
#X connect 17 1 16 0;
#X connect 18 0 22 0;
#X connect 20 0 1 0;
#X connect 21 0 6 0;
#X connect 22 0 10 0;
#X connect 22 1 5 0;
#X connect 22 2 6 0;
#X connect 22 3 1 0;
#X connect 22 4 3 0;
#X connect 22 5 8 0;
#X connect 22 6 7 0;
#X connect 22 7 2 0;
#X connect 22 8 0 0;
#X connect 22 9 4 0;
#X connect 22 10 19 0;
#X connect 22 11 24 0;
#X connect 23 0 17 0;
#X connect 25 0 24 0;
#X restore 602 63 pd switches;
#X obj 1017 250 throw~ busL;
#X obj 1085 222 throw~ busR;
#X obj 1040 126 r~ \$0-in-bus;
#X obj 1049 170 fx-bitcrush;
#X obj 433 42 r switch;
#X obj 433 66 switch~;
#X obj 510 66 s bpm;
#X obj 510 42 r bpm-in;
#X connect 0 0 34 0;
#X connect 1 0 2 0;
#X connect 1 1 3 0;
#X connect 6 0 4 0;
#X connect 6 1 5 0;
#X connect 9 0 7 0;
#X connect 9 1 8 0;
#X connect 12 0 10 0;
#X connect 12 1 11 0;
#X connect 15 0 13 0;
#X connect 15 1 14 0;
#X connect 22 0 20 0;
#X connect 22 1 21 0;
#X connect 23 0 18 0;
#X connect 23 1 19 0;
#X connect 26 0 24 0;
#X connect 26 1 25 0;
#X connect 29 0 27 0;
#X connect 29 1 28 0;
#X connect 30 0 16 0;
#X connect 30 1 17 0;
#X connect 33 0 31 0;
#X connect 33 1 32 0;
#X connect 35 0 1 0;
#X connect 36 0 6 0;
#X connect 37 0 9 0;
#X connect 38 0 23 0;
#X connect 39 0 12 0;
#X connect 40 0 15 0;
#X connect 41 0 30 0;
#X connect 42 0 22 0;
#X connect 43 0 33 0;
#X connect 44 0 29 0;
#X connect 45 0 26 0;
#X connect 46 0 47 0;
#X connect 48 0 49 0;
#X connect 50 0 52 0;
#X connect 51 0 52 1;
#X connect 53 0 54 0;
#X connect 58 0 59 0;
#X connect 59 0 56 0;
#X connect 59 1 57 0;
#X connect 60 0 61 0;
#X connect 63 0 62 0;
