#N canvas 116 50 1264 726 12;
#X obj 579 594 i;
#X obj 579 618 pack 0 0;
#X obj 505 647 pack 0 1;
#X obj 673 460 random 1000;
#X obj 673 483 / 1000;
#X obj 760 460 random 1000;
#X obj 760 483 / 1000;
#X obj 673 350 t b b;
#X obj 524 507 unpack 0 0 0;
#X obj 505 557 t a a b, f 11;
#N canvas 4 50 780 297 fx-knobs 0;
#X obj 47 15 inlet;
#X obj 159 19 inlet;
#X text 205 20 time;
#X text 89 17 vol;
#X obj 314 17 inlet;
#X text 357 19 set fx num;
#X obj 47 205 list prepend;
#X obj 47 229 list trim;
#X obj 159 203 list prepend;
#X obj 159 227 list trim;
#X obj 314 78 text get names;
#X obj 396 265 outlet;
#X obj 314 102 list split 1;
#X obj 354 130 t a a;
#X obj 47 265 s fx-vol;
#X obj 159 268 s fx-time;
#X connect 0 0 6 0;
#X connect 1 0 8 0;
#X connect 4 0 10 0;
#X connect 6 0 7 0;
#X connect 7 0 14 0;
#X connect 8 0 9 0;
#X connect 9 0 15 0;
#X connect 10 0 12 0;
#X connect 12 0 11 0;
#X connect 12 1 13 0;
#X connect 13 0 6 1;
#X connect 13 1 8 1;
#X restore 673 580 pd fx-knobs;
#X obj 468 421 t a a a, f 20;
#X obj 515 473 t a a;
#X obj 548 364 unpack 0 0 0;
#X obj 570 393 t a a, f 24;
#X obj 573 31 inlet;
#X obj 573 300 t b b, f 28;
#X obj 219 298 r set-switches-\$1;
#X obj 390 532 s save-fx-\$1;
#X obj 516 450 r recall-history-\$1;
#X obj 505 695 s set-switches-\$1;
#N canvas 251 187 1243 690 history 0;
#X obj 769 165 r saveState;
#X obj 745 332 list trim;
#X obj 278 201 f;
#X obj 371 205 f;
#X obj 315 340 i 0;
#X obj 198 421 i 24;
#X obj 227 309 t b a b;
#X obj 227 240 pack 0 0 0, f 21;
#X obj 185 193 i;
#X obj 185 76 t a b b, f 27;
#X obj 550 137 loadbang;
#X obj 550 161 t b b;
#X obj 454 471 - 60;
#X obj 454 417 stripnote, f 24;
#X obj 288 141 list split 1;
#X obj 389 143 list split 1;
#X obj 185 37 r save-fx-\$1;
#X obj 288 114 r fx-vol-\$1;
#X obj 389 119 r fx-time-\$1;
#X obj 769 214 list prepend write history-\$1.txt;
#X obj 527 213 list prepend read history-\$1.txt;
#X obj 745 360 text define history-\$1;
#X obj 454 511 text get history-\$1;
#X obj 454 542 s recall-history-\$1;
#X obj 250 369 text insert history-\$1;
#X obj 198 451 text delete history-\$1;
#X obj 454 385 r notes-sc;
#X connect 0 0 19 0;
#X connect 1 0 21 0;
#X connect 2 0 7 1;
#X connect 3 0 7 2;
#X connect 4 0 24 1;
#X connect 5 0 25 0;
#X connect 6 0 5 0;
#X connect 6 1 24 0;
#X connect 6 2 4 0;
#X connect 7 0 6 0;
#X connect 8 0 7 0;
#X connect 9 0 8 0;
#X connect 9 1 2 0;
#X connect 9 2 3 0;
#X connect 10 0 11 0;
#X connect 11 1 20 0;
#X connect 12 0 22 0;
#X connect 13 0 12 0;
#X connect 14 1 2 1;
#X connect 15 1 3 1;
#X connect 16 0 9 0;
#X connect 17 0 14 0;
#X connect 18 0 15 0;
#X connect 19 0 1 0;
#X connect 20 0 1 0;
#X connect 22 0 23 0;
#X connect 26 0 13 0;
#X restore 266 182 pd history;
#X obj 152 414 outlet~;
#X obj 218 384 outlet~;
#X obj 152 311 inlet~;
#X obj 673 630 outlet;
#X obj 656 235 s \$0-switch;
#X obj 656 126 t a a a;
#X obj 679 183 s \$0-update;
#N canvas 548 225 1192 752 effects 0;
#X obj 204 188 fx-reverb;
#X obj 203 243 throw~ busL;
#X obj 263 215 throw~ busR;
#X obj 401 245 throw~ busL;
#X obj 456 217 throw~ busR;
#X obj 402 190 fx-delay;
#X obj 582 245 throw~ busL;
#X obj 649 219 throw~ busR;
#X obj 582 190 fx-ringMod;
#X obj 259 440 throw~ busL;
#X obj 335 412 throw~ busR;
#X obj 260 385 fx-envelope;
#X obj 447 441 throw~ busL;
#X obj 502 413 throw~ busR;
#X obj 448 386 fx-sines;
#X obj 699 449 throw~ busL;
#X obj 775 421 throw~ busR;
#X obj 810 249 throw~ busL;
#X obj 878 221 throw~ busR;
#X obj 913 458 throw~ busL;
#X obj 981 430 throw~ busR;
#X obj 914 395 fx-chorus;
#X obj 842 169 fx-comb;
#X obj 258 578 throw~ busL;
#X obj 320 549 throw~ busR;
#X obj 259 521 fx-freeze;
#X obj 461 584 throw~ busL;
#X obj 523 555 throw~ busR;
#X obj 462 527 fx-pitchshift;
#X obj 697 381 fx-distort;
#X obj 44 58 s~ \$0-in-bus;
#X obj 206 133 r~ \$0-in-bus;
#X obj 404 132 r~ \$0-in-bus;
#X obj 584 133 r~ \$0-in-bus;
#X obj 833 125 r~ \$0-in-bus;
#X obj 261 330 r~ \$0-in-bus;
#X obj 449 331 r~ \$0-in-bus;
#X obj 701 339 r~ \$0-in-bus;
#X obj 916 342 r~ \$0-in-bus;
#X obj 462 492 r~ \$0-in-bus;
#X obj 259 487 r~ \$0-in-bus;
#X obj 512 626 catch~ busL;
#X obj 627 637 catch~ busR;
#N canvas 112 128 1328 744 switches 0;
#X obj 830 353 s ringMod-switch;
#X obj 425 310 s delay-switch;
#X obj 747 311 s reverb-switch;
#X obj 503 340 s envelope-switch;
#X obj 926 308 s sines-switch;
#X obj 254 312 s chorus-switch;
#X obj 336 341 s comb-switch;
#X obj 657 350 s pitchshift-switch;
#X obj 588 306 s freeze-switch;
#X obj 136 338 s distort-switch;
#X obj 171 293 tgl 15 0 empty empty empty 17 7 0 10 -262144 -1 -1 0
1;
#X obj 524 78 until;
#X obj 524 50 max 1;
#X obj 524 102 i;
#X obj 574 105 + 1;
#X obj 584 71 i 0;
#X obj 524 11 t a b;
#X obj 524 126 pack 0 0;
#X obj 945 267 s constant-switch;
#X obj 441 280 tgl 15 0 empty empty empty 17 7 0 10 -262144 -1 -1 0
1;
#X obj 374 287 tgl 15 0 empty empty empty 17 7 0 10 -262144 -1 -1 0
1;
#X msg 454 34 12;
#X obj 958 238 s bitcrush-switch;
#X obj 1088 165 tgl 15 0 empty empty empty 17 7 0 10 -262144 -1 -1
0 1;
#X obj 133 71 inlet;
#X obj 137 205 route 0 1 2 3 4 5 6 7 8 9 10 11, f 128;
#X connect 10 0 9 0;
#X connect 11 0 13 0;
#X connect 12 0 11 0;
#X connect 13 0 14 0;
#X connect 13 0 17 0;
#X connect 14 0 13 1;
#X connect 15 0 13 1;
#X connect 16 0 12 0;
#X connect 16 1 15 0;
#X connect 17 0 25 0;
#X connect 19 0 1 0;
#X connect 20 0 6 0;
#X connect 21 0 16 0;
#X connect 23 0 22 0;
#X connect 24 0 25 0;
#X connect 25 0 9 0;
#X connect 25 1 5 0;
#X connect 25 2 6 0;
#X connect 25 3 1 0;
#X connect 25 4 3 0;
#X connect 25 5 8 0;
#X connect 25 6 7 0;
#X connect 25 7 2 0;
#X connect 25 8 0 0;
#X connect 25 9 4 0;
#X connect 25 10 18 0;
#X connect 25 11 22 0;
#X restore 388 64 pd switches;
#X obj 1017 250 throw~ busL;
#X obj 1085 222 throw~ busR;
#X obj 1040 126 r~ \$0-in-bus;
#X obj 1049 170 fx-bitcrush;
#X obj 43 34 inlet~;
#X obj 392 19 inlet;
#X obj 511 694 outlet~;
#X obj 629 699 outlet~;
#X obj 627 661 hip~ 5;
#X obj 512 652 hip~ 5;
#X obj 705 575 throw~ busL;
#X obj 767 546 throw~ busR;
#X obj 706 518 fx-constant;
#X obj 706 483 r~ \$0-in-bus;
#X connect 0 0 1 0;
#X connect 0 1 2 0;
#X connect 5 0 3 0;
#X connect 5 1 4 0;
#X connect 8 0 6 0;
#X connect 8 1 7 0;
#X connect 11 0 9 0;
#X connect 11 1 10 0;
#X connect 14 0 12 0;
#X connect 14 1 13 0;
#X connect 21 0 19 0;
#X connect 21 1 20 0;
#X connect 22 0 17 0;
#X connect 22 1 18 0;
#X connect 25 0 23 0;
#X connect 25 1 24 0;
#X connect 28 0 26 0;
#X connect 28 1 27 0;
#X connect 29 0 15 0;
#X connect 29 1 16 0;
#X connect 31 0 0 0;
#X connect 32 0 5 0;
#X connect 33 0 8 0;
#X connect 34 0 22 0;
#X connect 35 0 11 0;
#X connect 36 0 14 0;
#X connect 37 0 29 0;
#X connect 38 0 21 0;
#X connect 39 0 28 0;
#X connect 40 0 25 0;
#X connect 41 0 53 0;
#X connect 42 0 52 0;
#X connect 46 0 47 0;
#X connect 47 0 44 0;
#X connect 47 1 45 0;
#X connect 48 0 30 0;
#X connect 49 0 43 0;
#X connect 52 0 51 0;
#X connect 53 0 50 0;
#X connect 56 0 54 0;
#X connect 56 1 55 0;
#X connect 57 0 56 0;
#X restore 152 342 pd effects;
#X obj 573 82 route gen init sel;
#X obj 438 366 random-gen 12;
#X connect 0 0 1 0;
#X connect 1 0 20 0;
#X connect 2 0 20 0;
#X connect 3 0 4 0;
#X connect 4 0 10 0;
#X connect 5 0 6 0;
#X connect 6 0 10 1;
#X connect 7 0 3 0;
#X connect 7 1 5 0;
#X connect 8 1 10 0;
#X connect 8 2 10 1;
#X connect 9 0 2 0;
#X connect 9 1 0 1;
#X connect 9 2 0 0;
#X connect 10 0 25 0;
#X connect 11 0 18 0;
#X connect 11 1 9 0;
#X connect 11 2 10 2;
#X connect 12 0 8 0;
#X connect 12 1 13 0;
#X connect 13 0 14 0;
#X connect 14 0 9 0;
#X connect 14 1 10 2;
#X connect 15 0 30 0;
#X connect 16 0 7 0;
#X connect 16 1 31 0;
#X connect 17 0 29 1;
#X connect 19 0 12 0;
#X connect 24 0 29 0;
#X connect 27 0 26 0;
#X connect 27 1 28 0;
#X connect 29 0 22 0;
#X connect 29 1 23 0;
#X connect 30 0 16 0;
#X connect 30 2 27 0;
#X connect 31 0 11 0;
