#N canvas 4 50 1206 799 12;
#X obj 118 346 pd~, f 9;
#X obj 204 194 list prepend vol-in;
#X obj 295 159 list prepend time-in;
#X obj 204 218 list trim;
#X obj 17 179 list prepend set-switches;
#X obj 579 594 i;
#X obj 579 618 pack 0 0;
#X obj 505 647 pack 0 1;
#X obj 673 460 random 1000;
#X obj 673 483 / 1000;
#X obj 760 460 random 1000;
#X obj 760 483 / 1000;
#X obj 673 350 t b b;
#X obj 524 507 unpack 0 0 0;
#X obj 505 557 t a a b, f 11;
#N canvas 4 50 780 297 fx-knobs 0;
#X obj 47 15 inlet;
#X obj 159 19 inlet;
#X text 205 20 time;
#X text 89 17 vol;
#X obj 314 17 inlet;
#X text 357 19 set fx num;
#X obj 47 205 list prepend;
#X obj 47 229 list trim;
#X obj 159 203 list prepend;
#X obj 159 227 list trim;
#X obj 314 78 text get names;
#X obj 159 269 s fx-time-\$1;
#X obj 47 266 s fx-vol-\$1;
#X obj 396 265 outlet;
#X obj 314 102 list split 1;
#X obj 354 130 t a a;
#X connect 0 0 6 0;
#X connect 1 0 8 0;
#X connect 4 0 10 0;
#X connect 6 0 7 0;
#X connect 7 0 12 0;
#X connect 8 0 9 0;
#X connect 9 0 11 0;
#X connect 10 0 14 0;
#X connect 14 0 13 0;
#X connect 14 1 15 0;
#X connect 15 0 6 1;
#X connect 15 1 8 1;
#X restore 673 580 pd fx-knobs;
#X obj 468 421 t a a a, f 20;
#X obj 515 473 t a a;
#X obj 548 364 unpack 0 0 0;
#X obj 570 393 t a a, f 24;
#X obj 573 31 inlet;
#X obj 573 300 t b b, f 28;
#X obj 17 116 r set-switches-\$1;
#X obj 204 128 r fx-vol-\$1;
#X obj 295 129 r fx-time-\$1;
#X obj 390 532 s save-fx-\$1;
#X obj 516 450 r recall-history-\$1;
#X obj 505 695 s set-switches-\$1;
#N canvas 251 187 1243 690 history 0;
#X obj 769 165 r saveState;
#X obj 745 332 list trim;
#X obj 278 201 f;
#X obj 371 205 f;
#X obj 315 340 i 0;
#X obj 198 421 i 24;
#X obj 227 309 t b a b;
#X obj 227 240 pack 0 0 0, f 21;
#X obj 185 193 i;
#X obj 185 76 t a b b, f 27;
#X obj 550 137 loadbang;
#X obj 550 161 t b b;
#X obj 454 471 - 60;
#X obj 454 417 stripnote, f 24;
#X obj 288 141 list split 1;
#X obj 389 143 list split 1;
#X obj 185 37 r save-fx-\$1;
#X obj 288 114 r fx-vol-\$1;
#X obj 389 119 r fx-time-\$1;
#X obj 769 214 list prepend write history-\$1.txt;
#X obj 527 213 list prepend read history-\$1.txt;
#X obj 745 360 text define history-\$1;
#X obj 454 511 text get history-\$1;
#X obj 454 542 s recall-history-\$1;
#X obj 250 369 text insert history-\$1;
#X obj 198 451 text delete history-\$1;
#X obj 454 385 r notes-sc;
#X connect 0 0 19 0;
#X connect 1 0 21 0;
#X connect 2 0 7 1;
#X connect 3 0 7 2;
#X connect 4 0 24 1;
#X connect 5 0 25 0;
#X connect 6 0 5 0;
#X connect 6 1 24 0;
#X connect 6 2 4 0;
#X connect 7 0 6 0;
#X connect 8 0 7 0;
#X connect 9 0 8 0;
#X connect 9 1 2 0;
#X connect 9 2 3 0;
#X connect 10 0 11 0;
#X connect 11 1 20 0;
#X connect 12 0 22 0;
#X connect 13 0 12 0;
#X connect 14 1 2 1;
#X connect 15 1 3 1;
#X connect 16 0 9 0;
#X connect 17 0 14 0;
#X connect 18 0 15 0;
#X connect 19 0 1 0;
#X connect 20 0 1 0;
#X connect 22 0 23 0;
#X connect 26 0 13 0;
#X restore 74 602 pd history;
#X obj 148 414 outlet~;
#X obj 178 384 outlet~;
#X obj 161 311 inlet~;
#X obj 673 630 outlet;
#X obj 467 126 r \$0-switch;
#X obj 467 150 list prepend switch;
#X obj 656 224 s \$0-switch;
#X obj 656 115 t a a a;
#X obj 679 172 s \$0-update;
#X obj 573 82 route gen init sel frz;
#X obj 391 370 i 5;
#X obj 811 179 t b b;
#X obj 97 23 r bpm;
#X msg 118 277 pd~ start -nogui can-sub-process.pd;
#X obj 97 47 list prepend bpm-in;
#X obj 448 364 random-gen 12;
#X connect 0 1 29 0;
#X connect 0 2 30 0;
#X connect 1 0 3 0;
#X connect 2 0 3 0;
#X connect 3 0 0 0;
#X connect 4 0 3 0;
#X connect 5 0 6 0;
#X connect 6 0 27 0;
#X connect 7 0 27 0;
#X connect 8 0 9 0;
#X connect 9 0 15 0;
#X connect 10 0 11 0;
#X connect 11 0 15 1;
#X connect 12 0 8 0;
#X connect 12 1 10 0;
#X connect 13 1 15 0;
#X connect 13 2 15 1;
#X connect 14 0 7 0;
#X connect 14 1 5 1;
#X connect 14 2 5 0;
#X connect 15 0 32 0;
#X connect 16 0 25 0;
#X connect 16 1 14 0;
#X connect 16 2 15 2;
#X connect 17 0 13 0;
#X connect 17 1 18 0;
#X connect 18 0 19 0;
#X connect 19 0 14 0;
#X connect 19 1 15 2;
#X connect 20 0 38 0;
#X connect 21 0 12 0;
#X connect 21 1 44 0;
#X connect 22 0 4 0;
#X connect 23 0 1 0;
#X connect 24 0 2 0;
#X connect 26 0 17 0;
#X connect 31 0 0 0;
#X connect 33 0 34 0;
#X connect 34 0 3 0;
#X connect 36 0 35 0;
#X connect 36 1 37 0;
#X connect 38 0 21 0;
#X connect 38 1 42 0;
#X connect 38 2 36 0;
#X connect 38 3 40 0;
#X connect 39 0 16 0;
#X connect 40 0 39 0;
#X connect 41 0 43 0;
#X connect 42 0 0 0;
#X connect 43 0 3 0;
#X connect 44 0 16 0;
