#N canvas 409 104 1290 808 12;
#X obj 118 486 cg-switch~, f 54;
#X obj 493 540 switch~;
#X obj 118 580 outlet~;
#X obj 115 16 inlet~;
#X obj 305 578 outlet~;
#X obj 307 34 r fx-vol;
#X obj 493 293 r bitcrush-switch;
#X obj 720 41 r fx-time;
#X obj 118 439 lop~ 9000;
#X obj 720 73 route bitcrush;
#X obj 306 64 route bitcrush;
#X obj 737 347 list prepend set 514 4;
#X obj 737 371 list trim;
#X obj 764 265 swap 1;
#X obj 764 289 /;
#X msg 720 214 2;
#X msg 757 212 4;
#X msg 798 212 8;
#X msg 835 210 16;
#X msg 881 215 32;
#X msg 921 218 64;
#X obj 724 176 sel 0 1 2 3 4 5;
#X obj 720 98 * 5;
#X obj 720 121 i;
#X obj 118 415 *~ 0.25;
#X connect 0 0 2 0;
#X connect 0 1 4 0;
#X connect 0 2 1 0;
#X connect 3 0 24 0;
#X connect 5 0 10 0;
#X connect 6 0 0 2;
#X connect 7 0 9 0;
#X connect 8 0 0 0;
#X connect 8 0 0 1;
#X connect 9 0 22 0;
#X connect 11 0 12 0;
#X connect 12 0 1 0;
#X connect 13 0 14 0;
#X connect 13 1 14 1;
#X connect 14 0 11 0;
#X connect 15 0 13 0;
#X connect 16 0 13 0;
#X connect 17 0 13 0;
#X connect 18 0 13 0;
#X connect 19 0 13 0;
#X connect 20 0 13 0;
#X connect 21 0 15 0;
#X connect 21 1 16 0;
#X connect 21 2 17 0;
#X connect 21 3 18 0;
#X connect 21 4 19 0;
#X connect 21 5 20 0;
#X connect 22 0 23 0;
#X connect 23 0 21 0;
#X connect 24 0 8 0;
