#N canvas 4 25 1389 847 12;
#X obj 125 616 cg-switch~, f 54;
#X obj 504 670 switch~;
#X obj 125 710 outlet~;
#X obj 123 16 inlet~;
#X obj 312 708 outlet~;
#X obj 260 14 r fx-vol;
#X obj 400 31 r fx-time;
#X obj 124 545 *~ 1;
#X obj 125 508 *~ 1.5;
#X obj 124 471 cg-phase-voc-freeze~ 4096, f 33;
#X obj 614 624 list prepend switch;
#X obj 356 437 list trim;
#X obj 501 345 t a a a, f 47;
#X obj 992 594 list prepend grab;
#X obj 344 218 loadbang;
#X obj 361 308 list prepend init;
#X obj 182 309 list prepend detune;
#X obj 380 90 * 2400;
#X obj 380 114 - 1200;
#X obj 344 243 t b b;
#X obj 344 267 i 0;
#X obj 500 434 metro 92.8798;
#X obj 501 261 r constant-switch;
#X obj 400 55 route constant;
#X obj 762 245 vline~;
#X obj 762 269 *~;
#X obj 762 178 pack 0 5;
#X obj 859 171 del 5;
#X msg 859 195 1 5 \, 0 5 82.87;
#X obj 795 127 t b b b;
#X msg 889 142 stop;
#X obj 1095 474 s \$0-trig;
#X obj 755 88 r \$0-trig;
#X obj 1008 491 t b b;
#X msg 1040 522 stop;
#X obj 992 551 del 5;
#X obj 1005 430 t b b;
#X obj 123 40 *~;
#X connect 0 0 2 0;
#X connect 0 1 4 0;
#X connect 0 2 1 0;
#X connect 0 2 10 0;
#X connect 3 0 37 0;
#X connect 6 0 23 0;
#X connect 7 0 0 0;
#X connect 7 0 0 1;
#X connect 8 0 7 0;
#X connect 9 0 8 0;
#X connect 10 0 11 0;
#X connect 11 0 9 1;
#X connect 12 0 21 0;
#X connect 12 2 0 2;
#X connect 13 0 11 0;
#X connect 14 0 19 0;
#X connect 15 0 11 0;
#X connect 16 0 11 0;
#X connect 17 0 18 0;
#X connect 18 0 16 0;
#X connect 19 0 20 0;
#X connect 19 1 15 0;
#X connect 20 0 16 0;
#X connect 21 0 36 0;
#X connect 22 0 12 0;
#X connect 23 0 17 0;
#X connect 24 0 25 0;
#X connect 24 0 25 1;
#X connect 25 0 37 1;
#X connect 26 0 24 0;
#X connect 27 0 28 0;
#X connect 28 0 24 0;
#X connect 29 0 26 0;
#X connect 29 1 27 0;
#X connect 29 2 30 0;
#X connect 30 0 27 0;
#X connect 32 0 29 0;
#X connect 33 0 35 0;
#X connect 33 1 34 0;
#X connect 34 0 35 0;
#X connect 35 0 13 0;
#X connect 36 0 33 0;
#X connect 36 1 31 0;
#X connect 37 0 9 0;
