#N canvas 10 73 1430 799 12;
#X obj 112 685 cg-switch~, f 54;
#X obj 487 739 switch~;
#X obj 112 779 outlet~;
#X obj 115 16 inlet~;
#X obj 299 777 outlet~;
#X obj 622 103 r fx-vol;
#X obj 342 43 r fx-time;
#X obj 284 228 +~ 0.25;
#X obj 381 234 +~ 0.25;
#X obj 477 254 +~ 0.25;
#X obj 553 359 line~;
#X obj 478 414 *~;
#X obj 383 416 *~;
#X obj 284 417 *~;
#X obj 197 418 *~;
#X obj 198 170 line~;
#X obj 197 199 phasor~;
#X obj 197 549 delread4~ \$0-del;
#X obj 284 509 delread4~ \$0-del;
#X obj 383 539 delread4~ \$0-del;
#X obj 478 505 delread4~ \$0-del;
#X obj 140 68 delwrite~ \$0-del 2000;
#X obj 534 634 r chorus-switch;
#X obj 198 148 pack 0 10;
#X obj 553 318 pack 0 10;
#X obj 128 632 *~ 0.7;
#X text 627 343 DEPTH;
#X obj 197 472 +~;
#X obj 284 471 +~;
#X obj 383 470 +~;
#X obj 478 468 +~;
#X text 758 368 Delay;
#X obj 140 44 *~ 0.7;
#X obj 196 317 cos~;
#X obj 288 370 cos~;
#X obj 371 352 cos~;
#X obj 474 370 cos~;
#X obj 307 114 pow 2;
#X obj 683 421 sig~ 10;
#X obj 307 138 * 3;
#X obj 622 177 pow 2;
#X obj 342 67 route chorus;
#X obj 622 127 route chorus;
#X obj 623 227 * 100;
#X connect 0 0 2 0;
#X connect 0 1 4 0;
#X connect 0 2 1 0;
#X connect 3 0 32 0;
#X connect 5 0 42 0;
#X connect 6 0 41 0;
#X connect 7 0 8 0;
#X connect 7 0 34 0;
#X connect 8 0 9 0;
#X connect 8 0 35 0;
#X connect 9 0 36 0;
#X connect 10 0 11 1;
#X connect 10 0 12 1;
#X connect 10 0 13 1;
#X connect 10 0 14 1;
#X connect 11 0 30 0;
#X connect 12 0 29 0;
#X connect 13 0 28 0;
#X connect 14 0 27 0;
#X connect 15 0 16 0;
#X connect 16 0 7 0;
#X connect 16 0 33 0;
#X connect 17 0 25 0;
#X connect 18 0 25 0;
#X connect 19 0 25 0;
#X connect 20 0 25 0;
#X connect 22 0 0 2;
#X connect 23 0 15 0;
#X connect 24 0 10 0;
#X connect 25 0 0 0;
#X connect 25 0 0 1;
#X connect 27 0 17 0;
#X connect 28 0 18 0;
#X connect 29 0 19 0;
#X connect 30 0 20 0;
#X connect 32 0 21 0;
#X connect 33 0 14 0;
#X connect 34 0 13 0;
#X connect 35 0 12 0;
#X connect 36 0 11 0;
#X connect 37 0 39 0;
#X connect 38 0 30 1;
#X connect 38 0 29 1;
#X connect 38 0 28 1;
#X connect 38 0 27 1;
#X connect 39 0 23 0;
#X connect 40 0 43 0;
#X connect 41 0 37 0;
#X connect 42 0 40 0;
#X connect 43 0 24 0;
