#N canvas 4 50 1695 933 12;
#X obj 456 549 cg-switch~, f 32;
#X obj 456 643 outlet~;
#X obj 929 238 inlet~;
#X obj 521 643 outlet~;
#X obj 232 28 r fx-vol;
#X obj 552 35 r fx-time;
#X obj 677 498 r delay-switch;
#X obj 455 465 *~ 0.7;
#X obj 625 464 *~ 0.7;
#X obj 552 103 t a a, f 16;
#X obj 552 184 t a a;
#X obj 624 230 +;
#X obj 661 190 + 0.01;
#X obj 661 166 * 5;
#N canvas 4 50 450 300 tempo-sync 0;
#X obj 303 64 r bpm;
#X obj 303 88 swap 60000;
#X obj 303 114 /, f 10;
#X obj 75 131 i;
#X obj 74 34 inlet;
#X obj 303 162 t b a;
#X obj 75 155 + 1;
#X obj 75 183 / 16;
#X obj 196 254 outlet;
#X obj 196 230 * 2000;
#X obj 303 138 * 2;
#X obj 74 68 pow 2;
#X obj 74 109 * 16;
#X connect 0 0 1 0;
#X connect 1 0 2 0;
#X connect 1 1 2 1;
#X connect 2 0 10 0;
#X connect 3 0 6 0;
#X connect 4 0 11 0;
#X connect 5 0 9 0;
#X connect 5 1 9 1;
#X connect 6 0 7 0;
#X connect 7 0 9 0;
#X connect 9 0 8 0;
#X connect 10 0 5 0;
#X connect 11 0 12 0;
#X connect 12 0 3 0;
#X restore 552 134 pd tempo-sync;
#X obj 661 131 pow 2;
#X obj 232 152 * 0.5;
#X obj 232 176 + 0.5;
#X obj 232 113 route delay;
#X obj 552 59 route delay;
#X text 679 591 always on to catch signal flow before trigger;
#X obj 625 379 smoothDelay~;
#X obj 455 381 smoothDelay~;
#X obj 766 156 i 10;
#X obj 455 310 list trim;
#X obj 625 310 list trim;
#X obj 593 282 t a a;
#X obj 766 96 loadbang;
#X obj 668 266 list prepend delay;
#X obj 455 238 list prepend delay;
#X obj 766 192 list prepend interpolation;
#X obj 233 236 list prepend feedback;
#X obj 232 214 * 65;
#X connect 0 0 1 0;
#X connect 0 1 3 0;
#X connect 2 0 22 1;
#X connect 2 0 21 1;
#X connect 4 0 18 0;
#X connect 5 0 19 0;
#X connect 6 0 0 2;
#X connect 7 0 0 0;
#X connect 8 0 0 1;
#X connect 9 0 14 0;
#X connect 9 1 15 0;
#X connect 10 0 29 0;
#X connect 10 1 11 0;
#X connect 11 0 28 0;
#X connect 12 0 11 1;
#X connect 13 0 12 0;
#X connect 14 0 10 0;
#X connect 15 0 13 0;
#X connect 16 0 17 0;
#X connect 17 0 32 0;
#X connect 18 0 16 0;
#X connect 19 0 9 0;
#X connect 21 1 8 0;
#X connect 22 1 7 0;
#X connect 23 0 30 0;
#X connect 24 0 22 0;
#X connect 25 0 21 0;
#X connect 26 0 24 0;
#X connect 26 1 25 0;
#X connect 27 0 23 0;
#X connect 28 0 25 0;
#X connect 29 0 24 0;
#X connect 30 0 26 0;
#X connect 31 0 26 0;
#X connect 32 0 31 0;
