#N canvas 33 136 998 760 12;
#X obj 443 548 cg-switch~, f 54;
#X obj 818 602 switch~;
#X obj 443 642 outlet~;
#X obj 123 16 inlet~;
#X obj 630 640 outlet~;
#X obj 260 189 t a a;
#X obj 260 14 r fx-vol;
#X obj 153 103 env~;
#X obj 153 127 / 100;
#X obj 153 259 +;
#X obj 153 235 * 2000;
#X obj 260 213 * 4000;
#X obj 380 66 r fx-time;
#X obj 806 436 r envelope-switch;
#X obj 203 343 lop~ 200;
#X obj 153 152 pow 8;
#X obj 380 140 * 5;
#X obj 442 477 *~ 6;
#X obj 283 408 vcf~ 6, f 23;
#X obj 124 382 vcf~ 6, f 23;
#X obj 260 237 + 1000;
#X obj 380 164 + 4;
#X obj 380 90 route envelope;
#X obj 260 38 route envelope;
#X connect 0 0 2 0;
#X connect 0 1 4 0;
#X connect 0 2 1 0;
#X connect 3 0 7 0;
#X connect 3 0 19 0;
#X connect 5 0 11 0;
#X connect 6 0 23 0;
#X connect 7 0 8 0;
#X connect 8 0 15 0;
#X connect 9 0 14 0;
#X connect 10 0 9 0;
#X connect 11 0 20 0;
#X connect 12 0 22 0;
#X connect 13 0 0 2;
#X connect 14 0 18 1;
#X connect 14 0 19 1;
#X connect 15 0 10 0;
#X connect 16 0 21 0;
#X connect 17 0 0 0;
#X connect 17 0 0 1;
#X connect 18 1 17 0;
#X connect 19 1 18 0;
#X connect 20 0 10 1;
#X connect 21 0 15 1;
#X connect 22 0 16 0;
#X connect 23 0 5 0;
