#N canvas 4 50 1508 927 12;
#X obj 112 545 cg-switch~, f 54;
#X obj 487 599 switch~;
#X obj 112 639 outlet~;
#X obj 115 16 inlet~;
#X obj 299 637 outlet~;
#X obj 191 77 t a a;
#X obj 191 32 r fx-vol;
#X obj 474 432 r bitcrush-switch;
#X obj 113 474 *~ 0.7;
#X obj 563 89 i;
#X obj 563 120 + 1;
#X obj 563 35 r fx-time;
#X obj 563 65 * 15;
#X obj 563 163 swap 2;
#X obj 563 187 pow;
#X obj 563 211 - 1;
#X obj 563 242 swap 1;
#X obj 563 266 /;
#N canvas 673 218 751 413 crush-it 0;
#X obj 41 27 inlet~;
#X obj 42 202 outlet~;
#X floatatom 444 123 5 0 0 0 - - -;
#X obj 444 146 swap 1;
#X obj 444 170 /;
#X floatatom 444 194 12 0 0 0 - - -;
#X obj 171 107 block~ 512 2 0.0625;
#X obj 252 235 list trim;
#X obj 252 211 list prepend set 512 2;
#X obj 357 32 r;
#X connect 0 0 1 0;
#X connect 2 0 3 0;
#X connect 3 0 4 0;
#X connect 3 1 4 1;
#X connect 4 0 5 0;
#X connect 4 0 8 0;
#X connect 7 0 6 0;
#X connect 8 0 7 0;
#X restore 118 271 pd crush-it;
#X connect 0 0 2 0;
#X connect 0 1 4 0;
#X connect 0 2 1 0;
#X connect 3 0 18 0;
#X connect 6 0 5 0;
#X connect 7 0 0 2;
#X connect 8 0 0 0;
#X connect 8 0 0 1;
#X connect 9 0 10 0;
#X connect 10 0 13 0;
#X connect 11 0 12 0;
#X connect 12 0 9 0;
#X connect 13 0 14 0;
#X connect 13 1 14 1;
#X connect 14 0 15 0;
#X connect 15 0 16 0;
#X connect 16 0 17 0;
#X connect 16 1 17 1;
#X connect 18 0 8 0;
