#N canvas 4 50 1177 886 12;
#X obj 310 295 line~;
#X obj 310 269 pack 0 200;
#X obj 237 86 r window;
#X obj 19 143 exp;
#X obj 146 189 * 0.001;
#X obj 456 365 pack 0 200;
#X floatatom 456 314 0 0 0 0 - - -;
#X obj 456 288 r delay;
#X obj 19 520 cos~;
#X obj 19 547 *~;
#X obj 19 576 +~;
#X obj 229 424 wrap~;
#X obj 228 530 cos~;
#X obj 228 557 *~;
#X obj 146 216 t b f;
#X obj 229 397 +~ 0.5;
#X obj 19 468 -~ 0.5;
#X obj 19 494 *~ 0.5;
#X obj 228 469 -~ 0.5;
#X obj 228 502 *~ 0.5;
#X obj 19 196 - 1;
#X obj 19 117 * 0.05776;
#X obj 19 222 * -1;
#X text 82 163 speed;
#X text 81 177 change;
#X text 94 252 tape head;
#X obj 19 316 phasor~;
#X obj 456 341 max 1.5;
#X text 459 247 delay;
#X text 456 265 (msec);
#X obj 237 139 max 1;
#X text 95 265 rotation freq;
#X obj 48 717 cg-switch~, f 54;
#X obj 423 771 switch~;
#X obj 48 811 outlet~;
#X obj 235 809 outlet~;
#X obj 171 8 inlet~;
#X obj 172 59 delwrite~ \$0-del 5000;
#X obj 82 520 delread4~ \$0-del;
#X obj 291 532 delread4~ \$0-del;
#X obj 686 89 r fx-vol;
#X obj 580 115 r fx-time;
#X obj 423 626 r pitchshift-switch;
#X obj 697 200 * 24;
#X obj 697 224 - 12;
#X obj 47 646 hip~ 5;
#X obj 291 503 +~ 22;
#X obj 82 494 +~ 22;
#X obj 19 259 / 0.024;
#X obj 82 468 *~ 24;
#X obj 291 470 *~ 24;
#X obj 580 139 route pitchshift;
#X connect 1 0 0 0;
#X connect 3 0 20 0;
#X connect 4 0 14 0;
#X connect 6 0 27 0;
#X connect 7 0 6 0;
#X connect 8 0 9 0;
#X connect 9 0 10 0;
#X connect 10 0 45 0;
#X connect 11 0 18 0;
#X connect 11 0 50 0;
#X connect 12 0 13 0;
#X connect 13 0 10 1;
#X connect 14 0 48 0;
#X connect 14 1 48 1;
#X connect 15 0 11 0;
#X connect 16 0 17 0;
#X connect 17 0 8 0;
#X connect 18 0 19 0;
#X connect 19 0 12 0;
#X connect 20 0 22 0;
#X connect 21 0 3 0;
#X connect 22 0 48 0;
#X connect 26 0 16 0;
#X connect 26 0 15 0;
#X connect 26 0 49 0;
#X connect 27 0 5 0;
#X connect 30 0 4 0;
#X connect 30 0 1 0;
#X connect 32 0 34 0;
#X connect 32 1 35 0;
#X connect 32 2 33 0;
#X connect 36 0 37 0;
#X connect 38 0 9 1;
#X connect 39 0 13 1;
#X connect 41 0 51 0;
#X connect 42 0 32 2;
#X connect 43 0 44 0;
#X connect 44 0 21 0;
#X connect 45 0 32 0;
#X connect 45 0 32 1;
#X connect 46 0 39 0;
#X connect 47 0 38 0;
#X connect 48 0 26 0;
#X connect 49 0 47 0;
#X connect 50 0 46 0;
#X connect 51 0 43 0;
