#N canvas 1071 257 746 587 12;
#X obj 60 25 inlet~;
#X obj 216 253 osc~;
#X obj 59 521 outlet~;
#X obj 60 390 *~;
#X obj 216 10 r fx-time;
#X obj 216 194 pack 0 10;
#X obj 216 218 vline~;
#X obj 216 277 *~, f 16;
#X obj 417 30 r fx-vol;
#X obj 216 115 * 2000;
#X obj 230 392 *~;
#X obj 425 251 osc~;
#X obj 425 192 pack 0 10;
#X obj 425 216 vline~;
#X obj 425 275 *~, f 16;
#X obj 230 516 outlet~;
#X obj 84 431 cg-switch~, f 32;
#X obj 305 475 switch~;
#X obj 305 380 r ringMod-switch;
#X obj 355 303 swap 1;
#X obj 355 327 -;
#X obj 216 301 +~;
#X obj 556 317 swap 1;
#X obj 556 341 -;
#X obj 417 315 +~;
#X obj 216 88 t a a, f 16;
#X obj 216 139 t a a;
#X obj 322 166 +;
#X obj 216 65 pow 3;
#X obj 325 121 * 10;
#X obj 578 231 t a a;
#X obj 417 54 t a a;
#X obj 437 118 t a a;
#X obj 574 173 route ringMod;
#X obj 437 94 route ringMod;
#X obj 216 34 route ringMod;
#X connect 0 0 3 0;
#X connect 0 0 10 0;
#X connect 1 0 7 0;
#X connect 3 0 16 0;
#X connect 4 0 35 0;
#X connect 5 0 6 0;
#X connect 6 0 1 0;
#X connect 7 0 21 0;
#X connect 8 0 31 0;
#X connect 9 0 26 0;
#X connect 10 0 16 1;
#X connect 11 0 14 0;
#X connect 12 0 13 0;
#X connect 13 0 11 0;
#X connect 14 0 24 0;
#X connect 16 0 2 0;
#X connect 16 1 15 0;
#X connect 16 2 17 0;
#X connect 18 0 16 2;
#X connect 19 0 20 0;
#X connect 19 1 20 1;
#X connect 20 0 21 1;
#X connect 21 0 3 1;
#X connect 22 0 23 0;
#X connect 22 1 23 1;
#X connect 23 0 24 1;
#X connect 24 0 10 1;
#X connect 25 0 9 0;
#X connect 25 1 29 0;
#X connect 26 0 5 0;
#X connect 26 1 27 0;
#X connect 27 0 12 0;
#X connect 28 0 25 0;
#X connect 29 0 27 1;
#X connect 30 0 14 1;
#X connect 30 1 22 0;
#X connect 31 0 34 0;
#X connect 31 1 33 0;
#X connect 32 0 7 1;
#X connect 32 1 19 0;
#X connect 33 0 30 0;
#X connect 34 0 32 0;
#X connect 35 0 28 0;
