#N canvas 699 131 1030 708 12;
#X obj 112 545 cg-switch~, f 54;
#X obj 487 599 switch~;
#X obj 112 639 outlet~;
#X obj 123 16 inlet~;
#X obj 299 637 outlet~;
#X obj 260 59 t a a;
#X obj 260 14 r fx-vol;
#X obj 124 229 unpack 0 0 0 0;
#X obj 107 310 osc~;
#X obj 106 346 *~;
#X obj 474 432 r sines-switch;
#X obj 244 236 unpack 0 0 0 0;
#X obj 227 317 osc~;
#X obj 226 353 *~;
#X obj 358 234 unpack 0 0 0 0;
#X obj 341 315 osc~;
#X obj 340 351 *~;
#X obj 478 241 unpack 0 0 0 0;
#X obj 461 322 osc~;
#X obj 460 358 *~;
#X obj 601 239 unpack 0 0 0 0;
#X obj 584 320 osc~;
#X obj 583 356 *~;
#X obj 124 205 route 0 1 2 3 4, f 90;
#X obj 112 474 *~ 0.9;
#X obj 108 279 lop~ 900;
#X obj 162 281 lop~ 900;
#X obj 229 286 lop~ 900;
#X obj 284 288 lop~ 900;
#X obj 342 285 lop~ 900;
#X obj 398 286 lop~ 900;
#X obj 463 291 lop~ 900;
#X obj 519 294 lop~ 900;
#X obj 585 289 lop~ 900;
#X obj 639 292 lop~ 900;
#X obj 124 181 sigmund~ -npeak 5 peaks -npts 2048 -maxfreq 12000;
#X connect 0 0 2 0;
#X connect 0 1 4 0;
#X connect 0 2 1 0;
#X connect 3 0 35 0;
#X connect 6 0 5 0;
#X connect 7 0 25 0;
#X connect 7 1 26 0;
#X connect 8 0 9 0;
#X connect 9 0 24 0;
#X connect 10 0 0 2;
#X connect 11 0 27 0;
#X connect 11 1 28 0;
#X connect 12 0 13 0;
#X connect 13 0 24 0;
#X connect 14 0 29 0;
#X connect 14 1 30 0;
#X connect 15 0 16 0;
#X connect 16 0 24 0;
#X connect 17 0 31 0;
#X connect 17 1 32 0;
#X connect 18 0 19 0;
#X connect 19 0 24 0;
#X connect 20 0 33 0;
#X connect 20 1 34 0;
#X connect 21 0 22 0;
#X connect 22 0 24 0;
#X connect 23 0 7 0;
#X connect 23 1 11 0;
#X connect 23 2 14 0;
#X connect 23 3 17 0;
#X connect 23 4 20 0;
#X connect 24 0 0 0;
#X connect 24 0 0 1;
#X connect 25 0 8 0;
#X connect 26 0 9 1;
#X connect 27 0 12 0;
#X connect 28 0 13 1;
#X connect 29 0 15 0;
#X connect 30 0 16 1;
#X connect 31 0 18 0;
#X connect 32 0 19 1;
#X connect 33 0 21 0;
#X connect 34 0 22 1;
#X connect 35 0 23 0;
