#N canvas 59 50 1303 847 12;
#X declare -path cg-pd-library-local/sampling;
#X declare -path cg-pd-library-local/sequencer;
#X declare -path cg-pd-library-local/externals;
#X declare -path cg-pd-library-local/metronome;
#N canvas 410 80 553 392 load 0;
#X obj 67 34 loadbang;
#X obj 8 29 inlet;
#X obj 142 236 s init-aux;
#X obj 173 152 s init-seq3;
#X obj 67 115 t b b b b b b b;
#X obj 161 208 s current-page;
#X obj 161 178 i 1;
#X obj 119 272 s sc-init;
#X obj 52 370 s recall-amt;
#X obj 44 270 del 300;
#X obj 224 338 list prepend all;
#X msg 224 304 init;
#X obj 224 362 s \$0-2-canna;
#X obj 83 340 s init-play;
#X obj 44 294 t b b b;
#X obj 404 278 s init-mute;
#X obj 313 142 del 800;
#X connect 0 0 4 0;
#X connect 1 0 4 0;
#X connect 4 2 9 0;
#X connect 4 3 7 0;
#X connect 4 4 2 0;
#X connect 4 5 6 0;
#X connect 4 6 3 0;
#X connect 4 6 16 0;
#X connect 6 0 5 0;
#X connect 9 0 14 0;
#X connect 10 0 12 0;
#X connect 11 0 10 0;
#X connect 14 0 8 0;
#X connect 14 1 13 0;
#X connect 14 2 11 0;
#X connect 16 0 15 0;
#X restore 37 84 pd load;
#X text 96 84 init sequence;
#X text 120 133 critter library of abstractions;
#N canvas 129 187 450 300 cg-pd-library-local 0;
#X obj 502 35 r cgSc-1-slots;
#X obj 60 68 declare -path cg-pd-library-local/sampling;
#X obj 60 98 declare -path cg-pd-library-local/sequencer;
#X obj 58 130 declare -path cg-pd-library-local/externals;
#X obj 59 165 declare -path cg-pd-library-local/metronome;
#X restore 37 115 pd cg-pd-library-local;
#X obj 37 62 bng 15 250 50 0 empty empty empty 17 7 0 10 -262144 -1
-1;
#X obj 47 670 s run-random;
#N canvas 19 51 906 625 metro-here 0;
#X obj 54 14 loadbang;
#X msg 54 111 1;
#X obj 177 241 pack, f 10;
#X obj 212 209 t b a;
#X obj 164 9 inlet;
#X obj 54 303 s beat-clock;
#X obj 177 300 s print-tempo-local;
#X obj 115 207 s bpm;
#X obj 54 151 metronome360 1, f 18;
#X connect 0 0 1 0;
#X connect 1 0 8 0;
#X connect 2 0 6 0;
#X connect 3 0 2 0;
#X connect 3 1 2 1;
#X connect 4 0 8 1;
#X connect 8 0 5 0;
#X connect 8 1 3 0;
#X connect 8 1 7 0;
#X connect 8 2 2 0;
#X restore 48 220 pd metro-here;
#X obj 48 188 r set-global-bpm;
#X obj 87 597 + 1;
#X obj 87 621 == 1;
#X obj 47 593 i 1;
#X obj 800 21 r run-random;
#N canvas 584 84 642 668 audio-InOut 0;
#X obj 173 638 throw~ outL;
#X obj 171 505 hip~ 5;
#X obj 291 507 hip~ 5;
#X obj 295 627 throw~ outR;
#X obj 88 71 r~ inL;
#X obj 125 135 s~ in-bus;
#X obj 171 475 *~;
#X obj 292 477 *~;
#X obj 219 175 t a a, f 11;
#X obj 219 208 swap 1;
#X obj 219 232 -;
#X obj 293 268 sqrt;
#X obj 219 266 sqrt;
#X obj 219 307 pack 0 10;
#X obj 219 331 vline~;
#X obj 293 304 pack 0 10;
#X obj 293 328 vline~;
#X obj 87 397 *~;
#X obj 219 131 r glob-dry-wet;
#X obj 428 309 inlet~;
#X obj 499 308 inlet~;
#X obj 173 579 *~;
#X obj 295 586 *~;
#X obj 468 434 r init-mute;
#X obj 468 458 i 1;
#X obj 468 482 pack 0 10;
#X obj 468 522 line~;
#X connect 1 0 21 0;
#X connect 2 0 22 0;
#X connect 4 0 5 0;
#X connect 4 0 17 0;
#X connect 6 0 1 0;
#X connect 7 0 2 0;
#X connect 8 0 9 0;
#X connect 8 1 11 0;
#X connect 9 0 10 0;
#X connect 9 1 10 1;
#X connect 10 0 12 0;
#X connect 11 0 15 0;
#X connect 12 0 13 0;
#X connect 13 0 14 0;
#X connect 14 0 17 1;
#X connect 15 0 16 0;
#X connect 16 0 7 1;
#X connect 16 0 6 1;
#X connect 17 0 1 0;
#X connect 17 0 2 0;
#X connect 18 0 8 0;
#X connect 19 0 6 0;
#X connect 20 0 7 0;
#X connect 21 0 0 0;
#X connect 22 0 3 0;
#X connect 23 0 24 0;
#X connect 24 0 25 0;
#X connect 25 0 26 0;
#X connect 26 0 22 1;
#X connect 26 0 21 1;
#X restore 327 778 pd audio-InOut;
#X obj 431 45 r beat-clock;
#X obj 488 277 sel 0;
#X obj 488 115 r \$0-2-tick-counter;
#X msg 611 184 syncStart bang;
#X obj 488 243 cg-tick-counter;
#N canvas 146 50 1440 995 knobs 0;
#X obj 28 344 0.25;
#X obj 68 325 0.3333;
#X obj 117 302 0.5;
#X obj 154 303 1;
#X obj 190 301 2;
#X obj 28 166 + 0.49999;
#X obj 28 190 i;
#X obj 122 396 t a;
#X obj 428 177 * 15;
#X obj 428 201 + 1;
#X obj 428 225 i;
#X text 9 384 comment;
#X msg 66 437 16th;
#X msg 112 437 12th;
#X msg 175 421 8th;
#X msg 199 396 Quarter;
#X msg 260 372 Half;
#X msg 291 342 Whole;
#X obj 28 238 sel 0 1 2 3 4 5, f 40;
#X obj 239 305 4;
#X obj 175 488 symbol;
#X obj 28 142 * 5;
#X obj 429 261 t b a a;
#X obj 298 464 * 1;
#X obj 298 431 f;
#X obj 298 494 s freeze-timer;
#X obj 28 89 r knob2;
#X obj 428 153 r knob3;
#X obj 175 776 s screenLine2;
#X obj 646 53 r knob1;
#X obj 646 77 * 200;
#X obj 646 101 + 20;
#X obj 646 155 s set-global-bpm;
#X obj 646 125 i;
#X obj 1079 57 r print-tempo-local;
#X obj 1070 245 route 1 2 3 4, f 19;
#X obj 1102 385 list prepend Link;
#X obj 1135 354 list prepend MIDI;
#X obj 1137 473 s screenLine1;
#X obj 1136 418 list prepend 1: Tempo:;
#X obj 1167 322 list prepend;
#X obj 1136 442 list append BPM;
#X obj 475 524 s screenLine3;
#X obj 709 462 r knob4;
#X obj 709 486 t a a;
#X obj 755 549 * 100;
#X obj 755 573 i;
#X msg 755 621 4: Dry/Wet: \$1%;
#X obj 755 645 s screenLine4;
#X obj 642 581 s glob-dry-wet;
#X obj 938 648 text define names;
#X obj 938 548 loadbang;
#X msg 938 573 read names.txt;
#X obj 175 512 list prepend 1;
#X obj 175 536 list trim;
#X obj 175 646 route 1;
#X obj 175 676 list prepend 2: Note:;
#X obj 175 708 list trim;
#X msg 957 596 write names.txt;
#X obj 475 441 makefilename %dx;
#X obj 475 465 list prepend 3: Note Amt:;
#X obj 475 489 list trim;
#X connect 0 0 7 0;
#X connect 1 0 7 0;
#X connect 2 0 7 0;
#X connect 3 0 7 0;
#X connect 4 0 7 0;
#X connect 5 0 6 0;
#X connect 6 0 18 0;
#X connect 7 0 24 0;
#X connect 8 0 9 0;
#X connect 9 0 10 0;
#X connect 10 0 22 0;
#X connect 12 0 20 0;
#X connect 13 0 20 0;
#X connect 14 0 20 0;
#X connect 15 0 20 0;
#X connect 16 0 20 0;
#X connect 17 0 20 0;
#X connect 18 0 0 0;
#X connect 18 0 12 0;
#X connect 18 1 1 0;
#X connect 18 1 13 0;
#X connect 18 2 2 0;
#X connect 18 2 14 0;
#X connect 18 3 3 0;
#X connect 18 3 15 0;
#X connect 18 4 4 0;
#X connect 18 4 16 0;
#X connect 18 5 19 0;
#X connect 18 5 17 0;
#X connect 19 0 7 0;
#X connect 20 0 53 0;
#X connect 21 0 5 0;
#X connect 22 0 24 0;
#X connect 22 1 23 1;
#X connect 22 2 59 0;
#X connect 23 0 25 0;
#X connect 24 0 23 0;
#X connect 26 0 21 0;
#X connect 27 0 8 0;
#X connect 29 0 30 0;
#X connect 30 0 31 0;
#X connect 31 0 33 0;
#X connect 33 0 32 0;
#X connect 34 0 35 0;
#X connect 35 0 40 0;
#X connect 35 1 37 0;
#X connect 35 2 36 0;
#X connect 35 3 40 0;
#X connect 36 0 39 0;
#X connect 37 0 39 0;
#X connect 39 0 41 0;
#X connect 40 0 39 0;
#X connect 41 0 38 0;
#X connect 43 0 44 0;
#X connect 44 0 49 0;
#X connect 44 1 45 0;
#X connect 45 0 46 0;
#X connect 46 0 47 0;
#X connect 47 0 48 0;
#X connect 51 0 52 0;
#X connect 52 0 50 0;
#X connect 53 0 54 0;
#X connect 54 0 55 0;
#X connect 55 0 56 0;
#X connect 56 0 57 0;
#X connect 57 0 28 0;
#X connect 59 0 60 0;
#X connect 60 0 61 0;
#X connect 61 0 42 0;
#X restore 59 412 pd knobs;
#X obj 590 41 r freeze-timer;
#X obj 845 124 sel 0 1, f 19;
#X msg 690 206 stop;
#X obj 590 65 list prepend length;
#X obj 590 89 list trim;
#N canvas 4 50 793 594 led 0;
#X obj 33 15 inlet;
#X obj 231 272 s led;
#X obj 174 112 del 100, f 9;
#X msg 218 70 stop;
#X obj 136 138 r run-random;
#X obj 89 201 sel 0 1;
#X obj 250 223 i 7;
#X obj 139 235 i 3;
#X obj 89 235 i 0;
#X obj 172 41 t b b b;
#X obj 118 166 i;
#X obj 373 81 r run-random;
#X obj 373 105 sel 0;
#X obj 365 145 t b b;
#X obj 365 169 i 0;
#X connect 0 0 9 0;
#X connect 2 0 10 0;
#X connect 3 0 2 0;
#X connect 4 0 10 1;
#X connect 5 0 8 0;
#X connect 5 1 7 0;
#X connect 6 0 1 0;
#X connect 7 0 1 0;
#X connect 8 0 1 0;
#X connect 9 0 2 0;
#X connect 9 1 6 0;
#X connect 9 2 3 0;
#X connect 10 0 5 0;
#X connect 11 0 12 0;
#X connect 12 0 13 0;
#X connect 13 0 14 0;
#X connect 13 1 3 0;
#X connect 14 0 1 0;
#X restore 511 377 pd led;
#X obj 534 350 s \$0-update;
#X obj 898 33 r \$0-update;
#X obj 325 530 r~ in-bus;
#X msg 910 180 Play;
#X msg 845 208 Pause;
#X obj 456 587 list trim;
#X obj 456 558 r \$0-2-canna;
#X obj 488 311 t b b b;
#X obj 58 341 s notes-sc;
#X obj 47 562 t b;
#X obj 47 508 r aux;
#X obj 488 428 s \$0-2-canna;
#X obj 488 402 list prepend all gen;
#X obj 845 281 s print-play;
#X obj 1092 172 s midi-start;
#X obj 800 46 t a a;
#X obj 642 156 sel 1 0;
#X obj 845 85 i;
#X obj 907 76 r init-play;
#X obj 907 100 i 0;
#X msg 559 595 0 sel 1;
#X obj 559 559 r init-play;
#X obj 58 294 r notes;
#X obj 47 532 sel 1;
#X obj 618 671 list store;
#X obj 653 603 r print-play;
#X obj 653 627 t b a;
#X obj 617 777 list append;
#X obj 457 711 t b a;
#X obj 617 801 s screenLine5;
#X obj 456 680 route 0;
#X obj 328 640 clone canna-randa-og1 1;
#X text 218 64 fixed pseduo-random gen;
#X text 221 40 Cannabits for OG1;
#X obj 141 503 r fs;
#X obj 141 527 sel 1;
#X connect 4 0 0 0;
#X connect 7 0 6 0;
#X connect 8 0 9 0;
#X connect 9 0 10 1;
#X connect 10 0 8 0;
#X connect 10 0 5 0;
#X connect 11 0 40 0;
#X connect 13 0 17 0;
#X connect 14 0 32 0;
#X connect 15 0 17 1;
#X connect 16 0 17 1;
#X connect 17 0 14 0;
#X connect 19 0 22 0;
#X connect 20 0 29 0;
#X connect 20 1 28 0;
#X connect 20 1 39 0;
#X connect 21 0 17 1;
#X connect 22 0 23 0;
#X connect 23 0 17 1;
#X connect 26 0 42 0;
#X connect 27 0 56 0;
#X connect 28 0 38 0;
#X connect 29 0 38 0;
#X connect 30 0 56 1;
#X connect 31 0 30 0;
#X connect 32 0 37 0;
#X connect 32 1 24 0;
#X connect 32 2 25 0;
#X connect 34 0 10 0;
#X connect 35 0 48 0;
#X connect 37 0 36 0;
#X connect 40 0 41 0;
#X connect 40 1 42 0;
#X connect 41 0 16 0;
#X connect 41 1 21 0;
#X connect 42 0 20 0;
#X connect 43 0 44 0;
#X connect 44 0 42 0;
#X connect 45 0 56 1;
#X connect 46 0 45 0;
#X connect 47 0 33 0;
#X connect 48 0 34 0;
#X connect 49 0 52 0;
#X connect 50 0 51 0;
#X connect 51 0 49 0;
#X connect 51 1 49 1;
#X connect 52 0 54 0;
#X connect 53 0 49 0;
#X connect 53 1 52 1;
#X connect 55 0 53 0;
#X connect 56 0 12 0;
#X connect 56 1 12 1;
#X connect 56 2 55 0;
#X connect 59 0 60 0;
#X connect 60 0 34 0;
