#N canvas 59 50 1303 682 12;
#X declare -path cg-pd-library-local/sampling;
#X declare -path cg-pd-library-local/sequencer;
#X declare -path cg-pd-library-local/externals;
#X declare -path cg-pd-library-local/metronome;
#N canvas 970 83 552 392 load 0;
#X obj 67 34 loadbang;
#X obj 8 29 inlet;
#X obj 142 236 s init-aux;
#X obj 173 152 s init-seq3;
#X obj 67 115 t b b b b b b b;
#X obj 161 208 s current-page;
#X obj 161 178 i 1;
#X obj 119 272 s sc-init;
#X obj 42 360 s recall-amt;
#X obj 34 260 del 300;
#X obj 214 328 list prepend all;
#X msg 214 294 init;
#X obj 214 352 s \$0-2-canna;
#X obj 99 320 s init-play;
#X obj 394 268 s init-mute;
#X obj 303 132 del 800;
#X obj 35 284 t b b b;
#X connect 0 0 4 0;
#X connect 1 0 4 0;
#X connect 4 2 9 0;
#X connect 4 3 7 0;
#X connect 4 4 2 0;
#X connect 4 5 6 0;
#X connect 4 6 3 0;
#X connect 4 6 15 0;
#X connect 6 0 5 0;
#X connect 9 0 16 0;
#X connect 10 0 12 0;
#X connect 11 0 10 0;
#X connect 15 0 14 0;
#X connect 16 0 8 0;
#X connect 16 1 11 0;
#X connect 16 2 13 0;
#X restore 27 74 pd load;
#X text 86 74 init sequence;
#X text 110 123 critter library of abstractions;
#N canvas 129 187 450 300 cg-pd-library-local 0;
#X obj 502 35 r cgSc-1-slots;
#X obj 60 68 declare -path cg-pd-library-local/sampling;
#X obj 60 98 declare -path cg-pd-library-local/sequencer;
#X obj 58 130 declare -path cg-pd-library-local/externals;
#X obj 59 165 declare -path cg-pd-library-local/metronome;
#X restore 27 105 pd cg-pd-library-local;
#X obj 27 52 bng 15 250 50 0 empty empty empty 17 7 0 10 -262144 -1
-1;
#X obj 76 701 s run-random;
#N canvas 19 50 902 626 metro-here 0;
#X obj 54 14 loadbang;
#X msg 54 111 1;
#X obj 177 241 pack, f 10;
#X obj 212 209 t b a;
#X obj 164 9 inlet;
#X obj 54 303 s beat-clock;
#X obj 177 300 s print-tempo-local;
#X obj 115 207 s bpm;
#X obj 54 151 metronome360 1, f 18;
#X connect 0 0 1 0;
#X connect 1 0 8 0;
#X connect 2 0 6 0;
#X connect 3 0 2 0;
#X connect 3 1 2 1;
#X connect 4 0 8 1;
#X connect 8 0 5 0;
#X connect 8 1 3 0;
#X connect 8 1 7 0;
#X connect 8 2 2 0;
#X restore 38 210 pd metro-here;
#X obj 38 178 r set-global-bpm;
#X obj 116 628 + 1;
#X obj 116 652 == 1;
#X obj 76 624 i 1;
#X obj 790 11 r run-random;
#N canvas 4 51 642 668 audio-InOut 0;
#X obj 170 621 throw~ outL;
#X obj 171 505 hip~ 5;
#X obj 291 507 hip~ 5;
#X obj 290 623 throw~ outR;
#X obj 88 71 r~ inL;
#X obj 125 135 s~ in-bus;
#X obj 171 475 *~;
#X obj 292 477 *~;
#X obj 219 175 t a a, f 11;
#X obj 219 208 swap 1;
#X obj 219 232 -;
#X obj 293 268 sqrt;
#X obj 219 266 sqrt;
#X obj 219 307 pack 0 10;
#X obj 219 331 vline~;
#X obj 293 304 pack 0 10;
#X obj 293 328 vline~;
#X obj 87 397 *~;
#X obj 219 131 r glob-dry-wet;
#X obj 428 309 inlet~;
#X obj 499 308 inlet~;
#X obj 171 569 *~;
#X obj 291 571 *~;
#X obj 425 435 r init-mute;
#X obj 425 459 i 1;
#X obj 425 483 pack 0 10;
#X obj 425 523 line~;
#X connect 1 0 21 0;
#X connect 2 0 22 0;
#X connect 4 0 5 0;
#X connect 4 0 17 0;
#X connect 6 0 1 0;
#X connect 7 0 2 0;
#X connect 8 0 9 0;
#X connect 8 1 11 0;
#X connect 9 0 10 0;
#X connect 9 1 10 1;
#X connect 10 0 12 0;
#X connect 11 0 15 0;
#X connect 12 0 13 0;
#X connect 13 0 14 0;
#X connect 14 0 17 1;
#X connect 15 0 16 0;
#X connect 16 0 7 1;
#X connect 16 0 6 1;
#X connect 17 0 2 0;
#X connect 17 0 1 0;
#X connect 18 0 8 0;
#X connect 19 0 6 0;
#X connect 20 0 7 0;
#X connect 21 0 0 0;
#X connect 22 0 3 0;
#X connect 23 0 24 0;
#X connect 24 0 25 0;
#X connect 25 0 26 0;
#X connect 26 0 22 1;
#X connect 26 0 21 1;
#X restore 317 788 pd audio-InOut;
#X obj 478 36 r beat-clock;
#X obj 478 267 sel 0;
#X obj 548 115 r \$0-2-tick-counter;
#X msg 601 174 syncStart bang;
#X obj 478 233 cg-tick-counter;
#N canvas 146 50 1440 995 knobs 0;
#X obj 28 344 0.25;
#X obj 68 325 0.3333;
#X obj 117 302 0.5;
#X obj 154 303 1;
#X obj 190 301 2;
#X obj 28 166 + 0.49999;
#X obj 28 190 i;
#X obj 122 396 t a;
#X obj 428 177 * 15;
#X obj 428 201 + 1;
#X obj 428 225 i;
#X text 9 384 comment;
#X msg 66 437 16th;
#X msg 112 437 12th;
#X msg 175 421 8th;
#X msg 199 396 Quarter;
#X msg 260 372 Half;
#X msg 291 342 Whole;
#X obj 28 238 sel 0 1 2 3 4 5, f 40;
#X obj 239 305 4;
#X obj 175 488 symbol;
#X obj 28 142 * 5;
#X obj 429 261 t b a a;
#X obj 298 464 * 1;
#X obj 298 431 f;
#X obj 298 494 s freeze-timer;
#X obj 28 89 r knob2;
#X obj 428 153 r knob3;
#X obj 174 816 s screenLine2;
#X obj 646 53 r knob1;
#X obj 646 77 * 200;
#X obj 646 101 + 20;
#X obj 646 155 s set-global-bpm;
#X obj 646 125 i;
#X obj 1079 57 r print-tempo-local;
#X obj 1070 245 route 1 2 3 4, f 19;
#X obj 1102 385 list prepend Link;
#X obj 1135 354 list prepend MIDI;
#X obj 1137 473 s screenLine1;
#X obj 1136 418 list prepend 1: Tempo:;
#X obj 1167 322 list prepend;
#X obj 1136 442 list append BPM;
#X obj 475 524 s screenLine3;
#X obj 709 462 r knob4;
#X obj 709 486 t a a;
#X obj 755 549 * 100;
#X obj 755 573 i;
#X msg 755 621 4: Dry/Wet: \$1%;
#X obj 755 645 s screenLine4;
#X obj 642 581 s glob-dry-wet;
#X obj 938 648 text define names;
#X obj 938 548 loadbang;
#X msg 938 573 read names.txt;
#X obj 226 588 r cgSc-1-mute-print;
#X obj 277 624 r current-page;
#X obj 175 677 cg-page-print 1;
#X obj 526 321 r cgSc-1-mute-print;
#X obj 577 357 r current-page;
#X obj 475 410 cg-page-print 1;
#X obj 818 422 r cgSc-1-mute-print;
#X obj 869 458 r current-page;
#X obj 767 511 cg-page-print 1;
#X obj 1121 119 r cgSc-1-mute-print;
#X obj 1172 155 r current-page;
#X obj 1070 208 cg-page-print 1;
#X obj 175 512 list prepend 1;
#X obj 175 536 list trim;
#X obj 175 701 route 1;
#X obj 174 724 list prepend 2: Note:;
#X obj 174 748 list trim;
#X msg 957 596 write names.txt;
#X obj 475 441 makefilename %dx;
#X obj 475 465 list prepend 3: Note Amt:;
#X obj 475 489 list trim;
#X connect 0 0 7 0;
#X connect 1 0 7 0;
#X connect 2 0 7 0;
#X connect 3 0 7 0;
#X connect 4 0 7 0;
#X connect 5 0 6 0;
#X connect 6 0 18 0;
#X connect 7 0 24 0;
#X connect 8 0 9 0;
#X connect 9 0 10 0;
#X connect 10 0 22 0;
#X connect 12 0 20 0;
#X connect 13 0 20 0;
#X connect 14 0 20 0;
#X connect 15 0 20 0;
#X connect 16 0 20 0;
#X connect 17 0 20 0;
#X connect 18 0 0 0;
#X connect 18 0 12 0;
#X connect 18 1 1 0;
#X connect 18 1 13 0;
#X connect 18 2 2 0;
#X connect 18 2 14 0;
#X connect 18 3 3 0;
#X connect 18 3 15 0;
#X connect 18 4 4 0;
#X connect 18 4 16 0;
#X connect 18 5 19 0;
#X connect 18 5 17 0;
#X connect 19 0 7 0;
#X connect 20 0 65 0;
#X connect 21 0 5 0;
#X connect 22 0 24 0;
#X connect 22 1 23 1;
#X connect 22 2 58 0;
#X connect 23 0 25 0;
#X connect 24 0 23 0;
#X connect 26 0 21 0;
#X connect 27 0 8 0;
#X connect 29 0 30 0;
#X connect 30 0 31 0;
#X connect 31 0 33 0;
#X connect 33 0 32 0;
#X connect 34 0 64 0;
#X connect 35 0 40 0;
#X connect 35 1 37 0;
#X connect 35 2 36 0;
#X connect 35 3 40 0;
#X connect 36 0 39 0;
#X connect 37 0 39 0;
#X connect 39 0 41 0;
#X connect 40 0 39 0;
#X connect 41 0 38 0;
#X connect 43 0 44 0;
#X connect 44 0 49 0;
#X connect 44 1 61 0;
#X connect 45 0 46 0;
#X connect 46 0 47 0;
#X connect 47 0 48 0;
#X connect 51 0 52 0;
#X connect 52 0 50 0;
#X connect 53 0 55 1;
#X connect 54 0 55 2;
#X connect 55 0 67 0;
#X connect 56 0 58 1;
#X connect 57 0 58 2;
#X connect 58 0 71 0;
#X connect 59 0 61 1;
#X connect 60 0 61 2;
#X connect 61 0 45 0;
#X connect 62 0 64 1;
#X connect 63 0 64 2;
#X connect 64 0 35 0;
#X connect 65 0 66 0;
#X connect 66 0 55 0;
#X connect 67 0 68 0;
#X connect 68 0 69 0;
#X connect 69 0 28 0;
#X connect 71 0 72 0;
#X connect 72 0 73 0;
#X connect 73 0 42 0;
#X restore 49 402 pd knobs;
#X obj 580 31 r freeze-timer;
#X obj 835 114 sel 0 1, f 19;
#X msg 680 196 stop;
#X obj 580 55 list prepend length;
#X obj 580 79 list trim;
#N canvas 4 50 793 594 led 0;
#X obj 33 15 inlet;
#X obj 231 272 s led;
#X obj 174 112 del 100, f 9;
#X msg 218 70 stop;
#X obj 136 138 r run-random;
#X obj 89 201 sel 0 1;
#X obj 250 223 i 7;
#X obj 139 235 i 3;
#X obj 89 235 i 0;
#X obj 172 41 t b b b;
#X obj 118 166 i;
#X obj 373 81 r run-random;
#X obj 373 105 sel 0;
#X obj 365 145 t b b;
#X obj 365 169 i 0;
#X connect 0 0 9 0;
#X connect 2 0 10 0;
#X connect 3 0 2 0;
#X connect 4 0 10 1;
#X connect 5 0 8 0;
#X connect 5 1 7 0;
#X connect 6 0 1 0;
#X connect 7 0 1 0;
#X connect 8 0 1 0;
#X connect 9 0 2 0;
#X connect 9 1 6 0;
#X connect 9 2 3 0;
#X connect 10 0 5 0;
#X connect 11 0 12 0;
#X connect 12 0 13 0;
#X connect 13 0 14 0;
#X connect 13 1 3 0;
#X connect 14 0 1 0;
#X restore 501 367 pd led;
#X obj 524 340 s \$0-update;
#X obj 888 23 r \$0-update;
#X obj 318 543 r~ in-bus;
#X msg 900 170 Play;
#X msg 835 198 Pause;
#X obj 316 619 clone canna-randa 3;
#X obj 446 577 list trim;
#X obj 446 548 r \$0-2-canna;
#X obj 478 301 t b b b;
#X obj 48 250 r init-aux;
#X obj 48 331 s notes-sc;
#X obj 48 307 cg-shortcut 1;
#X obj 44 527 r cgSc-1-1;
#X obj 44 551 sel 0;
#X obj 76 593 t b;
#X msg 48 274 init;
#X obj 132 256 r aux;
#X obj 136 281 r \$0-reprint-port;
#X obj 1022 249 s cgSc-1-1label;
#X obj 478 418 s \$0-2-canna;
#X msg 1022 207 Paused;
#X msg 1082 207 Playing;
#N canvas 21 50 1227 674 voice-select 0;
#X obj 87 50 sel 0 1 2;
#X msg 87 141 0 sel 1 \, 1 sel 0 \, 2 sel 0;
#X msg 133 115 0 sel 1 \, 1 sel 1 \, 2 sel 0;
#X msg 189 86 0 sel 1 \, 1 sel 1 \, 2 sel 1;
#X obj 87 165 s \$0-2-canna;
#X obj 529 44 sel 0;
#X obj 561 71 t b;
#X obj 610 44 sel 0;
#X obj 642 71 t b;
#X obj 529 20 r cgSc-1-3;
#X obj 610 20 r cgSc-1-4;
#X obj 693 45 sel 0;
#X obj 725 72 t b;
#X obj 693 21 r cgSc-1-5;
#X obj 515 377 s cgSc-1-3label;
#X obj 638 299 sel 0 1;
#X obj 679 372 s cgSc-1-4label;
#X obj 823 288 sel 0 1;
#X obj 864 361 s cgSc-1-5label;
#X obj 91 528 text define save-params;
#X obj 34 218 r saveState;
#X obj 72 368 t a b;
#X obj 70 419 text set save-params;
#X obj 106 393 i 0;
#X msg 56 470 write save-p.txt;
#X obj 324 328 r recall-amt;
#X msg 400 471 read save-p.txt;
#X obj 72 344 i 0;
#X obj 324 352 t b b;
#X obj 353 523 i 0;
#X obj 353 547 text get save-params;
#X obj 578 176 s fx-switch;
#X obj 393 82 r set-fx-switch;
#X obj 561 95 i 0;
#X obj 642 95 i 1;
#X obj 725 96 i 2;
#X obj 89 308 r fx-switch;
#X obj 34 242 t b b;
#X obj 353 571 s set-fx-switch;
#X obj 87 19 r fx-switch;
#X obj 492 243 r fx-switch;
#X obj 492 302 sel 0 1 2;
#X msg 452 343 1Fx: Off;
#X msg 545 343 1Fx: On;
#X msg 611 340 2Fx: Off;
#X msg 679 338 2Fx: On;
#X msg 788 326 3Fx: Off;
#X msg 864 327 3Fx: On;
#X obj 492 277 == 0;
#X obj 639 234 r fx-switch;
#X obj 639 268 == 1;
#X obj 826 223 r fx-switch;
#X obj 826 257 == 2;
#X connect 0 0 1 0;
#X connect 0 1 2 0;
#X connect 0 2 3 0;
#X connect 1 0 4 0;
#X connect 2 0 4 0;
#X connect 3 0 4 0;
#X connect 5 1 6 0;
#X connect 6 0 33 0;
#X connect 7 1 8 0;
#X connect 8 0 34 0;
#X connect 9 0 5 0;
#X connect 10 0 7 0;
#X connect 11 1 12 0;
#X connect 12 0 35 0;
#X connect 13 0 11 0;
#X connect 15 0 44 0;
#X connect 15 1 45 0;
#X connect 17 0 46 0;
#X connect 17 1 47 0;
#X connect 20 0 37 0;
#X connect 21 0 22 0;
#X connect 21 1 23 0;
#X connect 23 0 22 1;
#X connect 24 0 19 0;
#X connect 25 0 28 0;
#X connect 26 0 19 0;
#X connect 27 0 21 0;
#X connect 28 0 29 0;
#X connect 28 1 26 0;
#X connect 29 0 30 0;
#X connect 30 0 38 0;
#X connect 32 0 31 0;
#X connect 33 0 31 0;
#X connect 34 0 31 0;
#X connect 35 0 31 0;
#X connect 36 0 27 1;
#X connect 37 0 24 0;
#X connect 37 1 27 0;
#X connect 39 0 0 0;
#X connect 40 0 48 0;
#X connect 41 0 42 0;
#X connect 41 1 43 0;
#X connect 42 0 14 0;
#X connect 43 0 14 0;
#X connect 44 0 16 0;
#X connect 45 0 16 0;
#X connect 46 0 18 0;
#X connect 47 0 18 0;
#X connect 48 0 41 0;
#X connect 49 0 50 0;
#X connect 50 0 15 0;
#X connect 51 0 52 0;
#X connect 52 0 17 0;
#X restore 50 436 pd voice-select;
#N canvas 4 50 878 775 print 0;
#X obj 29 24 inlet;
#X obj 323 16 inlet;
#X obj 315 702 s screenLine5;
#X obj 366 582 r cgSc-1-mute-print;
#X obj 417 618 r current-page;
#X obj 315 671 cg-page-print 1;
#X obj 323 40 t b a;
#X obj 297 619 list trim;
#X obj 62 286 list store;
#X obj 190 293 list store;
#X obj 321 319 list store;
#X obj 325 237 route 0 1 2, f 26;
#X obj 29 58 t b a;
#X obj 117 522 list append, f 19;
#X obj 117 493 list append;
#X obj 71 242 spigot 0;
#X obj 151 193 spigot 0;
#X obj 231 201 spigot;
#X obj 62 167 t b b b b, f 37;
#X obj 231 359 t b b b;
#X obj 98 95 t b a;
#X obj 151 86 t b a;
#X obj 203 88 t b a;
#X obj 98 61 >= 0;
#X obj 151 62 >= 1;
#X obj 203 64 >= 2;
#X obj 97 11 r fx-switch;
#X obj 117 546 list prepend, f 38;
#X connect 0 0 12 0;
#X connect 1 0 6 0;
#X connect 3 0 5 1;
#X connect 4 0 5 2;
#X connect 5 0 2 0;
#X connect 6 0 18 0;
#X connect 6 1 27 1;
#X connect 7 0 5 0;
#X connect 8 0 14 0;
#X connect 9 0 14 1;
#X connect 10 0 13 1;
#X connect 11 0 8 1;
#X connect 11 1 9 1;
#X connect 11 2 10 1;
#X connect 12 0 18 0;
#X connect 12 1 11 0;
#X connect 13 0 27 0;
#X connect 14 0 13 0;
#X connect 15 0 8 0;
#X connect 16 0 9 0;
#X connect 17 0 10 0;
#X connect 18 0 15 0;
#X connect 18 1 16 0;
#X connect 18 2 17 0;
#X connect 18 3 19 0;
#X connect 19 1 14 1;
#X connect 19 2 13 1;
#X connect 20 0 18 0;
#X connect 20 1 15 1;
#X connect 21 0 18 0;
#X connect 21 1 16 1;
#X connect 22 0 18 0;
#X connect 22 1 17 1;
#X connect 23 0 20 0;
#X connect 24 0 21 0;
#X connect 25 0 22 0;
#X connect 26 0 23 0;
#X connect 26 0 24 0;
#X connect 26 0 25 0;
#X connect 27 0 7 0;
#X restore 446 649 pd print;
#X obj 478 392 list prepend all gen;
#X obj 854 276 s print-play;
#X obj 499 618 r print-play;
#X obj 635 619 pack 0 10;
#X obj 316 723 *~;
#X obj 412 726 *~;
#X obj 635 643 vline~;
#X obj 603 551 f 0.92;
#X obj 659 549 f 0.9;
#X obj 619 456 r fx-switch;
#X obj 619 500 sel 0 1 2, f 14;
#X obj 1082 162 s midi-start;
#X obj 790 36 t a a;
#X obj 632 146 sel 1 0;
#X obj 835 75 i;
#X obj 704 549 f 0.65;
#X obj 897 66 r init-play;
#X obj 897 90 i 0;
#X text 212 49 fixed pseduo-random gen;
#X obj 141 503 r fs;
#X obj 141 527 sel 1;
#X text 211 30 Cannabits - For Organelle M / S;
#X connect 4 0 0 0;
#X connect 7 0 6 0;
#X connect 8 0 9 0;
#X connect 9 0 10 1;
#X connect 10 0 8 0;
#X connect 10 0 5 0;
#X connect 11 0 61 0;
#X connect 13 0 17 0;
#X connect 14 0 33 0;
#X connect 15 0 17 1;
#X connect 16 0 17 1;
#X connect 17 0 14 0;
#X connect 19 0 22 0;
#X connect 20 0 29 0;
#X connect 20 0 45 0;
#X connect 20 1 28 0;
#X connect 20 1 46 0;
#X connect 20 1 60 0;
#X connect 21 0 17 1;
#X connect 22 0 23 0;
#X connect 23 0 17 1;
#X connect 26 0 63 0;
#X connect 27 0 30 0;
#X connect 28 0 50 0;
#X connect 29 0 50 0;
#X connect 30 0 53 0;
#X connect 30 1 54 0;
#X connect 30 2 48 0;
#X connect 31 0 30 1;
#X connect 32 0 31 0;
#X connect 33 0 49 0;
#X connect 33 1 24 0;
#X connect 33 2 25 0;
#X connect 34 0 40 0;
#X connect 36 0 35 0;
#X connect 37 0 38 0;
#X connect 38 1 39 0;
#X connect 39 0 10 0;
#X connect 40 0 36 0;
#X connect 41 0 36 0;
#X connect 42 0 36 1;
#X connect 45 0 43 0;
#X connect 46 0 43 0;
#X connect 49 0 44 0;
#X connect 51 0 48 1;
#X connect 52 0 55 0;
#X connect 53 0 12 0;
#X connect 54 0 12 1;
#X connect 55 0 54 1;
#X connect 55 0 53 1;
#X connect 56 0 52 0;
#X connect 57 0 52 0;
#X connect 58 0 59 0;
#X connect 59 0 56 0;
#X connect 59 1 57 0;
#X connect 59 2 64 0;
#X connect 61 0 62 0;
#X connect 61 1 63 0;
#X connect 62 0 16 0;
#X connect 62 1 21 0;
#X connect 63 0 20 0;
#X connect 64 0 52 0;
#X connect 65 0 66 0;
#X connect 66 0 63 0;
#X connect 68 0 69 0;
#X connect 69 0 39 0;
