#N canvas 4 50 450 543 12;
#X obj 50 35 noise~;
#X obj 50 112 * 0.5;
#X obj 50 136 + 0.5;
#X obj 50 184 i;
#X obj 50 79 snapshot~;
#X obj 158 21 inlet;
#X obj 158 45 t b;
#X obj 50 160 * \$1;
#X obj 52 464 outlet;
#X obj 50 304 sel 0 1;
#X obj 50 208 t a a;
#X obj 50 335 i, f 14;
#X obj 165 185 t b;
#X obj 50 260 == -1;
#X obj 50 359 t a a, f 26;
#X obj 166 153 del 1;
#X connect 0 0 4 0;
#X connect 1 0 2 0;
#X connect 2 0 7 0;
#X connect 3 0 10 0;
#X connect 4 0 1 0;
#X connect 5 0 6 0;
#X connect 6 0 4 0;
#X connect 7 0 3 0;
#X connect 9 0 11 0;
#X connect 9 1 15 0;
#X connect 10 0 13 0;
#X connect 10 1 11 1;
#X connect 11 0 14 0;
#X connect 12 0 4 0;
#X connect 13 0 9 0;
#X connect 14 0 8 0;
#X connect 14 1 13 1;
#X connect 15 0 12 0;
