#N canvas 741 221 789 695 10;
#X text 15 18 basic polyphonic patch with 8 voices;
#X obj 61 525 s~ bp-\$1-out;
#N canvas 15 50 526 600 switcher 0;
#X obj 113 261 t b b;
#X obj 113 295 delay 5;
#X obj 263 387 line~;
#X msg 176 296 0 4;
#X obj 133 476 *~;
#X msg 113 327 0;
#X obj 113 220 bang;
#X msg 406 229 1;
#X msg 359 193 1 4;
#X obj 352 143 t b b b;
#X obj 139 506 outlet~;
#X obj 371 507 outlet;
#X obj 112 48 inlet;
#X obj 353 50 inlet;
#X connect 0 0 1 0;
#X connect 0 1 3 0;
#X connect 1 0 5 0;
#X connect 2 0 4 0;
#X connect 2 0 4 1;
#X connect 3 0 2 0;
#X connect 4 0 10 0;
#X connect 5 0 11 0;
#X connect 6 0 0 0;
#X connect 7 0 11 0;
#X connect 8 0 2 0;
#X connect 9 1 8 0;
#X connect 9 2 7 0;
#X connect 12 0 6 0;
#X connect 13 0 9 0;
#X restore 79 476 pd switcher;
#X obj 79 447 sel 0 1;
#X obj 79 424 tgl 15 0 empty empty empty 17 7 0 10 -262144 -1 -1 0
1;
#X obj 153 500 switch~;
#X obj 79 393 r bp-\$1-switch;
#N canvas 11 404 1203 577 knobs 0;
#X obj 660 262 lop~ 5;
#X obj 853 202 lop~ 5;
#X obj 617 284 i;
#X obj 830 314 i;
#X obj 830 289 * 100;
#X obj 1039 248 i;
#X obj 617 260 * 50;
#X obj 1039 226 + 5;
#X obj 1039 204 * 2000;
#X text 587 124 smooth knobs 1-3 \, send param updates to screen;
#X obj 140 247 sel 0 1 2 3, f 60;
#X obj 617 205 t f f;
#X obj 617 227 *;
#X obj 617 163 r bp-\$1-vrate;
#X obj 661 284 s~ bp-\$1-vrate-local;
#X obj 617 360 s bp-\$1-vrate-label;
#X obj 830 370 s bp-\$1-vdepth-label;
#X obj 853 158 r bp-\$1-vdepth;
#X obj 853 224 s~ bp-\$1-vdepth-local;
#X msg 1039 297 Decay Time \$1 ms;
#X obj 1039 155 r bp-\$1-decay;
#X obj 1039 324 s bp-\$1-decay-label;
#X obj 1059 270 s bp-\$1-decay-local;
#X obj 140 118 r bp-\$1-wave;
#X obj 140 162 int;
#X obj 140 212 t f f;
#X obj 0 297 s bp-\$1-wave-local;
#X obj 140 365 s bp-\$1-wave-label;
#X obj 244 309 s bp-\$1-wave-label;
#X obj 348 371 s bp-\$1-wave-label;
#X obj 452 302 s bp-\$1-wave-label;
#X text 281 153 Waveform Select;
#X obj 0 271 change -1;
#X obj 18 200 r page-ready;
#X msg 18 223 set -1;
#X msg 140 339 Wave: Sine;
#X msg 244 283 Wave: Square;
#X msg 349 345 Wave: Sawtooth;
#X msg 452 277 Wave: Triangle;
#X obj 140 140 * 4;
#X obj 140 184 min 3;
#X msg 617 334 Vibr. Rate: \$1 Hz;
#X msg 830 344 Vibr. Depth: \$1%;
#X connect 0 0 14 0;
#X connect 1 0 18 0;
#X connect 2 0 41 0;
#X connect 3 0 42 0;
#X connect 4 0 3 0;
#X connect 5 0 19 0;
#X connect 5 0 22 0;
#X connect 6 0 2 0;
#X connect 7 0 5 0;
#X connect 8 0 7 0;
#X connect 10 0 35 0;
#X connect 10 1 36 0;
#X connect 10 2 37 0;
#X connect 10 3 38 0;
#X connect 11 0 12 0;
#X connect 11 1 12 1;
#X connect 12 0 6 0;
#X connect 12 0 0 0;
#X connect 13 0 11 0;
#X connect 17 0 4 0;
#X connect 17 0 1 0;
#X connect 19 0 21 0;
#X connect 20 0 8 0;
#X connect 23 0 39 0;
#X connect 24 0 40 0;
#X connect 25 0 10 0;
#X connect 25 1 32 0;
#X connect 32 0 26 0;
#X connect 33 0 34 0;
#X connect 34 0 32 0;
#X connect 35 0 27 0;
#X connect 36 0 28 0;
#X connect 37 0 29 0;
#X connect 38 0 30 0;
#X connect 39 0 24 0;
#X connect 40 0 25 0;
#X connect 41 0 15 0;
#X connect 42 0 16 0;
#X restore 59 564 pd knobs;
#N canvas 749 269 562 493 synth 1;
#X obj 16 108 pack 0 0 0, f 11;
#X obj 16 134 route 1 2 3 4 5 6 7 8, f 81;
#X text 365 112 aircraft carrier;
#X obj 232 233 *~ 0.3;
#X obj 16 81 poly 8 1, f 11;
#X obj 234 341 outlet~;
#X obj 16 55 inlet;
#X obj 86 199 bp-voice \$1;
#X obj 233 315 hip~ 5;
#X obj 233 293 lop~ 1000;
#X obj 16 162 bp-voice \$1;
#X obj 158 163 bp-voice \$1;
#X obj 227 188 bp-voice \$1;
#X obj 296 162 bp-voice \$1;
#X obj 368 194 bp-voice \$1;
#X obj 439 166 bp-voice \$1;
#X obj 508 193 bp-voice \$1;
#X connect 0 0 1 0;
#X connect 1 0 10 0;
#X connect 1 1 7 0;
#X connect 1 2 11 0;
#X connect 1 3 12 0;
#X connect 1 4 13 0;
#X connect 1 5 14 0;
#X connect 1 6 15 0;
#X connect 1 7 16 0;
#X connect 3 0 9 0;
#X connect 4 0 0 0;
#X connect 4 1 0 1;
#X connect 4 2 0 2;
#X connect 6 0 4 0;
#X connect 7 0 3 0;
#X connect 8 0 5 0;
#X connect 9 0 8 0;
#X connect 10 0 3 0;
#X connect 11 0 3 0;
#X connect 12 0 3 0;
#X connect 13 0 3 0;
#X connect 14 0 3 0;
#X connect 15 0 3 0;
#X connect 16 0 3 0;
#X restore 62 367 pd synth;
#X obj 62 501 *~;
#X obj 101 147 tgl 15 0 empty empty empty 17 7 0 10 -262144 -1 -1 0
1;
#X obj 62 338 spigot;
#X obj 133 241 bag;
#X obj 133 198 sel 0;
#X msg 133 218 flush;
#X obj 101 174 t f f;
#X obj 133 263 list append 0;
#X obj 133 285 route list;
#X obj 101 83 r bp-\$1-notesswitch;
#X obj 62 58 r ms-\$1-notes-in;
#X obj 117 116 r ms-\$1-noteskill-switch;
#X obj 188 395 r ms-\$1-kill-switch;
#X connect 2 0 9 1;
#X connect 2 1 5 0;
#X connect 3 0 2 0;
#X connect 3 1 2 1;
#X connect 4 0 3 0;
#X connect 6 0 4 0;
#X connect 8 0 9 0;
#X connect 9 0 1 0;
#X connect 10 0 15 0;
#X connect 11 0 8 0;
#X connect 12 0 16 0;
#X connect 13 0 14 0;
#X connect 14 0 12 0;
#X connect 15 0 11 1;
#X connect 15 1 13 0;
#X connect 16 0 17 0;
#X connect 17 0 11 0;
#X connect 18 0 10 0;
#X connect 19 0 11 0;
#X connect 19 0 12 0;
#X connect 20 0 10 0;
#X connect 21 0 4 0;
