#N canvas 291 145 737 668 10;
#X text 24 19 basic polyphonic patch with 8 voices;
#N canvas 9 50 1029 576 knobs 0;
#X obj 741 317 i;
#X obj 741 294 + 5;
#X obj 741 272 * 2000;
#X text 356 59 smooth knobs 1-3 \, send param updates to screen;
#X obj 275 173 r rampsyn-\$1-rampd;
#X obj 288 312 s rampsyn-\$1-rampd-local;
#X obj 274 392 s rampsyn-\$1-rampd-label;
#X obj 275 198 * 1000;
#X obj 488 190 int;
#X obj 488 134 r rampsyn-\$1-rampamt;
#X obj 488 375 s rampsyn-\$1-rampamt-label;
#X obj 547 261 s rampsyn-\$1-rampamt-local;
#X msg 741 367 Decay Time \$1 ms;
#X msg 274 368 Ramp Decay \$1 ms;
#X obj 741 179 r rampsyn-\$1-decay;
#X obj 766 342 s rampsyn-\$1-decay-local;
#X obj 741 393 s rampsyn-\$1-decay-label;
#X obj 274 224 + 1;
#X obj 274 246 int;
#X obj 34 218 + 1;
#X obj 34 240 int;
#X obj 35 117 r rampsyn-\$1-rampa;
#X obj 48 306 s rampsyn-\$1-rampa-local;
#X obj 34 386 s rampsyn-\$1-rampa-label;
#X obj 35 192 * 500;
#X msg 34 362 Ramp attack \$1 ms;
#X obj 488 159 * 48;
#X obj 488 212 / 12;
#X msg 488 351 Ramp Depth \$1 x;
#X obj 488 284 * 100;
#X obj 488 306 int;
#X obj 488 328 * 0.01;
#X obj 35 139 t f f;
#X obj 35 161 *;
#X connect 0 0 12 0;
#X connect 0 0 15 0;
#X connect 1 0 0 0;
#X connect 2 0 1 0;
#X connect 4 0 7 0;
#X connect 7 0 17 0;
#X connect 8 0 27 0;
#X connect 9 0 26 0;
#X connect 12 0 16 0;
#X connect 13 0 6 0;
#X connect 14 0 2 0;
#X connect 17 0 18 0;
#X connect 18 0 5 0;
#X connect 18 0 13 0;
#X connect 19 0 20 0;
#X connect 20 0 25 0;
#X connect 20 0 22 0;
#X connect 21 0 32 0;
#X connect 24 0 19 0;
#X connect 25 0 23 0;
#X connect 26 0 8 0;
#X connect 27 0 11 0;
#X connect 27 0 29 0;
#X connect 28 0 10 0;
#X connect 29 0 30 0;
#X connect 30 0 31 0;
#X connect 31 0 28 0;
#X connect 32 0 33 0;
#X connect 32 1 33 1;
#X connect 33 0 24 0;
#X restore 20 61 pd knobs;
#N canvas 6 50 1905 999 synth 0;
#X obj 22 72 pack 0 0 0, f 11;
#X obj 22 98 route 1 2 3 4, f 55;
#X obj 22 45 poly 4 1, f 11;
#X obj 179 339 outlet~;
#X obj 22 19 inlet;
#X obj 180 194 *~ 1;
#X obj 22 124 rs-voice \$1;
#X obj 180 216 lop~ 5000;
#X obj 112 125 rs-voice \$1;
#X obj 203 125 rs-voice \$1;
#X obj 303 125 rs-voice \$1;
#X connect 0 0 1 0;
#X connect 1 0 6 0;
#X connect 1 1 8 0;
#X connect 1 2 9 0;
#X connect 1 3 10 0;
#X connect 2 0 0 0;
#X connect 2 1 0 1;
#X connect 2 2 0 2;
#X connect 4 0 2 0;
#X connect 5 0 7 0;
#X connect 6 0 5 0;
#X connect 7 0 3 0;
#X connect 8 0 5 0;
#X connect 9 0 5 0;
#X connect 10 0 5 0;
#X restore 23 317 pd synth;
#X obj 21 561 s~ rampsyn-\$1-out;
#N canvas 15 50 526 600 switcher 0;
#X obj 113 261 t b b;
#X obj 113 295 delay 5;
#X obj 263 387 line~;
#X msg 176 296 0 4;
#X obj 133 476 *~;
#X msg 113 327 0;
#X obj 113 220 bang;
#X msg 406 229 1;
#X msg 359 193 1 4;
#X obj 352 143 t b b b;
#X obj 139 506 outlet~;
#X obj 371 507 outlet;
#X obj 112 48 inlet;
#X obj 353 50 inlet;
#X connect 0 0 1 0;
#X connect 0 1 3 0;
#X connect 1 0 5 0;
#X connect 2 0 4 0;
#X connect 2 0 4 1;
#X connect 3 0 2 0;
#X connect 4 0 10 0;
#X connect 5 0 11 0;
#X connect 6 0 0 0;
#X connect 7 0 11 0;
#X connect 8 0 2 0;
#X connect 9 1 8 0;
#X connect 9 2 7 0;
#X connect 12 0 6 0;
#X connect 13 0 9 0;
#X restore 41 495 pd switcher;
#X obj 41 466 sel 0 1;
#X obj 41 443 tgl 15 0 empty empty empty 17 7 0 10 -262144 -1 -1 0
1;
#X obj 22 533 *~;
#X obj 115 519 switch~;
#N canvas 6 50 1074 724 waveform-select 0;
#X obj 254 292 sel 0 1 2 3, f 60;
#X obj 266 252 s rampsyn-\$1-waveform-local;
#X obj 254 153 r rampsyn-\$1-waveform;
#X obj 254 175 * 4;
#X obj 254 197 int;
#X obj 254 410 s rampsyn-\$1-waveform-label;
#X obj 358 354 s rampsyn-\$1-waveform-label;
#X obj 462 416 s rampsyn-\$1-waveform-label;
#X obj 566 348 s rampsyn-\$1-waveform-label;
#X msg 254 384 Sine Wave;
#X msg 358 328 Square Wave;
#X msg 566 322 Triangle Wave;
#X msg 462 390 Sawtooth Wave;
#X obj 266 220 change -1;
#X obj 490 145 loadbang;
#X msg 490 167 3;
#X msg 451 167 1;
#X msg 440 193 0;
#X msg 444 143 2;
#X connect 0 0 9 0;
#X connect 0 1 10 0;
#X connect 0 2 12 0;
#X connect 0 3 11 0;
#X connect 2 0 3 0;
#X connect 3 0 4 0;
#X connect 4 0 0 0;
#X connect 4 0 13 0;
#X connect 9 0 5 0;
#X connect 10 0 6 0;
#X connect 11 0 8 0;
#X connect 12 0 7 0;
#X connect 13 0 1 0;
#X connect 14 0 15 0;
#X connect 15 0 4 0;
#X connect 16 0 4 0;
#X connect 17 0 4 0;
#X connect 18 0 4 0;
#X restore 20 87 pd waveform-select;
#X obj 42 389 r rampsyn-\$1-switch;
#X obj 62 218 tgl 15 0 empty empty empty 17 7 0 10 -262144 -1 -1 0
1;
#X obj 23 279 spigot;
#X obj 62 154 r rampsyn-\$1-notesswitch;
#X obj 94 312 bag;
#X obj 94 269 sel 0;
#X msg 94 289 flush;
#X obj 62 245 t f f;
#X obj 94 334 list append 0;
#X obj 94 356 route list;
#X obj 78 187 r ms-\$1-noteskill-switch;
#X obj 23 130 r ms-\$1-notes-in;
#X obj 91 414 r ms-\$1-kill-switch;
#X connect 2 0 7 0;
#X connect 4 0 7 1;
#X connect 4 1 8 0;
#X connect 5 0 4 0;
#X connect 5 1 4 1;
#X connect 6 0 5 0;
#X connect 7 0 3 0;
#X connect 10 0 6 0;
#X connect 11 0 17 0;
#X connect 12 0 2 0;
#X connect 13 0 11 0;
#X connect 14 0 18 0;
#X connect 15 0 16 0;
#X connect 16 0 14 0;
#X connect 17 0 12 1;
#X connect 17 1 15 0;
#X connect 18 0 19 0;
#X connect 19 0 12 0;
#X connect 20 0 11 0;
#X connect 21 0 12 0;
#X connect 21 0 14 0;
#X connect 22 0 6 0;
