#N canvas 186 50 875 537 10;
#N canvas 306 188 1382 875 seq2 0;
#X obj 860 508 qlist;
#X obj 226 415 f;
#X obj 226 362 sel 1;
#X msg 920 447 rewind;
#X obj 1068 461 timer;
#X obj 1108 335 unpack;
#X obj 1045 584 pack s 0 s 0 0;
#X msg 1030 511 add;
#X obj 1045 623 route list;
#X obj 1068 379 t b b b b f;
#X obj 1132 252 spigot 0;
#X obj 1215 222 tgl 15 0 empty empty empty 17 7 0 10 -262144 -1 -1
0 1;
#X msg 979 461 clear;
#X obj 1265 329 f;
#X obj 1363 333 + 1;
#X obj 1283 264 sel 1;
#X msg 1283 289 0;
#X obj 1265 408 sel 0;
#X obj 1168 379 t f b;
#X msg 1047 248 0 0;
#X obj 123 418 sel 1;
#X obj 123 444 bng 15 250 50 0 empty empty empty 17 7 0 10 -262144
-1 -1;
#X obj 123 591 sel 0 1 2 3, f 54;
#X obj 123 666 t b b;
#X msg 155 701 1;
#X obj 216 642 t b b;
#X msg 240 663 0;
#X msg 309 487 2;
#X obj 226 322 t f f;
#X obj 226 441 sel 1;
#X obj 310 643 t b b;
#X msg 342 678 0;
#X obj 404 646 t b b b;
#X msg 463 673 1;
#X msg 1322 470 3;
#X msg 1215 193 1;
#X msg 1300 233 0;
#X obj 226 469 t b b b;
#X obj 585 741 bag;
#X msg 599 713 flush;
#X obj 585 765 pack 0 0;
#X msg 332 173 Sequencer: Playing;
#X msg 480 173 Sequencer: Stopped;
#X msg 635 173 Sequencer: Enabled;
#X msg 789 172 Sequencer: Recording;
#X text 1116 705 states are: 0 = stopped \, 1 = playing \, 2 = rec
enabled \, 3 = recording, f 70;
#X text 317 66 Controls LED & Screen Infomation:;
#X obj 226 387 del 500;
#X text 96 250 Controls State With Aux Button;
#X text 1001 138 Record Notes To List. First note starts recording.
;
#X text 534 653 Kills notes left on by sequence.;
#N canvas 9 50 1006 722 midi-control 0;
#X obj 95 121 midirealtimein;
#X obj 95 177 sel 248 250 251 252, f 22;
#X obj 260 239 bng 15 250 50 0 empty empty empty 17 7 0 10 -262144
-1 -1;
#X obj 260 355 t b b;
#X msg 292 390 0;
#X obj 369 364 t b b;
#X msg 401 399 0;
#X obj 482 368 t b b b;
#X msg 541 395 1;
#X obj 260 309 sel 1 2 3, f 37;
#X obj 69 243 bng 15 250 50 0 empty empty empty 17 7 0 10 -262144 -1
-1;
#X obj 69 313 sel 0 1 2 3, f 12;
#X text 78 509 states are: 0 = stopped \, 1 = playing \, 2 = rec enabled
\, 3 = recording, f 70;
#X obj 69 351 t b b;
#X msg 101 386 1;
#X text 262 143 MIDI 248 = clock \; 250 = start \; 251 = continue \;
252 = stop, f 18;
#X text 23 15 This subpatch handles MIDI commands for starting/stopping
sequencer., f 69;
#X obj 260 456 s seq2-\$1-stop;
#X obj 369 466 s seq2-\$1-stop;
#X obj 482 470 s seq2-\$1-start;
#X obj 505 442 s seq2-\$1-end_seq;
#X obj 541 417 v seq2-\$1-state;
#X obj 401 421 v seq2-\$1-state;
#X obj 292 412 v seq2-\$1-state;
#X obj 101 408 v seq2-\$1-state;
#X obj 69 461 s seq2-\$1-start;
#X obj 260 272 v seq2-\$1-state;
#X obj 69 276 v seq2-\$1-state;
#X connect 0 0 1 0;
#X connect 1 1 10 0;
#X connect 1 2 10 0;
#X connect 1 3 2 0;
#X connect 2 0 26 0;
#X connect 3 0 17 0;
#X connect 3 1 4 0;
#X connect 4 0 23 0;
#X connect 5 0 18 0;
#X connect 5 1 6 0;
#X connect 6 0 22 0;
#X connect 7 0 19 0;
#X connect 7 1 20 0;
#X connect 7 2 8 0;
#X connect 8 0 21 0;
#X connect 9 0 3 0;
#X connect 9 1 5 0;
#X connect 9 2 7 0;
#X connect 10 0 27 0;
#X connect 11 0 13 0;
#X connect 13 0 25 0;
#X connect 13 1 14 0;
#X connect 14 0 24 0;
#X connect 26 0 9 0;
#X connect 27 0 11 0;
#X restore 113 164 pd midi-control;
#X obj 930 635 t b b;
#X obj 993 729 sel 0 1 2 3, f 33;
#X obj 993 681 delay 100;
#X text 893 835 Flashes LED at loop & sets color after sequence stop
;
#X obj 1265 440 t b b b;
#X msg 1266 569 1;
#X obj 860 348 spigot 0, f 9;
#X text 865 278 avoid playing 0 len seq;
#X msg 715 434 tempo \$1;
#X obj 1012 192 t b b;
#X obj 562 393 loadbang;
#X msg 562 497 1;
#N canvas 5 50 450 300 midi-out 0;
#X obj 114 172 noteout 1;
#X obj 114 132 unpack;
#X obj 195 104 r seq2-\$1-zero_notes;
#X obj 99 80 r seq2-\$1-notes_seq;
#X obj 211 137 r midiCh;
#X connect 1 0 0 0;
#X connect 1 1 0 1;
#X connect 2 0 1 0;
#X connect 3 0 1 0;
#X connect 4 0 0 2;
#X restore 112 128 pd midi-out;
#X obj 332 87 r seq2-\$1-start;
#X obj 480 90 r seq2-\$1-stop;
#X obj 635 88 r seq2-\$1-recenable;
#X obj 789 87 r seq2-\$1-record;
#X obj 1012 158 r seq2-\$1-end_seq;
#X obj 1215 166 r seq2-\$1-recenable;
#X obj 1278 199 r seq2-\$1-start;
#X obj 1376 198 r seq2-\$1-stop;
#X obj 1296 526 s seq2-\$1-record;
#X obj 1267 602 s seq2-\$1-something-recorded;
#X obj 562 519 s seq2-\$1-something-recorded;
#X obj 585 674 r seq2-\$1-notes_seq;
#X obj 723 674 r seq2-\$1-stop;
#X obj 791 701 r seq2-\$1-quitting;
#X obj 585 791 s seq2-\$1-zero_notes;
#X obj 123 775 s seq2-\$1-start;
#X obj 216 743 s seq2-\$1-stop;
#X obj 310 745 s seq2-\$1-stop;
#X obj 404 748 s seq2-\$1-start;
#X obj 427 720 s seq2-\$1-end_seq;
#X obj 162 724 v seq2-\$1-state;
#X obj 240 685 v seq2-\$1-state;
#X obj 342 700 v seq2-\$1-state;
#X obj 463 695 v seq2-\$1-state;
#X obj 226 561 s seq2-\$1-recenable;
#X obj 249 534 s seq2-\$1-stop;
#X obj 309 509 v seq2-\$1-state;
#X obj 123 477 v seq2-\$1-state, f 13;
#X obj 993 705 v seq2-\$1-state;
#X obj 1254 51 r seq2-\$1-zero_notes;
#X obj 1400 51 r seq2-\$1-notes_seq;
#X obj 1322 492 v seq2-\$1-state;
#X msg 993 756 0;
#X msg 1050 755 3;
#X msg 1107 756 6;
#X msg 1164 756 1;
#X obj 993 798 s seq2-\$1-led;
#X msg 930 679 7;
#X msg 1122 490 symbol seq2-\$1-notes_seq;
#X obj 860 304 r seq2-\$1-start;
#X obj 920 324 r seq2-\$1-something-recorded;
#X obj 715 403 r seq2-\$1-tempo;
#X obj 920 370 r seq2-\$1-stop;
#X obj 603 289 r saveState;
#X obj 123 273 inlet;
#X obj 1193 106 outlet;
#X obj 1132 17 inlet, f 17;
#X obj 1123 425 f \$1;
#X msg 349 201 3;
#X msg 488 197 0;
#X msg 638 199 6;
#X msg 780 206 1;
#X msg 594 465 read ./seq2-\$1-sequence.txt;
#X msg 603 334 write ./seq2-\$1-sequence.txt;
#X obj 603 311 f \$1;
#X obj 562 415 f \$1;
#X obj 562 440 t b f;
#X msg 9 356 0, f 2;
#X obj 332 264 s seq2-\$1-knob5-label;
#X obj 764 244 s led;
#X obj 373 301 inlet;
#X text 421 302 kill;
#X obj 920 392 b;
#X obj 943 535 b;
#X obj 860 411 b, f 10;
#X obj 9 303 r seq2-\$1-enable, f 15;
#X floatatom 158 525 5 0 0 0 - - -, f 5;
#X obj 373 347 v seq2-\$1-state, f 13;
#X obj 373 323 b;
#X obj 373 383 sel 0;
#X obj 432 455 v seq2-\$1-state;
#X msg 432 431 1;
#X obj 405 408 t b b;
#X obj 405 480 s seq2-\$1-stop;
#X connect 0 1 128 0;
#X connect 1 0 29 0;
#X connect 2 0 47 0;
#X connect 3 0 0 0;
#X connect 4 0 6 1;
#X connect 5 0 9 0;
#X connect 5 1 18 0;
#X connect 6 0 8 0;
#X connect 7 0 6 0;
#X connect 8 0 0 0;
#X connect 9 0 4 0;
#X connect 9 1 7 0;
#X connect 9 2 4 1;
#X connect 9 3 112 0;
#X connect 9 4 6 3;
#X connect 10 0 5 0;
#X connect 11 0 10 1;
#X connect 11 0 15 0;
#X connect 12 0 0 0;
#X connect 13 0 14 0;
#X connect 13 0 17 0;
#X connect 14 0 13 1;
#X connect 15 0 16 0;
#X connect 16 0 13 1;
#X connect 17 0 4 0;
#X connect 17 0 12 0;
#X connect 17 0 56 0;
#X connect 18 0 6 4;
#X connect 18 1 13 0;
#X connect 19 0 5 0;
#X connect 20 0 21 0;
#X connect 21 0 92 0;
#X connect 22 0 23 0;
#X connect 22 1 25 0;
#X connect 22 2 30 0;
#X connect 22 3 32 0;
#X connect 23 0 80 0;
#X connect 23 1 24 0;
#X connect 24 0 85 0;
#X connect 25 0 81 0;
#X connect 25 1 26 0;
#X connect 26 0 86 0;
#X connect 27 0 91 0;
#X connect 28 0 2 0;
#X connect 28 1 1 1;
#X connect 29 0 37 0;
#X connect 30 0 82 0;
#X connect 30 1 31 0;
#X connect 31 0 87 0;
#X connect 32 0 83 0;
#X connect 32 1 84 0;
#X connect 32 2 33 0;
#X connect 33 0 88 0;
#X connect 34 0 96 0;
#X connect 35 0 11 0;
#X connect 36 0 11 0;
#X connect 37 0 89 0;
#X connect 37 1 90 0;
#X connect 37 2 27 0;
#X connect 38 0 40 0;
#X connect 39 0 38 0;
#X connect 40 0 79 0;
#X connect 41 0 123 0;
#X connect 42 0 123 0;
#X connect 43 0 123 0;
#X connect 44 0 123 0;
#X connect 47 0 1 0;
#X connect 52 0 102 0;
#X connect 52 1 54 0;
#X connect 53 0 97 0;
#X connect 53 1 98 0;
#X connect 53 2 99 0;
#X connect 53 3 100 0;
#X connect 54 0 93 0;
#X connect 56 0 57 0;
#X connect 56 1 73 0;
#X connect 56 2 34 0;
#X connect 57 0 74 0;
#X connect 58 0 129 0;
#X connect 60 0 0 0;
#X connect 61 1 19 0;
#X connect 62 0 120 0;
#X connect 63 0 75 0;
#X connect 65 0 41 0;
#X connect 65 0 113 0;
#X connect 66 0 42 0;
#X connect 66 0 114 0;
#X connect 67 0 43 0;
#X connect 67 0 115 0;
#X connect 68 0 44 0;
#X connect 68 0 116 0;
#X connect 69 0 61 0;
#X connect 70 0 35 0;
#X connect 71 0 36 0;
#X connect 72 0 36 0;
#X connect 76 0 38 0;
#X connect 77 0 39 0;
#X connect 78 0 39 0;
#X connect 92 0 22 0;
#X connect 92 0 131 0;
#X connect 93 0 53 0;
#X connect 94 0 110 0;
#X connect 95 0 110 0;
#X connect 97 0 101 0;
#X connect 98 0 101 0;
#X connect 99 0 101 0;
#X connect 100 0 101 0;
#X connect 102 0 101 0;
#X connect 103 0 6 2;
#X connect 104 0 58 0;
#X connect 105 0 58 1;
#X connect 106 0 60 0;
#X connect 107 0 127 0;
#X connect 108 0 119 0;
#X connect 109 0 28 0;
#X connect 109 0 20 0;
#X connect 111 0 10 0;
#X connect 111 0 110 0;
#X connect 112 0 103 0;
#X connect 113 0 124 0;
#X connect 114 0 124 0;
#X connect 115 0 124 0;
#X connect 116 0 124 0;
#X connect 117 0 0 0;
#X connect 118 0 0 0;
#X connect 119 0 118 0;
#X connect 120 0 121 0;
#X connect 121 0 63 0;
#X connect 121 1 117 0;
#X connect 122 0 92 0;
#X connect 125 0 133 0;
#X connect 127 0 3 0;
#X connect 128 0 52 0;
#X connect 128 0 129 0;
#X connect 129 0 0 0;
#X connect 130 0 122 0;
#X connect 132 0 134 0;
#X connect 133 0 132 0;
#X connect 134 1 137 0;
#X connect 136 0 135 0;
#X connect 137 0 138 0;
#X connect 137 1 136 0;
#X restore 146 254 pd seq2;
#X obj 213 231 r seq2-\$1-notes-in;
#X obj 146 312 s seq2-\$1-notes-out;
#X text 18 8 Sequencer2: A simple sequencer Module.;
#X text 15 38 Argument1: Module Shortcut Name (seq2);
#X text 15 58 Argument2: Sequencer2 Instance Number;
#X text 373 35 uses the input aux button to start / stop / record a
sequence. Only two inputs needed: (r seq2-\$1-aux) and (r seq2-\$1-notes-in)
, f 43;
#X obj 457 276 s led;
#X msg 457 253 0;
#X obj 425 199 sel 0 1, f 16;
#X obj 425 221 t b b;
#X obj 425 173 tgl 15 0 empty empty empty 17 7 0 10 -262144 -1 -1 0
1;
#X obj 475 144 r mseq-\$1-kill-switch;
#X obj 146 192 spigot;
#X msg 185 137 0;
#X msg 221 161 1;
#X obj 146 276 spigot, f 18;
#X obj 168 112 r seq2-\$1-disable;
#X obj 221 139 r seq2-\$1-enable;
#X obj 425 299 s seq2-\$1-disable;
#X obj 479 226 s seq2-\$1-enable;
#X obj 425 122 r seq2-\$1-switch;
#X obj 146 92 r seq2-\$1-aux-in;
#X msg 714 269 x;
#X obj 714 291 s seq2-\$1-x2-label;
#X msg 714 349 x;
#X obj 714 371 s seq2-\$1-x3-label;
#X obj 714 327 r seq2-\$1-x3;
#X obj 714 247 r seq2-\$1-x2;
#X msg 714 199 x;
#X obj 714 177 r seq2-\$1-x1;
#X obj 714 221 s seq2-\$1-x1-label;
#X connect 0 0 16 0;
#X connect 1 0 0 2;
#X connect 8 0 7 0;
#X connect 9 0 10 0;
#X connect 9 1 20 0;
#X connect 10 0 19 0;
#X connect 10 1 8 0;
#X connect 11 0 9 0;
#X connect 12 0 11 0;
#X connect 13 0 0 0;
#X connect 14 0 13 1;
#X connect 14 0 16 1;
#X connect 15 0 13 1;
#X connect 15 0 16 1;
#X connect 16 0 2 0;
#X connect 17 0 14 0;
#X connect 17 0 0 1;
#X connect 18 0 15 0;
#X connect 21 0 11 0;
#X connect 22 0 13 0;
#X connect 23 0 24 0;
#X connect 25 0 26 0;
#X connect 27 0 25 0;
#X connect 28 0 23 0;
#X connect 29 0 31 0;
#X connect 30 0 29 0;
