#N canvas 622 50 984 831 10;
#X obj 148 644 s~ wavs-\$1-out;
#X obj 148 212 catch~ wavs-\$1-voice-out;
#X text 289 10 A Module that loads a wav file named wave.wav and scans
through it to create a 'waveform'. position sets the point and width
sets how wide the loop is. The wider the loop the more 'partials' and
noise. A lowpass filter is added at the end.;
#N canvas 283 425 942 374 knobs 1;
#X obj 752 122 mtof;
#X obj 767 152 s wavs-\$1-vcf-local;
#X obj 95 152 mtof;
#X obj 95 187 s wavs-\$1-width-local;
#X obj 534 109 int;
#X msg 534 201 Decay \$1 ms;
#X obj 534 223 s wavs-\$1-decay-label;
#X obj 534 65 r wavs-\$1-decay;
#X obj 560 159 s wavs-\$1-decay-local;
#X obj 45 78 r wavs-\$1-width;
#X obj 45 122 int;
#X obj 45 246 s wavs-\$1-width-label;
#X obj 271 135 int;
#X obj 271 259 s wavs-\$1-position-label;
#X msg 271 237 Position \$1%;
#X obj 271 60 r wavs-\$1-position;
#X obj 752 97 + 20;
#X obj 752 53 r wavs-\$1-vcf;
#X msg 759 204 LowPass \$1 hz;
#X msg 45 224 Width \$1%;
#X obj 757 234 s wavs-\$1-vcf-label;
#X obj 755 173 int;
#X obj 317 137 s wavs-\$1-position-local;
#X obj 317 113 + 0.001;
#X obj 45 100 * 100;
#X obj 271 113 * 100;
#X obj 534 87 * 1500;
#X obj 752 75 * 100;
#X obj 95 132 + 30;
#X obj 95 110 * 97;
#X floatatom 185 103 5 0 0 0 - - -, f 5;
#X connect 0 0 1 0;
#X connect 0 0 21 0;
#X connect 2 0 3 0;
#X connect 4 0 5 0;
#X connect 4 0 8 0;
#X connect 5 0 6 0;
#X connect 7 0 26 0;
#X connect 9 0 24 0;
#X connect 9 0 29 0;
#X connect 10 0 19 0;
#X connect 12 0 14 0;
#X connect 14 0 13 0;
#X connect 15 0 23 0;
#X connect 15 0 25 0;
#X connect 16 0 0 0;
#X connect 17 0 27 0;
#X connect 18 0 20 0;
#X connect 19 0 11 0;
#X connect 21 0 18 0;
#X connect 23 0 22 0;
#X connect 24 0 10 0;
#X connect 25 0 12 0;
#X connect 26 0 4 0;
#X connect 27 0 16 0;
#X connect 28 0 2 0;
#X connect 29 0 28 0;
#X connect 30 0 29 0;
#X restore 5 48 pd knobs;
#N canvas 26 50 732 486 synth 1;
#X obj 9 37 poly 8 1, f 10;
#X obj 9 89 pack 0 0 0;
#X obj 9 111 route 1 2 3 4 5 6 7 8, f 60;
#X obj 9 10 inlet;
#X obj 42 61 - 0;
#X obj 250 167 wavs-voice \$1;
#X obj 117 140 wavs-voice \$1;
#X obj 150 167 wavs-voice \$1;
#X obj 358 166 wavs-voice \$1;
#X obj 325 139 wavs-voice \$1;
#X obj 9 141 wavs-voice \$1;
#X obj 42 168 wavs-voice \$1;
#X obj 217 140 wavs-voice \$1;
#X connect 0 0 1 0;
#X connect 0 1 4 0;
#X connect 0 2 1 2;
#X connect 1 0 2 0;
#X connect 2 0 10 0;
#X connect 2 1 11 0;
#X connect 2 2 6 0;
#X connect 2 3 7 0;
#X connect 2 4 12 0;
#X connect 2 5 5 0;
#X connect 2 6 9 0;
#X connect 2 7 8 0;
#X connect 3 0 0 0;
#X connect 4 0 1 1;
#X restore 396 520 pd synth;
#N canvas 14 50 608 463 array 0;
#X msg 60 203 read -resize \$1 wavs-\$2-array;
#X obj 60 173 pack sym \$1;
#X obj 60 225 soundfiler;
#N canvas 0 50 450 250 (subpatch) 0;
#X array wavs-\$1-array 88200 float 2;
#X coords 0 1 88200 -1 200 140 1;
#X restore 356 46 graph;
#X obj 90 267 s wavs-\$1-filesize;
#X obj 60 295 int \$1;
#X msg 60 319 \; wavs-\$1-array normalize;
#X obj 60 267 b;
#X obj 60 89 loadbang;
#X obj 60 118 bng 15 250 50 0 empty empty empty 17 7 0 10 -262144 -1
-1;
#X obj 60 138 symbol Sounds/WaveScanner-sound/wave-wavs.wav, f 38
;
#X connect 0 0 2 0;
#X connect 1 0 0 0;
#X connect 2 0 4 0;
#X connect 2 0 7 0;
#X connect 5 0 6 0;
#X connect 7 0 5 0;
#X connect 8 0 9 0;
#X connect 9 0 10 0;
#X connect 10 0 1 0;
#X restore 7 113 pd array;
#N canvas 5 50 450 300 LFO 0;
#X obj 219 50 hsl 128 15 0 2000 0 0 empty empty empty -2 -8 0 10 -262144
-1 -1 0 1;
#X obj 68 57 hsl 128 15 0 4 0 0 empty empty empty -2 -8 0 10 -262144
-1 -1 0 1;
#X obj 49 130 s wavs-\$1-rate-local;
#X obj 200 130 s wavs-\$1-depth-local;
#X floatatom 65 77 5 0 0 0 - - -, f 5;
#X floatatom 216 70 5 0 0 0 - - -, f 5;
#X obj 275 70 loadbang;
#X obj 127 81 loadbang;
#X msg 127 103 0;
#X msg 275 92 300;
#X connect 0 0 3 0;
#X connect 0 0 5 0;
#X connect 1 0 2 0;
#X connect 1 0 4 0;
#X connect 6 0 9 0;
#X connect 7 0 8 0;
#X connect 8 0 2 0;
#X connect 9 0 3 0;
#X restore 7 140 pd LFO;
#N canvas 15 50 526 600 switcher 0;
#X obj 113 261 t b b;
#X obj 113 295 delay 5;
#X obj 263 387 line~;
#X msg 176 296 0 4;
#X obj 133 476 *~;
#X msg 113 327 0;
#X obj 113 220 bang;
#X msg 406 229 1;
#X msg 359 193 1 4;
#X obj 352 143 t b b b;
#X obj 139 506 outlet~;
#X obj 371 507 outlet;
#X obj 112 48 inlet;
#X obj 353 50 inlet;
#X connect 0 0 1 0;
#X connect 0 1 3 0;
#X connect 1 0 5 0;
#X connect 2 0 4 0;
#X connect 2 0 4 1;
#X connect 3 0 2 0;
#X connect 4 0 10 0;
#X connect 5 0 11 0;
#X connect 6 0 0 0;
#X connect 7 0 11 0;
#X connect 8 0 2 0;
#X connect 9 1 8 0;
#X connect 9 2 7 0;
#X connect 12 0 6 0;
#X connect 13 0 9 0;
#X restore 167 534 pd switcher;
#X obj 167 505 sel 0 1;
#X obj 167 482 tgl 15 0 empty empty empty 17 7 0 10 -262144 -1 -1 0
1;
#X obj 148 572 *~;
#X obj 241 558 switch~;
#X obj 167 431 r wavs-\$1-switch;
#X obj 435 304 tgl 15 0 empty empty empty 17 7 0 10 -262144 -1 -1 0
1;
#X obj 396 497 spigot;
#X obj 467 398 bag;
#X obj 467 355 sel 0;
#X msg 467 375 flush;
#X obj 435 331 t f f;
#X obj 467 420 list append 0;
#X obj 467 442 route list;
#X obj 435 240 r wavs-\$1-notesswitch;
#X text 71 113 reads the file wave-wavs.wav in the MultiSynth folder
;
#X obj 148 346 *~ 2;
#X obj 149 320 lop~ 200;
#X obj 214 296 hip~ 200;
#X obj 213 319 lop~ 300;
#X obj 212 341 *~ 0.2;
#X obj 217 453 r ms-\$1-kill-switch;
#X obj 396 215 r ms-\$1-notes-in;
#X obj 451 273 r ms-\$1-noteskill-switch;
#X connect 1 0 24 0;
#X connect 1 0 25 0;
#X connect 7 0 10 1;
#X connect 7 1 11 0;
#X connect 8 0 7 0;
#X connect 8 1 7 1;
#X connect 9 0 8 0;
#X connect 10 0 0 0;
#X connect 12 0 9 0;
#X connect 13 0 18 0;
#X connect 14 0 4 0;
#X connect 15 0 19 0;
#X connect 16 0 17 0;
#X connect 17 0 15 0;
#X connect 18 0 14 1;
#X connect 18 1 16 0;
#X connect 19 0 20 0;
#X connect 20 0 14 0;
#X connect 21 0 13 0;
#X connect 23 0 10 0;
#X connect 24 0 23 0;
#X connect 25 0 26 0;
#X connect 26 0 27 0;
#X connect 27 0 10 0;
#X connect 28 0 9 0;
#X connect 29 0 14 0;
#X connect 29 0 15 0;
#X connect 30 0 13 0;
