#N canvas 32 50 1175 768 10;
#X obj 158 308 *~ 1;
#X obj 762 166 lop~ 5;
#X obj 763 144 sig~;
#X obj 743 521 *~;
#X obj 157 111 inlet~;
#X obj 763 116 inlet;
#X obj 363 645 *~ 1;
#X obj 362 712 outlet~;
#X obj 364 234 osc~ 0.031;
#X obj 364 202 * 0.5;
#X text 805 118 feedback;
#X text 210 110 signal;
#X text 417 46 lfo controlled delay time;
#X obj 364 47 inlet;
#X obj 363 351 *~ 0.5;
#X obj 363 386 +~ 0.5;
#X obj 363 428 *~ 500, f 15;
#X obj 363 496 vd~ \$0del \$1;
#X obj 157 599 delwrite~ \$0del \$1;
#X obj 600 85 inlet;
#X text 645 82 length in ms;
#X obj 532 468 snapshot~;
#X obj 532 377 loadbang;
#X obj 604 395 bng 15 250 50 0 empty empty empty 17 7 0 10 -262144
-1 -1;
#X obj 532 534 i;
#X text 230 462 smooth the changes;
#X obj 532 509 * 10;
#X obj 532 556 * 0.1;
#X obj 532 578 outlet;
#X text 587 581 print delay time;
#X obj 532 433 metro 100;
#X obj 364 460 lop~ 10;
#X connect 0 0 6 0;
#X connect 0 0 18 0;
#X connect 1 0 3 1;
#X connect 2 0 1 0;
#X connect 3 0 18 0;
#X connect 4 0 0 0;
#X connect 5 0 2 0;
#X connect 6 0 7 0;
#X connect 8 0 14 0;
#X connect 9 0 8 0;
#X connect 13 0 9 0;
#X connect 14 0 15 0;
#X connect 15 0 16 0;
#X connect 16 0 21 0;
#X connect 16 0 31 0;
#X connect 17 0 3 0;
#X connect 17 0 6 0;
#X connect 19 0 16 1;
#X connect 21 0 26 0;
#X connect 22 0 30 0;
#X connect 23 0 30 0;
#X connect 24 0 27 0;
#X connect 26 0 24 0;
#X connect 27 0 28 0;
#X connect 30 0 21 0;
#X connect 31 0 17 0;
