#N canvas 6 50 677 832 10;
#X obj 179 523 hip~ 5;
#X obj 180 449 line~;
#X msg 266 355 0;
#X obj 191 313 t b b;
#X obj 191 288 bng 15 250 50 0 empty empty empty 17 7 0 10 -262144
-1 -1;
#X obj 152 395 pack 44100 1000;
#X msg 165 347 44100;
#X obj 180 580 *~ 0.25;
#X obj 172 69 mtof;
#X obj 216 348 * 1;
#X obj 200 186 * 1;
#X obj 233 523 line~;
#X obj 203 212 t f b;
#X msg 271 440 0 2;
#X obj 191 240 t b f;
#X msg 232 443 1 1;
#X obj 190 263 delay 2;
#X obj 180 550 *~;
#X floatatom 203 641 10 0 0 0 - - -, f 10;
#X obj 202 615 expr 1000/$f1;
#X obj 205 668 sig~;
#X obj 278 706 r~ fb;
#X obj 209 725 lop~ 100;
#X obj 181 108 bang;
#X msg 181 130 1000;
#X obj 180 484 tabread4~ drumc;
#X obj 233 145 r pitchScale;
#X obj 174 43 stripnote;
#X obj 176 753 delay_onesec \$0-delay;
#X obj 173 14 inlet;
#X obj 173 784 outlet~;
#X obj 209 696 *~;
#X obj 251 668 r~ dtime;
#X obj 511 26 inlet;
#X connect 0 0 17 0;
#X connect 1 0 25 0;
#X connect 2 0 1 0;
#X connect 3 0 6 0;
#X connect 3 1 2 0;
#X connect 4 0 3 0;
#X connect 4 0 15 0;
#X connect 5 0 1 0;
#X connect 6 0 5 0;
#X connect 7 0 28 0;
#X connect 8 0 19 0;
#X connect 8 0 23 0;
#X connect 9 0 5 1;
#X connect 10 0 12 0;
#X connect 11 0 17 1;
#X connect 12 0 14 0;
#X connect 12 1 13 0;
#X connect 13 0 11 0;
#X connect 14 0 16 0;
#X connect 14 1 9 0;
#X connect 15 0 11 0;
#X connect 16 0 4 0;
#X connect 17 0 7 0;
#X connect 18 0 20 0;
#X connect 19 0 18 0;
#X connect 20 0 31 0;
#X connect 21 0 28 2;
#X connect 22 0 28 1;
#X connect 23 0 24 0;
#X connect 24 0 10 0;
#X connect 25 0 0 0;
#X connect 26 0 10 1;
#X connect 27 0 8 0;
#X connect 28 0 30 0;
#X connect 29 0 27 0;
#X connect 31 0 22 0;
#X connect 32 0 31 1;
#X connect 33 0 25 0;
