#N canvas 563 50 1082 940 10;
#X obj 304 155 mtof;
#X obj 304 191 sig~;
#X text 352 43 note messages;
#X obj 605 628 f;
#X msg 605 664 0 \$1;
#X obj 304 96 unpack;
#X obj 343 124 sel 0;
#X text 387 125 selects note off messages so we can set decay time
later;
#X obj 304 44 inlet;
#X obj 315 911 outlet~;
#X text 643 631 decay time;
#X text 25 10 synth voice with waveform change;
#X obj 604 744 *~;
#X obj 133 685 osc~ 440;
#X obj 303 569 /~ 4;
#X obj 391 683 blsaw;
#X obj 266 684 s_blsquare;
#X msg 336 627 0;
#X msg 293 711 1;
#X msg 411 710 1;
#X msg 154 715 1;
#N canvas 7 50 727 452 triangle 0;
#X obj 130 207 outlet~;
#X obj 131 65 inlet~;
#N canvas 699 258 779 606 triangle 0;
#X obj 80 290 -~ 0.5;
#X obj 228 290 -~ 0.5;
#X obj 134 340 -~;
#X obj 220 480 outlet~;
#X obj 80 91 phasor~ 0;
#X text 131 55 frequency;
#X obj 228 236 wrap~;
#N canvas 0 50 540 420 4*$v1*(1-$v1) 0;
#X obj 182 177 *~ 4;
#X obj 132 177 sig~ 1;
#X obj 132 200 -~;
#X obj 132 228 *~;
#X obj 182 76 inlet~;
#X obj 132 253 outlet~;
#X connect 0 0 3 1;
#X connect 1 0 2 0;
#X connect 2 0 3 0;
#X connect 3 0 5 0;
#X connect 4 0 2 1;
#X connect 4 0 0 0;
#X restore 228 262 pd 4*$v1*(1-$v1);
#N canvas 0 50 540 420 4*$v1*(1-$v1) 0;
#X obj 182 177 *~ 4;
#X obj 132 177 sig~ 1;
#X obj 132 200 -~;
#X obj 132 228 *~;
#X obj 182 76 inlet~;
#X obj 132 253 outlet~;
#X connect 0 0 3 1;
#X connect 1 0 2 0;
#X connect 2 0 3 0;
#X connect 3 0 5 0;
#X connect 4 0 2 1;
#X connect 4 0 0 0;
#X restore 79 261 pd 4*$v1*(1-$v1);
#X text 489 64 tri-saw factor (0-1);
#X obj 80 54 inlet~;
#X obj 430 66 inlet;
#X obj 430 89 clip 0.01 0.99;
#X obj 294 372 line~;
#X obj 294 350 pack 0 10;
#N canvas 0 50 540 420 4*$f1*(1-$f1) 0;
#X obj 185 177 * 4;
#X obj 137 72 inlet;
#X msg 137 171 1 \$1;
#X obj 137 200 -;
#X obj 137 228 *;
#X obj 137 107 t a a;
#X obj 137 253 outlet;
#X connect 0 0 4 1;
#X connect 1 0 5 0;
#X connect 2 0 3 0;
#X connect 3 0 4 0;
#X connect 4 0 6 0;
#X connect 5 0 2 0;
#X connect 5 1 0 0;
#X restore 430 290 pd 4*$f1*(1-$f1);
#X obj 245 151 line~;
#X obj 245 129 pack 0 10;
#X obj 227 177 +~;
#X obj 245 77 loadbang;
#X msg 245 98 0.5;
#X obj 220 414 /~;
#X obj 294 297 loadbang;
#X msg 294 318 1;
#X obj 241 45 inlet;
#X connect 0 0 2 0;
#X connect 1 0 2 1;
#X connect 2 0 21 0;
#X connect 4 0 8 0;
#X connect 4 0 18 0;
#X connect 6 0 7 0;
#X connect 7 0 1 0;
#X connect 8 0 0 0;
#X connect 10 0 4 0;
#X connect 11 0 12 0;
#X connect 12 0 15 0;
#X connect 12 0 17 0;
#X connect 13 0 21 1;
#X connect 14 0 13 0;
#X connect 15 0 14 0;
#X connect 16 0 18 1;
#X connect 17 0 16 0;
#X connect 18 0 6 0;
#X connect 19 0 20 0;
#X connect 20 0 17 0;
#X connect 21 0 3 0;
#X connect 22 0 23 0;
#X connect 23 0 14 0;
#X connect 24 0 4 1;
#X restore 130 162 pd triangle;
#X text 202 48 slope;
#X obj 189 96 loadbang;
#X msg 194 123 0.5;
#X connect 1 0 2 0;
#X connect 2 0 0 0;
#X connect 4 0 5 0;
#X connect 5 0 2 2;
#X restore 502 685 pd triangle;
#X obj 154 613 sel 0 1 2 3;
#X msg 528 717 1;
#X text 170 470 change waveform;
#X obj 154 550 delay 2;
#X obj 154 583 f;
#X obj 183 514 t b a b;
#X obj 132 743 smoothswitch;
#X obj 266 749 smoothswitch;
#X obj 390 742 smoothswitch;
#X obj 501 746 smoothswitch;
#X obj 316 864 *~;
#X obj 620 532 r rampsyn-\$1-decay-local;
#X obj 181 490 r rampsyn-\$1-waveform-local;
#X obj 566 348 r rampsyn-\$1-rampd-local;
#X obj 357 218 r rampsyn-\$1-rampamt-local;
#X obj 303 325 *~ 1;
#X obj 482 399 c_ead 3 50;
#X msg 547 615 \$1 5;
#X obj 482 264 t b f;
#X obj 514 290 * 0.00787402;
#X obj 510 326 r rampsyn-\$1-rampa-local;
#X obj 605 693 vline~;
#X obj 303 536 +~;
#X obj 482 481 *~;
#X obj 344 268 *;
#X obj 182 220 / 12543.9;
#X obj 182 242 expr 1 - $f1;
#X obj 316 886 *~;
#X connect 0 0 1 0;
#X connect 0 0 46 0;
#X connect 0 0 47 0;
#X connect 1 0 37 0;
#X connect 3 0 4 0;
#X connect 4 0 43 0;
#X connect 5 0 0 0;
#X connect 5 1 6 0;
#X connect 6 0 3 0;
#X connect 6 1 40 0;
#X connect 8 0 5 0;
#X connect 12 0 32 1;
#X connect 13 0 28 0;
#X connect 14 0 13 0;
#X connect 14 0 15 0;
#X connect 14 0 16 0;
#X connect 14 0 21 0;
#X connect 15 0 30 0;
#X connect 16 0 29 0;
#X connect 17 0 28 1;
#X connect 17 0 29 1;
#X connect 17 0 30 1;
#X connect 17 0 31 1;
#X connect 18 0 29 1;
#X connect 19 0 30 1;
#X connect 20 0 28 1;
#X connect 21 0 31 0;
#X connect 22 0 20 0;
#X connect 22 1 18 0;
#X connect 22 2 19 0;
#X connect 22 3 23 0;
#X connect 23 0 31 1;
#X connect 25 0 26 0;
#X connect 26 0 22 0;
#X connect 27 0 25 0;
#X connect 27 1 26 1;
#X connect 27 2 17 0;
#X connect 28 0 32 0;
#X connect 29 0 32 0;
#X connect 30 0 32 0;
#X connect 31 0 32 0;
#X connect 32 0 49 0;
#X connect 33 0 3 1;
#X connect 34 0 27 0;
#X connect 35 0 38 2;
#X connect 36 0 46 1;
#X connect 37 0 44 0;
#X connect 38 0 45 0;
#X connect 39 0 43 0;
#X connect 40 0 38 0;
#X connect 40 1 41 0;
#X connect 41 0 39 0;
#X connect 42 0 38 1;
#X connect 43 0 12 1;
#X connect 43 0 12 0;
#X connect 44 0 14 0;
#X connect 45 0 44 1;
#X connect 46 0 45 1;
#X connect 47 0 48 0;
#X connect 48 0 49 1;
#X connect 49 0 9 0;
