#N canvas 473 218 958 612 10;
#X msg 408 376 0;
#X obj 440 196 t b b, f 15;
#X msg 536 378 1;
#X obj 313 171 inlet;
#X obj 313 505 outlet;
#X obj 313 291 list, f 9;
#X msg 313 268 69;
#X obj 313 228 t b a;
#X obj 313 313 route 69;
#X obj 725 126 inlet;
#X obj 725 148 t b;
#X obj 408 125 r cgSc-\$1-mute-print;
#X obj 442 327 del 1;
#X obj 408 168 sel 1;
#X text 46 51 Arg1: match shorcut number;
#X obj 611 205 r cg-10p-master;
#X text 36 80 Arg2: which page;
#X obj 611 226 sel \$2, f 19;
#X obj 722 254 t b;
#X msg 722 275 0;
#X msg 638 273 1;
#X obj 638 319 f;
#X obj 638 340 s \$0-local-mute;
#X obj 506 163 r \$0-local-mute;
#X obj 611 247 t b b;
#X obj 313 437 spigot 0, f 11;
#X obj 376 409 r \$0-local-mute;
#X obj 313 467 spigot 0, f 14;
#X text 38 107 Arg3: mute re-print for complex order of operations
;
#X obj 442 351 spigot \$3;
#X obj 725 169 del 1;
#X obj 408 146 spigot 1;
#X connect 0 0 27 1;
#X connect 1 0 12 0;
#X connect 1 1 2 0;
#X connect 2 0 27 1;
#X connect 3 0 7 0;
#X connect 5 0 8 0;
#X connect 6 0 5 0;
#X connect 7 0 6 0;
#X connect 7 1 5 1;
#X connect 8 0 25 0;
#X connect 9 0 10 0;
#X connect 10 0 30 0;
#X connect 11 0 31 0;
#X connect 12 0 29 0;
#X connect 13 0 0 0;
#X connect 13 1 1 0;
#X connect 15 0 17 0;
#X connect 17 0 24 0;
#X connect 17 1 18 0;
#X connect 18 0 19 0;
#X connect 19 0 21 0;
#X connect 20 0 21 0;
#X connect 21 0 22 0;
#X connect 23 0 31 1;
#X connect 24 0 12 0;
#X connect 24 1 20 0;
#X connect 25 0 27 0;
#X connect 26 0 25 1;
#X connect 27 0 4 0;
#X connect 29 0 6 0;
#X connect 30 0 6 0;
#X connect 31 0 13 0;
