#N canvas 228 50 1651 959 10;
#X declare -path CG-Pd-Library-Local/sequencer;
#X declare -path CG-Pd-Library-Local/externals;
#X declare -path CG-Pd-Library-Local/metronome;
#X declare -path /sdcard/CG-Pd-Library/sequencer;
#X declare -path /sdcard/CG-Pd-Library/externals;
#X declare -path /sdcard/CG-Pd-Library/metronome;
#X obj 969 42 loadbang;
#X obj 948 168 soundfiler;
#X obj 1061 617 * 2;
#X obj 406 911 lop~ 5;
#X obj 416 886 sig~;
#X obj 405 947 s~ fb;
#X obj 426 457 throw~ outL;
#X obj 584 460 throw~ outR;
#X msg 1184 110 read ./d.wav drumd;
#X msg 1039 106 read ./c.wav drumc;
#X msg 900 107 read ./b.wav drumb;
#X msg 754 112 read ./a.wav druma;
#X obj 480 186 unpack 0 0;
#X obj 187 792 * 4;
#X obj 417 833 * 0.5;
#X obj 413 855 + 0.5;
#X obj 481 217 poly 4 1;
#X obj 478 248 pack 0 0 0;
#X obj 476 275 route 1 2 3 4;
#X obj 520 827 i;
#X obj 519 967 s screenLine2;
#X obj 1138 625 i;
#X obj 1137 603 * 100;
#X obj 1137 715 s screenLine4;
#X obj 1037 679 s pitchScale;
#X obj 433 357 stretchy;
#X obj 183 853 lop~ 5;
#X obj 183 820 sig~;
#X obj 183 890 s~ dtime;
#X obj 507 357 stretchy;
#X obj 581 357 stretchy;
#X obj 650 356 stretchy;
#X msg 686 734 set druma;
#X obj 660 281 r set_sound;
#X obj 696 829 s set_sound;
#X obj 710 540 * 4;
#X obj 710 563 i;
#X obj 761 684 sel 0 1 2 3;
#X msg 769 732 set drumb;
#X msg 854 734 set drumc;
#X msg 935 733 set drumd;
#X obj 820 844 s screenLine3;
#X msg 821 803 3: Snare;
#X msg 890 805 3: Cymbol;
#X msg 980 804 3: TomTom;
#X msg 1056 805 3: Bass Drum;
#X text 83 15 Plays drum samples into a tuned delay line for pseudo
plucked string effect;
#X obj 111 569 / 100;
#X obj 111 591 mtof;
#X obj 111 613 / 8.1785;
#X obj 108 544 * 2400;
#X msg 56 796 1: Tune \$1 cents;
#X obj 63 691 i;
#X floatatom 176 660 5 0 0 0 - - -;
#X obj 174 735 /;
#X obj 179 686 t b f;
#X msg 179 708 1;
#X obj 57 832 s screenLine1;
#X text 181 544 get delay time \, 'string length';
#X text 187 561 from cents;
#X obj 510 403 *~ 0.75;
#X obj 1121 446 r seq3-1-k4;
#X obj 757 487 r seq3-1-k3;
#X obj 490 503 r seq3-1-k2;
#X obj 161 485 r seq3-1-k1;
#X obj 1218 282 r seq3-1-led;
#X obj 1218 304 s led;
#X obj 472 10 r aux;
#X obj 546 85 r cgSc-1-slots;
#X obj 589 10 r \$0-reprint-port;
#N canvas 13 50 450 300 CG-PdLibrary-Local 0;
#X obj 502 35 r cgSc-1-slots;
#X obj 60 98 declare -path CG-Pd-Library-Local/sequencer;
#X obj 58 130 declare -path CG-Pd-Library-Local/externals;
#X obj 59 165 declare -path CG-Pd-Library-Local/metronome;
#X restore 1301 30 pd CG-PdLibrary-Local;
#N canvas 12 50 450 300 CG-PdLibrary-SDcard 0;
#X obj 60 98 declare -path /sdcard/CG-Pd-Library/sequencer;
#X obj 58 130 declare -path /sdcard/CG-Pd-Library/externals;
#X obj 59 165 declare -path /sdcard/CG-Pd-Library/metronome;
#X obj 502 35 r cgSc-1-slots;
#X restore 1301 59 pd CG-PdLibrary-SDcard;
#X obj 583 107 r beat-clock;
#X obj 472 134 seq3 1 0 ../../sequences 1, f 19;
#N canvas 19 51 625 625 metro-here 0;
#X obj 369 147 r seq3-1-actions, f 19;
#X obj 312 345 f;
#X msg 407 250 0;
#X obj 439 250 t b b;
#X msg 445 280 1;
#X obj 312 292 del 1;
#X obj 54 303 s beat-clock;
#X obj 176 83 loadbang;
#X msg 53 121 1;
#X obj 203 353 list, f 7;
#X obj 203 375 route 69;
#X obj 203 281 t b a;
#X msg 203 323 69;
#X msg 176 105 120;
#X obj 177 221 pack, f 10;
#X obj 212 189 t b a;
#X obj 54 151 metronome360 0, f 18;
#X obj 319 117 s seq3-1-quan;
#X obj 400 338 f;
#X obj 203 397 spigot 1;
#X obj 312 367 spigot 1, f 14;
#X obj 296 472 r cgSc-1-slots;
#X obj 296 498 + 1;
#X obj 203 552 print-line5 1, f 16;
#X obj 319 88 r metro-state;
#X obj 486 346 loadbang;
#X obj 296 519 f;
#X obj 486 388 t b b;
#X obj 312 428 f;
#X obj 486 367 del 1;
#X obj 407 179 r cgSc-1-mute-print;
#X obj 407 202 sel 1;
#X connect 0 0 1 0;
#X connect 1 0 20 0;
#X connect 2 0 18 0;
#X connect 3 0 5 0;
#X connect 3 1 4 0;
#X connect 4 0 18 0;
#X connect 5 0 1 0;
#X connect 5 0 12 0;
#X connect 7 0 13 0;
#X connect 7 0 8 0;
#X connect 8 0 16 0;
#X connect 9 0 10 0;
#X connect 10 0 19 0;
#X connect 11 0 12 0;
#X connect 11 1 9 1;
#X connect 12 0 9 0;
#X connect 13 0 16 1;
#X connect 14 0 11 0;
#X connect 15 0 14 0;
#X connect 15 1 14 1;
#X connect 16 0 6 0;
#X connect 16 1 15 0;
#X connect 16 2 14 0;
#X connect 18 0 19 1;
#X connect 18 0 20 1;
#X connect 19 0 23 0;
#X connect 20 0 28 0;
#X connect 21 0 22 0;
#X connect 22 0 26 0;
#X connect 24 0 17 0;
#X connect 25 0 29 0;
#X connect 26 0 23 2;
#X connect 27 0 28 0;
#X connect 27 1 26 0;
#X connect 28 0 23 1;
#X connect 29 0 27 0;
#X connect 30 0 31 0;
#X connect 31 0 2 0;
#X connect 31 1 3 0;
#X restore 1263 236 pd metro-here;
#N canvas 787 330 860 595 slot-saver-1 0;
#X obj 167 38 r cgSc-1-slots;
#X obj 30 68 loadbang;
#X msg 30 140 0;
#X obj 30 161 tabread \$0-slot;
#X obj 199 225 array define \$0-slot;
#X obj 30 110 t b b;
#X msg 199 138 read slot.txt;
#X msg 243 186 write slot.txt;
#X obj 243 160 r saveState;
#X obj 167 58 t a b;
#X msg 220 84 0;
#X obj 167 107 tabwrite \$0-slot;
#X obj 30 185 s cgSc-1-slots;
#X connect 0 0 9 0;
#X connect 1 0 5 0;
#X connect 2 0 3 0;
#X connect 3 0 12 0;
#X connect 5 0 2 0;
#X connect 5 1 6 0;
#X connect 6 0 4 0;
#X connect 7 0 4 0;
#X connect 8 0 7 0;
#X connect 9 0 11 0;
#X connect 9 1 10 0;
#X connect 10 0 11 1;
#X restore 1264 208 pd slot-saver-1;
#X msg 1138 674 4: Tone \$1%;
#X obj 1139 647 shortcut-mute-f 1;
#X obj 521 900 shortcut-mute-f 1;
#X obj 56 770 shortcut-mute-f 1;
#X obj 942 254 array define druma 44104;
#X obj 945 292 array define drumb 44104;
#X obj 947 339 array define drumc 44104;
#X obj 950 377 array define drumd 44104;
#X obj 1074 446 r knob4;
#X obj 424 506 r knob2;
#X obj 703 463 r knob3;
#X obj 85 479 r knob1;
#X obj 105 519 f;
#X obj 446 794 f;
#X obj 713 511 f;
#X obj 1094 486 f;
#X obj 765 648 shortcut-mute-f 1;
#X obj 1094 507 t f f;
#X obj 1094 528 *;
#X obj 1094 549 * 0.99;
#X obj 1093 575 + 0.01;
#X obj 445 600 t f f;
#X obj 445 629 *;
#X obj 445 758 -;
#X msg 445 714 1 \$1;
#X msg 445 555 1 \$1;
#X obj 445 576 -;
#X obj 445 660 t f f;
#X obj 445 689 *;
#X obj 518 804 * 1000;
#X obj 520 848 * 0.1;
#X msg 520 927 2: Feedback \$1%;
#X obj 472 41 shortcut 1 1, f 20;
#N canvas 594 50 1124 789 seq3-5option-control 0;
#X obj 139 278 outlet;
#X obj 65 121 t b;
#X msg 65 143 2;
#X obj 298 126 t b;
#X msg 298 148 3;
#X text 437 5 when aux is pressed after recording starts immediatley
end the rec and play the loop;
#X obj 170 70 sel 0;
#X obj 202 94 t b;
#X msg 202 116 1;
#X obj 33 66 r cgSc-1-2;
#X obj 171 48 r cgSc-1-1;
#X obj 33 88 sel 0;
#X obj 266 99 sel 0;
#X obj 317 272 r seq3-1-actions;
#X obj 317 294 sel 1, f 12;
#X obj 398 327 t b, f 4;
#X obj 317 445 s cgSc-1-1label;
#X obj 507 308 r seq3-1-actions;
#X obj 588 353 t b, f 4;
#X obj 507 329 sel 2 3, f 12;
#X obj 978 320 t b, f 4;
#X msg 978 355 Latch:Off;
#X msg 896 355 Latch:On;
#X obj 507 441 s cgSc-1-2label;
#X text 521 279 print to the shortcut menu;
#X obj 378 141 f 0;
#X obj 130 0 r midi-start;
#X msg 130 22 4;
#X obj 373 105 r midi-stop;
#X obj 507 125 t b;
#X obj 475 98 sel 0;
#X msg 507 147 5;
#X obj 192 487 r seq3-1-actions;
#X obj 273 532 t b, f 4;
#X obj 192 508 sel 5, f 12;
#X obj 317 373 f;
#X msg 317 403 \$1Seq:Stop;
#X obj 398 372 f;
#X msg 398 402 \$1Seq:Play;
#X msg 507 399 \$1Rec:Armd;
#X msg 588 397 \$1Rec:On;
#X msg 659 398 \$1Rec:Off;
#X obj 507 374 f;
#X obj 582 373 f;
#X obj 649 370 f;
#X obj 273 554 f;
#X obj 192 560 f;
#X msg 192 607 \$1Dub:On;
#X obj 201 286 r cgSc-1-slots;
#X obj 201 329 t b f f;
#X obj 166 439 s seq3-1-actions;
#X obj 166 415 v seq3-1-state;
#X obj 201 309 + 1;
#X obj 668 299 + 1;
#X obj 668 251 r cgSc-1-slots;
#X obj 321 507 + 1;
#X obj 321 483 r cgSc-1-slots;
#X obj 559 76 sel 1;
#X obj 612 80 r seq3-1-actions;
#X obj 559 174 t b b;
#X msg 640 152 0;
#X obj 559 152 spigot 0;
#X msg 612 129 1;
#X msg 559 196 1;
#X obj 192 650 s cgSc-1-3label;
#X obj 475 71 r cgSc-1-3;
#X obj 559 52 r cgSc-1-aux;
#X obj 896 398 s cgSc-1-5label;
#X obj 267 72 r cgSc-1-5;
#X obj 358 53 t b;
#X obj 326 26 sel 0;
#X obj 326 2 r cgSc-1-4;
#X msg 358 75 6;
#X obj 465 480 r seq3-1-actions;
#X obj 507 558 f;
#X obj 584 501 + 1;
#X obj 584 477 r cgSc-1-slots;
#X obj 465 643 s cgSc-1-4label;
#X obj 612 104 sel 3, f 12;
#X msg 273 607 \$1Dub:Off;
#X obj 465 501 sel 6, f 10;
#X obj 532 526 t b;
#X obj 465 585 spigot 1;
#X obj 552 582 spigot 0;
#X obj 675 510 r seq3-1-actions;
#X obj 675 532 sel 3;
#X obj 591 537 ==;
#X obj 637 564 f;
#X msg 637 533 1;
#X msg 708 615 0;
#X msg 552 607 \$1:Undo;
#X msg 465 610 \$1:Undid;
#X obj 465 523 t b b;
#X obj 31 189 loadbang;
#X msg 31 211 0;
#X obj 23 341 r init-1-slot;
#X obj 23 363 s cgSc-1-slots;
#X obj 896 255 r seq3-1-togLatch;
#X obj 896 296 sel 1, f 12;
#X connect 1 0 2 0;
#X connect 2 0 0 0;
#X connect 3 0 4 0;
#X connect 4 0 0 0;
#X connect 6 1 7 0;
#X connect 7 0 8 0;
#X connect 8 0 0 0;
#X connect 9 0 11 0;
#X connect 10 0 6 0;
#X connect 11 1 1 0;
#X connect 12 1 3 0;
#X connect 13 0 14 0;
#X connect 14 0 35 0;
#X connect 14 1 15 0;
#X connect 15 0 37 0;
#X connect 17 0 19 0;
#X connect 18 0 44 0;
#X connect 19 0 42 0;
#X connect 19 1 43 0;
#X connect 19 2 18 0;
#X connect 20 0 21 0;
#X connect 21 0 67 0;
#X connect 22 0 67 0;
#X connect 25 0 0 0;
#X connect 26 0 27 0;
#X connect 27 0 0 0;
#X connect 28 0 25 0;
#X connect 29 0 31 0;
#X connect 30 1 29 0;
#X connect 31 0 0 0;
#X connect 32 0 34 0;
#X connect 33 0 45 0;
#X connect 34 0 46 0;
#X connect 34 1 33 0;
#X connect 35 0 36 0;
#X connect 36 0 16 0;
#X connect 37 0 38 0;
#X connect 38 0 16 0;
#X connect 39 0 23 0;
#X connect 40 0 23 0;
#X connect 41 0 23 0;
#X connect 42 0 39 0;
#X connect 43 0 40 0;
#X connect 44 0 41 0;
#X connect 45 0 79 0;
#X connect 46 0 47 0;
#X connect 47 0 64 0;
#X connect 48 0 52 0;
#X connect 49 0 51 0;
#X connect 49 1 35 1;
#X connect 49 2 37 1;
#X connect 51 0 50 0;
#X connect 52 0 49 0;
#X connect 53 0 44 1;
#X connect 53 0 43 1;
#X connect 53 0 42 1;
#X connect 54 0 53 0;
#X connect 55 0 45 1;
#X connect 55 0 46 1;
#X connect 56 0 55 0;
#X connect 57 0 61 0;
#X connect 58 0 78 0;
#X connect 59 0 63 0;
#X connect 59 1 60 0;
#X connect 60 0 61 1;
#X connect 61 0 59 0;
#X connect 62 0 61 1;
#X connect 63 0 0 0;
#X connect 65 0 30 0;
#X connect 66 0 57 0;
#X connect 68 0 12 0;
#X connect 69 0 72 0;
#X connect 70 1 69 0;
#X connect 71 0 70 0;
#X connect 72 0 0 0;
#X connect 73 0 80 0;
#X connect 74 0 82 0;
#X connect 74 0 83 0;
#X connect 75 0 74 1;
#X connect 76 0 75 0;
#X connect 78 0 62 0;
#X connect 79 0 64 0;
#X connect 80 0 92 0;
#X connect 80 1 81 0;
#X connect 81 0 74 0;
#X connect 82 0 91 0;
#X connect 83 0 90 0;
#X connect 84 0 85 0;
#X connect 85 0 88 0;
#X connect 86 0 82 1;
#X connect 87 0 86 0;
#X connect 87 0 83 1;
#X connect 88 0 87 0;
#X connect 89 0 87 0;
#X connect 90 0 77 0;
#X connect 91 0 77 0;
#X connect 92 0 74 0;
#X connect 92 1 89 0;
#X connect 93 0 94 0;
#X connect 94 0 0 0;
#X connect 95 0 96 0;
#X connect 97 0 98 0;
#X connect 98 0 22 0;
#X connect 98 1 20 0;
#X restore 466 66 pd seq3-5option-control;
#X connect 0 0 11 0;
#X connect 0 0 10 0;
#X connect 0 0 9 0;
#X connect 0 0 8 0;
#X connect 2 0 24 0;
#X connect 3 0 5 0;
#X connect 4 0 3 0;
#X connect 8 0 1 0;
#X connect 9 0 1 0;
#X connect 10 0 1 0;
#X connect 11 0 1 0;
#X connect 12 0 16 0;
#X connect 12 1 16 1;
#X connect 13 0 27 0;
#X connect 14 0 15 0;
#X connect 15 0 4 0;
#X connect 16 0 17 0;
#X connect 16 1 17 1;
#X connect 16 2 17 2;
#X connect 17 0 18 0;
#X connect 18 0 25 0;
#X connect 18 1 29 0;
#X connect 18 2 30 0;
#X connect 18 3 31 0;
#X connect 19 0 106 0;
#X connect 21 0 77 0;
#X connect 22 0 21 0;
#X connect 25 0 60 0;
#X connect 26 0 28 0;
#X connect 27 0 26 0;
#X connect 29 0 60 0;
#X connect 30 0 60 0;
#X connect 31 0 60 0;
#X connect 32 0 34 0;
#X connect 33 0 31 1;
#X connect 33 0 30 1;
#X connect 33 0 29 1;
#X connect 33 0 25 1;
#X connect 35 0 36 0;
#X connect 36 0 92 0;
#X connect 37 0 32 0;
#X connect 37 0 42 0;
#X connect 37 1 38 0;
#X connect 37 1 43 0;
#X connect 37 2 39 0;
#X connect 37 2 44 0;
#X connect 37 3 40 0;
#X connect 37 3 45 0;
#X connect 38 0 34 0;
#X connect 39 0 34 0;
#X connect 40 0 34 0;
#X connect 42 0 41 0;
#X connect 43 0 41 0;
#X connect 44 0 41 0;
#X connect 45 0 41 0;
#X connect 47 0 48 0;
#X connect 48 0 49 0;
#X connect 49 0 53 0;
#X connect 50 0 47 0;
#X connect 50 0 52 0;
#X connect 51 0 57 0;
#X connect 52 0 79 0;
#X connect 53 0 55 0;
#X connect 54 0 13 0;
#X connect 55 0 56 0;
#X connect 55 1 54 1;
#X connect 56 0 54 0;
#X connect 60 0 7 0;
#X connect 60 0 6 0;
#X connect 61 0 91 0;
#X connect 62 0 90 0;
#X connect 63 0 101 0;
#X connect 64 0 88 0;
#X connect 65 0 66 0;
#X connect 67 0 108 0;
#X connect 68 0 73 2;
#X connect 69 0 108 1;
#X connect 72 0 73 3;
#X connect 73 0 12 0;
#X connect 76 0 23 0;
#X connect 77 0 76 0;
#X connect 78 0 107 0;
#X connect 79 0 51 0;
#X connect 84 0 91 0;
#X connect 85 0 101 0;
#X connect 86 0 90 0;
#X connect 87 0 88 0;
#X connect 88 0 50 0;
#X connect 89 0 14 0;
#X connect 89 0 105 0;
#X connect 90 0 35 0;
#X connect 91 0 93 0;
#X connect 92 0 37 0;
#X connect 93 0 94 0;
#X connect 93 1 94 1;
#X connect 94 0 95 0;
#X connect 95 0 96 0;
#X connect 96 0 2 0;
#X connect 96 0 22 0;
#X connect 97 0 98 0;
#X connect 97 1 98 1;
#X connect 98 0 103 0;
#X connect 99 0 89 0;
#X connect 100 0 99 0;
#X connect 101 0 102 0;
#X connect 102 0 97 0;
#X connect 103 0 104 0;
#X connect 103 1 104 1;
#X connect 104 0 100 0;
#X connect 105 0 19 0;
#X connect 106 0 78 0;
#X connect 107 0 20 0;
#X connect 108 0 73 0;
#X connect 109 0 73 1;
