#N canvas 320 172 983 598 10;
#X declare -path Sequencer2;
#X obj 9 127 loadbang;
#X obj 374 10 r aux;
#X obj 209 8 r notes;
#X obj 11 395 throw~ outL;
#X obj 101 395 throw~ outR;
#X obj 9 291 r~ inL;
#X obj 62 291 r~ inR;
#X obj 291 161 r knob1;
#X obj 408 160 r knob2;
#X obj 531 161 r knob3;
#X obj 658 160 r knob4;
#X obj 209 87 s lfod-1-notes-in;
#X obj 291 228 s lfod-1-ratea;
#X obj 408 226 s lfod-1-rateb;
#X obj 531 182 s lfod-1-scalar;
#X obj 658 182 s lfod-1-dw;
#X obj 10 320 s~ lfod-1-audio-in;
#X obj 11 353 r~ lfod-1-audio-out;
#X obj 233 318 r lfod-1-ratea-label;
#X obj 410 321 r lfod-1-rateb-label;
#X obj 574 318 r lfod-1-scalar-label;
#X obj 731 315 r lfod-1-dw-label;
#X obj 233 367 s screenLine1;
#X obj 410 369 s screenLine2;
#X obj 573 370 s screenLine3;
#X obj 731 365 s screenLine4;
#X obj 234 340 list prepend 1:;
#X obj 410 343 list prepend 2:;
#X obj 574 340 list prepend 3:;
#X obj 731 337 list prepend 4:;
#X obj 475 43 s led;
#X obj 9 49 declare -path Sequencer2;
#X obj 209 33 s seq2-1-notes-in;
#X obj 10 73 Sequencer2 1;
#X obj 209 62 r seq2-1-notes-out;
#X obj 475 13 r seq2-1-led;
#X obj 374 44 s seq2-1-aux;
#X obj 8 14 LFODelay 1;
#X obj 418 10 r fs;
#X msg 9 152 \; screenLine1 1: Del. A: \; screenLine2 2: Del. B: \;
screenLine3 3: Max A: B: \; screenLine4 4: Dry/Wet % \; screenLine5
Feedback \;;
#X connect 0 0 39 0;
#X connect 1 0 36 0;
#X connect 2 0 32 0;
#X connect 5 0 16 0;
#X connect 6 0 16 0;
#X connect 7 0 12 0;
#X connect 8 0 13 0;
#X connect 9 0 14 0;
#X connect 10 0 15 0;
#X connect 17 0 3 0;
#X connect 17 0 4 0;
#X connect 18 0 26 0;
#X connect 19 0 27 0;
#X connect 20 0 28 0;
#X connect 21 0 29 0;
#X connect 26 0 22 0;
#X connect 27 0 23 0;
#X connect 28 0 24 0;
#X connect 29 0 25 0;
#X connect 34 0 11 0;
#X connect 35 0 30 0;
#X connect 38 0 36 0;
