#N canvas 255 50 1107 820 10;
#X declare -path cg-pd-library-local/sampling;
#X declare -path cg-pd-library-local/sequencer;
#X declare -path cg-pd-library-local/externals;
#X declare -path cg-pd-library-local/metronome;
#X obj 89 766 throw~ outL;
#X obj 108 744 throw~ outR;
#N canvas 4 50 901 452 load 0;
#X obj 67 34 loadbang;
#X obj 67 55 t b b b b b b;
#X obj 148 99 s load-text-files;
#X obj 97 139 s recall-params;
#X obj 114 120 s init-sample-ct;
#X obj 89 184 s init-play-status;
#X connect 0 0 1 0;
#X connect 1 2 5 0;
#X connect 1 3 3 0;
#X connect 1 4 4 0;
#X connect 1 5 2 0;
#X restore 58 51 pd load;
#N canvas 19 51 625 625 metro-here 0;
#X obj 312 345 f;
#X msg 407 250 0;
#X obj 439 250 t b b;
#X msg 445 280 1;
#X obj 312 292 del 1;
#X obj 54 303 s beat-clock;
#X obj 52 62 loadbang;
#X obj 203 353 list, f 7;
#X obj 203 375 route 69;
#X obj 203 281 t b a;
#X msg 203 323 69;
#X obj 177 221 pack, f 10;
#X obj 212 189 t b a;
#X obj 54 151 metronome360 0, f 18;
#X obj 400 338 f;
#X obj 203 397 spigot 1;
#X obj 312 367 spigot 1, f 14;
#X obj 296 472 r cgSc-1-slots;
#X obj 296 498 + 1;
#X obj 203 552 print-line5 1, f 16;
#X obj 496 300 loadbang;
#X obj 296 519 f;
#X obj 486 388 t b b;
#X obj 312 428 f;
#X obj 486 367 del 1;
#X obj 423 167 r cgSc-1-mute-print;
#X obj 407 202 sel 1;
#X obj 149 15 inlet;
#X text 187 19 bpm;
#X connect 0 0 16 0;
#X connect 1 0 14 0;
#X connect 2 0 4 0;
#X connect 2 1 3 0;
#X connect 3 0 14 0;
#X connect 4 0 0 0;
#X connect 4 0 10 0;
#X connect 7 0 8 0;
#X connect 8 0 15 0;
#X connect 9 0 10 0;
#X connect 9 1 7 1;
#X connect 10 0 7 0;
#X connect 12 0 11 0;
#X connect 12 1 11 1;
#X connect 13 0 5 0;
#X connect 13 1 12 0;
#X connect 13 2 11 0;
#X connect 14 0 15 1;
#X connect 14 0 16 1;
#X connect 15 0 19 0;
#X connect 16 0 23 0;
#X connect 17 0 18 0;
#X connect 18 0 21 0;
#X connect 21 0 19 2;
#X connect 22 0 23 0;
#X connect 22 1 21 0;
#X connect 23 0 19 1;
#X connect 24 0 22 0;
#X connect 26 0 1 0;
#X connect 26 1 2 0;
#X connect 27 0 13 1;
#X restore 489 63 pd metro-here;
#X text 210 710 Sound out;
#X text 111 47 init sequence;
#X text 192 96 critter library of abstractions;
#N canvas 4 50 1358 682 shortcuts 0;
#X obj 1153 79 r saveState;
#X obj 1125 28 r load-text-files;
#X obj 1463 207 f 0;
#X obj 1334 204 f;
#X obj 1227 160 r transpose;
#X obj 1212 188 f;
#X obj 1169 107 t b b b b b, f 38;
#X obj 1286 198 f 1;
#X obj 157 100 sel 0;
#X obj 184 121 t b;
#X obj 157 79 r cgSc-1-6;
#X obj 233 100 sel 0;
#X obj 260 121 t b;
#X obj 307 100 sel 0;
#X obj 334 121 t b;
#X obj 233 79 r cgSc-1-7;
#X obj 307 79 r cgSc-1-8;
#X obj 184 142 f 1;
#X obj 260 142 f 2;
#X obj 334 142 f 3;
#X obj 260 193 s global-loop-page;
#X obj 97 425 r global-loop-page;
#X obj 97 551 s cgSc-1-6label;
#X obj 97 446 sel 1;
#X obj 160 483 t b;
#X obj 237 425 r global-loop-page;
#X obj 300 483 t b;
#X obj 237 551 s cgSc-1-7label;
#X obj 237 446 sel 2;
#X obj 387 425 r global-loop-page;
#X obj 450 483 t b;
#X obj 387 551 s cgSc-1-8label;
#X obj 388 446 sel 3;
#X msg 97 512 Loop: On;
#X msg 160 512 Loop: Off;
#X msg 238 512 Speed: On;
#X msg 300 512 Speed: Off;
#X msg 388 512 Vol: On;
#X msg 451 512 Vol: Off;
#X obj 1340 259 text set page;
#X msg 1156 321 write page.txt;
#X obj 1126 362 text define page;
#X obj 1353 175 r global-loop-page;
#X obj 754 188 r recall-params;
#X obj 754 235 text get page;
#X obj 754 209 f 0;
#X obj 754 256 s global-loop-page;
#X msg 1125 53 read page.txt;
#X obj 954 623 s cgSc-1-2label;
#X obj 954 474 r recall-params;
#X msg 954 553 Bnce: Off;
#X msg 1024 552 Bnce: On;
#X obj 1092 472 r bounce-status;
#X obj 1092 493 sel 0 1;
#X obj 529 142 r cgSc-1-3;
#X obj 529 163 sel 0;
#X obj 556 186 t b;
#X obj 556 207 f 1;
#X obj 591 210 + 1;
#X obj 591 231 == 1;
#X obj 556 379 s monitor-switch;
#X obj 556 258 t a a;
#X obj 583 289 sel 0 1, f 16;
#X obj 669 371 s cgSc-1-3label;
#X msg 669 329 Monitr: On;
#X obj 626 141 r recall-params;
#X obj 626 162 f 0;
#X msg 583 335 Monitr:Off;
#X connect 0 0 6 0;
#X connect 1 0 47 0;
#X connect 2 0 39 1;
#X connect 3 0 39 0;
#X connect 4 0 5 1;
#X connect 5 0 39 0;
#X connect 6 0 40 0;
#X connect 6 1 5 0;
#X connect 6 2 7 0;
#X connect 6 3 3 0;
#X connect 6 4 2 0;
#X connect 7 0 39 1;
#X connect 8 1 9 0;
#X connect 9 0 17 0;
#X connect 10 0 8 0;
#X connect 11 1 12 0;
#X connect 12 0 18 0;
#X connect 13 1 14 0;
#X connect 14 0 19 0;
#X connect 15 0 11 0;
#X connect 16 0 13 0;
#X connect 17 0 20 0;
#X connect 18 0 20 0;
#X connect 19 0 20 0;
#X connect 21 0 23 0;
#X connect 23 0 33 0;
#X connect 23 1 24 0;
#X connect 24 0 34 0;
#X connect 25 0 28 0;
#X connect 26 0 36 0;
#X connect 28 0 35 0;
#X connect 28 1 26 0;
#X connect 29 0 32 0;
#X connect 30 0 38 0;
#X connect 32 0 37 0;
#X connect 32 1 30 0;
#X connect 33 0 22 0;
#X connect 34 0 22 0;
#X connect 35 0 27 0;
#X connect 36 0 27 0;
#X connect 37 0 31 0;
#X connect 38 0 31 0;
#X connect 40 0 41 0;
#X connect 42 0 3 1;
#X connect 43 0 45 0;
#X connect 44 0 46 0;
#X connect 45 0 44 0;
#X connect 47 0 41 0;
#X connect 49 0 50 0;
#X connect 50 0 48 0;
#X connect 51 0 48 0;
#X connect 52 0 53 0;
#X connect 53 0 50 0;
#X connect 53 1 51 0;
#X connect 54 0 55 0;
#X connect 55 1 56 0;
#X connect 56 0 57 0;
#X connect 57 0 58 0;
#X connect 57 0 61 0;
#X connect 58 0 59 0;
#X connect 59 0 57 1;
#X connect 61 0 60 0;
#X connect 61 1 62 0;
#X connect 62 0 67 0;
#X connect 62 1 64 0;
#X connect 64 0 63 0;
#X connect 65 0 66 0;
#X connect 66 0 57 0;
#X connect 67 0 63 0;
#X restore 59 166 pd shortcuts;
#N canvas 91 138 1763 851 record 0;
#X obj 380 466 r~ inL;
#X msg 640 419 start;
#X msg 514 355 stop;
#X obj 379 626 cg-time-count;
#X obj 346 422 v global-sample-count;
#X obj 703 415 v global-sample-count;
#X obj 703 436 + 1;
#X msg 703 470 num \$1;
#X obj 379 550 unpack 0 0;
#X obj 379 678 pack 0 0 0;
#X obj 379 647 unpack;
#X obj 377 281 sel 0 1, f 62;
#X msg 379 700 Record \$3.wav \$1:\$2;
#X obj 377 171 v global-rec-status;
#X obj 377 192 sel 0 1, f 14;
#X obj 350 82 r cgSc-1-1;
#X obj 350 103 sel 0;
#X obj 377 128 t b;
#X obj 377 245 f 1;
#X obj 417 245 f 0;
#X obj 244 285 r init-sample-ct;
#X obj 561 316 t b b b, f 19;
#X obj 561 368 v global-rec-status;
#X obj 561 337 f 1;
#X obj 377 302 t b b b;
#X obj 350 363 v global-rec-status;
#X obj 350 332 f 0;
#X obj 379 529 cg-writeSf~ ../../loops;
#X obj 346 401 cg-count-sf ../../loops;
#X obj 254 633 s led;
#X obj 379 571 t a a a;
#X obj 642 503 r aux;
#X obj 642 527 sel 1;
#X obj 671 569 spigot 0;
#X obj 671 610 t b b;
#X msg 736 589 0;
#X obj 506 615 sel 1, f 13;
#X obj 506 658 f 1;
#X obj 581 661 f 0;
#X obj 533 690 f;
#X obj 697 733 s cgSc-1-1label;
#X obj 840 634 loadbang;
#X obj 506 636 t b b;
#X obj 581 640 t b b;
#X msg 697 694 Rcrd: On;
#X msg 789 692 Rcrd: Off;
#X obj 701 496 r notes;
#X obj 701 517 stripnote;
#X obj 701 538 t b;
#X obj 379 721 s screenLine1;
#X obj 1199 65 r cgSc-1-2;
#X obj 1199 86 sel 0;
#X obj 1226 113 t b;
#X obj 1226 173 sel 0 1, f 43;
#X obj 1226 225 f 1;
#X obj 1353 231 f 0;
#X obj 1226 152 v global-bounce-status;
#X obj 1229 446 r~ inL;
#X msg 1489 419 start;
#X msg 1363 355 stop;
#X obj 1228 626 cg-time-count;
#X obj 1195 422 v global-sample-count;
#X obj 1552 415 v global-sample-count;
#X obj 1552 436 + 1;
#X msg 1552 470 num \$1;
#X obj 1228 550 unpack 0 0;
#X obj 1228 678 pack 0 0 0;
#X obj 1228 647 unpack;
#X obj 1226 281 sel 0 1, f 62;
#X obj 1093 285 r init-sample-ct;
#X obj 1410 316 t b b b, f 19;
#X obj 1410 337 f 1;
#X obj 1226 302 t b b b;
#X obj 1199 332 f 0;
#X obj 1228 529 cg-writeSf~ ../../loops;
#X obj 1195 401 cg-count-sf ../../loops;
#X obj 1022 670 s led;
#X obj 1228 571 t a a a;
#X obj 1491 503 r aux;
#X obj 1491 527 sel 1;
#X obj 1520 569 spigot 0;
#X obj 1520 610 t b b;
#X msg 1585 589 0;
#X obj 1355 615 sel 1, f 13;
#X obj 1382 690 f;
#X obj 1638 648 loadbang;
#X obj 1550 496 r notes;
#X obj 1550 517 stripnote;
#X obj 1550 538 t b;
#X obj 1096 407 r~ voice-out;
#X msg 1546 694 Bnce: On;
#X msg 1638 692 Bnce: Off;
#X obj 1022 637 f 5;
#X obj 1022 616 sel 1, f 12;
#X obj 1199 363 v global-bounce-status;
#X obj 1411 368 v global-bounce-status;
#X obj 1546 734 s cgSc-1-2label;
#X obj 1226 194 t b b;
#X obj 377 213 t b b;
#X obj 272 63 r fs;
#X obj 272 84 sel 0;
#X obj 299 110 t b;
#X obj 1381 737 s oscOut;
#X obj 1449 662 f 1;
#X obj 1377 660 f 0;
#X msg 1342 786 /oled/gFillArea 3 0 0 128 10 0;
#X msg 1382 716 /oled/gShowInfoBar 3 \$1;
#X obj 1430 640 t b b b;
#X obj 1342 811 s oscOut;
#X obj 1355 636 t b b b;
#N canvas 101 153 867 636 print-line0 0;
#X msg 125 303 Bounce \$3.wav \$1:\$2;
#X obj 125 420 s oscOut;
#X obj 125 327 list prepend /oled/gPrintln 3 0 0 8 1;
#X obj 125 388 list trim;
#X obj 188 123 list, f 7;
#X obj 188 102 1;
#X obj 125 12 inlet;
#X obj 125 46 t a a b, f 11;
#X msg 245 241 Bounce \$3.wav \$1:\$2;
#X obj 245 265 list prepend /oled/gPrintln 3 0 0 8 0;
#X obj 245 171 route 1;
#X obj 245 192 route bang;
#X connect 0 0 2 0;
#X connect 2 0 3 0;
#X connect 3 0 1 0;
#X connect 4 0 10 0;
#X connect 5 0 4 0;
#X connect 6 0 7 0;
#X connect 7 0 0 0;
#X connect 7 1 4 1;
#X connect 7 2 5 0;
#X connect 8 0 9 0;
#X connect 9 0 3 0;
#X connect 10 0 11 0;
#X connect 11 1 8 0;
#X restore 1228 726 pd print-line0;
#X connect 0 0 27 0;
#X connect 1 0 27 1;
#X connect 2 0 27 1;
#X connect 3 0 10 0;
#X connect 5 0 6 0;
#X connect 6 0 7 0;
#X connect 7 0 27 1;
#X connect 8 0 30 0;
#X connect 8 1 9 2;
#X connect 9 0 12 0;
#X connect 10 0 9 0;
#X connect 10 1 9 1;
#X connect 11 0 24 0;
#X connect 11 1 21 0;
#X connect 12 0 49 0;
#X connect 13 0 14 0;
#X connect 14 0 98 0;
#X connect 14 1 19 0;
#X connect 15 0 16 0;
#X connect 16 1 17 0;
#X connect 17 0 13 0;
#X connect 18 0 11 0;
#X connect 19 0 11 0;
#X connect 20 0 28 0;
#X connect 21 0 23 0;
#X connect 21 1 1 0;
#X connect 21 2 5 0;
#X connect 23 0 22 0;
#X connect 24 0 26 0;
#X connect 24 1 28 0;
#X connect 24 2 2 0;
#X connect 26 0 25 0;
#X connect 27 0 8 0;
#X connect 28 0 4 0;
#X connect 30 0 29 0;
#X connect 30 1 3 0;
#X connect 30 2 36 0;
#X connect 31 0 32 0;
#X connect 32 0 33 0;
#X connect 33 0 34 0;
#X connect 34 0 24 0;
#X connect 34 1 35 0;
#X connect 35 0 33 1;
#X connect 36 0 42 0;
#X connect 36 1 43 0;
#X connect 37 0 39 0;
#X connect 38 0 39 0;
#X connect 39 0 33 1;
#X connect 41 0 45 0;
#X connect 42 0 37 0;
#X connect 42 1 44 0;
#X connect 43 0 38 0;
#X connect 43 1 45 0;
#X connect 44 0 40 0;
#X connect 45 0 40 0;
#X connect 46 0 47 0;
#X connect 47 0 48 0;
#X connect 48 0 33 0;
#X connect 50 0 51 0;
#X connect 51 1 52 0;
#X connect 52 0 56 0;
#X connect 53 0 97 0;
#X connect 53 1 55 0;
#X connect 54 0 68 0;
#X connect 55 0 68 0;
#X connect 56 0 53 0;
#X connect 57 0 74 0;
#X connect 58 0 74 1;
#X connect 59 0 74 1;
#X connect 60 0 67 0;
#X connect 62 0 63 0;
#X connect 63 0 64 0;
#X connect 64 0 74 1;
#X connect 65 0 77 0;
#X connect 65 1 66 2;
#X connect 66 0 110 0;
#X connect 67 0 66 0;
#X connect 67 1 66 1;
#X connect 68 0 72 0;
#X connect 68 1 70 0;
#X connect 69 0 75 0;
#X connect 70 0 71 0;
#X connect 70 1 58 0;
#X connect 70 2 62 0;
#X connect 71 0 95 0;
#X connect 72 0 73 0;
#X connect 72 1 75 0;
#X connect 72 2 59 0;
#X connect 73 0 94 0;
#X connect 74 0 65 0;
#X connect 75 0 61 0;
#X connect 77 0 93 0;
#X connect 77 1 60 0;
#X connect 77 2 83 0;
#X connect 78 0 79 0;
#X connect 79 0 80 0;
#X connect 80 0 81 0;
#X connect 81 1 82 0;
#X connect 82 0 80 1;
#X connect 83 0 109 0;
#X connect 83 1 107 0;
#X connect 84 0 106 0;
#X connect 85 0 91 0;
#X connect 86 0 87 0;
#X connect 87 0 88 0;
#X connect 88 0 80 0;
#X connect 89 0 74 0;
#X connect 90 0 96 0;
#X connect 91 0 96 0;
#X connect 92 0 76 0;
#X connect 93 0 92 0;
#X connect 93 1 76 0;
#X connect 97 0 54 0;
#X connect 97 1 19 0;
#X connect 98 0 18 0;
#X connect 98 1 55 0;
#X connect 99 0 100 0;
#X connect 100 1 101 0;
#X connect 101 0 13 0;
#X connect 103 0 84 0;
#X connect 104 0 84 0;
#X connect 105 0 108 0;
#X connect 106 0 102 0;
#X connect 107 1 103 0;
#X connect 107 2 91 0;
#X connect 109 0 105 0;
#X connect 109 1 104 0;
#X connect 109 2 90 0;
#X restore 51 340 pd record;
#X obj 761 67 r aux;
#X obj 878 67 r \$0-reprint-port;
#X obj 761 97 cg-shortcut 1 1, f 20;
#X obj 489 36 r knob4-bpm;
#X obj 52 288 array define knobz 100;
#X obj 156 216 r load-text-files;
#X msg 156 242 read knobz.txt;
#X obj 52 205 r saveState;
#X msg 52 241 write knobz.txt;
#N canvas 13 50 450 300 cg-pd-library-local 0;
#X obj 502 35 r cgSc-1-slots;
#X obj 60 68 declare -path cg-pd-library-local/sampling;
#X obj 60 98 declare -path cg-pd-library-local/sequencer;
#X obj 58 130 declare -path cg-pd-library-local/externals;
#X obj 59 165 declare -path cg-pd-library-local/metronome;
#X restore 51 94 pd cg-pd-library-local;
#N canvas 4 50 1097 784 kb-commands 0;
#X obj 22 39 stripnote;
#X obj 22 60 sel 60 61 62 63 64 65, f 48;
#X obj 76 166 s global-start;
#X obj 164 102 s global-stop;
#X obj 22 120 s loop-1-start;
#X obj 84 88 s loop-2-start;
#X obj 245 146 s loop-3-start;
#X obj 282 119 s loop-4-start;
#X obj 502 102 sel 72 74 76 77, f 48;
#X obj 512 162 s loop-1-stop;
#X obj 571 134 s loop-2-stop;
#X obj 658 178 s loop-3-stop;
#X obj 713 139 s loop-4-stop;
#X obj 22 18 r post-sc-notes;
#X connect 0 0 1 0;
#X connect 1 0 4 0;
#X connect 1 1 2 0;
#X connect 1 2 5 0;
#X connect 1 3 3 0;
#X connect 1 4 6 0;
#X connect 1 5 7 0;
#X connect 1 6 8 0;
#X connect 8 0 9 0;
#X connect 8 1 10 0;
#X connect 8 2 11 0;
#X connect 8 3 12 0;
#X connect 13 0 0 0;
#X restore 61 136 pd kb-commands;
#N canvas 4 50 1879 947 screenLine1-print 0;
#X obj 19 31 r global-loop-page;
#X obj 41 396 s screenLine1;
#X obj 19 52 sel 1 2 3 4, f 34;
#X obj 44 233 list store;
#X obj 41 154 list;
#X msg 28 118 -- SoundFiles --;
#X msg 141 124 -- Speed --;
#X msg 144 89 -- Volume --;
#X obj 159 206 r cgSc-1-mute-print;
#X obj 159 228 t a a, f 12;
#X obj 228 255 == 0;
#X obj 159 253 sel 0;
#X obj 159 274 del 1;
#X obj 41 175 t b a;
#X obj 41 363 spigot 1;
#X obj 126 164 r reprint-line-1;
#X msg 301 362 /oled/gFlip 3;
#X obj 423 373 list trim;
#X obj 404 237 t b a b;
#X obj 405 216 r sLine-L-1;
#X obj 423 352 list prepend /oled/gPrintln 3 3 20 8 1;
#X msg 667 366 /oled/gFlip 3;
#X obj 789 377 list trim;
#X obj 770 241 t b a b;
#X obj 772 220 r sLine-L-2;
#X obj 424 446 s oscOut;
#X obj 790 450 s oscOut;
#X obj 788 356 list prepend /oled/gPrintln 3 3 30 8 1;
#X msg 301 672 /oled/gFlip 3;
#X obj 423 683 list trim;
#X obj 404 547 t b a b;
#X msg 667 676 /oled/gFlip 3;
#X obj 789 687 list trim;
#X obj 770 551 t b a b;
#X obj 424 756 s oscOut;
#X obj 790 760 s oscOut;
#X obj 406 526 r sLine-L-3;
#X obj 772 530 r sLine-L-4;
#X obj 423 662 list prepend /oled/gPrintln 3 3 40 8 1;
#X obj 789 665 list prepend /oled/gPrintln 3 3 50 8 1;
#X msg 1145 348 /oled/gFlip 3;
#X obj 1267 359 list trim;
#X obj 1248 223 t b a b;
#X msg 1511 352 /oled/gFlip 3;
#X obj 1633 363 list trim;
#X obj 1614 227 t b a b;
#X obj 1268 432 s oscOut;
#X obj 1634 436 s oscOut;
#X msg 1145 658 /oled/gFlip 3;
#X obj 1267 669 list trim;
#X obj 1248 533 t b a b;
#X msg 1511 662 /oled/gFlip 3;
#X obj 1633 673 list trim;
#X obj 1614 537 t b a b;
#X obj 1268 742 s oscOut;
#X obj 1634 746 s oscOut;
#X obj 1249 202 r sLine-R-1;
#X obj 1616 206 r sLine-R-2;
#X obj 1250 512 r sLine-R-3;
#X obj 1616 516 r sLine-R-4;
#X obj 1269 649 list prepend /oled/gPrintln 3 102 40 8 1;
#X obj 1632 652 list prepend /oled/gPrintln 3 102 50 8 1;
#X obj 1632 342 list prepend /oled/gPrintln 3 102 30 8 1;
#X obj 1266 338 list prepend /oled/gPrintln 3 102 20 8 1;
#X msg 857 598 /oled/gFillArea 3 3 50 90 10 0;
#X msg 491 594 /oled/gFillArea 3 3 40 90 10 0;
#X msg 491 285 /oled/gFillArea 3 3 20 90 10 0;
#X msg 857 288 /oled/gFillArea 3 3 30 90 10 0;
#X msg 1326 280 /oled/gFillArea 3 94 20 34 10 0;
#X msg 1335 581 /oled/gFillArea 3 94 40 34 10 0;
#X msg 1701 583 /oled/gFillArea 3 94 50 34 10 0;
#X msg 1700 275 /oled/gFillArea 3 94 30 34 10 0;
#X connect 0 0 2 0;
#X connect 2 0 5 0;
#X connect 2 1 6 0;
#X connect 2 2 7 0;
#X connect 3 0 14 0;
#X connect 4 0 13 0;
#X connect 5 0 4 0;
#X connect 6 0 4 0;
#X connect 7 0 4 0;
#X connect 8 0 9 0;
#X connect 9 0 11 0;
#X connect 9 1 10 0;
#X connect 10 0 14 1;
#X connect 11 0 12 0;
#X connect 12 0 3 0;
#X connect 13 0 3 0;
#X connect 13 1 3 1;
#X connect 14 0 1 0;
#X connect 15 0 3 0;
#X connect 16 0 25 0;
#X connect 17 0 25 0;
#X connect 18 0 16 0;
#X connect 18 1 20 0;
#X connect 18 2 66 0;
#X connect 19 0 18 0;
#X connect 20 0 17 0;
#X connect 21 0 26 0;
#X connect 22 0 26 0;
#X connect 23 0 21 0;
#X connect 23 1 27 0;
#X connect 23 2 67 0;
#X connect 24 0 23 0;
#X connect 27 0 22 0;
#X connect 28 0 34 0;
#X connect 29 0 34 0;
#X connect 30 0 28 0;
#X connect 30 1 38 0;
#X connect 30 2 65 0;
#X connect 31 0 35 0;
#X connect 32 0 35 0;
#X connect 33 0 31 0;
#X connect 33 1 39 0;
#X connect 33 2 64 0;
#X connect 36 0 30 0;
#X connect 37 0 33 0;
#X connect 38 0 29 0;
#X connect 39 0 32 0;
#X connect 40 0 46 0;
#X connect 41 0 46 0;
#X connect 42 0 40 0;
#X connect 42 1 63 0;
#X connect 42 2 68 0;
#X connect 43 0 47 0;
#X connect 44 0 47 0;
#X connect 45 0 43 0;
#X connect 45 1 62 0;
#X connect 45 2 71 0;
#X connect 48 0 54 0;
#X connect 49 0 54 0;
#X connect 50 0 48 0;
#X connect 50 1 60 0;
#X connect 50 2 69 0;
#X connect 51 0 55 0;
#X connect 52 0 55 0;
#X connect 53 0 51 0;
#X connect 53 1 61 0;
#X connect 53 2 70 0;
#X connect 56 0 42 0;
#X connect 57 0 45 0;
#X connect 58 0 50 0;
#X connect 59 0 53 0;
#X connect 60 0 49 0;
#X connect 61 0 52 0;
#X connect 62 0 44 0;
#X connect 63 0 41 0;
#X connect 64 0 35 0;
#X connect 65 0 34 0;
#X connect 66 0 25 0;
#X connect 67 0 26 0;
#X connect 68 0 46 0;
#X connect 69 0 54 0;
#X connect 70 0 55 0;
#X connect 71 0 47 0;
#X restore 50 417 pd screenLine1-print;
#X obj 761 118 s post-sc-notes;
#X obj 389 328 loop-voice 1;
#X obj 480 327 loop-voice 2;
#X obj 580 327 loop-voice 3;
#X obj 686 326 loop-voice 4;
#X obj 390 417 s~ voice-out;
#X obj 174 588 r~ inL;
#X obj 219 588 r~ inR;
#X obj 271 585 r monitor-switch;
#X obj 271 606 lop~ 30;
#X obj 174 629 *~;
#X obj 90 588 r~ voice-out;
#X obj 90 708 *~ 1;
#X connect 9 0 11 0;
#X connect 10 0 11 1;
#X connect 11 0 21 0;
#X connect 12 0 3 0;
#X connect 14 0 15 0;
#X connect 15 0 13 0;
#X connect 16 0 17 0;
#X connect 17 0 13 0;
#X connect 22 0 26 0;
#X connect 23 0 26 0;
#X connect 24 0 26 0;
#X connect 25 0 26 0;
#X connect 27 0 31 0;
#X connect 28 0 31 0;
#X connect 29 0 30 0;
#X connect 30 0 31 1;
#X connect 31 0 33 0;
#X connect 32 0 33 0;
#X connect 33 0 0 0;
#X connect 33 0 1 0;
