#N canvas 1041 184 737 600 10;
#X obj 116 315 *~ 0.7;
#X obj 222 177 int;
#X obj 94 370 c_xfade;
#X obj 281 317 * 101;
#X obj 281 339 int;
#X msg 281 361 Dry / Wet \$1 %;
#X obj 197 99 * 128;
#X msg 222 199 Pitch \$1 Note;
#X obj 95 126 r~ ps-\$1-in;
#X obj 197 77 r ps-\$1-pitch;
#X obj 222 221 s ps-\$1-pitch-label;
#X obj 116 283 e_forcepitch;
#X obj 281 383 s ps-\$1-dw-label;
#X obj 221 281 r ps-\$1-dw;
#X obj 108 568 *~;
#N canvas 14 50 526 600 switcher 0;
#X obj 113 261 t b b;
#X obj 113 295 delay 5;
#X obj 263 387 line~;
#X msg 176 296 0 4;
#X obj 133 476 *~;
#X msg 113 327 0;
#X obj 113 220 bang;
#X msg 406 229 1;
#X msg 359 193 1 4;
#X obj 352 143 t b b b;
#X obj 139 506 outlet~;
#X obj 371 507 outlet;
#X obj 112 48 inlet;
#X obj 353 50 inlet;
#X connect 0 0 1 0;
#X connect 0 1 3 0;
#X connect 1 0 5 0;
#X connect 2 0 4 0;
#X connect 2 0 4 1;
#X connect 3 0 2 0;
#X connect 4 0 10 0;
#X connect 5 0 11 0;
#X connect 6 0 0 0;
#X connect 7 0 11 0;
#X connect 8 0 2 0;
#X connect 9 1 8 0;
#X connect 9 2 7 0;
#X connect 12 0 6 0;
#X connect 13 0 9 0;
#X restore 240 519 pd switcher;
#X obj 172 567 *~;
#X obj 240 490 sel 0 1;
#X obj 240 467 tgl 15 0 empty empty empty 17 7 0 10 -262144 -1 -1 1
1;
#X obj 314 543 switch~ 64 1 1;
#X obj 240 438 r ps-\$1-switch;
#X obj 267 414 r \$1-kill-switch;
#X msg 221 303 \$1 20;
#X obj 94 607 s~ ps-\$1-outL;
#X obj 224 607 s~ ps-\$1-outR;
#X connect 0 0 2 1;
#X connect 1 0 7 0;
#X connect 2 0 14 0;
#X connect 2 0 16 0;
#X connect 3 0 4 0;
#X connect 4 0 5 0;
#X connect 5 0 12 0;
#X connect 6 0 1 0;
#X connect 6 0 11 1;
#X connect 7 0 10 0;
#X connect 8 0 2 0;
#X connect 8 0 11 0;
#X connect 9 0 6 0;
#X connect 11 0 0 0;
#X connect 13 0 3 0;
#X connect 13 0 22 0;
#X connect 14 0 23 0;
#X connect 15 0 14 1;
#X connect 15 0 16 1;
#X connect 15 1 19 0;
#X connect 16 0 24 0;
#X connect 17 0 15 0;
#X connect 17 1 15 1;
#X connect 18 0 17 0;
#X connect 20 0 18 0;
#X connect 21 0 18 0;
#X connect 22 0 2 2;
