#N canvas 854 69 1062 818 10;
#X obj 462 533 i;
#X obj 776 471 * 100;
#X obj 776 499 i;
#X obj 634 488 * 101;
#X obj 634 520 i;
#X msg 571 310 wet \$1;
#X msg 678 301 dry \$1;
#X obj 130 452 freeverb~;
#X msg 571 250 \$1 40;
#X msg 678 240 \$1 40;
#X obj 678 270 line 0 1;
#X obj 571 278 line 0 1;
#X obj 678 180 - 1;
#X obj 678 207 abs;
#X msg 257 244 \$1 40;
#X obj 257 272 line 0 1;
#X msg 258 311 roomsize \$1;
#X obj 256 216 * 0.9;
#X msg 422 232 \$1 40;
#X obj 422 260 line 0 1;
#X msg 420 300 damping \$1;
#X obj 456 491 + 1;
#X obj 458 461 * 100;
#X msg 776 528 Dry / Wet \$1 %;
#X msg 629 550 Damping \$1 %;
#X obj 678 147 * 0.5;
#X msg 463 558 Room Size \$1;
#X obj 123 83 r~ rev-\$1-in;
#X obj 257 177 r rev-\$1-size;
#X obj 422 165 r rev-\$1-damp;
#X obj 463 607 s rev-\$1-size-label;
#X obj 623 604 s rev-\$1-damp-label;
#X obj 773 604 s rev-\$1-dw-label;
#X obj 678 113 r rev-\$1-dw;
#X obj 150 575 *~;
#N canvas 14 50 526 600 switcher 0;
#X obj 113 261 t b b;
#X obj 113 295 delay 5;
#X obj 263 387 line~;
#X msg 176 296 0 4;
#X obj 133 476 *~;
#X msg 113 327 0;
#X obj 113 220 bang;
#X msg 406 229 1;
#X msg 359 193 1 4;
#X obj 352 143 t b b b;
#X obj 139 506 outlet~;
#X obj 371 507 outlet;
#X obj 112 48 inlet;
#X obj 353 50 inlet;
#X connect 0 0 1 0;
#X connect 0 1 3 0;
#X connect 1 0 5 0;
#X connect 2 0 4 0;
#X connect 2 0 4 1;
#X connect 3 0 2 0;
#X connect 4 0 10 0;
#X connect 5 0 11 0;
#X connect 6 0 0 0;
#X connect 7 0 11 0;
#X connect 8 0 2 0;
#X connect 9 1 8 0;
#X connect 9 2 7 0;
#X connect 12 0 6 0;
#X connect 13 0 9 0;
#X restore 282 526 pd switcher;
#X obj 214 574 *~;
#X obj 282 497 sel 0 1;
#X obj 282 474 tgl 15 0 empty empty empty 17 7 0 10 -262144 -1 -1 0
1;
#X obj 356 550 switch~ 64 1 1;
#X obj 282 445 r rev-\$1-switch;
#X obj 320 416 r \$1-kill-switch;
#X obj 131 642 s~ rev-\$1-outL;
#X obj 276 642 s~ rev-\$1-outR;
#X connect 0 0 26 0;
#X connect 1 0 2 0;
#X connect 2 0 23 0;
#X connect 3 0 4 0;
#X connect 4 0 24 0;
#X connect 5 0 7 0;
#X connect 6 0 7 0;
#X connect 7 0 34 0;
#X connect 7 1 36 0;
#X connect 8 0 11 0;
#X connect 9 0 10 0;
#X connect 10 0 6 0;
#X connect 11 0 5 0;
#X connect 12 0 13 0;
#X connect 13 0 9 0;
#X connect 14 0 15 0;
#X connect 15 0 16 0;
#X connect 16 0 7 0;
#X connect 17 0 14 0;
#X connect 18 0 19 0;
#X connect 19 0 20 0;
#X connect 20 0 7 0;
#X connect 21 0 0 0;
#X connect 22 0 21 0;
#X connect 23 0 32 0;
#X connect 24 0 31 0;
#X connect 25 0 12 0;
#X connect 25 0 8 0;
#X connect 26 0 30 0;
#X connect 27 0 7 0;
#X connect 27 0 7 1;
#X connect 28 0 17 0;
#X connect 28 0 22 0;
#X connect 29 0 18 0;
#X connect 29 0 3 0;
#X connect 33 0 1 0;
#X connect 33 0 25 0;
#X connect 34 0 42 0;
#X connect 35 0 34 1;
#X connect 35 0 36 1;
#X connect 35 1 39 0;
#X connect 36 0 43 0;
#X connect 37 0 35 0;
#X connect 37 1 35 1;
#X connect 38 0 37 0;
#X connect 40 0 38 0;
#X connect 41 0 38 0;
