#N canvas 4 50 626 663 10;
#X obj 113 261 t b b;
#X obj 113 295 delay 5;
#X obj 263 387 line~;
#X msg 176 296 0 4;
#X obj 133 476 *~;
#X msg 113 327 0;
#X obj 113 220 bang;
#X msg 406 229 1;
#X msg 359 193 1 4;
#X obj 134 505 outlet~;
#X obj 371 507 outlet;
#X obj 113 96 inlet;
#X obj 352 97 inlet;
#X obj 352 143 t b b;
#X text 215 25 clean switch;
#X text 432 504 to switch~;
#X text 201 506 to *~;
#X connect 0 0 1 0;
#X connect 0 1 3 0;
#X connect 1 0 5 0;
#X connect 2 0 4 0;
#X connect 2 0 4 1;
#X connect 3 0 2 0;
#X connect 4 0 9 0;
#X connect 5 0 10 0;
#X connect 6 0 0 0;
#X connect 7 0 10 0;
#X connect 8 0 2 0;
#X connect 11 0 6 0;
#X connect 12 0 13 0;
#X connect 13 0 8 0;
#X connect 13 1 7 0;
