#N canvas 4 50 1442 910 10;
#X obj 139 278 outlet;
#X obj 215 76 t b;
#X obj 494 61 t b;
#X text 866 11 when aux is pressed after recording starts immediatley
end the rec and play the loop;
#X obj 101 50 sel 0;
#X obj 128 74 t b;
#X obj 188 49 sel 0;
#X obj 467 40 sel 0;
#X obj 301 77 t b;
#X obj 274 50 sel 0;
#X obj 782 43 sel 1;
#X obj 782 141 t b b;
#X msg 863 119 0;
#X obj 782 119 spigot 0;
#X msg 835 96 1;
#X obj 394 76 t b;
#X obj 367 49 sel 0;
#X obj 835 71 sel 3, f 12;
#X obj 536 112 + 1;
#X obj 536 133 == 1;
#X obj 494 112 f 1;
#X text 293 401 latch: toggle the latch feature;
#X text 291 419 stop: stops everything;
#X text 297 452 record: enable the record phase \, waits for input
;
#X text 296 470 continue: plays \, and plays if still playing \, doesnt
toggle;
#X text 293 435 play: the play toggle;
#X text 304 492 overdub: start the overdub process;
#X text 309 509 undo: revert back to the last recorded sequence;
#X msg 215 98 record;
#X obj 188 27 r cgSc-\$1-2;
#X obj 101 28 r cgSc-\$1-1;
#X msg 128 96 play;
#X msg 301 99 overdub;
#X msg 394 98 undo;
#X obj 547 69 r seq3-\$1-latch-control;
#X obj 467 14 r cgSc-\$1-5;
#X msg 494 158 latch \$1;
#X obj 367 25 r cgSc-\$1-4;
#X obj 274 23 r cgSc-\$1-3;
#X obj 782 19 r cgSc-\$1-aux;
#X obj 835 47 r seq3-\$1-actions;
#X msg 782 163 continue;
#X connect 1 0 28 0;
#X connect 2 0 20 0;
#X connect 4 1 5 0;
#X connect 5 0 31 0;
#X connect 6 1 1 0;
#X connect 7 1 2 0;
#X connect 8 0 32 0;
#X connect 9 1 8 0;
#X connect 10 0 13 0;
#X connect 11 0 41 0;
#X connect 11 1 12 0;
#X connect 12 0 13 1;
#X connect 13 0 11 0;
#X connect 14 0 13 1;
#X connect 15 0 33 0;
#X connect 16 1 15 0;
#X connect 17 0 14 0;
#X connect 18 0 19 0;
#X connect 19 0 20 1;
#X connect 20 0 18 0;
#X connect 20 0 36 0;
#X connect 28 0 0 0;
#X connect 29 0 6 0;
#X connect 30 0 4 0;
#X connect 31 0 0 0;
#X connect 32 0 0 0;
#X connect 33 0 0 0;
#X connect 34 0 20 0;
#X connect 35 0 7 0;
#X connect 36 0 0 0;
#X connect 37 0 16 0;
#X connect 38 0 9 0;
#X connect 39 0 10 0;
#X connect 40 0 17 0;
#X connect 41 0 0 0;
