#N canvas 1213 380 624 558 10;
#X obj 24 28 inlet ticks;
#X obj 333 339 text define \$0-seq;
#X obj 333 24 inlet list;
#X obj 396 314 text set \$0-seq;
#X obj 396 218 t a b, f 8;
#X obj 441 259 f;
#X obj 477 261 + 1;
#X msg 456 232 0;
#X msg 333 312 clear;
#X obj 333 98 t b b;
#X obj 333 75 route clear;
#X obj 396 239 - 1;
#X obj 396 260 * 360;
#X obj 51 176 text get \$0-seq;
#X obj 51 197 i;
#X obj 24 49 t a a;
#X obj 51 72 sel 0;
#X msg 51 93 0;
#X obj 24 248 sel 1;
#X obj 51 136 f;
#X obj 87 138 + 1;
#X obj 51 297 s \$0-next;
#X obj 89 95 r \$0-next;
#X obj 24 269 t b b;
#X obj 24 330 outlet;
#X obj 24 227 ==;
#X obj 396 119 cg-list-2-items;
#X connect 0 0 15 0;
#X connect 2 0 10 0;
#X connect 4 0 11 0;
#X connect 4 1 5 0;
#X connect 5 0 6 0;
#X connect 5 0 3 1;
#X connect 6 0 5 1;
#X connect 7 0 5 1;
#X connect 8 0 1 0;
#X connect 9 0 8 0;
#X connect 9 1 7 0;
#X connect 10 0 9 0;
#X connect 10 1 26 0;
#X connect 11 0 12 0;
#X connect 12 0 3 0;
#X connect 13 0 14 0;
#X connect 14 0 25 1;
#X connect 15 0 25 0;
#X connect 15 1 16 0;
#X connect 16 0 17 0;
#X connect 17 0 19 0;
#X connect 18 0 23 0;
#X connect 19 0 20 0;
#X connect 19 0 13 0;
#X connect 20 0 19 1;
#X connect 22 0 19 0;
#X connect 23 0 24 0;
#X connect 23 1 21 0;
#X connect 25 0 18 0;
#X connect 26 0 4 0;
