#N canvas 395 50 1514 876 10;
#X obj 62 2 inlet BPM;
#X obj 778 22 inlet print-for-seq;
#X obj 835 641 s oscOut;
#X msg 661 519 /oled/gFlip 3;
#X obj 777 353 symbol;
#X msg 739 303 Play;
#X msg 777 303 Stop;
#X msg 890 242 Arm, f 5;
#X obj 338 533 s oscOut;
#X msg 189 505 /oled/gFlip 3;
#X obj 412 389 s oscOut;
#X msg 263 361 /oled/gFlip 3;
#X obj 188 691 s oscOut;
#X msg 39 663 /oled/gFlip 3;
#X msg 996 303 Ltch;
#X obj 777 426 t b b a b, f 22;
#X obj 100 561 t b b a b;
#X obj 324 259 t b b a b;
#X obj 251 402 t b b a b;
#X obj 67 448 list;
#X obj 62 174 route 1 2 3 4, f 44;
#X obj 290 199 t b;
#X msg 290 221 Off;
#X msg 1065 309 Dub;
#X obj 777 385 pack s 1;
#X obj 1154 253 t f f;
#X obj 1186 281 moses 10;
#X obj 1186 303 t b;
#X msg 1186 325 0;
#X obj 1239 303 t b;
#X msg 1238 325 1;
#X obj 783 519 spigot 0;
#X obj 854 519 spigot 0;
#X obj 1186 357 f;
#X obj 1045 519 ==;
#X msg 384 286 /oled/gFillArea 3 63 54 65 10 0;
#X msg 340 429 /oled/gFillArea 3 63 54 65 10 0;
#X msg 194 596 /oled/gFillArea 3 63 54 65 10 0;
#X msg 949 497 /oled/gPrintln 3 2 55 8 1 \$2Seq:\$1;
#X msg 152 624 /oled/gPrintln 3 68 55 8 1 BPM:\$1;
#X msg 291 459 /oled/gPrintln 3 68 55 8 1 MIDI:\$1;
#X msg 364 309 /oled/gPrintln 3 68 55 8 1 LINK:\$1;
#X msg 789 574 /oled/gInvertArea 3 36 54 27 9;
#X msg 854 551 /oled/gInvertArea 3 30 54 27 9;
#X msg 143 648 /oled/gInvertArea 3 90 54 21 9;
#X msg 272 482 /oled/gInvertArea 3 96 54 21 9;
#X msg 345 334 /oled/gInvertArea 3 96 54 21 9;
#X obj 1107 39 inlet;
#X text 453 15 arg 1: nu \, ber to match the seq3 to print;
#X obj 1016 174 sel 0 1;
#X obj 1016 152 r seq3-\$1-overdub-on;
#X obj 974 255 symbol;
#X msg 990 205 symbol Rec;
#X msg 1061 233 symbol oDub;
#X obj 778 114 sel 0 1 2 3 4 5 6, f 57;
#X msg 1183 152 Undo;
#X msg 928 454 /oled/gFillArea 3 0 54 64 10 0;
#X obj 1227 53 inlet mute;
#X obj 1107 60 spigot 1;
#X obj 778 83 spigot 1;
#X obj 62 83 spigot 1;
#X obj 1227 74 s \$0-mute;
#X obj 1149 37 r \$0-mute;
#X obj 823 61 r \$0-mute;
#X obj 107 57 r \$0-mute;
#X connect 0 0 60 0;
#X connect 1 0 59 0;
#X connect 3 0 2 0;
#X connect 4 0 24 0;
#X connect 5 0 4 0;
#X connect 6 0 4 0;
#X connect 7 0 4 0;
#X connect 9 0 8 0;
#X connect 11 0 10 0;
#X connect 13 0 12 0;
#X connect 14 0 4 0;
#X connect 15 0 3 0;
#X connect 15 1 31 0;
#X connect 15 1 32 0;
#X connect 15 2 38 0;
#X connect 15 3 56 0;
#X connect 16 0 13 0;
#X connect 16 1 44 0;
#X connect 16 2 39 0;
#X connect 16 3 37 0;
#X connect 17 0 11 0;
#X connect 17 1 46 0;
#X connect 17 2 41 0;
#X connect 17 3 35 0;
#X connect 18 0 9 0;
#X connect 18 1 45 0;
#X connect 18 2 40 0;
#X connect 18 3 36 0;
#X connect 19 0 16 0;
#X connect 20 0 19 0;
#X connect 20 1 18 0;
#X connect 20 2 17 0;
#X connect 20 3 21 0;
#X connect 21 0 22 0;
#X connect 22 0 19 0;
#X connect 23 0 4 0;
#X connect 24 0 15 0;
#X connect 25 0 24 1;
#X connect 25 1 26 0;
#X connect 26 0 27 0;
#X connect 26 1 29 0;
#X connect 27 0 28 0;
#X connect 28 0 33 0;
#X connect 29 0 30 0;
#X connect 30 0 33 0;
#X connect 31 0 42 0;
#X connect 32 0 43 0;
#X connect 33 0 34 0;
#X connect 33 0 31 1;
#X connect 34 0 32 1;
#X connect 35 0 10 0;
#X connect 36 0 8 0;
#X connect 37 0 12 0;
#X connect 38 0 2 0;
#X connect 39 0 12 0;
#X connect 40 0 8 0;
#X connect 41 0 10 0;
#X connect 42 0 2 0;
#X connect 43 0 2 0;
#X connect 44 0 12 0;
#X connect 45 0 8 0;
#X connect 46 0 10 0;
#X connect 47 0 58 0;
#X connect 49 0 52 0;
#X connect 49 1 53 0;
#X connect 50 0 49 0;
#X connect 51 0 4 0;
#X connect 52 0 51 1;
#X connect 53 0 51 1;
#X connect 54 0 6 0;
#X connect 54 1 5 0;
#X connect 54 2 7 0;
#X connect 54 3 51 0;
#X connect 54 4 14 0;
#X connect 54 5 23 0;
#X connect 54 6 55 0;
#X connect 55 0 4 0;
#X connect 56 0 2 0;
#X connect 57 0 61 0;
#X connect 58 0 25 0;
#X connect 59 0 54 0;
#X connect 60 0 20 0;
#X connect 62 0 58 1;
#X connect 63 0 59 1;
#X connect 64 0 60 1;
