#N canvas 370 98 1237 849 10;
#N canvas 4 50 1905 999 states 0;
#X obj 136 11 inlet;
#X msg 1346 13 stop;
#X msg 1287 12 0;
#X text 1322 14 =;
#X text 1322 44 =;
#X msg 1287 42 1;
#X msg 1346 43 start;
#X text 1322 74 =;
#X msg 1287 72 2;
#X msg 1346 73 recenable;
#X text 1322 104 =;
#X msg 1286 102 3;
#X msg 1346 103 record;
#X obj 227 594 v seq3-\$1-state;
#X obj 254 569 s seq3-\$1-actions;
#X obj 254 318 v seq3-\$1-state;
#X msg 254 387 0;
#X msg 317 399 1;
#X obj 317 376 t b;
#X obj 417 310 v seq3-\$1-state;
#X obj 417 332 sel 2, f 7;
#X msg 417 355 0;
#X obj 463 355 t b;
#X obj 417 465 v seq3-\$1-state;
#X obj 444 434 s seq3-\$1-actions;
#X msg 463 378 2;
#X text 422 296 if 2 is on turn off \, otherwise turn on 2;
#X obj 870 691 t b b b, f 22;
#X msg 887 763 stop;
#X obj 1156 866 f 0;
#X msg 934 714 7;
#X obj 870 793 del 50;
#X obj 870 626 spigot;
#X obj 1095 897 f 0;
#X obj 1019 514 r seq3-\$1-actions;
#X obj 1142 703 r seq3-\$1-actions;
#X obj 1095 926 s seq3-\$1-led;
#X obj 686 263 v seq3-\$1-state;
#X obj 767 321 t b;
#X obj 686 434 v seq3-\$1-state;
#X obj 713 411 s seq3-\$1-actions;
#X obj 686 292 sel 1, f 14;
#X obj 1216 437 r seq3-\$1-actions;
#X obj 870 571 sel 0;
#X text 1322 164 =;
#X msg 1286 162 5;
#X msg 1345 162 overdub;
#X obj 847 253 v seq3-\$1-state;
#X obj 847 275 sel 5;
#X msg 847 297 0;
#X msg 879 319 5;
#X obj 847 429 v seq3-\$1-state;
#X obj 874 402 s seq3-\$1-actions;
#X obj 870 662 spigot \$2;
#X obj 921 637 r seq3-\$1-quan;
#X obj 1304 762 r seq3-\$1-overdub-on;
#X obj 1304 786 + 1;
#X obj 1289 810 f;
#X obj 879 297 t b b;
#X msg 923 317 0;
#X text 1322 194 =;
#X msg 1286 192 6;
#X msg 1345 192 undo;
#X obj 1008 403 v seq3-\$1-state;
#X obj 1035 376 s seq3-\$1-actions;
#X obj 1216 662 s seq3-\$1-led;
#X obj 1216 637 f;
#X obj 227 537 t f f;
#X obj 417 403 t f f;
#X obj 686 384 t f f;
#X obj 847 357 t f f;
#X obj 1008 331 t f f;
#X obj 1019 536 sel 0 5 6;
#X obj 1070 565 t b;
#X msg 1070 587 1;
#X obj 1355 516 r seq3-\$1-overdub-on;
#X obj 1355 540 + 1;
#X obj 1340 568 f;
#X obj 254 343 sel 1 6, f 11;
#X text 1289 137 latch seperate now;
#X obj 76 402 s seq3-\$1-togLatch;
#X obj 44 307 f 0;
#X obj 76 307 + 1;
#X obj 681 544 r seq3-\$1-togLatch;
#X msg 697 747 stop;
#X obj 744 828 s seq3-\$1-led;
#X obj 680 777 del 178;
#X obj 680 637 sel 1 0, f 10;
#X obj 680 685 t b f b, f 22;
#X msg 680 658 4;
#X msg 708 658 1;
#X obj 681 565 t b f;
#X obj 680 611 spigot 0;
#X msg 681 586 1;
#X obj 76 328 == 1;
#X obj 27 31 t b;
#X obj 27 10 r seq3-\$1-init;
#X msg 27 52 stop;
#X obj 175 232 t b;
#X obj 175 253 f 0;
#X obj 307 253 t b;
#X obj 417 275 t b;
#X obj 1143 780 f 0;
#X obj 1143 801 t a a;
#X obj 1216 505 f 0;
#X obj 1257 504 f 3;
#X obj 1299 510 f 6;
#X obj 1217 464 sel 0 1 2 3, f 27;
#X obj 1142 725 sel 0 1 2 3, f 32;
#X obj 1190 764 f 3;
#X obj 1239 761 f 6;
#X obj 870 546 r \$0-beat-clock-local;
#X obj 1019 571 f 0;
#X obj 44 190 route latch stop play record continue overdub undo,
f 188;
#X obj 686 231 t b;
#X obj 847 226 t b;
#X obj 1008 238 t b;
#X obj 1008 259 f 6;
#X text 341 17 latch: toggle the latch feature;
#X text 339 35 stop: stops everything;
#X text 345 68 record: enable the record phase \, waits for input;
#X text 344 86 continue: plays \, and plays if still playing \, doesnt
toggle;
#X text 341 51 play: the play toggle;
#X obj 686 313 f 1;
#X obj 767 342 f 1;
#X text 352 108 overdub: start the overdub process;
#X text 357 125 undo: revert back to the last recorded sequence;
#X connect 0 0 113 0;
#X connect 15 0 78 0;
#X connect 16 0 67 0;
#X connect 17 0 67 0;
#X connect 18 0 17 0;
#X connect 19 0 20 0;
#X connect 20 0 21 0;
#X connect 20 1 22 0;
#X connect 21 0 68 0;
#X connect 22 0 25 0;
#X connect 25 0 68 0;
#X connect 27 0 31 0;
#X connect 27 1 30 0;
#X connect 27 2 28 0;
#X connect 28 0 31 0;
#X connect 29 0 33 0;
#X connect 30 0 33 0;
#X connect 31 0 29 0;
#X connect 32 0 53 0;
#X connect 33 0 36 0;
#X connect 34 0 72 0;
#X connect 35 0 108 0;
#X connect 37 0 41 0;
#X connect 38 0 124 0;
#X connect 41 0 123 0;
#X connect 41 1 38 0;
#X connect 42 0 107 0;
#X connect 43 0 32 0;
#X connect 47 0 48 0;
#X connect 48 0 49 0;
#X connect 48 1 58 0;
#X connect 49 0 70 0;
#X connect 50 0 70 0;
#X connect 53 0 27 0;
#X connect 54 0 53 1;
#X connect 55 0 56 0;
#X connect 56 0 57 1;
#X connect 57 0 29 1;
#X connect 58 0 50 0;
#X connect 58 1 59 0;
#X connect 59 0 70 0;
#X connect 66 0 65 0;
#X connect 67 0 13 0;
#X connect 67 1 14 0;
#X connect 68 0 23 0;
#X connect 68 1 24 0;
#X connect 69 0 39 0;
#X connect 69 1 40 0;
#X connect 70 0 51 0;
#X connect 70 1 52 0;
#X connect 71 0 63 0;
#X connect 71 1 64 0;
#X connect 72 0 112 0;
#X connect 72 1 112 0;
#X connect 72 2 112 0;
#X connect 72 3 73 0;
#X connect 73 0 74 0;
#X connect 74 0 32 1;
#X connect 75 0 76 0;
#X connect 76 0 77 1;
#X connect 77 0 66 0;
#X connect 78 0 16 0;
#X connect 78 1 16 0;
#X connect 78 2 18 0;
#X connect 81 0 82 0;
#X connect 82 0 94 0;
#X connect 83 0 91 0;
#X connect 84 0 86 0;
#X connect 86 0 29 0;
#X connect 87 0 89 0;
#X connect 87 1 90 0;
#X connect 88 0 86 0;
#X connect 88 1 85 0;
#X connect 88 2 84 0;
#X connect 89 0 88 0;
#X connect 90 0 88 0;
#X connect 91 0 93 0;
#X connect 91 1 92 0;
#X connect 92 0 87 0;
#X connect 93 0 92 1;
#X connect 94 0 80 0;
#X connect 94 0 81 1;
#X connect 95 0 97 0;
#X connect 96 0 95 0;
#X connect 97 0 113 0;
#X connect 98 0 99 0;
#X connect 99 0 67 0;
#X connect 100 0 15 0;
#X connect 101 0 19 0;
#X connect 102 0 103 0;
#X connect 103 0 33 0;
#X connect 103 1 29 1;
#X connect 104 0 66 0;
#X connect 105 0 66 0;
#X connect 106 0 66 0;
#X connect 107 0 104 0;
#X connect 107 1 105 0;
#X connect 107 2 106 0;
#X connect 107 3 77 0;
#X connect 108 0 102 0;
#X connect 108 1 109 0;
#X connect 108 2 110 0;
#X connect 108 3 57 0;
#X connect 109 0 29 1;
#X connect 110 0 29 1;
#X connect 111 0 43 0;
#X connect 112 0 32 1;
#X connect 113 0 81 0;
#X connect 113 1 98 0;
#X connect 113 2 100 0;
#X connect 113 3 101 0;
#X connect 113 4 114 0;
#X connect 113 5 115 0;
#X connect 113 6 116 0;
#X connect 114 0 37 0;
#X connect 115 0 47 0;
#X connect 116 0 117 0;
#X connect 117 0 71 0;
#X connect 123 0 69 0;
#X connect 124 0 69 0;
#X restore 555 130 pd states;
#X obj 87 146 t a a;
#N canvas 9 50 1183 836 countem 0;
#X obj 443 416 s seq3-\$1-count-notes;
#X obj 346 183 inlet;
#X obj 440 380 + 1;
#X msg 402 333 -1;
#X msg 445 333 1;
#X obj 364 303 t b b;
#X obj 364 394 max 0;
#X obj 424 302 t b b;
#X obj 346 205 unpack 0 0;
#X obj 413 231 sel 0;
#X obj 364 372 f 0;
#X connect 1 0 8 0;
#X connect 2 0 10 1;
#X connect 2 0 0 0;
#X connect 3 0 2 1;
#X connect 4 0 2 1;
#X connect 5 0 10 0;
#X connect 5 1 3 0;
#X connect 6 0 2 0;
#X connect 7 0 10 0;
#X connect 7 1 4 0;
#X connect 8 1 9 0;
#X connect 9 0 5 0;
#X connect 9 1 7 0;
#X connect 10 0 6 0;
#X restore 114 171 pd countem;
#X obj 114 269 s \$0-pass;
#X text 619 133 state control;
#X text 206 170 count the incoming notes;
#X text 128 254 incoming notes get passed to the outlet;
#X obj 87 317 seq-format-event note;
#X text 453 479 round seq length to multiple of beats;
#X obj 87 399 s \$0-events-in;
#X obj 438 393 f \$2;
#X obj 438 528 s \$0-arg-2-seq;
#X text 448 209 arg 2: 0 no sync \, 1 sync;
#X text 667 441 loop or not;
#X msg 548 442 0 loop 1 \, 1 loop 1;
#X msg 438 499 0 quantize-length \$1 \, 1 quantize-length \$1;
#N canvas 250 228 1155 609 overdub 0;
#X obj 223 31 r seq3-\$1-actions;
#X text 243 4 overdub;
#N canvas 23 50 741 692 countdown 0;
#X obj 260 44 inlet;
#X obj 210 237 f;
#X obj 254 256 + 1;
#X obj 615 584 del 100;
#X msg 615 606 0;
#X msg 665 553 stop;
#X obj 592 669 s seq3-\$1-led;
#X obj 307 555 outlet;
#X obj 207 43 sel 0;
#X obj 207 209 spigot 0;
#X msg 260 174 1;
#X msg 353 294 0;
#X msg 367 172 0;
#X obj 592 519 t f b b;
#X obj 499 438 t b;
#X msg 499 463 1;
#X obj 260 76 t b b b, f 31;
#X obj 508 90 r cgSc-\$1-aux;
#X obj 508 112 sel 1;
#X msg 474 114 1;
#X obj 508 145 spigot 0;
#X obj 508 181 t b b;
#X msg 623 206 0;
#X obj 508 211 t b b b;
#X obj 207 454 t b b b b, f 22;
#X obj 508 385 v seq3-\$1-state;
#X obj 540 360 s seq3-\$1-actions;
#X obj 508 328 t f f;
#X msg 508 294 0;
#X msg 207 546 2;
#X obj 207 286 sel 4, f 13;
#X msg 401 146 2;
#X obj 570 -1 inlet beat;
#X connect 0 0 16 0;
#X connect 1 0 2 0;
#X connect 1 0 30 0;
#X connect 2 0 1 1;
#X connect 3 0 4 0;
#X connect 4 0 6 0;
#X connect 5 0 3 0;
#X connect 8 0 9 0;
#X connect 9 0 1 0;
#X connect 10 0 9 1;
#X connect 11 0 9 1;
#X connect 12 0 1 1;
#X connect 13 0 6 0;
#X connect 13 1 3 0;
#X connect 13 2 5 0;
#X connect 14 0 15 0;
#X connect 15 0 13 0;
#X connect 16 0 10 0;
#X connect 16 1 12 0;
#X connect 16 1 31 0;
#X connect 16 2 19 0;
#X connect 17 0 18 0;
#X connect 18 0 20 0;
#X connect 19 0 20 1;
#X connect 20 0 21 0;
#X connect 21 0 23 0;
#X connect 21 1 22 0;
#X connect 22 0 20 1;
#X connect 23 0 28 0;
#X connect 23 1 5 0;
#X connect 23 2 11 0;
#X connect 24 0 29 0;
#X connect 24 1 11 0;
#X connect 24 2 7 0;
#X connect 24 3 22 0;
#X connect 24 3 5 0;
#X connect 27 0 25 0;
#X connect 27 1 26 0;
#X connect 28 0 27 0;
#X connect 29 0 6 0;
#X connect 30 0 24 0;
#X connect 30 1 14 0;
#X connect 31 0 6 0;
#X connect 32 0 8 0;
#X restore 223 116 pd countdown;
#X msg 274 217 arm;
#X obj 274 394 s \$0-arg-2-seq;
#X obj 274 244 t a b;
#X obj 343 262 v seq3-\$1-od;
#X obj 274 312 list prepend;
#X obj 274 334 list trim;
#X obj 343 284 ==;
#X text 310 216 arm the opposite;
#X msg 462 284 0 stop \, 1 stop;
#X obj 223 67 sel 5 3, f 124;
#X obj 655 164 spigot 0;
#X obj 655 186 t b b;
#X msg 738 168 0;
#X msg 527 101 1;
#X obj 434 229 s seq3-\$1-overdub-on;
#X msg 434 201 1;
#X obj 655 305 v seq3-\$1-od;
#X obj 655 331 ==;
#X obj 655 353 v seq3-\$1-od;
#X text 709 328 switch;
#X obj 674 277 s \$0-save-current;
#X obj 223 172 t b b b b b, f 35;
#X obj 829 465 s seq3-\$1-overdub-on;
#X obj 655 214 t b b b;
#X obj 829 298 spigot 0;
#X obj 829 320 t b b;
#X msg 912 302 0;
#X msg 694 242 1;
#X msg 829 437 0;
#X obj 829 241 sel 1;
#X obj 829 342 t b b, f 7;
#X obj 870 397 f;
#X obj 870 441 s \$0-arg-2-seq;
#X msg 870 419 \$1 stop;
#X msg 507 192 0;
#X obj 425 28 inlet;
#X obj 223 454 s \$0-play-local;
#X obj 507 170 r seq3-\$1-init;
#X obj 829 216 r seq3-\$1-actions;
#X connect 0 0 12 0;
#X connect 2 0 24 0;
#X connect 3 0 5 0;
#X connect 5 0 7 0;
#X connect 5 1 6 0;
#X connect 6 0 9 0;
#X connect 7 0 8 0;
#X connect 8 0 4 0;
#X connect 9 0 7 1;
#X connect 11 0 4 0;
#X connect 12 0 2 0;
#X connect 12 1 13 0;
#X connect 13 0 14 0;
#X connect 14 0 26 0;
#X connect 14 1 15 0;
#X connect 15 0 13 1;
#X connect 16 0 13 1;
#X connect 18 0 17 0;
#X connect 19 0 20 0;
#X connect 19 0 34 1;
#X connect 20 0 21 0;
#X connect 24 0 39 0;
#X connect 24 1 3 0;
#X connect 24 2 11 0;
#X connect 24 3 18 0;
#X connect 24 4 16 0;
#X connect 26 0 19 0;
#X connect 26 1 23 0;
#X connect 26 2 30 0;
#X connect 27 0 28 0;
#X connect 28 0 33 0;
#X connect 28 1 29 0;
#X connect 29 0 27 1;
#X connect 30 0 27 1;
#X connect 31 0 25 0;
#X connect 32 0 27 0;
#X connect 33 0 31 0;
#X connect 33 1 34 0;
#X connect 34 0 36 0;
#X connect 36 0 35 0;
#X connect 37 0 17 0;
#X connect 38 0 2 1;
#X connect 40 0 37 0;
#X connect 41 0 32 0;
#X restore 864 448 pd overdub;
#X obj 87 243 t a a;
#X obj 384 347 r seq3-\$1-quan;
#N canvas 714 78 1178 708 save-the-txts 0;
#X obj 31 599 s \$0-arg-2-seq;
#X obj 100 520 v seq3-\$1-od;
#X obj 31 547 list prepend;
#X obj 31 569 list trim;
#X obj 31 499 t a b;
#X obj 46 166 r \$0-current-slot;
#X obj 31 204 f;
#X obj 284 210 array define \$0-slot-tracker 14;
#X obj 189 341 tabread \$0-slot-tracker;
#X text 335 337 get current toggle;
#X text 221 383 switch it;
#X obj 189 405 t f f, f 11;
#X obj 252 451 tabwrite \$0-slot-tracker;
#X obj 189 316 t f f, f 34;
#X text 269 432 write it to tracker;
#X obj 31 226 t f f;
#X obj 591 506 s \$0-arg-2-seq;
#X obj 591 454 list prepend;
#X obj 591 476 list trim;
#X obj 591 366 t a b;
#X obj 660 271 tabread \$0-slot-tracker;
#X obj 591 205 t f f;
#X obj 660 409 v seq3-\$1-od;
#X obj 606 78 r \$0-current-slot;
#X obj 591 107 f;
#X obj 284 46 symbol \$3;
#X msg 284 86 read \$1/slot-tracker.txt;
#X msg 297 182 write \$1/slot-tracker.txt;
#X obj 297 148 symbol \$3;
#X obj 31 277 * 2;
#X obj 31 445 +, f 13;
#X obj 591 309 +, f 12;
#X obj 591 226 * 2;
#X obj 31 466 list prepend write;
#X obj 591 330 list prepend read;
#X obj 284 24 r seq3-\$1-init;
#X obj 189 383 == 0;
#X obj 32 39 inlet;
#X text 70 38 write-bang;
#X obj 591 52 inlet;
#X text 634 49 read-bang;
#X obj 297 126 r \$0-save-current;
#X connect 1 0 2 1;
#X connect 2 0 3 0;
#X connect 3 0 0 0;
#X connect 4 0 2 0;
#X connect 4 1 1 0;
#X connect 5 0 6 1;
#X connect 6 0 15 0;
#X connect 8 0 36 0;
#X connect 11 0 30 1;
#X connect 11 1 12 0;
#X connect 13 0 8 0;
#X connect 13 1 12 1;
#X connect 15 0 29 0;
#X connect 15 1 13 0;
#X connect 17 0 18 0;
#X connect 18 0 16 0;
#X connect 19 0 17 0;
#X connect 19 1 22 0;
#X connect 20 0 31 1;
#X connect 21 0 32 0;
#X connect 21 1 20 0;
#X connect 22 0 17 1;
#X connect 23 0 24 1;
#X connect 24 0 21 0;
#X connect 25 0 26 0;
#X connect 26 0 7 0;
#X connect 27 0 7 0;
#X connect 28 0 27 0;
#X connect 29 0 30 0;
#X connect 30 0 33 0;
#X connect 31 0 34 0;
#X connect 32 0 31 0;
#X connect 33 0 4 0;
#X connect 34 0 19 0;
#X connect 35 0 25 0;
#X connect 36 0 11 0;
#X connect 37 0 6 0;
#X connect 39 0 24 0;
#X connect 41 0 28 0;
#X restore 77 639 pd save-the-txts;
#X text 448 229 arg 3: path to folder where to save 28 textfiles;
#N canvas 736 184 1155 834 THE-2-SEQS 0;
#X obj 398 730 outlet;
#N canvas 14 50 468 388 flush-stuck-notes 0;
#X obj 167 212 bag;
#X msg 203 161 flush;
#X msg 160 254 \$1 0;
#X obj 124 157 t a a;
#X obj 137 354 outlet;
#X obj 101 22 inlet;
#X obj 258 20 inlet;
#X obj 238 107 bang;
#X obj 114 102 route note;
#X obj 248 61 route end stop;
#X obj 232 338 outlet other messages;
#X connect 0 0 2 0;
#X connect 1 0 0 0;
#X connect 2 0 4 0;
#X connect 3 0 4 0;
#X connect 3 1 0 0;
#X connect 5 0 8 0;
#X connect 6 0 9 0;
#X connect 7 0 1 0;
#X connect 8 0 3 0;
#X connect 8 1 10 0;
#X connect 9 0 7 0;
#X connect 9 1 7 0;
#X restore 132 338 pd flush-stuck-notes;
#X text 309 284 events and status out;
#X obj 398 480 r \$0-pass;
#X obj 386 434 v seq3-\$1-state;
#X obj 413 411 s seq3-\$1-actions;
#X msg 386 360 3;
#X obj 303 303 symbol;
#X obj 159 503 seq-format-event note;
#X obj 132 421 t a a;
#N canvas 15 50 468 388 flush-stuck-notes 0;
#X obj 167 212 bag;
#X msg 203 161 flush;
#X msg 160 254 \$1 0;
#X obj 124 157 t a a;
#X obj 137 354 outlet;
#X obj 101 22 inlet;
#X obj 258 20 inlet;
#X obj 238 107 bang;
#X obj 114 102 route note;
#X obj 248 61 route end stop;
#X obj 232 338 outlet other messages;
#X connect 0 0 2 0;
#X connect 1 0 0 0;
#X connect 2 0 4 0;
#X connect 3 0 4 0;
#X connect 3 1 0 0;
#X connect 5 0 8 0;
#X connect 6 0 9 0;
#X connect 7 0 1 0;
#X connect 8 0 3 0;
#X connect 8 1 10 0;
#X connect 9 0 7 0;
#X connect 9 1 7 0;
#X restore 597 357 pd flush-stuck-notes;
#X text 890 317 events and status out;
#X obj 895 445 v seq3-\$1-state;
#X obj 922 421 s seq3-\$1-actions;
#X msg 895 371 3;
#X obj 828 320 symbol;
#X obj 750 236 r \$0-arg-2-seq;
#X obj 673 173 r \$0-events-in;
#X obj 750 257 route 1;
#X obj 205 158 r \$0-events-in;
#X obj 279 246 route 0;
#X obj 624 511 seq-format-event note;
#X obj 597 429 t a a;
#X obj 624 535 s \$0-overdub-R;
#X obj 159 527 s \$0-overdub-L;
#X obj 249 400 t a a;
#X obj 276 425 s \$0-overknobs-L;
#X obj 714 419 t a a;
#X obj 741 448 s \$0-overknobs-R;
#N canvas 4 50 1066 776 knob-recycle 0;
#X obj 35 19 inlet;
#X obj 88 212 r knob1;
#X msg 132 264 stop;
#X obj 88 237 t b b b, f 13;
#X msg 88 317 1;
#X msg 176 293 0;
#X obj 88 359 change -1;
#X obj 35 385 spigot 0;
#X obj 35 407 list prepend knob1;
#X obj 35 559 outlet;
#X obj 35 429 list trim;
#X msg 272 264 stop;
#X obj 228 237 t b b b, f 13;
#X msg 228 317 1;
#X msg 316 293 0;
#X obj 228 359 change -1;
#X obj 175 385 spigot 0;
#X obj 175 429 list trim;
#X obj 88 295 del 500;
#X obj 228 295 del 500;
#X msg 442 264 stop;
#X obj 398 237 t b b b, f 13;
#X msg 398 317 1;
#X msg 486 293 0;
#X obj 398 359 change -1;
#X obj 345 385 spigot 0;
#X obj 345 429 list trim;
#X msg 630 258 stop;
#X obj 586 231 t b b b, f 13;
#X msg 586 311 1;
#X msg 674 287 0;
#X obj 586 353 change -1;
#X obj 533 379 spigot 0;
#X obj 533 423 list trim;
#X obj 398 295 del 500;
#X obj 586 289 del 500;
#X obj 586 206 r knob4;
#X obj 533 400 list prepend knob4;
#X obj 398 212 r knob3;
#X obj 345 407 list prepend knob3;
#X obj 175 407 list prepend knob2;
#X obj 228 212 r knob2;
#X obj 35 120 route knob1 knob2 knob3 knob4 knob5, f 117;
#X msg 785 257 stop;
#X obj 741 230 t b b b, f 13;
#X msg 741 310 1;
#X msg 829 286 0;
#X obj 741 352 change -1;
#X obj 688 378 spigot 0;
#X obj 688 422 list trim;
#X obj 741 288 del 500;
#X obj 688 399 list prepend knob5;
#X obj 741 205 r knob5;
#X connect 0 0 42 0;
#X connect 1 0 3 0;
#X connect 2 0 18 0;
#X connect 3 0 18 0;
#X connect 3 1 2 0;
#X connect 3 2 5 0;
#X connect 4 0 6 0;
#X connect 5 0 6 0;
#X connect 6 0 7 1;
#X connect 7 0 8 0;
#X connect 8 0 10 0;
#X connect 10 0 9 0;
#X connect 11 0 19 0;
#X connect 12 0 19 0;
#X connect 12 1 11 0;
#X connect 12 2 14 0;
#X connect 13 0 15 0;
#X connect 14 0 15 0;
#X connect 15 0 16 1;
#X connect 16 0 40 0;
#X connect 17 0 9 0;
#X connect 18 0 4 0;
#X connect 19 0 13 0;
#X connect 20 0 34 0;
#X connect 21 0 34 0;
#X connect 21 1 20 0;
#X connect 21 2 23 0;
#X connect 22 0 24 0;
#X connect 23 0 24 0;
#X connect 24 0 25 1;
#X connect 25 0 39 0;
#X connect 26 0 9 0;
#X connect 27 0 35 0;
#X connect 28 0 35 0;
#X connect 28 1 27 0;
#X connect 28 2 30 0;
#X connect 29 0 31 0;
#X connect 30 0 31 0;
#X connect 31 0 32 1;
#X connect 32 0 37 0;
#X connect 33 0 9 0;
#X connect 34 0 22 0;
#X connect 35 0 29 0;
#X connect 36 0 28 0;
#X connect 37 0 33 0;
#X connect 38 0 21 0;
#X connect 39 0 26 0;
#X connect 40 0 17 0;
#X connect 41 0 12 0;
#X connect 42 0 7 0;
#X connect 42 1 16 0;
#X connect 42 2 25 0;
#X connect 42 3 32 0;
#X connect 42 4 48 0;
#X connect 43 0 50 0;
#X connect 44 0 50 0;
#X connect 44 1 43 0;
#X connect 44 2 46 0;
#X connect 45 0 47 0;
#X connect 46 0 47 0;
#X connect 47 0 48 1;
#X connect 48 0 51 0;
#X connect 49 0 9 0;
#X connect 50 0 45 0;
#X connect 51 0 49 0;
#X connect 52 0 44 0;
#X restore 249 372 pd knob-recycle;
#N canvas 12 50 1052 658 overdub-management 0;
#X obj 252 348 r \$0-overdub-R;
#X obj 238 327 r \$0-overknobs-R;
#X obj 238 438 outlet;
#X obj 238 408 spigot 0;
#X obj 291 376 r seq3-\$1-overdub-on;
#X connect 0 0 3 0;
#X connect 1 0 3 0;
#X connect 3 0 2 0;
#X connect 4 0 3 1;
#X restore 217 190 pd overdub-management;
#X obj 279 224 r \$0-arg-2-seq;
#N canvas 12 50 1052 658 overdub-management 0;
#X obj 238 408 outlet;
#X obj 238 295 r \$0-overknobs-L;
#X obj 252 316 r \$0-overdub-L;
#X obj 238 377 spigot 0;
#X obj 291 352 r seq3-\$1-overdub-on;
#X connect 1 0 3 0;
#X connect 2 0 3 0;
#X connect 3 0 0 0;
#X connect 4 0 3 1;
#X restore 703 199 pd overdub-management;
#X text 463 68 two sequencers to bounce back and forth for over dubbing
;
#X obj 386 382 t f f;
#X obj 895 395 t f f;
#X obj 132 46 inlet;
#X obj 303 328 sel end rec isPlaying, f 34;
#X obj 437 359 s seq3-\$1-playing;
#X obj 828 346 sel end rec isPlaying, f 34;
#X obj 962 378 s seq3-\$1-playing;
#N canvas 13 50 476 382 latch 0;
#X text 191 93 THE LATCH!;
#X obj 137 58 inlet;
#X obj 137 316 outlet;
#N canvas 8 50 759 486 latch-notes 0;
#N canvas 1010 59 817 631 latcher 0;
#X obj 220 378 bag;
#X msg 317 311 flush;
#X obj 169 81 t a a, f 17;
#X obj 285 257 t a b;
#X obj 169 44 inlet;
#X obj 285 475 outlet;
#X obj 443 58 inlet;
#X obj 285 126 stripnote;
#X obj 285 228 pack, f 9;
#X obj 443 142 t b;
#X obj 169 103 unpack;
#X obj 169 156 swap;
#X obj 169 198 pack;
#X obj 169 220 route 0;
#X obj 220 400 pack 1 0;
#X obj 169 241 pack 0 100;
#X connect 0 0 14 0;
#X connect 1 0 0 0;
#X connect 2 0 10 0;
#X connect 2 1 7 0;
#X connect 3 0 5 0;
#X connect 3 1 1 0;
#X connect 4 0 2 0;
#X connect 6 0 9 0;
#X connect 7 0 8 0;
#X connect 7 1 8 1;
#X connect 8 0 3 0;
#X connect 9 0 1 0;
#X connect 10 0 11 0;
#X connect 10 1 11 1;
#X connect 11 0 12 0;
#X connect 11 1 12 1;
#X connect 12 0 13 0;
#X connect 13 0 15 0;
#X connect 14 0 5 0;
#X connect 15 0 0 0;
#X restore 43 413 pd latcher;
#X obj 173 298 spigot 1;
#X obj 43 298 spigot 0;
#X obj 226 272 == 0;
#X obj 193 134 inlet;
#X obj 43 626 outlet;
#X obj 43 106 inlet;
#X text 241 135 bang enable / disables latch;
#X text 44 53 incoming notes get sent through latch if enabled \, or
directly to output if disabled;
#X obj 309 298 b;
#X obj 193 159 t f f b, f 17;
#X connect 0 0 5 0;
#X connect 1 0 5 0;
#X connect 2 0 0 0;
#X connect 3 0 1 1;
#X connect 4 0 10 0;
#X connect 6 0 2 0;
#X connect 6 0 1 0;
#X connect 9 0 0 1;
#X connect 10 0 2 1;
#X connect 10 1 3 0;
#X connect 10 2 9 0;
#X restore 137 273 pd latch-notes;
#X obj 218 232 r seq3-\$1-togLatch;
#X connect 1 0 3 0;
#X connect 3 0 2 0;
#X connect 4 0 3 1;
#X restore 398 657 pd latch;
#X text 475 659 latch incoming notes;
#X obj 132 67 t a a, f 51;
#N canvas 4 50 1912 998 knob-recycle 0;
#X obj 35 19 inlet;
#X obj 88 212 r knob1;
#X msg 132 264 stop;
#X obj 88 237 t b b b, f 13;
#X msg 88 317 1;
#X msg 176 293 0;
#X obj 88 359 change -1;
#X obj 35 385 spigot 0;
#X obj 35 407 list prepend knob1;
#X obj 35 559 outlet;
#X obj 35 429 list trim;
#X msg 272 264 stop;
#X obj 228 237 t b b b, f 13;
#X msg 228 317 1;
#X msg 316 293 0;
#X obj 228 359 change -1;
#X obj 175 385 spigot 0;
#X obj 175 429 list trim;
#X obj 88 295 del 500;
#X obj 228 295 del 500;
#X msg 442 264 stop;
#X obj 398 237 t b b b, f 13;
#X msg 398 317 1;
#X msg 486 293 0;
#X obj 398 359 change -1;
#X obj 345 385 spigot 0;
#X obj 345 429 list trim;
#X msg 630 258 stop;
#X obj 586 231 t b b b, f 13;
#X msg 586 311 1;
#X msg 674 287 0;
#X obj 586 353 change -1;
#X obj 533 379 spigot 0;
#X obj 533 423 list trim;
#X obj 398 295 del 500;
#X obj 586 289 del 500;
#X obj 586 206 r knob4;
#X obj 533 400 list prepend knob4;
#X obj 398 212 r knob3;
#X obj 345 407 list prepend knob3;
#X obj 175 407 list prepend knob2;
#X obj 228 212 r knob2;
#X obj 35 120 route knob1 knob2 knob3 knob4 knob5, f 117;
#X msg 785 257 stop;
#X obj 741 230 t b b b, f 13;
#X msg 741 310 1;
#X msg 829 286 0;
#X obj 741 352 change -1;
#X obj 688 378 spigot 0;
#X obj 688 422 list trim;
#X obj 741 288 del 500;
#X obj 688 399 list prepend knob5;
#X obj 741 205 r knob5;
#X connect 0 0 42 0;
#X connect 1 0 3 0;
#X connect 2 0 18 0;
#X connect 3 0 18 0;
#X connect 3 1 2 0;
#X connect 3 2 5 0;
#X connect 4 0 6 0;
#X connect 5 0 6 0;
#X connect 6 0 7 1;
#X connect 7 0 8 0;
#X connect 8 0 10 0;
#X connect 10 0 9 0;
#X connect 11 0 19 0;
#X connect 12 0 19 0;
#X connect 12 1 11 0;
#X connect 12 2 14 0;
#X connect 13 0 15 0;
#X connect 14 0 15 0;
#X connect 15 0 16 1;
#X connect 16 0 40 0;
#X connect 17 0 9 0;
#X connect 18 0 4 0;
#X connect 19 0 13 0;
#X connect 20 0 34 0;
#X connect 21 0 34 0;
#X connect 21 1 20 0;
#X connect 21 2 23 0;
#X connect 22 0 24 0;
#X connect 23 0 24 0;
#X connect 24 0 25 1;
#X connect 25 0 39 0;
#X connect 26 0 9 0;
#X connect 27 0 35 0;
#X connect 28 0 35 0;
#X connect 28 1 27 0;
#X connect 28 2 30 0;
#X connect 29 0 31 0;
#X connect 30 0 31 0;
#X connect 31 0 32 1;
#X connect 32 0 37 0;
#X connect 33 0 9 0;
#X connect 34 0 22 0;
#X connect 35 0 29 0;
#X connect 36 0 28 0;
#X connect 37 0 33 0;
#X connect 38 0 21 0;
#X connect 39 0 26 0;
#X connect 40 0 17 0;
#X connect 41 0 12 0;
#X connect 42 0 7 0;
#X connect 42 1 16 0;
#X connect 42 2 25 0;
#X connect 42 3 32 0;
#X connect 42 4 48 0;
#X connect 43 0 50 0;
#X connect 44 0 50 0;
#X connect 44 1 43 0;
#X connect 44 2 46 0;
#X connect 45 0 47 0;
#X connect 46 0 47 0;
#X connect 47 0 48 1;
#X connect 48 0 51 0;
#X connect 49 0 9 0;
#X connect 50 0 45 0;
#X connect 51 0 49 0;
#X connect 52 0 44 0;
#X restore 713 392 pd knob-recycle;
#X obj 398 678 list prepend notes;
#X obj 398 699 list trim;
#X obj 597 288 seq seq-\$1-R \$1, f 26;
#X obj 132 268 seq seq-\$1-L \$1, f 25;
#X obj 398 581 spigot \$4;
#X connect 1 0 9 0;
#X connect 1 1 29 0;
#X connect 3 0 49 0;
#X connect 6 0 34 0;
#X connect 7 0 37 0;
#X connect 8 0 24 0;
#X connect 9 0 41 0;
#X connect 9 1 8 0;
#X connect 10 0 22 0;
#X connect 10 1 44 0;
#X connect 14 0 35 0;
#X connect 15 0 39 0;
#X connect 16 0 18 0;
#X connect 17 0 47 1;
#X connect 18 0 47 2;
#X connect 19 0 48 1;
#X connect 20 0 48 2;
#X connect 21 0 23 0;
#X connect 22 0 41 0;
#X connect 22 1 21 0;
#X connect 25 0 0 0;
#X connect 25 1 26 0;
#X connect 27 0 0 0;
#X connect 27 1 28 0;
#X connect 29 0 25 0;
#X connect 30 0 48 1;
#X connect 31 0 20 0;
#X connect 32 0 47 1;
#X connect 34 0 4 0;
#X connect 34 1 5 0;
#X connect 35 0 12 0;
#X connect 35 1 13 0;
#X connect 36 0 43 0;
#X connect 37 1 6 0;
#X connect 37 2 38 0;
#X connect 39 1 14 0;
#X connect 39 2 40 0;
#X connect 41 0 45 0;
#X connect 43 0 48 0;
#X connect 43 1 47 0;
#X connect 44 0 27 0;
#X connect 45 0 46 0;
#X connect 46 0 0 0;
#X connect 47 0 10 0;
#X connect 47 1 10 1;
#X connect 47 1 15 0;
#X connect 48 0 1 0;
#X connect 48 1 1 1;
#X connect 48 1 7 0;
#X connect 49 0 41 0;
#X restore 837 480 pd THE-2-SEQS;
#X obj 837 653 outlet;
#N canvas 214 62 1220 815 undo 0;
#X obj 94 21 r seq3-\$1-actions;
#X obj 94 67 sel 6;
#X obj 421 294 r \$0-current-slot;
#X obj 406 326 f;
#X obj 547 482 tabread \$0-slot-tracker;
#X obj 547 536 tabwrite \$0-slot-tracker;
#X obj 94 459 t f f;
#X obj 94 501 v seq3-\$1-state;
#X obj 121 481 s seq3-\$1-actions;
#X obj 547 434 t f f;
#X obj 735 746 s \$0-arg-2-seq;
#X obj 735 694 list prepend;
#X obj 735 716 list trim;
#X obj 735 606 t a b;
#X obj 804 658 v seq3-\$1-od;
#X obj 829 398 tabread \$0-slot-tracker;
#X obj 406 268 t b;
#X obj 151 68 v seq3-\$1-state;
#X obj 94 237 sel 1, f 45;
#X obj 94 264 t b b b, f 19;
#X msg 205 328 0 stop \, 1 stop;
#X obj 205 360 s \$0-arg-2-seq;
#X obj 406 348 t b f f f, f 71;
#X obj 406 378 v seq3-\$1-od;
#X obj 406 422 v seq3-\$1-od;
#X obj 94 43 t f b, f 10;
#X obj 94 189 f;
#X obj 94 135 spigot, f 24;
#X obj 321 31 r seq3-\$1-actions;
#X obj 321 53 sel 3;
#X msg 321 75 1;
#X msg 309 139 0;
#X msg 94 374 1;
#X text 388 80 a record of new info and a slot change arms the undo
;
#N canvas 8 50 618 562 undo-flash 0;
#X obj 134 160 f;
#X obj 165 160 + 1;
#X obj 252 179 t b;
#X msg 172 105 0;
#X msg 185 82 stop;
#X obj 134 136 del 100;
#X obj 134 192 % 2;
#X obj 134 214 sel 1;
#X obj 220 149 sel 4;
#X obj 99 61 t b b b b;
#X obj 98 14 inlet;
#X obj 166 272 outlet;
#X obj 236 238 t b;
#X obj 236 260 outlet done;
#X msg 135 236 4;
#X connect 0 0 1 0;
#X connect 0 0 6 0;
#X connect 0 0 8 0;
#X connect 1 0 0 1;
#X connect 2 0 5 0;
#X connect 3 0 0 1;
#X connect 4 0 5 0;
#X connect 5 0 0 0;
#X connect 6 0 7 0;
#X connect 7 0 14 0;
#X connect 7 1 11 0;
#X connect 8 0 12 0;
#X connect 8 1 2 0;
#X connect 9 0 0 0;
#X connect 9 1 5 0;
#X connect 9 2 3 0;
#X connect 9 3 4 0;
#X connect 10 0 9 0;
#X connect 12 0 13 0;
#X connect 14 0 11 0;
#X restore 257 558 pd undo-flash;
#X obj 257 698 s seq3-\$1-led;
#X obj 332 630 f;
#X obj 365 565 r seq3-\$1-led;
#X obj 350 593 f;
#X obj 94 157 t b b b, f 28;
#X obj 257 528 t b b, f 16;
#X obj 829 420 ==;
#X obj 547 508 ==;
#X obj 406 400 ==;
#X obj 735 486 +;
#X obj 735 507 list prepend read;
#X obj 735 434 * 2;
#X connect 0 0 25 0;
#X connect 1 0 27 0;
#X connect 2 0 3 1;
#X connect 3 0 22 0;
#X connect 4 0 42 0;
#X connect 6 0 7 0;
#X connect 6 1 8 0;
#X connect 9 0 4 0;
#X connect 9 1 5 1;
#X connect 11 0 12 0;
#X connect 12 0 10 0;
#X connect 13 0 11 0;
#X connect 13 1 14 0;
#X connect 14 0 11 1;
#X connect 15 0 41 0;
#X connect 16 0 3 0;
#X connect 17 0 26 1;
#X connect 18 0 19 0;
#X connect 18 1 16 0;
#X connect 19 0 32 0;
#X connect 19 1 3 0;
#X connect 19 2 20 0;
#X connect 20 0 21 0;
#X connect 22 0 23 0;
#X connect 22 1 9 0;
#X connect 22 2 46 0;
#X connect 22 3 15 0;
#X connect 23 0 43 0;
#X connect 25 0 1 0;
#X connect 25 1 17 0;
#X connect 26 0 18 0;
#X connect 27 0 39 0;
#X connect 28 0 29 0;
#X connect 29 0 30 0;
#X connect 30 0 27 1;
#X connect 31 0 27 1;
#X connect 32 0 6 0;
#X connect 34 0 35 0;
#X connect 34 1 36 0;
#X connect 36 0 35 0;
#X connect 37 0 38 1;
#X connect 38 0 36 1;
#X connect 39 0 26 0;
#X connect 39 1 31 0;
#X connect 39 2 40 0;
#X connect 40 0 34 0;
#X connect 40 1 38 0;
#X connect 41 0 44 1;
#X connect 42 0 5 0;
#X connect 43 0 24 0;
#X connect 44 0 45 0;
#X connect 45 0 13 0;
#X connect 46 0 44 0;
#X restore 850 309 pd undo;
#X obj 77 581 r \$0-save-current;
#X obj 170 615 r \$0-read-current;
#N canvas 13 50 1582 798 record-new 0;
#X obj 237 45 r seq3-\$1-actions;
#X obj 628 432 v seq3-\$1-od;
#X obj 628 458 ==;
#X obj 628 482 v seq3-\$1-od;
#X text 682 455 switch;
#X text 716 57 record;
#X msg 237 166 arm;
#X obj 237 343 s \$0-arg-2-seq;
#X obj 237 193 t a b;
#X obj 306 213 v seq3-\$1-od;
#X obj 237 261 list prepend;
#X obj 237 283 list trim;
#X obj 306 236 ==;
#X text 273 165 arm the opposite;
#X obj 237 72 sel 2 3, f 131;
#X msg 454 247 0 stop \, 1 stop;
#X text 713 340 if the opposite is triggered;
#X obj 628 297 spigot 0;
#X obj 628 319 t b b;
#X msg 711 301 0;
#X obj 237 123 t b b b, f 34;
#X msg 438 158 1;
#X connect 0 0 14 0;
#X connect 1 0 2 0;
#X connect 2 0 3 0;
#X connect 6 0 8 0;
#X connect 8 0 10 0;
#X connect 8 1 9 0;
#X connect 9 0 12 0;
#X connect 10 0 11 0;
#X connect 11 0 7 0;
#X connect 12 0 10 1;
#X connect 14 0 20 0;
#X connect 14 1 17 0;
#X connect 15 0 7 0;
#X connect 17 0 18 0;
#X connect 18 0 1 0;
#X connect 18 1 19 0;
#X connect 19 0 17 1;
#X connect 20 0 6 0;
#X connect 20 1 15 0;
#X connect 20 2 21 0;
#X connect 21 0 17 1;
#X restore 850 247 pd record-new;
#N canvas 615 52 1260 752 play+stop 0;
#X obj 475 274 tgl 15 0 empty empty empty 17 7 0 10 -262144 -1 -1 0
1;
#X obj 358 360 spigot;
#X obj 436 359 spigot;
#X text 502 274 lock start to beat;
#X obj 436 325 ==;
#X obj 475 192 sel 0 1 2, f 28;
#X msg 475 214 0;
#X msg 539 221 1;
#X obj 475 130 f \$2;
#X obj 358 564 s \$0-arg-2-seq;
#X obj 358 444 t a b;
#X obj 427 478 v seq3-\$1-od;
#X obj 358 512 list prepend;
#X obj 358 534 list trim;
#X obj 518 143 r seq3-1-quan;
#X msg 166 388 0 stop \, 1 stop;
#X obj 297 107 sel 0 1 2 3 4 5, f 21;
#X text 675 38 everytime a seq is changed check which txt to read from(x
or y);
#X obj 297 69 r seq3-\$1-actions;
#X obj 358 234 t b b, f 6;
#X obj 358 169 r \$0-play-local;
#X msg 358 388 play;
#X msg 436 387 play-sync;
#X obj 102 233 r \$0-stop-local;
#X obj 474 108 r seq3-\$1-init;
#X connect 0 0 4 0;
#X connect 0 0 2 1;
#X connect 1 0 21 0;
#X connect 2 0 22 0;
#X connect 4 0 1 1;
#X connect 5 0 6 0;
#X connect 5 1 7 0;
#X connect 5 2 7 0;
#X connect 6 0 0 0;
#X connect 7 0 0 0;
#X connect 8 0 5 0;
#X connect 10 0 12 0;
#X connect 10 1 11 0;
#X connect 11 0 12 1;
#X connect 12 0 13 0;
#X connect 13 0 9 0;
#X connect 14 0 5 0;
#X connect 15 0 9 0;
#X connect 16 0 15 0;
#X connect 16 1 19 0;
#X connect 18 0 16 0;
#X connect 19 0 1 0;
#X connect 19 1 2 0;
#X connect 20 0 19 0;
#X connect 21 0 10 0;
#X connect 22 0 10 0;
#X connect 23 0 15 0;
#X connect 24 0 8 0;
#X restore 850 277 pd play+stop;
#X obj 859 154 s \$0-beat-clock-local;
#X obj 837 387 r \$0-beat-clock-local;
#X obj 837 419 t f f;
#X text 449 190 arg 1: unique number;
#N canvas 775 133 699 435 new-save-read-function 0;
#X obj 55 73 r \$0-read-text;
#X obj 55 115 symbol \$3;
#X obj 55 94 t b b, f 14;
#X obj 226 115 symbol \$3;
#X obj 226 94 t b b, f 14;
#X obj 355 59 bng 15 250 50 0 empty empty empty 17 7 0 10 -262144 -1
-1;
#X msg 226 182 write \$1/bigtext\$2.txt;
#X msg 55 177 read \$1/bigtext\$2.txt;
#X msg 214 212 clear;
#X obj 55 252 text define -k seq3-\$1-big-text;
#A set 0 length 479 \\\; 0 note 71 100 \\\; 2 note 72 100 \\\; 26 note
71 0 \\\; 73 note 72 0 \\\; 76 note 62 100 \\\; 128 note 60 100 \\\;
144 note 62 0 \\\; 206 note 60 0 \\\; 225 note 62 100 \\\; 241 note
67 100 \\\; 278 note 60 100 \\\; 281 note 62 0 \\\; 334 note 60 0 \\\;
341 note 62 100 \\\; 358 note 69 100 \\\; 361 note 67 0 \\\; 380 note
62 0 \\\; 421 note 69 0 \\\; \; 2 \; 3 \; 0 length 265 \\\; 0 note
77 100 \\\; 114 note 74 100 \\\; 153 note 77 0 \\\; 228 note 74 0 \\\;
249 note 67 100 \\\; 3 note 64 100 \\\; 39 note 67 0 \\\; 152 note
60 100 \\\; 313 note 64 0 \\\; 339 note 60 0 \\\; 16 note 71 100 \\\;
77 note 74 100 \\\; 182 note 71 0 \\\; 202 note 74 0 \\\; \; 0 length
942 \\\; 0 note 72 100 \\\; 112 note 69 100 \\\; 121 note 72 0 \\\;
170 note 69 0 \\\; 221 note 64 100 \\\; 333 note 60 100 \\\; 364 note
64 0 \\\; 446 note 64 100 \\\; 485 note 60 0 \\\; 523 note 64 0 \\\;
561 note 67 100 \\\; 677 note 67 0 \\\; 678 note 68 100 \\\; 800 note
68 0 \\\; 809 note 69 100 \\\; 934 note 69 0 \\\; \; 6 \; 0 length
870 \\\; 0 note 71 100 \\\; 96 note 69 100 \\\; 103 note 71 0 \\\;
152 note 69 0 \\\; 191 note 64 100 \\\; 291 note 64 0 \\\; 307 note
60 100 \\\; 400 note 67 100 \\\; 403 note 60 0 \\\; 441 note 67 0 \\\;
507 note 64 100 \\\; 586 note 64 0 \\\; 710 note 76 100 \\\; 755 note
76 0 \\\; \; 0 length 870 \\\; 0 note 71 100 \\\; 96 note 69 100 \\\;
103 note 71 0 \\\; 152 note 69 0 \\\; 191 note 64 100 \\\; 291 note
64 0 \\\; 307 note 60 100 \\\; 400 note 67 100 \\\; 403 note 60 0 \\\;
441 note 67 0 \\\; 507 note 64 100 \\\; 586 note 64 0 \\\; 710 note
76 100 \\\; 755 note 76 0 \\\; \; 9 \; 0 length 399 \\\; 0 note 74
100 \\\; 25 note 74 0 \\\; 32 note 71 100 \\\; 103 note 71 0 \\\; 129
note 74 100 \\\; 159 note 71 100 \\\; 197 note 74 0 \\\; 210 note 64
100 \\\; 238 note 71 0 \\\; 267 note 60 100 \\\; 286 note 64 0 \\\;
312 note 60 0 \\\; \; 0 length 1483 \\\; 0 note 60 100 \\\; 88 note
69 100 \\\; 127 note 60 0 \\\; 155 note 71 100 \\\; 155 note 69 0 \\\;
228 note 74 100 \\\; 252 note 71 0 \\\; 285 note 77 100 \\\; 302 note
74 0 \\\; 368 note 77 0 \\\; 375 note 69 100 \\\; 451 note 65 100 \\\;
470 note 77 100 \\\; 479 note 69 0 \\\; 519 note 65 0 \\\; 545 note
74 100 \\\; 586 note 77 0 \\\; 611 note 69 100 \\\; 641 note 71 100
\\\; 655 note 74 0 \\\; 664 note 65 100 \\\; 677 note 71 0 \\\; 695
note 69 0 \\\; 742 note 62 100 \\\; 804 note 65 0 \\\; 804 note 71
100 \\\; 848 note 62 0 \\\; 875 note 71 0 \\\; 916 note 71 100 \\\;
986 note 71 0 \\\; 990 note 69 100 \\\; 1037 note 65 100 \\\; 1069
note 69 0 \\\; 1098 note 62 100 \\\; 1132 note 65 0 \\\; 1151 note
71 100 \\\; 1156 note 62 0 \\\; 1211 note 71 0 \\\; 1217 note 69 100
\\\; 1312 note 60 100 \\\; 1318 note 69 0 \\\; 1414 note 60 0 \\\;
\; 0 length 1483 \\\; 0 note 60 100 \\\; 88 note 69 100 \\\; 127 note
60 0 \\\; 155 note 71 100 \\\; 155 note 69 0 \\\; 228 note 74 100 \\\;
252 note 71 0 \\\; 285 note 77 100 \\\; 302 note 74 0 \\\; 368 note
77 0 \\\; 375 note 69 100 \\\; 451 note 65 100 \\\; 470 note 77 100
\\\; 479 note 69 0 \\\; 519 note 65 0 \\\; 545 note 74 100 \\\; 586
note 77 0 \\\; 611 note 69 100 \\\; 641 note 71 100 \\\; 655 note 74
0 \\\; 664 note 65 100 \\\; 677 note 71 0 \\\; 695 note 69 0 \\\; 742
note 62 100 \\\; 804 note 65 0 \\\; 804 note 71 100 \\\; 848 note 62
0 \\\; 875 note 71 0 \\\; 916 note 71 100 \\\; 986 note 71 0 \\\; 990
note 69 100 \\\; 1037 note 65 100 \\\; 1069 note 69 0 \\\; 1098 note
62 100 \\\; 1132 note 65 0 \\\; 1151 note 71 100 \\\; 1156 note 62
0 \\\; 1211 note 71 0 \\\; 1217 note 69 100 \\\; 1312 note 60 100 \\\;
1318 note 69 0 \\\; 1414 note 60 0 \\\; \; 0 length 509 \\\; 0 note
77 100 \\\; 19 note 71 100 \\\; 47 note 77 0 \\\; 112 note 71 0 \\\;
119 note 65 100 \\\; 200 note 64 100 \\\; 226 note 65 0 \\\; 251 note
60 100 \\\; 305 note 65 100 \\\; 317 note 64 0 \\\; 326 note 77 100
\\\; 335 note 60 0 \\\; 368 note 74 100 \\\; 382 note 65 0 \\\; 386
note 71 100 \\\; 488 note 74 0 \\\; 499 note 77 0 \\\; 501 note 71
0 \\\; \; 0 length 509 \\\; 0 note 77 100 \\\; 19 note 71 100 \\\;
47 note 77 0 \\\; 112 note 71 0 \\\; 119 note 65 100 \\\; 200 note
64 100 \\\; 226 note 65 0 \\\; 251 note 60 100 \\\; 305 note 65 100
\\\; 317 note 64 0 \\\; 326 note 77 100 \\\; 335 note 60 0 \\\; 368
note 74 100 \\\; 382 note 65 0 \\\; 386 note 71 100 \\\; 488 note 74
0 \\\; 499 note 77 0 \\\; 501 note 71 0 \\\; \; 15 \; 15 \; 0 length
662 \\\; 0 note 74 100 \\\; 55 note 74 0 \\\; 146 note 60 100 \\\;
238 note 60 0 \\\; 249 note 72 100 \\\; 289 note 72 0 \\\; 327 note
64 100 \\\; 423 note 60 100 \\\; 436 note 64 0 \\\; 499 note 74 100
\\\; 503 note 60 0 \\\; 542 note 74 0 \\\; \; 0 length 1039 \\\; 0
note 62 100 \\\; 63 note 62 0 \\\; 113 note 62 100 \\\; 157 note 62
0 \\\; 225 note 62 100 \\\; 257 note 62 0 \\\; 335 note 62 100 \\\;
348 note 62 0 \\\; 419 note 62 100 \\\; 441 note 62 0 \\\; 508 note
62 100 \\\; 556 note 62 0 \\\; 612 note 62 100 \\\; 644 note 62 0 \\\;
698 note 62 100 \\\; 741 note 62 0 \\\; 801 note 62 100 \\\; 838 note
62 0 \\\; 905 note 62 100 \\\; 920 note 62 0 \\\; 961 note 62 100 \\\;
1022 note 62 0 \\\; \; 0 length 891 \\\; 0 note 76 100 \\\; 48 note
76 0 \\\; 109 note 60 100 \\\; 199 note 64 100 \\\; 238 note 60 0 \\\;
293 note 64 0 \\\; 319 note 74 100 \\\; 377 note 74 0 \\\; 380 note
64 100 \\\; 476 note 60 100 \\\; 500 note 64 0 \\\; 578 note 72 100
\\\; 582 note 60 0 \\\; 626 note 72 0 \\\; 659 note 64 100 \\\; 716
note 60 100 \\\; 763 note 64 0 \\\; 800 note 74 100 \\\; 809 note 60
0 \\\; 849 note 74 0 \\\; \; 20 \; 0 length 1500 \\\; 0 note 72 100
\\\; 119 note 72 0 \\\; 127 note 69 100 \\\; 145 note 69 0 \\\; 180
note 64 100 \\\; 269 note 60 100 \\\; 270 note 64 0 \\\; 364 note 64
100 \\\; 393 note 60 0 \\\; 407 note 69 100 \\\; 416 note 64 0 \\\;
463 note 69 0 \\\; 691 note 71 100 \\\; 742 note 71 0 \\\; 799 note
71 100 \\\; 838 note 71 0 \\\; 910 note 62 100 \\\; 978 note 62 0 \\\;
1000 note 69 100 \\\; 1035 note 69 0 \\\; 1160 note 60 100 \\\; 1300
note 62 100 \\\; 1319 note 60 0 \\\; 1356 note 62 0 \\\; 1389 note
69 100 \\\; 1443 note 69 0 \\\; \; 0 length 455 \\\; 0 note 77 100
\\\; 32 note 77 0 \\\; 104 note 77 100 \\\; 140 note 77 0 \\\; 185
note 60 100 \\\; 254 note 64 100 \\\; 278 note 60 0 \\\; 338 note 64
0 \\\; 346 note 74 100 \\\; 377 note 74 0 \\\; \; 23 \; 0 length 567
\\\; 0 note 64 100 \\\; 38 note 64 0 \\\; 98 note 64 100 \\\; 141 note
64 0 \\\; 196 note 64 100 \\\; 242 note 64 0 \\\; 296 note 64 100 \\\;
336 note 64 0 \\\; 395 note 64 100 \\\; 437 note 64 0 \\\; 491 note
64 100 \\\; 536 note 64 0 \\\; \; 0 length 546 \\\; 0 note 81 100 \\\;
47 note 81 0 \\\; 87 note 62 100 \\\; 169 note 77 100 \\\; 177 note
62 0 \\\; 189 note 77 0 \\\; 289 note 60 100 \\\; 297 note 77 100 \\\;
317 note 77 0 \\\; 397 note 64 100 \\\; 398 note 79 100 \\\; 411 note
64 0 \\\; 414 note 60 0 \\\; 490 note 79 0 \\\; \; 26 \; 0 length 730
\\\; 0 note 81 100 \\\; 76 note 77 100 \\\; 128 note 81 0 \\\; 162
note 74 100 \\\; 176 note 77 0 \\\; 215 note 74 0 \\\; 232 note 64
100 \\\; 310 note 60 100 \\\; 328 note 64 0 \\\; 360 note 65 100 \\\;
405 note 60 0 \\\; 405 note 72 100 \\\; 440 note 65 0 \\\; 453 note
76 100 \\\; 459 note 72 0 \\\; 529 note 77 100 \\\; 540 note 76 0 \\\;
561 note 72 100 \\\; 596 note 77 0 \\\; 608 note 72 0 \\\; \; 0 length
740 \\\; 0 note 81 100 \\\; 77 note 77 100 \\\; 129 note 81 0 \\\;
163 note 74 100 \\\; 177 note 77 0 \\\; 216 note 74 0 \\\; 233 note
64 100 \\\; 311 note 60 100 \\\; 329 note 64 0 \\\; 406 note 60 0 \\\;
406 note 72 100 \\\; 460 note 72 0 \\\; 562 note 72 100 \\\; 609 note
72 0 \\\; \;;
#X obj 226 57 r \$0-write-current;
#X obj 136 115 symbol \$1;
#X obj 55 156 pack s s;
#X obj 307 115 symbol \$1;
#X obj 226 155 pack s s;
#X connect 0 0 2 0;
#X connect 1 0 12 0;
#X connect 2 0 1 0;
#X connect 2 1 11 0;
#X connect 3 0 14 0;
#X connect 4 0 3 0;
#X connect 4 1 13 0;
#X connect 5 0 4 0;
#X connect 6 0 9 0;
#X connect 7 0 9 0;
#X connect 8 0 9 0;
#X connect 10 0 4 0;
#X connect 11 0 12 1;
#X connect 12 0 7 0;
#X connect 13 0 14 1;
#X connect 14 0 6 0;
#X restore 850 219 pd new-save-read-function;
#X text 851 197 *** new change 1/27/2021;
#X obj 610 386 s \$0-read-text;
#X obj 65 534 s \$0-write-current;
#X obj 65 479 t b b;
#X obj 92 506 s \$0-save-current;
#X obj 87 64 inlet, f 6;
#X text 132 62 notes;
#X obj 555 55 inlet;
#X obj 859 72 inlet;
#X text 903 70 beat-clock;
#X obj 87 85 route notes;
#X text 891 655 notes + events;
#N canvas 4 50 1024 582 messages 0;
#X obj 20 19 inlet;
#X obj 20 221 s seq3-\$1-init;
#N canvas 109 134 1108 695 change-and-load-slot 0;
#X obj 164 38 inlet;
#X obj 164 526 sel 1, f 31;
#X obj 543 308 s \$0-current-slot;
#X obj 164 78 change -1;
#X msg 347 585 0;
#X text 556 288 change the slot number;
#X obj 290 356 s \$0-read-current;
#X text 330 336 open new slot;
#X text 191 506 if playing \, play;
#X obj 347 657 v seq3-\$1-state;
#X obj 374 632 s seq3-\$1-actions;
#X obj 347 610 t f f;
#X obj 923 322 v seq3-\$1-state;
#X obj 164 504 f;
#X text 865 301 get the state before turning off;
#X obj 164 172 t b b b f b b b, f 127;
#X obj 670 267 s \$0-save-current;
#X text 324 16 if a port is changed and a rec happens save \, if no
change to .txt than dont save;
#X obj 715 50 r seq3-\$1-actions;
#X obj 670 219 spigot 0;
#X msg 743 222 0;
#X msg 715 139 1;
#X obj 670 241 t b b;
#X obj 164 641 s \$0-play-local;
#X obj 191 601 v seq3-\$1-state;
#X msg 191 574 1;
#X obj 164 548 t b b;
#X obj 796 244 s \$0-stop-local;
#X obj 347 548 t b;
#X obj 715 72 sel 3 5 6;
#X obj 749 117 s \$0-save-current;
#X obj 749 96 del 50;
#X connect 0 0 3 0;
#X connect 1 0 26 0;
#X connect 1 1 28 0;
#X connect 3 0 15 0;
#X connect 4 0 11 0;
#X connect 11 0 9 0;
#X connect 11 1 10 0;
#X connect 12 0 13 1;
#X connect 13 0 1 0;
#X connect 15 0 13 0;
#X connect 15 1 6 0;
#X connect 15 3 2 0;
#X connect 15 4 19 0;
#X connect 15 5 27 0;
#X connect 15 6 12 0;
#X connect 18 0 29 0;
#X connect 19 0 22 0;
#X connect 20 0 19 1;
#X connect 21 0 19 1;
#X connect 22 0 16 0;
#X connect 22 1 20 0;
#X connect 25 0 24 0;
#X connect 26 0 23 0;
#X connect 26 1 25 0;
#X connect 28 0 4 0;
#X connect 29 0 21 0;
#X connect 29 1 21 0;
#X connect 29 2 31 0;
#X connect 31 0 30 0;
#X restore 218 160 pd change-and-load-slot;
#X obj 119 188 s seq3-\$1-save;
#X obj 450 169 outlet;
#X obj 20 39 route init save slot, f 50;
#X text 514 165 to the states;
#X connect 0 0 5 0;
#X connect 5 0 1 0;
#X connect 5 1 3 0;
#X connect 5 2 2 0;
#X connect 5 3 4 0;
#X restore 555 89 pd messages;
#X obj 517 340 r seq3-\$1-init;
#X text 602 54 messages;
#X obj 65 457 r seq3-\$1-save;
#X msg 579 416 0 init \, 1 init;
#X obj 517 361 t b b b b, f 16;
#X text 674 417 initiate;
#X text 448 248 arg 4: pass notes through? 0=false 1=true;
#X connect 1 0 17 0;
#X connect 1 1 2 0;
#X connect 7 0 9 0;
#X connect 10 0 15 0;
#X connect 14 0 11 0;
#X connect 15 0 11 0;
#X connect 17 0 7 0;
#X connect 17 1 3 0;
#X connect 18 0 15 0;
#X connect 21 0 22 0;
#X connect 24 0 19 0;
#X connect 25 0 19 1;
#X connect 29 0 30 0;
#X connect 30 0 21 0;
#X connect 30 1 16 0;
#X connect 36 0 35 0;
#X connect 36 1 37 0;
#X connect 38 0 43 0;
#X connect 40 0 45 0;
#X connect 41 0 28 0;
#X connect 43 0 1 0;
#X connect 43 1 9 0;
#X connect 45 0 0 0;
#X connect 46 0 50 0;
#X connect 48 0 36 0;
#X connect 49 0 11 0;
#X connect 50 0 10 0;
#X connect 50 1 14 0;
#X connect 50 2 49 0;
#X connect 50 3 34 0;
