#N canvas 535 212 925 832 10;
#X text 153 17 argument 1: send and catch name;
#X text 152 37 argument 2: voice number (corresponds to sigmund);
#X obj 146 541 *~, f 6;
#X obj 146 704 throw~ \$1-bus;
#X obj 296 292 lop~;
#X obj 546 547 vline~;
#X obj 546 569 *~;
#X obj 146 653 *~, f 8;
#X obj 145 245 unpack 0 0;
#X obj 145 214 route \$2;
#X obj 321 240 r \$1-slope-local;
#X obj 145 191 r \$1-sigmund;
#N canvas 305 64 1389 921 waveforms 0;
#X obj 469 498 s_blsquare;
#X msg 720 273 0;
#X msg 555 411 1;
#X msg 675 424 1;
#X msg 417 411 1;
#N canvas 7 50 727 452 triangle 0;
#X obj 130 207 outlet~;
#X obj 131 65 inlet~;
#N canvas 699 258 779 606 triangle 0;
#X obj 80 290 -~ 0.5;
#X obj 228 290 -~ 0.5;
#X obj 134 340 -~;
#X obj 220 480 outlet~;
#X obj 80 91 phasor~ 0;
#X text 131 55 frequency;
#X obj 228 236 wrap~;
#N canvas 0 50 540 420 4*$v1*(1-$v1) 0;
#X obj 182 177 *~ 4;
#X obj 132 177 sig~ 1;
#X obj 132 200 -~;
#X obj 132 228 *~;
#X obj 182 76 inlet~;
#X obj 132 253 outlet~;
#X connect 0 0 3 1;
#X connect 1 0 2 0;
#X connect 2 0 3 0;
#X connect 3 0 5 0;
#X connect 4 0 2 1;
#X connect 4 0 0 0;
#X restore 228 262 pd 4*$v1*(1-$v1);
#N canvas 0 50 540 420 4*$v1*(1-$v1) 0;
#X obj 182 177 *~ 4;
#X obj 132 177 sig~ 1;
#X obj 132 200 -~;
#X obj 132 228 *~;
#X obj 182 76 inlet~;
#X obj 132 253 outlet~;
#X connect 0 0 3 1;
#X connect 1 0 2 0;
#X connect 2 0 3 0;
#X connect 3 0 5 0;
#X connect 4 0 2 1;
#X connect 4 0 0 0;
#X restore 79 261 pd 4*$v1*(1-$v1);
#X text 489 64 tri-saw factor (0-1);
#X obj 80 54 inlet~;
#X obj 430 66 inlet;
#X obj 430 89 clip 0.01 0.99;
#X obj 294 372 line~;
#X obj 294 350 pack 0 10;
#N canvas 0 50 540 420 4*$f1*(1-$f1) 0;
#X obj 185 177 * 4;
#X obj 137 72 inlet;
#X msg 137 171 1 \$1;
#X obj 137 200 -;
#X obj 137 228 *;
#X obj 137 107 t a a;
#X obj 137 253 outlet;
#X connect 0 0 4 1;
#X connect 1 0 5 0;
#X connect 2 0 3 0;
#X connect 3 0 4 0;
#X connect 4 0 6 0;
#X connect 5 0 2 0;
#X connect 5 1 0 0;
#X restore 430 290 pd 4*$f1*(1-$f1);
#X obj 245 151 line~;
#X obj 245 129 pack 0 10;
#X obj 227 177 +~;
#X obj 245 77 loadbang;
#X msg 245 98 0.5;
#X obj 220 414 /~;
#X obj 294 297 loadbang;
#X msg 294 318 1;
#X obj 241 45 inlet;
#X connect 0 0 2 0;
#X connect 1 0 2 1;
#X connect 2 0 21 0;
#X connect 4 0 8 0;
#X connect 4 0 18 0;
#X connect 6 0 7 0;
#X connect 7 0 1 0;
#X connect 8 0 0 0;
#X connect 10 0 4 0;
#X connect 11 0 12 0;
#X connect 12 0 15 0;
#X connect 12 0 17 0;
#X connect 13 0 21 1;
#X connect 14 0 13 0;
#X connect 15 0 14 0;
#X connect 16 0 18 1;
#X connect 17 0 16 0;
#X connect 18 0 6 0;
#X connect 19 0 20 0;
#X connect 20 0 17 0;
#X connect 21 0 3 0;
#X connect 22 0 23 0;
#X connect 23 0 14 0;
#X connect 24 0 4 1;
#X restore 130 162 pd triangle;
#X text 202 48 slope;
#X obj 189 96 loadbang;
#X msg 194 123 0.5;
#X connect 1 0 2 0;
#X connect 2 0 0 0;
#X connect 4 0 5 0;
#X connect 5 0 2 2;
#X restore 706 486 pd triangle;
#X msg 786 431 1;
#X text 804 159 change waveform;
#X obj 593 248 delay 2;
#X obj 625 290 f;
#X obj 642 214 t b a b;
#X obj 595 482 s_blsaw;
#X obj 502 472 sig~ 0.5;
#X obj 336 442 smoothswitch;
#X obj 336 469 osc~;
#X obj 470 442 smoothswitch;
#X obj 594 451 smoothswitch;
#X obj 705 455 smoothswitch;
#X obj 252 148 inlet~;
#X obj 468 604 outlet~;
#X obj 815 179 inlet, f 16;
#X obj 468 582 *~ 1;
#X obj 336 491 *~ 1;
#X obj 595 504 *~ 1;
#X obj 706 508 *~ 1;
#X obj 469 520 *~ 0.9;
#X obj 625 313 sel 0 1 2 3 4;
#X connect 0 0 25 0;
#X connect 1 0 13 1;
#X connect 1 0 15 1;
#X connect 1 0 16 1;
#X connect 1 0 17 1;
#X connect 2 0 15 1;
#X connect 3 0 16 1;
#X connect 4 0 13 1;
#X connect 5 0 24 0;
#X connect 6 0 17 1;
#X connect 8 0 9 0;
#X connect 9 0 26 0;
#X connect 10 0 8 0;
#X connect 10 1 9 1;
#X connect 10 2 1 0;
#X connect 11 0 23 0;
#X connect 12 0 0 1;
#X connect 13 0 14 0;
#X connect 14 0 22 0;
#X connect 15 0 0 0;
#X connect 16 0 11 0;
#X connect 17 0 5 0;
#X connect 18 0 13 0;
#X connect 18 0 15 0;
#X connect 18 0 16 0;
#X connect 18 0 17 0;
#X connect 20 0 10 0;
#X connect 21 0 19 0;
#X connect 22 0 21 0;
#X connect 23 0 21 0;
#X connect 24 0 21 0;
#X connect 25 0 21 0;
#X connect 26 0 4 0;
#X connect 26 1 2 0;
#X connect 26 2 3 0;
#X connect 26 3 6 0;
#X connect 26 4 6 0;
#X restore 146 482 pd waveforms;
#X obj 227 455 r \$1-wave-local;
#X obj 516 291 list split 1;
#X obj 472 267 list split \$2;
#X obj 472 230 r \$1-partials-local;
#X obj 145 267 lop~;
#X msg 546 483 \$1 25;
#X obj 164 389 r \$1-keyshift-local;
#X obj 164 411 lop~ 200;
#X obj 145 365 +~;
#X obj 163 319 r \$1-shift-local;
#X obj 145 289 ftom~;
#X obj 146 435 +~;
#X obj 146 457 mtof~;
#X obj 516 316 sel 0, f 12;
#X obj 146 675 *~, f 13;
#X obj 440 693 switch~;
#X msg 629 366 1;
#X obj 597 340 t f b;
#X msg 548 363 0;
#X obj 516 338 t b b;
#X obj 516 390 del 25;
#X msg 516 412 0;
#X obj 360 418 sel 0 1, f 16;
#X obj 360 510 vline~;
#X msg 360 480 1 5;
#X obj 360 366 <= 0.0001;
#X obj 360 388 change -1;
#X msg 472 462 0 5;
#X obj 360 440 t b b;
#X obj 430 440 t b b;
#X msg 430 492 0;
#X obj 430 462 del 5;
#X obj 360 532 *~;
#X msg 392 463 1;
#X obj 497 636 loadbang;
#X msg 497 658 0;
#X obj 645 404 loadbang;
#X obj 645 426 f \$2;
#X obj 645 448 sel 0;
#X text 694 458 adds extra boost to root (0);
#X obj 597 452 * 1;
#X msg 644 470 1.25;
#X text 354 345 if below turn dsp off;
#X connect 2 0 7 0;
#X connect 4 0 2 1;
#X connect 5 0 6 0;
#X connect 5 0 6 1;
#X connect 6 0 7 1;
#X connect 7 0 27 0;
#X connect 8 0 17 0;
#X connect 8 1 4 0;
#X connect 8 1 38 0;
#X connect 9 0 8 0;
#X connect 10 0 4 1;
#X connect 10 0 17 1;
#X connect 11 0 9 0;
#X connect 12 0 2 0;
#X connect 13 0 12 1;
#X connect 14 0 26 0;
#X connect 15 1 14 0;
#X connect 16 0 15 0;
#X connect 17 0 23 0;
#X connect 18 0 5 0;
#X connect 19 0 20 0;
#X connect 20 0 24 1;
#X connect 21 0 24 0;
#X connect 22 0 21 1;
#X connect 23 0 21 0;
#X connect 24 0 25 0;
#X connect 25 0 12 0;
#X connect 26 0 32 0;
#X connect 26 1 30 0;
#X connect 27 0 3 0;
#X connect 29 0 28 0;
#X connect 30 0 53 0;
#X connect 30 1 29 0;
#X connect 31 0 18 0;
#X connect 32 0 33 0;
#X connect 32 1 31 0;
#X connect 33 0 34 0;
#X connect 34 0 28 0;
#X connect 35 0 41 0;
#X connect 35 1 42 0;
#X connect 36 0 45 0;
#X connect 36 0 45 1;
#X connect 37 0 36 0;
#X connect 38 0 39 0;
#X connect 39 0 35 0;
#X connect 40 0 36 0;
#X connect 41 0 37 0;
#X connect 41 1 46 0;
#X connect 42 0 44 0;
#X connect 42 1 40 0;
#X connect 43 0 28 0;
#X connect 44 0 43 0;
#X connect 45 0 27 1;
#X connect 46 0 28 0;
#X connect 47 0 48 0;
#X connect 48 0 28 0;
#X connect 49 0 50 0;
#X connect 50 0 51 0;
#X connect 51 0 54 0;
#X connect 53 0 18 0;
