#N canvas 6 50 1407 843 10;
#N canvas 0 50 450 278 (subpatch) 0;
#X array array4 29312 float 2;
#X coords 0 1 29312 -1 200 140 1 0 0;
#X restore 256 54 graph;
#X obj 38 61 soundfiler;
#X floatatom 38 90 10 0 0 0 - - -, f 10;
#X obj 38 122 t f f;
#X floatatom 63 396 10 0 0 0 - - -, f 10;
#X obj 63 199 / 44.1;
#X text 122 217 miliseconds;
#X text 116 192 sample rate / 1000;
#X obj 63 425 s duration;
#X obj 37 160 s size;
#X obj 492 253 bng 15 250 50 0 empty empty empty 17 7 0 10 -262144
-1 -1;
#X obj 510 363 r duration;
#X obj 474 430 pack;
#X msg 583 356 0;
#X obj 543 462 line~;
#X obj 543 488 *~;
#X obj 587 464 - 3;
#X obj 543 510 +~ 1;
#X msg 474 364 1;
#X obj 587 442 r size;
#X obj 495 386 f;
#X obj 491 326 t b b b;
#X obj 495 408 * 1;
#X floatatom 529 388 5 0 0 0 - - -, f 5;
#X obj 543 539 tabread4~ array4;
#X obj 493 102 mtof;
#X obj 493 153 t b f;
#X msg 493 174 1;
#X obj 493 195 /;
#X obj 493 216 t b f;
#X msg 38 34 read -resize wepa.wav array4;
#X obj 493 74 stripnote;
#X obj 493 128 / 300;
#X obj 96 236 r knob1;
#X obj 568 220 tgl 15 0 empty empty empty 17 7 0 10 -262144 -1 -1 0
83;
#X floatatom 96 275 5 0 0 0 - - -, f 5;
#X obj 96 308 * 1000;
#X obj 568 251 metro \$1;
#X obj 613 178 r knob2;
#X obj 305 751 throw~ outL;
#X obj 456 757 throw~ outR;
#X floatatom 268 446 4 0 999 0 - - -, f 4;
#X obj 494 652 delwrite~ delay1 1000;
#X obj 268 396 r knob3;
#X obj 268 417 * 1000;
#X obj 392 495 r knob4;
#X obj 613 208 * 1000;
#X obj 38 2 loadbang;
#X obj 493 48 unpack;
#X obj 493 19 r notes;
#X obj 268 517 vd~ delay1;
#X obj 268 465 sig~;
#X obj 268 487 lop~ 1;
#X obj 906 52 loadbang;
#X obj 1156 255 * 100;
#X obj 1156 277 i;
#X msg 1156 321 4: Feedback \$1 %;
#X obj 1156 343 s screenLine4;
#X obj 1025 275 i;
#X obj 1025 344 s screenLine3;
#X msg 1025 321 3: Delay Time \$1 ms;
#X obj 881 279 i;
#X msg 881 322 2: Loop Length \$1 ms;
#X obj 881 345 s screenLine2;
#X obj 737 279 i;
#X obj 736 345 s screenLine1;
#X obj 96 351 * 1;
#X obj 170 256 r aux;
#X obj 170 278 + 1;
#X msg 908 83 \; screenLine1 1: Play Speed \; screenLine2 2: Loop Length
\; screenLine3 3: Delay Time \; screenLine4 4: Feedback \; screenLine5
Aux: Speed Shift \;;
#X obj 403 651 *~ 1;
#X obj 737 233 r knob1;
#X obj 392 526 sig~;
#X obj 360 577 *~;
#X obj 392 548 lop~ 5;
#X obj 1025 230 r knob3;
#X obj 1025 251 * 1000;
#X obj 1156 232 r knob4;
#X obj 881 230 r knob2;
#X obj 881 254 * 1000;
#X obj 99 258 + 0.01;
#X obj 156 300 t b f;
#X obj 737 257 * 200;
#X msg 736 322 1: Play Speed \$1 %;
#X obj 236 315 s led;
#X obj 235 284 * 7;
#X obj 737 301 change -1;
#X obj 881 301 change -1;
#X obj 1025 300 change -1;
#X obj 1156 299 change -1;
#X connect 1 0 2 0;
#X connect 2 0 3 0;
#X connect 3 0 9 0;
#X connect 3 1 5 0;
#X connect 4 0 8 0;
#X connect 5 0 4 0;
#X connect 10 0 21 0;
#X connect 11 0 20 1;
#X connect 12 0 14 0;
#X connect 13 0 14 0;
#X connect 14 0 15 0;
#X connect 15 0 17 0;
#X connect 16 0 15 1;
#X connect 17 0 24 0;
#X connect 18 0 12 0;
#X connect 19 0 16 0;
#X connect 20 0 22 0;
#X connect 21 0 18 0;
#X connect 21 1 20 0;
#X connect 21 2 13 0;
#X connect 22 0 12 1;
#X connect 23 0 22 1;
#X connect 24 0 42 0;
#X connect 24 0 70 0;
#X connect 25 0 32 0;
#X connect 26 0 27 0;
#X connect 26 1 28 1;
#X connect 27 0 28 0;
#X connect 28 0 29 0;
#X connect 29 0 10 0;
#X connect 29 1 23 0;
#X connect 30 0 1 0;
#X connect 31 0 25 0;
#X connect 32 0 26 0;
#X connect 33 0 80 0;
#X connect 34 0 37 0;
#X connect 35 0 36 0;
#X connect 36 0 66 0;
#X connect 37 0 21 0;
#X connect 38 0 46 0;
#X connect 41 0 51 0;
#X connect 43 0 44 0;
#X connect 44 0 41 0;
#X connect 45 0 72 0;
#X connect 46 0 37 1;
#X connect 47 0 30 0;
#X connect 48 0 31 0;
#X connect 48 1 31 1;
#X connect 48 1 34 0;
#X connect 49 0 48 0;
#X connect 50 0 73 0;
#X connect 51 0 52 0;
#X connect 52 0 50 0;
#X connect 53 0 69 0;
#X connect 54 0 55 0;
#X connect 55 0 89 0;
#X connect 56 0 57 0;
#X connect 58 0 88 0;
#X connect 60 0 59 0;
#X connect 61 0 87 0;
#X connect 62 0 63 0;
#X connect 64 0 86 0;
#X connect 66 0 4 0;
#X connect 67 0 68 0;
#X connect 67 0 85 0;
#X connect 68 0 81 0;
#X connect 70 0 39 0;
#X connect 70 0 40 0;
#X connect 71 0 82 0;
#X connect 72 0 74 0;
#X connect 73 0 42 0;
#X connect 73 0 70 0;
#X connect 74 0 73 1;
#X connect 75 0 76 0;
#X connect 76 0 58 0;
#X connect 77 0 54 0;
#X connect 78 0 79 0;
#X connect 79 0 61 0;
#X connect 80 0 35 0;
#X connect 81 0 66 0;
#X connect 81 1 66 1;
#X connect 82 0 64 0;
#X connect 83 0 65 0;
#X connect 85 0 84 0;
#X connect 86 0 83 0;
#X connect 87 0 62 0;
#X connect 88 0 60 0;
#X connect 89 0 56 0;
