#N canvas 626 193 450 606 10;
#X obj 25 238 osc~ 0.01;
#X obj 26 441 outlet~;
#X obj 25 29 r wob-rate;
#X obj 160 72 sel 0;
#X msg 160 93 0;
#X obj 193 92 t b;
#X msg 193 113 1;
#X obj 160 144 change -1;
#X obj 26 411 *~;
#X obj 160 165 lop~ 20;
#X obj 294 10 inlet;
#X obj 25 50 t a a a, f 23;
#X obj 95 158 lop~ 10;
#X obj 25 269 *~, f 12;
#X obj 294 52 / 127;
#X obj 25 71 sig~;
#X obj 25 92 +~;
#X obj 294 94 lop~ 100;
#X obj 95 137 * 0.005;
#X obj 294 73 * 0.15;
#N canvas 4 50 450 300 warble 0;
#X obj 37 25 inlet~;
#X obj 38 268 outlet~;
#X obj 168 103 random 1000;
#X obj 168 154 * 0.001;
#X obj 167 46 inlet;
#X obj 37 177 *~;
#X obj 168 196 lop~ 200;
#X obj 168 124 - 500;
#X obj 168 77 metro 50;
#X connect 0 0 5 0;
#X connect 2 0 7 0;
#X connect 3 0 6 0;
#X connect 4 0 8 0;
#X connect 5 0 1 0;
#X connect 6 0 5 1;
#X connect 7 0 3 0;
#X connect 8 0 2 0;
#X restore 24 197 pd warble;
#X obj 294 31 unpack;
#X obj 350 207 sel 0;
#X obj 378 241 t b;
#X msg 350 228 0;
#X msg 378 262 1;
#X connect 0 0 13 0;
#X connect 2 0 11 0;
#X connect 3 0 4 0;
#X connect 3 1 5 0;
#X connect 4 0 7 0;
#X connect 5 0 6 0;
#X connect 6 0 7 0;
#X connect 7 0 9 0;
#X connect 8 0 1 0;
#X connect 9 0 8 1;
#X connect 10 0 21 0;
#X connect 11 0 15 0;
#X connect 11 1 18 0;
#X connect 11 2 3 0;
#X connect 12 0 13 1;
#X connect 13 0 8 0;
#X connect 14 0 19 0;
#X connect 15 0 16 0;
#X connect 16 0 20 0;
#X connect 17 0 16 1;
#X connect 18 0 12 0;
#X connect 19 0 17 0;
#X connect 20 0 0 0;
#X connect 21 0 14 0;
#X connect 21 1 22 0;
#X connect 22 0 24 0;
#X connect 22 1 23 0;
#X connect 23 0 25 0;
#X connect 24 0 20 1;
#X connect 25 0 20 1;
