#N canvas 532 241 892 525 10;
#X declare -path cg-pdlib-local/externals;
#X declare -path cg-pdlib-local/metronome;
#X declare -path cg-pdlib-local/sequencer;
#X declare -path cg-pdlib-local/sampling;
#X obj 292 376 r seq3-1-led;
#N canvas 19 51 625 625 metro-here 0;
#X obj 369 147 r seq3-1-actions, f 19;
#X obj 312 345 f;
#X msg 407 250 0;
#X obj 439 250 t b b;
#X msg 445 280 1;
#X obj 312 292 del 1;
#X obj 54 303 s beat-clock;
#X obj 176 83 loadbang;
#X msg 53 121 1;
#X obj 203 353 list, f 7;
#X obj 203 375 route 69;
#X obj 203 281 t b a;
#X msg 203 323 69;
#X msg 176 105 120;
#X obj 177 221 pack, f 10;
#X obj 212 189 t b a;
#X obj 54 151 metronome360 0, f 18;
#X obj 319 117 s seq3-1-quan;
#X obj 400 338 f;
#X obj 203 397 spigot 1;
#X obj 312 367 spigot 1, f 14;
#X obj 296 472 r cgSc-1-slots;
#X obj 296 498 + 1;
#X obj 203 552 print-line5 1, f 16;
#X obj 319 88 r metro-state;
#X obj 486 346 loadbang;
#X obj 296 519 f;
#X obj 486 388 t b b;
#X obj 312 428 f;
#X obj 486 367 del 1;
#X obj 407 179 r cgSc-1-mute-print;
#X obj 407 202 sel 1;
#X connect 0 0 1 0;
#X connect 1 0 20 0;
#X connect 2 0 18 0;
#X connect 3 0 5 0;
#X connect 3 1 4 0;
#X connect 4 0 18 0;
#X connect 5 0 1 0;
#X connect 5 0 12 0;
#X connect 7 0 13 0;
#X connect 7 0 8 0;
#X connect 8 0 16 0;
#X connect 9 0 10 0;
#X connect 10 0 19 0;
#X connect 11 0 12 0;
#X connect 11 1 9 1;
#X connect 12 0 9 0;
#X connect 13 0 16 1;
#X connect 14 0 11 0;
#X connect 15 0 14 0;
#X connect 15 1 14 1;
#X connect 16 0 6 0;
#X connect 16 1 15 0;
#X connect 16 2 14 0;
#X connect 18 0 19 1;
#X connect 18 0 20 1;
#X connect 19 0 23 0;
#X connect 20 0 28 0;
#X connect 21 0 22 0;
#X connect 22 0 26 0;
#X connect 24 0 17 0;
#X connect 25 0 29 0;
#X connect 26 0 23 2;
#X connect 27 0 28 0;
#X connect 27 1 26 0;
#X connect 28 0 23 1;
#X connect 29 0 27 0;
#X connect 30 0 31 0;
#X connect 31 0 2 0;
#X connect 31 1 3 0;
#X restore 437 44 pd metro-here;
#X obj 23 46 r aux;
#X obj 89 123 r cgSc-1-slots;
#X obj 140 46 r \$0-reprint-port;
#X obj 122 144 r beat-clock;
#N canvas 787 330 860 595 slot-saver-1 0;
#X obj 167 38 r cgSc-1-slots;
#X obj 30 68 loadbang;
#X msg 30 140 0;
#X obj 30 161 tabread \$0-slot;
#X obj 199 225 array define \$0-slot;
#X obj 30 110 t b b;
#X msg 199 138 read slot.txt;
#X msg 243 186 write slot.txt;
#X obj 243 160 r saveState;
#X obj 167 58 t a b;
#X msg 220 84 0;
#X obj 167 107 tabwrite \$0-slot;
#X obj 30 185 s cgSc-1-slots;
#X connect 0 0 9 0;
#X connect 1 0 5 0;
#X connect 2 0 3 0;
#X connect 3 0 12 0;
#X connect 5 0 2 0;
#X connect 5 1 6 0;
#X connect 6 0 4 0;
#X connect 7 0 4 0;
#X connect 8 0 7 0;
#X connect 9 0 11 0;
#X connect 9 1 10 0;
#X connect 10 0 11 1;
#X restore 440 9 pd slot-saver-1;
#X obj 23 77 shortcut 1 1, f 20;
#N canvas 100 74 1124 789 seq3-5option-control 0;
#X obj 139 278 outlet;
#X obj 65 121 t b;
#X msg 65 143 2;
#X obj 298 126 t b;
#X msg 298 148 3;
#X text 437 5 when aux is pressed after recording starts immediatley
end the rec and play the loop;
#X obj 170 70 sel 0;
#X obj 202 94 t b;
#X msg 202 116 1;
#X obj 33 66 r cgSc-1-2;
#X obj 171 48 r cgSc-1-1;
#X obj 33 88 sel 0;
#X obj 266 99 sel 0;
#X obj 317 272 r seq3-1-actions;
#X obj 317 294 sel 1, f 12;
#X obj 398 327 t b, f 4;
#X obj 317 445 s cgSc-1-1label;
#X obj 507 308 r seq3-1-actions;
#X obj 588 353 t b, f 4;
#X obj 507 329 sel 2 3, f 12;
#X obj 978 320 t b, f 4;
#X msg 978 355 Latch:Off;
#X msg 896 355 Latch:On;
#X obj 507 441 s cgSc-1-2label;
#X text 521 279 print to the shortcut menu;
#X obj 378 141 f 0;
#X obj 130 0 r midi-start;
#X msg 130 22 4;
#X obj 373 105 r midi-stop;
#X obj 507 125 t b;
#X obj 475 98 sel 0;
#X msg 507 147 5;
#X obj 192 487 r seq3-1-actions;
#X obj 273 532 t b, f 4;
#X obj 192 508 sel 5, f 12;
#X obj 317 373 f;
#X msg 317 403 \$1Seq:Stop;
#X obj 398 372 f;
#X msg 398 402 \$1Seq:Play;
#X msg 507 399 \$1Rec:Armd;
#X msg 588 397 \$1Rec:On;
#X msg 659 398 \$1Rec:Off;
#X obj 507 374 f;
#X obj 582 373 f;
#X obj 649 370 f;
#X obj 273 554 f;
#X obj 192 560 f;
#X msg 192 607 \$1Dub:On;
#X obj 201 286 r cgSc-1-slots;
#X obj 201 329 t b f f;
#X obj 166 439 s seq3-1-actions;
#X obj 166 415 v seq3-1-state;
#X obj 201 309 + 1;
#X obj 668 299 + 1;
#X obj 668 251 r cgSc-1-slots;
#X obj 321 507 + 1;
#X obj 321 483 r cgSc-1-slots;
#X obj 559 76 sel 1;
#X obj 612 80 r seq3-1-actions;
#X obj 559 174 t b b;
#X msg 640 152 0;
#X obj 559 152 spigot 0;
#X msg 612 129 1;
#X msg 559 196 1;
#X obj 192 650 s cgSc-1-3label;
#X obj 475 71 r cgSc-1-3;
#X obj 559 52 r cgSc-1-aux;
#X obj 896 398 s cgSc-1-5label;
#X obj 267 72 r cgSc-1-5;
#X obj 358 53 t b;
#X obj 326 26 sel 0;
#X obj 326 2 r cgSc-1-4;
#X msg 358 75 6;
#X obj 465 480 r seq3-1-actions;
#X obj 507 558 f;
#X obj 584 501 + 1;
#X obj 584 477 r cgSc-1-slots;
#X obj 465 643 s cgSc-1-4label;
#X obj 612 104 sel 3, f 12;
#X msg 273 607 \$1Dub:Off;
#X obj 465 501 sel 6, f 10;
#X obj 532 526 t b;
#X obj 465 585 spigot 1;
#X obj 552 582 spigot 0;
#X obj 675 510 r seq3-1-actions;
#X obj 675 532 sel 3;
#X obj 591 537 ==;
#X obj 637 564 f;
#X msg 637 533 1;
#X msg 708 615 0;
#X msg 552 607 \$1:Undo;
#X msg 465 610 \$1:Undid;
#X obj 465 523 t b b;
#X obj 31 189 loadbang;
#X msg 70 229 0;
#X obj 23 341 r init-1-slot;
#X obj 23 363 s cgSc-1-slots;
#X obj 896 255 r seq3-1-togLatch;
#X obj 896 296 sel 1, f 12;
#X obj 104 167 r kill-seq;
#X obj 211 138 r kill-latch;
#X msg 211 159 7;
#X connect 1 0 2 0;
#X connect 2 0 0 0;
#X connect 3 0 4 0;
#X connect 4 0 0 0;
#X connect 6 1 7 0;
#X connect 7 0 8 0;
#X connect 8 0 0 0;
#X connect 9 0 11 0;
#X connect 10 0 6 0;
#X connect 11 1 1 0;
#X connect 12 1 3 0;
#X connect 13 0 14 0;
#X connect 14 0 35 0;
#X connect 14 1 15 0;
#X connect 15 0 37 0;
#X connect 17 0 19 0;
#X connect 18 0 44 0;
#X connect 19 0 42 0;
#X connect 19 1 43 0;
#X connect 19 2 18 0;
#X connect 20 0 21 0;
#X connect 21 0 67 0;
#X connect 22 0 67 0;
#X connect 25 0 0 0;
#X connect 26 0 27 0;
#X connect 27 0 0 0;
#X connect 28 0 25 0;
#X connect 29 0 31 0;
#X connect 30 1 29 0;
#X connect 31 0 0 0;
#X connect 32 0 34 0;
#X connect 33 0 45 0;
#X connect 34 0 46 0;
#X connect 34 1 33 0;
#X connect 35 0 36 0;
#X connect 36 0 16 0;
#X connect 37 0 38 0;
#X connect 38 0 16 0;
#X connect 39 0 23 0;
#X connect 40 0 23 0;
#X connect 41 0 23 0;
#X connect 42 0 39 0;
#X connect 43 0 40 0;
#X connect 44 0 41 0;
#X connect 45 0 79 0;
#X connect 46 0 47 0;
#X connect 47 0 64 0;
#X connect 48 0 52 0;
#X connect 49 0 51 0;
#X connect 49 1 35 1;
#X connect 49 2 37 1;
#X connect 51 0 50 0;
#X connect 52 0 49 0;
#X connect 53 0 44 1;
#X connect 53 0 43 1;
#X connect 53 0 42 1;
#X connect 54 0 53 0;
#X connect 55 0 45 1;
#X connect 55 0 46 1;
#X connect 56 0 55 0;
#X connect 57 0 61 0;
#X connect 58 0 78 0;
#X connect 59 0 63 0;
#X connect 59 1 60 0;
#X connect 60 0 61 1;
#X connect 61 0 59 0;
#X connect 62 0 61 1;
#X connect 63 0 0 0;
#X connect 65 0 30 0;
#X connect 66 0 57 0;
#X connect 68 0 12 0;
#X connect 69 0 72 0;
#X connect 70 1 69 0;
#X connect 71 0 70 0;
#X connect 72 0 0 0;
#X connect 73 0 80 0;
#X connect 74 0 82 0;
#X connect 74 0 83 0;
#X connect 75 0 74 1;
#X connect 76 0 75 0;
#X connect 78 0 62 0;
#X connect 79 0 64 0;
#X connect 80 0 92 0;
#X connect 80 1 81 0;
#X connect 81 0 74 0;
#X connect 82 0 91 0;
#X connect 83 0 90 0;
#X connect 84 0 85 0;
#X connect 85 0 88 0;
#X connect 86 0 82 1;
#X connect 87 0 86 0;
#X connect 87 0 83 1;
#X connect 88 0 87 0;
#X connect 89 0 87 0;
#X connect 90 0 77 0;
#X connect 91 0 77 0;
#X connect 92 0 74 0;
#X connect 92 1 89 0;
#X connect 93 0 94 0;
#X connect 94 0 0 0;
#X connect 95 0 96 0;
#X connect 97 0 98 0;
#X connect 98 0 22 0;
#X connect 98 1 20 0;
#X connect 99 0 94 0;
#X connect 100 0 101 0;
#X connect 101 0 0 0;
#X restore 56 102 pd seq3-5option-control;
#X obj 23 165 seq3 1 0 ../../sequences 1 0 1, f 17;
#X obj 719 190 catch~ samp_voice_out;
#X obj 719 292 throw~ outL;
#X obj 735 270 throw~ outR;
#X obj 718 242 *~ 0.9;
#N canvas 4 50 958 670 sound-in 0;
#X obj 225 87 r~ inL;
#X obj 296 87 r~ inR;
#X obj 296 108 *~ 0.707;
#X obj 225 109 *~ 0.707;
#X obj 357 378 lop~ 5;
#X obj 226 428 *~;
#X obj 492 291 * 100;
#X obj 492 333 i;
#X obj 225 220 hip~ 5;
#X obj 225 464 s~ samp-sound-in;
#X obj 140 298 s~ samp-sound-in-control;
#X obj 383 540 s samp-trig-percent;
#X obj 383 490 loadbang;
#X obj 357 311 pow 2;
#X obj 357 231 r knob1;
#X obj 492 407 s screenLine1;
#X obj 492 379 shortcut-mute-list 1;
#X msg 492 355 1: Input Vol: \$1%;
#X msg 383 511 0.1;
#X obj 357 252 t a a;
#X obj 225 241 lop~ 15000;
#X obj 225 262 lop~ 15000;
#X connect 0 0 3 0;
#X connect 1 0 2 0;
#X connect 2 0 8 0;
#X connect 3 0 8 0;
#X connect 4 0 5 1;
#X connect 5 0 9 0;
#X connect 6 0 7 0;
#X connect 7 0 17 0;
#X connect 8 0 20 0;
#X connect 8 0 10 0;
#X connect 12 0 18 0;
#X connect 13 0 4 0;
#X connect 14 0 19 0;
#X connect 16 0 15 0;
#X connect 17 0 16 0;
#X connect 18 0 11 0;
#X connect 19 0 13 0;
#X connect 19 1 6 0;
#X connect 20 0 21 0;
#X connect 21 0 5 0;
#X restore 308 43 pd sound-in;
#N canvas 4 50 1145 618 knobs 0;
#X obj 100 42 r knob2;
#X obj 126 132 s global-pitch;
#X obj 100 63 * 48;
#X obj 100 84 - 24;
#X obj 100 105 i;
#X obj 72 311 s screenLine2;
#X obj 79 141 moses 0;
#X msg 124 213 2: Tune: +\$1;
#X obj 40 163 moses 0;
#X msg 127 170 2: Tune: \$1;
#X msg 40 190 2: Tune: \$1;
#X obj 72 267 shortcut-mute-list 1;
#X obj 292 49 r knob3;
#X obj 320 216 s ramp-time;
#X obj 292 110 pow 2;
#X obj 292 152 i;
#X obj 292 325 shortcut-mute-list 1;
#X obj 292 369 s screenLine3;
#X msg 292 290 3: Ramp Time: \$1ms;
#X obj 166 34 r seq3-1-k2;
#X obj 298 82 r seq3-1-k3;
#X obj 559 45 r knob4;
#X obj 291 174 + 5;
#X obj 292 132 * 995;
#X obj 559 294 s wob-rate;
#X obj 693 196 shortcut-mute-list 1;
#X obj 693 219 s screenLine4;
#X obj 559 148 t a a;
#X obj 559 169 *;
#X obj 637 128 i;
#X obj 637 107 * 100;
#X obj 559 66 t a a;
#X obj 613 39 r seq3-1-k4;
#X obj 559 190 * 10;
#X msg 693 170 4: Warble: \$1%;
#X connect 0 0 2 0;
#X connect 2 0 3 0;
#X connect 3 0 4 0;
#X connect 4 0 1 0;
#X connect 4 0 6 0;
#X connect 6 0 8 0;
#X connect 6 1 7 0;
#X connect 7 0 11 0;
#X connect 8 0 10 0;
#X connect 8 1 9 0;
#X connect 9 0 11 0;
#X connect 10 0 11 0;
#X connect 11 0 5 0;
#X connect 12 0 14 0;
#X connect 14 0 23 0;
#X connect 15 0 22 0;
#X connect 16 0 17 0;
#X connect 18 0 16 0;
#X connect 19 0 2 0;
#X connect 20 0 14 0;
#X connect 21 0 31 0;
#X connect 22 0 18 0;
#X connect 22 0 13 0;
#X connect 23 0 15 0;
#X connect 25 0 26 0;
#X connect 27 0 28 0;
#X connect 27 1 28 1;
#X connect 28 0 33 0;
#X connect 29 0 34 0;
#X connect 30 0 29 0;
#X connect 31 0 27 0;
#X connect 31 1 30 0;
#X connect 32 0 31 0;
#X connect 33 0 24 0;
#X connect 34 0 25 0;
#X restore 309 16 pd knobs;
#X obj 399 221 r samp-states;
#X obj 399 242 route 1;
#X obj 399 263 sel 0 1 2, f 15;
#X msg 428 352 6;
#X obj 428 411 s led;
#X msg 457 352 1;
#X obj 314 224 r seq3-1-led;
#X obj 319 317 f, f 7;
#X obj 23 253 t a a, f 20;
#X obj 140 296 spigot;
#X obj 23 294 spigot;
#N canvas 603 382 758 398 poly-mode 0;
#X obj 39 9 inlet;
#X obj 35 176 pack 0 0 0;
#X obj 35 197 route 1 2 3 4 5 6 7 8, f 82;
#X obj 39 60 t a a;
#X obj 66 90 bag;
#X obj 110 4 inlet;
#X obj 66 111 pack 0 0;
#X msg 110 57 flush;
#X obj 110 25 t b;
#X obj 35 239 new-mello-voice 1;
#X obj 76 220 new-mello-voice 2;
#X obj 166 246 new-mello-voice 3;
#X obj 206 226 new-mello-voice 4;
#X obj 304 247 new-mello-voice 5;
#X obj 447 247 new-mello-voice 7;
#X obj 347 226 new-mello-voice 6;
#X obj 472 226 new-mello-voice 8;
#X obj 35 155 poly 8 1, f 10;
#X connect 0 0 3 0;
#X connect 1 0 2 0;
#X connect 2 0 9 0;
#X connect 2 1 10 0;
#X connect 2 2 11 0;
#X connect 2 3 12 0;
#X connect 2 4 13 0;
#X connect 2 5 15 0;
#X connect 2 6 14 0;
#X connect 2 7 16 0;
#X connect 3 0 17 0;
#X connect 3 1 4 0;
#X connect 4 0 6 0;
#X connect 5 0 8 0;
#X connect 6 0 17 0;
#X connect 7 0 4 0;
#X connect 8 0 7 0;
#X connect 17 0 1 0;
#X connect 17 1 1 1;
#X connect 17 2 1 2;
#X restore 23 334 pd poly-mode;
#X obj 173 255 ==;
#N canvas 683 340 452 289 switch 0;
#X obj 108 60 r cgSc-1-7;
#X obj 170 141 + 1;
#X obj 135 163 % 2;
#X obj 108 83 sel 0;
#X obj 135 112 t b;
#X obj 135 244 outlet;
#X obj 225 248 s cgSc-1-7label;
#X msg 145 225 Mode:Mono;
#X msg 279 198 Mode:Poly;
#X obj 146 194 sel 0 1;
#X obj 43 46 loadbang;
#X obj 135 142 f 1;
#X connect 0 0 3 0;
#X connect 1 0 11 1;
#X connect 2 0 5 0;
#X connect 2 0 9 0;
#X connect 3 1 4 0;
#X connect 4 0 11 0;
#X connect 7 0 6 0;
#X connect 8 0 6 0;
#X connect 9 0 7 0;
#X connect 9 1 8 0;
#X connect 10 0 11 0;
#X connect 11 0 1 0;
#X connect 11 0 2 0;
#X restore 134 191 pd switch;
#X obj 134 218 t b f f;
#X obj 92 286 t b b;
#N canvas 846 148 792 873 aux-footswitch 0;
#X msg 191 515 \; samp-1-arm bang;
#X obj 116 33 r cgSc-1-6;
#X obj 103 57 sel 0;
#X obj 308 391 r aux;
#X obj 321 419 r fs;
#X obj 103 8 r fs;
#X obj 40 515 s cgSc-1-6label;
#X obj 52 357 loadbang;
#X msg 40 458 SampRec:_;
#X msg 112 487 SampRec:X;
#X obj 308 462 sel 0;
#X obj 191 459 t b b;
#X obj 218 489 s kill-seq;
#X obj 17 274 r samp-states;
#X obj 17 295 route 1;
#X obj 17 316 sel 0 1 2;
#X obj 561 311 s glob-sync-lock;
#X obj 561 166 change -1;
#X obj 582 200 sel 0 1, f 30;
#X msg 582 221 Sync:Off;
#X msg 669 225 Sync:On;
#X obj 535 63 sel 0;
#X obj 562 89 t b;
#X obj 595 111 + 1;
#X obj 562 131 % 2;
#X obj 611 272 s cgSc-1-8label;
#X obj 535 42 r cgSc-1-8;
#X obj 481 157 loadbang;
#X msg 481 178 1;
#X obj 67 435 v \$0-rec;
#X obj 40 388 t b b;
#X msg 67 411 0;
#X obj 130 98 v \$0-rec;
#X obj 130 77 t b;
#X obj 130 119 sel 0 1, f 44;
#X obj 211 350 v \$0-rec;
#X msg 211 326 1;
#X obj 335 691 v \$0-rec;
#X msg 335 667 0;
#X obj 335 586 v \$0-rec;
#X obj 335 562 t b, f 12;
#X obj 335 607 sel 1;
#X obj 335 634 t b b;
#X obj 523 525 change -1;
#X obj 509 554 sel 0 1, f 30;
#X obj 497 422 sel 0;
#X obj 524 448 t b;
#X obj 557 470 + 1;
#X obj 524 490 % 2;
#X obj 524 469 f 1;
#X obj 498 401 r cgSc-1-9;
#X obj 538 626 s cgSc-1-9label;
#X obj 523 671 s backwards;
#X msg 507 575 Rvrse:Off;
#X msg 596 579 Rvrse:On;
#X msg 675 616 -1;
#X msg 488 619 1;
#X obj 615 486 loadbang;
#X msg 615 507 0;
#X obj 562 110 f 0;
#X obj 398 247 s kill-latch;
#X msg 260 305 \; samp-1-arm bang;
#X obj 303 277 v \$0-rec;
#X msg 303 253 0;
#X msg 287 178 stop;
#X obj 260 199 del 1000;
#X msg 166 179 stop;
#X obj 139 200 del 1000;
#X obj 260 157 t b b b;
#X obj 249 217 t b b, f 15;
#X obj 130 298 t b b b b, f 14;
#X obj 139 158 t b b b;
#X obj 328 165 r ramp-time;
#X connect 1 0 2 0;
#X connect 2 1 33 0;
#X connect 3 0 10 0;
#X connect 4 0 10 0;
#X connect 5 0 2 0;
#X connect 7 0 30 0;
#X connect 8 0 6 0;
#X connect 9 0 6 0;
#X connect 10 1 40 0;
#X connect 11 0 0 0;
#X connect 11 1 12 0;
#X connect 13 0 14 0;
#X connect 14 0 15 0;
#X connect 15 0 30 0;
#X connect 17 0 16 0;
#X connect 17 0 18 0;
#X connect 18 0 19 0;
#X connect 18 1 20 0;
#X connect 19 0 25 0;
#X connect 20 0 25 0;
#X connect 21 1 22 0;
#X connect 22 0 59 0;
#X connect 23 0 59 1;
#X connect 24 0 17 0;
#X connect 26 0 21 0;
#X connect 27 0 28 0;
#X connect 28 0 18 0;
#X connect 28 0 16 0;
#X connect 30 0 8 0;
#X connect 30 1 31 0;
#X connect 31 0 29 0;
#X connect 32 0 34 0;
#X connect 33 0 32 0;
#X connect 34 0 71 0;
#X connect 34 1 68 0;
#X connect 36 0 35 0;
#X connect 38 0 37 0;
#X connect 39 0 41 0;
#X connect 40 0 39 0;
#X connect 41 0 42 0;
#X connect 42 0 38 0;
#X connect 42 1 11 0;
#X connect 43 0 44 0;
#X connect 44 0 53 0;
#X connect 44 0 56 0;
#X connect 44 1 54 0;
#X connect 44 1 55 0;
#X connect 45 1 46 0;
#X connect 46 0 49 0;
#X connect 47 0 49 1;
#X connect 48 0 43 0;
#X connect 49 0 47 0;
#X connect 49 0 48 0;
#X connect 50 0 45 0;
#X connect 53 0 51 0;
#X connect 54 0 51 0;
#X connect 55 0 52 0;
#X connect 56 0 52 0;
#X connect 57 0 58 0;
#X connect 58 0 44 0;
#X connect 59 0 23 0;
#X connect 59 0 24 0;
#X connect 63 0 62 0;
#X connect 64 0 65 0;
#X connect 65 0 69 0;
#X connect 66 0 67 0;
#X connect 67 0 70 0;
#X connect 68 0 65 0;
#X connect 68 1 64 0;
#X connect 68 2 60 0;
#X connect 69 0 61 0;
#X connect 69 1 63 0;
#X connect 70 0 11 0;
#X connect 70 2 9 0;
#X connect 70 3 36 0;
#X connect 71 0 67 0;
#X connect 71 1 66 0;
#X connect 71 2 60 0;
#X connect 72 0 65 1;
#X connect 72 0 67 1;
#X restore 307 71 pd aux-footswitch;
#N canvas 4 50 934 487 emulate 0;
#X msg 205 243 const 0;
#X text 408 133 this keeps track of the progress playback mode;
#X obj 198 162 r new-recording!;
#X obj 206 270 array define -k tape-lOOps 128;
#A 0 0 0 0 0 0 0 0 0 0 0 0 0 0 0 0 0 0 0 0 0 0 0 0 0 0 0 0 0 0 0 0
0 0 0 0 0 0 0 0 0 0 0 0 0 0 0 0 0 0 0 0 0 0 0 0 0 0 0 0 0 0.10822 0
0 0 0 0 0 0 0 0.00157519 0.999906 0.708864 0 0 0.180809 0 0 0.908152
0 0 0 0.00845761 0 0 0 0 0 0 0 0 0 0 0 0 0 0 0 0 0 0 0 0 0 0 0 0 0
0 0 0 0 0 0 0 0 0 0 0 0 0 0 0 0 0 0 0 0 0;
#X connect 0 0 3 0;
#X connect 2 0 0 0;
#X restore 305 94 pd emulate 127 tape loops;
#X obj 612 60 r~ samp-sound-in;
#N canvas 486 174 450 300 cg-pdlib-local 0;
#X obj 502 35 r cgSc-1-slots;
#X obj 60 98 declare -path cg-pdlib-local/externals;
#X obj 60 128 declare -path cg-pdlib-local/metronome;
#X obj 56 186 declare -path cg-pdlib-local/sequencer;
#X obj 60 160 declare -path cg-pdlib-local/sampling;
#X restore 9 14 pd cg-pdlib-local;
#X obj 655 101 r~ samp-sound-in-control;
#N canvas 554 70 450 300 mono-mode 0;
#X obj 34 15 inlet note;
#X obj 330 12 inlet stop;
#X obj 34 57 order-notes;
#X obj 330 33 t b;
#X obj 34 118 new-mono-voice 9;
#X connect 0 0 2 0;
#X connect 1 0 3 0;
#X connect 2 0 4 0;
#X connect 2 1 4 1;
#X connect 3 0 4 1;
#X restore 140 333 pd mono-mode;
#X obj 483 309 s new-recording!;
#X obj 611 148 load-rec-sample samp 1 20000 sounds 0;
#X connect 0 0 20 0;
#X connect 2 0 7 0;
#X connect 3 0 9 2;
#X connect 4 0 7 1;
#X connect 5 0 9 3;
#X connect 7 0 9 0;
#X connect 8 0 9 1;
#X connect 9 0 24 0;
#X connect 10 0 13 0;
#X connect 13 0 11 0;
#X connect 13 0 12 0;
#X connect 16 0 17 0;
#X connect 17 0 18 0;
#X connect 18 0 23 0;
#X connect 18 1 19 0;
#X connect 18 2 21 0;
#X connect 18 2 38 0;
#X connect 19 0 20 0;
#X connect 21 0 20 0;
#X connect 22 0 23 1;
#X connect 23 0 20 0;
#X connect 24 0 26 0;
#X connect 24 1 25 0;
#X connect 25 0 37 0;
#X connect 26 0 27 0;
#X connect 28 0 25 1;
#X connect 29 0 30 0;
#X connect 30 0 31 0;
#X connect 30 1 26 1;
#X connect 30 2 28 0;
#X connect 31 0 27 1;
#X connect 31 1 37 1;
#X connect 34 0 39 0;
#X connect 36 0 39 1;
