#N canvas 50 83 886 525 10;
#X declare -path cg-pdlib-local/externals;
#X declare -path cg-pdlib-local/metronome;
#X declare -path cg-pdlib-local/sequencer;
#X declare -path cg-pdlib-local/sampling;
#N canvas 19 51 625 625 metro-here 0;
#X obj 369 147 r seq3-1-actions, f 19;
#X obj 312 345 f;
#X msg 407 250 0;
#X obj 439 250 t b b;
#X msg 445 280 1;
#X obj 312 292 del 1;
#X obj 54 303 s beat-clock;
#X obj 176 83 loadbang;
#X msg 53 121 1;
#X obj 203 353 list, f 7;
#X obj 203 375 route 69;
#X obj 203 281 t b a;
#X msg 203 323 69;
#X msg 176 105 120;
#X obj 177 221 pack, f 10;
#X obj 212 189 t b a;
#X obj 54 151 metronome360 0, f 18;
#X obj 319 117 s seq3-1-quan;
#X obj 400 338 f;
#X obj 203 397 spigot 1;
#X obj 312 367 spigot 1, f 14;
#X obj 296 472 r cgSc-1-slots;
#X obj 296 498 + 1;
#X obj 203 552 print-line5 1, f 16;
#X obj 319 88 r metro-state;
#X obj 486 346 loadbang;
#X obj 296 519 f;
#X obj 486 388 t b b;
#X obj 312 428 f;
#X obj 486 367 del 1;
#X obj 407 179 r cgSc-1-mute-print;
#X obj 407 202 sel 1;
#X connect 0 0 1 0;
#X connect 1 0 20 0;
#X connect 2 0 18 0;
#X connect 3 0 5 0;
#X connect 3 1 4 0;
#X connect 4 0 18 0;
#X connect 5 0 1 0;
#X connect 5 0 12 0;
#X connect 7 0 13 0;
#X connect 7 0 8 0;
#X connect 8 0 16 0;
#X connect 9 0 10 0;
#X connect 10 0 19 0;
#X connect 11 0 12 0;
#X connect 11 1 9 1;
#X connect 12 0 9 0;
#X connect 13 0 16 1;
#X connect 14 0 11 0;
#X connect 15 0 14 0;
#X connect 15 1 14 1;
#X connect 16 0 6 0;
#X connect 16 1 15 0;
#X connect 16 2 14 0;
#X connect 18 0 19 1;
#X connect 18 0 20 1;
#X connect 19 0 23 0;
#X connect 20 0 28 0;
#X connect 21 0 22 0;
#X connect 22 0 26 0;
#X connect 24 0 17 0;
#X connect 25 0 29 0;
#X connect 26 0 23 2;
#X connect 27 0 28 0;
#X connect 27 1 26 0;
#X connect 28 0 23 1;
#X connect 29 0 27 0;
#X connect 30 0 31 0;
#X connect 31 0 2 0;
#X connect 31 1 3 0;
#X restore 437 44 pd metro-here;
#X obj 23 46 r aux;
#X obj 89 123 r cgSc-1-slots;
#X obj 140 46 r \$0-reprint-port;
#X obj 122 144 r beat-clock;
#N canvas 787 330 860 595 slot-saver-1 0;
#X obj 167 38 r cgSc-1-slots;
#X obj 30 68 loadbang;
#X msg 30 140 0;
#X obj 30 161 tabread \$0-slot;
#X obj 199 225 array define \$0-slot;
#X obj 30 110 t b b;
#X msg 199 138 read slot.txt;
#X msg 243 186 write slot.txt;
#X obj 243 160 r saveState;
#X obj 167 58 t a b;
#X msg 220 84 0;
#X obj 167 107 tabwrite \$0-slot;
#X obj 30 185 s cgSc-1-slots;
#X connect 0 0 9 0;
#X connect 1 0 5 0;
#X connect 2 0 3 0;
#X connect 3 0 12 0;
#X connect 5 0 2 0;
#X connect 5 1 6 0;
#X connect 6 0 4 0;
#X connect 7 0 4 0;
#X connect 8 0 7 0;
#X connect 9 0 11 0;
#X connect 9 1 10 0;
#X connect 10 0 11 1;
#X restore 440 9 pd slot-saver-1;
#X obj 23 77 shortcut 1 1, f 20;
#N canvas 100 50 1124 682 seq3-5option-control 0;
#X obj 139 278 outlet;
#X obj 65 121 t b;
#X msg 65 143 2;
#X obj 802 106 t b;
#X text 437 5 when aux is pressed after recording starts immediatley
end the rec and play the loop;
#X obj 170 70 sel 0;
#X obj 202 94 t b;
#X msg 202 116 1;
#X obj 33 66 r cgSc-1-2;
#X obj 171 48 r cgSc-1-1;
#X obj 33 88 sel 0;
#X obj 775 85 sel 0;
#X obj 317 272 r seq3-1-actions;
#X obj 317 294 sel 1, f 12;
#X obj 398 327 t b, f 4;
#X obj 317 445 s cgSc-1-1label;
#X obj 507 308 r seq3-1-actions;
#X obj 588 353 t b, f 4;
#X obj 507 329 sel 2 3, f 12;
#X obj 978 320 t b, f 4;
#X msg 978 355 Latch:Off;
#X msg 896 355 Latch:On;
#X obj 507 441 s cgSc-1-2label;
#X text 521 279 print to the shortcut menu;
#X obj 378 141 f 0;
#X obj 130 0 r midi-start;
#X msg 130 22 4;
#X obj 373 105 r midi-stop;
#X obj 507 125 t b;
#X obj 475 98 sel 0;
#X msg 507 147 5;
#X obj 192 487 r seq3-1-actions;
#X obj 273 532 t b, f 4;
#X obj 192 508 sel 5, f 12;
#X obj 317 373 f;
#X msg 317 403 \$1Seq:Stop;
#X obj 398 372 f;
#X msg 398 402 \$1Seq:Play;
#X msg 507 399 \$1Rec:Armd;
#X msg 588 397 \$1Rec:On;
#X msg 659 398 \$1Rec:Off;
#X obj 507 374 f;
#X obj 582 373 f;
#X obj 649 370 f;
#X obj 273 554 f;
#X obj 192 560 f;
#X msg 192 607 \$1Dub:On;
#X obj 201 286 r cgSc-1-slots;
#X obj 201 329 t b f f;
#X obj 166 439 s seq3-1-actions;
#X obj 166 415 v seq3-1-state;
#X obj 201 309 + 1;
#X obj 668 299 + 1;
#X obj 668 251 r cgSc-1-slots;
#X obj 321 507 + 1;
#X obj 321 483 r cgSc-1-slots;
#X obj 559 76 sel 1;
#X obj 612 80 r seq3-1-actions;
#X obj 559 174 t b b;
#X msg 640 152 0;
#X obj 559 152 spigot 0;
#X msg 612 129 1;
#X msg 559 196 1;
#X obj 192 650 s cgSc-1-3label;
#X obj 475 71 r cgSc-1-3;
#X obj 559 52 r cgSc-1-aux;
#X obj 896 398 s cgSc-1-5label;
#X obj 776 58 r cgSc-1-5;
#X obj 358 53 t b;
#X obj 326 26 sel 0;
#X obj 326 2 r cgSc-1-4;
#X msg 358 75 6;
#X obj 465 480 r seq3-1-actions;
#X obj 507 558 f;
#X obj 584 501 + 1;
#X obj 584 477 r cgSc-1-slots;
#X obj 465 643 s cgSc-1-4label;
#X obj 612 104 sel 3, f 12;
#X msg 273 607 \$1Dub:Off;
#X obj 465 501 sel 6, f 10;
#X obj 532 526 t b;
#X obj 465 585 spigot 1;
#X obj 552 582 spigot 0;
#X obj 675 510 r seq3-1-actions;
#X obj 675 532 sel 3;
#X obj 591 537 ==;
#X obj 637 564 f;
#X msg 637 533 1;
#X msg 708 615 0;
#X msg 552 607 \$1:Undo;
#X msg 465 610 \$1:Undid;
#X obj 465 523 t b b;
#X obj 31 189 loadbang;
#X msg 70 229 0;
#X obj 23 341 r init-1-slot;
#X obj 23 363 s cgSc-1-slots;
#X obj 896 255 r seq3-1-togLatch;
#X obj 896 296 sel 1, f 12;
#X obj 104 167 r kill-seq;
#X msg 802 193 3 \$1;
#X obj 844 157 + 1;
#X obj 844 178 == 1;
#X obj 802 157 f 1;
#X obj 855 114 r seq3-latch-control;
#X connect 1 0 2 0;
#X connect 2 0 0 0;
#X connect 3 0 102 0;
#X connect 5 1 6 0;
#X connect 6 0 7 0;
#X connect 7 0 0 0;
#X connect 8 0 10 0;
#X connect 9 0 5 0;
#X connect 10 1 1 0;
#X connect 11 1 3 0;
#X connect 12 0 13 0;
#X connect 13 0 34 0;
#X connect 13 1 14 0;
#X connect 14 0 36 0;
#X connect 16 0 18 0;
#X connect 17 0 43 0;
#X connect 18 0 41 0;
#X connect 18 1 42 0;
#X connect 18 2 17 0;
#X connect 19 0 20 0;
#X connect 20 0 66 0;
#X connect 21 0 66 0;
#X connect 24 0 0 0;
#X connect 25 0 26 0;
#X connect 26 0 0 0;
#X connect 27 0 24 0;
#X connect 28 0 30 0;
#X connect 29 1 28 0;
#X connect 30 0 0 0;
#X connect 31 0 33 0;
#X connect 32 0 44 0;
#X connect 33 0 45 0;
#X connect 33 1 32 0;
#X connect 34 0 35 0;
#X connect 35 0 15 0;
#X connect 36 0 37 0;
#X connect 37 0 15 0;
#X connect 38 0 22 0;
#X connect 39 0 22 0;
#X connect 40 0 22 0;
#X connect 41 0 38 0;
#X connect 42 0 39 0;
#X connect 43 0 40 0;
#X connect 44 0 78 0;
#X connect 45 0 46 0;
#X connect 46 0 63 0;
#X connect 47 0 51 0;
#X connect 48 0 50 0;
#X connect 48 1 34 1;
#X connect 48 2 36 1;
#X connect 50 0 49 0;
#X connect 51 0 48 0;
#X connect 52 0 43 1;
#X connect 52 0 42 1;
#X connect 52 0 41 1;
#X connect 53 0 52 0;
#X connect 54 0 44 1;
#X connect 54 0 45 1;
#X connect 55 0 54 0;
#X connect 56 0 60 0;
#X connect 57 0 77 0;
#X connect 58 0 62 0;
#X connect 58 1 59 0;
#X connect 59 0 60 1;
#X connect 60 0 58 0;
#X connect 61 0 60 1;
#X connect 62 0 0 0;
#X connect 64 0 29 0;
#X connect 65 0 56 0;
#X connect 67 0 11 0;
#X connect 68 0 71 0;
#X connect 69 1 68 0;
#X connect 70 0 69 0;
#X connect 71 0 0 0;
#X connect 72 0 79 0;
#X connect 73 0 81 0;
#X connect 73 0 82 0;
#X connect 74 0 73 1;
#X connect 75 0 74 0;
#X connect 77 0 61 0;
#X connect 78 0 63 0;
#X connect 79 0 91 0;
#X connect 79 1 80 0;
#X connect 80 0 73 0;
#X connect 81 0 90 0;
#X connect 82 0 89 0;
#X connect 83 0 84 0;
#X connect 84 0 87 0;
#X connect 85 0 81 1;
#X connect 86 0 85 0;
#X connect 86 0 82 1;
#X connect 87 0 86 0;
#X connect 88 0 86 0;
#X connect 89 0 76 0;
#X connect 90 0 76 0;
#X connect 91 0 73 0;
#X connect 91 1 88 0;
#X connect 92 0 93 0;
#X connect 93 0 0 0;
#X connect 94 0 95 0;
#X connect 96 0 97 0;
#X connect 97 0 21 0;
#X connect 97 1 19 0;
#X connect 98 0 93 0;
#X connect 99 0 0 0;
#X connect 100 0 101 0;
#X connect 101 0 102 1;
#X connect 102 0 100 0;
#X connect 102 0 99 0;
#X connect 103 0 102 0;
#X restore 56 102 pd seq3-5option-control;
#X obj 23 165 seq3 1 0 ../../sequences 1 0 1, f 17;
#X obj 719 190 catch~ samp_voice_out;
#X obj 719 292 throw~ outL;
#X obj 735 270 throw~ outR;
#X obj 718 242 *~ 0.9;
#N canvas 4 62 958 670 sound-in 0;
#X obj 225 87 r~ inL;
#X obj 296 87 r~ inR;
#X obj 296 108 *~ 0.707;
#X obj 225 109 *~ 0.707;
#X obj 357 378 lop~ 5;
#X obj 226 428 *~;
#X obj 492 291 * 100;
#X obj 492 333 i;
#X obj 225 220 hip~ 5;
#X obj 225 464 s~ samp-sound-in;
#X obj 140 298 s~ samp-sound-in-control;
#X obj 383 540 s samp-trig-percent;
#X obj 383 490 loadbang;
#X obj 357 311 pow 2;
#X obj 357 231 r knob1;
#X obj 492 407 s screenLine1;
#X obj 492 379 shortcut-mute-list 1;
#X msg 492 355 1: Input Vol: \$1%;
#X msg 383 511 0.1;
#X obj 357 252 t a a;
#X obj 146 503 s~ internal-monitor;
#X connect 0 0 3 0;
#X connect 1 0 2 0;
#X connect 2 0 8 0;
#X connect 3 0 8 0;
#X connect 4 0 5 1;
#X connect 5 0 9 0;
#X connect 5 0 20 0;
#X connect 6 0 7 0;
#X connect 7 0 17 0;
#X connect 8 0 10 0;
#X connect 8 0 5 0;
#X connect 12 0 18 0;
#X connect 13 0 4 0;
#X connect 14 0 19 0;
#X connect 16 0 15 0;
#X connect 17 0 16 0;
#X connect 18 0 11 0;
#X connect 19 0 13 0;
#X connect 19 1 6 0;
#X restore 308 43 pd sound-in;
#N canvas 4 50 1145 618 knobs 0;
#X obj 100 42 r knob2;
#X obj 126 132 s global-pitch;
#X obj 100 63 * 48;
#X obj 100 84 - 24;
#X obj 100 105 i;
#X obj 72 311 s screenLine2;
#X obj 79 141 moses 0;
#X msg 124 213 2: Tune: +\$1;
#X obj 40 163 moses 0;
#X msg 127 170 2: Tune: \$1;
#X msg 40 190 2: Tune: \$1;
#X obj 72 267 shortcut-mute-list 1;
#X obj 292 49 r knob3;
#X obj 320 216 s ramp-time;
#X obj 292 110 pow 2;
#X obj 292 152 i;
#X obj 292 325 shortcut-mute-list 1;
#X obj 292 369 s screenLine3;
#X msg 292 290 3: Ramp Time: \$1ms;
#X obj 166 34 r seq3-1-k2;
#X obj 298 82 r seq3-1-k3;
#X obj 559 45 r knob4;
#X obj 291 174 + 5;
#X obj 292 132 * 995;
#X obj 559 294 s wob-rate;
#X obj 693 196 shortcut-mute-list 1;
#X obj 693 219 s screenLine4;
#X obj 559 148 t a a;
#X obj 559 169 *;
#X obj 637 128 i;
#X obj 637 107 * 100;
#X obj 559 66 t a a;
#X obj 613 39 r seq3-1-k4;
#X obj 559 190 * 10;
#X msg 693 170 4: Warble: \$1%;
#X connect 0 0 2 0;
#X connect 2 0 3 0;
#X connect 3 0 4 0;
#X connect 4 0 1 0;
#X connect 4 0 6 0;
#X connect 6 0 8 0;
#X connect 6 1 7 0;
#X connect 7 0 11 0;
#X connect 8 0 10 0;
#X connect 8 1 9 0;
#X connect 9 0 11 0;
#X connect 10 0 11 0;
#X connect 11 0 5 0;
#X connect 12 0 14 0;
#X connect 14 0 23 0;
#X connect 15 0 22 0;
#X connect 16 0 17 0;
#X connect 18 0 16 0;
#X connect 19 0 2 0;
#X connect 20 0 14 0;
#X connect 21 0 31 0;
#X connect 22 0 18 0;
#X connect 22 0 13 0;
#X connect 23 0 15 0;
#X connect 25 0 26 0;
#X connect 27 0 28 0;
#X connect 27 1 28 1;
#X connect 28 0 33 0;
#X connect 29 0 34 0;
#X connect 30 0 29 0;
#X connect 31 0 27 0;
#X connect 31 1 30 0;
#X connect 32 0 31 0;
#X connect 33 0 24 0;
#X connect 34 0 25 0;
#X restore 309 16 pd knobs;
#X obj 319 210 s led;
#X obj 319 183 r seq3-1-led;
#X obj 23 423 t a a, f 20;
#X obj 140 466 spigot;
#X obj 23 464 spigot;
#N canvas 603 382 758 398 poly-mode 0;
#X obj 39 9 inlet;
#X obj 35 176 pack 0 0 0;
#X obj 35 197 route 1 2 3 4 5 6 7 8, f 82;
#X obj 39 60 t a a;
#X obj 66 90 bag;
#X obj 110 4 inlet;
#X obj 66 111 pack 0 0;
#X msg 110 57 flush;
#X obj 110 25 t b;
#X obj 35 239 new-mello-voice 1;
#X obj 76 220 new-mello-voice 2;
#X obj 166 246 new-mello-voice 3;
#X obj 206 226 new-mello-voice 4;
#X obj 304 247 new-mello-voice 5;
#X obj 447 247 new-mello-voice 7;
#X obj 347 226 new-mello-voice 6;
#X obj 472 226 new-mello-voice 8;
#X obj 35 155 poly 8 1, f 10;
#X connect 0 0 3 0;
#X connect 1 0 2 0;
#X connect 2 0 9 0;
#X connect 2 1 10 0;
#X connect 2 2 11 0;
#X connect 2 3 12 0;
#X connect 2 4 13 0;
#X connect 2 5 15 0;
#X connect 2 6 14 0;
#X connect 2 7 16 0;
#X connect 3 0 17 0;
#X connect 3 1 4 0;
#X connect 4 0 6 0;
#X connect 5 0 8 0;
#X connect 6 0 17 0;
#X connect 7 0 4 0;
#X connect 8 0 7 0;
#X connect 17 0 1 0;
#X connect 17 1 1 1;
#X connect 17 2 1 2;
#X restore 23 504 pd poly-mode;
#X obj 173 425 ==;
#N canvas 683 340 452 289 switch 0;
#X obj 108 60 r cgSc-1-7;
#X obj 170 141 + 1;
#X obj 135 163 % 2;
#X obj 108 83 sel 0;
#X obj 135 112 t b;
#X obj 135 244 outlet;
#X obj 225 248 s cgSc-1-7label;
#X msg 145 225 Mode:Mono;
#X msg 279 198 Mode:Poly;
#X obj 146 194 sel 0 1;
#X obj 43 46 loadbang;
#X obj 135 142 f 1;
#X connect 0 0 3 0;
#X connect 1 0 11 1;
#X connect 2 0 5 0;
#X connect 2 0 9 0;
#X connect 3 1 4 0;
#X connect 4 0 11 0;
#X connect 7 0 6 0;
#X connect 8 0 6 0;
#X connect 9 0 7 0;
#X connect 9 1 8 0;
#X connect 10 0 11 0;
#X connect 11 0 1 0;
#X connect 11 0 2 0;
#X restore 134 351 pd switch;
#X obj 134 378 t b f f;
#X obj 92 456 t b b;
#N canvas 846 148 792 873 aux-footswitch 0;
#X obj 561 311 s glob-sync-lock;
#X obj 561 166 change -1;
#X obj 582 200 sel 0 1, f 30;
#X msg 582 221 Sync:Off;
#X msg 669 225 Sync:On;
#X obj 535 63 sel 0;
#X obj 562 89 t b;
#X obj 595 111 + 1;
#X obj 562 131 % 2;
#X obj 481 157 loadbang;
#X msg 481 178 1;
#X obj 523 525 change -1;
#X obj 509 554 sel 0 1, f 30;
#X obj 497 422 sel 0;
#X obj 524 448 t b;
#X obj 557 470 + 1;
#X obj 524 490 % 2;
#X obj 524 469 f 1;
#X obj 523 671 s backwards;
#X msg 507 575 Rvrse:Off;
#X msg 596 579 Rvrse:On;
#X msg 675 616 -1;
#X msg 488 619 1;
#X obj 615 486 loadbang;
#X msg 615 507 0;
#X obj 562 110 f 0;
#N canvas 4 50 1161 682 new 0;
#X obj 364 668 throw~ outL;
#X obj 381 643 throw~ outR;
#X obj 363 604 *~, f 34;
#X text 711 218 load and record sample;
#N canvas 4 50 583 463 aux 0;
#X obj 75 309 s samp-1-kill;
#X obj 75 208 r aux;
#X obj 75 259 sel 1;
#X obj 75 229 spigot 0;
#X obj 75 280 t b b;
#X msg 159 243 0;
#X text 289 86 aux press cancels rec;
#X obj 105 89 r samp-states;
#X obj 105 114 route 1;
#X obj 105 135 sel 0 1 2 3, f 22;
#X msg 137 169 1;
#X msg 105 169 0;
#X connect 1 0 3 0;
#X connect 2 0 4 0;
#X connect 3 0 2 0;
#X connect 4 0 0 0;
#X connect 4 1 5 0;
#X connect 5 0 3 1;
#X connect 7 0 8 0;
#X connect 8 0 9 0;
#X connect 9 0 11 0;
#X connect 9 1 10 0;
#X connect 9 2 10 0;
#X connect 10 0 3 1;
#X connect 11 0 3 1;
#X restore 705 391 pd aux press cancels rec;
#N canvas 106 50 1256 682 shortcut-6 0;
#X obj 261 161 r samp-states;
#X obj 261 186 route 1;
#X obj 352 117 s samp-1-arm;
#X obj 325 63 sel 0;
#X obj 352 89 t b;
#X msg 319 340 Rec:ARMED;
#X obj 319 415 s cgSc-1-6label;
#X obj 325 42 r cgSc-1-6;
#X msg 395 361 RECRDING..;
#X msg 261 359 Rec:OFF;
#X obj 442 286 s led;
#X msg 442 255 1;
#X obj 315 284 s led;
#X msg 315 253 6;
#X obj 210 280 s led;
#X msg 210 249 0;
#X obj 106 256 loadbang;
#X obj 564 320 r samp-live-time;
#X obj 564 341 route 1;
#X obj 875 175 r samp-states;
#X obj 875 200 route 1;
#X obj 875 291 sel 0 1 2 3, f 22;
#X msg 959 571 /oled/gFillArea 3 0 0 128 50 0;
#X msg 682 460 /oled/gFillArea 3 0 0 128 50 0;
#X msg 549 548 /oled/gFlip 3;
#X obj 535 428 t b f b b;
#X obj 943 462 t b b b;
#X obj 729 705 s oscOut;
#X obj 816 620 t a;
#X obj 1019 54 r cgSc-1-mute-print;
#X obj 1019 155 spigot 0;
#X obj 1019 176 sel 0;
#X obj 1105 85 r samp-states;
#X obj 1105 110 route 1;
#X obj 875 261 f;
#X msg 566 516 /oled/gPrintln 3 40 25 16 1 \$1 sec;
#X obj 1079 237 s cgSc-1-mute-print;
#X msg 1084 192 0;
#X obj 1105 131 t f f;
#X obj 1106 171 sel 0;
#X msg 605 488 /oled/gPrintln 3 15 10 16 1 RECORDING;
#X msg 920 506 /oled/gPrintln 3 13 10 16 1 REC:ARMED;
#X obj 895 654 r cgSc-1-mute-print;
#X obj 806 647 spigot 0;
#X obj 895 675 ==;
#X obj 261 207 sel 0 1 2, f 22;
#X obj 490 247 s new-recording!;
#X obj 412 232 t b b;
#X obj 409 330 s mute-notes;
#X msg 405 299 0;
#X msg 273 283 1;
#X obj 93 136 s mute-notes;
#X obj 96 79 loadbang;
#X msg 96 100 1;
#X obj 1019 197 del 10;
#X connect 0 0 1 0;
#X connect 1 0 45 0;
#X connect 3 1 4 0;
#X connect 4 0 2 0;
#X connect 5 0 6 0;
#X connect 7 0 3 0;
#X connect 8 0 6 0;
#X connect 9 0 6 0;
#X connect 11 0 10 0;
#X connect 13 0 12 0;
#X connect 15 0 14 0;
#X connect 16 0 9 0;
#X connect 17 0 18 0;
#X connect 18 0 25 0;
#X connect 19 0 20 0;
#X connect 20 0 34 0;
#X connect 21 1 26 0;
#X connect 22 0 28 0;
#X connect 23 0 28 0;
#X connect 24 0 28 0;
#X connect 25 0 24 0;
#X connect 25 1 35 0;
#X connect 25 2 40 0;
#X connect 25 3 23 0;
#X connect 26 0 24 0;
#X connect 26 1 41 0;
#X connect 26 2 22 0;
#X connect 28 0 43 0;
#X connect 29 0 30 0;
#X connect 30 0 31 0;
#X connect 31 0 54 0;
#X connect 32 0 33 0;
#X connect 33 0 38 0;
#X connect 34 0 21 0;
#X connect 35 0 28 0;
#X connect 37 0 36 0;
#X connect 38 0 39 0;
#X connect 38 1 30 1;
#X connect 39 0 37 0;
#X connect 40 0 28 0;
#X connect 41 0 28 0;
#X connect 42 0 44 0;
#X connect 43 0 27 0;
#X connect 44 0 43 1;
#X connect 45 0 9 0;
#X connect 45 0 15 0;
#X connect 45 0 50 0;
#X connect 45 1 5 0;
#X connect 45 1 13 0;
#X connect 45 1 49 0;
#X connect 45 2 8 0;
#X connect 45 2 47 0;
#X connect 45 2 49 0;
#X connect 47 0 11 0;
#X connect 47 1 46 0;
#X connect 49 0 48 0;
#X connect 50 0 48 0;
#X connect 52 0 53 0;
#X connect 53 0 51 0;
#X connect 54 0 34 0;
#X restore 705 360 pd shortcut-6 and the printing;
#X obj 170 214 sel 0;
#X obj 197 240 t b;
#X obj 233 283 + 1;
#X obj 197 280 f 1;
#X obj 233 304 == 1;
#X obj 197 376 sel 0 1, f 15;
#X obj 301 182 loadbang;
#X obj 197 331 t f f, f 28;
#X msg 197 407 Monitr:OFF;
#X msg 240 431 Monitr:ON;
#X msg 301 203 0;
#X obj 362 457 lop~ 4;
#X text 405 456 Monitor ON/OFF;
#X obj 704 252 r~ samp-sound-in;
#X obj 869 251 r~ samp-sound-in-control;
#X obj 565 565 r~ internal-monitor;
#X obj 197 488 s cgSc-1-10label;
#X obj 171 192 r cgSc-1-10;
#X obj 704 320 clone -s 1 load-rec-sample 1 samp 30000 sounds 1, f
28;
#X connect 2 0 1 0;
#X connect 2 0 0 0;
#X connect 6 1 7 0;
#X connect 7 0 9 0;
#X connect 8 0 10 0;
#X connect 9 0 8 0;
#X connect 9 0 13 0;
#X connect 10 0 9 1;
#X connect 11 0 14 0;
#X connect 11 1 15 0;
#X connect 12 0 16 0;
#X connect 13 0 11 0;
#X connect 13 1 17 0;
#X connect 14 0 22 0;
#X connect 15 0 22 0;
#X connect 16 0 9 0;
#X connect 17 0 2 0;
#X connect 19 0 24 0;
#X connect 20 0 24 1;
#X connect 21 0 2 1;
#X connect 23 0 6 0;
#X restore 86 108 pd new record-sample;
#X obj 535 43 r cgSc-1-8;
#X obj 611 272 s cgSc-1-8label;
#X obj 499 401 r cgSc-1-9;
#X obj 538 626 s cgSc-1-9label;
#X connect 1 0 0 0;
#X connect 1 0 2 0;
#X connect 2 0 3 0;
#X connect 2 1 4 0;
#X connect 3 0 28 0;
#X connect 4 0 28 0;
#X connect 5 1 6 0;
#X connect 6 0 25 0;
#X connect 7 0 25 1;
#X connect 8 0 1 0;
#X connect 9 0 10 0;
#X connect 10 0 2 0;
#X connect 10 0 0 0;
#X connect 11 0 12 0;
#X connect 12 0 19 0;
#X connect 12 0 22 0;
#X connect 12 1 20 0;
#X connect 12 1 21 0;
#X connect 13 1 14 0;
#X connect 14 0 17 0;
#X connect 15 0 17 1;
#X connect 16 0 11 0;
#X connect 17 0 15 0;
#X connect 17 0 16 0;
#X connect 19 0 30 0;
#X connect 20 0 30 0;
#X connect 21 0 18 0;
#X connect 22 0 18 0;
#X connect 23 0 24 0;
#X connect 24 0 12 0;
#X connect 25 0 7 0;
#X connect 25 0 8 0;
#X connect 27 0 5 0;
#X connect 29 0 13 0;
#X restore 307 71 pd aux-footswitch;
#N canvas 4 50 934 487 emulate 0;
#X msg 205 243 const 0;
#X text 408 133 this keeps track of the progress playback mode;
#X obj 198 162 r new-recording!;
#X obj 206 270 array define -k tape-lOOps 128;
#A 0 0 0 0 0 0 0 0 0 0 0 0 0 0 0 0 0 0 0 0 0 0 0 0 0 0 0 0 0 0 0 0
0 0 0 0 0 0 0 0 0 0 0 0 0 0 0 0 0 0 0 0 0 0 0 0 0 0 0 0 0 0.119386
0 0.306121 0.148637 0.0769245 0.0413782 0 0.149108 0 0.328854 0.154174
0.240757 0.0523497 0.317304 0.121054 0.949397 0 0 0 0.615667 0 0 0
0.726475 0 0 0 0 0 0 0 0 0 0 0 0 0 0 0 0 0 0 0 0 0 0 0 0 0 0 0 0 0
0 0 0 0 0 0 0 0 0 0 0 0 0 0 0;
#X connect 0 0 3 0;
#X connect 2 0 0 0;
#X restore 305 94 pd emulate 127 tape loops;
#N canvas 486 174 450 300 cg-pdlib-local 0;
#X obj 502 35 r cgSc-1-slots;
#X obj 60 98 declare -path cg-pdlib-local/externals;
#X obj 60 128 declare -path cg-pdlib-local/metronome;
#X obj 56 186 declare -path cg-pdlib-local/sequencer;
#X obj 60 160 declare -path cg-pdlib-local/sampling;
#X restore 9 14 pd cg-pdlib-local;
#N canvas 554 70 450 300 mono-mode 0;
#X obj 34 15 inlet note;
#X obj 330 12 inlet stop;
#X obj 34 57 order-notes;
#X obj 330 33 t b;
#X obj 34 118 new-mono-voice 9;
#X connect 0 0 2 0;
#X connect 1 0 3 0;
#X connect 2 0 4 0;
#X connect 2 1 4 1;
#X connect 3 0 4 1;
#X restore 140 503 pd mono-mode;
#X obj 23 316 spigot 1;
#X obj 68 212 r mute-notes;
#X obj 68 233 sel 0, f 18;
#X obj 68 254 t b b;
#X msg 95 276 0;
#X obj 23 338 t a a;
#X obj 50 362 bag;
#X obj 50 383 pack 0 0;
#X msg 88 329 flush;
#X msg 168 280 1;
#X obj 174 257 t b;
#X connect 1 0 6 0;
#X connect 2 0 8 2;
#X connect 3 0 6 1;
#X connect 4 0 8 3;
#X connect 6 0 8 0;
#X connect 7 0 8 1;
#X connect 8 0 29 0;
#X connect 9 0 12 0;
#X connect 12 0 10 0;
#X connect 12 0 11 0;
#X connect 16 0 15 0;
#X connect 17 0 19 0;
#X connect 17 1 18 0;
#X connect 18 0 28 0;
#X connect 19 0 20 0;
#X connect 21 0 18 1;
#X connect 22 0 23 0;
#X connect 23 0 24 0;
#X connect 23 1 19 1;
#X connect 23 2 21 0;
#X connect 24 0 20 1;
#X connect 24 1 28 1;
#X connect 29 0 34 0;
#X connect 30 0 31 0;
#X connect 31 0 32 0;
#X connect 31 1 39 0;
#X connect 32 0 37 0;
#X connect 32 1 33 0;
#X connect 33 0 29 1;
#X connect 34 0 17 0;
#X connect 34 1 35 0;
#X connect 35 0 36 0;
#X connect 36 0 17 0;
#X connect 37 0 35 0;
#X connect 38 0 29 1;
#X connect 39 0 38 0;
