#N canvas 208 80 1037 934 10;
#X obj 13 11 inlet;
#X obj 13 154 sel 0, f 77;
#X obj 12 866 throw~ samp_voice_out;
#X obj 472 639 vline~;
#X obj 13 837 hip~ 5;
#X obj 13 775 *~ 0.7;
#X obj 472 660 pow~ 2;
#X obj 13 255 t b b b;
#X obj 472 246 / 127;
#X obj 472 267 sqrt;
#X obj 32 305 del, f 11;
#X msg 52 280 stop;
#X obj 95 259 r ramp-time;
#X obj 13 63 unpack;
#X obj 13 528 pack 0 0;
#X obj 58 477 r ramp-time;
#X obj 259 14 inlet kill;
#X obj 259 35 t b;
#X msg 259 56 0;
#X obj 13 89 swap, f 6;
#X obj 13 703 waveplayer~;
#X msg 763 453 open recordings/\$1.wav;
#X obj 13 744 *~, f 11;
#N canvas 381 85 777 769 set-speed 1;
#X obj 32 18 inlet;
#X obj 32 443 outlet;
#X obj 32 200 / 261.626;
#X obj 32 222 / 2;
#X obj 32 177 mtof;
#X obj 50 85 r global-pitch;
#X obj 32 151 +, f 8;
#X obj 50 117 t b a;
#X text 58 218 convert to cents playback speed;
#X obj 509 10 inlet;
#X obj 32 39 t a a b, f 58;
#X obj 377 131 f 1;
#X text 546 11 switch off;
#X text 344 72 switch on;
#X text 221 77 scale to note;
#X text 93 115 calculate speed;
#N canvas 4 50 950 810 warble 0;
#X obj 379 531 f;
#X obj 414 534 + 1;
#X obj 414 555 moses 360;
#X msg 465 579 0;
#X obj 379 633 sin;
#X obj 380 482 metro 20;
#X obj 379 606 * 6.28;
#X obj 379 585 / 100;
#X obj 356 101 r wob-rate;
#X obj 539 217 random 1000;
#X obj 539 191 metro 50;
#X obj 497 505 * 0.005;
#X obj 539 259 * 0.001;
#X obj 356 172 t a a a, f 24;
#X obj 379 657 *, f 21;
#X obj 380 444 r \$0-warble-on;
#X obj 539 238 + 1;
#X obj 539 165 r \$0-warble-on;
#X obj 326 237 sel 0;
#X obj 353 259 t b;
#X obj 326 309 change -1;
#X obj 326 330 s \$0-warble-on;
#X obj 539 280 t b a;
#X obj 426 343 *, f 19;
#X obj 356 142 *, f 12;
#X obj 439 114 t b a;
#X obj 442 216 / 127;
#X obj 442 237 * 0.15;
#X obj 426 281 +, f 5;
#X obj 442 258 t b a;
#X obj 426 369 swap 1000;
#X obj 426 390 /;
#X obj 425 412 / 360;
#X text 468 393 convert hz to 360 ticks;
#X text 316 353 Warble switch;
#X obj 379 678 t b a;
#X obj 439 48 inlet;
#X obj 326 258 f 0;
#X obj 353 282 f 1;
#X obj 272 50 inlet;
#X text 318 48 scale midi;
#X obj 71 54 inlet;
#X text 109 58 speed;
#X obj 247 759 +, f 20;
#X obj 247 780 outlet;
#X text 302 777 warbled speed;
#X connect 0 0 1 0;
#X connect 0 0 7 0;
#X connect 1 0 2 0;
#X connect 2 0 0 1;
#X connect 2 1 3 0;
#X connect 3 0 0 1;
#X connect 4 0 14 0;
#X connect 5 0 0 0;
#X connect 6 0 4 0;
#X connect 7 0 6 0;
#X connect 8 0 24 0;
#X connect 9 0 16 0;
#X connect 10 0 9 0;
#X connect 11 0 14 1;
#X connect 12 0 22 0;
#X connect 13 0 18 0;
#X connect 13 1 28 0;
#X connect 13 2 11 0;
#X connect 14 0 35 0;
#X connect 15 0 5 0;
#X connect 16 0 12 0;
#X connect 17 0 10 0;
#X connect 18 0 37 0;
#X connect 18 1 19 0;
#X connect 19 0 38 0;
#X connect 20 0 21 0;
#X connect 22 0 23 0;
#X connect 22 1 23 1;
#X connect 23 0 30 0;
#X connect 24 0 13 0;
#X connect 25 0 24 0;
#X connect 25 1 24 1;
#X connect 26 0 27 0;
#X connect 27 0 29 0;
#X connect 28 0 23 0;
#X connect 29 0 28 0;
#X connect 29 1 28 1;
#X connect 30 0 31 0;
#X connect 30 1 31 1;
#X connect 31 0 32 0;
#X connect 32 0 5 1;
#X connect 35 0 43 0;
#X connect 35 1 43 1;
#X connect 36 0 25 0;
#X connect 37 0 20 0;
#X connect 38 0 20 0;
#X connect 39 0 26 0;
#X connect 41 0 43 0;
#X connect 43 0 44 0;
#X restore 32 272 pd warble;
#X f 58;
#X obj 363 618 / 261.626;
#X obj 363 640 / 2;
#X obj 363 595 mtof;
#X obj 381 503 r global-pitch;
#X obj 363 569 +, f 8;
#X obj 381 535 t b a;
#X text 389 636 convert to cents playback speed;
#X text 424 533 calculate speed;
#X floatatom 363 661 5 0 0 0 - - -;
#X msg 337 472 60;
#X msg 388 462 72;
#X msg 339 413 84;
#X connect 0 0 10 0;
#X connect 2 0 3 0;
#X connect 3 0 16 0;
#X connect 4 0 2 0;
#X connect 5 0 7 0;
#X connect 6 0 4 0;
#X connect 7 0 6 0;
#X connect 7 1 6 1;
#X connect 9 0 16 2;
#X connect 10 0 6 0;
#X connect 10 1 16 1;
#X connect 10 2 11 0;
#X connect 11 0 16 2;
#X connect 16 0 1 0;
#X connect 17 0 18 0;
#X connect 18 0 25 0;
#X connect 19 0 17 0;
#X connect 20 0 22 0;
#X connect 21 0 19 0;
#X connect 22 0 21 0;
#X connect 22 1 21 1;
#X connect 26 0 21 0;
#X connect 27 0 21 0;
#X connect 28 0 21 0;
#X restore 565 429 pd set-speed;
#X obj 565 264 f;
#X obj 13 477 f 0;
#X obj 32 326 f 0;
#X obj 101 607 t b a;
#X obj 101 579 r backwards;
#X obj 13 660 * 1, f 7;
#X obj 13 560 line 1 5;
#X obj 472 179 t a b b b, f 49;
#X obj 472 315 v \$0-on?;
#X obj 472 341 sel 0 1, f 17;
#X obj 472 369 f;
#X obj 472 288 t b f f, f 11;
#X obj 521 367 f;
#X obj 472 390 t b f;
#X obj 521 388 t b f;
#X obj 472 440 f 1;
#X obj 472 461 v \$0-on?;
#X obj 32 425 v \$0-on?;
#X obj 32 347 t f f f, f 48;
#X obj 472 504 pack 0 8;
#X msg 544 503 0 8 \, \$1 8 8;
#X obj 95 280 - 8;
#X obj 763 380 v place;
#X obj 219 606 pow 2;
#X obj 219 627 sqrt;
#X obj 219 648 * 10;
#X connect 0 0 13 0;
#X connect 1 0 7 0;
#X connect 1 1 31 0;
#X connect 3 0 6 0;
#X connect 4 0 2 0;
#X connect 5 0 4 0;
#X connect 6 0 22 1;
#X connect 7 0 25 0;
#X connect 7 1 10 0;
#X connect 7 2 11 0;
#X connect 8 0 9 0;
#X connect 9 0 35 0;
#X connect 10 0 26 0;
#X connect 11 0 10 0;
#X connect 12 0 45 0;
#X connect 13 0 19 0;
#X connect 13 1 19 1;
#X connect 14 0 30 0;
#X connect 15 0 14 1;
#X connect 16 0 17 0;
#X connect 17 0 18 0;
#X connect 18 0 1 0;
#X connect 19 0 1 0;
#X connect 19 1 24 1;
#X connect 20 0 22 0;
#X connect 21 0 20 0;
#X connect 22 0 5 0;
#X connect 23 0 14 0;
#X connect 24 0 23 0;
#X connect 25 0 14 0;
#X connect 26 0 42 0;
#X connect 27 0 29 0;
#X connect 27 1 29 1;
#X connect 28 0 27 0;
#X connect 29 0 20 0;
#X connect 30 0 29 0;
#X connect 31 0 8 0;
#X connect 31 1 11 0;
#X connect 31 2 24 0;
#X connect 31 3 46 0;
#X connect 32 0 33 0;
#X connect 33 0 34 0;
#X connect 33 1 36 0;
#X connect 34 0 37 0;
#X connect 35 0 32 0;
#X connect 35 1 34 1;
#X connect 35 2 36 1;
#X connect 36 0 38 0;
#X connect 37 0 39 0;
#X connect 37 1 43 0;
#X connect 38 0 39 0;
#X connect 38 1 44 0;
#X connect 39 0 40 0;
#X connect 42 0 41 0;
#X connect 42 1 43 0;
#X connect 42 2 23 1;
#X connect 43 0 3 0;
#X connect 44 0 3 0;
#X connect 45 0 10 1;
#X connect 46 0 21 0;
#X connect 47 0 48 0;
#X connect 48 0 49 0;
