#N canvas 208 71 653 892 10;
#X obj 13 11 inlet;
#X obj 13 154 sel 0, f 77;
#X obj 122 836 throw~ samp_voice_out;
#X obj 123 693 *~, f 60;
#X obj 479 639 vline~;
#X obj 177 504 r \$0-duration-s;
#X obj 121 544 *~, f 10;
#X obj 123 767 hip~ 5;
#X obj 121 619 tabread4~;
#X obj 168 581 r \$0-2-tabread;
#X obj 142 474 s~ \$0-phazzee;
#X obj 319 516 r~ \$0-phazzee;
#X obj 318 541 -~ 0.5;
#X obj 318 562 *~ 0.5;
#X obj 318 634 clip~ 0 1;
#X obj 318 584 cos~;
#X obj 123 745 *~ 0.7;
#X obj 479 660 pow~ 2;
#X obj 122 662 *~, f 33;
#N canvas 757 138 944 678 load-n-stuff 0;
#X obj 331 251 t b a, f 15;
#X obj 76 235 / 261.626;
#X obj 76 257 / 2;
#X obj 38 363 /, f 9;
#X obj 76 212 mtof;
#X obj 38 341 f;
#X obj 76 276 t b a;
#X obj 38 299 r \$0-duration;
#X obj 38 416 /;
#X msg 38 394 1000 \$1;
#X obj 94 130 r global-pitch;
#X obj 76 186 +, f 8;
#X obj 94 152 t b a;
#X obj 331 422 s \$0-duration;
#X obj 358 346 s \$0-duration-s;
#X obj 619 301 snapshot~;
#X obj 468 399 s \$0-2-tabread;
#X obj 619 278 r~ \$0-phazzee;
#X obj 278 13 inlet;
#X obj 88 23 inlet;
#X obj 38 477 outlet;
#X msg 468 369 set samp-\$1;
#X obj 76 100 t f f, f 43;
#X obj 631 403 tabwrite tape-lOOps;
#X msg 331 187 1;
#X msg 468 196 1;
#X obj 742 214 tabread tape-lOOps;
#X obj 742 275 outlet;
#X obj 331 134 t b b f f f b, f 81;
#X msg 814 173 0;
#X obj 742 241 spigot 0;
#X obj 814 194 spigot 1;
#X obj 786 64 r glob-sync-lock;
#X obj 774 180 ==;
#X obj 331 397 /;
#X obj 430 488 samplerate~;
#X obj 430 448 loadbang;
#X obj 430 509 * 0.001;
#X msg 418 274 symbol samp-\$1-lengthSamp;
#X obj 331 297 v, f 15;
#X obj 331 318 t f f;
#X connect 0 0 39 0;
#X connect 0 1 38 0;
#X connect 1 0 2 0;
#X connect 2 0 6 0;
#X connect 3 0 9 0;
#X connect 4 0 1 0;
#X connect 5 0 3 0;
#X connect 6 0 5 0;
#X connect 6 1 3 1;
#X connect 7 0 5 0;
#X connect 8 0 20 0;
#X connect 9 0 8 0;
#X connect 10 0 12 0;
#X connect 11 0 4 0;
#X connect 12 0 11 0;
#X connect 12 1 11 1;
#X connect 15 0 23 0;
#X connect 17 0 15 0;
#X connect 18 0 22 0;
#X connect 19 0 15 0;
#X connect 21 0 16 0;
#X connect 22 0 11 0;
#X connect 22 1 28 0;
#X connect 24 0 0 0;
#X connect 25 0 21 0;
#X connect 26 0 30 0;
#X connect 28 0 24 0;
#X connect 28 1 25 0;
#X connect 28 3 23 1;
#X connect 28 4 26 0;
#X connect 28 5 29 0;
#X connect 29 0 31 0;
#X connect 30 0 27 0;
#X connect 31 0 27 0;
#X connect 32 0 31 1;
#X connect 32 0 33 0;
#X connect 33 0 30 1;
#X connect 34 0 13 0;
#X connect 35 0 37 0;
#X connect 36 0 35 0;
#X connect 37 0 34 1;
#X connect 38 0 39 1;
#X connect 39 0 40 0;
#X connect 40 0 34 0;
#X connect 40 1 14 0;
#X restore 160 228 pd load-n-stuff;
#X obj 120 442 phasor~, f 26;
#X obj 13 175 t b b b;
#X obj 472 269 / 127;
#X obj 472 290 sqrt;
#X obj 32 225 del, f 11;
#X msg 52 200 stop;
#X msg 13 268 0;
#X obj 120 352 vline~;
#X obj 120 373 pow~ 2;
#X obj 120 312 pack 0 0;
#X obj 165 285 r ramp-time;
#X obj 32 246 t b b;
#X obj 96 182 r ramp-time;
#X obj 13 53 unpack;
#X obj 318 613 *~ 50;
#X obj 120 273 sqrt;
#X obj 9 326 pack 0 0;
#X obj 39 285 r ramp-time;
#X obj 120 394 +~, f 12;
#X obj 39 306 + 20;
#X obj 122 790 lop~ 16000;
#X obj 122 811 lop~ 16000;
#X obj 124 57 lfo;
#X obj 177 524 - 2;
#X obj 122 575 +~ 1;
#X msg 479 574 \$1 10;
#X msg 541 566 0 10;
#X obj 96 203 - 10;
#X obj 520 22 inlet kill;
#X obj 520 43 t b;
#X msg 520 64 0;
#X obj 231 362 r backwards;
#X obj 231 383 lop~ 10;
#X obj 120 415 *~, f 19;
#X obj 13 79 swap, f 6;
#X obj 415 242 f;
#X obj 13 31 t a a, f 19;
#X obj 472 192 t a b b;
#X msg 342 309 stop;
#X obj 323 338 del 8;
#X obj 322 286 t b b b a;
#X obj 323 366 f;
#X obj 479 595 t a b;
#X obj 540 594 t a b;
#N canvas 467 107 450 300 are-you-on? 0;
#X obj 72 21 inlet;
#X msg 172 159 stop;
#X obj 151 190 del 10;
#X obj 151 128 t b b a;
#X obj 164 220 f;
#X obj 164 241 v \$0-on?;
#X connect 0 0 3 0;
#X connect 1 0 2 0;
#X connect 2 0 4 0;
#X connect 3 0 2 0;
#X connect 3 1 1 0;
#X connect 3 2 4 1;
#X connect 4 0 5 0;
#X restore 541 664 pd are-you-on?;
#X msg 586 634 0;
#X msg 540 635 1, f 5;
#N canvas 4 50 450 300 if-on-duck 0;
#X obj 65 64 v \$0-on?;
#X obj 65 21 inlet;
#X obj 103 129 f;
#X obj 65 42 t b a a, f 16;
#X obj 211 133 f;
#X obj 65 85 sel 0 1, f 21;
#X obj 103 150 outlet no-duck;
#X obj 211 154 outlet duck;
#X connect 0 0 5 0;
#X connect 1 0 3 0;
#X connect 2 0 6 0;
#X connect 3 0 0 0;
#X connect 3 1 2 1;
#X connect 3 2 4 1;
#X connect 4 0 7 0;
#X connect 5 0 2 0;
#X connect 5 1 4 0;
#X restore 247 254 pd if-on-duck;
#X obj 123 714 *~, f 42;
#X obj 402 641 vline~;
#X obj 402 662 pow~ 2;
#X msg 402 613 0 8 \, 1 8 8;
#X obj 416 540 loadbang;
#X msg 416 561 1 0;
#X connect 0 0 56 0;
#X connect 1 0 21 0;
#X connect 1 1 57 0;
#X connect 3 0 68 0;
#X connect 4 0 17 0;
#X connect 5 0 43 0;
#X connect 6 0 44 0;
#X connect 7 0 40 0;
#X connect 8 0 18 0;
#X connect 9 0 8 0;
#X connect 11 0 12 0;
#X connect 12 0 13 0;
#X connect 13 0 15 0;
#X connect 14 0 18 1;
#X connect 15 0 34 0;
#X connect 16 0 7 0;
#X connect 17 0 3 1;
#X connect 18 0 3 0;
#X connect 19 0 35 0;
#X connect 19 1 67 0;
#X connect 20 0 6 0;
#X connect 20 0 10 0;
#X connect 21 0 26 0;
#X connect 21 1 24 0;
#X connect 21 2 25 0;
#X connect 22 0 23 0;
#X connect 23 0 45 0;
#X connect 24 0 31 0;
#X connect 25 0 24 0;
#X connect 26 0 36 0;
#X connect 27 0 28 0;
#X connect 28 0 38 0;
#X connect 29 0 27 0;
#X connect 30 0 29 1;
#X connect 31 0 19 0;
#X connect 31 1 46 0;
#X connect 32 0 47 0;
#X connect 33 0 54 0;
#X connect 33 1 54 1;
#X connect 34 0 14 0;
#X connect 35 0 29 0;
#X connect 36 0 27 0;
#X connect 37 0 39 0;
#X connect 38 0 53 0;
#X connect 39 0 36 1;
#X connect 40 0 41 0;
#X connect 41 0 2 0;
#X connect 42 0 38 1;
#X connect 43 0 6 1;
#X connect 44 0 8 0;
#X connect 45 0 62 0;
#X connect 46 0 63 0;
#X connect 47 0 24 1;
#X connect 48 0 49 0;
#X connect 49 0 50 0;
#X connect 50 0 1 0;
#X connect 51 0 52 0;
#X connect 52 0 53 1;
#X connect 53 0 20 0;
#X connect 54 0 1 0;
#X connect 54 1 55 1;
#X connect 55 0 19 1;
#X connect 56 0 33 0;
#X connect 56 1 42 0;
#X connect 57 0 22 0;
#X connect 57 1 55 0;
#X connect 57 2 25 0;
#X connect 58 0 59 0;
#X connect 59 0 61 0;
#X connect 60 0 59 0;
#X connect 60 1 58 0;
#X connect 60 2 71 0;
#X connect 60 3 61 1;
#X connect 61 0 20 1;
#X connect 62 0 4 0;
#X connect 62 1 66 0;
#X connect 63 0 4 0;
#X connect 63 1 65 0;
#X connect 65 0 64 0;
#X connect 66 0 64 0;
#X connect 67 0 20 1;
#X connect 67 1 60 0;
#X connect 68 0 16 0;
#X connect 69 0 70 0;
#X connect 70 0 68 1;
#X connect 71 0 69 0;
#X connect 72 0 73 0;
#X connect 73 0 69 0;
