#N canvas 709 264 710 716 10;
#X obj 126 329 osc~, f 10;
#X obj 127 77 r wob-rate;
#X obj 235 10 inlet;
#X obj 409 97 / 127;
#X obj 235 92 / 127;
#X obj 235 163 * 1;
#X obj 409 168 * 1;
#X obj 126 593 outlet~;
#X obj 183 280 sel 0;
#X obj 127 159 t a a;
#X msg 183 301 0;
#X obj 243 53 stripnote;
#X obj 127 216 lop~ 100;
#X obj 267 341 lop~ 100;
#X obj 209 252 lop~ 100;
#X msg 300 491 1;
#X obj 300 472 t b;
#X obj 126 553 *~;
#X obj 284 534 change -1;
#X obj 254 492 t b;
#X msg 254 511 0;
#X obj 284 555 lop~ 100;
#X obj 126 350 *~ 0.5;
#X obj 126 371 +~ 0.5;
#X floatatom 82 200 5 0 0 0 - - -;
#X obj 66 100 r knob4;
#X obj 37 288 tgl 15 0 empty empty empty 17 7 0 10 -262144 -1 -1 1
1;
#X obj 37 308 metro 50;
#X obj 37 329 snapshot~;
#X floatatom 37 350 5 0 0 0 - - -;
#X obj 127 237 *~;
#X obj 424 138 r wob-depth-rel-vel;
#X obj 250 128 r wob-depth-rel-note;
#X obj 125 402 *~ 0.01, f 24;
#X connect 0 0 22 0;
#X connect 2 0 11 0;
#X connect 3 0 6 0;
#X connect 4 0 5 0;
#X connect 5 0 14 0;
#X connect 6 0 13 0;
#X connect 8 0 10 0;
#X connect 8 0 19 0;
#X connect 8 1 16 0;
#X connect 9 0 8 0;
#X connect 9 1 12 0;
#X connect 9 1 24 0;
#X connect 10 0 0 1;
#X connect 11 0 4 0;
#X connect 11 1 3 0;
#X connect 12 0 30 0;
#X connect 14 0 30 1;
#X connect 15 0 18 0;
#X connect 16 0 15 0;
#X connect 17 0 7 0;
#X connect 18 0 21 0;
#X connect 19 0 20 0;
#X connect 20 0 18 0;
#X connect 21 0 17 1;
#X connect 22 0 23 0;
#X connect 23 0 33 0;
#X connect 25 0 9 0;
#X connect 26 0 27 0;
#X connect 27 0 28 0;
#X connect 28 0 29 0;
#X connect 30 0 0 0;
#X connect 30 0 28 0;
#X connect 33 0 17 0;
