#N canvas 129 107 879 448 10;
#X declare -path patchmenu;
#X declare -path FX-13;
#X declare -path MultiSeq;
#X declare -path MasterMulti;
#X declare -path MultiSynth2;
#X declare -path CG-Pd-Library-Local/sequencer;
#X declare -path CG-Pd-Library-Local/externals;
#X declare -path CG-Pd-Library-Local/metronome;
#X obj 75 19 declare -path patchmenu;
#X obj 75 180 patchmenu;
#X obj 107 143 s enableSubMenu;
#X obj 75 41 loadbang;
#X msg 75 143 0;
#X obj 75 120 t b b;
#N canvas 4 135 1464 605 mapping 0;
#X obj 826 287 throw~ outL;
#X obj 935 288 throw~ outR;
#X text 823 52 Audio Routing;
#X text 580 46 MIDI (keys) Routing;
#X text 254 13 control routing;
#X obj 582 71 r notes;
#X obj 826 133 s~ fx13-1-in;
#X obj 825 177 r~ fx13-1-outL;
#X obj 934 177 r~ fx13-1-outR;
#X text 1064 28 aux routing;
#X obj 575 268 map-keys 0 lockseq2-1;
#X obj 575 288 map-keys 1 lockseq2-1;
#X obj 575 308 map-keys 3 lockseq2-1;
#X obj 575 328 map-keys 4 lockseq2-1;
#X obj 826 81 r~ ms-1-out;
#X obj 582 179 s ms-1-notes-in;
#X obj 582 96 s mseq-1-notes-in;
#X obj 582 154 r mseq-1-notes-out;
#X obj 1052 74 r aux;
#X obj 1052 106 s mseq-1-aux-in;
#X obj 826 108 *~ 1;
#X obj 825 240 *~ 1;
#X obj 934 237 *~ 1;
#X obj 303 226 map-knob 4 1 mm-bpmDial;
#X obj 303 249 map-knob 4 2 mm-transpose;
#X obj 84 69 map-knob 1 1 mseq-1-knob1;
#X obj 84 92 map-knob 1 2 mseq-1-knob2;
#X obj 84 117 map-knob 1 3 mseq-1-knob3;
#X obj 84 140 map-knob 1 4 mseq-1-knob4;
#X obj 288 81 map-knob 2 1 ms-1-knob1;
#X obj 288 106 map-knob 2 2 ms-1-knob2;
#X obj 289 131 map-knob 2 3 ms-1-knob3;
#X obj 288 157 map-knob 2 4 ms-1-knob4;
#X obj 88 225 map-knob 3 1 fx13-1-knob1;
#X obj 88 250 map-knob 3 2 fx13-1-knob2;
#X obj 88 275 map-knob 3 3 fx13-1-knob3;
#X obj 90 301 map-knob 3 4 fx13-1-knob4;
#X text 86 37 Page 1 - SEQUENCIOS;
#X text 289 51 Page 2 - SYNTHAMPLERS;
#X text 89 195 Page 3 - MULTIFX;
#X text 305 194 Page 4 - TEMPO/GLOBAL;
#X obj 303 274 map-knob 4 3 mm-x1;
#X obj 303 297 map-knob 4 4 mm-x2;
#X obj 1116 175 r mseq-1-knob5-label;
#X obj 1116 326 s p1s5;
#X obj 1134 304 s p2s5;
#X obj 1153 283 s p3s5;
#X obj 1176 260 s p4s5;
#X obj 1116 229 list;
#X obj 1052 132 r page-ready;
#X obj 1052 154 sel 0;
#X obj 1084 175 b;
#X obj 1116 197 t b a;
#X obj 1097 74 r fs;
#X text 1062 50 footswitch and aux same;
#X connect 5 0 16 0;
#X connect 7 0 21 0;
#X connect 8 0 22 0;
#X connect 14 0 20 0;
#X connect 17 0 15 0;
#X connect 18 0 19 0;
#X connect 20 0 6 0;
#X connect 21 0 0 0;
#X connect 22 0 1 0;
#X connect 43 0 52 0;
#X connect 48 0 47 0;
#X connect 48 0 46 0;
#X connect 48 0 45 0;
#X connect 48 0 44 0;
#X connect 49 0 50 0;
#X connect 50 1 51 0;
#X connect 51 0 48 0;
#X connect 52 0 48 0;
#X connect 52 1 48 1;
#X connect 53 0 19 0;
#X restore 349 247 pd mapping;
#X text 381 22 delcare and load modules;
#X text 354 218 routing;
#X obj 312 112 declare -path FX-13;
#X obj 520 111 FX-13 1;
#X obj 312 55 declare -path MultiSeq;
#X obj 517 51 MultiSeq 1;
#X obj 521 135 MasterMulti 1;
#X obj 311 135 declare -path MasterMulti;
#X msg 75 212 \; screenLine1 1) SEQUENCIOS \; screenLine2 2) SYNTHAMPLERS
\; screenLine3 3) MULTIFX \; screenLine4 4) TEMPO/TRANSPOSE \; screenLine5
<-- HOME \;;
#X obj 75 63 b;
#X obj 75 95 versioncheck 3;
#X obj 313 83 declare -path MultiSynth2;
#X obj 605 75 MultiSynthAux 1;
#X obj 517 75 MultiSynth2 1;
#N canvas 13 50 450 300 CG-PdLibrary-Local 0;
#X obj 502 35 r cgSc-1-slots;
#X obj 60 98 declare -path CG-Pd-Library-Local/sequencer;
#X obj 58 130 declare -path CG-Pd-Library-Local/externals;
#X obj 59 165 declare -path CG-Pd-Library-Local/metronome;
#X restore 633 10 pd CG-PdLibrary-Local;
#X obj 484 339 spigot 0;
#X obj 484 266 r cgSc-1-mute-print;
#X obj 484 287 sel 0;
#X obj 484 308 del 10;
#X obj 661 342 sel seq3;
#X msg 661 363 1;
#X obj 708 366 t b;
#X msg 708 387 0;
#X obj 484 360 spigot 0, f 14;
#X msg 642 235 1;
#X obj 687 244 t b;
#X msg 687 265 0;
#X obj 642 193 r page-ready;
#X obj 642 214 sel 0, f 8;
#X obj 661 321 r mseq-1-Fxs;
#X connect 1 0 15 0;
#X connect 3 0 16 0;
#X connect 4 0 1 0;
#X connect 5 0 4 0;
#X connect 5 1 2 0;
#X connect 16 0 17 0;
#X connect 17 0 5 0;
#X connect 22 0 30 0;
#X connect 23 0 24 0;
#X connect 24 0 25 0;
#X connect 25 0 22 0;
#X connect 26 0 27 0;
#X connect 26 1 28 0;
#X connect 27 0 22 1;
#X connect 28 0 29 0;
#X connect 29 0 22 1;
#X connect 30 0 15 0;
#X connect 31 0 30 1;
#X connect 32 0 33 0;
#X connect 33 0 30 1;
#X connect 34 0 35 0;
#X connect 35 0 31 0;
#X connect 35 1 32 0;
#X connect 36 0 26 0;
