#N canvas 605 493 450 300 10;
#X obj 148 34 r p\$1k\$2;
#X obj 148 136 s \$3;
#X obj 148 166 r \$3-label;
#X obj 148 209 list prepend \$2:;
#X obj 148 241 s p\$1s\$2;
#X obj 232 35 r seq3-1-p\$1k\$2;
#X obj 232 61 spigot;
#X obj 358 44 loadbang;
#X obj 358 65 f \$1;
#X msg 359 126 0;
#X obj 404 139 t b;
#X msg 404 160 1;
#X obj 361 86 sel 1 4;
#X connect 0 0 1 0;
#X connect 2 0 3 0;
#X connect 3 0 4 0;
#X connect 5 0 6 0;
#X connect 6 0 1 0;
#X connect 7 0 8 0;
#X connect 8 0 12 0;
#X connect 9 0 6 1;
#X connect 10 0 11 0;
#X connect 11 0 6 1;
#X connect 12 0 9 0;
#X connect 12 1 9 0;
#X connect 12 2 10 0;
