#N canvas 1012 61 647 833 10;
#X obj 46 358 tanh~;
#X obj 47 325 *~, f 7;
#X obj 92 184 lop~ 8;
#X obj 93 218 *~, f 5;
#X obj 92 292 +~ 1;
#X obj 92 270 *~ 200;
#X msg 162 216 Distort Amt. \$1 %;
#X obj 162 188 int;
#X text 47 17 Simple Distort Module using tanh~;
#X obj 384 205 int;
#X msg 384 227 Dry / Wet \$1 %;
#X obj 47 94 r~ dtanh-\$1-in;
#X obj 162 144 r dtanh-\$1-level;
#X obj 324 146 r dtanh-\$1-dw;
#X obj 384 249 s dtanh-\$1-dw-label;
#X obj 162 238 s dtanh-\$1-level-label;
#X obj 129 658 hip~ 5;
#X obj 131 756 *~;
#N canvas 14 50 526 600 switcher 0;
#X obj 113 261 t b b;
#X obj 113 295 delay 5;
#X obj 263 387 line~;
#X msg 176 296 0 4;
#X obj 133 476 *~;
#X msg 113 327 0;
#X obj 113 220 bang;
#X msg 406 229 1;
#X msg 359 193 1 4;
#X obj 352 143 t b b b;
#X obj 139 506 outlet~;
#X obj 371 507 outlet;
#X obj 112 48 inlet;
#X obj 353 50 inlet;
#X connect 0 0 1 0;
#X connect 0 1 3 0;
#X connect 1 0 5 0;
#X connect 2 0 4 0;
#X connect 2 0 4 1;
#X connect 3 0 2 0;
#X connect 4 0 10 0;
#X connect 5 0 11 0;
#X connect 6 0 0 0;
#X connect 7 0 11 0;
#X connect 8 0 2 0;
#X connect 9 1 8 0;
#X connect 9 2 7 0;
#X connect 12 0 6 0;
#X connect 13 0 9 0;
#X restore 263 707 pd switcher;
#X obj 195 755 *~;
#X obj 263 678 sel 0 1;
#X obj 263 655 tgl 15 0 empty empty empty 17 7 0 10 -262144 -1 -1 0
1;
#X obj 337 731 switch~ 64 1 1;
#X obj 263 626 r dtanh-\$1-switch;
#X obj 302 600 r \$1-kill-switch;
#X obj 46 380 *~ 0.2;
#X obj 128 787 s~ dtanh-\$1-outL;
#X obj 279 787 s~ dtanh-\$1-outR;
#X obj 163 166 * 100;
#X obj 384 183 * 100;
#X obj 129 537 c_xfade, f 28;
#X obj 324 168 lop~ 10;
#X connect 0 0 25 0;
#X connect 1 0 0 0;
#X connect 2 0 3 0;
#X connect 2 0 3 1;
#X connect 3 0 5 0;
#X connect 4 0 1 1;
#X connect 5 0 4 0;
#X connect 6 0 15 0;
#X connect 7 0 6 0;
#X connect 9 0 10 0;
#X connect 10 0 14 0;
#X connect 11 0 1 0;
#X connect 11 0 30 0;
#X connect 12 0 2 0;
#X connect 12 0 28 0;
#X connect 13 0 29 0;
#X connect 13 0 31 0;
#X connect 16 0 19 0;
#X connect 16 0 17 0;
#X connect 17 0 26 0;
#X connect 18 0 17 1;
#X connect 18 0 19 1;
#X connect 18 1 22 0;
#X connect 19 0 27 0;
#X connect 20 0 18 0;
#X connect 20 1 18 1;
#X connect 21 0 20 0;
#X connect 23 0 21 0;
#X connect 24 0 21 0;
#X connect 25 0 30 1;
#X connect 28 0 7 0;
#X connect 29 0 9 0;
#X connect 30 0 16 0;
#X connect 31 0 30 2;
