#N canvas 216 125 723 716 10;
#X obj 20 449 hip~ 5;
#X obj 21 637 *~;
#N canvas 14 50 526 600 switcher 0;
#X obj 113 261 t b b;
#X obj 113 295 delay 5;
#X obj 263 387 line~;
#X msg 176 296 0 4;
#X obj 133 476 *~;
#X msg 113 327 0;
#X obj 113 220 bang;
#X msg 406 229 1;
#X msg 359 193 1 4;
#X obj 352 143 t b b b;
#X obj 139 506 outlet~;
#X obj 371 507 outlet;
#X obj 112 48 inlet;
#X obj 353 50 inlet;
#X connect 0 0 1 0;
#X connect 0 1 3 0;
#X connect 1 0 5 0;
#X connect 2 0 4 0;
#X connect 2 0 4 1;
#X connect 3 0 2 0;
#X connect 4 0 10 0;
#X connect 5 0 11 0;
#X connect 6 0 0 0;
#X connect 7 0 11 0;
#X connect 8 0 2 0;
#X connect 9 1 8 0;
#X connect 9 2 7 0;
#X connect 12 0 6 0;
#X connect 13 0 9 0;
#X restore 168 578 pd switcher;
#X obj 149 636 *~;
#X obj 168 549 sel 0 1;
#X obj 168 524 tgl 15 0 empty empty empty 17 7 0 10 -262144 -1 -1 0
1;
#X obj 242 602 switch~ 64 1 1;
#X obj 290 496 r \$1-kill-switch;
#X obj 20 102 r~ pass-\$1-in;
#X obj 168 496 r pass-\$1-switch;
#X obj 20 670 s~ pass-\$1-outL;
#X obj 150 669 s~ pass-\$1-outR;
#X connect 0 0 1 0;
#X connect 0 0 3 0;
#X connect 1 0 10 0;
#X connect 2 0 1 1;
#X connect 2 0 3 1;
#X connect 2 1 6 0;
#X connect 3 0 11 0;
#X connect 4 0 2 0;
#X connect 4 1 2 1;
#X connect 5 0 4 0;
#X connect 7 0 5 0;
#X connect 8 0 0 0;
#X connect 9 0 5 0;
