#N canvas 680 205 1037 839 10;
#X obj 407 677 s oscOut;
#X msg 207 613 /oled/gFlip 3;
#X obj 498 539 list;
#X msg 498 513 1;
#X obj 498 561 route 1;
#X obj 33 27 inlet trigger;
#X obj 608 468 loadbang;
#X msg 608 490 0 0 0;
#X obj 417 173 loadbang;
#X obj 417 199 f \$2;
#X obj 361 30 r cgSc-\$1-\$2label;
#X obj 33 97 s cgSc-\$1-\$2;
#X obj 417 283 * 11;
#X obj 417 227 t f f, f 8;
#X obj 470 307 i;
#X obj 470 285 / 5;
#X msg 510 356 66;
#X msg 470 352 2;
#X obj 470 250 - 1;
#X obj 416 353 - 0;
#X msg 427 319 0;
#X msg 608 386 55;
#X obj 470 330 sel 0 1, f 12;
#X obj 361 481 t b a a a b, f 20;
#X obj 426 62 r cgSc-1-mute-print;
#X obj 361 142 spigot 0;
#X obj 426 83 sel 0 1, f 32;
#X msg 546 139 1;
#X msg 426 104 0;
#X obj 361 81 symbol;
#X obj 95 134 r cgSc-\$1-hihghlight;
#X obj 95 215 sel \$2, f 24;
#X obj 236 245 t b;
#X obj 236 268 v \$0-vv;
#X obj 95 251 t b;
#X obj 95 274 v \$0-vv;
#X obj 95 295 sel 0;
#X obj 86 492 list, f 10;
#X msg 86 462 69;
#X obj 86 513 route 69;
#X obj 470 382 f;
#X obj 361 432 pack s 0 0;
#X obj 95 316 t b b;
#X obj 122 376 v \$0-vv;
#X msg 122 340 1;
#X obj 236 314 t b b;
#X obj 263 374 v \$0-vv;
#X msg 263 338 0;
#X obj 236 289 sel 1;
#X msg 498 607 /oled/gPrintln 3 \$3 \$2 8 0 \$1;
#X msg 407 639 /oled/gPrintln 3 \$3 \$2 8 1 \$1;
#X obj 470 403 - 1;
#X obj 243 76 v \$0-vv;
#X obj 243 97 sel 1;
#X obj 428 393 - 2;
#X obj 549 440 sel 1 65;
#X obj 470 424 t f f;
#X obj 455 452 pack 0 0 0;
#X msg 571 463 62;
#X msg 543 467 63;
#X msg 86 534 /oled/gInvertArea 3 \$2 \$1 \$3 10;
#X obj 514 170 s \$0-switch;
#X obj 407 121 r \$0-switch;
#X obj 245 125 spigot 0;
#X obj 291 104 r \$0-switch;
#X obj 297 279 loadbang;
#X obj 507 112 t b b b;
#X obj 182 430 bng 15 250 50 0 empty empty empty 17 7 0 10 -262144
-1 -1;
#X obj 291 4 r cgSc-\$1-print!;
#X obj 291 25 t b b;
#X obj 157 465 spigot 0;
#X obj 202 444 r \$0-switch;
#X obj 498 582 list;
#X connect 1 0 0 0;
#X connect 2 0 4 0;
#X connect 3 0 2 0;
#X connect 4 0 72 0;
#X connect 5 0 11 0;
#X connect 6 0 7 0;
#X connect 7 0 2 1;
#X connect 8 0 9 0;
#X connect 9 0 13 0;
#X connect 10 0 29 0;
#X connect 12 0 19 0;
#X connect 13 0 12 0;
#X connect 13 1 18 0;
#X connect 14 0 22 0;
#X connect 15 0 14 0;
#X connect 16 0 40 0;
#X connect 17 0 40 0;
#X connect 18 0 15 0;
#X connect 19 0 41 1;
#X connect 19 0 54 0;
#X connect 20 0 19 1;
#X connect 21 0 19 1;
#X connect 22 0 17 0;
#X connect 22 0 20 0;
#X connect 22 1 16 0;
#X connect 22 1 21 0;
#X connect 23 0 1 0;
#X connect 23 2 50 0;
#X connect 23 3 2 1;
#X connect 23 4 3 0;
#X connect 24 0 26 0;
#X connect 25 0 41 0;
#X connect 26 0 28 0;
#X connect 26 1 66 0;
#X connect 27 0 61 0;
#X connect 28 0 61 0;
#X connect 29 0 25 0;
#X connect 30 0 31 0;
#X connect 31 0 34 0;
#X connect 31 1 32 0;
#X connect 32 0 33 0;
#X connect 33 0 48 0;
#X connect 34 0 35 0;
#X connect 35 0 36 0;
#X connect 36 0 42 0;
#X connect 37 0 39 0;
#X connect 38 0 70 0;
#X connect 39 0 60 0;
#X connect 40 0 41 2;
#X connect 40 0 51 0;
#X connect 41 0 23 0;
#X connect 42 0 38 0;
#X connect 42 1 44 0;
#X connect 44 0 43 0;
#X connect 45 0 38 0;
#X connect 45 1 47 0;
#X connect 47 0 46 0;
#X connect 48 0 45 0;
#X connect 49 0 0 0;
#X connect 50 0 0 0;
#X connect 51 0 56 0;
#X connect 52 0 53 0;
#X connect 53 0 63 0;
#X connect 54 0 57 0;
#X connect 55 0 59 0;
#X connect 55 1 58 0;
#X connect 56 0 57 1;
#X connect 56 1 55 0;
#X connect 57 0 37 1;
#X connect 58 0 57 2;
#X connect 59 0 57 2;
#X connect 60 0 0 0;
#X connect 62 0 25 1;
#X connect 63 0 38 0;
#X connect 63 0 67 0;
#X connect 64 0 63 1;
#X connect 65 0 47 0;
#X connect 66 0 52 0;
#X connect 66 1 29 0;
#X connect 66 2 27 0;
#X connect 68 0 69 0;
#X connect 69 0 52 0;
#X connect 69 1 29 0;
#X connect 70 0 37 0;
#X connect 71 0 70 1;
#X connect 72 0 49 0;
