#N canvas 8 50 923 767 10;
#X obj 222 469 +, f 11;
#X obj 335 416 / 2;
#X text 430 390 <- size of range;
#X obj 647 171 inlet range size;
#X obj 647 254 *, f 7;
#X obj 647 204 t b a, f 7;
#X obj 497 244 * \$1;
#X text 387 73 arg 1: grain size;
#X obj 222 632 outlet;
#X obj 497 266 + 0.49999;
#X obj 497 288 i;
#X obj 647 277 + 0.49999;
#X obj 647 299 i;
#X obj 222 179 inlet bang;
#X obj 222 605 / \$1;
#X text 258 605 convert to 0-1;
#X obj 647 229 f \$1;
#X obj 647 321 s \$0-size;
#X obj 282 281 r \$0-size;
#X obj 222 308 random \$1;
#X obj 335 387 r \$0-size;
#X obj 497 310 s \$0-target;
#X obj 264 351 r \$0-target;
#X obj 497 172 inlet point;
#X obj 296 443 -, f 6;
#X obj 264 373 t b a;
#X obj 222 551 max 0;
#X obj 222 573 min \$1;
#X obj 222 490 + 0.49999;
#X obj 222 523 i;
#X connect 0 0 28 0;
#X connect 1 0 24 1;
#X connect 3 0 5 0;
#X connect 4 0 11 0;
#X connect 5 0 16 0;
#X connect 5 1 4 1;
#X connect 6 0 9 0;
#X connect 9 0 10 0;
#X connect 10 0 21 0;
#X connect 11 0 12 0;
#X connect 12 0 17 0;
#X connect 13 0 19 0;
#X connect 14 0 8 0;
#X connect 16 0 4 0;
#X connect 18 0 19 1;
#X connect 19 0 0 0;
#X connect 20 0 1 0;
#X connect 22 0 25 0;
#X connect 23 0 6 0;
#X connect 24 0 0 1;
#X connect 25 0 0 0;
#X connect 25 1 24 0;
#X connect 26 0 27 0;
#X connect 27 0 14 0;
#X connect 28 0 29 0;
#X connect 29 0 26 0;
