#N canvas 408 50 1331 961 10;
#X obj 14 26 inlet velocity;
#X obj 288 26 inlet messages;
#N canvas 242 147 960 686 messages 0;
#X obj 37 37 inlet;
#X obj 37 309 s \$0-table;
#X obj 102 254 s \$0-start;
#X obj 167 202 s \$0-size;
#X obj 233 254 s \$0-speed;
#X obj 37 58 route tab start size speed sampLength, f 55;
#X obj 298 207 s \$0-s-length;
#X obj 298 85 t f f b;
#X obj 337 112 samplerate~;
#X obj 337 133 * 0.001;
#X obj 317 158 /;
#X obj 317 184 s \$0-ms-length;
#X msg 234 149 1 \$1;
#X obj 234 171 /;
#X connect 0 0 5 0;
#X connect 5 0 1 0;
#X connect 5 1 2 0;
#X connect 5 2 3 0;
#X connect 5 3 12 0;
#X connect 5 4 7 0;
#X connect 7 0 6 0;
#X connect 7 1 10 0;
#X connect 7 2 8 0;
#X connect 8 0 9 0;
#X connect 9 0 10 1;
#X connect 10 0 11 0;
#X connect 12 0 13 0;
#X connect 13 0 4 0;
#X restore 288 47 pd messages;
#X obj 14 47 sel 0, f 21;
#X obj 214 718 r \$0-table;
#X obj 142 485 phasor~, f 29;
#X obj 144 652 *~, f 10;
#X obj 201 629 - 2;
#X obj 214 739 list prepend set;
#X obj 214 760 list trim;
#X obj 144 673 +~ 1;
#X obj 143 540 *~, f 16;
#X obj 372 444 r \$0-size;
#X obj 532 449 r \$0-start;
#X obj 143 561 +~, f 26;
#X obj 178 233 r \$0-speed;
#X text 474 26 basic sample looper;
#X obj 142 118 r \$0-ms-length;
#X obj 142 279 f;
#X obj 178 254 t b a;
#X obj 142 300 * 1, f 11;
#X text 220 301 default is 1 \, no speed change;
#X obj 142 351 /;
#X msg 142 329 1000 \$1;
#X text 200 328 calculate speed in hz;
#X obj 14 68 s \$0-off;
#X obj 137 93 s \$0-on;
#X obj 201 606 r \$0-s-length;
#X obj 342 705 -~ 0.5;
#X obj 342 726 *~ 0.5;
#X obj 342 793 clip~ 0 1;
#X obj 342 748 cos~;
#X obj 146 821 *~, f 33;
#X obj 342 772 *~ 50;
#X obj 164 511 s~ \$0-phase-og;
#X obj 485 736 -~ 0.5;
#X obj 485 757 *~ 0.5;
#X obj 485 824 clip~ 0 1;
#X obj 485 779 cos~;
#X obj 145 852 *~, f 57;
#X obj 485 803 *~ 50;
#X text 347 570 clickless envelope for desired chunk;
#X text 484 613 clickless envelope for orignal sample \, avoid clicks
when wrapping around;
#X obj 536 135 r \$0-off;
#X obj 145 963 *~;
#X obj 160 917 vline~;
#X obj 160 938 pow~ 2;
#X obj 160 894 r \$0-2-vline;
#X obj 810 203 s \$0-2-vline;
#X obj 145 984 hip~ 4;
#X obj 145 1005 outlet~;
#X obj 536 156 t b b b, f 12;
#X msg 810 181 1 8;
#X msg 605 196 stop;
#X obj 536 340 s \$0-2-vline;
#X msg 570 265 0;
#X obj 313 421 r \$0-2-phasor-point;
#X obj 844 173 s \$0-2-phasor-point;
#X msg 844 148 0;
#X obj 777 89 r \$0-on;
#X obj 777 230 s \$0-trigger;
#X obj 137 69 t b;
#X obj 145 794 tabread4~ \$1, f 13;
#X text 478 40 Arg 1: set the table to read;
#X msg 536 318 0 200;
#X obj 570 244 del 200;
#X obj 343 610 r~ \$0-phase-og;
#X obj 160 139 r \$0-size;
#X obj 160 160 t b a;
#X obj 142 187 f;
#X obj 142 209 * 1, f 8;
#X obj 486 702 /~;
#X obj 486 641 r~ \$0-phase-chng;
#X obj 159 697 s~ \$0-phase-chng;
#X obj 501 673 r \$0-s-length;
#X obj 142 456 samphold~, f 21;
#X obj 265 376 r~ \$0-phase-og;
#X obj 372 500 samphold~;
#X obj 422 473 r~ \$0-phase-og;
#X obj 532 496 samphold~;
#X obj 582 469 r~ \$0-phase-og;
#X obj 372 465 sig~;
#X obj 532 472 sig~;
#X obj 142 420 sig~;
#X obj 797 368 switch~;
#X msg 798 308 1;
#X obj 777 116 t b b b b b, f 23;
#X obj 471 362 r \$0-trigger;
#X msg 471 383 reset;
#X obj 143 582 wrap~;
#X connect 0 0 3 0;
#X connect 1 0 2 0;
#X connect 3 0 25 0;
#X connect 3 1 61 0;
#X connect 4 0 8 0;
#X connect 5 0 11 0;
#X connect 5 0 34 0;
#X connect 6 0 10 0;
#X connect 7 0 6 1;
#X connect 8 0 9 0;
#X connect 9 0 62 0;
#X connect 10 0 62 0;
#X connect 10 0 73 0;
#X connect 11 0 14 0;
#X connect 12 0 81 0;
#X connect 13 0 82 0;
#X connect 14 0 89 0;
#X connect 15 0 19 0;
#X connect 17 0 69 0;
#X connect 18 0 20 0;
#X connect 19 0 18 0;
#X connect 19 1 20 1;
#X connect 20 0 23 0;
#X connect 22 0 83 0;
#X connect 23 0 22 0;
#X connect 27 0 7 0;
#X connect 28 0 29 0;
#X connect 29 0 31 0;
#X connect 30 0 32 1;
#X connect 31 0 33 0;
#X connect 32 0 39 0;
#X connect 33 0 30 0;
#X connect 35 0 36 0;
#X connect 36 0 38 0;
#X connect 37 0 39 1;
#X connect 38 0 40 0;
#X connect 39 0 44 0;
#X connect 40 0 37 0;
#X connect 43 0 51 0;
#X connect 44 0 49 0;
#X connect 45 0 46 0;
#X connect 46 0 44 1;
#X connect 47 0 45 0;
#X connect 49 0 50 0;
#X connect 51 0 64 0;
#X connect 51 1 65 0;
#X connect 51 2 53 0;
#X connect 52 0 48 0;
#X connect 53 0 65 0;
#X connect 55 0 84 0;
#X connect 56 0 5 1;
#X connect 58 0 57 0;
#X connect 59 0 86 0;
#X connect 61 0 26 0;
#X connect 62 0 32 0;
#X connect 64 0 54 0;
#X connect 65 0 55 0;
#X connect 66 0 28 0;
#X connect 67 0 68 0;
#X connect 68 0 69 0;
#X connect 68 1 70 1;
#X connect 69 0 70 0;
#X connect 70 0 18 0;
#X connect 71 0 35 0;
#X connect 72 0 71 0;
#X connect 74 0 71 1;
#X connect 75 0 5 0;
#X connect 76 0 75 1;
#X connect 77 0 11 1;
#X connect 78 0 77 1;
#X connect 79 0 14 1;
#X connect 80 0 79 1;
#X connect 81 0 77 0;
#X connect 82 0 79 0;
#X connect 83 0 75 0;
#X connect 85 0 84 0;
#X connect 86 0 60 0;
#X connect 86 1 52 0;
#X connect 86 2 58 0;
#X connect 86 3 53 0;
#X connect 86 4 85 0;
#X connect 87 0 88 0;
#X connect 88 0 75 0;
#X connect 88 0 77 0;
#X connect 88 0 79 0;
#X connect 89 0 6 0;
