#N canvas 414 50 922 680 10;
#X declare -path patchmenu;
#N canvas 367 221 1201 574 output 0;
#X obj 410 342 *~ 1;
#X obj 390 295 rev3~ 100 90 3000 20;
#X obj 212 114 sig~;
#X obj 212 136 lop~ 5;
#X obj 302 181 -~ 1;
#X obj 211 386 *~;
#X obj 337 328 *~;
#X obj 302 203 abs~;
#X obj 417 95 catch~ samp_voice_out;
#X obj 417 161 *~ 1;
#X text 553 296 get the output from voices and feed it into rev3~ \,
a fun reverb included with Pd;
#X obj 324 383 *~;
#X obj 474 340 *~ 1;
#X obj 272 505 throw~ outL;
#X obj 422 505 throw~ outR;
#X obj 212 83 r reverb;
#X obj 417 117 one-knob-filter~;
#X text 544 124 global filter;
#X connect 0 0 5 1;
#X connect 1 0 0 0;
#X connect 1 1 12 0;
#X connect 1 2 0 0;
#X connect 1 3 12 0;
#X connect 2 0 3 0;
#X connect 3 0 4 0;
#X connect 3 0 5 0;
#X connect 3 0 11 0;
#X connect 4 0 7 0;
#X connect 5 0 13 0;
#X connect 6 0 13 0;
#X connect 6 0 14 0;
#X connect 7 0 6 0;
#X connect 8 0 16 0;
#X connect 9 0 1 0;
#X connect 9 0 1 1;
#X connect 9 0 6 1;
#X connect 11 0 14 0;
#X connect 12 0 11 1;
#X connect 15 0 2 0;
#X connect 16 0 9 0;
#X restore 30 511 pd output and reverb;
#N canvas 654 306 569 137 crown 0;
#X obj 5 96 table crown 22050;
#X msg 5 46 \; crown read window.txt;
#X obj 5 21 loadbang;
#X text 82 10 a window for clickless looping;
#X text 194 52 do not delete window.txt in this patch folder :);
#X connect 2 0 1 0;
#X restore 31 462 pd crown window;
#X text 149 461 clickless looping;
#N canvas 16 50 1542 948 mapping 0;
#X text 120 83 Page 1;
#X text 121 433 Page 2;
#X text 122 639 Page 3;
#X text 258 123 see tempo;
#X obj 676 481 * 100;
#X obj 676 503 i;
#X obj 750 480 s reverb;
#X text 100 461 filters + reverb;
#X text 114 106 Beat div;
#X obj 593 426 s decay;
#X obj 507 455 * 100;
#X obj 507 428 moses 0.98;
#X obj 1071 176 s re-sync;
#X obj 931 120 symbol x;
#X obj 946 142 b;
#X obj 982 192 symbol _;
#X obj 980 151 del 100;
#X msg 470 773 0;
#X msg 553 815 1;
#X msg 695 119 0;
#X msg 801 140 1;
#X obj 609 852 s sync;
#X obj 833 198 s re-trigger;
#X obj 470 751 moses 0.5;
#X obj 537 773 moses 0.5;
#X obj 695 97 moses 0.5;
#X obj 762 119 moses 0.5;
#X obj 1043 48 moses 0.5;
#X obj 1103 75 moses 0.5;
#X msg 1043 75 0;
#X msg 1103 97 1;
#X obj 1043 124 change 0;
#X msg 470 886 \; p3s2 2: Sync \$1;
#X msg 282 477 \; p2s1 1: Filter 0%;
#X msg 245 512 \; p2s1 1: Lo-Pass \$1%;
#X msg 245 546 \; p2s1 1: Hi-Pass \$1%;
#X obj 245 456 int;
#X obj 319 457 int;
#X obj 319 434 * 224.222;
#X obj 245 434 * 224.222;
#N canvas 828 240 753 534 samp-speed 0;
#X obj 57 413 s playback;
#X obj 333 83 r sync;
#X obj 269 132 spigot;
#X obj 333 105 ==;
#X obj 333 127 sel 1;
#X obj 269 108 inlet;
#X obj 269 175 f;
#X obj 269 295 int;
#X obj 406 271 int;
#X obj 269 201 detent 0.05;
#X msg 306 326 \; p3s1 1: Samp Speed 0%;
#X msg 269 361 \; p3s1 1: Samp Speed \$1%;
#X msg 405 412 \; p3s1 1: Samp Speed \$1%;
#X obj 406 208 * 4.48;
#X obj 406 230 * 100;
#X obj 269 245 * -1;
#X obj 269 275 * 100;
#X obj 269 223 * 4.46;
#X obj 149 365 r speed-lock;
#X obj 57 362 f;
#X obj 151 411 b;
#X msg 151 439 \; p3s1 1: Speed Bpm Relative;
#X connect 1 0 3 0;
#X connect 2 0 6 0;
#X connect 3 0 2 1;
#X connect 3 0 4 0;
#X connect 4 0 6 0;
#X connect 5 0 2 0;
#X connect 6 0 9 0;
#X connect 7 0 11 0;
#X connect 8 0 12 0;
#X connect 9 0 17 0;
#X connect 9 1 10 0;
#X connect 9 1 19 0;
#X connect 9 2 13 0;
#X connect 13 0 14 0;
#X connect 13 0 19 0;
#X connect 14 0 8 0;
#X connect 15 0 16 0;
#X connect 15 0 19 0;
#X connect 16 0 7 0;
#X connect 17 0 15 0;
#X connect 18 0 20 0;
#X connect 19 0 0 0;
#X connect 20 0 21 0;
#X restore 271 756 pd samp-speed;
#X obj 245 412 detent 0.05;
#X text 111 690 Playback Modes;
#X obj 468 117 * 7;
#X obj 468 139 int;
#X obj 760 197 symbol ON;
#X obj 695 167 symbol OFF;
#X obj 533 858 symbol ON;
#X obj 470 823 symbol OFF;
#X obj 1175 64 r page-ready;
#X obj 1175 86 sel 1;
#X obj 833 172 change 0;
#X obj 776 78 loadbang;
#X msg 776 100 0;
#N canvas 363 199 614 293 beat-division 0;
#X obj 24 257 s beatDiv;
#X obj 24 187 r wholes;
#X obj 94 187 r halves;
#X obj 24 209 spigot;
#X obj 94 209 spigot;
#X obj 164 209 spigot;
#X obj 245 210 spigot;
#X obj 315 210 spigot;
#X obj 393 211 spigot;
#X obj 169 33 list append 1;
#X obj 164 187 r thirds;
#X obj 245 188 r quarters;
#X obj 316 188 r eighths;
#X obj 393 189 r triplets;
#X obj 472 209 spigot;
#X obj 472 187 r sixteenths;
#X obj 57 113 route 0 1 2 3 4 5 6, f 22;
#X msg 196 86 0;
#X obj 169 66 t l b;
#X obj 169 10 inlet;
#X connect 1 0 3 0;
#X connect 2 0 4 0;
#X connect 3 0 0 0;
#X connect 4 0 0 0;
#X connect 5 0 0 0;
#X connect 6 0 0 0;
#X connect 7 0 0 0;
#X connect 8 0 0 0;
#X connect 9 0 18 0;
#X connect 10 0 5 0;
#X connect 11 0 6 0;
#X connect 12 0 7 0;
#X connect 13 0 8 0;
#X connect 14 0 0 0;
#X connect 15 0 14 0;
#X connect 16 0 3 1;
#X connect 16 1 4 1;
#X connect 16 2 5 1;
#X connect 16 3 6 1;
#X connect 16 4 7 1;
#X connect 16 5 8 1;
#X connect 16 6 14 1;
#X connect 17 0 14 1;
#X connect 17 0 8 1;
#X connect 17 0 7 1;
#X connect 17 0 6 1;
#X connect 17 0 5 1;
#X connect 17 0 4 1;
#X connect 17 0 3 1;
#X connect 18 0 16 0;
#X connect 18 1 17 0;
#X connect 19 0 9 0;
#X restore 468 222 pd beat-division;
#X obj 695 141 b;
#X obj 779 174 b;
#X obj 1011 89 b;
#X obj 1043 146 b;
#X obj 553 837 b;
#X obj 470 795 b;
#X obj 598 910 s speed-lock;
#X obj 597 884 b;
#X obj 1083 427 cnv 15 100 60 empty empty empty 20 12 0 14 -233017
-66577 0;
#N canvas 514 98 1220 773 line5 0;
#X obj 400 197 r aux;
#X obj 400 219 sel 0;
#X obj 432 334 s kill;
#X obj 37 109 s are-you-playing;
#X obj 76 139 r i-am-playing;
#X msg 14 388 \; screenLine5 Aux: Cancel \$1 voices \;;
#X msg 39 140 0;
#X obj 76 214 + 1;
#X obj 14 253 i, f 4;
#X obj 76 186 i 0;
#X obj 14 71 t b b b;
#X obj 14 50 metro 300;
#X obj 14 24 loadbang;
#X obj 587 481 s led;
#X msg 449 306 0;
#X msg 507 282 1;
#X obj 449 259 t b b;
#X obj 476 77 sel 0;
#X msg 508 102 3;
#X obj 449 284 del 200;
#X text 123 289 on all pages except menu;
#X text 122 274 put the voice number;
#X obj 54 240 r page-ready;
#X obj 14 358 spigot;
#X obj 54 281 sel 0;
#X msg 54 303 0;
#X msg 86 302 1;
#X obj 486 386 int;
#X msg 550 214 7;
#X msg 612 303 0;
#X obj 550 236 t b f b;
#X obj 550 280 t b b;
#X msg 578 303 1;
#X obj 550 258 del 100;
#X obj 550 187 spigot;
#X msg 568 152 0;
#X msg 601 156 1;
#X obj 589 37 r tempo-off;
#X obj 550 101 spigot;
#X text 609 196 WHite Flash for begining of bar/whole notes, f 16
;
#X floatatom 179 234 5 0 0 0 - - -, f 5;
#X obj 486 408 spigot 1;
#X obj 365 198 r fs;
#X obj 550 79 r quarters;
#X connect 0 0 1 0;
#X connect 1 1 2 0;
#X connect 1 1 16 0;
#X connect 4 0 9 0;
#X connect 6 0 9 1;
#X connect 6 0 8 1;
#X connect 7 0 9 1;
#X connect 7 0 8 1;
#X connect 8 0 23 0;
#X connect 8 0 17 0;
#X connect 8 0 40 0;
#X connect 9 0 7 0;
#X connect 10 0 8 0;
#X connect 10 1 3 0;
#X connect 10 2 6 0;
#X connect 11 0 10 0;
#X connect 12 0 11 0;
#X connect 14 0 27 0;
#X connect 15 0 27 0;
#X connect 16 0 19 0;
#X connect 16 1 15 0;
#X connect 17 0 14 0;
#X connect 17 0 35 0;
#X connect 17 1 18 0;
#X connect 17 1 36 0;
#X connect 18 0 27 0;
#X connect 19 0 14 0;
#X connect 22 0 24 0;
#X connect 23 0 5 0;
#X connect 24 0 25 0;
#X connect 24 1 26 0;
#X connect 25 0 23 1;
#X connect 26 0 23 1;
#X connect 27 0 41 0;
#X connect 28 0 30 0;
#X connect 29 0 41 1;
#X connect 30 0 33 0;
#X connect 30 1 13 0;
#X connect 30 2 29 0;
#X connect 31 0 27 0;
#X connect 31 1 32 0;
#X connect 32 0 41 1;
#X connect 33 0 31 0;
#X connect 34 0 28 0;
#X connect 35 0 34 1;
#X connect 36 0 34 1;
#X connect 37 0 38 1;
#X connect 38 0 34 0;
#X connect 41 0 13 0;
#X connect 42 0 1 0;
#X connect 43 0 38 0;
#X restore 1099 446 pd line5;
#X text 1028 402 print to line5 and LED stuff;
#X obj 667 735 loadbang;
#X obj 609 822 change;
#X obj 673 813 spigot;
#X obj 613 790 f;
#X obj 667 757 t b b b;
#X msg 702 786 1;
#X obj 667 779 0;
#X obj 574 463 b;
#X msg 574 489 Off;
#X obj 676 552 t b f;
#X obj 655 585 pack s f;
#X msg 507 518 symbol \$1%;
#X obj 507 479 i;
#X msg 655 610 Dec: \$1 | Rvb: \$2%;
#X obj 712 285 t b f;
#X obj 691 318 pack s f s, f 15;
#X obj 762 285 t b s;
#X msg 692 343 Trig: \$1 | 1/\$2 | \$3;
#N canvas 397 609 450 300 beat 0;
#X obj 113 21 inlet;
#X obj 113 72 sel 0 1 2 3 4 5 6, f 38;
#X msg 113 95 1;
#X msg 150 115 2;
#X msg 192 116 3;
#X msg 230 120 4;
#X msg 285 119 8;
#X msg 343 119 12;
#X msg 316 150 16;
#X obj 111 207 outlet;
#X connect 0 0 1 0;
#X connect 1 0 2 0;
#X connect 1 1 3 0;
#X connect 1 2 4 0;
#X connect 1 3 5 0;
#X connect 1 4 6 0;
#X connect 1 5 7 0;
#X connect 1 6 8 0;
#X connect 2 0 9 0;
#X connect 3 0 9 0;
#X connect 4 0 9 0;
#X connect 5 0 9 0;
#X connect 6 0 9 0;
#X connect 7 0 9 0;
#X connect 8 0 9 0;
#X restore 567 180 pd beat divs;
#X obj 1155 812 bng 15 250 50 0 empty empty empty 17 7 0 10 -262144
-1 -1;
#X obj 1059 774 unpack 0 0;
#X obj 1059 796 + 1;
#X obj 1059 818 pack 0 0;
#X obj 1059 708 r tracker;
#X obj 1192 697 r page-ready;
#X obj 1059 737 spigot 0, f 13;
#X msg 1215 826 1;
#X msg 1266 784 0;
#X obj 1059 845 cg-print-kb 36;
#X obj 1192 874 s update-tracker;
#X obj 1192 771 t b b b;
#X obj 1190 719 sel 1 2 3, f 11;
#X obj 507 393 cg-multi-page-k 2 2;
#X obj 1090 529 cg-knob-page-saver;
#X obj 468 95 cg-multi-page-k 1 3;
#X obj 271 731 cg-multi-page-k 3 1;
#X obj 474 714 cg-multi-page-k 3 2;
#X obj 676 442 cg-multi-page-k 2 3;
#X obj 245 386 cg-multi-page-k 2 1;
#X obj 695 56 cg-multi-page-k 1 2;
#X obj 1043 25 cg-multi-page-k 1 4;
#X obj 691 366 s p1s2;
#X obj 655 633 s p2s2;
#X connect 4 0 5 0;
#X connect 5 0 75 0;
#X connect 10 0 78 0;
#X connect 11 0 10 0;
#X connect 11 1 73 0;
#X connect 13 0 14 0;
#X connect 13 0 82 0;
#X connect 14 0 16 0;
#X connect 15 0 82 0;
#X connect 16 0 15 0;
#X connect 17 0 60 0;
#X connect 17 0 69 0;
#X connect 18 0 59 0;
#X connect 18 0 69 0;
#X connect 19 0 51 0;
#X connect 19 0 55 0;
#X connect 20 0 51 0;
#X connect 20 0 56 0;
#X connect 23 0 17 0;
#X connect 23 1 24 0;
#X connect 24 1 18 0;
#X connect 25 0 19 0;
#X connect 25 1 26 0;
#X connect 26 1 20 0;
#X connect 27 0 29 0;
#X connect 27 1 28 0;
#X connect 28 1 30 0;
#X connect 29 0 31 0;
#X connect 30 0 31 0;
#X connect 31 0 57 0;
#X connect 31 0 58 0;
#X connect 36 0 34 0;
#X connect 37 0 35 0;
#X connect 38 0 37 0;
#X connect 39 0 36 0;
#X connect 41 0 39 0;
#X connect 41 1 33 0;
#X connect 41 2 38 0;
#X connect 43 0 44 0;
#X connect 44 0 84 0;
#X connect 44 0 54 0;
#X connect 45 0 81 0;
#X connect 46 0 81 0;
#X connect 47 0 32 0;
#X connect 47 0 62 0;
#X connect 48 0 32 0;
#X connect 49 0 50 0;
#X connect 50 0 15 0;
#X connect 51 0 22 0;
#X connect 52 0 19 0;
#X connect 52 0 53 0;
#X connect 53 0 22 0;
#X connect 55 0 46 0;
#X connect 56 0 45 0;
#X connect 57 0 13 0;
#X connect 58 0 12 0;
#X connect 59 0 47 0;
#X connect 60 0 48 0;
#X connect 62 0 61 0;
#X connect 66 0 70 0;
#X connect 67 0 21 0;
#X connect 68 0 21 0;
#X connect 69 0 67 0;
#X connect 69 0 68 0;
#X connect 70 0 72 0;
#X connect 70 1 69 0;
#X connect 70 2 71 0;
#X connect 71 0 68 1;
#X connect 72 0 68 1;
#X connect 73 0 74 0;
#X connect 74 0 76 0;
#X connect 75 0 76 0;
#X connect 75 1 76 1;
#X connect 76 0 79 0;
#X connect 77 0 76 0;
#X connect 78 0 77 0;
#X connect 79 0 108 0;
#X connect 80 0 81 0;
#X connect 80 1 81 1;
#X connect 81 0 83 0;
#X connect 82 0 81 0;
#X connect 82 1 81 2;
#X connect 83 0 107 0;
#X connect 84 0 80 0;
#X connect 85 0 94 1;
#X connect 86 0 87 0;
#X connect 86 1 88 1;
#X connect 87 0 88 0;
#X connect 88 0 94 0;
#X connect 89 0 91 0;
#X connect 90 0 97 0;
#X connect 91 0 86 0;
#X connect 92 0 91 1;
#X connect 93 0 91 1;
#X connect 96 0 95 0;
#X connect 96 1 92 0;
#X connect 96 2 94 1;
#X connect 97 0 96 0;
#X connect 97 1 96 0;
#X connect 97 2 96 0;
#X connect 97 3 93 0;
#X connect 98 0 11 0;
#X connect 98 0 9 0;
#X connect 100 0 43 0;
#X connect 101 0 40 0;
#X connect 102 0 23 0;
#X connect 103 0 6 0;
#X connect 103 0 4 0;
#X connect 104 0 41 0;
#X connect 105 0 25 0;
#X connect 106 0 27 0;
#X restore 27 299 pd mapping;
#X obj 25 57 declare -path patchmenu;
#X obj 25 173 patchmenu;
#X obj 57 151 s enableSubMenu;
#X obj 25 79 loadbang;
#X msg 25 151 0;
#X obj 25 128 t b b;
#X obj 25 103 versioncheck 2;
#X text 153 409 loop voices;
#X obj 31 411 voice-bank 2000;
#X text 106 301 knobs and printing to screen;
#X text 96 353 global metro;
#X text 176 511 output and effects;
#X obj 27 355 tempo;
#X obj 223 137 s midiOutGate;
#X obj 223 57 loadbang;
#X obj 223 83 delay 20;
#X msg 223 109 0;
#X text 298 98 disable outgoing midi;
#X msg 25 197 \; screenLine1 1) Tempo + Beats \; screenLine2 2) Filters
+ Reverb \; screenLine3 3) Modes + Keyboard \; screenLine4 <-- HOME
\;;
#X connect 5 0 22 0;
#X connect 7 0 10 0;
#X connect 8 0 5 0;
#X connect 9 0 8 0;
#X connect 9 1 6 0;
#X connect 10 0 9 0;
#X connect 18 0 19 0;
#X connect 19 0 20 0;
#X connect 20 0 17 0;
