#N canvas 645 215 1030 521 10;
#X obj 362 227 vcf~, f 11;
#X obj 400 118 mtof;
#X obj 400 140 lop~ 5;
#X obj 362 327 outlet~;
#X obj 468 -76 detent 0.05;
#X obj 392 -36 * 108;
#X obj 392 -14 + 20;
#X msg 491 -9 0;
#X msg 436 179 \$1 50;
#X obj 362 78 inlet~;
#X obj 392 -109 r p2k1;
#X text 465 253 lo-pass;
#X text 296 252 bandpass;
#X obj 437 252 *~;
#X obj 513 195 lop~ 5;
#X msg 543 37 0;
#X msg 467 41 1;
#X obj 362 249 *~ 1;
#X obj 436 201 line 1 1;
#X obj 646 21 t f f, f 8;
#X obj 646 43 *;
#X obj 440 -43 t f f, f 8;
#X obj 440 -21 *;
#X obj 645 73 * 100;
#X obj 441 16 * 70;
#X connect 0 0 17 0;
#X connect 0 1 13 0;
#X connect 1 0 2 0;
#X connect 2 0 0 1;
#X connect 4 0 16 0;
#X connect 4 0 21 0;
#X connect 4 1 7 0;
#X connect 4 1 15 0;
#X connect 4 2 15 0;
#X connect 4 2 19 0;
#X connect 5 0 6 0;
#X connect 6 0 1 0;
#X connect 7 0 8 0;
#X connect 8 0 18 0;
#X connect 9 0 0 0;
#X connect 10 0 5 0;
#X connect 10 0 4 0;
#X connect 13 0 3 0;
#X connect 14 0 13 1;
#X connect 15 0 14 0;
#X connect 16 0 14 0;
#X connect 17 0 3 0;
#X connect 18 0 0 2;
#X connect 19 0 20 0;
#X connect 19 1 20 1;
#X connect 20 0 23 0;
#X connect 21 0 22 0;
#X connect 21 1 22 1;
#X connect 22 0 24 0;
#X connect 23 0 8 0;
#X connect 24 0 8 0;
