#N canvas 318 89 1331 850 10;
#X obj 969 261 soundfiler;
#X obj 969 349 / 44.1;
#X text 1025 349 sample rate / 1000;
#X obj 969 381 s \$1-duration;
#X obj 969 89 symbol \$1-array;
#X obj 969 175 list prepend -resize;
#X obj 969 203 list prepend read;
#X obj 969 231 list trim;
#X obj 969 36 loadbang;
#X text 555 28 construct the read message using the sound file name
(\$1);
#X obj 969 111 list;
#X obj 969 142 list prepend \$1;
#X obj 62 450 phasor~;
#X obj 62 788 hip~ 5;
#X obj 62 628 tabread4~ \$1-array;
#X obj 62 819 throw~ samp_voice_out;
#X obj 62 559 *~ 140688;
#X obj 62 390 f;
#X obj 62 753 *~;
#X obj 62 710 *~;
#X obj 203 628 tabread4~ crown;
#X obj 142 116 r kill;
#X msg 142 138 0;
#X msg 216 323 0;
#X obj 416 335 sel 0, f 17;
#X obj 62 298 t b b b, f 52;
#X msg 250 398 0;
#X text 370 496 re-trigger for decay;
#X text 88 712 clickless window;
#X text 97 756 envelope;
#X text 112 787 DC offset;
#X text 63 650 read from array;
#X text 48 480 drive the loop;
#N canvas 668 104 1137 776 decay 0;
#X obj 82 486 outlet~;
#X obj 19 2 inlet;
#X obj 82 453 *~;
#X obj 81 422 vline~;
#X obj 81 329 f 1000;
#X obj 136 236 r \$1-duration;
#X obj 121 293 *;
#X obj 81 357 pack 0 0;
#X obj 121 122 t f f;
#X text 191 143 if knob all the way up \, never decay;
#X text 193 94 do a simple amplitude decay;
#X obj 190 171 expr if($f1 > 0.98 \, 1 \, 0);
#X msg 39 354 0 2;
#X obj 19 234 t b b;
#X obj 121 90 r decay;
#X msg 81 386 1 1 \, \$2 \$1 1;
#X text 35 26 trigger;
#X obj 119 2 inlet;
#X text 162 7 Kill;
#X obj 136 258 * 4;
#X connect 1 0 13 0;
#X connect 2 0 0 0;
#X connect 3 0 2 0;
#X connect 3 0 2 1;
#X connect 4 0 7 0;
#X connect 5 0 19 0;
#X connect 6 0 4 1;
#X connect 7 0 15 0;
#X connect 8 0 6 0;
#X connect 8 1 11 0;
#X connect 11 0 7 1;
#X connect 12 0 3 0;
#X connect 13 0 4 0;
#X connect 13 1 12 0;
#X connect 14 0 8 0;
#X connect 15 0 3 0;
#X connect 17 0 12 0;
#X connect 19 0 6 1;
#X restore 371 580 pd decay;
#N canvas 581 242 1138 740 HZ-control 1;
#X obj 361 48 r bar-length;
#X obj 83 376 f;
#X obj 360 433 f;
#X obj 83 418 spigot;
#X obj 360 475 spigot;
#X obj 142 288 r sync;
#X obj 142 310 sel 0 1;
#X obj 113 345 t b b b;
#X msg 159 372 0;
#X msg 126 374 1;
#X obj 386 404 t b b b;
#X msg 432 431 0;
#X msg 399 433 1;
#X obj 195 70 r playback;
#X obj 83 613 outlet;
#X obj 361 286 *, f 10;
#X obj 482 49 r \$1-duration;
#X obj 482 200 int;
#X obj 83 40 r \$1-duration;
#X obj 83 183 *, f 6;
#X obj 195 118 t b f;
#X text 127 199 scale speed to global speed when not in sync mode;
#X text 501 323 stretch sample to fit to bar length set by BPM when
in sync mode;
#X text 705 59 arg3(from sample voice argument3): length to round sample
;
#X obj 482 165 / \$3;
#X obj 361 321 / 1000;
#X obj 361 342 swap 1;
#X obj 361 363 /;
#X obj 83 61 swap 1000;
#X obj 83 82 /;
#X obj 521 92 < \$3;
#X obj 482 221 t b a;
#X obj 482 139 spigot;
#X obj 521 113 t a a;
#X obj 588 146 == 0;
#X obj 555 169 spigot;
#X obj 482 71 t a a a;
#X obj 555 190 t b;
#X obj 555 211 f \$3;
#X connect 0 0 15 0;
#X connect 1 0 3 0;
#X connect 2 0 4 0;
#X connect 3 0 14 0;
#X connect 4 0 14 0;
#X connect 5 0 6 0;
#X connect 6 0 7 0;
#X connect 6 1 10 0;
#X connect 7 0 1 0;
#X connect 7 1 9 0;
#X connect 7 2 8 0;
#X connect 8 0 4 1;
#X connect 9 0 3 1;
#X connect 10 0 2 0;
#X connect 10 1 12 0;
#X connect 10 2 11 0;
#X connect 11 0 3 1;
#X connect 12 0 4 1;
#X connect 13 0 20 0;
#X connect 15 0 25 0;
#X connect 16 0 36 0;
#X connect 17 0 31 0;
#X connect 18 0 28 0;
#X connect 19 0 1 0;
#X connect 20 0 19 0;
#X connect 20 1 19 1;
#X connect 24 0 17 0;
#X connect 25 0 26 0;
#X connect 26 0 27 0;
#X connect 26 1 27 1;
#X connect 27 0 2 0;
#X connect 28 0 29 0;
#X connect 28 1 29 1;
#X connect 29 0 19 0;
#X connect 30 0 33 0;
#X connect 31 0 15 0;
#X connect 31 1 15 1;
#X connect 32 0 24 0;
#X connect 33 0 32 1;
#X connect 33 1 34 0;
#X connect 34 0 35 1;
#X connect 35 0 37 0;
#X connect 36 0 32 0;
#X connect 36 1 35 0;
#X connect 36 2 30 0;
#X connect 37 0 38 0;
#X connect 38 0 24 0;
#X restore 104 334 pd HZ-control;
#X text 247 322 phase to begining;
#X text 275 398 turn off when sample off;
#X obj 62 27 r notes;
#X obj 62 51 stripnote;
#X obj 62 141 sel \$2;
#X obj 62 115 % 24;
#X obj 62 94 abs;
#X obj 62 73 expr if ($f1 > 59 \, $f1 - 60 \, $f1 - 12);
#N canvas 527 118 618 588 play-modes 0;
#X obj 199 200 r re-sync;
#X obj 58 64 inlet;
#X obj 160 422 outlet;
#X obj 150 10 r sync;
#X obj 25 205 r beatDiv;
#X obj 25 298 spigot;
#X obj 110 173 r re-trigger;
#X obj 137 222 sel 0;
#X text 207 423 BANGS;
#X obj 293 153 spigot;
#X obj 293 119 sel 1;
#X obj 58 137 spigot;
#X obj 333 118 == 0;
#X obj 137 252 f 1;
#X obj 199 221 t b;
#X obj 110 195 t f f;
#X obj 150 41 t a a;
#X obj 58 85 t a a;
#X connect 0 0 14 0;
#X connect 1 0 17 0;
#X connect 3 0 16 0;
#X connect 4 0 5 0;
#X connect 5 0 2 0;
#X connect 6 0 15 0;
#X connect 7 0 13 0;
#X connect 9 0 2 0;
#X connect 10 0 9 0;
#X connect 11 0 5 1;
#X connect 12 0 9 1;
#X connect 13 0 5 1;
#X connect 14 0 13 0;
#X connect 15 1 7 0;
#X connect 16 0 11 1;
#X connect 16 1 12 0;
#X connect 17 0 11 0;
#X connect 17 1 10 0;
#X restore 62 250 pd play-modes;
#X obj 62 412 spigot;
#X obj 201 151 i;
#X obj 201 204 sel 1;
#X obj 201 229 s i-am-playing;
#X obj 201 126 r are-you-playing;
#X text 677 516 Argument 1: which file to read;
#X text 677 546 Argument 2: which note number to trigger(moudulated
by 24 e.g. 0-24);
#X text 676 585 Argument 3: reads voice-banks argument 1 for setting
length to round to.;
#X text 104 270 sync or no sync play modes;
#X text 227 109 screenline 5 display of active voices;
#X text 136 50 all midi notes trigger loops 0-24;
#X obj 1001 311 s \$1-duration-samp;
#X obj 113 516 r \$1-duration-samp;
#X text 1026 294 duration of sample in samples;
#X text 1055 382 duration of sample in ms;
#X obj 387 529 threshold~ 0.0001 0 0.9999 0;
#X obj 324 248 s tracker;
#X obj 324 225 list prepend \$2;
#X obj 201 175 t f f;
#X obj 324 182 change -1;
#X obj 324 204 i;
#X obj 344 148 r update-tracker;
#X obj 579 51 array define \$1-array;
#X obj 113 537 - 2;
#X obj 62 580 +~ 1;
#X obj 202 600 +~ 1;
#X obj 202 579 *~ 22048;
#N canvas 4 50 450 300 toggle-noGui 0;
#X obj 48 21 inlet;
#X obj 48 44 f 1;
#X obj 88 44 + 1;
#X obj 88 65 == 1;
#X obj 48 105 outlet;
#X connect 0 0 1 0;
#X connect 1 0 2 0;
#X connect 1 0 4 0;
#X connect 2 0 3 0;
#X connect 3 0 1 1;
#X restore 62 172 pd toggle-noGui;
#X obj 62 211 t f f f f;
#X floatatom 118 363 5 0 0 0 - - -;
#X connect 0 0 55 0;
#X connect 0 0 1 0;
#X connect 1 0 3 0;
#X connect 4 0 10 0;
#X connect 5 0 6 0;
#X connect 6 0 7 0;
#X connect 7 0 0 0;
#X connect 8 0 4 0;
#X connect 10 0 11 0;
#X connect 11 0 5 0;
#X connect 12 0 16 0;
#X connect 12 0 59 0;
#X connect 12 0 70 0;
#X connect 13 0 15 0;
#X connect 14 0 19 0;
#X connect 16 0 68 0;
#X connect 17 0 44 0;
#X connect 18 0 13 0;
#X connect 19 0 18 0;
#X connect 20 0 19 1;
#X connect 21 0 22 0;
#X connect 22 0 71 0;
#X connect 23 0 12 1;
#X connect 24 0 26 0;
#X connect 24 0 33 1;
#X connect 25 0 17 0;
#X connect 25 1 23 0;
#X connect 25 2 33 0;
#X connect 26 0 12 0;
#X connect 33 0 18 1;
#X connect 34 0 17 0;
#X connect 34 0 73 0;
#X connect 37 0 38 0;
#X connect 38 0 42 0;
#X connect 39 0 71 0;
#X connect 40 0 39 0;
#X connect 41 0 40 0;
#X connect 42 0 41 0;
#X connect 43 0 25 0;
#X connect 44 0 12 0;
#X connect 45 0 62 0;
#X connect 46 0 47 0;
#X connect 48 0 45 0;
#X connect 56 0 67 0;
#X connect 59 0 33 0;
#X connect 61 0 60 0;
#X connect 62 0 46 0;
#X connect 62 1 63 0;
#X connect 63 0 64 0;
#X connect 64 0 61 0;
#X connect 65 0 64 0;
#X connect 67 0 16 1;
#X connect 68 0 14 0;
#X connect 69 0 20 0;
#X connect 70 0 69 0;
#X connect 71 0 72 0;
#X connect 72 0 43 0;
#X connect 72 1 44 1;
#X connect 72 2 24 0;
#X connect 72 3 45 0;
