#N canvas 320 84 1366 774 10;
#X obj 36 170 master-metronome;
#X obj 36 135 tgl 15 0 empty empty empty 17 7 0 10 -262144 -1 -1 1
1;
#X obj 36 68 loadbang;
#X msg 36 100 1;
#X obj 145 132 + 10;
#X obj 273 380 i;
#X obj 36 372 i;
#X obj 652 166 r bpm;
#X obj 145 106 * 300;
#X msg 36 418 \; p1s1 1: Tempo \$1 BPM MIDI \;;
#X msg 273 425 \; p1s1 1: Tempo \$1 BPM \;;
#X obj 652 350 s bar-length;
#X msg 449 312 \; p1s1 1: Tempo OFF \;;
#X obj 415 44 r re-trigger;
#X obj 426 67 r sync;
#X obj 415 148 +;
#X obj 426 107 t b f;
#X obj 415 170 sel 0;
#X obj 273 359 spigot;
#X msg 385 230 0;
#X obj 36 349 spigot;
#X msg 481 226 1;
#X obj 447 198 t b b;
#X obj 616 72 r page-ready;
#X obj 616 94 sel 1;
#X obj 449 281 b;
#X obj 551 250 s tempo-off;
#X msg 530 214 0;
#X msg 565 213 1;
#X obj 145 84 cg-multi-page-k 1 1;
#X obj 450 383 i;
#X obj 450 362 spigot;
#X msg 450 428 \; p1s1 1: Tempo \$1 LINK \;;
#X obj 250 273 f;
#X obj 652 260 /;
#X obj 652 219 swap 240000;
#X connect 0 0 20 0;
#X connect 0 1 18 0;
#X connect 0 2 31 0;
#X connect 1 0 0 0;
#X connect 2 0 3 0;
#X connect 3 0 1 0;
#X connect 4 0 0 1;
#X connect 5 0 10 0;
#X connect 6 0 9 0;
#X connect 7 0 35 0;
#X connect 8 0 4 0;
#X connect 13 0 15 0;
#X connect 14 0 16 0;
#X connect 15 0 17 0;
#X connect 16 0 15 0;
#X connect 16 1 15 1;
#X connect 17 0 19 0;
#X connect 17 0 25 0;
#X connect 17 0 27 0;
#X connect 17 1 22 0;
#X connect 17 1 28 0;
#X connect 18 0 5 0;
#X connect 19 0 33 0;
#X connect 20 0 6 0;
#X connect 21 0 33 0;
#X connect 22 0 8 0;
#X connect 22 1 21 0;
#X connect 23 0 24 0;
#X connect 24 0 15 0;
#X connect 25 0 12 0;
#X connect 27 0 26 0;
#X connect 28 0 26 0;
#X connect 29 0 8 0;
#X connect 30 0 32 0;
#X connect 31 0 30 0;
#X connect 33 0 20 1;
#X connect 33 0 18 1;
#X connect 33 0 31 1;
#X connect 34 0 11 0;
#X connect 35 0 34 0;
#X connect 35 1 34 1;
