#N canvas 4 50 728 621 12;
#X obj 37 21 inlet~;
#X text 95 19 signal in;
#X obj 445 15 inlet;
#N canvas 4 50 751 521 messages 1;
#X obj 37 37 inlet;
#X obj 83 116 s \$0-time;
#X obj 104 255 s \$0-fb;
#X obj 197 176 s \$0-vol;
#X obj 37 62 route note time fb vol band, f 31;
#X obj 207 88 s \$0-band;
#X obj 310 115 s \$0-rez;
#X obj 37 196 outlet;
#X obj 356 146 s \$0-att;
#X obj 403 120 s \$0-dec;
#X obj 462 305 s \$0-sus;
#X obj 572 299 s \$0-rel;
#X obj 453 240 / 100;
#X obj 453 264 sqrt;
#X obj 451 213 clip 0 100;
#X obj 112 222 clip 0 0.97;
#X obj 186 134 max 0;
#X obj 310 90 route rez att dec sus rel dw, f 31;
#X obj 562 246 s \$0-dry;
#X obj 556 137 clip 0 1;
#X obj 578 74 s \$0-pan;
#X obj 575 31 clip 0 1;
#X obj 489 25 route pan;
#X connect 0 0 4 0;
#X connect 4 0 7 0;
#X connect 4 1 1 0;
#X connect 4 2 15 0;
#X connect 4 3 16 0;
#X connect 4 4 5 0;
#X connect 4 5 17 0;
#X connect 12 0 13 0;
#X connect 13 0 10 0;
#X connect 14 0 12 0;
#X connect 15 0 2 0;
#X connect 16 0 3 0;
#X connect 17 0 6 0;
#X connect 17 1 8 0;
#X connect 17 2 9 0;
#X connect 17 3 14 0;
#X connect 17 4 11 0;
#X connect 17 5 19 0;
#X connect 17 6 22 0;
#X connect 19 0 18 0;
#X connect 21 0 20 0;
#X connect 22 0 21 0;
#X restore 445 39 pd messages;
#X obj 42 480 outlet~;
#X obj 60 64 r \$0-band;
#X obj 69 91 r \$0-rez;
#N canvas 676 207 843 511 envelope 0;
#X obj 21 14 inlet;
#X text 62 13 vel;
#X obj 493 153 r \$0-att;
#X obj 343 155 / 127;
#X obj 343 179 sqrt;
#X obj 510 202 r \$0-dec;
#X obj 56 139 r \$0-rel;
#X obj 572 151 r \$0-sus;
#X msg 468 285 \$1 \$2 \, \$4 \$3 \$2;
#X obj 468 261 pack 0 0 0 0;
#X obj 21 48 sel 0, f 40;
#X obj 21 150 0;
#X obj 21 174 pack;
#X obj 21 396 vline~;
#X obj 21 420 *~;
#X obj 189 202 delay;
#X obj 221 169 r \$0-rel;
#X msg 189 142 stop;
#X obj 21 72 t b b b;
#X obj 189 226 0;
#X obj 339 425 outlet;
#X text 396 427 to switch~;
#X obj 308 79 t a b b;
#X obj 325 258 1;
#X obj 21 444 outlet~;
#X connect 0 0 10 0;
#X connect 2 0 9 1;
#X connect 3 0 4 0;
#X connect 4 0 9 0;
#X connect 5 0 9 2;
#X connect 6 0 12 1;
#X connect 7 0 9 3;
#X connect 8 0 13 0;
#X connect 9 0 8 0;
#X connect 10 0 18 0;
#X connect 10 1 22 0;
#X connect 11 0 12 0;
#X connect 12 0 13 0;
#X connect 13 0 14 0;
#X connect 13 0 14 1;
#X connect 14 0 24 0;
#X connect 15 0 19 0;
#X connect 16 0 15 1;
#X connect 17 0 15 0;
#X connect 18 0 11 0;
#X connect 18 1 15 0;
#X connect 18 2 17 0;
#X connect 19 0 20 0;
#X connect 22 0 3 0;
#X connect 22 1 23 0;
#X connect 22 2 17 0;
#X connect 23 0 20 0;
#X restore 512 127 pd envelope;
#X obj 36 230 *~;
#X obj 43 428 hip~ 4;
#X obj 586 170 s \$0-sw;
#X obj 445 63 unpack 0 0;
#X obj 445 169 s \$0-band;
#X obj 36 192 *~;
#X obj 79 187 r \$0-vol;
#X obj 180 480 outlet~;
#N canvas 4 50 450 771 pan 0;
#X obj 47 27 inlet~;
#X obj 259 25 inlet;
#X obj 85 443 outlet~;
#X obj 47 371 *~;
#X obj 130 362 *~;
#X obj 259 49 t a a;
#X obj 245 100 swap 1;
#X obj 245 124 -;
#X obj 62 330 line~;
#X obj 65 304 pack 0 8;
#X obj 171 317 line~;
#X obj 174 291 pack 0 8;
#X obj 245 148 sqrt;
#X obj 303 144 sqrt;
#X obj 160 441 outlet~;
#X connect 0 0 3 0;
#X connect 0 0 4 0;
#X connect 1 0 5 0;
#X connect 3 0 2 0;
#X connect 4 0 14 0;
#X connect 5 0 6 0;
#X connect 5 1 13 0;
#X connect 6 0 7 0;
#X connect 6 1 7 1;
#X connect 7 0 12 0;
#X connect 8 0 3 1;
#X connect 9 0 8 0;
#X connect 10 0 4 1;
#X connect 11 0 10 0;
#X connect 12 0 9 0;
#X connect 13 0 11 0;
#X restore 44 398 pd pan;
#X f 20;
#X obj 181 374 r \$0-pan;
#X obj 181 428 hip~ 4;
#X obj 37 130 cg-bp-vol~;
#X obj 445 93 ftom;
#X obj 541 270 switch~;
#X obj 36 254 *~ 0.7;
#X connect 0 0 19 0;
#X connect 2 0 3 0;
#X connect 3 0 11 0;
#X connect 5 0 19 1;
#X connect 6 0 19 2;
#X connect 7 0 8 1;
#X connect 7 1 10 0;
#X connect 7 1 21 0;
#X connect 8 0 22 0;
#X connect 9 0 4 0;
#X connect 11 0 20 0;
#X connect 11 1 7 0;
#X connect 13 0 8 0;
#X connect 14 0 13 1;
#X connect 16 0 9 0;
#X connect 16 1 18 0;
#X connect 17 0 16 1;
#X connect 18 0 15 0;
#X connect 19 0 13 0;
#X connect 20 0 12 0;
#X connect 22 0 16 0;
