#N canvas 734 128 706 735 12;
#X obj 318 43 r burst-time;
#X obj 37 559 outlet;
#X obj 37 9 inlet;
#X obj 318 304 list trim;
#X obj 349 114 r beat-clock;
#X obj 349 142 list prepend ticks;
#X obj 318 79 list prepend step;
#X obj 75 257 list prepend loop;
#X obj 37 33 t a a;
#X obj 75 74 sel 1;
#X obj 75 139 array sum bands;
#X text 154 40 Arg1: loop;
#X text 150 69 Arg2: is this a double;
#X obj 75 163 * \$2;
#X obj 37 413 cg-burst-ticks 0.25 24;
#X obj 132 96 r re-up-burst;
#X obj 75 217 i;
#X obj 75 187 + 0.5;
#X connect 0 0 6 0;
#X connect 2 0 8 0;
#X connect 3 0 14 1;
#X connect 4 0 5 0;
#X connect 5 0 3 0;
#X connect 6 0 3 0;
#X connect 7 0 3 0;
#X connect 8 0 14 0;
#X connect 8 1 9 0;
#X connect 9 0 10 0;
#X connect 10 0 13 0;
#X connect 13 0 17 0;
#X connect 14 0 1 0;
#X connect 15 0 10 0;
#X connect 16 0 7 0;
#X connect 17 0 16 0;
