#N canvas 703 225 957 709 12;
#X obj 38 31 inlet~;
#X obj 121 30 inlet;
#X obj 411 30 inlet;
#X obj 38 650 outlet~;
#X obj 38 606 hip~ 5;
#X obj 39 329 vcf~, f 34;
#X obj 38 368 vcf~, f 57;
#X obj 411 54 clip 0 1;
#X obj 411 152 t a a, f 13;
#X obj 411 176 max 1;
#X obj 411 265 t a a;
#N canvas 4 50 450 300 q-rel-gain 0;
#X obj 54 15 inlet;
#X obj 54 246 outlet~;
#X obj 54 39 / 200;
#X obj 54 63 pack 0 10;
#X obj 54 87 line~;
#X obj 54 111 *~ 998;
#X obj 54 135 +~ 1;
#X obj 54 158 tabread4~ flat-q;
#X connect 0 0 2 0;
#X connect 2 0 3 0;
#X connect 3 0 4 0;
#X connect 4 0 5 0;
#X connect 5 0 6 0;
#X connect 6 0 7 0;
#X connect 7 0 1 0;
#X restore 499 369 pd q-rel-gain;
#X obj 411 231 line 0 1;
#N canvas 159 184 450 300 note-rel-gain 0;
#X obj 54 15 inlet;
#X obj 54 246 outlet;
#X obj 54 101 / 127;
#X obj 54 162 swap 1;
#X obj 54 191 -, f 6;
#X obj 54 132 pow 3;
#X obj 177 107 t b;
#X obj 54 39 t a a, f 18;
#X obj 232 109 t b;
#X obj 232 133 0;
#X obj 54 215 +, f 11;
#X obj 177 131 1;
#X obj 177 83 moses 60;
#X text 247 79 low note boost;
#X connect 0 0 7 0;
#X connect 2 0 5 0;
#X connect 3 0 4 0;
#X connect 3 1 4 1;
#X connect 4 0 10 0;
#X connect 5 0 3 0;
#X connect 6 0 11 0;
#X connect 7 0 2 0;
#X connect 7 1 12 0;
#X connect 8 0 9 0;
#X connect 9 0 10 1;
#X connect 10 0 1 0;
#X connect 11 0 10 1;
#X connect 12 0 6 0;
#X connect 12 1 8 0;
#X restore 258 230 pd note-rel-gain;
#X text 163 30 midi;
#X obj 121 96 t a a, f 17;
#X obj 121 54 clip 1 127;
#X obj 625 16 inlet;
#X obj 120 118 sig~;
#X obj 120 142 +~, f 16;
#X obj 657 65 pack 0 10;
#X obj 657 89 line~;
#X obj 121 176 mtof~;
#X obj 411 200 pack 0 10;
#X obj 411 128 * 200;
#X obj 625 40 t a a;
#X obj 258 178 +;
#X obj 39 471 *~;
#X obj 56 440 vline~;
#X obj 56 414 pack 0 10;
#X obj 39 520 *~;
#X obj 411 78 pow 2;
#X obj 40 560 cg-limiter~ 0.7 12;
#X connect 0 0 5 0;
#X connect 1 0 16 0;
#X connect 2 0 7 0;
#X connect 4 0 3 0;
#X connect 5 0 6 0;
#X connect 6 0 27 0;
#X connect 7 0 31 0;
#X connect 8 0 9 0;
#X connect 8 1 11 0;
#X connect 9 0 23 0;
#X connect 10 0 5 2;
#X connect 10 1 6 2;
#X connect 11 0 30 1;
#X connect 12 0 10 0;
#X connect 13 0 29 0;
#X connect 15 0 18 0;
#X connect 15 1 26 0;
#X connect 16 0 15 0;
#X connect 17 0 25 0;
#X connect 18 0 19 0;
#X connect 19 0 22 0;
#X connect 20 0 21 0;
#X connect 21 0 19 1;
#X connect 22 0 5 1;
#X connect 22 0 6 1;
#X connect 23 0 12 0;
#X connect 24 0 8 0;
#X connect 25 0 26 1;
#X connect 25 1 20 0;
#X connect 26 0 13 0;
#X connect 27 0 30 0;
#X connect 28 0 27 1;
#X connect 29 0 28 0;
#X connect 30 0 32 0;
#X connect 31 0 24 0;
#X connect 32 0 4 0;
