#N canvas 718 189 587 750 12;
#X obj 235 30 inlet;
#X obj 235 188 s \$0-step;
#X obj 290 154 s \$0-ticks;
#X obj 12 21 inlet;
#X text 56 22 start/stop;
#X obj 11 139 r \$0-ticks;
#X obj 11 223 spigot;
#X text 13 112 count ticks;
#X obj 11 247 t b;
#X obj 11 271 f, f 7;
#X obj 90 273 + 1;
#X obj 80 205 r \$0-reset;
#X obj 80 229 0;
#X obj 235 108 * 360;
#X obj 235 132 i;
#X obj 235 156 - 1;
#X obj 11 335 >=;
#X obj 29 309 r \$0-step;
#X obj 122 457 f;
#X obj 166 458 + 1;
#X text 195 348 main count;
#X obj 345 124 s \$0-loop;
#X obj 11 359 sel 1;
#X obj 140 374 r \$0-reset;
#X obj 140 408 0;
#X obj 124 622 outlet;
#X obj 12 85 s \$0-valve;
#X obj 50 173 r \$0-valve;
#X obj 166 482 moses, f 8;
#X obj 219 428 r \$0-loop;
#X obj 219 510 t b;
#X obj 219 534 0;
#X obj 166 565 f;
#X obj 235 54 route step ticks loop reset, f 32;
#X obj 400 91 s \$0-reset;
#X obj 235 78 f \$1;
#X obj 12 45 t a a;
#X obj 127 84 sel 1;
#X obj 345 96 f \$2;
#X text 347 246 Arg1: Steps;
#X text 347 276 Arg2: Loop;
#X obj 127 108 t b b b;
#X obj 173 208 s \$0-reset;
#X obj 11 383 t b b;
#X connect 0 0 33 0;
#X connect 3 0 36 0;
#X connect 5 0 6 0;
#X connect 6 0 8 0;
#X connect 8 0 9 0;
#X connect 9 0 10 0;
#X connect 9 0 16 0;
#X connect 10 0 9 1;
#X connect 11 0 12 0;
#X connect 12 0 9 1;
#X connect 13 0 14 0;
#X connect 14 0 15 0;
#X connect 15 0 1 0;
#X connect 16 0 22 0;
#X connect 17 0 16 1;
#X connect 18 0 19 0;
#X connect 18 0 25 0;
#X connect 19 0 28 0;
#X connect 22 0 43 0;
#X connect 23 0 24 0;
#X connect 24 0 18 1;
#X connect 27 0 6 1;
#X connect 28 0 32 0;
#X connect 28 1 30 0;
#X connect 29 0 28 1;
#X connect 30 0 31 0;
#X connect 31 0 32 0;
#X connect 32 0 18 1;
#X connect 33 0 35 0;
#X connect 33 1 2 0;
#X connect 33 2 38 0;
#X connect 33 3 34 0;
#X connect 35 0 13 0;
#X connect 36 0 26 0;
#X connect 36 1 37 0;
#X connect 37 0 41 0;
#X connect 38 0 21 0;
#X connect 41 0 38 0;
#X connect 41 1 35 0;
#X connect 41 2 42 0;
#X connect 43 0 12 0;
#X connect 43 1 18 0;
