#N canvas 353 227 1276 698 10;
#X obj 33 20 inlet;
#X obj 33 84 t b a;
#X text 71 18 note div;
#X obj 33 143 s \$0-up;
#X obj 163 20 inlet;
#X obj 163 109 t b a;
#X obj 163 168 s \$0-up;
#X obj 313 20 inlet;
#X obj 313 54 t b a;
#X obj 313 158 s \$0-up;
#X text 201 18 note amount;
#X text 351 18 bpm;
#X text 404 21 Arg1: max ms amount;
#X obj 340 107 /, f 11;
#X obj 340 83 swap 240000;
#N canvas 4 50 1182 626 divisions 0;
#X obj 37 37 inlet;
#X text 148 42 1 \, 2 \, 3 \, 4 \, 6 \, 8 \, 12 \, 16 \, 24 \, 32;
#X obj 37 56 * 10;
#X obj 37 76 + 0.49999;
#X obj 37 95 i;
#X obj 37 115 sel 0 1 2 3 4 5 6 7 8 9, f 59;
#X obj 37 144 1;
#X obj 72 144 2;
#X obj 107 144 3;
#X obj 142 144 4;
#X obj 177 144 6;
#X obj 212 144 8;
#X obj 247 144 12;
#X obj 282 144 16;
#X obj 317 144 24;
#X obj 352 144 32;
#X obj 36 205 outlet;
#X connect 0 0 2 0;
#X connect 2 0 3 0;
#X connect 3 0 4 0;
#X connect 4 0 5 0;
#X connect 5 0 6 0;
#X connect 5 1 7 0;
#X connect 5 2 8 0;
#X connect 5 3 9 0;
#X connect 5 4 10 0;
#X connect 5 5 11 0;
#X connect 5 6 12 0;
#X connect 5 7 13 0;
#X connect 5 8 14 0;
#X connect 5 9 15 0;
#X connect 6 0 16 0;
#X connect 7 0 16 0;
#X connect 8 0 16 0;
#X connect 9 0 16 0;
#X connect 10 0 16 0;
#X connect 11 0 16 0;
#X connect 12 0 16 0;
#X connect 13 0 16 0;
#X connect 14 0 16 0;
#X connect 15 0 16 0;
#X restore 532 90 pd divisions;
#X obj 339 133 v \$0-bpm;
#X obj 190 138 v \$0-amt;
#X obj 59 112 v \$0-div;
#N canvas 711 134 1205 859 calc 0;
#X obj 22 10 r \$0-up;
#X text 84 47 how long is one note?;
#X obj 22 78 v \$0-bpm;
#X obj 22 108 /, f 9;
#X obj 80 78 v \$0-div;
#X obj 22 50 t b b, f 9;
#X obj 43 152 f \$1;
#X obj 22 174 swap;
#X obj 22 198 /;
#X text 62 195 max amount of notes;
#X obj 21 244 v \$0-amt;
#X obj 21 268 *, f 13;
#X obj 21 288 + 0.49999;
#X obj 21 307 i;
#X text 99 244 note amount;
#X text 134 388 times the note length;
#X obj 22 127 t a b a, f 13;
#X obj 21 387 *, f 18;
#X obj 21 412 outlet;
#X obj 296 373 outlet;
#X text 339 373 outlet max note amount for printing;
#X obj 21 326 max 1;
#X text 60 326 at least 1;
#X obj 22 217 t b a, f 12;
#X obj 21 347 t a a, f 42;
#X connect 0 0 5 0;
#X connect 2 0 3 0;
#X connect 3 0 16 0;
#X connect 4 0 3 1;
#X connect 5 0 2 0;
#X connect 5 1 4 0;
#X connect 6 0 7 1;
#X connect 7 0 8 0;
#X connect 7 1 8 1;
#X connect 8 0 23 0;
#X connect 10 0 11 0;
#X connect 11 0 12 0;
#X connect 12 0 13 0;
#X connect 13 0 21 0;
#X connect 16 0 7 0;
#X connect 16 1 6 0;
#X connect 16 2 17 1;
#X connect 17 0 18 0;
#X connect 21 0 24 0;
#X connect 23 0 10 0;
#X connect 23 1 11 1;
#X connect 24 0 17 0;
#X connect 24 1 19 0;
#X restore 70 225 pd calc;
#X f 34;
#X obj 70 269 outlet;
#X obj 163 54 clip 0 1;
#X text 113 269 delay time;
#X obj 271 267 outlet;
#X text 315 267 print relative note amount;
#X connect 0 0 1 0;
#X connect 1 0 3 0;
#X connect 1 1 18 0;
#X connect 4 0 21 0;
#X connect 5 0 6 0;
#X connect 5 1 17 0;
#X connect 7 0 8 0;
#X connect 8 0 9 0;
#X connect 8 1 14 0;
#X connect 13 0 16 0;
#X connect 14 0 13 0;
#X connect 14 1 13 1;
#X connect 19 0 20 0;
#X connect 19 1 23 0;
#X connect 21 0 5 0;
