#N canvas 926 162 605 814 12;
#X obj 56 15 inlet~;
#X obj 56 551 outlet~;
#X text 124 522 outlet gain adjust in rms, f 26;
#X obj 172 68 env~ 512;
#X obj 197 158 r \$0-thresh;
#X obj 197 287 r \$0-thresh;
#X obj 197 221 r \$0-ratio;
#X obj 55 505 *~;
#X obj 172 92 dbtorms;
#X obj 407 209 + 0;
#X obj 172 378 /;
#X obj 172 427 pack 0 5;
#X obj 172 451 line~;
#X obj 172 402 clip 0 1;
#X obj 326 5 inlet;
#X obj 326 29 route thresh ratio;
#X obj 326 53 s \$0-thresh;
#X obj 394 93 s \$0-ratio;
#X obj 172 186 - \$1;
#X obj 172 251 / \$2;
#X obj 172 314 + \$1;
#X obj 172 116 t a a, f 18;
#X connect 0 0 3 0;
#X connect 0 0 7 0;
#X connect 3 0 8 0;
#X connect 4 0 18 1;
#X connect 5 0 20 1;
#X connect 6 0 19 1;
#X connect 7 0 1 0;
#X connect 8 0 21 0;
#X connect 9 0 10 1;
#X connect 10 0 13 0;
#X connect 11 0 12 0;
#X connect 12 0 7 1;
#X connect 13 0 11 0;
#X connect 14 0 15 0;
#X connect 15 0 16 0;
#X connect 15 1 17 0;
#X connect 18 0 19 0;
#X connect 19 0 20 0;
#X connect 20 0 10 0;
#X connect 21 0 18 0;
#X connect 21 1 9 0;
