#N canvas 270 388 1527 611 12;
#X obj 778 542 s oscOut;
#X obj 864 309 until;
#X obj 864 341 f;
#X obj 897 341 + 1;
#X msg 912 309 0;
#X obj 864 252 t b b, f 7;
#X msg 864 280 14;
#X obj 864 365 * 9;
#X obj 610 264 until;
#X obj 610 292 f;
#X obj 643 292 + 1;
#X msg 669 255 0;
#X obj 650 356 * 9;
#X msg 610 233 14;
#X obj 610 324 sel 2 6 9 13 14;
#X obj 627 161 t b b b, f 56;
#X obj 1016 288 s oscOut;
#X obj 44 95 unpack, f 24;
#X obj 44 281 unpack;
#X obj 44 482 s oscOut;
#X obj 44 359 pack 0 0 0, f 14;
#X obj 1056 46 loadbang;
#X obj 746 424 + 10;
#X obj 650 415 pack 0 0;
#X obj 703 362 loadbang;
#X obj 864 409 pack 0 0;
#X obj 44 27 inlet;
#X obj 209 282 sel 0;
#X msg 209 304 0;
#X obj 241 303 b;
#X msg 241 325 1;
#X obj 91 317 + \$1;
#X obj 1016 196 \$1;
#X obj 703 384 \$1;
#X msg 650 466 /oled/gCircle 3 \$1 \$2 3 1;
#X msg 864 466 /oled/gCircle 3 \$1 \$2 3 1;
#X msg 44 445 /oled/gFilledCircle 3 \$1 \$2 2 \$3;
#X obj 44 318 + 1;
#X obj 865 387 + 4;
#X obj 650 382 + 9;
#X obj 627 76 inlet;
#X text 671 76 bang to redraw;
#X msg 1056 78 3 10 \\\; 8 0 \\\; 12 10 \\\; 17 0 \\\; 21 10 \\\; 30
10 \\\; 35 0 \\\; 39 10 \\\; 44 0 \\\; 48 10 \\\; 53 0 \\\; 57 10 \\\;
66 10 \\\; 71 0 \\\; 75 10 \\\; 80 0 \\\; 84 10 \\\; 93 10 \\\; 98
0 \\\; 102 10 \\\; 107 0 \\\; 111 10 \\\; 116 0 \\\; 120 10 \\\;;
#X obj 1056 144 text fromlist \$0-diagram;
#X obj 1055 180 text define \$0-diagram;
#X obj 44 231 text get \$0-diagram;
#X obj 627 195 t b b;
#X text 87 28 fill in keyboard space;
#X obj 302 29 inlet;
#X text 344 32 highlight;
#X obj 302 91 unpack, f 24;
#X obj 302 277 unpack;
#X obj 302 478 s oscOut;
#X obj 302 355 pack 0 0 0, f 14;
#X obj 467 278 sel 0;
#X msg 467 300 0;
#X obj 499 299 b;
#X msg 499 321 1;
#X obj 349 313 + \$1;
#X obj 302 314 + 1;
#X obj 302 227 text get \$0-diagram;
#X msg 302 441 /oled/gCircle 3 \$1 \$2 4 \$3;
#X obj 1016 227 - 5;
#X msg 1016 260 /oled/gFillArea 3 0 \$1 128 20 0;
#X text 827 8 Arg1: Y Position;
#X connect 1 0 2 0;
#X connect 2 0 3 0;
#X connect 2 0 7 0;
#X connect 3 0 2 1;
#X connect 4 0 2 1;
#X connect 5 0 6 0;
#X connect 5 1 4 0;
#X connect 6 0 1 0;
#X connect 7 0 38 0;
#X connect 8 0 9 0;
#X connect 9 0 10 0;
#X connect 9 0 14 0;
#X connect 10 0 9 1;
#X connect 11 0 9 1;
#X connect 12 0 39 0;
#X connect 13 0 8 0;
#X connect 14 5 12 0;
#X connect 15 0 46 0;
#X connect 15 1 5 0;
#X connect 15 2 32 0;
#X connect 17 0 45 0;
#X connect 17 1 27 0;
#X connect 18 0 37 0;
#X connect 18 1 31 0;
#X connect 20 0 36 0;
#X connect 21 0 42 0;
#X connect 22 0 25 1;
#X connect 23 0 34 0;
#X connect 24 0 33 0;
#X connect 25 0 35 0;
#X connect 26 0 17 0;
#X connect 27 0 28 0;
#X connect 27 1 29 0;
#X connect 28 0 20 2;
#X connect 29 0 30 0;
#X connect 30 0 20 2;
#X connect 31 0 20 1;
#X connect 32 0 62 0;
#X connect 33 0 23 1;
#X connect 33 0 22 0;
#X connect 34 0 0 0;
#X connect 35 0 0 0;
#X connect 36 0 19 0;
#X connect 37 0 20 0;
#X connect 38 0 25 0;
#X connect 39 0 23 0;
#X connect 40 0 15 0;
#X connect 42 0 43 0;
#X connect 45 0 18 0;
#X connect 46 0 13 0;
#X connect 46 1 11 0;
#X connect 48 0 50 0;
#X connect 50 0 60 0;
#X connect 50 1 54 0;
#X connect 51 0 59 0;
#X connect 51 1 58 0;
#X connect 53 0 61 0;
#X connect 54 0 55 0;
#X connect 54 1 56 0;
#X connect 55 0 53 2;
#X connect 56 0 57 0;
#X connect 57 0 53 2;
#X connect 58 0 53 1;
#X connect 59 0 53 0;
#X connect 60 0 51 0;
#X connect 61 0 52 0;
#X connect 62 0 63 0;
#X connect 63 0 16 0;
