#N canvas 842 221 765 522 12;
#X text 471 28 an attempt at simplyfing page management;
#X obj 179 54 inlet;
#X text 517 79 Arg1: Page Number;
#X text 225 55 Page number select;
#X text 517 107 Arg2: Page System Name;
#X obj 179 88 clip 1 \$1;
#X obj 179 122 i;
#X text 254 88 1 - Page Number;
#X text 214 122 convert to integer;
#X obj 379 60 inlet;
#N canvas 295 320 651 360 messages 0;
#X obj 37 37 inlet;
#X obj 37 85 1;
#X obj 134 127 0;
#X obj 37 239 s \$0-read/write;
#X obj 102 97 t b b;
#N canvas 4 50 450 424 init-sequence 0;
#X obj 178 166 f \$1;
#X obj 178 190 t a b;
#X obj 224 244 1;
#X obj 178 244 until;
#X obj 178 214 max 1;
#X obj 178 271 f;
#X obj 211 268 + 1;
#X obj 133 344 text get \$0-page;
#X obj 133 306 0;
#X obj 133 368 s \$0-init-page;
#X obj 54 14 inlet;
#X obj 180 302 s \$0-init-page-seq;
#X obj 263 169 s \$0-mute;
#X obj 263 134 1;
#X obj 28 365 s \$0-r-knob;
#X obj 25 322 1;
#X obj 91 99 t b b b b, f 25;
#X connect 0 0 1 0;
#X connect 1 0 4 0;
#X connect 1 1 2 0;
#X connect 2 0 5 1;
#X connect 3 0 5 0;
#X connect 4 0 3 0;
#X connect 5 0 6 0;
#X connect 5 0 11 0;
#X connect 6 0 5 1;
#X connect 7 0 9 0;
#X connect 8 0 7 0;
#X connect 10 0 16 0;
#X connect 13 0 12 0;
#X connect 15 0 14 0;
#X connect 16 0 15 0;
#X connect 16 1 8 0;
#X connect 16 2 0 0;
#X connect 16 3 13 0;
#X restore 102 168 pd init-sequence;
#X obj 37 59 route write init mute, f 35;
#X obj 217 134 s \$0-mute;
#X connect 0 0 6 0;
#X connect 1 0 3 0;
#X connect 2 0 3 0;
#X connect 4 0 5 0;
#X connect 4 1 2 0;
#X connect 6 0 1 0;
#X connect 6 1 4 0;
#X connect 6 2 7 0;
#X restore 379 84 pd messages;
#N canvas 508 318 932 641 knobs 0;
#X obj 100 238 symbol \$2;
#X msg 33 303 \; \$3-\$2-knob1 \$1;
#X obj 34 33 r knob1;
#X obj 239 268 pack 0 2 s;
#X obj 306 243 symbol \$2;
#X obj 216 43 r knob2;
#X obj 33 263 pack 0 1 s;
#X msg 239 308 \; \$3-\$2-knob2 \$1;
#X obj 473 246 symbol \$2;
#X obj 650 246 symbol \$2;
#X obj 383 41 r knob3;
#X obj 560 41 r knob4;
#X msg 583 311 \; \$3-\$2-knob4 \$1;
#X msg 406 311 \; \$3-\$2-knob3 \$1;
#X obj 406 271 pack 0 3 s;
#X obj 583 271 pack 0 4 s;
#X obj 214 397 t b a;
#X obj 274 397 t b a;
#X obj 336 397 t b a;
#X obj 153 448 pack 0 0 0 0, f 28;
#X obj 153 584 text set \$0-page;
#X obj 153 472 t a b;
#X obj 185 525 sel 0;
#X obj 185 502 i;
#X obj 34 201 t a a b;
#X obj 216 206 t a a b;
#X obj 383 209 t a a b;
#X obj 560 209 t a a b;
#X text 294 552 update the page line;
#X obj 12 5 r \$0-up-k1;
#X obj 192 10 r \$0-up-k2;
#X obj 365 12 r \$0-up-k3;
#X obj 529 15 r \$0-up-k4;
#X obj 87 125 r \$0-mute;
#X obj 267 135 r \$0-mute;
#X obj 437 135 r \$0-mute;
#X obj 617 135 r \$0-mute;
#X obj 34 154 spigot 0;
#X obj 214 164 spigot 0;
#X obj 384 164 spigot 0;
#X obj 564 164 spigot 0;
#X obj 102 200 r sel-page-\$0;
#X obj 280 206 r sel-page-\$0;
#X obj 455 206 r sel-page-\$0;
#X obj 634 204 r sel-page-\$0;
#X obj 203 474 r sel-page-\$0;
#X obj 34 57 spigot 0;
#X obj 94 30 r \$0-r-knob;
#X obj 215 73 spigot 0;
#X obj 275 46 r \$0-r-knob;
#X obj 383 80 spigot 0;
#X obj 443 53 r \$0-r-knob;
#X obj 559 82 spigot 0;
#X obj 619 55 r \$0-r-knob;
#X connect 0 0 6 2;
#X connect 2 0 46 0;
#X connect 3 0 7 0;
#X connect 4 0 3 2;
#X connect 5 0 48 0;
#X connect 6 0 1 0;
#X connect 8 0 14 2;
#X connect 9 0 15 2;
#X connect 10 0 50 0;
#X connect 11 0 52 0;
#X connect 14 0 13 0;
#X connect 15 0 12 0;
#X connect 16 0 19 0;
#X connect 16 1 19 1;
#X connect 17 0 19 0;
#X connect 17 1 19 2;
#X connect 18 0 19 0;
#X connect 18 1 19 3;
#X connect 19 0 21 0;
#X connect 21 0 20 0;
#X connect 21 1 23 0;
#X connect 22 1 20 1;
#X connect 23 0 22 0;
#X connect 24 0 19 0;
#X connect 24 1 6 0;
#X connect 24 2 0 0;
#X connect 25 0 16 0;
#X connect 25 1 3 0;
#X connect 25 2 4 0;
#X connect 26 0 17 0;
#X connect 26 1 14 0;
#X connect 26 2 8 0;
#X connect 27 0 18 0;
#X connect 27 1 15 0;
#X connect 27 2 9 0;
#X connect 29 0 37 0;
#X connect 30 0 38 0;
#X connect 31 0 39 0;
#X connect 32 0 40 0;
#X connect 33 0 37 1;
#X connect 34 0 38 1;
#X connect 35 0 39 1;
#X connect 36 0 40 1;
#X connect 37 0 24 0;
#X connect 38 0 25 0;
#X connect 39 0 26 0;
#X connect 40 0 27 0;
#X connect 41 0 6 1;
#X connect 42 0 3 1;
#X connect 43 0 14 1;
#X connect 44 0 15 1;
#X connect 45 0 23 1;
#X connect 46 0 37 0;
#X connect 47 0 46 1;
#X connect 48 0 38 0;
#X connect 49 0 48 1;
#X connect 50 0 39 0;
#X connect 51 0 50 1;
#X connect 52 0 40 0;
#X connect 53 0 52 1;
#X restore 430 285 pd knobs;
#X text 518 133 Arg3: Relative Path to save;
#N canvas 323 395 450 459 page-change 0;
#X obj 26 11 inlet;
#X text 100 10 when page is changed;
#X text 96 33 send out saved params for new page;
#X obj 26 179 text get \$0-page;
#X obj 26 208 unpack 0 0 0 0, f 22;
#X obj 26 332 s \$0-up-k1;
#X obj 97 297 s \$0-up-k2;
#X obj 125 264 s \$0-up-k3;
#X obj 182 239 s \$0-up-k4;
#X connect 0 0 3 0;
#X connect 3 0 4 0;
#X connect 4 0 5 0;
#X connect 4 1 6 0;
#X connect 4 2 7 0;
#X connect 4 3 8 0;
#X restore 38 469 pd page-change;
#X obj 219 367 text set \$0-page;
#X obj 219 298 t a b;
#X obj 251 334 0;
#N canvas 467 316 677 402 text-save 0;
#X obj 30 306 text define \$0-page;
#X obj 29 101 symbol \$3;
#X obj 108 102 symbol \$2;
#X obj 29 242 pack s s s, f 13;
#X obj 29 57 t b b a, f 23;
#X obj 187 99 sel 0 1;
#X msg 187 156 symbol read;
#X msg 210 130 symbol write;
#X obj 29 32 r \$0-read/write;
#X msg 30 273 \$3 \$1\$2-save.txt;
#X text 176 303 1st line is page number;
#X connect 1 0 3 0;
#X connect 2 0 3 1;
#X connect 3 0 9 0;
#X connect 4 0 1 0;
#X connect 4 1 2 0;
#X connect 4 2 5 0;
#X connect 5 0 6 0;
#X connect 5 1 7 0;
#X connect 6 0 3 2;
#X connect 7 0 3 2;
#X connect 8 0 4 0;
#X connect 9 0 0 0;
#X restore 431 322 pd text-save;
#X obj 430 207 r \$0-init-page;
#X obj 430 248 outlet;
#X text 475 248 init page number out;
#X obj 38 235 r \$0-init-page-seq;
#X obj 38 259 t a a;
#X obj 199 433 s sel-page-\$0;
#X obj 199 405 clip 1 \$1;
#X obj 272 283 s oscOut;
#X msg 272 234 /oled/gClear 3 1;
#X obj 311 172 r \$0-mute;
#X obj 272 208 spigot;
#X obj 179 167 t a a a b;
#X connect 1 0 5 0;
#X connect 5 0 6 0;
#X connect 6 0 29 0;
#X connect 9 0 10 0;
#X connect 15 0 14 0;
#X connect 15 1 16 0;
#X connect 16 0 14 1;
#X connect 18 0 19 0;
#X connect 21 0 22 0;
#X connect 22 0 13 0;
#X connect 22 1 23 0;
#X connect 24 0 23 0;
#X connect 26 0 25 0;
#X connect 27 0 28 1;
#X connect 28 0 26 0;
#X connect 29 1 24 0;
#X connect 29 2 15 0;
#X connect 29 3 28 0;
