#N canvas 689 323 1006 581 12;
#X obj 20 20 inlet~;
#X obj 126 20 inlet~;
#X obj 221 44 inlet;
#N canvas 954 391 450 288 make-triangle 0;
#X obj 39 11 inlet;
#X obj 39 139 * 2;
#X obj 139 88 - 0.5;
#X obj 139 112 * 2;
#X obj 139 136 swap 1;
#X obj 139 160 -;
#X obj 39 35 t a a;
#X obj 139 59 clip 0.5 1;
#X obj 39 115 clip 0 0.5;
#X obj 39 233 outlet;
#X obj 139 224 outlet;
#X connect 0 0 6 0;
#X connect 1 0 9 0;
#X connect 2 0 3 0;
#X connect 3 0 4 0;
#X connect 4 0 5 0;
#X connect 4 1 5 1;
#X connect 5 0 10 0;
#X connect 6 0 8 0;
#X connect 6 1 7 0;
#X connect 7 0 2 0;
#X connect 8 0 1 0;
#X restore 221 227 pd make-triangle;
#X obj 221 325 clip 0 1;
#X obj 235 262 t b a;
#X obj 331 325 clip 0 1;
#X obj 345 262 t b a;
#X obj 380 193 t a a;
#X obj 331 301 * \$1, f 7;
#X obj 221 301 * \$1, f 7;
#X obj 20 424 *~;
#X obj 126 471 *~;
#X obj 44 438 line~;
#X obj 149 439 line~;
#X obj 20 508 outlet~;
#X obj 44 414 pack 0 1;
#X obj 149 415 pack 0 1;
#X text 340 1 a linear crossfader with steepness control;
#X obj 380 69 inlet;
#X text 340 28 Arg 1: steepness ( 1 - inf ) 10 is pretty steep;
#X obj 221 68 clip 0 1;
#X obj 380 93 clip 0 1;
#X obj 380 141 * 49;
#X obj 380 165 + 1;
#X obj 381 117 pow 4;
#X connect 0 0 11 0;
#X connect 1 0 12 0;
#X connect 2 0 21 0;
#X connect 3 0 10 0;
#X connect 3 1 9 0;
#X connect 4 0 17 0;
#X connect 5 0 10 0;
#X connect 5 1 10 1;
#X connect 6 0 16 0;
#X connect 7 0 9 0;
#X connect 7 1 9 1;
#X connect 8 0 5 0;
#X connect 8 1 7 0;
#X connect 9 0 6 0;
#X connect 10 0 4 0;
#X connect 11 0 15 0;
#X connect 12 0 15 0;
#X connect 13 0 11 1;
#X connect 14 0 12 1;
#X connect 16 0 13 0;
#X connect 17 0 14 0;
#X connect 19 0 22 0;
#X connect 21 0 3 0;
#X connect 22 0 25 0;
#X connect 23 0 24 0;
#X connect 24 0 8 0;
#X connect 25 0 23 0;
