#N canvas 4 50 1358 682 12;
#X declare -path cg-pd-library-local/sampling;
#X declare -path cg-pd-library-local/sequencer;
#X declare -path cg-pd-library-local/externals;
#X declare -path cg-pd-library-local/metronome;
#X obj 336 716 throw~ outL;
#X obj 518 718 throw~ outR;
#N canvas 647 68 552 392 load 0;
#X obj 67 34 loadbang;
#X obj 8 29 inlet;
#X obj 197 147 s init-aux;
#X obj 175 177 s init-pages;
#X obj 110 347 s midiOutGate;
#X obj 110 321 0;
#X text 144 323 mute midi/cc out;
#X obj 132 246 s init-q-table;
#X obj 15 210 s init-vol;
#X obj 153 208 s init-adsr;
#X obj 67 115 t b b b b b b b, f 19;
#X obj 110 296 del 1000;
#X connect 0 0 10 0;
#X connect 1 0 10 0;
#X connect 5 0 4 0;
#X connect 10 0 8 0;
#X connect 10 2 11 0;
#X connect 10 3 7 0;
#X connect 10 4 9 0;
#X connect 10 5 3 0;
#X connect 10 6 2 0;
#X connect 11 0 5 0;
#X restore 31 46 pd load;
#X text 90 46 init sequence;
#X text 198 76 critter library of abstractions;
#N canvas 129 187 450 300 cg-pd-library-local 0;
#X obj 502 35 r cgSc-1-slots;
#X obj 60 68 declare -path cg-pd-library-local/sampling;
#X obj 60 98 declare -path cg-pd-library-local/sequencer;
#X obj 58 130 declare -path cg-pd-library-local/externals;
#X obj 59 165 declare -path cg-pd-library-local/metronome;
#X restore 31 76 pd cg-pd-library-local;
#N canvas 533 412 240 229 knobs 0;
#N canvas 0 136 1440 729 page3-knobs 0;
#X obj 415 213 t a a;
#X obj 447 240 * 100;
#X obj 447 264 i;
#X obj 415 402 s global-mix;
#X obj 498 234 r cgSc-1-mute-print;
#X obj 549 271 r current-page;
#X obj 447 305 cg-page-print 3;
#X obj 50 165 t a a;
#X obj 150 266 * 100;
#X obj 150 290 i;
#X obj 201 250 r cgSc-1-mute-print;
#X obj 252 287 r current-page;
#X obj 50 362 s global-q;
#X obj 150 321 cg-page-print 3;
#X obj 836 300 r cgSc-1-mute-print;
#X obj 887 337 r current-page;
#X obj 785 269 pack 0 0;
#X obj 785 213 * 100;
#X obj 785 239 i;
#X obj 732 472 s global-noise-mix;
#X obj 785 371 cg-page-print 3;
#X obj 732 145 t a a, f 8;
#X obj 50 123 r freeze-3-knob1;
#X msg 150 368 1: Resonance: \$1%;
#X obj 150 399 s screenLine1;
#X obj 447 362 s screenLine2;
#X msg 447 332 2: Dry/Wet: \$1%;
#X obj 415 137 r freeze-3-knob2;
#X obj 732 82 r freeze-3-knob3;
#X msg 785 402 3: Noise Mix: \$1%;
#X obj 785 437 s screenLine3;
#X obj 1182 105 r freeze-3-knob4;
#X obj 1286 321 r cgSc-1-mute-print;
#X obj 1337 358 r current-page;
#X obj 1235 290 pack 0 0;
#X obj 1235 234 * 100;
#X obj 1235 260 i;
#X obj 1235 392 cg-page-print 3;
#X obj 1182 166 t a a, f 8;
#X msg 1235 423 4: Duration: \$1%;
#X obj 1182 129 * 4;
#X obj 1235 458 s screenLine4;
#X obj 1182 493 s duration;
#X connect 0 0 3 0;
#X connect 0 1 1 0;
#X connect 1 0 2 0;
#X connect 2 0 6 0;
#X connect 4 0 6 1;
#X connect 5 0 6 2;
#X connect 6 0 26 0;
#X connect 7 0 12 0;
#X connect 7 1 8 0;
#X connect 8 0 9 0;
#X connect 9 0 13 0;
#X connect 10 0 13 1;
#X connect 11 0 13 2;
#X connect 13 0 23 0;
#X connect 14 0 20 1;
#X connect 15 0 20 2;
#X connect 16 0 20 0;
#X connect 17 0 18 0;
#X connect 18 0 16 0;
#X connect 20 0 29 0;
#X connect 21 0 19 0;
#X connect 21 1 17 0;
#X connect 22 0 7 0;
#X connect 23 0 24 0;
#X connect 26 0 25 0;
#X connect 27 0 0 0;
#X connect 28 0 21 0;
#X connect 29 0 30 0;
#X connect 31 0 40 0;
#X connect 32 0 37 1;
#X connect 33 0 37 2;
#X connect 34 0 37 0;
#X connect 35 0 36 0;
#X connect 36 0 34 0;
#X connect 37 0 39 0;
#X connect 38 0 42 0;
#X connect 38 1 35 0;
#X connect 39 0 41 0;
#X connect 40 0 38 0;
#X restore 34 133 pd page3-knobs;
#N canvas 4 25 1358 847 page2-knobs 0;
#X obj 720 163 r cgSc-1-mute-print;
#X obj 771 199 r current-page;
#X text 659 58 set burst time \, note divv;
#N canvas 4 50 699 778 beat-div 0;
#X obj 68 364 0.25;
#X obj 108 345 0.3333;
#X obj 157 322 0.5;
#X obj 194 323 1;
#X obj 230 321 2;
#X obj 68 186 + 0.49999;
#X obj 68 210 i;
#X obj 54 477 t a;
#X text 49 404 comment;
#X msg 290 427 16th;
#X msg 336 427 12th;
#X msg 399 411 8th;
#X msg 484 362 Half;
#X msg 515 332 Whole;
#X obj 279 325 4;
#X obj 399 478 symbol;
#X obj 82 93 inlet;
#X obj 399 502 outlet;
#X text 451 501 symbol;
#X obj 54 501 outlet;
#X text 113 500 float;
#X obj 68 258 sel 1 2 3 4 5 6 0, f 40;
#X obj 337 330 0.125;
#X msg 474 287 32nd;
#X obj 68 162 * 6;
#X msg 423 386 Qtr;
#X connect 0 0 7 0;
#X connect 1 0 7 0;
#X connect 2 0 7 0;
#X connect 3 0 7 0;
#X connect 4 0 7 0;
#X connect 5 0 6 0;
#X connect 6 0 21 0;
#X connect 7 0 19 0;
#X connect 9 0 15 0;
#X connect 10 0 15 0;
#X connect 11 0 15 0;
#X connect 12 0 15 0;
#X connect 13 0 15 0;
#X connect 14 0 7 0;
#X connect 15 0 17 0;
#X connect 16 0 24 0;
#X connect 21 0 9 0;
#X connect 21 0 0 0;
#X connect 21 1 1 0;
#X connect 21 1 10 0;
#X connect 21 2 2 0;
#X connect 21 2 11 0;
#X connect 21 3 3 0;
#X connect 21 3 25 0;
#X connect 21 4 4 0;
#X connect 21 4 12 0;
#X connect 21 5 14 0;
#X connect 21 5 13 0;
#X connect 21 6 22 0;
#X connect 21 6 23 0;
#X connect 22 0 7 0;
#X connect 23 0 15 0;
#X connect 24 0 5 0;
#X connect 25 0 15 0;
#X restore 595 153 pd beat-div;
#X obj 669 272 pack s 1;
#X obj 141 283 r cgSc-1-mute-print;
#X obj 192 307 r current-page;
#X obj 58 196 t a a;
#X obj 58 115 i;
#X obj 57 482 s burst-type;
#X obj 90 371 pack s 1;
#X obj 691 562 s burst-time;
#X obj 669 233 cg-page-print 2;
#X obj 90 336 cg-page-print 2;
#X obj 58 87 + 0.4999;
#X obj 58 35 r freeze-2-knob1;
#X obj 248 102 text define patternText;
#X msg 268 68 read patterns.txt;
#X obj 90 238 text get patternText;
#X obj 90 435 s screenLine1;
#X msg 90 406 1: Patt: \$1;
#X obj 90 269 list;
#X msg 223 39 write patterns.txt;
#X msg 669 300 2: Note: \$1;
#X obj 669 328 s screenLine2;
#X obj 595 28 r freeze-2-knob2;
#X obj 970 63 r freeze-2-knob3;
#X obj 970 115 * 15;
#X obj 970 139 + 1;
#X obj 970 163 i;
#X obj 970 199 t b a a;
#X obj 1067 180 r cgSc-1-mute-print;
#X obj 1118 217 r current-page;
#X obj 1016 327 s screenLine3;
#X obj 691 526 * 1;
#X obj 1016 251 cg-page-print 2;
#X msg 1016 291 3: Note Amt: \$1x;
#X obj 382 21 loadbang;
#X obj 58 63 * 16;
#X obj 1013 463 r freeze-2-knob4;
#X obj 58 139 change -1;
#X connect 0 0 12 1;
#X connect 1 0 12 2;
#X connect 3 0 34 0;
#X connect 3 1 12 0;
#X connect 4 0 23 0;
#X connect 5 0 13 1;
#X connect 6 0 13 2;
#X connect 7 0 9 0;
#X connect 7 1 18 0;
#X connect 8 0 40 0;
#X connect 10 0 20 0;
#X connect 12 0 4 0;
#X connect 13 0 10 0;
#X connect 14 0 8 0;
#X connect 15 0 38 0;
#X connect 17 0 16 0;
#X connect 18 0 21 0;
#X connect 20 0 19 0;
#X connect 21 0 13 0;
#X connect 23 0 24 0;
#X connect 25 0 3 0;
#X connect 26 0 27 0;
#X connect 27 0 28 0;
#X connect 28 0 29 0;
#X connect 29 0 30 0;
#X connect 30 0 34 0;
#X connect 30 1 34 1;
#X connect 30 2 35 0;
#X connect 31 0 35 1;
#X connect 32 0 35 2;
#X connect 34 0 11 0;
#X connect 35 0 36 0;
#X connect 36 0 33 0;
#X connect 37 0 17 0;
#X connect 38 0 14 0;
#X connect 40 0 7 0;
#X restore 38 103 pd page2-knobs;
#N canvas 0 25 1440 847 page1-knobs 0;
#X obj 186 488 i;
#X obj 186 775 s set-global-bpm;
#X obj 186 436 + 20;
#X obj 186 460 + 0.49999;
#X obj 409 508 r cgSc-1-mute-print;
#X obj 664 310 i;
#X obj 754 398 r cgSc-1-mute-print;
#X obj 1075 350 r cgSc-1-mute-print;
#X obj 664 358 t a a b;
#X obj 1024 474 sel 1 0;
#X msg 906 598 _;
#X obj 664 334 / 10;
#X obj 186 523 t a a, f 25;
#X obj 664 262 * 9;
#X obj 186 412 * 230;
#X obj 664 286 + 0.49999;
#X obj 186 729 +, f 36;
#X obj 388 675 t b a;
#X obj 806 435 r current-page;
#X obj 1126 387 r current-page;
#X obj 460 544 r current-page;
#X obj 35 43 r freeze-1-knob1;
#X obj 358 577 cg-page-print 1;
#X obj 702 468 cg-page-print 1;
#X obj 1024 419 cg-page-print 1;
#X obj 1030 166 r freeze-1-knob4;
#N canvas 4 50 1346 908 tap-tempo 0;
#X obj 699 387 del 2000;
#X msg 716 363 stop;
#X obj 627 514 timer;
#X obj 604 450 t b b b;
#X obj 604 547 f;
#X obj 780 458 1;
#X obj 699 411 t b b;
#X obj 731 443 0;
#X obj 816 340 + 1;
#X obj 604 605 swap 60000;
#X obj 604 629 /, f 10;
#X obj 604 571 spigot 0;
#X obj 604 287 t b b b b, f 21;
#X obj 780 338 f 0;
#X text 792 307 count 3x then output;
#X obj 780 427 sel 1;
#X obj 780 403 >= 3;
#X obj 816 364 clip 0 3;
#X obj 604 10 r notes;
#X obj 655 108 r cgSc-1-mute-print;
#X obj 706 145 r current-page;
#X obj 604 177 cg-page-print 1;
#X obj 604 756 outlet;
#X obj 604 677 i;
#X obj 604 653 * 10;
#X obj 604 701 * 0.1;
#X obj 604 34 spigot 0;
#X obj 710 9 inlet;
#X obj 604 251 stripnote;
#X obj 604 201 route bang;
#X connect 0 0 6 0;
#X connect 1 0 0 0;
#X connect 2 0 4 1;
#X connect 3 0 4 0;
#X connect 3 1 2 0;
#X connect 3 2 2 1;
#X connect 4 0 11 0;
#X connect 5 0 11 1;
#X connect 6 0 2 1;
#X connect 6 1 7 0;
#X connect 7 0 11 1;
#X connect 7 0 13 1;
#X connect 8 0 17 0;
#X connect 9 0 10 0;
#X connect 9 1 10 1;
#X connect 10 0 24 0;
#X connect 11 0 9 0;
#X connect 12 0 3 0;
#X connect 12 1 0 0;
#X connect 12 2 1 0;
#X connect 12 3 13 0;
#X connect 13 0 8 0;
#X connect 13 0 16 0;
#X connect 15 0 5 0;
#X connect 16 0 15 0;
#X connect 17 0 13 1;
#X connect 18 0 26 0;
#X connect 19 0 21 1;
#X connect 20 0 21 2;
#X connect 21 0 29 0;
#X connect 23 0 25 0;
#X connect 24 0 23 0;
#X connect 25 0 22 0;
#X connect 26 0 21 0;
#X connect 27 0 26 1;
#X connect 28 0 12 0;
#X connect 29 1 28 0;
#X restore 1325 126 pd tap-tempo;
#X obj 1399 356 r cgSc-1-mute-print;
#X obj 1436 382 r current-page;
#X obj 1334 414 cg-page-print 1;
#X obj 1339 512 s screenLine4;
#X msg 1334 277 Tap: \$1 BPM;
#X obj 1195 288 s set-global-bpm;
#X obj 1024 312 r tempo-manual?;
#X obj 35 78 + 0.49999;
#X obj 35 102 i;
#X obj 126 279 s screenLine1;
#X obj 177 95 r cgSc-1-mute-print;
#X obj 228 131 r current-page;
#X obj 126 164 cg-page-print 1;
#X obj 126 188 sel 0 1;
#X obj 35 126 t a a;
#X obj 555 87 r freeze-1-knob3;
#X obj 186 319 r freeze-1-knob2;
#X msg 358 614 2: Set Tempo: \$1 BPM;
#X obj 358 642 s screenLine2;
#X msg 703 504 3: Fine Adjust: \$1;
#X obj 703 532 s screenLine3;
#X obj 29 476 s \$0-bpm-input;
#X msg 126 251 1: BPM Input: Dial;
#X msg 149 224 1: BPM Input: Tap;
#X obj 312 209 r \$0-bpm-input;
#X obj 186 383 spigot;
#X obj 312 234 == 0;
#X obj 312 258 t a a, f 11;
#X obj 312 282 sel 1;
#X obj 790 54 r \$0-bpm-input;
#X obj 664 228 spigot;
#X obj 790 79 == 0;
#X obj 790 103 t a a, f 11;
#X obj 790 127 sel 1;
#X obj 1041 673 s screenLine4;
#X obj 1439 39 r \$0-bpm-input;
#X obj 1439 88 t a a, f 11;
#X obj 1439 136 sel 1;
#X obj 1439 64 == 1;
#X obj 1299 209 t a a a;
#X obj 1290 246 s \$0-update-bpm;
#X msg 1440 172 \; screenLine2 ---- Tap Any Key ---- \; screenLine3
---- To Set BPM ---- \;;
#X obj 1437 225 r \$0-bpm-input;
#X obj 1437 253 == 0;
#X msg 1437 277 _;
#X obj 356 552 f;
#X obj 695 422 f;
#X obj 400 451 i;
#X obj 459 163 r \$0-update-bpm;
#X obj 498 211 t a a;
#X obj 530 241 i;
#X obj 498 267 -;
#X obj 498 295 * 10;
#X obj 459 187 t a a;
#X obj 66 324 r tempo-manual?;
#X obj 27 388 spigot;
#X obj 64 350 t a a;
#X obj 81 413 2;
#X obj 81 389 sel 0 1;
#X obj 26 359 f;
#X msg 1041 615 --Manual BPM is Off--;
#X obj 498 319 i;
#X connect 0 0 12 0;
#X connect 2 0 3 0;
#X connect 3 0 0 0;
#X connect 4 0 22 1;
#X connect 5 0 11 0;
#X connect 6 0 23 1;
#X connect 7 0 24 1;
#X connect 8 0 17 0;
#X connect 8 1 73 0;
#X connect 9 0 10 0;
#X connect 9 1 87 0;
#X connect 10 0 61 0;
#X connect 11 0 8 0;
#X connect 12 0 16 0;
#X connect 12 1 72 0;
#X connect 13 0 15 0;
#X connect 14 0 2 0;
#X connect 15 0 5 0;
#X connect 16 0 1 0;
#X connect 17 0 16 0;
#X connect 17 1 16 1;
#X connect 18 0 23 2;
#X connect 19 0 24 2;
#X connect 20 0 22 2;
#X connect 21 0 34 0;
#X connect 22 0 44 0;
#X connect 23 0 46 0;
#X connect 24 0 9 0;
#X connect 26 0 66 0;
#X connect 27 0 29 1;
#X connect 28 0 29 2;
#X connect 29 0 30 0;
#X connect 31 0 29 0;
#X connect 33 0 24 0;
#X connect 34 0 35 0;
#X connect 35 0 41 0;
#X connect 37 0 39 1;
#X connect 38 0 39 2;
#X connect 39 0 40 0;
#X connect 40 0 49 0;
#X connect 40 1 50 0;
#X connect 41 0 86 0;
#X connect 41 1 39 0;
#X connect 42 0 57 0;
#X connect 43 0 52 0;
#X connect 44 0 45 0;
#X connect 46 0 47 0;
#X connect 49 0 36 0;
#X connect 50 0 36 0;
#X connect 51 0 53 0;
#X connect 52 0 14 0;
#X connect 53 0 54 0;
#X connect 54 0 55 0;
#X connect 54 1 52 1;
#X connect 55 0 72 0;
#X connect 56 0 58 0;
#X connect 57 0 13 0;
#X connect 58 0 59 0;
#X connect 59 0 60 0;
#X connect 59 1 57 1;
#X connect 60 0 73 0;
#X connect 62 0 65 0;
#X connect 63 0 64 0;
#X connect 63 1 26 0;
#X connect 64 0 68 0;
#X connect 65 0 63 0;
#X connect 66 0 32 0;
#X connect 66 1 67 0;
#X connect 66 2 31 0;
#X connect 69 0 70 0;
#X connect 70 0 71 0;
#X connect 71 0 29 0;
#X connect 72 0 22 0;
#X connect 73 0 23 0;
#X connect 74 0 72 1;
#X connect 75 0 80 0;
#X connect 76 0 78 0;
#X connect 76 1 77 0;
#X connect 77 0 78 1;
#X connect 78 0 79 0;
#X connect 79 0 88 0;
#X connect 80 0 74 0;
#X connect 80 1 76 0;
#X connect 81 0 83 0;
#X connect 82 0 48 0;
#X connect 83 0 85 0;
#X connect 83 1 82 1;
#X connect 84 0 48 0;
#X connect 85 0 84 0;
#X connect 85 1 86 0;
#X connect 86 0 82 0;
#X connect 87 0 61 0;
#X connect 88 0 73 1;
#X restore 31 69 pd page1-knobs;
#N canvas 0 136 1440 729 page4-knobs 0;
#X obj 1330 460 s screenLine4;
#X obj 1136 221 t a a;
#X obj 1169 248 * 100;
#X obj 1169 272 i;
#X obj 800 515 s screenLine3;
#X obj 428 177 * 15;
#X obj 428 201 + 1;
#X obj 428 225 i;
#X obj 162 685 s screenLine1;
#X obj 429 261 t b a a;
#X obj 511 581 s screenLine2;
#X obj 298 464 * 1;
#X obj 298 431 f;
#X obj 298 488 s freeze-timer;
#X obj 507 282 r cgSc-1-mute-print;
#X obj 1366 312 r cgSc-1-mute-print;
#X obj 1417 349 r current-page;
#X obj 558 319 r current-page;
#X obj 851 383 r cgSc-1-mute-print;
#X obj 902 420 r current-page;
#X obj 285 560 r cgSc-1-mute-print;
#X obj 371 593 r current-page;
#X obj 733 217 t a a a, f 10;
#X obj 778 392 pack 0 0;
#X obj 786 285 * 100;
#X obj 786 311 i;
#N canvas 4 52 698 776 beat-div 0;
#X obj 68 364 0.25;
#X obj 108 345 0.3333;
#X obj 157 322 0.5;
#X obj 194 323 1;
#X obj 230 321 2;
#X obj 68 186 + 0.49999;
#X obj 68 210 i;
#X obj 54 477 t a;
#X text 49 404 comment;
#X msg 290 427 16th;
#X msg 336 427 12th;
#X msg 399 411 8th;
#X msg 484 362 Half;
#X msg 515 332 Whole;
#X obj 279 325 4;
#X obj 399 478 symbol;
#X obj 82 93 inlet;
#X obj 399 502 outlet;
#X text 451 501 symbol;
#X obj 54 501 outlet;
#X text 113 500 float;
#X obj 67 162 * 6;
#X obj 356 305 0.125;
#X msg 455 235 32nd;
#X obj 68 258 sel 1 2 3 4 5 6 0, f 40;
#X msg 423 386 Qtr;
#X connect 0 0 7 0;
#X connect 1 0 7 0;
#X connect 2 0 7 0;
#X connect 3 0 7 0;
#X connect 4 0 7 0;
#X connect 5 0 6 0;
#X connect 6 0 24 0;
#X connect 7 0 19 0;
#X connect 9 0 15 0;
#X connect 10 0 15 0;
#X connect 11 0 15 0;
#X connect 12 0 15 0;
#X connect 13 0 15 0;
#X connect 14 0 7 0;
#X connect 15 0 17 0;
#X connect 16 0 21 0;
#X connect 21 0 5 0;
#X connect 22 0 7 0;
#X connect 23 0 15 0;
#X connect 24 0 0 0;
#X connect 24 0 9 0;
#X connect 24 1 1 0;
#X connect 24 1 10 0;
#X connect 24 2 2 0;
#X connect 24 2 11 0;
#X connect 24 3 3 0;
#X connect 24 3 25 0;
#X connect 24 4 4 0;
#X connect 24 4 12 0;
#X connect 24 5 14 0;
#X connect 24 5 13 0;
#X connect 24 6 22 0;
#X connect 24 6 23 0;
#X connect 25 0 15 0;
#X restore 28 199 pd beat-div;
#X obj 763 564 s global-del-fb;
#X obj 733 163 min 0.99;
#X obj 1128 492 s global-del-wetDry;
#X obj 28 89 r freeze-4-knob1;
#X obj 428 153 r freeze-4-knob2;
#X obj 733 140 r freeze-4-knob3;
#X obj 1134 196 r freeze-4-knob4;
#X obj 1315 383 cg-page-print 4;
#X obj 800 455 cg-page-print 4;
#X obj 456 353 cg-page-print 4;
#X obj 258 623 cg-page-print 4;
#X text 274 37 DELAY;
#X obj 139 521 t a a;
#X obj 520 476 pack s 0;
#X obj 540 444 t b a;
#X msg 511 530 2: D.Time: \$2x \$1;
#X msg 135 590 1: Del.Note: \$1;
#X msg 1330 429 4: Del.Dry/Wet: \$1%;
#X msg 800 485 3: Del.Feedback: \$1%;
#X connect 1 0 29 0;
#X connect 1 1 2 0;
#X connect 2 0 3 0;
#X connect 3 0 34 0;
#X connect 5 0 6 0;
#X connect 6 0 7 0;
#X connect 7 0 9 0;
#X connect 9 0 12 0;
#X connect 9 1 11 1;
#X connect 9 2 36 0;
#X connect 11 0 13 0;
#X connect 12 0 11 0;
#X connect 14 0 36 1;
#X connect 15 0 34 1;
#X connect 16 0 34 2;
#X connect 17 0 36 2;
#X connect 18 0 35 1;
#X connect 19 0 35 2;
#X connect 20 0 37 1;
#X connect 21 0 37 2;
#X connect 22 0 27 0;
#X connect 22 1 24 0;
#X connect 23 0 35 0;
#X connect 24 0 25 0;
#X connect 25 0 23 0;
#X connect 26 0 12 0;
#X connect 26 1 39 0;
#X connect 28 0 22 0;
#X connect 30 0 26 0;
#X connect 31 0 5 0;
#X connect 32 0 28 0;
#X connect 33 0 1 0;
#X connect 34 0 44 0;
#X connect 35 0 45 0;
#X connect 36 0 41 0;
#X connect 37 0 8 0;
#X connect 39 0 43 0;
#X connect 39 1 40 0;
#X connect 40 0 42 0;
#X connect 41 0 40 0;
#X connect 41 1 40 1;
#X connect 42 0 10 0;
#X connect 43 0 37 0;
#X connect 44 0 0 0;
#X connect 45 0 4 0;
#X restore 34 163 pd page4-knobs;
#X restore 29 178 pd knobs;
#N canvas 4 50 450 771 dry-wet 0;
#X obj 47 27 inlet~;
#X obj 130 28 inlet~;
#X obj 260 25 inlet;
#X obj 85 443 outlet~;
#X obj 47 371 *~;
#X obj 130 362 *~;
#X obj 62 330 line~;
#X obj 65 304 pack 0 8;
#X obj 171 317 line~;
#X obj 174 291 pack 0 8;
#X obj 260 59 t a a;
#X obj 292 117 swap 1;
#X obj 292 141 -;
#X obj 182 207 swap 1;
#X obj 182 231 -;
#X obj 291 217 swap 1;
#X obj 291 241 -;
#X obj 291 193 pow 2;
#X obj 183 183 pow 2;
#X connect 0 0 4 0;
#X connect 1 0 5 0;
#X connect 2 0 10 0;
#X connect 4 0 3 0;
#X connect 5 0 3 0;
#X connect 6 0 4 1;
#X connect 7 0 6 0;
#X connect 8 0 5 1;
#X connect 9 0 8 0;
#X connect 10 0 18 0;
#X connect 10 1 11 0;
#X connect 11 0 12 0;
#X connect 11 1 12 1;
#X connect 12 0 17 0;
#X connect 13 0 14 0;
#X connect 13 1 14 1;
#X connect 14 0 7 0;
#X connect 15 0 16 0;
#X connect 15 1 16 1;
#X connect 16 0 9 0;
#X connect 17 0 15 0;
#X connect 18 0 13 0;
#X restore 336 683 pd dry-wet;
#X f 20;
#X obj 656 628 r global-mix;
#X obj 31 24 bng 15 250 50 0 empty empty empty 17 7 0 10 -262144 -1
-1;
#N canvas 237 262 449 300 metronome 0;
#N canvas 4 61 1083 695 metro-here 0;
#X obj 54 179 s beat-clock;
#X obj 54 32 loadbang;
#X obj 187 33 inlet;
#X text 225 34 bpm;
#X msg 54 53 1;
#X obj 631 63 sel 1 2 3 4, f 26;
#X msg 636 107 BPM;
#X msg 707 102 LINK;
#X msg 668 102 MIDI;
#X msg 764 101 OFF;
#X obj 657 149 symbol;
#X obj 210 179 s bpm;
#X obj 210 117 t a a;
#X obj 478 266 r cgSc-1-mute-print;
#X obj 357 516 s screenLine5;
#X obj 797 215 0;
#X obj 765 213 1;
#X msg 309 33 120;
#X obj 54 81 metronome360 1, f 45;
#X obj 459 388 r current-page;
#X obj 459 436 0;
#X obj 488 438 t b;
#X obj 339 265 pack 0 s;
#X msg 339 298 Tempo: \$1 \$2;
#X obj 459 413 sel 2;
#X obj 489 462 4;
#X obj 357 481 cg-page-print 4;
#X obj 368 228 t b a;
#X obj 779 254 s tempo-manual?;
#X connect 1 0 4 0;
#X connect 2 0 18 1;
#X connect 4 0 18 0;
#X connect 5 0 6 0;
#X connect 5 0 16 0;
#X connect 5 1 8 0;
#X connect 5 1 15 0;
#X connect 5 2 7 0;
#X connect 5 2 16 0;
#X connect 5 3 9 0;
#X connect 5 3 16 0;
#X connect 6 0 10 0;
#X connect 7 0 10 0;
#X connect 8 0 10 0;
#X connect 9 0 10 0;
#X connect 10 0 27 0;
#X connect 12 0 11 0;
#X connect 12 1 22 0;
#X connect 13 0 26 1;
#X connect 15 0 28 0;
#X connect 16 0 28 0;
#X connect 17 0 18 1;
#X connect 18 0 0 0;
#X connect 18 1 12 0;
#X connect 18 2 5 0;
#X connect 19 0 24 0;
#X connect 20 0 26 2;
#X connect 21 0 25 0;
#X connect 22 0 23 0;
#X connect 23 0 26 0;
#X connect 24 0 20 0;
#X connect 24 1 21 0;
#X connect 25 0 26 2;
#X connect 26 0 14 0;
#X connect 27 0 22 0;
#X connect 27 1 22 1;
#X restore 99 101 pd metro-here;
#X obj 99 46 r set-global-bpm;
#X connect 1 0 0 0;
#X restore 28 118 pd metronome;
#N canvas 249 50 1113 700 pages 0;
#X obj 458 26 r init-pages;
#X msg 458 90 init;
#X msg 570 75 write;
#X obj 570 42 r saveState;
#X msg 566 164 mute \$1;
#X obj 566 110 r cgSc-1-mute-print;
#X obj 566 134 == 0;
#X obj 318 107 r current-page;
#X obj 59 94 sel 0;
#X obj 59 63 r cgSc-1-6;
#X obj 145 307 i;
#X obj 91 146 1;
#X obj 91 120 t b;
#X obj 154 97 sel 0;
#X obj 186 123 t b;
#X obj 186 149 2;
#X obj 154 66 r cgSc-1-7;
#X obj 309 177 pipe 1000;
#X obj 145 391 s current-page;
#X obj 387 437 sel 0 1, f 14;
#X obj 387 528 s cgSc-1-6label;
#X obj 387 374 == 1;
#X obj 781 47 r aux;
#X obj 918 75 r \$0-reprint-port;
#X obj 781 153 s post-sc-notes;
#X obj 849 24 r init-aux;
#X msg 849 48 init bang;
#X obj 386 340 r current-page;
#X obj 542 436 sel 0 1, f 14;
#X obj 543 336 r current-page;
#X obj 232 99 sel 0;
#X obj 264 125 t b;
#X obj 264 151 3;
#X obj 232 68 r cgSc-1-8;
#X obj 704 440 sel 0 1, f 14;
#X obj 704 340 r current-page;
#X obj 703 532 s cgSc-1-8label;
#X obj 543 374 == 2;
#X obj 704 377 == 3;
#X obj 541 528 s cgSc-1-7label;
#X obj 781 115 cg-shortcut 1 1 0, f 20;
#X msg 434 469 BPM: On;
#X msg 387 498 BPM: Off;
#X msg 541 498 Patt.: Off;
#X msg 589 467 Patt.: On;
#X msg 704 500 Filtr: Off;
#X msg 751 472 Filtr: On;
#X obj 844 440 sel 0 1, f 14;
#X obj 844 340 r current-page;
#X msg 891 472 Dely: On;
#X msg 844 500 Dely: Off;
#X obj 843 532 s cgSc-1-9label;
#X obj 844 377 == 4;
#X obj 8 246 sel 0;
#X obj 40 272 t b;
#X obj 40 298 4;
#X obj 8 215 r cgSc-1-9;
#X obj 315 145 cg-pages 4 freeze;
#X obj 458 50 del 300;
#X connect 0 0 58 0;
#X connect 1 0 57 1;
#X connect 2 0 57 1;
#X connect 3 0 2 0;
#X connect 4 0 57 1;
#X connect 5 0 6 0;
#X connect 6 0 4 0;
#X connect 7 0 57 0;
#X connect 8 1 12 0;
#X connect 9 0 8 0;
#X connect 10 0 18 0;
#X connect 11 0 10 0;
#X connect 12 0 11 0;
#X connect 13 1 14 0;
#X connect 14 0 15 0;
#X connect 15 0 10 0;
#X connect 16 0 13 0;
#X connect 17 0 10 0;
#X connect 19 0 42 0;
#X connect 19 1 41 0;
#X connect 21 0 19 0;
#X connect 22 0 40 0;
#X connect 23 0 40 1;
#X connect 25 0 26 0;
#X connect 26 0 40 0;
#X connect 27 0 21 0;
#X connect 28 0 43 0;
#X connect 28 1 44 0;
#X connect 29 0 37 0;
#X connect 30 1 31 0;
#X connect 31 0 32 0;
#X connect 32 0 10 0;
#X connect 33 0 30 0;
#X connect 34 0 45 0;
#X connect 34 1 46 0;
#X connect 35 0 38 0;
#X connect 37 0 28 0;
#X connect 38 0 34 0;
#X connect 40 0 24 0;
#X connect 41 0 20 0;
#X connect 42 0 20 0;
#X connect 43 0 39 0;
#X connect 44 0 39 0;
#X connect 45 0 36 0;
#X connect 46 0 36 0;
#X connect 47 0 50 0;
#X connect 47 1 49 0;
#X connect 48 0 52 0;
#X connect 49 0 51 0;
#X connect 50 0 51 0;
#X connect 52 0 47 0;
#X connect 53 1 54 0;
#X connect 54 0 55 0;
#X connect 55 0 10 0;
#X connect 56 0 53 0;
#X connect 57 0 17 0;
#X connect 58 0 1 0;
#X restore 28 153 pd pages;
#X obj 616 145 unpack 0 0, f 20;
#N canvas 4 50 756 476 midi-to-bands 0;
#X obj 25 23 inlet;
#X obj 25 177 pow 2;
#X obj 25 135 / 24;
#X obj 25 279 outlet;
#X obj 25 201 * 12000;
#X obj 25 95 t a a;
#X obj 130 158 outlet;
#X text 218 143 pass number;
#X obj 25 225 + 45;
#X obj 25 249 max 60;
#X connect 0 0 5 0;
#X connect 1 0 4 0;
#X connect 2 0 1 0;
#X connect 4 0 8 0;
#X connect 5 0 2 0;
#X connect 5 1 6 0;
#X connect 8 0 9 0;
#X connect 9 0 3 0;
#X restore 616 171 pd midi-to-bands;
#X obj 616 195 pack 0 0, f 20;
#X obj 616 251 - 1;
#X obj 910 451 list prepend all;
#X obj 910 475 list trim;
#X obj 1064 378 list prepend rez;
#X obj 910 418 r \$0-all;
#X obj 337 354 *~ 1;
#X obj 449 350 noise~;
#X obj 616 335 pack 0 s 0 0, f 21;
#X obj 651 302 symbol note;
#X obj 1208 393 list prepend vol;
#X obj 336 268 r~ inL;
#X obj 493 412 r global-noise-mix;
#X obj 1133 151 r freeze-timer;
#X obj 1084 64 r bpm;
#X obj 1084 98 swap 60000;
#X obj 1084 122 /, f 10;
#X obj 1084 206 *, f 12;
#X obj 1133 175 t b a;
#X obj 449 374 *~ 0.05;
#N canvas 681 153 1281 847 auto-modes 0;
#X obj 445 755 outlet;
#X obj 445 684 pack 0 0, f 15;
#X obj 445 650 makenote 100 70;
#X obj 151 636 list trim;
#X obj 151 603 list prepend 0;
#X obj 214 497 r burst-type;
#X obj 547 397 r burst-time;
#X obj 31 71 r cgSc-1-1;
#X obj 31 96 sel 0;
#X obj 63 123 t b;
#X obj 151 75 r fs;
#X obj 151 99 sel 0;
#X obj 547 550 * 1, f 10;
#X obj 378 350 r \$0-2-makenote;
#N canvas 437 36 1271 847 up/downs 0;
#X obj 170 300 -, f 7;
#X obj 170 276 swap 23;
#N canvas 550 56 684 522 up-down 0;
#X obj 215 217 moses 24;
#X obj 268 245 - 24;
#X obj 268 297 -, f 7;
#X obj 268 273 swap 23;
#X obj 215 394 outlet;
#X obj 215 19 inlet;
#X obj 277 155 array sum bands;
#X obj 215 117 t a b;
#X obj 277 179 t f f f;
#X obj 326 217 - 1;
#X obj 215 93 burst 24 2;
#X connect 0 0 4 0;
#X connect 0 1 1 0;
#X connect 1 0 3 0;
#X connect 2 0 4 0;
#X connect 3 0 2 0;
#X connect 3 1 2 1;
#X connect 5 0 10 0;
#X connect 6 0 8 0;
#X connect 7 0 0 0;
#X connect 7 1 6 0;
#X connect 8 0 0 1;
#X connect 8 1 1 1;
#X connect 8 2 9 0;
#X connect 9 0 3 1;
#X connect 10 0 7 0;
#X restore 272 171 pd up-down;
#X obj 170 416 s \$0-2-makenote;
#X obj 504 424 s \$0-2-makenote;
#X obj 399 249 * 2;
#X obj 504 222 * 2;
#X obj 910 432 s \$0-2-makenote;
#X obj 831 229 * 3;
#X obj 921 210 * 3;
#N canvas 4 50 684 522 up-down 0;
#X obj 235 434 outlet;
#X obj 215 19 inlet;
#X obj 216 117 * 4;
#X obj 217 255 moses 24;
#X obj 270 283 - 24;
#X obj 270 335 -, f 7;
#X obj 270 311 swap 23;
#X obj 279 193 array sum bands;
#X obj 217 155 t a b;
#X obj 279 217 t f f f;
#X obj 328 255 - 1;
#X obj 215 94 burst 6 0.5;
#X connect 1 0 11 0;
#X connect 2 0 8 0;
#X connect 3 0 0 0;
#X connect 3 1 4 0;
#X connect 4 0 6 0;
#X connect 5 0 0 0;
#X connect 6 0 5 0;
#X connect 6 1 5 1;
#X connect 7 0 9 0;
#X connect 8 0 3 0;
#X connect 8 1 7 0;
#X connect 9 0 3 1;
#X connect 9 1 4 1;
#X connect 9 2 10 0;
#X connect 10 0 6 1;
#X connect 11 0 2 0;
#X restore 911 650 pd up-down;
#X obj 719 763 s \$0-2-makenote;
#X obj 622 575 * 4;
#X obj 719 564 * 4;
#X obj 13 102 r \$0-sel-patt;
#X obj 13 131 pattern-sel 0;
#X obj 170 94 r \$0-sel-patt;
#X obj 170 123 pattern-sel 1;
#X obj 272 97 r \$0-sel-patt;
#X obj 272 126 pattern-sel 2;
#X obj 399 134 r \$0-sel-patt;
#X obj 504 137 r \$0-sel-patt;
#X obj 610 137 r \$0-sel-patt;
#X obj 399 163 pattern-sel 3;
#X obj 504 166 pattern-sel 4;
#X obj 610 166 pattern-sel 5;
#X obj 818 88 r \$0-sel-patt;
#X obj 925 91 r \$0-sel-patt;
#X obj 1029 91 r \$0-sel-patt;
#X obj 818 117 pattern-sel 6;
#X obj 923 120 pattern-sel 7;
#X obj 1030 121 pattern-sel 8;
#X obj 612 465 r \$0-sel-patt;
#X obj 719 468 r \$0-sel-patt;
#X obj 912 548 r \$0-sel-patt;
#X obj 612 494 pattern-sel 9;
#X obj 719 500 pattern-sel 10;
#X obj 912 578 pattern-sel 11;
#X obj 13 211 burst 24 1;
#X obj 170 162 burst 24 1;
#X obj 213 217 array sum bands;
#X obj 170 186 t a b;
#N canvas 756 65 684 522 up-down 0;
#X obj 215 217 moses 24;
#X obj 268 245 - 24;
#X obj 268 297 -, f 7;
#X obj 268 273 swap 23;
#X obj 215 394 outlet;
#X obj 215 19 inlet;
#X obj 277 155 array sum bands;
#X obj 215 117 t a b;
#X obj 277 179 t f f f;
#X obj 215 86 * 2;
#X obj 215 62 burst 12 1;
#X obj 326 217 - 1;
#X connect 0 0 4 0;
#X connect 0 1 1 0;
#X connect 1 0 3 0;
#X connect 2 0 4 0;
#X connect 3 0 2 0;
#X connect 3 1 2 1;
#X connect 5 0 10 0;
#X connect 6 0 8 0;
#X connect 7 0 0 0;
#X connect 7 1 6 0;
#X connect 8 0 0 1;
#X connect 8 1 1 1;
#X connect 8 2 11 0;
#X connect 9 0 7 0;
#X connect 10 0 9 0;
#X connect 11 0 3 1;
#X restore 605 225 pd up-down;
#X obj 505 371 -, f 7;
#X obj 505 347 swap 23;
#X obj 548 288 array sum bands;
#X obj 505 257 t a b;
#N canvas 611 282 684 522 up-down 0;
#X obj 215 217 moses 24;
#X obj 268 245 - 24;
#X obj 268 297 -, f 7;
#X obj 268 273 swap 23;
#X obj 215 394 outlet;
#X obj 215 19 inlet;
#X obj 277 155 array sum bands;
#X obj 215 117 t a b;
#X obj 277 179 t f f f;
#X obj 215 87 * 3;
#X obj 215 63 burst 8 0.6666;
#X obj 326 217 - 1;
#X connect 0 0 4 0;
#X connect 0 1 1 0;
#X connect 1 0 3 0;
#X connect 2 0 4 0;
#X connect 3 0 2 0;
#X connect 3 1 2 1;
#X connect 5 0 10 0;
#X connect 6 0 8 0;
#X connect 7 0 0 0;
#X connect 7 1 6 0;
#X connect 8 0 0 1;
#X connect 8 1 1 1;
#X connect 8 2 11 0;
#X connect 9 0 7 0;
#X connect 10 0 9 0;
#X connect 11 0 3 1;
#X restore 1054 200 pd up-down;
#X obj 919 374 -, f 7;
#X obj 919 350 swap 23;
#X obj 962 291 array sum bands;
#X obj 919 260 t a b;
#X obj 399 224 burst 12 0.5;
#X obj 811 193 burst 8 0.333;
#X obj 920 186 burst 8 0.333;
#X obj 622 547 burst 6 0.25;
#X obj 727 538 burst 6 0.25;
#X obj 719 709 -, f 7;
#X obj 719 685 swap 23;
#X obj 765 629 array sum bands;
#X obj 719 595 t a b;
#X obj 765 653 - 1;
#X text 526 82 2;
#X text 954 48 3;
#X text 841 481 4;
#X obj 213 241 - 0;
#X obj 504 198 burst 12 0.5;
#X obj 962 315 - 0;
#X obj 548 312 - 1;
#X connect 0 0 3 0;
#X connect 1 0 0 0;
#X connect 1 1 0 1;
#X connect 2 0 3 0;
#X connect 5 0 4 0;
#X connect 6 0 46 0;
#X connect 8 0 7 0;
#X connect 9 0 51 0;
#X connect 10 0 11 0;
#X connect 12 0 11 0;
#X connect 13 0 60 0;
#X connect 14 0 15 0;
#X connect 15 0 38 0;
#X connect 16 0 17 0;
#X connect 17 0 39 0;
#X connect 18 0 19 0;
#X connect 19 0 2 0;
#X connect 20 0 23 0;
#X connect 21 0 24 0;
#X connect 22 0 25 0;
#X connect 23 0 52 0;
#X connect 24 0 66 0;
#X connect 25 0 42 0;
#X connect 26 0 29 0;
#X connect 27 0 30 0;
#X connect 28 0 31 0;
#X connect 29 0 53 0;
#X connect 30 0 54 0;
#X connect 31 0 47 0;
#X connect 32 0 35 0;
#X connect 33 0 36 0;
#X connect 34 0 37 0;
#X connect 35 0 55 0;
#X connect 36 0 56 0;
#X connect 37 0 10 0;
#X connect 38 0 3 0;
#X connect 39 0 41 0;
#X connect 40 0 65 0;
#X connect 41 0 1 0;
#X connect 41 1 40 0;
#X connect 42 0 4 0;
#X connect 43 0 4 0;
#X connect 44 0 43 0;
#X connect 44 1 43 1;
#X connect 45 0 68 0;
#X connect 46 0 44 0;
#X connect 46 1 45 0;
#X connect 47 0 7 0;
#X connect 48 0 7 0;
#X connect 49 0 48 0;
#X connect 49 1 48 1;
#X connect 50 0 67 0;
#X connect 51 0 49 0;
#X connect 51 1 50 0;
#X connect 52 0 5 0;
#X connect 53 0 8 0;
#X connect 54 0 9 0;
#X connect 55 0 12 0;
#X connect 56 0 13 0;
#X connect 57 0 11 0;
#X connect 58 0 57 0;
#X connect 58 1 57 1;
#X connect 59 0 61 0;
#X connect 60 0 58 0;
#X connect 60 1 59 0;
#X connect 61 0 58 1;
#X connect 65 0 1 1;
#X connect 66 0 6 0;
#X connect 67 0 49 1;
#X connect 68 0 44 1;
#X restore 151 715 pd up/downs;
#N canvas 4 50 920 635 others 0;
#X obj 172 447 s \$0-2-makenote;
#N canvas 600 107 450 300 outside-in 0;
#X obj 30 13 inlet;
#X obj 62 63 % 2;
#X obj 30 92 list prepend;
#X obj 30 120 route 0 1, f 22;
#X obj 105 159 swap 24;
#X obj 105 183 -, f 7;
#X obj 66 217 outlet;
#X obj 211 72 array sum bands;
#X obj 30 37 t a a b, f 9;
#X obj 211 96 - 1;
#X connect 0 0 8 0;
#X connect 1 0 2 1;
#X connect 2 0 3 0;
#X connect 3 0 6 0;
#X connect 3 1 4 0;
#X connect 4 0 5 0;
#X connect 4 1 5 1;
#X connect 5 0 6 0;
#X connect 7 0 9 0;
#X connect 8 0 2 0;
#X connect 8 1 1 0;
#X connect 8 2 7 0;
#X connect 9 0 4 1;
#X restore 173 375 pd outside-in;
#N canvas 600 111 448 528 inside-out 0;
#X obj 30 13 inlet;
#X obj 62 63 % 2;
#X obj 30 92 list prepend;
#X obj 30 120 route 0 1, f 22;
#X obj 30 307 -, f 7;
#X obj 107 393 outlet;
#X obj 30 283 swap 12;
#X obj 105 148 / 2;
#X obj 105 172 i;
#X obj 30 164 / 2;
#X obj 30 188 i;
#X obj 105 196 + 12;
#X obj 30 212 max 0;
#X obj 205 91 array sum bands;
#X obj 30 37 t a a b, f 12;
#X obj 205 115 / 2;
#X obj 205 139 i;
#X obj 205 163 t a a;
#X connect 0 0 14 0;
#X connect 1 0 2 1;
#X connect 2 0 3 0;
#X connect 3 0 9 0;
#X connect 3 1 7 0;
#X connect 4 0 5 0;
#X connect 6 0 4 0;
#X connect 6 1 4 1;
#X connect 7 0 8 0;
#X connect 8 0 11 0;
#X connect 9 0 10 0;
#X connect 10 0 12 0;
#X connect 11 0 5 0;
#X connect 12 0 6 0;
#X connect 13 0 15 0;
#X connect 14 0 2 0;
#X connect 14 1 1 0;
#X connect 14 2 13 0;
#X connect 15 0 16 0;
#X connect 16 0 17 0;
#X connect 17 0 11 1;
#X connect 17 1 6 1;
#X restore 453 416 pd inside-out;
#X obj 36 111 r \$0-sel-patt;
#X obj 175 116 r \$0-sel-patt;
#X obj 331 146 r \$0-sel-patt;
#X obj 36 140 pattern-sel 12;
#X obj 175 145 pattern-sel 13;
#X obj 331 175 pattern-sel 14;
#X obj 456 125 r \$0-sel-patt;
#X obj 456 153 pattern-sel 15;
#X obj 660 94 r \$0-sel-patt;
#X obj 660 122 pattern-sel 16;
#X obj 660 256 random 23;
#X obj 36 183 burst 24 1;
#X obj 173 186 burst 24 1;
#X obj 331 209 burst 24 1;
#X obj 464 199 burst 24 1;
#X obj 660 168 burst 24 1;
#X obj 720 221 array sum bands;
#X obj 660 192 t b b;
#X obj 462 346 -, f 7;
#X obj 462 322 swap 23;
#X obj 505 263 array sum bands;
#X obj 462 232 t a b;
#X obj 505 287 - 1;
#N canvas 600 111 448 528 inside-out 0;
#X obj 30 13 inlet;
#X obj 62 63 % 2;
#X obj 30 92 list prepend;
#X obj 30 120 route 0 1, f 22;
#X obj 30 307 -, f 7;
#X obj 107 393 outlet;
#X obj 30 283 swap 12;
#X obj 105 148 / 2;
#X obj 105 172 i;
#X obj 30 164 / 2;
#X obj 30 188 i;
#X obj 105 196 + 12;
#X obj 30 212 max 0;
#X obj 205 91 array sum bands;
#X obj 30 37 t a a b, f 12;
#X obj 205 115 / 2;
#X obj 205 139 i;
#X obj 205 163 t a a;
#X connect 0 0 14 0;
#X connect 1 0 2 1;
#X connect 2 0 3 0;
#X connect 3 0 9 0;
#X connect 3 1 7 0;
#X connect 4 0 5 0;
#X connect 6 0 4 0;
#X connect 6 1 4 1;
#X connect 7 0 8 0;
#X connect 8 0 11 0;
#X connect 9 0 10 0;
#X connect 10 0 12 0;
#X connect 11 0 5 0;
#X connect 12 0 6 0;
#X connect 13 0 15 0;
#X connect 14 0 2 0;
#X connect 14 1 1 0;
#X connect 14 2 13 0;
#X connect 15 0 16 0;
#X connect 16 0 17 0;
#X connect 17 0 11 1;
#X connect 17 1 6 1;
#X restore 331 282 pd inside-out;
#N canvas 600 107 450 300 outside-in 0;
#X obj 30 13 inlet;
#X obj 62 63 % 2;
#X obj 30 92 list prepend;
#X obj 30 120 route 0 1, f 22;
#X obj 105 159 swap 24;
#X obj 105 183 -, f 7;
#X obj 66 217 outlet;
#X obj 211 72 array sum bands;
#X obj 30 37 t a a b, f 9;
#X obj 211 96 - 1;
#X connect 0 0 8 0;
#X connect 1 0 2 1;
#X connect 2 0 3 0;
#X connect 3 0 6 0;
#X connect 3 1 4 0;
#X connect 4 0 5 0;
#X connect 4 1 5 1;
#X connect 5 0 6 0;
#X connect 7 0 9 0;
#X connect 8 0 2 0;
#X connect 8 1 1 0;
#X connect 8 2 7 0;
#X connect 9 0 4 1;
#X restore 36 250 pd outside-in;
#X obj 168 324 -, f 7;
#X obj 168 300 swap 23;
#X obj 211 241 array sum bands;
#X obj 168 210 t a b;
#X obj 211 265 - 1;
#X connect 1 0 0 0;
#X connect 2 0 0 0;
#X connect 3 0 6 0;
#X connect 4 0 7 0;
#X connect 5 0 8 0;
#X connect 6 0 14 0;
#X connect 7 0 15 0;
#X connect 8 0 16 0;
#X connect 9 0 10 0;
#X connect 10 0 17 0;
#X connect 11 0 12 0;
#X connect 12 0 18 0;
#X connect 13 0 0 0;
#X connect 14 0 27 0;
#X connect 15 0 31 0;
#X connect 16 0 26 0;
#X connect 17 0 24 0;
#X connect 18 0 20 0;
#X connect 19 0 13 1;
#X connect 20 0 13 0;
#X connect 20 1 19 0;
#X connect 21 0 2 0;
#X connect 22 0 21 0;
#X connect 22 1 21 1;
#X connect 23 0 25 0;
#X connect 24 0 22 0;
#X connect 24 1 23 0;
#X connect 25 0 22 1;
#X connect 26 0 0 0;
#X connect 27 0 0 0;
#X connect 28 0 1 0;
#X connect 29 0 28 0;
#X connect 29 1 28 1;
#X connect 30 0 32 0;
#X connect 31 0 29 0;
#X connect 31 1 30 0;
#X connect 32 0 29 1;
#X restore 151 749 pd others;
#X obj 186 207 + 1;
#X obj 151 207 f 1;
#X obj 186 231 == 1;
#X obj 582 433 r bpm;
#X obj 582 457 swap 60000;
#X obj 582 481 /, f 10;
#X obj 582 505 t b a;
#X obj 151 573 f;
#X obj 214 530 t b a;
#X obj 151 664 s \$0-sel-patt;
#X obj 151 281 sel 0 1, f 15;
#X obj 151 305 0;
#X obj 203 368 r beat-clock;
#X obj 203 392 spigot 0;
#X obj 203 416 sel 0;
#X obj 203 440 t b b;
#X obj 281 408 0;
#X obj 203 464 1;
#X obj 202 307 1;
#X obj 28 634 s play-tog;
#X obj 405 150 sel 0 1, f 14;
#X obj 405 107 r play-tog;
#X obj 405 262 s cgSc-1-1label;
#X msg 452 182 Playing;
#X msg 405 210 Stopped;
#X obj 547 574 *, f 24;
#X obj 680 520 t b a;
#X obj 680 477 r duration;
#X obj 332 109 loadbang;
#X obj 703 142 loadbang;
#X obj 856 73 sel 0;
#X obj 378 388 text get seq-bands;
#X obj 378 412 route bang;
#X obj 547 618 max 5;
#X obj 888 104 t b b;
#X obj 888 188 s re-up-burst;
#X msg 920 135 \; bands const 1 \;;
#X obj 856 49 r cgSc-1-4;
#X msg 703 211 Fill KB;
#X obj 703 263 s cgSc-1-4label;
#X obj 703 166 t b b, f 12;
#X msg 835 252 Clear KB;
#X obj 835 304 s cgSc-1-5label;
#X obj 1016 66 sel 0;
#X obj 1048 97 t b b;
#X obj 1048 181 s re-up-burst;
#X obj 1016 42 r cgSc-1-5;
#X msg 1080 128 \; bands const 0 \;;
#X connect 1 0 0 0;
#X connect 2 0 1 0;
#X connect 2 1 1 1;
#X connect 3 0 25 0;
#X connect 4 0 3 0;
#X connect 5 0 24 0;
#X connect 6 0 12 0;
#X connect 7 0 8 0;
#X connect 8 1 9 0;
#X connect 9 0 17 0;
#X connect 10 0 11 0;
#X connect 11 0 17 0;
#X connect 12 0 41 0;
#X connect 13 0 47 0;
#X connect 16 0 18 0;
#X connect 17 0 16 0;
#X connect 17 0 26 0;
#X connect 18 0 17 1;
#X connect 19 0 20 0;
#X connect 20 0 21 0;
#X connect 20 1 21 1;
#X connect 21 0 22 0;
#X connect 22 0 12 0;
#X connect 22 1 12 1;
#X connect 23 0 4 0;
#X connect 23 0 35 0;
#X connect 24 0 23 0;
#X connect 24 1 4 1;
#X connect 26 0 27 0;
#X connect 26 1 34 0;
#X connect 27 0 23 0;
#X connect 28 0 29 0;
#X connect 29 0 30 0;
#X connect 30 0 31 0;
#X connect 31 0 33 0;
#X connect 31 1 32 0;
#X connect 32 0 29 1;
#X connect 33 0 23 0;
#X connect 34 0 29 1;
#X connect 36 0 40 0;
#X connect 36 1 39 0;
#X connect 37 0 36 0;
#X connect 39 0 38 0;
#X connect 40 0 38 0;
#X connect 41 0 49 0;
#X connect 42 0 41 0;
#X connect 42 1 41 1;
#X connect 43 0 42 0;
#X connect 44 0 40 0;
#X connect 45 0 56 0;
#X connect 46 1 50 0;
#X connect 47 0 48 0;
#X connect 48 1 2 0;
#X connect 49 0 2 2;
#X connect 50 0 51 0;
#X connect 50 1 52 0;
#X connect 53 0 46 0;
#X connect 54 0 55 0;
#X connect 56 0 54 0;
#X connect 56 1 57 0;
#X connect 57 0 58 0;
#X connect 59 1 60 0;
#X connect 60 0 61 0;
#X connect 60 1 63 0;
#X connect 62 0 59 0;
#X restore 616 69 pd auto-modes;
#X obj 679 442 pack 0 s 0;
#X obj 712 408 symbol pan;
#N canvas 4 50 450 300 calc-pan 0;
#X obj 45 16 inlet;
#X obj 147 110 % 2;
#X obj 147 134 sel 0 1, f 14;
#X obj 77 140 / 24;
#X obj 77 193 * -1, f 9;
#X obj 147 158 -1;
#X obj 187 158 1;
#X obj 45 51 t b a a, f 15;
#X obj 45 223 +, f 5;
#X obj 45 247 outlet;
#X obj 45 104 0.5;
#X obj 77 164 * 0.15;
#X connect 0 0 7 0;
#X connect 1 0 2 0;
#X connect 2 0 5 0;
#X connect 2 1 6 0;
#X connect 3 0 11 0;
#X connect 4 0 8 1;
#X connect 5 0 4 1;
#X connect 6 0 4 1;
#X connect 7 0 10 0;
#X connect 7 1 3 0;
#X connect 7 2 1 0;
#X connect 8 0 9 0;
#X connect 10 0 8 0;
#X connect 11 0 4 0;
#X restore 796 406 pd calc-pan;
#X obj 616 275 t a b a;
#X obj 679 376 t a b;
#N canvas 4 50 450 771 dry-wet 0;
#X obj 47 27 inlet~;
#X obj 130 28 inlet~;
#X obj 259 25 inlet;
#X obj 85 443 outlet~;
#X obj 47 371 *~;
#X obj 130 362 *~;
#X obj 62 330 line~;
#X obj 65 304 pack 0 8;
#X obj 171 317 line~;
#X obj 174 291 pack 0 8;
#X obj 257 65 t a a;
#X obj 289 123 swap 1;
#X obj 289 147 -;
#X obj 179 213 swap 1;
#X obj 179 237 -;
#X obj 288 223 swap 1;
#X obj 288 247 -;
#X obj 288 199 pow 2;
#X obj 180 189 pow 2;
#X connect 0 0 4 0;
#X connect 1 0 5 0;
#X connect 2 0 10 0;
#X connect 4 0 3 0;
#X connect 5 0 3 0;
#X connect 6 0 4 1;
#X connect 7 0 6 0;
#X connect 8 0 5 1;
#X connect 9 0 8 0;
#X connect 10 0 18 0;
#X connect 10 1 11 0;
#X connect 11 0 12 0;
#X connect 11 1 12 1;
#X connect 12 0 17 0;
#X connect 13 0 14 0;
#X connect 13 1 14 1;
#X connect 14 0 7 0;
#X connect 15 0 16 0;
#X connect 15 1 16 1;
#X connect 16 0 9 0;
#X connect 17 0 15 0;
#X connect 18 0 13 0;
#X restore 518 688 pd dry-wet;
#X f 20;
#X obj 35 379 array define flat-q 1000;
#X msg 35 338 read q-table.txt;
#X obj 35 309 r init-q-table;
#X obj 1064 328 r global-q;
#N canvas 505 142 911 630 adsr 0;
#X obj 174 263 list prepend att;
#X obj 382 226 list prepend dec;
#X obj 304 264 list prepend sus;
#X obj 508 246 list prepend rel;
#X obj 283 381 s \$0-all;
#X obj 174 127 t b b b b, f 40;
#X obj 174 75 bng 15 250 50 0 empty empty empty 17 7 0 10 -262144 -1
-1;
#X msg 508 212 100;
#X obj 174 210 10;
#X msg 304 215 65;
#X msg 382 190 500;
#X obj 197 79 r init-adsr;
#X connect 0 0 4 0;
#X connect 1 0 4 0;
#X connect 2 0 4 0;
#X connect 3 0 4 0;
#X connect 5 0 8 0;
#X connect 5 1 9 0;
#X connect 5 2 10 0;
#X connect 5 3 7 0;
#X connect 6 0 5 0;
#X connect 7 0 3 0;
#X connect 8 0 0 0;
#X connect 9 0 2 0;
#X connect 10 0 1 0;
#X connect 11 0 5 0;
#X restore 31 216 pd adsr;
#N canvas 0 104 1440 768 keyboard 0;
#X obj 158 221 t b a;
#X obj 158 372 s oscOut;
#X msg 158 340 /oled/gFlip 3 1;
#X obj 158 178 spigot, f 11;
#X obj 232 153 t a a;
#X obj 264 181 sel 1;
#X obj 334 81 r cgSc-1-mute-print;
#X obj 232 116 cg-mute-print 2;
#X obj 232 52 r current-page;
#X obj 264 205 del 10;
#X obj 736 229 unpack 0 0;
#X obj 736 301 pack 0 0, f 10;
#X obj 736 330 stripnote;
#X obj 736 413 == 0;
#X text 772 418 invert;
#X obj 736 437 t a b;
#X obj 771 468 f;
#X obj 736 354 t a a;
#X obj 434 451 t a b;
#X obj 434 475 max 1;
#X obj 434 499 until;
#X obj 434 523 f, f 7;
#X obj 497 526 + 1;
#X obj 487 495 0;
#X obj 434 423 24;
#X obj 434 547 t f f;
#X obj 434 640 pack 0 0;
#X obj 466 603 tabread bands;
#X obj 736 389 tabread bands;
#X obj 1010 310 array define bands 24;
#X obj 736 509 tabwrite bands;
#X obj 736 253 - 12;
#X obj 736 277 % 24;
#X obj 858 163 loadbang;
#X obj 264 229 t b b;
#X obj 158 17 inlet;
#X obj 615 20 r post-sc-notes;
#X obj 190 275 cg-print-kb 47;
#X obj 615 164 spigot;
#X obj 756 93 r cgSc-1-mute-print;
#X obj 654 128 cg-mute-print 2;
#X obj 654 64 r current-page;
#X obj 434 354 cg-speedlim 50;
#N canvas 4 50 847 675 fill-band-seq-text 0;
#X obj 263 216 text define seq-bands;
#X obj 98 182 max 1;
#X obj 98 206 until;
#X obj 98 230 f, f 7;
#X obj 161 233 + 1;
#X obj 151 202 0;
#X obj 98 130 24;
#X obj 98 281 tabread bands;
#X obj 98 305 > 0;
#X obj 98 329 sel 1;
#X obj 98 357 f, f 15;
#X obj 98 254 t f f, f 18;
#X obj 167 419 + 1;
#X obj 130 419 f 0;
#X obj 148 391 0;
#X obj 98 472 text set seq-bands;
#X obj 98 381 t f b;
#X obj 98 155 t a b b b, f 24;
#X msg 263 186 clear;
#X obj 84 36 inlet;
#X obj 84 60 t b;
#X obj 144 73 bng 15 250 50 0 empty empty empty 17 7 0 10 -262144 -1
-1;
#X connect 1 0 2 0;
#X connect 2 0 3 0;
#X connect 3 0 4 0;
#X connect 3 0 11 0;
#X connect 4 0 3 1;
#X connect 5 0 3 1;
#X connect 6 0 17 0;
#X connect 7 0 8 0;
#X connect 8 0 9 0;
#X connect 9 0 10 0;
#X connect 10 0 16 0;
#X connect 11 0 7 0;
#X connect 11 1 10 1;
#X connect 12 0 13 1;
#X connect 13 0 12 0;
#X connect 13 0 15 1;
#X connect 14 0 13 1;
#X connect 16 0 15 0;
#X connect 16 1 13 0;
#X connect 17 0 1 0;
#X connect 17 1 5 0;
#X connect 17 2 14 0;
#X connect 17 3 18 0;
#X connect 18 0 0 0;
#X connect 19 0 20 0;
#X connect 20 0 6 0;
#X connect 21 0 6 0;
#X restore 466 413 pd fill-band-seq-text;
#X obj 434 378 t b b;
#X obj 461 232 s re-up-burst;
#X obj 615 194 t b b a;
#X obj 897 280 s re-up-burst;
#X obj 1110 177 r saveState;
#X msg 1110 201 write keyboard-save.txt;
#X msg 1007 277 read keyboard-save.txt;
#X obj 859 188 t b b b;
#X connect 0 0 2 0;
#X connect 0 1 37 1;
#X connect 2 0 1 0;
#X connect 3 0 0 0;
#X connect 4 0 3 1;
#X connect 4 1 5 0;
#X connect 5 0 9 0;
#X connect 6 0 7 1;
#X connect 7 0 4 0;
#X connect 8 0 7 0;
#X connect 9 0 34 0;
#X connect 10 0 31 0;
#X connect 10 1 11 1;
#X connect 11 0 12 0;
#X connect 12 0 17 0;
#X connect 13 0 15 0;
#X connect 15 0 30 0;
#X connect 15 1 16 0;
#X connect 16 0 30 1;
#X connect 17 0 28 0;
#X connect 17 1 16 1;
#X connect 18 0 19 0;
#X connect 18 1 23 0;
#X connect 19 0 20 0;
#X connect 20 0 21 0;
#X connect 21 0 22 0;
#X connect 21 0 25 0;
#X connect 22 0 21 1;
#X connect 23 0 21 1;
#X connect 24 0 18 0;
#X connect 25 0 26 0;
#X connect 25 1 27 0;
#X connect 26 0 37 0;
#X connect 27 0 26 1;
#X connect 28 0 13 0;
#X connect 31 0 32 0;
#X connect 32 0 11 0;
#X connect 33 0 51 0;
#X connect 34 0 42 0;
#X connect 34 1 37 2;
#X connect 35 0 3 0;
#X connect 36 0 38 0;
#X connect 38 0 46 0;
#X connect 39 0 40 1;
#X connect 40 0 38 1;
#X connect 41 0 40 0;
#X connect 42 0 44 0;
#X connect 44 0 24 0;
#X connect 44 1 43 0;
#X connect 46 0 45 0;
#X connect 46 1 42 0;
#X connect 46 2 10 0;
#X connect 48 0 49 0;
#X connect 49 0 29 0;
#X connect 50 0 29 0;
#X connect 51 0 43 0;
#X connect 51 1 47 0;
#X connect 51 2 50 0;
#X restore 907 149 pd keyboard;
#N canvas 851 150 450 426 led 0;
#X obj 80 49 r beat-clock;
#X obj 80 73 sel 0;
#X obj 108 387 s led;
#X obj 78 128 t b b b;
#X msg 151 180 stop;
#X obj 108 222 del 100;
#X obj 142 254 r play-tog;
#X obj 108 340 0;
#X obj 108 316 sel 0 1, f 9;
#X obj 139 343 3;
#X obj 41 317 7;
#X obj 109 292 f 1;
#X obj 206 58 r play-tog;
#X obj 80 97 spigot, f 18;
#X obj 275 205 s led;
#X obj 275 158 0;
#X obj 275 134 sel 0 1, f 9;
#X obj 306 161 3;
#X connect 0 0 1 0;
#X connect 1 0 13 0;
#X connect 3 0 10 0;
#X connect 3 1 5 0;
#X connect 3 2 4 0;
#X connect 4 0 5 0;
#X connect 5 0 11 0;
#X connect 6 0 11 1;
#X connect 7 0 2 0;
#X connect 8 0 7 0;
#X connect 8 1 9 0;
#X connect 9 0 2 0;
#X connect 10 0 2 0;
#X connect 11 0 8 0;
#X connect 12 0 13 1;
#X connect 12 0 16 0;
#X connect 13 0 3 0;
#X connect 15 0 14 0;
#X connect 16 0 15 0;
#X connect 16 1 17 0;
#X connect 17 0 14 0;
#X restore 31 247 pd led;
#X obj 602 529 cg-limiter~ 0.7 12;
#X obj 403 527 cg-limiter~ 0.7 12;
#X obj 869 200 r play-tog;
#X obj 869 224 sel 0;
#X msg 869 285 all note 60 0;
#X obj 869 248 del 1;
#X obj 616 226 poly 12 1, f 21;
#X obj 403 494 clone band-voice-no-delay~ 12;
#X obj 1064 406 s \$0-all;
#X obj 1208 417 s \$0-all;
#N canvas 4 50 450 590 delay 0;
#X obj 48 35 inlet~;
#X obj 184 297 r global-del-wetDry;
#X obj 293 20 r global-del-fb;
#X obj 251 88 *~;
#X obj 293 44 pack 0 10;
#X obj 293 68 line~;
#X obj 116 168 r delay-time;
#X obj 116 192 pack 0 20;
#X obj 116 216 line~;
#X obj 47 413 outlet~;
#X obj 47 363 hip~ 4;
#X obj 115 256 delread4~ \$0-r-del;
#X obj 133 130 delwrite~ \$0-r-del 2000;
#X obj 47 339 cg-xfade~ 1, f 20;
#X connect 0 0 12 0;
#X connect 0 0 13 0;
#X connect 1 0 13 2;
#X connect 2 0 4 0;
#X connect 3 0 12 0;
#X connect 4 0 5 0;
#X connect 5 0 3 1;
#X connect 6 0 7 0;
#X connect 7 0 8 0;
#X connect 8 0 11 0;
#X connect 10 0 9 0;
#X connect 11 0 3 0;
#X connect 11 0 13 1;
#X connect 13 0 10 0;
#X restore 602 581 pd delay;
#X obj 1084 252 s delay-time;
#N canvas 4 50 450 590 delay 0;
#X obj 48 35 inlet~;
#X obj 133 130 delwrite~ \$0-l-del 2000;
#X obj 184 297 r global-del-wetDry;
#X obj 293 20 r global-del-fb;
#X obj 251 88 *~;
#X obj 293 44 pack 0 10;
#X obj 293 68 line~;
#X obj 115 256 delread4~ \$0-l-del;
#X obj 116 168 r delay-time;
#X obj 116 192 pack 0 20;
#X obj 116 216 line~;
#X obj 47 413 outlet~;
#X obj 47 363 hip~ 4;
#X obj 47 339 cg-xfade~ 1, f 20;
#X connect 0 0 1 0;
#X connect 0 0 13 0;
#X connect 2 0 13 2;
#X connect 3 0 5 0;
#X connect 4 0 1 0;
#X connect 5 0 6 0;
#X connect 6 0 4 1;
#X connect 7 0 4 0;
#X connect 7 0 13 1;
#X connect 8 0 9 0;
#X connect 9 0 10 0;
#X connect 10 0 7 0;
#X connect 12 0 11 0;
#X connect 13 0 12 0;
#X restore 403 603 pd delay;
#X obj 1208 352 4;
#X obj 403 452 cg-xfade~ 1, f 20;
#N canvas 4 50 450 300 midi-out 0;
#X obj 37 15 inlet;
#X obj 74 151 noteout;
#X obj 137 99 r midiOutCh;
#X obj 37 39 unpack 0 0;
#X obj 37 63 + 60;
#X connect 0 0 3 0;
#X connect 2 0 1 2;
#X connect 3 0 4 0;
#X connect 3 1 1 1;
#X connect 4 0 1 0;
#X restore 777 151 pd midi-out;
#X obj 616 104 t a a a, f 42;
#X text 722 22 Quilt;
#X obj 1208 326 r init-vol;
#X connect 7 0 0 0;
#X connect 8 0 7 2;
#X connect 8 0 40 2;
#X connect 9 0 2 0;
#X connect 12 0 13 0;
#X connect 12 1 14 1;
#X connect 13 0 14 0;
#X connect 13 1 37 0;
#X connect 14 0 54 0;
#X connect 15 0 38 0;
#X connect 16 0 17 0;
#X connect 17 0 55 1;
#X connect 18 0 56 0;
#X connect 19 0 16 0;
#X connect 20 0 7 0;
#X connect 20 0 40 0;
#X connect 20 0 62 0;
#X connect 21 0 33 0;
#X connect 22 0 55 1;
#X connect 23 0 22 1;
#X connect 24 0 57 0;
#X connect 25 0 20 0;
#X connect 26 0 62 2;
#X connect 27 0 32 0;
#X connect 28 0 29 0;
#X connect 29 0 30 0;
#X connect 29 1 30 1;
#X connect 30 0 31 0;
#X connect 31 0 59 0;
#X connect 32 0 31 0;
#X connect 32 1 31 1;
#X connect 33 0 62 1;
#X connect 34 0 64 0;
#X connect 35 0 55 1;
#X connect 36 0 35 1;
#X connect 37 0 35 2;
#X connect 38 0 22 0;
#X connect 38 1 23 0;
#X connect 38 2 39 0;
#X connect 39 0 35 0;
#X connect 39 1 36 0;
#X connect 40 0 1 0;
#X connect 42 0 41 0;
#X connect 43 0 42 0;
#X connect 44 0 18 0;
#X connect 48 0 58 0;
#X connect 49 0 60 0;
#X connect 50 0 51 0;
#X connect 51 0 53 0;
#X connect 52 0 55 1;
#X connect 53 0 52 0;
#X connect 54 0 15 0;
#X connect 54 1 22 2;
#X connect 54 2 22 3;
#X connect 55 0 49 0;
#X connect 55 1 48 0;
#X connect 58 0 40 1;
#X connect 60 0 7 1;
#X connect 61 0 24 0;
#X connect 62 0 55 0;
#X connect 64 0 12 0;
#X connect 64 1 63 0;
#X connect 64 2 46 0;
#X connect 66 0 61 0;
