#N canvas 4 50 572 435 12;
#X obj 166 168 t b;
#X obj 64 35 inlet;
#X text 178 65 arg1: number select;
#X obj 64 128 route \$1, f 15;
#X obj 166 192 0;
#X obj 166 240 outlet;
#X connect 0 0 4 0;
#X connect 1 0 3 0;
#X connect 3 0 5 0;
#X connect 3 1 0 0;
#X connect 4 0 5 0;
