#N canvas 7 50 1122 650 10;
#X msg 334 205 0;
#X obj 366 175 t b b;
#X msg 398 205 1;
#X obj 334 147 sel 1;
#X obj 239 282 spigot 1, f 14;
#X obj 218 80 inlet;
#X obj 239 304 outlet;
#X obj 239 221 symbol;
#X obj 334 124 r cgSc-\$1-muter;
#X connect 0 0 4 1;
#X connect 1 0 7 0;
#X connect 1 1 2 0;
#X connect 2 0 4 1;
#X connect 3 0 0 0;
#X connect 3 1 1 0;
#X connect 4 0 6 0;
#X connect 5 0 7 0;
#X connect 7 0 4 0;
#X connect 8 0 3 0;
