#N canvas 356 173 1326 618 10;
#X declare -path cg-pd-library-local/sampling;
#X declare -path cg-pd-library-local/sequencer;
#X declare -path cg-pd-library-local/externals;
#X declare -path cg-pd-library-local/metronome;
#N canvas 18 50 1057 809 metro-here 0;
#X obj 550 473 r seq3-1-actions;
#X obj 528 552 f;
#X msg 609 447 0;
#X obj 654 438 t b b;
#X msg 681 465 1;
#X obj 609 409 sel 1, f 8;
#X obj 501 489 del 1;
#X obj 307 506 s beat-clock;
#X obj 305 141 loadbang;
#X msg 307 325 1;
#X obj 412 620 list, f 7;
#X obj 412 642 route 69;
#X obj 412 488 t b a;
#X msg 412 590 69;
#X msg 412 298 120;
#X obj 412 428 pack, f 10;
#X obj 447 396 t b a;
#X obj 531 311 s seq3-1-quan;
#X obj 523 218 sel 1 2 3 4;
#X msg 523 270 0;
#X msg 557 268 1;
#X obj 412 664 spigot 1, f 10;
#X obj 528 574 spigot 1, f 14;
#X obj 658 646 r cgSc-1-slots;
#X obj 658 672 + 1;
#X obj 412 709 print-line5 1, f 62;
#X obj 609 386 r cgSc-1-mute-print;
#X obj 731 438 loadbang;
#X obj 731 460 del 1;
#X obj 731 482 t b b;
#X obj 513 353 r 5-page-global;
#X obj 513 374 sel 2;
#X obj 609 505 t f f;
#X obj 501 510 t b b;
#X obj 307 354 metronome360 0 1, f 18;
#X obj 540 399 t b;
#X obj 781 533 r 5-page-global;
#X obj 781 554 sel 2, f 13;
#X msg 781 575 0;
#X obj 855 577 t b;
#X msg 855 598 1;
#X floatatom 726 677 5 0 0 0 - - -;
#X obj 305 162 t b b b;
#X obj 277 214 s load-samples;
#X connect 0 0 1 0;
#X connect 1 0 22 0;
#X connect 2 0 32 0;
#X connect 3 0 6 0;
#X connect 3 1 4 0;
#X connect 4 0 32 0;
#X connect 5 0 2 0;
#X connect 5 1 3 0;
#X connect 6 0 33 0;
#X connect 8 0 42 0;
#X connect 9 0 34 0;
#X connect 10 0 11 0;
#X connect 11 0 21 0;
#X connect 12 0 13 0;
#X connect 12 1 10 1;
#X connect 13 0 10 0;
#X connect 14 0 34 1;
#X connect 15 0 12 0;
#X connect 16 0 15 0;
#X connect 16 1 15 1;
#X connect 18 0 19 0;
#X connect 18 1 20 0;
#X connect 18 2 20 0;
#X connect 18 3 19 0;
#X connect 19 0 17 0;
#X connect 20 0 17 0;
#X connect 21 0 25 0;
#X connect 22 0 25 1;
#X connect 23 0 24 0;
#X connect 23 0 41 0;
#X connect 24 0 25 2;
#X connect 26 0 5 0;
#X connect 27 0 28 0;
#X connect 28 0 29 0;
#X connect 29 0 1 0;
#X connect 29 1 24 0;
#X connect 30 0 31 0;
#X connect 31 1 35 0;
#X connect 32 0 22 1;
#X connect 32 1 21 1;
#X connect 33 0 13 0;
#X connect 33 1 1 0;
#X connect 34 0 7 0;
#X connect 34 1 16 0;
#X connect 34 2 15 0;
#X connect 34 2 18 0;
#X connect 35 0 6 0;
#X connect 36 0 37 0;
#X connect 37 0 38 0;
#X connect 37 1 39 0;
#X connect 38 0 25 3;
#X connect 39 0 40 0;
#X connect 40 0 25 3;
#X connect 42 0 43 0;
#X connect 42 1 9 0;
#X connect 42 2 14 0;
#X restore 255 41 pd metro-here;
#X obj 253 229 r seq3-1-led;
#X obj 253 251 s led;
#X obj 483 18 r aux;
#X obj 549 105 r cgSc-1-slots;
#X obj 600 18 r \$0-reprint-port;
#X obj 582 126 r beat-clock;
#X obj 483 49 cg-shortcut 1 1, f 20;
#X text 52 11 ZAMPLE!;
#N canvas 669 323 585 438 waveform-tables 0;
#X obj 274 47 loadbang;
#X text 370 34 read the 4 waveform txt files;
#X text 69 24 the arrays for the LFO waveforms;
#X obj 61 57 array define Square 515;
#X obj 60 88 array define Saw 515;
#X obj 59 118 array define Triangle 515;
#X obj 60 147 array define Sine 515;
#X obj 54 189 array define SquareX 515;
#X msg 274 82 \; Square read squareWave.txt \; Saw read sawWave.txt
\; Triangle read triangleWave.txt \; Sine read sineWave.txt \; SquareX
read squareWaveX.txt \;;
#X connect 0 0 8 0;
#X restore 265 121 pd waveform-tables;
#N canvas 266 451 1056 593 sound-out 0;
#X obj 434 523 throw~ outL;
#X obj 566 524 throw~ outR;
#X obj 433 247 inlet~;
#X obj 433 364 *~ 0.98;
#X connect 2 0 3 0;
#X connect 3 0 0 0;
#X connect 3 0 1 0;
#X restore 484 472 pd sound-out;
#N canvas 456 196 1023 447 LFOs 0;
#X obj 665 90 list prepend set;
#X obj 665 111 list trim;
#X obj 538 78 r blend-LFO-rate;
#X obj 665 60 r blend-LFO-wave;
#X obj 537 316 *~ 0.5;
#X obj 537 337 +~ 0.5;
#X obj 537 362 outlet~ blend;
#X msg 538 99 \$1 10;
#X obj 538 120 line~;
#X obj 537 206 tabosc4~ Sine;
#X obj 537 267 *~;
#X obj 553 242 vline~;
#X msg 682 201 0 20 \, 1 20 20;
#X obj 665 132 t a b b b;
#X msg 716 155 stop;
#X obj 699 177 del 20;
#X obj 666 266 list;
#X msg 666 243 69;
#X obj 666 287 route 69;
#X obj 324 92 list prepend set;
#X obj 324 113 list trim;
#X obj 196 318 *~ 0.5;
#X obj 196 339 +~ 0.5;
#X msg 197 101 \$1 10;
#X obj 197 122 line~;
#X obj 196 208 tabosc4~ Sine;
#X obj 196 269 *~;
#X obj 212 244 vline~;
#X msg 341 203 0 20 \, 1 20 20;
#X obj 324 134 t a b b b;
#X msg 375 157 stop;
#X obj 358 179 del 20;
#X obj 325 268 list;
#X msg 325 245 69;
#X obj 325 289 route 69;
#X obj 196 364 outlet~ time;
#X obj 197 80 r time-LFO-rate;
#X obj 324 62 r time-LFO-wave;
#X connect 0 0 1 0;
#X connect 1 0 13 0;
#X connect 2 0 7 0;
#X connect 3 0 0 0;
#X connect 4 0 5 0;
#X connect 5 0 6 0;
#X connect 7 0 8 0;
#X connect 8 0 9 0;
#X connect 9 0 10 0;
#X connect 10 0 4 0;
#X connect 11 0 10 1;
#X connect 12 0 11 0;
#X connect 13 0 16 1;
#X connect 13 1 12 0;
#X connect 13 2 15 0;
#X connect 13 3 14 0;
#X connect 14 0 15 0;
#X connect 15 0 17 0;
#X connect 16 0 18 0;
#X connect 17 0 16 0;
#X connect 18 0 9 0;
#X connect 19 0 20 0;
#X connect 20 0 29 0;
#X connect 21 0 22 0;
#X connect 22 0 35 0;
#X connect 23 0 24 0;
#X connect 24 0 25 0;
#X connect 25 0 26 0;
#X connect 26 0 21 0;
#X connect 27 0 26 1;
#X connect 28 0 27 0;
#X connect 29 0 32 1;
#X connect 29 1 28 0;
#X connect 29 2 31 0;
#X connect 29 3 30 0;
#X connect 30 0 31 0;
#X connect 31 0 33 0;
#X connect 32 0 34 0;
#X connect 33 0 32 0;
#X connect 34 0 25 0;
#X connect 36 0 23 0;
#X connect 37 0 19 0;
#X restore 812 244 pd LFOs;
#X f 27;
#X obj 483 360 poly 4 1, f 13;
#X obj 483 382 pack 0 0 0, f 13;
#N canvas 393 186 1055 627 knob-page-management 0;
#N canvas 4 52 1347 522 page-selection 0;
#X msg 110 90 1;
#X obj 83 24 r cgSc-1-6;
#X obj 83 45 sel 0;
#X obj 214 45 sel 0;
#X obj 241 67 t b;
#X obj 214 24 r cgSc-1-7;
#X obj 336 40 sel 0;
#X obj 363 62 t b;
#X obj 336 19 r cgSc-1-8;
#X msg 241 90 2;
#X msg 363 85 3;
#X msg 512 354 \; cgSc-1-6label Global:\$1;
#X obj 512 208 r 5-page-global;
#X obj 512 231 sel 1;
#X msg 586 308 symbol Off;
#X msg 512 309 symbol On;
#X obj 539 261 t b;
#X obj 670 207 r 5-page-global;
#X msg 744 307 symbol Off;
#X msg 670 308 symbol On;
#X obj 697 260 t b;
#X obj 670 230 sel 2;
#X obj 830 206 r 5-page-global;
#X msg 904 306 symbol Off;
#X msg 830 307 symbol On;
#X obj 857 259 t b;
#X obj 988 205 r 5-page-global;
#X msg 1062 305 symbol Off;
#X msg 988 306 symbol On;
#X obj 1015 258 t b;
#X obj 1148 204 r 5-page-global;
#X msg 1222 304 symbol Off;
#X msg 1148 305 symbol On;
#X obj 1175 257 t b;
#X obj 830 229 sel 3;
#X obj 988 229 sel 4;
#X obj 1148 226 sel 5;
#X msg 670 353 \; cgSc-1-7label View:\$1;
#X msg 829 352 \; cgSc-1-8label Record:\$1;
#X obj 110 67 t b;
#X obj 477 42 sel 0;
#X obj 504 64 t b;
#X obj 599 37 sel 0;
#X obj 626 59 t b;
#X obj 477 21 r cgSc-1-9;
#X obj 599 16 r cgSc-1-10;
#X msg 504 87 4;
#X msg 626 82 5;
#X obj 190 382 s 5-page-global;
#X obj 190 190 t a a;
#X msg 217 285 /oled/gClear 3 1;
#X obj 217 323 s oscOut;
#X msg 70 410 /oled/gFlip 3;
#X obj 217 229 spigot 0;
#X obj 262 182 r cgSc-1-mute-print;
#X obj 262 203 == 0;
#X obj 163 248 t b a;
#X obj 190 161 change -1;
#X msg 1149 348 \; cgSc-1-10label Waves:\$1;
#X msg 988 351 \; cgSc-1-9label Zampz:\$1;
#X connect 0 0 57 0;
#X connect 1 0 2 0;
#X connect 2 1 39 0;
#X connect 3 1 4 0;
#X connect 4 0 9 0;
#X connect 5 0 3 0;
#X connect 6 1 7 0;
#X connect 7 0 10 0;
#X connect 8 0 6 0;
#X connect 9 0 57 0;
#X connect 10 0 57 0;
#X connect 12 0 13 0;
#X connect 13 0 15 0;
#X connect 13 1 16 0;
#X connect 14 0 11 0;
#X connect 15 0 11 0;
#X connect 16 0 14 0;
#X connect 17 0 21 0;
#X connect 18 0 37 0;
#X connect 19 0 37 0;
#X connect 20 0 18 0;
#X connect 21 0 19 0;
#X connect 21 1 20 0;
#X connect 22 0 34 0;
#X connect 23 0 38 0;
#X connect 24 0 38 0;
#X connect 25 0 23 0;
#X connect 26 0 35 0;
#X connect 27 0 59 0;
#X connect 28 0 59 0;
#X connect 29 0 27 0;
#X connect 30 0 36 0;
#X connect 31 0 58 0;
#X connect 32 0 58 0;
#X connect 33 0 31 0;
#X connect 34 0 24 0;
#X connect 34 1 25 0;
#X connect 35 0 28 0;
#X connect 35 1 29 0;
#X connect 36 0 32 0;
#X connect 36 1 33 0;
#X connect 39 0 0 0;
#X connect 40 1 41 0;
#X connect 41 0 46 0;
#X connect 42 1 43 0;
#X connect 43 0 47 0;
#X connect 44 0 40 0;
#X connect 45 0 42 0;
#X connect 46 0 57 0;
#X connect 47 0 57 0;
#X connect 49 0 56 0;
#X connect 49 1 53 0;
#X connect 50 0 51 0;
#X connect 53 0 50 0;
#X connect 54 0 55 0;
#X connect 55 0 53 1;
#X connect 56 0 52 0;
#X connect 56 1 48 0;
#X connect 57 0 49 0;
#X restore 451 44 pd page-selection;
#N canvas 4 50 877 580 save-pnum-and-knobs 0;
#X obj 346 376 array define save-knobs 100;
#X msg 368 329 write save-knobs.txt;
#X msg 358 245 read save-knobs.txt;
#X obj 255 140 loadbang;
#X obj 224 383 s recall-knobs;
#X obj 546 227 r saveState;
#X obj 546 248 t b b;
#X msg 573 315 write save-page.txt;
#X obj 527 375 array define save-page 1;
#X obj 255 161 t b b b b;
#X msg 527 288 read save-page.txt;
#X obj 255 212 f 0;
#X obj 186 250 tabread save-page;
#X obj 186 271 s 5-page-global;
#X obj 433 46 r 5-page-global;
#X obj 433 137 tabwrite save-page;
#X obj 433 67 t a b;
#X msg 538 103 0;
#X connect 1 0 0 0;
#X connect 2 0 0 0;
#X connect 3 0 9 0;
#X connect 5 0 6 0;
#X connect 6 0 1 0;
#X connect 6 1 7 0;
#X connect 7 0 8 0;
#X connect 9 0 11 0;
#X connect 9 1 10 0;
#X connect 9 2 4 0;
#X connect 9 3 2 0;
#X connect 10 0 8 0;
#X connect 11 0 12 0;
#X connect 12 0 13 0;
#X connect 14 0 16 0;
#X connect 16 0 15 0;
#X connect 16 1 17 0;
#X connect 17 0 15 1;
#X restore 451 75 pd save-pnum-and-knobs;
#N canvas 4 103 1803 764 page-3 0;
#X obj 326 522 r recall-knobs;
#X obj 195 473 r 5-page-global;
#X obj 202 653 r 5-page-global;
#X obj 119 567 t f f;
#X obj 301 80 r recall-knobs;
#X obj 170 31 r 5-page-global;
#X obj 177 281 r 5-page-global;
#X obj 94 125 t f f;
#X obj 671 92 r recall-knobs;
#X obj 540 59 r 5-page-global;
#X obj 546 289 r 5-page-global;
#X obj 464 153 t f f;
#X obj 464 228 i;
#X obj 464 207 * 100;
#X obj 1110 26 r~ inL;
#X obj 1180 25 r~ inR;
#X obj 1180 164 *~ 1;
#X obj 1110 48 *~ 0.707;
#X obj 1180 47 *~ 0.707;
#X obj 1274 466 throw~ outL;
#X obj 1291 441 throw~ outR;
#X text 1231 20 Audio In;
#X text 1222 128 load and record sample;
#N canvas 4 50 583 463 aux 0;
#X obj 60 208 r aux;
#X obj 60 259 sel 1;
#X obj 60 229 spigot 0;
#X obj 60 280 t b b;
#X msg 144 243 0;
#X text 289 86 aux press cancels rec;
#X obj 71 79 r samp-states;
#X obj 105 140 sel 0 1 2 3, f 22;
#X msg 137 169 1;
#X msg 105 169 0;
#X obj 71 104 list split 1;
#X obj 60 309 s samp-global-kill;
#X connect 0 0 2 0;
#X connect 1 0 3 0;
#X connect 2 0 1 0;
#X connect 3 0 11 0;
#X connect 3 1 4 0;
#X connect 4 0 2 1;
#X connect 6 0 10 0;
#X connect 7 0 9 0;
#X connect 7 1 8 0;
#X connect 7 2 8 0;
#X connect 8 0 2 1;
#X connect 9 0 2 1;
#X connect 10 1 7 0;
#X restore 725 505 pd aux press cancels rec;
#X obj 146 592 s select-sample;
#X obj 491 178 s monitor-volume;
#X obj 121 159 s input-volume;
#X obj 94 187 * 100;
#X obj 94 208 i;
#X obj 1018 91 r input-volume;
#X obj 1018 174 lop~ 100;
#X obj 1018 152 pow 2;
#X obj 1017 223 *~;
#X obj 1410 377 lop~ 100;
#X obj 1410 355 pow 2;
#X obj 1410 214 r monitor-volume;
#X obj 1410 325 spigot 0;
#X obj 1455 244 loadbang;
#X obj 1455 265 del 2000;
#X msg 1455 286 1;
#X obj 1275 415 *~, f 23;
#N canvas 347 69 1256 867 shortcut-1 0;
#X obj 185 55 r samp-states;
#X obj 185 146 sel 0 1 2 3, f 22;
#X obj 374 45 sel 0;
#X obj 401 71 t b;
#X obj 249 223 s led;
#X msg 249 192 1;
#X obj 192 222 s led;
#X msg 192 191 6;
#X obj 134 219 s led;
#X msg 134 188 0;
#X obj 515 471 r samp-live-time;
#X obj 798 169 r samp-states;
#X obj 798 407 sel 0 1 2 3, f 22;
#X msg 939 641 /oled/gFillArea 3 0 0 128 50 0;
#X msg 644 530 /oled/gFillArea 3 0 0 128 50 0;
#X msg 515 618 /oled/gFlip 3;
#X obj 796 775 s oscOut;
#X obj 796 690 t a;
#X obj 915 103 r cgSc-1-mute-print;
#X obj 915 182 spigot 0;
#X obj 915 203 sel 0;
#X obj 1085 55 r samp-states;
#X obj 1113 212 s cgSc-1-mute-print;
#X msg 1113 187 0;
#X obj 1113 121 t f f;
#X obj 1113 161 sel 0;
#X obj 841 698 r cgSc-1-mute-print;
#X obj 796 747 spigot 0;
#X obj 841 719 ==;
#X obj 915 224 del 10;
#X obj 374 24 r cgSc-1-1;
#X obj 15 188 r 5-page-global;
#X obj 15 214 sel 3, f 7;
#X msg 15 364 \; cgSc-1-2label \$1 \; cgSc-1-3label \$1 \; cgSc-1-4label
\$1 \; cgSc-1-5label \$1;
#X obj 15 275 t b b;
#X obj 243 354 s cgSc-1-1label;
#X msg 533 242 \; samp-\$1-arm bang;
#X obj 533 213 spigot 0;
#X obj 578 10 r 5-page-global;
#X obj 578 31 sel 3, f 7;
#X msg 578 52 1;
#X obj 617 55 t b;
#X msg 617 76 0;
#X obj 578 103 f;
#X obj 578 124 t f f;
#X obj 605 186 s mute-play-notes;
#X obj 605 155 == 0;
#X obj 416 93 r select-sample;
#X obj 401 122 f;
#X obj 798 350 unpack 0 0;
#X obj 798 286 list append;
#X msg 798 261 69;
#X obj 798 307 route 69;
#X obj 798 226 t b a;
#X obj 798 371 swap, f 10;
#X obj 866 481 f;
#X msg 185 298 Rec:OFF;
#X msg 243 279 Rec:ARMED \$1;
#X msg 353 296 RECRDING.. \$1;
#X obj 185 76 unpack;
#X obj 185 97 swap, f 6;
#X obj 243 251 f;
#X obj 218 122 t f f, f 17;
#X obj 353 257 f;
#X obj 15 335 symbol;
#X obj 15 240 del 1;
#X obj 515 498 t b a a b, f 22;
#X msg 558 586 /oled/gPrintln 3 40 25 16 1 \$2 sec;
#X obj 923 532 t b f f b;
#X text 645 420 reprint the knobs;
#X obj 728 442 r 5-page-global;
#X obj 713 470 f;
#X obj 713 499 s 5-page-global;
#X text 1013 240 when record finishes return to knobs;
#X obj 1085 80 list split;
#X msg 959 555 /oled/gPrintln 3 22 10 16 1 Sample \$1;
#X msg 922 596 /oled/gPrintln 3 34 25 16 1 Armed;
#X msg 601 557 /oled/gPrintln 3 18 10 16 1 Recording \$1;
#X obj 452 16 r fs;
#X obj 452 36 sel 0;
#X connect 0 0 59 0;
#X connect 1 0 56 0;
#X connect 1 0 9 0;
#X connect 1 1 7 0;
#X connect 1 1 61 0;
#X connect 1 2 5 0;
#X connect 1 2 63 0;
#X connect 2 1 3 0;
#X connect 3 0 48 0;
#X connect 5 0 4 0;
#X connect 7 0 6 0;
#X connect 9 0 8 0;
#X connect 10 0 66 0;
#X connect 11 0 53 0;
#X connect 12 0 71 0;
#X connect 12 1 55 0;
#X connect 13 0 17 0;
#X connect 14 0 17 0;
#X connect 15 0 17 0;
#X connect 17 0 27 0;
#X connect 18 0 19 0;
#X connect 19 0 20 0;
#X connect 20 0 29 0;
#X connect 21 0 74 0;
#X connect 23 0 22 0;
#X connect 24 0 25 0;
#X connect 24 1 19 1;
#X connect 25 0 23 0;
#X connect 26 0 28 0;
#X connect 27 0 16 0;
#X connect 28 0 27 1;
#X connect 29 0 51 0;
#X connect 30 0 2 0;
#X connect 31 0 32 0;
#X connect 32 0 65 0;
#X connect 34 0 64 0;
#X connect 34 1 56 0;
#X connect 37 0 36 0;
#X connect 38 0 39 0;
#X connect 39 0 40 0;
#X connect 39 1 41 0;
#X connect 40 0 43 0;
#X connect 41 0 42 0;
#X connect 42 0 43 0;
#X connect 43 0 44 0;
#X connect 44 0 37 1;
#X connect 44 1 46 0;
#X connect 46 0 45 0;
#X connect 47 0 48 1;
#X connect 48 0 37 0;
#X connect 49 0 54 0;
#X connect 49 1 54 1;
#X connect 50 0 52 0;
#X connect 51 0 50 0;
#X connect 52 0 49 0;
#X connect 53 0 51 0;
#X connect 53 1 50 1;
#X connect 54 0 12 0;
#X connect 54 1 55 1;
#X connect 55 0 68 0;
#X connect 56 0 35 0;
#X connect 57 0 35 0;
#X connect 58 0 35 0;
#X connect 59 0 60 0;
#X connect 59 1 60 1;
#X connect 60 0 1 0;
#X connect 60 1 62 0;
#X connect 61 0 57 0;
#X connect 62 0 61 1;
#X connect 62 1 63 1;
#X connect 63 0 58 0;
#X connect 64 0 33 0;
#X connect 65 0 34 0;
#X connect 66 0 15 0;
#X connect 66 1 67 0;
#X connect 66 2 77 0;
#X connect 66 3 14 0;
#X connect 67 0 17 0;
#X connect 68 0 15 0;
#X connect 68 1 76 0;
#X connect 68 2 75 0;
#X connect 68 3 13 0;
#X connect 70 0 71 1;
#X connect 71 0 72 0;
#X connect 74 1 24 0;
#X connect 75 0 17 0;
#X connect 76 0 17 0;
#X connect 77 0 17 0;
#X connect 78 0 79 0;
#X connect 79 1 3 0;
#X restore 725 474 pd shortcut-1 and the printing;
#X obj 119 364 r local-notes;
#X obj 119 385 stripnote;
#X obj 119 406 - 59;
#X obj 94 23 r knob1;
#X obj 94 104 cg-psystem-parameter 3 1 save-knobs;
#X obj 95 310 cg-psystem-label 3 1 1;
#X msg 94 250 1: Input Vol: \$1%;
#X msg 464 255 2: Monitor Vol: \$1%;
#X obj 464 318 cg-psystem-label 3 2 1;
#X obj 464 132 cg-psystem-parameter 3 2 save-knobs;
#X obj 119 682 cg-psystem-label 3 3 1;
#X msg 119 622 Record: Sample \$1;
#X obj 464 37 r knob2;
#X obj 1018 112 clip 0 1;
#X obj 119 546 cg-psystem-parameter 3 3 save-knobs;
#X obj 638 176 loadbang;
#X msg 638 218 0;
#X obj 638 197 del 500;
#X msg 1257 217 vis 4 1;
#X msg 1240 181 all load;
#X obj 1269 158 r load-samples;
#X obj 1016 279 clone -s 1 load-rec-sample 24 samp 5000 sounds 0,
f 28;
#X connect 0 0 56 2;
#X connect 1 0 56 1;
#X connect 2 0 52 1;
#X connect 3 0 53 0;
#X connect 3 1 24 0;
#X connect 4 0 46 2;
#X connect 5 0 46 1;
#X connect 6 0 47 1;
#X connect 7 0 27 0;
#X connect 7 1 26 0;
#X connect 8 0 51 2;
#X connect 9 0 51 1;
#X connect 10 0 50 1;
#X connect 11 0 13 0;
#X connect 11 1 25 0;
#X connect 12 0 49 0;
#X connect 13 0 12 0;
#X connect 14 0 17 0;
#X connect 15 0 18 0;
#X connect 16 0 32 1;
#X connect 16 0 40 0;
#X connect 16 0 63 1;
#X connect 17 0 16 0;
#X connect 18 0 16 0;
#X connect 27 0 28 0;
#X connect 28 0 48 0;
#X connect 29 0 55 0;
#X connect 30 0 32 0;
#X connect 31 0 30 0;
#X connect 32 0 63 0;
#X connect 33 0 40 1;
#X connect 34 0 33 0;
#X connect 35 0 36 0;
#X connect 36 0 34 0;
#X connect 37 0 38 0;
#X connect 38 0 39 0;
#X connect 39 0 36 1;
#X connect 40 0 19 0;
#X connect 40 0 20 0;
#X connect 42 0 43 0;
#X connect 43 0 44 0;
#X connect 44 0 56 0;
#X connect 45 0 46 0;
#X connect 46 0 7 0;
#X connect 48 0 47 0;
#X connect 49 0 50 0;
#X connect 51 0 11 0;
#X connect 53 0 52 0;
#X connect 54 0 51 0;
#X connect 55 0 31 0;
#X connect 56 0 3 0;
#X connect 57 0 59 0;
#X connect 58 0 11 0;
#X connect 59 0 58 0;
#X connect 60 0 63 2;
#X connect 61 0 63 2;
#X connect 62 0 61 0;
#X restore 44 95 pd page-3 the record;
#N canvas 4 50 1805 764 page-4 0;
#X obj 304 98 r recall-knobs;
#X obj 200 79 r 5-page-global;
#X obj 180 329 r 5-page-global;
#X obj 97 243 t f f;
#X obj 97 22 r knob1;
#X obj 97 122 cg-psystem-parameter 4 1 save-knobs;
#X obj 97 358 cg-psystem-label 4 1 1;
#X obj 698 46 r recall-knobs;
#X obj 594 27 r 5-page-global;
#X obj 574 337 r 5-page-global;
#X obj 491 251 t f f;
#X obj 518 275 s assign-top-right;
#X obj 491 30 r knob2;
#X obj 491 90 cg-psystem-parameter 4 2 save-knobs;
#X obj 491 366 cg-psystem-label 4 2 1;
#X obj 124 267 s assign-top-left;
#X obj 304 438 r recall-knobs;
#X obj 200 419 r 5-page-global;
#X obj 180 639 r 5-page-global;
#X obj 97 553 t f f;
#X obj 698 436 r recall-knobs;
#X obj 594 417 r 5-page-global;
#X obj 574 647 r 5-page-global;
#X obj 491 561 t f f;
#X obj 124 577 s assign-bottom-left;
#X obj 518 584 s assign-bottom-right;
#X obj 97 668 cg-psystem-label 4 3 1;
#X obj 491 676 cg-psystem-label 4 4 1;
#X obj 97 462 cg-psystem-parameter 4 3 save-knobs;
#X obj 491 460 cg-psystem-parameter 4 4 save-knobs;
#X obj 97 392 r knob3;
#X obj 491 400 r knob4;
#X msg 491 306 2: Top.R. Samp: \$1;
#X msg 97 297 1: Top.L. Samp: \$1;
#X msg 491 616 4: Bot.R. Samp: \$1;
#X msg 98 608 3: Bot.L. Samp: \$1;
#X obj 159 38 r seq3-1-k1;
#X obj 97 174 i;
#X obj 97 153 * 23;
#X obj 97 195 + 1;
#X obj 491 144 i;
#X obj 491 123 * 23;
#X obj 491 165 + 1;
#X obj 502 52 r seq3-1-k2;
#X obj 120 418 r seq3-1-k3;
#X obj 514 432 r seq3-1-k4;
#X obj 97 504 i;
#X obj 97 483 * 23;
#X obj 97 525 + 1;
#X obj 491 517 i;
#X obj 491 496 * 23;
#X obj 491 538 + 1;
#X connect 0 0 5 2;
#X connect 1 0 5 1;
#X connect 2 0 6 1;
#X connect 3 0 33 0;
#X connect 3 1 15 0;
#X connect 4 0 5 0;
#X connect 5 0 38 0;
#X connect 7 0 13 2;
#X connect 8 0 13 1;
#X connect 9 0 14 1;
#X connect 10 0 32 0;
#X connect 10 1 11 0;
#X connect 12 0 13 0;
#X connect 13 0 41 0;
#X connect 16 0 28 2;
#X connect 17 0 28 1;
#X connect 18 0 26 1;
#X connect 19 0 35 0;
#X connect 19 1 24 0;
#X connect 20 0 29 2;
#X connect 21 0 29 1;
#X connect 22 0 27 1;
#X connect 23 0 34 0;
#X connect 23 1 25 0;
#X connect 28 0 47 0;
#X connect 29 0 50 0;
#X connect 30 0 28 0;
#X connect 31 0 29 0;
#X connect 32 0 14 0;
#X connect 33 0 6 0;
#X connect 34 0 27 0;
#X connect 35 0 26 0;
#X connect 36 0 5 0;
#X connect 37 0 39 0;
#X connect 38 0 37 0;
#X connect 39 0 3 0;
#X connect 40 0 42 0;
#X connect 41 0 40 0;
#X connect 42 0 10 0;
#X connect 43 0 13 0;
#X connect 44 0 28 0;
#X connect 45 0 29 0;
#X connect 46 0 48 0;
#X connect 47 0 46 0;
#X connect 48 0 19 0;
#X connect 49 0 51 0;
#X connect 50 0 49 0;
#X connect 51 0 23 0;
#X restore 45 125 pd page-4 assign the samples;
#N canvas 4 50 1021 764 page-5 0;
#X obj 304 198 r recall-knobs;
#X obj 201 179 r 5-page-global;
#X obj 181 561 r 5-page-global;
#X obj 98 103 r knob1;
#X obj 698 206 r recall-knobs;
#X obj 594 187 r 5-page-global;
#X obj 574 627 r 5-page-global;
#X obj 491 90 r knob2;
#X obj 491 355 sel 1 2 3 4, f 18;
#X obj 98 222 cg-psystem-parameter 5 1 save-knobs;
#X obj 98 590 cg-psystem-label 5 1 1;
#X obj 491 656 cg-psystem-label 5 2 1;
#X obj 491 230 cg-psystem-parameter 5 2 save-knobs;
#X obj 98 445 t a a;
#X obj 125 469 s time-LFO-wave;
#X obj 518 535 s blend-LFO-wave;
#X msg 98 529 1: X LFO: \$1;
#X msg 491 596 2: Y LFO: \$1;
#X obj 491 511 t a a;
#X obj 491 562 symbol;
#X obj 98 506 symbol;
#X obj 145 151 r seq3-1-k1;
#X obj 98 294 i;
#X obj 98 315 + 1;
#X obj 491 288 i;
#X obj 491 309 + 1;
#X obj 524 151 r seq3-1-k2;
#X obj 491 330 change -1;
#X obj 98 336 change -1;
#X msg 491 446 Saw;
#X msg 517 426 Sine;
#X msg 545 409 Square;
#X msg 575 383 Triangle;
#X msg 239 401 Triangle;
#X msg 98 398 Saw;
#X msg 133 398 Sine;
#X obj 491 267 * 3;
#X obj 98 359 sel 1 2 3 4, f 29;
#X msg 246 438 SquareX;
#X obj 98 273 * 3;
#X msg 162 435 Square;
#X connect 0 0 9 2;
#X connect 1 0 9 1;
#X connect 2 0 10 1;
#X connect 3 0 9 0;
#X connect 4 0 12 2;
#X connect 5 0 12 1;
#X connect 6 0 11 1;
#X connect 7 0 12 0;
#X connect 8 0 29 0;
#X connect 8 1 30 0;
#X connect 8 2 31 0;
#X connect 8 3 32 0;
#X connect 9 0 39 0;
#X connect 12 0 36 0;
#X connect 13 0 20 0;
#X connect 13 1 14 0;
#X connect 16 0 10 0;
#X connect 17 0 11 0;
#X connect 18 0 19 0;
#X connect 18 1 15 0;
#X connect 19 0 17 0;
#X connect 20 0 16 0;
#X connect 21 0 9 0;
#X connect 22 0 23 0;
#X connect 23 0 28 0;
#X connect 24 0 25 0;
#X connect 25 0 27 0;
#X connect 26 0 12 0;
#X connect 27 0 8 0;
#X connect 28 0 37 0;
#X connect 29 0 18 0;
#X connect 30 0 18 0;
#X connect 31 0 18 0;
#X connect 32 0 18 0;
#X connect 33 0 13 0;
#X connect 34 0 13 0;
#X connect 35 0 13 0;
#X connect 36 0 24 0;
#X connect 37 0 34 0;
#X connect 37 1 35 0;
#X connect 37 2 38 0;
#X connect 37 2 40 0;
#X connect 37 3 33 0;
#X connect 38 0 14 0;
#X connect 39 0 22 0;
#X connect 40 0 20 0;
#X restore 46 156 pd page-5 assign waveforms;
#N canvas 4 83 707 625 page-2 0;
#X text 99 70 Empty just to view the LFOs;
#X obj 116 149 r 5-page-global;
#X obj 116 170 sel 2, f 17;
#N canvas 305 227 1129 586 print-the-samples-and-cursor 0;
#X text 740 235 draw the 4 waveforms;
#X msg 251 193 /oled/gClear 3 1;
#X obj 251 217 s oscOut;
#X obj 473 495 s oscOut;
#X msg 535 411 /oled/gLine 3 64 10 64 63 1;
#N canvas 4 50 994 756 print 0;
#X msg 313 636 /oled/gInvertArea 3 \$1 \$2 \$3 \$4;
#X obj 280 415 i;
#X obj 425 390 i;
#X obj 364 415 t b a;
#X obj 236 255 t b b, f 24;
#X obj 236 28 r print-cursor;
#X obj 576 287 r global-size;
#X obj 576 308 * 20;
#X obj 576 349 max 1;
#X obj 576 329 i;
#X msg 379 524 69;
#X obj 334 606 route 69;
#X obj 334 585 list append 0 0 0 0;
#X obj 280 489 t b a a b, f 17;
#X msg 280 663 /oled/gFlip 3;
#X obj 280 694 s oscOut;
#X msg 586 529 0 0 0 0;
#X obj 236 169 t a a, f 32;
#X obj 280 468 pack 0 0 0 5, f 56;
#X obj 425 349 * 53;
#X obj 425 370 + 10;
#X obj 280 393 * 124;
#X obj 576 376 t b a a;
#X msg 93 240 127 \$1;
#X obj 615 408 s curs-size-pix;
#X obj 93 210 r curs-size-pix;
#X obj 93 261 -;
#X obj 236 217 spigot 0;
#X obj 481 171 r cgSc-1-mute-print;
#X obj 481 192 == 0;
#X obj 507 251 sel 1;
#X msg 236 141 1;
#X obj 236 49 sel 1 0, f 16;
#X msg 314 127 0;
#X obj 236 196 metro 111;
#X obj 236 120 del 500;
#X msg 313 75 stop;
#X obj 294 290 r~ glob-time-lfo;
#X obj 282 335 snapshot~;
#X obj 425 328 snapshot~;
#X obj 425 297 r~ glob-blend-lfo;
#X connect 0 0 15 0;
#X connect 1 0 18 0;
#X connect 2 0 3 0;
#X connect 3 0 18 0;
#X connect 3 1 18 1;
#X connect 4 0 38 0;
#X connect 4 1 39 0;
#X connect 5 0 32 0;
#X connect 6 0 7 0;
#X connect 7 0 9 0;
#X connect 8 0 22 0;
#X connect 9 0 8 0;
#X connect 10 0 12 0;
#X connect 11 0 0 0;
#X connect 12 0 11 0;
#X connect 13 0 14 0;
#X connect 13 1 0 0;
#X connect 13 2 12 1;
#X connect 13 3 10 0;
#X connect 14 0 15 0;
#X connect 16 0 12 1;
#X connect 17 0 34 0;
#X connect 17 1 30 0;
#X connect 18 0 13 0;
#X connect 19 0 20 0;
#X connect 20 0 2 0;
#X connect 21 0 1 0;
#X connect 22 1 18 2;
#X connect 22 2 24 0;
#X connect 23 0 26 0;
#X connect 25 0 23 0;
#X connect 26 0 21 1;
#X connect 27 0 4 0;
#X connect 28 0 29 0;
#X connect 29 0 27 1;
#X connect 30 0 16 0;
#X connect 31 0 17 0;
#X connect 32 0 35 0;
#X connect 32 1 33 0;
#X connect 32 1 36 0;
#X connect 33 0 17 0;
#X connect 34 0 27 0;
#X connect 35 0 31 0;
#X connect 36 0 35 0;
#X connect 37 0 38 0;
#X connect 38 0 21 0;
#X connect 39 0 19 0;
#X connect 40 0 39 0;
#X restore 429 35 pd print the cursor;
#X obj 231 270 s print-cursor;
#X obj 384 237 t b b b b b b b, f 57;
#X obj 169 134 t b b b b, f 21;
#X msg 292 162 0;
#X msg 169 155 1;
#X obj 169 33 inlet;
#X obj 975 174 r assign-top-left;
#X obj 979 270 r assign-top-right;
#X obj 960 333 r assign-bottom-left;
#X obj 907 394 r assign-bottom-right;
#X msg 283 381 /oled/gFlip 3 1;
#X msg 904 416 num \$1;
#X msg 974 197 num \$1;
#X msg 979 292 num \$1;
#X msg 960 355 num \$1;
#X msg 572 507 /oled/gClear 3 1;
#X msg 473 434 /oled/gLine 3 0 37 127 37 1;
#X obj 553 361 cg-draw-waveform 64 40 63 27 samp 4 24;
#X obj 610 336 cg-draw-waveform 0 40 63 27 samp 3 24;
#X obj 665 313 cg-draw-waveform 64 10 63 27 samp 2 24;
#X obj 723 287 cg-draw-waveform 0 10 63 27 samp 1 24;
#X connect 1 0 2 0;
#X connect 4 0 3 0;
#X connect 7 0 16 0;
#X connect 7 1 22 0;
#X connect 7 2 4 0;
#X connect 7 3 23 0;
#X connect 7 4 24 0;
#X connect 7 5 25 0;
#X connect 7 6 26 0;
#X connect 8 0 10 0;
#X connect 8 1 7 0;
#X connect 8 2 1 0;
#X connect 8 3 9 0;
#X connect 9 0 6 0;
#X connect 10 0 6 0;
#X connect 11 0 8 0;
#X connect 12 0 18 0;
#X connect 13 0 19 0;
#X connect 14 0 20 0;
#X connect 15 0 17 0;
#X connect 16 0 3 0;
#X connect 17 0 23 1;
#X connect 18 0 26 1;
#X connect 19 0 25 1;
#X connect 20 0 24 1;
#X connect 21 0 3 0;
#X connect 22 0 3 0;
#X restore 116 426 pd print-the-samples-and-cursor;
#X obj 116 195 t b b;
#X obj 197 312 spigot 0;
#X msg 215 224 0;
#X msg 143 219 1;
#X obj 197 267 r cgSc-1-mute-print;
#X obj 197 333 sel 0;
#X obj 355 272 s print-cursor;
#X obj 215 196 t b b;
#X msg 355 248 0;
#X obj 116 352 spigot 0;
#X obj 197 354 del 5;
#X obj 161 314 == 0;
#X obj 116 403 del 5;
#X connect 1 0 2 0;
#X connect 2 0 4 0;
#X connect 2 1 11 0;
#X connect 4 0 13 0;
#X connect 4 1 7 0;
#X connect 5 0 9 0;
#X connect 6 0 5 1;
#X connect 7 0 5 1;
#X connect 8 0 5 0;
#X connect 8 0 15 0;
#X connect 9 0 14 0;
#X connect 11 0 6 0;
#X connect 11 1 12 0;
#X connect 12 0 10 0;
#X connect 13 0 16 0;
#X connect 14 0 16 0;
#X connect 15 0 13 1;
#X connect 16 0 3 0;
#X restore 46 62 pd page-2 see the waveform grid;
#N canvas 4 50 1803 764 page-1 0;
#X obj 403 111 r recall-knobs;
#X obj 272 62 r 5-page-global;
#X obj 279 352 r 5-page-global;
#X obj 196 381 cg-psystem-label 1 1 1;
#X obj 196 135 cg-psystem-parameter 1 1 save-knobs;
#X obj 196 276 t f f;
#X obj 223 301 s time-LFO-rate;
#X obj 272 83 sel 2;
#X msg 272 104 1;
#X text 313 90 page 2 also active;
#X obj 822 39 r recall-knobs;
#X obj 691 -10 r 5-page-global;
#X obj 698 300 r 5-page-global;
#X obj 615 214 t f f;
#X obj 691 11 sel 2;
#X msg 691 32 1;
#X text 732 18 page 2 also active;
#X obj 615 23 r knob2;
#X obj 615 329 cg-psystem-label 1 2 1;
#X obj 615 63 cg-psystem-parameter 1 2 save-knobs;
#X obj 642 239 s blend-LFO-rate;
#X obj 401 475 r recall-knobs;
#X obj 297 426 r 5-page-global;
#X obj 323 718 r 5-page-global;
#X obj 194 600 t f f;
#X obj 297 447 sel 2;
#X msg 297 468 1;
#X text 338 454 page 2 also active;
#X obj 194 668 i;
#X obj 194 647 * 100;
#X obj 221 625 s global-size;
#X msg 194 695 3: Chunk Size \$1%;
#X obj 194 755 cg-psystem-label 1 3 1;
#X obj 194 499 cg-psystem-parameter 1 3 save-knobs;
#X obj 811 454 r recall-knobs;
#X obj 707 405 r 5-page-global;
#X obj 687 735 r 5-page-global;
#X obj 604 569 t f f;
#X obj 707 426 sel 2;
#X msg 707 447 1;
#X text 748 433 page 2 also active;
#X obj 194 409 r knob3;
#X obj 604 399 r knob4;
#X obj 631 593 s global-speed;
#X obj 604 764 cg-psystem-label 1 4 1;
#X obj 604 478 cg-psystem-parameter 1 4 save-knobs;
#X obj 196 15 r knob1;
#X msg 196 331 1: X LFO: \$1hz;
#X msg 615 270 2: Y LFO: \$1hz;
#X obj 604 498 * 48;
#X obj 604 519 - 24;
#X obj 604 540 i;
#X obj 604 620 moses 0, f 19;
#X msg 604 703 4: Transpose: \$1;
#X obj 715 642 moses 1, f 11;
#X msg 777 666 symbol +\$1;
#X msg 604 681 symbol -\$1;
#X obj 604 641 abs;
#X obj 216 39 r seq3-1-k1;
#X obj 196 157 pow 2;
#X text 244 159 0 - 1 range to the pwer of 2;
#X obj 196 178 * 10;
#X text 236 176 times 10;
#X obj 196 225 i;
#X text 230 219 round to nearest 100th decimal point;
#X obj 196 204 * 100;
#X obj 196 246 * 0.01;
#X obj 615 89 pow 2;
#X text 663 91 0 - 1 range to the pwer of 2;
#X obj 615 110 * 10;
#X text 655 108 times 10;
#X obj 615 162 i;
#X text 679 156 round to nearest 100th decimal point;
#X obj 615 141 * 100;
#X obj 615 183 * 0.01;
#X obj 621 41 r seq3-1-k2;
#X obj 194 529 pow 2;
#X obj 194 551 max 0.001;
#X obj 622 426 r seq3-1-k4;
#X obj 203 438 r seq3-1-k3;
#X connect 0 0 4 2;
#X connect 1 0 7 0;
#X connect 2 0 3 1;
#X connect 4 0 59 0;
#X connect 5 0 47 0;
#X connect 5 1 6 0;
#X connect 7 0 8 0;
#X connect 7 1 4 1;
#X connect 8 0 4 1;
#X connect 10 0 19 2;
#X connect 11 0 14 0;
#X connect 12 0 18 1;
#X connect 13 0 48 0;
#X connect 13 1 20 0;
#X connect 14 0 15 0;
#X connect 14 1 19 1;
#X connect 15 0 19 1;
#X connect 17 0 19 0;
#X connect 19 0 67 0;
#X connect 21 0 33 2;
#X connect 22 0 25 0;
#X connect 23 0 32 1;
#X connect 24 0 29 0;
#X connect 24 1 30 0;
#X connect 25 0 26 0;
#X connect 25 1 33 1;
#X connect 26 0 33 1;
#X connect 28 0 31 0;
#X connect 29 0 28 0;
#X connect 31 0 32 0;
#X connect 33 0 76 0;
#X connect 34 0 45 2;
#X connect 35 0 38 0;
#X connect 36 0 44 1;
#X connect 37 0 52 0;
#X connect 37 1 43 0;
#X connect 38 0 39 0;
#X connect 38 1 45 1;
#X connect 39 0 45 1;
#X connect 41 0 33 0;
#X connect 42 0 45 0;
#X connect 45 0 49 0;
#X connect 46 0 4 0;
#X connect 47 0 3 0;
#X connect 48 0 18 0;
#X connect 49 0 50 0;
#X connect 50 0 51 0;
#X connect 51 0 37 0;
#X connect 52 0 57 0;
#X connect 52 1 54 0;
#X connect 53 0 44 0;
#X connect 54 0 53 0;
#X connect 54 1 55 0;
#X connect 55 0 53 0;
#X connect 56 0 53 0;
#X connect 57 0 56 0;
#X connect 58 0 4 0;
#X connect 59 0 61 0;
#X connect 61 0 65 0;
#X connect 63 0 66 0;
#X connect 65 0 63 0;
#X connect 66 0 5 0;
#X connect 67 0 69 0;
#X connect 69 0 73 0;
#X connect 71 0 74 0;
#X connect 73 0 71 0;
#X connect 74 0 13 0;
#X connect 75 0 19 0;
#X connect 76 0 77 0;
#X connect 77 0 24 0;
#X connect 78 0 45 0;
#X connect 79 0 33 0;
#X restore 46 31 pd page-1 global parameters;
#X restore 250 163 pd knob-page-management;
#X obj 510 237 s local-notes;
#X obj 528 305 r mute-play-notes;
#X obj 483 330 spigot 0;
#N canvas 4 50 688 484 seq3-controls 0;
#N canvas 592 224 1124 789 seq3-5option-control 0;
#X obj 139 278 outlet;
#X obj 65 121 t b;
#X msg 65 143 2;
#X obj 298 126 t b;
#X msg 298 148 3;
#X text 437 5 when aux is pressed after recording starts immediatley
end the rec and play the loop;
#X obj 170 70 sel 0;
#X obj 202 94 t b;
#X msg 202 116 1;
#X obj 33 66 r cgSc-1-2;
#X obj 171 48 r cgSc-1-1;
#X obj 33 88 sel 0;
#X obj 266 99 sel 0;
#X obj 317 272 r seq3-1-actions;
#X obj 317 334 sel 1, f 12;
#X obj 398 367 t b, f 4;
#X obj 507 308 r seq3-1-actions;
#X obj 588 353 t b, f 4;
#X obj 507 329 sel 2 3, f 12;
#X obj 978 340 t b, f 4;
#X msg 978 375 Latch:Off;
#X msg 896 375 Latch:On;
#X text 521 279 print to the shortcut menu;
#X obj 378 141 f 0;
#X obj 130 0 r midi-start;
#X msg 130 22 4;
#X obj 373 105 r midi-stop;
#X obj 507 125 t b;
#X obj 475 98 sel 0;
#X msg 507 147 5;
#X obj 172 567 r seq3-1-actions;
#X obj 253 612 t b, f 4;
#X obj 172 588 sel 5, f 12;
#X obj 317 413 f;
#X msg 317 443 \$1Seq:Stop;
#X obj 398 412 f;
#X msg 398 442 \$1Seq:Play;
#X msg 507 399 \$1Rec:Armd;
#X msg 588 397 \$1Rec:On;
#X msg 659 398 \$1Rec:Off;
#X obj 507 374 f;
#X obj 582 373 f;
#X obj 649 370 f;
#X obj 253 634 f;
#X obj 172 640 f;
#X msg 172 687 \$1Dub:On;
#X obj 201 286 r cgSc-1-slots;
#X obj 201 329 t b f f;
#X obj 166 439 s seq3-1-actions;
#X obj 166 415 v seq3-1-state;
#X obj 201 309 + 1;
#X obj 668 299 + 1;
#X obj 668 251 r cgSc-1-slots;
#X obj 301 587 + 1;
#X obj 301 563 r cgSc-1-slots;
#X obj 559 76 sel 1;
#X obj 612 80 r seq3-1-actions;
#X obj 559 174 t b b;
#X msg 640 152 0;
#X obj 559 152 spigot 0;
#X msg 612 129 1;
#X msg 559 196 1;
#X obj 475 71 r cgSc-1-3;
#X obj 559 52 r cgSc-1-aux;
#X obj 267 72 r cgSc-1-5;
#X obj 358 53 t b;
#X obj 326 26 sel 0;
#X obj 326 2 r cgSc-1-4;
#X msg 358 75 6;
#X obj 465 530 r seq3-1-actions;
#X obj 507 608 f;
#X obj 584 551 + 1;
#X obj 584 527 r cgSc-1-slots;
#X obj 511 756 s cgSc-1-4label;
#X obj 612 104 sel 3, f 12;
#X msg 253 687 \$1Dub:Off;
#X obj 465 551 sel 6, f 10;
#X obj 532 576 t b;
#X obj 465 635 spigot 1;
#X obj 552 632 spigot 0;
#X obj 675 560 r seq3-1-actions;
#X obj 675 582 sel 3;
#X obj 591 587 ==;
#X obj 637 614 f;
#X msg 637 583 1;
#X msg 615 568 0;
#X msg 552 657 \$1:Undo;
#X msg 465 660 \$1:Undid;
#X obj 465 573 t b b;
#X msg 70 229 0;
#X obj 23 341 r init-1-slot;
#X obj 23 363 s cgSc-1-slots;
#X obj 896 255 r seq3-1-togLatch;
#X obj 896 316 sel 1, f 12;
#X obj 20 182 r kill-seq;
#X obj 211 138 r kill-latch;
#X msg 211 159 7;
#X obj 827 101 inlet reprint-to-sc;
#X obj 511 728 cg-store-list;
#X obj 172 760 s cgSc-1-3label;
#X obj 172 729 cg-store-list;
#X obj 507 471 s cgSc-1-2label;
#X obj 507 441 cg-store-list;
#X obj 317 515 s cgSc-1-1label;
#X obj 317 485 cg-store-list;
#X obj 896 448 s cgSc-1-5label;
#X obj 896 418 cg-store-list;
#X obj 827 122 t b;
#X obj 827 143 s \$0-reprint-scS;
#X obj 993 420 r \$0-reprint-scS;
#X obj 612 438 r \$0-reprint-scS;
#X obj 395 462 r \$0-reprint-scS;
#X obj 246 707 r \$0-reprint-scS;
#X obj 588 704 r \$0-reprint-scS;
#X obj 1039 305 loadbang;
#X connect 1 0 2 0;
#X connect 2 0 0 0;
#X connect 3 0 4 0;
#X connect 4 0 0 0;
#X connect 6 1 7 0;
#X connect 7 0 8 0;
#X connect 8 0 0 0;
#X connect 9 0 11 0;
#X connect 10 0 6 0;
#X connect 11 1 1 0;
#X connect 12 1 3 0;
#X connect 13 0 14 0;
#X connect 14 0 33 0;
#X connect 14 1 15 0;
#X connect 15 0 35 0;
#X connect 16 0 18 0;
#X connect 17 0 42 0;
#X connect 18 0 40 0;
#X connect 18 1 41 0;
#X connect 18 2 17 0;
#X connect 19 0 20 0;
#X connect 20 0 106 0;
#X connect 21 0 106 0;
#X connect 23 0 0 0;
#X connect 24 0 25 0;
#X connect 25 0 0 0;
#X connect 26 0 23 0;
#X connect 27 0 29 0;
#X connect 28 1 27 0;
#X connect 29 0 0 0;
#X connect 30 0 32 0;
#X connect 31 0 43 0;
#X connect 32 0 44 0;
#X connect 32 1 31 0;
#X connect 33 0 34 0;
#X connect 34 0 104 0;
#X connect 35 0 36 0;
#X connect 36 0 104 0;
#X connect 37 0 102 0;
#X connect 38 0 102 0;
#X connect 39 0 102 0;
#X connect 40 0 37 0;
#X connect 41 0 38 0;
#X connect 42 0 39 0;
#X connect 43 0 75 0;
#X connect 44 0 45 0;
#X connect 45 0 100 0;
#X connect 46 0 50 0;
#X connect 47 0 49 0;
#X connect 47 1 33 1;
#X connect 47 2 35 1;
#X connect 49 0 48 0;
#X connect 50 0 47 0;
#X connect 51 0 42 1;
#X connect 51 0 41 1;
#X connect 51 0 40 1;
#X connect 52 0 51 0;
#X connect 53 0 43 1;
#X connect 53 0 44 1;
#X connect 54 0 53 0;
#X connect 55 0 59 0;
#X connect 56 0 74 0;
#X connect 57 0 61 0;
#X connect 57 1 58 0;
#X connect 58 0 59 1;
#X connect 59 0 57 0;
#X connect 60 0 59 1;
#X connect 61 0 0 0;
#X connect 62 0 28 0;
#X connect 63 0 55 0;
#X connect 64 0 12 0;
#X connect 65 0 68 0;
#X connect 66 1 65 0;
#X connect 67 0 66 0;
#X connect 68 0 0 0;
#X connect 69 0 76 0;
#X connect 70 0 78 0;
#X connect 70 0 79 0;
#X connect 71 0 70 1;
#X connect 72 0 71 0;
#X connect 74 0 60 0;
#X connect 75 0 100 0;
#X connect 76 0 88 0;
#X connect 76 1 77 0;
#X connect 77 0 70 0;
#X connect 78 0 87 0;
#X connect 79 0 86 0;
#X connect 80 0 81 0;
#X connect 81 0 84 0;
#X connect 82 0 78 1;
#X connect 83 0 82 0;
#X connect 83 0 79 1;
#X connect 84 0 83 0;
#X connect 85 0 83 0;
#X connect 86 0 98 0;
#X connect 87 0 98 0;
#X connect 88 0 70 0;
#X connect 88 1 85 0;
#X connect 89 0 0 0;
#X connect 90 0 91 0;
#X connect 92 0 93 0;
#X connect 93 0 21 0;
#X connect 93 1 19 0;
#X connect 94 0 89 0;
#X connect 95 0 96 0;
#X connect 96 0 0 0;
#X connect 97 0 107 0;
#X connect 98 0 73 0;
#X connect 100 0 99 0;
#X connect 102 0 101 0;
#X connect 104 0 103 0;
#X connect 106 0 105 0;
#X connect 107 0 108 0;
#X connect 109 0 106 2;
#X connect 110 0 102 2;
#X connect 111 0 104 2;
#X connect 112 0 100 2;
#X connect 113 0 98 2;
#X connect 114 0 20 0;
#X restore 66 184 pd seq3-5option-control;
#X obj 66 203 spigot 0, f 13;
#X obj 234 42 r 5-page-global;
#X obj 234 63 sel 3, f 12;
#X msg 261 109 0;
#X msg 303 115 1;
#X obj 261 147 f;
#X obj 234 84 t b b;
#X msg 234 105 0;
#X obj 303 94 t b b, f 11;
#X obj 66 244 outlet;
#X connect 0 0 1 0;
#X connect 1 0 10 0;
#X connect 2 0 3 0;
#X connect 3 0 7 0;
#X connect 3 1 9 0;
#X connect 4 0 6 0;
#X connect 5 0 6 0;
#X connect 6 0 1 1;
#X connect 7 0 8 0;
#X connect 7 1 4 0;
#X connect 8 0 10 0;
#X connect 9 0 5 0;
#X connect 9 1 0 0;
#X restore 516 74 pd seq3-controls;
#X text 498 286 The Synth;
#X obj 483 210 t a a;
#N canvas 787 330 860 595 slot-saver-1 0;
#X obj 167 38 r cgSc-1-slots;
#X obj 30 68 loadbang;
#X msg 30 140 0;
#X obj 30 161 tabread \$0-slot;
#X obj 199 225 array define \$0-slot;
#X obj 30 110 t b b;
#X msg 199 138 read slot.txt;
#X msg 243 186 write slot.txt;
#X obj 243 160 r saveState;
#X obj 167 58 t a b;
#X msg 220 84 0;
#X obj 167 107 tabwrite \$0-slot;
#X obj 30 185 s cgSc-1-slots;
#X connect 0 0 9 0;
#X connect 1 0 5 0;
#X connect 2 0 3 0;
#X connect 3 0 12 0;
#X connect 5 0 2 0;
#X connect 5 1 6 0;
#X connect 6 0 4 0;
#X connect 7 0 4 0;
#X connect 8 0 7 0;
#X connect 9 0 11 0;
#X connect 9 1 10 0;
#X connect 10 0 11 1;
#X restore 74 107 pd slot-saver-1;
#X obj 483 165 seq3 1 0 ../../sequences 1 0 1 1, f 17;
#X obj 483 427 clone -s 1 zample-voice 4;
#N canvas 13 50 450 300 cg-pd-library-local 0;
#X obj 502 35 r cgSc-1-slots;
#X obj 60 68 declare -path cg-pd-library-local/sampling;
#X obj 60 98 declare -path cg-pd-library-local/sequencer;
#X obj 58 130 declare -path cg-pd-library-local/externals;
#X obj 59 165 declare -path cg-pd-library-local/metronome;
#X restore 63 57 pd cg-pd-library-local;
#X obj 812 283 s~ glob-time-lfo;
#X obj 971 283 s~ glob-blend-lfo;
#X connect 1 0 2 0;
#X connect 3 0 7 0;
#X connect 4 0 22 2;
#X connect 5 0 7 1;
#X connect 6 0 22 3;
#X connect 7 0 22 0;
#X connect 11 0 25 0;
#X connect 11 1 26 0;
#X connect 12 0 13 0;
#X connect 12 1 13 1;
#X connect 12 2 13 2;
#X connect 13 0 23 0;
#X connect 16 0 17 1;
#X connect 17 0 12 0;
#X connect 18 0 22 1;
#X connect 20 0 17 0;
#X connect 20 1 15 0;
#X connect 22 0 20 0;
#X connect 23 0 10 0;
