#N canvas 105 106 1777 826 10;
#X obj 166 71 t a b;
#X obj 166 106 until;
#X obj 166 137 f;
#X obj 206 138 + 1;
#X obj 166 158 t a a, f 32;
#X obj 159 22 bng 15 250 50 0 empty empty empty 17 7 0 10 -262144 -1
-1;
#X obj 414 60 t a b;
#X obj 414 95 until;
#X obj 414 126 f;
#X obj 454 127 + 1;
#X obj 414 147 t a a, f 16;
#X obj 387 11 bng 15 250 50 0 empty empty empty 17 7 0 10 -262144 -1
-1;
#X obj 606 124 t a b;
#X obj 606 159 until;
#X obj 606 190 f;
#X obj 646 191 + 1;
#X obj 606 211 t a a, f 16;
#X obj 579 75 bng 15 250 50 0 empty empty empty 17 7 0 10 -262144 -1
-1;
#X obj 414 279 * 2;
#X obj 414 300 - 1;
#X obj 607 333 - 1;
#X obj 727 363 - 1;
#X obj 734 264 -;
#X obj 607 312 * 4;
#X obj 727 342 * 4;
#X msg 337 445 write sineWave.txt;
#X obj 465 234 -;
#X obj 465 347 * 2;
#X obj 465 368 - 1;
#X obj 413 403 tabwrite sawLol;
#X msg 364 505 write sawWave.txt;
#X msg 80 460 write squareWave.txt;
#X obj 67 412 tabwrite squareLol, f 49;
#X obj 16 267 pow 2;
#X obj 67 259 t b;
#X obj 134 334 * 2;
#X obj 134 355 - 1;
#X obj 234 300 t b;
#X msg 67 280 1;
#X obj 135 271 -;
#X msg 234 321 -1;
#X msg 71 527 write triangleWave.txt;
#X obj 606 406 tabwrite triLol;
#X obj 285 320 pow 2;
#X obj 283 370 - 1;
#X obj 16 225 moses 20;
#X obj 285 299 / 20;
#X obj 135 292 / 20;
#X obj 16 246 / 20;
#X obj 136 313 pow 2;
#X msg 465 213 20 \$1;
#X obj 465 255 / 20;
#X obj 465 276 pow 2;
#X obj 739 50 / 2;
#X obj 681 655 tabosc4~;
#X obj 428 705 tabwrite sawLol;
#X obj 435 656 unpack 0 0;
#X text 239 635 + 3 points;
#X msg 538 635 set triLol;
#X msg 538 661 set sawLol;
#X msg 684 514 \; sineLol sinesum 514 1;
#X obj 767 638 array size sineLol;
#X floatatom 767 659 5 0 0 0 - - -;
#X obj 779 601 bng 15 250 50 0 empty empty empty 17 7 0 10 -262144
-1 -1;
#X text 245 663 0 - 514;
#X msg 217 99 1;
#X msg 465 88 1;
#X msg 657 152 1;
#X msg 159 42 512;
#X msg 387 31 512;
#X msg 739 27 512;
#X floatatom 739 71 5 0 0 0 - - -;
#X obj 17 201 moses 256, f 25;
#X obj 178 227 moses 276;
#X msg 827 29 512;
#X floatatom 827 73 5 0 0 0 - - -;
#X obj 827 52 - 20;
#X obj 234 251 moses 492;
#X obj 285 277 - 492;
#X msg 135 250 276 \$1;
#X msg 374 576 0 0 \, 0 513 \, 0 514;
#X msg 546 603 set squareLol;
#X obj 82 487 array define squareLol 515;
#X obj 65 550 array define triLol 515;
#X obj 360 530 array define sawLol 515;
#X obj 342 472 array define sineLol 515;
#X msg 138 675 set triLol;
#X msg 138 701 set sawLol;
#X msg 146 643 set squareLol;
#X obj 29 745 tabread sawLol;
#X floatatom 29 766 5 0 0 0 - - -;
#X floatatom 43 699 5 0 0 0 - - -;
#X obj 283 349 * 1;
#X obj 413 167 moses 492;
#X obj 466 191 - 492;
#X obj 414 258 / 492;
#X msg 407 601 -1 0 \, -1 513 \, -1 514;
#X msg 579 95 512;
#X obj 606 267 moses 256, f 12;
#X obj 607 291 / 512;
#X obj 736 194 - 256;
#X msg 734 242 256 \$1;
#X obj 727 321 / 512;
#X obj 1144 94 t a b;
#X obj 1144 129 until;
#X obj 1144 160 f;
#X obj 1184 161 + 1;
#X obj 1144 181 t a a, f 32;
#X obj 1137 45 bng 15 250 50 0 empty empty empty 17 7 0 10 -262144
-1 -1;
#X obj 994 290 pow 2;
#X obj 1045 282 t b;
#X obj 1212 323 t b;
#X obj 1113 294 -;
#X obj 1263 343 pow 2;
#X obj 994 248 moses 20;
#X obj 1263 322 / 20;
#X obj 1113 315 / 20;
#X obj 994 269 / 20;
#X obj 1114 336 pow 2;
#X msg 1195 122 1;
#X msg 1137 65 512;
#X obj 995 224 moses 256, f 25;
#X obj 1156 250 moses 276;
#X obj 1212 274 moses 492;
#X obj 1263 300 - 492;
#X msg 1113 273 276 \$1;
#X msg 257 766 write squareWaveX.txt;
#X obj 259 793 array define squareLolX 515;
#X obj 1045 435 tabwrite squareLolX, f 49;
#X msg 1045 306 0.75;
#X msg 1212 344 -0.75;
#X obj 1261 372 * 0.75;
#X obj 1261 393 - 0.75;
#X obj 1112 357 * 1.5;
#X obj 1112 378 - 0.75;
#X obj 994 311 * 0.75;
#X msg 560 699 set squareLolX;
#X connect 0 0 1 0;
#X connect 0 1 65 0;
#X connect 1 0 2 0;
#X connect 2 0 3 0;
#X connect 2 0 4 0;
#X connect 3 0 2 1;
#X connect 4 0 72 0;
#X connect 4 1 32 1;
#X connect 5 0 68 0;
#X connect 6 0 7 0;
#X connect 6 1 66 0;
#X connect 7 0 8 0;
#X connect 8 0 9 0;
#X connect 8 0 10 0;
#X connect 9 0 8 1;
#X connect 10 0 93 0;
#X connect 10 1 29 1;
#X connect 11 0 69 0;
#X connect 12 0 13 0;
#X connect 12 1 67 0;
#X connect 13 0 14 0;
#X connect 14 0 15 0;
#X connect 14 0 16 0;
#X connect 15 0 14 1;
#X connect 16 0 98 0;
#X connect 16 1 42 1;
#X connect 17 0 97 0;
#X connect 18 0 19 0;
#X connect 19 0 29 0;
#X connect 20 0 42 0;
#X connect 21 0 42 0;
#X connect 22 0 102 0;
#X connect 23 0 20 0;
#X connect 24 0 21 0;
#X connect 25 0 85 0;
#X connect 26 0 51 0;
#X connect 27 0 28 0;
#X connect 28 0 29 0;
#X connect 30 0 84 0;
#X connect 31 0 82 0;
#X connect 33 0 32 0;
#X connect 34 0 38 0;
#X connect 35 0 36 0;
#X connect 36 0 32 0;
#X connect 37 0 40 0;
#X connect 38 0 32 0;
#X connect 39 0 47 0;
#X connect 40 0 32 0;
#X connect 41 0 83 0;
#X connect 43 0 92 0;
#X connect 44 0 32 0;
#X connect 45 0 48 0;
#X connect 45 1 34 0;
#X connect 46 0 43 0;
#X connect 47 0 49 0;
#X connect 48 0 33 0;
#X connect 49 0 35 0;
#X connect 50 0 26 0;
#X connect 51 0 52 0;
#X connect 52 0 27 0;
#X connect 53 0 71 0;
#X connect 56 0 55 0;
#X connect 56 1 55 1;
#X connect 58 0 55 0;
#X connect 59 0 55 0;
#X connect 61 0 62 0;
#X connect 63 0 61 0;
#X connect 65 0 2 1;
#X connect 66 0 8 1;
#X connect 67 0 14 1;
#X connect 68 0 0 0;
#X connect 69 0 6 0;
#X connect 70 0 53 0;
#X connect 72 0 45 0;
#X connect 72 1 73 0;
#X connect 73 0 79 0;
#X connect 73 1 77 0;
#X connect 74 0 76 0;
#X connect 76 0 75 0;
#X connect 77 0 37 0;
#X connect 77 1 78 0;
#X connect 78 0 46 0;
#X connect 79 0 39 0;
#X connect 80 0 56 0;
#X connect 81 0 55 0;
#X connect 86 0 89 0;
#X connect 87 0 89 0;
#X connect 88 0 89 0;
#X connect 89 0 90 0;
#X connect 91 0 89 0;
#X connect 92 0 44 0;
#X connect 93 0 95 0;
#X connect 93 1 94 0;
#X connect 94 0 50 0;
#X connect 95 0 18 0;
#X connect 96 0 56 0;
#X connect 97 0 12 0;
#X connect 98 0 99 0;
#X connect 98 1 100 0;
#X connect 99 0 23 0;
#X connect 100 0 101 0;
#X connect 101 0 22 0;
#X connect 102 0 24 0;
#X connect 103 0 104 0;
#X connect 103 1 119 0;
#X connect 104 0 105 0;
#X connect 105 0 106 0;
#X connect 105 0 107 0;
#X connect 106 0 105 1;
#X connect 107 0 121 0;
#X connect 107 1 128 1;
#X connect 108 0 120 0;
#X connect 109 0 135 0;
#X connect 110 0 129 0;
#X connect 111 0 130 0;
#X connect 112 0 116 0;
#X connect 113 0 131 0;
#X connect 114 0 117 0;
#X connect 114 1 110 0;
#X connect 115 0 113 0;
#X connect 116 0 118 0;
#X connect 117 0 109 0;
#X connect 118 0 133 0;
#X connect 119 0 105 1;
#X connect 120 0 103 0;
#X connect 121 0 114 0;
#X connect 121 1 122 0;
#X connect 122 0 125 0;
#X connect 122 1 123 0;
#X connect 123 0 111 0;
#X connect 123 1 124 0;
#X connect 124 0 115 0;
#X connect 125 0 112 0;
#X connect 126 0 127 0;
#X connect 129 0 128 0;
#X connect 130 0 128 0;
#X connect 131 0 132 0;
#X connect 132 0 128 0;
#X connect 133 0 134 0;
#X connect 134 0 128 0;
#X connect 135 0 128 0;
#X connect 136 0 55 0;
