#N canvas 445 221 1099 681 10;
#X obj 190 514 s \$0-vel;
#X obj 305 535 outlet~;
#N canvas 4 50 1120 683 sample-1 0;
#X obj 118 283 r \$0-2-sample;
#X obj 118 304 list trim;
#X obj 30 161 sel 0;
#X msg 30 182 0;
#X obj 29 412 *~;
#X obj 84 259 / 127;
#X obj 30 130 r \$0-vel;
#X obj 30 532 *~, f 12;
#X obj 316 260 list prepend sampLength;
#X obj 57 204 t f f b, f 19;
#X obj 30 563 *~, f 71;
#X obj 515 214 list prepend tab;
#X obj 316 84 t a a, f 25;
#X msg 515 189 samp-\$1;
#X obj 316 232 v;
#X msg 316 183 symbol samp-\$1-lengthSamp;
#X obj 316 204 t b a;
#X obj 316 281 list trim;
#X obj 316 61 r assign-top-left;
#X text 333 380 scale this so there is overlap;
#X obj 30 388 zample-play-table samp-1;
#X obj 30 633 outlet~;
#X obj 302 315 r~ glob-time-lfo;
#X obj 302 341 clip~ 0 0.75;
#X obj 302 362 *~ 1.3334;
#X obj 302 443 pow~ 2;
#X obj 232 459 sig~ 1;
#X obj 232 480 -~, f 11;
#X obj 540 492 sig~ 1;
#X obj 540 513 -~, f 11;
#X obj 603 386 pow~ 3;
#X obj 602 365 /~ 0.75;
#X obj 600 344 clip~ 0 0.75;
#X obj 602 323 r~ glob-blend-lfo;
#X obj 30 584 hip~ 5;
#X obj 30 605 *~ 0.9;
#X connect 0 0 1 0;
#X connect 1 0 20 1;
#X connect 2 0 3 0;
#X connect 2 1 9 0;
#X connect 3 0 20 0;
#X connect 4 0 7 0;
#X connect 5 0 4 1;
#X connect 6 0 2 0;
#X connect 7 0 10 0;
#X connect 8 0 17 0;
#X connect 9 0 20 0;
#X connect 9 1 5 0;
#X connect 9 2 14 0;
#X connect 10 0 34 0;
#X connect 11 0 17 0;
#X connect 12 0 15 0;
#X connect 12 1 13 0;
#X connect 13 0 11 0;
#X connect 14 0 8 0;
#X connect 15 0 16 0;
#X connect 16 0 14 0;
#X connect 16 1 14 1;
#X connect 17 0 20 1;
#X connect 18 0 12 0;
#X connect 20 0 4 0;
#X connect 22 0 23 0;
#X connect 23 0 24 0;
#X connect 24 0 20 2;
#X connect 24 0 25 0;
#X connect 25 0 27 1;
#X connect 26 0 27 0;
#X connect 27 0 7 1;
#X connect 28 0 29 0;
#X connect 29 0 10 1;
#X connect 30 0 29 1;
#X connect 31 0 30 0;
#X connect 32 0 31 0;
#X connect 33 0 32 0;
#X connect 34 0 35 0;
#X connect 35 0 21 0;
#X restore 499 240 pd sample-1;
#N canvas 855 50 843 891 sample-2 0;
#X obj 207 279 r \$0-2-sample;
#X obj 207 300 list trim;
#X obj 30 161 sel 0;
#X msg 30 182 0;
#X obj 29 412 *~;
#X obj 84 259 / 127;
#X obj 30 130 r \$0-vel;
#X obj 30 582 *~, f 12;
#X obj 57 204 t f f b, f 19;
#X obj 30 612 *~, f 71;
#X obj 338 258 list prepend sampLength;
#X obj 533 211 list prepend tab;
#X obj 338 82 t a a, f 25;
#X msg 533 186 samp-\$1;
#X obj 338 230 v;
#X msg 338 181 symbol samp-\$1-lengthSamp;
#X obj 338 202 t b a;
#X obj 338 279 list trim;
#X obj 338 59 r assign-top-right;
#X obj 30 388 zample-play-table samp-2;
#X obj 175 562 -~;
#X obj 153 528 sig~ 1;
#X obj 207 531 pow~ 2;
#X obj 212 488 -~;
#X obj 190 454 sig~ 1;
#X obj 310 418 *~ 1.33334;
#X obj 310 388 -~ 0.25;
#X obj 310 367 clip~ 0.25 1;
#X obj 310 341 r~ glob-time-lfo;
#X obj 602 323 r~ glob-blend-lfo;
#X obj 602 344 clip~ 0 0.75;
#X obj 602 365 /~ 0.75;
#X obj 603 386 pow~ 3;
#X obj 575 427 -~;
#X obj 553 393 sig~ 1;
#X obj 30 633 *~ 0.9;
#X obj 30 654 hip~ 5;
#X obj 30 675 outlet~;
#X connect 0 0 1 0;
#X connect 1 0 19 1;
#X connect 2 0 3 0;
#X connect 2 1 8 0;
#X connect 3 0 19 0;
#X connect 4 0 7 0;
#X connect 5 0 4 1;
#X connect 6 0 2 0;
#X connect 7 0 9 0;
#X connect 8 0 19 0;
#X connect 8 1 5 0;
#X connect 8 2 14 0;
#X connect 9 0 35 0;
#X connect 10 0 17 0;
#X connect 11 0 17 0;
#X connect 12 0 15 0;
#X connect 12 1 13 0;
#X connect 13 0 11 0;
#X connect 14 0 10 0;
#X connect 15 0 16 0;
#X connect 16 0 14 0;
#X connect 16 1 14 1;
#X connect 17 0 19 1;
#X connect 18 0 12 0;
#X connect 19 0 4 0;
#X connect 20 0 7 1;
#X connect 21 0 20 0;
#X connect 22 0 20 1;
#X connect 23 0 22 0;
#X connect 24 0 23 0;
#X connect 25 0 23 1;
#X connect 26 0 25 0;
#X connect 27 0 26 0;
#X connect 28 0 27 0;
#X connect 29 0 30 0;
#X connect 30 0 31 0;
#X connect 31 0 32 0;
#X connect 32 0 33 1;
#X connect 33 0 9 1;
#X connect 34 0 33 0;
#X connect 35 0 36 0;
#X connect 36 0 37 0;
#X restore 619 240 pd sample-2;
#N canvas 660 50 921 849 sample-4 0;
#X obj 207 279 r \$0-2-sample;
#X obj 207 300 list trim;
#X obj 30 161 sel 0;
#X msg 30 182 0;
#X obj 29 412 *~;
#X obj 84 259 / 127;
#X obj 30 130 r \$0-vel;
#X obj 30 582 *~, f 12;
#X obj 57 204 t f f b, f 19;
#X obj 26 620 *~, f 71;
#X obj 349 238 list prepend sampLength;
#X obj 544 191 list prepend tab;
#X obj 349 62 t a a, f 25;
#X msg 544 166 samp-\$1;
#X obj 349 210 v;
#X msg 349 161 symbol samp-\$1-lengthSamp;
#X obj 349 182 t b a;
#X obj 349 259 list trim;
#X obj 351 39 r assign-bottom-right;
#X obj 29 388 zample-play-table samp-4;
#X obj 303 333 r~ glob-time-lfo;
#X obj 303 359 clip~ 0.25 1;
#X obj 303 379 -~ 0.25;
#X obj 303 408 *~ 1.33334;
#X obj 244 457 sig~ 1;
#X obj 244 478 -~;
#X obj 243 502 pow~ 2;
#X obj 140 484 sig~ 1;
#X obj 140 505 -~;
#X obj 713 303 r~ glob-blend-lfo;
#X obj 713 323 clip~ 0.25 1;
#X obj 712 345 -~ 0.25;
#X obj 712 366 /~ 0.75;
#X obj 662 363 sig~ 1;
#X obj 662 384 -~;
#X obj 712 433 pow~ 3;
#X obj 574 449 sig~ 1;
#X obj 574 470 -~;
#X obj 28 652 *~ 0.9;
#X obj 28 673 hip~ 5;
#X obj 28 694 outlet~;
#X connect 0 0 1 0;
#X connect 1 0 19 1;
#X connect 2 0 3 0;
#X connect 2 1 8 0;
#X connect 3 0 19 0;
#X connect 4 0 7 0;
#X connect 5 0 4 1;
#X connect 6 0 2 0;
#X connect 7 0 9 0;
#X connect 8 0 19 0;
#X connect 8 1 5 0;
#X connect 8 2 14 0;
#X connect 9 0 38 0;
#X connect 10 0 17 0;
#X connect 11 0 17 0;
#X connect 12 0 15 0;
#X connect 12 1 13 0;
#X connect 13 0 11 0;
#X connect 14 0 10 0;
#X connect 15 0 16 0;
#X connect 16 0 14 0;
#X connect 16 1 14 1;
#X connect 17 0 19 1;
#X connect 18 0 12 0;
#X connect 19 0 4 0;
#X connect 20 0 21 0;
#X connect 21 0 22 0;
#X connect 22 0 23 0;
#X connect 23 0 19 2;
#X connect 23 0 25 1;
#X connect 24 0 25 0;
#X connect 25 0 26 0;
#X connect 26 0 28 1;
#X connect 27 0 28 0;
#X connect 28 0 7 1;
#X connect 29 0 30 0;
#X connect 30 0 31 0;
#X connect 31 0 32 0;
#X connect 32 0 34 1;
#X connect 33 0 34 0;
#X connect 34 0 35 0;
#X connect 35 0 37 1;
#X connect 36 0 37 0;
#X connect 37 0 9 1;
#X connect 38 0 39 0;
#X connect 39 0 40 0;
#X restore 619 290 pd sample-4;
#N canvas 4 50 1436 683 sample-3 0;
#X obj 112 285 r \$0-2-sample;
#X obj 112 306 list trim;
#X obj 30 161 sel 0;
#X msg 30 182 0;
#X obj 29 412 *~;
#X obj 84 242 / 127;
#X obj 30 130 r \$0-vel;
#X obj 30 532 *~, f 12;
#X obj 57 204 t f f b, f 19;
#X obj 30 562 *~, f 71;
#X obj 341 252 list prepend sampLength;
#X obj 536 205 list prepend tab;
#X obj 341 76 t a a, f 25;
#X msg 536 180 samp-\$1;
#X obj 341 224 v;
#X msg 341 175 symbol samp-\$1-lengthSamp;
#X obj 341 196 t b a;
#X obj 341 273 list trim;
#X obj 341 53 r assign-bottom-left;
#X text 333 380 scale this so there is overlap;
#X obj 30 388 zample-play-table samp-3;
#X obj 304 315 r~ glob-time-lfo;
#X obj 302 341 clip~ 0 0.75;
#X obj 302 362 *~ 1.3334;
#X obj 301 443 pow~ 2;
#X obj 231 462 sig~ 1;
#X obj 231 483 -~;
#X obj 569 308 r~ glob-blend-lfo;
#X obj 569 329 clip~ 0.25 1;
#X obj 569 350 -~ 0.25;
#X obj 569 371 /~ 0.75;
#X obj 521 374 sig~ 1;
#X obj 521 395 -~, f 8;
#X obj 569 438 pow~ 3;
#X obj 496 452 sig~ 1;
#X obj 496 473 -~, f 8;
#X obj 30 590 *~ 0.9;
#X obj 30 611 hip~ 5;
#X obj 30 632 outlet~;
#X connect 0 0 1 0;
#X connect 1 0 20 1;
#X connect 2 0 3 0;
#X connect 2 1 8 0;
#X connect 3 0 20 0;
#X connect 4 0 7 0;
#X connect 5 0 4 1;
#X connect 6 0 2 0;
#X connect 7 0 9 0;
#X connect 8 0 20 0;
#X connect 8 1 5 0;
#X connect 8 2 14 0;
#X connect 9 0 36 0;
#X connect 10 0 17 0;
#X connect 11 0 17 0;
#X connect 12 0 15 0;
#X connect 12 1 13 0;
#X connect 13 0 11 0;
#X connect 14 0 10 0;
#X connect 15 0 16 0;
#X connect 16 0 14 0;
#X connect 16 1 14 1;
#X connect 17 0 20 1;
#X connect 18 0 12 0;
#X connect 20 0 4 0;
#X connect 21 0 22 0;
#X connect 22 0 23 0;
#X connect 23 0 20 2;
#X connect 23 0 24 0;
#X connect 24 0 26 1;
#X connect 25 0 26 0;
#X connect 26 0 7 1;
#X connect 27 0 28 0;
#X connect 28 0 29 0;
#X connect 29 0 30 0;
#X connect 30 0 32 1;
#X connect 31 0 32 0;
#X connect 32 0 33 0;
#X connect 33 0 35 1;
#X connect 34 0 35 0;
#X connect 35 0 9 1;
#X connect 36 0 37 0;
#X connect 37 0 38 0;
#X restore 499 290 pd sample-3;
#N canvas 4 51 759 468 pitch/speed 0;
#X obj 44 22 inlet;
#X obj 44 276 list prepend speed;
#X obj 44 307 s \$0-2-sample;
#X obj 561 78 s \$0-2-sample;
#X obj 561 54 list prepend size;
#X obj 561 20 r global-size;
#X text 84 45 72 equals normal speed;
#X obj 44 211 / 261.626;
#X obj 44 184 mtof;
#X obj 80 81 r global-speed;
#X obj 44 141 +, f 8;
#X obj 80 102 t b a;
#X obj 44 232 / 2;
#X connect 0 0 10 0;
#X connect 1 0 2 0;
#X connect 4 0 3 0;
#X connect 5 0 4 0;
#X connect 7 0 12 0;
#X connect 8 0 7 0;
#X connect 9 0 11 0;
#X connect 10 0 8 0;
#X connect 11 0 10 0;
#X connect 11 1 10 1;
#X connect 12 0 1 0;
#X restore 96 379 pd pitch/speed;
#X obj 63 336 unpack;
#X obj 63 357 swap, f 6;
#X obj 30 8 inlet notes;
#X msg 63 267 69;
#X obj 63 288 list, f 38;
#X obj 63 309 route 69;
#X obj 30 29 t a a, f 43;
#X obj 30 50 unpack;
#X obj 63 80 sel 0, f 11;
#X msg 186 146 stop;
#X obj 63 101 t b b;
#X obj 306 495 *~;
#X obj 307 374 vline~;
#X obj 307 395 pow~ 2;
#X obj 157 179 del 3;
#X msg 129 235 0 3 \, 1 3 3;
#X obj 129 103 t b b b, f 10;
#X msg 63 569 0;
#X obj 63 610 switch~;
#X msg 82 525 stop;
#X msg 148 542 1;
#X obj 63 408 sel 0;
#X obj 121 462 t b b a, f 12;
#X obj 63 464 t b b b;
#X msg 124 497 0;
#X obj 63 548 del 150;
#X connect 2 0 18 1;
#X connect 3 0 18 1;
#X connect 4 0 18 1;
#X connect 5 0 18 1;
#X connect 7 0 8 0;
#X connect 7 1 8 1;
#X connect 8 0 28 0;
#X connect 8 1 6 0;
#X connect 9 0 13 0;
#X connect 10 0 11 0;
#X connect 11 0 12 0;
#X connect 12 0 7 0;
#X connect 13 0 14 0;
#X connect 13 1 11 1;
#X connect 14 1 15 0;
#X connect 15 0 17 0;
#X connect 15 1 23 0;
#X connect 16 0 21 0;
#X connect 17 0 10 0;
#X connect 17 1 16 0;
#X connect 18 0 1 0;
#X connect 19 0 20 0;
#X connect 20 0 18 0;
#X connect 21 0 10 0;
#X connect 22 0 19 0;
#X connect 23 0 22 0;
#X connect 23 1 21 0;
#X connect 23 2 16 0;
#X connect 24 0 25 0;
#X connect 26 0 32 0;
#X connect 27 0 25 0;
#X connect 28 0 30 0;
#X connect 28 1 29 0;
#X connect 29 0 26 0;
#X connect 29 1 27 0;
#X connect 29 2 0 0;
#X connect 30 0 32 0;
#X connect 30 1 26 0;
#X connect 30 2 31 0;
#X connect 31 0 0 0;
#X connect 32 0 24 0;
