#N canvas 447 50 1415 1017 10;
#X obj 14 16 inlet velocity;
#X obj 518 16 inlet messages;
#N canvas 242 147 960 686 messages 0;
#X obj 37 37 inlet;
#X obj 37 309 s \$0-table;
#X obj 102 254 s \$0-start;
#X obj 167 202 s \$0-size;
#X obj 233 295 s \$0-speed;
#X obj 37 58 route tab start size speed sampLength, f 55;
#X obj 298 237 s \$0-s-length;
#X obj 298 85 t f f b;
#X obj 337 142 samplerate~;
#X obj 337 163 * 0.001;
#X obj 317 188 /;
#X obj 317 214 s \$0-ms-length;
#X msg 233 149 1 \$1;
#X obj 233 171 /;
#X obj 337 115 cg-one-bang;
#X connect 0 0 5 0;
#X connect 5 0 1 0;
#X connect 5 1 2 0;
#X connect 5 2 3 0;
#X connect 5 3 12 0;
#X connect 5 4 7 0;
#X connect 7 0 6 0;
#X connect 7 1 10 0;
#X connect 7 2 14 0;
#X connect 8 0 9 0;
#X connect 9 0 10 1;
#X connect 10 0 11 0;
#X connect 12 0 13 0;
#X connect 13 0 4 0;
#X connect 14 0 8 0;
#X restore 518 37 pd messages;
#X obj 14 37 sel 0, f 21;
#X obj 207 728 r \$0-table;
#X obj 207 749 list prepend set;
#X obj 207 770 list trim;
#X obj 137 773 +~ 1;
#X obj 288 12 r \$0-speed;
#X text 624 16 basic sample looper;
#X obj 162 -43 r \$0-ms-length;
#X obj 162 78 f;
#X obj 288 33 t b a;
#X obj 162 99 * 1, f 26;
#X obj 162 599 r \$0-s-length;
#X obj 138 832 *~, f 32;
#X obj 138 933 *~;
#X obj 153 907 vline~;
#X obj 153 884 r \$0-2-vline;
#X obj 138 804 tabread4~ \$1, f 13;
#X text 628 30 Arg 1: set the table to read;
#X obj 180 -22 r \$0-size;
#X obj 180 -1 t b a;
#X obj 162 26 f;
#X obj 162 48 * 1, f 8;
#X obj 136 532 wrap~;
#X obj 14 285 s \$0-2-vline;
#X msg 14 264 0 100;
#X obj 326 691 -~ 0.5;
#X obj 326 722 *~ 0.5;
#X obj 326 789 clip~ 0 1;
#X obj 326 744 cos~;
#N canvas 4 50 450 300 scale-size 0;
#X obj 26 29 r \$0-s-length;
#X obj 131 40 r \$0-size;
#X obj 27 145 / 2048;
#X obj 27 167 max 1;
#X obj 27 208 outlet;
#X obj 26 114 *, f 18;
#X obj 131 61 t b a;
#X connect 0 0 5 0;
#X connect 1 0 6 0;
#X connect 2 0 3 0;
#X connect 3 0 4 0;
#X connect 5 0 2 0;
#X connect 6 0 5 0;
#X connect 6 1 5 1;
#X restore 397 612 pd scale-size;
#X text 457 187 note on;
#X obj 528 466 samphold~;
#X obj 579 437 r~ \$0-phase;
#X obj 136 501 +~, f 66;
#X obj 136 470 *~, f 39;
#X obj 137 407 phasor~, f 17;
#X obj 162 120 sel 0, f 8;
#X obj 207 188 /;
#X obj 167 438 s~ \$0-phase;
#X obj 368 438 samphold~;
#X obj 367 412 sig~ 1;
#X obj 419 409 r~ \$0-phase;
#X obj 367 384 r \$0-size;
#X obj 162 623 - 2;
#X obj 163 678 samphold~;
#X obj 162 652 sig~ 1;
#X obj 214 649 r~ \$0-phase;
#X obj 137 712 *~, f 5;
#X obj 138 862 *~, f 54;
#X obj 459 732 -~ 0.5;
#X obj 459 754 *~ 0.5;
#X obj 458 829 clip~ 0 1;
#X obj 459 776 cos~;
#X obj 398 665 samphold~;
#X obj 397 639 sig~ 1;
#X obj 449 636 r~ \$0-phase;
#X obj 326 767 *~, f 9;
#X obj 459 799 *~, f 9;
#X obj 459 710 r~ \$0-phase;
#X obj 296 327 s \$0-2-vline;
#X msg 296 306 1 8;
#X obj 138 984 outlet~;
#X msg 236 350 0;
#X msg 207 167 1000 \$1;
#X msg 162 141 0.001;
#X msg 138 322 \$1 10;
#X obj 138 383 vline~;
#X obj 846 18 inlet~ start-mod;
#X obj 138 954 clip~ -1 1;
#X obj 219 295 f;
#X msg 219 316 \$1 0;
#X obj 207 209 t f f;
#X msg 10 414 0;
#X obj 10 455 switch~;
#X obj 137 255 t b b b b, f 27;
#X msg 37 362 stop;
#X obj 14 58 t b b;
#X obj 10 339 t b b;
#X obj 69 332 t b b;
#X msg 85 379 1;
#X obj 10 393 del 110;
#X connect 0 0 3 0;
#X connect 1 0 2 0;
#X connect 3 0 79 0;
#X connect 3 1 77 0;
#X connect 4 0 5 0;
#X connect 5 0 6 0;
#X connect 6 0 19 0;
#X connect 7 0 19 0;
#X connect 8 0 12 0;
#X connect 10 0 23 0;
#X connect 11 0 13 0;
#X connect 12 0 11 0;
#X connect 12 1 13 1;
#X connect 13 0 39 0;
#X connect 14 0 46 0;
#X connect 15 0 51 0;
#X connect 16 0 71 0;
#X connect 17 0 16 1;
#X connect 18 0 17 0;
#X connect 19 0 15 0;
#X connect 21 0 22 0;
#X connect 22 0 23 0;
#X connect 22 1 24 1;
#X connect 23 0 24 0;
#X connect 24 0 11 0;
#X connect 25 0 28 0;
#X connect 25 0 50 0;
#X connect 27 0 26 0;
#X connect 28 0 29 0;
#X connect 29 0 31 0;
#X connect 30 0 15 1;
#X connect 31 0 59 0;
#X connect 32 0 57 0;
#X connect 34 0 36 1;
#X connect 35 0 34 1;
#X connect 36 0 25 0;
#X connect 37 0 36 0;
#X connect 38 0 41 0;
#X connect 38 0 37 0;
#X connect 39 0 67 0;
#X connect 39 1 66 0;
#X connect 40 0 74 0;
#X connect 42 0 37 1;
#X connect 43 0 42 0;
#X connect 44 0 42 1;
#X connect 45 0 43 0;
#X connect 46 0 48 0;
#X connect 47 0 50 1;
#X connect 48 0 47 0;
#X connect 49 0 47 1;
#X connect 50 0 7 0;
#X connect 51 0 16 0;
#X connect 52 0 53 0;
#X connect 53 0 55 0;
#X connect 54 0 51 1;
#X connect 55 0 60 0;
#X connect 56 0 59 1;
#X connect 56 0 60 1;
#X connect 57 0 56 0;
#X connect 58 0 56 1;
#X connect 59 0 30 0;
#X connect 60 0 54 0;
#X connect 61 0 52 0;
#X connect 63 0 62 0;
#X connect 65 0 38 1;
#X connect 66 0 40 0;
#X connect 67 0 66 0;
#X connect 68 0 69 0;
#X connect 69 0 38 0;
#X connect 70 0 34 0;
#X connect 71 0 64 0;
#X connect 72 0 73 0;
#X connect 73 0 69 0;
#X connect 74 0 68 0;
#X connect 74 1 72 1;
#X connect 75 0 76 0;
#X connect 77 0 65 0;
#X connect 77 1 72 0;
#X connect 77 2 63 0;
#X connect 77 3 81 0;
#X connect 78 0 83 0;
#X connect 79 0 27 0;
#X connect 79 1 80 0;
#X connect 80 0 83 0;
#X connect 80 1 78 0;
#X connect 81 0 78 0;
#X connect 81 1 82 0;
#X connect 82 0 76 0;
#X connect 83 0 75 0;
