#N canvas 358 66 936 558 10;
#X obj 131 350 throw~ outL;
#X obj 217 348 throw~ outR;
#N canvas 52 50 718 582 arrays 0;
#X obj 285 177 cg-load-array-record dj 10;
#X obj 287 143 cg-load-array-record dj 9;
#X obj 285 47 cg-load-array-record dj 6;
#X obj 65 107 cg-load-array-record dj 3;
#X obj 65 77 cg-load-array-record dj 2;
#X obj 65 47 cg-load-array-record dj 1;
#X obj 65 147 cg-load-array-record dj 4;
#X obj 66 177 cg-load-array-record dj 5;
#X obj 285 77 cg-load-array-record dj 7;
#X obj 285 107 cg-load-array-record dj 8;
#X restore 136 95 pd arrays;
#X text 210 96 load the samples into arrays to be read by the dualing
loopers;
#N canvas 65 50 1533 821 the 0;
#N canvas 463 102 1060 804 deck2 0;
#X msg 434 532 0;
#X msg 209 304 read \$1;
#X msg 290 392 speed \$1;
#X obj 310 336 t b a;
#X obj 290 369 *;
#X obj 290 289 r \$0-deck1-speed;
#X msg 537 432 length 1;
#X obj 60 165 inlet on/off;
#X obj 537 407 loadbang;
#X obj 610 113 inlet repoint;
#X obj 512 111 inlet speed;
#X obj 290 695 outlet~;
#X obj 300 41 inlet read, f 23;
#X obj 473 354 list prepend repoint;
#X obj 473 376 route list;
#X msg 58 317 switch \$1;
#X obj 60 190 sel 0 1;
#X obj 89 254 t f b;
#X msg 60 212 0;
#X msg 90 212 1, f 4;
#X obj 437 603 outlet~;
#X obj 113 35 inlet~ table 1 position;
#X obj 332 117 snapshot~;
#X obj 300 84 t f b;
#X obj 300 147 +;
#X obj 300 171 wrap;
#X obj 190 184 f, f 4;
#X msg 121 278 0;
#X obj 190 153 t b a;
#X obj 190 206 +, f 8;
#X obj 300 198 t f b b;
#X obj 290 665 *~;
#X obj 309 635 vline~;
#X obj 257 238 pipe 5.5;
#X obj 323 238 del 5.6;
#X msg 309 609 0 5 \, 1 5 6;
#X obj 68 294 pipe 2;
#X obj 290 553 cg-looper-record dj-1;
#X text 448 549 <---- standard critter and gutari looper;
#X connect 0 0 37 1;
#X connect 1 0 37 0;
#X connect 2 0 37 0;
#X connect 3 0 4 0;
#X connect 3 1 4 1;
#X connect 4 0 2 0;
#X connect 5 0 4 0;
#X connect 6 0 37 0;
#X connect 7 0 16 0;
#X connect 8 0 6 0;
#X connect 9 0 13 0;
#X connect 10 0 3 0;
#X connect 12 0 23 0;
#X connect 12 0 26 1;
#X connect 13 0 14 0;
#X connect 14 0 37 0;
#X connect 15 0 37 0;
#X connect 16 0 18 0;
#X connect 16 1 19 0;
#X connect 17 0 36 0;
#X connect 17 1 27 0;
#X connect 18 0 15 0;
#X connect 19 0 17 0;
#X connect 21 0 22 0;
#X connect 22 0 24 1;
#X connect 23 0 24 0;
#X connect 23 1 22 0;
#X connect 24 0 25 0;
#X connect 25 0 30 0;
#X connect 26 0 29 0;
#X connect 27 0 28 0;
#X connect 28 0 26 0;
#X connect 28 1 29 1;
#X connect 29 0 25 0;
#X connect 30 0 33 0;
#X connect 30 1 34 0;
#X connect 30 2 35 0;
#X connect 31 0 11 0;
#X connect 32 0 31 1;
#X connect 33 0 1 0;
#X connect 34 0 0 0;
#X connect 35 0 32 0;
#X connect 36 0 15 0;
#X connect 37 0 31 0;
#X connect 37 1 20 0;
#X restore 748 447 pd deck2;
#X obj 999 224 r knob4;
#X obj 999 288 int;
#X obj 762 202 r notes;
#N canvas 55 50 1061 805 deck1 0;
#X msg 433 529 0;
#X msg 209 304 read \$1;
#X msg 287 388 speed \$1;
#X msg 126 407 switch \$1;
#X msg 537 432 length 1;
#X obj 59 159 inlet on/off;
#X obj 537 407 loadbang;
#X obj 525 115 inlet repoint;
#X obj 430 116 inlet speed;
#X obj 290 705 outlet~;
#X obj 218 136 inlet read, f 23;
#X obj 292 326 t a a;
#X obj 323 356 s \$0-deck1-speed;
#X obj 487 617 outlet~, f 17;
#X obj 473 354 list prepend repoint;
#X obj 473 376 route list;
#X obj 128 280 sel 0 1;
#X obj 157 344 t f b;
#X msg 128 302 0;
#X msg 158 302 1, f 4;
#X obj 290 553 cg-looper-record dj-1;
#X obj 157 366 pipe 2;
#X text 448 549 <---- standard critter and gutari looper;
#X connect 0 0 20 1;
#X connect 1 0 20 0;
#X connect 2 0 20 0;
#X connect 3 0 20 0;
#X connect 4 0 20 0;
#X connect 5 0 16 0;
#X connect 6 0 4 0;
#X connect 7 0 14 0;
#X connect 8 0 11 0;
#X connect 10 0 1 0;
#X connect 11 0 2 0;
#X connect 11 1 12 0;
#X connect 14 0 15 0;
#X connect 15 0 20 0;
#X connect 16 0 18 0;
#X connect 16 1 19 0;
#X connect 17 0 21 0;
#X connect 17 1 0 0;
#X connect 18 0 3 0;
#X connect 19 0 17 0;
#X connect 20 0 9 0;
#X connect 20 1 13 0;
#X connect 21 0 3 0;
#X restore 177 353 pd deck1;
#X obj 171 220 loadbang;
#X msg 171 242 0;
#X obj 554 243 r \$0-on-off;
#N canvas 156 70 1353 921 print-things 0;
#X obj 413 224 bng 15 250 50 0 empty empty empty 17 7 0 10 -262144
-1 -1;
#X obj 286 316 * 126;
#X obj 286 338 i;
#X obj 303 673 s oscOut;
#X obj 332 508 list;
#X obj 303 640 t a a, f 18;
#X obj 332 530 route list;
#X msg 357 481 0;
#X text 354 658 previous area to invert(erase);
#X text 391 482 erase old session list;
#X msg 196 613 /oled/gFlip 3;
#X obj 286 476 t a b, f 7;
#X obj 271 515 t b a;
#X obj 413 244 t b b;
#X msg 634 186 dj-\$1;
#X obj 634 27 r knob1;
#X obj 634 121 i;
#X obj 634 143 + 1;
#X obj 633 99 * 9;
#X text 696 134 select 1 - 10 samples;
#X obj 715 317 s \$0-erase-playhead;
#X obj 445 304 s \$0-erase-playhead;
#X obj 357 451 r \$0-erase-playhead;
#X obj 634 165 change -1;
#X obj 286 71 inlet;
#X msg 303 613 /oled/gInvertArea 3 \$1 14 3 40;
#X msg 658 353 \; \$1-get-name bang;
#X obj 963 288 r return-name;
#X obj 658 330 symbol;
#X obj 963 469 route list;
#X obj 963 494 t b a, f 17;
#X obj 1056 809 s oscOut;
#X msg 963 519 /oled/gFlip 3;
#X msg 995 407 /oled/gFillArea 3 0 0 127 8 0;
#X obj 963 438 list prepend /oled/gPrintln 3 0 0 8 1;
#X obj 1013 329 t b b;
#X msg 1045 355 stop;
#X obj 1013 380 del 1000;
#X obj 413 274 array-waveform-print-record dj-5;
#X msg 934 350 Sample \$1;
#X obj 963 310 t f b;
#X obj 634 238 t a a a b, f 12;
#X obj 688 297 s djrec-sample-sel;
#X obj 634 217 symbol;
#X obj 710 176 sel 0;
#X obj 710 152 r djrec-aux;
#X obj 710 198 del 50;
#X obj 883 222 inlet;
#X obj 813 557 t a a b, f 10;
#X obj 883 244 * 100;
#X obj 883 266 i;
#X obj 866 586 list, f 5;
#X obj 866 608 route list;
#X obj 813 508 pack 0 0;
#X obj 813 481 - 4;
#X obj 286 360 t f f, f 20;
#X msg 810 636 /oled/gPrintln 3 \$1 5 8 1 \$2%;
#X msg 867 659 /oled/gPrintln 3 \$1 5 8 0 \$2%;
#X obj 634 49 spigot 1;
#X obj 1049 102 r djrec-its-recording;
#X obj 976 59 r djrec-start;
#X obj 917 89 r djrec-stop;
#X obj 1021 82 r djrec-recenabled;
#X obj 930 34 r djrec-autostop;
#X obj 917 111 b;
#X msg 917 133 1;
#X obj 964 111 b;
#X msg 964 133 0;
#X connect 0 0 13 0;
#X connect 1 0 2 0;
#X connect 2 0 55 0;
#X connect 4 0 6 0;
#X connect 5 0 3 0;
#X connect 5 1 4 1;
#X connect 6 0 3 0;
#X connect 7 0 4 1;
#X connect 10 0 3 0;
#X connect 11 0 12 0;
#X connect 11 1 4 0;
#X connect 12 0 10 0;
#X connect 12 1 25 0;
#X connect 13 0 38 0;
#X connect 13 1 21 0;
#X connect 14 0 43 0;
#X connect 15 0 58 0;
#X connect 16 0 17 0;
#X connect 17 0 23 0;
#X connect 18 0 16 0;
#X connect 22 0 7 0;
#X connect 23 0 14 0;
#X connect 24 0 1 0;
#X connect 25 0 5 0;
#X connect 27 0 40 0;
#X connect 28 0 26 0;
#X connect 29 0 30 0;
#X connect 30 0 32 0;
#X connect 30 1 31 0;
#X connect 32 0 31 0;
#X connect 33 0 31 0;
#X connect 34 0 29 0;
#X connect 35 0 37 0;
#X connect 35 1 36 0;
#X connect 36 0 37 0;
#X connect 37 0 33 0;
#X connect 39 0 34 0;
#X connect 40 0 39 0;
#X connect 40 1 33 0;
#X connect 40 1 35 0;
#X connect 41 0 28 0;
#X connect 41 1 38 1;
#X connect 41 2 42 0;
#X connect 41 3 20 0;
#X connect 43 0 41 0;
#X connect 44 0 46 0;
#X connect 45 0 44 0;
#X connect 46 0 43 0;
#X connect 47 0 49 0;
#X connect 48 0 56 0;
#X connect 48 1 51 1;
#X connect 48 2 51 0;
#X connect 49 0 50 0;
#X connect 50 0 53 1;
#X connect 51 0 52 0;
#X connect 52 0 57 0;
#X connect 53 0 48 0;
#X connect 54 0 53 0;
#X connect 55 0 11 0;
#X connect 55 1 54 0;
#X connect 56 0 31 0;
#X connect 57 0 31 0;
#X connect 58 0 18 0;
#X connect 59 0 66 0;
#X connect 60 0 64 0;
#X connect 61 0 64 0;
#X connect 62 0 66 0;
#X connect 63 0 64 0;
#X connect 64 0 65 0;
#X connect 65 0 58 1;
#X connect 66 0 67 0;
#X connect 67 0 58 1;
#X restore 455 583 pd print-things and knob1;
#X obj 177 565 *~;
#X obj 748 677 *~;
#X obj 249 450 *~;
#X obj 249 472 *~;
#X obj 195 501 sig~ 1;
#X obj 195 523 -~, f 8;
#X obj 818 587 *~;
#X obj 818 609 *~;
#X msg 818 515 1 \$1;
#X obj 818 537 -;
#X obj 765 628 sig~ 1;
#X obj 765 650 -~, f 8;
#X obj 818 631 *~;
#X obj 249 494 *~;
#N canvas 628 145 1140 768 print-deck2 0;
#X obj 286 236 * 126;
#X obj 294 258 i;
#X obj 571 722 s oscOut;
#X obj 514 502 list;
#X obj 456 610 t a a, f 18;
#X obj 514 524 route list;
#X msg 663 113 0;
#X text 465 626 previous area to invert(erase);
#X text 697 114 erase old session list;
#X obj 663 55 r \$0-erase-playhead;
#X obj 468 469 t a b, f 7;
#X obj 915 136 inlet;
#X obj 845 471 t a a b, f 10;
#X obj 416 389 t b a a a, f 44;
#X obj 286 280 change -1;
#X obj 915 158 * 100;
#X obj 915 180 i;
#X obj 898 500 list, f 5;
#X obj 898 522 route list;
#X obj 844 422 pack 0 0;
#X obj 286 101 inlet;
#X msg 456 583 /oled/gInvertArea 3 \$1 14 1 40;
#X msg 845 550 /oled/gPrintln 3 \$1 56 8 1 \$2%;
#X msg 899 573 /oled/gPrintln 3 \$1 56 8 0 \$2%;
#X obj 849 395 - 4;
#X obj 827 186 r \$0-on-off;
#X obj 827 208 sel 0 1;
#X msg 858 230 0;
#X msg 827 230 1;
#X obj 740 264 spigot;
#X obj 384 248 b;
#X connect 0 0 1 0;
#X connect 1 0 14 0;
#X connect 1 0 30 0;
#X connect 3 0 5 0;
#X connect 4 0 2 0;
#X connect 4 1 3 1;
#X connect 5 0 2 0;
#X connect 6 0 3 1;
#X connect 6 0 17 1;
#X connect 9 0 6 0;
#X connect 10 0 21 0;
#X connect 10 1 3 0;
#X connect 11 0 15 0;
#X connect 12 0 22 0;
#X connect 12 1 17 1;
#X connect 12 2 17 0;
#X connect 13 1 10 0;
#X connect 13 3 24 0;
#X connect 14 0 13 0;
#X connect 15 0 16 0;
#X connect 16 0 19 1;
#X connect 17 0 18 0;
#X connect 18 0 23 0;
#X connect 19 0 12 0;
#X connect 20 0 0 0;
#X connect 21 0 4 0;
#X connect 22 0 2 0;
#X connect 23 0 2 0;
#X connect 24 0 19 0;
#X connect 25 0 26 0;
#X connect 26 0 28 0;
#X connect 26 1 27 0;
#X connect 27 0 29 1;
#X connect 28 0 29 1;
#X connect 29 0 19 0;
#X connect 30 0 29 0;
#X restore 550 546 pd print-deck2;
#X obj 331 111 r knob3;
#X obj 999 349 t f f, f 14;
#X obj 550 518 snapshot~;
#X obj 455 467 metro 100;
#X obj 455 419 loadbang;
#X msg 455 441 1;
#X obj 491 441 s \$0-erase-playhead;
#X obj 455 489 t b b, f 14;
#X obj 455 517 snapshot~;
#N canvas 8 50 873 630 notes-in 0;
#X obj 268 105 stripnote;
#X obj 268 198 - 72;
#X obj 268 150 % 24;
#X obj 268 174 + 60;
#X obj 268 127 - 12;
#X obj 268 222 * 0.0625;
#X obj 268 82 inlet;
#X obj 268 336 outlet;
#X text 337 221 splits the keyboard into 1/16 steps;
#X text 326 144 wraps midi in to 60-83;
#X connect 0 0 4 0;
#X connect 1 0 5 0;
#X connect 2 0 3 0;
#X connect 3 0 1 0;
#X connect 4 0 2 0;
#X connect 5 0 7 0;
#X connect 6 0 0 0;
#X restore 762 228 pd notes-in;
#X obj 815 490 r \$0-xfade-control;
#X obj 247 405 r \$0-xfade-control;
#X obj 999 310 * 0.0625;
#X obj 999 246 * 64;
#X obj 999 268 - 32;
#X obj 249 428 lop~ 200;
#X obj 818 566 lop~ 200;
#X obj 554 265 t f f;
#X obj 820 261 xtra-saver notes;
#X obj 908 233 loadbang;
#X obj 846 333 r djrec-sample-sel;
#X obj 293 329 r djrec-sample-sel;
#X obj 176 592 throw~ djrec-main;
#X obj 747 713 throw~ djrec-main;
#X obj 331 180 int;
#X obj 331 241 t f f, f 14;
#X obj 331 202 * 0.0625;
#X obj 331 138 * 64;
#X obj 331 160 - 32;
#X obj 547 64 r knob2;
#X obj 576 95 * 100;
#X obj 576 117 i;
#X msg 576 139 Xfade:;
#X obj 547 187 s \$0-xfade-control;
#X text 624 65 knob 2 controls the mix. left (0) is deck1 right is
deck2 (1);
#X connect 0 0 10 0;
#X connect 0 1 26 0;
#X connect 1 0 37 0;
#X connect 2 0 36 0;
#X connect 3 0 33 0;
#X connect 4 0 9 0;
#X connect 4 1 32 0;
#X connect 4 1 0 1;
#X connect 5 0 6 0;
#X connect 6 0 4 1;
#X connect 7 0 41 0;
#X connect 9 0 46 0;
#X connect 10 0 47 0;
#X connect 11 0 12 0;
#X connect 11 0 12 1;
#X connect 12 0 22 0;
#X connect 12 0 22 1;
#X connect 13 0 14 0;
#X connect 14 0 9 1;
#X connect 15 0 16 0;
#X connect 15 0 16 1;
#X connect 16 0 21 0;
#X connect 16 0 21 1;
#X connect 17 0 18 0;
#X connect 18 0 40 0;
#X connect 19 0 20 0;
#X connect 20 0 10 1;
#X connect 21 0 20 1;
#X connect 22 0 14 1;
#X connect 24 0 51 0;
#X connect 25 0 0 3;
#X connect 25 1 23 1;
#X connect 26 0 23 0;
#X connect 27 0 31 0;
#X connect 28 0 29 0;
#X connect 28 0 30 0;
#X connect 29 0 27 0;
#X connect 31 0 32 0;
#X connect 31 1 26 0;
#X connect 32 0 8 0;
#X connect 33 0 42 0;
#X connect 33 0 0 2;
#X connect 34 0 17 0;
#X connect 35 0 39 0;
#X connect 36 0 25 0;
#X connect 37 0 38 0;
#X connect 38 0 2 0;
#X connect 39 0 11 0;
#X connect 39 0 11 1;
#X connect 40 0 15 0;
#X connect 40 0 15 1;
#X connect 41 0 4 0;
#X connect 41 1 0 0;
#X connect 42 0 0 2;
#X connect 43 0 42 1;
#X connect 44 0 0 4;
#X connect 45 0 4 3;
#X connect 48 0 50 0;
#X connect 49 0 4 2;
#X connect 49 1 8 1;
#X connect 50 0 49 0;
#X connect 51 0 52 0;
#X connect 52 0 48 0;
#X connect 53 0 54 0;
#X connect 53 0 57 0;
#X connect 54 0 55 0;
#X connect 55 0 56 0;
#X restore 132 144 pd the two 'decks';
#X text 138 20 The Dj-Patch;
#X text 139 45 a 'beat juggling' patch. two looper play together with
different speeds and play positions;
#X text 265 310 catch the signal send out;
#X text 286 143 the guts of this patch;
#X obj 697 37 r~ inL;
#X obj 748 37 r~ inR;
#X obj 698 203 *~ 1;
#X obj 131 308 catch~ djrec-main;
#X obj 697 226 throw~ djrec-main;
#N canvas 9 50 1409 824 aux 0;
#X obj 1074 404 tgl 15 0 empty empty empty 17 7 0 10 -262144 -1 -1
0 1;
#X text 1003 283 led lights;
#X obj 787 238 s djrec-aux;
#X obj 787 167 r djrec-autostop;
#X obj 1073 473 r djrec-its-recording;
#X obj 1073 520 v djrec-vari;
#X msg 1073 495 3;
#X obj 1074 433 s \$0-on-off;
#X obj 761 670 s led;
#X msg 801 634 3;
#X msg 761 634 0;
#X msg 835 634 6;
#X msg 873 633 1;
#X obj 365 290 f, f 9;
#X obj 242 476 sel 0 1 2 3, f 54;
#X obj 242 551 t b b;
#X msg 274 578 1;
#X obj 335 527 t b b;
#X msg 367 548 0;
#X msg 433 382 2;
#X msg 461 563 0;
#X obj 523 531 t b b b;
#X msg 569 555 1;
#X obj 365 262 del 500;
#X obj 242 305 spigot 0;
#X obj 365 344 t b b b b, f 15;
#X msg 467 373 0;
#X obj 242 283 sel 0;
#X obj 365 237 sel 1;
#X obj 365 316 sel 1;
#X obj 425 230 sel 1;
#X msg 425 253 1;
#X obj 344 196 t f f f f;
#X obj 344 156 r aux;
#X obj 389 156 r fs;
#X obj 242 362 v djrec-vari;
#X obj 433 404 v djrec-vari;
#X obj 274 601 v djrec-vari;
#X obj 367 570 v djrec-vari;
#X obj 461 585 v djrec-vari;
#X obj 569 577 v djrec-vari;
#X obj 242 661 s djrec-start;
#X obj 335 627 s djrec-stop;
#X obj 429 630 s djrec-stop;
#X obj 523 633 s djrec-start;
#X obj 1074 341 r djrec-start;
#X obj 1175 342 r djrec-stop;
#X msg 1074 363 1;
#X msg 1175 364 0;
#X obj 399 429 s djrec-stop;
#X msg 787 211 0;
#X obj 873 609 r djrec-its-recording;
#X obj 800 566 r djrec-start;
#X obj 741 596 r djrec-stop;
#X obj 366 451 s djrec-recenabled;
#X obj 737 147 r djrec-recenabled;
#X msg 737 169 1;
#X obj 845 589 r djrec-recenabled;
#X obj 754 541 r djrec-autostop;
#X obj 787 189 t b b;
#X obj 546 605 s djrec-stop-rec;
#X obj 868 190 r djrec-stop-rec;
#X msg 868 212 0;
#X msg 819 271 0;
#X obj 819 293 v djrec-vari;
#X text 219 115 aux and footswitch control record and playback states
;
#X text 760 700 the led light;
#X obj 496 507 s djrec-recDISabled;
#X obj 429 528 t b b b;
#X connect 0 0 7 0;
#X connect 3 0 59 0;
#X connect 4 0 6 0;
#X connect 6 0 5 0;
#X connect 9 0 8 0;
#X connect 10 0 8 0;
#X connect 11 0 8 0;
#X connect 12 0 8 0;
#X connect 13 0 29 0;
#X connect 14 0 15 0;
#X connect 14 1 17 0;
#X connect 14 2 68 0;
#X connect 14 3 21 0;
#X connect 15 0 41 0;
#X connect 15 1 16 0;
#X connect 16 0 37 0;
#X connect 17 0 42 0;
#X connect 17 1 18 0;
#X connect 18 0 38 0;
#X connect 19 0 36 0;
#X connect 20 0 39 0;
#X connect 21 0 44 0;
#X connect 21 1 60 0;
#X connect 21 2 22 0;
#X connect 22 0 40 0;
#X connect 23 0 13 0;
#X connect 24 0 35 0;
#X connect 25 0 54 0;
#X connect 25 1 49 0;
#X connect 25 2 19 0;
#X connect 25 3 26 0;
#X connect 26 0 24 1;
#X connect 27 0 24 0;
#X connect 28 0 23 0;
#X connect 29 0 25 0;
#X connect 30 0 31 0;
#X connect 31 0 24 1;
#X connect 32 0 27 0;
#X connect 32 1 28 0;
#X connect 32 2 13 1;
#X connect 32 3 30 0;
#X connect 33 0 32 0;
#X connect 34 0 32 0;
#X connect 35 0 14 0;
#X connect 45 0 47 0;
#X connect 46 0 48 0;
#X connect 47 0 0 0;
#X connect 48 0 0 0;
#X connect 50 0 2 0;
#X connect 51 0 12 0;
#X connect 52 0 9 0;
#X connect 53 0 10 0;
#X connect 55 0 56 0;
#X connect 56 0 2 0;
#X connect 57 0 11 0;
#X connect 58 0 10 0;
#X connect 59 0 50 0;
#X connect 59 1 63 0;
#X connect 61 0 62 0;
#X connect 62 0 2 0;
#X connect 63 0 64 0;
#X connect 68 0 43 0;
#X connect 68 1 20 0;
#X connect 68 2 67 0;
#X restore 131 248 pd aux data;
#X text 220 249 aux and footswitch control the states of play/stop
and record;
#X text 704 74 Audio in from L-R channels;
#X connect 9 0 11 0;
#X connect 10 0 11 0;
#X connect 11 0 13 0;
#X connect 12 0 0 0;
#X connect 12 0 1 0;
