#N canvas 674 212 1170 787 10;
#X obj 283 273 *~;
#X obj 283 295 *~;
#X obj 283 78 r \$1-trig\$2;
#X obj 354 134 r \$1-a-\$3;
#X obj 390 159 r \$1-d-\$3;
#X obj 426 184 r \$1-s-\$3;
#X obj 462 224 r \$1-r-\$3, f 17;
#X obj 166 181 list split 1;
#X obj 122 157 list split \$3;
#X obj 93 267 *~;
#X obj 93 297 osc~;
#X obj 122 133 r \$1-freqset-local;
#X obj 93 83 r~ \$1-root\$2;
#X obj 93 379 *~;
#X obj 142 697 hip~ 5;
#X obj 142 739 throw~ \$1-bus\$2;
#X obj 318 107 r \$1-del-\$3;
#X obj 283 251 add-adsr \$1, f 26;
#N canvas 663 153 716 600 switcher 0;
#X obj 107 495 *~;
#X obj 107 518 outlet~;
#X obj 84 58 inlet;
#X obj 365 50 inlet;
#X obj 365 72 bang;
#X obj 107 466 vline~;
#X obj 73 238 s \$0-2-vline;
#X obj 107 424 r \$0-2-vline;
#X obj 365 231 s \$0-2-vline;
#X msg 365 205 1 20;
#X msg 528 403 1;
#X msg 329 282 stop;
#X obj 365 150 t b b b, f 11;
#X obj 336 500 outlet to swtich~;
#X obj 85 110 t b b b;
#X msg 317 425 0;
#X msg 73 183 0 300;
#X obj 317 404 del 300;
#X connect 0 0 1 0;
#X connect 2 0 14 0;
#X connect 3 0 4 0;
#X connect 4 0 12 0;
#X connect 5 0 0 0;
#X connect 5 0 0 1;
#X connect 7 0 5 0;
#X connect 9 0 8 0;
#X connect 10 0 13 0;
#X connect 11 0 17 0;
#X connect 12 0 9 0;
#X connect 12 1 10 0;
#X connect 12 2 11 0;
#X connect 14 0 17 0;
#X connect 14 1 16 0;
#X connect 14 2 11 0;
#X connect 15 0 13 0;
#X connect 16 0 6 0;
#X connect 17 0 15 0;
#X restore 172 534 pd switcher;
#X obj 172 505 sel 0 1;
#X obj 142 621 *~;
#X obj 151 442 r wolf-action;
#X obj 151 464 route \$3;
#X obj 92 465 /~;
#X obj 598 308 loadbang;
#X obj 598 371 * 2;
#X obj 258 585 switch~;
#X obj 598 329 f \$3;
#X obj 598 350 + 1;
#X obj 355 313 r wolf-sum-action;
#X obj 112 238 lop~ 5;
#X text 420 431 if this is 1 turn up this partial to max;
#X obj 349 375 / 16;
#X obj 349 396 * 32;
#X obj 349 417 max 1;
#X obj 93 318 /~;
#X obj 303 472 vline~;
#X msg 303 449 \$1 45;
#X obj 592 399 max 1.2;
#X connect 0 0 1 0;
#X connect 0 0 1 1;
#X connect 1 0 13 1;
#X connect 2 0 17 0;
#X connect 3 0 17 2;
#X connect 4 0 17 3;
#X connect 5 0 17 4;
#X connect 6 0 17 5;
#X connect 7 0 30 0;
#X connect 8 1 7 0;
#X connect 9 0 10 0;
#X connect 10 0 35 0;
#X connect 11 0 8 0;
#X connect 12 0 9 0;
#X connect 13 0 23 0;
#X connect 14 0 15 0;
#X connect 16 0 17 1;
#X connect 17 0 0 0;
#X connect 17 0 0 1;
#X connect 18 0 20 1;
#X connect 18 1 26 0;
#X connect 19 0 18 0;
#X connect 19 1 18 1;
#X connect 20 0 14 0;
#X connect 21 0 22 0;
#X connect 22 0 19 0;
#X connect 23 0 20 0;
#X connect 24 0 27 0;
#X connect 25 0 38 0;
#X connect 27 0 28 0;
#X connect 28 0 25 0;
#X connect 29 0 32 0;
#X connect 30 0 9 1;
#X connect 32 0 33 0;
#X connect 33 0 34 0;
#X connect 34 0 37 0;
#X connect 35 0 13 0;
#X connect 36 0 23 1;
#X connect 37 0 36 0;
#X connect 38 0 33 1;
#X connect 38 0 35 1;
