#N canvas 483 50 960 797 10;
#X obj 68 71 inlet;
#X obj 68 93 unpack 0 0, f 31;
#X obj 68 259 mtof~;
#X obj 68 120 sig~;
#X obj 66 474 *~;
#X obj 66 589 outlet~;
#X obj 66 566 hip~ 5;
#X obj 282 138 sqrt;
#X obj 282 161 sqrt;
#X obj 65 390 catch~ \$1-bus\$2;
#X obj 282 195 s \$1-trig\$2;
#X obj 68 308 s~ \$1-root\$2;
#X obj 222 381 tabread~ band-table, f 16;
#X obj 86 167 r~ \$1-transpose;
#X obj 68 195 +~;
#X obj 607 70 addcell-root \$1 \$2 0;
#X obj 282 116 / 127;
#X obj 608 116 addcell-partial \$1 \$2 1;
#X obj 608 95 addcell-partial \$1 \$2 0;
#X obj 608 318 addcell-partial \$1 \$2 11;
#X obj 608 399 addcell-partial \$1 \$2 15;
#X obj 608 278 addcell-partial \$1 \$2 9;
#X obj 608 298 addcell-partial \$1 \$2 10;
#X obj 608 136 addcell-partial \$1 \$2 2;
#X obj 608 156 addcell-partial \$1 \$2 3;
#X obj 608 176 addcell-partial \$1 \$2 4;
#X obj 608 196 addcell-partial \$1 \$2 5;
#X obj 608 216 addcell-partial \$1 \$2 6;
#X obj 608 237 addcell-partial \$1 \$2 7;
#X obj 608 258 addcell-partial \$1 \$2 8;
#X obj 608 338 addcell-partial \$1 \$2 12;
#X obj 608 358 addcell-partial \$1 \$2 13;
#X obj 608 378 addcell-partial \$1 \$2 14;
#X connect 0 0 1 0;
#X connect 1 0 3 0;
#X connect 1 1 16 0;
#X connect 2 0 11 0;
#X connect 3 0 14 0;
#X connect 4 0 6 0;
#X connect 6 0 5 0;
#X connect 7 0 8 0;
#X connect 8 0 10 0;
#X connect 9 0 4 0;
#X connect 12 0 4 1;
#X connect 13 0 14 1;
#X connect 14 0 2 0;
#X connect 14 0 12 0;
#X connect 16 0 7 0;
