#N canvas 795 88 647 654 10;
#X obj 283 333 *~;
#X obj 283 355 *~;
#X obj 283 128 r \$1-trig\$2;
#X obj 354 194 r \$1-a-\$3;
#X obj 390 219 r \$1-d-\$3;
#X obj 426 244 r \$1-s-\$3;
#X obj 462 275 r \$1-r-\$3, f 17;
#X obj 283 311 add-adsr \$1, f 26;
#X obj 93 357 osc~;
#X obj 93 143 r~ \$1-root\$2;
#X obj 93 449 *~;
#X obj 92 537 hip~ 5;
#X obj 92 629 throw~ \$1-bus\$2;
#X obj 318 164 r \$1-del-\$3;
#X obj 93 496 *~ 0.125;
#X obj 386 476 r wolf-sum-action;
#X msg 386 501 1 \$1;
#X obj 386 523 /;
#X obj 386 545 rmstodb;
#X obj 386 567 / 100;
#X obj 209 156 *~;
#X obj 209 178 +~ 1;
#X obj 93 379 *~ 0.7;
#X obj 153 357 osc~;
#X obj 113 214 +~;
#X obj 213 286 vline~;
#X obj 213 308 *~;
#X msg 213 264 1 0 \, 0 1000;
#X obj 213 242 b;
#X obj 209 134 sig~ 10;
#X obj 154 378 *~ 0.24;
#X obj 93 421 *~;
#X connect 0 0 1 0;
#X connect 0 0 1 1;
#X connect 1 0 10 1;
#X connect 2 0 7 0;
#X connect 2 0 28 0;
#X connect 3 0 7 2;
#X connect 4 0 7 3;
#X connect 5 0 7 4;
#X connect 6 0 7 5;
#X connect 7 0 0 0;
#X connect 7 0 0 1;
#X connect 8 0 22 0;
#X connect 9 0 8 0;
#X connect 9 0 24 0;
#X connect 10 0 14 0;
#X connect 11 0 12 0;
#X connect 13 0 7 1;
#X connect 14 0 11 0;
#X connect 15 0 16 0;
#X connect 16 0 17 0;
#X connect 17 0 18 0;
#X connect 18 0 19 0;
#X connect 19 0 31 1;
#X connect 20 0 21 0;
#X connect 21 0 24 1;
#X connect 22 0 31 0;
#X connect 23 0 30 0;
#X connect 24 0 23 0;
#X connect 25 0 26 0;
#X connect 25 0 26 1;
#X connect 26 0 20 1;
#X connect 27 0 25 0;
#X connect 28 0 27 0;
#X connect 29 0 20 0;
#X connect 30 0 31 0;
#X connect 31 0 10 0;
