#N canvas 258 51 1436 836 10;
#X obj 165 140 tgl 15 0 empty empty empty 17 7 0 10 -262144 -1 -1 1
1;
#X obj 143 220 r \$0-2-ca;
#X obj 439 283 s \$0-2-ca;
#X msg 112 188 metro bang;
#X msg 439 245 rule \$1;
#X obj 499 216 loadbang;
#X obj 362 171 r knob2;
#X obj 165 108 sel 1;
#X obj 573 180 * 32;
#X obj 573 202 i;
#X obj 573 158 r knob3;
#X obj 112 382 t a b;
#X obj 228 425 f;
#X obj 263 425 + 1;
#X obj 228 471 * 4;
#X obj 642 172 master-metronome;
#X obj 751 61 * 250;
#X obj 751 87 + 10;
#X msg 642 137 1;
#X obj 696 290 i;
#X obj 696 312 change -1;
#X obj 642 198 i;
#X obj 642 220 change -1;
#X obj 799 151 i;
#X obj 799 173 change -1;
#X obj 751 32 r knob1;
#X obj 642 105 loadbang;
#X msg 642 244 \; screenLine1 1: Tempo \$1 BPM MIDI \;;
#X msg 696 336 \; screenLine1 1: Tempo \$1 BPM \;;
#X msg 799 200 \; screenLine1 1: Tempo \$1 BPM LINK \;;
#X obj 112 55 r sixteenths;
#X obj 397 108 array define band-table;
#X msg 397 72 read band-store.txt;
#X obj 1019 341 pack 0 0 0;
#X obj 1018 503 *~ 0.9;
#N canvas 230 223 1526 821 presets 0;
#X obj 383 308 until;
#X obj 383 330 f;
#X obj 413 330 + 1;
#X obj 1035 319 until;
#X obj 1035 341 f;
#X obj 1065 341 + 1;
#X msg 413 284 0;
#X obj 383 261 t b b;
#X msg 1065 295 0;
#X obj 1035 272 t b b;
#X obj 383 223 t b a;
#X obj 1073 246 t b a;
#X text 641 64 init values;
#X obj 1035 363 t f f, f 11;
#X obj 1035 424 expr $f2 - (($f1 / 13)*$f2);
#X obj 825 321 until;
#X obj 825 343 f;
#X obj 855 343 + 1;
#X msg 855 297 0;
#X obj 825 274 t b b;
#X obj 863 248 t b a;
#X obj 611 324 until;
#X obj 611 346 f;
#X obj 641 346 + 1;
#X msg 641 300 0;
#X obj 611 277 t b b;
#X obj 649 251 t b a;
#X obj 611 368 t f f, f 11;
#X obj 611 429 expr $f2 - (($f1 / 13)*$f2);
#X obj 450 439 loadbang;
#X obj 383 487 pack 0 0 s;
#X obj 678 452 loadbang;
#X obj 611 520 pack 0 0 s;
#X obj 892 455 loadbang;
#X obj 825 523 pack 0 0 s;
#X obj 1102 450 loadbang;
#X obj 1035 518 pack 0 0 s;
#X msg 383 514 \; \$3-a-\$2 \$1;
#X msg 611 547 \; \$3-d-\$2 \$1;
#X msg 825 550 \; \$3-s-\$2 \$1;
#X msg 1035 545 \; \$3-r-\$2 \$1;
#X msg 1072 189 0.78, f 7;
#X msg 467 150 1;
#X msg 572 197 1;
#X obj 450 460 symbol addcell;
#X obj 678 473 symbol addcell;
#X obj 892 476 symbol addcell;
#X obj 1102 471 symbol addcell;
#X obj 467 57 r loadbang;
#X obj 467 112 del 10;
#X obj 383 352 t b f, f 11;
#X obj 383 379 10;
#X obj 122 384 expr ($f2*14) - ($f1*$f2);
#X obj 811 401 expr $f2 - (($f1 / 32)*$f2);
#X obj 825 365 t f f, f 11;
#X msg 863 198 0.9, f 7;
#X msg 383 284 16;
#X msg 612 300 16;
#X msg 824 297 16;
#X msg 1035 295 16;
#X connect 0 0 1 0;
#X connect 1 0 2 0;
#X connect 1 0 50 0;
#X connect 2 0 1 1;
#X connect 3 0 4 0;
#X connect 4 0 5 0;
#X connect 4 0 13 0;
#X connect 5 0 4 1;
#X connect 6 0 1 1;
#X connect 7 0 56 0;
#X connect 7 1 6 0;
#X connect 8 0 4 1;
#X connect 9 0 59 0;
#X connect 9 1 8 0;
#X connect 10 0 7 0;
#X connect 11 0 9 0;
#X connect 11 1 14 1;
#X connect 13 0 14 0;
#X connect 13 1 36 1;
#X connect 14 0 36 0;
#X connect 15 0 16 0;
#X connect 16 0 17 0;
#X connect 16 0 54 0;
#X connect 17 0 16 1;
#X connect 18 0 16 1;
#X connect 19 0 58 0;
#X connect 19 1 18 0;
#X connect 20 0 19 0;
#X connect 20 1 53 1;
#X connect 21 0 22 0;
#X connect 22 0 23 0;
#X connect 22 0 27 0;
#X connect 23 0 22 1;
#X connect 24 0 22 1;
#X connect 25 0 57 0;
#X connect 25 1 24 0;
#X connect 26 0 25 0;
#X connect 26 1 28 1;
#X connect 27 0 28 0;
#X connect 27 1 32 1;
#X connect 28 0 32 0;
#X connect 29 0 44 0;
#X connect 30 0 37 0;
#X connect 31 0 45 0;
#X connect 32 0 38 0;
#X connect 33 0 46 0;
#X connect 34 0 39 0;
#X connect 35 0 47 0;
#X connect 36 0 40 0;
#X connect 41 0 11 0;
#X connect 42 0 10 0;
#X connect 43 0 26 0;
#X connect 44 0 30 2;
#X connect 45 0 32 2;
#X connect 46 0 34 2;
#X connect 47 0 36 2;
#X connect 48 0 49 0;
#X connect 49 0 42 0;
#X connect 49 0 55 0;
#X connect 49 0 43 0;
#X connect 49 0 41 0;
#X connect 50 0 51 0;
#X connect 50 1 30 1;
#X connect 51 0 30 0;
#X connect 53 0 34 0;
#X connect 54 0 53 0;
#X connect 54 1 34 1;
#X connect 55 0 20 0;
#X connect 56 0 0 0;
#X connect 57 0 21 0;
#X connect 58 0 15 0;
#X connect 59 0 3 0;
#X restore 101 570 pd presets;
#N canvas 574 342 1043 547 knobs 0;
#X text 61 435 partial master list.;
#X obj 549 90 i;
#X text 217 383 read the .txt file;
#X obj 549 132 change -1;
#X msg 57 378 read addsyn-relTxt.txt;
#X msg 268 465 write addsyn-relTxt.txt;
#X obj 549 69 * 12;
#X obj 690 90 s addcell-ramper;
#X obj 549 180 s addcell-freqset-local;
#X obj 549 156 text get addcell-relTxt;
#X obj 57 407 text define addcell-relTxt;
#X text 29 34 knob1 metro;
#X obj 57 345 r loadbang;
#X obj 860 81 i;
#X obj 549 21 r knob4;
#X msg 301 151 \; screenLine4 4: WaveForm: \$1;
#X obj 861 25 r knob3;
#X msg 803 148 \; screenLine3 3: Loop Length: \$1;
#X obj 860 103 + 1;
#X obj 695 23 loadbang;
#X msg 695 45 1000;
#X obj 892 106 s addcell-loop;
#X obj 861 47 * 31;
#X connect 1 0 3 0;
#X connect 1 0 15 0;
#X connect 3 0 9 0;
#X connect 4 0 10 0;
#X connect 6 0 1 0;
#X connect 9 0 8 0;
#X connect 12 0 4 0;
#X connect 13 0 18 0;
#X connect 14 0 6 0;
#X connect 16 0 22 0;
#X connect 18 0 17 0;
#X connect 18 0 21 0;
#X connect 19 0 20 0;
#X connect 20 0 7 0;
#X connect 22 0 13 0;
#X restore 101 600 pd knobs;
#X obj 1018 575 throw~ outL;
#X obj 1028 555 throw~ outR;
#X obj 330 646 s addcell-attack-local;
#X obj 363 617 s addcell-decay-local;
#X obj 404 592 s addcell-sustain-local;
#X obj 442 567 s addcell-release-local;
#X msg 442 542 500;
#X obj 907 120 lop~ 5;
#X obj 906 149 s~ addcell-transpose;
#X obj 330 490 r loadbang;
#X obj 397 47 r loadbang;
#X msg 363 594 200;
#X msg 330 623 1;
#X msg 404 569 90;
#X obj 362 270 + 1;
#X obj 362 292 int;
#X msg 362 324 \; screenLine2 2: Rule: \$1 \;;
#X obj 112 260 cg-ca, f 7;
#X obj 1019 319 poly 4 1, f 10;
#X obj 1019 363 route 1 2 3 4, f 43;
#X obj 112 547 print-16-wolf 8 4;
#X obj 158 322 s wolf-sum-action;
#X obj 103 633 loadbang;
#X obj 103 655 s loadbang;
#X obj 907 37 r loadbang;
#X msg 907 59 -12;
#X obj 173 634 bng 15 250 50 0 empty empty empty 17 7 0 10 -262144
-1 -1;
#X obj 158 286 + 1;
#X text 192 286 include root;
#X obj 228 493 int;
#X obj 228 449 % 14;
#X obj 173 85 r fs;
#X obj 279 85 sel 0 1;
#X msg 226 135 \; screenLine5 Automata Off;
#X msg 209 14 \; screenLine5 Automata On;
#X obj 279 107 del 10;
#X msg 500 246 size 16;
#N canvas 5 50 450 300 init 0;
#X obj 148 108 loadbang;
#X msg 184 131 16;
#X msg 167 159 1 1 1 1 1 1 1 1 1 1 1 1 1 1 1 1;
#X obj 167 181 outlet;
#X obj 226 190 outlet;
#X connect 0 0 1 0;
#X connect 0 0 2 0;
#X connect 1 0 4 0;
#X connect 2 0 3 0;
#X restore 14 241 pd init;
#X obj 362 245 * 254;
#X msg 579 245 loop \$1;
#X obj 444 167 r addcell-loop;
#X obj 228 515 + 9;
#X obj 1019 390 addcell-voice addcell 1;
#X msg 33 188 switch \$1;
#X obj 43 70 loadbang;
#X msg 43 92 1;
#N canvas 266 257 801 485 speed_limit 0;
#X obj 115 359 metro 100;
#X obj 115 69 inlet;
#N canvas 4 50 720 312 activity-monitor 0;
#X obj 108 74 inlet;
#X obj 108 103 b;
#X obj 108 160 delay 100;
#X obj 168 73 inlet;
#X obj 108 198 outlet;
#X text 198 132 if no activity for X msec \, then bang outlet;
#X connect 0 0 1 0;
#X connect 1 0 2 0;
#X connect 2 0 4 0;
#X connect 3 0 2 1;
#X restore 341 192 pd activity-monitor;
#X msg 266 228 0;
#X msg 115 218 1;
#X obj 115 398 list append;
#X text 323 103 speed limit (ms);
#X obj 115 445 outlet;
#X obj 115 126 spigot 1;
#X obj 183 126 == 0;
#X obj 115 93 t a b a, f 19;
#X obj 471 154 f;
#X obj 471 80 loadbang;
#X msg 471 102 40;
#X connect 0 0 5 0;
#X connect 1 0 10 0;
#X connect 2 0 3 0;
#X connect 3 0 0 0;
#X connect 3 0 9 0;
#X connect 4 0 0 0;
#X connect 4 0 9 0;
#X connect 5 0 7 0;
#X connect 8 0 4 0;
#X connect 9 0 8 1;
#X connect 10 0 8 0;
#X connect 10 1 2 0;
#X connect 10 2 5 1;
#X connect 11 0 2 1;
#X connect 11 0 0 1;
#X connect 12 0 13 0;
#X connect 13 0 11 0;
#X restore 112 356 pd speed_limit;
#X obj 675 695 loadbang;
#X obj 674 804 s pd;
#X msg 674 729 audio-dialog 0 0 0 0 0 0 0 0 0 0 0 0 2 0 0 0 44100 9
-1 64;
#X obj 1071 413 addcell-voice addcell 2;
#X obj 1189 390 addcell-voice addcell 3;
#X obj 1241 413 addcell-voice addcell 4;
#X obj 1092 139 r notes;
#X obj 1133 205 r aux;
#X obj 1089 261 cg-seqq ca-add, f 25;
#X connect 0 0 69 0;
#X connect 0 0 80 0;
#X connect 1 0 54 0;
#X connect 3 0 54 0;
#X connect 4 0 2 0;
#X connect 5 0 73 0;
#X connect 6 0 75 0;
#X connect 7 0 0 0;
#X connect 8 0 9 0;
#X connect 10 0 8 0;
#X connect 11 0 57 0;
#X connect 11 1 12 0;
#X connect 12 0 13 0;
#X connect 12 0 67 0;
#X connect 13 0 12 1;
#X connect 14 0 66 0;
#X connect 15 0 21 0;
#X connect 15 1 19 0;
#X connect 15 2 23 0;
#X connect 16 0 17 0;
#X connect 17 0 15 1;
#X connect 18 0 15 0;
#X connect 19 0 20 0;
#X connect 20 0 28 0;
#X connect 21 0 22 0;
#X connect 22 0 27 0;
#X connect 23 0 24 0;
#X connect 24 0 29 0;
#X connect 25 0 16 0;
#X connect 26 0 18 0;
#X connect 30 0 3 0;
#X connect 32 0 31 0;
#X connect 33 0 56 0;
#X connect 34 0 37 0;
#X connect 34 0 38 0;
#X connect 43 0 42 0;
#X connect 44 0 45 0;
#X connect 46 0 48 0;
#X connect 46 0 50 0;
#X connect 46 0 43 0;
#X connect 46 0 49 0;
#X connect 47 0 32 0;
#X connect 48 0 40 0;
#X connect 49 0 39 0;
#X connect 50 0 41 0;
#X connect 51 0 52 0;
#X connect 52 0 53 0;
#X connect 52 0 4 0;
#X connect 54 0 83 0;
#X connect 54 1 64 0;
#X connect 55 0 33 0;
#X connect 55 1 33 1;
#X connect 55 2 33 2;
#X connect 56 0 79 0;
#X connect 56 1 87 0;
#X connect 56 2 88 0;
#X connect 56 3 89 0;
#X connect 59 0 60 0;
#X connect 61 0 62 0;
#X connect 62 0 44 0;
#X connect 63 0 60 0;
#X connect 64 0 58 0;
#X connect 66 0 78 0;
#X connect 67 0 14 0;
#X connect 68 0 7 0;
#X connect 69 0 72 0;
#X connect 69 1 71 0;
#X connect 72 0 70 0;
#X connect 73 0 2 0;
#X connect 74 0 11 0;
#X connect 74 1 64 0;
#X connect 75 0 51 0;
#X connect 76 0 2 0;
#X connect 77 0 76 0;
#X connect 78 0 57 1;
#X connect 79 0 34 0;
#X connect 80 0 54 0;
#X connect 81 0 82 0;
#X connect 82 0 0 0;
#X connect 83 0 11 0;
#X connect 84 0 86 0;
#X connect 86 0 85 0;
#X connect 87 0 34 0;
#X connect 88 0 34 0;
#X connect 89 0 34 0;
#X connect 90 0 92 0;
#X connect 91 0 92 1;
#X connect 92 0 55 0;
