#N canvas 375 299 677 437 10;
#X declare -path patchmenu;
#X obj 75 49 declare -path patchmenu;
#X obj 75 230 patchmenu;
#X obj 107 143 s enableSubMenu;
#X obj 75 71 loadbang;
#X msg 75 143 0;
#X obj 75 120 t b b;
#X obj 41 50 bng 15 250 50 0 empty empty empty 17 7 0 10 -262144 -1
-1;
#N canvas 479 82 1301 783 mapping 0;
#X obj 381 449 throw~ outL;
#X obj 503 450 throw~ outR;
#X text 374 36 MIDI (keys) Routing;
#X text 385 8 control routing;
#X obj 441 310 s~ fx13-1-in;
#X text 49 217 Page 2 - FX13-2;
#X text 45 82 Page 1 - FX-13-1;
#X obj 746 114 r aux;
#X obj 669 165 s led;
#X obj 45 116 map-knob 1 1 rampsyn-1-rampa;
#X obj 47 144 map-knob 1 2 rampsyn-1-rampd;
#X obj 46 166 map-knob 1 3 rampsyn-1-rampamt;
#X obj 45 190 map-knob 1 4 rampsyn-1-decay;
#X obj 375 237 s rampsyn-1-notes-in;
#X obj 388 399 r~ fx13-1-outL;
#X obj 509 400 r~ fx13-1-outR;
#X obj 48 247 map-knob 2 1 fx13-1-knob1;
#X obj 47 272 map-knob 2 2 fx13-1-knob2;
#X obj 47 297 map-knob 2 3 fx13-1-knob3;
#X obj 47 323 map-knob 2 4 fx13-1-knob4;
#X obj 453 272 r~ rampsyn-1-outL;
#X text 60 363 Page 3 -;
#X obj 50 441 map-knob 3 3 pb-1-note-len;
#X obj 382 86 s pb-1-notes-in;
#X obj 341 161 r pb-1-notes-out;
#X obj 50 467 map-knob 3 4 pb-1-vel;
#X obj 669 137 r pb-1-led;
#X obj 763 164 s pb-1-aux;
#X text 54 500 Page 4 -;
#X obj 53 527 map-knob 4 4 pb-1-swing;
#X obj 50 416 map-knob 3 2 mm-bpmDial;
#X obj 51 386 map-knob 3 1 pb-1-div;
#X obj 462 160 r p0n;
#X obj 548 153 r p1n;
#X obj 556 173 r p2n;
#X obj 382 61 r p3n;
#X obj 561 196 r p4n;
#X obj 874 102 r pb-1-aux-label;
#X obj 874 136 s p1s5;
#X obj 892 161 s p2s5;
#X obj 907 184 s p3s5;
#X connect 7 0 27 0;
#X connect 14 0 0 0;
#X connect 15 0 1 0;
#X connect 20 0 4 0;
#X connect 24 0 13 0;
#X connect 26 0 8 0;
#X connect 32 0 13 0;
#X connect 33 0 13 0;
#X connect 34 0 13 0;
#X connect 35 0 23 0;
#X connect 36 0 13 0;
#X connect 37 0 38 0;
#X connect 37 0 39 0;
#X connect 37 0 40 0;
#X restore 415 296 pd mapping;
#X msg 33 201 1;
#X obj 33 169 delay 3000;
#X text 381 22 delcare and load modules;
#X text 416 268 routing;
#X obj 75 95 versioncheck 2;
#X msg 75 258 \; screenLine1 Ramp Synth \; screenLine2 Effects \; screenLine3
Poly Beats \; screenLine4 <-- Home \; screenLine5 \;;
#X obj 390 58 ./FX-13/FX-13 1;
#X obj 390 85 ./RampSynth/RampSynth 1;
#X obj 388 139 ./MasterMetro/MasterMetro;
#X obj 390 113 ./Polybeats/polybeats 1;
#X connect 1 0 13 0;
#X connect 3 0 12 0;
#X connect 4 0 1 0;
#X connect 5 0 4 0;
#X connect 5 0 9 0;
#X connect 5 1 2 0;
#X connect 6 0 5 0;
#X connect 8 0 1 0;
#X connect 12 0 5 0;
