#N canvas 1024 407 450 300 10;
#X obj 35 18 inlet;
#X obj 35 165 f;
#X obj 217 24 inlet;
#X text 260 24 mute boolean (0-1);
#X text 89 16 float;
#X obj 35 186 spigot 1;
#X text 102 188 on by default;
#X obj 35 207 outlet;
#X obj 217 45 t a a;
#X obj 217 66 sel 1;
#X obj 217 87 del 1;
#X connect 0 0 1 0;
#X connect 1 0 5 0;
#X connect 2 0 8 0;
#X connect 5 0 7 0;
#X connect 8 0 9 0;
#X connect 8 1 5 1;
#X connect 9 0 10 0;
#X connect 10 0 1 0;
