#N canvas 50 83 1045 697 10;
#X declare -path cg-pd-library-local/sampling;
#X declare -path cg-pd-library-local/sequencer;
#X declare -path cg-pd-library-local/externals;
#X declare -path cg-pd-library-local/metronome;
#N canvas 19 51 625 625 metro-here 0;
#X obj 369 147 r seq3-1-actions, f 19;
#X obj 312 345 f;
#X msg 407 250 0;
#X obj 439 250 t b b;
#X msg 445 280 1;
#X obj 312 292 del 1;
#X obj 54 303 s beat-clock;
#X obj 176 83 loadbang;
#X msg 53 121 1;
#X obj 203 353 list, f 7;
#X obj 203 375 route 69;
#X obj 203 281 t b a;
#X msg 203 323 69;
#X msg 176 105 120;
#X obj 177 221 pack, f 10;
#X obj 212 189 t b a;
#X obj 54 151 metronome360 0, f 18;
#X obj 319 117 s seq3-1-quan;
#X obj 400 338 f;
#X obj 203 397 spigot 1;
#X obj 312 367 spigot 1, f 14;
#X obj 296 472 r cgSc-1-slots;
#X obj 296 498 + 1;
#X obj 203 552 print-line5 1, f 16;
#X obj 319 88 r metro-state;
#X obj 486 346 loadbang;
#X obj 296 519 f;
#X obj 486 388 t b b;
#X obj 312 428 f;
#X obj 486 367 del 1;
#X obj 407 179 r cgSc-1-mute-print;
#X obj 407 202 sel 1;
#X connect 0 0 1 0;
#X connect 1 0 20 0;
#X connect 2 0 18 0;
#X connect 3 0 5 0;
#X connect 3 1 4 0;
#X connect 4 0 18 0;
#X connect 5 0 1 0;
#X connect 5 0 12 0;
#X connect 7 0 13 0;
#X connect 7 0 8 0;
#X connect 8 0 16 0;
#X connect 9 0 10 0;
#X connect 10 0 19 0;
#X connect 11 0 12 0;
#X connect 11 1 9 1;
#X connect 12 0 9 0;
#X connect 13 0 16 1;
#X connect 14 0 11 0;
#X connect 15 0 14 0;
#X connect 15 1 14 1;
#X connect 16 0 6 0;
#X connect 16 1 15 0;
#X connect 16 2 14 0;
#X connect 18 0 19 1;
#X connect 18 0 20 1;
#X connect 19 0 23 0;
#X connect 20 0 28 0;
#X connect 21 0 22 0;
#X connect 22 0 26 0;
#X connect 24 0 17 0;
#X connect 25 0 29 0;
#X connect 26 0 23 2;
#X connect 27 0 28 0;
#X connect 27 1 26 0;
#X connect 28 0 23 1;
#X connect 29 0 27 0;
#X connect 30 0 31 0;
#X connect 31 0 2 0;
#X connect 31 1 3 0;
#X restore 437 44 pd metro-here;
#X obj 23 36 r aux;
#X obj 89 246 r cgSc-1-slots;
#X obj 141 38 r \$0-reprint-port;
#X obj 122 270 r beat-clock;
#N canvas 787 330 860 595 slot-saver-1 0;
#X obj 167 38 r cgSc-1-slots;
#X obj 30 68 loadbang;
#X msg 30 140 0;
#X obj 30 161 tabread \$0-slot;
#X obj 199 225 array define \$0-slot;
#X obj 30 110 t b b;
#X msg 199 138 read slot.txt;
#X msg 243 186 write slot.txt;
#X obj 243 160 r saveState;
#X obj 167 58 t a b;
#X msg 220 84 0;
#X obj 167 107 tabwrite \$0-slot;
#X obj 30 185 s cgSc-1-slots;
#X connect 0 0 9 0;
#X connect 1 0 5 0;
#X connect 2 0 3 0;
#X connect 3 0 12 0;
#X connect 5 0 2 0;
#X connect 5 1 6 0;
#X connect 6 0 4 0;
#X connect 7 0 4 0;
#X connect 8 0 7 0;
#X connect 9 0 11 0;
#X connect 9 1 10 0;
#X connect 10 0 11 1;
#X restore 440 9 pd slot-saver-1;
#N canvas 100 50 1124 682 seq3-5option-control 0;
#X obj 139 278 outlet;
#X obj 65 121 t b;
#X msg 65 143 2;
#X obj 802 106 t b;
#X text 437 5 when aux is pressed after recording starts immediatley
end the rec and play the loop;
#X obj 170 70 sel 0;
#X obj 202 94 t b;
#X msg 202 116 1;
#X obj 33 66 r cgSc-1-2;
#X obj 171 48 r cgSc-1-1;
#X obj 33 88 sel 0;
#X obj 775 85 sel 0;
#X obj 317 272 r seq3-1-actions;
#X obj 317 294 sel 1, f 12;
#X obj 398 327 t b, f 4;
#X obj 317 445 s cgSc-1-1label;
#X obj 507 308 r seq3-1-actions;
#X obj 588 353 t b, f 4;
#X obj 507 329 sel 2 3, f 12;
#X obj 978 320 t b, f 4;
#X obj 507 441 s cgSc-1-2label;
#X text 521 279 print to the shortcut menu;
#X obj 378 141 f 0;
#X obj 130 0 r midi-start;
#X msg 130 22 4;
#X obj 373 105 r midi-stop;
#X obj 507 125 t b;
#X obj 475 98 sel 0;
#X msg 507 147 5;
#X obj 192 487 r seq3-1-actions;
#X obj 273 532 t b, f 4;
#X obj 192 508 sel 5, f 12;
#X obj 317 373 f;
#X obj 398 372 f;
#X obj 507 374 f;
#X obj 582 373 f;
#X obj 649 370 f;
#X obj 273 554 f;
#X obj 192 560 f;
#X obj 201 286 r cgSc-1-slots;
#X obj 201 329 t b f f;
#X obj 166 439 s seq3-1-actions;
#X obj 166 415 v seq3-1-state;
#X obj 201 309 + 1;
#X obj 668 299 + 1;
#X obj 668 251 r cgSc-1-slots;
#X obj 321 507 + 1;
#X obj 321 483 r cgSc-1-slots;
#X obj 559 76 sel 1;
#X obj 612 80 r seq3-1-actions;
#X obj 559 174 t b b;
#X msg 640 152 0;
#X obj 559 152 spigot 0;
#X msg 612 129 1;
#X msg 559 196 1;
#X obj 192 650 s cgSc-1-3label;
#X obj 475 71 r cgSc-1-3;
#X obj 559 52 r cgSc-1-aux;
#X obj 896 398 s cgSc-1-5label;
#X obj 775 58 r cgSc-1-5;
#X obj 358 53 t b;
#X obj 326 26 sel 0;
#X obj 326 2 r cgSc-1-4;
#X msg 358 75 6;
#X obj 465 480 r seq3-1-actions;
#X obj 507 558 f;
#X obj 584 501 + 1;
#X obj 584 477 r cgSc-1-slots;
#X obj 465 643 s cgSc-1-4label;
#X obj 612 104 sel 3, f 12;
#X obj 465 501 sel 6, f 10;
#X obj 532 526 t b;
#X obj 465 585 spigot 1;
#X obj 552 582 spigot 0;
#X obj 675 510 r seq3-1-actions;
#X obj 675 532 sel 3;
#X obj 591 537 ==;
#X obj 637 564 f;
#X msg 637 533 1;
#X msg 708 615 0;
#X obj 465 523 t b b;
#X obj 31 189 loadbang;
#X msg 70 229 0;
#X obj 23 341 r init-1-slot;
#X obj 23 363 s cgSc-1-slots;
#X obj 896 255 r seq3-1-togLatch;
#X obj 896 296 sel 1, f 12;
#X obj 104 167 r kill-seq;
#X msg 802 193 3 \$1;
#X obj 844 157 + 1;
#X obj 844 178 == 1;
#X obj 802 157 f 1;
#X obj 855 114 r seq3-latch-control;
#X obj 1038 246 loadbang;
#X msg 317 403 \$1Seq: Stop;
#X msg 507 399 \$1Rec: Armd;
#X msg 588 397 \$1Rec: On;
#X msg 659 398 \$1Rec: Off;
#X msg 192 607 \$1Dub: On;
#X msg 273 607 \$1Dub: Off;
#X msg 465 610 \$1: Undid;
#X msg 552 607 \$1: Undo;
#X msg 979 355 Latch: Off;
#X msg 896 355 Latch: On;
#X msg 398 402 \$1Seq:Play;
#X connect 1 0 2 0;
#X connect 2 0 0 0;
#X connect 3 0 91 0;
#X connect 5 1 6 0;
#X connect 6 0 7 0;
#X connect 7 0 0 0;
#X connect 8 0 10 0;
#X connect 9 0 5 0;
#X connect 10 1 1 0;
#X connect 11 1 3 0;
#X connect 12 0 13 0;
#X connect 13 0 32 0;
#X connect 13 1 14 0;
#X connect 14 0 33 0;
#X connect 16 0 18 0;
#X connect 17 0 36 0;
#X connect 18 0 34 0;
#X connect 18 1 35 0;
#X connect 18 2 17 0;
#X connect 19 0 102 0;
#X connect 22 0 0 0;
#X connect 23 0 24 0;
#X connect 24 0 0 0;
#X connect 25 0 22 0;
#X connect 26 0 28 0;
#X connect 27 1 26 0;
#X connect 28 0 0 0;
#X connect 29 0 31 0;
#X connect 30 0 37 0;
#X connect 31 0 38 0;
#X connect 31 1 30 0;
#X connect 32 0 94 0;
#X connect 33 0 104 0;
#X connect 34 0 95 0;
#X connect 35 0 96 0;
#X connect 36 0 97 0;
#X connect 37 0 99 0;
#X connect 38 0 98 0;
#X connect 39 0 43 0;
#X connect 40 0 42 0;
#X connect 40 1 32 1;
#X connect 40 2 33 1;
#X connect 42 0 41 0;
#X connect 43 0 40 0;
#X connect 44 0 36 1;
#X connect 44 0 35 1;
#X connect 44 0 34 1;
#X connect 45 0 44 0;
#X connect 46 0 37 1;
#X connect 46 0 38 1;
#X connect 47 0 46 0;
#X connect 48 0 52 0;
#X connect 49 0 69 0;
#X connect 50 0 54 0;
#X connect 50 1 51 0;
#X connect 51 0 52 1;
#X connect 52 0 50 0;
#X connect 53 0 52 1;
#X connect 54 0 0 0;
#X connect 56 0 27 0;
#X connect 57 0 48 0;
#X connect 59 0 11 0;
#X connect 60 0 63 0;
#X connect 61 1 60 0;
#X connect 62 0 61 0;
#X connect 63 0 0 0;
#X connect 64 0 70 0;
#X connect 65 0 72 0;
#X connect 65 0 73 0;
#X connect 66 0 65 1;
#X connect 67 0 66 0;
#X connect 69 0 53 0;
#X connect 70 0 80 0;
#X connect 70 1 71 0;
#X connect 71 0 65 0;
#X connect 72 0 100 0;
#X connect 73 0 101 0;
#X connect 74 0 75 0;
#X connect 75 0 78 0;
#X connect 76 0 72 1;
#X connect 77 0 76 0;
#X connect 77 0 73 1;
#X connect 78 0 77 0;
#X connect 79 0 77 0;
#X connect 80 0 65 0;
#X connect 80 1 79 0;
#X connect 81 0 82 0;
#X connect 82 0 0 0;
#X connect 83 0 84 0;
#X connect 85 0 86 0;
#X connect 86 0 103 0;
#X connect 86 1 19 0;
#X connect 87 0 82 0;
#X connect 88 0 0 0;
#X connect 89 0 90 0;
#X connect 90 0 91 1;
#X connect 91 0 89 0;
#X connect 91 0 88 0;
#X connect 92 0 91 0;
#X connect 93 0 19 0;
#X connect 94 0 15 0;
#X connect 95 0 20 0;
#X connect 96 0 20 0;
#X connect 97 0 20 0;
#X connect 98 0 55 0;
#X connect 99 0 55 0;
#X connect 100 0 68 0;
#X connect 101 0 68 0;
#X connect 102 0 58 0;
#X connect 103 0 58 0;
#X connect 104 0 15 0;
#X restore 56 225 pd seq3-5option-control;
#X obj 23 295 seq3 1 0 ../../sequences 1 0 1, f 17;
#X obj 719 190 catch~ samp_voice_out;
#X obj 719 292 throw~ outL;
#X obj 735 270 throw~ outR;
#X obj 718 242 *~ 0.9;
#N canvas 4 62 958 670 sound-in 0;
#X obj 225 87 r~ inL;
#X obj 296 87 r~ inR;
#X obj 296 108 *~ 0.707;
#X obj 225 109 *~ 0.707;
#X obj 357 378 lop~ 5;
#X obj 226 428 *~;
#X obj 492 341 * 100;
#X obj 492 363 i;
#X obj 225 220 hip~ 5;
#X obj 225 464 s~ samp-sound-in;
#X obj 357 311 pow 2;
#X obj 357 161 r knob1;
#X obj 492 457 s screenLine1;
#X msg 492 435 1: Input Vol: \$1%;
#X obj 357 252 t a a;
#X obj 146 503 s~ internal-monitor;
#X obj 492 394 cg-mute-f, f 15;
#X obj 579 345 r cgSc-1-mute-print;
#X obj 579 366 ==;
#X connect 0 0 3 0;
#X connect 1 0 2 0;
#X connect 2 0 8 0;
#X connect 3 0 8 0;
#X connect 4 0 5 1;
#X connect 5 0 9 0;
#X connect 5 0 15 0;
#X connect 6 0 7 0;
#X connect 7 0 16 0;
#X connect 8 0 5 0;
#X connect 10 0 4 0;
#X connect 11 0 14 0;
#X connect 13 0 12 0;
#X connect 14 0 10 0;
#X connect 14 1 6 0;
#X connect 16 0 13 0;
#X connect 17 0 18 0;
#X connect 18 0 16 1;
#X restore 308 43 pd sound-in;
#N canvas 440 192 1145 618 knobs 0;
#X obj 60 58 r knob2;
#X obj 87 246 s global-pitch;
#X obj 60 143 * 48;
#X obj 60 164 - 24;
#X obj 60 185 i;
#X obj 60 346 moses 0, f 19;
#X msg 195 469 2: Tune: +\$1;
#X obj 60 413 moses 0;
#X msg 99 456 2: Tune: \$1;
#X msg 60 485 2: Tune: \$1;
#X obj 322 109 r knob3;
#X obj 349 346 s ramp-time;
#X obj 322 282 i;
#X obj 322 499 s screenLine3;
#X msg 322 470 3: Ramp Time: \$1ms;
#X obj 72 86 r seq3-1-k2;
#X obj 328 132 r seq3-1-k3;
#X obj 600 75 r knob4;
#X obj 322 304 + 5;
#X obj 322 262 * 995;
#X obj 600 434 s wob-rate;
#X obj 708 459 s screenLine4;
#X obj 600 288 t a a;
#X obj 600 309 *;
#X obj 708 318 i;
#X obj 708 297 * 100;
#X obj 600 206 t a a;
#X obj 624 99 r seq3-1-k4;
#X obj 600 330 * 10;
#X msg 708 432 4: Warble: \$1%;
#X obj 60 206 t a a;
#X obj 322 325 t a a;
#X obj 92 517 s screenLine2;
#X obj 322 226 pow 2;
#X obj 322 434 cg-mute-f, f 15;
#X obj 409 394 r cgSc-1-mute-print;
#X obj 409 415 ==;
#X obj 708 390 cg-mute-f, f 15;
#X obj 795 350 r cgSc-1-mute-print;
#X obj 795 371 ==;
#X obj 60 315 cg-mute-f, f 15;
#X obj 147 275 r cgSc-1-mute-print;
#X obj 147 296 ==;
#X connect 0 0 2 0;
#X connect 2 0 3 0;
#X connect 3 0 4 0;
#X connect 4 0 30 0;
#X connect 5 0 7 0;
#X connect 5 1 6 0;
#X connect 6 0 32 0;
#X connect 7 0 9 0;
#X connect 7 1 8 0;
#X connect 8 0 32 0;
#X connect 9 0 32 0;
#X connect 10 0 33 0;
#X connect 12 0 18 0;
#X connect 14 0 13 0;
#X connect 15 0 2 0;
#X connect 16 0 33 0;
#X connect 17 0 26 0;
#X connect 18 0 31 0;
#X connect 19 0 12 0;
#X connect 22 0 23 0;
#X connect 22 1 23 1;
#X connect 23 0 28 0;
#X connect 24 0 37 0;
#X connect 25 0 24 0;
#X connect 26 0 22 0;
#X connect 26 1 25 0;
#X connect 27 0 26 0;
#X connect 28 0 20 0;
#X connect 29 0 21 0;
#X connect 30 0 40 0;
#X connect 30 1 1 0;
#X connect 31 0 34 0;
#X connect 31 1 11 0;
#X connect 33 0 19 0;
#X connect 34 0 14 0;
#X connect 35 0 36 0;
#X connect 36 0 34 1;
#X connect 37 0 29 0;
#X connect 38 0 39 0;
#X connect 39 0 37 1;
#X connect 40 0 5 0;
#X connect 41 0 42 0;
#X connect 42 0 40 1;
#X restore 309 16 pd knobs;
#X obj 316 231 s led;
#X obj 316 205 r seq3-1-led;
#X obj 23 583 t a a, f 20;
#X obj 140 626 spigot;
#X obj 23 624 spigot;
#N canvas 603 382 758 398 poly-mode 0;
#X obj 39 9 inlet;
#X obj 35 176 pack 0 0 0;
#X obj 35 197 route 1 2 3 4 5 6 7 8, f 82;
#X obj 39 60 t a a;
#X obj 66 90 bag;
#X obj 110 4 inlet;
#X obj 66 111 pack 0 0;
#X msg 110 57 flush;
#X obj 110 25 t b;
#X obj 35 239 new-mello-voice 1;
#X obj 76 220 new-mello-voice 2;
#X obj 166 246 new-mello-voice 3;
#X obj 206 226 new-mello-voice 4;
#X obj 304 247 new-mello-voice 5;
#X obj 447 247 new-mello-voice 7;
#X obj 347 226 new-mello-voice 6;
#X obj 472 226 new-mello-voice 8;
#X obj 35 155 poly 8 1, f 10;
#X connect 0 0 3 0;
#X connect 1 0 2 0;
#X connect 2 0 9 0;
#X connect 2 1 10 0;
#X connect 2 2 11 0;
#X connect 2 3 12 0;
#X connect 2 4 13 0;
#X connect 2 5 15 0;
#X connect 2 6 14 0;
#X connect 2 7 16 0;
#X connect 3 0 17 0;
#X connect 3 1 4 0;
#X connect 4 0 6 0;
#X connect 5 0 8 0;
#X connect 6 0 17 0;
#X connect 7 0 4 0;
#X connect 8 0 7 0;
#X connect 17 0 1 0;
#X connect 17 1 1 1;
#X connect 17 2 1 2;
#X restore 23 664 pd poly-mode;
#X obj 173 585 ==;
#N canvas 683 340 452 629 switch 0;
#X obj 108 60 r cgSc-1-7;
#X obj 108 83 sel 0;
#X obj 135 112 t b;
#X obj 135 304 outlet;
#X obj 241 293 s cgSc-1-7label;
#X obj 162 199 sel 0 1;
#X obj 43 46 loadbang;
#X msg 181 234 Mode: Poly;
#X msg 162 265 Mode: Mono;
#X obj 169 135 + 1;
#X obj 169 156 == 1;
#X obj 135 135 f 1;
#X obj 135 176 t a a;
#X connect 0 0 1 0;
#X connect 1 1 2 0;
#X connect 2 0 11 0;
#X connect 5 0 8 0;
#X connect 5 1 7 0;
#X connect 6 0 11 0;
#X connect 7 0 4 0;
#X connect 8 0 4 0;
#X connect 9 0 10 0;
#X connect 10 0 11 1;
#X connect 11 0 9 0;
#X connect 11 0 12 0;
#X connect 12 0 3 0;
#X connect 12 1 5 0;
#X restore 134 511 pd switch;
#X obj 134 538 t b f f;
#X obj 92 616 t b b;
#N canvas 4 49 933 488 emulate 0;
#X msg 198 243 const 0;
#X text 408 133 this keeps track of the progress playback mode;
#X obj 198 162 r new-recording!;
#X obj 198 273 array define -k tape-lOOps 128;
#A 0 0 0 0 0 0 0 0 0 0 0 0 0 0 0 0 0 0 0 0 0 0 0 0 0 0 0 0 0 0 0 0
0 0 0 0 0 0 0 0 0 0 0 0 0 0 0 0 0 0 0 0 0 0 0 0 0 0 0 0 0 0.0331097
0 0.306121 0.148637 0.0904109 0.0271959 0 0.149108 0 0.328854 0.154174
0.240757 0.0338305 0.317304 0.0632991 0.949397 0 0 0 0.615667 0 0 0
0.726475 0 0 0 0 0 0 0 0 0 0 0 0 0 0 0 0 0 0 0 0 0 0 0 0 0 0 0 0 0
0 0 0 0 0 0 0 0 0 0 0 0 0 0 0;
#X connect 0 0 3 0;
#X connect 2 0 0 0;
#X restore 305 94 pd emulate 127 tape loops;
#N canvas 554 70 450 300 mono-mode 0;
#X obj 34 15 inlet note;
#X obj 330 12 inlet stop;
#X obj 34 57 order-notes;
#X obj 330 33 t b;
#X obj 34 118 new-mello-voice 9;
#X connect 0 0 2 0;
#X connect 1 0 3 0;
#X connect 2 0 4 0;
#X connect 2 1 4 1;
#X connect 3 0 4 1;
#X restore 140 663 pd mono-mode;
#X obj 23 476 spigot 1;
#X obj 88 372 r mute-notes;
#X obj 88 393 sel 0, f 18;
#X obj 88 414 t b b;
#X msg 115 436 0;
#X obj 23 498 t a a;
#X obj 50 522 bag;
#X obj 50 543 pack 0 0;
#X msg 88 489 flush;
#X msg 193 441 1;
#X obj 193 417 t b;
#N canvas 4 51 1332 833 shortcuts 0;
#X obj 287 542 change -1;
#X obj 273 571 sel 0 1, f 30;
#X obj 261 439 sel 0;
#X obj 288 465 t b;
#X obj 321 487 + 1;
#X obj 288 507 % 2;
#X obj 288 486 f 1;
#X obj 287 688 s backwards;
#X msg 439 633 -1;
#X msg 252 636 1;
#X obj 379 503 loadbang;
#X msg 379 524 0;
#X obj 263 418 r cgSc-1-9;
#X obj 302 643 s cgSc-1-9label;
#X obj 520 273 v place;
#X obj 520 324 + 1;
#X obj 520 294 moses, f 12;
#X obj 589 255 v record-number;
#X obj 483 222 t b b b, f 13;
#X obj 589 339 f 1;
#X obj 589 319 t b;
#X obj 483 439 1;
#X obj 483 459 s play;
#X text 529 184 up one recording;
#X obj 456 62 sel 0;
#X obj 483 88 t b;
#X obj 483 109 v record;
#X obj 483 130 sel 0;
#X obj 520 402 v place;
#X obj 520 374 t a a, f 15;
#X obj 607 492 s cgSc-1-8label;
#X obj 456 41 r cgSc-1-8;
#X msg 272 592 Rvrse: Off;
#X msg 360 596 Rvrse: On;
#X obj 707 362 r print-place-init;
#X msg 607 467 Cur: \$1;
#X connect 0 0 1 0;
#X connect 1 0 32 0;
#X connect 1 0 9 0;
#X connect 1 1 33 0;
#X connect 1 1 8 0;
#X connect 2 1 3 0;
#X connect 3 0 6 0;
#X connect 4 0 6 1;
#X connect 5 0 0 0;
#X connect 6 0 4 0;
#X connect 6 0 5 0;
#X connect 8 0 7 0;
#X connect 9 0 7 0;
#X connect 10 0 11 0;
#X connect 11 0 1 0;
#X connect 12 0 2 0;
#X connect 14 0 16 0;
#X connect 15 0 29 0;
#X connect 16 0 15 0;
#X connect 16 1 20 0;
#X connect 17 0 16 1;
#X connect 18 0 21 0;
#X connect 18 1 14 0;
#X connect 18 2 17 0;
#X connect 19 0 29 0;
#X connect 20 0 19 0;
#X connect 21 0 22 0;
#X connect 24 1 25 0;
#X connect 25 0 26 0;
#X connect 26 0 27 0;
#X connect 27 0 18 0;
#X connect 29 0 28 0;
#X connect 29 1 35 0;
#X connect 31 0 24 0;
#X connect 32 0 13 0;
#X connect 33 0 13 0;
#X connect 34 0 35 0;
#X connect 35 0 30 0;
#X restore 308 70 pd shortcuts;
#N canvas 4 50 981 756 count-recs 0;
#X obj 305 282 folder_list;
#X msg 305 257 symbol recordings/*.wav;
#X obj 305 306 t b;
#X obj 277 193 t b b b;
#X obj 305 327 f;
#X obj 339 330 + 1;
#X msg 346 225 1;
#X obj 277 434 v record-number;
#X obj 277 169 r load-number;
#X obj 581 202 t b b;
#X obj 581 223 f 0;
#X obj 581 282 text get place;
#X obj 648 254 text define place;
#X msg 648 226 read place.txt;
#X obj 581 466 v place;
#X obj 581 181 r load-place;
#X obj 708 89 r saveState;
#X msg 708 199 write place.txt;
#X obj 708 110 t b b;
#X obj 771 167 text set place;
#X obj 771 137 v place;
#X obj 277 363 f 0;
#X text 366 167 this inits first;
#X obj 581 353 min;
#X obj 581 303 t a b;
#X obj 608 328 v record-number;
#X text 615 355 if recording number changes and place is above the
total make the max;
#X obj 581 404 t a a;
#X obj 608 439 s print-place-init;
#X connect 0 0 2 0;
#X connect 1 0 0 0;
#X connect 2 0 4 0;
#X connect 3 0 21 0;
#X connect 3 1 1 0;
#X connect 3 2 6 0;
#X connect 4 0 5 0;
#X connect 4 0 21 1;
#X connect 5 0 4 1;
#X connect 6 0 4 1;
#X connect 8 0 3 0;
#X connect 9 0 10 0;
#X connect 9 1 13 0;
#X connect 10 0 11 0;
#X connect 11 0 24 0;
#X connect 13 0 12 0;
#X connect 15 0 9 0;
#X connect 16 0 18 0;
#X connect 17 0 12 0;
#X connect 18 0 17 0;
#X connect 18 1 20 0;
#X connect 20 0 19 0;
#X connect 21 0 7 0;
#X connect 23 0 27 0;
#X connect 24 0 23 0;
#X connect 24 1 25 0;
#X connect 25 0 23 1;
#X connect 27 0 14 0;
#X connect 27 1 28 0;
#X restore 566 142 pd count-recs;
#X f 16;
#N canvas 4 50 450 300 load 0;
#X obj 52 14 loadbang;
#X obj 52 35 t b b b b;
#X obj 103 60 s load-number;
#X obj 91 84 s load-place;
#X obj 41 186 s plug-track;
#X obj 74 122 s load-step-knob;
#X connect 0 0 1 0;
#X connect 1 0 4 0;
#X connect 1 1 5 0;
#X connect 1 2 3 0;
#X connect 1 3 2 0;
#X restore 569 21 pd load;
#N canvas 13 50 450 300 cg-pd-library-local 0;
#X obj 502 35 r cgSc-1-slots;
#X obj 60 68 declare -path cg-pd-library-local/sampling;
#X obj 60 98 declare -path cg-pd-library-local/sequencer;
#X obj 58 130 declare -path cg-pd-library-local/externals;
#X obj 59 165 declare -path cg-pd-library-local/metronome;
#X restore 23 9 pd cg-pd-library-local;
#X obj 23 66 cg-shortcut 1 1, f 20;
#N canvas 4 50 1495 708 the-knobs 0;
#X obj 280 211 r knob1;
#X obj 414 205 r knob2;
#X obj 532 208 r knob3;
#X obj 673 208 r knob4;
#X obj 503 439 outlet;
#X obj 221 295 seq-format-event knob1;
#X obj 401 293 seq-format-event knob2;
#X obj 566 292 seq-format-event knob3;
#X obj 747 289 seq-format-event knob4;
#X connect 0 0 5 0;
#X connect 1 0 6 0;
#X connect 2 0 7 0;
#X connect 3 0 8 0;
#X connect 5 0 4 0;
#X connect 6 0 4 0;
#X connect 7 0 4 0;
#X connect 8 0 4 0;
#X restore 41 201 pd the-knobs;
#X obj 23 155 list prepend notes;
#X obj 23 176 list trim;
#N canvas 10 50 1276 866 auto-knobs-notes-through 0;
#X obj 438 185 inlet;
#X obj 852 503 outlet;
#X obj 562 398 s seq3-k3;
#X obj 537 440 s seq3-k2;
#X obj 435 470 s seq3-k1;
#X obj 663 357 s seq3-k4;
#X obj 435 295 route knob1 knob2 knob3 knob4 notes, f 64;
#X connect 0 0 6 0;
#X connect 6 0 4 0;
#X connect 6 1 3 0;
#X connect 6 2 2 0;
#X connect 6 3 5 0;
#X connect 6 4 1 0;
#X restore 23 345 pd auto-knobs-notes-through;
#N canvas 4 50 1715 682 new-record-sample 0;
#X obj 290 579 throw~ outL;
#X obj 307 554 throw~ outR;
#X obj 289 515 *~, f 34;
#X obj 96 125 sel 0;
#X obj 123 151 t b;
#X obj 159 194 + 1;
#X obj 123 191 f 1;
#X obj 159 215 == 1;
#X obj 123 287 sel 0 1, f 15;
#X obj 227 93 loadbang;
#X obj 123 242 t f f, f 28;
#X msg 227 114 0;
#X obj 288 368 lop~ 4;
#X text 331 367 Monitor ON/OFF;
#X obj 491 476 r~ internal-monitor;
#X obj 123 399 s cgSc-1-10label;
#X obj 97 103 r cgSc-1-10;
#N canvas 4 50 1410 801 record 0;
#X obj 563 596 writesf~;
#X msg 606 471 open recordings/\$1.wav;
#X obj 563 127 r glob-record;
#X msg 563 280 start;
#X obj 563 148 sel 1 0, f 100;
#X msg 861 335 stop;
#X obj 408 354 *~;
#X obj 495 297 vline~;
#X obj 495 318 pow~ 2;
#X obj 861 183 t b b b, f 13;
#X obj 936 206 f 0;
#X obj 650 210 f 1;
#X msg 898 205 stop;
#X obj 913 344 v record;
#X obj 913 319 f 0;
#X obj 861 272 del 3;
#X msg 495 271 \$1 3;
#X obj 1016 449 metro 100;
#X obj 1016 402 t b b;
#X msg 1016 423 1;
#X obj 1046 471 + 1;
#X obj 1016 470 f 0;
#X msg 1043 423 0;
#X msg 966 403 0, f 5;
#X obj 1016 491 * 0.1;
#X obj 861 293 t b b b, f 18;
#X obj 926 560 v record-number;
#X obj 926 581 pack 0 0, f 20;
#X obj 1016 519 t b a;
#X obj 926 686 s screenLine5;
#X obj 606 343 v record-number;
#X obj 606 365 t a b;
#X msg 926 661 Rec: \$1.wav \$2 sec;
#X obj 738 328 s play;
#X obj 782 248 v record;
#X obj 563 179 t b b b b b b, f 37;
#X obj 782 214 f 1;
#X obj 738 293 f 0;
#X obj 408 235 r~ samp-sound-in;
#X obj 1105 538 r cgSc-1-mute-print;
#X obj 926 602 spigot 0, f 29;
#X obj 1105 559 ==;
#X connect 1 0 0 0;
#X connect 2 0 4 0;
#X connect 3 0 0 0;
#X connect 4 0 35 0;
#X connect 4 1 9 0;
#X connect 5 0 0 0;
#X connect 6 0 0 0;
#X connect 7 0 8 0;
#X connect 8 0 6 1;
#X connect 9 0 15 0;
#X connect 9 1 12 0;
#X connect 9 2 10 0;
#X connect 10 0 16 0;
#X connect 11 0 16 0;
#X connect 12 0 15 0;
#X connect 14 0 13 0;
#X connect 15 0 25 0;
#X connect 16 0 7 0;
#X connect 17 0 21 0;
#X connect 18 0 19 0;
#X connect 18 1 22 0;
#X connect 19 0 17 0;
#X connect 20 0 21 1;
#X connect 21 0 20 0;
#X connect 21 0 24 0;
#X connect 22 0 21 1;
#X connect 23 0 17 0;
#X connect 24 0 28 0;
#X connect 25 0 5 0;
#X connect 25 1 14 0;
#X connect 25 2 23 0;
#X connect 26 0 27 0;
#X connect 27 0 40 0;
#X connect 28 0 26 0;
#X connect 28 1 27 1;
#X connect 30 0 31 0;
#X connect 31 0 1 0;
#X connect 31 1 26 0;
#X connect 32 0 29 0;
#X connect 35 0 3 0;
#X connect 35 1 30 0;
#X connect 35 2 11 0;
#X connect 35 3 18 0;
#X connect 35 4 37 0;
#X connect 35 5 36 0;
#X connect 36 0 34 0;
#X connect 37 0 33 0;
#X connect 38 0 6 0;
#X connect 39 0 41 0;
#X connect 40 0 32 0;
#X connect 41 0 40 1;
#X restore 611 53 pd record;
#X obj 891 57 sel 0;
#X obj 918 83 t b;
#X obj 891 36 r cgSc-1-6;
#X obj 877 598 s glob-record;
#X obj 858 623 v record;
#X obj 918 125 v record;
#X obj 858 457 f 1;
#X obj 1120 188 f 0;
#X obj 858 485 t f f b;
#X obj 897 513 v record-number;
#X obj 897 534 + 1;
#X obj 897 560 v record-number;
#X obj 1154 296 v record;
#X obj 1171 235 s glob-record;
#X obj 1137 320 v record-number;
#X obj 1137 341 v place;
#X obj 1120 444 s play;
#X obj 1120 211 t b b b f;
#X msg 1154 262 2;
#X obj 1020 50 r fs;
#X obj 1020 71 sel 0;
#X obj 1047 92 t b;
#X obj 1120 423 f 1;
#X obj 1120 402 del 100;
#X text 1182 402 minimum record time;
#X text 1061 57 aux and footswitch trigger recording;
#X obj 631 340 s cgSc-1-6label;
#X obj 705 241 loadbang;
#X msg 689 307 RECRDING..;
#X obj 631 210 r glob-record;
#X obj 631 231 sel 0 1;
#X text 436 120 record waves;
#X obj 1395 428 r glob-record;
#X obj 1395 449 s led;
#X msg 166 342 Monitr:ON;
#X msg 123 318 Monitr:OFF;
#X msg 631 305 Rec: OFF;
#N canvas 4 50 450 300 peak-trigger 0;
#X obj 122 24 inlet;
#X obj 32 240 outlet;
#N canvas 812 193 940 442 peak-trigger 0;
#X obj 56 30 inlet~;
#X obj 56 292 outlet;
#X obj 56 212 spigot 0;
#X obj 56 234 t b b;
#X msg 141 234 0;
#X obj 247 9 inlet;
#X obj 266 98 t b b b;
#X msg 305 119 stop;
#X msg 285 160 1;
#X obj 247 70 sel 0 1;
#X msg 247 131 0;
#X obj 285 139 del 350;
#X obj 381 17 inlet;
#X msg 381 88 set \$1 5 \$1 5;
#X text 347 141 delay to avod the 'click' when triggering the record
with the internal mic on;
#X obj 381 38 clip 0 1;
#X obj 56 149 threshold~ 0.01 5 0.01 5;
#X text 457 15 change sensitivity;
#X text 290 10 open;
#X text 99 32 signal to monitor;
#X obj 301 247 switch~;
#X msg 304 206 1;
#X connect 0 0 16 0;
#X connect 2 0 3 0;
#X connect 3 0 1 0;
#X connect 3 1 4 0;
#X connect 4 0 2 1;
#X connect 4 0 20 0;
#X connect 5 0 9 0;
#X connect 6 0 21 0;
#X connect 6 1 11 0;
#X connect 6 2 7 0;
#X connect 7 0 11 0;
#X connect 8 0 2 1;
#X connect 9 0 10 0;
#X connect 9 1 6 0;
#X connect 10 0 2 1;
#X connect 10 0 20 0;
#X connect 11 0 8 0;
#X connect 12 0 15 0;
#X connect 13 0 16 0;
#X connect 15 0 13 0;
#X connect 16 0 2 0;
#X connect 21 0 20 0;
#X restore 32 157 pd peak-trigger;
#X obj 33 77 r~ inL;
#X obj 47 100 r~ inR;
#X obj 122 45 t b;
#X obj 122 66 f 1;
#X obj 192 29 inlet;
#X text 247 31 stop;
#X obj 192 50 t b;
#X obj 192 71 f 0;
#X connect 0 0 5 0;
#X connect 2 0 1 0;
#X connect 3 0 2 0;
#X connect 4 0 2 0;
#X connect 5 0 6 0;
#X connect 6 0 2 1;
#X connect 7 0 9 0;
#X connect 9 0 10 0;
#X connect 10 0 2 1;
#X restore 858 364 pd peak-trigger;
#X f 23;
#X obj 877 337 s led;
#X msg 877 316 6;
#X obj 858 191 t b b b;
#X msg 897 214 3;
#X obj 897 287 v record;
#X obj 918 146 sel 0 3 1, f 51;
#X obj 1019 288 s led;
#X obj 1019 175 t b b b;
#X obj 1038 243 v record;
#X msg 1038 218 0;
#X obj 897 235 t a a;
#X msg 1019 267 0;
#N canvas 4 50 450 300 anykey 0;
#X obj 103 45 r aux;
#X obj 103 66 sel 1;
#X obj 151 57 stripnote;
#X obj 151 78 t b;
#X obj 151 197 spigot;
#X obj 258 94 r glob-record;
#X obj 151 218 t b;
#X obj 184 123 sel 0;
#X obj 184 144 f 0;
#X obj 211 148 t b;
#X obj 211 169 f 1;
#X obj 151 239 outlet;
#X obj 219 209 tgl 15 0 empty empty empty 17 7 0 10 -262144 -1 -1 0
1;
#X obj 171 2 r sc-notes;
#X connect 0 0 1 0;
#X connect 1 0 4 0;
#X connect 2 0 3 0;
#X connect 3 0 4 0;
#X connect 4 0 6 0;
#X connect 5 0 7 0;
#X connect 6 0 11 0;
#X connect 7 0 8 0;
#X connect 7 1 9 0;
#X connect 8 0 4 1;
#X connect 8 0 12 0;
#X connect 9 0 10 0;
#X connect 10 0 4 1;
#X connect 10 0 12 0;
#X connect 13 0 2 0;
#X restore 740 82 pd anykey cancels;
#X obj 924 260 s glob-record;
#X connect 2 0 1 0;
#X connect 2 0 0 0;
#X connect 3 1 4 0;
#X connect 4 0 6 0;
#X connect 5 0 7 0;
#X connect 6 0 5 0;
#X connect 6 0 10 0;
#X connect 7 0 6 1;
#X connect 8 0 53 0;
#X connect 8 1 52 0;
#X connect 9 0 11 0;
#X connect 10 0 8 0;
#X connect 10 1 12 0;
#X connect 11 0 6 0;
#X connect 12 0 2 0;
#X connect 14 0 2 1;
#X connect 16 0 3 0;
#X connect 18 1 19 0;
#X connect 19 0 23 0;
#X connect 20 0 18 0;
#X connect 23 0 61 0;
#X connect 24 0 26 0;
#X connect 25 0 35 0;
#X connect 26 0 22 0;
#X connect 26 1 21 0;
#X connect 26 2 27 0;
#X connect 27 0 28 0;
#X connect 28 0 29 0;
#X connect 32 0 33 0;
#X connect 35 0 41 0;
#X connect 35 1 32 0;
#X connect 35 1 55 1;
#X connect 35 2 36 0;
#X connect 35 3 31 0;
#X connect 36 0 30 0;
#X connect 37 0 38 0;
#X connect 38 1 39 0;
#X connect 39 0 23 0;
#X connect 40 0 34 0;
#X connect 41 0 40 0;
#X connect 45 0 54 0;
#X connect 46 0 44 0;
#X connect 47 0 48 0;
#X connect 48 0 54 0;
#X connect 48 1 46 0;
#X connect 50 0 51 0;
#X connect 52 0 15 0;
#X connect 53 0 15 0;
#X connect 54 0 44 0;
#X connect 55 0 24 0;
#X connect 57 0 56 0;
#X connect 58 0 55 0;
#X connect 58 1 57 0;
#X connect 58 2 59 0;
#X connect 59 0 66 0;
#X connect 61 0 58 0;
#X connect 61 1 63 0;
#X connect 61 2 25 0;
#X connect 63 0 67 0;
#X connect 63 1 65 0;
#X connect 63 2 55 1;
#X connect 65 0 64 0;
#X connect 66 0 60 0;
#X connect 66 1 69 0;
#X connect 67 0 62 0;
#X connect 68 0 23 0;
#X restore 302 124 pd new-record-sample;
#N canvas 4 50 450 300 midi-in 0;
#X obj 63 195 outlet;
#X obj 71 93 notein;
#N canvas 6 50 1280 956 chsel 0;
#X obj 187 417 pack;
#X obj 207 372 f;
#X obj 168 372 f;
#X obj 237 123 f;
#X obj 152 87 t b f;
#X obj 237 145 sel 1;
#X obj 237 325 t b b;
#X obj 342 33 r midiCh;
#X obj 117 35 inlet;
#X obj 199 37 inlet;
#X obj 274 39 inlet;
#X obj 186 444 outlet;
#X obj 325 173 spigot;
#X obj 364 129 == 0;
#X obj 302 246 bng 15 250 50 0 empty empty empty 17 7 0 10 -262144
-1 -1;
#X connect 0 0 11 0;
#X connect 1 0 0 1;
#X connect 2 0 0 0;
#X connect 3 0 5 0;
#X connect 4 0 3 0;
#X connect 4 1 2 1;
#X connect 5 0 6 0;
#X connect 5 1 12 0;
#X connect 6 0 2 0;
#X connect 6 1 1 0;
#X connect 7 0 5 1;
#X connect 7 0 13 0;
#X connect 8 0 4 0;
#X connect 9 0 1 1;
#X connect 10 0 3 1;
#X connect 12 0 14 0;
#X connect 13 0 12 1;
#X connect 14 0 6 0;
#X restore 64 165 pd chsel;
#X connect 1 0 2 0;
#X connect 1 1 2 1;
#X connect 1 2 2 2;
#X connect 2 0 0 0;
#X restore 55 121 pd midi-in;
#X obj 53 100 s sc-notes;
#X connect 1 0 41 0;
#X connect 2 0 7 2;
#X connect 3 0 41 1;
#X connect 4 0 7 3;
#X connect 6 0 7 1;
#X connect 7 0 45 0;
#X connect 8 0 11 0;
#X connect 11 0 9 0;
#X connect 11 0 10 0;
#X connect 15 0 14 0;
#X connect 16 0 18 0;
#X connect 16 1 17 0;
#X connect 17 0 25 0;
#X connect 18 0 19 0;
#X connect 20 0 17 1;
#X connect 21 0 22 0;
#X connect 22 0 23 0;
#X connect 22 1 18 1;
#X connect 22 2 20 0;
#X connect 23 0 19 1;
#X connect 23 1 25 1;
#X connect 26 0 31 0;
#X connect 27 0 28 0;
#X connect 28 0 29 0;
#X connect 28 1 36 0;
#X connect 29 0 34 0;
#X connect 29 1 30 0;
#X connect 30 0 26 1;
#X connect 31 0 16 0;
#X connect 31 1 32 0;
#X connect 32 0 33 0;
#X connect 33 0 16 0;
#X connect 34 0 32 0;
#X connect 35 0 26 1;
#X connect 36 0 35 0;
#X connect 41 0 43 0;
#X connect 41 0 48 0;
#X connect 42 0 7 0;
#X connect 43 0 44 0;
#X connect 44 0 7 0;
#X connect 45 0 26 0;
#X connect 47 0 43 0;
