#N canvas 869 74 639 848 10;
#X obj 13 11 inlet;
#X obj 46 154 sel 0, f 67;
#X obj 155 816 throw~ samp_voice_out;
#X obj 156 673 *~, f 60;
#X obj 512 619 vline~;
#X obj 210 484 r \$0-duration-s;
#X obj 154 524 *~, f 10;
#X obj 156 747 hip~ 5;
#X obj 154 599 tabread4~;
#X obj 201 561 r \$0-2-tabread;
#X obj 176 455 s~ \$0-phazzee;
#X obj 352 496 r~ \$0-phazzee;
#X obj 351 521 -~ 0.5;
#X obj 351 542 *~ 0.5;
#X obj 351 614 clip~ 0 1;
#X obj 351 564 cos~;
#X obj 156 725 *~ 0.7;
#X obj 512 640 pow~ 2;
#X obj 155 642 *~, f 33;
#N canvas 757 138 944 678 load-n-stuff 0;
#X obj 331 251 t b a, f 15;
#X msg 331 273 0;
#X obj 76 235 / 261.626;
#X obj 76 257 / 2;
#X obj 38 363 /, f 9;
#X obj 76 212 mtof;
#X obj 38 341 f;
#X obj 76 276 t b a;
#X obj 38 299 r \$0-duration;
#X obj 38 416 /;
#X msg 38 394 1000 \$1;
#X obj 94 130 r global-pitch;
#X obj 76 186 +, f 8;
#X obj 94 152 t b a;
#X obj 331 422 s \$0-duration;
#X obj 360 372 s \$0-duration-s;
#X obj 571 301 snapshot~;
#X obj 468 399 s \$0-2-tabread;
#X obj 571 278 r~ \$0-phazzee;
#X obj 278 13 inlet;
#X obj 88 23 inlet;
#X obj 38 497 outlet;
#X msg 468 369 set samp-\$1;
#X msg 418 274 symbol samp-\$1-length;
#X obj 331 297 text get, f 15;
#X obj 76 100 t f f, f 43;
#X obj 631 403 tabwrite tape-lOOps;
#X msg 331 187 1;
#X msg 468 196 1;
#X obj 742 214 tabread tape-lOOps;
#X obj 742 275 outlet;
#X obj 331 134 t b b f f f b, f 81;
#X msg 814 173 0;
#X obj 742 241 spigot 0;
#X obj 814 194 spigot 1;
#X obj 786 64 r glob-sync-lock;
#X obj 774 180 ==;
#X obj 331 397 /;
#X obj 430 488 samplerate~;
#X obj 430 448 loadbang;
#X obj 430 509 * 0.001;
#X obj 140 386 r backwards;
#X obj 140 407 t b a;
#X obj 38 457 * 1, f 10;
#X connect 0 0 1 0;
#X connect 0 1 23 0;
#X connect 1 0 24 0;
#X connect 2 0 3 0;
#X connect 3 0 7 0;
#X connect 4 0 10 0;
#X connect 5 0 2 0;
#X connect 6 0 4 0;
#X connect 7 0 6 0;
#X connect 7 1 4 1;
#X connect 8 0 6 0;
#X connect 9 0 43 0;
#X connect 10 0 9 0;
#X connect 11 0 13 0;
#X connect 12 0 5 0;
#X connect 13 0 12 0;
#X connect 13 1 12 1;
#X connect 16 0 26 0;
#X connect 18 0 16 0;
#X connect 19 0 25 0;
#X connect 20 0 16 0;
#X connect 22 0 17 0;
#X connect 23 0 24 3;
#X connect 24 0 15 0;
#X connect 24 0 37 0;
#X connect 25 0 12 0;
#X connect 25 1 31 0;
#X connect 27 0 0 0;
#X connect 28 0 22 0;
#X connect 29 0 33 0;
#X connect 31 0 27 0;
#X connect 31 1 28 0;
#X connect 31 3 26 1;
#X connect 31 4 29 0;
#X connect 31 5 32 0;
#X connect 32 0 34 0;
#X connect 33 0 30 0;
#X connect 34 0 30 0;
#X connect 35 0 34 1;
#X connect 35 0 36 0;
#X connect 36 0 33 1;
#X connect 37 0 14 0;
#X connect 38 0 40 0;
#X connect 39 0 38 0;
#X connect 40 0 37 1;
#X connect 41 0 42 0;
#X connect 42 0 43 0;
#X connect 42 1 43 1;
#X connect 43 0 21 0;
#X restore 153 240 pd load-n-stuff;
#X obj 153 434 phasor~, f 13;
#X obj 46 175 t b b b;
#X obj 505 269 / 127;
#X obj 505 290 sqrt;
#X obj 65 225 del, f 11;
#X msg 85 200 stop;
#X msg 46 268 0;
#X obj 153 332 vline~;
#X obj 153 353 pow~ 2;
#X obj 153 292 pack 0 0;
#X obj 198 265 r ramp-time;
#X obj 65 246 t b b;
#X obj 129 182 r ramp-time;
#X obj 13 53 unpack;
#X obj 351 593 *~ 50;
#X obj 153 273 sqrt;
#X obj 42 326 pack 0 0;
#X obj 72 285 r ramp-time;
#X obj 153 374 +~, f 12;
#X obj 72 306 + 20;
#X obj 155 770 lop~ 16000;
#X obj 155 794 lop~ 16000;
#X obj 238 65 lfo;
#X obj 210 504 - 2;
#X obj 155 555 +~ 1;
#X msg 512 554 \$1 10;
#X msg 574 546 0 10;
#X obj 129 203 - 10;
#X obj 520 22 inlet kill;
#X obj 520 43 t b;
#X msg 520 64 0;
#X obj 319 279 r backwards;
#X obj 319 300 lop~ 10;
#X obj 154 404 *~, f 24;
#X obj 13 32 t a a, f 38;
#X obj 408 229 f;
#X obj 13 74 swap, f 6;
#X obj 462 195 t a b b;
#X msg 262 319 stop;
#X obj 243 348 del 8;
#X obj 156 694 *~, f 39;
#X obj 457 622 vline~;
#X obj 457 643 pow~ 2;
#X msg 444 585 0 8 \, 1 8 8;
#X obj 242 296 t b b b a;
#X obj 243 376 f;
#X obj 272 250 sel 0;
#X msg 272 271 0;
#X connect 0 0 54 0;
#X connect 1 0 21 0;
#X connect 1 1 57 0;
#X connect 3 0 60 0;
#X connect 4 0 17 0;
#X connect 5 0 43 0;
#X connect 6 0 44 0;
#X connect 7 0 40 0;
#X connect 8 0 18 0;
#X connect 9 0 8 0;
#X connect 11 0 12 0;
#X connect 12 0 13 0;
#X connect 13 0 15 0;
#X connect 14 0 18 1;
#X connect 15 0 34 0;
#X connect 16 0 7 0;
#X connect 17 0 3 1;
#X connect 18 0 3 0;
#X connect 19 0 35 0;
#X connect 19 1 66 0;
#X connect 20 0 6 0;
#X connect 20 0 10 0;
#X connect 21 0 26 0;
#X connect 21 1 24 0;
#X connect 21 2 25 0;
#X connect 22 0 23 0;
#X connect 23 0 45 0;
#X connect 24 0 31 0;
#X connect 25 0 24 0;
#X connect 26 0 36 0;
#X connect 27 0 28 0;
#X connect 28 0 38 0;
#X connect 29 0 27 0;
#X connect 30 0 29 1;
#X connect 31 0 19 0;
#X connect 31 1 46 0;
#X connect 32 0 47 0;
#X connect 33 0 56 0;
#X connect 33 1 56 1;
#X connect 34 0 14 0;
#X connect 35 0 29 0;
#X connect 36 0 27 0;
#X connect 37 0 39 0;
#X connect 38 0 53 0;
#X connect 39 0 36 1;
#X connect 40 0 41 0;
#X connect 41 0 2 0;
#X connect 42 0 38 1;
#X connect 43 0 6 1;
#X connect 44 0 8 0;
#X connect 45 0 4 0;
#X connect 46 0 4 0;
#X connect 47 0 24 1;
#X connect 48 0 49 0;
#X connect 49 0 50 0;
#X connect 50 0 1 0;
#X connect 51 0 52 0;
#X connect 52 0 53 1;
#X connect 53 0 20 0;
#X connect 54 0 33 0;
#X connect 54 1 42 0;
#X connect 55 0 19 1;
#X connect 56 0 1 0;
#X connect 56 1 55 1;
#X connect 57 0 22 0;
#X connect 57 1 55 0;
#X connect 57 2 25 0;
#X connect 58 0 59 0;
#X connect 59 0 65 0;
#X connect 60 0 16 0;
#X connect 61 0 62 0;
#X connect 62 0 60 1;
#X connect 63 0 61 0;
#X connect 64 0 59 0;
#X connect 64 1 58 0;
#X connect 64 2 63 0;
#X connect 64 3 65 1;
#X connect 65 0 20 1;
#X connect 66 0 67 0;
#X connect 67 0 64 0;
