#N canvas 357 52 1032 756 10;
#X obj 53 285 *~, f 4;
#X obj 53 68 inlet~;
#X obj 182 133 osc~ 5;
#X obj 33 360 outlet~;
#N canvas 172 83 586 377 LICENSE-GPL 0;
#X text 57 88 This program is free software: you can redistribute it
and/or modify it under the terms of the GNU General Public License
as published by the Free Software Foundation \, either version 3 of
the License \, or (at your option) any later version.;
#X text 58 168 This program is distributed in the hope that it will
be useful \, but WITHOUT ANY WARRANTY \; without even the implied warranty
of MERCHANTABILITY or FITNESS FOR A PARTICULAR PURPOSE. See the GNU
General Public License for more details.;
#X text 57 261 You should have received a copy of the GNU General Public
License along with this program. If not \, see <http://www.gnu.org/licenses/>.
;
#X text 61 54 Copyright (C) 2009 \, Reality Jockey Ltd.;
#X text 60 325 See the file LICENSE.txt for the full license text.
;
#X restore 463 38 pd LICENSE-GPL;
#X obj 33 324 c_xfade, f 23;
#X obj 182 59 inlet;
#X text 187 77 freq;
#X obj 455 66 inlet;
#X text 464 92 dry/wet;
#X obj 304 59 inlet;
#X obj 182 155 *~ 0.5;
#X obj 182 177 +~ 0.5;
#X obj 121 172 sig~ 1;
#X obj 122 227 -~, f 9;
#X obj 182 199 *~, f 14;
#X text 328 85 depth;
#X connect 0 0 5 1;
#X connect 1 0 0 0;
#X connect 1 0 5 0;
#X connect 2 0 11 0;
#X connect 5 0 3 0;
#X connect 6 0 2 0;
#X connect 8 0 5 2;
#X connect 10 0 15 1;
#X connect 11 0 12 0;
#X connect 12 0 15 0;
#X connect 13 0 14 0;
#X connect 14 0 0 1;
#X connect 15 0 14 1;
