#N canvas 800 50 830 955 10;
#X obj 44 469 AudioPan, f 28;
#X obj 217 243 +~ 0.5;
#X obj 217 221 *~ 0.5;
#X obj 216 192 *~ 0.1, f 16;
#X obj 217 271 clip~ 0 1;
#X obj 216 164 osc~ 0.01;
#X obj 216 83 t f f;
#X obj 216 105 *, f 5;
#X obj 351 149 * 100;
#X obj 351 171 int;
#X msg 351 196 Depth \$1 %;
#X obj 309 266 int;
#X obj 309 287 * 0.001;
#X msg 309 309 Rate \$1 Hz;
#X obj 174 654 hip~ 5;
#X obj 5 650 hip~ 5;
#X obj 216 127 * 20;
#X msg 536 91 \$1 10;
#X obj 596 113 int;
#X msg 596 135 Dry / Wet \$1 %;
#X obj 6 620 c_xfade, f 11;
#X obj 216 51 r pan-\$1-rate;
#X obj 331 51 r pan-\$1-depth;
#X obj 536 55 r pan-\$1-dw;
#X obj 596 157 s pan-\$1-dw-label;
#X obj 351 218 s pan-\$1-depth-label;
#X obj 309 332 s pan-\$1-rate-label;
#X obj 7 723 *~;
#N canvas 14 50 526 600 switcher 0;
#X obj 113 261 t b b;
#X obj 113 295 delay 5;
#X obj 263 387 line~;
#X msg 176 296 0 4;
#X obj 133 476 *~;
#X msg 113 327 0;
#X obj 113 220 bang;
#X msg 406 229 1;
#X msg 359 193 1 4;
#X obj 352 143 t b b b;
#X obj 139 506 outlet~;
#X obj 371 507 outlet;
#X obj 112 48 inlet;
#X obj 353 50 inlet;
#X connect 0 0 1 0;
#X connect 0 1 3 0;
#X connect 1 0 5 0;
#X connect 2 0 4 0;
#X connect 2 0 4 1;
#X connect 3 0 2 0;
#X connect 4 0 10 0;
#X connect 5 0 11 0;
#X connect 6 0 0 0;
#X connect 7 0 11 0;
#X connect 8 0 2 0;
#X connect 9 1 8 0;
#X connect 9 2 7 0;
#X connect 12 0 6 0;
#X connect 13 0 9 0;
#X restore 289 674 pd switcher;
#X obj 161 722 *~;
#X obj 289 645 sel 0 1;
#X obj 289 622 tgl 15 0 empty empty empty 17 7 0 10 -262144 -1 -1 1
1;
#X obj 363 698 switch~ 64 1 1;
#X obj 289 593 r pan-\$1-switch;
#X obj 349 618 r \$1-kill-switch;
#X obj 5 760 s~ pan-\$1-outL;
#X obj 174 761 s~ pan-\$1-outR;
#X obj 309 243 * 1000;
#X obj 596 91 * 100;
#X obj 536 453 lop~ 10;
#X obj 173 624 c_xfade, f 9;
#X obj 31 63 r~ pan-\$1-inL;
#X obj 44 91 r~ pan-\$1-inR;
#N canvas 441 225 827 619 mono-switch 0;
#X obj 150 125 *~;
#X obj 20 124 *~;
#X obj 77 284 *~;
#X obj 20 52 inlet~;
#X obj 150 53 inlet~;
#X obj 246 118 sel 1 2, f 40;
#X obj 96 258 vline~;
#X obj 79 82 vline~;
#X obj 21 376 outlet~;
#X obj 151 377 outlet~;
#X obj 384 151 t b b;
#X msg 425 184 0 10;
#X msg 384 185 1 10;
#X text 433 150 stereo;
#X text 290 146 mono;
#X obj 246 151 t b b;
#X msg 287 184 0 10;
#X msg 246 185 1 10;
#X obj 246 96 r fx13-monoSwitch;
#X obj 77 202 r~ pass-inMONO;
#X connect 0 0 9 0;
#X connect 1 0 8 0;
#X connect 2 0 8 0;
#X connect 2 0 9 0;
#X connect 3 0 1 0;
#X connect 4 0 0 0;
#X connect 5 0 15 0;
#X connect 5 1 10 0;
#X connect 6 0 2 1;
#X connect 7 0 1 1;
#X connect 7 0 0 1;
#X connect 10 0 12 0;
#X connect 10 1 11 0;
#X connect 11 0 6 0;
#X connect 12 0 7 0;
#X connect 15 0 17 0;
#X connect 15 1 16 0;
#X connect 16 0 7 0;
#X connect 17 0 6 0;
#X connect 18 0 5 0;
#X connect 19 0 2 0;
#X restore 32 130 pd mono-switch;
#X connect 0 0 20 1;
#X connect 0 1 40 1;
#X connect 1 0 4 0;
#X connect 2 0 1 0;
#X connect 3 0 2 0;
#X connect 4 0 0 2;
#X connect 5 0 3 0;
#X connect 6 0 7 0;
#X connect 6 1 7 1;
#X connect 7 0 16 0;
#X connect 8 0 9 0;
#X connect 9 0 10 0;
#X connect 10 0 25 0;
#X connect 11 0 12 0;
#X connect 12 0 13 0;
#X connect 13 0 26 0;
#X connect 14 0 29 0;
#X connect 15 0 27 0;
#X connect 16 0 5 0;
#X connect 16 0 37 0;
#X connect 17 0 39 0;
#X connect 18 0 19 0;
#X connect 19 0 24 0;
#X connect 20 0 15 0;
#X connect 21 0 6 0;
#X connect 22 0 3 1;
#X connect 22 0 8 0;
#X connect 23 0 17 0;
#X connect 23 0 38 0;
#X connect 27 0 35 0;
#X connect 28 0 27 1;
#X connect 28 0 29 1;
#X connect 28 1 32 0;
#X connect 29 0 36 0;
#X connect 30 0 28 0;
#X connect 30 1 28 1;
#X connect 31 0 30 0;
#X connect 33 0 31 0;
#X connect 34 0 31 0;
#X connect 37 0 11 0;
#X connect 38 0 18 0;
#X connect 39 0 40 2;
#X connect 39 0 20 2;
#X connect 40 0 14 0;
#X connect 41 0 43 0;
#X connect 42 0 43 1;
#X connect 43 0 20 0;
#X connect 43 0 0 0;
#X connect 43 1 40 0;
#X connect 43 1 0 1;
