#N canvas 1054 144 690 852 10;
#X obj 276 321 i;
#X msg 276 342 Depth \$1 %;
#X obj 242 188 t f f;
#X obj 242 210 *, f 5;
#X obj 165 214 t f f;
#X obj 165 236 *, f 5;
#X obj 445 295 i;
#X obj 445 317 / 10;
#X text 485 288 just to knock off some decimal places, f 15;
#N canvas 7 50 612 483 crossfade 0;
#X obj 33 48 inlet~;
#X obj 211 67 inlet;
#X obj 39 327 outlet~;
#X obj 49 194 expr cos($f1 * 3.14159 / 2);
#X obj 244 194 expr sin($f1 * 3.14159 / 2);
#X obj 211 143 clip 0 1;
#N canvas 7 50 594 632 pan_core 0;
#X obj 21 106 inlet~;
#X obj 226 126 inlet;
#X obj 59 259 *~;
#X obj 123 303 outlet~;
#X obj 189 258 *~;
#X obj 205 234 line~;
#X obj 75 234 line~;
#X obj 96 127 inlet;
#X obj 179 104 inlet~;
#X text 223 350 comment;
#X obj 75 195 pack f 5;
#X obj 205 195 pack f 5;
#X text 202 346 Hans-Christoph Steiner \, 2004;
#X text 202 332 Adapted from [pan_core~];
#X connect 0 0 2 0;
#X connect 1 0 11 0;
#X connect 2 0 3 0;
#X connect 4 0 3 0;
#X connect 5 0 4 1;
#X connect 6 0 2 1;
#X connect 7 0 10 0;
#X connect 8 0 4 0;
#X connect 10 0 6 0;
#X connect 11 0 5 0;
#X restore 39 266 pd pan_core;
#X text 165 300 Adapted from [equal_power_pan~] \, Hans-Christoph Steiner
\, 2004;
#X text 320 312 comment;
#X obj 128 46 inlet~;
#X connect 0 0 6 0;
#X connect 1 0 5 0;
#X connect 3 0 6 1;
#X connect 4 0 6 3;
#X connect 5 0 3 0;
#X connect 5 0 4 0;
#X connect 6 0 2 0;
#X connect 9 0 6 2;
#X restore 15 495 pd crossfade;
#X obj 235 463 i;
#X msg 235 488 Dry / Wet \$1 %;
#X msg 445 342 Freq \$1 Hz, f 12;
#X text 58 43 Phaser Effect Module;
#X obj 242 234 * 9;
#X obj 445 273 * 11;
#X obj 165 126 r phaser-\$1-depth;
#X obj 242 157 r phaser-\$1-freq;
#X obj 235 511 s phaser-\$1-dw-label;
#X obj 276 363 s phaser-\$1-depth-label;
#X obj 445 363 s phaser-\$1-freq-label;
#X obj 206 398 r phaser-\$1-dw;
#X obj 18 685 *~;
#N canvas 14 50 526 600 switcher 0;
#X obj 113 261 t b b;
#X obj 113 295 delay 5;
#X obj 263 387 line~;
#X msg 176 296 0 4;
#X obj 133 476 *~;
#X msg 113 327 0;
#X obj 113 220 bang;
#X msg 406 229 1;
#X msg 359 193 1 4;
#X obj 352 143 t b b b;
#X obj 139 506 outlet~;
#X obj 371 507 outlet;
#X obj 112 48 inlet;
#X obj 353 50 inlet;
#X connect 0 0 1 0;
#X connect 0 1 3 0;
#X connect 1 0 5 0;
#X connect 2 0 4 0;
#X connect 2 0 4 1;
#X connect 3 0 2 0;
#X connect 4 0 10 0;
#X connect 5 0 11 0;
#X connect 6 0 0 0;
#X connect 7 0 11 0;
#X connect 8 0 2 0;
#X connect 9 1 8 0;
#X connect 9 2 7 0;
#X connect 12 0 6 0;
#X connect 13 0 9 0;
#X restore 220 646 pd switcher;
#X obj 152 684 *~;
#X obj 220 617 sel 0 1;
#X obj 220 594 tgl 15 0 empty empty empty 17 7 0 10 -262144 -1 -1 1
1;
#X obj 294 670 switch~ 64 1 1;
#X obj 220 565 r phaser-\$1-switch;
#X obj 277 592 r \$1-kill-switch;
#X obj 17 719 s~ phaser-\$1-outL;
#X obj 175 719 s~ phaser-\$1-outR;
#X obj 276 299 * 100;
#X obj 235 440 * 100;
#X obj 14 82 r~ phaser-\$1-inL;
#X obj 144 82 r~ phaser-\$1-inR;
#N canvas 7 50 612 483 crossfade 0;
#X obj 33 48 inlet~;
#X obj 211 67 inlet;
#X obj 39 327 outlet~;
#X obj 49 194 expr cos($f1 * 3.14159 / 2);
#X obj 244 194 expr sin($f1 * 3.14159 / 2);
#X obj 211 143 clip 0 1;
#N canvas 7 50 594 632 pan_core 0;
#X obj 21 106 inlet~;
#X obj 226 126 inlet;
#X obj 59 259 *~;
#X obj 123 303 outlet~;
#X obj 189 258 *~;
#X obj 205 234 line~;
#X obj 75 234 line~;
#X obj 96 127 inlet;
#X obj 179 104 inlet~;
#X text 223 350 comment;
#X obj 75 195 pack f 5;
#X obj 205 195 pack f 5;
#X text 202 346 Hans-Christoph Steiner \, 2004;
#X text 202 332 Adapted from [pan_core~];
#X connect 0 0 2 0;
#X connect 1 0 11 0;
#X connect 2 0 3 0;
#X connect 4 0 3 0;
#X connect 5 0 4 1;
#X connect 6 0 2 1;
#X connect 7 0 10 0;
#X connect 8 0 4 0;
#X connect 10 0 6 0;
#X connect 11 0 5 0;
#X restore 39 266 pd pan_core;
#X text 165 300 Adapted from [equal_power_pan~] \, Hans-Christoph Steiner
\, 2004;
#X text 320 312 comment;
#X obj 128 46 inlet~;
#X connect 0 0 6 0;
#X connect 1 0 5 0;
#X connect 3 0 6 1;
#X connect 4 0 6 3;
#X connect 5 0 3 0;
#X connect 5 0 4 0;
#X connect 6 0 2 0;
#X connect 9 0 6 2;
#X restore 125 534 pd crossfade;
#N canvas 441 225 827 619 mono-switch 0;
#X obj 150 125 *~;
#X obj 20 124 *~;
#X obj 77 284 *~;
#X obj 20 52 inlet~;
#X obj 150 53 inlet~;
#X obj 246 118 sel 1 2, f 40;
#X obj 96 258 vline~;
#X obj 79 82 vline~;
#X obj 21 376 outlet~;
#X obj 151 377 outlet~;
#X obj 384 151 t b b;
#X msg 425 184 0 10;
#X msg 384 185 1 10;
#X text 433 150 stereo;
#X text 290 146 mono;
#X obj 246 151 t b b;
#X msg 287 184 0 10;
#X msg 246 185 1 10;
#X obj 246 96 r fx13-monoSwitch;
#X obj 77 202 r~ pass-inMONO;
#X connect 0 0 9 0;
#X connect 1 0 8 0;
#X connect 2 0 8 0;
#X connect 2 0 9 0;
#X connect 3 0 1 0;
#X connect 4 0 0 0;
#X connect 5 0 15 0;
#X connect 5 1 10 0;
#X connect 6 0 2 1;
#X connect 7 0 1 1;
#X connect 7 0 0 1;
#X connect 10 0 12 0;
#X connect 10 1 11 0;
#X connect 11 0 6 0;
#X connect 12 0 7 0;
#X connect 15 0 17 0;
#X connect 15 1 16 0;
#X connect 16 0 7 0;
#X connect 17 0 6 0;
#X connect 18 0 5 0;
#X connect 19 0 2 0;
#X restore 15 133 pd mono-switch;
#X obj 142 361 e_phaser \$1-phase2;
#X obj 56 322 e_phaser \$1-phase1;
#X connect 0 0 1 0;
#X connect 1 0 19 0;
#X connect 2 0 3 0;
#X connect 2 1 3 1;
#X connect 3 0 14 0;
#X connect 4 0 5 0;
#X connect 4 1 5 1;
#X connect 5 0 32 0;
#X connect 5 0 38 1;
#X connect 5 0 39 1;
#X connect 6 0 7 0;
#X connect 7 0 12 0;
#X connect 9 0 22 0;
#X connect 10 0 11 0;
#X connect 11 0 18 0;
#X connect 12 0 20 0;
#X connect 14 0 15 0;
#X connect 14 0 38 2;
#X connect 14 0 39 2;
#X connect 15 0 6 0;
#X connect 16 0 4 0;
#X connect 17 0 2 0;
#X connect 21 0 9 2;
#X connect 21 0 33 0;
#X connect 21 0 36 2;
#X connect 22 0 30 0;
#X connect 23 0 22 1;
#X connect 23 0 24 1;
#X connect 23 1 27 0;
#X connect 24 0 31 0;
#X connect 25 0 23 0;
#X connect 25 1 23 1;
#X connect 26 0 25 0;
#X connect 28 0 26 0;
#X connect 29 0 26 0;
#X connect 32 0 0 0;
#X connect 33 0 10 0;
#X connect 34 0 37 0;
#X connect 35 0 37 1;
#X connect 36 0 24 0;
#X connect 37 0 9 0;
#X connect 37 0 39 0;
#X connect 37 1 38 0;
#X connect 37 1 36 0;
#X connect 38 0 36 1;
#X connect 39 0 9 1;
