#N canvas 854 50 1062 818 10;
#X obj 462 533 i;
#X obj 776 471 * 100;
#X obj 776 499 i;
#X obj 809 276 i;
#X obj 178 450 freeverb~;
#X msg 225 302 \$1 40;
#X obj 225 330 line 0 1;
#X msg 226 369 roomsize \$1;
#X obj 224 274 * 0.9;
#X msg 301 149 \$1 40;
#X obj 301 181 line 0 1;
#X obj 456 491 + 1;
#X msg 776 528 Dry / Wet \$1 %;
#X msg 463 558 Room Size \$1;
#X obj 224 245 r rev-\$1-size;
#X obj 456 41 r rev-\$1-damp;
#X obj 463 607 s rev-\$1-size-label;
#X obj 798 360 s rev-\$1-damp-label;
#X obj 773 604 s rev-\$1-dw-label;
#X obj 72 275 r rev-\$1-dw;
#X obj 69 641 *~;
#N canvas 14 50 526 600 switcher 0;
#X obj 113 261 t b b;
#X obj 113 295 delay 5;
#X obj 263 387 line~;
#X msg 176 296 0 4;
#X obj 133 476 *~;
#X msg 113 327 0;
#X obj 113 220 bang;
#X msg 406 229 1;
#X msg 359 193 1 4;
#X obj 352 143 t b b b;
#X obj 139 506 outlet~;
#X obj 371 507 outlet;
#X obj 112 48 inlet;
#X obj 353 50 inlet;
#X connect 0 0 1 0;
#X connect 0 1 3 0;
#X connect 1 0 5 0;
#X connect 2 0 4 0;
#X connect 2 0 4 1;
#X connect 3 0 2 0;
#X connect 4 0 10 0;
#X connect 5 0 11 0;
#X connect 6 0 0 0;
#X connect 7 0 11 0;
#X connect 8 0 2 0;
#X connect 9 1 8 0;
#X connect 9 2 7 0;
#X connect 12 0 6 0;
#X connect 13 0 9 0;
#X restore 282 526 pd switcher;
#X obj 191 644 *~;
#X obj 282 497 sel 0 1;
#X obj 282 474 tgl 15 0 empty empty empty 17 7 0 10 -262144 -1 -1 1
1;
#X obj 356 550 switch~ 64 1 1;
#X obj 282 445 r rev-\$1-switch;
#X obj 320 416 r \$1-kill-switch;
#X obj 69 670 s~ rev-\$1-outL;
#X obj 190 669 s~ rev-\$1-outR;
#X obj 458 461 * 99;
#X obj 179 185 hip~;
#X msg 804 306 Hi-Pass \$1 hz;
#X msg 351 367 wet 1;
#X obj 351 338 loadbang;
#X obj 178 542 *~;
#X obj 238 542 *~;
#X obj 35 479 *~;
#X obj 72 345 lop~ 5;
#X obj 115 467 lop~ 5;
#X obj 52 321 sig~ 1;
#X obj 53 372 -~;
#X obj 30 11 r~ rev-\$1-inL;
#X obj 127 42 r~ rev-\$1-inR;
#X obj 236 137 hip~;
#X obj 73 479 *~;
#N canvas 441 225 827 619 mono-switch 0;
#X obj 150 125 *~;
#X obj 20 124 *~;
#X obj 77 284 *~;
#X obj 20 52 inlet~;
#X obj 150 53 inlet~;
#X obj 246 118 sel 1 2, f 40;
#X obj 96 258 vline~;
#X obj 79 82 vline~;
#X obj 21 376 outlet~;
#X obj 151 377 outlet~;
#X obj 384 151 t b b;
#X msg 425 184 0 10;
#X msg 384 185 1 10;
#X text 433 150 stereo;
#X text 290 146 mono;
#X obj 246 151 t b b;
#X msg 287 184 0 10;
#X msg 246 185 1 10;
#X obj 246 96 r fx13-monoSwitch;
#X obj 77 202 r~ pass-inMONO;
#X connect 0 0 9 0;
#X connect 1 0 8 0;
#X connect 2 0 8 0;
#X connect 2 0 9 0;
#X connect 3 0 1 0;
#X connect 4 0 0 0;
#X connect 5 0 15 0;
#X connect 5 1 10 0;
#X connect 6 0 2 1;
#X connect 7 0 1 1;
#X connect 7 0 0 1;
#X connect 10 0 12 0;
#X connect 10 1 11 0;
#X connect 11 0 6 0;
#X connect 12 0 7 0;
#X connect 15 0 17 0;
#X connect 15 1 16 0;
#X connect 16 0 7 0;
#X connect 17 0 6 0;
#X connect 18 0 5 0;
#X connect 19 0 2 0;
#X restore 31 86 pd mono-switch;
#X obj 167 112 lop~;
#X obj 76 120 lop~;
#X obj 456 74 moses 0.5;
#X obj 611 118 t f b, f 10;
#X msg 678 142 18000;
#X msg 259 40 \$1 40;
#X obj 259 72 line 0 1;
#X obj 611 183 t f f;
#X obj 611 205 *;
#X obj 611 140 - 0.5;
#X obj 611 162 * 2;
#X obj 256 7 r \$0-2-lop;
#X obj 301 121 r \$0-2-hip;
#X obj 611 257 s \$0-2-hip;
#X obj 678 171 s \$0-2-lop;
#X obj 456 119 t f b, f 10;
#X obj 456 143 * 2;
#X msg 523 143 5;
#X obj 523 172 s \$0-2-hip;
#X obj 456 287 s \$0-2-lop;
#X obj 456 240 max 20;
#X obj 557 295 i;
#X obj 546 379 s rev-\$1-damp-label;
#X msg 552 325 Lo-Pass \$1 hz;
#X obj 456 165 t f f;
#X obj 456 187 *;
#X obj 611 227 * 8000;
#X obj 456 218 * 8000;
#X connect 0 0 13 0;
#X connect 1 0 2 0;
#X connect 2 0 12 0;
#X connect 3 0 32 0;
#X connect 4 0 35 0;
#X connect 4 1 36 0;
#X connect 5 0 6 0;
#X connect 6 0 7 0;
#X connect 7 0 4 0;
#X connect 8 0 5 0;
#X connect 9 0 10 0;
#X connect 10 0 31 1;
#X connect 10 0 44 1;
#X connect 11 0 0 0;
#X connect 12 0 18 0;
#X connect 13 0 16 0;
#X connect 14 0 8 0;
#X connect 14 0 30 0;
#X connect 15 0 49 0;
#X connect 19 0 39 0;
#X connect 19 0 38 0;
#X connect 19 0 1 0;
#X connect 20 0 28 0;
#X connect 21 0 20 1;
#X connect 21 0 22 1;
#X connect 21 1 25 0;
#X connect 22 0 29 0;
#X connect 23 0 21 0;
#X connect 23 1 21 1;
#X connect 24 0 23 0;
#X connect 26 0 24 0;
#X connect 27 0 24 0;
#X connect 30 0 11 0;
#X connect 31 0 4 0;
#X connect 32 0 17 0;
#X connect 33 0 4 0;
#X connect 34 0 33 0;
#X connect 35 0 20 0;
#X connect 36 0 22 0;
#X connect 37 0 20 0;
#X connect 38 0 41 1;
#X connect 39 0 35 1;
#X connect 39 0 36 1;
#X connect 40 0 41 0;
#X connect 41 0 37 1;
#X connect 41 0 45 1;
#X connect 42 0 46 0;
#X connect 43 0 46 1;
#X connect 44 0 4 1;
#X connect 45 0 22 0;
#X connect 46 0 37 0;
#X connect 46 0 48 0;
#X connect 46 1 45 0;
#X connect 46 1 47 0;
#X connect 47 0 44 0;
#X connect 48 0 31 0;
#X connect 49 0 62 0;
#X connect 49 1 50 0;
#X connect 50 0 56 0;
#X connect 50 1 51 0;
#X connect 51 0 61 0;
#X connect 52 0 53 0;
#X connect 53 0 47 1;
#X connect 53 0 48 1;
#X connect 54 0 55 0;
#X connect 54 1 55 1;
#X connect 55 0 73 0;
#X connect 56 0 57 0;
#X connect 57 0 54 0;
#X connect 58 0 52 0;
#X connect 59 0 9 0;
#X connect 62 0 63 0;
#X connect 62 1 64 0;
#X connect 63 0 71 0;
#X connect 64 0 65 0;
#X connect 67 0 66 0;
#X connect 67 0 68 0;
#X connect 68 0 70 0;
#X connect 70 0 69 0;
#X connect 71 0 72 0;
#X connect 71 1 72 1;
#X connect 72 0 74 0;
#X connect 73 0 60 0;
#X connect 73 0 3 0;
#X connect 74 0 67 0;
