#N canvas 442 107 1345 775 10;
#N canvas 9 50 612 483 equal_power_crossfade 0;
#X obj 33 48 inlet~;
#X obj 259 41 inlet;
#X obj 33 332 outlet~;
#X obj 351 53 loadbang;
#X msg 351 73 0.5;
#X obj 49 194 expr cos($f1 * 3.14159 / 2);
#X obj 244 194 expr sin($f1 * 3.14159 / 2);
#X obj 244 134 clip 0 1;
#N canvas 5 50 863 690 pan_core 0;
#X obj 21 106 inlet~;
#X obj 369 110 inlet;
#X obj 80 453 *~;
#X obj 80 539 outlet~;
#X obj 210 452 *~;
#X obj 226 358 line~;
#X obj 133 379 line~;
#X obj 145 150 inlet;
#X obj 179 104 inlet~;
#X text 538 610 comment;
#X obj 133 340 pack f 5;
#X obj 226 319 pack f 5;
#X text 517 606 Hans-Christoph Steiner \, 2004;
#X text 517 592 Adapted from [pan_core~];
#X obj 71 106 inlet~;
#X obj 121 438 *~;
#X obj 190 539 outlet~;
#X obj 239 104 inlet~;
#X obj 240 456 *~;
#X connect 0 0 2 0;
#X connect 1 0 11 0;
#X connect 2 0 3 0;
#X connect 4 0 3 0;
#X connect 5 0 4 1;
#X connect 5 0 18 1;
#X connect 6 0 2 1;
#X connect 6 0 15 1;
#X connect 7 0 10 0;
#X connect 8 0 4 0;
#X connect 10 0 6 0;
#X connect 11 0 5 0;
#X connect 14 0 15 0;
#X connect 15 0 16 0;
#X connect 17 0 18 0;
#X connect 18 0 16 0;
#X restore 39 266 pd pan_core;
#X text 256 437 Adapted from [equal_power_pan~] \, Hans-Christoph Steiner
\, 2004;
#X text 411 449 comment;
#X obj 144 45 inlet~;
#X obj 82 49 inlet~;
#X obj 204 41 inlet~;
#X obj 113 332 outlet~;
#X connect 0 0 8 0;
#X connect 1 0 7 0;
#X connect 3 0 4 0;
#X connect 4 0 7 0;
#X connect 5 0 8 2;
#X connect 6 0 8 5;
#X connect 7 0 5 0;
#X connect 7 0 6 0;
#X connect 8 0 2 0;
#X connect 8 1 14 0;
#X connect 11 0 8 3;
#X connect 12 0 8 1;
#X connect 13 0 8 4;
#X restore 18 618 pd equal_power_crossfade;
#X obj 129 554 *~ 10;
#N canvas 476 145 450 300 init 0;
#X obj 214 41 loadbang;
#X msg 217 77 \; del-sin 1 \; fb-sin 1 \; gain-flat 1 \; lp-freq 220
\; slope -0.04 \;;
#X connect 0 0 1 0;
#X restore 446 114 pd init;
#X obj 662 171 *;
#X obj 662 145 t f f;
#X obj 662 198 * 127;
#X obj 876 174 *;
#X obj 876 148 t f f;
#X obj 876 201 * 127;
#X obj 876 238 f;
#X obj 955 206 t b f;
#X obj 637 303 i;
#X obj 831 280 * 100;
#X obj 831 308 i;
#X obj 1182 286 i;
#X obj 993 296 i;
#X text 0 3 Spectral Delay Effect Moduled;
#X msg 831 332 Fbk Spectrum \$1;
#X msg 638 327 Dly Spectrum \$1;
#X msg 993 329 Fbk Scale \$1;
#X msg 1186 327 Dry / Wet \$1 %;
#X obj 637 349 s specdel-\$1-time-label;
#X obj 828 354 s specdel-\$1-fb-label;
#X obj 993 350 s specdel-\$1-fbscale-label;
#X obj 1186 349 s specdel-\$1-dw-label;
#X obj 146 680 *~;
#N canvas 14 50 526 600 switcher 0;
#X obj 113 261 t b b;
#X obj 113 295 delay 5;
#X obj 263 387 line~;
#X msg 176 296 0 4;
#X obj 133 476 *~;
#X msg 113 327 0;
#X obj 113 220 bang;
#X msg 406 229 1;
#X msg 359 193 1 4;
#X obj 352 143 t b b b;
#X obj 139 506 outlet~;
#X obj 371 507 outlet;
#X obj 112 48 inlet;
#X obj 353 50 inlet;
#X connect 0 0 1 0;
#X connect 0 1 3 0;
#X connect 1 0 5 0;
#X connect 2 0 4 0;
#X connect 2 0 4 1;
#X connect 3 0 2 0;
#X connect 4 0 10 0;
#X connect 5 0 11 0;
#X connect 6 0 0 0;
#X connect 7 0 11 0;
#X connect 8 0 2 0;
#X connect 9 1 8 0;
#X connect 9 2 7 0;
#X connect 12 0 6 0;
#X connect 13 0 9 0;
#X restore 324 642 pd switcher;
#X obj 260 673 *~;
#X obj 324 613 sel 0 1;
#X obj 324 590 tgl 15 0 empty empty empty 17 7 0 10 -262144 -1 -1 0
1;
#X obj 398 666 switch~ 64 1 1;
#X obj 324 561 r specdel-\$1-switch;
#X obj 420 595 r \$1-kill-switch;
#X obj 662 123 r specdel-\$1-time;
#X obj 875 126 r specdel-\$1-fb;
#X obj 966 160 r specdel-\$1-fbscale;
#X obj 1132 122 r specdel-\$1-dw;
#X obj 145 722 s~ specdel-\$1-outL;
#X obj 261 702 s~ specdel-\$1-outR;
#X obj 998 232 s fbscale;
#X obj 665 219 s del-sin;
#X obj 876 265 s fb-sin;
#X obj 637 275 * 100;
#X obj 993 264 * 100;
#X obj 1182 264 * 100;
#N canvas 441 225 827 619 mono-switch 0;
#X obj 150 125 *~;
#X obj 20 124 *~;
#X obj 77 284 *~;
#X obj 20 52 inlet~;
#X obj 150 53 inlet~;
#X obj 246 118 sel 1 2, f 40;
#X obj 96 258 vline~;
#X obj 79 82 vline~;
#X obj 21 376 outlet~;
#X obj 151 377 outlet~;
#X obj 384 151 t b b;
#X msg 425 184 0 10;
#X msg 384 185 1 10;
#X text 433 150 stereo;
#X text 290 146 mono;
#X obj 246 151 t b b;
#X msg 287 184 0 10;
#X msg 246 185 1 10;
#X obj 246 96 r fx13-monoSwitch;
#X obj 77 202 r~ pass-inMONO;
#X connect 0 0 9 0;
#X connect 1 0 8 0;
#X connect 2 0 8 0;
#X connect 2 0 9 0;
#X connect 3 0 1 0;
#X connect 4 0 0 0;
#X connect 5 0 15 0;
#X connect 5 1 10 0;
#X connect 6 0 2 1;
#X connect 7 0 1 1;
#X connect 7 0 0 1;
#X connect 10 0 12 0;
#X connect 10 1 11 0;
#X connect 11 0 6 0;
#X connect 12 0 7 0;
#X connect 15 0 17 0;
#X connect 15 1 16 0;
#X connect 16 0 7 0;
#X connect 17 0 6 0;
#X connect 18 0 5 0;
#X connect 19 0 2 0;
#X restore 7 99 pd mono-switch;
#X obj 7 46 r~ specdel-\$1-inL;
#X obj 34 175 Guitar_specdelay~ \$1;
#X obj 1195 211 s specdel-\$1-xfade;
#X obj 184 579 r specdel-\$1-xfade;
#X obj 181 555 *~ 10;
#X obj 25 67 r~ specdel-\$1-inR;
#X obj 1214 151 loadbang;
#X msg 1214 173 0.5;
#X connect 0 0 25 0;
#X connect 0 1 27 0;
#X connect 1 0 0 2;
#X connect 3 0 5 0;
#X connect 4 0 3 0;
#X connect 4 1 3 1;
#X connect 5 0 40 0;
#X connect 6 0 8 0;
#X connect 7 0 6 0;
#X connect 7 1 6 1;
#X connect 8 0 9 0;
#X connect 9 0 41 0;
#X connect 10 0 9 0;
#X connect 10 1 39 0;
#X connect 11 0 18 0;
#X connect 12 0 13 0;
#X connect 13 0 17 0;
#X connect 14 0 20 0;
#X connect 15 0 19 0;
#X connect 17 0 22 0;
#X connect 18 0 21 0;
#X connect 19 0 23 0;
#X connect 20 0 24 0;
#X connect 25 0 37 0;
#X connect 26 0 25 1;
#X connect 26 0 27 1;
#X connect 26 1 30 0;
#X connect 27 0 38 0;
#X connect 28 0 26 0;
#X connect 28 1 26 1;
#X connect 29 0 28 0;
#X connect 31 0 29 0;
#X connect 32 0 29 0;
#X connect 33 0 4 0;
#X connect 33 0 42 0;
#X connect 34 0 7 0;
#X connect 34 0 12 0;
#X connect 35 0 10 0;
#X connect 35 0 43 0;
#X connect 36 0 44 0;
#X connect 42 0 11 0;
#X connect 43 0 15 0;
#X connect 44 0 14 0;
#X connect 45 0 0 0;
#X connect 45 0 47 0;
#X connect 45 1 47 1;
#X connect 45 1 0 1;
#X connect 46 0 45 0;
#X connect 47 0 1 0;
#X connect 47 1 50 0;
#X connect 49 0 0 4;
#X connect 50 0 0 3;
#X connect 51 0 45 1;
#X connect 52 0 53 0;
#X connect 53 0 48 0;
